<?xml version="1.0" encoding="utf-8" standalone="no"?>
<!DOCTYPE svg PUBLIC "-//W3C//DTD SVG 1.1//EN"
  "http://www.w3.org/Graphics/SVG/1.1/DTD/svg11.dtd">
<svg height="325.986375pt" version="1.1" viewBox="0 0 568.985625 325.986375" width="568.985625pt" xmlns="http://www.w3.org/2000/svg" xmlns:xlink="http://www.w3.org/1999/xlink">
 <metadata>
  <rdf:RDF xmlns:cc="http://creativecommons.org/ns#" xmlns:dc="http://purl.org/dc/elements/1.1/" xmlns:rdf="http://www.w3.org/1999/02/22-rdf-syntax-ns#">
   <cc:Work>
    <dc:type rdf:resource="http://purl.org/dc/dcmitype/StillImage"/>
    <dc:date>2022-05-31T14:11:59.907469</dc:date>
    <dc:format>image/svg+xml</dc:format>
    <dc:creator>
     <cc:Agent>
      <dc:title>Matplotlib v3.4.3, https://matplotlib.org/</dc:title>
     </cc:Agent>
    </dc:creator>
   </cc:Work>
  </rdf:RDF>
 </metadata>
 <defs>
  <style type="text/css">*{stroke-linecap:butt;stroke-linejoin:round;}</style>
 </defs>
 <g id="figure_1">
  <g id="patch_1">
   <path d="M 0 325.986375 
L 568.985625 325.986375 
L 568.985625 0 
L 0 0 
z
" style="fill:#ffffff;"/>
  </g>
  <g id="axes_1">
   <g id="patch_2">
    <path d="M 53.328125 288.430125 
L 410.448125 288.430125 
L 410.448125 22.318125 
L 53.328125 22.318125 
z
" style="fill:#ffffff;"/>
   </g>
   <g id="PolyCollection_1">
    <defs>
     <path d="M 69.560852 -115.774931 
L 69.560852 -71.26928 
L 119.327306 -91.296823 
L 148.438816 -107.827493 
L 169.09376 -142.144529 
L 185.11498 -145.951351 
L 198.205269 -145.975193 
L 209.272952 -149.789964 
L 218.860214 -151.061554 
L 227.316779 -220.999004 
L 234.881434 -252.470857 
L 241.724496 -256.921422 
L 247.971723 -258.193012 
L 253.718615 -258.193012 
L 259.039406 -259.7825 
L 263.992943 -261.05409 
L 268.626668 -260.418295 
L 272.979383 -260.418295 
L 277.083233 -260.736192 
L 280.965141 -260.736192 
L 284.647888 -260.736192 
L 288.150915 -261.046142 
L 291.49095 -261.05409 
L 294.68249 -262.309785 
L 297.738177 -261.689885 
L 300.669107 -262.007782 
L 303.485069 -262.317732 
L 306.194742 -263.59727 
L 308.805859 -262.961475 
L 311.32534 -262.961475 
L 313.759397 -262.961475 
L 316.113635 -262.961475 
L 318.393122 -262.961475 
L 320.60246 -262.961475 
L 322.745837 -263.59727 
L 324.827079 -263.59727 
L 326.849687 -273.134195 
L 328.816873 -273.134195 
L 330.731595 -273.452092 
L 332.596578 -282.67112 
L 334.414342 -282.67112 
L 336.187217 -273.76999 
L 337.917369 -273.754095 
L 339.606807 -273.134195 
L 341.257404 -284.260607 
L 342.870906 -284.578505 
L 344.448944 -284.578505 
L 345.993042 -284.578505 
L 347.504631 -284.578505 
L 348.985051 -284.578505 
L 350.435561 -284.896402 
L 351.857347 -284.896402 
L 353.251523 -284.896402 
L 354.619142 -285.2143 
L 355.961196 -285.2143 
L 357.278624 -285.2143 
L 358.572313 -285.2143 
L 359.843104 -284.896402 
L 361.091794 -285.2143 
L 362.319136 -285.2143 
L 363.525851 -284.896402 
L 364.712619 -284.578505 
L 365.880089 -284.896402 
L 367.028878 -284.896402 
L 368.159576 -284.896402 
L 369.272743 -284.896402 
L 370.368914 -284.896402 
L 371.4486 -284.896402 
L 372.512291 -285.2143 
L 373.560453 -285.2143 
L 374.593533 -285.2143 
L 375.611959 -285.2143 
L 376.616141 -285.850095 
L 377.606471 -285.532197 
L 378.583327 -285.850095 
L 379.547071 -285.532197 
L 380.498049 -285.850095 
L 381.436596 -285.850095 
L 382.363032 -285.850095 
L 383.277666 -285.850095 
L 384.180795 -285.850095 
L 385.072705 -285.850095 
L 385.953671 -285.532197 
L 386.823958 -285.532197 
L 387.683823 -285.850095 
L 388.533511 -285.850095 
L 389.373261 -285.850095 
L 390.203303 -285.850095 
L 391.023858 -286.160045 
L 391.835142 -285.850095 
L 392.63736 -286.167992 
L 393.430714 -286.167992 
L 394.215398 -286.48589 
L 394.215398 -291.254352 
L 394.215398 -291.254352 
L 393.430714 -291.254352 
L 392.63736 -291.254352 
L 391.835142 -291.57225 
L 391.023858 -291.57225 
L 390.203303 -291.57225 
L 389.373261 -291.57225 
L 388.533511 -291.254352 
L 387.683823 -291.254352 
L 386.823958 -291.254352 
L 385.953671 -291.254352 
L 385.072705 -291.254352 
L 384.180795 -290.936455 
L 383.277666 -290.936455 
L 382.363032 -290.936455 
L 381.436596 -290.936455 
L 380.498049 -291.254352 
L 379.547071 -290.936455 
L 378.583327 -291.254352 
L 377.606471 -291.254352 
L 376.616141 -291.254352 
L 375.611959 -291.254352 
L 374.593533 -290.936455 
L 373.560453 -290.936455 
L 372.512291 -290.936455 
L 371.4486 -290.936455 
L 370.368914 -289.346967 
L 369.272743 -288.71912 
L 368.159576 -289.02907 
L 367.028878 -289.02907 
L 365.880089 -289.02907 
L 364.712619 -289.02907 
L 363.525851 -289.02907 
L 362.319136 -287.121685 
L 361.091794 -287.121685 
L 359.843104 -289.02907 
L 358.572313 -288.401222 
L 357.278624 -287.121685 
L 355.961196 -287.121685 
L 354.619142 -287.121685 
L 353.251523 -289.02907 
L 351.857347 -289.02907 
L 350.435561 -286.48589 
L 348.985051 -286.48589 
L 347.504631 -286.48589 
L 345.993042 -285.850095 
L 344.448944 -285.850095 
L 342.870906 -285.850095 
L 341.257404 -285.850095 
L 339.606807 -285.2143 
L 337.917369 -285.2143 
L 336.187217 -285.2143 
L 334.414342 -285.2143 
L 332.596578 -285.2143 
L 330.731595 -285.2143 
L 328.816873 -285.2143 
L 326.849687 -285.2143 
L 324.827079 -285.2143 
L 322.745837 -284.578505 
L 320.60246 -284.578505 
L 318.393122 -284.578505 
L 316.113635 -284.578505 
L 313.759397 -284.578505 
L 311.32534 -284.578505 
L 308.805859 -284.578505 
L 306.194742 -284.578505 
L 303.485069 -283.94271 
L 300.669107 -283.950657 
L 297.738177 -284.260607 
L 294.68249 -283.94271 
L 291.49095 -283.94271 
L 288.150915 -283.624812 
L 284.647888 -283.624812 
L 280.965141 -283.624812 
L 277.083233 -283.624812 
L 272.979383 -283.624812 
L 268.626668 -283.624812 
L 263.992943 -283.306915 
L 259.039406 -282.035325 
L 253.718615 -282.035325 
L 247.971723 -281.39953 
L 241.724496 -281.081632 
L 234.881434 -280.763735 
L 227.316779 -280.445837 
L 218.860214 -258.51091 
L 209.272952 -258.193012 
L 198.205269 -258.193012 
L 185.11498 -257.23932 
L 169.09376 -235.940187 
L 148.438816 -215.912644 
L 119.327306 -211.462079 
L 69.560852 -115.774931 
z
" id="m1ccdc3297e" style="stroke:#d62728;stroke-opacity:0.2;"/>
    </defs>
    <g clip-path="url(#p40569e7428)">
     <use style="fill:#d62728;fill-opacity:0.2;stroke:#d62728;stroke-opacity:0.2;" x="0" xlink:href="#m1ccdc3297e" y="325.986375"/>
    </g>
   </g>
   <g id="PolyCollection_2">
    <defs>
     <path d="M 69.560852 -172.678584 
L 69.560852 -76.037743 
L 119.327306 -109.734878 
L 148.438816 -177.764944 
L 169.09376 -219.727414 
L 185.11498 -255.96773 
L 198.205269 -257.23932 
L 209.272952 -257.23932 
L 218.860214 -257.875115 
L 227.316779 -257.875115 
L 234.881434 -257.875115 
L 241.724496 -257.875115 
L 247.971723 -257.875115 
L 253.718615 -258.51091 
L 259.039406 -258.51091 
L 263.992943 -258.51091 
L 268.626668 -258.51091 
L 272.979383 -258.51091 
L 277.083233 -258.51091 
L 280.965141 -259.146705 
L 284.647888 -259.146705 
L 288.150915 -259.146705 
L 291.49095 -259.146705 
L 294.68249 -259.146705 
L 297.738177 -259.146705 
L 300.669107 -259.146705 
L 303.485069 -259.146705 
L 306.194742 -259.7825 
L 308.805859 -259.7825 
L 311.32534 -259.7825 
L 313.759397 -259.7825 
L 316.113635 -259.7825 
L 318.393122 -259.7825 
L 320.60246 -259.7825 
L 322.745837 -259.7825 
L 324.827079 -260.4024 
L 326.849687 -259.7825 
L 328.816873 -259.7825 
L 330.731595 -259.7825 
L 332.596578 -259.7825 
L 334.414342 -260.418295 
L 336.187217 -260.418295 
L 337.917369 -260.418295 
L 339.606807 -261.05409 
L 341.257404 -261.05409 
L 342.870906 -261.05409 
L 344.448944 -261.05409 
L 345.993042 -261.05409 
L 347.504631 -261.05409 
L 348.985051 -261.05409 
L 350.435561 -261.05409 
L 351.857347 -261.05409 
L 353.251523 -261.05409 
L 354.619142 -261.05409 
L 355.961196 -261.05409 
L 357.278624 -261.05409 
L 358.572313 -261.05409 
L 359.843104 -261.05409 
L 361.091794 -261.05409 
L 362.319136 -261.05409 
L 363.525851 -261.05409 
L 364.712619 -261.05409 
L 365.880089 -261.05409 
L 367.028878 -261.05409 
L 368.159576 -261.05409 
L 369.272743 -261.05409 
L 370.368914 -261.689885 
L 371.4486 -261.689885 
L 372.512291 -261.689885 
L 373.560453 -261.689885 
L 374.593533 -261.689885 
L 375.611959 -261.689885 
L 376.616141 -261.689885 
L 377.606471 -261.689885 
L 378.583327 -261.689885 
L 379.547071 -261.689885 
L 380.498049 -262.32568 
L 381.436596 -261.689885 
L 382.363032 -261.689885 
L 383.277666 -261.689885 
L 384.180795 -261.689885 
L 385.072705 -261.689885 
L 385.953671 -261.689885 
L 386.823958 -261.689885 
L 387.683823 -261.689885 
L 388.533511 -261.689885 
L 389.373261 -261.689885 
L 390.203303 -261.689885 
L 391.023858 -261.689885 
L 391.835142 -263.59727 
L 392.63736 -263.59727 
L 393.430714 -263.59727 
L 394.215398 -263.59727 
L 394.215398 -287.75748 
L 394.215398 -287.75748 
L 393.430714 -287.75748 
L 392.63736 -287.75748 
L 391.835142 -287.121685 
L 391.023858 -287.121685 
L 390.203303 -287.121685 
L 389.373261 -287.121685 
L 388.533511 -287.121685 
L 387.683823 -287.121685 
L 386.823958 -287.121685 
L 385.953671 -287.121685 
L 385.072705 -287.121685 
L 384.180795 -287.121685 
L 383.277666 -287.121685 
L 382.363032 -287.121685 
L 381.436596 -287.121685 
L 380.498049 -287.121685 
L 379.547071 -286.48589 
L 378.583327 -286.48589 
L 377.606471 -286.48589 
L 376.616141 -286.48589 
L 375.611959 -286.48589 
L 374.593533 -285.850095 
L 373.560453 -285.850095 
L 372.512291 -285.850095 
L 371.4486 -285.850095 
L 370.368914 -285.850095 
L 369.272743 -285.850095 
L 368.159576 -285.850095 
L 367.028878 -285.2143 
L 365.880089 -285.2143 
L 364.712619 -285.2143 
L 363.525851 -285.2143 
L 362.319136 -285.2143 
L 361.091794 -285.2143 
L 359.843104 -285.2143 
L 358.572313 -285.2143 
L 357.278624 -285.2143 
L 355.961196 -285.2143 
L 354.619142 -285.2143 
L 353.251523 -285.2143 
L 351.857347 -285.2143 
L 350.435561 -285.2143 
L 348.985051 -285.2143 
L 347.504631 -285.2143 
L 345.993042 -285.2143 
L 344.448944 -285.2143 
L 342.870906 -285.2143 
L 341.257404 -285.2143 
L 339.606807 -285.2143 
L 337.917369 -285.2143 
L 336.187217 -285.2143 
L 334.414342 -285.2143 
L 332.596578 -285.2143 
L 330.731595 -285.2143 
L 328.816873 -285.2143 
L 326.849687 -285.2143 
L 324.827079 -285.2143 
L 322.745837 -285.2143 
L 320.60246 -285.2143 
L 318.393122 -285.2143 
L 316.113635 -285.2143 
L 313.759397 -285.2143 
L 311.32534 -285.2143 
L 308.805859 -285.2143 
L 306.194742 -285.2143 
L 303.485069 -285.2143 
L 300.669107 -284.578505 
L 297.738177 -283.306915 
L 294.68249 -283.306915 
L 291.49095 -282.687015 
L 288.150915 -283.306915 
L 284.647888 -283.306915 
L 280.965141 -283.306915 
L 277.083233 -282.67112 
L 272.979383 -282.67112 
L 268.626668 -282.67112 
L 263.992943 -282.035325 
L 259.039406 -281.39953 
L 253.718615 -278.220555 
L 247.971723 -272.4984 
L 241.724496 -272.4984 
L 234.881434 -261.689885 
L 227.316779 -261.689885 
L 218.860214 -261.689885 
L 209.272952 -260.418295 
L 198.205269 -260.418295 
L 185.11498 -260.418295 
L 169.09376 -259.146705 
L 148.438816 -257.23932 
L 119.327306 -198.746179 
L 69.560852 -172.678584 
z
" id="m178daa6557" style="stroke:#1f77b4;stroke-opacity:0.2;"/>
    </defs>
    <g clip-path="url(#p40569e7428)">
     <use style="fill:#1f77b4;fill-opacity:0.2;stroke:#1f77b4;stroke-opacity:0.2;" x="0" xlink:href="#m178daa6557" y="325.986375"/>
    </g>
   </g>
   <g id="PolyCollection_3">
    <defs>
     <path d="M 69.560852 -69.043998 
L 69.560852 -49.65225 
L 119.327306 -56.328098 
L 148.438816 -67.772408 
L 169.09376 -69.043998 
L 185.11498 -70.315588 
L 198.205269 -70.315588 
L 209.272952 -71.587178 
L 218.860214 -71.587178 
L 227.316779 -71.587178 
L 234.881434 -71.587178 
L 241.724496 -71.587178 
L 247.971723 -79.852513 
L 253.718615 -79.852513 
L 259.039406 -81.759898 
L 263.992943 -83.667283 
L 268.626668 -86.210463 
L 272.979383 -83.667283 
L 277.083233 -86.210463 
L 280.965141 -86.210463 
L 284.647888 -86.210463 
L 288.150915 -86.846258 
L 291.49095 -86.846258 
L 294.68249 -86.846258 
L 297.738177 -88.117848 
L 300.669107 -88.117848 
L 303.485069 -88.117848 
L 306.194742 -88.117848 
L 308.805859 -88.117848 
L 311.32534 -88.117848 
L 313.759397 -88.117848 
L 316.113635 -88.117848 
L 318.393122 -88.117848 
L 320.60246 -113.549648 
L 322.745837 -118.636008 
L 324.827079 -113.549648 
L 326.849687 -113.549648 
L 328.816873 -113.549648 
L 330.731595 -113.549648 
L 332.596578 -113.549648 
L 334.414342 -113.549648 
L 336.187217 -113.549648 
L 337.917369 -113.549648 
L 339.606807 -119.907598 
L 341.257404 -123.086573 
L 342.870906 -123.086573 
L 344.448944 -123.086573 
L 345.993042 -125.629753 
L 347.504631 -125.629753 
L 348.985051 -126.901343 
L 350.435561 -126.901343 
L 351.857347 -126.901343 
L 353.251523 -126.265548 
L 354.619142 -126.265548 
L 355.961196 -126.265548 
L 357.278624 -126.265548 
L 358.572313 -126.265548 
L 359.843104 -126.901343 
L 361.091794 -126.901343 
L 362.319136 -126.901343 
L 363.525851 -126.901343 
L 364.712619 -126.901343 
L 365.880089 -126.901343 
L 367.028878 -126.901343 
L 368.159576 -126.901343 
L 369.272743 -126.901343 
L 370.368914 -126.901343 
L 371.4486 -126.583446 
L 372.512291 -126.265548 
L 373.560453 -127.219241 
L 374.593533 -127.219241 
L 375.611959 -127.537138 
L 376.616141 -127.219241 
L 377.606471 -127.537138 
L 378.583327 -128.490831 
L 379.547071 -128.808728 
L 380.498049 -128.808728 
L 381.436596 -128.490831 
L 382.363032 -128.172933 
L 383.277666 -128.490831 
L 384.180795 -128.490831 
L 385.072705 -128.808728 
L 385.953671 -128.490831 
L 386.823958 -128.490831 
L 387.683823 -128.808728 
L 388.533511 -128.808728 
L 389.373261 -128.808728 
L 390.203303 -128.808728 
L 391.023858 -128.490831 
L 391.835142 -128.808728 
L 392.63736 -128.808728 
L 393.430714 -128.808728 
L 394.215398 -128.490831 
L 394.215398 -256.921422 
L 394.215398 -256.921422 
L 393.430714 -256.603525 
L 392.63736 -256.603525 
L 391.835142 -256.921422 
L 391.023858 -256.921422 
L 390.203303 -256.921422 
L 389.373261 -256.921422 
L 388.533511 -256.921422 
L 387.683823 -256.921422 
L 386.823958 -256.921422 
L 385.953671 -256.921422 
L 385.072705 -256.603525 
L 384.180795 -256.603525 
L 383.277666 -255.96773 
L 382.363032 -256.285627 
L 381.436596 -255.96773 
L 380.498049 -255.975677 
L 379.547071 -256.285627 
L 378.583327 -255.96773 
L 377.606471 -255.96773 
L 376.616141 -255.649832 
L 375.611959 -255.649832 
L 374.593533 -255.331935 
L 373.560453 -255.331935 
L 372.512291 -255.331935 
L 371.4486 -255.331935 
L 370.368914 -255.96773 
L 369.272743 -255.96773 
L 368.159576 -255.96773 
L 367.028878 -255.96773 
L 365.880089 -255.96773 
L 364.712619 -255.96773 
L 363.525851 -255.96773 
L 362.319136 -255.96773 
L 361.091794 -255.96773 
L 359.843104 -255.96773 
L 358.572313 -255.649832 
L 357.278624 -239.119162 
L 355.961196 -238.809212 
L 354.619142 -239.119162 
L 353.251523 -239.119162 
L 351.857347 -255.331935 
L 350.435561 -255.331935 
L 348.985051 -255.331935 
L 347.504631 -255.331935 
L 345.993042 -255.331935 
L 344.448944 -255.331935 
L 342.870906 -255.331935 
L 341.257404 -255.331935 
L 339.606807 -255.331935 
L 337.917369 -255.331935 
L 336.187217 -255.331935 
L 334.414342 -255.331935 
L 332.596578 -255.331935 
L 330.731595 -255.331935 
L 328.816873 -255.331935 
L 326.849687 -255.331935 
L 324.827079 -255.331935 
L 322.745837 -226.721159 
L 320.60246 -226.721159 
L 318.393122 -224.813774 
L 316.113635 -224.813774 
L 313.759397 -221.634799 
L 311.32534 -221.634799 
L 308.805859 -174.585969 
L 306.194742 -174.585969 
L 303.485069 -173.314379 
L 300.669107 -173.346169 
L 297.738177 -221.634799 
L 294.68249 -221.634799 
L 291.49095 -221.634799 
L 288.150915 -221.634799 
L 284.647888 -122.450778 
L 280.965141 -118.731377 
L 277.083233 -122.450778 
L 272.979383 -118.636008 
L 268.626668 -116.092828 
L 263.992943 -114.853028 
L 259.039406 -114.821238 
L 253.718615 -114.821238 
L 247.971723 -112.278058 
L 241.724496 -112.278058 
L 234.881434 -112.278058 
L 227.316779 -111.006468 
L 218.860214 -111.006468 
L 209.272952 -111.006468 
L 198.205269 -111.006468 
L 185.11498 -111.006468 
L 169.09376 -79.852513 
L 148.438816 -78.89882 
L 119.327306 -71.587178 
L 69.560852 -69.043998 
z
" id="m1ce8bf480a" style="stroke:#98df8a;stroke-opacity:0.2;"/>
    </defs>
    <g clip-path="url(#p40569e7428)">
     <use style="fill:#98df8a;fill-opacity:0.2;stroke:#98df8a;stroke-opacity:0.2;" x="0" xlink:href="#m1ce8bf480a" y="325.986375"/>
    </g>
   </g>
   <g id="matplotlib.axis_1">
    <g id="xtick_1">
     <g id="line2d_1">
      <defs>
       <path d="M 0 0 
L 0 3.5 
" id="md40e0c94ec" style="stroke:#000000;stroke-width:0.8;"/>
      </defs>
      <g>
       <use style="stroke:#000000;stroke-width:0.8;" x="69.560852" xlink:href="#md40e0c94ec" y="288.430125"/>
      </g>
     </g>
     <g id="text_1">
      <!-- 14m -->
      <g transform="translate(58.32804 303.028562)scale(0.1 -0.1)">
       <defs>
        <path d="M 794 531 
L 1825 531 
L 1825 4091 
L 703 3866 
L 703 4441 
L 1819 4666 
L 2450 4666 
L 2450 531 
L 3481 531 
L 3481 0 
L 794 0 
L 794 531 
z
" id="DejaVuSans-31" transform="scale(0.015625)"/>
        <path d="M 2419 4116 
L 825 1625 
L 2419 1625 
L 2419 4116 
z
M 2253 4666 
L 3047 4666 
L 3047 1625 
L 3713 1625 
L 3713 1100 
L 3047 1100 
L 3047 0 
L 2419 0 
L 2419 1100 
L 313 1100 
L 313 1709 
L 2253 4666 
z
" id="DejaVuSans-34" transform="scale(0.015625)"/>
        <path d="M 3328 2828 
Q 3544 3216 3844 3400 
Q 4144 3584 4550 3584 
Q 5097 3584 5394 3201 
Q 5691 2819 5691 2113 
L 5691 0 
L 5113 0 
L 5113 2094 
Q 5113 2597 4934 2840 
Q 4756 3084 4391 3084 
Q 3944 3084 3684 2787 
Q 3425 2491 3425 1978 
L 3425 0 
L 2847 0 
L 2847 2094 
Q 2847 2600 2669 2842 
Q 2491 3084 2119 3084 
Q 1678 3084 1418 2786 
Q 1159 2488 1159 1978 
L 1159 0 
L 581 0 
L 581 3500 
L 1159 3500 
L 1159 2956 
Q 1356 3278 1631 3431 
Q 1906 3584 2284 3584 
Q 2666 3584 2933 3390 
Q 3200 3197 3328 2828 
z
" id="DejaVuSans-6d" transform="scale(0.015625)"/>
       </defs>
       <use xlink:href="#DejaVuSans-31"/>
       <use x="63.623047" xlink:href="#DejaVuSans-34"/>
       <use x="127.246094" xlink:href="#DejaVuSans-6d"/>
      </g>
     </g>
    </g>
    <g id="xtick_2">
     <g id="line2d_2">
      <g>
       <use style="stroke:#000000;stroke-width:0.8;" x="134.491935" xlink:href="#md40e0c94ec" y="288.430125"/>
      </g>
     </g>
     <g id="text_2">
      <!-- 37m -->
      <g transform="translate(123.259122 303.028562)scale(0.1 -0.1)">
       <defs>
        <path d="M 2597 2516 
Q 3050 2419 3304 2112 
Q 3559 1806 3559 1356 
Q 3559 666 3084 287 
Q 2609 -91 1734 -91 
Q 1441 -91 1130 -33 
Q 819 25 488 141 
L 488 750 
Q 750 597 1062 519 
Q 1375 441 1716 441 
Q 2309 441 2620 675 
Q 2931 909 2931 1356 
Q 2931 1769 2642 2001 
Q 2353 2234 1838 2234 
L 1294 2234 
L 1294 2753 
L 1863 2753 
Q 2328 2753 2575 2939 
Q 2822 3125 2822 3475 
Q 2822 3834 2567 4026 
Q 2313 4219 1838 4219 
Q 1578 4219 1281 4162 
Q 984 4106 628 3988 
L 628 4550 
Q 988 4650 1302 4700 
Q 1616 4750 1894 4750 
Q 2613 4750 3031 4423 
Q 3450 4097 3450 3541 
Q 3450 3153 3228 2886 
Q 3006 2619 2597 2516 
z
" id="DejaVuSans-33" transform="scale(0.015625)"/>
        <path d="M 525 4666 
L 3525 4666 
L 3525 4397 
L 1831 0 
L 1172 0 
L 2766 4134 
L 525 4134 
L 525 4666 
z
" id="DejaVuSans-37" transform="scale(0.015625)"/>
       </defs>
       <use xlink:href="#DejaVuSans-33"/>
       <use x="63.623047" xlink:href="#DejaVuSans-37"/>
       <use x="127.246094" xlink:href="#DejaVuSans-6d"/>
      </g>
     </g>
    </g>
    <g id="xtick_3">
     <g id="line2d_3">
      <g>
       <use style="stroke:#000000;stroke-width:0.8;" x="199.423017" xlink:href="#md40e0c94ec" y="288.430125"/>
      </g>
     </g>
     <g id="text_3">
      <!-- 1h:31m -->
      <g transform="translate(180.15583 303.028562)scale(0.1 -0.1)">
       <defs>
        <path d="M 3513 2113 
L 3513 0 
L 2938 0 
L 2938 2094 
Q 2938 2591 2744 2837 
Q 2550 3084 2163 3084 
Q 1697 3084 1428 2787 
Q 1159 2491 1159 1978 
L 1159 0 
L 581 0 
L 581 4863 
L 1159 4863 
L 1159 2956 
Q 1366 3272 1645 3428 
Q 1925 3584 2291 3584 
Q 2894 3584 3203 3211 
Q 3513 2838 3513 2113 
z
" id="DejaVuSans-68" transform="scale(0.015625)"/>
        <path d="M 750 794 
L 1409 794 
L 1409 0 
L 750 0 
L 750 794 
z
M 750 3309 
L 1409 3309 
L 1409 2516 
L 750 2516 
L 750 3309 
z
" id="DejaVuSans-3a" transform="scale(0.015625)"/>
       </defs>
       <use xlink:href="#DejaVuSans-31"/>
       <use x="63.623047" xlink:href="#DejaVuSans-68"/>
       <use x="127.001953" xlink:href="#DejaVuSans-3a"/>
       <use x="160.693359" xlink:href="#DejaVuSans-33"/>
       <use x="224.316406" xlink:href="#DejaVuSans-31"/>
       <use x="287.939453" xlink:href="#DejaVuSans-6d"/>
      </g>
     </g>
    </g>
    <g id="xtick_4">
     <g id="line2d_4">
      <g>
       <use style="stroke:#000000;stroke-width:0.8;" x="264.3541" xlink:href="#md40e0c94ec" y="288.430125"/>
      </g>
     </g>
     <g id="text_4">
      <!-- 3h:46m -->
      <g transform="translate(245.086912 303.028562)scale(0.1 -0.1)">
       <defs>
        <path d="M 2113 2584 
Q 1688 2584 1439 2293 
Q 1191 2003 1191 1497 
Q 1191 994 1439 701 
Q 1688 409 2113 409 
Q 2538 409 2786 701 
Q 3034 994 3034 1497 
Q 3034 2003 2786 2293 
Q 2538 2584 2113 2584 
z
M 3366 4563 
L 3366 3988 
Q 3128 4100 2886 4159 
Q 2644 4219 2406 4219 
Q 1781 4219 1451 3797 
Q 1122 3375 1075 2522 
Q 1259 2794 1537 2939 
Q 1816 3084 2150 3084 
Q 2853 3084 3261 2657 
Q 3669 2231 3669 1497 
Q 3669 778 3244 343 
Q 2819 -91 2113 -91 
Q 1303 -91 875 529 
Q 447 1150 447 2328 
Q 447 3434 972 4092 
Q 1497 4750 2381 4750 
Q 2619 4750 2861 4703 
Q 3103 4656 3366 4563 
z
" id="DejaVuSans-36" transform="scale(0.015625)"/>
       </defs>
       <use xlink:href="#DejaVuSans-33"/>
       <use x="63.623047" xlink:href="#DejaVuSans-68"/>
       <use x="127.001953" xlink:href="#DejaVuSans-3a"/>
       <use x="160.693359" xlink:href="#DejaVuSans-34"/>
       <use x="224.316406" xlink:href="#DejaVuSans-36"/>
       <use x="287.939453" xlink:href="#DejaVuSans-6d"/>
      </g>
     </g>
    </g>
    <g id="xtick_5">
     <g id="line2d_5">
      <g>
       <use style="stroke:#000000;stroke-width:0.8;" x="329.285182" xlink:href="#md40e0c94ec" y="288.430125"/>
      </g>
     </g>
     <g id="text_5">
      <!-- 9h:18m -->
      <g transform="translate(310.017995 303.028562)scale(0.1 -0.1)">
       <defs>
        <path d="M 703 97 
L 703 672 
Q 941 559 1184 500 
Q 1428 441 1663 441 
Q 2288 441 2617 861 
Q 2947 1281 2994 2138 
Q 2813 1869 2534 1725 
Q 2256 1581 1919 1581 
Q 1219 1581 811 2004 
Q 403 2428 403 3163 
Q 403 3881 828 4315 
Q 1253 4750 1959 4750 
Q 2769 4750 3195 4129 
Q 3622 3509 3622 2328 
Q 3622 1225 3098 567 
Q 2575 -91 1691 -91 
Q 1453 -91 1209 -44 
Q 966 3 703 97 
z
M 1959 2075 
Q 2384 2075 2632 2365 
Q 2881 2656 2881 3163 
Q 2881 3666 2632 3958 
Q 2384 4250 1959 4250 
Q 1534 4250 1286 3958 
Q 1038 3666 1038 3163 
Q 1038 2656 1286 2365 
Q 1534 2075 1959 2075 
z
" id="DejaVuSans-39" transform="scale(0.015625)"/>
        <path d="M 2034 2216 
Q 1584 2216 1326 1975 
Q 1069 1734 1069 1313 
Q 1069 891 1326 650 
Q 1584 409 2034 409 
Q 2484 409 2743 651 
Q 3003 894 3003 1313 
Q 3003 1734 2745 1975 
Q 2488 2216 2034 2216 
z
M 1403 2484 
Q 997 2584 770 2862 
Q 544 3141 544 3541 
Q 544 4100 942 4425 
Q 1341 4750 2034 4750 
Q 2731 4750 3128 4425 
Q 3525 4100 3525 3541 
Q 3525 3141 3298 2862 
Q 3072 2584 2669 2484 
Q 3125 2378 3379 2068 
Q 3634 1759 3634 1313 
Q 3634 634 3220 271 
Q 2806 -91 2034 -91 
Q 1263 -91 848 271 
Q 434 634 434 1313 
Q 434 1759 690 2068 
Q 947 2378 1403 2484 
z
M 1172 3481 
Q 1172 3119 1398 2916 
Q 1625 2713 2034 2713 
Q 2441 2713 2670 2916 
Q 2900 3119 2900 3481 
Q 2900 3844 2670 4047 
Q 2441 4250 2034 4250 
Q 1625 4250 1398 4047 
Q 1172 3844 1172 3481 
z
" id="DejaVuSans-38" transform="scale(0.015625)"/>
       </defs>
       <use xlink:href="#DejaVuSans-39"/>
       <use x="63.623047" xlink:href="#DejaVuSans-68"/>
       <use x="127.001953" xlink:href="#DejaVuSans-3a"/>
       <use x="160.693359" xlink:href="#DejaVuSans-31"/>
       <use x="224.316406" xlink:href="#DejaVuSans-38"/>
       <use x="287.939453" xlink:href="#DejaVuSans-6d"/>
      </g>
     </g>
    </g>
    <g id="xtick_6">
     <g id="line2d_6">
      <g>
       <use style="stroke:#000000;stroke-width:0.8;" x="394.216265" xlink:href="#md40e0c94ec" y="288.430125"/>
      </g>
     </g>
     <g id="text_6">
      <!-- 23h -->
      <g transform="translate(384.685015 303.028562)scale(0.1 -0.1)">
       <defs>
        <path d="M 1228 531 
L 3431 531 
L 3431 0 
L 469 0 
L 469 531 
Q 828 903 1448 1529 
Q 2069 2156 2228 2338 
Q 2531 2678 2651 2914 
Q 2772 3150 2772 3378 
Q 2772 3750 2511 3984 
Q 2250 4219 1831 4219 
Q 1534 4219 1204 4116 
Q 875 4013 500 3803 
L 500 4441 
Q 881 4594 1212 4672 
Q 1544 4750 1819 4750 
Q 2544 4750 2975 4387 
Q 3406 4025 3406 3419 
Q 3406 3131 3298 2873 
Q 3191 2616 2906 2266 
Q 2828 2175 2409 1742 
Q 1991 1309 1228 531 
z
" id="DejaVuSans-32" transform="scale(0.015625)"/>
       </defs>
       <use xlink:href="#DejaVuSans-32"/>
       <use x="63.623047" xlink:href="#DejaVuSans-33"/>
       <use x="127.246094" xlink:href="#DejaVuSans-68"/>
      </g>
     </g>
    </g>
    <g id="xtick_7">
     <g id="line2d_7">
      <defs>
       <path d="M 0 0 
L 0 2 
" id="m5945472c09" style="stroke:#000000;stroke-width:0.6;"/>
      </defs>
      <g>
       <use style="stroke:#000000;stroke-width:0.6;" x="61.104288" xlink:href="#m5945472c09" y="288.430125"/>
      </g>
     </g>
    </g>
    <g id="xtick_8">
     <g id="line2d_8">
      <g>
       <use style="stroke:#000000;stroke-width:0.6;" x="126.891961" xlink:href="#m5945472c09" y="288.430125"/>
      </g>
     </g>
    </g>
    <g id="xtick_9">
     <g id="line2d_9">
      <g>
       <use style="stroke:#000000;stroke-width:0.6;" x="156.00347" xlink:href="#m5945472c09" y="288.430125"/>
      </g>
     </g>
    </g>
    <g id="xtick_10">
     <g id="line2d_10">
      <g>
       <use style="stroke:#000000;stroke-width:0.6;" x="176.658415" xlink:href="#m5945472c09" y="288.430125"/>
      </g>
     </g>
    </g>
    <g id="xtick_11">
     <g id="line2d_11">
      <g>
       <use style="stroke:#000000;stroke-width:0.6;" x="192.679635" xlink:href="#m5945472c09" y="288.430125"/>
      </g>
     </g>
    </g>
    <g id="xtick_12">
     <g id="line2d_12">
      <g>
       <use style="stroke:#000000;stroke-width:0.6;" x="205.769924" xlink:href="#m5945472c09" y="288.430125"/>
      </g>
     </g>
    </g>
    <g id="xtick_13">
     <g id="line2d_13">
      <g>
       <use style="stroke:#000000;stroke-width:0.6;" x="216.837607" xlink:href="#m5945472c09" y="288.430125"/>
      </g>
     </g>
    </g>
    <g id="xtick_14">
     <g id="line2d_14">
      <g>
       <use style="stroke:#000000;stroke-width:0.6;" x="226.424869" xlink:href="#m5945472c09" y="288.430125"/>
      </g>
     </g>
    </g>
    <g id="xtick_15">
     <g id="line2d_15">
      <g>
       <use style="stroke:#000000;stroke-width:0.6;" x="234.881434" xlink:href="#m5945472c09" y="288.430125"/>
      </g>
     </g>
    </g>
    <g id="xtick_16">
     <g id="line2d_16">
      <g>
       <use style="stroke:#000000;stroke-width:0.6;" x="292.212543" xlink:href="#m5945472c09" y="288.430125"/>
      </g>
     </g>
    </g>
    <g id="xtick_17">
     <g id="line2d_17">
      <g>
       <use style="stroke:#000000;stroke-width:0.6;" x="321.324052" xlink:href="#m5945472c09" y="288.430125"/>
      </g>
     </g>
    </g>
    <g id="xtick_18">
     <g id="line2d_18">
      <g>
       <use style="stroke:#000000;stroke-width:0.6;" x="341.978996" xlink:href="#m5945472c09" y="288.430125"/>
      </g>
     </g>
    </g>
    <g id="xtick_19">
     <g id="line2d_19">
      <g>
       <use style="stroke:#000000;stroke-width:0.6;" x="358.000216" xlink:href="#m5945472c09" y="288.430125"/>
      </g>
     </g>
    </g>
    <g id="xtick_20">
     <g id="line2d_20">
      <g>
       <use style="stroke:#000000;stroke-width:0.6;" x="371.090506" xlink:href="#m5945472c09" y="288.430125"/>
      </g>
     </g>
    </g>
    <g id="xtick_21">
     <g id="line2d_21">
      <g>
       <use style="stroke:#000000;stroke-width:0.6;" x="382.158188" xlink:href="#m5945472c09" y="288.430125"/>
      </g>
     </g>
    </g>
    <g id="xtick_22">
     <g id="line2d_22">
      <g>
       <use style="stroke:#000000;stroke-width:0.6;" x="391.74545" xlink:href="#m5945472c09" y="288.430125"/>
      </g>
     </g>
    </g>
    <g id="xtick_23">
     <g id="line2d_23">
      <g>
       <use style="stroke:#000000;stroke-width:0.6;" x="400.202015" xlink:href="#m5945472c09" y="288.430125"/>
      </g>
     </g>
    </g>
    <g id="text_7">
     <!-- Time (hour:minute) -->
     <g transform="translate(183.481094 316.706687)scale(0.1 -0.1)">
      <defs>
       <path d="M -19 4666 
L 3928 4666 
L 3928 4134 
L 2272 4134 
L 2272 0 
L 1638 0 
L 1638 4134 
L -19 4134 
L -19 4666 
z
" id="DejaVuSans-54" transform="scale(0.015625)"/>
       <path d="M 603 3500 
L 1178 3500 
L 1178 0 
L 603 0 
L 603 3500 
z
M 603 4863 
L 1178 4863 
L 1178 4134 
L 603 4134 
L 603 4863 
z
" id="DejaVuSans-69" transform="scale(0.015625)"/>
       <path d="M 3597 1894 
L 3597 1613 
L 953 1613 
Q 991 1019 1311 708 
Q 1631 397 2203 397 
Q 2534 397 2845 478 
Q 3156 559 3463 722 
L 3463 178 
Q 3153 47 2828 -22 
Q 2503 -91 2169 -91 
Q 1331 -91 842 396 
Q 353 884 353 1716 
Q 353 2575 817 3079 
Q 1281 3584 2069 3584 
Q 2775 3584 3186 3129 
Q 3597 2675 3597 1894 
z
M 3022 2063 
Q 3016 2534 2758 2815 
Q 2500 3097 2075 3097 
Q 1594 3097 1305 2825 
Q 1016 2553 972 2059 
L 3022 2063 
z
" id="DejaVuSans-65" transform="scale(0.015625)"/>
       <path id="DejaVuSans-20" transform="scale(0.015625)"/>
       <path d="M 1984 4856 
Q 1566 4138 1362 3434 
Q 1159 2731 1159 2009 
Q 1159 1288 1364 580 
Q 1569 -128 1984 -844 
L 1484 -844 
Q 1016 -109 783 600 
Q 550 1309 550 2009 
Q 550 2706 781 3412 
Q 1013 4119 1484 4856 
L 1984 4856 
z
" id="DejaVuSans-28" transform="scale(0.015625)"/>
       <path d="M 1959 3097 
Q 1497 3097 1228 2736 
Q 959 2375 959 1747 
Q 959 1119 1226 758 
Q 1494 397 1959 397 
Q 2419 397 2687 759 
Q 2956 1122 2956 1747 
Q 2956 2369 2687 2733 
Q 2419 3097 1959 3097 
z
M 1959 3584 
Q 2709 3584 3137 3096 
Q 3566 2609 3566 1747 
Q 3566 888 3137 398 
Q 2709 -91 1959 -91 
Q 1206 -91 779 398 
Q 353 888 353 1747 
Q 353 2609 779 3096 
Q 1206 3584 1959 3584 
z
" id="DejaVuSans-6f" transform="scale(0.015625)"/>
       <path d="M 544 1381 
L 544 3500 
L 1119 3500 
L 1119 1403 
Q 1119 906 1312 657 
Q 1506 409 1894 409 
Q 2359 409 2629 706 
Q 2900 1003 2900 1516 
L 2900 3500 
L 3475 3500 
L 3475 0 
L 2900 0 
L 2900 538 
Q 2691 219 2414 64 
Q 2138 -91 1772 -91 
Q 1169 -91 856 284 
Q 544 659 544 1381 
z
M 1991 3584 
L 1991 3584 
z
" id="DejaVuSans-75" transform="scale(0.015625)"/>
       <path d="M 2631 2963 
Q 2534 3019 2420 3045 
Q 2306 3072 2169 3072 
Q 1681 3072 1420 2755 
Q 1159 2438 1159 1844 
L 1159 0 
L 581 0 
L 581 3500 
L 1159 3500 
L 1159 2956 
Q 1341 3275 1631 3429 
Q 1922 3584 2338 3584 
Q 2397 3584 2469 3576 
Q 2541 3569 2628 3553 
L 2631 2963 
z
" id="DejaVuSans-72" transform="scale(0.015625)"/>
       <path d="M 3513 2113 
L 3513 0 
L 2938 0 
L 2938 2094 
Q 2938 2591 2744 2837 
Q 2550 3084 2163 3084 
Q 1697 3084 1428 2787 
Q 1159 2491 1159 1978 
L 1159 0 
L 581 0 
L 581 3500 
L 1159 3500 
L 1159 2956 
Q 1366 3272 1645 3428 
Q 1925 3584 2291 3584 
Q 2894 3584 3203 3211 
Q 3513 2838 3513 2113 
z
" id="DejaVuSans-6e" transform="scale(0.015625)"/>
       <path d="M 1172 4494 
L 1172 3500 
L 2356 3500 
L 2356 3053 
L 1172 3053 
L 1172 1153 
Q 1172 725 1289 603 
Q 1406 481 1766 481 
L 2356 481 
L 2356 0 
L 1766 0 
Q 1100 0 847 248 
Q 594 497 594 1153 
L 594 3053 
L 172 3053 
L 172 3500 
L 594 3500 
L 594 4494 
L 1172 4494 
z
" id="DejaVuSans-74" transform="scale(0.015625)"/>
       <path d="M 513 4856 
L 1013 4856 
Q 1481 4119 1714 3412 
Q 1947 2706 1947 2009 
Q 1947 1309 1714 600 
Q 1481 -109 1013 -844 
L 513 -844 
Q 928 -128 1133 580 
Q 1338 1288 1338 2009 
Q 1338 2731 1133 3434 
Q 928 4138 513 4856 
z
" id="DejaVuSans-29" transform="scale(0.015625)"/>
      </defs>
      <use xlink:href="#DejaVuSans-54"/>
      <use x="57.958984" xlink:href="#DejaVuSans-69"/>
      <use x="85.742188" xlink:href="#DejaVuSans-6d"/>
      <use x="183.154297" xlink:href="#DejaVuSans-65"/>
      <use x="244.677734" xlink:href="#DejaVuSans-20"/>
      <use x="276.464844" xlink:href="#DejaVuSans-28"/>
      <use x="315.478516" xlink:href="#DejaVuSans-68"/>
      <use x="378.857422" xlink:href="#DejaVuSans-6f"/>
      <use x="440.039062" xlink:href="#DejaVuSans-75"/>
      <use x="503.417969" xlink:href="#DejaVuSans-72"/>
      <use x="542.78125" xlink:href="#DejaVuSans-3a"/>
      <use x="576.472656" xlink:href="#DejaVuSans-6d"/>
      <use x="673.884766" xlink:href="#DejaVuSans-69"/>
      <use x="701.667969" xlink:href="#DejaVuSans-6e"/>
      <use x="765.046875" xlink:href="#DejaVuSans-75"/>
      <use x="828.425781" xlink:href="#DejaVuSans-74"/>
      <use x="867.634766" xlink:href="#DejaVuSans-65"/>
      <use x="929.158203" xlink:href="#DejaVuSans-29"/>
     </g>
    </g>
   </g>
   <g id="matplotlib.axis_2">
    <g id="ytick_1">
     <g id="line2d_24">
      <defs>
       <path d="M 0 0 
L -3.5 0 
" id="m196654d1f3" style="stroke:#000000;stroke-width:0.8;"/>
      </defs>
      <g>
       <use style="stroke:#000000;stroke-width:0.8;" x="53.328125" xlink:href="#m196654d1f3" y="284.917358"/>
      </g>
     </g>
     <g id="text_8">
      <!-- 5150 -->
      <g transform="translate(20.878125 288.716576)scale(0.1 -0.1)">
       <defs>
        <path d="M 691 4666 
L 3169 4666 
L 3169 4134 
L 1269 4134 
L 1269 2991 
Q 1406 3038 1543 3061 
Q 1681 3084 1819 3084 
Q 2600 3084 3056 2656 
Q 3513 2228 3513 1497 
Q 3513 744 3044 326 
Q 2575 -91 1722 -91 
Q 1428 -91 1123 -41 
Q 819 9 494 109 
L 494 744 
Q 775 591 1075 516 
Q 1375 441 1709 441 
Q 2250 441 2565 725 
Q 2881 1009 2881 1497 
Q 2881 1984 2565 2268 
Q 2250 2553 1709 2553 
Q 1456 2553 1204 2497 
Q 953 2441 691 2322 
L 691 4666 
z
" id="DejaVuSans-35" transform="scale(0.015625)"/>
        <path d="M 2034 4250 
Q 1547 4250 1301 3770 
Q 1056 3291 1056 2328 
Q 1056 1369 1301 889 
Q 1547 409 2034 409 
Q 2525 409 2770 889 
Q 3016 1369 3016 2328 
Q 3016 3291 2770 3770 
Q 2525 4250 2034 4250 
z
M 2034 4750 
Q 2819 4750 3233 4129 
Q 3647 3509 3647 2328 
Q 3647 1150 3233 529 
Q 2819 -91 2034 -91 
Q 1250 -91 836 529 
Q 422 1150 422 2328 
Q 422 3509 836 4129 
Q 1250 4750 2034 4750 
z
" id="DejaVuSans-30" transform="scale(0.015625)"/>
       </defs>
       <use xlink:href="#DejaVuSans-35"/>
       <use x="63.623047" xlink:href="#DejaVuSans-31"/>
       <use x="127.246094" xlink:href="#DejaVuSans-35"/>
       <use x="190.869141" xlink:href="#DejaVuSans-30"/>
      </g>
     </g>
    </g>
    <g id="ytick_2">
     <g id="line2d_25">
      <g>
       <use style="stroke:#000000;stroke-width:0.8;" x="53.328125" xlink:href="#m196654d1f3" y="253.127607"/>
      </g>
     </g>
     <g id="text_9">
      <!-- 5200 -->
      <g transform="translate(20.878125 256.926826)scale(0.1 -0.1)">
       <use xlink:href="#DejaVuSans-35"/>
       <use x="63.623047" xlink:href="#DejaVuSans-32"/>
       <use x="127.246094" xlink:href="#DejaVuSans-30"/>
       <use x="190.869141" xlink:href="#DejaVuSans-30"/>
      </g>
     </g>
    </g>
    <g id="ytick_3">
     <g id="line2d_26">
      <g>
       <use style="stroke:#000000;stroke-width:0.8;" x="53.328125" xlink:href="#m196654d1f3" y="221.337857"/>
      </g>
     </g>
     <g id="text_10">
      <!-- 5250 -->
      <g transform="translate(20.878125 225.137076)scale(0.1 -0.1)">
       <use xlink:href="#DejaVuSans-35"/>
       <use x="63.623047" xlink:href="#DejaVuSans-32"/>
       <use x="127.246094" xlink:href="#DejaVuSans-35"/>
       <use x="190.869141" xlink:href="#DejaVuSans-30"/>
      </g>
     </g>
    </g>
    <g id="ytick_4">
     <g id="line2d_27">
      <g>
       <use style="stroke:#000000;stroke-width:0.8;" x="53.328125" xlink:href="#m196654d1f3" y="189.548107"/>
      </g>
     </g>
     <g id="text_11">
      <!-- 5300 -->
      <g transform="translate(20.878125 193.347325)scale(0.1 -0.1)">
       <use xlink:href="#DejaVuSans-35"/>
       <use x="63.623047" xlink:href="#DejaVuSans-33"/>
       <use x="127.246094" xlink:href="#DejaVuSans-30"/>
       <use x="190.869141" xlink:href="#DejaVuSans-30"/>
      </g>
     </g>
    </g>
    <g id="ytick_5">
     <g id="line2d_28">
      <g>
       <use style="stroke:#000000;stroke-width:0.8;" x="53.328125" xlink:href="#m196654d1f3" y="157.758356"/>
      </g>
     </g>
     <g id="text_12">
      <!-- 5350 -->
      <g transform="translate(20.878125 161.557575)scale(0.1 -0.1)">
       <use xlink:href="#DejaVuSans-35"/>
       <use x="63.623047" xlink:href="#DejaVuSans-33"/>
       <use x="127.246094" xlink:href="#DejaVuSans-35"/>
       <use x="190.869141" xlink:href="#DejaVuSans-30"/>
      </g>
     </g>
    </g>
    <g id="ytick_6">
     <g id="line2d_29">
      <g>
       <use style="stroke:#000000;stroke-width:0.8;" x="53.328125" xlink:href="#m196654d1f3" y="125.968606"/>
      </g>
     </g>
     <g id="text_13">
      <!-- 5400 -->
      <g transform="translate(20.878125 129.767825)scale(0.1 -0.1)">
       <use xlink:href="#DejaVuSans-35"/>
       <use x="63.623047" xlink:href="#DejaVuSans-34"/>
       <use x="127.246094" xlink:href="#DejaVuSans-30"/>
       <use x="190.869141" xlink:href="#DejaVuSans-30"/>
      </g>
     </g>
    </g>
    <g id="ytick_7">
     <g id="line2d_30">
      <g>
       <use style="stroke:#000000;stroke-width:0.8;" x="53.328125" xlink:href="#m196654d1f3" y="94.178856"/>
      </g>
     </g>
     <g id="text_14">
      <!-- 5450 -->
      <g transform="translate(20.878125 97.978074)scale(0.1 -0.1)">
       <use xlink:href="#DejaVuSans-35"/>
       <use x="63.623047" xlink:href="#DejaVuSans-34"/>
       <use x="127.246094" xlink:href="#DejaVuSans-35"/>
       <use x="190.869141" xlink:href="#DejaVuSans-30"/>
      </g>
     </g>
    </g>
    <g id="ytick_8">
     <g id="line2d_31">
      <g>
       <use style="stroke:#000000;stroke-width:0.8;" x="53.328125" xlink:href="#m196654d1f3" y="62.389105"/>
      </g>
     </g>
     <g id="text_15">
      <!-- 5500 -->
      <g transform="translate(20.878125 66.188324)scale(0.1 -0.1)">
       <use xlink:href="#DejaVuSans-35"/>
       <use x="63.623047" xlink:href="#DejaVuSans-35"/>
       <use x="127.246094" xlink:href="#DejaVuSans-30"/>
       <use x="190.869141" xlink:href="#DejaVuSans-30"/>
      </g>
     </g>
    </g>
    <g id="ytick_9">
     <g id="line2d_32">
      <g>
       <use style="stroke:#000000;stroke-width:0.8;" x="53.328125" xlink:href="#m196654d1f3" y="30.599355"/>
      </g>
     </g>
     <g id="text_16">
      <!-- 5550 -->
      <g transform="translate(20.878125 34.398574)scale(0.1 -0.1)">
       <use xlink:href="#DejaVuSans-35"/>
       <use x="63.623047" xlink:href="#DejaVuSans-35"/>
       <use x="127.246094" xlink:href="#DejaVuSans-35"/>
       <use x="190.869141" xlink:href="#DejaVuSans-30"/>
      </g>
     </g>
    </g>
    <g id="text_17">
     <!-- Code region coverage -->
     <g transform="translate(14.798438 210.379594)rotate(-90)scale(0.1 -0.1)">
      <defs>
       <path d="M 4122 4306 
L 4122 3641 
Q 3803 3938 3442 4084 
Q 3081 4231 2675 4231 
Q 1875 4231 1450 3742 
Q 1025 3253 1025 2328 
Q 1025 1406 1450 917 
Q 1875 428 2675 428 
Q 3081 428 3442 575 
Q 3803 722 4122 1019 
L 4122 359 
Q 3791 134 3420 21 
Q 3050 -91 2638 -91 
Q 1578 -91 968 557 
Q 359 1206 359 2328 
Q 359 3453 968 4101 
Q 1578 4750 2638 4750 
Q 3056 4750 3426 4639 
Q 3797 4528 4122 4306 
z
" id="DejaVuSans-43" transform="scale(0.015625)"/>
       <path d="M 2906 2969 
L 2906 4863 
L 3481 4863 
L 3481 0 
L 2906 0 
L 2906 525 
Q 2725 213 2448 61 
Q 2172 -91 1784 -91 
Q 1150 -91 751 415 
Q 353 922 353 1747 
Q 353 2572 751 3078 
Q 1150 3584 1784 3584 
Q 2172 3584 2448 3432 
Q 2725 3281 2906 2969 
z
M 947 1747 
Q 947 1113 1208 752 
Q 1469 391 1925 391 
Q 2381 391 2643 752 
Q 2906 1113 2906 1747 
Q 2906 2381 2643 2742 
Q 2381 3103 1925 3103 
Q 1469 3103 1208 2742 
Q 947 2381 947 1747 
z
" id="DejaVuSans-64" transform="scale(0.015625)"/>
       <path d="M 2906 1791 
Q 2906 2416 2648 2759 
Q 2391 3103 1925 3103 
Q 1463 3103 1205 2759 
Q 947 2416 947 1791 
Q 947 1169 1205 825 
Q 1463 481 1925 481 
Q 2391 481 2648 825 
Q 2906 1169 2906 1791 
z
M 3481 434 
Q 3481 -459 3084 -895 
Q 2688 -1331 1869 -1331 
Q 1566 -1331 1297 -1286 
Q 1028 -1241 775 -1147 
L 775 -588 
Q 1028 -725 1275 -790 
Q 1522 -856 1778 -856 
Q 2344 -856 2625 -561 
Q 2906 -266 2906 331 
L 2906 616 
Q 2728 306 2450 153 
Q 2172 0 1784 0 
Q 1141 0 747 490 
Q 353 981 353 1791 
Q 353 2603 747 3093 
Q 1141 3584 1784 3584 
Q 2172 3584 2450 3431 
Q 2728 3278 2906 2969 
L 2906 3500 
L 3481 3500 
L 3481 434 
z
" id="DejaVuSans-67" transform="scale(0.015625)"/>
       <path d="M 3122 3366 
L 3122 2828 
Q 2878 2963 2633 3030 
Q 2388 3097 2138 3097 
Q 1578 3097 1268 2742 
Q 959 2388 959 1747 
Q 959 1106 1268 751 
Q 1578 397 2138 397 
Q 2388 397 2633 464 
Q 2878 531 3122 666 
L 3122 134 
Q 2881 22 2623 -34 
Q 2366 -91 2075 -91 
Q 1284 -91 818 406 
Q 353 903 353 1747 
Q 353 2603 823 3093 
Q 1294 3584 2113 3584 
Q 2378 3584 2631 3529 
Q 2884 3475 3122 3366 
z
" id="DejaVuSans-63" transform="scale(0.015625)"/>
       <path d="M 191 3500 
L 800 3500 
L 1894 563 
L 2988 3500 
L 3597 3500 
L 2284 0 
L 1503 0 
L 191 3500 
z
" id="DejaVuSans-76" transform="scale(0.015625)"/>
       <path d="M 2194 1759 
Q 1497 1759 1228 1600 
Q 959 1441 959 1056 
Q 959 750 1161 570 
Q 1363 391 1709 391 
Q 2188 391 2477 730 
Q 2766 1069 2766 1631 
L 2766 1759 
L 2194 1759 
z
M 3341 1997 
L 3341 0 
L 2766 0 
L 2766 531 
Q 2569 213 2275 61 
Q 1981 -91 1556 -91 
Q 1019 -91 701 211 
Q 384 513 384 1019 
Q 384 1609 779 1909 
Q 1175 2209 1959 2209 
L 2766 2209 
L 2766 2266 
Q 2766 2663 2505 2880 
Q 2244 3097 1772 3097 
Q 1472 3097 1187 3025 
Q 903 2953 641 2809 
L 641 3341 
Q 956 3463 1253 3523 
Q 1550 3584 1831 3584 
Q 2591 3584 2966 3190 
Q 3341 2797 3341 1997 
z
" id="DejaVuSans-61" transform="scale(0.015625)"/>
      </defs>
      <use xlink:href="#DejaVuSans-43"/>
      <use x="69.824219" xlink:href="#DejaVuSans-6f"/>
      <use x="131.005859" xlink:href="#DejaVuSans-64"/>
      <use x="194.482422" xlink:href="#DejaVuSans-65"/>
      <use x="256.005859" xlink:href="#DejaVuSans-20"/>
      <use x="287.792969" xlink:href="#DejaVuSans-72"/>
      <use x="326.65625" xlink:href="#DejaVuSans-65"/>
      <use x="388.179688" xlink:href="#DejaVuSans-67"/>
      <use x="451.65625" xlink:href="#DejaVuSans-69"/>
      <use x="479.439453" xlink:href="#DejaVuSans-6f"/>
      <use x="540.621094" xlink:href="#DejaVuSans-6e"/>
      <use x="604" xlink:href="#DejaVuSans-20"/>
      <use x="635.787109" xlink:href="#DejaVuSans-63"/>
      <use x="690.767578" xlink:href="#DejaVuSans-6f"/>
      <use x="751.949219" xlink:href="#DejaVuSans-76"/>
      <use x="811.128906" xlink:href="#DejaVuSans-65"/>
      <use x="872.652344" xlink:href="#DejaVuSans-72"/>
      <use x="913.765625" xlink:href="#DejaVuSans-61"/>
      <use x="975.044922" xlink:href="#DejaVuSans-67"/>
      <use x="1038.521484" xlink:href="#DejaVuSans-65"/>
     </g>
    </g>
   </g>
   <g id="line2d_33">
    <path clip-path="url(#p40569e7428)" d="M 69.560852 224.516832 
L 119.327306 204.489289 
L 148.438816 190.819697 
L 169.09376 111.345321 
L 185.11498 104.987371 
L 198.205269 104.351576 
L 209.272952 103.397883 
L 218.860214 93.543061 
L 227.316779 66.83967 
L 234.881434 66.83967 
L 241.724496 66.521773 
L 247.971723 65.56808 
L 253.718615 55.077463 
L 259.039406 45.22264 
L 263.992943 44.586845 
L 268.626668 44.268948 
L 272.979383 43.633153 
L 277.083233 43.633153 
L 280.965141 43.315255 
L 284.647888 43.315255 
L 288.150915 43.315255 
L 291.49095 43.315255 
L 294.68249 43.315255 
L 297.738177 43.315255 
L 300.669107 43.315255 
L 303.485069 43.315255 
L 306.194742 42.997358 
L 308.805859 42.67946 
L 311.32534 42.67946 
L 313.759397 42.67946 
L 316.113635 42.67946 
L 318.393122 42.67946 
L 320.60246 42.67946 
L 322.745837 42.67946 
L 324.827079 42.361563 
L 326.849687 42.043665 
L 328.816873 42.043665 
L 330.731595 41.725768 
L 332.596578 41.40787 
L 334.414342 41.40787 
L 336.187217 41.40787 
L 337.917369 41.40787 
L 339.606807 41.40787 
L 341.257404 40.772075 
L 342.870906 40.772075 
L 344.448944 40.772075 
L 345.993042 40.772075 
L 347.504631 40.772075 
L 348.985051 40.772075 
L 350.435561 40.772075 
L 351.857347 40.772075 
L 353.251523 40.772075 
L 354.619142 40.772075 
L 355.961196 40.772075 
L 357.278624 40.13628 
L 358.572313 40.454178 
L 359.843104 40.454178 
L 361.091794 40.13628 
L 362.319136 40.13628 
L 363.525851 39.818383 
L 364.712619 39.818383 
L 365.880089 39.818383 
L 367.028878 39.818383 
L 368.159576 39.818383 
L 369.272743 39.818383 
L 370.368914 39.818383 
L 371.4486 39.500485 
L 372.512291 39.500485 
L 373.560453 39.500485 
L 374.593533 39.500485 
L 375.611959 39.500485 
L 376.616141 39.182588 
L 377.606471 39.182588 
L 378.583327 39.182588 
L 379.547071 38.86469 
L 380.498049 38.86469 
L 381.436596 38.86469 
L 382.363032 38.86469 
L 383.277666 38.86469 
L 384.180795 38.86469 
L 385.072705 38.86469 
L 385.953671 38.86469 
L 386.823958 38.86469 
L 387.683823 38.86469 
L 388.533511 38.86469 
L 389.373261 38.86469 
L 390.203303 38.228895 
L 391.023858 38.228895 
L 391.835142 38.228895 
L 392.63736 38.228895 
L 393.430714 38.228895 
L 394.215398 38.228895 
" style="fill:none;stroke:#d62728;stroke-linecap:square;stroke-width:1.5;"/>
    <defs>
     <path d="M 0 -3 
L -3 3 
L 3 3 
z
" id="m65bb1b7c1f" style="stroke:#ffffff;stroke-linejoin:miter;stroke-width:0.75;"/>
    </defs>
    <g clip-path="url(#p40569e7428)">
     <use style="fill:#d62728;stroke:#ffffff;stroke-linejoin:miter;stroke-width:0.75;" x="69.560852" xlink:href="#m65bb1b7c1f" y="224.516832"/>
     <use style="fill:#d62728;stroke:#ffffff;stroke-linejoin:miter;stroke-width:0.75;" x="119.327306" xlink:href="#m65bb1b7c1f" y="204.489289"/>
     <use style="fill:#d62728;stroke:#ffffff;stroke-linejoin:miter;stroke-width:0.75;" x="148.438816" xlink:href="#m65bb1b7c1f" y="190.819697"/>
     <use style="fill:#d62728;stroke:#ffffff;stroke-linejoin:miter;stroke-width:0.75;" x="169.09376" xlink:href="#m65bb1b7c1f" y="111.345321"/>
     <use style="fill:#d62728;stroke:#ffffff;stroke-linejoin:miter;stroke-width:0.75;" x="185.11498" xlink:href="#m65bb1b7c1f" y="104.987371"/>
     <use style="fill:#d62728;stroke:#ffffff;stroke-linejoin:miter;stroke-width:0.75;" x="198.205269" xlink:href="#m65bb1b7c1f" y="104.351576"/>
     <use style="fill:#d62728;stroke:#ffffff;stroke-linejoin:miter;stroke-width:0.75;" x="209.272952" xlink:href="#m65bb1b7c1f" y="103.397883"/>
     <use style="fill:#d62728;stroke:#ffffff;stroke-linejoin:miter;stroke-width:0.75;" x="218.860214" xlink:href="#m65bb1b7c1f" y="93.543061"/>
     <use style="fill:#d62728;stroke:#ffffff;stroke-linejoin:miter;stroke-width:0.75;" x="227.316779" xlink:href="#m65bb1b7c1f" y="66.83967"/>
     <use style="fill:#d62728;stroke:#ffffff;stroke-linejoin:miter;stroke-width:0.75;" x="234.881434" xlink:href="#m65bb1b7c1f" y="66.83967"/>
     <use style="fill:#d62728;stroke:#ffffff;stroke-linejoin:miter;stroke-width:0.75;" x="241.724496" xlink:href="#m65bb1b7c1f" y="66.521773"/>
     <use style="fill:#d62728;stroke:#ffffff;stroke-linejoin:miter;stroke-width:0.75;" x="247.971723" xlink:href="#m65bb1b7c1f" y="65.56808"/>
     <use style="fill:#d62728;stroke:#ffffff;stroke-linejoin:miter;stroke-width:0.75;" x="253.718615" xlink:href="#m65bb1b7c1f" y="55.077463"/>
     <use style="fill:#d62728;stroke:#ffffff;stroke-linejoin:miter;stroke-width:0.75;" x="259.039406" xlink:href="#m65bb1b7c1f" y="45.22264"/>
     <use style="fill:#d62728;stroke:#ffffff;stroke-linejoin:miter;stroke-width:0.75;" x="263.992943" xlink:href="#m65bb1b7c1f" y="44.586845"/>
     <use style="fill:#d62728;stroke:#ffffff;stroke-linejoin:miter;stroke-width:0.75;" x="268.626668" xlink:href="#m65bb1b7c1f" y="44.268948"/>
     <use style="fill:#d62728;stroke:#ffffff;stroke-linejoin:miter;stroke-width:0.75;" x="272.979383" xlink:href="#m65bb1b7c1f" y="43.633153"/>
     <use style="fill:#d62728;stroke:#ffffff;stroke-linejoin:miter;stroke-width:0.75;" x="277.083233" xlink:href="#m65bb1b7c1f" y="43.633153"/>
     <use style="fill:#d62728;stroke:#ffffff;stroke-linejoin:miter;stroke-width:0.75;" x="280.965141" xlink:href="#m65bb1b7c1f" y="43.315255"/>
     <use style="fill:#d62728;stroke:#ffffff;stroke-linejoin:miter;stroke-width:0.75;" x="284.647888" xlink:href="#m65bb1b7c1f" y="43.315255"/>
     <use style="fill:#d62728;stroke:#ffffff;stroke-linejoin:miter;stroke-width:0.75;" x="288.150915" xlink:href="#m65bb1b7c1f" y="43.315255"/>
     <use style="fill:#d62728;stroke:#ffffff;stroke-linejoin:miter;stroke-width:0.75;" x="291.49095" xlink:href="#m65bb1b7c1f" y="43.315255"/>
     <use style="fill:#d62728;stroke:#ffffff;stroke-linejoin:miter;stroke-width:0.75;" x="294.68249" xlink:href="#m65bb1b7c1f" y="43.315255"/>
     <use style="fill:#d62728;stroke:#ffffff;stroke-linejoin:miter;stroke-width:0.75;" x="297.738177" xlink:href="#m65bb1b7c1f" y="43.315255"/>
     <use style="fill:#d62728;stroke:#ffffff;stroke-linejoin:miter;stroke-width:0.75;" x="300.669107" xlink:href="#m65bb1b7c1f" y="43.315255"/>
     <use style="fill:#d62728;stroke:#ffffff;stroke-linejoin:miter;stroke-width:0.75;" x="303.485069" xlink:href="#m65bb1b7c1f" y="43.315255"/>
     <use style="fill:#d62728;stroke:#ffffff;stroke-linejoin:miter;stroke-width:0.75;" x="306.194742" xlink:href="#m65bb1b7c1f" y="42.997358"/>
     <use style="fill:#d62728;stroke:#ffffff;stroke-linejoin:miter;stroke-width:0.75;" x="308.805859" xlink:href="#m65bb1b7c1f" y="42.67946"/>
     <use style="fill:#d62728;stroke:#ffffff;stroke-linejoin:miter;stroke-width:0.75;" x="311.32534" xlink:href="#m65bb1b7c1f" y="42.67946"/>
     <use style="fill:#d62728;stroke:#ffffff;stroke-linejoin:miter;stroke-width:0.75;" x="313.759397" xlink:href="#m65bb1b7c1f" y="42.67946"/>
     <use style="fill:#d62728;stroke:#ffffff;stroke-linejoin:miter;stroke-width:0.75;" x="316.113635" xlink:href="#m65bb1b7c1f" y="42.67946"/>
     <use style="fill:#d62728;stroke:#ffffff;stroke-linejoin:miter;stroke-width:0.75;" x="318.393122" xlink:href="#m65bb1b7c1f" y="42.67946"/>
     <use style="fill:#d62728;stroke:#ffffff;stroke-linejoin:miter;stroke-width:0.75;" x="320.60246" xlink:href="#m65bb1b7c1f" y="42.67946"/>
     <use style="fill:#d62728;stroke:#ffffff;stroke-linejoin:miter;stroke-width:0.75;" x="322.745837" xlink:href="#m65bb1b7c1f" y="42.67946"/>
     <use style="fill:#d62728;stroke:#ffffff;stroke-linejoin:miter;stroke-width:0.75;" x="324.827079" xlink:href="#m65bb1b7c1f" y="42.361563"/>
     <use style="fill:#d62728;stroke:#ffffff;stroke-linejoin:miter;stroke-width:0.75;" x="326.849687" xlink:href="#m65bb1b7c1f" y="42.043665"/>
     <use style="fill:#d62728;stroke:#ffffff;stroke-linejoin:miter;stroke-width:0.75;" x="328.816873" xlink:href="#m65bb1b7c1f" y="42.043665"/>
     <use style="fill:#d62728;stroke:#ffffff;stroke-linejoin:miter;stroke-width:0.75;" x="330.731595" xlink:href="#m65bb1b7c1f" y="41.725768"/>
     <use style="fill:#d62728;stroke:#ffffff;stroke-linejoin:miter;stroke-width:0.75;" x="332.596578" xlink:href="#m65bb1b7c1f" y="41.40787"/>
     <use style="fill:#d62728;stroke:#ffffff;stroke-linejoin:miter;stroke-width:0.75;" x="334.414342" xlink:href="#m65bb1b7c1f" y="41.40787"/>
     <use style="fill:#d62728;stroke:#ffffff;stroke-linejoin:miter;stroke-width:0.75;" x="336.187217" xlink:href="#m65bb1b7c1f" y="41.40787"/>
     <use style="fill:#d62728;stroke:#ffffff;stroke-linejoin:miter;stroke-width:0.75;" x="337.917369" xlink:href="#m65bb1b7c1f" y="41.40787"/>
     <use style="fill:#d62728;stroke:#ffffff;stroke-linejoin:miter;stroke-width:0.75;" x="339.606807" xlink:href="#m65bb1b7c1f" y="41.40787"/>
     <use style="fill:#d62728;stroke:#ffffff;stroke-linejoin:miter;stroke-width:0.75;" x="341.257404" xlink:href="#m65bb1b7c1f" y="40.772075"/>
     <use style="fill:#d62728;stroke:#ffffff;stroke-linejoin:miter;stroke-width:0.75;" x="342.870906" xlink:href="#m65bb1b7c1f" y="40.772075"/>
     <use style="fill:#d62728;stroke:#ffffff;stroke-linejoin:miter;stroke-width:0.75;" x="344.448944" xlink:href="#m65bb1b7c1f" y="40.772075"/>
     <use style="fill:#d62728;stroke:#ffffff;stroke-linejoin:miter;stroke-width:0.75;" x="345.993042" xlink:href="#m65bb1b7c1f" y="40.772075"/>
     <use style="fill:#d62728;stroke:#ffffff;stroke-linejoin:miter;stroke-width:0.75;" x="347.504631" xlink:href="#m65bb1b7c1f" y="40.772075"/>
     <use style="fill:#d62728;stroke:#ffffff;stroke-linejoin:miter;stroke-width:0.75;" x="348.985051" xlink:href="#m65bb1b7c1f" y="40.772075"/>
     <use style="fill:#d62728;stroke:#ffffff;stroke-linejoin:miter;stroke-width:0.75;" x="350.435561" xlink:href="#m65bb1b7c1f" y="40.772075"/>
     <use style="fill:#d62728;stroke:#ffffff;stroke-linejoin:miter;stroke-width:0.75;" x="351.857347" xlink:href="#m65bb1b7c1f" y="40.772075"/>
     <use style="fill:#d62728;stroke:#ffffff;stroke-linejoin:miter;stroke-width:0.75;" x="353.251523" xlink:href="#m65bb1b7c1f" y="40.772075"/>
     <use style="fill:#d62728;stroke:#ffffff;stroke-linejoin:miter;stroke-width:0.75;" x="354.619142" xlink:href="#m65bb1b7c1f" y="40.772075"/>
     <use style="fill:#d62728;stroke:#ffffff;stroke-linejoin:miter;stroke-width:0.75;" x="355.961196" xlink:href="#m65bb1b7c1f" y="40.772075"/>
     <use style="fill:#d62728;stroke:#ffffff;stroke-linejoin:miter;stroke-width:0.75;" x="357.278624" xlink:href="#m65bb1b7c1f" y="40.13628"/>
     <use style="fill:#d62728;stroke:#ffffff;stroke-linejoin:miter;stroke-width:0.75;" x="358.572313" xlink:href="#m65bb1b7c1f" y="40.454178"/>
     <use style="fill:#d62728;stroke:#ffffff;stroke-linejoin:miter;stroke-width:0.75;" x="359.843104" xlink:href="#m65bb1b7c1f" y="40.454178"/>
     <use style="fill:#d62728;stroke:#ffffff;stroke-linejoin:miter;stroke-width:0.75;" x="361.091794" xlink:href="#m65bb1b7c1f" y="40.13628"/>
     <use style="fill:#d62728;stroke:#ffffff;stroke-linejoin:miter;stroke-width:0.75;" x="362.319136" xlink:href="#m65bb1b7c1f" y="40.13628"/>
     <use style="fill:#d62728;stroke:#ffffff;stroke-linejoin:miter;stroke-width:0.75;" x="363.525851" xlink:href="#m65bb1b7c1f" y="39.818383"/>
     <use style="fill:#d62728;stroke:#ffffff;stroke-linejoin:miter;stroke-width:0.75;" x="364.712619" xlink:href="#m65bb1b7c1f" y="39.818383"/>
     <use style="fill:#d62728;stroke:#ffffff;stroke-linejoin:miter;stroke-width:0.75;" x="365.880089" xlink:href="#m65bb1b7c1f" y="39.818383"/>
     <use style="fill:#d62728;stroke:#ffffff;stroke-linejoin:miter;stroke-width:0.75;" x="367.028878" xlink:href="#m65bb1b7c1f" y="39.818383"/>
     <use style="fill:#d62728;stroke:#ffffff;stroke-linejoin:miter;stroke-width:0.75;" x="368.159576" xlink:href="#m65bb1b7c1f" y="39.818383"/>
     <use style="fill:#d62728;stroke:#ffffff;stroke-linejoin:miter;stroke-width:0.75;" x="369.272743" xlink:href="#m65bb1b7c1f" y="39.818383"/>
     <use style="fill:#d62728;stroke:#ffffff;stroke-linejoin:miter;stroke-width:0.75;" x="370.368914" xlink:href="#m65bb1b7c1f" y="39.818383"/>
     <use style="fill:#d62728;stroke:#ffffff;stroke-linejoin:miter;stroke-width:0.75;" x="371.4486" xlink:href="#m65bb1b7c1f" y="39.500485"/>
     <use style="fill:#d62728;stroke:#ffffff;stroke-linejoin:miter;stroke-width:0.75;" x="372.512291" xlink:href="#m65bb1b7c1f" y="39.500485"/>
     <use style="fill:#d62728;stroke:#ffffff;stroke-linejoin:miter;stroke-width:0.75;" x="373.560453" xlink:href="#m65bb1b7c1f" y="39.500485"/>
     <use style="fill:#d62728;stroke:#ffffff;stroke-linejoin:miter;stroke-width:0.75;" x="374.593533" xlink:href="#m65bb1b7c1f" y="39.500485"/>
     <use style="fill:#d62728;stroke:#ffffff;stroke-linejoin:miter;stroke-width:0.75;" x="375.611959" xlink:href="#m65bb1b7c1f" y="39.500485"/>
     <use style="fill:#d62728;stroke:#ffffff;stroke-linejoin:miter;stroke-width:0.75;" x="376.616141" xlink:href="#m65bb1b7c1f" y="39.182588"/>
     <use style="fill:#d62728;stroke:#ffffff;stroke-linejoin:miter;stroke-width:0.75;" x="377.606471" xlink:href="#m65bb1b7c1f" y="39.182588"/>
     <use style="fill:#d62728;stroke:#ffffff;stroke-linejoin:miter;stroke-width:0.75;" x="378.583327" xlink:href="#m65bb1b7c1f" y="39.182588"/>
     <use style="fill:#d62728;stroke:#ffffff;stroke-linejoin:miter;stroke-width:0.75;" x="379.547071" xlink:href="#m65bb1b7c1f" y="38.86469"/>
     <use style="fill:#d62728;stroke:#ffffff;stroke-linejoin:miter;stroke-width:0.75;" x="380.498049" xlink:href="#m65bb1b7c1f" y="38.86469"/>
     <use style="fill:#d62728;stroke:#ffffff;stroke-linejoin:miter;stroke-width:0.75;" x="381.436596" xlink:href="#m65bb1b7c1f" y="38.86469"/>
     <use style="fill:#d62728;stroke:#ffffff;stroke-linejoin:miter;stroke-width:0.75;" x="382.363032" xlink:href="#m65bb1b7c1f" y="38.86469"/>
     <use style="fill:#d62728;stroke:#ffffff;stroke-linejoin:miter;stroke-width:0.75;" x="383.277666" xlink:href="#m65bb1b7c1f" y="38.86469"/>
     <use style="fill:#d62728;stroke:#ffffff;stroke-linejoin:miter;stroke-width:0.75;" x="384.180795" xlink:href="#m65bb1b7c1f" y="38.86469"/>
     <use style="fill:#d62728;stroke:#ffffff;stroke-linejoin:miter;stroke-width:0.75;" x="385.072705" xlink:href="#m65bb1b7c1f" y="38.86469"/>
     <use style="fill:#d62728;stroke:#ffffff;stroke-linejoin:miter;stroke-width:0.75;" x="385.953671" xlink:href="#m65bb1b7c1f" y="38.86469"/>
     <use style="fill:#d62728;stroke:#ffffff;stroke-linejoin:miter;stroke-width:0.75;" x="386.823958" xlink:href="#m65bb1b7c1f" y="38.86469"/>
     <use style="fill:#d62728;stroke:#ffffff;stroke-linejoin:miter;stroke-width:0.75;" x="387.683823" xlink:href="#m65bb1b7c1f" y="38.86469"/>
     <use style="fill:#d62728;stroke:#ffffff;stroke-linejoin:miter;stroke-width:0.75;" x="388.533511" xlink:href="#m65bb1b7c1f" y="38.86469"/>
     <use style="fill:#d62728;stroke:#ffffff;stroke-linejoin:miter;stroke-width:0.75;" x="389.373261" xlink:href="#m65bb1b7c1f" y="38.86469"/>
     <use style="fill:#d62728;stroke:#ffffff;stroke-linejoin:miter;stroke-width:0.75;" x="390.203303" xlink:href="#m65bb1b7c1f" y="38.228895"/>
     <use style="fill:#d62728;stroke:#ffffff;stroke-linejoin:miter;stroke-width:0.75;" x="391.023858" xlink:href="#m65bb1b7c1f" y="38.228895"/>
     <use style="fill:#d62728;stroke:#ffffff;stroke-linejoin:miter;stroke-width:0.75;" x="391.835142" xlink:href="#m65bb1b7c1f" y="38.228895"/>
     <use style="fill:#d62728;stroke:#ffffff;stroke-linejoin:miter;stroke-width:0.75;" x="392.63736" xlink:href="#m65bb1b7c1f" y="38.228895"/>
     <use style="fill:#d62728;stroke:#ffffff;stroke-linejoin:miter;stroke-width:0.75;" x="393.430714" xlink:href="#m65bb1b7c1f" y="38.228895"/>
     <use style="fill:#d62728;stroke:#ffffff;stroke-linejoin:miter;stroke-width:0.75;" x="394.215398" xlink:href="#m65bb1b7c1f" y="38.228895"/>
    </g>
   </g>
   <g id="line2d_34">
    <path clip-path="url(#p40569e7428)" d="M 69.560852 210.529342 
L 119.327306 209.893547 
L 148.438816 105.623166 
L 169.09376 69.38285 
L 185.11498 68.747055 
L 198.205269 68.11126 
L 209.272952 67.475465 
L 218.860214 67.475465 
L 227.316779 67.475465 
L 234.881434 67.475465 
L 241.724496 67.475465 
L 247.971723 66.83967 
L 253.718615 66.203875 
L 259.039406 66.203875 
L 263.992943 64.932285 
L 268.626668 64.932285 
L 272.979383 64.932285 
L 277.083233 64.29649 
L 280.965141 64.29649 
L 284.647888 64.29649 
L 288.150915 64.29649 
L 291.49095 64.29649 
L 294.68249 64.29649 
L 297.738177 64.29649 
L 300.669107 64.29649 
L 303.485069 64.29649 
L 306.194742 64.29649 
L 308.805859 64.29649 
L 311.32534 64.29649 
L 313.759397 64.29649 
L 316.113635 64.29649 
L 318.393122 64.29649 
L 320.60246 64.29649 
L 322.745837 64.29649 
L 324.827079 64.29649 
L 326.849687 64.29649 
L 328.816873 64.29649 
L 330.731595 64.29649 
L 332.596578 64.29649 
L 334.414342 64.29649 
L 336.187217 63.660695 
L 337.917369 63.660695 
L 339.606807 43.315255 
L 341.257404 43.315255 
L 342.870906 43.315255 
L 344.448944 43.315255 
L 345.993042 43.315255 
L 347.504631 43.315255 
L 348.985051 43.315255 
L 350.435561 42.67946 
L 351.857347 42.67946 
L 353.251523 42.67946 
L 354.619142 42.67946 
L 355.961196 42.67946 
L 357.278624 42.043665 
L 358.572313 42.043665 
L 359.843104 42.043665 
L 361.091794 42.043665 
L 362.319136 42.043665 
L 363.525851 42.043665 
L 364.712619 42.043665 
L 365.880089 42.043665 
L 367.028878 42.043665 
L 368.159576 41.40787 
L 369.272743 41.40787 
L 370.368914 41.40787 
L 371.4486 41.40787 
L 372.512291 41.40787 
L 373.560453 41.40787 
L 374.593533 41.40787 
L 375.611959 41.40787 
L 376.616141 41.40787 
L 377.606471 41.40787 
L 378.583327 41.40787 
L 379.547071 41.40787 
L 380.498049 41.40787 
L 381.436596 40.772075 
L 382.363032 40.772075 
L 383.277666 40.772075 
L 384.180795 40.772075 
L 385.072705 40.772075 
L 385.953671 40.772075 
L 386.823958 40.772075 
L 387.683823 40.772075 
L 388.533511 40.772075 
L 389.373261 40.772075 
L 390.203303 40.772075 
L 391.023858 40.772075 
L 391.835142 40.772075 
L 392.63736 40.772075 
L 393.430714 40.772075 
L 394.215398 40.772075 
" style="fill:none;stroke:#1f77b4;stroke-linecap:square;stroke-width:1.5;"/>
    <defs>
     <path d="M 0 3 
C 0.795609 3 1.55874 2.683901 2.12132 2.12132 
C 2.683901 1.55874 3 0.795609 3 0 
C 3 -0.795609 2.683901 -1.55874 2.12132 -2.12132 
C 1.55874 -2.683901 0.795609 -3 0 -3 
C -0.795609 -3 -1.55874 -2.683901 -2.12132 -2.12132 
C -2.683901 -1.55874 -3 -0.795609 -3 0 
C -3 0.795609 -2.683901 1.55874 -2.12132 2.12132 
C -1.55874 2.683901 -0.795609 3 0 3 
z
" id="mb1b9b7c39e" style="stroke:#ffffff;stroke-width:0.75;"/>
    </defs>
    <g clip-path="url(#p40569e7428)">
     <use style="fill:#1f77b4;stroke:#ffffff;stroke-width:0.75;" x="69.560852" xlink:href="#mb1b9b7c39e" y="210.529342"/>
     <use style="fill:#1f77b4;stroke:#ffffff;stroke-width:0.75;" x="119.327306" xlink:href="#mb1b9b7c39e" y="209.893547"/>
     <use style="fill:#1f77b4;stroke:#ffffff;stroke-width:0.75;" x="148.438816" xlink:href="#mb1b9b7c39e" y="105.623166"/>
     <use style="fill:#1f77b4;stroke:#ffffff;stroke-width:0.75;" x="169.09376" xlink:href="#mb1b9b7c39e" y="69.38285"/>
     <use style="fill:#1f77b4;stroke:#ffffff;stroke-width:0.75;" x="185.11498" xlink:href="#mb1b9b7c39e" y="68.747055"/>
     <use style="fill:#1f77b4;stroke:#ffffff;stroke-width:0.75;" x="198.205269" xlink:href="#mb1b9b7c39e" y="68.11126"/>
     <use style="fill:#1f77b4;stroke:#ffffff;stroke-width:0.75;" x="209.272952" xlink:href="#mb1b9b7c39e" y="67.475465"/>
     <use style="fill:#1f77b4;stroke:#ffffff;stroke-width:0.75;" x="218.860214" xlink:href="#mb1b9b7c39e" y="67.475465"/>
     <use style="fill:#1f77b4;stroke:#ffffff;stroke-width:0.75;" x="227.316779" xlink:href="#mb1b9b7c39e" y="67.475465"/>
     <use style="fill:#1f77b4;stroke:#ffffff;stroke-width:0.75;" x="234.881434" xlink:href="#mb1b9b7c39e" y="67.475465"/>
     <use style="fill:#1f77b4;stroke:#ffffff;stroke-width:0.75;" x="241.724496" xlink:href="#mb1b9b7c39e" y="67.475465"/>
     <use style="fill:#1f77b4;stroke:#ffffff;stroke-width:0.75;" x="247.971723" xlink:href="#mb1b9b7c39e" y="66.83967"/>
     <use style="fill:#1f77b4;stroke:#ffffff;stroke-width:0.75;" x="253.718615" xlink:href="#mb1b9b7c39e" y="66.203875"/>
     <use style="fill:#1f77b4;stroke:#ffffff;stroke-width:0.75;" x="259.039406" xlink:href="#mb1b9b7c39e" y="66.203875"/>
     <use style="fill:#1f77b4;stroke:#ffffff;stroke-width:0.75;" x="263.992943" xlink:href="#mb1b9b7c39e" y="64.932285"/>
     <use style="fill:#1f77b4;stroke:#ffffff;stroke-width:0.75;" x="268.626668" xlink:href="#mb1b9b7c39e" y="64.932285"/>
     <use style="fill:#1f77b4;stroke:#ffffff;stroke-width:0.75;" x="272.979383" xlink:href="#mb1b9b7c39e" y="64.932285"/>
     <use style="fill:#1f77b4;stroke:#ffffff;stroke-width:0.75;" x="277.083233" xlink:href="#mb1b9b7c39e" y="64.29649"/>
     <use style="fill:#1f77b4;stroke:#ffffff;stroke-width:0.75;" x="280.965141" xlink:href="#mb1b9b7c39e" y="64.29649"/>
     <use style="fill:#1f77b4;stroke:#ffffff;stroke-width:0.75;" x="284.647888" xlink:href="#mb1b9b7c39e" y="64.29649"/>
     <use style="fill:#1f77b4;stroke:#ffffff;stroke-width:0.75;" x="288.150915" xlink:href="#mb1b9b7c39e" y="64.29649"/>
     <use style="fill:#1f77b4;stroke:#ffffff;stroke-width:0.75;" x="291.49095" xlink:href="#mb1b9b7c39e" y="64.29649"/>
     <use style="fill:#1f77b4;stroke:#ffffff;stroke-width:0.75;" x="294.68249" xlink:href="#mb1b9b7c39e" y="64.29649"/>
     <use style="fill:#1f77b4;stroke:#ffffff;stroke-width:0.75;" x="297.738177" xlink:href="#mb1b9b7c39e" y="64.29649"/>
     <use style="fill:#1f77b4;stroke:#ffffff;stroke-width:0.75;" x="300.669107" xlink:href="#mb1b9b7c39e" y="64.29649"/>
     <use style="fill:#1f77b4;stroke:#ffffff;stroke-width:0.75;" x="303.485069" xlink:href="#mb1b9b7c39e" y="64.29649"/>
     <use style="fill:#1f77b4;stroke:#ffffff;stroke-width:0.75;" x="306.194742" xlink:href="#mb1b9b7c39e" y="64.29649"/>
     <use style="fill:#1f77b4;stroke:#ffffff;stroke-width:0.75;" x="308.805859" xlink:href="#mb1b9b7c39e" y="64.29649"/>
     <use style="fill:#1f77b4;stroke:#ffffff;stroke-width:0.75;" x="311.32534" xlink:href="#mb1b9b7c39e" y="64.29649"/>
     <use style="fill:#1f77b4;stroke:#ffffff;stroke-width:0.75;" x="313.759397" xlink:href="#mb1b9b7c39e" y="64.29649"/>
     <use style="fill:#1f77b4;stroke:#ffffff;stroke-width:0.75;" x="316.113635" xlink:href="#mb1b9b7c39e" y="64.29649"/>
     <use style="fill:#1f77b4;stroke:#ffffff;stroke-width:0.75;" x="318.393122" xlink:href="#mb1b9b7c39e" y="64.29649"/>
     <use style="fill:#1f77b4;stroke:#ffffff;stroke-width:0.75;" x="320.60246" xlink:href="#mb1b9b7c39e" y="64.29649"/>
     <use style="fill:#1f77b4;stroke:#ffffff;stroke-width:0.75;" x="322.745837" xlink:href="#mb1b9b7c39e" y="64.29649"/>
     <use style="fill:#1f77b4;stroke:#ffffff;stroke-width:0.75;" x="324.827079" xlink:href="#mb1b9b7c39e" y="64.29649"/>
     <use style="fill:#1f77b4;stroke:#ffffff;stroke-width:0.75;" x="326.849687" xlink:href="#mb1b9b7c39e" y="64.29649"/>
     <use style="fill:#1f77b4;stroke:#ffffff;stroke-width:0.75;" x="328.816873" xlink:href="#mb1b9b7c39e" y="64.29649"/>
     <use style="fill:#1f77b4;stroke:#ffffff;stroke-width:0.75;" x="330.731595" xlink:href="#mb1b9b7c39e" y="64.29649"/>
     <use style="fill:#1f77b4;stroke:#ffffff;stroke-width:0.75;" x="332.596578" xlink:href="#mb1b9b7c39e" y="64.29649"/>
     <use style="fill:#1f77b4;stroke:#ffffff;stroke-width:0.75;" x="334.414342" xlink:href="#mb1b9b7c39e" y="64.29649"/>
     <use style="fill:#1f77b4;stroke:#ffffff;stroke-width:0.75;" x="336.187217" xlink:href="#mb1b9b7c39e" y="63.660695"/>
     <use style="fill:#1f77b4;stroke:#ffffff;stroke-width:0.75;" x="337.917369" xlink:href="#mb1b9b7c39e" y="63.660695"/>
     <use style="fill:#1f77b4;stroke:#ffffff;stroke-width:0.75;" x="339.606807" xlink:href="#mb1b9b7c39e" y="43.315255"/>
     <use style="fill:#1f77b4;stroke:#ffffff;stroke-width:0.75;" x="341.257404" xlink:href="#mb1b9b7c39e" y="43.315255"/>
     <use style="fill:#1f77b4;stroke:#ffffff;stroke-width:0.75;" x="342.870906" xlink:href="#mb1b9b7c39e" y="43.315255"/>
     <use style="fill:#1f77b4;stroke:#ffffff;stroke-width:0.75;" x="344.448944" xlink:href="#mb1b9b7c39e" y="43.315255"/>
     <use style="fill:#1f77b4;stroke:#ffffff;stroke-width:0.75;" x="345.993042" xlink:href="#mb1b9b7c39e" y="43.315255"/>
     <use style="fill:#1f77b4;stroke:#ffffff;stroke-width:0.75;" x="347.504631" xlink:href="#mb1b9b7c39e" y="43.315255"/>
     <use style="fill:#1f77b4;stroke:#ffffff;stroke-width:0.75;" x="348.985051" xlink:href="#mb1b9b7c39e" y="43.315255"/>
     <use style="fill:#1f77b4;stroke:#ffffff;stroke-width:0.75;" x="350.435561" xlink:href="#mb1b9b7c39e" y="42.67946"/>
     <use style="fill:#1f77b4;stroke:#ffffff;stroke-width:0.75;" x="351.857347" xlink:href="#mb1b9b7c39e" y="42.67946"/>
     <use style="fill:#1f77b4;stroke:#ffffff;stroke-width:0.75;" x="353.251523" xlink:href="#mb1b9b7c39e" y="42.67946"/>
     <use style="fill:#1f77b4;stroke:#ffffff;stroke-width:0.75;" x="354.619142" xlink:href="#mb1b9b7c39e" y="42.67946"/>
     <use style="fill:#1f77b4;stroke:#ffffff;stroke-width:0.75;" x="355.961196" xlink:href="#mb1b9b7c39e" y="42.67946"/>
     <use style="fill:#1f77b4;stroke:#ffffff;stroke-width:0.75;" x="357.278624" xlink:href="#mb1b9b7c39e" y="42.043665"/>
     <use style="fill:#1f77b4;stroke:#ffffff;stroke-width:0.75;" x="358.572313" xlink:href="#mb1b9b7c39e" y="42.043665"/>
     <use style="fill:#1f77b4;stroke:#ffffff;stroke-width:0.75;" x="359.843104" xlink:href="#mb1b9b7c39e" y="42.043665"/>
     <use style="fill:#1f77b4;stroke:#ffffff;stroke-width:0.75;" x="361.091794" xlink:href="#mb1b9b7c39e" y="42.043665"/>
     <use style="fill:#1f77b4;stroke:#ffffff;stroke-width:0.75;" x="362.319136" xlink:href="#mb1b9b7c39e" y="42.043665"/>
     <use style="fill:#1f77b4;stroke:#ffffff;stroke-width:0.75;" x="363.525851" xlink:href="#mb1b9b7c39e" y="42.043665"/>
     <use style="fill:#1f77b4;stroke:#ffffff;stroke-width:0.75;" x="364.712619" xlink:href="#mb1b9b7c39e" y="42.043665"/>
     <use style="fill:#1f77b4;stroke:#ffffff;stroke-width:0.75;" x="365.880089" xlink:href="#mb1b9b7c39e" y="42.043665"/>
     <use style="fill:#1f77b4;stroke:#ffffff;stroke-width:0.75;" x="367.028878" xlink:href="#mb1b9b7c39e" y="42.043665"/>
     <use style="fill:#1f77b4;stroke:#ffffff;stroke-width:0.75;" x="368.159576" xlink:href="#mb1b9b7c39e" y="41.40787"/>
     <use style="fill:#1f77b4;stroke:#ffffff;stroke-width:0.75;" x="369.272743" xlink:href="#mb1b9b7c39e" y="41.40787"/>
     <use style="fill:#1f77b4;stroke:#ffffff;stroke-width:0.75;" x="370.368914" xlink:href="#mb1b9b7c39e" y="41.40787"/>
     <use style="fill:#1f77b4;stroke:#ffffff;stroke-width:0.75;" x="371.4486" xlink:href="#mb1b9b7c39e" y="41.40787"/>
     <use style="fill:#1f77b4;stroke:#ffffff;stroke-width:0.75;" x="372.512291" xlink:href="#mb1b9b7c39e" y="41.40787"/>
     <use style="fill:#1f77b4;stroke:#ffffff;stroke-width:0.75;" x="373.560453" xlink:href="#mb1b9b7c39e" y="41.40787"/>
     <use style="fill:#1f77b4;stroke:#ffffff;stroke-width:0.75;" x="374.593533" xlink:href="#mb1b9b7c39e" y="41.40787"/>
     <use style="fill:#1f77b4;stroke:#ffffff;stroke-width:0.75;" x="375.611959" xlink:href="#mb1b9b7c39e" y="41.40787"/>
     <use style="fill:#1f77b4;stroke:#ffffff;stroke-width:0.75;" x="376.616141" xlink:href="#mb1b9b7c39e" y="41.40787"/>
     <use style="fill:#1f77b4;stroke:#ffffff;stroke-width:0.75;" x="377.606471" xlink:href="#mb1b9b7c39e" y="41.40787"/>
     <use style="fill:#1f77b4;stroke:#ffffff;stroke-width:0.75;" x="378.583327" xlink:href="#mb1b9b7c39e" y="41.40787"/>
     <use style="fill:#1f77b4;stroke:#ffffff;stroke-width:0.75;" x="379.547071" xlink:href="#mb1b9b7c39e" y="41.40787"/>
     <use style="fill:#1f77b4;stroke:#ffffff;stroke-width:0.75;" x="380.498049" xlink:href="#mb1b9b7c39e" y="41.40787"/>
     <use style="fill:#1f77b4;stroke:#ffffff;stroke-width:0.75;" x="381.436596" xlink:href="#mb1b9b7c39e" y="40.772075"/>
     <use style="fill:#1f77b4;stroke:#ffffff;stroke-width:0.75;" x="382.363032" xlink:href="#mb1b9b7c39e" y="40.772075"/>
     <use style="fill:#1f77b4;stroke:#ffffff;stroke-width:0.75;" x="383.277666" xlink:href="#mb1b9b7c39e" y="40.772075"/>
     <use style="fill:#1f77b4;stroke:#ffffff;stroke-width:0.75;" x="384.180795" xlink:href="#mb1b9b7c39e" y="40.772075"/>
     <use style="fill:#1f77b4;stroke:#ffffff;stroke-width:0.75;" x="385.072705" xlink:href="#mb1b9b7c39e" y="40.772075"/>
     <use style="fill:#1f77b4;stroke:#ffffff;stroke-width:0.75;" x="385.953671" xlink:href="#mb1b9b7c39e" y="40.772075"/>
     <use style="fill:#1f77b4;stroke:#ffffff;stroke-width:0.75;" x="386.823958" xlink:href="#mb1b9b7c39e" y="40.772075"/>
     <use style="fill:#1f77b4;stroke:#ffffff;stroke-width:0.75;" x="387.683823" xlink:href="#mb1b9b7c39e" y="40.772075"/>
     <use style="fill:#1f77b4;stroke:#ffffff;stroke-width:0.75;" x="388.533511" xlink:href="#mb1b9b7c39e" y="40.772075"/>
     <use style="fill:#1f77b4;stroke:#ffffff;stroke-width:0.75;" x="389.373261" xlink:href="#mb1b9b7c39e" y="40.772075"/>
     <use style="fill:#1f77b4;stroke:#ffffff;stroke-width:0.75;" x="390.203303" xlink:href="#mb1b9b7c39e" y="40.772075"/>
     <use style="fill:#1f77b4;stroke:#ffffff;stroke-width:0.75;" x="391.023858" xlink:href="#mb1b9b7c39e" y="40.772075"/>
     <use style="fill:#1f77b4;stroke:#ffffff;stroke-width:0.75;" x="391.835142" xlink:href="#mb1b9b7c39e" y="40.772075"/>
     <use style="fill:#1f77b4;stroke:#ffffff;stroke-width:0.75;" x="392.63736" xlink:href="#mb1b9b7c39e" y="40.772075"/>
     <use style="fill:#1f77b4;stroke:#ffffff;stroke-width:0.75;" x="393.430714" xlink:href="#mb1b9b7c39e" y="40.772075"/>
     <use style="fill:#1f77b4;stroke:#ffffff;stroke-width:0.75;" x="394.215398" xlink:href="#mb1b9b7c39e" y="40.772075"/>
    </g>
   </g>
   <g id="line2d_35">
    <path clip-path="url(#p40569e7428)" d="M 69.560852 260.43925 
L 119.327306 256.942377 
L 148.438816 255.670787 
L 169.09376 252.80971 
L 185.11498 246.133862 
L 198.205269 245.498067 
L 209.272952 244.862272 
L 218.860214 244.226477 
L 227.316779 244.226477 
L 234.881434 244.226477 
L 241.724496 244.226477 
L 247.971723 237.868527 
L 253.718615 237.868527 
L 259.039406 237.868527 
L 263.992943 216.887292 
L 268.626668 216.887292 
L 272.979383 216.887292 
L 277.083233 213.708317 
L 280.965141 213.708317 
L 284.647888 213.708317 
L 288.150915 209.893547 
L 291.49095 209.893547 
L 294.68249 209.893547 
L 297.738177 209.893547 
L 300.669107 208.621957 
L 303.485069 208.621957 
L 306.194742 208.621957 
L 308.805859 206.078777 
L 311.32534 200.992417 
L 313.759397 200.992417 
L 316.113635 199.085032 
L 318.393122 199.085032 
L 320.60246 198.449237 
L 322.745837 198.449237 
L 324.827079 198.449237 
L 326.849687 198.449237 
L 328.816873 198.449237 
L 330.731595 198.449237 
L 332.596578 198.449237 
L 334.414342 198.449237 
L 336.187217 198.449237 
L 337.917369 198.449237 
L 339.606807 198.449237 
L 341.257404 198.449237 
L 342.870906 198.449237 
L 344.448944 198.449237 
L 345.993042 197.177647 
L 347.504631 197.177647 
L 348.985051 197.177647 
L 350.435561 197.177647 
L 351.857347 197.177647 
L 353.251523 197.495544 
L 354.619142 197.495544 
L 355.961196 197.495544 
L 357.278624 196.859749 
L 358.572313 196.859749 
L 359.843104 196.541852 
L 361.091794 196.541852 
L 362.319136 196.541852 
L 363.525851 196.541852 
L 364.712619 196.541852 
L 365.880089 196.541852 
L 367.028878 196.541852 
L 368.159576 196.541852 
L 369.272743 196.541852 
L 370.368914 196.541852 
L 371.4486 196.859749 
L 372.512291 196.859749 
L 373.560453 196.859749 
L 374.593533 196.541852 
L 375.611959 196.541852 
L 376.616141 196.541852 
L 377.606471 149.810919 
L 378.583327 87.185111 
L 379.547071 87.185111 
L 380.498049 87.185111 
L 381.436596 87.185111 
L 382.363032 87.185111 
L 383.277666 87.185111 
L 384.180795 87.185111 
L 385.072705 87.185111 
L 385.953671 70.972338 
L 386.823958 70.972338 
L 387.683823 70.972338 
L 388.533511 70.972338 
L 389.373261 70.972338 
L 390.203303 70.972338 
L 391.023858 70.972338 
L 391.835142 70.972338 
L 392.63736 70.972338 
L 393.430714 70.972338 
L 394.215398 70.972338 
" style="fill:none;stroke:#98df8a;stroke-linecap:square;stroke-width:1.5;"/>
    <defs>
     <path d="M -0 3 
L 3 -3 
L -3 -3 
z
" id="m22bece1d6c" style="stroke:#ffffff;stroke-linejoin:miter;stroke-width:0.75;"/>
    </defs>
    <g clip-path="url(#p40569e7428)">
     <use style="fill:#98df8a;stroke:#ffffff;stroke-linejoin:miter;stroke-width:0.75;" x="69.560852" xlink:href="#m22bece1d6c" y="260.43925"/>
     <use style="fill:#98df8a;stroke:#ffffff;stroke-linejoin:miter;stroke-width:0.75;" x="119.327306" xlink:href="#m22bece1d6c" y="256.942377"/>
     <use style="fill:#98df8a;stroke:#ffffff;stroke-linejoin:miter;stroke-width:0.75;" x="148.438816" xlink:href="#m22bece1d6c" y="255.670787"/>
     <use style="fill:#98df8a;stroke:#ffffff;stroke-linejoin:miter;stroke-width:0.75;" x="169.09376" xlink:href="#m22bece1d6c" y="252.80971"/>
     <use style="fill:#98df8a;stroke:#ffffff;stroke-linejoin:miter;stroke-width:0.75;" x="185.11498" xlink:href="#m22bece1d6c" y="246.133862"/>
     <use style="fill:#98df8a;stroke:#ffffff;stroke-linejoin:miter;stroke-width:0.75;" x="198.205269" xlink:href="#m22bece1d6c" y="245.498067"/>
     <use style="fill:#98df8a;stroke:#ffffff;stroke-linejoin:miter;stroke-width:0.75;" x="209.272952" xlink:href="#m22bece1d6c" y="244.862272"/>
     <use style="fill:#98df8a;stroke:#ffffff;stroke-linejoin:miter;stroke-width:0.75;" x="218.860214" xlink:href="#m22bece1d6c" y="244.226477"/>
     <use style="fill:#98df8a;stroke:#ffffff;stroke-linejoin:miter;stroke-width:0.75;" x="227.316779" xlink:href="#m22bece1d6c" y="244.226477"/>
     <use style="fill:#98df8a;stroke:#ffffff;stroke-linejoin:miter;stroke-width:0.75;" x="234.881434" xlink:href="#m22bece1d6c" y="244.226477"/>
     <use style="fill:#98df8a;stroke:#ffffff;stroke-linejoin:miter;stroke-width:0.75;" x="241.724496" xlink:href="#m22bece1d6c" y="244.226477"/>
     <use style="fill:#98df8a;stroke:#ffffff;stroke-linejoin:miter;stroke-width:0.75;" x="247.971723" xlink:href="#m22bece1d6c" y="237.868527"/>
     <use style="fill:#98df8a;stroke:#ffffff;stroke-linejoin:miter;stroke-width:0.75;" x="253.718615" xlink:href="#m22bece1d6c" y="237.868527"/>
     <use style="fill:#98df8a;stroke:#ffffff;stroke-linejoin:miter;stroke-width:0.75;" x="259.039406" xlink:href="#m22bece1d6c" y="237.868527"/>
     <use style="fill:#98df8a;stroke:#ffffff;stroke-linejoin:miter;stroke-width:0.75;" x="263.992943" xlink:href="#m22bece1d6c" y="216.887292"/>
     <use style="fill:#98df8a;stroke:#ffffff;stroke-linejoin:miter;stroke-width:0.75;" x="268.626668" xlink:href="#m22bece1d6c" y="216.887292"/>
     <use style="fill:#98df8a;stroke:#ffffff;stroke-linejoin:miter;stroke-width:0.75;" x="272.979383" xlink:href="#m22bece1d6c" y="216.887292"/>
     <use style="fill:#98df8a;stroke:#ffffff;stroke-linejoin:miter;stroke-width:0.75;" x="277.083233" xlink:href="#m22bece1d6c" y="213.708317"/>
     <use style="fill:#98df8a;stroke:#ffffff;stroke-linejoin:miter;stroke-width:0.75;" x="280.965141" xlink:href="#m22bece1d6c" y="213.708317"/>
     <use style="fill:#98df8a;stroke:#ffffff;stroke-linejoin:miter;stroke-width:0.75;" x="284.647888" xlink:href="#m22bece1d6c" y="213.708317"/>
     <use style="fill:#98df8a;stroke:#ffffff;stroke-linejoin:miter;stroke-width:0.75;" x="288.150915" xlink:href="#m22bece1d6c" y="209.893547"/>
     <use style="fill:#98df8a;stroke:#ffffff;stroke-linejoin:miter;stroke-width:0.75;" x="291.49095" xlink:href="#m22bece1d6c" y="209.893547"/>
     <use style="fill:#98df8a;stroke:#ffffff;stroke-linejoin:miter;stroke-width:0.75;" x="294.68249" xlink:href="#m22bece1d6c" y="209.893547"/>
     <use style="fill:#98df8a;stroke:#ffffff;stroke-linejoin:miter;stroke-width:0.75;" x="297.738177" xlink:href="#m22bece1d6c" y="209.893547"/>
     <use style="fill:#98df8a;stroke:#ffffff;stroke-linejoin:miter;stroke-width:0.75;" x="300.669107" xlink:href="#m22bece1d6c" y="208.621957"/>
     <use style="fill:#98df8a;stroke:#ffffff;stroke-linejoin:miter;stroke-width:0.75;" x="303.485069" xlink:href="#m22bece1d6c" y="208.621957"/>
     <use style="fill:#98df8a;stroke:#ffffff;stroke-linejoin:miter;stroke-width:0.75;" x="306.194742" xlink:href="#m22bece1d6c" y="208.621957"/>
     <use style="fill:#98df8a;stroke:#ffffff;stroke-linejoin:miter;stroke-width:0.75;" x="308.805859" xlink:href="#m22bece1d6c" y="206.078777"/>
     <use style="fill:#98df8a;stroke:#ffffff;stroke-linejoin:miter;stroke-width:0.75;" x="311.32534" xlink:href="#m22bece1d6c" y="200.992417"/>
     <use style="fill:#98df8a;stroke:#ffffff;stroke-linejoin:miter;stroke-width:0.75;" x="313.759397" xlink:href="#m22bece1d6c" y="200.992417"/>
     <use style="fill:#98df8a;stroke:#ffffff;stroke-linejoin:miter;stroke-width:0.75;" x="316.113635" xlink:href="#m22bece1d6c" y="199.085032"/>
     <use style="fill:#98df8a;stroke:#ffffff;stroke-linejoin:miter;stroke-width:0.75;" x="318.393122" xlink:href="#m22bece1d6c" y="199.085032"/>
     <use style="fill:#98df8a;stroke:#ffffff;stroke-linejoin:miter;stroke-width:0.75;" x="320.60246" xlink:href="#m22bece1d6c" y="198.449237"/>
     <use style="fill:#98df8a;stroke:#ffffff;stroke-linejoin:miter;stroke-width:0.75;" x="322.745837" xlink:href="#m22bece1d6c" y="198.449237"/>
     <use style="fill:#98df8a;stroke:#ffffff;stroke-linejoin:miter;stroke-width:0.75;" x="324.827079" xlink:href="#m22bece1d6c" y="198.449237"/>
     <use style="fill:#98df8a;stroke:#ffffff;stroke-linejoin:miter;stroke-width:0.75;" x="326.849687" xlink:href="#m22bece1d6c" y="198.449237"/>
     <use style="fill:#98df8a;stroke:#ffffff;stroke-linejoin:miter;stroke-width:0.75;" x="328.816873" xlink:href="#m22bece1d6c" y="198.449237"/>
     <use style="fill:#98df8a;stroke:#ffffff;stroke-linejoin:miter;stroke-width:0.75;" x="330.731595" xlink:href="#m22bece1d6c" y="198.449237"/>
     <use style="fill:#98df8a;stroke:#ffffff;stroke-linejoin:miter;stroke-width:0.75;" x="332.596578" xlink:href="#m22bece1d6c" y="198.449237"/>
     <use style="fill:#98df8a;stroke:#ffffff;stroke-linejoin:miter;stroke-width:0.75;" x="334.414342" xlink:href="#m22bece1d6c" y="198.449237"/>
     <use style="fill:#98df8a;stroke:#ffffff;stroke-linejoin:miter;stroke-width:0.75;" x="336.187217" xlink:href="#m22bece1d6c" y="198.449237"/>
     <use style="fill:#98df8a;stroke:#ffffff;stroke-linejoin:miter;stroke-width:0.75;" x="337.917369" xlink:href="#m22bece1d6c" y="198.449237"/>
     <use style="fill:#98df8a;stroke:#ffffff;stroke-linejoin:miter;stroke-width:0.75;" x="339.606807" xlink:href="#m22bece1d6c" y="198.449237"/>
     <use style="fill:#98df8a;stroke:#ffffff;stroke-linejoin:miter;stroke-width:0.75;" x="341.257404" xlink:href="#m22bece1d6c" y="198.449237"/>
     <use style="fill:#98df8a;stroke:#ffffff;stroke-linejoin:miter;stroke-width:0.75;" x="342.870906" xlink:href="#m22bece1d6c" y="198.449237"/>
     <use style="fill:#98df8a;stroke:#ffffff;stroke-linejoin:miter;stroke-width:0.75;" x="344.448944" xlink:href="#m22bece1d6c" y="198.449237"/>
     <use style="fill:#98df8a;stroke:#ffffff;stroke-linejoin:miter;stroke-width:0.75;" x="345.993042" xlink:href="#m22bece1d6c" y="197.177647"/>
     <use style="fill:#98df8a;stroke:#ffffff;stroke-linejoin:miter;stroke-width:0.75;" x="347.504631" xlink:href="#m22bece1d6c" y="197.177647"/>
     <use style="fill:#98df8a;stroke:#ffffff;stroke-linejoin:miter;stroke-width:0.75;" x="348.985051" xlink:href="#m22bece1d6c" y="197.177647"/>
     <use style="fill:#98df8a;stroke:#ffffff;stroke-linejoin:miter;stroke-width:0.75;" x="350.435561" xlink:href="#m22bece1d6c" y="197.177647"/>
     <use style="fill:#98df8a;stroke:#ffffff;stroke-linejoin:miter;stroke-width:0.75;" x="351.857347" xlink:href="#m22bece1d6c" y="197.177647"/>
     <use style="fill:#98df8a;stroke:#ffffff;stroke-linejoin:miter;stroke-width:0.75;" x="353.251523" xlink:href="#m22bece1d6c" y="197.495544"/>
     <use style="fill:#98df8a;stroke:#ffffff;stroke-linejoin:miter;stroke-width:0.75;" x="354.619142" xlink:href="#m22bece1d6c" y="197.495544"/>
     <use style="fill:#98df8a;stroke:#ffffff;stroke-linejoin:miter;stroke-width:0.75;" x="355.961196" xlink:href="#m22bece1d6c" y="197.495544"/>
     <use style="fill:#98df8a;stroke:#ffffff;stroke-linejoin:miter;stroke-width:0.75;" x="357.278624" xlink:href="#m22bece1d6c" y="196.859749"/>
     <use style="fill:#98df8a;stroke:#ffffff;stroke-linejoin:miter;stroke-width:0.75;" x="358.572313" xlink:href="#m22bece1d6c" y="196.859749"/>
     <use style="fill:#98df8a;stroke:#ffffff;stroke-linejoin:miter;stroke-width:0.75;" x="359.843104" xlink:href="#m22bece1d6c" y="196.541852"/>
     <use style="fill:#98df8a;stroke:#ffffff;stroke-linejoin:miter;stroke-width:0.75;" x="361.091794" xlink:href="#m22bece1d6c" y="196.541852"/>
     <use style="fill:#98df8a;stroke:#ffffff;stroke-linejoin:miter;stroke-width:0.75;" x="362.319136" xlink:href="#m22bece1d6c" y="196.541852"/>
     <use style="fill:#98df8a;stroke:#ffffff;stroke-linejoin:miter;stroke-width:0.75;" x="363.525851" xlink:href="#m22bece1d6c" y="196.541852"/>
     <use style="fill:#98df8a;stroke:#ffffff;stroke-linejoin:miter;stroke-width:0.75;" x="364.712619" xlink:href="#m22bece1d6c" y="196.541852"/>
     <use style="fill:#98df8a;stroke:#ffffff;stroke-linejoin:miter;stroke-width:0.75;" x="365.880089" xlink:href="#m22bece1d6c" y="196.541852"/>
     <use style="fill:#98df8a;stroke:#ffffff;stroke-linejoin:miter;stroke-width:0.75;" x="367.028878" xlink:href="#m22bece1d6c" y="196.541852"/>
     <use style="fill:#98df8a;stroke:#ffffff;stroke-linejoin:miter;stroke-width:0.75;" x="368.159576" xlink:href="#m22bece1d6c" y="196.541852"/>
     <use style="fill:#98df8a;stroke:#ffffff;stroke-linejoin:miter;stroke-width:0.75;" x="369.272743" xlink:href="#m22bece1d6c" y="196.541852"/>
     <use style="fill:#98df8a;stroke:#ffffff;stroke-linejoin:miter;stroke-width:0.75;" x="370.368914" xlink:href="#m22bece1d6c" y="196.541852"/>
     <use style="fill:#98df8a;stroke:#ffffff;stroke-linejoin:miter;stroke-width:0.75;" x="371.4486" xlink:href="#m22bece1d6c" y="196.859749"/>
     <use style="fill:#98df8a;stroke:#ffffff;stroke-linejoin:miter;stroke-width:0.75;" x="372.512291" xlink:href="#m22bece1d6c" y="196.859749"/>
     <use style="fill:#98df8a;stroke:#ffffff;stroke-linejoin:miter;stroke-width:0.75;" x="373.560453" xlink:href="#m22bece1d6c" y="196.859749"/>
     <use style="fill:#98df8a;stroke:#ffffff;stroke-linejoin:miter;stroke-width:0.75;" x="374.593533" xlink:href="#m22bece1d6c" y="196.541852"/>
     <use style="fill:#98df8a;stroke:#ffffff;stroke-linejoin:miter;stroke-width:0.75;" x="375.611959" xlink:href="#m22bece1d6c" y="196.541852"/>
     <use style="fill:#98df8a;stroke:#ffffff;stroke-linejoin:miter;stroke-width:0.75;" x="376.616141" xlink:href="#m22bece1d6c" y="196.541852"/>
     <use style="fill:#98df8a;stroke:#ffffff;stroke-linejoin:miter;stroke-width:0.75;" x="377.606471" xlink:href="#m22bece1d6c" y="149.810919"/>
     <use style="fill:#98df8a;stroke:#ffffff;stroke-linejoin:miter;stroke-width:0.75;" x="378.583327" xlink:href="#m22bece1d6c" y="87.185111"/>
     <use style="fill:#98df8a;stroke:#ffffff;stroke-linejoin:miter;stroke-width:0.75;" x="379.547071" xlink:href="#m22bece1d6c" y="87.185111"/>
     <use style="fill:#98df8a;stroke:#ffffff;stroke-linejoin:miter;stroke-width:0.75;" x="380.498049" xlink:href="#m22bece1d6c" y="87.185111"/>
     <use style="fill:#98df8a;stroke:#ffffff;stroke-linejoin:miter;stroke-width:0.75;" x="381.436596" xlink:href="#m22bece1d6c" y="87.185111"/>
     <use style="fill:#98df8a;stroke:#ffffff;stroke-linejoin:miter;stroke-width:0.75;" x="382.363032" xlink:href="#m22bece1d6c" y="87.185111"/>
     <use style="fill:#98df8a;stroke:#ffffff;stroke-linejoin:miter;stroke-width:0.75;" x="383.277666" xlink:href="#m22bece1d6c" y="87.185111"/>
     <use style="fill:#98df8a;stroke:#ffffff;stroke-linejoin:miter;stroke-width:0.75;" x="384.180795" xlink:href="#m22bece1d6c" y="87.185111"/>
     <use style="fill:#98df8a;stroke:#ffffff;stroke-linejoin:miter;stroke-width:0.75;" x="385.072705" xlink:href="#m22bece1d6c" y="87.185111"/>
     <use style="fill:#98df8a;stroke:#ffffff;stroke-linejoin:miter;stroke-width:0.75;" x="385.953671" xlink:href="#m22bece1d6c" y="70.972338"/>
     <use style="fill:#98df8a;stroke:#ffffff;stroke-linejoin:miter;stroke-width:0.75;" x="386.823958" xlink:href="#m22bece1d6c" y="70.972338"/>
     <use style="fill:#98df8a;stroke:#ffffff;stroke-linejoin:miter;stroke-width:0.75;" x="387.683823" xlink:href="#m22bece1d6c" y="70.972338"/>
     <use style="fill:#98df8a;stroke:#ffffff;stroke-linejoin:miter;stroke-width:0.75;" x="388.533511" xlink:href="#m22bece1d6c" y="70.972338"/>
     <use style="fill:#98df8a;stroke:#ffffff;stroke-linejoin:miter;stroke-width:0.75;" x="389.373261" xlink:href="#m22bece1d6c" y="70.972338"/>
     <use style="fill:#98df8a;stroke:#ffffff;stroke-linejoin:miter;stroke-width:0.75;" x="390.203303" xlink:href="#m22bece1d6c" y="70.972338"/>
     <use style="fill:#98df8a;stroke:#ffffff;stroke-linejoin:miter;stroke-width:0.75;" x="391.023858" xlink:href="#m22bece1d6c" y="70.972338"/>
     <use style="fill:#98df8a;stroke:#ffffff;stroke-linejoin:miter;stroke-width:0.75;" x="391.835142" xlink:href="#m22bece1d6c" y="70.972338"/>
     <use style="fill:#98df8a;stroke:#ffffff;stroke-linejoin:miter;stroke-width:0.75;" x="392.63736" xlink:href="#m22bece1d6c" y="70.972338"/>
     <use style="fill:#98df8a;stroke:#ffffff;stroke-linejoin:miter;stroke-width:0.75;" x="393.430714" xlink:href="#m22bece1d6c" y="70.972338"/>
     <use style="fill:#98df8a;stroke:#ffffff;stroke-linejoin:miter;stroke-width:0.75;" x="394.215398" xlink:href="#m22bece1d6c" y="70.972338"/>
    </g>
   </g>
   <g id="line2d_36"/>
   <g id="line2d_37"/>
   <g id="line2d_38"/>
   <g id="patch_3">
    <path d="M 53.328125 284.917358 
L 53.328125 30.599355 
" style="fill:none;stroke:#000000;stroke-linecap:square;stroke-linejoin:miter;stroke-width:0.8;"/>
   </g>
   <g id="patch_4">
    <path d="M 69.560852 288.430125 
L 394.216265 288.430125 
" style="fill:none;stroke:#000000;stroke-linecap:square;stroke-linejoin:miter;stroke-width:0.8;"/>
   </g>
   <g id="text_18">
    <!-- aspell_aspell_fuzzer (23h, 16 trials/fuzzer) -->
    <g transform="translate(105.513125 16.318125)scale(0.12 -0.12)">
     <defs>
      <path d="M 2834 3397 
L 2834 2853 
Q 2591 2978 2328 3040 
Q 2066 3103 1784 3103 
Q 1356 3103 1142 2972 
Q 928 2841 928 2578 
Q 928 2378 1081 2264 
Q 1234 2150 1697 2047 
L 1894 2003 
Q 2506 1872 2764 1633 
Q 3022 1394 3022 966 
Q 3022 478 2636 193 
Q 2250 -91 1575 -91 
Q 1294 -91 989 -36 
Q 684 19 347 128 
L 347 722 
Q 666 556 975 473 
Q 1284 391 1588 391 
Q 1994 391 2212 530 
Q 2431 669 2431 922 
Q 2431 1156 2273 1281 
Q 2116 1406 1581 1522 
L 1381 1569 
Q 847 1681 609 1914 
Q 372 2147 372 2553 
Q 372 3047 722 3315 
Q 1072 3584 1716 3584 
Q 2034 3584 2315 3537 
Q 2597 3491 2834 3397 
z
" id="DejaVuSans-73" transform="scale(0.015625)"/>
      <path d="M 1159 525 
L 1159 -1331 
L 581 -1331 
L 581 3500 
L 1159 3500 
L 1159 2969 
Q 1341 3281 1617 3432 
Q 1894 3584 2278 3584 
Q 2916 3584 3314 3078 
Q 3713 2572 3713 1747 
Q 3713 922 3314 415 
Q 2916 -91 2278 -91 
Q 1894 -91 1617 61 
Q 1341 213 1159 525 
z
M 3116 1747 
Q 3116 2381 2855 2742 
Q 2594 3103 2138 3103 
Q 1681 3103 1420 2742 
Q 1159 2381 1159 1747 
Q 1159 1113 1420 752 
Q 1681 391 2138 391 
Q 2594 391 2855 752 
Q 3116 1113 3116 1747 
z
" id="DejaVuSans-70" transform="scale(0.015625)"/>
      <path d="M 603 4863 
L 1178 4863 
L 1178 0 
L 603 0 
L 603 4863 
z
" id="DejaVuSans-6c" transform="scale(0.015625)"/>
      <path d="M 3263 -1063 
L 3263 -1509 
L -63 -1509 
L -63 -1063 
L 3263 -1063 
z
" id="DejaVuSans-5f" transform="scale(0.015625)"/>
      <path d="M 2375 4863 
L 2375 4384 
L 1825 4384 
Q 1516 4384 1395 4259 
Q 1275 4134 1275 3809 
L 1275 3500 
L 2222 3500 
L 2222 3053 
L 1275 3053 
L 1275 0 
L 697 0 
L 697 3053 
L 147 3053 
L 147 3500 
L 697 3500 
L 697 3744 
Q 697 4328 969 4595 
Q 1241 4863 1831 4863 
L 2375 4863 
z
" id="DejaVuSans-66" transform="scale(0.015625)"/>
      <path d="M 353 3500 
L 3084 3500 
L 3084 2975 
L 922 459 
L 3084 459 
L 3084 0 
L 275 0 
L 275 525 
L 2438 3041 
L 353 3041 
L 353 3500 
z
" id="DejaVuSans-7a" transform="scale(0.015625)"/>
      <path d="M 750 794 
L 1409 794 
L 1409 256 
L 897 -744 
L 494 -744 
L 750 256 
L 750 794 
z
" id="DejaVuSans-2c" transform="scale(0.015625)"/>
      <path d="M 1625 4666 
L 2156 4666 
L 531 -594 
L 0 -594 
L 1625 4666 
z
" id="DejaVuSans-2f" transform="scale(0.015625)"/>
     </defs>
     <use xlink:href="#DejaVuSans-61"/>
     <use x="61.279297" xlink:href="#DejaVuSans-73"/>
     <use x="113.378906" xlink:href="#DejaVuSans-70"/>
     <use x="176.855469" xlink:href="#DejaVuSans-65"/>
     <use x="238.378906" xlink:href="#DejaVuSans-6c"/>
     <use x="266.162109" xlink:href="#DejaVuSans-6c"/>
     <use x="293.945312" xlink:href="#DejaVuSans-5f"/>
     <use x="343.945312" xlink:href="#DejaVuSans-61"/>
     <use x="405.224609" xlink:href="#DejaVuSans-73"/>
     <use x="457.324219" xlink:href="#DejaVuSans-70"/>
     <use x="520.800781" xlink:href="#DejaVuSans-65"/>
     <use x="582.324219" xlink:href="#DejaVuSans-6c"/>
     <use x="610.107422" xlink:href="#DejaVuSans-6c"/>
     <use x="637.890625" xlink:href="#DejaVuSans-5f"/>
     <use x="687.890625" xlink:href="#DejaVuSans-66"/>
     <use x="723.095703" xlink:href="#DejaVuSans-75"/>
     <use x="786.474609" xlink:href="#DejaVuSans-7a"/>
     <use x="838.964844" xlink:href="#DejaVuSans-7a"/>
     <use x="891.455078" xlink:href="#DejaVuSans-65"/>
     <use x="952.978516" xlink:href="#DejaVuSans-72"/>
     <use x="994.091797" xlink:href="#DejaVuSans-20"/>
     <use x="1025.878906" xlink:href="#DejaVuSans-28"/>
     <use x="1064.892578" xlink:href="#DejaVuSans-32"/>
     <use x="1128.515625" xlink:href="#DejaVuSans-33"/>
     <use x="1192.138672" xlink:href="#DejaVuSans-68"/>
     <use x="1255.517578" xlink:href="#DejaVuSans-2c"/>
     <use x="1287.304688" xlink:href="#DejaVuSans-20"/>
     <use x="1319.091797" xlink:href="#DejaVuSans-31"/>
     <use x="1382.714844" xlink:href="#DejaVuSans-36"/>
     <use x="1446.337891" xlink:href="#DejaVuSans-20"/>
     <use x="1478.125" xlink:href="#DejaVuSans-74"/>
     <use x="1517.333984" xlink:href="#DejaVuSans-72"/>
     <use x="1558.447266" xlink:href="#DejaVuSans-69"/>
     <use x="1586.230469" xlink:href="#DejaVuSans-61"/>
     <use x="1647.509766" xlink:href="#DejaVuSans-6c"/>
     <use x="1675.292969" xlink:href="#DejaVuSans-73"/>
     <use x="1727.392578" xlink:href="#DejaVuSans-2f"/>
     <use x="1761.083984" xlink:href="#DejaVuSans-66"/>
     <use x="1796.289062" xlink:href="#DejaVuSans-75"/>
     <use x="1859.667969" xlink:href="#DejaVuSans-7a"/>
     <use x="1912.158203" xlink:href="#DejaVuSans-7a"/>
     <use x="1964.648438" xlink:href="#DejaVuSans-65"/>
     <use x="2026.171875" xlink:href="#DejaVuSans-72"/>
     <use x="2067.285156" xlink:href="#DejaVuSans-29"/>
    </g>
   </g>
   <g id="legend_1">
    <g id="line2d_39">
     <path d="M 414.448125 30.416562 
L 434.448125 30.416562 
" style="fill:none;stroke:#d62728;stroke-linecap:square;stroke-width:1.5;"/>
    </g>
    <g id="line2d_40">
     <defs>
      <path d="M 0 -3 
L -3 3 
L 3 3 
z
" id="ma6aca2947f" style="stroke:#d62728;stroke-linejoin:miter;"/>
     </defs>
     <g>
      <use style="fill:#d62728;stroke:#d62728;stroke-linejoin:miter;" x="424.448125" xlink:href="#ma6aca2947f" y="30.416562"/>
     </g>
    </g>
    <g id="text_19">
     <!-- afl_scheduling_random -->
     <g transform="translate(442.448125 33.916562)scale(0.1 -0.1)">
      <use xlink:href="#DejaVuSans-61"/>
      <use x="61.279297" xlink:href="#DejaVuSans-66"/>
      <use x="96.484375" xlink:href="#DejaVuSans-6c"/>
      <use x="124.267578" xlink:href="#DejaVuSans-5f"/>
      <use x="174.267578" xlink:href="#DejaVuSans-73"/>
      <use x="226.367188" xlink:href="#DejaVuSans-63"/>
      <use x="281.347656" xlink:href="#DejaVuSans-68"/>
      <use x="344.726562" xlink:href="#DejaVuSans-65"/>
      <use x="406.25" xlink:href="#DejaVuSans-64"/>
      <use x="469.726562" xlink:href="#DejaVuSans-75"/>
      <use x="533.105469" xlink:href="#DejaVuSans-6c"/>
      <use x="560.888672" xlink:href="#DejaVuSans-69"/>
      <use x="588.671875" xlink:href="#DejaVuSans-6e"/>
      <use x="652.050781" xlink:href="#DejaVuSans-67"/>
      <use x="715.527344" xlink:href="#DejaVuSans-5f"/>
      <use x="765.527344" xlink:href="#DejaVuSans-72"/>
      <use x="806.640625" xlink:href="#DejaVuSans-61"/>
      <use x="867.919922" xlink:href="#DejaVuSans-6e"/>
      <use x="931.298828" xlink:href="#DejaVuSans-64"/>
      <use x="994.775391" xlink:href="#DejaVuSans-6f"/>
      <use x="1055.957031" xlink:href="#DejaVuSans-6d"/>
     </g>
    </g>
    <g id="line2d_41">
     <path d="M 414.448125 45.372813 
L 434.448125 45.372813 
" style="fill:none;stroke:#1f77b4;stroke-linecap:square;stroke-width:1.5;"/>
    </g>
    <g id="line2d_42">
     <defs>
      <path d="M 0 3 
C 0.795609 3 1.55874 2.683901 2.12132 2.12132 
C 2.683901 1.55874 3 0.795609 3 0 
C 3 -0.795609 2.683901 -1.55874 2.12132 -2.12132 
C 1.55874 -2.683901 0.795609 -3 0 -3 
C -0.795609 -3 -1.55874 -2.683901 -2.12132 -2.12132 
C -2.683901 -1.55874 -3 -0.795609 -3 0 
C -3 0.795609 -2.683901 1.55874 -2.12132 2.12132 
C -1.55874 2.683901 -0.795609 3 0 3 
z
" id="mf39f784cf7" style="stroke:#1f77b4;"/>
     </defs>
     <g>
      <use style="fill:#1f77b4;stroke:#1f77b4;" x="424.448125" xlink:href="#mf39f784cf7" y="45.372813"/>
     </g>
    </g>
    <g id="text_20">
     <!-- afl -->
     <g transform="translate(442.448125 48.872813)scale(0.1 -0.1)">
      <use xlink:href="#DejaVuSans-61"/>
      <use x="61.279297" xlink:href="#DejaVuSans-66"/>
      <use x="96.484375" xlink:href="#DejaVuSans-6c"/>
     </g>
    </g>
    <g id="line2d_43">
     <path d="M 414.448125 60.050937 
L 434.448125 60.050937 
" style="fill:none;stroke:#98df8a;stroke-linecap:square;stroke-width:1.5;"/>
    </g>
    <g id="line2d_44">
     <defs>
      <path d="M -0 3 
L 3 -3 
L -3 -3 
z
" id="mcb061eac16" style="stroke:#98df8a;stroke-linejoin:miter;"/>
     </defs>
     <g>
      <use style="fill:#98df8a;stroke:#98df8a;stroke-linejoin:miter;" x="424.448125" xlink:href="#mcb061eac16" y="60.050937"/>
     </g>
    </g>
    <g id="text_21">
     <!-- afl_scheduling_lifo -->
     <g transform="translate(442.448125 63.550937)scale(0.1 -0.1)">
      <use xlink:href="#DejaVuSans-61"/>
      <use x="61.279297" xlink:href="#DejaVuSans-66"/>
      <use x="96.484375" xlink:href="#DejaVuSans-6c"/>
      <use x="124.267578" xlink:href="#DejaVuSans-5f"/>
      <use x="174.267578" xlink:href="#DejaVuSans-73"/>
      <use x="226.367188" xlink:href="#DejaVuSans-63"/>
      <use x="281.347656" xlink:href="#DejaVuSans-68"/>
      <use x="344.726562" xlink:href="#DejaVuSans-65"/>
      <use x="406.25" xlink:href="#DejaVuSans-64"/>
      <use x="469.726562" xlink:href="#DejaVuSans-75"/>
      <use x="533.105469" xlink:href="#DejaVuSans-6c"/>
      <use x="560.888672" xlink:href="#DejaVuSans-69"/>
      <use x="588.671875" xlink:href="#DejaVuSans-6e"/>
      <use x="652.050781" xlink:href="#DejaVuSans-67"/>
      <use x="715.527344" xlink:href="#DejaVuSans-5f"/>
      <use x="765.527344" xlink:href="#DejaVuSans-6c"/>
      <use x="793.310547" xlink:href="#DejaVuSans-69"/>
      <use x="821.09375" xlink:href="#DejaVuSans-66"/>
      <use x="856.298828" xlink:href="#DejaVuSans-6f"/>
     </g>
    </g>
   </g>
  </g>
 </g>
 <defs>
  <clipPath id="p40569e7428">
   <rect height="266.112" width="357.12" x="53.328125" y="22.318125"/>
  </clipPath>
 </defs>
</svg>
