<?xml version="1.0" encoding="utf-8" standalone="no"?>
<!DOCTYPE svg PUBLIC "-//W3C//DTD SVG 1.1//EN"
  "http://www.w3.org/Graphics/SVG/1.1/DTD/svg11.dtd">
<svg height="325.986375pt" version="1.1" viewBox="0 0 568.985625 325.986375" width="568.985625pt" xmlns="http://www.w3.org/2000/svg" xmlns:xlink="http://www.w3.org/1999/xlink">
 <metadata>
  <rdf:RDF xmlns:cc="http://creativecommons.org/ns#" xmlns:dc="http://purl.org/dc/elements/1.1/" xmlns:rdf="http://www.w3.org/1999/02/22-rdf-syntax-ns#">
   <cc:Work>
    <dc:type rdf:resource="http://purl.org/dc/dcmitype/StillImage"/>
    <dc:date>2022-05-31T14:15:05.747414</dc:date>
    <dc:format>image/svg+xml</dc:format>
    <dc:creator>
     <cc:Agent>
      <dc:title>Matplotlib v3.4.3, https://matplotlib.org/</dc:title>
     </cc:Agent>
    </dc:creator>
   </cc:Work>
  </rdf:RDF>
 </metadata>
 <defs>
  <style type="text/css">*{stroke-linecap:butt;stroke-linejoin:round;}</style>
 </defs>
 <g id="figure_1">
  <g id="patch_1">
   <path d="M 0 325.986375 
L 568.985625 325.986375 
L 568.985625 0 
L 0 0 
z
" style="fill:#ffffff;"/>
  </g>
  <g id="axes_1">
   <g id="patch_2">
    <path d="M 53.328125 288.430125 
L 410.448125 288.430125 
L 410.448125 22.318125 
L 53.328125 22.318125 
z
" style="fill:#ffffff;"/>
   </g>
   <g id="PolyCollection_1">
    <defs>
     <path d="M 69.560852 -121.157808 
L 69.560852 -49.65225 
L 73.128485 -71.917454 
L 76.696117 -131.005878 
L 80.263749 -154.555613 
L 83.831382 -186.454799 
L 87.399014 -195.232427 
L 90.966646 -201.226905 
L 94.534279 -203.36779 
L 98.101911 -205.722763 
L 101.669544 -215.784923 
L 105.237176 -221.7794 
L 108.804808 -223.920285 
L 112.372441 -228.630232 
L 115.940073 -234.196533 
L 119.507705 -236.765595 
L 123.075338 -237.193772 
L 126.64297 -238.478303 
L 130.210603 -239.334657 
L 133.778235 -240.191011 
L 137.345867 -241.475542 
L 140.9135 -242.331896 
L 144.481132 -242.117808 
L 148.048764 -242.117808 
L 151.616397 -243.18825 
L 155.184029 -245.329135 
L 158.751661 -244.900958 
L 162.319294 -246.827754 
L 165.886926 -249.610905 
L 169.454559 -249.605553 
L 173.022191 -250.039082 
L 176.589823 -250.895436 
L 180.157456 -250.895436 
L 183.725088 -250.895436 
L 187.29272 -251.323613 
L 190.860353 -251.75179 
L 194.427985 -251.537701 
L 197.995618 -257.318091 
L 201.56325 -257.318091 
L 205.130882 -257.318091 
L 208.698515 -257.318091 
L 212.266147 -259.030799 
L 215.833779 -259.030799 
L 219.401412 -259.030799 
L 222.969044 -261.171684 
L 226.536676 -261.171684 
L 230.104309 -261.171684 
L 233.671941 -261.171684 
L 237.239574 -261.171684 
L 240.807206 -261.171684 
L 244.374838 -261.171684 
L 247.942471 -261.171684 
L 251.510103 -261.599861 
L 255.077735 -261.599861 
L 258.645368 -262.028038 
L 262.213 -262.028038 
L 265.780632 -262.456215 
L 269.348265 -262.456215 
L 272.915897 -262.456215 
L 276.48353 -263.312569 
L 280.051162 -263.312569 
L 283.618794 -263.312569 
L 287.186427 -264.168923 
L 290.754059 -263.740746 
L 294.321691 -263.740746 
L 297.889324 -267.166162 
L 301.456956 -265.448101 
L 305.024589 -265.448101 
L 308.592221 -263.740746 
L 312.159853 -263.740746 
L 315.727486 -267.166162 
L 319.295118 -267.166162 
L 322.86275 -267.166162 
L 326.430383 -267.166162 
L 329.998015 -268.450692 
L 333.565647 -268.450692 
L 337.13328 -268.236604 
L 340.700912 -268.450692 
L 344.268545 -268.450692 
L 347.836177 -268.450692 
L 351.403809 -268.450692 
L 354.971442 -269.307046 
L 358.539074 -268.450692 
L 362.106706 -268.450692 
L 365.674339 -268.450692 
L 369.241971 -268.450692 
L 372.809604 -269.092958 
L 376.377236 -268.878869 
L 379.944868 -268.878869 
L 383.512501 -268.878869 
L 387.080133 -269.092958 
L 390.647765 -269.307046 
L 394.215398 -269.307046 
L 394.215398 -286.862303 
L 394.215398 -286.862303 
L 390.647765 -286.862303 
L 387.080133 -286.434126 
L 383.512501 -286.434126 
L 379.944868 -286.434126 
L 376.377236 -286.434126 
L 372.809604 -286.434126 
L 369.241971 -286.434126 
L 365.674339 -286.434126 
L 362.106706 -286.434126 
L 358.539074 -286.434126 
L 354.971442 -287.29048 
L 351.403809 -286.434126 
L 347.836177 -286.434126 
L 344.268545 -286.434126 
L 340.700912 -285.588477 
L 337.13328 -285.363684 
L 333.565647 -285.577772 
L 329.998015 -285.577772 
L 326.430383 -285.577772 
L 322.86275 -285.149595 
L 319.295118 -285.149595 
L 315.727486 -285.149595 
L 312.159853 -285.149595 
L 308.592221 -284.721418 
L 305.024589 -284.721418 
L 301.456956 -284.721418 
L 297.889324 -284.293241 
L 294.321691 -284.293241 
L 290.754059 -284.293241 
L 287.186427 -284.293241 
L 283.618794 -284.293241 
L 280.051162 -284.293241 
L 276.48353 -283.865064 
L 272.915897 -283.865064 
L 269.348265 -283.865064 
L 265.780632 -283.436887 
L 262.213 -283.436887 
L 258.645368 -277.014232 
L 255.077735 -278.298763 
L 251.510103 -283.436887 
L 247.942471 -283.436887 
L 244.374838 -283.436887 
L 240.807206 -283.436887 
L 237.239574 -283.436887 
L 233.671941 -280.011471 
L 230.104309 -279.583294 
L 226.536676 -279.583294 
L 222.969044 -279.583294 
L 219.401412 -279.583294 
L 215.833779 -280.011471 
L 212.266147 -280.011471 
L 208.698515 -280.011471 
L 205.130882 -279.583294 
L 201.56325 -279.583294 
L 197.995618 -279.583294 
L 194.427985 -272.304285 
L 190.860353 -272.304285 
L 187.29272 -278.298763 
L 183.725088 -277.870586 
L 180.157456 -276.157878 
L 176.589823 -276.157878 
L 173.022191 -276.157878 
L 169.454559 -269.521135 
L 165.886926 -272.732462 
L 162.319294 -268.456045 
L 158.751661 -267.166162 
L 155.184029 -261.599861 
L 151.616397 -261.599861 
L 148.048764 -263.740746 
L 144.481132 -259.673064 
L 140.9135 -258.174445 
L 137.345867 -259.673064 
L 133.778235 -258.827415 
L 130.210603 -257.318091 
L 126.64297 -256.889914 
L 123.075338 -256.889914 
L 119.507705 -253.464498 
L 115.940073 -244.900958 
L 112.372441 -242.974162 
L 108.804808 -239.120569 
L 105.237176 -233.554268 
L 101.669544 -227.345701 
L 98.101911 -226.489347 
L 94.534279 -224.348462 
L 90.966646 -212.787684 
L 87.399014 -211.503153 
L 83.831382 -202.083259 
L 80.263749 -200.370551 
L 76.696117 -185.812533 
L 73.128485 -163.119153 
L 69.560852 -121.157808 
z
" id="m10cec3be54" style="stroke:#1f77b4;stroke-opacity:0.2;"/>
    </defs>
    <g clip-path="url(#p3562347819)">
     <use style="fill:#1f77b4;fill-opacity:0.2;stroke:#1f77b4;stroke-opacity:0.2;" x="0" xlink:href="#m10cec3be54" y="325.986375"/>
    </g>
   </g>
   <g id="PolyCollection_2">
    <defs>
     <path d="M 69.560852 -133.146763 
L 69.560852 -74.486515 
L 73.128485 -114.306976 
L 76.696117 -160.121914 
L 80.263749 -176.820816 
L 83.831382 -185.384356 
L 87.399014 -197.373312 
L 90.966646 -207.863648 
L 94.534279 -212.359507 
L 98.101911 -216.2131 
L 101.669544 -226.06117 
L 105.237176 -226.06117 
L 108.804808 -226.917524 
L 112.372441 -232.912002 
L 115.940073 -235.052887 
L 119.507705 -237.193772 
L 123.075338 -239.762834 
L 126.64297 -241.047365 
L 130.210603 -241.047365 
L 133.778235 -241.047365 
L 137.345867 -241.047365 
L 140.9135 -241.475542 
L 144.481132 -241.475542 
L 148.048764 -242.331896 
L 151.616397 -244.686869 
L 155.184029 -245.329135 
L 158.751661 -247.898197 
L 162.319294 -247.898197 
L 165.886926 -247.898197 
L 169.454559 -248.326374 
L 173.022191 -248.112285 
L 176.589823 -248.326374 
L 180.157456 -249.578792 
L 183.725088 -248.754551 
L 187.29272 -248.754551 
L 190.860353 -248.754551 
L 194.427985 -250.467259 
L 197.995618 -250.895436 
L 201.56325 -250.895436 
L 205.130882 -254.749029 
L 208.698515 -250.895436 
L 212.266147 -250.895436 
L 215.833779 -254.749029 
L 219.401412 -250.895436 
L 222.969044 -255.605383 
L 226.536676 -252.179967 
L 230.104309 -255.605383 
L 233.671941 -255.605383 
L 237.239574 -257.960356 
L 240.807206 -255.605383 
L 244.374838 -257.960356 
L 247.942471 -259.458976 
L 251.510103 -259.651655 
L 255.077735 -260.31533 
L 258.645368 -260.208285 
L 262.213 -260.31533 
L 265.780632 -260.31533 
L 269.348265 -260.31533 
L 272.915897 -262.456215 
L 276.48353 -261.385772 
L 280.051162 -262.231422 
L 283.618794 -260.31533 
L 287.186427 -260.31533 
L 290.754059 -262.456215 
L 294.321691 -260.743507 
L 297.889324 -260.743507 
L 301.456956 -260.743507 
L 305.024589 -262.456215 
L 308.592221 -262.456215 
L 312.159853 -262.028038 
L 315.727486 -262.242126 
L 319.295118 -262.456215 
L 322.86275 -262.456215 
L 326.430383 -262.456215 
L 329.998015 -264.168923 
L 333.565647 -265.025277 
L 337.13328 -265.025277 
L 340.700912 -264.168923 
L 344.268545 -263.312569 
L 347.836177 -264.5971 
L 351.403809 -264.811188 
L 354.971442 -264.811188 
L 358.539074 -264.5971 
L 362.106706 -265.453454 
L 365.674339 -265.453454 
L 369.241971 -264.5971 
L 372.809604 -265.453454 
L 376.377236 -265.453454 
L 379.944868 -268.022515 
L 383.512501 -266.737985 
L 387.080133 -266.737985 
L 390.647765 -266.737985 
L 394.215398 -268.022515 
L 394.215398 -285.149595 
L 394.215398 -285.149595 
L 390.647765 -285.149595 
L 387.080133 -286.005949 
L 383.512501 -286.005949 
L 379.944868 -285.363684 
L 376.377236 -286.005949 
L 372.809604 -284.721418 
L 369.241971 -285.577772 
L 365.674339 -291.57225 
L 362.106706 -282.580533 
L 358.539074 -282.580533 
L 354.971442 -286.862303 
L 351.403809 -286.862303 
L 347.836177 -282.580533 
L 344.268545 -282.580533 
L 340.700912 -282.152356 
L 337.13328 -282.580533 
L 333.565647 -285.791861 
L 329.998015 -281.296002 
L 326.430383 -282.152356 
L 322.86275 -282.152356 
L 319.295118 -280.867825 
L 315.727486 -280.867825 
L 312.159853 -280.867825 
L 308.592221 -280.867825 
L 305.024589 -280.230912 
L 301.456956 -280.439648 
L 297.889324 -280.011471 
L 294.321691 -279.583294 
L 290.754059 -279.155117 
L 287.186427 -278.72694 
L 283.618794 -277.870586 
L 280.051162 -277.656498 
L 276.48353 -277.014232 
L 272.915897 -277.014232 
L 269.348265 -277.014232 
L 265.780632 -276.157878 
L 262.213 -275.301524 
L 258.645368 -274.016993 
L 255.077735 -273.588816 
L 251.510103 -270.59693 
L 247.942471 -271.046515 
L 244.374838 -270.591577 
L 240.807206 -265.881631 
L 237.239574 -268.236604 
L 233.671941 -266.309808 
L 230.104309 -266.309808 
L 226.536676 -266.309808 
L 222.969044 -266.309808 
L 219.401412 -263.312569 
L 215.833779 -265.881631 
L 212.266147 -262.060151 
L 208.698515 -262.028038 
L 205.130882 -263.312569 
L 201.56325 -263.312569 
L 197.995618 -262.884392 
L 194.427985 -262.884392 
L 190.860353 -262.884392 
L 187.29272 -262.028038 
L 183.725088 -262.028038 
L 180.157456 -261.599861 
L 176.589823 -261.599861 
L 173.022191 -261.385772 
L 169.454559 -261.171684 
L 165.886926 -261.171684 
L 162.319294 -261.171684 
L 158.751661 -260.743507 
L 155.184029 -259.244887 
L 151.616397 -258.618678 
L 148.048764 -259.887153 
L 144.481132 -259.887153 
L 140.9135 -259.887153 
L 137.345867 -257.318091 
L 133.778235 -258.602622 
L 130.210603 -258.602622 
L 126.64297 -256.889914 
L 123.075338 -256.461737 
L 119.507705 -253.250409 
L 115.940073 -256.461737 
L 112.372441 -250.895436 
L 108.804808 -250.895436 
L 105.237176 -250.895436 
L 101.669544 -247.041843 
L 98.101911 -242.792186 
L 94.534279 -241.475542 
L 90.966646 -230.128852 
L 87.399014 -220.104158 
L 83.831382 -211.93133 
L 80.263749 -202.083259 
L 76.696117 -197.373312 
L 73.128485 -166.544569 
L 69.560852 -133.146763 
z
" id="m788ccedc43" style="stroke:#d62728;stroke-opacity:0.2;"/>
    </defs>
    <g clip-path="url(#p3562347819)">
     <use style="fill:#d62728;fill-opacity:0.2;stroke:#d62728;stroke-opacity:0.2;" x="0" xlink:href="#m788ccedc43" y="325.986375"/>
    </g>
   </g>
   <g id="PolyCollection_3">
    <defs>
     <path d="M 69.560852 -173.823577 
L 69.560852 -50.936781 
L 73.128485 -76.199223 
L 76.696117 -86.903648 
L 80.263749 -110.88156 
L 83.831382 -116.447861 
L 87.399014 -123.298692 
L 90.966646 -147.538862 
L 94.534279 -148.347046 
L 98.101911 -148.561135 
L 101.669544 -152.842905 
L 105.237176 -152.842905 
L 108.804808 -152.414728 
L 112.372441 -154.127436 
L 115.940073 -175.536285 
L 119.507705 -176.392639 
L 123.075338 -166.758657 
L 126.64297 -164.403684 
L 130.210603 -171.682692 
L 133.778235 -174.679931 
L 137.345867 -177.67717 
L 140.9135 -181.744852 
L 144.481132 -177.67717 
L 148.048764 -177.67717 
L 151.616397 -177.67717 
L 155.184029 -184.099825 
L 158.751661 -191.807011 
L 162.319294 -186.026622 
L 165.886926 -179.389878 
L 169.454559 -179.389878 
L 173.022191 -179.389878 
L 176.589823 -179.389878 
L 180.157456 -182.815294 
L 183.725088 -182.815294 
L 187.29272 -182.815294 
L 190.860353 -184.099825 
L 194.427985 -184.099825 
L 197.995618 -184.528002 
L 201.56325 -184.528002 
L 205.130882 -184.528002 
L 208.698515 -197.801489 
L 212.266147 -193.091542 
L 215.833779 -193.091542 
L 219.401412 -193.091542 
L 222.969044 -193.091542 
L 226.536676 -197.132462 
L 230.104309 -197.5874 
L 233.671941 -198.229666 
L 237.239574 -196.731046 
L 240.807206 -193.947896 
L 244.374838 -193.947896 
L 247.942471 -194.80425 
L 251.510103 -194.80425 
L 255.077735 -194.80425 
L 258.645368 -203.36779 
L 262.213 -200.156462 
L 265.780632 -199.942374 
L 269.348265 -203.36779 
L 272.915897 -203.36779 
L 276.48353 -203.36779 
L 280.051162 -203.36779 
L 283.618794 -203.36779 
L 287.186427 -203.36779 
L 290.754059 -203.137645 
L 294.321691 -204.224144 
L 297.889324 -204.224144 
L 301.456956 -204.224144 
L 305.024589 -204.224144 
L 308.592221 -204.224144 
L 312.159853 -204.438232 
L 315.727486 -204.652321 
L 319.295118 -204.652321 
L 322.86275 -205.080498 
L 326.430383 -205.080498 
L 329.998015 -205.080498 
L 333.565647 -205.508675 
L 337.13328 -205.508675 
L 340.700912 -206.365029 
L 344.268545 -206.793206 
L 347.836177 -207.221383 
L 351.403809 -207.221383 
L 354.971442 -207.221383 
L 358.539074 -207.221383 
L 362.106706 -207.221383 
L 365.674339 -209.790445 
L 369.241971 -207.64956 
L 372.809604 -207.64956 
L 376.377236 -209.148179 
L 379.944868 -209.774388 
L 383.512501 -209.790445 
L 387.080133 -209.790445 
L 390.647765 -211.93133 
L 394.215398 -209.790445 
L 394.215398 -241.903719 
L 394.215398 -241.903719 
L 390.647765 -236.551507 
L 387.080133 -232.483825 
L 383.512501 -232.483825 
L 379.944868 -238.90648 
L 376.377236 -232.483825 
L 372.809604 -231.980717 
L 369.241971 -231.627471 
L 365.674339 -241.475542 
L 362.106706 -241.475542 
L 358.539074 -241.475542 
L 354.971442 -241.475542 
L 351.403809 -238.692392 
L 347.836177 -231.627471 
L 344.268545 -238.478303 
L 340.700912 -238.478303 
L 337.13328 -238.478303 
L 333.565647 -238.050126 
L 329.998015 -231.199294 
L 326.430383 -236.765595 
L 322.86275 -231.199294 
L 319.295118 -236.979684 
L 315.727486 -238.264215 
L 312.159853 -236.765595 
L 308.592221 -231.199294 
L 305.024589 -236.765595 
L 301.456956 -237.434622 
L 297.889324 -231.199294 
L 294.321691 -230.771117 
L 290.754059 -230.498154 
L 287.186427 -230.34294 
L 283.618794 -230.34294 
L 280.051162 -231.627471 
L 276.48353 -231.627471 
L 272.915897 -236.765595 
L 269.348265 -231.627471 
L 265.780632 -229.486586 
L 262.213 -235.909241 
L 258.645368 -229.636448 
L 255.077735 -229.486586 
L 251.510103 -229.486586 
L 247.942471 -229.486586 
L 244.374838 -229.058409 
L 240.807206 -227.345701 
L 237.239574 -227.345701 
L 233.671941 -227.131613 
L 230.104309 -226.703436 
L 226.536676 -225.847082 
L 222.969044 -226.06117 
L 219.401412 -226.06117 
L 215.833779 -226.06117 
L 212.266147 -226.06117 
L 208.698515 -230.369701 
L 205.130882 -226.06117 
L 201.56325 -226.06117 
L 197.995618 -226.06117 
L 194.427985 -226.06117 
L 190.860353 -226.06117 
L 187.29272 -226.06117 
L 183.725088 -226.06117 
L 180.157456 -226.06117 
L 176.589823 -226.06117 
L 173.022191 -226.06117 
L 169.454559 -221.351223 
L 165.886926 -221.351223 
L 162.319294 -220.708958 
L 158.751661 -220.066692 
L 155.184029 -219.215691 
L 151.616397 -220.066692 
L 148.048764 -220.066692 
L 144.481132 -220.066692 
L 140.9135 -218.139896 
L 137.345867 -219.638515 
L 133.778235 -219.638515 
L 130.210603 -219.210338 
L 126.64297 -214.072215 
L 123.075338 -214.104328 
L 119.507705 -215.784923 
L 115.940073 -213.215861 
L 112.372441 -211.503153 
L 108.804808 -208.934091 
L 105.237176 -208.934091 
L 101.669544 -207.64956 
L 98.101911 -202.511436 
L 94.534279 -203.795967 
L 90.966646 -202.099315 
L 87.399014 -195.660604 
L 83.831382 -190.094303 
L 80.263749 -189.237949 
L 76.696117 -188.809772 
L 73.128485 -186.24071 
L 69.560852 -173.823577 
z
" id="m1492f52ec3" style="stroke:#98df8a;stroke-opacity:0.2;"/>
    </defs>
    <g clip-path="url(#p3562347819)">
     <use style="fill:#98df8a;fill-opacity:0.2;stroke:#98df8a;stroke-opacity:0.2;" x="0" xlink:href="#m1492f52ec3" y="325.986375"/>
    </g>
   </g>
   <g id="matplotlib.axis_1">
    <g id="xtick_1">
     <g id="line2d_1">
      <defs>
       <path d="M 0 0 
L 0 3.5 
" id="m388b79bee2" style="stroke:#000000;stroke-width:0.8;"/>
      </defs>
      <g>
       <use style="stroke:#000000;stroke-width:0.8;" x="69.560852" xlink:href="#m388b79bee2" y="288.430125"/>
      </g>
     </g>
     <g id="text_1">
      <!-- 15m -->
      <g transform="translate(58.32804 303.028562)scale(0.1 -0.1)">
       <defs>
        <path d="M 794 531 
L 1825 531 
L 1825 4091 
L 703 3866 
L 703 4441 
L 1819 4666 
L 2450 4666 
L 2450 531 
L 3481 531 
L 3481 0 
L 794 0 
L 794 531 
z
" id="DejaVuSans-31" transform="scale(0.015625)"/>
        <path d="M 691 4666 
L 3169 4666 
L 3169 4134 
L 1269 4134 
L 1269 2991 
Q 1406 3038 1543 3061 
Q 1681 3084 1819 3084 
Q 2600 3084 3056 2656 
Q 3513 2228 3513 1497 
Q 3513 744 3044 326 
Q 2575 -91 1722 -91 
Q 1428 -91 1123 -41 
Q 819 9 494 109 
L 494 744 
Q 775 591 1075 516 
Q 1375 441 1709 441 
Q 2250 441 2565 725 
Q 2881 1009 2881 1497 
Q 2881 1984 2565 2268 
Q 2250 2553 1709 2553 
Q 1456 2553 1204 2497 
Q 953 2441 691 2322 
L 691 4666 
z
" id="DejaVuSans-35" transform="scale(0.015625)"/>
        <path d="M 3328 2828 
Q 3544 3216 3844 3400 
Q 4144 3584 4550 3584 
Q 5097 3584 5394 3201 
Q 5691 2819 5691 2113 
L 5691 0 
L 5113 0 
L 5113 2094 
Q 5113 2597 4934 2840 
Q 4756 3084 4391 3084 
Q 3944 3084 3684 2787 
Q 3425 2491 3425 1978 
L 3425 0 
L 2847 0 
L 2847 2094 
Q 2847 2600 2669 2842 
Q 2491 3084 2119 3084 
Q 1678 3084 1418 2786 
Q 1159 2488 1159 1978 
L 1159 0 
L 581 0 
L 581 3500 
L 1159 3500 
L 1159 2956 
Q 1356 3278 1631 3431 
Q 1906 3584 2284 3584 
Q 2666 3584 2933 3390 
Q 3200 3197 3328 2828 
z
" id="DejaVuSans-6d" transform="scale(0.015625)"/>
       </defs>
       <use xlink:href="#DejaVuSans-31"/>
       <use x="63.623047" xlink:href="#DejaVuSans-35"/>
       <use x="127.246094" xlink:href="#DejaVuSans-6d"/>
      </g>
     </g>
    </g>
    <g id="xtick_2">
     <g id="line2d_2">
      <g>
       <use style="stroke:#000000;stroke-width:0.8;" x="124.264549" xlink:href="#m388b79bee2" y="288.430125"/>
      </g>
     </g>
     <g id="text_2">
      <!-- 4h:5m -->
      <g transform="translate(108.178611 303.028562)scale(0.1 -0.1)">
       <defs>
        <path d="M 2419 4116 
L 825 1625 
L 2419 1625 
L 2419 4116 
z
M 2253 4666 
L 3047 4666 
L 3047 1625 
L 3713 1625 
L 3713 1100 
L 3047 1100 
L 3047 0 
L 2419 0 
L 2419 1100 
L 313 1100 
L 313 1709 
L 2253 4666 
z
" id="DejaVuSans-34" transform="scale(0.015625)"/>
        <path d="M 3513 2113 
L 3513 0 
L 2938 0 
L 2938 2094 
Q 2938 2591 2744 2837 
Q 2550 3084 2163 3084 
Q 1697 3084 1428 2787 
Q 1159 2491 1159 1978 
L 1159 0 
L 581 0 
L 581 4863 
L 1159 4863 
L 1159 2956 
Q 1366 3272 1645 3428 
Q 1925 3584 2291 3584 
Q 2894 3584 3203 3211 
Q 3513 2838 3513 2113 
z
" id="DejaVuSans-68" transform="scale(0.015625)"/>
        <path d="M 750 794 
L 1409 794 
L 1409 0 
L 750 0 
L 750 794 
z
M 750 3309 
L 1409 3309 
L 1409 2516 
L 750 2516 
L 750 3309 
z
" id="DejaVuSans-3a" transform="scale(0.015625)"/>
       </defs>
       <use xlink:href="#DejaVuSans-34"/>
       <use x="63.623047" xlink:href="#DejaVuSans-68"/>
       <use x="127.001953" xlink:href="#DejaVuSans-3a"/>
       <use x="160.693359" xlink:href="#DejaVuSans-35"/>
       <use x="224.316406" xlink:href="#DejaVuSans-6d"/>
      </g>
     </g>
    </g>
    <g id="xtick_3">
     <g id="line2d_3">
      <g>
       <use style="stroke:#000000;stroke-width:0.8;" x="178.968245" xlink:href="#m388b79bee2" y="288.430125"/>
      </g>
     </g>
     <g id="text_3">
      <!-- 7h:55m -->
      <g transform="translate(159.701057 303.028562)scale(0.1 -0.1)">
       <defs>
        <path d="M 525 4666 
L 3525 4666 
L 3525 4397 
L 1831 0 
L 1172 0 
L 2766 4134 
L 525 4134 
L 525 4666 
z
" id="DejaVuSans-37" transform="scale(0.015625)"/>
       </defs>
       <use xlink:href="#DejaVuSans-37"/>
       <use x="63.623047" xlink:href="#DejaVuSans-68"/>
       <use x="127.001953" xlink:href="#DejaVuSans-3a"/>
       <use x="160.693359" xlink:href="#DejaVuSans-35"/>
       <use x="224.316406" xlink:href="#DejaVuSans-35"/>
       <use x="287.939453" xlink:href="#DejaVuSans-6d"/>
      </g>
     </g>
    </g>
    <g id="xtick_4">
     <g id="line2d_4">
      <g>
       <use style="stroke:#000000;stroke-width:0.8;" x="233.671941" xlink:href="#m388b79bee2" y="288.430125"/>
      </g>
     </g>
     <g id="text_4">
      <!-- 11h:45m -->
      <g transform="translate(211.223504 303.028562)scale(0.1 -0.1)">
       <use xlink:href="#DejaVuSans-31"/>
       <use x="63.623047" xlink:href="#DejaVuSans-31"/>
       <use x="127.246094" xlink:href="#DejaVuSans-68"/>
       <use x="190.625" xlink:href="#DejaVuSans-3a"/>
       <use x="224.316406" xlink:href="#DejaVuSans-34"/>
       <use x="287.939453" xlink:href="#DejaVuSans-35"/>
       <use x="351.5625" xlink:href="#DejaVuSans-6d"/>
      </g>
     </g>
    </g>
    <g id="xtick_5">
     <g id="line2d_5">
      <g>
       <use style="stroke:#000000;stroke-width:0.8;" x="288.375637" xlink:href="#m388b79bee2" y="288.430125"/>
      </g>
     </g>
     <g id="text_5">
      <!-- 15h:35m -->
      <g transform="translate(265.9272 303.028562)scale(0.1 -0.1)">
       <defs>
        <path d="M 2597 2516 
Q 3050 2419 3304 2112 
Q 3559 1806 3559 1356 
Q 3559 666 3084 287 
Q 2609 -91 1734 -91 
Q 1441 -91 1130 -33 
Q 819 25 488 141 
L 488 750 
Q 750 597 1062 519 
Q 1375 441 1716 441 
Q 2309 441 2620 675 
Q 2931 909 2931 1356 
Q 2931 1769 2642 2001 
Q 2353 2234 1838 2234 
L 1294 2234 
L 1294 2753 
L 1863 2753 
Q 2328 2753 2575 2939 
Q 2822 3125 2822 3475 
Q 2822 3834 2567 4026 
Q 2313 4219 1838 4219 
Q 1578 4219 1281 4162 
Q 984 4106 628 3988 
L 628 4550 
Q 988 4650 1302 4700 
Q 1616 4750 1894 4750 
Q 2613 4750 3031 4423 
Q 3450 4097 3450 3541 
Q 3450 3153 3228 2886 
Q 3006 2619 2597 2516 
z
" id="DejaVuSans-33" transform="scale(0.015625)"/>
       </defs>
       <use xlink:href="#DejaVuSans-31"/>
       <use x="63.623047" xlink:href="#DejaVuSans-35"/>
       <use x="127.246094" xlink:href="#DejaVuSans-68"/>
       <use x="190.625" xlink:href="#DejaVuSans-3a"/>
       <use x="224.316406" xlink:href="#DejaVuSans-33"/>
       <use x="287.939453" xlink:href="#DejaVuSans-35"/>
       <use x="351.5625" xlink:href="#DejaVuSans-6d"/>
      </g>
     </g>
    </g>
    <g id="xtick_6">
     <g id="line2d_6">
      <g>
       <use style="stroke:#000000;stroke-width:0.8;" x="343.079334" xlink:href="#m388b79bee2" y="288.430125"/>
      </g>
     </g>
     <g id="text_6">
      <!-- 19h:25m -->
      <g transform="translate(320.630896 303.028562)scale(0.1 -0.1)">
       <defs>
        <path d="M 703 97 
L 703 672 
Q 941 559 1184 500 
Q 1428 441 1663 441 
Q 2288 441 2617 861 
Q 2947 1281 2994 2138 
Q 2813 1869 2534 1725 
Q 2256 1581 1919 1581 
Q 1219 1581 811 2004 
Q 403 2428 403 3163 
Q 403 3881 828 4315 
Q 1253 4750 1959 4750 
Q 2769 4750 3195 4129 
Q 3622 3509 3622 2328 
Q 3622 1225 3098 567 
Q 2575 -91 1691 -91 
Q 1453 -91 1209 -44 
Q 966 3 703 97 
z
M 1959 2075 
Q 2384 2075 2632 2365 
Q 2881 2656 2881 3163 
Q 2881 3666 2632 3958 
Q 2384 4250 1959 4250 
Q 1534 4250 1286 3958 
Q 1038 3666 1038 3163 
Q 1038 2656 1286 2365 
Q 1534 2075 1959 2075 
z
" id="DejaVuSans-39" transform="scale(0.015625)"/>
        <path d="M 1228 531 
L 3431 531 
L 3431 0 
L 469 0 
L 469 531 
Q 828 903 1448 1529 
Q 2069 2156 2228 2338 
Q 2531 2678 2651 2914 
Q 2772 3150 2772 3378 
Q 2772 3750 2511 3984 
Q 2250 4219 1831 4219 
Q 1534 4219 1204 4116 
Q 875 4013 500 3803 
L 500 4441 
Q 881 4594 1212 4672 
Q 1544 4750 1819 4750 
Q 2544 4750 2975 4387 
Q 3406 4025 3406 3419 
Q 3406 3131 3298 2873 
Q 3191 2616 2906 2266 
Q 2828 2175 2409 1742 
Q 1991 1309 1228 531 
z
" id="DejaVuSans-32" transform="scale(0.015625)"/>
       </defs>
       <use xlink:href="#DejaVuSans-31"/>
       <use x="63.623047" xlink:href="#DejaVuSans-39"/>
       <use x="127.246094" xlink:href="#DejaVuSans-68"/>
       <use x="190.625" xlink:href="#DejaVuSans-3a"/>
       <use x="224.316406" xlink:href="#DejaVuSans-32"/>
       <use x="287.939453" xlink:href="#DejaVuSans-35"/>
       <use x="351.5625" xlink:href="#DejaVuSans-6d"/>
      </g>
     </g>
    </g>
    <g id="text_7">
     <!-- Time (hour:minute) -->
     <g transform="translate(183.481094 316.706687)scale(0.1 -0.1)">
      <defs>
       <path d="M -19 4666 
L 3928 4666 
L 3928 4134 
L 2272 4134 
L 2272 0 
L 1638 0 
L 1638 4134 
L -19 4134 
L -19 4666 
z
" id="DejaVuSans-54" transform="scale(0.015625)"/>
       <path d="M 603 3500 
L 1178 3500 
L 1178 0 
L 603 0 
L 603 3500 
z
M 603 4863 
L 1178 4863 
L 1178 4134 
L 603 4134 
L 603 4863 
z
" id="DejaVuSans-69" transform="scale(0.015625)"/>
       <path d="M 3597 1894 
L 3597 1613 
L 953 1613 
Q 991 1019 1311 708 
Q 1631 397 2203 397 
Q 2534 397 2845 478 
Q 3156 559 3463 722 
L 3463 178 
Q 3153 47 2828 -22 
Q 2503 -91 2169 -91 
Q 1331 -91 842 396 
Q 353 884 353 1716 
Q 353 2575 817 3079 
Q 1281 3584 2069 3584 
Q 2775 3584 3186 3129 
Q 3597 2675 3597 1894 
z
M 3022 2063 
Q 3016 2534 2758 2815 
Q 2500 3097 2075 3097 
Q 1594 3097 1305 2825 
Q 1016 2553 972 2059 
L 3022 2063 
z
" id="DejaVuSans-65" transform="scale(0.015625)"/>
       <path id="DejaVuSans-20" transform="scale(0.015625)"/>
       <path d="M 1984 4856 
Q 1566 4138 1362 3434 
Q 1159 2731 1159 2009 
Q 1159 1288 1364 580 
Q 1569 -128 1984 -844 
L 1484 -844 
Q 1016 -109 783 600 
Q 550 1309 550 2009 
Q 550 2706 781 3412 
Q 1013 4119 1484 4856 
L 1984 4856 
z
" id="DejaVuSans-28" transform="scale(0.015625)"/>
       <path d="M 1959 3097 
Q 1497 3097 1228 2736 
Q 959 2375 959 1747 
Q 959 1119 1226 758 
Q 1494 397 1959 397 
Q 2419 397 2687 759 
Q 2956 1122 2956 1747 
Q 2956 2369 2687 2733 
Q 2419 3097 1959 3097 
z
M 1959 3584 
Q 2709 3584 3137 3096 
Q 3566 2609 3566 1747 
Q 3566 888 3137 398 
Q 2709 -91 1959 -91 
Q 1206 -91 779 398 
Q 353 888 353 1747 
Q 353 2609 779 3096 
Q 1206 3584 1959 3584 
z
" id="DejaVuSans-6f" transform="scale(0.015625)"/>
       <path d="M 544 1381 
L 544 3500 
L 1119 3500 
L 1119 1403 
Q 1119 906 1312 657 
Q 1506 409 1894 409 
Q 2359 409 2629 706 
Q 2900 1003 2900 1516 
L 2900 3500 
L 3475 3500 
L 3475 0 
L 2900 0 
L 2900 538 
Q 2691 219 2414 64 
Q 2138 -91 1772 -91 
Q 1169 -91 856 284 
Q 544 659 544 1381 
z
M 1991 3584 
L 1991 3584 
z
" id="DejaVuSans-75" transform="scale(0.015625)"/>
       <path d="M 2631 2963 
Q 2534 3019 2420 3045 
Q 2306 3072 2169 3072 
Q 1681 3072 1420 2755 
Q 1159 2438 1159 1844 
L 1159 0 
L 581 0 
L 581 3500 
L 1159 3500 
L 1159 2956 
Q 1341 3275 1631 3429 
Q 1922 3584 2338 3584 
Q 2397 3584 2469 3576 
Q 2541 3569 2628 3553 
L 2631 2963 
z
" id="DejaVuSans-72" transform="scale(0.015625)"/>
       <path d="M 3513 2113 
L 3513 0 
L 2938 0 
L 2938 2094 
Q 2938 2591 2744 2837 
Q 2550 3084 2163 3084 
Q 1697 3084 1428 2787 
Q 1159 2491 1159 1978 
L 1159 0 
L 581 0 
L 581 3500 
L 1159 3500 
L 1159 2956 
Q 1366 3272 1645 3428 
Q 1925 3584 2291 3584 
Q 2894 3584 3203 3211 
Q 3513 2838 3513 2113 
z
" id="DejaVuSans-6e" transform="scale(0.015625)"/>
       <path d="M 1172 4494 
L 1172 3500 
L 2356 3500 
L 2356 3053 
L 1172 3053 
L 1172 1153 
Q 1172 725 1289 603 
Q 1406 481 1766 481 
L 2356 481 
L 2356 0 
L 1766 0 
Q 1100 0 847 248 
Q 594 497 594 1153 
L 594 3053 
L 172 3053 
L 172 3500 
L 594 3500 
L 594 4494 
L 1172 4494 
z
" id="DejaVuSans-74" transform="scale(0.015625)"/>
       <path d="M 513 4856 
L 1013 4856 
Q 1481 4119 1714 3412 
Q 1947 2706 1947 2009 
Q 1947 1309 1714 600 
Q 1481 -109 1013 -844 
L 513 -844 
Q 928 -128 1133 580 
Q 1338 1288 1338 2009 
Q 1338 2731 1133 3434 
Q 928 4138 513 4856 
z
" id="DejaVuSans-29" transform="scale(0.015625)"/>
      </defs>
      <use xlink:href="#DejaVuSans-54"/>
      <use x="57.958984" xlink:href="#DejaVuSans-69"/>
      <use x="85.742188" xlink:href="#DejaVuSans-6d"/>
      <use x="183.154297" xlink:href="#DejaVuSans-65"/>
      <use x="244.677734" xlink:href="#DejaVuSans-20"/>
      <use x="276.464844" xlink:href="#DejaVuSans-28"/>
      <use x="315.478516" xlink:href="#DejaVuSans-68"/>
      <use x="378.857422" xlink:href="#DejaVuSans-6f"/>
      <use x="440.039062" xlink:href="#DejaVuSans-75"/>
      <use x="503.417969" xlink:href="#DejaVuSans-72"/>
      <use x="542.78125" xlink:href="#DejaVuSans-3a"/>
      <use x="576.472656" xlink:href="#DejaVuSans-6d"/>
      <use x="673.884766" xlink:href="#DejaVuSans-69"/>
      <use x="701.667969" xlink:href="#DejaVuSans-6e"/>
      <use x="765.046875" xlink:href="#DejaVuSans-75"/>
      <use x="828.425781" xlink:href="#DejaVuSans-74"/>
      <use x="867.634766" xlink:href="#DejaVuSans-65"/>
      <use x="929.158203" xlink:href="#DejaVuSans-29"/>
     </g>
    </g>
   </g>
   <g id="matplotlib.axis_2">
    <g id="ytick_1">
     <g id="line2d_7">
      <defs>
       <path d="M 0 0 
L -3.5 0 
" id="mca99df7b47" style="stroke:#000000;stroke-width:0.8;"/>
      </defs>
      <g>
       <use style="stroke:#000000;stroke-width:0.8;" x="53.328125" xlink:href="#mca99df7b47" y="272.052355"/>
      </g>
     </g>
     <g id="text_8">
      <!-- 8300 -->
      <g transform="translate(20.878125 275.851574)scale(0.1 -0.1)">
       <defs>
        <path d="M 2034 2216 
Q 1584 2216 1326 1975 
Q 1069 1734 1069 1313 
Q 1069 891 1326 650 
Q 1584 409 2034 409 
Q 2484 409 2743 651 
Q 3003 894 3003 1313 
Q 3003 1734 2745 1975 
Q 2488 2216 2034 2216 
z
M 1403 2484 
Q 997 2584 770 2862 
Q 544 3141 544 3541 
Q 544 4100 942 4425 
Q 1341 4750 2034 4750 
Q 2731 4750 3128 4425 
Q 3525 4100 3525 3541 
Q 3525 3141 3298 2862 
Q 3072 2584 2669 2484 
Q 3125 2378 3379 2068 
Q 3634 1759 3634 1313 
Q 3634 634 3220 271 
Q 2806 -91 2034 -91 
Q 1263 -91 848 271 
Q 434 634 434 1313 
Q 434 1759 690 2068 
Q 947 2378 1403 2484 
z
M 1172 3481 
Q 1172 3119 1398 2916 
Q 1625 2713 2034 2713 
Q 2441 2713 2670 2916 
Q 2900 3119 2900 3481 
Q 2900 3844 2670 4047 
Q 2441 4250 2034 4250 
Q 1625 4250 1398 4047 
Q 1172 3844 1172 3481 
z
" id="DejaVuSans-38" transform="scale(0.015625)"/>
        <path d="M 2034 4250 
Q 1547 4250 1301 3770 
Q 1056 3291 1056 2328 
Q 1056 1369 1301 889 
Q 1547 409 2034 409 
Q 2525 409 2770 889 
Q 3016 1369 3016 2328 
Q 3016 3291 2770 3770 
Q 2525 4250 2034 4250 
z
M 2034 4750 
Q 2819 4750 3233 4129 
Q 3647 3509 3647 2328 
Q 3647 1150 3233 529 
Q 2819 -91 2034 -91 
Q 1250 -91 836 529 
Q 422 1150 422 2328 
Q 422 3509 836 4129 
Q 1250 4750 2034 4750 
z
" id="DejaVuSans-30" transform="scale(0.015625)"/>
       </defs>
       <use xlink:href="#DejaVuSans-38"/>
       <use x="63.623047" xlink:href="#DejaVuSans-33"/>
       <use x="127.246094" xlink:href="#DejaVuSans-30"/>
       <use x="190.869141" xlink:href="#DejaVuSans-30"/>
      </g>
     </g>
    </g>
    <g id="ytick_2">
     <g id="line2d_8">
      <g>
       <use style="stroke:#000000;stroke-width:0.8;" x="53.328125" xlink:href="#mca99df7b47" y="229.234656"/>
      </g>
     </g>
     <g id="text_9">
      <!-- 8400 -->
      <g transform="translate(20.878125 233.033875)scale(0.1 -0.1)">
       <use xlink:href="#DejaVuSans-38"/>
       <use x="63.623047" xlink:href="#DejaVuSans-34"/>
       <use x="127.246094" xlink:href="#DejaVuSans-30"/>
       <use x="190.869141" xlink:href="#DejaVuSans-30"/>
      </g>
     </g>
    </g>
    <g id="ytick_3">
     <g id="line2d_9">
      <g>
       <use style="stroke:#000000;stroke-width:0.8;" x="53.328125" xlink:href="#mca99df7b47" y="186.416957"/>
      </g>
     </g>
     <g id="text_10">
      <!-- 8500 -->
      <g transform="translate(20.878125 190.216176)scale(0.1 -0.1)">
       <use xlink:href="#DejaVuSans-38"/>
       <use x="63.623047" xlink:href="#DejaVuSans-35"/>
       <use x="127.246094" xlink:href="#DejaVuSans-30"/>
       <use x="190.869141" xlink:href="#DejaVuSans-30"/>
      </g>
     </g>
    </g>
    <g id="ytick_4">
     <g id="line2d_10">
      <g>
       <use style="stroke:#000000;stroke-width:0.8;" x="53.328125" xlink:href="#mca99df7b47" y="143.599258"/>
      </g>
     </g>
     <g id="text_11">
      <!-- 8600 -->
      <g transform="translate(20.878125 147.398476)scale(0.1 -0.1)">
       <defs>
        <path d="M 2113 2584 
Q 1688 2584 1439 2293 
Q 1191 2003 1191 1497 
Q 1191 994 1439 701 
Q 1688 409 2113 409 
Q 2538 409 2786 701 
Q 3034 994 3034 1497 
Q 3034 2003 2786 2293 
Q 2538 2584 2113 2584 
z
M 3366 4563 
L 3366 3988 
Q 3128 4100 2886 4159 
Q 2644 4219 2406 4219 
Q 1781 4219 1451 3797 
Q 1122 3375 1075 2522 
Q 1259 2794 1537 2939 
Q 1816 3084 2150 3084 
Q 2853 3084 3261 2657 
Q 3669 2231 3669 1497 
Q 3669 778 3244 343 
Q 2819 -91 2113 -91 
Q 1303 -91 875 529 
Q 447 1150 447 2328 
Q 447 3434 972 4092 
Q 1497 4750 2381 4750 
Q 2619 4750 2861 4703 
Q 3103 4656 3366 4563 
z
" id="DejaVuSans-36" transform="scale(0.015625)"/>
       </defs>
       <use xlink:href="#DejaVuSans-38"/>
       <use x="63.623047" xlink:href="#DejaVuSans-36"/>
       <use x="127.246094" xlink:href="#DejaVuSans-30"/>
       <use x="190.869141" xlink:href="#DejaVuSans-30"/>
      </g>
     </g>
    </g>
    <g id="ytick_5">
     <g id="line2d_11">
      <g>
       <use style="stroke:#000000;stroke-width:0.8;" x="53.328125" xlink:href="#mca99df7b47" y="100.781559"/>
      </g>
     </g>
     <g id="text_12">
      <!-- 8700 -->
      <g transform="translate(20.878125 104.580777)scale(0.1 -0.1)">
       <use xlink:href="#DejaVuSans-38"/>
       <use x="63.623047" xlink:href="#DejaVuSans-37"/>
       <use x="127.246094" xlink:href="#DejaVuSans-30"/>
       <use x="190.869141" xlink:href="#DejaVuSans-30"/>
      </g>
     </g>
    </g>
    <g id="ytick_6">
     <g id="line2d_12">
      <g>
       <use style="stroke:#000000;stroke-width:0.8;" x="53.328125" xlink:href="#mca99df7b47" y="57.96386"/>
      </g>
     </g>
     <g id="text_13">
      <!-- 8800 -->
      <g transform="translate(20.878125 61.763078)scale(0.1 -0.1)">
       <use xlink:href="#DejaVuSans-38"/>
       <use x="63.623047" xlink:href="#DejaVuSans-38"/>
       <use x="127.246094" xlink:href="#DejaVuSans-30"/>
       <use x="190.869141" xlink:href="#DejaVuSans-30"/>
      </g>
     </g>
    </g>
    <g id="text_14">
     <!-- Code region coverage -->
     <g transform="translate(14.798438 210.379594)rotate(-90)scale(0.1 -0.1)">
      <defs>
       <path d="M 4122 4306 
L 4122 3641 
Q 3803 3938 3442 4084 
Q 3081 4231 2675 4231 
Q 1875 4231 1450 3742 
Q 1025 3253 1025 2328 
Q 1025 1406 1450 917 
Q 1875 428 2675 428 
Q 3081 428 3442 575 
Q 3803 722 4122 1019 
L 4122 359 
Q 3791 134 3420 21 
Q 3050 -91 2638 -91 
Q 1578 -91 968 557 
Q 359 1206 359 2328 
Q 359 3453 968 4101 
Q 1578 4750 2638 4750 
Q 3056 4750 3426 4639 
Q 3797 4528 4122 4306 
z
" id="DejaVuSans-43" transform="scale(0.015625)"/>
       <path d="M 2906 2969 
L 2906 4863 
L 3481 4863 
L 3481 0 
L 2906 0 
L 2906 525 
Q 2725 213 2448 61 
Q 2172 -91 1784 -91 
Q 1150 -91 751 415 
Q 353 922 353 1747 
Q 353 2572 751 3078 
Q 1150 3584 1784 3584 
Q 2172 3584 2448 3432 
Q 2725 3281 2906 2969 
z
M 947 1747 
Q 947 1113 1208 752 
Q 1469 391 1925 391 
Q 2381 391 2643 752 
Q 2906 1113 2906 1747 
Q 2906 2381 2643 2742 
Q 2381 3103 1925 3103 
Q 1469 3103 1208 2742 
Q 947 2381 947 1747 
z
" id="DejaVuSans-64" transform="scale(0.015625)"/>
       <path d="M 2906 1791 
Q 2906 2416 2648 2759 
Q 2391 3103 1925 3103 
Q 1463 3103 1205 2759 
Q 947 2416 947 1791 
Q 947 1169 1205 825 
Q 1463 481 1925 481 
Q 2391 481 2648 825 
Q 2906 1169 2906 1791 
z
M 3481 434 
Q 3481 -459 3084 -895 
Q 2688 -1331 1869 -1331 
Q 1566 -1331 1297 -1286 
Q 1028 -1241 775 -1147 
L 775 -588 
Q 1028 -725 1275 -790 
Q 1522 -856 1778 -856 
Q 2344 -856 2625 -561 
Q 2906 -266 2906 331 
L 2906 616 
Q 2728 306 2450 153 
Q 2172 0 1784 0 
Q 1141 0 747 490 
Q 353 981 353 1791 
Q 353 2603 747 3093 
Q 1141 3584 1784 3584 
Q 2172 3584 2450 3431 
Q 2728 3278 2906 2969 
L 2906 3500 
L 3481 3500 
L 3481 434 
z
" id="DejaVuSans-67" transform="scale(0.015625)"/>
       <path d="M 3122 3366 
L 3122 2828 
Q 2878 2963 2633 3030 
Q 2388 3097 2138 3097 
Q 1578 3097 1268 2742 
Q 959 2388 959 1747 
Q 959 1106 1268 751 
Q 1578 397 2138 397 
Q 2388 397 2633 464 
Q 2878 531 3122 666 
L 3122 134 
Q 2881 22 2623 -34 
Q 2366 -91 2075 -91 
Q 1284 -91 818 406 
Q 353 903 353 1747 
Q 353 2603 823 3093 
Q 1294 3584 2113 3584 
Q 2378 3584 2631 3529 
Q 2884 3475 3122 3366 
z
" id="DejaVuSans-63" transform="scale(0.015625)"/>
       <path d="M 191 3500 
L 800 3500 
L 1894 563 
L 2988 3500 
L 3597 3500 
L 2284 0 
L 1503 0 
L 191 3500 
z
" id="DejaVuSans-76" transform="scale(0.015625)"/>
       <path d="M 2194 1759 
Q 1497 1759 1228 1600 
Q 959 1441 959 1056 
Q 959 750 1161 570 
Q 1363 391 1709 391 
Q 2188 391 2477 730 
Q 2766 1069 2766 1631 
L 2766 1759 
L 2194 1759 
z
M 3341 1997 
L 3341 0 
L 2766 0 
L 2766 531 
Q 2569 213 2275 61 
Q 1981 -91 1556 -91 
Q 1019 -91 701 211 
Q 384 513 384 1019 
Q 384 1609 779 1909 
Q 1175 2209 1959 2209 
L 2766 2209 
L 2766 2266 
Q 2766 2663 2505 2880 
Q 2244 3097 1772 3097 
Q 1472 3097 1187 3025 
Q 903 2953 641 2809 
L 641 3341 
Q 956 3463 1253 3523 
Q 1550 3584 1831 3584 
Q 2591 3584 2966 3190 
Q 3341 2797 3341 1997 
z
" id="DejaVuSans-61" transform="scale(0.015625)"/>
      </defs>
      <use xlink:href="#DejaVuSans-43"/>
      <use x="69.824219" xlink:href="#DejaVuSans-6f"/>
      <use x="131.005859" xlink:href="#DejaVuSans-64"/>
      <use x="194.482422" xlink:href="#DejaVuSans-65"/>
      <use x="256.005859" xlink:href="#DejaVuSans-20"/>
      <use x="287.792969" xlink:href="#DejaVuSans-72"/>
      <use x="326.65625" xlink:href="#DejaVuSans-65"/>
      <use x="388.179688" xlink:href="#DejaVuSans-67"/>
      <use x="451.65625" xlink:href="#DejaVuSans-69"/>
      <use x="479.439453" xlink:href="#DejaVuSans-6f"/>
      <use x="540.621094" xlink:href="#DejaVuSans-6e"/>
      <use x="604" xlink:href="#DejaVuSans-20"/>
      <use x="635.787109" xlink:href="#DejaVuSans-63"/>
      <use x="690.767578" xlink:href="#DejaVuSans-6f"/>
      <use x="751.949219" xlink:href="#DejaVuSans-76"/>
      <use x="811.128906" xlink:href="#DejaVuSans-65"/>
      <use x="872.652344" xlink:href="#DejaVuSans-72"/>
      <use x="913.765625" xlink:href="#DejaVuSans-61"/>
      <use x="975.044922" xlink:href="#DejaVuSans-67"/>
      <use x="1038.521484" xlink:href="#DejaVuSans-65"/>
     </g>
    </g>
   </g>
   <g id="line2d_13">
    <path clip-path="url(#p3562347819)" d="M 69.560852 256.637983 
L 73.128485 187.487399 
L 76.696117 156.872744 
L 80.263749 136.748426 
L 83.831382 128.398975 
L 87.399014 121.762231 
L 90.966646 117.908638 
L 94.534279 112.984603 
L 98.101911 109.345098 
L 101.669544 103.778798 
L 105.237176 100.56747 
L 108.804808 94.358904 
L 112.372441 85.795364 
L 115.940073 84.93901 
L 119.507705 83.654479 
L 123.075338 83.012213 
L 126.64297 81.513594 
L 130.210603 79.800886 
L 133.778235 79.800886 
L 137.345867 78.516355 
L 140.9135 78.516355 
L 144.481132 78.516355 
L 148.048764 78.516355 
L 151.616397 77.660001 
L 155.184029 77.660001 
L 158.751661 71.451435 
L 162.319294 71.023258 
L 165.886926 69.096461 
L 169.454559 69.524638 
L 173.022191 68.668284 
L 176.589823 68.668284 
L 180.157456 68.668284 
L 183.725088 68.240107 
L 187.29272 68.240107 
L 190.860353 67.597842 
L 194.427985 66.099222 
L 197.995618 63.958337 
L 201.56325 63.53016 
L 205.130882 63.53016 
L 208.698515 63.53016 
L 212.266147 63.53016 
L 215.833779 63.53016 
L 219.401412 63.53016 
L 222.969044 61.389275 
L 226.536676 61.389275 
L 230.104309 60.104744 
L 233.671941 59.462479 
L 237.239574 60.104744 
L 240.807206 59.462479 
L 244.374838 59.24839 
L 247.942471 58.606125 
L 251.510103 59.24839 
L 255.077735 59.24839 
L 258.645368 59.24839 
L 262.213 57.96386 
L 265.780632 56.679329 
L 269.348265 56.46524 
L 272.915897 57.96386 
L 276.48353 57.96386 
L 280.051162 57.96386 
L 283.618794 57.535683 
L 287.186427 56.037063 
L 290.754059 57.535683 
L 294.321691 55.822975 
L 297.889324 55.822975 
L 301.456956 56.037063 
L 305.024589 56.037063 
L 308.592221 55.822975 
L 312.159853 55.822975 
L 315.727486 55.822975 
L 319.295118 54.110267 
L 322.86275 53.68209 
L 326.430383 53.68209 
L 329.998015 53.68209 
L 333.565647 53.68209 
L 337.13328 53.896178 
L 340.700912 53.896178 
L 344.268545 53.68209 
L 347.836177 53.68209 
L 351.403809 53.68209 
L 354.971442 51.755293 
L 358.539074 53.68209 
L 362.106706 53.253913 
L 365.674339 53.253913 
L 369.241971 53.253913 
L 372.809604 51.755293 
L 376.377236 49.828497 
L 379.944868 48.972143 
L 383.512501 48.972143 
L 387.080133 51.327116 
L 390.647765 51.327116 
L 394.215398 51.113028 
" style="fill:none;stroke:#1f77b4;stroke-linecap:square;stroke-width:1.5;"/>
    <defs>
     <path d="M 0 3 
C 0.795609 3 1.55874 2.683901 2.12132 2.12132 
C 2.683901 1.55874 3 0.795609 3 0 
C 3 -0.795609 2.683901 -1.55874 2.12132 -2.12132 
C 1.55874 -2.683901 0.795609 -3 0 -3 
C -0.795609 -3 -1.55874 -2.683901 -2.12132 -2.12132 
C -2.683901 -1.55874 -3 -0.795609 -3 0 
C -3 0.795609 -2.683901 1.55874 -2.12132 2.12132 
C -1.55874 2.683901 -0.795609 3 0 3 
z
" id="m025ad40fa3" style="stroke:#ffffff;stroke-width:0.75;"/>
    </defs>
    <g clip-path="url(#p3562347819)">
     <use style="fill:#1f77b4;stroke:#ffffff;stroke-width:0.75;" x="69.560852" xlink:href="#m025ad40fa3" y="256.637983"/>
     <use style="fill:#1f77b4;stroke:#ffffff;stroke-width:0.75;" x="73.128485" xlink:href="#m025ad40fa3" y="187.487399"/>
     <use style="fill:#1f77b4;stroke:#ffffff;stroke-width:0.75;" x="76.696117" xlink:href="#m025ad40fa3" y="156.872744"/>
     <use style="fill:#1f77b4;stroke:#ffffff;stroke-width:0.75;" x="80.263749" xlink:href="#m025ad40fa3" y="136.748426"/>
     <use style="fill:#1f77b4;stroke:#ffffff;stroke-width:0.75;" x="83.831382" xlink:href="#m025ad40fa3" y="128.398975"/>
     <use style="fill:#1f77b4;stroke:#ffffff;stroke-width:0.75;" x="87.399014" xlink:href="#m025ad40fa3" y="121.762231"/>
     <use style="fill:#1f77b4;stroke:#ffffff;stroke-width:0.75;" x="90.966646" xlink:href="#m025ad40fa3" y="117.908638"/>
     <use style="fill:#1f77b4;stroke:#ffffff;stroke-width:0.75;" x="94.534279" xlink:href="#m025ad40fa3" y="112.984603"/>
     <use style="fill:#1f77b4;stroke:#ffffff;stroke-width:0.75;" x="98.101911" xlink:href="#m025ad40fa3" y="109.345098"/>
     <use style="fill:#1f77b4;stroke:#ffffff;stroke-width:0.75;" x="101.669544" xlink:href="#m025ad40fa3" y="103.778798"/>
     <use style="fill:#1f77b4;stroke:#ffffff;stroke-width:0.75;" x="105.237176" xlink:href="#m025ad40fa3" y="100.56747"/>
     <use style="fill:#1f77b4;stroke:#ffffff;stroke-width:0.75;" x="108.804808" xlink:href="#m025ad40fa3" y="94.358904"/>
     <use style="fill:#1f77b4;stroke:#ffffff;stroke-width:0.75;" x="112.372441" xlink:href="#m025ad40fa3" y="85.795364"/>
     <use style="fill:#1f77b4;stroke:#ffffff;stroke-width:0.75;" x="115.940073" xlink:href="#m025ad40fa3" y="84.93901"/>
     <use style="fill:#1f77b4;stroke:#ffffff;stroke-width:0.75;" x="119.507705" xlink:href="#m025ad40fa3" y="83.654479"/>
     <use style="fill:#1f77b4;stroke:#ffffff;stroke-width:0.75;" x="123.075338" xlink:href="#m025ad40fa3" y="83.012213"/>
     <use style="fill:#1f77b4;stroke:#ffffff;stroke-width:0.75;" x="126.64297" xlink:href="#m025ad40fa3" y="81.513594"/>
     <use style="fill:#1f77b4;stroke:#ffffff;stroke-width:0.75;" x="130.210603" xlink:href="#m025ad40fa3" y="79.800886"/>
     <use style="fill:#1f77b4;stroke:#ffffff;stroke-width:0.75;" x="133.778235" xlink:href="#m025ad40fa3" y="79.800886"/>
     <use style="fill:#1f77b4;stroke:#ffffff;stroke-width:0.75;" x="137.345867" xlink:href="#m025ad40fa3" y="78.516355"/>
     <use style="fill:#1f77b4;stroke:#ffffff;stroke-width:0.75;" x="140.9135" xlink:href="#m025ad40fa3" y="78.516355"/>
     <use style="fill:#1f77b4;stroke:#ffffff;stroke-width:0.75;" x="144.481132" xlink:href="#m025ad40fa3" y="78.516355"/>
     <use style="fill:#1f77b4;stroke:#ffffff;stroke-width:0.75;" x="148.048764" xlink:href="#m025ad40fa3" y="78.516355"/>
     <use style="fill:#1f77b4;stroke:#ffffff;stroke-width:0.75;" x="151.616397" xlink:href="#m025ad40fa3" y="77.660001"/>
     <use style="fill:#1f77b4;stroke:#ffffff;stroke-width:0.75;" x="155.184029" xlink:href="#m025ad40fa3" y="77.660001"/>
     <use style="fill:#1f77b4;stroke:#ffffff;stroke-width:0.75;" x="158.751661" xlink:href="#m025ad40fa3" y="71.451435"/>
     <use style="fill:#1f77b4;stroke:#ffffff;stroke-width:0.75;" x="162.319294" xlink:href="#m025ad40fa3" y="71.023258"/>
     <use style="fill:#1f77b4;stroke:#ffffff;stroke-width:0.75;" x="165.886926" xlink:href="#m025ad40fa3" y="69.096461"/>
     <use style="fill:#1f77b4;stroke:#ffffff;stroke-width:0.75;" x="169.454559" xlink:href="#m025ad40fa3" y="69.524638"/>
     <use style="fill:#1f77b4;stroke:#ffffff;stroke-width:0.75;" x="173.022191" xlink:href="#m025ad40fa3" y="68.668284"/>
     <use style="fill:#1f77b4;stroke:#ffffff;stroke-width:0.75;" x="176.589823" xlink:href="#m025ad40fa3" y="68.668284"/>
     <use style="fill:#1f77b4;stroke:#ffffff;stroke-width:0.75;" x="180.157456" xlink:href="#m025ad40fa3" y="68.668284"/>
     <use style="fill:#1f77b4;stroke:#ffffff;stroke-width:0.75;" x="183.725088" xlink:href="#m025ad40fa3" y="68.240107"/>
     <use style="fill:#1f77b4;stroke:#ffffff;stroke-width:0.75;" x="187.29272" xlink:href="#m025ad40fa3" y="68.240107"/>
     <use style="fill:#1f77b4;stroke:#ffffff;stroke-width:0.75;" x="190.860353" xlink:href="#m025ad40fa3" y="67.597842"/>
     <use style="fill:#1f77b4;stroke:#ffffff;stroke-width:0.75;" x="194.427985" xlink:href="#m025ad40fa3" y="66.099222"/>
     <use style="fill:#1f77b4;stroke:#ffffff;stroke-width:0.75;" x="197.995618" xlink:href="#m025ad40fa3" y="63.958337"/>
     <use style="fill:#1f77b4;stroke:#ffffff;stroke-width:0.75;" x="201.56325" xlink:href="#m025ad40fa3" y="63.53016"/>
     <use style="fill:#1f77b4;stroke:#ffffff;stroke-width:0.75;" x="205.130882" xlink:href="#m025ad40fa3" y="63.53016"/>
     <use style="fill:#1f77b4;stroke:#ffffff;stroke-width:0.75;" x="208.698515" xlink:href="#m025ad40fa3" y="63.53016"/>
     <use style="fill:#1f77b4;stroke:#ffffff;stroke-width:0.75;" x="212.266147" xlink:href="#m025ad40fa3" y="63.53016"/>
     <use style="fill:#1f77b4;stroke:#ffffff;stroke-width:0.75;" x="215.833779" xlink:href="#m025ad40fa3" y="63.53016"/>
     <use style="fill:#1f77b4;stroke:#ffffff;stroke-width:0.75;" x="219.401412" xlink:href="#m025ad40fa3" y="63.53016"/>
     <use style="fill:#1f77b4;stroke:#ffffff;stroke-width:0.75;" x="222.969044" xlink:href="#m025ad40fa3" y="61.389275"/>
     <use style="fill:#1f77b4;stroke:#ffffff;stroke-width:0.75;" x="226.536676" xlink:href="#m025ad40fa3" y="61.389275"/>
     <use style="fill:#1f77b4;stroke:#ffffff;stroke-width:0.75;" x="230.104309" xlink:href="#m025ad40fa3" y="60.104744"/>
     <use style="fill:#1f77b4;stroke:#ffffff;stroke-width:0.75;" x="233.671941" xlink:href="#m025ad40fa3" y="59.462479"/>
     <use style="fill:#1f77b4;stroke:#ffffff;stroke-width:0.75;" x="237.239574" xlink:href="#m025ad40fa3" y="60.104744"/>
     <use style="fill:#1f77b4;stroke:#ffffff;stroke-width:0.75;" x="240.807206" xlink:href="#m025ad40fa3" y="59.462479"/>
     <use style="fill:#1f77b4;stroke:#ffffff;stroke-width:0.75;" x="244.374838" xlink:href="#m025ad40fa3" y="59.24839"/>
     <use style="fill:#1f77b4;stroke:#ffffff;stroke-width:0.75;" x="247.942471" xlink:href="#m025ad40fa3" y="58.606125"/>
     <use style="fill:#1f77b4;stroke:#ffffff;stroke-width:0.75;" x="251.510103" xlink:href="#m025ad40fa3" y="59.24839"/>
     <use style="fill:#1f77b4;stroke:#ffffff;stroke-width:0.75;" x="255.077735" xlink:href="#m025ad40fa3" y="59.24839"/>
     <use style="fill:#1f77b4;stroke:#ffffff;stroke-width:0.75;" x="258.645368" xlink:href="#m025ad40fa3" y="59.24839"/>
     <use style="fill:#1f77b4;stroke:#ffffff;stroke-width:0.75;" x="262.213" xlink:href="#m025ad40fa3" y="57.96386"/>
     <use style="fill:#1f77b4;stroke:#ffffff;stroke-width:0.75;" x="265.780632" xlink:href="#m025ad40fa3" y="56.679329"/>
     <use style="fill:#1f77b4;stroke:#ffffff;stroke-width:0.75;" x="269.348265" xlink:href="#m025ad40fa3" y="56.46524"/>
     <use style="fill:#1f77b4;stroke:#ffffff;stroke-width:0.75;" x="272.915897" xlink:href="#m025ad40fa3" y="57.96386"/>
     <use style="fill:#1f77b4;stroke:#ffffff;stroke-width:0.75;" x="276.48353" xlink:href="#m025ad40fa3" y="57.96386"/>
     <use style="fill:#1f77b4;stroke:#ffffff;stroke-width:0.75;" x="280.051162" xlink:href="#m025ad40fa3" y="57.96386"/>
     <use style="fill:#1f77b4;stroke:#ffffff;stroke-width:0.75;" x="283.618794" xlink:href="#m025ad40fa3" y="57.535683"/>
     <use style="fill:#1f77b4;stroke:#ffffff;stroke-width:0.75;" x="287.186427" xlink:href="#m025ad40fa3" y="56.037063"/>
     <use style="fill:#1f77b4;stroke:#ffffff;stroke-width:0.75;" x="290.754059" xlink:href="#m025ad40fa3" y="57.535683"/>
     <use style="fill:#1f77b4;stroke:#ffffff;stroke-width:0.75;" x="294.321691" xlink:href="#m025ad40fa3" y="55.822975"/>
     <use style="fill:#1f77b4;stroke:#ffffff;stroke-width:0.75;" x="297.889324" xlink:href="#m025ad40fa3" y="55.822975"/>
     <use style="fill:#1f77b4;stroke:#ffffff;stroke-width:0.75;" x="301.456956" xlink:href="#m025ad40fa3" y="56.037063"/>
     <use style="fill:#1f77b4;stroke:#ffffff;stroke-width:0.75;" x="305.024589" xlink:href="#m025ad40fa3" y="56.037063"/>
     <use style="fill:#1f77b4;stroke:#ffffff;stroke-width:0.75;" x="308.592221" xlink:href="#m025ad40fa3" y="55.822975"/>
     <use style="fill:#1f77b4;stroke:#ffffff;stroke-width:0.75;" x="312.159853" xlink:href="#m025ad40fa3" y="55.822975"/>
     <use style="fill:#1f77b4;stroke:#ffffff;stroke-width:0.75;" x="315.727486" xlink:href="#m025ad40fa3" y="55.822975"/>
     <use style="fill:#1f77b4;stroke:#ffffff;stroke-width:0.75;" x="319.295118" xlink:href="#m025ad40fa3" y="54.110267"/>
     <use style="fill:#1f77b4;stroke:#ffffff;stroke-width:0.75;" x="322.86275" xlink:href="#m025ad40fa3" y="53.68209"/>
     <use style="fill:#1f77b4;stroke:#ffffff;stroke-width:0.75;" x="326.430383" xlink:href="#m025ad40fa3" y="53.68209"/>
     <use style="fill:#1f77b4;stroke:#ffffff;stroke-width:0.75;" x="329.998015" xlink:href="#m025ad40fa3" y="53.68209"/>
     <use style="fill:#1f77b4;stroke:#ffffff;stroke-width:0.75;" x="333.565647" xlink:href="#m025ad40fa3" y="53.68209"/>
     <use style="fill:#1f77b4;stroke:#ffffff;stroke-width:0.75;" x="337.13328" xlink:href="#m025ad40fa3" y="53.896178"/>
     <use style="fill:#1f77b4;stroke:#ffffff;stroke-width:0.75;" x="340.700912" xlink:href="#m025ad40fa3" y="53.896178"/>
     <use style="fill:#1f77b4;stroke:#ffffff;stroke-width:0.75;" x="344.268545" xlink:href="#m025ad40fa3" y="53.68209"/>
     <use style="fill:#1f77b4;stroke:#ffffff;stroke-width:0.75;" x="347.836177" xlink:href="#m025ad40fa3" y="53.68209"/>
     <use style="fill:#1f77b4;stroke:#ffffff;stroke-width:0.75;" x="351.403809" xlink:href="#m025ad40fa3" y="53.68209"/>
     <use style="fill:#1f77b4;stroke:#ffffff;stroke-width:0.75;" x="354.971442" xlink:href="#m025ad40fa3" y="51.755293"/>
     <use style="fill:#1f77b4;stroke:#ffffff;stroke-width:0.75;" x="358.539074" xlink:href="#m025ad40fa3" y="53.68209"/>
     <use style="fill:#1f77b4;stroke:#ffffff;stroke-width:0.75;" x="362.106706" xlink:href="#m025ad40fa3" y="53.253913"/>
     <use style="fill:#1f77b4;stroke:#ffffff;stroke-width:0.75;" x="365.674339" xlink:href="#m025ad40fa3" y="53.253913"/>
     <use style="fill:#1f77b4;stroke:#ffffff;stroke-width:0.75;" x="369.241971" xlink:href="#m025ad40fa3" y="53.253913"/>
     <use style="fill:#1f77b4;stroke:#ffffff;stroke-width:0.75;" x="372.809604" xlink:href="#m025ad40fa3" y="51.755293"/>
     <use style="fill:#1f77b4;stroke:#ffffff;stroke-width:0.75;" x="376.377236" xlink:href="#m025ad40fa3" y="49.828497"/>
     <use style="fill:#1f77b4;stroke:#ffffff;stroke-width:0.75;" x="379.944868" xlink:href="#m025ad40fa3" y="48.972143"/>
     <use style="fill:#1f77b4;stroke:#ffffff;stroke-width:0.75;" x="383.512501" xlink:href="#m025ad40fa3" y="48.972143"/>
     <use style="fill:#1f77b4;stroke:#ffffff;stroke-width:0.75;" x="387.080133" xlink:href="#m025ad40fa3" y="51.327116"/>
     <use style="fill:#1f77b4;stroke:#ffffff;stroke-width:0.75;" x="390.647765" xlink:href="#m025ad40fa3" y="51.327116"/>
     <use style="fill:#1f77b4;stroke:#ffffff;stroke-width:0.75;" x="394.215398" xlink:href="#m025ad40fa3" y="51.113028"/>
    </g>
   </g>
   <g id="line2d_14">
    <path clip-path="url(#p3562347819)" d="M 69.560852 217.2457 
L 73.128485 169.718054 
L 76.696117 157.300921 
L 80.263749 130.325771 
L 83.831382 122.832674 
L 87.399014 117.908638 
L 90.966646 104.206975 
L 94.534279 100.353382 
L 98.101911 95.001169 
L 101.669544 95.643435 
L 105.237176 93.074373 
L 108.804808 90.077134 
L 112.372441 89.648957 
L 115.940073 88.364426 
L 119.507705 84.296744 
L 123.075338 76.37547 
L 126.64297 76.37547 
L 130.210603 75.090939 
L 133.778235 73.806408 
L 137.345867 73.378231 
L 140.9135 72.0937 
L 144.481132 71.237346 
L 148.048764 70.809169 
L 151.616397 71.237346 
L 155.184029 71.023258 
L 158.751661 67.383753 
L 162.319294 67.383753 
L 165.886926 67.383753 
L 169.454559 67.383753 
L 173.022191 67.169665 
L 176.589823 66.955576 
L 180.157456 66.955576 
L 183.725088 66.099222 
L 187.29272 66.099222 
L 190.860353 66.099222 
L 194.427985 65.671045 
L 197.995618 65.242868 
L 201.56325 65.242868 
L 205.130882 64.814691 
L 208.698515 65.242868 
L 212.266147 64.814691 
L 215.833779 64.172426 
L 219.401412 64.386514 
L 222.969044 64.172426 
L 226.536676 64.386514 
L 230.104309 63.53016 
L 233.671941 63.53016 
L 237.239574 63.316072 
L 240.807206 63.53016 
L 244.374838 62.887895 
L 247.942471 62.459718 
L 251.510103 62.245629 
L 255.077735 61.389275 
L 258.645368 62.245629 
L 262.213 62.245629 
L 265.780632 59.676567 
L 269.348265 59.676567 
L 272.915897 57.535683 
L 276.48353 57.321594 
L 280.051162 59.676567 
L 283.618794 59.24839 
L 287.186427 58.820213 
L 290.754059 57.107506 
L 294.321691 59.24839 
L 297.889324 58.820213 
L 301.456956 58.820213 
L 305.024589 59.034302 
L 308.592221 58.820213 
L 312.159853 58.392037 
L 315.727486 58.606125 
L 319.295118 58.606125 
L 322.86275 58.392037 
L 326.430383 57.96386 
L 329.998015 56.46524 
L 333.565647 54.324355 
L 337.13328 54.538444 
L 340.700912 54.538444 
L 344.268545 54.110267 
L 347.836177 54.110267 
L 351.403809 53.468001 
L 354.971442 53.468001 
L 358.539074 54.110267 
L 362.106706 52.825736 
L 365.674339 52.825736 
L 369.241971 54.110267 
L 372.809604 53.039824 
L 376.377236 53.253913 
L 379.944868 52.825736 
L 383.512501 53.253913 
L 387.080133 53.253913 
L 390.647765 53.253913 
L 394.215398 53.253913 
" style="fill:none;stroke:#d62728;stroke-linecap:square;stroke-width:1.5;"/>
    <defs>
     <path d="M 0 -3 
L -3 3 
L 3 3 
z
" id="m10af548e6a" style="stroke:#ffffff;stroke-linejoin:miter;stroke-width:0.75;"/>
    </defs>
    <g clip-path="url(#p3562347819)">
     <use style="fill:#d62728;stroke:#ffffff;stroke-linejoin:miter;stroke-width:0.75;" x="69.560852" xlink:href="#m10af548e6a" y="217.2457"/>
     <use style="fill:#d62728;stroke:#ffffff;stroke-linejoin:miter;stroke-width:0.75;" x="73.128485" xlink:href="#m10af548e6a" y="169.718054"/>
     <use style="fill:#d62728;stroke:#ffffff;stroke-linejoin:miter;stroke-width:0.75;" x="76.696117" xlink:href="#m10af548e6a" y="157.300921"/>
     <use style="fill:#d62728;stroke:#ffffff;stroke-linejoin:miter;stroke-width:0.75;" x="80.263749" xlink:href="#m10af548e6a" y="130.325771"/>
     <use style="fill:#d62728;stroke:#ffffff;stroke-linejoin:miter;stroke-width:0.75;" x="83.831382" xlink:href="#m10af548e6a" y="122.832674"/>
     <use style="fill:#d62728;stroke:#ffffff;stroke-linejoin:miter;stroke-width:0.75;" x="87.399014" xlink:href="#m10af548e6a" y="117.908638"/>
     <use style="fill:#d62728;stroke:#ffffff;stroke-linejoin:miter;stroke-width:0.75;" x="90.966646" xlink:href="#m10af548e6a" y="104.206975"/>
     <use style="fill:#d62728;stroke:#ffffff;stroke-linejoin:miter;stroke-width:0.75;" x="94.534279" xlink:href="#m10af548e6a" y="100.353382"/>
     <use style="fill:#d62728;stroke:#ffffff;stroke-linejoin:miter;stroke-width:0.75;" x="98.101911" xlink:href="#m10af548e6a" y="95.001169"/>
     <use style="fill:#d62728;stroke:#ffffff;stroke-linejoin:miter;stroke-width:0.75;" x="101.669544" xlink:href="#m10af548e6a" y="95.643435"/>
     <use style="fill:#d62728;stroke:#ffffff;stroke-linejoin:miter;stroke-width:0.75;" x="105.237176" xlink:href="#m10af548e6a" y="93.074373"/>
     <use style="fill:#d62728;stroke:#ffffff;stroke-linejoin:miter;stroke-width:0.75;" x="108.804808" xlink:href="#m10af548e6a" y="90.077134"/>
     <use style="fill:#d62728;stroke:#ffffff;stroke-linejoin:miter;stroke-width:0.75;" x="112.372441" xlink:href="#m10af548e6a" y="89.648957"/>
     <use style="fill:#d62728;stroke:#ffffff;stroke-linejoin:miter;stroke-width:0.75;" x="115.940073" xlink:href="#m10af548e6a" y="88.364426"/>
     <use style="fill:#d62728;stroke:#ffffff;stroke-linejoin:miter;stroke-width:0.75;" x="119.507705" xlink:href="#m10af548e6a" y="84.296744"/>
     <use style="fill:#d62728;stroke:#ffffff;stroke-linejoin:miter;stroke-width:0.75;" x="123.075338" xlink:href="#m10af548e6a" y="76.37547"/>
     <use style="fill:#d62728;stroke:#ffffff;stroke-linejoin:miter;stroke-width:0.75;" x="126.64297" xlink:href="#m10af548e6a" y="76.37547"/>
     <use style="fill:#d62728;stroke:#ffffff;stroke-linejoin:miter;stroke-width:0.75;" x="130.210603" xlink:href="#m10af548e6a" y="75.090939"/>
     <use style="fill:#d62728;stroke:#ffffff;stroke-linejoin:miter;stroke-width:0.75;" x="133.778235" xlink:href="#m10af548e6a" y="73.806408"/>
     <use style="fill:#d62728;stroke:#ffffff;stroke-linejoin:miter;stroke-width:0.75;" x="137.345867" xlink:href="#m10af548e6a" y="73.378231"/>
     <use style="fill:#d62728;stroke:#ffffff;stroke-linejoin:miter;stroke-width:0.75;" x="140.9135" xlink:href="#m10af548e6a" y="72.0937"/>
     <use style="fill:#d62728;stroke:#ffffff;stroke-linejoin:miter;stroke-width:0.75;" x="144.481132" xlink:href="#m10af548e6a" y="71.237346"/>
     <use style="fill:#d62728;stroke:#ffffff;stroke-linejoin:miter;stroke-width:0.75;" x="148.048764" xlink:href="#m10af548e6a" y="70.809169"/>
     <use style="fill:#d62728;stroke:#ffffff;stroke-linejoin:miter;stroke-width:0.75;" x="151.616397" xlink:href="#m10af548e6a" y="71.237346"/>
     <use style="fill:#d62728;stroke:#ffffff;stroke-linejoin:miter;stroke-width:0.75;" x="155.184029" xlink:href="#m10af548e6a" y="71.023258"/>
     <use style="fill:#d62728;stroke:#ffffff;stroke-linejoin:miter;stroke-width:0.75;" x="158.751661" xlink:href="#m10af548e6a" y="67.383753"/>
     <use style="fill:#d62728;stroke:#ffffff;stroke-linejoin:miter;stroke-width:0.75;" x="162.319294" xlink:href="#m10af548e6a" y="67.383753"/>
     <use style="fill:#d62728;stroke:#ffffff;stroke-linejoin:miter;stroke-width:0.75;" x="165.886926" xlink:href="#m10af548e6a" y="67.383753"/>
     <use style="fill:#d62728;stroke:#ffffff;stroke-linejoin:miter;stroke-width:0.75;" x="169.454559" xlink:href="#m10af548e6a" y="67.383753"/>
     <use style="fill:#d62728;stroke:#ffffff;stroke-linejoin:miter;stroke-width:0.75;" x="173.022191" xlink:href="#m10af548e6a" y="67.169665"/>
     <use style="fill:#d62728;stroke:#ffffff;stroke-linejoin:miter;stroke-width:0.75;" x="176.589823" xlink:href="#m10af548e6a" y="66.955576"/>
     <use style="fill:#d62728;stroke:#ffffff;stroke-linejoin:miter;stroke-width:0.75;" x="180.157456" xlink:href="#m10af548e6a" y="66.955576"/>
     <use style="fill:#d62728;stroke:#ffffff;stroke-linejoin:miter;stroke-width:0.75;" x="183.725088" xlink:href="#m10af548e6a" y="66.099222"/>
     <use style="fill:#d62728;stroke:#ffffff;stroke-linejoin:miter;stroke-width:0.75;" x="187.29272" xlink:href="#m10af548e6a" y="66.099222"/>
     <use style="fill:#d62728;stroke:#ffffff;stroke-linejoin:miter;stroke-width:0.75;" x="190.860353" xlink:href="#m10af548e6a" y="66.099222"/>
     <use style="fill:#d62728;stroke:#ffffff;stroke-linejoin:miter;stroke-width:0.75;" x="194.427985" xlink:href="#m10af548e6a" y="65.671045"/>
     <use style="fill:#d62728;stroke:#ffffff;stroke-linejoin:miter;stroke-width:0.75;" x="197.995618" xlink:href="#m10af548e6a" y="65.242868"/>
     <use style="fill:#d62728;stroke:#ffffff;stroke-linejoin:miter;stroke-width:0.75;" x="201.56325" xlink:href="#m10af548e6a" y="65.242868"/>
     <use style="fill:#d62728;stroke:#ffffff;stroke-linejoin:miter;stroke-width:0.75;" x="205.130882" xlink:href="#m10af548e6a" y="64.814691"/>
     <use style="fill:#d62728;stroke:#ffffff;stroke-linejoin:miter;stroke-width:0.75;" x="208.698515" xlink:href="#m10af548e6a" y="65.242868"/>
     <use style="fill:#d62728;stroke:#ffffff;stroke-linejoin:miter;stroke-width:0.75;" x="212.266147" xlink:href="#m10af548e6a" y="64.814691"/>
     <use style="fill:#d62728;stroke:#ffffff;stroke-linejoin:miter;stroke-width:0.75;" x="215.833779" xlink:href="#m10af548e6a" y="64.172426"/>
     <use style="fill:#d62728;stroke:#ffffff;stroke-linejoin:miter;stroke-width:0.75;" x="219.401412" xlink:href="#m10af548e6a" y="64.386514"/>
     <use style="fill:#d62728;stroke:#ffffff;stroke-linejoin:miter;stroke-width:0.75;" x="222.969044" xlink:href="#m10af548e6a" y="64.172426"/>
     <use style="fill:#d62728;stroke:#ffffff;stroke-linejoin:miter;stroke-width:0.75;" x="226.536676" xlink:href="#m10af548e6a" y="64.386514"/>
     <use style="fill:#d62728;stroke:#ffffff;stroke-linejoin:miter;stroke-width:0.75;" x="230.104309" xlink:href="#m10af548e6a" y="63.53016"/>
     <use style="fill:#d62728;stroke:#ffffff;stroke-linejoin:miter;stroke-width:0.75;" x="233.671941" xlink:href="#m10af548e6a" y="63.53016"/>
     <use style="fill:#d62728;stroke:#ffffff;stroke-linejoin:miter;stroke-width:0.75;" x="237.239574" xlink:href="#m10af548e6a" y="63.316072"/>
     <use style="fill:#d62728;stroke:#ffffff;stroke-linejoin:miter;stroke-width:0.75;" x="240.807206" xlink:href="#m10af548e6a" y="63.53016"/>
     <use style="fill:#d62728;stroke:#ffffff;stroke-linejoin:miter;stroke-width:0.75;" x="244.374838" xlink:href="#m10af548e6a" y="62.887895"/>
     <use style="fill:#d62728;stroke:#ffffff;stroke-linejoin:miter;stroke-width:0.75;" x="247.942471" xlink:href="#m10af548e6a" y="62.459718"/>
     <use style="fill:#d62728;stroke:#ffffff;stroke-linejoin:miter;stroke-width:0.75;" x="251.510103" xlink:href="#m10af548e6a" y="62.245629"/>
     <use style="fill:#d62728;stroke:#ffffff;stroke-linejoin:miter;stroke-width:0.75;" x="255.077735" xlink:href="#m10af548e6a" y="61.389275"/>
     <use style="fill:#d62728;stroke:#ffffff;stroke-linejoin:miter;stroke-width:0.75;" x="258.645368" xlink:href="#m10af548e6a" y="62.245629"/>
     <use style="fill:#d62728;stroke:#ffffff;stroke-linejoin:miter;stroke-width:0.75;" x="262.213" xlink:href="#m10af548e6a" y="62.245629"/>
     <use style="fill:#d62728;stroke:#ffffff;stroke-linejoin:miter;stroke-width:0.75;" x="265.780632" xlink:href="#m10af548e6a" y="59.676567"/>
     <use style="fill:#d62728;stroke:#ffffff;stroke-linejoin:miter;stroke-width:0.75;" x="269.348265" xlink:href="#m10af548e6a" y="59.676567"/>
     <use style="fill:#d62728;stroke:#ffffff;stroke-linejoin:miter;stroke-width:0.75;" x="272.915897" xlink:href="#m10af548e6a" y="57.535683"/>
     <use style="fill:#d62728;stroke:#ffffff;stroke-linejoin:miter;stroke-width:0.75;" x="276.48353" xlink:href="#m10af548e6a" y="57.321594"/>
     <use style="fill:#d62728;stroke:#ffffff;stroke-linejoin:miter;stroke-width:0.75;" x="280.051162" xlink:href="#m10af548e6a" y="59.676567"/>
     <use style="fill:#d62728;stroke:#ffffff;stroke-linejoin:miter;stroke-width:0.75;" x="283.618794" xlink:href="#m10af548e6a" y="59.24839"/>
     <use style="fill:#d62728;stroke:#ffffff;stroke-linejoin:miter;stroke-width:0.75;" x="287.186427" xlink:href="#m10af548e6a" y="58.820213"/>
     <use style="fill:#d62728;stroke:#ffffff;stroke-linejoin:miter;stroke-width:0.75;" x="290.754059" xlink:href="#m10af548e6a" y="57.107506"/>
     <use style="fill:#d62728;stroke:#ffffff;stroke-linejoin:miter;stroke-width:0.75;" x="294.321691" xlink:href="#m10af548e6a" y="59.24839"/>
     <use style="fill:#d62728;stroke:#ffffff;stroke-linejoin:miter;stroke-width:0.75;" x="297.889324" xlink:href="#m10af548e6a" y="58.820213"/>
     <use style="fill:#d62728;stroke:#ffffff;stroke-linejoin:miter;stroke-width:0.75;" x="301.456956" xlink:href="#m10af548e6a" y="58.820213"/>
     <use style="fill:#d62728;stroke:#ffffff;stroke-linejoin:miter;stroke-width:0.75;" x="305.024589" xlink:href="#m10af548e6a" y="59.034302"/>
     <use style="fill:#d62728;stroke:#ffffff;stroke-linejoin:miter;stroke-width:0.75;" x="308.592221" xlink:href="#m10af548e6a" y="58.820213"/>
     <use style="fill:#d62728;stroke:#ffffff;stroke-linejoin:miter;stroke-width:0.75;" x="312.159853" xlink:href="#m10af548e6a" y="58.392037"/>
     <use style="fill:#d62728;stroke:#ffffff;stroke-linejoin:miter;stroke-width:0.75;" x="315.727486" xlink:href="#m10af548e6a" y="58.606125"/>
     <use style="fill:#d62728;stroke:#ffffff;stroke-linejoin:miter;stroke-width:0.75;" x="319.295118" xlink:href="#m10af548e6a" y="58.606125"/>
     <use style="fill:#d62728;stroke:#ffffff;stroke-linejoin:miter;stroke-width:0.75;" x="322.86275" xlink:href="#m10af548e6a" y="58.392037"/>
     <use style="fill:#d62728;stroke:#ffffff;stroke-linejoin:miter;stroke-width:0.75;" x="326.430383" xlink:href="#m10af548e6a" y="57.96386"/>
     <use style="fill:#d62728;stroke:#ffffff;stroke-linejoin:miter;stroke-width:0.75;" x="329.998015" xlink:href="#m10af548e6a" y="56.46524"/>
     <use style="fill:#d62728;stroke:#ffffff;stroke-linejoin:miter;stroke-width:0.75;" x="333.565647" xlink:href="#m10af548e6a" y="54.324355"/>
     <use style="fill:#d62728;stroke:#ffffff;stroke-linejoin:miter;stroke-width:0.75;" x="337.13328" xlink:href="#m10af548e6a" y="54.538444"/>
     <use style="fill:#d62728;stroke:#ffffff;stroke-linejoin:miter;stroke-width:0.75;" x="340.700912" xlink:href="#m10af548e6a" y="54.538444"/>
     <use style="fill:#d62728;stroke:#ffffff;stroke-linejoin:miter;stroke-width:0.75;" x="344.268545" xlink:href="#m10af548e6a" y="54.110267"/>
     <use style="fill:#d62728;stroke:#ffffff;stroke-linejoin:miter;stroke-width:0.75;" x="347.836177" xlink:href="#m10af548e6a" y="54.110267"/>
     <use style="fill:#d62728;stroke:#ffffff;stroke-linejoin:miter;stroke-width:0.75;" x="351.403809" xlink:href="#m10af548e6a" y="53.468001"/>
     <use style="fill:#d62728;stroke:#ffffff;stroke-linejoin:miter;stroke-width:0.75;" x="354.971442" xlink:href="#m10af548e6a" y="53.468001"/>
     <use style="fill:#d62728;stroke:#ffffff;stroke-linejoin:miter;stroke-width:0.75;" x="358.539074" xlink:href="#m10af548e6a" y="54.110267"/>
     <use style="fill:#d62728;stroke:#ffffff;stroke-linejoin:miter;stroke-width:0.75;" x="362.106706" xlink:href="#m10af548e6a" y="52.825736"/>
     <use style="fill:#d62728;stroke:#ffffff;stroke-linejoin:miter;stroke-width:0.75;" x="365.674339" xlink:href="#m10af548e6a" y="52.825736"/>
     <use style="fill:#d62728;stroke:#ffffff;stroke-linejoin:miter;stroke-width:0.75;" x="369.241971" xlink:href="#m10af548e6a" y="54.110267"/>
     <use style="fill:#d62728;stroke:#ffffff;stroke-linejoin:miter;stroke-width:0.75;" x="372.809604" xlink:href="#m10af548e6a" y="53.039824"/>
     <use style="fill:#d62728;stroke:#ffffff;stroke-linejoin:miter;stroke-width:0.75;" x="376.377236" xlink:href="#m10af548e6a" y="53.253913"/>
     <use style="fill:#d62728;stroke:#ffffff;stroke-linejoin:miter;stroke-width:0.75;" x="379.944868" xlink:href="#m10af548e6a" y="52.825736"/>
     <use style="fill:#d62728;stroke:#ffffff;stroke-linejoin:miter;stroke-width:0.75;" x="383.512501" xlink:href="#m10af548e6a" y="53.253913"/>
     <use style="fill:#d62728;stroke:#ffffff;stroke-linejoin:miter;stroke-width:0.75;" x="387.080133" xlink:href="#m10af548e6a" y="53.253913"/>
     <use style="fill:#d62728;stroke:#ffffff;stroke-linejoin:miter;stroke-width:0.75;" x="390.647765" xlink:href="#m10af548e6a" y="53.253913"/>
     <use style="fill:#d62728;stroke:#ffffff;stroke-linejoin:miter;stroke-width:0.75;" x="394.215398" xlink:href="#m10af548e6a" y="53.253913"/>
    </g>
   </g>
   <g id="line2d_15">
    <path clip-path="url(#p3562347819)" d="M 69.560852 202.259506 
L 73.128485 181.278833 
L 76.696117 175.284355 
L 80.263749 159.869983 
L 83.831382 159.013629 
L 87.399014 153.875506 
L 90.966646 150.236001 
L 94.534279 148.309205 
L 98.101911 151.306444 
L 101.669544 150.878267 
L 105.237176 143.599258 
L 108.804808 138.889311 
L 112.372441 132.894833 
L 115.940073 130.753948 
L 119.507705 129.897594 
L 123.075338 129.04124 
L 126.64297 127.756709 
L 130.210603 126.900355 
L 133.778235 126.900355 
L 137.345867 126.900355 
L 140.9135 128.184886 
L 144.481132 126.900355 
L 148.048764 126.900355 
L 151.616397 126.900355 
L 155.184029 127.756709 
L 158.751661 126.900355 
L 162.319294 122.618585 
L 165.886926 126.044001 
L 169.454559 125.187647 
L 173.022191 125.187647 
L 176.589823 124.75947 
L 180.157456 124.75947 
L 183.725088 124.75947 
L 187.29272 124.75947 
L 190.860353 124.75947 
L 194.427985 124.75947 
L 197.995618 124.75947 
L 201.56325 124.75947 
L 205.130882 124.75947 
L 208.698515 121.334054 
L 212.266147 124.75947 
L 215.833779 123.474939 
L 219.401412 123.474939 
L 222.969044 123.046762 
L 226.536676 120.263612 
L 230.104309 120.049523 
L 233.671941 120.049523 
L 237.239574 120.049523 
L 240.807206 122.618585 
L 244.374838 122.618585 
L 247.942471 122.618585 
L 251.510103 122.190408 
L 255.077735 116.19593 
L 258.645368 115.981842 
L 262.213 115.339576 
L 265.780632 115.339576 
L 269.348265 114.911399 
L 272.915897 106.776037 
L 276.48353 114.911399 
L 280.051162 114.911399 
L 283.618794 115.339576 
L 287.186427 114.697311 
L 290.754059 114.483222 
L 294.321691 114.483222 
L 297.889324 114.269134 
L 301.456956 114.269134 
L 305.024589 113.626868 
L 308.592221 113.626868 
L 312.159853 113.626868 
L 315.727486 113.626868 
L 319.295118 113.626868 
L 322.86275 113.626868 
L 326.430383 113.626868 
L 329.998015 113.41278 
L 333.565647 113.198691 
L 337.13328 113.198691 
L 340.700912 113.198691 
L 344.268545 113.198691 
L 347.836177 112.556426 
L 351.403809 111.700072 
L 354.971442 110.201452 
L 358.539074 109.773275 
L 362.106706 109.773275 
L 365.674339 108.488744 
L 369.241971 110.629629 
L 372.809604 110.415541 
L 376.377236 110.201452 
L 379.944868 110.201452 
L 383.512501 108.488744 
L 387.080133 108.488744 
L 390.647765 102.708355 
L 394.215398 102.708355 
" style="fill:none;stroke:#98df8a;stroke-linecap:square;stroke-width:1.5;"/>
    <defs>
     <path d="M -0 3 
L 3 -3 
L -3 -3 
z
" id="m2a2d03c634" style="stroke:#ffffff;stroke-linejoin:miter;stroke-width:0.75;"/>
    </defs>
    <g clip-path="url(#p3562347819)">
     <use style="fill:#98df8a;stroke:#ffffff;stroke-linejoin:miter;stroke-width:0.75;" x="69.560852" xlink:href="#m2a2d03c634" y="202.259506"/>
     <use style="fill:#98df8a;stroke:#ffffff;stroke-linejoin:miter;stroke-width:0.75;" x="73.128485" xlink:href="#m2a2d03c634" y="181.278833"/>
     <use style="fill:#98df8a;stroke:#ffffff;stroke-linejoin:miter;stroke-width:0.75;" x="76.696117" xlink:href="#m2a2d03c634" y="175.284355"/>
     <use style="fill:#98df8a;stroke:#ffffff;stroke-linejoin:miter;stroke-width:0.75;" x="80.263749" xlink:href="#m2a2d03c634" y="159.869983"/>
     <use style="fill:#98df8a;stroke:#ffffff;stroke-linejoin:miter;stroke-width:0.75;" x="83.831382" xlink:href="#m2a2d03c634" y="159.013629"/>
     <use style="fill:#98df8a;stroke:#ffffff;stroke-linejoin:miter;stroke-width:0.75;" x="87.399014" xlink:href="#m2a2d03c634" y="153.875506"/>
     <use style="fill:#98df8a;stroke:#ffffff;stroke-linejoin:miter;stroke-width:0.75;" x="90.966646" xlink:href="#m2a2d03c634" y="150.236001"/>
     <use style="fill:#98df8a;stroke:#ffffff;stroke-linejoin:miter;stroke-width:0.75;" x="94.534279" xlink:href="#m2a2d03c634" y="148.309205"/>
     <use style="fill:#98df8a;stroke:#ffffff;stroke-linejoin:miter;stroke-width:0.75;" x="98.101911" xlink:href="#m2a2d03c634" y="151.306444"/>
     <use style="fill:#98df8a;stroke:#ffffff;stroke-linejoin:miter;stroke-width:0.75;" x="101.669544" xlink:href="#m2a2d03c634" y="150.878267"/>
     <use style="fill:#98df8a;stroke:#ffffff;stroke-linejoin:miter;stroke-width:0.75;" x="105.237176" xlink:href="#m2a2d03c634" y="143.599258"/>
     <use style="fill:#98df8a;stroke:#ffffff;stroke-linejoin:miter;stroke-width:0.75;" x="108.804808" xlink:href="#m2a2d03c634" y="138.889311"/>
     <use style="fill:#98df8a;stroke:#ffffff;stroke-linejoin:miter;stroke-width:0.75;" x="112.372441" xlink:href="#m2a2d03c634" y="132.894833"/>
     <use style="fill:#98df8a;stroke:#ffffff;stroke-linejoin:miter;stroke-width:0.75;" x="115.940073" xlink:href="#m2a2d03c634" y="130.753948"/>
     <use style="fill:#98df8a;stroke:#ffffff;stroke-linejoin:miter;stroke-width:0.75;" x="119.507705" xlink:href="#m2a2d03c634" y="129.897594"/>
     <use style="fill:#98df8a;stroke:#ffffff;stroke-linejoin:miter;stroke-width:0.75;" x="123.075338" xlink:href="#m2a2d03c634" y="129.04124"/>
     <use style="fill:#98df8a;stroke:#ffffff;stroke-linejoin:miter;stroke-width:0.75;" x="126.64297" xlink:href="#m2a2d03c634" y="127.756709"/>
     <use style="fill:#98df8a;stroke:#ffffff;stroke-linejoin:miter;stroke-width:0.75;" x="130.210603" xlink:href="#m2a2d03c634" y="126.900355"/>
     <use style="fill:#98df8a;stroke:#ffffff;stroke-linejoin:miter;stroke-width:0.75;" x="133.778235" xlink:href="#m2a2d03c634" y="126.900355"/>
     <use style="fill:#98df8a;stroke:#ffffff;stroke-linejoin:miter;stroke-width:0.75;" x="137.345867" xlink:href="#m2a2d03c634" y="126.900355"/>
     <use style="fill:#98df8a;stroke:#ffffff;stroke-linejoin:miter;stroke-width:0.75;" x="140.9135" xlink:href="#m2a2d03c634" y="128.184886"/>
     <use style="fill:#98df8a;stroke:#ffffff;stroke-linejoin:miter;stroke-width:0.75;" x="144.481132" xlink:href="#m2a2d03c634" y="126.900355"/>
     <use style="fill:#98df8a;stroke:#ffffff;stroke-linejoin:miter;stroke-width:0.75;" x="148.048764" xlink:href="#m2a2d03c634" y="126.900355"/>
     <use style="fill:#98df8a;stroke:#ffffff;stroke-linejoin:miter;stroke-width:0.75;" x="151.616397" xlink:href="#m2a2d03c634" y="126.900355"/>
     <use style="fill:#98df8a;stroke:#ffffff;stroke-linejoin:miter;stroke-width:0.75;" x="155.184029" xlink:href="#m2a2d03c634" y="127.756709"/>
     <use style="fill:#98df8a;stroke:#ffffff;stroke-linejoin:miter;stroke-width:0.75;" x="158.751661" xlink:href="#m2a2d03c634" y="126.900355"/>
     <use style="fill:#98df8a;stroke:#ffffff;stroke-linejoin:miter;stroke-width:0.75;" x="162.319294" xlink:href="#m2a2d03c634" y="122.618585"/>
     <use style="fill:#98df8a;stroke:#ffffff;stroke-linejoin:miter;stroke-width:0.75;" x="165.886926" xlink:href="#m2a2d03c634" y="126.044001"/>
     <use style="fill:#98df8a;stroke:#ffffff;stroke-linejoin:miter;stroke-width:0.75;" x="169.454559" xlink:href="#m2a2d03c634" y="125.187647"/>
     <use style="fill:#98df8a;stroke:#ffffff;stroke-linejoin:miter;stroke-width:0.75;" x="173.022191" xlink:href="#m2a2d03c634" y="125.187647"/>
     <use style="fill:#98df8a;stroke:#ffffff;stroke-linejoin:miter;stroke-width:0.75;" x="176.589823" xlink:href="#m2a2d03c634" y="124.75947"/>
     <use style="fill:#98df8a;stroke:#ffffff;stroke-linejoin:miter;stroke-width:0.75;" x="180.157456" xlink:href="#m2a2d03c634" y="124.75947"/>
     <use style="fill:#98df8a;stroke:#ffffff;stroke-linejoin:miter;stroke-width:0.75;" x="183.725088" xlink:href="#m2a2d03c634" y="124.75947"/>
     <use style="fill:#98df8a;stroke:#ffffff;stroke-linejoin:miter;stroke-width:0.75;" x="187.29272" xlink:href="#m2a2d03c634" y="124.75947"/>
     <use style="fill:#98df8a;stroke:#ffffff;stroke-linejoin:miter;stroke-width:0.75;" x="190.860353" xlink:href="#m2a2d03c634" y="124.75947"/>
     <use style="fill:#98df8a;stroke:#ffffff;stroke-linejoin:miter;stroke-width:0.75;" x="194.427985" xlink:href="#m2a2d03c634" y="124.75947"/>
     <use style="fill:#98df8a;stroke:#ffffff;stroke-linejoin:miter;stroke-width:0.75;" x="197.995618" xlink:href="#m2a2d03c634" y="124.75947"/>
     <use style="fill:#98df8a;stroke:#ffffff;stroke-linejoin:miter;stroke-width:0.75;" x="201.56325" xlink:href="#m2a2d03c634" y="124.75947"/>
     <use style="fill:#98df8a;stroke:#ffffff;stroke-linejoin:miter;stroke-width:0.75;" x="205.130882" xlink:href="#m2a2d03c634" y="124.75947"/>
     <use style="fill:#98df8a;stroke:#ffffff;stroke-linejoin:miter;stroke-width:0.75;" x="208.698515" xlink:href="#m2a2d03c634" y="121.334054"/>
     <use style="fill:#98df8a;stroke:#ffffff;stroke-linejoin:miter;stroke-width:0.75;" x="212.266147" xlink:href="#m2a2d03c634" y="124.75947"/>
     <use style="fill:#98df8a;stroke:#ffffff;stroke-linejoin:miter;stroke-width:0.75;" x="215.833779" xlink:href="#m2a2d03c634" y="123.474939"/>
     <use style="fill:#98df8a;stroke:#ffffff;stroke-linejoin:miter;stroke-width:0.75;" x="219.401412" xlink:href="#m2a2d03c634" y="123.474939"/>
     <use style="fill:#98df8a;stroke:#ffffff;stroke-linejoin:miter;stroke-width:0.75;" x="222.969044" xlink:href="#m2a2d03c634" y="123.046762"/>
     <use style="fill:#98df8a;stroke:#ffffff;stroke-linejoin:miter;stroke-width:0.75;" x="226.536676" xlink:href="#m2a2d03c634" y="120.263612"/>
     <use style="fill:#98df8a;stroke:#ffffff;stroke-linejoin:miter;stroke-width:0.75;" x="230.104309" xlink:href="#m2a2d03c634" y="120.049523"/>
     <use style="fill:#98df8a;stroke:#ffffff;stroke-linejoin:miter;stroke-width:0.75;" x="233.671941" xlink:href="#m2a2d03c634" y="120.049523"/>
     <use style="fill:#98df8a;stroke:#ffffff;stroke-linejoin:miter;stroke-width:0.75;" x="237.239574" xlink:href="#m2a2d03c634" y="120.049523"/>
     <use style="fill:#98df8a;stroke:#ffffff;stroke-linejoin:miter;stroke-width:0.75;" x="240.807206" xlink:href="#m2a2d03c634" y="122.618585"/>
     <use style="fill:#98df8a;stroke:#ffffff;stroke-linejoin:miter;stroke-width:0.75;" x="244.374838" xlink:href="#m2a2d03c634" y="122.618585"/>
     <use style="fill:#98df8a;stroke:#ffffff;stroke-linejoin:miter;stroke-width:0.75;" x="247.942471" xlink:href="#m2a2d03c634" y="122.618585"/>
     <use style="fill:#98df8a;stroke:#ffffff;stroke-linejoin:miter;stroke-width:0.75;" x="251.510103" xlink:href="#m2a2d03c634" y="122.190408"/>
     <use style="fill:#98df8a;stroke:#ffffff;stroke-linejoin:miter;stroke-width:0.75;" x="255.077735" xlink:href="#m2a2d03c634" y="116.19593"/>
     <use style="fill:#98df8a;stroke:#ffffff;stroke-linejoin:miter;stroke-width:0.75;" x="258.645368" xlink:href="#m2a2d03c634" y="115.981842"/>
     <use style="fill:#98df8a;stroke:#ffffff;stroke-linejoin:miter;stroke-width:0.75;" x="262.213" xlink:href="#m2a2d03c634" y="115.339576"/>
     <use style="fill:#98df8a;stroke:#ffffff;stroke-linejoin:miter;stroke-width:0.75;" x="265.780632" xlink:href="#m2a2d03c634" y="115.339576"/>
     <use style="fill:#98df8a;stroke:#ffffff;stroke-linejoin:miter;stroke-width:0.75;" x="269.348265" xlink:href="#m2a2d03c634" y="114.911399"/>
     <use style="fill:#98df8a;stroke:#ffffff;stroke-linejoin:miter;stroke-width:0.75;" x="272.915897" xlink:href="#m2a2d03c634" y="106.776037"/>
     <use style="fill:#98df8a;stroke:#ffffff;stroke-linejoin:miter;stroke-width:0.75;" x="276.48353" xlink:href="#m2a2d03c634" y="114.911399"/>
     <use style="fill:#98df8a;stroke:#ffffff;stroke-linejoin:miter;stroke-width:0.75;" x="280.051162" xlink:href="#m2a2d03c634" y="114.911399"/>
     <use style="fill:#98df8a;stroke:#ffffff;stroke-linejoin:miter;stroke-width:0.75;" x="283.618794" xlink:href="#m2a2d03c634" y="115.339576"/>
     <use style="fill:#98df8a;stroke:#ffffff;stroke-linejoin:miter;stroke-width:0.75;" x="287.186427" xlink:href="#m2a2d03c634" y="114.697311"/>
     <use style="fill:#98df8a;stroke:#ffffff;stroke-linejoin:miter;stroke-width:0.75;" x="290.754059" xlink:href="#m2a2d03c634" y="114.483222"/>
     <use style="fill:#98df8a;stroke:#ffffff;stroke-linejoin:miter;stroke-width:0.75;" x="294.321691" xlink:href="#m2a2d03c634" y="114.483222"/>
     <use style="fill:#98df8a;stroke:#ffffff;stroke-linejoin:miter;stroke-width:0.75;" x="297.889324" xlink:href="#m2a2d03c634" y="114.269134"/>
     <use style="fill:#98df8a;stroke:#ffffff;stroke-linejoin:miter;stroke-width:0.75;" x="301.456956" xlink:href="#m2a2d03c634" y="114.269134"/>
     <use style="fill:#98df8a;stroke:#ffffff;stroke-linejoin:miter;stroke-width:0.75;" x="305.024589" xlink:href="#m2a2d03c634" y="113.626868"/>
     <use style="fill:#98df8a;stroke:#ffffff;stroke-linejoin:miter;stroke-width:0.75;" x="308.592221" xlink:href="#m2a2d03c634" y="113.626868"/>
     <use style="fill:#98df8a;stroke:#ffffff;stroke-linejoin:miter;stroke-width:0.75;" x="312.159853" xlink:href="#m2a2d03c634" y="113.626868"/>
     <use style="fill:#98df8a;stroke:#ffffff;stroke-linejoin:miter;stroke-width:0.75;" x="315.727486" xlink:href="#m2a2d03c634" y="113.626868"/>
     <use style="fill:#98df8a;stroke:#ffffff;stroke-linejoin:miter;stroke-width:0.75;" x="319.295118" xlink:href="#m2a2d03c634" y="113.626868"/>
     <use style="fill:#98df8a;stroke:#ffffff;stroke-linejoin:miter;stroke-width:0.75;" x="322.86275" xlink:href="#m2a2d03c634" y="113.626868"/>
     <use style="fill:#98df8a;stroke:#ffffff;stroke-linejoin:miter;stroke-width:0.75;" x="326.430383" xlink:href="#m2a2d03c634" y="113.626868"/>
     <use style="fill:#98df8a;stroke:#ffffff;stroke-linejoin:miter;stroke-width:0.75;" x="329.998015" xlink:href="#m2a2d03c634" y="113.41278"/>
     <use style="fill:#98df8a;stroke:#ffffff;stroke-linejoin:miter;stroke-width:0.75;" x="333.565647" xlink:href="#m2a2d03c634" y="113.198691"/>
     <use style="fill:#98df8a;stroke:#ffffff;stroke-linejoin:miter;stroke-width:0.75;" x="337.13328" xlink:href="#m2a2d03c634" y="113.198691"/>
     <use style="fill:#98df8a;stroke:#ffffff;stroke-linejoin:miter;stroke-width:0.75;" x="340.700912" xlink:href="#m2a2d03c634" y="113.198691"/>
     <use style="fill:#98df8a;stroke:#ffffff;stroke-linejoin:miter;stroke-width:0.75;" x="344.268545" xlink:href="#m2a2d03c634" y="113.198691"/>
     <use style="fill:#98df8a;stroke:#ffffff;stroke-linejoin:miter;stroke-width:0.75;" x="347.836177" xlink:href="#m2a2d03c634" y="112.556426"/>
     <use style="fill:#98df8a;stroke:#ffffff;stroke-linejoin:miter;stroke-width:0.75;" x="351.403809" xlink:href="#m2a2d03c634" y="111.700072"/>
     <use style="fill:#98df8a;stroke:#ffffff;stroke-linejoin:miter;stroke-width:0.75;" x="354.971442" xlink:href="#m2a2d03c634" y="110.201452"/>
     <use style="fill:#98df8a;stroke:#ffffff;stroke-linejoin:miter;stroke-width:0.75;" x="358.539074" xlink:href="#m2a2d03c634" y="109.773275"/>
     <use style="fill:#98df8a;stroke:#ffffff;stroke-linejoin:miter;stroke-width:0.75;" x="362.106706" xlink:href="#m2a2d03c634" y="109.773275"/>
     <use style="fill:#98df8a;stroke:#ffffff;stroke-linejoin:miter;stroke-width:0.75;" x="365.674339" xlink:href="#m2a2d03c634" y="108.488744"/>
     <use style="fill:#98df8a;stroke:#ffffff;stroke-linejoin:miter;stroke-width:0.75;" x="369.241971" xlink:href="#m2a2d03c634" y="110.629629"/>
     <use style="fill:#98df8a;stroke:#ffffff;stroke-linejoin:miter;stroke-width:0.75;" x="372.809604" xlink:href="#m2a2d03c634" y="110.415541"/>
     <use style="fill:#98df8a;stroke:#ffffff;stroke-linejoin:miter;stroke-width:0.75;" x="376.377236" xlink:href="#m2a2d03c634" y="110.201452"/>
     <use style="fill:#98df8a;stroke:#ffffff;stroke-linejoin:miter;stroke-width:0.75;" x="379.944868" xlink:href="#m2a2d03c634" y="110.201452"/>
     <use style="fill:#98df8a;stroke:#ffffff;stroke-linejoin:miter;stroke-width:0.75;" x="383.512501" xlink:href="#m2a2d03c634" y="108.488744"/>
     <use style="fill:#98df8a;stroke:#ffffff;stroke-linejoin:miter;stroke-width:0.75;" x="387.080133" xlink:href="#m2a2d03c634" y="108.488744"/>
     <use style="fill:#98df8a;stroke:#ffffff;stroke-linejoin:miter;stroke-width:0.75;" x="390.647765" xlink:href="#m2a2d03c634" y="102.708355"/>
     <use style="fill:#98df8a;stroke:#ffffff;stroke-linejoin:miter;stroke-width:0.75;" x="394.215398" xlink:href="#m2a2d03c634" y="102.708355"/>
    </g>
   </g>
   <g id="line2d_16"/>
   <g id="line2d_17"/>
   <g id="line2d_18"/>
   <g id="patch_3">
    <path d="M 53.328125 272.052355 
L 53.328125 57.96386 
" style="fill:none;stroke:#000000;stroke-linecap:square;stroke-linejoin:miter;stroke-width:0.8;"/>
   </g>
   <g id="patch_4">
    <path d="M 69.560852 288.430125 
L 343.079334 288.430125 
" style="fill:none;stroke:#000000;stroke-linecap:square;stroke-linejoin:miter;stroke-width:0.8;"/>
   </g>
   <g id="text_15">
    <!-- grok_grk_decompress_fuzzer (23h, 15 trials/fuzzer) -->
    <g transform="translate(78.351875 16.318125)scale(0.12 -0.12)">
     <defs>
      <path d="M 581 4863 
L 1159 4863 
L 1159 1991 
L 2875 3500 
L 3609 3500 
L 1753 1863 
L 3688 0 
L 2938 0 
L 1159 1709 
L 1159 0 
L 581 0 
L 581 4863 
z
" id="DejaVuSans-6b" transform="scale(0.015625)"/>
      <path d="M 3263 -1063 
L 3263 -1509 
L -63 -1509 
L -63 -1063 
L 3263 -1063 
z
" id="DejaVuSans-5f" transform="scale(0.015625)"/>
      <path d="M 1159 525 
L 1159 -1331 
L 581 -1331 
L 581 3500 
L 1159 3500 
L 1159 2969 
Q 1341 3281 1617 3432 
Q 1894 3584 2278 3584 
Q 2916 3584 3314 3078 
Q 3713 2572 3713 1747 
Q 3713 922 3314 415 
Q 2916 -91 2278 -91 
Q 1894 -91 1617 61 
Q 1341 213 1159 525 
z
M 3116 1747 
Q 3116 2381 2855 2742 
Q 2594 3103 2138 3103 
Q 1681 3103 1420 2742 
Q 1159 2381 1159 1747 
Q 1159 1113 1420 752 
Q 1681 391 2138 391 
Q 2594 391 2855 752 
Q 3116 1113 3116 1747 
z
" id="DejaVuSans-70" transform="scale(0.015625)"/>
      <path d="M 2834 3397 
L 2834 2853 
Q 2591 2978 2328 3040 
Q 2066 3103 1784 3103 
Q 1356 3103 1142 2972 
Q 928 2841 928 2578 
Q 928 2378 1081 2264 
Q 1234 2150 1697 2047 
L 1894 2003 
Q 2506 1872 2764 1633 
Q 3022 1394 3022 966 
Q 3022 478 2636 193 
Q 2250 -91 1575 -91 
Q 1294 -91 989 -36 
Q 684 19 347 128 
L 347 722 
Q 666 556 975 473 
Q 1284 391 1588 391 
Q 1994 391 2212 530 
Q 2431 669 2431 922 
Q 2431 1156 2273 1281 
Q 2116 1406 1581 1522 
L 1381 1569 
Q 847 1681 609 1914 
Q 372 2147 372 2553 
Q 372 3047 722 3315 
Q 1072 3584 1716 3584 
Q 2034 3584 2315 3537 
Q 2597 3491 2834 3397 
z
" id="DejaVuSans-73" transform="scale(0.015625)"/>
      <path d="M 2375 4863 
L 2375 4384 
L 1825 4384 
Q 1516 4384 1395 4259 
Q 1275 4134 1275 3809 
L 1275 3500 
L 2222 3500 
L 2222 3053 
L 1275 3053 
L 1275 0 
L 697 0 
L 697 3053 
L 147 3053 
L 147 3500 
L 697 3500 
L 697 3744 
Q 697 4328 969 4595 
Q 1241 4863 1831 4863 
L 2375 4863 
z
" id="DejaVuSans-66" transform="scale(0.015625)"/>
      <path d="M 353 3500 
L 3084 3500 
L 3084 2975 
L 922 459 
L 3084 459 
L 3084 0 
L 275 0 
L 275 525 
L 2438 3041 
L 353 3041 
L 353 3500 
z
" id="DejaVuSans-7a" transform="scale(0.015625)"/>
      <path d="M 750 794 
L 1409 794 
L 1409 256 
L 897 -744 
L 494 -744 
L 750 256 
L 750 794 
z
" id="DejaVuSans-2c" transform="scale(0.015625)"/>
      <path d="M 603 4863 
L 1178 4863 
L 1178 0 
L 603 0 
L 603 4863 
z
" id="DejaVuSans-6c" transform="scale(0.015625)"/>
      <path d="M 1625 4666 
L 2156 4666 
L 531 -594 
L 0 -594 
L 1625 4666 
z
" id="DejaVuSans-2f" transform="scale(0.015625)"/>
     </defs>
     <use xlink:href="#DejaVuSans-67"/>
     <use x="63.476562" xlink:href="#DejaVuSans-72"/>
     <use x="102.339844" xlink:href="#DejaVuSans-6f"/>
     <use x="163.521484" xlink:href="#DejaVuSans-6b"/>
     <use x="221.431641" xlink:href="#DejaVuSans-5f"/>
     <use x="271.431641" xlink:href="#DejaVuSans-67"/>
     <use x="334.908203" xlink:href="#DejaVuSans-72"/>
     <use x="376.021484" xlink:href="#DejaVuSans-6b"/>
     <use x="433.931641" xlink:href="#DejaVuSans-5f"/>
     <use x="483.931641" xlink:href="#DejaVuSans-64"/>
     <use x="547.408203" xlink:href="#DejaVuSans-65"/>
     <use x="608.931641" xlink:href="#DejaVuSans-63"/>
     <use x="663.912109" xlink:href="#DejaVuSans-6f"/>
     <use x="725.09375" xlink:href="#DejaVuSans-6d"/>
     <use x="822.505859" xlink:href="#DejaVuSans-70"/>
     <use x="885.982422" xlink:href="#DejaVuSans-72"/>
     <use x="924.845703" xlink:href="#DejaVuSans-65"/>
     <use x="986.369141" xlink:href="#DejaVuSans-73"/>
     <use x="1038.46875" xlink:href="#DejaVuSans-73"/>
     <use x="1090.568359" xlink:href="#DejaVuSans-5f"/>
     <use x="1140.568359" xlink:href="#DejaVuSans-66"/>
     <use x="1175.773438" xlink:href="#DejaVuSans-75"/>
     <use x="1239.152344" xlink:href="#DejaVuSans-7a"/>
     <use x="1291.642578" xlink:href="#DejaVuSans-7a"/>
     <use x="1344.132812" xlink:href="#DejaVuSans-65"/>
     <use x="1405.65625" xlink:href="#DejaVuSans-72"/>
     <use x="1446.769531" xlink:href="#DejaVuSans-20"/>
     <use x="1478.556641" xlink:href="#DejaVuSans-28"/>
     <use x="1517.570312" xlink:href="#DejaVuSans-32"/>
     <use x="1581.193359" xlink:href="#DejaVuSans-33"/>
     <use x="1644.816406" xlink:href="#DejaVuSans-68"/>
     <use x="1708.195312" xlink:href="#DejaVuSans-2c"/>
     <use x="1739.982422" xlink:href="#DejaVuSans-20"/>
     <use x="1771.769531" xlink:href="#DejaVuSans-31"/>
     <use x="1835.392578" xlink:href="#DejaVuSans-35"/>
     <use x="1899.015625" xlink:href="#DejaVuSans-20"/>
     <use x="1930.802734" xlink:href="#DejaVuSans-74"/>
     <use x="1970.011719" xlink:href="#DejaVuSans-72"/>
     <use x="2011.125" xlink:href="#DejaVuSans-69"/>
     <use x="2038.908203" xlink:href="#DejaVuSans-61"/>
     <use x="2100.1875" xlink:href="#DejaVuSans-6c"/>
     <use x="2127.970703" xlink:href="#DejaVuSans-73"/>
     <use x="2180.070312" xlink:href="#DejaVuSans-2f"/>
     <use x="2213.761719" xlink:href="#DejaVuSans-66"/>
     <use x="2248.966797" xlink:href="#DejaVuSans-75"/>
     <use x="2312.345703" xlink:href="#DejaVuSans-7a"/>
     <use x="2364.835938" xlink:href="#DejaVuSans-7a"/>
     <use x="2417.326172" xlink:href="#DejaVuSans-65"/>
     <use x="2478.849609" xlink:href="#DejaVuSans-72"/>
     <use x="2519.962891" xlink:href="#DejaVuSans-29"/>
    </g>
   </g>
   <g id="legend_1">
    <g id="line2d_19">
     <path d="M 414.448125 30.416562 
L 434.448125 30.416562 
" style="fill:none;stroke:#1f77b4;stroke-linecap:square;stroke-width:1.5;"/>
    </g>
    <g id="line2d_20">
     <defs>
      <path d="M 0 3 
C 0.795609 3 1.55874 2.683901 2.12132 2.12132 
C 2.683901 1.55874 3 0.795609 3 0 
C 3 -0.795609 2.683901 -1.55874 2.12132 -2.12132 
C 1.55874 -2.683901 0.795609 -3 0 -3 
C -0.795609 -3 -1.55874 -2.683901 -2.12132 -2.12132 
C -2.683901 -1.55874 -3 -0.795609 -3 0 
C -3 0.795609 -2.683901 1.55874 -2.12132 2.12132 
C -1.55874 2.683901 -0.795609 3 0 3 
z
" id="m2c4667ad30" style="stroke:#1f77b4;"/>
     </defs>
     <g>
      <use style="fill:#1f77b4;stroke:#1f77b4;" x="424.448125" xlink:href="#m2c4667ad30" y="30.416562"/>
     </g>
    </g>
    <g id="text_16">
     <!-- afl -->
     <g transform="translate(442.448125 33.916562)scale(0.1 -0.1)">
      <use xlink:href="#DejaVuSans-61"/>
      <use x="61.279297" xlink:href="#DejaVuSans-66"/>
      <use x="96.484375" xlink:href="#DejaVuSans-6c"/>
     </g>
    </g>
    <g id="line2d_21">
     <path d="M 414.448125 45.094688 
L 434.448125 45.094688 
" style="fill:none;stroke:#d62728;stroke-linecap:square;stroke-width:1.5;"/>
    </g>
    <g id="line2d_22">
     <defs>
      <path d="M 0 -3 
L -3 3 
L 3 3 
z
" id="m0bb727e32c" style="stroke:#d62728;stroke-linejoin:miter;"/>
     </defs>
     <g>
      <use style="fill:#d62728;stroke:#d62728;stroke-linejoin:miter;" x="424.448125" xlink:href="#m0bb727e32c" y="45.094688"/>
     </g>
    </g>
    <g id="text_17">
     <!-- afl_scheduling_random -->
     <g transform="translate(442.448125 48.594688)scale(0.1 -0.1)">
      <use xlink:href="#DejaVuSans-61"/>
      <use x="61.279297" xlink:href="#DejaVuSans-66"/>
      <use x="96.484375" xlink:href="#DejaVuSans-6c"/>
      <use x="124.267578" xlink:href="#DejaVuSans-5f"/>
      <use x="174.267578" xlink:href="#DejaVuSans-73"/>
      <use x="226.367188" xlink:href="#DejaVuSans-63"/>
      <use x="281.347656" xlink:href="#DejaVuSans-68"/>
      <use x="344.726562" xlink:href="#DejaVuSans-65"/>
      <use x="406.25" xlink:href="#DejaVuSans-64"/>
      <use x="469.726562" xlink:href="#DejaVuSans-75"/>
      <use x="533.105469" xlink:href="#DejaVuSans-6c"/>
      <use x="560.888672" xlink:href="#DejaVuSans-69"/>
      <use x="588.671875" xlink:href="#DejaVuSans-6e"/>
      <use x="652.050781" xlink:href="#DejaVuSans-67"/>
      <use x="715.527344" xlink:href="#DejaVuSans-5f"/>
      <use x="765.527344" xlink:href="#DejaVuSans-72"/>
      <use x="806.640625" xlink:href="#DejaVuSans-61"/>
      <use x="867.919922" xlink:href="#DejaVuSans-6e"/>
      <use x="931.298828" xlink:href="#DejaVuSans-64"/>
      <use x="994.775391" xlink:href="#DejaVuSans-6f"/>
      <use x="1055.957031" xlink:href="#DejaVuSans-6d"/>
     </g>
    </g>
    <g id="line2d_23">
     <path d="M 414.448125 60.050937 
L 434.448125 60.050937 
" style="fill:none;stroke:#98df8a;stroke-linecap:square;stroke-width:1.5;"/>
    </g>
    <g id="line2d_24">
     <defs>
      <path d="M -0 3 
L 3 -3 
L -3 -3 
z
" id="m24d70c7a7f" style="stroke:#98df8a;stroke-linejoin:miter;"/>
     </defs>
     <g>
      <use style="fill:#98df8a;stroke:#98df8a;stroke-linejoin:miter;" x="424.448125" xlink:href="#m24d70c7a7f" y="60.050937"/>
     </g>
    </g>
    <g id="text_18">
     <!-- afl_scheduling_lifo -->
     <g transform="translate(442.448125 63.550937)scale(0.1 -0.1)">
      <use xlink:href="#DejaVuSans-61"/>
      <use x="61.279297" xlink:href="#DejaVuSans-66"/>
      <use x="96.484375" xlink:href="#DejaVuSans-6c"/>
      <use x="124.267578" xlink:href="#DejaVuSans-5f"/>
      <use x="174.267578" xlink:href="#DejaVuSans-73"/>
      <use x="226.367188" xlink:href="#DejaVuSans-63"/>
      <use x="281.347656" xlink:href="#DejaVuSans-68"/>
      <use x="344.726562" xlink:href="#DejaVuSans-65"/>
      <use x="406.25" xlink:href="#DejaVuSans-64"/>
      <use x="469.726562" xlink:href="#DejaVuSans-75"/>
      <use x="533.105469" xlink:href="#DejaVuSans-6c"/>
      <use x="560.888672" xlink:href="#DejaVuSans-69"/>
      <use x="588.671875" xlink:href="#DejaVuSans-6e"/>
      <use x="652.050781" xlink:href="#DejaVuSans-67"/>
      <use x="715.527344" xlink:href="#DejaVuSans-5f"/>
      <use x="765.527344" xlink:href="#DejaVuSans-6c"/>
      <use x="793.310547" xlink:href="#DejaVuSans-69"/>
      <use x="821.09375" xlink:href="#DejaVuSans-66"/>
      <use x="856.298828" xlink:href="#DejaVuSans-6f"/>
     </g>
    </g>
   </g>
  </g>
 </g>
 <defs>
  <clipPath id="p3562347819">
   <rect height="266.112" width="357.12" x="53.328125" y="22.318125"/>
  </clipPath>
 </defs>
</svg>
