<?xml version="1.0" encoding="utf-8" standalone="no"?>
<!DOCTYPE svg PUBLIC "-//W3C//DTD SVG 1.1//EN"
  "http://www.w3.org/Graphics/SVG/1.1/DTD/svg11.dtd">
<svg height="325.986375pt" version="1.1" viewBox="0 0 568.985625 325.986375" width="568.985625pt" xmlns="http://www.w3.org/2000/svg" xmlns:xlink="http://www.w3.org/1999/xlink">
 <metadata>
  <rdf:RDF xmlns:cc="http://creativecommons.org/ns#" xmlns:dc="http://purl.org/dc/elements/1.1/" xmlns:rdf="http://www.w3.org/1999/02/22-rdf-syntax-ns#">
   <cc:Work>
    <dc:type rdf:resource="http://purl.org/dc/dcmitype/StillImage"/>
    <dc:date>2022-05-31T14:17:21.028812</dc:date>
    <dc:format>image/svg+xml</dc:format>
    <dc:creator>
     <cc:Agent>
      <dc:title>Matplotlib v3.4.3, https://matplotlib.org/</dc:title>
     </cc:Agent>
    </dc:creator>
   </cc:Work>
  </rdf:RDF>
 </metadata>
 <defs>
  <style type="text/css">*{stroke-linecap:butt;stroke-linejoin:round;}</style>
 </defs>
 <g id="figure_1">
  <g id="patch_1">
   <path d="M 0 325.986375 
L 568.985625 325.986375 
L 568.985625 0 
L 0 0 
z
" style="fill:#ffffff;"/>
  </g>
  <g id="axes_1">
   <g id="patch_2">
    <path d="M 53.328125 288.430125 
L 410.448125 288.430125 
L 410.448125 22.318125 
L 53.328125 22.318125 
z
" style="fill:#ffffff;"/>
   </g>
   <g id="PolyCollection_1">
    <defs>
     <path d="M 69.560852 -274.951792 
L 69.560852 -260.178052 
L 73.128485 -274.951792 
L 76.696117 -274.951792 
L 80.263749 -274.951792 
L 83.831382 -278.645227 
L 87.399014 -278.645227 
L 90.966646 -280.491945 
L 94.534279 -282.338662 
L 98.101911 -282.338662 
L 101.669544 -282.338662 
L 105.237176 -282.338662 
L 108.804808 -286.032097 
L 112.372441 -286.032097 
L 115.940073 -286.032097 
L 119.507705 -286.032097 
L 123.075338 -286.032097 
L 126.64297 -286.032097 
L 130.210603 -286.032097 
L 133.778235 -286.032097 
L 137.345867 -286.032097 
L 140.9135 -286.032097 
L 144.481132 -286.032097 
L 148.048764 -286.032097 
L 151.616397 -286.032097 
L 155.184029 -286.032097 
L 158.751661 -286.032097 
L 162.319294 -286.032097 
L 165.886926 -286.032097 
L 169.454559 -286.032097 
L 173.022191 -286.032097 
L 176.589823 -286.032097 
L 180.157456 -286.032097 
L 183.725088 -286.032097 
L 187.29272 -286.032097 
L 190.860353 -286.032097 
L 194.427985 -286.032097 
L 197.995618 -286.032097 
L 201.56325 -286.032097 
L 205.130882 -286.032097 
L 208.698515 -286.032097 
L 212.266147 -286.032097 
L 215.833779 -286.032097 
L 219.401412 -286.032097 
L 222.969044 -286.032097 
L 226.536676 -286.032097 
L 230.104309 -286.032097 
L 233.671941 -286.032097 
L 237.239574 -286.032097 
L 240.807206 -286.032097 
L 244.374838 -286.032097 
L 247.942471 -286.032097 
L 251.510103 -286.032097 
L 255.077735 -286.032097 
L 258.645368 -286.032097 
L 262.213 -286.032097 
L 265.780632 -286.032097 
L 269.348265 -286.032097 
L 272.915897 -286.032097 
L 276.48353 -286.032097 
L 280.051162 -286.032097 
L 283.618794 -286.032097 
L 287.186427 -286.032097 
L 290.754059 -286.032097 
L 294.321691 -286.032097 
L 297.889324 -286.032097 
L 301.456956 -286.032097 
L 305.024589 -286.032097 
L 308.592221 -286.032097 
L 312.159853 -286.032097 
L 315.727486 -286.032097 
L 319.295118 -286.032097 
L 322.86275 -286.032097 
L 326.430383 -286.032097 
L 329.998015 -286.032097 
L 333.565647 -286.032097 
L 337.13328 -286.032097 
L 340.700912 -286.032097 
L 344.268545 -286.032097 
L 347.836177 -286.032097 
L 351.403809 -286.032097 
L 354.971442 -286.032097 
L 358.539074 -286.032097 
L 362.106706 -286.032097 
L 365.674339 -286.032097 
L 369.241971 -286.032097 
L 372.809604 -286.032097 
L 376.377236 -286.032097 
L 379.944868 -286.032097 
L 383.512501 -286.032097 
L 387.080133 -286.032097 
L 390.647765 -286.032097 
L 394.215398 -286.032097 
L 394.215398 -289.725532 
L 394.215398 -289.725532 
L 390.647765 -289.725532 
L 387.080133 -289.725532 
L 383.512501 -289.725532 
L 379.944868 -289.725532 
L 376.377236 -289.725532 
L 372.809604 -289.725532 
L 369.241971 -289.725532 
L 365.674339 -289.725532 
L 362.106706 -289.725532 
L 358.539074 -289.725532 
L 354.971442 -289.725532 
L 351.403809 -289.725532 
L 347.836177 -289.725532 
L 344.268545 -289.725532 
L 340.700912 -289.725532 
L 337.13328 -289.725532 
L 333.565647 -289.725532 
L 329.998015 -289.725532 
L 326.430383 -289.725532 
L 322.86275 -289.725532 
L 319.295118 -289.725532 
L 315.727486 -289.725532 
L 312.159853 -289.725532 
L 308.592221 -289.725532 
L 305.024589 -289.725532 
L 301.456956 -289.725532 
L 297.889324 -289.725532 
L 294.321691 -289.725532 
L 290.754059 -289.725532 
L 287.186427 -289.725532 
L 283.618794 -289.725532 
L 280.051162 -289.725532 
L 276.48353 -289.725532 
L 272.915897 -289.725532 
L 269.348265 -289.725532 
L 265.780632 -289.725532 
L 262.213 -287.878815 
L 258.645368 -287.878815 
L 255.077735 -287.878815 
L 251.510103 -287.878815 
L 247.942471 -287.878815 
L 244.374838 -289.725532 
L 240.807206 -289.725532 
L 237.239574 -289.725532 
L 233.671941 -289.725532 
L 230.104309 -289.725532 
L 226.536676 -289.725532 
L 222.969044 -286.032097 
L 219.401412 -286.032097 
L 215.833779 -286.032097 
L 212.266147 -286.032097 
L 208.698515 -286.032097 
L 205.130882 -286.032097 
L 201.56325 -286.032097 
L 197.995618 -286.032097 
L 194.427985 -286.032097 
L 190.860353 -286.032097 
L 187.29272 -286.032097 
L 183.725088 -286.032097 
L 180.157456 -286.032097 
L 176.589823 -286.032097 
L 173.022191 -286.032097 
L 169.454559 -286.032097 
L 165.886926 -286.032097 
L 162.319294 -286.032097 
L 158.751661 -286.032097 
L 155.184029 -286.032097 
L 151.616397 -286.032097 
L 148.048764 -286.032097 
L 144.481132 -286.032097 
L 140.9135 -286.032097 
L 137.345867 -286.032097 
L 133.778235 -286.032097 
L 130.210603 -286.032097 
L 126.64297 -286.032097 
L 123.075338 -286.032097 
L 119.507705 -286.032097 
L 115.940073 -286.032097 
L 112.372441 -286.032097 
L 108.804808 -286.032097 
L 105.237176 -286.032097 
L 101.669544 -286.032097 
L 98.101911 -286.032097 
L 94.534279 -286.032097 
L 90.966646 -286.032097 
L 87.399014 -284.18538 
L 83.831382 -282.338662 
L 80.263749 -282.338662 
L 76.696117 -278.645227 
L 73.128485 -278.645227 
L 69.560852 -274.951792 
z
" id="mfa7ddd8eb6" style="stroke:#1f77b4;stroke-opacity:0.2;"/>
    </defs>
    <g clip-path="url(#pe26b84beda)">
     <use style="fill:#1f77b4;fill-opacity:0.2;stroke:#1f77b4;stroke-opacity:0.2;" x="0" xlink:href="#mfa7ddd8eb6" y="325.986375"/>
    </g>
   </g>
   <g id="PolyCollection_2">
    <defs>
     <path d="M 69.560852 -274.951792 
L 69.560852 -243.557594 
L 73.128485 -273.105074 
L 76.696117 -274.951792 
L 80.263749 -274.951792 
L 83.831382 -274.951792 
L 87.399014 -276.79851 
L 90.966646 -278.645227 
L 94.534279 -278.645227 
L 98.101911 -278.645227 
L 101.669544 -278.645227 
L 105.237176 -278.645227 
L 108.804808 -278.645227 
L 112.372441 -280.491945 
L 115.940073 -282.338662 
L 119.507705 -282.338662 
L 123.075338 -282.338662 
L 126.64297 -282.338662 
L 130.210603 -282.338662 
L 133.778235 -282.338662 
L 137.345867 -284.18538 
L 140.9135 -284.18538 
L 144.481132 -284.18538 
L 148.048764 -284.18538 
L 151.616397 -286.032097 
L 155.184029 -286.032097 
L 158.751661 -286.032097 
L 162.319294 -286.032097 
L 165.886926 -286.032097 
L 169.454559 -286.032097 
L 173.022191 -286.032097 
L 176.589823 -286.032097 
L 180.157456 -286.032097 
L 183.725088 -286.032097 
L 187.29272 -286.032097 
L 190.860353 -286.032097 
L 194.427985 -286.032097 
L 197.995618 -286.032097 
L 201.56325 -286.032097 
L 205.130882 -286.032097 
L 208.698515 -286.032097 
L 212.266147 -286.032097 
L 215.833779 -286.032097 
L 219.401412 -286.032097 
L 222.969044 -286.032097 
L 226.536676 -286.032097 
L 230.104309 -286.032097 
L 233.671941 -286.032097 
L 237.239574 -286.032097 
L 240.807206 -286.032097 
L 244.374838 -286.032097 
L 247.942471 -287.878815 
L 251.510103 -287.878815 
L 255.077735 -289.725532 
L 258.645368 -289.725532 
L 262.213 -289.725532 
L 265.780632 -289.725532 
L 269.348265 -289.725532 
L 272.915897 -289.725532 
L 276.48353 -289.725532 
L 280.051162 -289.725532 
L 283.618794 -289.725532 
L 287.186427 -289.725532 
L 290.754059 -289.725532 
L 294.321691 -289.725532 
L 297.889324 -289.725532 
L 301.456956 -289.725532 
L 305.024589 -289.725532 
L 308.592221 -289.725532 
L 312.159853 -289.725532 
L 315.727486 -289.725532 
L 319.295118 -289.725532 
L 322.86275 -289.725532 
L 326.430383 -289.725532 
L 329.998015 -289.725532 
L 333.565647 -289.725532 
L 337.13328 -289.725532 
L 340.700912 -289.725532 
L 344.268545 -289.725532 
L 347.836177 -289.725532 
L 351.403809 -289.725532 
L 354.971442 -289.725532 
L 358.539074 -289.725532 
L 362.106706 -289.725532 
L 365.674339 -289.725532 
L 369.241971 -289.725532 
L 372.809604 -289.725532 
L 376.377236 -289.725532 
L 379.944868 -289.725532 
L 383.512501 -289.725532 
L 387.080133 -289.725532 
L 390.647765 -289.725532 
L 394.215398 -289.725532 
L 394.215398 -289.725532 
L 394.215398 -289.725532 
L 390.647765 -291.57225 
L 387.080133 -289.725532 
L 383.512501 -289.725532 
L 379.944868 -289.725532 
L 376.377236 -289.725532 
L 372.809604 -289.725532 
L 369.241971 -289.725532 
L 365.674339 -289.725532 
L 362.106706 -289.725532 
L 358.539074 -289.725532 
L 354.971442 -289.725532 
L 351.403809 -289.725532 
L 347.836177 -289.725532 
L 344.268545 -289.725532 
L 340.700912 -289.725532 
L 337.13328 -289.725532 
L 333.565647 -289.725532 
L 329.998015 -289.725532 
L 326.430383 -289.725532 
L 322.86275 -289.725532 
L 319.295118 -289.725532 
L 315.727486 -289.725532 
L 312.159853 -289.725532 
L 308.592221 -289.725532 
L 305.024589 -289.725532 
L 301.456956 -289.725532 
L 297.889324 -289.725532 
L 294.321691 -289.725532 
L 290.754059 -289.725532 
L 287.186427 -289.725532 
L 283.618794 -289.725532 
L 280.051162 -289.725532 
L 276.48353 -289.725532 
L 272.915897 -289.725532 
L 269.348265 -289.725532 
L 265.780632 -289.725532 
L 262.213 -289.725532 
L 258.645368 -289.725532 
L 255.077735 -289.725532 
L 251.510103 -289.725532 
L 247.942471 -289.725532 
L 244.374838 -289.725532 
L 240.807206 -289.725532 
L 237.239574 -289.725532 
L 233.671941 -289.725532 
L 230.104309 -289.725532 
L 226.536676 -289.725532 
L 222.969044 -289.725532 
L 219.401412 -289.725532 
L 215.833779 -289.725532 
L 212.266147 -289.725532 
L 208.698515 -289.725532 
L 205.130882 -289.725532 
L 201.56325 -289.725532 
L 197.995618 -289.725532 
L 194.427985 -289.725532 
L 190.860353 -289.725532 
L 187.29272 -289.725532 
L 183.725088 -289.725532 
L 180.157456 -289.725532 
L 176.589823 -289.725532 
L 173.022191 -289.725532 
L 169.454559 -289.725532 
L 165.886926 -289.725532 
L 162.319294 -289.725532 
L 158.751661 -287.878815 
L 155.184029 -287.878815 
L 151.616397 -287.878815 
L 148.048764 -287.878815 
L 144.481132 -287.878815 
L 140.9135 -287.878815 
L 137.345867 -287.878815 
L 133.778235 -287.878815 
L 130.210603 -287.878815 
L 126.64297 -287.878815 
L 123.075338 -286.032097 
L 119.507705 -286.032097 
L 115.940073 -286.032097 
L 112.372441 -286.032097 
L 108.804808 -286.032097 
L 105.237176 -286.032097 
L 101.669544 -286.032097 
L 98.101911 -286.032097 
L 94.534279 -286.032097 
L 90.966646 -286.032097 
L 87.399014 -286.032097 
L 83.831382 -282.338662 
L 80.263749 -282.338662 
L 76.696117 -278.645227 
L 73.128485 -278.645227 
L 69.560852 -274.951792 
z
" id="m619f4c5df6" style="stroke:#d62728;stroke-opacity:0.2;"/>
    </defs>
    <g clip-path="url(#pe26b84beda)">
     <use style="fill:#d62728;fill-opacity:0.2;stroke:#d62728;stroke-opacity:0.2;" x="0" xlink:href="#m619f4c5df6" y="325.986375"/>
    </g>
   </g>
   <g id="PolyCollection_3">
    <defs>
     <path d="M 69.560852 -193.696219 
L 69.560852 -49.65225 
L 73.128485 -49.65225 
L 76.696117 -49.65225 
L 80.263749 -73.659578 
L 83.831382 -73.659578 
L 87.399014 -73.659578 
L 90.966646 -156.761868 
L 94.534279 -156.761868 
L 98.101911 -156.761868 
L 101.669544 -156.761868 
L 105.237176 -156.761868 
L 108.804808 -156.761868 
L 112.372441 -156.761868 
L 115.940073 -156.761868 
L 119.507705 -156.761868 
L 123.075338 -165.995456 
L 126.64297 -173.382326 
L 130.210603 -173.382326 
L 133.778235 -173.382326 
L 137.345867 -173.382326 
L 140.9135 -173.382326 
L 144.481132 -173.382326 
L 148.048764 -190.002784 
L 151.616397 -195.404433 
L 155.184029 -197.389655 
L 158.751661 -204.776525 
L 162.319294 -202.929807 
L 165.886926 -202.929807 
L 169.454559 -202.929807 
L 173.022191 -202.929807 
L 176.589823 -202.929807 
L 180.157456 -204.776525 
L 183.725088 -204.776525 
L 187.29272 -204.776525 
L 190.860353 -208.46996 
L 194.427985 -204.776525 
L 197.995618 -201.08309 
L 201.56325 -204.776525 
L 205.130882 -204.776525 
L 208.698515 -204.776525 
L 212.266147 -204.776525 
L 215.833779 -204.776525 
L 219.401412 -204.776525 
L 222.969044 -204.776525 
L 226.536676 -204.776525 
L 230.104309 -204.776525 
L 233.671941 -212.163395 
L 237.239574 -213.963945 
L 240.807206 -210.316677 
L 244.374838 -210.316677 
L 247.942471 -214.010113 
L 251.510103 -215.85683 
L 255.077735 -214.010113 
L 258.645368 -214.010113 
L 262.213 -214.010113 
L 265.780632 -214.010113 
L 269.348265 -214.010113 
L 272.915897 -214.010113 
L 276.48353 -214.010113 
L 280.051162 -208.46996 
L 283.618794 -214.010113 
L 287.186427 -214.010113 
L 290.754059 -214.010113 
L 294.321691 -214.010113 
L 297.889324 -215.85683 
L 301.456956 -214.010113 
L 305.024589 -214.010113 
L 308.592221 -219.550265 
L 312.159853 -219.550265 
L 315.727486 -219.550265 
L 319.295118 -219.550265 
L 322.86275 -219.550265 
L 326.430383 -219.550265 
L 329.998015 -219.550265 
L 333.565647 -219.550265 
L 337.13328 -221.396983 
L 340.700912 -221.396983 
L 344.268545 -221.396983 
L 347.836177 -221.396983 
L 351.403809 -221.396983 
L 354.971442 -221.396983 
L 358.539074 -221.396983 
L 362.106706 -221.396983 
L 365.674339 -221.396983 
L 369.241971 -221.396983 
L 372.809604 -221.396983 
L 376.377236 -221.396983 
L 379.944868 -221.396983 
L 383.512501 -223.2437 
L 387.080133 -221.396983 
L 390.647765 -221.396983 
L 394.215398 -225.090418 
L 394.215398 -260.178052 
L 394.215398 -260.178052 
L 390.647765 -260.178052 
L 387.080133 -260.178052 
L 383.512501 -260.178052 
L 379.944868 -260.178052 
L 376.377236 -260.178052 
L 372.809604 -260.178052 
L 369.241971 -260.178052 
L 365.674339 -260.178052 
L 362.106706 -260.178052 
L 358.539074 -260.178052 
L 354.971442 -260.178052 
L 351.403809 -260.178052 
L 347.836177 -260.178052 
L 344.268545 -260.178052 
L 340.700912 -260.178052 
L 337.13328 -260.178052 
L 333.565647 -260.178052 
L 329.998015 -260.178052 
L 326.430383 -260.178052 
L 322.86275 -260.178052 
L 319.295118 -260.178052 
L 315.727486 -260.178052 
L 312.159853 -260.178052 
L 308.592221 -260.178052 
L 305.024589 -260.178052 
L 301.456956 -260.178052 
L 297.889324 -260.178052 
L 294.321691 -260.178052 
L 290.754059 -260.178052 
L 287.186427 -260.178052 
L 283.618794 -260.178052 
L 280.051162 -260.178052 
L 276.48353 -260.178052 
L 272.915897 -260.178052 
L 269.348265 -260.178052 
L 265.780632 -260.178052 
L 262.213 -260.178052 
L 258.645368 -260.178052 
L 255.077735 -260.178052 
L 251.510103 -260.178052 
L 247.942471 -260.178052 
L 244.374838 -260.178052 
L 240.807206 -260.178052 
L 237.239574 -260.178052 
L 233.671941 -260.178052 
L 230.104309 -260.178052 
L 226.536676 -260.178052 
L 222.969044 -260.178052 
L 219.401412 -260.178052 
L 215.833779 -260.178052 
L 212.266147 -260.178052 
L 208.698515 -260.178052 
L 205.130882 -260.178052 
L 201.56325 -260.178052 
L 197.995618 -260.178052 
L 194.427985 -256.484616 
L 190.860353 -256.484616 
L 187.29272 -256.484616 
L 183.725088 -252.791181 
L 180.157456 -252.791181 
L 176.589823 -252.791181 
L 173.022191 -252.791181 
L 169.454559 -252.791181 
L 165.886926 -252.791181 
L 162.319294 -252.791181 
L 158.751661 -252.791181 
L 155.184029 -252.791181 
L 151.616397 -252.791181 
L 148.048764 -252.791181 
L 144.481132 -252.791181 
L 140.9135 -252.791181 
L 137.345867 -252.791181 
L 133.778235 -252.791181 
L 130.210603 -252.791181 
L 126.64297 -252.791181 
L 123.075338 -252.791181 
L 119.507705 -249.097746 
L 115.940073 -249.097746 
L 112.372441 -245.404311 
L 108.804808 -245.404311 
L 105.237176 -245.404311 
L 101.669544 -245.404311 
L 98.101911 -245.404311 
L 94.534279 -241.710876 
L 90.966646 -241.710876 
L 87.399014 -241.710876 
L 83.831382 -241.710876 
L 80.263749 -241.710876 
L 76.696117 -223.2437 
L 73.128485 -223.2437 
L 69.560852 -193.696219 
z
" id="mf93e079b4d" style="stroke:#98df8a;stroke-opacity:0.2;"/>
    </defs>
    <g clip-path="url(#pe26b84beda)">
     <use style="fill:#98df8a;fill-opacity:0.2;stroke:#98df8a;stroke-opacity:0.2;" x="0" xlink:href="#mf93e079b4d" y="325.986375"/>
    </g>
   </g>
   <g id="matplotlib.axis_1">
    <g id="xtick_1">
     <g id="line2d_1">
      <defs>
       <path d="M 0 0 
L 0 3.5 
" id="m1207a80475" style="stroke:#000000;stroke-width:0.8;"/>
      </defs>
      <g>
       <use style="stroke:#000000;stroke-width:0.8;" x="69.560852" xlink:href="#m1207a80475" y="288.430125"/>
      </g>
     </g>
     <g id="text_1">
      <!-- 15m -->
      <g transform="translate(58.32804 303.028562)scale(0.1 -0.1)">
       <defs>
        <path d="M 794 531 
L 1825 531 
L 1825 4091 
L 703 3866 
L 703 4441 
L 1819 4666 
L 2450 4666 
L 2450 531 
L 3481 531 
L 3481 0 
L 794 0 
L 794 531 
z
" id="DejaVuSans-31" transform="scale(0.015625)"/>
        <path d="M 691 4666 
L 3169 4666 
L 3169 4134 
L 1269 4134 
L 1269 2991 
Q 1406 3038 1543 3061 
Q 1681 3084 1819 3084 
Q 2600 3084 3056 2656 
Q 3513 2228 3513 1497 
Q 3513 744 3044 326 
Q 2575 -91 1722 -91 
Q 1428 -91 1123 -41 
Q 819 9 494 109 
L 494 744 
Q 775 591 1075 516 
Q 1375 441 1709 441 
Q 2250 441 2565 725 
Q 2881 1009 2881 1497 
Q 2881 1984 2565 2268 
Q 2250 2553 1709 2553 
Q 1456 2553 1204 2497 
Q 953 2441 691 2322 
L 691 4666 
z
" id="DejaVuSans-35" transform="scale(0.015625)"/>
        <path d="M 3328 2828 
Q 3544 3216 3844 3400 
Q 4144 3584 4550 3584 
Q 5097 3584 5394 3201 
Q 5691 2819 5691 2113 
L 5691 0 
L 5113 0 
L 5113 2094 
Q 5113 2597 4934 2840 
Q 4756 3084 4391 3084 
Q 3944 3084 3684 2787 
Q 3425 2491 3425 1978 
L 3425 0 
L 2847 0 
L 2847 2094 
Q 2847 2600 2669 2842 
Q 2491 3084 2119 3084 
Q 1678 3084 1418 2786 
Q 1159 2488 1159 1978 
L 1159 0 
L 581 0 
L 581 3500 
L 1159 3500 
L 1159 2956 
Q 1356 3278 1631 3431 
Q 1906 3584 2284 3584 
Q 2666 3584 2933 3390 
Q 3200 3197 3328 2828 
z
" id="DejaVuSans-6d" transform="scale(0.015625)"/>
       </defs>
       <use xlink:href="#DejaVuSans-31"/>
       <use x="63.623047" xlink:href="#DejaVuSans-35"/>
       <use x="127.246094" xlink:href="#DejaVuSans-6d"/>
      </g>
     </g>
    </g>
    <g id="xtick_2">
     <g id="line2d_2">
      <g>
       <use style="stroke:#000000;stroke-width:0.8;" x="124.264549" xlink:href="#m1207a80475" y="288.430125"/>
      </g>
     </g>
     <g id="text_2">
      <!-- 4h:5m -->
      <g transform="translate(108.178611 303.028562)scale(0.1 -0.1)">
       <defs>
        <path d="M 2419 4116 
L 825 1625 
L 2419 1625 
L 2419 4116 
z
M 2253 4666 
L 3047 4666 
L 3047 1625 
L 3713 1625 
L 3713 1100 
L 3047 1100 
L 3047 0 
L 2419 0 
L 2419 1100 
L 313 1100 
L 313 1709 
L 2253 4666 
z
" id="DejaVuSans-34" transform="scale(0.015625)"/>
        <path d="M 3513 2113 
L 3513 0 
L 2938 0 
L 2938 2094 
Q 2938 2591 2744 2837 
Q 2550 3084 2163 3084 
Q 1697 3084 1428 2787 
Q 1159 2491 1159 1978 
L 1159 0 
L 581 0 
L 581 4863 
L 1159 4863 
L 1159 2956 
Q 1366 3272 1645 3428 
Q 1925 3584 2291 3584 
Q 2894 3584 3203 3211 
Q 3513 2838 3513 2113 
z
" id="DejaVuSans-68" transform="scale(0.015625)"/>
        <path d="M 750 794 
L 1409 794 
L 1409 0 
L 750 0 
L 750 794 
z
M 750 3309 
L 1409 3309 
L 1409 2516 
L 750 2516 
L 750 3309 
z
" id="DejaVuSans-3a" transform="scale(0.015625)"/>
       </defs>
       <use xlink:href="#DejaVuSans-34"/>
       <use x="63.623047" xlink:href="#DejaVuSans-68"/>
       <use x="127.001953" xlink:href="#DejaVuSans-3a"/>
       <use x="160.693359" xlink:href="#DejaVuSans-35"/>
       <use x="224.316406" xlink:href="#DejaVuSans-6d"/>
      </g>
     </g>
    </g>
    <g id="xtick_3">
     <g id="line2d_3">
      <g>
       <use style="stroke:#000000;stroke-width:0.8;" x="178.968245" xlink:href="#m1207a80475" y="288.430125"/>
      </g>
     </g>
     <g id="text_3">
      <!-- 7h:55m -->
      <g transform="translate(159.701057 303.028562)scale(0.1 -0.1)">
       <defs>
        <path d="M 525 4666 
L 3525 4666 
L 3525 4397 
L 1831 0 
L 1172 0 
L 2766 4134 
L 525 4134 
L 525 4666 
z
" id="DejaVuSans-37" transform="scale(0.015625)"/>
       </defs>
       <use xlink:href="#DejaVuSans-37"/>
       <use x="63.623047" xlink:href="#DejaVuSans-68"/>
       <use x="127.001953" xlink:href="#DejaVuSans-3a"/>
       <use x="160.693359" xlink:href="#DejaVuSans-35"/>
       <use x="224.316406" xlink:href="#DejaVuSans-35"/>
       <use x="287.939453" xlink:href="#DejaVuSans-6d"/>
      </g>
     </g>
    </g>
    <g id="xtick_4">
     <g id="line2d_4">
      <g>
       <use style="stroke:#000000;stroke-width:0.8;" x="233.671941" xlink:href="#m1207a80475" y="288.430125"/>
      </g>
     </g>
     <g id="text_4">
      <!-- 11h:45m -->
      <g transform="translate(211.223504 303.028562)scale(0.1 -0.1)">
       <use xlink:href="#DejaVuSans-31"/>
       <use x="63.623047" xlink:href="#DejaVuSans-31"/>
       <use x="127.246094" xlink:href="#DejaVuSans-68"/>
       <use x="190.625" xlink:href="#DejaVuSans-3a"/>
       <use x="224.316406" xlink:href="#DejaVuSans-34"/>
       <use x="287.939453" xlink:href="#DejaVuSans-35"/>
       <use x="351.5625" xlink:href="#DejaVuSans-6d"/>
      </g>
     </g>
    </g>
    <g id="xtick_5">
     <g id="line2d_5">
      <g>
       <use style="stroke:#000000;stroke-width:0.8;" x="288.375637" xlink:href="#m1207a80475" y="288.430125"/>
      </g>
     </g>
     <g id="text_5">
      <!-- 15h:35m -->
      <g transform="translate(265.9272 303.028562)scale(0.1 -0.1)">
       <defs>
        <path d="M 2597 2516 
Q 3050 2419 3304 2112 
Q 3559 1806 3559 1356 
Q 3559 666 3084 287 
Q 2609 -91 1734 -91 
Q 1441 -91 1130 -33 
Q 819 25 488 141 
L 488 750 
Q 750 597 1062 519 
Q 1375 441 1716 441 
Q 2309 441 2620 675 
Q 2931 909 2931 1356 
Q 2931 1769 2642 2001 
Q 2353 2234 1838 2234 
L 1294 2234 
L 1294 2753 
L 1863 2753 
Q 2328 2753 2575 2939 
Q 2822 3125 2822 3475 
Q 2822 3834 2567 4026 
Q 2313 4219 1838 4219 
Q 1578 4219 1281 4162 
Q 984 4106 628 3988 
L 628 4550 
Q 988 4650 1302 4700 
Q 1616 4750 1894 4750 
Q 2613 4750 3031 4423 
Q 3450 4097 3450 3541 
Q 3450 3153 3228 2886 
Q 3006 2619 2597 2516 
z
" id="DejaVuSans-33" transform="scale(0.015625)"/>
       </defs>
       <use xlink:href="#DejaVuSans-31"/>
       <use x="63.623047" xlink:href="#DejaVuSans-35"/>
       <use x="127.246094" xlink:href="#DejaVuSans-68"/>
       <use x="190.625" xlink:href="#DejaVuSans-3a"/>
       <use x="224.316406" xlink:href="#DejaVuSans-33"/>
       <use x="287.939453" xlink:href="#DejaVuSans-35"/>
       <use x="351.5625" xlink:href="#DejaVuSans-6d"/>
      </g>
     </g>
    </g>
    <g id="xtick_6">
     <g id="line2d_6">
      <g>
       <use style="stroke:#000000;stroke-width:0.8;" x="343.079334" xlink:href="#m1207a80475" y="288.430125"/>
      </g>
     </g>
     <g id="text_6">
      <!-- 19h:25m -->
      <g transform="translate(320.630896 303.028562)scale(0.1 -0.1)">
       <defs>
        <path d="M 703 97 
L 703 672 
Q 941 559 1184 500 
Q 1428 441 1663 441 
Q 2288 441 2617 861 
Q 2947 1281 2994 2138 
Q 2813 1869 2534 1725 
Q 2256 1581 1919 1581 
Q 1219 1581 811 2004 
Q 403 2428 403 3163 
Q 403 3881 828 4315 
Q 1253 4750 1959 4750 
Q 2769 4750 3195 4129 
Q 3622 3509 3622 2328 
Q 3622 1225 3098 567 
Q 2575 -91 1691 -91 
Q 1453 -91 1209 -44 
Q 966 3 703 97 
z
M 1959 2075 
Q 2384 2075 2632 2365 
Q 2881 2656 2881 3163 
Q 2881 3666 2632 3958 
Q 2384 4250 1959 4250 
Q 1534 4250 1286 3958 
Q 1038 3666 1038 3163 
Q 1038 2656 1286 2365 
Q 1534 2075 1959 2075 
z
" id="DejaVuSans-39" transform="scale(0.015625)"/>
        <path d="M 1228 531 
L 3431 531 
L 3431 0 
L 469 0 
L 469 531 
Q 828 903 1448 1529 
Q 2069 2156 2228 2338 
Q 2531 2678 2651 2914 
Q 2772 3150 2772 3378 
Q 2772 3750 2511 3984 
Q 2250 4219 1831 4219 
Q 1534 4219 1204 4116 
Q 875 4013 500 3803 
L 500 4441 
Q 881 4594 1212 4672 
Q 1544 4750 1819 4750 
Q 2544 4750 2975 4387 
Q 3406 4025 3406 3419 
Q 3406 3131 3298 2873 
Q 3191 2616 2906 2266 
Q 2828 2175 2409 1742 
Q 1991 1309 1228 531 
z
" id="DejaVuSans-32" transform="scale(0.015625)"/>
       </defs>
       <use xlink:href="#DejaVuSans-31"/>
       <use x="63.623047" xlink:href="#DejaVuSans-39"/>
       <use x="127.246094" xlink:href="#DejaVuSans-68"/>
       <use x="190.625" xlink:href="#DejaVuSans-3a"/>
       <use x="224.316406" xlink:href="#DejaVuSans-32"/>
       <use x="287.939453" xlink:href="#DejaVuSans-35"/>
       <use x="351.5625" xlink:href="#DejaVuSans-6d"/>
      </g>
     </g>
    </g>
    <g id="text_7">
     <!-- Time (hour:minute) -->
     <g transform="translate(183.481094 316.706687)scale(0.1 -0.1)">
      <defs>
       <path d="M -19 4666 
L 3928 4666 
L 3928 4134 
L 2272 4134 
L 2272 0 
L 1638 0 
L 1638 4134 
L -19 4134 
L -19 4666 
z
" id="DejaVuSans-54" transform="scale(0.015625)"/>
       <path d="M 603 3500 
L 1178 3500 
L 1178 0 
L 603 0 
L 603 3500 
z
M 603 4863 
L 1178 4863 
L 1178 4134 
L 603 4134 
L 603 4863 
z
" id="DejaVuSans-69" transform="scale(0.015625)"/>
       <path d="M 3597 1894 
L 3597 1613 
L 953 1613 
Q 991 1019 1311 708 
Q 1631 397 2203 397 
Q 2534 397 2845 478 
Q 3156 559 3463 722 
L 3463 178 
Q 3153 47 2828 -22 
Q 2503 -91 2169 -91 
Q 1331 -91 842 396 
Q 353 884 353 1716 
Q 353 2575 817 3079 
Q 1281 3584 2069 3584 
Q 2775 3584 3186 3129 
Q 3597 2675 3597 1894 
z
M 3022 2063 
Q 3016 2534 2758 2815 
Q 2500 3097 2075 3097 
Q 1594 3097 1305 2825 
Q 1016 2553 972 2059 
L 3022 2063 
z
" id="DejaVuSans-65" transform="scale(0.015625)"/>
       <path id="DejaVuSans-20" transform="scale(0.015625)"/>
       <path d="M 1984 4856 
Q 1566 4138 1362 3434 
Q 1159 2731 1159 2009 
Q 1159 1288 1364 580 
Q 1569 -128 1984 -844 
L 1484 -844 
Q 1016 -109 783 600 
Q 550 1309 550 2009 
Q 550 2706 781 3412 
Q 1013 4119 1484 4856 
L 1984 4856 
z
" id="DejaVuSans-28" transform="scale(0.015625)"/>
       <path d="M 1959 3097 
Q 1497 3097 1228 2736 
Q 959 2375 959 1747 
Q 959 1119 1226 758 
Q 1494 397 1959 397 
Q 2419 397 2687 759 
Q 2956 1122 2956 1747 
Q 2956 2369 2687 2733 
Q 2419 3097 1959 3097 
z
M 1959 3584 
Q 2709 3584 3137 3096 
Q 3566 2609 3566 1747 
Q 3566 888 3137 398 
Q 2709 -91 1959 -91 
Q 1206 -91 779 398 
Q 353 888 353 1747 
Q 353 2609 779 3096 
Q 1206 3584 1959 3584 
z
" id="DejaVuSans-6f" transform="scale(0.015625)"/>
       <path d="M 544 1381 
L 544 3500 
L 1119 3500 
L 1119 1403 
Q 1119 906 1312 657 
Q 1506 409 1894 409 
Q 2359 409 2629 706 
Q 2900 1003 2900 1516 
L 2900 3500 
L 3475 3500 
L 3475 0 
L 2900 0 
L 2900 538 
Q 2691 219 2414 64 
Q 2138 -91 1772 -91 
Q 1169 -91 856 284 
Q 544 659 544 1381 
z
M 1991 3584 
L 1991 3584 
z
" id="DejaVuSans-75" transform="scale(0.015625)"/>
       <path d="M 2631 2963 
Q 2534 3019 2420 3045 
Q 2306 3072 2169 3072 
Q 1681 3072 1420 2755 
Q 1159 2438 1159 1844 
L 1159 0 
L 581 0 
L 581 3500 
L 1159 3500 
L 1159 2956 
Q 1341 3275 1631 3429 
Q 1922 3584 2338 3584 
Q 2397 3584 2469 3576 
Q 2541 3569 2628 3553 
L 2631 2963 
z
" id="DejaVuSans-72" transform="scale(0.015625)"/>
       <path d="M 3513 2113 
L 3513 0 
L 2938 0 
L 2938 2094 
Q 2938 2591 2744 2837 
Q 2550 3084 2163 3084 
Q 1697 3084 1428 2787 
Q 1159 2491 1159 1978 
L 1159 0 
L 581 0 
L 581 3500 
L 1159 3500 
L 1159 2956 
Q 1366 3272 1645 3428 
Q 1925 3584 2291 3584 
Q 2894 3584 3203 3211 
Q 3513 2838 3513 2113 
z
" id="DejaVuSans-6e" transform="scale(0.015625)"/>
       <path d="M 1172 4494 
L 1172 3500 
L 2356 3500 
L 2356 3053 
L 1172 3053 
L 1172 1153 
Q 1172 725 1289 603 
Q 1406 481 1766 481 
L 2356 481 
L 2356 0 
L 1766 0 
Q 1100 0 847 248 
Q 594 497 594 1153 
L 594 3053 
L 172 3053 
L 172 3500 
L 594 3500 
L 594 4494 
L 1172 4494 
z
" id="DejaVuSans-74" transform="scale(0.015625)"/>
       <path d="M 513 4856 
L 1013 4856 
Q 1481 4119 1714 3412 
Q 1947 2706 1947 2009 
Q 1947 1309 1714 600 
Q 1481 -109 1013 -844 
L 513 -844 
Q 928 -128 1133 580 
Q 1338 1288 1338 2009 
Q 1338 2731 1133 3434 
Q 928 4138 513 4856 
z
" id="DejaVuSans-29" transform="scale(0.015625)"/>
      </defs>
      <use xlink:href="#DejaVuSans-54"/>
      <use x="57.958984" xlink:href="#DejaVuSans-69"/>
      <use x="85.742188" xlink:href="#DejaVuSans-6d"/>
      <use x="183.154297" xlink:href="#DejaVuSans-65"/>
      <use x="244.677734" xlink:href="#DejaVuSans-20"/>
      <use x="276.464844" xlink:href="#DejaVuSans-28"/>
      <use x="315.478516" xlink:href="#DejaVuSans-68"/>
      <use x="378.857422" xlink:href="#DejaVuSans-6f"/>
      <use x="440.039062" xlink:href="#DejaVuSans-75"/>
      <use x="503.417969" xlink:href="#DejaVuSans-72"/>
      <use x="542.78125" xlink:href="#DejaVuSans-3a"/>
      <use x="576.472656" xlink:href="#DejaVuSans-6d"/>
      <use x="673.884766" xlink:href="#DejaVuSans-69"/>
      <use x="701.667969" xlink:href="#DejaVuSans-6e"/>
      <use x="765.046875" xlink:href="#DejaVuSans-75"/>
      <use x="828.425781" xlink:href="#DejaVuSans-74"/>
      <use x="867.634766" xlink:href="#DejaVuSans-65"/>
      <use x="929.158203" xlink:href="#DejaVuSans-29"/>
     </g>
    </g>
   </g>
   <g id="matplotlib.axis_2">
    <g id="ytick_1">
     <g id="line2d_7">
      <defs>
       <path d="M 0 0 
L -3.5 0 
" id="mc2c006b3b2" style="stroke:#000000;stroke-width:0.8;"/>
      </defs>
      <g>
       <use style="stroke:#000000;stroke-width:0.8;" x="53.328125" xlink:href="#mc2c006b3b2" y="254.173514"/>
      </g>
     </g>
     <g id="text_8">
      <!-- 2380 -->
      <g transform="translate(20.878125 257.972733)scale(0.1 -0.1)">
       <defs>
        <path d="M 2034 2216 
Q 1584 2216 1326 1975 
Q 1069 1734 1069 1313 
Q 1069 891 1326 650 
Q 1584 409 2034 409 
Q 2484 409 2743 651 
Q 3003 894 3003 1313 
Q 3003 1734 2745 1975 
Q 2488 2216 2034 2216 
z
M 1403 2484 
Q 997 2584 770 2862 
Q 544 3141 544 3541 
Q 544 4100 942 4425 
Q 1341 4750 2034 4750 
Q 2731 4750 3128 4425 
Q 3525 4100 3525 3541 
Q 3525 3141 3298 2862 
Q 3072 2584 2669 2484 
Q 3125 2378 3379 2068 
Q 3634 1759 3634 1313 
Q 3634 634 3220 271 
Q 2806 -91 2034 -91 
Q 1263 -91 848 271 
Q 434 634 434 1313 
Q 434 1759 690 2068 
Q 947 2378 1403 2484 
z
M 1172 3481 
Q 1172 3119 1398 2916 
Q 1625 2713 2034 2713 
Q 2441 2713 2670 2916 
Q 2900 3119 2900 3481 
Q 2900 3844 2670 4047 
Q 2441 4250 2034 4250 
Q 1625 4250 1398 4047 
Q 1172 3844 1172 3481 
z
" id="DejaVuSans-38" transform="scale(0.015625)"/>
        <path d="M 2034 4250 
Q 1547 4250 1301 3770 
Q 1056 3291 1056 2328 
Q 1056 1369 1301 889 
Q 1547 409 2034 409 
Q 2525 409 2770 889 
Q 3016 1369 3016 2328 
Q 3016 3291 2770 3770 
Q 2525 4250 2034 4250 
z
M 2034 4750 
Q 2819 4750 3233 4129 
Q 3647 3509 3647 2328 
Q 3647 1150 3233 529 
Q 2819 -91 2034 -91 
Q 1250 -91 836 529 
Q 422 1150 422 2328 
Q 422 3509 836 4129 
Q 1250 4750 2034 4750 
z
" id="DejaVuSans-30" transform="scale(0.015625)"/>
       </defs>
       <use xlink:href="#DejaVuSans-32"/>
       <use x="63.623047" xlink:href="#DejaVuSans-33"/>
       <use x="127.246094" xlink:href="#DejaVuSans-38"/>
       <use x="190.869141" xlink:href="#DejaVuSans-30"/>
      </g>
     </g>
    </g>
    <g id="ytick_2">
     <g id="line2d_8">
      <g>
       <use style="stroke:#000000;stroke-width:0.8;" x="53.328125" xlink:href="#mc2c006b3b2" y="217.239163"/>
      </g>
     </g>
     <g id="text_9">
      <!-- 2390 -->
      <g transform="translate(20.878125 221.038382)scale(0.1 -0.1)">
       <use xlink:href="#DejaVuSans-32"/>
       <use x="63.623047" xlink:href="#DejaVuSans-33"/>
       <use x="127.246094" xlink:href="#DejaVuSans-39"/>
       <use x="190.869141" xlink:href="#DejaVuSans-30"/>
      </g>
     </g>
    </g>
    <g id="ytick_3">
     <g id="line2d_9">
      <g>
       <use style="stroke:#000000;stroke-width:0.8;" x="53.328125" xlink:href="#mc2c006b3b2" y="180.304812"/>
      </g>
     </g>
     <g id="text_10">
      <!-- 2400 -->
      <g transform="translate(20.878125 184.104031)scale(0.1 -0.1)">
       <use xlink:href="#DejaVuSans-32"/>
       <use x="63.623047" xlink:href="#DejaVuSans-34"/>
       <use x="127.246094" xlink:href="#DejaVuSans-30"/>
       <use x="190.869141" xlink:href="#DejaVuSans-30"/>
      </g>
     </g>
    </g>
    <g id="ytick_4">
     <g id="line2d_10">
      <g>
       <use style="stroke:#000000;stroke-width:0.8;" x="53.328125" xlink:href="#mc2c006b3b2" y="143.370461"/>
      </g>
     </g>
     <g id="text_11">
      <!-- 2410 -->
      <g transform="translate(20.878125 147.16968)scale(0.1 -0.1)">
       <use xlink:href="#DejaVuSans-32"/>
       <use x="63.623047" xlink:href="#DejaVuSans-34"/>
       <use x="127.246094" xlink:href="#DejaVuSans-31"/>
       <use x="190.869141" xlink:href="#DejaVuSans-30"/>
      </g>
     </g>
    </g>
    <g id="ytick_5">
     <g id="line2d_11">
      <g>
       <use style="stroke:#000000;stroke-width:0.8;" x="53.328125" xlink:href="#mc2c006b3b2" y="106.43611"/>
      </g>
     </g>
     <g id="text_12">
      <!-- 2420 -->
      <g transform="translate(20.878125 110.235328)scale(0.1 -0.1)">
       <use xlink:href="#DejaVuSans-32"/>
       <use x="63.623047" xlink:href="#DejaVuSans-34"/>
       <use x="127.246094" xlink:href="#DejaVuSans-32"/>
       <use x="190.869141" xlink:href="#DejaVuSans-30"/>
      </g>
     </g>
    </g>
    <g id="ytick_6">
     <g id="line2d_12">
      <g>
       <use style="stroke:#000000;stroke-width:0.8;" x="53.328125" xlink:href="#mc2c006b3b2" y="69.501759"/>
      </g>
     </g>
     <g id="text_13">
      <!-- 2430 -->
      <g transform="translate(20.878125 73.300977)scale(0.1 -0.1)">
       <use xlink:href="#DejaVuSans-32"/>
       <use x="63.623047" xlink:href="#DejaVuSans-34"/>
       <use x="127.246094" xlink:href="#DejaVuSans-33"/>
       <use x="190.869141" xlink:href="#DejaVuSans-30"/>
      </g>
     </g>
    </g>
    <g id="ytick_7">
     <g id="line2d_13">
      <g>
       <use style="stroke:#000000;stroke-width:0.8;" x="53.328125" xlink:href="#mc2c006b3b2" y="32.567407"/>
      </g>
     </g>
     <g id="text_14">
      <!-- 2440 -->
      <g transform="translate(20.878125 36.366626)scale(0.1 -0.1)">
       <use xlink:href="#DejaVuSans-32"/>
       <use x="63.623047" xlink:href="#DejaVuSans-34"/>
       <use x="127.246094" xlink:href="#DejaVuSans-34"/>
       <use x="190.869141" xlink:href="#DejaVuSans-30"/>
      </g>
     </g>
    </g>
    <g id="text_15">
     <!-- Code region coverage -->
     <g transform="translate(14.798438 210.379594)rotate(-90)scale(0.1 -0.1)">
      <defs>
       <path d="M 4122 4306 
L 4122 3641 
Q 3803 3938 3442 4084 
Q 3081 4231 2675 4231 
Q 1875 4231 1450 3742 
Q 1025 3253 1025 2328 
Q 1025 1406 1450 917 
Q 1875 428 2675 428 
Q 3081 428 3442 575 
Q 3803 722 4122 1019 
L 4122 359 
Q 3791 134 3420 21 
Q 3050 -91 2638 -91 
Q 1578 -91 968 557 
Q 359 1206 359 2328 
Q 359 3453 968 4101 
Q 1578 4750 2638 4750 
Q 3056 4750 3426 4639 
Q 3797 4528 4122 4306 
z
" id="DejaVuSans-43" transform="scale(0.015625)"/>
       <path d="M 2906 2969 
L 2906 4863 
L 3481 4863 
L 3481 0 
L 2906 0 
L 2906 525 
Q 2725 213 2448 61 
Q 2172 -91 1784 -91 
Q 1150 -91 751 415 
Q 353 922 353 1747 
Q 353 2572 751 3078 
Q 1150 3584 1784 3584 
Q 2172 3584 2448 3432 
Q 2725 3281 2906 2969 
z
M 947 1747 
Q 947 1113 1208 752 
Q 1469 391 1925 391 
Q 2381 391 2643 752 
Q 2906 1113 2906 1747 
Q 2906 2381 2643 2742 
Q 2381 3103 1925 3103 
Q 1469 3103 1208 2742 
Q 947 2381 947 1747 
z
" id="DejaVuSans-64" transform="scale(0.015625)"/>
       <path d="M 2906 1791 
Q 2906 2416 2648 2759 
Q 2391 3103 1925 3103 
Q 1463 3103 1205 2759 
Q 947 2416 947 1791 
Q 947 1169 1205 825 
Q 1463 481 1925 481 
Q 2391 481 2648 825 
Q 2906 1169 2906 1791 
z
M 3481 434 
Q 3481 -459 3084 -895 
Q 2688 -1331 1869 -1331 
Q 1566 -1331 1297 -1286 
Q 1028 -1241 775 -1147 
L 775 -588 
Q 1028 -725 1275 -790 
Q 1522 -856 1778 -856 
Q 2344 -856 2625 -561 
Q 2906 -266 2906 331 
L 2906 616 
Q 2728 306 2450 153 
Q 2172 0 1784 0 
Q 1141 0 747 490 
Q 353 981 353 1791 
Q 353 2603 747 3093 
Q 1141 3584 1784 3584 
Q 2172 3584 2450 3431 
Q 2728 3278 2906 2969 
L 2906 3500 
L 3481 3500 
L 3481 434 
z
" id="DejaVuSans-67" transform="scale(0.015625)"/>
       <path d="M 3122 3366 
L 3122 2828 
Q 2878 2963 2633 3030 
Q 2388 3097 2138 3097 
Q 1578 3097 1268 2742 
Q 959 2388 959 1747 
Q 959 1106 1268 751 
Q 1578 397 2138 397 
Q 2388 397 2633 464 
Q 2878 531 3122 666 
L 3122 134 
Q 2881 22 2623 -34 
Q 2366 -91 2075 -91 
Q 1284 -91 818 406 
Q 353 903 353 1747 
Q 353 2603 823 3093 
Q 1294 3584 2113 3584 
Q 2378 3584 2631 3529 
Q 2884 3475 3122 3366 
z
" id="DejaVuSans-63" transform="scale(0.015625)"/>
       <path d="M 191 3500 
L 800 3500 
L 1894 563 
L 2988 3500 
L 3597 3500 
L 2284 0 
L 1503 0 
L 191 3500 
z
" id="DejaVuSans-76" transform="scale(0.015625)"/>
       <path d="M 2194 1759 
Q 1497 1759 1228 1600 
Q 959 1441 959 1056 
Q 959 750 1161 570 
Q 1363 391 1709 391 
Q 2188 391 2477 730 
Q 2766 1069 2766 1631 
L 2766 1759 
L 2194 1759 
z
M 3341 1997 
L 3341 0 
L 2766 0 
L 2766 531 
Q 2569 213 2275 61 
Q 1981 -91 1556 -91 
Q 1019 -91 701 211 
Q 384 513 384 1019 
Q 384 1609 779 1909 
Q 1175 2209 1959 2209 
L 2766 2209 
L 2766 2266 
Q 2766 2663 2505 2880 
Q 2244 3097 1772 3097 
Q 1472 3097 1187 3025 
Q 903 2953 641 2809 
L 641 3341 
Q 956 3463 1253 3523 
Q 1550 3584 1831 3584 
Q 2591 3584 2966 3190 
Q 3341 2797 3341 1997 
z
" id="DejaVuSans-61" transform="scale(0.015625)"/>
      </defs>
      <use xlink:href="#DejaVuSans-43"/>
      <use x="69.824219" xlink:href="#DejaVuSans-6f"/>
      <use x="131.005859" xlink:href="#DejaVuSans-64"/>
      <use x="194.482422" xlink:href="#DejaVuSans-65"/>
      <use x="256.005859" xlink:href="#DejaVuSans-20"/>
      <use x="287.792969" xlink:href="#DejaVuSans-72"/>
      <use x="326.65625" xlink:href="#DejaVuSans-65"/>
      <use x="388.179688" xlink:href="#DejaVuSans-67"/>
      <use x="451.65625" xlink:href="#DejaVuSans-69"/>
      <use x="479.439453" xlink:href="#DejaVuSans-6f"/>
      <use x="540.621094" xlink:href="#DejaVuSans-6e"/>
      <use x="604" xlink:href="#DejaVuSans-20"/>
      <use x="635.787109" xlink:href="#DejaVuSans-63"/>
      <use x="690.767578" xlink:href="#DejaVuSans-6f"/>
      <use x="751.949219" xlink:href="#DejaVuSans-76"/>
      <use x="811.128906" xlink:href="#DejaVuSans-65"/>
      <use x="872.652344" xlink:href="#DejaVuSans-72"/>
      <use x="913.765625" xlink:href="#DejaVuSans-61"/>
      <use x="975.044922" xlink:href="#DejaVuSans-67"/>
      <use x="1038.521484" xlink:href="#DejaVuSans-65"/>
     </g>
    </g>
   </g>
   <g id="line2d_14">
    <path clip-path="url(#pe26b84beda)" d="M 69.560852 51.034583 
L 73.128485 51.034583 
L 76.696117 47.341148 
L 80.263749 47.341148 
L 83.831382 43.647713 
L 87.399014 43.647713 
L 90.966646 43.647713 
L 94.534279 41.800995 
L 98.101911 39.954278 
L 101.669544 39.954278 
L 105.237176 39.954278 
L 108.804808 39.954278 
L 112.372441 39.954278 
L 115.940073 39.954278 
L 119.507705 39.954278 
L 123.075338 39.954278 
L 126.64297 39.954278 
L 130.210603 39.954278 
L 133.778235 39.954278 
L 137.345867 39.954278 
L 140.9135 39.954278 
L 144.481132 39.954278 
L 148.048764 39.954278 
L 151.616397 39.954278 
L 155.184029 39.954278 
L 158.751661 39.954278 
L 162.319294 39.954278 
L 165.886926 39.954278 
L 169.454559 39.954278 
L 173.022191 39.954278 
L 176.589823 39.954278 
L 180.157456 39.954278 
L 183.725088 39.954278 
L 187.29272 39.954278 
L 190.860353 39.954278 
L 194.427985 39.954278 
L 197.995618 39.954278 
L 201.56325 39.954278 
L 205.130882 39.954278 
L 208.698515 39.954278 
L 212.266147 39.954278 
L 215.833779 39.954278 
L 219.401412 39.954278 
L 222.969044 39.954278 
L 226.536676 39.954278 
L 230.104309 39.954278 
L 233.671941 39.954278 
L 237.239574 39.954278 
L 240.807206 39.954278 
L 244.374838 39.954278 
L 247.942471 39.954278 
L 251.510103 39.954278 
L 255.077735 39.954278 
L 258.645368 39.954278 
L 262.213 39.954278 
L 265.780632 39.954278 
L 269.348265 39.954278 
L 272.915897 39.954278 
L 276.48353 39.954278 
L 280.051162 39.954278 
L 283.618794 39.954278 
L 287.186427 39.954278 
L 290.754059 39.954278 
L 294.321691 39.954278 
L 297.889324 39.954278 
L 301.456956 39.954278 
L 305.024589 39.954278 
L 308.592221 39.954278 
L 312.159853 39.954278 
L 315.727486 39.954278 
L 319.295118 39.954278 
L 322.86275 39.954278 
L 326.430383 39.954278 
L 329.998015 39.954278 
L 333.565647 39.954278 
L 337.13328 39.954278 
L 340.700912 39.954278 
L 344.268545 39.954278 
L 347.836177 39.954278 
L 351.403809 39.954278 
L 354.971442 39.954278 
L 358.539074 39.954278 
L 362.106706 39.954278 
L 365.674339 39.954278 
L 369.241971 39.954278 
L 372.809604 39.954278 
L 376.377236 39.954278 
L 379.944868 39.954278 
L 383.512501 39.954278 
L 387.080133 39.954278 
L 390.647765 39.954278 
L 394.215398 39.954278 
" style="fill:none;stroke:#1f77b4;stroke-linecap:square;stroke-width:1.5;"/>
    <defs>
     <path d="M 0 3 
C 0.795609 3 1.55874 2.683901 2.12132 2.12132 
C 2.683901 1.55874 3 0.795609 3 0 
C 3 -0.795609 2.683901 -1.55874 2.12132 -2.12132 
C 1.55874 -2.683901 0.795609 -3 0 -3 
C -0.795609 -3 -1.55874 -2.683901 -2.12132 -2.12132 
C -2.683901 -1.55874 -3 -0.795609 -3 0 
C -3 0.795609 -2.683901 1.55874 -2.12132 2.12132 
C -1.55874 2.683901 -0.795609 3 0 3 
z
" id="me2ee62bdf9" style="stroke:#ffffff;stroke-width:0.75;"/>
    </defs>
    <g clip-path="url(#pe26b84beda)">
     <use style="fill:#1f77b4;stroke:#ffffff;stroke-width:0.75;" x="69.560852" xlink:href="#me2ee62bdf9" y="51.034583"/>
     <use style="fill:#1f77b4;stroke:#ffffff;stroke-width:0.75;" x="73.128485" xlink:href="#me2ee62bdf9" y="51.034583"/>
     <use style="fill:#1f77b4;stroke:#ffffff;stroke-width:0.75;" x="76.696117" xlink:href="#me2ee62bdf9" y="47.341148"/>
     <use style="fill:#1f77b4;stroke:#ffffff;stroke-width:0.75;" x="80.263749" xlink:href="#me2ee62bdf9" y="47.341148"/>
     <use style="fill:#1f77b4;stroke:#ffffff;stroke-width:0.75;" x="83.831382" xlink:href="#me2ee62bdf9" y="43.647713"/>
     <use style="fill:#1f77b4;stroke:#ffffff;stroke-width:0.75;" x="87.399014" xlink:href="#me2ee62bdf9" y="43.647713"/>
     <use style="fill:#1f77b4;stroke:#ffffff;stroke-width:0.75;" x="90.966646" xlink:href="#me2ee62bdf9" y="43.647713"/>
     <use style="fill:#1f77b4;stroke:#ffffff;stroke-width:0.75;" x="94.534279" xlink:href="#me2ee62bdf9" y="41.800995"/>
     <use style="fill:#1f77b4;stroke:#ffffff;stroke-width:0.75;" x="98.101911" xlink:href="#me2ee62bdf9" y="39.954278"/>
     <use style="fill:#1f77b4;stroke:#ffffff;stroke-width:0.75;" x="101.669544" xlink:href="#me2ee62bdf9" y="39.954278"/>
     <use style="fill:#1f77b4;stroke:#ffffff;stroke-width:0.75;" x="105.237176" xlink:href="#me2ee62bdf9" y="39.954278"/>
     <use style="fill:#1f77b4;stroke:#ffffff;stroke-width:0.75;" x="108.804808" xlink:href="#me2ee62bdf9" y="39.954278"/>
     <use style="fill:#1f77b4;stroke:#ffffff;stroke-width:0.75;" x="112.372441" xlink:href="#me2ee62bdf9" y="39.954278"/>
     <use style="fill:#1f77b4;stroke:#ffffff;stroke-width:0.75;" x="115.940073" xlink:href="#me2ee62bdf9" y="39.954278"/>
     <use style="fill:#1f77b4;stroke:#ffffff;stroke-width:0.75;" x="119.507705" xlink:href="#me2ee62bdf9" y="39.954278"/>
     <use style="fill:#1f77b4;stroke:#ffffff;stroke-width:0.75;" x="123.075338" xlink:href="#me2ee62bdf9" y="39.954278"/>
     <use style="fill:#1f77b4;stroke:#ffffff;stroke-width:0.75;" x="126.64297" xlink:href="#me2ee62bdf9" y="39.954278"/>
     <use style="fill:#1f77b4;stroke:#ffffff;stroke-width:0.75;" x="130.210603" xlink:href="#me2ee62bdf9" y="39.954278"/>
     <use style="fill:#1f77b4;stroke:#ffffff;stroke-width:0.75;" x="133.778235" xlink:href="#me2ee62bdf9" y="39.954278"/>
     <use style="fill:#1f77b4;stroke:#ffffff;stroke-width:0.75;" x="137.345867" xlink:href="#me2ee62bdf9" y="39.954278"/>
     <use style="fill:#1f77b4;stroke:#ffffff;stroke-width:0.75;" x="140.9135" xlink:href="#me2ee62bdf9" y="39.954278"/>
     <use style="fill:#1f77b4;stroke:#ffffff;stroke-width:0.75;" x="144.481132" xlink:href="#me2ee62bdf9" y="39.954278"/>
     <use style="fill:#1f77b4;stroke:#ffffff;stroke-width:0.75;" x="148.048764" xlink:href="#me2ee62bdf9" y="39.954278"/>
     <use style="fill:#1f77b4;stroke:#ffffff;stroke-width:0.75;" x="151.616397" xlink:href="#me2ee62bdf9" y="39.954278"/>
     <use style="fill:#1f77b4;stroke:#ffffff;stroke-width:0.75;" x="155.184029" xlink:href="#me2ee62bdf9" y="39.954278"/>
     <use style="fill:#1f77b4;stroke:#ffffff;stroke-width:0.75;" x="158.751661" xlink:href="#me2ee62bdf9" y="39.954278"/>
     <use style="fill:#1f77b4;stroke:#ffffff;stroke-width:0.75;" x="162.319294" xlink:href="#me2ee62bdf9" y="39.954278"/>
     <use style="fill:#1f77b4;stroke:#ffffff;stroke-width:0.75;" x="165.886926" xlink:href="#me2ee62bdf9" y="39.954278"/>
     <use style="fill:#1f77b4;stroke:#ffffff;stroke-width:0.75;" x="169.454559" xlink:href="#me2ee62bdf9" y="39.954278"/>
     <use style="fill:#1f77b4;stroke:#ffffff;stroke-width:0.75;" x="173.022191" xlink:href="#me2ee62bdf9" y="39.954278"/>
     <use style="fill:#1f77b4;stroke:#ffffff;stroke-width:0.75;" x="176.589823" xlink:href="#me2ee62bdf9" y="39.954278"/>
     <use style="fill:#1f77b4;stroke:#ffffff;stroke-width:0.75;" x="180.157456" xlink:href="#me2ee62bdf9" y="39.954278"/>
     <use style="fill:#1f77b4;stroke:#ffffff;stroke-width:0.75;" x="183.725088" xlink:href="#me2ee62bdf9" y="39.954278"/>
     <use style="fill:#1f77b4;stroke:#ffffff;stroke-width:0.75;" x="187.29272" xlink:href="#me2ee62bdf9" y="39.954278"/>
     <use style="fill:#1f77b4;stroke:#ffffff;stroke-width:0.75;" x="190.860353" xlink:href="#me2ee62bdf9" y="39.954278"/>
     <use style="fill:#1f77b4;stroke:#ffffff;stroke-width:0.75;" x="194.427985" xlink:href="#me2ee62bdf9" y="39.954278"/>
     <use style="fill:#1f77b4;stroke:#ffffff;stroke-width:0.75;" x="197.995618" xlink:href="#me2ee62bdf9" y="39.954278"/>
     <use style="fill:#1f77b4;stroke:#ffffff;stroke-width:0.75;" x="201.56325" xlink:href="#me2ee62bdf9" y="39.954278"/>
     <use style="fill:#1f77b4;stroke:#ffffff;stroke-width:0.75;" x="205.130882" xlink:href="#me2ee62bdf9" y="39.954278"/>
     <use style="fill:#1f77b4;stroke:#ffffff;stroke-width:0.75;" x="208.698515" xlink:href="#me2ee62bdf9" y="39.954278"/>
     <use style="fill:#1f77b4;stroke:#ffffff;stroke-width:0.75;" x="212.266147" xlink:href="#me2ee62bdf9" y="39.954278"/>
     <use style="fill:#1f77b4;stroke:#ffffff;stroke-width:0.75;" x="215.833779" xlink:href="#me2ee62bdf9" y="39.954278"/>
     <use style="fill:#1f77b4;stroke:#ffffff;stroke-width:0.75;" x="219.401412" xlink:href="#me2ee62bdf9" y="39.954278"/>
     <use style="fill:#1f77b4;stroke:#ffffff;stroke-width:0.75;" x="222.969044" xlink:href="#me2ee62bdf9" y="39.954278"/>
     <use style="fill:#1f77b4;stroke:#ffffff;stroke-width:0.75;" x="226.536676" xlink:href="#me2ee62bdf9" y="39.954278"/>
     <use style="fill:#1f77b4;stroke:#ffffff;stroke-width:0.75;" x="230.104309" xlink:href="#me2ee62bdf9" y="39.954278"/>
     <use style="fill:#1f77b4;stroke:#ffffff;stroke-width:0.75;" x="233.671941" xlink:href="#me2ee62bdf9" y="39.954278"/>
     <use style="fill:#1f77b4;stroke:#ffffff;stroke-width:0.75;" x="237.239574" xlink:href="#me2ee62bdf9" y="39.954278"/>
     <use style="fill:#1f77b4;stroke:#ffffff;stroke-width:0.75;" x="240.807206" xlink:href="#me2ee62bdf9" y="39.954278"/>
     <use style="fill:#1f77b4;stroke:#ffffff;stroke-width:0.75;" x="244.374838" xlink:href="#me2ee62bdf9" y="39.954278"/>
     <use style="fill:#1f77b4;stroke:#ffffff;stroke-width:0.75;" x="247.942471" xlink:href="#me2ee62bdf9" y="39.954278"/>
     <use style="fill:#1f77b4;stroke:#ffffff;stroke-width:0.75;" x="251.510103" xlink:href="#me2ee62bdf9" y="39.954278"/>
     <use style="fill:#1f77b4;stroke:#ffffff;stroke-width:0.75;" x="255.077735" xlink:href="#me2ee62bdf9" y="39.954278"/>
     <use style="fill:#1f77b4;stroke:#ffffff;stroke-width:0.75;" x="258.645368" xlink:href="#me2ee62bdf9" y="39.954278"/>
     <use style="fill:#1f77b4;stroke:#ffffff;stroke-width:0.75;" x="262.213" xlink:href="#me2ee62bdf9" y="39.954278"/>
     <use style="fill:#1f77b4;stroke:#ffffff;stroke-width:0.75;" x="265.780632" xlink:href="#me2ee62bdf9" y="39.954278"/>
     <use style="fill:#1f77b4;stroke:#ffffff;stroke-width:0.75;" x="269.348265" xlink:href="#me2ee62bdf9" y="39.954278"/>
     <use style="fill:#1f77b4;stroke:#ffffff;stroke-width:0.75;" x="272.915897" xlink:href="#me2ee62bdf9" y="39.954278"/>
     <use style="fill:#1f77b4;stroke:#ffffff;stroke-width:0.75;" x="276.48353" xlink:href="#me2ee62bdf9" y="39.954278"/>
     <use style="fill:#1f77b4;stroke:#ffffff;stroke-width:0.75;" x="280.051162" xlink:href="#me2ee62bdf9" y="39.954278"/>
     <use style="fill:#1f77b4;stroke:#ffffff;stroke-width:0.75;" x="283.618794" xlink:href="#me2ee62bdf9" y="39.954278"/>
     <use style="fill:#1f77b4;stroke:#ffffff;stroke-width:0.75;" x="287.186427" xlink:href="#me2ee62bdf9" y="39.954278"/>
     <use style="fill:#1f77b4;stroke:#ffffff;stroke-width:0.75;" x="290.754059" xlink:href="#me2ee62bdf9" y="39.954278"/>
     <use style="fill:#1f77b4;stroke:#ffffff;stroke-width:0.75;" x="294.321691" xlink:href="#me2ee62bdf9" y="39.954278"/>
     <use style="fill:#1f77b4;stroke:#ffffff;stroke-width:0.75;" x="297.889324" xlink:href="#me2ee62bdf9" y="39.954278"/>
     <use style="fill:#1f77b4;stroke:#ffffff;stroke-width:0.75;" x="301.456956" xlink:href="#me2ee62bdf9" y="39.954278"/>
     <use style="fill:#1f77b4;stroke:#ffffff;stroke-width:0.75;" x="305.024589" xlink:href="#me2ee62bdf9" y="39.954278"/>
     <use style="fill:#1f77b4;stroke:#ffffff;stroke-width:0.75;" x="308.592221" xlink:href="#me2ee62bdf9" y="39.954278"/>
     <use style="fill:#1f77b4;stroke:#ffffff;stroke-width:0.75;" x="312.159853" xlink:href="#me2ee62bdf9" y="39.954278"/>
     <use style="fill:#1f77b4;stroke:#ffffff;stroke-width:0.75;" x="315.727486" xlink:href="#me2ee62bdf9" y="39.954278"/>
     <use style="fill:#1f77b4;stroke:#ffffff;stroke-width:0.75;" x="319.295118" xlink:href="#me2ee62bdf9" y="39.954278"/>
     <use style="fill:#1f77b4;stroke:#ffffff;stroke-width:0.75;" x="322.86275" xlink:href="#me2ee62bdf9" y="39.954278"/>
     <use style="fill:#1f77b4;stroke:#ffffff;stroke-width:0.75;" x="326.430383" xlink:href="#me2ee62bdf9" y="39.954278"/>
     <use style="fill:#1f77b4;stroke:#ffffff;stroke-width:0.75;" x="329.998015" xlink:href="#me2ee62bdf9" y="39.954278"/>
     <use style="fill:#1f77b4;stroke:#ffffff;stroke-width:0.75;" x="333.565647" xlink:href="#me2ee62bdf9" y="39.954278"/>
     <use style="fill:#1f77b4;stroke:#ffffff;stroke-width:0.75;" x="337.13328" xlink:href="#me2ee62bdf9" y="39.954278"/>
     <use style="fill:#1f77b4;stroke:#ffffff;stroke-width:0.75;" x="340.700912" xlink:href="#me2ee62bdf9" y="39.954278"/>
     <use style="fill:#1f77b4;stroke:#ffffff;stroke-width:0.75;" x="344.268545" xlink:href="#me2ee62bdf9" y="39.954278"/>
     <use style="fill:#1f77b4;stroke:#ffffff;stroke-width:0.75;" x="347.836177" xlink:href="#me2ee62bdf9" y="39.954278"/>
     <use style="fill:#1f77b4;stroke:#ffffff;stroke-width:0.75;" x="351.403809" xlink:href="#me2ee62bdf9" y="39.954278"/>
     <use style="fill:#1f77b4;stroke:#ffffff;stroke-width:0.75;" x="354.971442" xlink:href="#me2ee62bdf9" y="39.954278"/>
     <use style="fill:#1f77b4;stroke:#ffffff;stroke-width:0.75;" x="358.539074" xlink:href="#me2ee62bdf9" y="39.954278"/>
     <use style="fill:#1f77b4;stroke:#ffffff;stroke-width:0.75;" x="362.106706" xlink:href="#me2ee62bdf9" y="39.954278"/>
     <use style="fill:#1f77b4;stroke:#ffffff;stroke-width:0.75;" x="365.674339" xlink:href="#me2ee62bdf9" y="39.954278"/>
     <use style="fill:#1f77b4;stroke:#ffffff;stroke-width:0.75;" x="369.241971" xlink:href="#me2ee62bdf9" y="39.954278"/>
     <use style="fill:#1f77b4;stroke:#ffffff;stroke-width:0.75;" x="372.809604" xlink:href="#me2ee62bdf9" y="39.954278"/>
     <use style="fill:#1f77b4;stroke:#ffffff;stroke-width:0.75;" x="376.377236" xlink:href="#me2ee62bdf9" y="39.954278"/>
     <use style="fill:#1f77b4;stroke:#ffffff;stroke-width:0.75;" x="379.944868" xlink:href="#me2ee62bdf9" y="39.954278"/>
     <use style="fill:#1f77b4;stroke:#ffffff;stroke-width:0.75;" x="383.512501" xlink:href="#me2ee62bdf9" y="39.954278"/>
     <use style="fill:#1f77b4;stroke:#ffffff;stroke-width:0.75;" x="387.080133" xlink:href="#me2ee62bdf9" y="39.954278"/>
     <use style="fill:#1f77b4;stroke:#ffffff;stroke-width:0.75;" x="390.647765" xlink:href="#me2ee62bdf9" y="39.954278"/>
     <use style="fill:#1f77b4;stroke:#ffffff;stroke-width:0.75;" x="394.215398" xlink:href="#me2ee62bdf9" y="39.954278"/>
    </g>
   </g>
   <g id="line2d_15">
    <path clip-path="url(#pe26b84beda)" d="M 69.560852 62.114888 
L 73.128485 51.034583 
L 76.696117 47.341148 
L 80.263749 47.341148 
L 83.831382 47.341148 
L 87.399014 45.49443 
L 90.966646 43.647713 
L 94.534279 43.647713 
L 98.101911 43.647713 
L 101.669544 43.647713 
L 105.237176 43.647713 
L 108.804808 43.647713 
L 112.372441 43.647713 
L 115.940073 41.800995 
L 119.507705 41.800995 
L 123.075338 41.800995 
L 126.64297 41.800995 
L 130.210603 39.954278 
L 133.778235 39.954278 
L 137.345867 39.954278 
L 140.9135 39.954278 
L 144.481132 39.954278 
L 148.048764 39.954278 
L 151.616397 39.954278 
L 155.184029 39.954278 
L 158.751661 39.954278 
L 162.319294 39.954278 
L 165.886926 39.954278 
L 169.454559 39.954278 
L 173.022191 39.954278 
L 176.589823 39.954278 
L 180.157456 39.954278 
L 183.725088 39.954278 
L 187.29272 39.954278 
L 190.860353 39.954278 
L 194.427985 39.954278 
L 197.995618 39.954278 
L 201.56325 38.10756 
L 205.130882 38.10756 
L 208.698515 38.10756 
L 212.266147 38.10756 
L 215.833779 38.10756 
L 219.401412 36.260843 
L 222.969044 36.260843 
L 226.536676 36.260843 
L 230.104309 36.260843 
L 233.671941 36.260843 
L 237.239574 36.260843 
L 240.807206 36.260843 
L 244.374838 36.260843 
L 247.942471 36.260843 
L 251.510103 36.260843 
L 255.077735 36.260843 
L 258.645368 36.260843 
L 262.213 36.260843 
L 265.780632 36.260843 
L 269.348265 36.260843 
L 272.915897 36.260843 
L 276.48353 36.260843 
L 280.051162 36.260843 
L 283.618794 36.260843 
L 287.186427 36.260843 
L 290.754059 36.260843 
L 294.321691 36.260843 
L 297.889324 36.260843 
L 301.456956 36.260843 
L 305.024589 36.260843 
L 308.592221 36.260843 
L 312.159853 36.260843 
L 315.727486 36.260843 
L 319.295118 36.260843 
L 322.86275 36.260843 
L 326.430383 36.260843 
L 329.998015 36.260843 
L 333.565647 36.260843 
L 337.13328 36.260843 
L 340.700912 36.260843 
L 344.268545 36.260843 
L 347.836177 36.260843 
L 351.403809 36.260843 
L 354.971442 36.260843 
L 358.539074 36.260843 
L 362.106706 36.260843 
L 365.674339 36.260843 
L 369.241971 36.260843 
L 372.809604 36.260843 
L 376.377236 36.260843 
L 379.944868 36.260843 
L 383.512501 36.260843 
L 387.080133 36.260843 
L 390.647765 36.260843 
L 394.215398 36.260843 
" style="fill:none;stroke:#d62728;stroke-linecap:square;stroke-width:1.5;"/>
    <defs>
     <path d="M 0 -3 
L -3 3 
L 3 3 
z
" id="m66fdbeaf88" style="stroke:#ffffff;stroke-linejoin:miter;stroke-width:0.75;"/>
    </defs>
    <g clip-path="url(#pe26b84beda)">
     <use style="fill:#d62728;stroke:#ffffff;stroke-linejoin:miter;stroke-width:0.75;" x="69.560852" xlink:href="#m66fdbeaf88" y="62.114888"/>
     <use style="fill:#d62728;stroke:#ffffff;stroke-linejoin:miter;stroke-width:0.75;" x="73.128485" xlink:href="#m66fdbeaf88" y="51.034583"/>
     <use style="fill:#d62728;stroke:#ffffff;stroke-linejoin:miter;stroke-width:0.75;" x="76.696117" xlink:href="#m66fdbeaf88" y="47.341148"/>
     <use style="fill:#d62728;stroke:#ffffff;stroke-linejoin:miter;stroke-width:0.75;" x="80.263749" xlink:href="#m66fdbeaf88" y="47.341148"/>
     <use style="fill:#d62728;stroke:#ffffff;stroke-linejoin:miter;stroke-width:0.75;" x="83.831382" xlink:href="#m66fdbeaf88" y="47.341148"/>
     <use style="fill:#d62728;stroke:#ffffff;stroke-linejoin:miter;stroke-width:0.75;" x="87.399014" xlink:href="#m66fdbeaf88" y="45.49443"/>
     <use style="fill:#d62728;stroke:#ffffff;stroke-linejoin:miter;stroke-width:0.75;" x="90.966646" xlink:href="#m66fdbeaf88" y="43.647713"/>
     <use style="fill:#d62728;stroke:#ffffff;stroke-linejoin:miter;stroke-width:0.75;" x="94.534279" xlink:href="#m66fdbeaf88" y="43.647713"/>
     <use style="fill:#d62728;stroke:#ffffff;stroke-linejoin:miter;stroke-width:0.75;" x="98.101911" xlink:href="#m66fdbeaf88" y="43.647713"/>
     <use style="fill:#d62728;stroke:#ffffff;stroke-linejoin:miter;stroke-width:0.75;" x="101.669544" xlink:href="#m66fdbeaf88" y="43.647713"/>
     <use style="fill:#d62728;stroke:#ffffff;stroke-linejoin:miter;stroke-width:0.75;" x="105.237176" xlink:href="#m66fdbeaf88" y="43.647713"/>
     <use style="fill:#d62728;stroke:#ffffff;stroke-linejoin:miter;stroke-width:0.75;" x="108.804808" xlink:href="#m66fdbeaf88" y="43.647713"/>
     <use style="fill:#d62728;stroke:#ffffff;stroke-linejoin:miter;stroke-width:0.75;" x="112.372441" xlink:href="#m66fdbeaf88" y="43.647713"/>
     <use style="fill:#d62728;stroke:#ffffff;stroke-linejoin:miter;stroke-width:0.75;" x="115.940073" xlink:href="#m66fdbeaf88" y="41.800995"/>
     <use style="fill:#d62728;stroke:#ffffff;stroke-linejoin:miter;stroke-width:0.75;" x="119.507705" xlink:href="#m66fdbeaf88" y="41.800995"/>
     <use style="fill:#d62728;stroke:#ffffff;stroke-linejoin:miter;stroke-width:0.75;" x="123.075338" xlink:href="#m66fdbeaf88" y="41.800995"/>
     <use style="fill:#d62728;stroke:#ffffff;stroke-linejoin:miter;stroke-width:0.75;" x="126.64297" xlink:href="#m66fdbeaf88" y="41.800995"/>
     <use style="fill:#d62728;stroke:#ffffff;stroke-linejoin:miter;stroke-width:0.75;" x="130.210603" xlink:href="#m66fdbeaf88" y="39.954278"/>
     <use style="fill:#d62728;stroke:#ffffff;stroke-linejoin:miter;stroke-width:0.75;" x="133.778235" xlink:href="#m66fdbeaf88" y="39.954278"/>
     <use style="fill:#d62728;stroke:#ffffff;stroke-linejoin:miter;stroke-width:0.75;" x="137.345867" xlink:href="#m66fdbeaf88" y="39.954278"/>
     <use style="fill:#d62728;stroke:#ffffff;stroke-linejoin:miter;stroke-width:0.75;" x="140.9135" xlink:href="#m66fdbeaf88" y="39.954278"/>
     <use style="fill:#d62728;stroke:#ffffff;stroke-linejoin:miter;stroke-width:0.75;" x="144.481132" xlink:href="#m66fdbeaf88" y="39.954278"/>
     <use style="fill:#d62728;stroke:#ffffff;stroke-linejoin:miter;stroke-width:0.75;" x="148.048764" xlink:href="#m66fdbeaf88" y="39.954278"/>
     <use style="fill:#d62728;stroke:#ffffff;stroke-linejoin:miter;stroke-width:0.75;" x="151.616397" xlink:href="#m66fdbeaf88" y="39.954278"/>
     <use style="fill:#d62728;stroke:#ffffff;stroke-linejoin:miter;stroke-width:0.75;" x="155.184029" xlink:href="#m66fdbeaf88" y="39.954278"/>
     <use style="fill:#d62728;stroke:#ffffff;stroke-linejoin:miter;stroke-width:0.75;" x="158.751661" xlink:href="#m66fdbeaf88" y="39.954278"/>
     <use style="fill:#d62728;stroke:#ffffff;stroke-linejoin:miter;stroke-width:0.75;" x="162.319294" xlink:href="#m66fdbeaf88" y="39.954278"/>
     <use style="fill:#d62728;stroke:#ffffff;stroke-linejoin:miter;stroke-width:0.75;" x="165.886926" xlink:href="#m66fdbeaf88" y="39.954278"/>
     <use style="fill:#d62728;stroke:#ffffff;stroke-linejoin:miter;stroke-width:0.75;" x="169.454559" xlink:href="#m66fdbeaf88" y="39.954278"/>
     <use style="fill:#d62728;stroke:#ffffff;stroke-linejoin:miter;stroke-width:0.75;" x="173.022191" xlink:href="#m66fdbeaf88" y="39.954278"/>
     <use style="fill:#d62728;stroke:#ffffff;stroke-linejoin:miter;stroke-width:0.75;" x="176.589823" xlink:href="#m66fdbeaf88" y="39.954278"/>
     <use style="fill:#d62728;stroke:#ffffff;stroke-linejoin:miter;stroke-width:0.75;" x="180.157456" xlink:href="#m66fdbeaf88" y="39.954278"/>
     <use style="fill:#d62728;stroke:#ffffff;stroke-linejoin:miter;stroke-width:0.75;" x="183.725088" xlink:href="#m66fdbeaf88" y="39.954278"/>
     <use style="fill:#d62728;stroke:#ffffff;stroke-linejoin:miter;stroke-width:0.75;" x="187.29272" xlink:href="#m66fdbeaf88" y="39.954278"/>
     <use style="fill:#d62728;stroke:#ffffff;stroke-linejoin:miter;stroke-width:0.75;" x="190.860353" xlink:href="#m66fdbeaf88" y="39.954278"/>
     <use style="fill:#d62728;stroke:#ffffff;stroke-linejoin:miter;stroke-width:0.75;" x="194.427985" xlink:href="#m66fdbeaf88" y="39.954278"/>
     <use style="fill:#d62728;stroke:#ffffff;stroke-linejoin:miter;stroke-width:0.75;" x="197.995618" xlink:href="#m66fdbeaf88" y="39.954278"/>
     <use style="fill:#d62728;stroke:#ffffff;stroke-linejoin:miter;stroke-width:0.75;" x="201.56325" xlink:href="#m66fdbeaf88" y="38.10756"/>
     <use style="fill:#d62728;stroke:#ffffff;stroke-linejoin:miter;stroke-width:0.75;" x="205.130882" xlink:href="#m66fdbeaf88" y="38.10756"/>
     <use style="fill:#d62728;stroke:#ffffff;stroke-linejoin:miter;stroke-width:0.75;" x="208.698515" xlink:href="#m66fdbeaf88" y="38.10756"/>
     <use style="fill:#d62728;stroke:#ffffff;stroke-linejoin:miter;stroke-width:0.75;" x="212.266147" xlink:href="#m66fdbeaf88" y="38.10756"/>
     <use style="fill:#d62728;stroke:#ffffff;stroke-linejoin:miter;stroke-width:0.75;" x="215.833779" xlink:href="#m66fdbeaf88" y="38.10756"/>
     <use style="fill:#d62728;stroke:#ffffff;stroke-linejoin:miter;stroke-width:0.75;" x="219.401412" xlink:href="#m66fdbeaf88" y="36.260843"/>
     <use style="fill:#d62728;stroke:#ffffff;stroke-linejoin:miter;stroke-width:0.75;" x="222.969044" xlink:href="#m66fdbeaf88" y="36.260843"/>
     <use style="fill:#d62728;stroke:#ffffff;stroke-linejoin:miter;stroke-width:0.75;" x="226.536676" xlink:href="#m66fdbeaf88" y="36.260843"/>
     <use style="fill:#d62728;stroke:#ffffff;stroke-linejoin:miter;stroke-width:0.75;" x="230.104309" xlink:href="#m66fdbeaf88" y="36.260843"/>
     <use style="fill:#d62728;stroke:#ffffff;stroke-linejoin:miter;stroke-width:0.75;" x="233.671941" xlink:href="#m66fdbeaf88" y="36.260843"/>
     <use style="fill:#d62728;stroke:#ffffff;stroke-linejoin:miter;stroke-width:0.75;" x="237.239574" xlink:href="#m66fdbeaf88" y="36.260843"/>
     <use style="fill:#d62728;stroke:#ffffff;stroke-linejoin:miter;stroke-width:0.75;" x="240.807206" xlink:href="#m66fdbeaf88" y="36.260843"/>
     <use style="fill:#d62728;stroke:#ffffff;stroke-linejoin:miter;stroke-width:0.75;" x="244.374838" xlink:href="#m66fdbeaf88" y="36.260843"/>
     <use style="fill:#d62728;stroke:#ffffff;stroke-linejoin:miter;stroke-width:0.75;" x="247.942471" xlink:href="#m66fdbeaf88" y="36.260843"/>
     <use style="fill:#d62728;stroke:#ffffff;stroke-linejoin:miter;stroke-width:0.75;" x="251.510103" xlink:href="#m66fdbeaf88" y="36.260843"/>
     <use style="fill:#d62728;stroke:#ffffff;stroke-linejoin:miter;stroke-width:0.75;" x="255.077735" xlink:href="#m66fdbeaf88" y="36.260843"/>
     <use style="fill:#d62728;stroke:#ffffff;stroke-linejoin:miter;stroke-width:0.75;" x="258.645368" xlink:href="#m66fdbeaf88" y="36.260843"/>
     <use style="fill:#d62728;stroke:#ffffff;stroke-linejoin:miter;stroke-width:0.75;" x="262.213" xlink:href="#m66fdbeaf88" y="36.260843"/>
     <use style="fill:#d62728;stroke:#ffffff;stroke-linejoin:miter;stroke-width:0.75;" x="265.780632" xlink:href="#m66fdbeaf88" y="36.260843"/>
     <use style="fill:#d62728;stroke:#ffffff;stroke-linejoin:miter;stroke-width:0.75;" x="269.348265" xlink:href="#m66fdbeaf88" y="36.260843"/>
     <use style="fill:#d62728;stroke:#ffffff;stroke-linejoin:miter;stroke-width:0.75;" x="272.915897" xlink:href="#m66fdbeaf88" y="36.260843"/>
     <use style="fill:#d62728;stroke:#ffffff;stroke-linejoin:miter;stroke-width:0.75;" x="276.48353" xlink:href="#m66fdbeaf88" y="36.260843"/>
     <use style="fill:#d62728;stroke:#ffffff;stroke-linejoin:miter;stroke-width:0.75;" x="280.051162" xlink:href="#m66fdbeaf88" y="36.260843"/>
     <use style="fill:#d62728;stroke:#ffffff;stroke-linejoin:miter;stroke-width:0.75;" x="283.618794" xlink:href="#m66fdbeaf88" y="36.260843"/>
     <use style="fill:#d62728;stroke:#ffffff;stroke-linejoin:miter;stroke-width:0.75;" x="287.186427" xlink:href="#m66fdbeaf88" y="36.260843"/>
     <use style="fill:#d62728;stroke:#ffffff;stroke-linejoin:miter;stroke-width:0.75;" x="290.754059" xlink:href="#m66fdbeaf88" y="36.260843"/>
     <use style="fill:#d62728;stroke:#ffffff;stroke-linejoin:miter;stroke-width:0.75;" x="294.321691" xlink:href="#m66fdbeaf88" y="36.260843"/>
     <use style="fill:#d62728;stroke:#ffffff;stroke-linejoin:miter;stroke-width:0.75;" x="297.889324" xlink:href="#m66fdbeaf88" y="36.260843"/>
     <use style="fill:#d62728;stroke:#ffffff;stroke-linejoin:miter;stroke-width:0.75;" x="301.456956" xlink:href="#m66fdbeaf88" y="36.260843"/>
     <use style="fill:#d62728;stroke:#ffffff;stroke-linejoin:miter;stroke-width:0.75;" x="305.024589" xlink:href="#m66fdbeaf88" y="36.260843"/>
     <use style="fill:#d62728;stroke:#ffffff;stroke-linejoin:miter;stroke-width:0.75;" x="308.592221" xlink:href="#m66fdbeaf88" y="36.260843"/>
     <use style="fill:#d62728;stroke:#ffffff;stroke-linejoin:miter;stroke-width:0.75;" x="312.159853" xlink:href="#m66fdbeaf88" y="36.260843"/>
     <use style="fill:#d62728;stroke:#ffffff;stroke-linejoin:miter;stroke-width:0.75;" x="315.727486" xlink:href="#m66fdbeaf88" y="36.260843"/>
     <use style="fill:#d62728;stroke:#ffffff;stroke-linejoin:miter;stroke-width:0.75;" x="319.295118" xlink:href="#m66fdbeaf88" y="36.260843"/>
     <use style="fill:#d62728;stroke:#ffffff;stroke-linejoin:miter;stroke-width:0.75;" x="322.86275" xlink:href="#m66fdbeaf88" y="36.260843"/>
     <use style="fill:#d62728;stroke:#ffffff;stroke-linejoin:miter;stroke-width:0.75;" x="326.430383" xlink:href="#m66fdbeaf88" y="36.260843"/>
     <use style="fill:#d62728;stroke:#ffffff;stroke-linejoin:miter;stroke-width:0.75;" x="329.998015" xlink:href="#m66fdbeaf88" y="36.260843"/>
     <use style="fill:#d62728;stroke:#ffffff;stroke-linejoin:miter;stroke-width:0.75;" x="333.565647" xlink:href="#m66fdbeaf88" y="36.260843"/>
     <use style="fill:#d62728;stroke:#ffffff;stroke-linejoin:miter;stroke-width:0.75;" x="337.13328" xlink:href="#m66fdbeaf88" y="36.260843"/>
     <use style="fill:#d62728;stroke:#ffffff;stroke-linejoin:miter;stroke-width:0.75;" x="340.700912" xlink:href="#m66fdbeaf88" y="36.260843"/>
     <use style="fill:#d62728;stroke:#ffffff;stroke-linejoin:miter;stroke-width:0.75;" x="344.268545" xlink:href="#m66fdbeaf88" y="36.260843"/>
     <use style="fill:#d62728;stroke:#ffffff;stroke-linejoin:miter;stroke-width:0.75;" x="347.836177" xlink:href="#m66fdbeaf88" y="36.260843"/>
     <use style="fill:#d62728;stroke:#ffffff;stroke-linejoin:miter;stroke-width:0.75;" x="351.403809" xlink:href="#m66fdbeaf88" y="36.260843"/>
     <use style="fill:#d62728;stroke:#ffffff;stroke-linejoin:miter;stroke-width:0.75;" x="354.971442" xlink:href="#m66fdbeaf88" y="36.260843"/>
     <use style="fill:#d62728;stroke:#ffffff;stroke-linejoin:miter;stroke-width:0.75;" x="358.539074" xlink:href="#m66fdbeaf88" y="36.260843"/>
     <use style="fill:#d62728;stroke:#ffffff;stroke-linejoin:miter;stroke-width:0.75;" x="362.106706" xlink:href="#m66fdbeaf88" y="36.260843"/>
     <use style="fill:#d62728;stroke:#ffffff;stroke-linejoin:miter;stroke-width:0.75;" x="365.674339" xlink:href="#m66fdbeaf88" y="36.260843"/>
     <use style="fill:#d62728;stroke:#ffffff;stroke-linejoin:miter;stroke-width:0.75;" x="369.241971" xlink:href="#m66fdbeaf88" y="36.260843"/>
     <use style="fill:#d62728;stroke:#ffffff;stroke-linejoin:miter;stroke-width:0.75;" x="372.809604" xlink:href="#m66fdbeaf88" y="36.260843"/>
     <use style="fill:#d62728;stroke:#ffffff;stroke-linejoin:miter;stroke-width:0.75;" x="376.377236" xlink:href="#m66fdbeaf88" y="36.260843"/>
     <use style="fill:#d62728;stroke:#ffffff;stroke-linejoin:miter;stroke-width:0.75;" x="379.944868" xlink:href="#m66fdbeaf88" y="36.260843"/>
     <use style="fill:#d62728;stroke:#ffffff;stroke-linejoin:miter;stroke-width:0.75;" x="383.512501" xlink:href="#m66fdbeaf88" y="36.260843"/>
     <use style="fill:#d62728;stroke:#ffffff;stroke-linejoin:miter;stroke-width:0.75;" x="387.080133" xlink:href="#m66fdbeaf88" y="36.260843"/>
     <use style="fill:#d62728;stroke:#ffffff;stroke-linejoin:miter;stroke-width:0.75;" x="390.647765" xlink:href="#m66fdbeaf88" y="36.260843"/>
     <use style="fill:#d62728;stroke:#ffffff;stroke-linejoin:miter;stroke-width:0.75;" x="394.215398" xlink:href="#m66fdbeaf88" y="36.260843"/>
    </g>
   </g>
   <g id="line2d_16">
    <path clip-path="url(#pe26b84beda)" d="M 69.560852 171.071224 
L 73.128485 169.224507 
L 76.696117 169.224507 
L 80.263749 158.144201 
L 83.831382 152.604049 
L 87.399014 152.604049 
L 90.966646 123.056568 
L 94.534279 123.056568 
L 98.101911 123.056568 
L 101.669544 123.056568 
L 105.237176 123.056568 
L 108.804808 123.056568 
L 112.372441 123.056568 
L 115.940073 119.363133 
L 119.507705 117.516415 
L 123.075338 115.669698 
L 126.64297 111.976262 
L 130.210603 111.976262 
L 133.778235 111.976262 
L 137.345867 111.976262 
L 140.9135 106.43611 
L 144.481132 106.43611 
L 148.048764 106.43611 
L 151.616397 106.43611 
L 155.184029 106.43611 
L 158.751661 106.43611 
L 162.319294 106.43611 
L 165.886926 106.43611 
L 169.454559 106.43611 
L 173.022191 106.43611 
L 176.589823 106.43611 
L 180.157456 100.895957 
L 183.725088 100.895957 
L 187.29272 100.895957 
L 190.860353 100.895957 
L 194.427985 100.895957 
L 197.995618 100.895957 
L 201.56325 100.895957 
L 205.130882 100.895957 
L 208.698515 100.895957 
L 212.266147 100.895957 
L 215.833779 100.895957 
L 219.401412 100.895957 
L 222.969044 100.895957 
L 226.536676 100.895957 
L 230.104309 97.202522 
L 233.671941 86.122217 
L 237.239574 86.122217 
L 240.807206 86.122217 
L 244.374838 86.122217 
L 247.942471 86.122217 
L 251.510103 86.122217 
L 255.077735 86.122217 
L 258.645368 86.122217 
L 262.213 86.122217 
L 265.780632 86.122217 
L 269.348265 86.122217 
L 272.915897 86.122217 
L 276.48353 86.122217 
L 280.051162 86.122217 
L 283.618794 86.122217 
L 287.186427 86.122217 
L 290.754059 86.122217 
L 294.321691 86.122217 
L 297.889324 86.122217 
L 301.456956 86.122217 
L 305.024589 86.122217 
L 308.592221 86.122217 
L 312.159853 86.122217 
L 315.727486 86.122217 
L 319.295118 86.122217 
L 322.86275 86.122217 
L 326.430383 86.122217 
L 329.998015 86.122217 
L 333.565647 86.122217 
L 337.13328 86.122217 
L 340.700912 86.122217 
L 344.268545 86.122217 
L 347.836177 86.122217 
L 351.403809 86.122217 
L 354.971442 86.122217 
L 358.539074 86.122217 
L 362.106706 86.122217 
L 365.674339 86.122217 
L 369.241971 86.122217 
L 372.809604 86.122217 
L 376.377236 86.122217 
L 379.944868 86.122217 
L 383.512501 86.122217 
L 387.080133 86.122217 
L 390.647765 82.428781 
L 394.215398 82.428781 
" style="fill:none;stroke:#98df8a;stroke-linecap:square;stroke-width:1.5;"/>
    <defs>
     <path d="M -0 3 
L 3 -3 
L -3 -3 
z
" id="m49d63d8bca" style="stroke:#ffffff;stroke-linejoin:miter;stroke-width:0.75;"/>
    </defs>
    <g clip-path="url(#pe26b84beda)">
     <use style="fill:#98df8a;stroke:#ffffff;stroke-linejoin:miter;stroke-width:0.75;" x="69.560852" xlink:href="#m49d63d8bca" y="171.071224"/>
     <use style="fill:#98df8a;stroke:#ffffff;stroke-linejoin:miter;stroke-width:0.75;" x="73.128485" xlink:href="#m49d63d8bca" y="169.224507"/>
     <use style="fill:#98df8a;stroke:#ffffff;stroke-linejoin:miter;stroke-width:0.75;" x="76.696117" xlink:href="#m49d63d8bca" y="169.224507"/>
     <use style="fill:#98df8a;stroke:#ffffff;stroke-linejoin:miter;stroke-width:0.75;" x="80.263749" xlink:href="#m49d63d8bca" y="158.144201"/>
     <use style="fill:#98df8a;stroke:#ffffff;stroke-linejoin:miter;stroke-width:0.75;" x="83.831382" xlink:href="#m49d63d8bca" y="152.604049"/>
     <use style="fill:#98df8a;stroke:#ffffff;stroke-linejoin:miter;stroke-width:0.75;" x="87.399014" xlink:href="#m49d63d8bca" y="152.604049"/>
     <use style="fill:#98df8a;stroke:#ffffff;stroke-linejoin:miter;stroke-width:0.75;" x="90.966646" xlink:href="#m49d63d8bca" y="123.056568"/>
     <use style="fill:#98df8a;stroke:#ffffff;stroke-linejoin:miter;stroke-width:0.75;" x="94.534279" xlink:href="#m49d63d8bca" y="123.056568"/>
     <use style="fill:#98df8a;stroke:#ffffff;stroke-linejoin:miter;stroke-width:0.75;" x="98.101911" xlink:href="#m49d63d8bca" y="123.056568"/>
     <use style="fill:#98df8a;stroke:#ffffff;stroke-linejoin:miter;stroke-width:0.75;" x="101.669544" xlink:href="#m49d63d8bca" y="123.056568"/>
     <use style="fill:#98df8a;stroke:#ffffff;stroke-linejoin:miter;stroke-width:0.75;" x="105.237176" xlink:href="#m49d63d8bca" y="123.056568"/>
     <use style="fill:#98df8a;stroke:#ffffff;stroke-linejoin:miter;stroke-width:0.75;" x="108.804808" xlink:href="#m49d63d8bca" y="123.056568"/>
     <use style="fill:#98df8a;stroke:#ffffff;stroke-linejoin:miter;stroke-width:0.75;" x="112.372441" xlink:href="#m49d63d8bca" y="123.056568"/>
     <use style="fill:#98df8a;stroke:#ffffff;stroke-linejoin:miter;stroke-width:0.75;" x="115.940073" xlink:href="#m49d63d8bca" y="119.363133"/>
     <use style="fill:#98df8a;stroke:#ffffff;stroke-linejoin:miter;stroke-width:0.75;" x="119.507705" xlink:href="#m49d63d8bca" y="117.516415"/>
     <use style="fill:#98df8a;stroke:#ffffff;stroke-linejoin:miter;stroke-width:0.75;" x="123.075338" xlink:href="#m49d63d8bca" y="115.669698"/>
     <use style="fill:#98df8a;stroke:#ffffff;stroke-linejoin:miter;stroke-width:0.75;" x="126.64297" xlink:href="#m49d63d8bca" y="111.976262"/>
     <use style="fill:#98df8a;stroke:#ffffff;stroke-linejoin:miter;stroke-width:0.75;" x="130.210603" xlink:href="#m49d63d8bca" y="111.976262"/>
     <use style="fill:#98df8a;stroke:#ffffff;stroke-linejoin:miter;stroke-width:0.75;" x="133.778235" xlink:href="#m49d63d8bca" y="111.976262"/>
     <use style="fill:#98df8a;stroke:#ffffff;stroke-linejoin:miter;stroke-width:0.75;" x="137.345867" xlink:href="#m49d63d8bca" y="111.976262"/>
     <use style="fill:#98df8a;stroke:#ffffff;stroke-linejoin:miter;stroke-width:0.75;" x="140.9135" xlink:href="#m49d63d8bca" y="106.43611"/>
     <use style="fill:#98df8a;stroke:#ffffff;stroke-linejoin:miter;stroke-width:0.75;" x="144.481132" xlink:href="#m49d63d8bca" y="106.43611"/>
     <use style="fill:#98df8a;stroke:#ffffff;stroke-linejoin:miter;stroke-width:0.75;" x="148.048764" xlink:href="#m49d63d8bca" y="106.43611"/>
     <use style="fill:#98df8a;stroke:#ffffff;stroke-linejoin:miter;stroke-width:0.75;" x="151.616397" xlink:href="#m49d63d8bca" y="106.43611"/>
     <use style="fill:#98df8a;stroke:#ffffff;stroke-linejoin:miter;stroke-width:0.75;" x="155.184029" xlink:href="#m49d63d8bca" y="106.43611"/>
     <use style="fill:#98df8a;stroke:#ffffff;stroke-linejoin:miter;stroke-width:0.75;" x="158.751661" xlink:href="#m49d63d8bca" y="106.43611"/>
     <use style="fill:#98df8a;stroke:#ffffff;stroke-linejoin:miter;stroke-width:0.75;" x="162.319294" xlink:href="#m49d63d8bca" y="106.43611"/>
     <use style="fill:#98df8a;stroke:#ffffff;stroke-linejoin:miter;stroke-width:0.75;" x="165.886926" xlink:href="#m49d63d8bca" y="106.43611"/>
     <use style="fill:#98df8a;stroke:#ffffff;stroke-linejoin:miter;stroke-width:0.75;" x="169.454559" xlink:href="#m49d63d8bca" y="106.43611"/>
     <use style="fill:#98df8a;stroke:#ffffff;stroke-linejoin:miter;stroke-width:0.75;" x="173.022191" xlink:href="#m49d63d8bca" y="106.43611"/>
     <use style="fill:#98df8a;stroke:#ffffff;stroke-linejoin:miter;stroke-width:0.75;" x="176.589823" xlink:href="#m49d63d8bca" y="106.43611"/>
     <use style="fill:#98df8a;stroke:#ffffff;stroke-linejoin:miter;stroke-width:0.75;" x="180.157456" xlink:href="#m49d63d8bca" y="100.895957"/>
     <use style="fill:#98df8a;stroke:#ffffff;stroke-linejoin:miter;stroke-width:0.75;" x="183.725088" xlink:href="#m49d63d8bca" y="100.895957"/>
     <use style="fill:#98df8a;stroke:#ffffff;stroke-linejoin:miter;stroke-width:0.75;" x="187.29272" xlink:href="#m49d63d8bca" y="100.895957"/>
     <use style="fill:#98df8a;stroke:#ffffff;stroke-linejoin:miter;stroke-width:0.75;" x="190.860353" xlink:href="#m49d63d8bca" y="100.895957"/>
     <use style="fill:#98df8a;stroke:#ffffff;stroke-linejoin:miter;stroke-width:0.75;" x="194.427985" xlink:href="#m49d63d8bca" y="100.895957"/>
     <use style="fill:#98df8a;stroke:#ffffff;stroke-linejoin:miter;stroke-width:0.75;" x="197.995618" xlink:href="#m49d63d8bca" y="100.895957"/>
     <use style="fill:#98df8a;stroke:#ffffff;stroke-linejoin:miter;stroke-width:0.75;" x="201.56325" xlink:href="#m49d63d8bca" y="100.895957"/>
     <use style="fill:#98df8a;stroke:#ffffff;stroke-linejoin:miter;stroke-width:0.75;" x="205.130882" xlink:href="#m49d63d8bca" y="100.895957"/>
     <use style="fill:#98df8a;stroke:#ffffff;stroke-linejoin:miter;stroke-width:0.75;" x="208.698515" xlink:href="#m49d63d8bca" y="100.895957"/>
     <use style="fill:#98df8a;stroke:#ffffff;stroke-linejoin:miter;stroke-width:0.75;" x="212.266147" xlink:href="#m49d63d8bca" y="100.895957"/>
     <use style="fill:#98df8a;stroke:#ffffff;stroke-linejoin:miter;stroke-width:0.75;" x="215.833779" xlink:href="#m49d63d8bca" y="100.895957"/>
     <use style="fill:#98df8a;stroke:#ffffff;stroke-linejoin:miter;stroke-width:0.75;" x="219.401412" xlink:href="#m49d63d8bca" y="100.895957"/>
     <use style="fill:#98df8a;stroke:#ffffff;stroke-linejoin:miter;stroke-width:0.75;" x="222.969044" xlink:href="#m49d63d8bca" y="100.895957"/>
     <use style="fill:#98df8a;stroke:#ffffff;stroke-linejoin:miter;stroke-width:0.75;" x="226.536676" xlink:href="#m49d63d8bca" y="100.895957"/>
     <use style="fill:#98df8a;stroke:#ffffff;stroke-linejoin:miter;stroke-width:0.75;" x="230.104309" xlink:href="#m49d63d8bca" y="97.202522"/>
     <use style="fill:#98df8a;stroke:#ffffff;stroke-linejoin:miter;stroke-width:0.75;" x="233.671941" xlink:href="#m49d63d8bca" y="86.122217"/>
     <use style="fill:#98df8a;stroke:#ffffff;stroke-linejoin:miter;stroke-width:0.75;" x="237.239574" xlink:href="#m49d63d8bca" y="86.122217"/>
     <use style="fill:#98df8a;stroke:#ffffff;stroke-linejoin:miter;stroke-width:0.75;" x="240.807206" xlink:href="#m49d63d8bca" y="86.122217"/>
     <use style="fill:#98df8a;stroke:#ffffff;stroke-linejoin:miter;stroke-width:0.75;" x="244.374838" xlink:href="#m49d63d8bca" y="86.122217"/>
     <use style="fill:#98df8a;stroke:#ffffff;stroke-linejoin:miter;stroke-width:0.75;" x="247.942471" xlink:href="#m49d63d8bca" y="86.122217"/>
     <use style="fill:#98df8a;stroke:#ffffff;stroke-linejoin:miter;stroke-width:0.75;" x="251.510103" xlink:href="#m49d63d8bca" y="86.122217"/>
     <use style="fill:#98df8a;stroke:#ffffff;stroke-linejoin:miter;stroke-width:0.75;" x="255.077735" xlink:href="#m49d63d8bca" y="86.122217"/>
     <use style="fill:#98df8a;stroke:#ffffff;stroke-linejoin:miter;stroke-width:0.75;" x="258.645368" xlink:href="#m49d63d8bca" y="86.122217"/>
     <use style="fill:#98df8a;stroke:#ffffff;stroke-linejoin:miter;stroke-width:0.75;" x="262.213" xlink:href="#m49d63d8bca" y="86.122217"/>
     <use style="fill:#98df8a;stroke:#ffffff;stroke-linejoin:miter;stroke-width:0.75;" x="265.780632" xlink:href="#m49d63d8bca" y="86.122217"/>
     <use style="fill:#98df8a;stroke:#ffffff;stroke-linejoin:miter;stroke-width:0.75;" x="269.348265" xlink:href="#m49d63d8bca" y="86.122217"/>
     <use style="fill:#98df8a;stroke:#ffffff;stroke-linejoin:miter;stroke-width:0.75;" x="272.915897" xlink:href="#m49d63d8bca" y="86.122217"/>
     <use style="fill:#98df8a;stroke:#ffffff;stroke-linejoin:miter;stroke-width:0.75;" x="276.48353" xlink:href="#m49d63d8bca" y="86.122217"/>
     <use style="fill:#98df8a;stroke:#ffffff;stroke-linejoin:miter;stroke-width:0.75;" x="280.051162" xlink:href="#m49d63d8bca" y="86.122217"/>
     <use style="fill:#98df8a;stroke:#ffffff;stroke-linejoin:miter;stroke-width:0.75;" x="283.618794" xlink:href="#m49d63d8bca" y="86.122217"/>
     <use style="fill:#98df8a;stroke:#ffffff;stroke-linejoin:miter;stroke-width:0.75;" x="287.186427" xlink:href="#m49d63d8bca" y="86.122217"/>
     <use style="fill:#98df8a;stroke:#ffffff;stroke-linejoin:miter;stroke-width:0.75;" x="290.754059" xlink:href="#m49d63d8bca" y="86.122217"/>
     <use style="fill:#98df8a;stroke:#ffffff;stroke-linejoin:miter;stroke-width:0.75;" x="294.321691" xlink:href="#m49d63d8bca" y="86.122217"/>
     <use style="fill:#98df8a;stroke:#ffffff;stroke-linejoin:miter;stroke-width:0.75;" x="297.889324" xlink:href="#m49d63d8bca" y="86.122217"/>
     <use style="fill:#98df8a;stroke:#ffffff;stroke-linejoin:miter;stroke-width:0.75;" x="301.456956" xlink:href="#m49d63d8bca" y="86.122217"/>
     <use style="fill:#98df8a;stroke:#ffffff;stroke-linejoin:miter;stroke-width:0.75;" x="305.024589" xlink:href="#m49d63d8bca" y="86.122217"/>
     <use style="fill:#98df8a;stroke:#ffffff;stroke-linejoin:miter;stroke-width:0.75;" x="308.592221" xlink:href="#m49d63d8bca" y="86.122217"/>
     <use style="fill:#98df8a;stroke:#ffffff;stroke-linejoin:miter;stroke-width:0.75;" x="312.159853" xlink:href="#m49d63d8bca" y="86.122217"/>
     <use style="fill:#98df8a;stroke:#ffffff;stroke-linejoin:miter;stroke-width:0.75;" x="315.727486" xlink:href="#m49d63d8bca" y="86.122217"/>
     <use style="fill:#98df8a;stroke:#ffffff;stroke-linejoin:miter;stroke-width:0.75;" x="319.295118" xlink:href="#m49d63d8bca" y="86.122217"/>
     <use style="fill:#98df8a;stroke:#ffffff;stroke-linejoin:miter;stroke-width:0.75;" x="322.86275" xlink:href="#m49d63d8bca" y="86.122217"/>
     <use style="fill:#98df8a;stroke:#ffffff;stroke-linejoin:miter;stroke-width:0.75;" x="326.430383" xlink:href="#m49d63d8bca" y="86.122217"/>
     <use style="fill:#98df8a;stroke:#ffffff;stroke-linejoin:miter;stroke-width:0.75;" x="329.998015" xlink:href="#m49d63d8bca" y="86.122217"/>
     <use style="fill:#98df8a;stroke:#ffffff;stroke-linejoin:miter;stroke-width:0.75;" x="333.565647" xlink:href="#m49d63d8bca" y="86.122217"/>
     <use style="fill:#98df8a;stroke:#ffffff;stroke-linejoin:miter;stroke-width:0.75;" x="337.13328" xlink:href="#m49d63d8bca" y="86.122217"/>
     <use style="fill:#98df8a;stroke:#ffffff;stroke-linejoin:miter;stroke-width:0.75;" x="340.700912" xlink:href="#m49d63d8bca" y="86.122217"/>
     <use style="fill:#98df8a;stroke:#ffffff;stroke-linejoin:miter;stroke-width:0.75;" x="344.268545" xlink:href="#m49d63d8bca" y="86.122217"/>
     <use style="fill:#98df8a;stroke:#ffffff;stroke-linejoin:miter;stroke-width:0.75;" x="347.836177" xlink:href="#m49d63d8bca" y="86.122217"/>
     <use style="fill:#98df8a;stroke:#ffffff;stroke-linejoin:miter;stroke-width:0.75;" x="351.403809" xlink:href="#m49d63d8bca" y="86.122217"/>
     <use style="fill:#98df8a;stroke:#ffffff;stroke-linejoin:miter;stroke-width:0.75;" x="354.971442" xlink:href="#m49d63d8bca" y="86.122217"/>
     <use style="fill:#98df8a;stroke:#ffffff;stroke-linejoin:miter;stroke-width:0.75;" x="358.539074" xlink:href="#m49d63d8bca" y="86.122217"/>
     <use style="fill:#98df8a;stroke:#ffffff;stroke-linejoin:miter;stroke-width:0.75;" x="362.106706" xlink:href="#m49d63d8bca" y="86.122217"/>
     <use style="fill:#98df8a;stroke:#ffffff;stroke-linejoin:miter;stroke-width:0.75;" x="365.674339" xlink:href="#m49d63d8bca" y="86.122217"/>
     <use style="fill:#98df8a;stroke:#ffffff;stroke-linejoin:miter;stroke-width:0.75;" x="369.241971" xlink:href="#m49d63d8bca" y="86.122217"/>
     <use style="fill:#98df8a;stroke:#ffffff;stroke-linejoin:miter;stroke-width:0.75;" x="372.809604" xlink:href="#m49d63d8bca" y="86.122217"/>
     <use style="fill:#98df8a;stroke:#ffffff;stroke-linejoin:miter;stroke-width:0.75;" x="376.377236" xlink:href="#m49d63d8bca" y="86.122217"/>
     <use style="fill:#98df8a;stroke:#ffffff;stroke-linejoin:miter;stroke-width:0.75;" x="379.944868" xlink:href="#m49d63d8bca" y="86.122217"/>
     <use style="fill:#98df8a;stroke:#ffffff;stroke-linejoin:miter;stroke-width:0.75;" x="383.512501" xlink:href="#m49d63d8bca" y="86.122217"/>
     <use style="fill:#98df8a;stroke:#ffffff;stroke-linejoin:miter;stroke-width:0.75;" x="387.080133" xlink:href="#m49d63d8bca" y="86.122217"/>
     <use style="fill:#98df8a;stroke:#ffffff;stroke-linejoin:miter;stroke-width:0.75;" x="390.647765" xlink:href="#m49d63d8bca" y="82.428781"/>
     <use style="fill:#98df8a;stroke:#ffffff;stroke-linejoin:miter;stroke-width:0.75;" x="394.215398" xlink:href="#m49d63d8bca" y="82.428781"/>
    </g>
   </g>
   <g id="line2d_17"/>
   <g id="line2d_18"/>
   <g id="line2d_19"/>
   <g id="patch_3">
    <path d="M 53.328125 254.173514 
L 53.328125 32.567407 
" style="fill:none;stroke:#000000;stroke-linecap:square;stroke-linejoin:miter;stroke-width:0.8;"/>
   </g>
   <g id="patch_4">
    <path d="M 69.560852 288.430125 
L 343.079334 288.430125 
" style="fill:none;stroke:#000000;stroke-linecap:square;stroke-linejoin:miter;stroke-width:0.8;"/>
   </g>
   <g id="text_16">
    <!-- libgit2_objects_fuzzer (23h, 16 trials/fuzzer) -->
    <g transform="translate(100.383125 16.318125)scale(0.12 -0.12)">
     <defs>
      <path d="M 603 4863 
L 1178 4863 
L 1178 0 
L 603 0 
L 603 4863 
z
" id="DejaVuSans-6c" transform="scale(0.015625)"/>
      <path d="M 3116 1747 
Q 3116 2381 2855 2742 
Q 2594 3103 2138 3103 
Q 1681 3103 1420 2742 
Q 1159 2381 1159 1747 
Q 1159 1113 1420 752 
Q 1681 391 2138 391 
Q 2594 391 2855 752 
Q 3116 1113 3116 1747 
z
M 1159 2969 
Q 1341 3281 1617 3432 
Q 1894 3584 2278 3584 
Q 2916 3584 3314 3078 
Q 3713 2572 3713 1747 
Q 3713 922 3314 415 
Q 2916 -91 2278 -91 
Q 1894 -91 1617 61 
Q 1341 213 1159 525 
L 1159 0 
L 581 0 
L 581 4863 
L 1159 4863 
L 1159 2969 
z
" id="DejaVuSans-62" transform="scale(0.015625)"/>
      <path d="M 3263 -1063 
L 3263 -1509 
L -63 -1509 
L -63 -1063 
L 3263 -1063 
z
" id="DejaVuSans-5f" transform="scale(0.015625)"/>
      <path d="M 603 3500 
L 1178 3500 
L 1178 -63 
Q 1178 -731 923 -1031 
Q 669 -1331 103 -1331 
L -116 -1331 
L -116 -844 
L 38 -844 
Q 366 -844 484 -692 
Q 603 -541 603 -63 
L 603 3500 
z
M 603 4863 
L 1178 4863 
L 1178 4134 
L 603 4134 
L 603 4863 
z
" id="DejaVuSans-6a" transform="scale(0.015625)"/>
      <path d="M 2834 3397 
L 2834 2853 
Q 2591 2978 2328 3040 
Q 2066 3103 1784 3103 
Q 1356 3103 1142 2972 
Q 928 2841 928 2578 
Q 928 2378 1081 2264 
Q 1234 2150 1697 2047 
L 1894 2003 
Q 2506 1872 2764 1633 
Q 3022 1394 3022 966 
Q 3022 478 2636 193 
Q 2250 -91 1575 -91 
Q 1294 -91 989 -36 
Q 684 19 347 128 
L 347 722 
Q 666 556 975 473 
Q 1284 391 1588 391 
Q 1994 391 2212 530 
Q 2431 669 2431 922 
Q 2431 1156 2273 1281 
Q 2116 1406 1581 1522 
L 1381 1569 
Q 847 1681 609 1914 
Q 372 2147 372 2553 
Q 372 3047 722 3315 
Q 1072 3584 1716 3584 
Q 2034 3584 2315 3537 
Q 2597 3491 2834 3397 
z
" id="DejaVuSans-73" transform="scale(0.015625)"/>
      <path d="M 2375 4863 
L 2375 4384 
L 1825 4384 
Q 1516 4384 1395 4259 
Q 1275 4134 1275 3809 
L 1275 3500 
L 2222 3500 
L 2222 3053 
L 1275 3053 
L 1275 0 
L 697 0 
L 697 3053 
L 147 3053 
L 147 3500 
L 697 3500 
L 697 3744 
Q 697 4328 969 4595 
Q 1241 4863 1831 4863 
L 2375 4863 
z
" id="DejaVuSans-66" transform="scale(0.015625)"/>
      <path d="M 353 3500 
L 3084 3500 
L 3084 2975 
L 922 459 
L 3084 459 
L 3084 0 
L 275 0 
L 275 525 
L 2438 3041 
L 353 3041 
L 353 3500 
z
" id="DejaVuSans-7a" transform="scale(0.015625)"/>
      <path d="M 750 794 
L 1409 794 
L 1409 256 
L 897 -744 
L 494 -744 
L 750 256 
L 750 794 
z
" id="DejaVuSans-2c" transform="scale(0.015625)"/>
      <path d="M 2113 2584 
Q 1688 2584 1439 2293 
Q 1191 2003 1191 1497 
Q 1191 994 1439 701 
Q 1688 409 2113 409 
Q 2538 409 2786 701 
Q 3034 994 3034 1497 
Q 3034 2003 2786 2293 
Q 2538 2584 2113 2584 
z
M 3366 4563 
L 3366 3988 
Q 3128 4100 2886 4159 
Q 2644 4219 2406 4219 
Q 1781 4219 1451 3797 
Q 1122 3375 1075 2522 
Q 1259 2794 1537 2939 
Q 1816 3084 2150 3084 
Q 2853 3084 3261 2657 
Q 3669 2231 3669 1497 
Q 3669 778 3244 343 
Q 2819 -91 2113 -91 
Q 1303 -91 875 529 
Q 447 1150 447 2328 
Q 447 3434 972 4092 
Q 1497 4750 2381 4750 
Q 2619 4750 2861 4703 
Q 3103 4656 3366 4563 
z
" id="DejaVuSans-36" transform="scale(0.015625)"/>
      <path d="M 1625 4666 
L 2156 4666 
L 531 -594 
L 0 -594 
L 1625 4666 
z
" id="DejaVuSans-2f" transform="scale(0.015625)"/>
     </defs>
     <use xlink:href="#DejaVuSans-6c"/>
     <use x="27.783203" xlink:href="#DejaVuSans-69"/>
     <use x="55.566406" xlink:href="#DejaVuSans-62"/>
     <use x="119.042969" xlink:href="#DejaVuSans-67"/>
     <use x="182.519531" xlink:href="#DejaVuSans-69"/>
     <use x="210.302734" xlink:href="#DejaVuSans-74"/>
     <use x="249.511719" xlink:href="#DejaVuSans-32"/>
     <use x="313.134766" xlink:href="#DejaVuSans-5f"/>
     <use x="363.134766" xlink:href="#DejaVuSans-6f"/>
     <use x="424.316406" xlink:href="#DejaVuSans-62"/>
     <use x="487.792969" xlink:href="#DejaVuSans-6a"/>
     <use x="515.576172" xlink:href="#DejaVuSans-65"/>
     <use x="577.099609" xlink:href="#DejaVuSans-63"/>
     <use x="632.080078" xlink:href="#DejaVuSans-74"/>
     <use x="671.289062" xlink:href="#DejaVuSans-73"/>
     <use x="723.388672" xlink:href="#DejaVuSans-5f"/>
     <use x="773.388672" xlink:href="#DejaVuSans-66"/>
     <use x="808.59375" xlink:href="#DejaVuSans-75"/>
     <use x="871.972656" xlink:href="#DejaVuSans-7a"/>
     <use x="924.462891" xlink:href="#DejaVuSans-7a"/>
     <use x="976.953125" xlink:href="#DejaVuSans-65"/>
     <use x="1038.476562" xlink:href="#DejaVuSans-72"/>
     <use x="1079.589844" xlink:href="#DejaVuSans-20"/>
     <use x="1111.376953" xlink:href="#DejaVuSans-28"/>
     <use x="1150.390625" xlink:href="#DejaVuSans-32"/>
     <use x="1214.013672" xlink:href="#DejaVuSans-33"/>
     <use x="1277.636719" xlink:href="#DejaVuSans-68"/>
     <use x="1341.015625" xlink:href="#DejaVuSans-2c"/>
     <use x="1372.802734" xlink:href="#DejaVuSans-20"/>
     <use x="1404.589844" xlink:href="#DejaVuSans-31"/>
     <use x="1468.212891" xlink:href="#DejaVuSans-36"/>
     <use x="1531.835938" xlink:href="#DejaVuSans-20"/>
     <use x="1563.623047" xlink:href="#DejaVuSans-74"/>
     <use x="1602.832031" xlink:href="#DejaVuSans-72"/>
     <use x="1643.945312" xlink:href="#DejaVuSans-69"/>
     <use x="1671.728516" xlink:href="#DejaVuSans-61"/>
     <use x="1733.007812" xlink:href="#DejaVuSans-6c"/>
     <use x="1760.791016" xlink:href="#DejaVuSans-73"/>
     <use x="1812.890625" xlink:href="#DejaVuSans-2f"/>
     <use x="1846.582031" xlink:href="#DejaVuSans-66"/>
     <use x="1881.787109" xlink:href="#DejaVuSans-75"/>
     <use x="1945.166016" xlink:href="#DejaVuSans-7a"/>
     <use x="1997.65625" xlink:href="#DejaVuSans-7a"/>
     <use x="2050.146484" xlink:href="#DejaVuSans-65"/>
     <use x="2111.669922" xlink:href="#DejaVuSans-72"/>
     <use x="2152.783203" xlink:href="#DejaVuSans-29"/>
    </g>
   </g>
   <g id="legend_1">
    <g id="line2d_20">
     <path d="M 414.448125 30.416562 
L 434.448125 30.416562 
" style="fill:none;stroke:#1f77b4;stroke-linecap:square;stroke-width:1.5;"/>
    </g>
    <g id="line2d_21">
     <defs>
      <path d="M 0 3 
C 0.795609 3 1.55874 2.683901 2.12132 2.12132 
C 2.683901 1.55874 3 0.795609 3 0 
C 3 -0.795609 2.683901 -1.55874 2.12132 -2.12132 
C 1.55874 -2.683901 0.795609 -3 0 -3 
C -0.795609 -3 -1.55874 -2.683901 -2.12132 -2.12132 
C -2.683901 -1.55874 -3 -0.795609 -3 0 
C -3 0.795609 -2.683901 1.55874 -2.12132 2.12132 
C -1.55874 2.683901 -0.795609 3 0 3 
z
" id="m3a5c73ae51" style="stroke:#1f77b4;"/>
     </defs>
     <g>
      <use style="fill:#1f77b4;stroke:#1f77b4;" x="424.448125" xlink:href="#m3a5c73ae51" y="30.416562"/>
     </g>
    </g>
    <g id="text_17">
     <!-- afl -->
     <g transform="translate(442.448125 33.916562)scale(0.1 -0.1)">
      <use xlink:href="#DejaVuSans-61"/>
      <use x="61.279297" xlink:href="#DejaVuSans-66"/>
      <use x="96.484375" xlink:href="#DejaVuSans-6c"/>
     </g>
    </g>
    <g id="line2d_22">
     <path d="M 414.448125 45.094688 
L 434.448125 45.094688 
" style="fill:none;stroke:#d62728;stroke-linecap:square;stroke-width:1.5;"/>
    </g>
    <g id="line2d_23">
     <defs>
      <path d="M 0 -3 
L -3 3 
L 3 3 
z
" id="m7e49c4d6fa" style="stroke:#d62728;stroke-linejoin:miter;"/>
     </defs>
     <g>
      <use style="fill:#d62728;stroke:#d62728;stroke-linejoin:miter;" x="424.448125" xlink:href="#m7e49c4d6fa" y="45.094688"/>
     </g>
    </g>
    <g id="text_18">
     <!-- afl_scheduling_random -->
     <g transform="translate(442.448125 48.594688)scale(0.1 -0.1)">
      <use xlink:href="#DejaVuSans-61"/>
      <use x="61.279297" xlink:href="#DejaVuSans-66"/>
      <use x="96.484375" xlink:href="#DejaVuSans-6c"/>
      <use x="124.267578" xlink:href="#DejaVuSans-5f"/>
      <use x="174.267578" xlink:href="#DejaVuSans-73"/>
      <use x="226.367188" xlink:href="#DejaVuSans-63"/>
      <use x="281.347656" xlink:href="#DejaVuSans-68"/>
      <use x="344.726562" xlink:href="#DejaVuSans-65"/>
      <use x="406.25" xlink:href="#DejaVuSans-64"/>
      <use x="469.726562" xlink:href="#DejaVuSans-75"/>
      <use x="533.105469" xlink:href="#DejaVuSans-6c"/>
      <use x="560.888672" xlink:href="#DejaVuSans-69"/>
      <use x="588.671875" xlink:href="#DejaVuSans-6e"/>
      <use x="652.050781" xlink:href="#DejaVuSans-67"/>
      <use x="715.527344" xlink:href="#DejaVuSans-5f"/>
      <use x="765.527344" xlink:href="#DejaVuSans-72"/>
      <use x="806.640625" xlink:href="#DejaVuSans-61"/>
      <use x="867.919922" xlink:href="#DejaVuSans-6e"/>
      <use x="931.298828" xlink:href="#DejaVuSans-64"/>
      <use x="994.775391" xlink:href="#DejaVuSans-6f"/>
      <use x="1055.957031" xlink:href="#DejaVuSans-6d"/>
     </g>
    </g>
    <g id="line2d_24">
     <path d="M 414.448125 60.050937 
L 434.448125 60.050937 
" style="fill:none;stroke:#98df8a;stroke-linecap:square;stroke-width:1.5;"/>
    </g>
    <g id="line2d_25">
     <defs>
      <path d="M -0 3 
L 3 -3 
L -3 -3 
z
" id="m86d870ac9e" style="stroke:#98df8a;stroke-linejoin:miter;"/>
     </defs>
     <g>
      <use style="fill:#98df8a;stroke:#98df8a;stroke-linejoin:miter;" x="424.448125" xlink:href="#m86d870ac9e" y="60.050937"/>
     </g>
    </g>
    <g id="text_19">
     <!-- afl_scheduling_lifo -->
     <g transform="translate(442.448125 63.550937)scale(0.1 -0.1)">
      <use xlink:href="#DejaVuSans-61"/>
      <use x="61.279297" xlink:href="#DejaVuSans-66"/>
      <use x="96.484375" xlink:href="#DejaVuSans-6c"/>
      <use x="124.267578" xlink:href="#DejaVuSans-5f"/>
      <use x="174.267578" xlink:href="#DejaVuSans-73"/>
      <use x="226.367188" xlink:href="#DejaVuSans-63"/>
      <use x="281.347656" xlink:href="#DejaVuSans-68"/>
      <use x="344.726562" xlink:href="#DejaVuSans-65"/>
      <use x="406.25" xlink:href="#DejaVuSans-64"/>
      <use x="469.726562" xlink:href="#DejaVuSans-75"/>
      <use x="533.105469" xlink:href="#DejaVuSans-6c"/>
      <use x="560.888672" xlink:href="#DejaVuSans-69"/>
      <use x="588.671875" xlink:href="#DejaVuSans-6e"/>
      <use x="652.050781" xlink:href="#DejaVuSans-67"/>
      <use x="715.527344" xlink:href="#DejaVuSans-5f"/>
      <use x="765.527344" xlink:href="#DejaVuSans-6c"/>
      <use x="793.310547" xlink:href="#DejaVuSans-69"/>
      <use x="821.09375" xlink:href="#DejaVuSans-66"/>
      <use x="856.298828" xlink:href="#DejaVuSans-6f"/>
     </g>
    </g>
   </g>
  </g>
 </g>
 <defs>
  <clipPath id="pe26b84beda">
   <rect height="266.112" width="357.12" x="53.328125" y="22.318125"/>
  </clipPath>
 </defs>
</svg>
