<?xml version="1.0" encoding="utf-8" standalone="no"?>
<!DOCTYPE svg PUBLIC "-//W3C//DTD SVG 1.1//EN"
  "http://www.w3.org/Graphics/SVG/1.1/DTD/svg11.dtd">
<svg height="325.986375pt" version="1.1" viewBox="0 0 568.985625 325.986375" width="568.985625pt" xmlns="http://www.w3.org/2000/svg" xmlns:xlink="http://www.w3.org/1999/xlink">
 <metadata>
  <rdf:RDF xmlns:cc="http://creativecommons.org/ns#" xmlns:dc="http://purl.org/dc/elements/1.1/" xmlns:rdf="http://www.w3.org/1999/02/22-rdf-syntax-ns#">
   <cc:Work>
    <dc:type rdf:resource="http://purl.org/dc/dcmitype/StillImage"/>
    <dc:date>2022-05-31T14:17:37.602878</dc:date>
    <dc:format>image/svg+xml</dc:format>
    <dc:creator>
     <cc:Agent>
      <dc:title>Matplotlib v3.4.3, https://matplotlib.org/</dc:title>
     </cc:Agent>
    </dc:creator>
   </cc:Work>
  </rdf:RDF>
 </metadata>
 <defs>
  <style type="text/css">*{stroke-linecap:butt;stroke-linejoin:round;}</style>
 </defs>
 <g id="figure_1">
  <g id="patch_1">
   <path d="M 0 325.986375 
L 568.985625 325.986375 
L 568.985625 0 
L 0 0 
z
" style="fill:#ffffff;"/>
  </g>
  <g id="axes_1">
   <g id="patch_2">
    <path d="M 53.328125 288.430125 
L 410.448125 288.430125 
L 410.448125 22.318125 
L 53.328125 22.318125 
z
" style="fill:#ffffff;"/>
   </g>
   <g id="PolyCollection_1">
    <defs>
     <path d="M 69.560852 -276.684865 
L 69.560852 -261.797481 
L 119.327306 -276.684865 
L 148.438816 -276.684865 
L 169.09376 -276.684865 
L 185.11498 -280.406712 
L 198.205269 -280.406712 
L 209.272952 -282.267635 
L 218.860214 -284.128558 
L 227.316779 -284.128558 
L 234.881434 -284.128558 
L 241.724496 -284.128558 
L 247.971723 -287.850404 
L 253.718615 -287.850404 
L 259.039406 -287.850404 
L 263.992943 -287.850404 
L 268.626668 -287.850404 
L 272.979383 -287.850404 
L 277.083233 -287.850404 
L 280.965141 -287.850404 
L 284.647888 -287.850404 
L 288.150915 -287.850404 
L 291.49095 -287.850404 
L 294.68249 -287.850404 
L 297.738177 -287.850404 
L 300.669107 -287.850404 
L 303.485069 -287.850404 
L 306.194742 -287.850404 
L 308.805859 -287.850404 
L 311.32534 -287.850404 
L 313.759397 -287.850404 
L 316.113635 -287.850404 
L 318.393122 -287.850404 
L 320.60246 -287.850404 
L 322.745837 -287.850404 
L 324.827079 -287.850404 
L 326.849687 -287.850404 
L 328.816873 -287.850404 
L 330.731595 -287.850404 
L 332.596578 -287.850404 
L 334.414342 -287.850404 
L 336.187217 -287.850404 
L 337.917369 -287.850404 
L 339.606807 -287.850404 
L 341.257404 -287.850404 
L 342.870906 -287.850404 
L 344.448944 -287.850404 
L 345.993042 -287.850404 
L 347.504631 -287.850404 
L 348.985051 -287.850404 
L 350.435561 -287.850404 
L 351.857347 -287.850404 
L 353.251523 -287.850404 
L 354.619142 -287.850404 
L 355.961196 -287.850404 
L 357.278624 -287.850404 
L 358.572313 -287.850404 
L 359.843104 -287.850404 
L 361.091794 -287.850404 
L 362.319136 -287.850404 
L 363.525851 -287.850404 
L 364.712619 -287.850404 
L 365.880089 -287.850404 
L 367.028878 -287.850404 
L 368.159576 -287.850404 
L 369.272743 -287.850404 
L 370.368914 -287.850404 
L 371.4486 -287.850404 
L 372.512291 -287.850404 
L 373.560453 -287.850404 
L 374.593533 -287.850404 
L 375.611959 -287.850404 
L 376.616141 -287.850404 
L 377.606471 -287.850404 
L 378.583327 -287.850404 
L 379.547071 -287.850404 
L 380.498049 -287.850404 
L 381.436596 -287.850404 
L 382.363032 -287.850404 
L 383.277666 -287.850404 
L 384.180795 -287.850404 
L 385.072705 -287.850404 
L 385.953671 -287.850404 
L 386.823958 -287.850404 
L 387.683823 -287.850404 
L 388.533511 -287.850404 
L 389.373261 -287.850404 
L 390.203303 -287.850404 
L 391.023858 -287.850404 
L 391.835142 -287.850404 
L 392.63736 -287.850404 
L 393.430714 -287.850404 
L 394.215398 -287.850404 
L 394.215398 -291.57225 
L 394.215398 -291.57225 
L 393.430714 -291.57225 
L 392.63736 -291.57225 
L 391.835142 -291.57225 
L 391.023858 -291.57225 
L 390.203303 -291.57225 
L 389.373261 -291.57225 
L 388.533511 -291.57225 
L 387.683823 -291.57225 
L 386.823958 -291.57225 
L 385.953671 -291.57225 
L 385.072705 -291.57225 
L 384.180795 -291.57225 
L 383.277666 -291.57225 
L 382.363032 -291.57225 
L 381.436596 -291.57225 
L 380.498049 -291.57225 
L 379.547071 -291.57225 
L 378.583327 -291.57225 
L 377.606471 -291.57225 
L 376.616141 -291.57225 
L 375.611959 -291.57225 
L 374.593533 -291.57225 
L 373.560453 -291.57225 
L 372.512291 -291.57225 
L 371.4486 -291.57225 
L 370.368914 -291.57225 
L 369.272743 -291.57225 
L 368.159576 -291.57225 
L 367.028878 -291.57225 
L 365.880089 -291.57225 
L 364.712619 -291.57225 
L 363.525851 -291.57225 
L 362.319136 -291.57225 
L 361.091794 -291.57225 
L 359.843104 -291.57225 
L 358.572313 -291.57225 
L 357.278624 -289.711327 
L 355.961196 -289.711327 
L 354.619142 -289.711327 
L 353.251523 -289.711327 
L 351.857347 -289.711327 
L 350.435561 -291.57225 
L 348.985051 -291.57225 
L 347.504631 -291.57225 
L 345.993042 -291.57225 
L 344.448944 -291.57225 
L 342.870906 -291.57225 
L 341.257404 -287.850404 
L 339.606807 -287.850404 
L 337.917369 -287.850404 
L 336.187217 -287.850404 
L 334.414342 -287.850404 
L 332.596578 -287.850404 
L 330.731595 -287.850404 
L 328.816873 -287.850404 
L 326.849687 -287.850404 
L 324.827079 -287.850404 
L 322.745837 -287.850404 
L 320.60246 -287.850404 
L 318.393122 -287.850404 
L 316.113635 -287.850404 
L 313.759397 -287.850404 
L 311.32534 -287.850404 
L 308.805859 -287.850404 
L 306.194742 -287.850404 
L 303.485069 -287.850404 
L 300.669107 -287.850404 
L 297.738177 -287.850404 
L 294.68249 -287.850404 
L 291.49095 -287.850404 
L 288.150915 -287.850404 
L 284.647888 -287.850404 
L 280.965141 -287.850404 
L 277.083233 -287.850404 
L 272.979383 -287.850404 
L 268.626668 -287.850404 
L 263.992943 -287.850404 
L 259.039406 -287.850404 
L 253.718615 -287.850404 
L 247.971723 -287.850404 
L 241.724496 -287.850404 
L 234.881434 -287.850404 
L 227.316779 -287.850404 
L 218.860214 -287.850404 
L 209.272952 -287.850404 
L 198.205269 -285.989481 
L 185.11498 -284.128558 
L 169.09376 -284.128558 
L 148.438816 -280.406712 
L 119.327306 -280.406712 
L 69.560852 -276.684865 
z
" id="ma0d7352e5a" style="stroke:#1f77b4;stroke-opacity:0.2;"/>
    </defs>
    <g clip-path="url(#p17c418353f)">
     <use style="fill:#1f77b4;fill-opacity:0.2;stroke:#1f77b4;stroke-opacity:0.2;" x="0" xlink:href="#ma0d7352e5a" y="325.986375"/>
    </g>
   </g>
   <g id="PolyCollection_2">
    <defs>
     <path d="M 69.560852 -276.684865 
L 69.560852 -245.049173 
L 119.327306 -274.823942 
L 148.438816 -276.684865 
L 169.09376 -276.684865 
L 185.11498 -276.684865 
L 198.205269 -278.545788 
L 209.272952 -280.406712 
L 218.860214 -280.406712 
L 227.316779 -280.406712 
L 234.881434 -280.406712 
L 241.724496 -280.406712 
L 247.971723 -280.406712 
L 253.718615 -282.267635 
L 259.039406 -284.128558 
L 263.992943 -284.128558 
L 268.626668 -284.128558 
L 272.979383 -284.128558 
L 277.083233 -284.128558 
L 280.965141 -284.128558 
L 284.647888 -285.989481 
L 288.150915 -285.989481 
L 291.49095 -285.989481 
L 294.68249 -285.989481 
L 297.738177 -287.850404 
L 300.669107 -287.850404 
L 303.485069 -287.850404 
L 306.194742 -287.850404 
L 308.805859 -287.850404 
L 311.32534 -287.850404 
L 313.759397 -287.850404 
L 316.113635 -287.850404 
L 318.393122 -287.850404 
L 320.60246 -287.850404 
L 322.745837 -287.850404 
L 324.827079 -287.850404 
L 326.849687 -287.850404 
L 328.816873 -287.850404 
L 330.731595 -287.850404 
L 332.596578 -287.850404 
L 334.414342 -287.850404 
L 336.187217 -287.850404 
L 337.917369 -287.850404 
L 339.606807 -287.850404 
L 341.257404 -287.850404 
L 342.870906 -287.850404 
L 344.448944 -287.850404 
L 345.993042 -287.850404 
L 347.504631 -287.850404 
L 348.985051 -287.850404 
L 350.435561 -287.850404 
L 351.857347 -289.711327 
L 353.251523 -289.711327 
L 354.619142 -291.57225 
L 355.961196 -291.57225 
L 357.278624 -291.57225 
L 358.572313 -291.57225 
L 359.843104 -291.57225 
L 361.091794 -291.57225 
L 362.319136 -291.57225 
L 363.525851 -291.57225 
L 364.712619 -291.57225 
L 365.880089 -291.57225 
L 367.028878 -291.57225 
L 368.159576 -291.57225 
L 369.272743 -291.57225 
L 370.368914 -291.57225 
L 371.4486 -291.57225 
L 372.512291 -291.57225 
L 373.560453 -291.57225 
L 374.593533 -291.57225 
L 375.611959 -291.57225 
L 376.616141 -291.57225 
L 377.606471 -291.57225 
L 378.583327 -291.57225 
L 379.547071 -291.57225 
L 380.498049 -291.57225 
L 381.436596 -291.57225 
L 382.363032 -291.57225 
L 383.277666 -291.57225 
L 384.180795 -291.57225 
L 385.072705 -291.57225 
L 385.953671 -291.57225 
L 386.823958 -291.57225 
L 387.683823 -291.57225 
L 388.533511 -291.57225 
L 389.373261 -291.57225 
L 390.203303 -291.57225 
L 391.023858 -291.57225 
L 391.835142 -291.57225 
L 392.63736 -291.57225 
L 393.430714 -291.57225 
L 394.215398 -291.57225 
L 394.215398 -291.57225 
L 394.215398 -291.57225 
L 393.430714 -291.57225 
L 392.63736 -291.57225 
L 391.835142 -291.57225 
L 391.023858 -291.57225 
L 390.203303 -291.57225 
L 389.373261 -291.57225 
L 388.533511 -291.57225 
L 387.683823 -291.57225 
L 386.823958 -291.57225 
L 385.953671 -291.57225 
L 385.072705 -291.57225 
L 384.180795 -291.57225 
L 383.277666 -291.57225 
L 382.363032 -291.57225 
L 381.436596 -291.57225 
L 380.498049 -291.57225 
L 379.547071 -291.57225 
L 378.583327 -291.57225 
L 377.606471 -291.57225 
L 376.616141 -291.57225 
L 375.611959 -291.57225 
L 374.593533 -291.57225 
L 373.560453 -291.57225 
L 372.512291 -291.57225 
L 371.4486 -291.57225 
L 370.368914 -291.57225 
L 369.272743 -291.57225 
L 368.159576 -291.57225 
L 367.028878 -291.57225 
L 365.880089 -291.57225 
L 364.712619 -291.57225 
L 363.525851 -291.57225 
L 362.319136 -291.57225 
L 361.091794 -291.57225 
L 359.843104 -291.57225 
L 358.572313 -291.57225 
L 357.278624 -291.57225 
L 355.961196 -291.57225 
L 354.619142 -291.57225 
L 353.251523 -291.57225 
L 351.857347 -291.57225 
L 350.435561 -291.57225 
L 348.985051 -291.57225 
L 347.504631 -291.57225 
L 345.993042 -291.57225 
L 344.448944 -291.57225 
L 342.870906 -291.57225 
L 341.257404 -291.57225 
L 339.606807 -291.57225 
L 337.917369 -291.57225 
L 336.187217 -291.57225 
L 334.414342 -291.57225 
L 332.596578 -291.57225 
L 330.731595 -291.57225 
L 328.816873 -291.57225 
L 326.849687 -291.57225 
L 324.827079 -291.57225 
L 322.745837 -291.57225 
L 320.60246 -291.57225 
L 318.393122 -291.57225 
L 316.113635 -291.57225 
L 313.759397 -291.57225 
L 311.32534 -291.57225 
L 308.805859 -291.57225 
L 306.194742 -291.57225 
L 303.485069 -289.711327 
L 300.669107 -289.711327 
L 297.738177 -289.711327 
L 294.68249 -289.711327 
L 291.49095 -289.711327 
L 288.150915 -287.850404 
L 284.647888 -289.711327 
L 280.965141 -289.711327 
L 277.083233 -289.711327 
L 272.979383 -289.711327 
L 268.626668 -287.850404 
L 263.992943 -287.850404 
L 259.039406 -287.850404 
L 253.718615 -287.850404 
L 247.971723 -287.850404 
L 241.724496 -287.850404 
L 234.881434 -287.850404 
L 227.316779 -287.850404 
L 218.860214 -287.850404 
L 209.272952 -287.850404 
L 198.205269 -287.850404 
L 185.11498 -284.128558 
L 169.09376 -284.128558 
L 148.438816 -280.406712 
L 119.327306 -280.406712 
L 69.560852 -276.684865 
z
" id="m45754fadca" style="stroke:#d62728;stroke-opacity:0.2;"/>
    </defs>
    <g clip-path="url(#p17c418353f)">
     <use style="fill:#d62728;fill-opacity:0.2;stroke:#d62728;stroke-opacity:0.2;" x="0" xlink:href="#m45754fadca" y="325.986375"/>
    </g>
   </g>
   <g id="PolyCollection_3">
    <defs>
     <path d="M 69.560852 -198.526096 
L 69.560852 -49.65225 
L 119.327306 -49.65225 
L 148.438816 -49.65225 
L 169.09376 -73.84425 
L 185.11498 -73.84425 
L 198.205269 -73.84425 
L 209.272952 -157.585788 
L 218.860214 -157.585788 
L 227.316779 -157.585788 
L 234.881434 -157.585788 
L 241.724496 -157.585788 
L 247.971723 -157.585788 
L 253.718615 -157.585788 
L 259.039406 -157.585788 
L 263.992943 -157.585788 
L 268.626668 -161.214588 
L 272.979383 -157.585788 
L 277.083233 -174.334096 
L 280.965141 -174.334096 
L 284.647888 -174.334096 
L 288.150915 -174.334096 
L 291.49095 -157.585788 
L 294.68249 -191.082404 
L 297.738177 -198.479573 
L 300.669107 -198.526096 
L 303.485069 -204.108865 
L 306.194742 -204.108865 
L 308.805859 -202.247942 
L 311.32534 -204.108865 
L 313.759397 -204.108865 
L 316.113635 -202.247942 
L 318.393122 -202.247942 
L 320.60246 -202.247942 
L 322.745837 -205.969788 
L 324.827079 -205.969788 
L 326.849687 -205.969788 
L 328.816873 -205.969788 
L 330.731595 -205.969788 
L 332.596578 -205.969788 
L 334.414342 -205.969788 
L 336.187217 -205.969788 
L 337.917369 -205.969788 
L 339.606807 -205.969788 
L 341.257404 -205.969788 
L 342.870906 -205.969788 
L 344.448944 -205.969788 
L 345.993042 -213.413481 
L 347.504631 -215.274404 
L 348.985051 -215.274404 
L 350.435561 -215.274404 
L 351.857347 -215.274404 
L 353.251523 -215.274404 
L 354.619142 -215.274404 
L 355.961196 -215.227881 
L 357.278624 -215.274404 
L 358.572313 -213.413481 
L 359.843104 -215.274404 
L 361.091794 -215.274404 
L 362.319136 -215.274404 
L 363.525851 -215.274404 
L 364.712619 -215.274404 
L 365.880089 -213.320435 
L 367.028878 -215.274404 
L 368.159576 -215.274404 
L 369.272743 -217.135327 
L 370.368914 -215.274404 
L 371.4486 -215.274404 
L 372.512291 -220.857173 
L 373.560453 -220.857173 
L 374.593533 -220.857173 
L 375.611959 -220.857173 
L 376.616141 -220.857173 
L 377.606471 -220.857173 
L 378.583327 -220.857173 
L 379.547071 -220.857173 
L 380.498049 -222.718096 
L 381.436596 -222.718096 
L 382.363032 -222.718096 
L 383.277666 -222.718096 
L 384.180795 -222.718096 
L 385.072705 -222.718096 
L 385.953671 -222.718096 
L 386.823958 -222.718096 
L 387.683823 -222.718096 
L 388.533511 -222.718096 
L 389.373261 -224.579019 
L 390.203303 -222.718096 
L 391.023858 -222.718096 
L 391.835142 -222.718096 
L 392.63736 -220.857173 
L 393.430714 -222.718096 
L 394.215398 -226.439942 
L 394.215398 -261.797481 
L 394.215398 -261.797481 
L 393.430714 -261.797481 
L 392.63736 -261.797481 
L 391.835142 -261.797481 
L 391.023858 -261.797481 
L 390.203303 -261.797481 
L 389.373261 -261.797481 
L 388.533511 -261.797481 
L 387.683823 -261.797481 
L 386.823958 -261.797481 
L 385.953671 -261.797481 
L 385.072705 -261.797481 
L 384.180795 -261.797481 
L 383.277666 -261.797481 
L 382.363032 -261.797481 
L 381.436596 -261.797481 
L 380.498049 -261.797481 
L 379.547071 -261.797481 
L 378.583327 -261.797481 
L 377.606471 -261.797481 
L 376.616141 -261.797481 
L 375.611959 -261.797481 
L 374.593533 -261.797481 
L 373.560453 -261.797481 
L 372.512291 -261.797481 
L 371.4486 -261.797481 
L 370.368914 -261.797481 
L 369.272743 -261.797481 
L 368.159576 -261.797481 
L 367.028878 -261.797481 
L 365.880089 -261.797481 
L 364.712619 -261.797481 
L 363.525851 -261.797481 
L 362.319136 -261.797481 
L 361.091794 -261.797481 
L 359.843104 -261.797481 
L 358.572313 -261.797481 
L 357.278624 -261.797481 
L 355.961196 -261.797481 
L 354.619142 -261.797481 
L 353.251523 -261.797481 
L 351.857347 -261.797481 
L 350.435561 -261.797481 
L 348.985051 -261.797481 
L 347.504631 -261.797481 
L 345.993042 -261.797481 
L 344.448944 -261.797481 
L 342.870906 -261.797481 
L 341.257404 -261.797481 
L 339.606807 -261.797481 
L 337.917369 -261.797481 
L 336.187217 -261.797481 
L 334.414342 -261.797481 
L 332.596578 -261.797481 
L 330.731595 -261.797481 
L 328.816873 -261.797481 
L 326.849687 -258.075635 
L 324.827079 -258.075635 
L 322.745837 -261.797481 
L 320.60246 -254.353788 
L 318.393122 -254.353788 
L 316.113635 -254.353788 
L 313.759397 -254.353788 
L 311.32534 -254.353788 
L 308.805859 -254.353788 
L 306.194742 -254.353788 
L 303.485069 -254.353788 
L 300.669107 -254.353788 
L 297.738177 -254.353788 
L 294.68249 -254.353788 
L 291.49095 -254.353788 
L 288.150915 -254.353788 
L 284.647888 -254.353788 
L 280.965141 -254.353788 
L 277.083233 -254.353788 
L 272.979383 -254.353788 
L 268.626668 -254.353788 
L 263.992943 -250.631942 
L 259.039406 -250.631942 
L 253.718615 -246.910096 
L 247.971723 -246.910096 
L 241.724496 -246.910096 
L 234.881434 -246.910096 
L 227.316779 -246.910096 
L 218.860214 -243.18825 
L 209.272952 -243.18825 
L 198.205269 -243.18825 
L 185.11498 -243.18825 
L 169.09376 -243.18825 
L 148.438816 -224.579019 
L 119.327306 -224.579019 
L 69.560852 -198.526096 
z
" id="m03c29361cd" style="stroke:#98df8a;stroke-opacity:0.2;"/>
    </defs>
    <g clip-path="url(#p17c418353f)">
     <use style="fill:#98df8a;fill-opacity:0.2;stroke:#98df8a;stroke-opacity:0.2;" x="0" xlink:href="#m03c29361cd" y="325.986375"/>
    </g>
   </g>
   <g id="matplotlib.axis_1">
    <g id="xtick_1">
     <g id="line2d_1">
      <defs>
       <path d="M 0 0 
L 0 3.5 
" id="m4ffed8caf1" style="stroke:#000000;stroke-width:0.8;"/>
      </defs>
      <g>
       <use style="stroke:#000000;stroke-width:0.8;" x="69.560852" xlink:href="#m4ffed8caf1" y="288.430125"/>
      </g>
     </g>
     <g id="text_1">
      <!-- 14m -->
      <g transform="translate(58.32804 303.028562)scale(0.1 -0.1)">
       <defs>
        <path d="M 794 531 
L 1825 531 
L 1825 4091 
L 703 3866 
L 703 4441 
L 1819 4666 
L 2450 4666 
L 2450 531 
L 3481 531 
L 3481 0 
L 794 0 
L 794 531 
z
" id="DejaVuSans-31" transform="scale(0.015625)"/>
        <path d="M 2419 4116 
L 825 1625 
L 2419 1625 
L 2419 4116 
z
M 2253 4666 
L 3047 4666 
L 3047 1625 
L 3713 1625 
L 3713 1100 
L 3047 1100 
L 3047 0 
L 2419 0 
L 2419 1100 
L 313 1100 
L 313 1709 
L 2253 4666 
z
" id="DejaVuSans-34" transform="scale(0.015625)"/>
        <path d="M 3328 2828 
Q 3544 3216 3844 3400 
Q 4144 3584 4550 3584 
Q 5097 3584 5394 3201 
Q 5691 2819 5691 2113 
L 5691 0 
L 5113 0 
L 5113 2094 
Q 5113 2597 4934 2840 
Q 4756 3084 4391 3084 
Q 3944 3084 3684 2787 
Q 3425 2491 3425 1978 
L 3425 0 
L 2847 0 
L 2847 2094 
Q 2847 2600 2669 2842 
Q 2491 3084 2119 3084 
Q 1678 3084 1418 2786 
Q 1159 2488 1159 1978 
L 1159 0 
L 581 0 
L 581 3500 
L 1159 3500 
L 1159 2956 
Q 1356 3278 1631 3431 
Q 1906 3584 2284 3584 
Q 2666 3584 2933 3390 
Q 3200 3197 3328 2828 
z
" id="DejaVuSans-6d" transform="scale(0.015625)"/>
       </defs>
       <use xlink:href="#DejaVuSans-31"/>
       <use x="63.623047" xlink:href="#DejaVuSans-34"/>
       <use x="127.246094" xlink:href="#DejaVuSans-6d"/>
      </g>
     </g>
    </g>
    <g id="xtick_2">
     <g id="line2d_2">
      <g>
       <use style="stroke:#000000;stroke-width:0.8;" x="134.491935" xlink:href="#m4ffed8caf1" y="288.430125"/>
      </g>
     </g>
     <g id="text_2">
      <!-- 37m -->
      <g transform="translate(123.259122 303.028562)scale(0.1 -0.1)">
       <defs>
        <path d="M 2597 2516 
Q 3050 2419 3304 2112 
Q 3559 1806 3559 1356 
Q 3559 666 3084 287 
Q 2609 -91 1734 -91 
Q 1441 -91 1130 -33 
Q 819 25 488 141 
L 488 750 
Q 750 597 1062 519 
Q 1375 441 1716 441 
Q 2309 441 2620 675 
Q 2931 909 2931 1356 
Q 2931 1769 2642 2001 
Q 2353 2234 1838 2234 
L 1294 2234 
L 1294 2753 
L 1863 2753 
Q 2328 2753 2575 2939 
Q 2822 3125 2822 3475 
Q 2822 3834 2567 4026 
Q 2313 4219 1838 4219 
Q 1578 4219 1281 4162 
Q 984 4106 628 3988 
L 628 4550 
Q 988 4650 1302 4700 
Q 1616 4750 1894 4750 
Q 2613 4750 3031 4423 
Q 3450 4097 3450 3541 
Q 3450 3153 3228 2886 
Q 3006 2619 2597 2516 
z
" id="DejaVuSans-33" transform="scale(0.015625)"/>
        <path d="M 525 4666 
L 3525 4666 
L 3525 4397 
L 1831 0 
L 1172 0 
L 2766 4134 
L 525 4134 
L 525 4666 
z
" id="DejaVuSans-37" transform="scale(0.015625)"/>
       </defs>
       <use xlink:href="#DejaVuSans-33"/>
       <use x="63.623047" xlink:href="#DejaVuSans-37"/>
       <use x="127.246094" xlink:href="#DejaVuSans-6d"/>
      </g>
     </g>
    </g>
    <g id="xtick_3">
     <g id="line2d_3">
      <g>
       <use style="stroke:#000000;stroke-width:0.8;" x="199.423017" xlink:href="#m4ffed8caf1" y="288.430125"/>
      </g>
     </g>
     <g id="text_3">
      <!-- 1h:31m -->
      <g transform="translate(180.15583 303.028562)scale(0.1 -0.1)">
       <defs>
        <path d="M 3513 2113 
L 3513 0 
L 2938 0 
L 2938 2094 
Q 2938 2591 2744 2837 
Q 2550 3084 2163 3084 
Q 1697 3084 1428 2787 
Q 1159 2491 1159 1978 
L 1159 0 
L 581 0 
L 581 4863 
L 1159 4863 
L 1159 2956 
Q 1366 3272 1645 3428 
Q 1925 3584 2291 3584 
Q 2894 3584 3203 3211 
Q 3513 2838 3513 2113 
z
" id="DejaVuSans-68" transform="scale(0.015625)"/>
        <path d="M 750 794 
L 1409 794 
L 1409 0 
L 750 0 
L 750 794 
z
M 750 3309 
L 1409 3309 
L 1409 2516 
L 750 2516 
L 750 3309 
z
" id="DejaVuSans-3a" transform="scale(0.015625)"/>
       </defs>
       <use xlink:href="#DejaVuSans-31"/>
       <use x="63.623047" xlink:href="#DejaVuSans-68"/>
       <use x="127.001953" xlink:href="#DejaVuSans-3a"/>
       <use x="160.693359" xlink:href="#DejaVuSans-33"/>
       <use x="224.316406" xlink:href="#DejaVuSans-31"/>
       <use x="287.939453" xlink:href="#DejaVuSans-6d"/>
      </g>
     </g>
    </g>
    <g id="xtick_4">
     <g id="line2d_4">
      <g>
       <use style="stroke:#000000;stroke-width:0.8;" x="264.3541" xlink:href="#m4ffed8caf1" y="288.430125"/>
      </g>
     </g>
     <g id="text_4">
      <!-- 3h:46m -->
      <g transform="translate(245.086912 303.028562)scale(0.1 -0.1)">
       <defs>
        <path d="M 2113 2584 
Q 1688 2584 1439 2293 
Q 1191 2003 1191 1497 
Q 1191 994 1439 701 
Q 1688 409 2113 409 
Q 2538 409 2786 701 
Q 3034 994 3034 1497 
Q 3034 2003 2786 2293 
Q 2538 2584 2113 2584 
z
M 3366 4563 
L 3366 3988 
Q 3128 4100 2886 4159 
Q 2644 4219 2406 4219 
Q 1781 4219 1451 3797 
Q 1122 3375 1075 2522 
Q 1259 2794 1537 2939 
Q 1816 3084 2150 3084 
Q 2853 3084 3261 2657 
Q 3669 2231 3669 1497 
Q 3669 778 3244 343 
Q 2819 -91 2113 -91 
Q 1303 -91 875 529 
Q 447 1150 447 2328 
Q 447 3434 972 4092 
Q 1497 4750 2381 4750 
Q 2619 4750 2861 4703 
Q 3103 4656 3366 4563 
z
" id="DejaVuSans-36" transform="scale(0.015625)"/>
       </defs>
       <use xlink:href="#DejaVuSans-33"/>
       <use x="63.623047" xlink:href="#DejaVuSans-68"/>
       <use x="127.001953" xlink:href="#DejaVuSans-3a"/>
       <use x="160.693359" xlink:href="#DejaVuSans-34"/>
       <use x="224.316406" xlink:href="#DejaVuSans-36"/>
       <use x="287.939453" xlink:href="#DejaVuSans-6d"/>
      </g>
     </g>
    </g>
    <g id="xtick_5">
     <g id="line2d_5">
      <g>
       <use style="stroke:#000000;stroke-width:0.8;" x="329.285182" xlink:href="#m4ffed8caf1" y="288.430125"/>
      </g>
     </g>
     <g id="text_5">
      <!-- 9h:18m -->
      <g transform="translate(310.017995 303.028562)scale(0.1 -0.1)">
       <defs>
        <path d="M 703 97 
L 703 672 
Q 941 559 1184 500 
Q 1428 441 1663 441 
Q 2288 441 2617 861 
Q 2947 1281 2994 2138 
Q 2813 1869 2534 1725 
Q 2256 1581 1919 1581 
Q 1219 1581 811 2004 
Q 403 2428 403 3163 
Q 403 3881 828 4315 
Q 1253 4750 1959 4750 
Q 2769 4750 3195 4129 
Q 3622 3509 3622 2328 
Q 3622 1225 3098 567 
Q 2575 -91 1691 -91 
Q 1453 -91 1209 -44 
Q 966 3 703 97 
z
M 1959 2075 
Q 2384 2075 2632 2365 
Q 2881 2656 2881 3163 
Q 2881 3666 2632 3958 
Q 2384 4250 1959 4250 
Q 1534 4250 1286 3958 
Q 1038 3666 1038 3163 
Q 1038 2656 1286 2365 
Q 1534 2075 1959 2075 
z
" id="DejaVuSans-39" transform="scale(0.015625)"/>
        <path d="M 2034 2216 
Q 1584 2216 1326 1975 
Q 1069 1734 1069 1313 
Q 1069 891 1326 650 
Q 1584 409 2034 409 
Q 2484 409 2743 651 
Q 3003 894 3003 1313 
Q 3003 1734 2745 1975 
Q 2488 2216 2034 2216 
z
M 1403 2484 
Q 997 2584 770 2862 
Q 544 3141 544 3541 
Q 544 4100 942 4425 
Q 1341 4750 2034 4750 
Q 2731 4750 3128 4425 
Q 3525 4100 3525 3541 
Q 3525 3141 3298 2862 
Q 3072 2584 2669 2484 
Q 3125 2378 3379 2068 
Q 3634 1759 3634 1313 
Q 3634 634 3220 271 
Q 2806 -91 2034 -91 
Q 1263 -91 848 271 
Q 434 634 434 1313 
Q 434 1759 690 2068 
Q 947 2378 1403 2484 
z
M 1172 3481 
Q 1172 3119 1398 2916 
Q 1625 2713 2034 2713 
Q 2441 2713 2670 2916 
Q 2900 3119 2900 3481 
Q 2900 3844 2670 4047 
Q 2441 4250 2034 4250 
Q 1625 4250 1398 4047 
Q 1172 3844 1172 3481 
z
" id="DejaVuSans-38" transform="scale(0.015625)"/>
       </defs>
       <use xlink:href="#DejaVuSans-39"/>
       <use x="63.623047" xlink:href="#DejaVuSans-68"/>
       <use x="127.001953" xlink:href="#DejaVuSans-3a"/>
       <use x="160.693359" xlink:href="#DejaVuSans-31"/>
       <use x="224.316406" xlink:href="#DejaVuSans-38"/>
       <use x="287.939453" xlink:href="#DejaVuSans-6d"/>
      </g>
     </g>
    </g>
    <g id="xtick_6">
     <g id="line2d_6">
      <g>
       <use style="stroke:#000000;stroke-width:0.8;" x="394.216265" xlink:href="#m4ffed8caf1" y="288.430125"/>
      </g>
     </g>
     <g id="text_6">
      <!-- 23h -->
      <g transform="translate(384.685015 303.028562)scale(0.1 -0.1)">
       <defs>
        <path d="M 1228 531 
L 3431 531 
L 3431 0 
L 469 0 
L 469 531 
Q 828 903 1448 1529 
Q 2069 2156 2228 2338 
Q 2531 2678 2651 2914 
Q 2772 3150 2772 3378 
Q 2772 3750 2511 3984 
Q 2250 4219 1831 4219 
Q 1534 4219 1204 4116 
Q 875 4013 500 3803 
L 500 4441 
Q 881 4594 1212 4672 
Q 1544 4750 1819 4750 
Q 2544 4750 2975 4387 
Q 3406 4025 3406 3419 
Q 3406 3131 3298 2873 
Q 3191 2616 2906 2266 
Q 2828 2175 2409 1742 
Q 1991 1309 1228 531 
z
" id="DejaVuSans-32" transform="scale(0.015625)"/>
       </defs>
       <use xlink:href="#DejaVuSans-32"/>
       <use x="63.623047" xlink:href="#DejaVuSans-33"/>
       <use x="127.246094" xlink:href="#DejaVuSans-68"/>
      </g>
     </g>
    </g>
    <g id="xtick_7">
     <g id="line2d_7">
      <defs>
       <path d="M 0 0 
L 0 2 
" id="mae73074839" style="stroke:#000000;stroke-width:0.6;"/>
      </defs>
      <g>
       <use style="stroke:#000000;stroke-width:0.6;" x="61.104288" xlink:href="#mae73074839" y="288.430125"/>
      </g>
     </g>
    </g>
    <g id="xtick_8">
     <g id="line2d_8">
      <g>
       <use style="stroke:#000000;stroke-width:0.6;" x="126.891961" xlink:href="#mae73074839" y="288.430125"/>
      </g>
     </g>
    </g>
    <g id="xtick_9">
     <g id="line2d_9">
      <g>
       <use style="stroke:#000000;stroke-width:0.6;" x="156.00347" xlink:href="#mae73074839" y="288.430125"/>
      </g>
     </g>
    </g>
    <g id="xtick_10">
     <g id="line2d_10">
      <g>
       <use style="stroke:#000000;stroke-width:0.6;" x="176.658415" xlink:href="#mae73074839" y="288.430125"/>
      </g>
     </g>
    </g>
    <g id="xtick_11">
     <g id="line2d_11">
      <g>
       <use style="stroke:#000000;stroke-width:0.6;" x="192.679635" xlink:href="#mae73074839" y="288.430125"/>
      </g>
     </g>
    </g>
    <g id="xtick_12">
     <g id="line2d_12">
      <g>
       <use style="stroke:#000000;stroke-width:0.6;" x="205.769924" xlink:href="#mae73074839" y="288.430125"/>
      </g>
     </g>
    </g>
    <g id="xtick_13">
     <g id="line2d_13">
      <g>
       <use style="stroke:#000000;stroke-width:0.6;" x="216.837607" xlink:href="#mae73074839" y="288.430125"/>
      </g>
     </g>
    </g>
    <g id="xtick_14">
     <g id="line2d_14">
      <g>
       <use style="stroke:#000000;stroke-width:0.6;" x="226.424869" xlink:href="#mae73074839" y="288.430125"/>
      </g>
     </g>
    </g>
    <g id="xtick_15">
     <g id="line2d_15">
      <g>
       <use style="stroke:#000000;stroke-width:0.6;" x="234.881434" xlink:href="#mae73074839" y="288.430125"/>
      </g>
     </g>
    </g>
    <g id="xtick_16">
     <g id="line2d_16">
      <g>
       <use style="stroke:#000000;stroke-width:0.6;" x="292.212543" xlink:href="#mae73074839" y="288.430125"/>
      </g>
     </g>
    </g>
    <g id="xtick_17">
     <g id="line2d_17">
      <g>
       <use style="stroke:#000000;stroke-width:0.6;" x="321.324052" xlink:href="#mae73074839" y="288.430125"/>
      </g>
     </g>
    </g>
    <g id="xtick_18">
     <g id="line2d_18">
      <g>
       <use style="stroke:#000000;stroke-width:0.6;" x="341.978996" xlink:href="#mae73074839" y="288.430125"/>
      </g>
     </g>
    </g>
    <g id="xtick_19">
     <g id="line2d_19">
      <g>
       <use style="stroke:#000000;stroke-width:0.6;" x="358.000216" xlink:href="#mae73074839" y="288.430125"/>
      </g>
     </g>
    </g>
    <g id="xtick_20">
     <g id="line2d_20">
      <g>
       <use style="stroke:#000000;stroke-width:0.6;" x="371.090506" xlink:href="#mae73074839" y="288.430125"/>
      </g>
     </g>
    </g>
    <g id="xtick_21">
     <g id="line2d_21">
      <g>
       <use style="stroke:#000000;stroke-width:0.6;" x="382.158188" xlink:href="#mae73074839" y="288.430125"/>
      </g>
     </g>
    </g>
    <g id="xtick_22">
     <g id="line2d_22">
      <g>
       <use style="stroke:#000000;stroke-width:0.6;" x="391.74545" xlink:href="#mae73074839" y="288.430125"/>
      </g>
     </g>
    </g>
    <g id="xtick_23">
     <g id="line2d_23">
      <g>
       <use style="stroke:#000000;stroke-width:0.6;" x="400.202015" xlink:href="#mae73074839" y="288.430125"/>
      </g>
     </g>
    </g>
    <g id="text_7">
     <!-- Time (hour:minute) -->
     <g transform="translate(183.481094 316.706687)scale(0.1 -0.1)">
      <defs>
       <path d="M -19 4666 
L 3928 4666 
L 3928 4134 
L 2272 4134 
L 2272 0 
L 1638 0 
L 1638 4134 
L -19 4134 
L -19 4666 
z
" id="DejaVuSans-54" transform="scale(0.015625)"/>
       <path d="M 603 3500 
L 1178 3500 
L 1178 0 
L 603 0 
L 603 3500 
z
M 603 4863 
L 1178 4863 
L 1178 4134 
L 603 4134 
L 603 4863 
z
" id="DejaVuSans-69" transform="scale(0.015625)"/>
       <path d="M 3597 1894 
L 3597 1613 
L 953 1613 
Q 991 1019 1311 708 
Q 1631 397 2203 397 
Q 2534 397 2845 478 
Q 3156 559 3463 722 
L 3463 178 
Q 3153 47 2828 -22 
Q 2503 -91 2169 -91 
Q 1331 -91 842 396 
Q 353 884 353 1716 
Q 353 2575 817 3079 
Q 1281 3584 2069 3584 
Q 2775 3584 3186 3129 
Q 3597 2675 3597 1894 
z
M 3022 2063 
Q 3016 2534 2758 2815 
Q 2500 3097 2075 3097 
Q 1594 3097 1305 2825 
Q 1016 2553 972 2059 
L 3022 2063 
z
" id="DejaVuSans-65" transform="scale(0.015625)"/>
       <path id="DejaVuSans-20" transform="scale(0.015625)"/>
       <path d="M 1984 4856 
Q 1566 4138 1362 3434 
Q 1159 2731 1159 2009 
Q 1159 1288 1364 580 
Q 1569 -128 1984 -844 
L 1484 -844 
Q 1016 -109 783 600 
Q 550 1309 550 2009 
Q 550 2706 781 3412 
Q 1013 4119 1484 4856 
L 1984 4856 
z
" id="DejaVuSans-28" transform="scale(0.015625)"/>
       <path d="M 1959 3097 
Q 1497 3097 1228 2736 
Q 959 2375 959 1747 
Q 959 1119 1226 758 
Q 1494 397 1959 397 
Q 2419 397 2687 759 
Q 2956 1122 2956 1747 
Q 2956 2369 2687 2733 
Q 2419 3097 1959 3097 
z
M 1959 3584 
Q 2709 3584 3137 3096 
Q 3566 2609 3566 1747 
Q 3566 888 3137 398 
Q 2709 -91 1959 -91 
Q 1206 -91 779 398 
Q 353 888 353 1747 
Q 353 2609 779 3096 
Q 1206 3584 1959 3584 
z
" id="DejaVuSans-6f" transform="scale(0.015625)"/>
       <path d="M 544 1381 
L 544 3500 
L 1119 3500 
L 1119 1403 
Q 1119 906 1312 657 
Q 1506 409 1894 409 
Q 2359 409 2629 706 
Q 2900 1003 2900 1516 
L 2900 3500 
L 3475 3500 
L 3475 0 
L 2900 0 
L 2900 538 
Q 2691 219 2414 64 
Q 2138 -91 1772 -91 
Q 1169 -91 856 284 
Q 544 659 544 1381 
z
M 1991 3584 
L 1991 3584 
z
" id="DejaVuSans-75" transform="scale(0.015625)"/>
       <path d="M 2631 2963 
Q 2534 3019 2420 3045 
Q 2306 3072 2169 3072 
Q 1681 3072 1420 2755 
Q 1159 2438 1159 1844 
L 1159 0 
L 581 0 
L 581 3500 
L 1159 3500 
L 1159 2956 
Q 1341 3275 1631 3429 
Q 1922 3584 2338 3584 
Q 2397 3584 2469 3576 
Q 2541 3569 2628 3553 
L 2631 2963 
z
" id="DejaVuSans-72" transform="scale(0.015625)"/>
       <path d="M 3513 2113 
L 3513 0 
L 2938 0 
L 2938 2094 
Q 2938 2591 2744 2837 
Q 2550 3084 2163 3084 
Q 1697 3084 1428 2787 
Q 1159 2491 1159 1978 
L 1159 0 
L 581 0 
L 581 3500 
L 1159 3500 
L 1159 2956 
Q 1366 3272 1645 3428 
Q 1925 3584 2291 3584 
Q 2894 3584 3203 3211 
Q 3513 2838 3513 2113 
z
" id="DejaVuSans-6e" transform="scale(0.015625)"/>
       <path d="M 1172 4494 
L 1172 3500 
L 2356 3500 
L 2356 3053 
L 1172 3053 
L 1172 1153 
Q 1172 725 1289 603 
Q 1406 481 1766 481 
L 2356 481 
L 2356 0 
L 1766 0 
Q 1100 0 847 248 
Q 594 497 594 1153 
L 594 3053 
L 172 3053 
L 172 3500 
L 594 3500 
L 594 4494 
L 1172 4494 
z
" id="DejaVuSans-74" transform="scale(0.015625)"/>
       <path d="M 513 4856 
L 1013 4856 
Q 1481 4119 1714 3412 
Q 1947 2706 1947 2009 
Q 1947 1309 1714 600 
Q 1481 -109 1013 -844 
L 513 -844 
Q 928 -128 1133 580 
Q 1338 1288 1338 2009 
Q 1338 2731 1133 3434 
Q 928 4138 513 4856 
z
" id="DejaVuSans-29" transform="scale(0.015625)"/>
      </defs>
      <use xlink:href="#DejaVuSans-54"/>
      <use x="57.958984" xlink:href="#DejaVuSans-69"/>
      <use x="85.742188" xlink:href="#DejaVuSans-6d"/>
      <use x="183.154297" xlink:href="#DejaVuSans-65"/>
      <use x="244.677734" xlink:href="#DejaVuSans-20"/>
      <use x="276.464844" xlink:href="#DejaVuSans-28"/>
      <use x="315.478516" xlink:href="#DejaVuSans-68"/>
      <use x="378.857422" xlink:href="#DejaVuSans-6f"/>
      <use x="440.039062" xlink:href="#DejaVuSans-75"/>
      <use x="503.417969" xlink:href="#DejaVuSans-72"/>
      <use x="542.78125" xlink:href="#DejaVuSans-3a"/>
      <use x="576.472656" xlink:href="#DejaVuSans-6d"/>
      <use x="673.884766" xlink:href="#DejaVuSans-69"/>
      <use x="701.667969" xlink:href="#DejaVuSans-6e"/>
      <use x="765.046875" xlink:href="#DejaVuSans-75"/>
      <use x="828.425781" xlink:href="#DejaVuSans-74"/>
      <use x="867.634766" xlink:href="#DejaVuSans-65"/>
      <use x="929.158203" xlink:href="#DejaVuSans-29"/>
     </g>
    </g>
   </g>
   <g id="matplotlib.axis_2">
    <g id="ytick_1">
     <g id="line2d_24">
      <defs>
       <path d="M 0 0 
L -3.5 0 
" id="macc31c802a" style="stroke:#000000;stroke-width:0.8;"/>
      </defs>
      <g>
       <use style="stroke:#000000;stroke-width:0.8;" x="53.328125" xlink:href="#macc31c802a" y="254.003048"/>
      </g>
     </g>
     <g id="text_8">
      <!-- 2380 -->
      <g transform="translate(20.878125 257.802267)scale(0.1 -0.1)">
       <defs>
        <path d="M 2034 4250 
Q 1547 4250 1301 3770 
Q 1056 3291 1056 2328 
Q 1056 1369 1301 889 
Q 1547 409 2034 409 
Q 2525 409 2770 889 
Q 3016 1369 3016 2328 
Q 3016 3291 2770 3770 
Q 2525 4250 2034 4250 
z
M 2034 4750 
Q 2819 4750 3233 4129 
Q 3647 3509 3647 2328 
Q 3647 1150 3233 529 
Q 2819 -91 2034 -91 
Q 1250 -91 836 529 
Q 422 1150 422 2328 
Q 422 3509 836 4129 
Q 1250 4750 2034 4750 
z
" id="DejaVuSans-30" transform="scale(0.015625)"/>
       </defs>
       <use xlink:href="#DejaVuSans-32"/>
       <use x="63.623047" xlink:href="#DejaVuSans-33"/>
       <use x="127.246094" xlink:href="#DejaVuSans-38"/>
       <use x="190.869141" xlink:href="#DejaVuSans-30"/>
      </g>
     </g>
    </g>
    <g id="ytick_2">
     <g id="line2d_25">
      <g>
       <use style="stroke:#000000;stroke-width:0.8;" x="53.328125" xlink:href="#macc31c802a" y="216.784587"/>
      </g>
     </g>
     <g id="text_9">
      <!-- 2390 -->
      <g transform="translate(20.878125 220.583805)scale(0.1 -0.1)">
       <use xlink:href="#DejaVuSans-32"/>
       <use x="63.623047" xlink:href="#DejaVuSans-33"/>
       <use x="127.246094" xlink:href="#DejaVuSans-39"/>
       <use x="190.869141" xlink:href="#DejaVuSans-30"/>
      </g>
     </g>
    </g>
    <g id="ytick_3">
     <g id="line2d_26">
      <g>
       <use style="stroke:#000000;stroke-width:0.8;" x="53.328125" xlink:href="#macc31c802a" y="179.566125"/>
      </g>
     </g>
     <g id="text_10">
      <!-- 2400 -->
      <g transform="translate(20.878125 183.365344)scale(0.1 -0.1)">
       <use xlink:href="#DejaVuSans-32"/>
       <use x="63.623047" xlink:href="#DejaVuSans-34"/>
       <use x="127.246094" xlink:href="#DejaVuSans-30"/>
       <use x="190.869141" xlink:href="#DejaVuSans-30"/>
      </g>
     </g>
    </g>
    <g id="ytick_4">
     <g id="line2d_27">
      <g>
       <use style="stroke:#000000;stroke-width:0.8;" x="53.328125" xlink:href="#macc31c802a" y="142.347663"/>
      </g>
     </g>
     <g id="text_11">
      <!-- 2410 -->
      <g transform="translate(20.878125 146.146882)scale(0.1 -0.1)">
       <use xlink:href="#DejaVuSans-32"/>
       <use x="63.623047" xlink:href="#DejaVuSans-34"/>
       <use x="127.246094" xlink:href="#DejaVuSans-31"/>
       <use x="190.869141" xlink:href="#DejaVuSans-30"/>
      </g>
     </g>
    </g>
    <g id="ytick_5">
     <g id="line2d_28">
      <g>
       <use style="stroke:#000000;stroke-width:0.8;" x="53.328125" xlink:href="#macc31c802a" y="105.129202"/>
      </g>
     </g>
     <g id="text_12">
      <!-- 2420 -->
      <g transform="translate(20.878125 108.928421)scale(0.1 -0.1)">
       <use xlink:href="#DejaVuSans-32"/>
       <use x="63.623047" xlink:href="#DejaVuSans-34"/>
       <use x="127.246094" xlink:href="#DejaVuSans-32"/>
       <use x="190.869141" xlink:href="#DejaVuSans-30"/>
      </g>
     </g>
    </g>
    <g id="ytick_6">
     <g id="line2d_29">
      <g>
       <use style="stroke:#000000;stroke-width:0.8;" x="53.328125" xlink:href="#macc31c802a" y="67.91074"/>
      </g>
     </g>
     <g id="text_13">
      <!-- 2430 -->
      <g transform="translate(20.878125 71.709959)scale(0.1 -0.1)">
       <use xlink:href="#DejaVuSans-32"/>
       <use x="63.623047" xlink:href="#DejaVuSans-34"/>
       <use x="127.246094" xlink:href="#DejaVuSans-33"/>
       <use x="190.869141" xlink:href="#DejaVuSans-30"/>
      </g>
     </g>
    </g>
    <g id="ytick_7">
     <g id="line2d_30">
      <g>
       <use style="stroke:#000000;stroke-width:0.8;" x="53.328125" xlink:href="#macc31c802a" y="30.692279"/>
      </g>
     </g>
     <g id="text_14">
      <!-- 2440 -->
      <g transform="translate(20.878125 34.491498)scale(0.1 -0.1)">
       <use xlink:href="#DejaVuSans-32"/>
       <use x="63.623047" xlink:href="#DejaVuSans-34"/>
       <use x="127.246094" xlink:href="#DejaVuSans-34"/>
       <use x="190.869141" xlink:href="#DejaVuSans-30"/>
      </g>
     </g>
    </g>
    <g id="text_15">
     <!-- Code region coverage -->
     <g transform="translate(14.798438 210.379594)rotate(-90)scale(0.1 -0.1)">
      <defs>
       <path d="M 4122 4306 
L 4122 3641 
Q 3803 3938 3442 4084 
Q 3081 4231 2675 4231 
Q 1875 4231 1450 3742 
Q 1025 3253 1025 2328 
Q 1025 1406 1450 917 
Q 1875 428 2675 428 
Q 3081 428 3442 575 
Q 3803 722 4122 1019 
L 4122 359 
Q 3791 134 3420 21 
Q 3050 -91 2638 -91 
Q 1578 -91 968 557 
Q 359 1206 359 2328 
Q 359 3453 968 4101 
Q 1578 4750 2638 4750 
Q 3056 4750 3426 4639 
Q 3797 4528 4122 4306 
z
" id="DejaVuSans-43" transform="scale(0.015625)"/>
       <path d="M 2906 2969 
L 2906 4863 
L 3481 4863 
L 3481 0 
L 2906 0 
L 2906 525 
Q 2725 213 2448 61 
Q 2172 -91 1784 -91 
Q 1150 -91 751 415 
Q 353 922 353 1747 
Q 353 2572 751 3078 
Q 1150 3584 1784 3584 
Q 2172 3584 2448 3432 
Q 2725 3281 2906 2969 
z
M 947 1747 
Q 947 1113 1208 752 
Q 1469 391 1925 391 
Q 2381 391 2643 752 
Q 2906 1113 2906 1747 
Q 2906 2381 2643 2742 
Q 2381 3103 1925 3103 
Q 1469 3103 1208 2742 
Q 947 2381 947 1747 
z
" id="DejaVuSans-64" transform="scale(0.015625)"/>
       <path d="M 2906 1791 
Q 2906 2416 2648 2759 
Q 2391 3103 1925 3103 
Q 1463 3103 1205 2759 
Q 947 2416 947 1791 
Q 947 1169 1205 825 
Q 1463 481 1925 481 
Q 2391 481 2648 825 
Q 2906 1169 2906 1791 
z
M 3481 434 
Q 3481 -459 3084 -895 
Q 2688 -1331 1869 -1331 
Q 1566 -1331 1297 -1286 
Q 1028 -1241 775 -1147 
L 775 -588 
Q 1028 -725 1275 -790 
Q 1522 -856 1778 -856 
Q 2344 -856 2625 -561 
Q 2906 -266 2906 331 
L 2906 616 
Q 2728 306 2450 153 
Q 2172 0 1784 0 
Q 1141 0 747 490 
Q 353 981 353 1791 
Q 353 2603 747 3093 
Q 1141 3584 1784 3584 
Q 2172 3584 2450 3431 
Q 2728 3278 2906 2969 
L 2906 3500 
L 3481 3500 
L 3481 434 
z
" id="DejaVuSans-67" transform="scale(0.015625)"/>
       <path d="M 3122 3366 
L 3122 2828 
Q 2878 2963 2633 3030 
Q 2388 3097 2138 3097 
Q 1578 3097 1268 2742 
Q 959 2388 959 1747 
Q 959 1106 1268 751 
Q 1578 397 2138 397 
Q 2388 397 2633 464 
Q 2878 531 3122 666 
L 3122 134 
Q 2881 22 2623 -34 
Q 2366 -91 2075 -91 
Q 1284 -91 818 406 
Q 353 903 353 1747 
Q 353 2603 823 3093 
Q 1294 3584 2113 3584 
Q 2378 3584 2631 3529 
Q 2884 3475 3122 3366 
z
" id="DejaVuSans-63" transform="scale(0.015625)"/>
       <path d="M 191 3500 
L 800 3500 
L 1894 563 
L 2988 3500 
L 3597 3500 
L 2284 0 
L 1503 0 
L 191 3500 
z
" id="DejaVuSans-76" transform="scale(0.015625)"/>
       <path d="M 2194 1759 
Q 1497 1759 1228 1600 
Q 959 1441 959 1056 
Q 959 750 1161 570 
Q 1363 391 1709 391 
Q 2188 391 2477 730 
Q 2766 1069 2766 1631 
L 2766 1759 
L 2194 1759 
z
M 3341 1997 
L 3341 0 
L 2766 0 
L 2766 531 
Q 2569 213 2275 61 
Q 1981 -91 1556 -91 
Q 1019 -91 701 211 
Q 384 513 384 1019 
Q 384 1609 779 1909 
Q 1175 2209 1959 2209 
L 2766 2209 
L 2766 2266 
Q 2766 2663 2505 2880 
Q 2244 3097 1772 3097 
Q 1472 3097 1187 3025 
Q 903 2953 641 2809 
L 641 3341 
Q 956 3463 1253 3523 
Q 1550 3584 1831 3584 
Q 2591 3584 2966 3190 
Q 3341 2797 3341 1997 
z
" id="DejaVuSans-61" transform="scale(0.015625)"/>
      </defs>
      <use xlink:href="#DejaVuSans-43"/>
      <use x="69.824219" xlink:href="#DejaVuSans-6f"/>
      <use x="131.005859" xlink:href="#DejaVuSans-64"/>
      <use x="194.482422" xlink:href="#DejaVuSans-65"/>
      <use x="256.005859" xlink:href="#DejaVuSans-20"/>
      <use x="287.792969" xlink:href="#DejaVuSans-72"/>
      <use x="326.65625" xlink:href="#DejaVuSans-65"/>
      <use x="388.179688" xlink:href="#DejaVuSans-67"/>
      <use x="451.65625" xlink:href="#DejaVuSans-69"/>
      <use x="479.439453" xlink:href="#DejaVuSans-6f"/>
      <use x="540.621094" xlink:href="#DejaVuSans-6e"/>
      <use x="604" xlink:href="#DejaVuSans-20"/>
      <use x="635.787109" xlink:href="#DejaVuSans-63"/>
      <use x="690.767578" xlink:href="#DejaVuSans-6f"/>
      <use x="751.949219" xlink:href="#DejaVuSans-76"/>
      <use x="811.128906" xlink:href="#DejaVuSans-65"/>
      <use x="872.652344" xlink:href="#DejaVuSans-72"/>
      <use x="913.765625" xlink:href="#DejaVuSans-61"/>
      <use x="975.044922" xlink:href="#DejaVuSans-67"/>
      <use x="1038.521484" xlink:href="#DejaVuSans-65"/>
     </g>
    </g>
   </g>
   <g id="line2d_31">
    <path clip-path="url(#p17c418353f)" d="M 69.560852 49.30151 
L 119.327306 49.30151 
L 148.438816 45.579663 
L 169.09376 45.579663 
L 185.11498 41.857817 
L 198.205269 41.857817 
L 209.272952 41.857817 
L 218.860214 39.996894 
L 227.316779 38.135971 
L 234.881434 38.135971 
L 241.724496 38.135971 
L 247.971723 38.135971 
L 253.718615 38.135971 
L 259.039406 38.135971 
L 263.992943 38.135971 
L 268.626668 38.135971 
L 272.979383 38.135971 
L 277.083233 38.135971 
L 280.965141 38.135971 
L 284.647888 38.135971 
L 288.150915 38.135971 
L 291.49095 38.135971 
L 294.68249 38.135971 
L 297.738177 38.135971 
L 300.669107 38.135971 
L 303.485069 38.135971 
L 306.194742 38.135971 
L 308.805859 38.135971 
L 311.32534 38.135971 
L 313.759397 38.135971 
L 316.113635 38.135971 
L 318.393122 38.135971 
L 320.60246 38.135971 
L 322.745837 38.135971 
L 324.827079 38.135971 
L 326.849687 38.135971 
L 328.816873 38.135971 
L 330.731595 38.135971 
L 332.596578 38.135971 
L 334.414342 38.135971 
L 336.187217 38.135971 
L 337.917369 38.135971 
L 339.606807 38.135971 
L 341.257404 38.135971 
L 342.870906 38.135971 
L 344.448944 38.135971 
L 345.993042 38.135971 
L 347.504631 38.135971 
L 348.985051 38.135971 
L 350.435561 38.135971 
L 351.857347 38.135971 
L 353.251523 38.135971 
L 354.619142 38.135971 
L 355.961196 38.135971 
L 357.278624 38.135971 
L 358.572313 38.135971 
L 359.843104 38.135971 
L 361.091794 38.135971 
L 362.319136 38.135971 
L 363.525851 38.135971 
L 364.712619 38.135971 
L 365.880089 38.135971 
L 367.028878 38.135971 
L 368.159576 38.135971 
L 369.272743 38.135971 
L 370.368914 38.135971 
L 371.4486 38.135971 
L 372.512291 38.135971 
L 373.560453 38.135971 
L 374.593533 38.135971 
L 375.611959 38.135971 
L 376.616141 38.135971 
L 377.606471 38.135971 
L 378.583327 38.135971 
L 379.547071 38.135971 
L 380.498049 38.135971 
L 381.436596 38.135971 
L 382.363032 38.135971 
L 383.277666 38.135971 
L 384.180795 38.135971 
L 385.072705 38.135971 
L 385.953671 38.135971 
L 386.823958 38.135971 
L 387.683823 38.135971 
L 388.533511 38.135971 
L 389.373261 38.135971 
L 390.203303 38.135971 
L 391.023858 38.135971 
L 391.835142 38.135971 
L 392.63736 38.135971 
L 393.430714 38.135971 
L 394.215398 38.135971 
" style="fill:none;stroke:#1f77b4;stroke-linecap:square;stroke-width:1.5;"/>
    <defs>
     <path d="M 0 3 
C 0.795609 3 1.55874 2.683901 2.12132 2.12132 
C 2.683901 1.55874 3 0.795609 3 0 
C 3 -0.795609 2.683901 -1.55874 2.12132 -2.12132 
C 1.55874 -2.683901 0.795609 -3 0 -3 
C -0.795609 -3 -1.55874 -2.683901 -2.12132 -2.12132 
C -2.683901 -1.55874 -3 -0.795609 -3 0 
C -3 0.795609 -2.683901 1.55874 -2.12132 2.12132 
C -1.55874 2.683901 -0.795609 3 0 3 
z
" id="ma9516a28cf" style="stroke:#ffffff;stroke-width:0.75;"/>
    </defs>
    <g clip-path="url(#p17c418353f)">
     <use style="fill:#1f77b4;stroke:#ffffff;stroke-width:0.75;" x="69.560852" xlink:href="#ma9516a28cf" y="49.30151"/>
     <use style="fill:#1f77b4;stroke:#ffffff;stroke-width:0.75;" x="119.327306" xlink:href="#ma9516a28cf" y="49.30151"/>
     <use style="fill:#1f77b4;stroke:#ffffff;stroke-width:0.75;" x="148.438816" xlink:href="#ma9516a28cf" y="45.579663"/>
     <use style="fill:#1f77b4;stroke:#ffffff;stroke-width:0.75;" x="169.09376" xlink:href="#ma9516a28cf" y="45.579663"/>
     <use style="fill:#1f77b4;stroke:#ffffff;stroke-width:0.75;" x="185.11498" xlink:href="#ma9516a28cf" y="41.857817"/>
     <use style="fill:#1f77b4;stroke:#ffffff;stroke-width:0.75;" x="198.205269" xlink:href="#ma9516a28cf" y="41.857817"/>
     <use style="fill:#1f77b4;stroke:#ffffff;stroke-width:0.75;" x="209.272952" xlink:href="#ma9516a28cf" y="41.857817"/>
     <use style="fill:#1f77b4;stroke:#ffffff;stroke-width:0.75;" x="218.860214" xlink:href="#ma9516a28cf" y="39.996894"/>
     <use style="fill:#1f77b4;stroke:#ffffff;stroke-width:0.75;" x="227.316779" xlink:href="#ma9516a28cf" y="38.135971"/>
     <use style="fill:#1f77b4;stroke:#ffffff;stroke-width:0.75;" x="234.881434" xlink:href="#ma9516a28cf" y="38.135971"/>
     <use style="fill:#1f77b4;stroke:#ffffff;stroke-width:0.75;" x="241.724496" xlink:href="#ma9516a28cf" y="38.135971"/>
     <use style="fill:#1f77b4;stroke:#ffffff;stroke-width:0.75;" x="247.971723" xlink:href="#ma9516a28cf" y="38.135971"/>
     <use style="fill:#1f77b4;stroke:#ffffff;stroke-width:0.75;" x="253.718615" xlink:href="#ma9516a28cf" y="38.135971"/>
     <use style="fill:#1f77b4;stroke:#ffffff;stroke-width:0.75;" x="259.039406" xlink:href="#ma9516a28cf" y="38.135971"/>
     <use style="fill:#1f77b4;stroke:#ffffff;stroke-width:0.75;" x="263.992943" xlink:href="#ma9516a28cf" y="38.135971"/>
     <use style="fill:#1f77b4;stroke:#ffffff;stroke-width:0.75;" x="268.626668" xlink:href="#ma9516a28cf" y="38.135971"/>
     <use style="fill:#1f77b4;stroke:#ffffff;stroke-width:0.75;" x="272.979383" xlink:href="#ma9516a28cf" y="38.135971"/>
     <use style="fill:#1f77b4;stroke:#ffffff;stroke-width:0.75;" x="277.083233" xlink:href="#ma9516a28cf" y="38.135971"/>
     <use style="fill:#1f77b4;stroke:#ffffff;stroke-width:0.75;" x="280.965141" xlink:href="#ma9516a28cf" y="38.135971"/>
     <use style="fill:#1f77b4;stroke:#ffffff;stroke-width:0.75;" x="284.647888" xlink:href="#ma9516a28cf" y="38.135971"/>
     <use style="fill:#1f77b4;stroke:#ffffff;stroke-width:0.75;" x="288.150915" xlink:href="#ma9516a28cf" y="38.135971"/>
     <use style="fill:#1f77b4;stroke:#ffffff;stroke-width:0.75;" x="291.49095" xlink:href="#ma9516a28cf" y="38.135971"/>
     <use style="fill:#1f77b4;stroke:#ffffff;stroke-width:0.75;" x="294.68249" xlink:href="#ma9516a28cf" y="38.135971"/>
     <use style="fill:#1f77b4;stroke:#ffffff;stroke-width:0.75;" x="297.738177" xlink:href="#ma9516a28cf" y="38.135971"/>
     <use style="fill:#1f77b4;stroke:#ffffff;stroke-width:0.75;" x="300.669107" xlink:href="#ma9516a28cf" y="38.135971"/>
     <use style="fill:#1f77b4;stroke:#ffffff;stroke-width:0.75;" x="303.485069" xlink:href="#ma9516a28cf" y="38.135971"/>
     <use style="fill:#1f77b4;stroke:#ffffff;stroke-width:0.75;" x="306.194742" xlink:href="#ma9516a28cf" y="38.135971"/>
     <use style="fill:#1f77b4;stroke:#ffffff;stroke-width:0.75;" x="308.805859" xlink:href="#ma9516a28cf" y="38.135971"/>
     <use style="fill:#1f77b4;stroke:#ffffff;stroke-width:0.75;" x="311.32534" xlink:href="#ma9516a28cf" y="38.135971"/>
     <use style="fill:#1f77b4;stroke:#ffffff;stroke-width:0.75;" x="313.759397" xlink:href="#ma9516a28cf" y="38.135971"/>
     <use style="fill:#1f77b4;stroke:#ffffff;stroke-width:0.75;" x="316.113635" xlink:href="#ma9516a28cf" y="38.135971"/>
     <use style="fill:#1f77b4;stroke:#ffffff;stroke-width:0.75;" x="318.393122" xlink:href="#ma9516a28cf" y="38.135971"/>
     <use style="fill:#1f77b4;stroke:#ffffff;stroke-width:0.75;" x="320.60246" xlink:href="#ma9516a28cf" y="38.135971"/>
     <use style="fill:#1f77b4;stroke:#ffffff;stroke-width:0.75;" x="322.745837" xlink:href="#ma9516a28cf" y="38.135971"/>
     <use style="fill:#1f77b4;stroke:#ffffff;stroke-width:0.75;" x="324.827079" xlink:href="#ma9516a28cf" y="38.135971"/>
     <use style="fill:#1f77b4;stroke:#ffffff;stroke-width:0.75;" x="326.849687" xlink:href="#ma9516a28cf" y="38.135971"/>
     <use style="fill:#1f77b4;stroke:#ffffff;stroke-width:0.75;" x="328.816873" xlink:href="#ma9516a28cf" y="38.135971"/>
     <use style="fill:#1f77b4;stroke:#ffffff;stroke-width:0.75;" x="330.731595" xlink:href="#ma9516a28cf" y="38.135971"/>
     <use style="fill:#1f77b4;stroke:#ffffff;stroke-width:0.75;" x="332.596578" xlink:href="#ma9516a28cf" y="38.135971"/>
     <use style="fill:#1f77b4;stroke:#ffffff;stroke-width:0.75;" x="334.414342" xlink:href="#ma9516a28cf" y="38.135971"/>
     <use style="fill:#1f77b4;stroke:#ffffff;stroke-width:0.75;" x="336.187217" xlink:href="#ma9516a28cf" y="38.135971"/>
     <use style="fill:#1f77b4;stroke:#ffffff;stroke-width:0.75;" x="337.917369" xlink:href="#ma9516a28cf" y="38.135971"/>
     <use style="fill:#1f77b4;stroke:#ffffff;stroke-width:0.75;" x="339.606807" xlink:href="#ma9516a28cf" y="38.135971"/>
     <use style="fill:#1f77b4;stroke:#ffffff;stroke-width:0.75;" x="341.257404" xlink:href="#ma9516a28cf" y="38.135971"/>
     <use style="fill:#1f77b4;stroke:#ffffff;stroke-width:0.75;" x="342.870906" xlink:href="#ma9516a28cf" y="38.135971"/>
     <use style="fill:#1f77b4;stroke:#ffffff;stroke-width:0.75;" x="344.448944" xlink:href="#ma9516a28cf" y="38.135971"/>
     <use style="fill:#1f77b4;stroke:#ffffff;stroke-width:0.75;" x="345.993042" xlink:href="#ma9516a28cf" y="38.135971"/>
     <use style="fill:#1f77b4;stroke:#ffffff;stroke-width:0.75;" x="347.504631" xlink:href="#ma9516a28cf" y="38.135971"/>
     <use style="fill:#1f77b4;stroke:#ffffff;stroke-width:0.75;" x="348.985051" xlink:href="#ma9516a28cf" y="38.135971"/>
     <use style="fill:#1f77b4;stroke:#ffffff;stroke-width:0.75;" x="350.435561" xlink:href="#ma9516a28cf" y="38.135971"/>
     <use style="fill:#1f77b4;stroke:#ffffff;stroke-width:0.75;" x="351.857347" xlink:href="#ma9516a28cf" y="38.135971"/>
     <use style="fill:#1f77b4;stroke:#ffffff;stroke-width:0.75;" x="353.251523" xlink:href="#ma9516a28cf" y="38.135971"/>
     <use style="fill:#1f77b4;stroke:#ffffff;stroke-width:0.75;" x="354.619142" xlink:href="#ma9516a28cf" y="38.135971"/>
     <use style="fill:#1f77b4;stroke:#ffffff;stroke-width:0.75;" x="355.961196" xlink:href="#ma9516a28cf" y="38.135971"/>
     <use style="fill:#1f77b4;stroke:#ffffff;stroke-width:0.75;" x="357.278624" xlink:href="#ma9516a28cf" y="38.135971"/>
     <use style="fill:#1f77b4;stroke:#ffffff;stroke-width:0.75;" x="358.572313" xlink:href="#ma9516a28cf" y="38.135971"/>
     <use style="fill:#1f77b4;stroke:#ffffff;stroke-width:0.75;" x="359.843104" xlink:href="#ma9516a28cf" y="38.135971"/>
     <use style="fill:#1f77b4;stroke:#ffffff;stroke-width:0.75;" x="361.091794" xlink:href="#ma9516a28cf" y="38.135971"/>
     <use style="fill:#1f77b4;stroke:#ffffff;stroke-width:0.75;" x="362.319136" xlink:href="#ma9516a28cf" y="38.135971"/>
     <use style="fill:#1f77b4;stroke:#ffffff;stroke-width:0.75;" x="363.525851" xlink:href="#ma9516a28cf" y="38.135971"/>
     <use style="fill:#1f77b4;stroke:#ffffff;stroke-width:0.75;" x="364.712619" xlink:href="#ma9516a28cf" y="38.135971"/>
     <use style="fill:#1f77b4;stroke:#ffffff;stroke-width:0.75;" x="365.880089" xlink:href="#ma9516a28cf" y="38.135971"/>
     <use style="fill:#1f77b4;stroke:#ffffff;stroke-width:0.75;" x="367.028878" xlink:href="#ma9516a28cf" y="38.135971"/>
     <use style="fill:#1f77b4;stroke:#ffffff;stroke-width:0.75;" x="368.159576" xlink:href="#ma9516a28cf" y="38.135971"/>
     <use style="fill:#1f77b4;stroke:#ffffff;stroke-width:0.75;" x="369.272743" xlink:href="#ma9516a28cf" y="38.135971"/>
     <use style="fill:#1f77b4;stroke:#ffffff;stroke-width:0.75;" x="370.368914" xlink:href="#ma9516a28cf" y="38.135971"/>
     <use style="fill:#1f77b4;stroke:#ffffff;stroke-width:0.75;" x="371.4486" xlink:href="#ma9516a28cf" y="38.135971"/>
     <use style="fill:#1f77b4;stroke:#ffffff;stroke-width:0.75;" x="372.512291" xlink:href="#ma9516a28cf" y="38.135971"/>
     <use style="fill:#1f77b4;stroke:#ffffff;stroke-width:0.75;" x="373.560453" xlink:href="#ma9516a28cf" y="38.135971"/>
     <use style="fill:#1f77b4;stroke:#ffffff;stroke-width:0.75;" x="374.593533" xlink:href="#ma9516a28cf" y="38.135971"/>
     <use style="fill:#1f77b4;stroke:#ffffff;stroke-width:0.75;" x="375.611959" xlink:href="#ma9516a28cf" y="38.135971"/>
     <use style="fill:#1f77b4;stroke:#ffffff;stroke-width:0.75;" x="376.616141" xlink:href="#ma9516a28cf" y="38.135971"/>
     <use style="fill:#1f77b4;stroke:#ffffff;stroke-width:0.75;" x="377.606471" xlink:href="#ma9516a28cf" y="38.135971"/>
     <use style="fill:#1f77b4;stroke:#ffffff;stroke-width:0.75;" x="378.583327" xlink:href="#ma9516a28cf" y="38.135971"/>
     <use style="fill:#1f77b4;stroke:#ffffff;stroke-width:0.75;" x="379.547071" xlink:href="#ma9516a28cf" y="38.135971"/>
     <use style="fill:#1f77b4;stroke:#ffffff;stroke-width:0.75;" x="380.498049" xlink:href="#ma9516a28cf" y="38.135971"/>
     <use style="fill:#1f77b4;stroke:#ffffff;stroke-width:0.75;" x="381.436596" xlink:href="#ma9516a28cf" y="38.135971"/>
     <use style="fill:#1f77b4;stroke:#ffffff;stroke-width:0.75;" x="382.363032" xlink:href="#ma9516a28cf" y="38.135971"/>
     <use style="fill:#1f77b4;stroke:#ffffff;stroke-width:0.75;" x="383.277666" xlink:href="#ma9516a28cf" y="38.135971"/>
     <use style="fill:#1f77b4;stroke:#ffffff;stroke-width:0.75;" x="384.180795" xlink:href="#ma9516a28cf" y="38.135971"/>
     <use style="fill:#1f77b4;stroke:#ffffff;stroke-width:0.75;" x="385.072705" xlink:href="#ma9516a28cf" y="38.135971"/>
     <use style="fill:#1f77b4;stroke:#ffffff;stroke-width:0.75;" x="385.953671" xlink:href="#ma9516a28cf" y="38.135971"/>
     <use style="fill:#1f77b4;stroke:#ffffff;stroke-width:0.75;" x="386.823958" xlink:href="#ma9516a28cf" y="38.135971"/>
     <use style="fill:#1f77b4;stroke:#ffffff;stroke-width:0.75;" x="387.683823" xlink:href="#ma9516a28cf" y="38.135971"/>
     <use style="fill:#1f77b4;stroke:#ffffff;stroke-width:0.75;" x="388.533511" xlink:href="#ma9516a28cf" y="38.135971"/>
     <use style="fill:#1f77b4;stroke:#ffffff;stroke-width:0.75;" x="389.373261" xlink:href="#ma9516a28cf" y="38.135971"/>
     <use style="fill:#1f77b4;stroke:#ffffff;stroke-width:0.75;" x="390.203303" xlink:href="#ma9516a28cf" y="38.135971"/>
     <use style="fill:#1f77b4;stroke:#ffffff;stroke-width:0.75;" x="391.023858" xlink:href="#ma9516a28cf" y="38.135971"/>
     <use style="fill:#1f77b4;stroke:#ffffff;stroke-width:0.75;" x="391.835142" xlink:href="#ma9516a28cf" y="38.135971"/>
     <use style="fill:#1f77b4;stroke:#ffffff;stroke-width:0.75;" x="392.63736" xlink:href="#ma9516a28cf" y="38.135971"/>
     <use style="fill:#1f77b4;stroke:#ffffff;stroke-width:0.75;" x="393.430714" xlink:href="#ma9516a28cf" y="38.135971"/>
     <use style="fill:#1f77b4;stroke:#ffffff;stroke-width:0.75;" x="394.215398" xlink:href="#ma9516a28cf" y="38.135971"/>
    </g>
   </g>
   <g id="line2d_32">
    <path clip-path="url(#p17c418353f)" d="M 69.560852 60.467048 
L 119.327306 49.30151 
L 148.438816 45.579663 
L 169.09376 45.579663 
L 185.11498 45.579663 
L 198.205269 43.71874 
L 209.272952 41.857817 
L 218.860214 41.857817 
L 227.316779 41.857817 
L 234.881434 41.857817 
L 241.724496 41.857817 
L 247.971723 41.857817 
L 253.718615 41.857817 
L 259.039406 39.996894 
L 263.992943 39.996894 
L 268.626668 39.996894 
L 272.979383 39.996894 
L 277.083233 38.135971 
L 280.965141 38.135971 
L 284.647888 38.135971 
L 288.150915 38.135971 
L 291.49095 38.135971 
L 294.68249 38.135971 
L 297.738177 38.135971 
L 300.669107 38.135971 
L 303.485069 38.135971 
L 306.194742 38.135971 
L 308.805859 38.135971 
L 311.32534 38.135971 
L 313.759397 38.135971 
L 316.113635 38.135971 
L 318.393122 38.135971 
L 320.60246 38.135971 
L 322.745837 38.135971 
L 324.827079 38.135971 
L 326.849687 38.135971 
L 328.816873 38.135971 
L 330.731595 36.275048 
L 332.596578 36.275048 
L 334.414342 36.275048 
L 336.187217 36.275048 
L 337.917369 36.275048 
L 339.606807 34.414125 
L 341.257404 34.414125 
L 342.870906 34.414125 
L 344.448944 34.414125 
L 345.993042 34.414125 
L 347.504631 34.414125 
L 348.985051 34.414125 
L 350.435561 34.414125 
L 351.857347 34.414125 
L 353.251523 34.414125 
L 354.619142 34.414125 
L 355.961196 34.414125 
L 357.278624 34.414125 
L 358.572313 34.414125 
L 359.843104 34.414125 
L 361.091794 34.414125 
L 362.319136 34.414125 
L 363.525851 34.414125 
L 364.712619 34.414125 
L 365.880089 34.414125 
L 367.028878 34.414125 
L 368.159576 34.414125 
L 369.272743 34.414125 
L 370.368914 34.414125 
L 371.4486 34.414125 
L 372.512291 34.414125 
L 373.560453 34.414125 
L 374.593533 34.414125 
L 375.611959 34.414125 
L 376.616141 34.414125 
L 377.606471 34.414125 
L 378.583327 34.414125 
L 379.547071 34.414125 
L 380.498049 34.414125 
L 381.436596 34.414125 
L 382.363032 34.414125 
L 383.277666 34.414125 
L 384.180795 34.414125 
L 385.072705 34.414125 
L 385.953671 34.414125 
L 386.823958 34.414125 
L 387.683823 34.414125 
L 388.533511 34.414125 
L 389.373261 34.414125 
L 390.203303 34.414125 
L 391.023858 34.414125 
L 391.835142 34.414125 
L 392.63736 34.414125 
L 393.430714 34.414125 
L 394.215398 34.414125 
" style="fill:none;stroke:#d62728;stroke-linecap:square;stroke-width:1.5;"/>
    <defs>
     <path d="M 0 -3 
L -3 3 
L 3 3 
z
" id="m69c839d997" style="stroke:#ffffff;stroke-linejoin:miter;stroke-width:0.75;"/>
    </defs>
    <g clip-path="url(#p17c418353f)">
     <use style="fill:#d62728;stroke:#ffffff;stroke-linejoin:miter;stroke-width:0.75;" x="69.560852" xlink:href="#m69c839d997" y="60.467048"/>
     <use style="fill:#d62728;stroke:#ffffff;stroke-linejoin:miter;stroke-width:0.75;" x="119.327306" xlink:href="#m69c839d997" y="49.30151"/>
     <use style="fill:#d62728;stroke:#ffffff;stroke-linejoin:miter;stroke-width:0.75;" x="148.438816" xlink:href="#m69c839d997" y="45.579663"/>
     <use style="fill:#d62728;stroke:#ffffff;stroke-linejoin:miter;stroke-width:0.75;" x="169.09376" xlink:href="#m69c839d997" y="45.579663"/>
     <use style="fill:#d62728;stroke:#ffffff;stroke-linejoin:miter;stroke-width:0.75;" x="185.11498" xlink:href="#m69c839d997" y="45.579663"/>
     <use style="fill:#d62728;stroke:#ffffff;stroke-linejoin:miter;stroke-width:0.75;" x="198.205269" xlink:href="#m69c839d997" y="43.71874"/>
     <use style="fill:#d62728;stroke:#ffffff;stroke-linejoin:miter;stroke-width:0.75;" x="209.272952" xlink:href="#m69c839d997" y="41.857817"/>
     <use style="fill:#d62728;stroke:#ffffff;stroke-linejoin:miter;stroke-width:0.75;" x="218.860214" xlink:href="#m69c839d997" y="41.857817"/>
     <use style="fill:#d62728;stroke:#ffffff;stroke-linejoin:miter;stroke-width:0.75;" x="227.316779" xlink:href="#m69c839d997" y="41.857817"/>
     <use style="fill:#d62728;stroke:#ffffff;stroke-linejoin:miter;stroke-width:0.75;" x="234.881434" xlink:href="#m69c839d997" y="41.857817"/>
     <use style="fill:#d62728;stroke:#ffffff;stroke-linejoin:miter;stroke-width:0.75;" x="241.724496" xlink:href="#m69c839d997" y="41.857817"/>
     <use style="fill:#d62728;stroke:#ffffff;stroke-linejoin:miter;stroke-width:0.75;" x="247.971723" xlink:href="#m69c839d997" y="41.857817"/>
     <use style="fill:#d62728;stroke:#ffffff;stroke-linejoin:miter;stroke-width:0.75;" x="253.718615" xlink:href="#m69c839d997" y="41.857817"/>
     <use style="fill:#d62728;stroke:#ffffff;stroke-linejoin:miter;stroke-width:0.75;" x="259.039406" xlink:href="#m69c839d997" y="39.996894"/>
     <use style="fill:#d62728;stroke:#ffffff;stroke-linejoin:miter;stroke-width:0.75;" x="263.992943" xlink:href="#m69c839d997" y="39.996894"/>
     <use style="fill:#d62728;stroke:#ffffff;stroke-linejoin:miter;stroke-width:0.75;" x="268.626668" xlink:href="#m69c839d997" y="39.996894"/>
     <use style="fill:#d62728;stroke:#ffffff;stroke-linejoin:miter;stroke-width:0.75;" x="272.979383" xlink:href="#m69c839d997" y="39.996894"/>
     <use style="fill:#d62728;stroke:#ffffff;stroke-linejoin:miter;stroke-width:0.75;" x="277.083233" xlink:href="#m69c839d997" y="38.135971"/>
     <use style="fill:#d62728;stroke:#ffffff;stroke-linejoin:miter;stroke-width:0.75;" x="280.965141" xlink:href="#m69c839d997" y="38.135971"/>
     <use style="fill:#d62728;stroke:#ffffff;stroke-linejoin:miter;stroke-width:0.75;" x="284.647888" xlink:href="#m69c839d997" y="38.135971"/>
     <use style="fill:#d62728;stroke:#ffffff;stroke-linejoin:miter;stroke-width:0.75;" x="288.150915" xlink:href="#m69c839d997" y="38.135971"/>
     <use style="fill:#d62728;stroke:#ffffff;stroke-linejoin:miter;stroke-width:0.75;" x="291.49095" xlink:href="#m69c839d997" y="38.135971"/>
     <use style="fill:#d62728;stroke:#ffffff;stroke-linejoin:miter;stroke-width:0.75;" x="294.68249" xlink:href="#m69c839d997" y="38.135971"/>
     <use style="fill:#d62728;stroke:#ffffff;stroke-linejoin:miter;stroke-width:0.75;" x="297.738177" xlink:href="#m69c839d997" y="38.135971"/>
     <use style="fill:#d62728;stroke:#ffffff;stroke-linejoin:miter;stroke-width:0.75;" x="300.669107" xlink:href="#m69c839d997" y="38.135971"/>
     <use style="fill:#d62728;stroke:#ffffff;stroke-linejoin:miter;stroke-width:0.75;" x="303.485069" xlink:href="#m69c839d997" y="38.135971"/>
     <use style="fill:#d62728;stroke:#ffffff;stroke-linejoin:miter;stroke-width:0.75;" x="306.194742" xlink:href="#m69c839d997" y="38.135971"/>
     <use style="fill:#d62728;stroke:#ffffff;stroke-linejoin:miter;stroke-width:0.75;" x="308.805859" xlink:href="#m69c839d997" y="38.135971"/>
     <use style="fill:#d62728;stroke:#ffffff;stroke-linejoin:miter;stroke-width:0.75;" x="311.32534" xlink:href="#m69c839d997" y="38.135971"/>
     <use style="fill:#d62728;stroke:#ffffff;stroke-linejoin:miter;stroke-width:0.75;" x="313.759397" xlink:href="#m69c839d997" y="38.135971"/>
     <use style="fill:#d62728;stroke:#ffffff;stroke-linejoin:miter;stroke-width:0.75;" x="316.113635" xlink:href="#m69c839d997" y="38.135971"/>
     <use style="fill:#d62728;stroke:#ffffff;stroke-linejoin:miter;stroke-width:0.75;" x="318.393122" xlink:href="#m69c839d997" y="38.135971"/>
     <use style="fill:#d62728;stroke:#ffffff;stroke-linejoin:miter;stroke-width:0.75;" x="320.60246" xlink:href="#m69c839d997" y="38.135971"/>
     <use style="fill:#d62728;stroke:#ffffff;stroke-linejoin:miter;stroke-width:0.75;" x="322.745837" xlink:href="#m69c839d997" y="38.135971"/>
     <use style="fill:#d62728;stroke:#ffffff;stroke-linejoin:miter;stroke-width:0.75;" x="324.827079" xlink:href="#m69c839d997" y="38.135971"/>
     <use style="fill:#d62728;stroke:#ffffff;stroke-linejoin:miter;stroke-width:0.75;" x="326.849687" xlink:href="#m69c839d997" y="38.135971"/>
     <use style="fill:#d62728;stroke:#ffffff;stroke-linejoin:miter;stroke-width:0.75;" x="328.816873" xlink:href="#m69c839d997" y="38.135971"/>
     <use style="fill:#d62728;stroke:#ffffff;stroke-linejoin:miter;stroke-width:0.75;" x="330.731595" xlink:href="#m69c839d997" y="36.275048"/>
     <use style="fill:#d62728;stroke:#ffffff;stroke-linejoin:miter;stroke-width:0.75;" x="332.596578" xlink:href="#m69c839d997" y="36.275048"/>
     <use style="fill:#d62728;stroke:#ffffff;stroke-linejoin:miter;stroke-width:0.75;" x="334.414342" xlink:href="#m69c839d997" y="36.275048"/>
     <use style="fill:#d62728;stroke:#ffffff;stroke-linejoin:miter;stroke-width:0.75;" x="336.187217" xlink:href="#m69c839d997" y="36.275048"/>
     <use style="fill:#d62728;stroke:#ffffff;stroke-linejoin:miter;stroke-width:0.75;" x="337.917369" xlink:href="#m69c839d997" y="36.275048"/>
     <use style="fill:#d62728;stroke:#ffffff;stroke-linejoin:miter;stroke-width:0.75;" x="339.606807" xlink:href="#m69c839d997" y="34.414125"/>
     <use style="fill:#d62728;stroke:#ffffff;stroke-linejoin:miter;stroke-width:0.75;" x="341.257404" xlink:href="#m69c839d997" y="34.414125"/>
     <use style="fill:#d62728;stroke:#ffffff;stroke-linejoin:miter;stroke-width:0.75;" x="342.870906" xlink:href="#m69c839d997" y="34.414125"/>
     <use style="fill:#d62728;stroke:#ffffff;stroke-linejoin:miter;stroke-width:0.75;" x="344.448944" xlink:href="#m69c839d997" y="34.414125"/>
     <use style="fill:#d62728;stroke:#ffffff;stroke-linejoin:miter;stroke-width:0.75;" x="345.993042" xlink:href="#m69c839d997" y="34.414125"/>
     <use style="fill:#d62728;stroke:#ffffff;stroke-linejoin:miter;stroke-width:0.75;" x="347.504631" xlink:href="#m69c839d997" y="34.414125"/>
     <use style="fill:#d62728;stroke:#ffffff;stroke-linejoin:miter;stroke-width:0.75;" x="348.985051" xlink:href="#m69c839d997" y="34.414125"/>
     <use style="fill:#d62728;stroke:#ffffff;stroke-linejoin:miter;stroke-width:0.75;" x="350.435561" xlink:href="#m69c839d997" y="34.414125"/>
     <use style="fill:#d62728;stroke:#ffffff;stroke-linejoin:miter;stroke-width:0.75;" x="351.857347" xlink:href="#m69c839d997" y="34.414125"/>
     <use style="fill:#d62728;stroke:#ffffff;stroke-linejoin:miter;stroke-width:0.75;" x="353.251523" xlink:href="#m69c839d997" y="34.414125"/>
     <use style="fill:#d62728;stroke:#ffffff;stroke-linejoin:miter;stroke-width:0.75;" x="354.619142" xlink:href="#m69c839d997" y="34.414125"/>
     <use style="fill:#d62728;stroke:#ffffff;stroke-linejoin:miter;stroke-width:0.75;" x="355.961196" xlink:href="#m69c839d997" y="34.414125"/>
     <use style="fill:#d62728;stroke:#ffffff;stroke-linejoin:miter;stroke-width:0.75;" x="357.278624" xlink:href="#m69c839d997" y="34.414125"/>
     <use style="fill:#d62728;stroke:#ffffff;stroke-linejoin:miter;stroke-width:0.75;" x="358.572313" xlink:href="#m69c839d997" y="34.414125"/>
     <use style="fill:#d62728;stroke:#ffffff;stroke-linejoin:miter;stroke-width:0.75;" x="359.843104" xlink:href="#m69c839d997" y="34.414125"/>
     <use style="fill:#d62728;stroke:#ffffff;stroke-linejoin:miter;stroke-width:0.75;" x="361.091794" xlink:href="#m69c839d997" y="34.414125"/>
     <use style="fill:#d62728;stroke:#ffffff;stroke-linejoin:miter;stroke-width:0.75;" x="362.319136" xlink:href="#m69c839d997" y="34.414125"/>
     <use style="fill:#d62728;stroke:#ffffff;stroke-linejoin:miter;stroke-width:0.75;" x="363.525851" xlink:href="#m69c839d997" y="34.414125"/>
     <use style="fill:#d62728;stroke:#ffffff;stroke-linejoin:miter;stroke-width:0.75;" x="364.712619" xlink:href="#m69c839d997" y="34.414125"/>
     <use style="fill:#d62728;stroke:#ffffff;stroke-linejoin:miter;stroke-width:0.75;" x="365.880089" xlink:href="#m69c839d997" y="34.414125"/>
     <use style="fill:#d62728;stroke:#ffffff;stroke-linejoin:miter;stroke-width:0.75;" x="367.028878" xlink:href="#m69c839d997" y="34.414125"/>
     <use style="fill:#d62728;stroke:#ffffff;stroke-linejoin:miter;stroke-width:0.75;" x="368.159576" xlink:href="#m69c839d997" y="34.414125"/>
     <use style="fill:#d62728;stroke:#ffffff;stroke-linejoin:miter;stroke-width:0.75;" x="369.272743" xlink:href="#m69c839d997" y="34.414125"/>
     <use style="fill:#d62728;stroke:#ffffff;stroke-linejoin:miter;stroke-width:0.75;" x="370.368914" xlink:href="#m69c839d997" y="34.414125"/>
     <use style="fill:#d62728;stroke:#ffffff;stroke-linejoin:miter;stroke-width:0.75;" x="371.4486" xlink:href="#m69c839d997" y="34.414125"/>
     <use style="fill:#d62728;stroke:#ffffff;stroke-linejoin:miter;stroke-width:0.75;" x="372.512291" xlink:href="#m69c839d997" y="34.414125"/>
     <use style="fill:#d62728;stroke:#ffffff;stroke-linejoin:miter;stroke-width:0.75;" x="373.560453" xlink:href="#m69c839d997" y="34.414125"/>
     <use style="fill:#d62728;stroke:#ffffff;stroke-linejoin:miter;stroke-width:0.75;" x="374.593533" xlink:href="#m69c839d997" y="34.414125"/>
     <use style="fill:#d62728;stroke:#ffffff;stroke-linejoin:miter;stroke-width:0.75;" x="375.611959" xlink:href="#m69c839d997" y="34.414125"/>
     <use style="fill:#d62728;stroke:#ffffff;stroke-linejoin:miter;stroke-width:0.75;" x="376.616141" xlink:href="#m69c839d997" y="34.414125"/>
     <use style="fill:#d62728;stroke:#ffffff;stroke-linejoin:miter;stroke-width:0.75;" x="377.606471" xlink:href="#m69c839d997" y="34.414125"/>
     <use style="fill:#d62728;stroke:#ffffff;stroke-linejoin:miter;stroke-width:0.75;" x="378.583327" xlink:href="#m69c839d997" y="34.414125"/>
     <use style="fill:#d62728;stroke:#ffffff;stroke-linejoin:miter;stroke-width:0.75;" x="379.547071" xlink:href="#m69c839d997" y="34.414125"/>
     <use style="fill:#d62728;stroke:#ffffff;stroke-linejoin:miter;stroke-width:0.75;" x="380.498049" xlink:href="#m69c839d997" y="34.414125"/>
     <use style="fill:#d62728;stroke:#ffffff;stroke-linejoin:miter;stroke-width:0.75;" x="381.436596" xlink:href="#m69c839d997" y="34.414125"/>
     <use style="fill:#d62728;stroke:#ffffff;stroke-linejoin:miter;stroke-width:0.75;" x="382.363032" xlink:href="#m69c839d997" y="34.414125"/>
     <use style="fill:#d62728;stroke:#ffffff;stroke-linejoin:miter;stroke-width:0.75;" x="383.277666" xlink:href="#m69c839d997" y="34.414125"/>
     <use style="fill:#d62728;stroke:#ffffff;stroke-linejoin:miter;stroke-width:0.75;" x="384.180795" xlink:href="#m69c839d997" y="34.414125"/>
     <use style="fill:#d62728;stroke:#ffffff;stroke-linejoin:miter;stroke-width:0.75;" x="385.072705" xlink:href="#m69c839d997" y="34.414125"/>
     <use style="fill:#d62728;stroke:#ffffff;stroke-linejoin:miter;stroke-width:0.75;" x="385.953671" xlink:href="#m69c839d997" y="34.414125"/>
     <use style="fill:#d62728;stroke:#ffffff;stroke-linejoin:miter;stroke-width:0.75;" x="386.823958" xlink:href="#m69c839d997" y="34.414125"/>
     <use style="fill:#d62728;stroke:#ffffff;stroke-linejoin:miter;stroke-width:0.75;" x="387.683823" xlink:href="#m69c839d997" y="34.414125"/>
     <use style="fill:#d62728;stroke:#ffffff;stroke-linejoin:miter;stroke-width:0.75;" x="388.533511" xlink:href="#m69c839d997" y="34.414125"/>
     <use style="fill:#d62728;stroke:#ffffff;stroke-linejoin:miter;stroke-width:0.75;" x="389.373261" xlink:href="#m69c839d997" y="34.414125"/>
     <use style="fill:#d62728;stroke:#ffffff;stroke-linejoin:miter;stroke-width:0.75;" x="390.203303" xlink:href="#m69c839d997" y="34.414125"/>
     <use style="fill:#d62728;stroke:#ffffff;stroke-linejoin:miter;stroke-width:0.75;" x="391.023858" xlink:href="#m69c839d997" y="34.414125"/>
     <use style="fill:#d62728;stroke:#ffffff;stroke-linejoin:miter;stroke-width:0.75;" x="391.835142" xlink:href="#m69c839d997" y="34.414125"/>
     <use style="fill:#d62728;stroke:#ffffff;stroke-linejoin:miter;stroke-width:0.75;" x="392.63736" xlink:href="#m69c839d997" y="34.414125"/>
     <use style="fill:#d62728;stroke:#ffffff;stroke-linejoin:miter;stroke-width:0.75;" x="393.430714" xlink:href="#m69c839d997" y="34.414125"/>
     <use style="fill:#d62728;stroke:#ffffff;stroke-linejoin:miter;stroke-width:0.75;" x="394.215398" xlink:href="#m69c839d997" y="34.414125"/>
    </g>
   </g>
   <g id="line2d_33">
    <path clip-path="url(#p17c418353f)" d="M 69.560852 170.26151 
L 119.327306 168.400587 
L 148.438816 168.400587 
L 169.09376 157.235048 
L 185.11498 151.652279 
L 198.205269 151.652279 
L 209.272952 121.87751 
L 218.860214 121.87751 
L 227.316779 121.87751 
L 234.881434 121.87751 
L 241.724496 121.87751 
L 247.971723 121.87751 
L 253.718615 121.87751 
L 259.039406 118.155663 
L 263.992943 116.29474 
L 268.626668 114.433817 
L 272.979383 110.711971 
L 277.083233 110.711971 
L 280.965141 110.711971 
L 284.647888 110.711971 
L 288.150915 105.129202 
L 291.49095 105.129202 
L 294.68249 105.129202 
L 297.738177 105.129202 
L 300.669107 105.129202 
L 303.485069 105.129202 
L 306.194742 105.129202 
L 308.805859 105.129202 
L 311.32534 105.129202 
L 313.759397 105.129202 
L 316.113635 105.129202 
L 318.393122 99.546433 
L 320.60246 99.546433 
L 322.745837 99.546433 
L 324.827079 99.546433 
L 326.849687 99.546433 
L 328.816873 99.546433 
L 330.731595 99.546433 
L 332.596578 99.546433 
L 334.414342 99.546433 
L 336.187217 99.546433 
L 337.917369 99.546433 
L 339.606807 99.546433 
L 341.257404 99.546433 
L 342.870906 99.546433 
L 344.448944 95.824587 
L 345.993042 84.659048 
L 347.504631 84.659048 
L 348.985051 84.659048 
L 350.435561 84.659048 
L 351.857347 84.659048 
L 353.251523 84.659048 
L 354.619142 84.659048 
L 355.961196 84.659048 
L 357.278624 84.659048 
L 358.572313 84.659048 
L 359.843104 84.659048 
L 361.091794 84.659048 
L 362.319136 84.659048 
L 363.525851 84.659048 
L 364.712619 84.659048 
L 365.880089 84.659048 
L 367.028878 84.659048 
L 368.159576 84.659048 
L 369.272743 84.659048 
L 370.368914 84.659048 
L 371.4486 84.659048 
L 372.512291 84.659048 
L 373.560453 84.659048 
L 374.593533 84.659048 
L 375.611959 84.659048 
L 376.616141 84.659048 
L 377.606471 84.659048 
L 378.583327 84.659048 
L 379.547071 84.659048 
L 380.498049 84.659048 
L 381.436596 84.659048 
L 382.363032 84.659048 
L 383.277666 84.659048 
L 384.180795 84.659048 
L 385.072705 84.659048 
L 385.953671 84.659048 
L 386.823958 84.659048 
L 387.683823 84.659048 
L 388.533511 84.659048 
L 389.373261 84.659048 
L 390.203303 84.659048 
L 391.023858 84.659048 
L 391.835142 84.659048 
L 392.63736 84.659048 
L 393.430714 80.937202 
L 394.215398 80.937202 
" style="fill:none;stroke:#98df8a;stroke-linecap:square;stroke-width:1.5;"/>
    <defs>
     <path d="M -0 3 
L 3 -3 
L -3 -3 
z
" id="mfa46ece42a" style="stroke:#ffffff;stroke-linejoin:miter;stroke-width:0.75;"/>
    </defs>
    <g clip-path="url(#p17c418353f)">
     <use style="fill:#98df8a;stroke:#ffffff;stroke-linejoin:miter;stroke-width:0.75;" x="69.560852" xlink:href="#mfa46ece42a" y="170.26151"/>
     <use style="fill:#98df8a;stroke:#ffffff;stroke-linejoin:miter;stroke-width:0.75;" x="119.327306" xlink:href="#mfa46ece42a" y="168.400587"/>
     <use style="fill:#98df8a;stroke:#ffffff;stroke-linejoin:miter;stroke-width:0.75;" x="148.438816" xlink:href="#mfa46ece42a" y="168.400587"/>
     <use style="fill:#98df8a;stroke:#ffffff;stroke-linejoin:miter;stroke-width:0.75;" x="169.09376" xlink:href="#mfa46ece42a" y="157.235048"/>
     <use style="fill:#98df8a;stroke:#ffffff;stroke-linejoin:miter;stroke-width:0.75;" x="185.11498" xlink:href="#mfa46ece42a" y="151.652279"/>
     <use style="fill:#98df8a;stroke:#ffffff;stroke-linejoin:miter;stroke-width:0.75;" x="198.205269" xlink:href="#mfa46ece42a" y="151.652279"/>
     <use style="fill:#98df8a;stroke:#ffffff;stroke-linejoin:miter;stroke-width:0.75;" x="209.272952" xlink:href="#mfa46ece42a" y="121.87751"/>
     <use style="fill:#98df8a;stroke:#ffffff;stroke-linejoin:miter;stroke-width:0.75;" x="218.860214" xlink:href="#mfa46ece42a" y="121.87751"/>
     <use style="fill:#98df8a;stroke:#ffffff;stroke-linejoin:miter;stroke-width:0.75;" x="227.316779" xlink:href="#mfa46ece42a" y="121.87751"/>
     <use style="fill:#98df8a;stroke:#ffffff;stroke-linejoin:miter;stroke-width:0.75;" x="234.881434" xlink:href="#mfa46ece42a" y="121.87751"/>
     <use style="fill:#98df8a;stroke:#ffffff;stroke-linejoin:miter;stroke-width:0.75;" x="241.724496" xlink:href="#mfa46ece42a" y="121.87751"/>
     <use style="fill:#98df8a;stroke:#ffffff;stroke-linejoin:miter;stroke-width:0.75;" x="247.971723" xlink:href="#mfa46ece42a" y="121.87751"/>
     <use style="fill:#98df8a;stroke:#ffffff;stroke-linejoin:miter;stroke-width:0.75;" x="253.718615" xlink:href="#mfa46ece42a" y="121.87751"/>
     <use style="fill:#98df8a;stroke:#ffffff;stroke-linejoin:miter;stroke-width:0.75;" x="259.039406" xlink:href="#mfa46ece42a" y="118.155663"/>
     <use style="fill:#98df8a;stroke:#ffffff;stroke-linejoin:miter;stroke-width:0.75;" x="263.992943" xlink:href="#mfa46ece42a" y="116.29474"/>
     <use style="fill:#98df8a;stroke:#ffffff;stroke-linejoin:miter;stroke-width:0.75;" x="268.626668" xlink:href="#mfa46ece42a" y="114.433817"/>
     <use style="fill:#98df8a;stroke:#ffffff;stroke-linejoin:miter;stroke-width:0.75;" x="272.979383" xlink:href="#mfa46ece42a" y="110.711971"/>
     <use style="fill:#98df8a;stroke:#ffffff;stroke-linejoin:miter;stroke-width:0.75;" x="277.083233" xlink:href="#mfa46ece42a" y="110.711971"/>
     <use style="fill:#98df8a;stroke:#ffffff;stroke-linejoin:miter;stroke-width:0.75;" x="280.965141" xlink:href="#mfa46ece42a" y="110.711971"/>
     <use style="fill:#98df8a;stroke:#ffffff;stroke-linejoin:miter;stroke-width:0.75;" x="284.647888" xlink:href="#mfa46ece42a" y="110.711971"/>
     <use style="fill:#98df8a;stroke:#ffffff;stroke-linejoin:miter;stroke-width:0.75;" x="288.150915" xlink:href="#mfa46ece42a" y="105.129202"/>
     <use style="fill:#98df8a;stroke:#ffffff;stroke-linejoin:miter;stroke-width:0.75;" x="291.49095" xlink:href="#mfa46ece42a" y="105.129202"/>
     <use style="fill:#98df8a;stroke:#ffffff;stroke-linejoin:miter;stroke-width:0.75;" x="294.68249" xlink:href="#mfa46ece42a" y="105.129202"/>
     <use style="fill:#98df8a;stroke:#ffffff;stroke-linejoin:miter;stroke-width:0.75;" x="297.738177" xlink:href="#mfa46ece42a" y="105.129202"/>
     <use style="fill:#98df8a;stroke:#ffffff;stroke-linejoin:miter;stroke-width:0.75;" x="300.669107" xlink:href="#mfa46ece42a" y="105.129202"/>
     <use style="fill:#98df8a;stroke:#ffffff;stroke-linejoin:miter;stroke-width:0.75;" x="303.485069" xlink:href="#mfa46ece42a" y="105.129202"/>
     <use style="fill:#98df8a;stroke:#ffffff;stroke-linejoin:miter;stroke-width:0.75;" x="306.194742" xlink:href="#mfa46ece42a" y="105.129202"/>
     <use style="fill:#98df8a;stroke:#ffffff;stroke-linejoin:miter;stroke-width:0.75;" x="308.805859" xlink:href="#mfa46ece42a" y="105.129202"/>
     <use style="fill:#98df8a;stroke:#ffffff;stroke-linejoin:miter;stroke-width:0.75;" x="311.32534" xlink:href="#mfa46ece42a" y="105.129202"/>
     <use style="fill:#98df8a;stroke:#ffffff;stroke-linejoin:miter;stroke-width:0.75;" x="313.759397" xlink:href="#mfa46ece42a" y="105.129202"/>
     <use style="fill:#98df8a;stroke:#ffffff;stroke-linejoin:miter;stroke-width:0.75;" x="316.113635" xlink:href="#mfa46ece42a" y="105.129202"/>
     <use style="fill:#98df8a;stroke:#ffffff;stroke-linejoin:miter;stroke-width:0.75;" x="318.393122" xlink:href="#mfa46ece42a" y="99.546433"/>
     <use style="fill:#98df8a;stroke:#ffffff;stroke-linejoin:miter;stroke-width:0.75;" x="320.60246" xlink:href="#mfa46ece42a" y="99.546433"/>
     <use style="fill:#98df8a;stroke:#ffffff;stroke-linejoin:miter;stroke-width:0.75;" x="322.745837" xlink:href="#mfa46ece42a" y="99.546433"/>
     <use style="fill:#98df8a;stroke:#ffffff;stroke-linejoin:miter;stroke-width:0.75;" x="324.827079" xlink:href="#mfa46ece42a" y="99.546433"/>
     <use style="fill:#98df8a;stroke:#ffffff;stroke-linejoin:miter;stroke-width:0.75;" x="326.849687" xlink:href="#mfa46ece42a" y="99.546433"/>
     <use style="fill:#98df8a;stroke:#ffffff;stroke-linejoin:miter;stroke-width:0.75;" x="328.816873" xlink:href="#mfa46ece42a" y="99.546433"/>
     <use style="fill:#98df8a;stroke:#ffffff;stroke-linejoin:miter;stroke-width:0.75;" x="330.731595" xlink:href="#mfa46ece42a" y="99.546433"/>
     <use style="fill:#98df8a;stroke:#ffffff;stroke-linejoin:miter;stroke-width:0.75;" x="332.596578" xlink:href="#mfa46ece42a" y="99.546433"/>
     <use style="fill:#98df8a;stroke:#ffffff;stroke-linejoin:miter;stroke-width:0.75;" x="334.414342" xlink:href="#mfa46ece42a" y="99.546433"/>
     <use style="fill:#98df8a;stroke:#ffffff;stroke-linejoin:miter;stroke-width:0.75;" x="336.187217" xlink:href="#mfa46ece42a" y="99.546433"/>
     <use style="fill:#98df8a;stroke:#ffffff;stroke-linejoin:miter;stroke-width:0.75;" x="337.917369" xlink:href="#mfa46ece42a" y="99.546433"/>
     <use style="fill:#98df8a;stroke:#ffffff;stroke-linejoin:miter;stroke-width:0.75;" x="339.606807" xlink:href="#mfa46ece42a" y="99.546433"/>
     <use style="fill:#98df8a;stroke:#ffffff;stroke-linejoin:miter;stroke-width:0.75;" x="341.257404" xlink:href="#mfa46ece42a" y="99.546433"/>
     <use style="fill:#98df8a;stroke:#ffffff;stroke-linejoin:miter;stroke-width:0.75;" x="342.870906" xlink:href="#mfa46ece42a" y="99.546433"/>
     <use style="fill:#98df8a;stroke:#ffffff;stroke-linejoin:miter;stroke-width:0.75;" x="344.448944" xlink:href="#mfa46ece42a" y="95.824587"/>
     <use style="fill:#98df8a;stroke:#ffffff;stroke-linejoin:miter;stroke-width:0.75;" x="345.993042" xlink:href="#mfa46ece42a" y="84.659048"/>
     <use style="fill:#98df8a;stroke:#ffffff;stroke-linejoin:miter;stroke-width:0.75;" x="347.504631" xlink:href="#mfa46ece42a" y="84.659048"/>
     <use style="fill:#98df8a;stroke:#ffffff;stroke-linejoin:miter;stroke-width:0.75;" x="348.985051" xlink:href="#mfa46ece42a" y="84.659048"/>
     <use style="fill:#98df8a;stroke:#ffffff;stroke-linejoin:miter;stroke-width:0.75;" x="350.435561" xlink:href="#mfa46ece42a" y="84.659048"/>
     <use style="fill:#98df8a;stroke:#ffffff;stroke-linejoin:miter;stroke-width:0.75;" x="351.857347" xlink:href="#mfa46ece42a" y="84.659048"/>
     <use style="fill:#98df8a;stroke:#ffffff;stroke-linejoin:miter;stroke-width:0.75;" x="353.251523" xlink:href="#mfa46ece42a" y="84.659048"/>
     <use style="fill:#98df8a;stroke:#ffffff;stroke-linejoin:miter;stroke-width:0.75;" x="354.619142" xlink:href="#mfa46ece42a" y="84.659048"/>
     <use style="fill:#98df8a;stroke:#ffffff;stroke-linejoin:miter;stroke-width:0.75;" x="355.961196" xlink:href="#mfa46ece42a" y="84.659048"/>
     <use style="fill:#98df8a;stroke:#ffffff;stroke-linejoin:miter;stroke-width:0.75;" x="357.278624" xlink:href="#mfa46ece42a" y="84.659048"/>
     <use style="fill:#98df8a;stroke:#ffffff;stroke-linejoin:miter;stroke-width:0.75;" x="358.572313" xlink:href="#mfa46ece42a" y="84.659048"/>
     <use style="fill:#98df8a;stroke:#ffffff;stroke-linejoin:miter;stroke-width:0.75;" x="359.843104" xlink:href="#mfa46ece42a" y="84.659048"/>
     <use style="fill:#98df8a;stroke:#ffffff;stroke-linejoin:miter;stroke-width:0.75;" x="361.091794" xlink:href="#mfa46ece42a" y="84.659048"/>
     <use style="fill:#98df8a;stroke:#ffffff;stroke-linejoin:miter;stroke-width:0.75;" x="362.319136" xlink:href="#mfa46ece42a" y="84.659048"/>
     <use style="fill:#98df8a;stroke:#ffffff;stroke-linejoin:miter;stroke-width:0.75;" x="363.525851" xlink:href="#mfa46ece42a" y="84.659048"/>
     <use style="fill:#98df8a;stroke:#ffffff;stroke-linejoin:miter;stroke-width:0.75;" x="364.712619" xlink:href="#mfa46ece42a" y="84.659048"/>
     <use style="fill:#98df8a;stroke:#ffffff;stroke-linejoin:miter;stroke-width:0.75;" x="365.880089" xlink:href="#mfa46ece42a" y="84.659048"/>
     <use style="fill:#98df8a;stroke:#ffffff;stroke-linejoin:miter;stroke-width:0.75;" x="367.028878" xlink:href="#mfa46ece42a" y="84.659048"/>
     <use style="fill:#98df8a;stroke:#ffffff;stroke-linejoin:miter;stroke-width:0.75;" x="368.159576" xlink:href="#mfa46ece42a" y="84.659048"/>
     <use style="fill:#98df8a;stroke:#ffffff;stroke-linejoin:miter;stroke-width:0.75;" x="369.272743" xlink:href="#mfa46ece42a" y="84.659048"/>
     <use style="fill:#98df8a;stroke:#ffffff;stroke-linejoin:miter;stroke-width:0.75;" x="370.368914" xlink:href="#mfa46ece42a" y="84.659048"/>
     <use style="fill:#98df8a;stroke:#ffffff;stroke-linejoin:miter;stroke-width:0.75;" x="371.4486" xlink:href="#mfa46ece42a" y="84.659048"/>
     <use style="fill:#98df8a;stroke:#ffffff;stroke-linejoin:miter;stroke-width:0.75;" x="372.512291" xlink:href="#mfa46ece42a" y="84.659048"/>
     <use style="fill:#98df8a;stroke:#ffffff;stroke-linejoin:miter;stroke-width:0.75;" x="373.560453" xlink:href="#mfa46ece42a" y="84.659048"/>
     <use style="fill:#98df8a;stroke:#ffffff;stroke-linejoin:miter;stroke-width:0.75;" x="374.593533" xlink:href="#mfa46ece42a" y="84.659048"/>
     <use style="fill:#98df8a;stroke:#ffffff;stroke-linejoin:miter;stroke-width:0.75;" x="375.611959" xlink:href="#mfa46ece42a" y="84.659048"/>
     <use style="fill:#98df8a;stroke:#ffffff;stroke-linejoin:miter;stroke-width:0.75;" x="376.616141" xlink:href="#mfa46ece42a" y="84.659048"/>
     <use style="fill:#98df8a;stroke:#ffffff;stroke-linejoin:miter;stroke-width:0.75;" x="377.606471" xlink:href="#mfa46ece42a" y="84.659048"/>
     <use style="fill:#98df8a;stroke:#ffffff;stroke-linejoin:miter;stroke-width:0.75;" x="378.583327" xlink:href="#mfa46ece42a" y="84.659048"/>
     <use style="fill:#98df8a;stroke:#ffffff;stroke-linejoin:miter;stroke-width:0.75;" x="379.547071" xlink:href="#mfa46ece42a" y="84.659048"/>
     <use style="fill:#98df8a;stroke:#ffffff;stroke-linejoin:miter;stroke-width:0.75;" x="380.498049" xlink:href="#mfa46ece42a" y="84.659048"/>
     <use style="fill:#98df8a;stroke:#ffffff;stroke-linejoin:miter;stroke-width:0.75;" x="381.436596" xlink:href="#mfa46ece42a" y="84.659048"/>
     <use style="fill:#98df8a;stroke:#ffffff;stroke-linejoin:miter;stroke-width:0.75;" x="382.363032" xlink:href="#mfa46ece42a" y="84.659048"/>
     <use style="fill:#98df8a;stroke:#ffffff;stroke-linejoin:miter;stroke-width:0.75;" x="383.277666" xlink:href="#mfa46ece42a" y="84.659048"/>
     <use style="fill:#98df8a;stroke:#ffffff;stroke-linejoin:miter;stroke-width:0.75;" x="384.180795" xlink:href="#mfa46ece42a" y="84.659048"/>
     <use style="fill:#98df8a;stroke:#ffffff;stroke-linejoin:miter;stroke-width:0.75;" x="385.072705" xlink:href="#mfa46ece42a" y="84.659048"/>
     <use style="fill:#98df8a;stroke:#ffffff;stroke-linejoin:miter;stroke-width:0.75;" x="385.953671" xlink:href="#mfa46ece42a" y="84.659048"/>
     <use style="fill:#98df8a;stroke:#ffffff;stroke-linejoin:miter;stroke-width:0.75;" x="386.823958" xlink:href="#mfa46ece42a" y="84.659048"/>
     <use style="fill:#98df8a;stroke:#ffffff;stroke-linejoin:miter;stroke-width:0.75;" x="387.683823" xlink:href="#mfa46ece42a" y="84.659048"/>
     <use style="fill:#98df8a;stroke:#ffffff;stroke-linejoin:miter;stroke-width:0.75;" x="388.533511" xlink:href="#mfa46ece42a" y="84.659048"/>
     <use style="fill:#98df8a;stroke:#ffffff;stroke-linejoin:miter;stroke-width:0.75;" x="389.373261" xlink:href="#mfa46ece42a" y="84.659048"/>
     <use style="fill:#98df8a;stroke:#ffffff;stroke-linejoin:miter;stroke-width:0.75;" x="390.203303" xlink:href="#mfa46ece42a" y="84.659048"/>
     <use style="fill:#98df8a;stroke:#ffffff;stroke-linejoin:miter;stroke-width:0.75;" x="391.023858" xlink:href="#mfa46ece42a" y="84.659048"/>
     <use style="fill:#98df8a;stroke:#ffffff;stroke-linejoin:miter;stroke-width:0.75;" x="391.835142" xlink:href="#mfa46ece42a" y="84.659048"/>
     <use style="fill:#98df8a;stroke:#ffffff;stroke-linejoin:miter;stroke-width:0.75;" x="392.63736" xlink:href="#mfa46ece42a" y="84.659048"/>
     <use style="fill:#98df8a;stroke:#ffffff;stroke-linejoin:miter;stroke-width:0.75;" x="393.430714" xlink:href="#mfa46ece42a" y="80.937202"/>
     <use style="fill:#98df8a;stroke:#ffffff;stroke-linejoin:miter;stroke-width:0.75;" x="394.215398" xlink:href="#mfa46ece42a" y="80.937202"/>
    </g>
   </g>
   <g id="line2d_34"/>
   <g id="line2d_35"/>
   <g id="line2d_36"/>
   <g id="patch_3">
    <path d="M 53.328125 254.003048 
L 53.328125 30.692279 
" style="fill:none;stroke:#000000;stroke-linecap:square;stroke-linejoin:miter;stroke-width:0.8;"/>
   </g>
   <g id="patch_4">
    <path d="M 69.560852 288.430125 
L 394.216265 288.430125 
" style="fill:none;stroke:#000000;stroke-linecap:square;stroke-linejoin:miter;stroke-width:0.8;"/>
   </g>
   <g id="text_16">
    <!-- libgit2_objects_fuzzer (23h, 16 trials/fuzzer) -->
    <g transform="translate(100.383125 16.318125)scale(0.12 -0.12)">
     <defs>
      <path d="M 603 4863 
L 1178 4863 
L 1178 0 
L 603 0 
L 603 4863 
z
" id="DejaVuSans-6c" transform="scale(0.015625)"/>
      <path d="M 3116 1747 
Q 3116 2381 2855 2742 
Q 2594 3103 2138 3103 
Q 1681 3103 1420 2742 
Q 1159 2381 1159 1747 
Q 1159 1113 1420 752 
Q 1681 391 2138 391 
Q 2594 391 2855 752 
Q 3116 1113 3116 1747 
z
M 1159 2969 
Q 1341 3281 1617 3432 
Q 1894 3584 2278 3584 
Q 2916 3584 3314 3078 
Q 3713 2572 3713 1747 
Q 3713 922 3314 415 
Q 2916 -91 2278 -91 
Q 1894 -91 1617 61 
Q 1341 213 1159 525 
L 1159 0 
L 581 0 
L 581 4863 
L 1159 4863 
L 1159 2969 
z
" id="DejaVuSans-62" transform="scale(0.015625)"/>
      <path d="M 3263 -1063 
L 3263 -1509 
L -63 -1509 
L -63 -1063 
L 3263 -1063 
z
" id="DejaVuSans-5f" transform="scale(0.015625)"/>
      <path d="M 603 3500 
L 1178 3500 
L 1178 -63 
Q 1178 -731 923 -1031 
Q 669 -1331 103 -1331 
L -116 -1331 
L -116 -844 
L 38 -844 
Q 366 -844 484 -692 
Q 603 -541 603 -63 
L 603 3500 
z
M 603 4863 
L 1178 4863 
L 1178 4134 
L 603 4134 
L 603 4863 
z
" id="DejaVuSans-6a" transform="scale(0.015625)"/>
      <path d="M 2834 3397 
L 2834 2853 
Q 2591 2978 2328 3040 
Q 2066 3103 1784 3103 
Q 1356 3103 1142 2972 
Q 928 2841 928 2578 
Q 928 2378 1081 2264 
Q 1234 2150 1697 2047 
L 1894 2003 
Q 2506 1872 2764 1633 
Q 3022 1394 3022 966 
Q 3022 478 2636 193 
Q 2250 -91 1575 -91 
Q 1294 -91 989 -36 
Q 684 19 347 128 
L 347 722 
Q 666 556 975 473 
Q 1284 391 1588 391 
Q 1994 391 2212 530 
Q 2431 669 2431 922 
Q 2431 1156 2273 1281 
Q 2116 1406 1581 1522 
L 1381 1569 
Q 847 1681 609 1914 
Q 372 2147 372 2553 
Q 372 3047 722 3315 
Q 1072 3584 1716 3584 
Q 2034 3584 2315 3537 
Q 2597 3491 2834 3397 
z
" id="DejaVuSans-73" transform="scale(0.015625)"/>
      <path d="M 2375 4863 
L 2375 4384 
L 1825 4384 
Q 1516 4384 1395 4259 
Q 1275 4134 1275 3809 
L 1275 3500 
L 2222 3500 
L 2222 3053 
L 1275 3053 
L 1275 0 
L 697 0 
L 697 3053 
L 147 3053 
L 147 3500 
L 697 3500 
L 697 3744 
Q 697 4328 969 4595 
Q 1241 4863 1831 4863 
L 2375 4863 
z
" id="DejaVuSans-66" transform="scale(0.015625)"/>
      <path d="M 353 3500 
L 3084 3500 
L 3084 2975 
L 922 459 
L 3084 459 
L 3084 0 
L 275 0 
L 275 525 
L 2438 3041 
L 353 3041 
L 353 3500 
z
" id="DejaVuSans-7a" transform="scale(0.015625)"/>
      <path d="M 750 794 
L 1409 794 
L 1409 256 
L 897 -744 
L 494 -744 
L 750 256 
L 750 794 
z
" id="DejaVuSans-2c" transform="scale(0.015625)"/>
      <path d="M 1625 4666 
L 2156 4666 
L 531 -594 
L 0 -594 
L 1625 4666 
z
" id="DejaVuSans-2f" transform="scale(0.015625)"/>
     </defs>
     <use xlink:href="#DejaVuSans-6c"/>
     <use x="27.783203" xlink:href="#DejaVuSans-69"/>
     <use x="55.566406" xlink:href="#DejaVuSans-62"/>
     <use x="119.042969" xlink:href="#DejaVuSans-67"/>
     <use x="182.519531" xlink:href="#DejaVuSans-69"/>
     <use x="210.302734" xlink:href="#DejaVuSans-74"/>
     <use x="249.511719" xlink:href="#DejaVuSans-32"/>
     <use x="313.134766" xlink:href="#DejaVuSans-5f"/>
     <use x="363.134766" xlink:href="#DejaVuSans-6f"/>
     <use x="424.316406" xlink:href="#DejaVuSans-62"/>
     <use x="487.792969" xlink:href="#DejaVuSans-6a"/>
     <use x="515.576172" xlink:href="#DejaVuSans-65"/>
     <use x="577.099609" xlink:href="#DejaVuSans-63"/>
     <use x="632.080078" xlink:href="#DejaVuSans-74"/>
     <use x="671.289062" xlink:href="#DejaVuSans-73"/>
     <use x="723.388672" xlink:href="#DejaVuSans-5f"/>
     <use x="773.388672" xlink:href="#DejaVuSans-66"/>
     <use x="808.59375" xlink:href="#DejaVuSans-75"/>
     <use x="871.972656" xlink:href="#DejaVuSans-7a"/>
     <use x="924.462891" xlink:href="#DejaVuSans-7a"/>
     <use x="976.953125" xlink:href="#DejaVuSans-65"/>
     <use x="1038.476562" xlink:href="#DejaVuSans-72"/>
     <use x="1079.589844" xlink:href="#DejaVuSans-20"/>
     <use x="1111.376953" xlink:href="#DejaVuSans-28"/>
     <use x="1150.390625" xlink:href="#DejaVuSans-32"/>
     <use x="1214.013672" xlink:href="#DejaVuSans-33"/>
     <use x="1277.636719" xlink:href="#DejaVuSans-68"/>
     <use x="1341.015625" xlink:href="#DejaVuSans-2c"/>
     <use x="1372.802734" xlink:href="#DejaVuSans-20"/>
     <use x="1404.589844" xlink:href="#DejaVuSans-31"/>
     <use x="1468.212891" xlink:href="#DejaVuSans-36"/>
     <use x="1531.835938" xlink:href="#DejaVuSans-20"/>
     <use x="1563.623047" xlink:href="#DejaVuSans-74"/>
     <use x="1602.832031" xlink:href="#DejaVuSans-72"/>
     <use x="1643.945312" xlink:href="#DejaVuSans-69"/>
     <use x="1671.728516" xlink:href="#DejaVuSans-61"/>
     <use x="1733.007812" xlink:href="#DejaVuSans-6c"/>
     <use x="1760.791016" xlink:href="#DejaVuSans-73"/>
     <use x="1812.890625" xlink:href="#DejaVuSans-2f"/>
     <use x="1846.582031" xlink:href="#DejaVuSans-66"/>
     <use x="1881.787109" xlink:href="#DejaVuSans-75"/>
     <use x="1945.166016" xlink:href="#DejaVuSans-7a"/>
     <use x="1997.65625" xlink:href="#DejaVuSans-7a"/>
     <use x="2050.146484" xlink:href="#DejaVuSans-65"/>
     <use x="2111.669922" xlink:href="#DejaVuSans-72"/>
     <use x="2152.783203" xlink:href="#DejaVuSans-29"/>
    </g>
   </g>
   <g id="legend_1">
    <g id="line2d_37">
     <path d="M 414.448125 30.416562 
L 434.448125 30.416562 
" style="fill:none;stroke:#1f77b4;stroke-linecap:square;stroke-width:1.5;"/>
    </g>
    <g id="line2d_38">
     <defs>
      <path d="M 0 3 
C 0.795609 3 1.55874 2.683901 2.12132 2.12132 
C 2.683901 1.55874 3 0.795609 3 0 
C 3 -0.795609 2.683901 -1.55874 2.12132 -2.12132 
C 1.55874 -2.683901 0.795609 -3 0 -3 
C -0.795609 -3 -1.55874 -2.683901 -2.12132 -2.12132 
C -2.683901 -1.55874 -3 -0.795609 -3 0 
C -3 0.795609 -2.683901 1.55874 -2.12132 2.12132 
C -1.55874 2.683901 -0.795609 3 0 3 
z
" id="m9fad46a183" style="stroke:#1f77b4;"/>
     </defs>
     <g>
      <use style="fill:#1f77b4;stroke:#1f77b4;" x="424.448125" xlink:href="#m9fad46a183" y="30.416562"/>
     </g>
    </g>
    <g id="text_17">
     <!-- afl -->
     <g transform="translate(442.448125 33.916562)scale(0.1 -0.1)">
      <use xlink:href="#DejaVuSans-61"/>
      <use x="61.279297" xlink:href="#DejaVuSans-66"/>
      <use x="96.484375" xlink:href="#DejaVuSans-6c"/>
     </g>
    </g>
    <g id="line2d_39">
     <path d="M 414.448125 45.094688 
L 434.448125 45.094688 
" style="fill:none;stroke:#d62728;stroke-linecap:square;stroke-width:1.5;"/>
    </g>
    <g id="line2d_40">
     <defs>
      <path d="M 0 -3 
L -3 3 
L 3 3 
z
" id="mfbe55b01a6" style="stroke:#d62728;stroke-linejoin:miter;"/>
     </defs>
     <g>
      <use style="fill:#d62728;stroke:#d62728;stroke-linejoin:miter;" x="424.448125" xlink:href="#mfbe55b01a6" y="45.094688"/>
     </g>
    </g>
    <g id="text_18">
     <!-- afl_scheduling_random -->
     <g transform="translate(442.448125 48.594688)scale(0.1 -0.1)">
      <use xlink:href="#DejaVuSans-61"/>
      <use x="61.279297" xlink:href="#DejaVuSans-66"/>
      <use x="96.484375" xlink:href="#DejaVuSans-6c"/>
      <use x="124.267578" xlink:href="#DejaVuSans-5f"/>
      <use x="174.267578" xlink:href="#DejaVuSans-73"/>
      <use x="226.367188" xlink:href="#DejaVuSans-63"/>
      <use x="281.347656" xlink:href="#DejaVuSans-68"/>
      <use x="344.726562" xlink:href="#DejaVuSans-65"/>
      <use x="406.25" xlink:href="#DejaVuSans-64"/>
      <use x="469.726562" xlink:href="#DejaVuSans-75"/>
      <use x="533.105469" xlink:href="#DejaVuSans-6c"/>
      <use x="560.888672" xlink:href="#DejaVuSans-69"/>
      <use x="588.671875" xlink:href="#DejaVuSans-6e"/>
      <use x="652.050781" xlink:href="#DejaVuSans-67"/>
      <use x="715.527344" xlink:href="#DejaVuSans-5f"/>
      <use x="765.527344" xlink:href="#DejaVuSans-72"/>
      <use x="806.640625" xlink:href="#DejaVuSans-61"/>
      <use x="867.919922" xlink:href="#DejaVuSans-6e"/>
      <use x="931.298828" xlink:href="#DejaVuSans-64"/>
      <use x="994.775391" xlink:href="#DejaVuSans-6f"/>
      <use x="1055.957031" xlink:href="#DejaVuSans-6d"/>
     </g>
    </g>
    <g id="line2d_41">
     <path d="M 414.448125 60.050937 
L 434.448125 60.050937 
" style="fill:none;stroke:#98df8a;stroke-linecap:square;stroke-width:1.5;"/>
    </g>
    <g id="line2d_42">
     <defs>
      <path d="M -0 3 
L 3 -3 
L -3 -3 
z
" id="m77ec548476" style="stroke:#98df8a;stroke-linejoin:miter;"/>
     </defs>
     <g>
      <use style="fill:#98df8a;stroke:#98df8a;stroke-linejoin:miter;" x="424.448125" xlink:href="#m77ec548476" y="60.050937"/>
     </g>
    </g>
    <g id="text_19">
     <!-- afl_scheduling_lifo -->
     <g transform="translate(442.448125 63.550937)scale(0.1 -0.1)">
      <use xlink:href="#DejaVuSans-61"/>
      <use x="61.279297" xlink:href="#DejaVuSans-66"/>
      <use x="96.484375" xlink:href="#DejaVuSans-6c"/>
      <use x="124.267578" xlink:href="#DejaVuSans-5f"/>
      <use x="174.267578" xlink:href="#DejaVuSans-73"/>
      <use x="226.367188" xlink:href="#DejaVuSans-63"/>
      <use x="281.347656" xlink:href="#DejaVuSans-68"/>
      <use x="344.726562" xlink:href="#DejaVuSans-65"/>
      <use x="406.25" xlink:href="#DejaVuSans-64"/>
      <use x="469.726562" xlink:href="#DejaVuSans-75"/>
      <use x="533.105469" xlink:href="#DejaVuSans-6c"/>
      <use x="560.888672" xlink:href="#DejaVuSans-69"/>
      <use x="588.671875" xlink:href="#DejaVuSans-6e"/>
      <use x="652.050781" xlink:href="#DejaVuSans-67"/>
      <use x="715.527344" xlink:href="#DejaVuSans-5f"/>
      <use x="765.527344" xlink:href="#DejaVuSans-6c"/>
      <use x="793.310547" xlink:href="#DejaVuSans-69"/>
      <use x="821.09375" xlink:href="#DejaVuSans-66"/>
      <use x="856.298828" xlink:href="#DejaVuSans-6f"/>
     </g>
    </g>
   </g>
  </g>
 </g>
 <defs>
  <clipPath id="p17c418353f">
   <rect height="266.112" width="357.12" x="53.328125" y="22.318125"/>
  </clipPath>
 </defs>
</svg>
