<?xml version="1.0" encoding="utf-8" standalone="no"?>
<!DOCTYPE svg PUBLIC "-//W3C//DTD SVG 1.1//EN"
  "http://www.w3.org/Graphics/SVG/1.1/DTD/svg11.dtd">
<svg height="325.986375pt" version="1.1" viewBox="0 0 575.348125 325.986375" width="575.348125pt" xmlns="http://www.w3.org/2000/svg" xmlns:xlink="http://www.w3.org/1999/xlink">
 <metadata>
  <rdf:RDF xmlns:cc="http://creativecommons.org/ns#" xmlns:dc="http://purl.org/dc/elements/1.1/" xmlns:rdf="http://www.w3.org/1999/02/22-rdf-syntax-ns#">
   <cc:Work>
    <dc:type rdf:resource="http://purl.org/dc/dcmitype/StillImage"/>
    <dc:date>2022-05-31T14:21:01.610909</dc:date>
    <dc:format>image/svg+xml</dc:format>
    <dc:creator>
     <cc:Agent>
      <dc:title>Matplotlib v3.4.3, https://matplotlib.org/</dc:title>
     </cc:Agent>
    </dc:creator>
   </cc:Work>
  </rdf:RDF>
 </metadata>
 <defs>
  <style type="text/css">*{stroke-linecap:butt;stroke-linejoin:round;}</style>
 </defs>
 <g id="figure_1">
  <g id="patch_1">
   <path d="M 0 325.986375 
L 575.348125 325.986375 
L 575.348125 0 
L 0 0 
z
" style="fill:#ffffff;"/>
  </g>
  <g id="axes_1">
   <g id="patch_2">
    <path d="M 59.690625 288.430125 
L 416.810625 288.430125 
L 416.810625 22.318125 
L 59.690625 22.318125 
z
" style="fill:#ffffff;"/>
   </g>
   <g id="PolyCollection_1">
    <defs>
     <path d="M 75.923352 -123.211534 
L 75.923352 -49.65225 
L 125.689806 -57.935351 
L 154.801316 -81.488751 
L 175.45626 -120.272369 
L 191.47748 -145.228552 
L 204.567769 -148.969308 
L 215.635452 -161.955073 
L 225.222714 -162.916982 
L 233.679279 -170.932886 
L 241.243934 -171.707757 
L 248.086996 -171.773888 
L 254.334223 -188.915232 
L 260.081115 -208.099964 
L 265.401906 -215.11388 
L 270.355443 -214.699725 
L 274.989168 -215.15396 
L 279.341883 -215.421157 
L 283.445733 -219.843264 
L 287.327641 -217.264815 
L 291.010388 -218.627518 
L 294.513415 -224.866564 
L 297.85345 -232.78895 
L 301.04499 -233.456942 
L 304.100677 -233.670699 
L 307.031607 -233.937896 
L 309.847569 -237.01066 
L 312.557242 -240.083423 
L 315.168359 -248.820759 
L 317.68784 -251.091932 
L 320.121897 -251.706485 
L 322.476135 -252.641673 
L 324.755622 -253.122628 
L 326.96496 -253.309666 
L 329.108337 -253.550143 
L 331.189579 -253.630302 
L 333.212187 -254.084536 
L 335.179373 -254.084536 
L 337.094095 -254.218135 
L 338.959078 -254.325013 
L 340.776842 -254.458612 
L 342.549717 -254.538771 
L 344.279869 -235.167001 
L 345.969307 -254.699089 
L 347.619904 -254.725809 
L 349.233406 -261.29885 
L 350.811444 -261.32557 
L 352.355542 -261.379009 
L 353.867131 -261.539328 
L 355.347551 -250.851455 
L 356.798061 -261.592767 
L 358.219847 -262.260759 
L 359.614023 -252.174079 
L 360.981642 -262.527956 
L 362.323696 -262.554675 
L 363.641124 -262.634834 
L 364.934813 -267.284059 
L 366.205604 -270.864497 
L 367.454294 -266.716266 
L 368.681636 -267.337499 
L 369.888351 -267.390938 
L 371.075119 -267.658135 
L 372.242589 -255.126604 
L 373.391378 -267.658135 
L 374.522076 -255.126604 
L 375.635243 -251.078572 
L 376.731414 -255.246842 
L 377.8111 -267.871892 
L 378.874791 -267.898612 
L 379.922953 -267.898612 
L 380.956033 -271.185133 
L 381.974459 -271.318731 
L 382.978641 -271.318731 
L 383.968971 -273.349427 
L 384.945827 -271.532489 
L 385.909571 -271.532489 
L 386.860549 -273.349427 
L 387.799096 -273.349427 
L 388.725532 -273.95062 
L 389.640166 -273.483025 
L 390.543295 -273.509745 
L 391.435205 -273.616624 
L 392.316171 -273.616624 
L 393.186458 -273.776942 
L 394.046323 -273.776942 
L 394.896011 -273.830381 
L 395.735761 -274.257896 
L 396.565803 -274.376465 
L 397.386358 -274.672051 
L 398.197642 -274.712131 
L 398.99986 -274.525093 
L 399.793214 -274.77893 
L 400.577898 -274.73885 
L 400.577898 -287.40398 
L 400.577898 -287.40398 
L 399.793214 -291.57225 
L 398.99986 -285.814159 
L 398.197642 -285.800799 
L 397.386358 -287.323821 
L 396.565803 -287.323821 
L 395.735761 -285.785435 
L 394.896011 -287.297101 
L 394.046323 -287.297101 
L 393.186458 -285.426723 
L 392.316171 -285.426723 
L 391.435205 -285.515566 
L 390.543295 -285.266405 
L 389.640166 -285.266405 
L 388.725532 -283.940775 
L 387.799096 -284.798811 
L 386.860549 -283.903701 
L 385.909571 -283.507916 
L 384.945827 -282.460838 
L 383.968971 -283.609785 
L 382.978641 -282.35396 
L 381.974459 -282.35396 
L 380.956033 -281.886365 
L 379.922953 -282.30052 
L 378.874791 -281.993244 
L 377.8111 -282.247081 
L 376.731414 -281.579089 
L 375.635243 -281.351972 
L 374.522076 -280.790858 
L 373.391378 -280.750779 
L 372.242589 -280.456862 
L 371.075119 -280.590461 
L 369.888351 -280.269825 
L 368.681636 -279.762151 
L 367.454294 -278.452886 
L 366.205604 -278.452886 
L 364.934813 -278.10553 
L 363.641124 -278.319956 
L 362.323696 -276.42219 
L 360.981642 -276.42219 
L 359.614023 -274.538453 
L 358.219847 -276.021395 
L 356.798061 -276.47563 
L 355.347551 -274.404854 
L 353.867131 -274.658691 
L 352.355542 -275.834357 
L 350.811444 -275.834357 
L 349.233406 -275.032767 
L 347.619904 -274.311335 
L 345.969307 -273.803662 
L 344.279869 -273.776942 
L 342.549717 -273.563184 
L 340.776842 -273.563184 
L 338.959078 -273.563184 
L 337.094095 -272.200481 
L 335.179373 -270.784337 
L 333.212187 -269.515153 
L 331.189579 -269.947009 
L 329.108337 -270.57058 
L 326.96496 -268.03221 
L 324.755622 -266.081673 
L 322.476135 -265.413681 
L 320.121897 -261.913403 
L 317.68784 -261.833244 
L 315.168359 -261.566047 
L 312.557242 -261.405729 
L 309.847569 -261.379009 
L 307.031607 -260.47054 
L 304.100677 -259.428473 
L 301.04499 -256.996982 
L 297.85345 -256.32899 
L 294.513415 -255.901475 
L 291.010388 -255.340361 
L 287.327641 -254.111256 
L 283.445733 -252.267598 
L 279.341883 -253.095908 
L 274.989168 -249.087956 
L 270.355443 -247.351176 
L 265.401906 -248.847479 
L 260.081115 -241.740043 
L 254.334223 -246.496147 
L 248.086996 -231.025451 
L 241.243934 -228.59396 
L 233.679279 -226.670143 
L 225.222714 -225.120401 
L 215.635452 -219.669586 
L 204.567769 -217.69233 
L 191.47748 -207.53885 
L 175.45626 -195.180998 
L 154.801316 -184.314103 
L 125.689806 -155.969864 
L 75.923352 -123.211534 
z
" id="me8a59b8dfa" style="stroke:#d62728;stroke-opacity:0.2;"/>
    </defs>
    <g clip-path="url(#p2463117a4f)">
     <use style="fill:#d62728;fill-opacity:0.2;stroke:#d62728;stroke-opacity:0.2;" x="0" xlink:href="#me8a59b8dfa" y="325.986375"/>
    </g>
   </g>
   <g id="PolyCollection_2">
    <defs>
     <path d="M 75.923352 -126.488703 
L 75.923352 -75.890978 
L 125.689806 -97.867916 
L 154.801316 -132.643582 
L 175.45626 -153.244457 
L 191.47748 -171.921514 
L 204.567769 -182.956743 
L 215.635452 -174.566763 
L 225.222714 -183.651455 
L 233.679279 -188.968671 
L 241.243934 -194.713403 
L 248.086996 -203.952067 
L 254.334223 -209.890182 
L 260.081115 -214.352369 
L 265.401906 -214.018373 
L 270.355443 -223.704258 
L 274.989168 -226.349506 
L 279.341883 -229.555868 
L 283.445733 -234.325332 
L 287.327641 -241.953801 
L 291.010388 -240.644536 
L 294.513415 -251.305689 
L 297.85345 -250.744576 
L 301.04499 -242.768751 
L 304.100677 -251.679765 
L 307.031607 -251.744894 
L 309.847569 -251.704481 
L 312.557242 -253.122628 
L 315.168359 -251.893522 
L 317.68784 -252.294318 
L 320.121897 -246.335829 
L 322.476135 -252.454636 
L 324.755622 -252.58456 
L 326.96496 -238.694 
L 329.108337 -254.659009 
L 331.189579 -256.736465 
L 333.212187 -253.702445 
L 335.179373 -255.068155 
L 337.094095 -256.756504 
L 338.959078 -265.173204 
L 340.776842 -262.354278 
L 342.549717 -265.280083 
L 344.279869 -259.134556 
L 345.969307 -265.173204 
L 347.619904 -262.688274 
L 349.233406 -259.268155 
L 350.811444 -263.544306 
L 352.355542 -259.455192 
L 353.867131 -260.336942 
L 355.347551 -265.280083 
L 356.798061 -265.280083 
L 358.219847 -263.86394 
L 359.614023 -263.944099 
L 360.981642 -265.360242 
L 362.323696 -265.52056 
L 363.641124 -264.451773 
L 364.934813 -264.451773 
L 366.205604 -265.199924 
L 367.454294 -266.081673 
L 368.681636 -267.070302 
L 369.888351 -267.952051 
L 371.075119 -267.125077 
L 372.242589 -267.952051 
L 373.391378 -267.17718 
L 374.522076 -263.249387 
L 375.635243 -263.382986 
L 376.731414 -263.757061 
L 377.8111 -267.952051 
L 378.874791 -267.952051 
L 379.922953 -267.952051 
L 380.956033 -266.763025 
L 381.974459 -268.833801 
L 382.978641 -268.05893 
L 383.968971 -264.612091 
L 384.945827 -268.499805 
L 385.909571 -268.192528 
L 386.860549 -268.352846 
L 387.799096 -268.700202 
L 388.725532 -268.406286 
L 389.640166 -268.994119 
L 390.543295 -268.673483 
L 391.435205 -268.940679 
L 392.316171 -268.379566 
L 393.186458 -268.994119 
L 394.046323 -268.994119 
L 394.896011 -268.994119 
L 395.735761 -268.994119 
L 396.565803 -265.413681 
L 397.386358 -268.994119 
L 398.197642 -268.679161 
L 398.99986 -270.463701 
L 399.793214 -269.154437 
L 400.577898 -269.849149 
L 400.577898 -280.410103 
L 400.577898 -280.410103 
L 399.793214 -280.67062 
L 398.99986 -281.405411 
L 398.197642 -280.67062 
L 397.386358 -280.082787 
L 396.565803 -277.357379 
L 395.735761 -278.243471 
L 394.896011 -279.174318 
L 394.046323 -279.094159 
L 393.186458 -278.98728 
L 392.316171 -279.588473 
L 391.435205 -277.637936 
L 390.543295 -278.907121 
L 389.640166 -278.907121 
L 388.725532 -278.506326 
L 387.799096 -278.319288 
L 386.860549 -277.09252 
L 385.909571 -276.863065 
L 384.945827 -276.869745 
L 383.968971 -276.288592 
L 382.978641 -276.235153 
L 381.974459 -275.861077 
L 380.956033 -275.059487 
L 379.922953 -274.712131 
L 378.874791 -275.861077 
L 377.8111 -274.712131 
L 376.731414 -275.861077 
L 375.635243 -274.605252 
L 374.522076 -274.525093 
L 373.391378 -274.471654 
L 372.242589 -274.311335 
L 371.075119 -273.830381 
L 369.888351 -273.830381 
L 368.681636 -274.257896 
L 367.454294 -273.670063 
L 366.205604 -274.231176 
L 364.934813 -273.790302 
L 363.641124 -273.322707 
L 362.323696 -273.269268 
L 360.981642 -273.269268 
L 359.614023 -273.269268 
L 358.219847 -273.162389 
L 356.798061 -272.815033 
L 355.347551 -271.559208 
L 353.867131 -270.891216 
L 352.355542 -270.757618 
L 350.811444 -272.013443 
L 349.233406 -270.677459 
L 347.619904 -269.239606 
L 345.969307 -269.301395 
L 344.279869 -268.299407 
L 342.549717 -268.192528 
L 340.776842 -270.464035 
L 338.959078 -267.738294 
L 337.094095 -270.036186 
L 335.179373 -267.444377 
L 333.212187 -267.417658 
L 331.189579 -267.420998 
L 329.108337 -268.726922 
L 326.96496 -267.337499 
L 324.755622 -267.337499 
L 322.476135 -267.377578 
L 320.121897 -267.23062 
L 317.68784 -266.616067 
L 315.168359 -265.093045 
L 312.557242 -264.505212 
L 309.847569 -264.264735 
L 307.031607 -263.169228 
L 304.100677 -262.968831 
L 301.04499 -262.394357 
L 297.85345 -261.993562 
L 294.513415 -261.795836 
L 291.010388 -260.951495 
L 287.327641 -260.551367 
L 283.445733 -259.401753 
L 279.341883 -257.718413 
L 274.989168 -256.489308 
L 270.355443 -256.382429 
L 265.401906 -254.672369 
L 260.081115 -250.931614 
L 254.334223 -248.580282 
L 248.086996 -244.999844 
L 241.243934 -242.528274 
L 233.679279 -239.46887 
L 225.222714 -236.235789 
L 215.635452 -232.147677 
L 204.567769 -224.906644 
L 191.47748 -217.371693 
L 175.45626 -196.313912 
L 154.801316 -190.197777 
L 125.689806 -158.757729 
L 75.923352 -126.488703 
z
" id="mfd4aef82f0" style="stroke:#1f77b4;stroke-opacity:0.2;"/>
    </defs>
    <g clip-path="url(#p2463117a4f)">
     <use style="fill:#1f77b4;fill-opacity:0.2;stroke:#1f77b4;stroke-opacity:0.2;" x="0" xlink:href="#mfd4aef82f0" y="325.986375"/>
    </g>
   </g>
   <g id="PolyCollection_3">
    <defs>
     <path d="M 75.923352 -107.674039 
L 75.923352 -50.32759 
L 125.689806 -72.36398 
L 154.801316 -89.97225 
L 175.45626 -113.48557 
L 191.47748 -115.422747 
L 204.567769 -116.705292 
L 215.635452 -120.112051 
L 225.222714 -127.660361 
L 233.679279 -135.622827 
L 241.243934 -136.451137 
L 248.086996 -140.766365 
L 254.334223 -149.156345 
L 260.081115 -149.6373 
L 265.401906 -143.839129 
L 270.355443 -150.839685 
L 274.989168 -153.965888 
L 279.341883 -153.859009 
L 283.445733 -155.382031 
L 287.327641 -155.649228 
L 291.010388 -157.17225 
L 294.513415 -157.893681 
L 297.85345 -158.508234 
L 301.04499 -159.764059 
L 304.100677 -159.403343 
L 307.031607 -160.645809 
L 309.847569 -160.685888 
L 312.557242 -163.504815 
L 315.168359 -164.306405 
L 317.68784 -164.974397 
L 320.121897 -165.214874 
L 322.476135 -165.388552 
L 324.755622 -165.802707 
L 326.96496 -166.951654 
L 329.108337 -167.058532 
L 331.189579 -167.940282 
L 333.212187 -168.634994 
L 335.179373 -170.345053 
L 337.094095 -170.63897 
L 338.959078 -171.560799 
L 340.776842 -171.761196 
L 342.549717 -173.765172 
L 344.279869 -173.214747 
L 345.969307 -173.551415 
L 347.619904 -173.484616 
L 349.233406 -175.920449 
L 350.811444 -173.818612 
L 352.355542 -175.061077 
L 353.867131 -177.906723 
L 355.347551 -176.063065 
L 356.798061 -178.1472 
L 358.219847 -179.723662 
L 359.614023 -180.883296 
L 360.981642 -180.89866 
L 362.323696 -181.006206 
L 363.641124 -182.36891 
L 364.934813 -181.700918 
L 366.205604 -180.017578 
L 367.454294 -183.1705 
L 368.681636 -181.981475 
L 369.888351 -180.739009 
L 371.075119 -182.422349 
L 372.242589 -182.783065 
L 373.391378 -185.588632 
L 374.522076 -185.76231 
L 375.635243 -185.976067 
L 376.731414 -186.53718 
L 377.8111 -186.617339 
L 378.874791 -186.617339 
L 379.922953 -188.674755 
L 380.956033 -188.100282 
L 381.974459 -188.701475 
L 382.978641 -189.008751 
L 383.968971 -190.678731 
L 384.945827 -192.068155 
L 385.909571 -190.077538 
L 386.860549 -190.691089 
L 387.799096 -188.327399 
L 388.725532 -190.251216 
L 389.640166 -190.251216 
L 390.543295 -188.621316 
L 391.435205 -192.132282 
L 392.316171 -192.175033 
L 393.186458 -190.932568 
L 394.046323 -192.736147 
L 394.896011 -192.816306 
L 395.735761 -192.816306 
L 396.565803 -193.003343 
L 397.386358 -193.003343 
L 398.197642 -193.030063 
L 398.99986 -192.388791 
L 399.793214 -193.030063 
L 400.577898 -192.388791 
L 400.577898 -233.937896 
L 400.577898 -233.937896 
L 399.793214 -238.159606 
L 398.99986 -233.122946 
L 398.197642 -237.732091 
L 397.386358 -237.064099 
L 396.565803 -226.723582 
L 395.735761 -237.01066 
L 394.896011 -236.476266 
L 394.046323 -236.476266 
L 393.186458 -227.125713 
L 392.316171 -226.269347 
L 391.435205 -230.825053 
L 390.543295 -226.269347 
L 389.640166 -229.462015 
L 388.725532 -229.366493 
L 387.799096 -223.036266 
L 386.860549 -225.962739 
L 385.909571 -229.649387 
L 384.945827 -233.991335 
L 383.968971 -233.991335 
L 382.978641 -224.960083 
L 381.974459 -228.059566 
L 380.956033 -223.463781 
L 379.922953 -223.410341 
L 378.874791 -223.410341 
L 377.8111 -224.719606 
L 376.731414 -221.940759 
L 375.635243 -221.780441 
L 374.522076 -222.996186 
L 373.391378 -221.727001 
L 372.242589 -221.593403 
L 371.075119 -222.354914 
L 369.888351 -221.112449 
L 368.681636 -219.188632 
L 367.454294 -220.003582 
L 366.205604 -219.055033 
L 364.934813 -219.028314 
L 363.641124 -218.921435 
L 362.323696 -218.253443 
L 360.981642 -214.485968 
L 359.614023 -216.503304 
L 358.219847 -218.52064 
L 356.798061 -218.413761 
L 355.347551 -216.222747 
L 353.867131 -214.058453 
L 352.355542 -213.344703 
L 350.811444 -213.176703 
L 349.233406 -214.29893 
L 347.619904 -211.413204 
L 345.969307 -213.323662 
L 344.279869 -211.065848 
L 342.549717 -214.32565 
L 340.776842 -209.943622 
L 338.959078 -209.873817 
L 337.094095 -209.168751 
L 335.179373 -208.674437 
L 333.212187 -208.059884 
L 331.189579 -205.721912 
L 329.108337 -205.481435 
L 326.96496 -205.08064 
L 324.755622 -204.760003 
L 322.476135 -204.22561 
L 320.121897 -203.597697 
L 317.68784 -203.557618 
L 315.168359 -203.130103 
L 312.557242 -202.255033 
L 309.847569 -202.061316 
L 307.031607 -201.152846 
L 304.100677 -197.946485 
L 301.04499 -200.217658 
L 297.85345 -196.797538 
L 294.513415 -195.702031 
L 291.010388 -194.9806 
L 287.327641 -194.13893 
L 283.445733 -192.281912 
L 279.341883 -192.068155 
L 274.989168 -190.705451 
L 270.355443 -187.552528 
L 265.401906 -184.03889 
L 260.081115 -185.067598 
L 254.334223 -181.380282 
L 248.086996 -171.708759 
L 241.243934 -173.808926 
L 233.679279 -172.001673 
L 225.222714 -169.904178 
L 215.635452 -168.421236 
L 204.567769 -165.054556 
L 191.47748 -162.743304 
L 175.45626 -152.95054 
L 154.801316 -140.819805 
L 125.689806 -126.591574 
L 75.923352 -107.674039 
z
" id="m03aa6bf420" style="stroke:#98df8a;stroke-opacity:0.2;"/>
    </defs>
    <g clip-path="url(#p2463117a4f)">
     <use style="fill:#98df8a;fill-opacity:0.2;stroke:#98df8a;stroke-opacity:0.2;" x="0" xlink:href="#m03aa6bf420" y="325.986375"/>
    </g>
   </g>
   <g id="matplotlib.axis_1">
    <g id="xtick_1">
     <g id="line2d_1">
      <defs>
       <path d="M 0 0 
L 0 3.5 
" id="m3073e6370f" style="stroke:#000000;stroke-width:0.8;"/>
      </defs>
      <g>
       <use style="stroke:#000000;stroke-width:0.8;" x="75.923352" xlink:href="#m3073e6370f" y="288.430125"/>
      </g>
     </g>
     <g id="text_1">
      <!-- 14m -->
      <g transform="translate(64.69054 303.028562)scale(0.1 -0.1)">
       <defs>
        <path d="M 794 531 
L 1825 531 
L 1825 4091 
L 703 3866 
L 703 4441 
L 1819 4666 
L 2450 4666 
L 2450 531 
L 3481 531 
L 3481 0 
L 794 0 
L 794 531 
z
" id="DejaVuSans-31" transform="scale(0.015625)"/>
        <path d="M 2419 4116 
L 825 1625 
L 2419 1625 
L 2419 4116 
z
M 2253 4666 
L 3047 4666 
L 3047 1625 
L 3713 1625 
L 3713 1100 
L 3047 1100 
L 3047 0 
L 2419 0 
L 2419 1100 
L 313 1100 
L 313 1709 
L 2253 4666 
z
" id="DejaVuSans-34" transform="scale(0.015625)"/>
        <path d="M 3328 2828 
Q 3544 3216 3844 3400 
Q 4144 3584 4550 3584 
Q 5097 3584 5394 3201 
Q 5691 2819 5691 2113 
L 5691 0 
L 5113 0 
L 5113 2094 
Q 5113 2597 4934 2840 
Q 4756 3084 4391 3084 
Q 3944 3084 3684 2787 
Q 3425 2491 3425 1978 
L 3425 0 
L 2847 0 
L 2847 2094 
Q 2847 2600 2669 2842 
Q 2491 3084 2119 3084 
Q 1678 3084 1418 2786 
Q 1159 2488 1159 1978 
L 1159 0 
L 581 0 
L 581 3500 
L 1159 3500 
L 1159 2956 
Q 1356 3278 1631 3431 
Q 1906 3584 2284 3584 
Q 2666 3584 2933 3390 
Q 3200 3197 3328 2828 
z
" id="DejaVuSans-6d" transform="scale(0.015625)"/>
       </defs>
       <use xlink:href="#DejaVuSans-31"/>
       <use x="63.623047" xlink:href="#DejaVuSans-34"/>
       <use x="127.246094" xlink:href="#DejaVuSans-6d"/>
      </g>
     </g>
    </g>
    <g id="xtick_2">
     <g id="line2d_2">
      <g>
       <use style="stroke:#000000;stroke-width:0.8;" x="140.854435" xlink:href="#m3073e6370f" y="288.430125"/>
      </g>
     </g>
     <g id="text_2">
      <!-- 37m -->
      <g transform="translate(129.621622 303.028562)scale(0.1 -0.1)">
       <defs>
        <path d="M 2597 2516 
Q 3050 2419 3304 2112 
Q 3559 1806 3559 1356 
Q 3559 666 3084 287 
Q 2609 -91 1734 -91 
Q 1441 -91 1130 -33 
Q 819 25 488 141 
L 488 750 
Q 750 597 1062 519 
Q 1375 441 1716 441 
Q 2309 441 2620 675 
Q 2931 909 2931 1356 
Q 2931 1769 2642 2001 
Q 2353 2234 1838 2234 
L 1294 2234 
L 1294 2753 
L 1863 2753 
Q 2328 2753 2575 2939 
Q 2822 3125 2822 3475 
Q 2822 3834 2567 4026 
Q 2313 4219 1838 4219 
Q 1578 4219 1281 4162 
Q 984 4106 628 3988 
L 628 4550 
Q 988 4650 1302 4700 
Q 1616 4750 1894 4750 
Q 2613 4750 3031 4423 
Q 3450 4097 3450 3541 
Q 3450 3153 3228 2886 
Q 3006 2619 2597 2516 
z
" id="DejaVuSans-33" transform="scale(0.015625)"/>
        <path d="M 525 4666 
L 3525 4666 
L 3525 4397 
L 1831 0 
L 1172 0 
L 2766 4134 
L 525 4134 
L 525 4666 
z
" id="DejaVuSans-37" transform="scale(0.015625)"/>
       </defs>
       <use xlink:href="#DejaVuSans-33"/>
       <use x="63.623047" xlink:href="#DejaVuSans-37"/>
       <use x="127.246094" xlink:href="#DejaVuSans-6d"/>
      </g>
     </g>
    </g>
    <g id="xtick_3">
     <g id="line2d_3">
      <g>
       <use style="stroke:#000000;stroke-width:0.8;" x="205.785517" xlink:href="#m3073e6370f" y="288.430125"/>
      </g>
     </g>
     <g id="text_3">
      <!-- 1h:31m -->
      <g transform="translate(186.51833 303.028562)scale(0.1 -0.1)">
       <defs>
        <path d="M 3513 2113 
L 3513 0 
L 2938 0 
L 2938 2094 
Q 2938 2591 2744 2837 
Q 2550 3084 2163 3084 
Q 1697 3084 1428 2787 
Q 1159 2491 1159 1978 
L 1159 0 
L 581 0 
L 581 4863 
L 1159 4863 
L 1159 2956 
Q 1366 3272 1645 3428 
Q 1925 3584 2291 3584 
Q 2894 3584 3203 3211 
Q 3513 2838 3513 2113 
z
" id="DejaVuSans-68" transform="scale(0.015625)"/>
        <path d="M 750 794 
L 1409 794 
L 1409 0 
L 750 0 
L 750 794 
z
M 750 3309 
L 1409 3309 
L 1409 2516 
L 750 2516 
L 750 3309 
z
" id="DejaVuSans-3a" transform="scale(0.015625)"/>
       </defs>
       <use xlink:href="#DejaVuSans-31"/>
       <use x="63.623047" xlink:href="#DejaVuSans-68"/>
       <use x="127.001953" xlink:href="#DejaVuSans-3a"/>
       <use x="160.693359" xlink:href="#DejaVuSans-33"/>
       <use x="224.316406" xlink:href="#DejaVuSans-31"/>
       <use x="287.939453" xlink:href="#DejaVuSans-6d"/>
      </g>
     </g>
    </g>
    <g id="xtick_4">
     <g id="line2d_4">
      <g>
       <use style="stroke:#000000;stroke-width:0.8;" x="270.7166" xlink:href="#m3073e6370f" y="288.430125"/>
      </g>
     </g>
     <g id="text_4">
      <!-- 3h:46m -->
      <g transform="translate(251.449412 303.028562)scale(0.1 -0.1)">
       <defs>
        <path d="M 2113 2584 
Q 1688 2584 1439 2293 
Q 1191 2003 1191 1497 
Q 1191 994 1439 701 
Q 1688 409 2113 409 
Q 2538 409 2786 701 
Q 3034 994 3034 1497 
Q 3034 2003 2786 2293 
Q 2538 2584 2113 2584 
z
M 3366 4563 
L 3366 3988 
Q 3128 4100 2886 4159 
Q 2644 4219 2406 4219 
Q 1781 4219 1451 3797 
Q 1122 3375 1075 2522 
Q 1259 2794 1537 2939 
Q 1816 3084 2150 3084 
Q 2853 3084 3261 2657 
Q 3669 2231 3669 1497 
Q 3669 778 3244 343 
Q 2819 -91 2113 -91 
Q 1303 -91 875 529 
Q 447 1150 447 2328 
Q 447 3434 972 4092 
Q 1497 4750 2381 4750 
Q 2619 4750 2861 4703 
Q 3103 4656 3366 4563 
z
" id="DejaVuSans-36" transform="scale(0.015625)"/>
       </defs>
       <use xlink:href="#DejaVuSans-33"/>
       <use x="63.623047" xlink:href="#DejaVuSans-68"/>
       <use x="127.001953" xlink:href="#DejaVuSans-3a"/>
       <use x="160.693359" xlink:href="#DejaVuSans-34"/>
       <use x="224.316406" xlink:href="#DejaVuSans-36"/>
       <use x="287.939453" xlink:href="#DejaVuSans-6d"/>
      </g>
     </g>
    </g>
    <g id="xtick_5">
     <g id="line2d_5">
      <g>
       <use style="stroke:#000000;stroke-width:0.8;" x="335.647682" xlink:href="#m3073e6370f" y="288.430125"/>
      </g>
     </g>
     <g id="text_5">
      <!-- 9h:18m -->
      <g transform="translate(316.380495 303.028562)scale(0.1 -0.1)">
       <defs>
        <path d="M 703 97 
L 703 672 
Q 941 559 1184 500 
Q 1428 441 1663 441 
Q 2288 441 2617 861 
Q 2947 1281 2994 2138 
Q 2813 1869 2534 1725 
Q 2256 1581 1919 1581 
Q 1219 1581 811 2004 
Q 403 2428 403 3163 
Q 403 3881 828 4315 
Q 1253 4750 1959 4750 
Q 2769 4750 3195 4129 
Q 3622 3509 3622 2328 
Q 3622 1225 3098 567 
Q 2575 -91 1691 -91 
Q 1453 -91 1209 -44 
Q 966 3 703 97 
z
M 1959 2075 
Q 2384 2075 2632 2365 
Q 2881 2656 2881 3163 
Q 2881 3666 2632 3958 
Q 2384 4250 1959 4250 
Q 1534 4250 1286 3958 
Q 1038 3666 1038 3163 
Q 1038 2656 1286 2365 
Q 1534 2075 1959 2075 
z
" id="DejaVuSans-39" transform="scale(0.015625)"/>
        <path d="M 2034 2216 
Q 1584 2216 1326 1975 
Q 1069 1734 1069 1313 
Q 1069 891 1326 650 
Q 1584 409 2034 409 
Q 2484 409 2743 651 
Q 3003 894 3003 1313 
Q 3003 1734 2745 1975 
Q 2488 2216 2034 2216 
z
M 1403 2484 
Q 997 2584 770 2862 
Q 544 3141 544 3541 
Q 544 4100 942 4425 
Q 1341 4750 2034 4750 
Q 2731 4750 3128 4425 
Q 3525 4100 3525 3541 
Q 3525 3141 3298 2862 
Q 3072 2584 2669 2484 
Q 3125 2378 3379 2068 
Q 3634 1759 3634 1313 
Q 3634 634 3220 271 
Q 2806 -91 2034 -91 
Q 1263 -91 848 271 
Q 434 634 434 1313 
Q 434 1759 690 2068 
Q 947 2378 1403 2484 
z
M 1172 3481 
Q 1172 3119 1398 2916 
Q 1625 2713 2034 2713 
Q 2441 2713 2670 2916 
Q 2900 3119 2900 3481 
Q 2900 3844 2670 4047 
Q 2441 4250 2034 4250 
Q 1625 4250 1398 4047 
Q 1172 3844 1172 3481 
z
" id="DejaVuSans-38" transform="scale(0.015625)"/>
       </defs>
       <use xlink:href="#DejaVuSans-39"/>
       <use x="63.623047" xlink:href="#DejaVuSans-68"/>
       <use x="127.001953" xlink:href="#DejaVuSans-3a"/>
       <use x="160.693359" xlink:href="#DejaVuSans-31"/>
       <use x="224.316406" xlink:href="#DejaVuSans-38"/>
       <use x="287.939453" xlink:href="#DejaVuSans-6d"/>
      </g>
     </g>
    </g>
    <g id="xtick_6">
     <g id="line2d_6">
      <g>
       <use style="stroke:#000000;stroke-width:0.8;" x="400.578765" xlink:href="#m3073e6370f" y="288.430125"/>
      </g>
     </g>
     <g id="text_6">
      <!-- 23h -->
      <g transform="translate(391.047515 303.028562)scale(0.1 -0.1)">
       <defs>
        <path d="M 1228 531 
L 3431 531 
L 3431 0 
L 469 0 
L 469 531 
Q 828 903 1448 1529 
Q 2069 2156 2228 2338 
Q 2531 2678 2651 2914 
Q 2772 3150 2772 3378 
Q 2772 3750 2511 3984 
Q 2250 4219 1831 4219 
Q 1534 4219 1204 4116 
Q 875 4013 500 3803 
L 500 4441 
Q 881 4594 1212 4672 
Q 1544 4750 1819 4750 
Q 2544 4750 2975 4387 
Q 3406 4025 3406 3419 
Q 3406 3131 3298 2873 
Q 3191 2616 2906 2266 
Q 2828 2175 2409 1742 
Q 1991 1309 1228 531 
z
" id="DejaVuSans-32" transform="scale(0.015625)"/>
       </defs>
       <use xlink:href="#DejaVuSans-32"/>
       <use x="63.623047" xlink:href="#DejaVuSans-33"/>
       <use x="127.246094" xlink:href="#DejaVuSans-68"/>
      </g>
     </g>
    </g>
    <g id="xtick_7">
     <g id="line2d_7">
      <defs>
       <path d="M 0 0 
L 0 2 
" id="m14f6a283e2" style="stroke:#000000;stroke-width:0.6;"/>
      </defs>
      <g>
       <use style="stroke:#000000;stroke-width:0.6;" x="67.466788" xlink:href="#m14f6a283e2" y="288.430125"/>
      </g>
     </g>
    </g>
    <g id="xtick_8">
     <g id="line2d_8">
      <g>
       <use style="stroke:#000000;stroke-width:0.6;" x="133.254461" xlink:href="#m14f6a283e2" y="288.430125"/>
      </g>
     </g>
    </g>
    <g id="xtick_9">
     <g id="line2d_9">
      <g>
       <use style="stroke:#000000;stroke-width:0.6;" x="162.36597" xlink:href="#m14f6a283e2" y="288.430125"/>
      </g>
     </g>
    </g>
    <g id="xtick_10">
     <g id="line2d_10">
      <g>
       <use style="stroke:#000000;stroke-width:0.6;" x="183.020915" xlink:href="#m14f6a283e2" y="288.430125"/>
      </g>
     </g>
    </g>
    <g id="xtick_11">
     <g id="line2d_11">
      <g>
       <use style="stroke:#000000;stroke-width:0.6;" x="199.042135" xlink:href="#m14f6a283e2" y="288.430125"/>
      </g>
     </g>
    </g>
    <g id="xtick_12">
     <g id="line2d_12">
      <g>
       <use style="stroke:#000000;stroke-width:0.6;" x="212.132424" xlink:href="#m14f6a283e2" y="288.430125"/>
      </g>
     </g>
    </g>
    <g id="xtick_13">
     <g id="line2d_13">
      <g>
       <use style="stroke:#000000;stroke-width:0.6;" x="223.200107" xlink:href="#m14f6a283e2" y="288.430125"/>
      </g>
     </g>
    </g>
    <g id="xtick_14">
     <g id="line2d_14">
      <g>
       <use style="stroke:#000000;stroke-width:0.6;" x="232.787369" xlink:href="#m14f6a283e2" y="288.430125"/>
      </g>
     </g>
    </g>
    <g id="xtick_15">
     <g id="line2d_15">
      <g>
       <use style="stroke:#000000;stroke-width:0.6;" x="241.243934" xlink:href="#m14f6a283e2" y="288.430125"/>
      </g>
     </g>
    </g>
    <g id="xtick_16">
     <g id="line2d_16">
      <g>
       <use style="stroke:#000000;stroke-width:0.6;" x="298.575043" xlink:href="#m14f6a283e2" y="288.430125"/>
      </g>
     </g>
    </g>
    <g id="xtick_17">
     <g id="line2d_17">
      <g>
       <use style="stroke:#000000;stroke-width:0.6;" x="327.686552" xlink:href="#m14f6a283e2" y="288.430125"/>
      </g>
     </g>
    </g>
    <g id="xtick_18">
     <g id="line2d_18">
      <g>
       <use style="stroke:#000000;stroke-width:0.6;" x="348.341496" xlink:href="#m14f6a283e2" y="288.430125"/>
      </g>
     </g>
    </g>
    <g id="xtick_19">
     <g id="line2d_19">
      <g>
       <use style="stroke:#000000;stroke-width:0.6;" x="364.362716" xlink:href="#m14f6a283e2" y="288.430125"/>
      </g>
     </g>
    </g>
    <g id="xtick_20">
     <g id="line2d_20">
      <g>
       <use style="stroke:#000000;stroke-width:0.6;" x="377.453006" xlink:href="#m14f6a283e2" y="288.430125"/>
      </g>
     </g>
    </g>
    <g id="xtick_21">
     <g id="line2d_21">
      <g>
       <use style="stroke:#000000;stroke-width:0.6;" x="388.520688" xlink:href="#m14f6a283e2" y="288.430125"/>
      </g>
     </g>
    </g>
    <g id="xtick_22">
     <g id="line2d_22">
      <g>
       <use style="stroke:#000000;stroke-width:0.6;" x="398.10795" xlink:href="#m14f6a283e2" y="288.430125"/>
      </g>
     </g>
    </g>
    <g id="xtick_23">
     <g id="line2d_23">
      <g>
       <use style="stroke:#000000;stroke-width:0.6;" x="406.564515" xlink:href="#m14f6a283e2" y="288.430125"/>
      </g>
     </g>
    </g>
    <g id="text_7">
     <!-- Time (hour:minute) -->
     <g transform="translate(189.843594 316.706687)scale(0.1 -0.1)">
      <defs>
       <path d="M -19 4666 
L 3928 4666 
L 3928 4134 
L 2272 4134 
L 2272 0 
L 1638 0 
L 1638 4134 
L -19 4134 
L -19 4666 
z
" id="DejaVuSans-54" transform="scale(0.015625)"/>
       <path d="M 603 3500 
L 1178 3500 
L 1178 0 
L 603 0 
L 603 3500 
z
M 603 4863 
L 1178 4863 
L 1178 4134 
L 603 4134 
L 603 4863 
z
" id="DejaVuSans-69" transform="scale(0.015625)"/>
       <path d="M 3597 1894 
L 3597 1613 
L 953 1613 
Q 991 1019 1311 708 
Q 1631 397 2203 397 
Q 2534 397 2845 478 
Q 3156 559 3463 722 
L 3463 178 
Q 3153 47 2828 -22 
Q 2503 -91 2169 -91 
Q 1331 -91 842 396 
Q 353 884 353 1716 
Q 353 2575 817 3079 
Q 1281 3584 2069 3584 
Q 2775 3584 3186 3129 
Q 3597 2675 3597 1894 
z
M 3022 2063 
Q 3016 2534 2758 2815 
Q 2500 3097 2075 3097 
Q 1594 3097 1305 2825 
Q 1016 2553 972 2059 
L 3022 2063 
z
" id="DejaVuSans-65" transform="scale(0.015625)"/>
       <path id="DejaVuSans-20" transform="scale(0.015625)"/>
       <path d="M 1984 4856 
Q 1566 4138 1362 3434 
Q 1159 2731 1159 2009 
Q 1159 1288 1364 580 
Q 1569 -128 1984 -844 
L 1484 -844 
Q 1016 -109 783 600 
Q 550 1309 550 2009 
Q 550 2706 781 3412 
Q 1013 4119 1484 4856 
L 1984 4856 
z
" id="DejaVuSans-28" transform="scale(0.015625)"/>
       <path d="M 1959 3097 
Q 1497 3097 1228 2736 
Q 959 2375 959 1747 
Q 959 1119 1226 758 
Q 1494 397 1959 397 
Q 2419 397 2687 759 
Q 2956 1122 2956 1747 
Q 2956 2369 2687 2733 
Q 2419 3097 1959 3097 
z
M 1959 3584 
Q 2709 3584 3137 3096 
Q 3566 2609 3566 1747 
Q 3566 888 3137 398 
Q 2709 -91 1959 -91 
Q 1206 -91 779 398 
Q 353 888 353 1747 
Q 353 2609 779 3096 
Q 1206 3584 1959 3584 
z
" id="DejaVuSans-6f" transform="scale(0.015625)"/>
       <path d="M 544 1381 
L 544 3500 
L 1119 3500 
L 1119 1403 
Q 1119 906 1312 657 
Q 1506 409 1894 409 
Q 2359 409 2629 706 
Q 2900 1003 2900 1516 
L 2900 3500 
L 3475 3500 
L 3475 0 
L 2900 0 
L 2900 538 
Q 2691 219 2414 64 
Q 2138 -91 1772 -91 
Q 1169 -91 856 284 
Q 544 659 544 1381 
z
M 1991 3584 
L 1991 3584 
z
" id="DejaVuSans-75" transform="scale(0.015625)"/>
       <path d="M 2631 2963 
Q 2534 3019 2420 3045 
Q 2306 3072 2169 3072 
Q 1681 3072 1420 2755 
Q 1159 2438 1159 1844 
L 1159 0 
L 581 0 
L 581 3500 
L 1159 3500 
L 1159 2956 
Q 1341 3275 1631 3429 
Q 1922 3584 2338 3584 
Q 2397 3584 2469 3576 
Q 2541 3569 2628 3553 
L 2631 2963 
z
" id="DejaVuSans-72" transform="scale(0.015625)"/>
       <path d="M 3513 2113 
L 3513 0 
L 2938 0 
L 2938 2094 
Q 2938 2591 2744 2837 
Q 2550 3084 2163 3084 
Q 1697 3084 1428 2787 
Q 1159 2491 1159 1978 
L 1159 0 
L 581 0 
L 581 3500 
L 1159 3500 
L 1159 2956 
Q 1366 3272 1645 3428 
Q 1925 3584 2291 3584 
Q 2894 3584 3203 3211 
Q 3513 2838 3513 2113 
z
" id="DejaVuSans-6e" transform="scale(0.015625)"/>
       <path d="M 1172 4494 
L 1172 3500 
L 2356 3500 
L 2356 3053 
L 1172 3053 
L 1172 1153 
Q 1172 725 1289 603 
Q 1406 481 1766 481 
L 2356 481 
L 2356 0 
L 1766 0 
Q 1100 0 847 248 
Q 594 497 594 1153 
L 594 3053 
L 172 3053 
L 172 3500 
L 594 3500 
L 594 4494 
L 1172 4494 
z
" id="DejaVuSans-74" transform="scale(0.015625)"/>
       <path d="M 513 4856 
L 1013 4856 
Q 1481 4119 1714 3412 
Q 1947 2706 1947 2009 
Q 1947 1309 1714 600 
Q 1481 -109 1013 -844 
L 513 -844 
Q 928 -128 1133 580 
Q 1338 1288 1338 2009 
Q 1338 2731 1133 3434 
Q 928 4138 513 4856 
z
" id="DejaVuSans-29" transform="scale(0.015625)"/>
      </defs>
      <use xlink:href="#DejaVuSans-54"/>
      <use x="57.958984" xlink:href="#DejaVuSans-69"/>
      <use x="85.742188" xlink:href="#DejaVuSans-6d"/>
      <use x="183.154297" xlink:href="#DejaVuSans-65"/>
      <use x="244.677734" xlink:href="#DejaVuSans-20"/>
      <use x="276.464844" xlink:href="#DejaVuSans-28"/>
      <use x="315.478516" xlink:href="#DejaVuSans-68"/>
      <use x="378.857422" xlink:href="#DejaVuSans-6f"/>
      <use x="440.039062" xlink:href="#DejaVuSans-75"/>
      <use x="503.417969" xlink:href="#DejaVuSans-72"/>
      <use x="542.78125" xlink:href="#DejaVuSans-3a"/>
      <use x="576.472656" xlink:href="#DejaVuSans-6d"/>
      <use x="673.884766" xlink:href="#DejaVuSans-69"/>
      <use x="701.667969" xlink:href="#DejaVuSans-6e"/>
      <use x="765.046875" xlink:href="#DejaVuSans-75"/>
      <use x="828.425781" xlink:href="#DejaVuSans-74"/>
      <use x="867.634766" xlink:href="#DejaVuSans-65"/>
      <use x="929.158203" xlink:href="#DejaVuSans-29"/>
     </g>
    </g>
   </g>
   <g id="matplotlib.axis_2">
    <g id="ytick_1">
     <g id="line2d_24">
      <defs>
       <path d="M 0 0 
L -3.5 0 
" id="m63c20d8890" style="stroke:#000000;stroke-width:0.8;"/>
      </defs>
      <g>
       <use style="stroke:#000000;stroke-width:0.8;" x="59.690625" xlink:href="#m63c20d8890" y="277.456352"/>
      </g>
     </g>
     <g id="text_8">
      <!-- 12000 -->
      <g transform="translate(20.878125 281.25557)scale(0.1 -0.1)">
       <defs>
        <path d="M 2034 4250 
Q 1547 4250 1301 3770 
Q 1056 3291 1056 2328 
Q 1056 1369 1301 889 
Q 1547 409 2034 409 
Q 2525 409 2770 889 
Q 3016 1369 3016 2328 
Q 3016 3291 2770 3770 
Q 2525 4250 2034 4250 
z
M 2034 4750 
Q 2819 4750 3233 4129 
Q 3647 3509 3647 2328 
Q 3647 1150 3233 529 
Q 2819 -91 2034 -91 
Q 1250 -91 836 529 
Q 422 1150 422 2328 
Q 422 3509 836 4129 
Q 1250 4750 2034 4750 
z
" id="DejaVuSans-30" transform="scale(0.015625)"/>
       </defs>
       <use xlink:href="#DejaVuSans-31"/>
       <use x="63.623047" xlink:href="#DejaVuSans-32"/>
       <use x="127.246094" xlink:href="#DejaVuSans-30"/>
       <use x="190.869141" xlink:href="#DejaVuSans-30"/>
       <use x="254.492188" xlink:href="#DejaVuSans-30"/>
      </g>
     </g>
    </g>
    <g id="ytick_2">
     <g id="line2d_25">
      <g>
       <use style="stroke:#000000;stroke-width:0.8;" x="59.690625" xlink:href="#m63c20d8890" y="224.016988"/>
      </g>
     </g>
     <g id="text_9">
      <!-- 14000 -->
      <g transform="translate(20.878125 227.816207)scale(0.1 -0.1)">
       <use xlink:href="#DejaVuSans-31"/>
       <use x="63.623047" xlink:href="#DejaVuSans-34"/>
       <use x="127.246094" xlink:href="#DejaVuSans-30"/>
       <use x="190.869141" xlink:href="#DejaVuSans-30"/>
       <use x="254.492188" xlink:href="#DejaVuSans-30"/>
      </g>
     </g>
    </g>
    <g id="ytick_3">
     <g id="line2d_26">
      <g>
       <use style="stroke:#000000;stroke-width:0.8;" x="59.690625" xlink:href="#m63c20d8890" y="170.577624"/>
      </g>
     </g>
     <g id="text_10">
      <!-- 16000 -->
      <g transform="translate(20.878125 174.376843)scale(0.1 -0.1)">
       <use xlink:href="#DejaVuSans-31"/>
       <use x="63.623047" xlink:href="#DejaVuSans-36"/>
       <use x="127.246094" xlink:href="#DejaVuSans-30"/>
       <use x="190.869141" xlink:href="#DejaVuSans-30"/>
       <use x="254.492188" xlink:href="#DejaVuSans-30"/>
      </g>
     </g>
    </g>
    <g id="ytick_4">
     <g id="line2d_27">
      <g>
       <use style="stroke:#000000;stroke-width:0.8;" x="59.690625" xlink:href="#m63c20d8890" y="117.13826"/>
      </g>
     </g>
     <g id="text_11">
      <!-- 18000 -->
      <g transform="translate(20.878125 120.937479)scale(0.1 -0.1)">
       <use xlink:href="#DejaVuSans-31"/>
       <use x="63.623047" xlink:href="#DejaVuSans-38"/>
       <use x="127.246094" xlink:href="#DejaVuSans-30"/>
       <use x="190.869141" xlink:href="#DejaVuSans-30"/>
       <use x="254.492188" xlink:href="#DejaVuSans-30"/>
      </g>
     </g>
    </g>
    <g id="ytick_5">
     <g id="line2d_28">
      <g>
       <use style="stroke:#000000;stroke-width:0.8;" x="59.690625" xlink:href="#m63c20d8890" y="63.698896"/>
      </g>
     </g>
     <g id="text_12">
      <!-- 20000 -->
      <g transform="translate(20.878125 67.498115)scale(0.1 -0.1)">
       <use xlink:href="#DejaVuSans-32"/>
       <use x="63.623047" xlink:href="#DejaVuSans-30"/>
       <use x="127.246094" xlink:href="#DejaVuSans-30"/>
       <use x="190.869141" xlink:href="#DejaVuSans-30"/>
       <use x="254.492188" xlink:href="#DejaVuSans-30"/>
      </g>
     </g>
    </g>
    <g id="text_13">
     <!-- Code region coverage -->
     <g transform="translate(14.798438 210.379594)rotate(-90)scale(0.1 -0.1)">
      <defs>
       <path d="M 4122 4306 
L 4122 3641 
Q 3803 3938 3442 4084 
Q 3081 4231 2675 4231 
Q 1875 4231 1450 3742 
Q 1025 3253 1025 2328 
Q 1025 1406 1450 917 
Q 1875 428 2675 428 
Q 3081 428 3442 575 
Q 3803 722 4122 1019 
L 4122 359 
Q 3791 134 3420 21 
Q 3050 -91 2638 -91 
Q 1578 -91 968 557 
Q 359 1206 359 2328 
Q 359 3453 968 4101 
Q 1578 4750 2638 4750 
Q 3056 4750 3426 4639 
Q 3797 4528 4122 4306 
z
" id="DejaVuSans-43" transform="scale(0.015625)"/>
       <path d="M 2906 2969 
L 2906 4863 
L 3481 4863 
L 3481 0 
L 2906 0 
L 2906 525 
Q 2725 213 2448 61 
Q 2172 -91 1784 -91 
Q 1150 -91 751 415 
Q 353 922 353 1747 
Q 353 2572 751 3078 
Q 1150 3584 1784 3584 
Q 2172 3584 2448 3432 
Q 2725 3281 2906 2969 
z
M 947 1747 
Q 947 1113 1208 752 
Q 1469 391 1925 391 
Q 2381 391 2643 752 
Q 2906 1113 2906 1747 
Q 2906 2381 2643 2742 
Q 2381 3103 1925 3103 
Q 1469 3103 1208 2742 
Q 947 2381 947 1747 
z
" id="DejaVuSans-64" transform="scale(0.015625)"/>
       <path d="M 2906 1791 
Q 2906 2416 2648 2759 
Q 2391 3103 1925 3103 
Q 1463 3103 1205 2759 
Q 947 2416 947 1791 
Q 947 1169 1205 825 
Q 1463 481 1925 481 
Q 2391 481 2648 825 
Q 2906 1169 2906 1791 
z
M 3481 434 
Q 3481 -459 3084 -895 
Q 2688 -1331 1869 -1331 
Q 1566 -1331 1297 -1286 
Q 1028 -1241 775 -1147 
L 775 -588 
Q 1028 -725 1275 -790 
Q 1522 -856 1778 -856 
Q 2344 -856 2625 -561 
Q 2906 -266 2906 331 
L 2906 616 
Q 2728 306 2450 153 
Q 2172 0 1784 0 
Q 1141 0 747 490 
Q 353 981 353 1791 
Q 353 2603 747 3093 
Q 1141 3584 1784 3584 
Q 2172 3584 2450 3431 
Q 2728 3278 2906 2969 
L 2906 3500 
L 3481 3500 
L 3481 434 
z
" id="DejaVuSans-67" transform="scale(0.015625)"/>
       <path d="M 3122 3366 
L 3122 2828 
Q 2878 2963 2633 3030 
Q 2388 3097 2138 3097 
Q 1578 3097 1268 2742 
Q 959 2388 959 1747 
Q 959 1106 1268 751 
Q 1578 397 2138 397 
Q 2388 397 2633 464 
Q 2878 531 3122 666 
L 3122 134 
Q 2881 22 2623 -34 
Q 2366 -91 2075 -91 
Q 1284 -91 818 406 
Q 353 903 353 1747 
Q 353 2603 823 3093 
Q 1294 3584 2113 3584 
Q 2378 3584 2631 3529 
Q 2884 3475 3122 3366 
z
" id="DejaVuSans-63" transform="scale(0.015625)"/>
       <path d="M 191 3500 
L 800 3500 
L 1894 563 
L 2988 3500 
L 3597 3500 
L 2284 0 
L 1503 0 
L 191 3500 
z
" id="DejaVuSans-76" transform="scale(0.015625)"/>
       <path d="M 2194 1759 
Q 1497 1759 1228 1600 
Q 959 1441 959 1056 
Q 959 750 1161 570 
Q 1363 391 1709 391 
Q 2188 391 2477 730 
Q 2766 1069 2766 1631 
L 2766 1759 
L 2194 1759 
z
M 3341 1997 
L 3341 0 
L 2766 0 
L 2766 531 
Q 2569 213 2275 61 
Q 1981 -91 1556 -91 
Q 1019 -91 701 211 
Q 384 513 384 1019 
Q 384 1609 779 1909 
Q 1175 2209 1959 2209 
L 2766 2209 
L 2766 2266 
Q 2766 2663 2505 2880 
Q 2244 3097 1772 3097 
Q 1472 3097 1187 3025 
Q 903 2953 641 2809 
L 641 3341 
Q 956 3463 1253 3523 
Q 1550 3584 1831 3584 
Q 2591 3584 2966 3190 
Q 3341 2797 3341 1997 
z
" id="DejaVuSans-61" transform="scale(0.015625)"/>
      </defs>
      <use xlink:href="#DejaVuSans-43"/>
      <use x="69.824219" xlink:href="#DejaVuSans-6f"/>
      <use x="131.005859" xlink:href="#DejaVuSans-64"/>
      <use x="194.482422" xlink:href="#DejaVuSans-65"/>
      <use x="256.005859" xlink:href="#DejaVuSans-20"/>
      <use x="287.792969" xlink:href="#DejaVuSans-72"/>
      <use x="326.65625" xlink:href="#DejaVuSans-65"/>
      <use x="388.179688" xlink:href="#DejaVuSans-67"/>
      <use x="451.65625" xlink:href="#DejaVuSans-69"/>
      <use x="479.439453" xlink:href="#DejaVuSans-6f"/>
      <use x="540.621094" xlink:href="#DejaVuSans-6e"/>
      <use x="604" xlink:href="#DejaVuSans-20"/>
      <use x="635.787109" xlink:href="#DejaVuSans-63"/>
      <use x="690.767578" xlink:href="#DejaVuSans-6f"/>
      <use x="751.949219" xlink:href="#DejaVuSans-76"/>
      <use x="811.128906" xlink:href="#DejaVuSans-65"/>
      <use x="872.652344" xlink:href="#DejaVuSans-72"/>
      <use x="913.765625" xlink:href="#DejaVuSans-61"/>
      <use x="975.044922" xlink:href="#DejaVuSans-67"/>
      <use x="1038.521484" xlink:href="#DejaVuSans-65"/>
     </g>
    </g>
   </g>
   <g id="line2d_29">
    <path clip-path="url(#p2463117a4f)" d="M 75.923352 244.885059 
L 125.689806 187.972137 
L 154.801316 175.814682 
L 175.45626 165.166888 
L 191.47748 132.742554 
L 204.567769 123.203628 
L 215.635452 130.417942 
L 225.222714 115.361401 
L 233.679279 119.596471 
L 241.243934 104.55329 
L 248.086996 107.492455 
L 254.334223 100.759095 
L 260.081115 100.705656 
L 265.401906 98.594801 
L 270.355443 100.625497 
L 274.989168 93.304304 
L 279.341883 79.009274 
L 283.445733 78.421441 
L 287.327641 75.535715 
L 291.010388 74.627246 
L 294.513415 74.627246 
L 297.85345 74.440208 
L 301.04499 74.30661 
L 304.100677 72.917187 
L 307.031607 70.672733 
L 309.847569 70.619294 
L 312.557242 70.619294 
L 315.168359 70.552495 
L 317.68784 70.458976 
L 320.121897 68.642038 
L 322.476135 64.366888 
L 324.755622 63.912654 
L 326.96496 63.885934 
L 329.108337 63.752336 
L 331.189579 64.20657 
L 333.212187 64.099692 
L 335.179373 63.271381 
L 337.094095 61.093727 
L 338.959078 62.229314 
L 340.776842 58.822554 
L 342.549717 56.538022 
L 344.279869 56.992256 
L 345.969307 56.992256 
L 347.619904 56.591461 
L 349.233406 56.457863 
L 350.811444 56.431143 
L 352.355542 55.963548 
L 353.867131 55.709711 
L 355.347551 55.629552 
L 356.798061 54.614205 
L 358.219847 55.148598 
L 359.614023 55.629552 
L 360.981642 55.148598 
L 362.323696 55.148598 
L 363.641124 53.198061 
L 364.934813 51.501362 
L 366.205604 49.804662 
L 367.454294 49.751222 
L 368.681636 49.003071 
L 369.888351 49.003071 
L 371.075119 48.976352 
L 372.242589 50.592892 
L 373.391378 48.842753 
L 374.522076 50.058499 
L 375.635243 50.018419 
L 376.731414 49.791302 
L 377.8111 48.041163 
L 378.874791 47.894205 
L 379.922953 47.894205 
L 380.956033 47.840765 
L 381.974459 47.733886 
L 382.978641 47.239572 
L 383.968971 47.159413 
L 384.945827 47.43997 
L 385.909571 47.43997 
L 386.860549 47.159413 
L 387.799096 46.063906 
L 388.725532 47.239572 
L 389.640166 46.798698 
L 390.543295 46.758618 
L 391.435205 46.170785 
L 392.316171 46.544861 
L 393.186458 46.491421 
L 394.046323 46.451342 
L 394.896011 46.451342 
L 395.735761 46.384542 
L 396.565803 45.395914 
L 397.386358 45.329115 
L 398.197642 45.289036 
L 398.99986 45.275676 
L 399.793214 43.298419 
L 400.577898 44.968399 
" style="fill:none;stroke:#d62728;stroke-linecap:square;stroke-width:1.5;"/>
    <defs>
     <path d="M 0 -3 
L -3 3 
L 3 3 
z
" id="m33dac7b53e" style="stroke:#ffffff;stroke-linejoin:miter;stroke-width:0.75;"/>
    </defs>
    <g clip-path="url(#p2463117a4f)">
     <use style="fill:#d62728;stroke:#ffffff;stroke-linejoin:miter;stroke-width:0.75;" x="75.923352" xlink:href="#m33dac7b53e" y="244.885059"/>
     <use style="fill:#d62728;stroke:#ffffff;stroke-linejoin:miter;stroke-width:0.75;" x="125.689806" xlink:href="#m33dac7b53e" y="187.972137"/>
     <use style="fill:#d62728;stroke:#ffffff;stroke-linejoin:miter;stroke-width:0.75;" x="154.801316" xlink:href="#m33dac7b53e" y="175.814682"/>
     <use style="fill:#d62728;stroke:#ffffff;stroke-linejoin:miter;stroke-width:0.75;" x="175.45626" xlink:href="#m33dac7b53e" y="165.166888"/>
     <use style="fill:#d62728;stroke:#ffffff;stroke-linejoin:miter;stroke-width:0.75;" x="191.47748" xlink:href="#m33dac7b53e" y="132.742554"/>
     <use style="fill:#d62728;stroke:#ffffff;stroke-linejoin:miter;stroke-width:0.75;" x="204.567769" xlink:href="#m33dac7b53e" y="123.203628"/>
     <use style="fill:#d62728;stroke:#ffffff;stroke-linejoin:miter;stroke-width:0.75;" x="215.635452" xlink:href="#m33dac7b53e" y="130.417942"/>
     <use style="fill:#d62728;stroke:#ffffff;stroke-linejoin:miter;stroke-width:0.75;" x="225.222714" xlink:href="#m33dac7b53e" y="115.361401"/>
     <use style="fill:#d62728;stroke:#ffffff;stroke-linejoin:miter;stroke-width:0.75;" x="233.679279" xlink:href="#m33dac7b53e" y="119.596471"/>
     <use style="fill:#d62728;stroke:#ffffff;stroke-linejoin:miter;stroke-width:0.75;" x="241.243934" xlink:href="#m33dac7b53e" y="104.55329"/>
     <use style="fill:#d62728;stroke:#ffffff;stroke-linejoin:miter;stroke-width:0.75;" x="248.086996" xlink:href="#m33dac7b53e" y="107.492455"/>
     <use style="fill:#d62728;stroke:#ffffff;stroke-linejoin:miter;stroke-width:0.75;" x="254.334223" xlink:href="#m33dac7b53e" y="100.759095"/>
     <use style="fill:#d62728;stroke:#ffffff;stroke-linejoin:miter;stroke-width:0.75;" x="260.081115" xlink:href="#m33dac7b53e" y="100.705656"/>
     <use style="fill:#d62728;stroke:#ffffff;stroke-linejoin:miter;stroke-width:0.75;" x="265.401906" xlink:href="#m33dac7b53e" y="98.594801"/>
     <use style="fill:#d62728;stroke:#ffffff;stroke-linejoin:miter;stroke-width:0.75;" x="270.355443" xlink:href="#m33dac7b53e" y="100.625497"/>
     <use style="fill:#d62728;stroke:#ffffff;stroke-linejoin:miter;stroke-width:0.75;" x="274.989168" xlink:href="#m33dac7b53e" y="93.304304"/>
     <use style="fill:#d62728;stroke:#ffffff;stroke-linejoin:miter;stroke-width:0.75;" x="279.341883" xlink:href="#m33dac7b53e" y="79.009274"/>
     <use style="fill:#d62728;stroke:#ffffff;stroke-linejoin:miter;stroke-width:0.75;" x="283.445733" xlink:href="#m33dac7b53e" y="78.421441"/>
     <use style="fill:#d62728;stroke:#ffffff;stroke-linejoin:miter;stroke-width:0.75;" x="287.327641" xlink:href="#m33dac7b53e" y="75.535715"/>
     <use style="fill:#d62728;stroke:#ffffff;stroke-linejoin:miter;stroke-width:0.75;" x="291.010388" xlink:href="#m33dac7b53e" y="74.627246"/>
     <use style="fill:#d62728;stroke:#ffffff;stroke-linejoin:miter;stroke-width:0.75;" x="294.513415" xlink:href="#m33dac7b53e" y="74.627246"/>
     <use style="fill:#d62728;stroke:#ffffff;stroke-linejoin:miter;stroke-width:0.75;" x="297.85345" xlink:href="#m33dac7b53e" y="74.440208"/>
     <use style="fill:#d62728;stroke:#ffffff;stroke-linejoin:miter;stroke-width:0.75;" x="301.04499" xlink:href="#m33dac7b53e" y="74.30661"/>
     <use style="fill:#d62728;stroke:#ffffff;stroke-linejoin:miter;stroke-width:0.75;" x="304.100677" xlink:href="#m33dac7b53e" y="72.917187"/>
     <use style="fill:#d62728;stroke:#ffffff;stroke-linejoin:miter;stroke-width:0.75;" x="307.031607" xlink:href="#m33dac7b53e" y="70.672733"/>
     <use style="fill:#d62728;stroke:#ffffff;stroke-linejoin:miter;stroke-width:0.75;" x="309.847569" xlink:href="#m33dac7b53e" y="70.619294"/>
     <use style="fill:#d62728;stroke:#ffffff;stroke-linejoin:miter;stroke-width:0.75;" x="312.557242" xlink:href="#m33dac7b53e" y="70.619294"/>
     <use style="fill:#d62728;stroke:#ffffff;stroke-linejoin:miter;stroke-width:0.75;" x="315.168359" xlink:href="#m33dac7b53e" y="70.552495"/>
     <use style="fill:#d62728;stroke:#ffffff;stroke-linejoin:miter;stroke-width:0.75;" x="317.68784" xlink:href="#m33dac7b53e" y="70.458976"/>
     <use style="fill:#d62728;stroke:#ffffff;stroke-linejoin:miter;stroke-width:0.75;" x="320.121897" xlink:href="#m33dac7b53e" y="68.642038"/>
     <use style="fill:#d62728;stroke:#ffffff;stroke-linejoin:miter;stroke-width:0.75;" x="322.476135" xlink:href="#m33dac7b53e" y="64.366888"/>
     <use style="fill:#d62728;stroke:#ffffff;stroke-linejoin:miter;stroke-width:0.75;" x="324.755622" xlink:href="#m33dac7b53e" y="63.912654"/>
     <use style="fill:#d62728;stroke:#ffffff;stroke-linejoin:miter;stroke-width:0.75;" x="326.96496" xlink:href="#m33dac7b53e" y="63.885934"/>
     <use style="fill:#d62728;stroke:#ffffff;stroke-linejoin:miter;stroke-width:0.75;" x="329.108337" xlink:href="#m33dac7b53e" y="63.752336"/>
     <use style="fill:#d62728;stroke:#ffffff;stroke-linejoin:miter;stroke-width:0.75;" x="331.189579" xlink:href="#m33dac7b53e" y="64.20657"/>
     <use style="fill:#d62728;stroke:#ffffff;stroke-linejoin:miter;stroke-width:0.75;" x="333.212187" xlink:href="#m33dac7b53e" y="64.099692"/>
     <use style="fill:#d62728;stroke:#ffffff;stroke-linejoin:miter;stroke-width:0.75;" x="335.179373" xlink:href="#m33dac7b53e" y="63.271381"/>
     <use style="fill:#d62728;stroke:#ffffff;stroke-linejoin:miter;stroke-width:0.75;" x="337.094095" xlink:href="#m33dac7b53e" y="61.093727"/>
     <use style="fill:#d62728;stroke:#ffffff;stroke-linejoin:miter;stroke-width:0.75;" x="338.959078" xlink:href="#m33dac7b53e" y="62.229314"/>
     <use style="fill:#d62728;stroke:#ffffff;stroke-linejoin:miter;stroke-width:0.75;" x="340.776842" xlink:href="#m33dac7b53e" y="58.822554"/>
     <use style="fill:#d62728;stroke:#ffffff;stroke-linejoin:miter;stroke-width:0.75;" x="342.549717" xlink:href="#m33dac7b53e" y="56.538022"/>
     <use style="fill:#d62728;stroke:#ffffff;stroke-linejoin:miter;stroke-width:0.75;" x="344.279869" xlink:href="#m33dac7b53e" y="56.992256"/>
     <use style="fill:#d62728;stroke:#ffffff;stroke-linejoin:miter;stroke-width:0.75;" x="345.969307" xlink:href="#m33dac7b53e" y="56.992256"/>
     <use style="fill:#d62728;stroke:#ffffff;stroke-linejoin:miter;stroke-width:0.75;" x="347.619904" xlink:href="#m33dac7b53e" y="56.591461"/>
     <use style="fill:#d62728;stroke:#ffffff;stroke-linejoin:miter;stroke-width:0.75;" x="349.233406" xlink:href="#m33dac7b53e" y="56.457863"/>
     <use style="fill:#d62728;stroke:#ffffff;stroke-linejoin:miter;stroke-width:0.75;" x="350.811444" xlink:href="#m33dac7b53e" y="56.431143"/>
     <use style="fill:#d62728;stroke:#ffffff;stroke-linejoin:miter;stroke-width:0.75;" x="352.355542" xlink:href="#m33dac7b53e" y="55.963548"/>
     <use style="fill:#d62728;stroke:#ffffff;stroke-linejoin:miter;stroke-width:0.75;" x="353.867131" xlink:href="#m33dac7b53e" y="55.709711"/>
     <use style="fill:#d62728;stroke:#ffffff;stroke-linejoin:miter;stroke-width:0.75;" x="355.347551" xlink:href="#m33dac7b53e" y="55.629552"/>
     <use style="fill:#d62728;stroke:#ffffff;stroke-linejoin:miter;stroke-width:0.75;" x="356.798061" xlink:href="#m33dac7b53e" y="54.614205"/>
     <use style="fill:#d62728;stroke:#ffffff;stroke-linejoin:miter;stroke-width:0.75;" x="358.219847" xlink:href="#m33dac7b53e" y="55.148598"/>
     <use style="fill:#d62728;stroke:#ffffff;stroke-linejoin:miter;stroke-width:0.75;" x="359.614023" xlink:href="#m33dac7b53e" y="55.629552"/>
     <use style="fill:#d62728;stroke:#ffffff;stroke-linejoin:miter;stroke-width:0.75;" x="360.981642" xlink:href="#m33dac7b53e" y="55.148598"/>
     <use style="fill:#d62728;stroke:#ffffff;stroke-linejoin:miter;stroke-width:0.75;" x="362.323696" xlink:href="#m33dac7b53e" y="55.148598"/>
     <use style="fill:#d62728;stroke:#ffffff;stroke-linejoin:miter;stroke-width:0.75;" x="363.641124" xlink:href="#m33dac7b53e" y="53.198061"/>
     <use style="fill:#d62728;stroke:#ffffff;stroke-linejoin:miter;stroke-width:0.75;" x="364.934813" xlink:href="#m33dac7b53e" y="51.501362"/>
     <use style="fill:#d62728;stroke:#ffffff;stroke-linejoin:miter;stroke-width:0.75;" x="366.205604" xlink:href="#m33dac7b53e" y="49.804662"/>
     <use style="fill:#d62728;stroke:#ffffff;stroke-linejoin:miter;stroke-width:0.75;" x="367.454294" xlink:href="#m33dac7b53e" y="49.751222"/>
     <use style="fill:#d62728;stroke:#ffffff;stroke-linejoin:miter;stroke-width:0.75;" x="368.681636" xlink:href="#m33dac7b53e" y="49.003071"/>
     <use style="fill:#d62728;stroke:#ffffff;stroke-linejoin:miter;stroke-width:0.75;" x="369.888351" xlink:href="#m33dac7b53e" y="49.003071"/>
     <use style="fill:#d62728;stroke:#ffffff;stroke-linejoin:miter;stroke-width:0.75;" x="371.075119" xlink:href="#m33dac7b53e" y="48.976352"/>
     <use style="fill:#d62728;stroke:#ffffff;stroke-linejoin:miter;stroke-width:0.75;" x="372.242589" xlink:href="#m33dac7b53e" y="50.592892"/>
     <use style="fill:#d62728;stroke:#ffffff;stroke-linejoin:miter;stroke-width:0.75;" x="373.391378" xlink:href="#m33dac7b53e" y="48.842753"/>
     <use style="fill:#d62728;stroke:#ffffff;stroke-linejoin:miter;stroke-width:0.75;" x="374.522076" xlink:href="#m33dac7b53e" y="50.058499"/>
     <use style="fill:#d62728;stroke:#ffffff;stroke-linejoin:miter;stroke-width:0.75;" x="375.635243" xlink:href="#m33dac7b53e" y="50.018419"/>
     <use style="fill:#d62728;stroke:#ffffff;stroke-linejoin:miter;stroke-width:0.75;" x="376.731414" xlink:href="#m33dac7b53e" y="49.791302"/>
     <use style="fill:#d62728;stroke:#ffffff;stroke-linejoin:miter;stroke-width:0.75;" x="377.8111" xlink:href="#m33dac7b53e" y="48.041163"/>
     <use style="fill:#d62728;stroke:#ffffff;stroke-linejoin:miter;stroke-width:0.75;" x="378.874791" xlink:href="#m33dac7b53e" y="47.894205"/>
     <use style="fill:#d62728;stroke:#ffffff;stroke-linejoin:miter;stroke-width:0.75;" x="379.922953" xlink:href="#m33dac7b53e" y="47.894205"/>
     <use style="fill:#d62728;stroke:#ffffff;stroke-linejoin:miter;stroke-width:0.75;" x="380.956033" xlink:href="#m33dac7b53e" y="47.840765"/>
     <use style="fill:#d62728;stroke:#ffffff;stroke-linejoin:miter;stroke-width:0.75;" x="381.974459" xlink:href="#m33dac7b53e" y="47.733886"/>
     <use style="fill:#d62728;stroke:#ffffff;stroke-linejoin:miter;stroke-width:0.75;" x="382.978641" xlink:href="#m33dac7b53e" y="47.239572"/>
     <use style="fill:#d62728;stroke:#ffffff;stroke-linejoin:miter;stroke-width:0.75;" x="383.968971" xlink:href="#m33dac7b53e" y="47.159413"/>
     <use style="fill:#d62728;stroke:#ffffff;stroke-linejoin:miter;stroke-width:0.75;" x="384.945827" xlink:href="#m33dac7b53e" y="47.43997"/>
     <use style="fill:#d62728;stroke:#ffffff;stroke-linejoin:miter;stroke-width:0.75;" x="385.909571" xlink:href="#m33dac7b53e" y="47.43997"/>
     <use style="fill:#d62728;stroke:#ffffff;stroke-linejoin:miter;stroke-width:0.75;" x="386.860549" xlink:href="#m33dac7b53e" y="47.159413"/>
     <use style="fill:#d62728;stroke:#ffffff;stroke-linejoin:miter;stroke-width:0.75;" x="387.799096" xlink:href="#m33dac7b53e" y="46.063906"/>
     <use style="fill:#d62728;stroke:#ffffff;stroke-linejoin:miter;stroke-width:0.75;" x="388.725532" xlink:href="#m33dac7b53e" y="47.239572"/>
     <use style="fill:#d62728;stroke:#ffffff;stroke-linejoin:miter;stroke-width:0.75;" x="389.640166" xlink:href="#m33dac7b53e" y="46.798698"/>
     <use style="fill:#d62728;stroke:#ffffff;stroke-linejoin:miter;stroke-width:0.75;" x="390.543295" xlink:href="#m33dac7b53e" y="46.758618"/>
     <use style="fill:#d62728;stroke:#ffffff;stroke-linejoin:miter;stroke-width:0.75;" x="391.435205" xlink:href="#m33dac7b53e" y="46.170785"/>
     <use style="fill:#d62728;stroke:#ffffff;stroke-linejoin:miter;stroke-width:0.75;" x="392.316171" xlink:href="#m33dac7b53e" y="46.544861"/>
     <use style="fill:#d62728;stroke:#ffffff;stroke-linejoin:miter;stroke-width:0.75;" x="393.186458" xlink:href="#m33dac7b53e" y="46.491421"/>
     <use style="fill:#d62728;stroke:#ffffff;stroke-linejoin:miter;stroke-width:0.75;" x="394.046323" xlink:href="#m33dac7b53e" y="46.451342"/>
     <use style="fill:#d62728;stroke:#ffffff;stroke-linejoin:miter;stroke-width:0.75;" x="394.896011" xlink:href="#m33dac7b53e" y="46.451342"/>
     <use style="fill:#d62728;stroke:#ffffff;stroke-linejoin:miter;stroke-width:0.75;" x="395.735761" xlink:href="#m33dac7b53e" y="46.384542"/>
     <use style="fill:#d62728;stroke:#ffffff;stroke-linejoin:miter;stroke-width:0.75;" x="396.565803" xlink:href="#m33dac7b53e" y="45.395914"/>
     <use style="fill:#d62728;stroke:#ffffff;stroke-linejoin:miter;stroke-width:0.75;" x="397.386358" xlink:href="#m33dac7b53e" y="45.329115"/>
     <use style="fill:#d62728;stroke:#ffffff;stroke-linejoin:miter;stroke-width:0.75;" x="398.197642" xlink:href="#m33dac7b53e" y="45.289036"/>
     <use style="fill:#d62728;stroke:#ffffff;stroke-linejoin:miter;stroke-width:0.75;" x="398.99986" xlink:href="#m33dac7b53e" y="45.275676"/>
     <use style="fill:#d62728;stroke:#ffffff;stroke-linejoin:miter;stroke-width:0.75;" x="399.793214" xlink:href="#m33dac7b53e" y="43.298419"/>
     <use style="fill:#d62728;stroke:#ffffff;stroke-linejoin:miter;stroke-width:0.75;" x="400.577898" xlink:href="#m33dac7b53e" y="44.968399"/>
    </g>
   </g>
   <g id="line2d_30">
    <path clip-path="url(#p2463117a4f)" d="M 75.923352 219.781918 
L 125.689806 181.759811 
L 154.801316 160.384065 
L 175.45626 148.934682 
L 191.47748 126.717266 
L 204.567769 114.61325 
L 215.635452 109.736908 
L 225.222714 100.224702 
L 233.679279 97.459214 
L 241.243934 94.386451 
L 248.086996 98.381043 
L 254.334223 90.071222 
L 260.081115 84.059294 
L 265.401906 80.037982 
L 270.355443 82.028598 
L 274.989168 77.71337 
L 279.341883 76.8717 
L 283.445733 71.688081 
L 287.327641 69.176431 
L 291.010388 69.096272 
L 294.513415 67.533171 
L 297.85345 67.947326 
L 301.04499 66.477743 
L 304.100677 64.954721 
L 307.031607 64.647445 
L 309.847569 64.380248 
L 312.557242 63.672177 
L 315.168359 63.191222 
L 317.68784 61.187246 
L 320.121897 62.122435 
L 322.476135 61.70828 
L 324.755622 61.895318 
L 326.96496 61.962117 
L 329.108337 60.83989 
L 331.189579 61.173886 
L 333.212187 60.599413 
L 335.179373 60.492535 
L 337.094095 60.118459 
L 338.959078 59.984861 
L 340.776842 59.650865 
L 342.549717 59.530626 
L 344.279869 59.450467 
L 345.969307 59.116471 
L 347.619904 58.902713 
L 349.233406 58.461839 
L 350.811444 57.299533 
L 352.355542 57.312892 
L 353.867131 57.433131 
L 355.347551 57.099135 
L 356.798061 57.139214 
L 358.219847 56.511302 
L 359.614023 56.738419 
L 360.981642 56.083787 
L 362.323696 56.564741 
L 363.641124 56.631541 
L 364.934813 56.364344 
L 366.205604 55.656272 
L 367.454294 55.656272 
L 368.681636 55.602833 
L 369.888351 55.602833 
L 371.075119 56.270825 
L 372.242589 55.602833 
L 373.391378 56.204026 
L 374.522076 56.912097 
L 375.635243 57.139214 
L 376.731414 56.912097 
L 377.8111 56.912097 
L 378.874791 56.204026 
L 379.922953 55.469234 
L 380.956033 54.98828 
L 381.974459 54.908121 
L 382.978641 54.868042 
L 383.968971 54.881401 
L 384.945827 53.852694 
L 385.909571 53.692375 
L 386.860549 53.692375 
L 387.799096 53.665656 
L 388.725532 54.774523 
L 389.640166 51.314324 
L 390.543295 52.47663 
L 391.435205 53.411819 
L 392.316171 53.30494 
L 393.186458 53.27822 
L 394.046323 54.053091 
L 394.896011 52.369751 
L 395.735761 53.157982 
L 396.565803 54.026372 
L 397.386358 53.117902 
L 398.197642 53.117902 
L 398.99986 50.419214 
L 399.793214 53.117902 
L 400.577898 53.117902 
" style="fill:none;stroke:#1f77b4;stroke-linecap:square;stroke-width:1.5;"/>
    <defs>
     <path d="M 0 3 
C 0.795609 3 1.55874 2.683901 2.12132 2.12132 
C 2.683901 1.55874 3 0.795609 3 0 
C 3 -0.795609 2.683901 -1.55874 2.12132 -2.12132 
C 1.55874 -2.683901 0.795609 -3 0 -3 
C -0.795609 -3 -1.55874 -2.683901 -2.12132 -2.12132 
C -2.683901 -1.55874 -3 -0.795609 -3 0 
C -3 0.795609 -2.683901 1.55874 -2.12132 2.12132 
C -1.55874 2.683901 -0.795609 3 0 3 
z
" id="m13487d4591" style="stroke:#ffffff;stroke-width:0.75;"/>
    </defs>
    <g clip-path="url(#p2463117a4f)">
     <use style="fill:#1f77b4;stroke:#ffffff;stroke-width:0.75;" x="75.923352" xlink:href="#m13487d4591" y="219.781918"/>
     <use style="fill:#1f77b4;stroke:#ffffff;stroke-width:0.75;" x="125.689806" xlink:href="#m13487d4591" y="181.759811"/>
     <use style="fill:#1f77b4;stroke:#ffffff;stroke-width:0.75;" x="154.801316" xlink:href="#m13487d4591" y="160.384065"/>
     <use style="fill:#1f77b4;stroke:#ffffff;stroke-width:0.75;" x="175.45626" xlink:href="#m13487d4591" y="148.934682"/>
     <use style="fill:#1f77b4;stroke:#ffffff;stroke-width:0.75;" x="191.47748" xlink:href="#m13487d4591" y="126.717266"/>
     <use style="fill:#1f77b4;stroke:#ffffff;stroke-width:0.75;" x="204.567769" xlink:href="#m13487d4591" y="114.61325"/>
     <use style="fill:#1f77b4;stroke:#ffffff;stroke-width:0.75;" x="215.635452" xlink:href="#m13487d4591" y="109.736908"/>
     <use style="fill:#1f77b4;stroke:#ffffff;stroke-width:0.75;" x="225.222714" xlink:href="#m13487d4591" y="100.224702"/>
     <use style="fill:#1f77b4;stroke:#ffffff;stroke-width:0.75;" x="233.679279" xlink:href="#m13487d4591" y="97.459214"/>
     <use style="fill:#1f77b4;stroke:#ffffff;stroke-width:0.75;" x="241.243934" xlink:href="#m13487d4591" y="94.386451"/>
     <use style="fill:#1f77b4;stroke:#ffffff;stroke-width:0.75;" x="248.086996" xlink:href="#m13487d4591" y="98.381043"/>
     <use style="fill:#1f77b4;stroke:#ffffff;stroke-width:0.75;" x="254.334223" xlink:href="#m13487d4591" y="90.071222"/>
     <use style="fill:#1f77b4;stroke:#ffffff;stroke-width:0.75;" x="260.081115" xlink:href="#m13487d4591" y="84.059294"/>
     <use style="fill:#1f77b4;stroke:#ffffff;stroke-width:0.75;" x="265.401906" xlink:href="#m13487d4591" y="80.037982"/>
     <use style="fill:#1f77b4;stroke:#ffffff;stroke-width:0.75;" x="270.355443" xlink:href="#m13487d4591" y="82.028598"/>
     <use style="fill:#1f77b4;stroke:#ffffff;stroke-width:0.75;" x="274.989168" xlink:href="#m13487d4591" y="77.71337"/>
     <use style="fill:#1f77b4;stroke:#ffffff;stroke-width:0.75;" x="279.341883" xlink:href="#m13487d4591" y="76.8717"/>
     <use style="fill:#1f77b4;stroke:#ffffff;stroke-width:0.75;" x="283.445733" xlink:href="#m13487d4591" y="71.688081"/>
     <use style="fill:#1f77b4;stroke:#ffffff;stroke-width:0.75;" x="287.327641" xlink:href="#m13487d4591" y="69.176431"/>
     <use style="fill:#1f77b4;stroke:#ffffff;stroke-width:0.75;" x="291.010388" xlink:href="#m13487d4591" y="69.096272"/>
     <use style="fill:#1f77b4;stroke:#ffffff;stroke-width:0.75;" x="294.513415" xlink:href="#m13487d4591" y="67.533171"/>
     <use style="fill:#1f77b4;stroke:#ffffff;stroke-width:0.75;" x="297.85345" xlink:href="#m13487d4591" y="67.947326"/>
     <use style="fill:#1f77b4;stroke:#ffffff;stroke-width:0.75;" x="301.04499" xlink:href="#m13487d4591" y="66.477743"/>
     <use style="fill:#1f77b4;stroke:#ffffff;stroke-width:0.75;" x="304.100677" xlink:href="#m13487d4591" y="64.954721"/>
     <use style="fill:#1f77b4;stroke:#ffffff;stroke-width:0.75;" x="307.031607" xlink:href="#m13487d4591" y="64.647445"/>
     <use style="fill:#1f77b4;stroke:#ffffff;stroke-width:0.75;" x="309.847569" xlink:href="#m13487d4591" y="64.380248"/>
     <use style="fill:#1f77b4;stroke:#ffffff;stroke-width:0.75;" x="312.557242" xlink:href="#m13487d4591" y="63.672177"/>
     <use style="fill:#1f77b4;stroke:#ffffff;stroke-width:0.75;" x="315.168359" xlink:href="#m13487d4591" y="63.191222"/>
     <use style="fill:#1f77b4;stroke:#ffffff;stroke-width:0.75;" x="317.68784" xlink:href="#m13487d4591" y="61.187246"/>
     <use style="fill:#1f77b4;stroke:#ffffff;stroke-width:0.75;" x="320.121897" xlink:href="#m13487d4591" y="62.122435"/>
     <use style="fill:#1f77b4;stroke:#ffffff;stroke-width:0.75;" x="322.476135" xlink:href="#m13487d4591" y="61.70828"/>
     <use style="fill:#1f77b4;stroke:#ffffff;stroke-width:0.75;" x="324.755622" xlink:href="#m13487d4591" y="61.895318"/>
     <use style="fill:#1f77b4;stroke:#ffffff;stroke-width:0.75;" x="326.96496" xlink:href="#m13487d4591" y="61.962117"/>
     <use style="fill:#1f77b4;stroke:#ffffff;stroke-width:0.75;" x="329.108337" xlink:href="#m13487d4591" y="60.83989"/>
     <use style="fill:#1f77b4;stroke:#ffffff;stroke-width:0.75;" x="331.189579" xlink:href="#m13487d4591" y="61.173886"/>
     <use style="fill:#1f77b4;stroke:#ffffff;stroke-width:0.75;" x="333.212187" xlink:href="#m13487d4591" y="60.599413"/>
     <use style="fill:#1f77b4;stroke:#ffffff;stroke-width:0.75;" x="335.179373" xlink:href="#m13487d4591" y="60.492535"/>
     <use style="fill:#1f77b4;stroke:#ffffff;stroke-width:0.75;" x="337.094095" xlink:href="#m13487d4591" y="60.118459"/>
     <use style="fill:#1f77b4;stroke:#ffffff;stroke-width:0.75;" x="338.959078" xlink:href="#m13487d4591" y="59.984861"/>
     <use style="fill:#1f77b4;stroke:#ffffff;stroke-width:0.75;" x="340.776842" xlink:href="#m13487d4591" y="59.650865"/>
     <use style="fill:#1f77b4;stroke:#ffffff;stroke-width:0.75;" x="342.549717" xlink:href="#m13487d4591" y="59.530626"/>
     <use style="fill:#1f77b4;stroke:#ffffff;stroke-width:0.75;" x="344.279869" xlink:href="#m13487d4591" y="59.450467"/>
     <use style="fill:#1f77b4;stroke:#ffffff;stroke-width:0.75;" x="345.969307" xlink:href="#m13487d4591" y="59.116471"/>
     <use style="fill:#1f77b4;stroke:#ffffff;stroke-width:0.75;" x="347.619904" xlink:href="#m13487d4591" y="58.902713"/>
     <use style="fill:#1f77b4;stroke:#ffffff;stroke-width:0.75;" x="349.233406" xlink:href="#m13487d4591" y="58.461839"/>
     <use style="fill:#1f77b4;stroke:#ffffff;stroke-width:0.75;" x="350.811444" xlink:href="#m13487d4591" y="57.299533"/>
     <use style="fill:#1f77b4;stroke:#ffffff;stroke-width:0.75;" x="352.355542" xlink:href="#m13487d4591" y="57.312892"/>
     <use style="fill:#1f77b4;stroke:#ffffff;stroke-width:0.75;" x="353.867131" xlink:href="#m13487d4591" y="57.433131"/>
     <use style="fill:#1f77b4;stroke:#ffffff;stroke-width:0.75;" x="355.347551" xlink:href="#m13487d4591" y="57.099135"/>
     <use style="fill:#1f77b4;stroke:#ffffff;stroke-width:0.75;" x="356.798061" xlink:href="#m13487d4591" y="57.139214"/>
     <use style="fill:#1f77b4;stroke:#ffffff;stroke-width:0.75;" x="358.219847" xlink:href="#m13487d4591" y="56.511302"/>
     <use style="fill:#1f77b4;stroke:#ffffff;stroke-width:0.75;" x="359.614023" xlink:href="#m13487d4591" y="56.738419"/>
     <use style="fill:#1f77b4;stroke:#ffffff;stroke-width:0.75;" x="360.981642" xlink:href="#m13487d4591" y="56.083787"/>
     <use style="fill:#1f77b4;stroke:#ffffff;stroke-width:0.75;" x="362.323696" xlink:href="#m13487d4591" y="56.564741"/>
     <use style="fill:#1f77b4;stroke:#ffffff;stroke-width:0.75;" x="363.641124" xlink:href="#m13487d4591" y="56.631541"/>
     <use style="fill:#1f77b4;stroke:#ffffff;stroke-width:0.75;" x="364.934813" xlink:href="#m13487d4591" y="56.364344"/>
     <use style="fill:#1f77b4;stroke:#ffffff;stroke-width:0.75;" x="366.205604" xlink:href="#m13487d4591" y="55.656272"/>
     <use style="fill:#1f77b4;stroke:#ffffff;stroke-width:0.75;" x="367.454294" xlink:href="#m13487d4591" y="55.656272"/>
     <use style="fill:#1f77b4;stroke:#ffffff;stroke-width:0.75;" x="368.681636" xlink:href="#m13487d4591" y="55.602833"/>
     <use style="fill:#1f77b4;stroke:#ffffff;stroke-width:0.75;" x="369.888351" xlink:href="#m13487d4591" y="55.602833"/>
     <use style="fill:#1f77b4;stroke:#ffffff;stroke-width:0.75;" x="371.075119" xlink:href="#m13487d4591" y="56.270825"/>
     <use style="fill:#1f77b4;stroke:#ffffff;stroke-width:0.75;" x="372.242589" xlink:href="#m13487d4591" y="55.602833"/>
     <use style="fill:#1f77b4;stroke:#ffffff;stroke-width:0.75;" x="373.391378" xlink:href="#m13487d4591" y="56.204026"/>
     <use style="fill:#1f77b4;stroke:#ffffff;stroke-width:0.75;" x="374.522076" xlink:href="#m13487d4591" y="56.912097"/>
     <use style="fill:#1f77b4;stroke:#ffffff;stroke-width:0.75;" x="375.635243" xlink:href="#m13487d4591" y="57.139214"/>
     <use style="fill:#1f77b4;stroke:#ffffff;stroke-width:0.75;" x="376.731414" xlink:href="#m13487d4591" y="56.912097"/>
     <use style="fill:#1f77b4;stroke:#ffffff;stroke-width:0.75;" x="377.8111" xlink:href="#m13487d4591" y="56.912097"/>
     <use style="fill:#1f77b4;stroke:#ffffff;stroke-width:0.75;" x="378.874791" xlink:href="#m13487d4591" y="56.204026"/>
     <use style="fill:#1f77b4;stroke:#ffffff;stroke-width:0.75;" x="379.922953" xlink:href="#m13487d4591" y="55.469234"/>
     <use style="fill:#1f77b4;stroke:#ffffff;stroke-width:0.75;" x="380.956033" xlink:href="#m13487d4591" y="54.98828"/>
     <use style="fill:#1f77b4;stroke:#ffffff;stroke-width:0.75;" x="381.974459" xlink:href="#m13487d4591" y="54.908121"/>
     <use style="fill:#1f77b4;stroke:#ffffff;stroke-width:0.75;" x="382.978641" xlink:href="#m13487d4591" y="54.868042"/>
     <use style="fill:#1f77b4;stroke:#ffffff;stroke-width:0.75;" x="383.968971" xlink:href="#m13487d4591" y="54.881401"/>
     <use style="fill:#1f77b4;stroke:#ffffff;stroke-width:0.75;" x="384.945827" xlink:href="#m13487d4591" y="53.852694"/>
     <use style="fill:#1f77b4;stroke:#ffffff;stroke-width:0.75;" x="385.909571" xlink:href="#m13487d4591" y="53.692375"/>
     <use style="fill:#1f77b4;stroke:#ffffff;stroke-width:0.75;" x="386.860549" xlink:href="#m13487d4591" y="53.692375"/>
     <use style="fill:#1f77b4;stroke:#ffffff;stroke-width:0.75;" x="387.799096" xlink:href="#m13487d4591" y="53.665656"/>
     <use style="fill:#1f77b4;stroke:#ffffff;stroke-width:0.75;" x="388.725532" xlink:href="#m13487d4591" y="54.774523"/>
     <use style="fill:#1f77b4;stroke:#ffffff;stroke-width:0.75;" x="389.640166" xlink:href="#m13487d4591" y="51.314324"/>
     <use style="fill:#1f77b4;stroke:#ffffff;stroke-width:0.75;" x="390.543295" xlink:href="#m13487d4591" y="52.47663"/>
     <use style="fill:#1f77b4;stroke:#ffffff;stroke-width:0.75;" x="391.435205" xlink:href="#m13487d4591" y="53.411819"/>
     <use style="fill:#1f77b4;stroke:#ffffff;stroke-width:0.75;" x="392.316171" xlink:href="#m13487d4591" y="53.30494"/>
     <use style="fill:#1f77b4;stroke:#ffffff;stroke-width:0.75;" x="393.186458" xlink:href="#m13487d4591" y="53.27822"/>
     <use style="fill:#1f77b4;stroke:#ffffff;stroke-width:0.75;" x="394.046323" xlink:href="#m13487d4591" y="54.053091"/>
     <use style="fill:#1f77b4;stroke:#ffffff;stroke-width:0.75;" x="394.896011" xlink:href="#m13487d4591" y="52.369751"/>
     <use style="fill:#1f77b4;stroke:#ffffff;stroke-width:0.75;" x="395.735761" xlink:href="#m13487d4591" y="53.157982"/>
     <use style="fill:#1f77b4;stroke:#ffffff;stroke-width:0.75;" x="396.565803" xlink:href="#m13487d4591" y="54.026372"/>
     <use style="fill:#1f77b4;stroke:#ffffff;stroke-width:0.75;" x="397.386358" xlink:href="#m13487d4591" y="53.117902"/>
     <use style="fill:#1f77b4;stroke:#ffffff;stroke-width:0.75;" x="398.197642" xlink:href="#m13487d4591" y="53.117902"/>
     <use style="fill:#1f77b4;stroke:#ffffff;stroke-width:0.75;" x="398.99986" xlink:href="#m13487d4591" y="50.419214"/>
     <use style="fill:#1f77b4;stroke:#ffffff;stroke-width:0.75;" x="399.793214" xlink:href="#m13487d4591" y="53.117902"/>
     <use style="fill:#1f77b4;stroke:#ffffff;stroke-width:0.75;" x="400.577898" xlink:href="#m13487d4591" y="53.117902"/>
    </g>
   </g>
   <g id="line2d_31">
    <path clip-path="url(#p2463117a4f)" d="M 75.923352 250.830189 
L 125.689806 230.296113 
L 154.801316 219.367763 
L 175.45626 198.900487 
L 191.47748 191.272018 
L 204.567769 187.945417 
L 215.635452 186.475835 
L 225.222714 179.28824 
L 233.679279 166.850228 
L 241.243934 165.647843 
L 248.086996 165.06001 
L 254.334223 160.958539 
L 260.081115 155.427564 
L 265.401906 159.248479 
L 270.355443 153.770944 
L 274.989168 152.301362 
L 279.341883 148.386928 
L 283.445733 147.171183 
L 287.327641 145.942077 
L 291.010388 144.01826 
L 294.513415 138.834642 
L 297.85345 140.65158 
L 301.04499 138.807922 
L 304.100677 139.86335 
L 307.031607 137.2849 
L 309.847569 139.03504 
L 312.557242 138.848002 
L 315.168359 138.554085 
L 317.68784 138.220089 
L 320.121897 137.832654 
L 322.476135 137.819294 
L 324.755622 137.605537 
L 326.96496 137.365059 
L 329.108337 135.387803 
L 331.189579 135.254205 
L 333.212187 135.000368 
L 335.179373 134.719811 
L 337.094095 134.666372 
L 338.959078 133.864781 
L 340.776842 133.490706 
L 342.549717 131.727207 
L 344.279869 132.862793 
L 345.969307 132.154721 
L 347.619904 131.606968 
L 349.233406 131.526809 
L 350.811444 131.500089 
L 352.355542 131.259612 
L 353.867131 130.431302 
L 355.347551 130.431302 
L 356.798061 127.852853 
L 358.219847 127.852853 
L 359.614023 129.415954 
L 360.981642 127.358539 
L 362.323696 127.158141 
L 363.641124 123.01659 
L 364.934813 126.944383 
L 366.205604 131.032495 
L 367.454294 126.316471 
L 368.681636 126.196232 
L 369.888351 130.097306 
L 371.075119 126.089354 
L 372.242589 125.875596 
L 373.391378 123.323867 
L 374.522076 123.01659 
L 375.635243 123.01659 
L 376.731414 116.149632 
L 377.8111 115.909155 
L 378.874791 117.886411 
L 379.922953 117.686014 
L 380.956033 117.686014 
L 381.974459 117.418817 
L 382.978641 117.378737 
L 383.968971 115.267882 
L 384.945827 114.893807 
L 385.909571 117.004662 
L 386.860549 113.571183 
L 387.799096 116.390109 
L 388.725532 113.103588 
L 389.640166 112.769592 
L 390.543295 115.989314 
L 391.435205 112.408876 
L 392.316171 112.301998 
L 393.186458 112.208479 
L 394.046323 105.782395 
L 394.896011 105.782395 
L 395.735761 105.755676 
L 396.565803 110.712177 
L 397.386358 105.728956 
L 398.197642 105.3816 
L 398.99986 110.097624 
L 399.793214 105.167843 
L 400.577898 109.63003 
" style="fill:none;stroke:#98df8a;stroke-linecap:square;stroke-width:1.5;"/>
    <defs>
     <path d="M -0 3 
L 3 -3 
L -3 -3 
z
" id="m4974ca599b" style="stroke:#ffffff;stroke-linejoin:miter;stroke-width:0.75;"/>
    </defs>
    <g clip-path="url(#p2463117a4f)">
     <use style="fill:#98df8a;stroke:#ffffff;stroke-linejoin:miter;stroke-width:0.75;" x="75.923352" xlink:href="#m4974ca599b" y="250.830189"/>
     <use style="fill:#98df8a;stroke:#ffffff;stroke-linejoin:miter;stroke-width:0.75;" x="125.689806" xlink:href="#m4974ca599b" y="230.296113"/>
     <use style="fill:#98df8a;stroke:#ffffff;stroke-linejoin:miter;stroke-width:0.75;" x="154.801316" xlink:href="#m4974ca599b" y="219.367763"/>
     <use style="fill:#98df8a;stroke:#ffffff;stroke-linejoin:miter;stroke-width:0.75;" x="175.45626" xlink:href="#m4974ca599b" y="198.900487"/>
     <use style="fill:#98df8a;stroke:#ffffff;stroke-linejoin:miter;stroke-width:0.75;" x="191.47748" xlink:href="#m4974ca599b" y="191.272018"/>
     <use style="fill:#98df8a;stroke:#ffffff;stroke-linejoin:miter;stroke-width:0.75;" x="204.567769" xlink:href="#m4974ca599b" y="187.945417"/>
     <use style="fill:#98df8a;stroke:#ffffff;stroke-linejoin:miter;stroke-width:0.75;" x="215.635452" xlink:href="#m4974ca599b" y="186.475835"/>
     <use style="fill:#98df8a;stroke:#ffffff;stroke-linejoin:miter;stroke-width:0.75;" x="225.222714" xlink:href="#m4974ca599b" y="179.28824"/>
     <use style="fill:#98df8a;stroke:#ffffff;stroke-linejoin:miter;stroke-width:0.75;" x="233.679279" xlink:href="#m4974ca599b" y="166.850228"/>
     <use style="fill:#98df8a;stroke:#ffffff;stroke-linejoin:miter;stroke-width:0.75;" x="241.243934" xlink:href="#m4974ca599b" y="165.647843"/>
     <use style="fill:#98df8a;stroke:#ffffff;stroke-linejoin:miter;stroke-width:0.75;" x="248.086996" xlink:href="#m4974ca599b" y="165.06001"/>
     <use style="fill:#98df8a;stroke:#ffffff;stroke-linejoin:miter;stroke-width:0.75;" x="254.334223" xlink:href="#m4974ca599b" y="160.958539"/>
     <use style="fill:#98df8a;stroke:#ffffff;stroke-linejoin:miter;stroke-width:0.75;" x="260.081115" xlink:href="#m4974ca599b" y="155.427564"/>
     <use style="fill:#98df8a;stroke:#ffffff;stroke-linejoin:miter;stroke-width:0.75;" x="265.401906" xlink:href="#m4974ca599b" y="159.248479"/>
     <use style="fill:#98df8a;stroke:#ffffff;stroke-linejoin:miter;stroke-width:0.75;" x="270.355443" xlink:href="#m4974ca599b" y="153.770944"/>
     <use style="fill:#98df8a;stroke:#ffffff;stroke-linejoin:miter;stroke-width:0.75;" x="274.989168" xlink:href="#m4974ca599b" y="152.301362"/>
     <use style="fill:#98df8a;stroke:#ffffff;stroke-linejoin:miter;stroke-width:0.75;" x="279.341883" xlink:href="#m4974ca599b" y="148.386928"/>
     <use style="fill:#98df8a;stroke:#ffffff;stroke-linejoin:miter;stroke-width:0.75;" x="283.445733" xlink:href="#m4974ca599b" y="147.171183"/>
     <use style="fill:#98df8a;stroke:#ffffff;stroke-linejoin:miter;stroke-width:0.75;" x="287.327641" xlink:href="#m4974ca599b" y="145.942077"/>
     <use style="fill:#98df8a;stroke:#ffffff;stroke-linejoin:miter;stroke-width:0.75;" x="291.010388" xlink:href="#m4974ca599b" y="144.01826"/>
     <use style="fill:#98df8a;stroke:#ffffff;stroke-linejoin:miter;stroke-width:0.75;" x="294.513415" xlink:href="#m4974ca599b" y="138.834642"/>
     <use style="fill:#98df8a;stroke:#ffffff;stroke-linejoin:miter;stroke-width:0.75;" x="297.85345" xlink:href="#m4974ca599b" y="140.65158"/>
     <use style="fill:#98df8a;stroke:#ffffff;stroke-linejoin:miter;stroke-width:0.75;" x="301.04499" xlink:href="#m4974ca599b" y="138.807922"/>
     <use style="fill:#98df8a;stroke:#ffffff;stroke-linejoin:miter;stroke-width:0.75;" x="304.100677" xlink:href="#m4974ca599b" y="139.86335"/>
     <use style="fill:#98df8a;stroke:#ffffff;stroke-linejoin:miter;stroke-width:0.75;" x="307.031607" xlink:href="#m4974ca599b" y="137.2849"/>
     <use style="fill:#98df8a;stroke:#ffffff;stroke-linejoin:miter;stroke-width:0.75;" x="309.847569" xlink:href="#m4974ca599b" y="139.03504"/>
     <use style="fill:#98df8a;stroke:#ffffff;stroke-linejoin:miter;stroke-width:0.75;" x="312.557242" xlink:href="#m4974ca599b" y="138.848002"/>
     <use style="fill:#98df8a;stroke:#ffffff;stroke-linejoin:miter;stroke-width:0.75;" x="315.168359" xlink:href="#m4974ca599b" y="138.554085"/>
     <use style="fill:#98df8a;stroke:#ffffff;stroke-linejoin:miter;stroke-width:0.75;" x="317.68784" xlink:href="#m4974ca599b" y="138.220089"/>
     <use style="fill:#98df8a;stroke:#ffffff;stroke-linejoin:miter;stroke-width:0.75;" x="320.121897" xlink:href="#m4974ca599b" y="137.832654"/>
     <use style="fill:#98df8a;stroke:#ffffff;stroke-linejoin:miter;stroke-width:0.75;" x="322.476135" xlink:href="#m4974ca599b" y="137.819294"/>
     <use style="fill:#98df8a;stroke:#ffffff;stroke-linejoin:miter;stroke-width:0.75;" x="324.755622" xlink:href="#m4974ca599b" y="137.605537"/>
     <use style="fill:#98df8a;stroke:#ffffff;stroke-linejoin:miter;stroke-width:0.75;" x="326.96496" xlink:href="#m4974ca599b" y="137.365059"/>
     <use style="fill:#98df8a;stroke:#ffffff;stroke-linejoin:miter;stroke-width:0.75;" x="329.108337" xlink:href="#m4974ca599b" y="135.387803"/>
     <use style="fill:#98df8a;stroke:#ffffff;stroke-linejoin:miter;stroke-width:0.75;" x="331.189579" xlink:href="#m4974ca599b" y="135.254205"/>
     <use style="fill:#98df8a;stroke:#ffffff;stroke-linejoin:miter;stroke-width:0.75;" x="333.212187" xlink:href="#m4974ca599b" y="135.000368"/>
     <use style="fill:#98df8a;stroke:#ffffff;stroke-linejoin:miter;stroke-width:0.75;" x="335.179373" xlink:href="#m4974ca599b" y="134.719811"/>
     <use style="fill:#98df8a;stroke:#ffffff;stroke-linejoin:miter;stroke-width:0.75;" x="337.094095" xlink:href="#m4974ca599b" y="134.666372"/>
     <use style="fill:#98df8a;stroke:#ffffff;stroke-linejoin:miter;stroke-width:0.75;" x="338.959078" xlink:href="#m4974ca599b" y="133.864781"/>
     <use style="fill:#98df8a;stroke:#ffffff;stroke-linejoin:miter;stroke-width:0.75;" x="340.776842" xlink:href="#m4974ca599b" y="133.490706"/>
     <use style="fill:#98df8a;stroke:#ffffff;stroke-linejoin:miter;stroke-width:0.75;" x="342.549717" xlink:href="#m4974ca599b" y="131.727207"/>
     <use style="fill:#98df8a;stroke:#ffffff;stroke-linejoin:miter;stroke-width:0.75;" x="344.279869" xlink:href="#m4974ca599b" y="132.862793"/>
     <use style="fill:#98df8a;stroke:#ffffff;stroke-linejoin:miter;stroke-width:0.75;" x="345.969307" xlink:href="#m4974ca599b" y="132.154721"/>
     <use style="fill:#98df8a;stroke:#ffffff;stroke-linejoin:miter;stroke-width:0.75;" x="347.619904" xlink:href="#m4974ca599b" y="131.606968"/>
     <use style="fill:#98df8a;stroke:#ffffff;stroke-linejoin:miter;stroke-width:0.75;" x="349.233406" xlink:href="#m4974ca599b" y="131.526809"/>
     <use style="fill:#98df8a;stroke:#ffffff;stroke-linejoin:miter;stroke-width:0.75;" x="350.811444" xlink:href="#m4974ca599b" y="131.500089"/>
     <use style="fill:#98df8a;stroke:#ffffff;stroke-linejoin:miter;stroke-width:0.75;" x="352.355542" xlink:href="#m4974ca599b" y="131.259612"/>
     <use style="fill:#98df8a;stroke:#ffffff;stroke-linejoin:miter;stroke-width:0.75;" x="353.867131" xlink:href="#m4974ca599b" y="130.431302"/>
     <use style="fill:#98df8a;stroke:#ffffff;stroke-linejoin:miter;stroke-width:0.75;" x="355.347551" xlink:href="#m4974ca599b" y="130.431302"/>
     <use style="fill:#98df8a;stroke:#ffffff;stroke-linejoin:miter;stroke-width:0.75;" x="356.798061" xlink:href="#m4974ca599b" y="127.852853"/>
     <use style="fill:#98df8a;stroke:#ffffff;stroke-linejoin:miter;stroke-width:0.75;" x="358.219847" xlink:href="#m4974ca599b" y="127.852853"/>
     <use style="fill:#98df8a;stroke:#ffffff;stroke-linejoin:miter;stroke-width:0.75;" x="359.614023" xlink:href="#m4974ca599b" y="129.415954"/>
     <use style="fill:#98df8a;stroke:#ffffff;stroke-linejoin:miter;stroke-width:0.75;" x="360.981642" xlink:href="#m4974ca599b" y="127.358539"/>
     <use style="fill:#98df8a;stroke:#ffffff;stroke-linejoin:miter;stroke-width:0.75;" x="362.323696" xlink:href="#m4974ca599b" y="127.158141"/>
     <use style="fill:#98df8a;stroke:#ffffff;stroke-linejoin:miter;stroke-width:0.75;" x="363.641124" xlink:href="#m4974ca599b" y="123.01659"/>
     <use style="fill:#98df8a;stroke:#ffffff;stroke-linejoin:miter;stroke-width:0.75;" x="364.934813" xlink:href="#m4974ca599b" y="126.944383"/>
     <use style="fill:#98df8a;stroke:#ffffff;stroke-linejoin:miter;stroke-width:0.75;" x="366.205604" xlink:href="#m4974ca599b" y="131.032495"/>
     <use style="fill:#98df8a;stroke:#ffffff;stroke-linejoin:miter;stroke-width:0.75;" x="367.454294" xlink:href="#m4974ca599b" y="126.316471"/>
     <use style="fill:#98df8a;stroke:#ffffff;stroke-linejoin:miter;stroke-width:0.75;" x="368.681636" xlink:href="#m4974ca599b" y="126.196232"/>
     <use style="fill:#98df8a;stroke:#ffffff;stroke-linejoin:miter;stroke-width:0.75;" x="369.888351" xlink:href="#m4974ca599b" y="130.097306"/>
     <use style="fill:#98df8a;stroke:#ffffff;stroke-linejoin:miter;stroke-width:0.75;" x="371.075119" xlink:href="#m4974ca599b" y="126.089354"/>
     <use style="fill:#98df8a;stroke:#ffffff;stroke-linejoin:miter;stroke-width:0.75;" x="372.242589" xlink:href="#m4974ca599b" y="125.875596"/>
     <use style="fill:#98df8a;stroke:#ffffff;stroke-linejoin:miter;stroke-width:0.75;" x="373.391378" xlink:href="#m4974ca599b" y="123.323867"/>
     <use style="fill:#98df8a;stroke:#ffffff;stroke-linejoin:miter;stroke-width:0.75;" x="374.522076" xlink:href="#m4974ca599b" y="123.01659"/>
     <use style="fill:#98df8a;stroke:#ffffff;stroke-linejoin:miter;stroke-width:0.75;" x="375.635243" xlink:href="#m4974ca599b" y="123.01659"/>
     <use style="fill:#98df8a;stroke:#ffffff;stroke-linejoin:miter;stroke-width:0.75;" x="376.731414" xlink:href="#m4974ca599b" y="116.149632"/>
     <use style="fill:#98df8a;stroke:#ffffff;stroke-linejoin:miter;stroke-width:0.75;" x="377.8111" xlink:href="#m4974ca599b" y="115.909155"/>
     <use style="fill:#98df8a;stroke:#ffffff;stroke-linejoin:miter;stroke-width:0.75;" x="378.874791" xlink:href="#m4974ca599b" y="117.886411"/>
     <use style="fill:#98df8a;stroke:#ffffff;stroke-linejoin:miter;stroke-width:0.75;" x="379.922953" xlink:href="#m4974ca599b" y="117.686014"/>
     <use style="fill:#98df8a;stroke:#ffffff;stroke-linejoin:miter;stroke-width:0.75;" x="380.956033" xlink:href="#m4974ca599b" y="117.686014"/>
     <use style="fill:#98df8a;stroke:#ffffff;stroke-linejoin:miter;stroke-width:0.75;" x="381.974459" xlink:href="#m4974ca599b" y="117.418817"/>
     <use style="fill:#98df8a;stroke:#ffffff;stroke-linejoin:miter;stroke-width:0.75;" x="382.978641" xlink:href="#m4974ca599b" y="117.378737"/>
     <use style="fill:#98df8a;stroke:#ffffff;stroke-linejoin:miter;stroke-width:0.75;" x="383.968971" xlink:href="#m4974ca599b" y="115.267882"/>
     <use style="fill:#98df8a;stroke:#ffffff;stroke-linejoin:miter;stroke-width:0.75;" x="384.945827" xlink:href="#m4974ca599b" y="114.893807"/>
     <use style="fill:#98df8a;stroke:#ffffff;stroke-linejoin:miter;stroke-width:0.75;" x="385.909571" xlink:href="#m4974ca599b" y="117.004662"/>
     <use style="fill:#98df8a;stroke:#ffffff;stroke-linejoin:miter;stroke-width:0.75;" x="386.860549" xlink:href="#m4974ca599b" y="113.571183"/>
     <use style="fill:#98df8a;stroke:#ffffff;stroke-linejoin:miter;stroke-width:0.75;" x="387.799096" xlink:href="#m4974ca599b" y="116.390109"/>
     <use style="fill:#98df8a;stroke:#ffffff;stroke-linejoin:miter;stroke-width:0.75;" x="388.725532" xlink:href="#m4974ca599b" y="113.103588"/>
     <use style="fill:#98df8a;stroke:#ffffff;stroke-linejoin:miter;stroke-width:0.75;" x="389.640166" xlink:href="#m4974ca599b" y="112.769592"/>
     <use style="fill:#98df8a;stroke:#ffffff;stroke-linejoin:miter;stroke-width:0.75;" x="390.543295" xlink:href="#m4974ca599b" y="115.989314"/>
     <use style="fill:#98df8a;stroke:#ffffff;stroke-linejoin:miter;stroke-width:0.75;" x="391.435205" xlink:href="#m4974ca599b" y="112.408876"/>
     <use style="fill:#98df8a;stroke:#ffffff;stroke-linejoin:miter;stroke-width:0.75;" x="392.316171" xlink:href="#m4974ca599b" y="112.301998"/>
     <use style="fill:#98df8a;stroke:#ffffff;stroke-linejoin:miter;stroke-width:0.75;" x="393.186458" xlink:href="#m4974ca599b" y="112.208479"/>
     <use style="fill:#98df8a;stroke:#ffffff;stroke-linejoin:miter;stroke-width:0.75;" x="394.046323" xlink:href="#m4974ca599b" y="105.782395"/>
     <use style="fill:#98df8a;stroke:#ffffff;stroke-linejoin:miter;stroke-width:0.75;" x="394.896011" xlink:href="#m4974ca599b" y="105.782395"/>
     <use style="fill:#98df8a;stroke:#ffffff;stroke-linejoin:miter;stroke-width:0.75;" x="395.735761" xlink:href="#m4974ca599b" y="105.755676"/>
     <use style="fill:#98df8a;stroke:#ffffff;stroke-linejoin:miter;stroke-width:0.75;" x="396.565803" xlink:href="#m4974ca599b" y="110.712177"/>
     <use style="fill:#98df8a;stroke:#ffffff;stroke-linejoin:miter;stroke-width:0.75;" x="397.386358" xlink:href="#m4974ca599b" y="105.728956"/>
     <use style="fill:#98df8a;stroke:#ffffff;stroke-linejoin:miter;stroke-width:0.75;" x="398.197642" xlink:href="#m4974ca599b" y="105.3816"/>
     <use style="fill:#98df8a;stroke:#ffffff;stroke-linejoin:miter;stroke-width:0.75;" x="398.99986" xlink:href="#m4974ca599b" y="110.097624"/>
     <use style="fill:#98df8a;stroke:#ffffff;stroke-linejoin:miter;stroke-width:0.75;" x="399.793214" xlink:href="#m4974ca599b" y="105.167843"/>
     <use style="fill:#98df8a;stroke:#ffffff;stroke-linejoin:miter;stroke-width:0.75;" x="400.577898" xlink:href="#m4974ca599b" y="109.63003"/>
    </g>
   </g>
   <g id="line2d_32"/>
   <g id="line2d_33"/>
   <g id="line2d_34"/>
   <g id="patch_3">
    <path d="M 59.690625 277.456352 
L 59.690625 63.698896 
" style="fill:none;stroke:#000000;stroke-linecap:square;stroke-linejoin:miter;stroke-width:0.8;"/>
   </g>
   <g id="patch_4">
    <path d="M 75.923352 288.430125 
L 400.578765 288.430125 
" style="fill:none;stroke:#000000;stroke-linecap:square;stroke-linejoin:miter;stroke-width:0.8;"/>
   </g>
   <g id="text_14">
    <!-- libxml2_libxml2_xml_reader_for_file_fuzzer (23h, 14 trials/fuzzer) -->
    <g transform="translate(42.98625 16.318125)scale(0.12 -0.12)">
     <defs>
      <path d="M 603 4863 
L 1178 4863 
L 1178 0 
L 603 0 
L 603 4863 
z
" id="DejaVuSans-6c" transform="scale(0.015625)"/>
      <path d="M 3116 1747 
Q 3116 2381 2855 2742 
Q 2594 3103 2138 3103 
Q 1681 3103 1420 2742 
Q 1159 2381 1159 1747 
Q 1159 1113 1420 752 
Q 1681 391 2138 391 
Q 2594 391 2855 752 
Q 3116 1113 3116 1747 
z
M 1159 2969 
Q 1341 3281 1617 3432 
Q 1894 3584 2278 3584 
Q 2916 3584 3314 3078 
Q 3713 2572 3713 1747 
Q 3713 922 3314 415 
Q 2916 -91 2278 -91 
Q 1894 -91 1617 61 
Q 1341 213 1159 525 
L 1159 0 
L 581 0 
L 581 4863 
L 1159 4863 
L 1159 2969 
z
" id="DejaVuSans-62" transform="scale(0.015625)"/>
      <path d="M 3513 3500 
L 2247 1797 
L 3578 0 
L 2900 0 
L 1881 1375 
L 863 0 
L 184 0 
L 1544 1831 
L 300 3500 
L 978 3500 
L 1906 2253 
L 2834 3500 
L 3513 3500 
z
" id="DejaVuSans-78" transform="scale(0.015625)"/>
      <path d="M 3263 -1063 
L 3263 -1509 
L -63 -1509 
L -63 -1063 
L 3263 -1063 
z
" id="DejaVuSans-5f" transform="scale(0.015625)"/>
      <path d="M 2375 4863 
L 2375 4384 
L 1825 4384 
Q 1516 4384 1395 4259 
Q 1275 4134 1275 3809 
L 1275 3500 
L 2222 3500 
L 2222 3053 
L 1275 3053 
L 1275 0 
L 697 0 
L 697 3053 
L 147 3053 
L 147 3500 
L 697 3500 
L 697 3744 
Q 697 4328 969 4595 
Q 1241 4863 1831 4863 
L 2375 4863 
z
" id="DejaVuSans-66" transform="scale(0.015625)"/>
      <path d="M 353 3500 
L 3084 3500 
L 3084 2975 
L 922 459 
L 3084 459 
L 3084 0 
L 275 0 
L 275 525 
L 2438 3041 
L 353 3041 
L 353 3500 
z
" id="DejaVuSans-7a" transform="scale(0.015625)"/>
      <path d="M 750 794 
L 1409 794 
L 1409 256 
L 897 -744 
L 494 -744 
L 750 256 
L 750 794 
z
" id="DejaVuSans-2c" transform="scale(0.015625)"/>
      <path d="M 2834 3397 
L 2834 2853 
Q 2591 2978 2328 3040 
Q 2066 3103 1784 3103 
Q 1356 3103 1142 2972 
Q 928 2841 928 2578 
Q 928 2378 1081 2264 
Q 1234 2150 1697 2047 
L 1894 2003 
Q 2506 1872 2764 1633 
Q 3022 1394 3022 966 
Q 3022 478 2636 193 
Q 2250 -91 1575 -91 
Q 1294 -91 989 -36 
Q 684 19 347 128 
L 347 722 
Q 666 556 975 473 
Q 1284 391 1588 391 
Q 1994 391 2212 530 
Q 2431 669 2431 922 
Q 2431 1156 2273 1281 
Q 2116 1406 1581 1522 
L 1381 1569 
Q 847 1681 609 1914 
Q 372 2147 372 2553 
Q 372 3047 722 3315 
Q 1072 3584 1716 3584 
Q 2034 3584 2315 3537 
Q 2597 3491 2834 3397 
z
" id="DejaVuSans-73" transform="scale(0.015625)"/>
      <path d="M 1625 4666 
L 2156 4666 
L 531 -594 
L 0 -594 
L 1625 4666 
z
" id="DejaVuSans-2f" transform="scale(0.015625)"/>
     </defs>
     <use xlink:href="#DejaVuSans-6c"/>
     <use x="27.783203" xlink:href="#DejaVuSans-69"/>
     <use x="55.566406" xlink:href="#DejaVuSans-62"/>
     <use x="119.042969" xlink:href="#DejaVuSans-78"/>
     <use x="178.222656" xlink:href="#DejaVuSans-6d"/>
     <use x="275.634766" xlink:href="#DejaVuSans-6c"/>
     <use x="303.417969" xlink:href="#DejaVuSans-32"/>
     <use x="367.041016" xlink:href="#DejaVuSans-5f"/>
     <use x="417.041016" xlink:href="#DejaVuSans-6c"/>
     <use x="444.824219" xlink:href="#DejaVuSans-69"/>
     <use x="472.607422" xlink:href="#DejaVuSans-62"/>
     <use x="536.083984" xlink:href="#DejaVuSans-78"/>
     <use x="595.263672" xlink:href="#DejaVuSans-6d"/>
     <use x="692.675781" xlink:href="#DejaVuSans-6c"/>
     <use x="720.458984" xlink:href="#DejaVuSans-32"/>
     <use x="784.082031" xlink:href="#DejaVuSans-5f"/>
     <use x="834.082031" xlink:href="#DejaVuSans-78"/>
     <use x="893.261719" xlink:href="#DejaVuSans-6d"/>
     <use x="990.673828" xlink:href="#DejaVuSans-6c"/>
     <use x="1018.457031" xlink:href="#DejaVuSans-5f"/>
     <use x="1068.457031" xlink:href="#DejaVuSans-72"/>
     <use x="1107.320312" xlink:href="#DejaVuSans-65"/>
     <use x="1168.84375" xlink:href="#DejaVuSans-61"/>
     <use x="1230.123047" xlink:href="#DejaVuSans-64"/>
     <use x="1293.599609" xlink:href="#DejaVuSans-65"/>
     <use x="1355.123047" xlink:href="#DejaVuSans-72"/>
     <use x="1396.236328" xlink:href="#DejaVuSans-5f"/>
     <use x="1446.236328" xlink:href="#DejaVuSans-66"/>
     <use x="1481.441406" xlink:href="#DejaVuSans-6f"/>
     <use x="1542.623047" xlink:href="#DejaVuSans-72"/>
     <use x="1583.736328" xlink:href="#DejaVuSans-5f"/>
     <use x="1633.736328" xlink:href="#DejaVuSans-66"/>
     <use x="1668.941406" xlink:href="#DejaVuSans-69"/>
     <use x="1696.724609" xlink:href="#DejaVuSans-6c"/>
     <use x="1724.507812" xlink:href="#DejaVuSans-65"/>
     <use x="1786.03125" xlink:href="#DejaVuSans-5f"/>
     <use x="1836.03125" xlink:href="#DejaVuSans-66"/>
     <use x="1871.236328" xlink:href="#DejaVuSans-75"/>
     <use x="1934.615234" xlink:href="#DejaVuSans-7a"/>
     <use x="1987.105469" xlink:href="#DejaVuSans-7a"/>
     <use x="2039.595703" xlink:href="#DejaVuSans-65"/>
     <use x="2101.119141" xlink:href="#DejaVuSans-72"/>
     <use x="2142.232422" xlink:href="#DejaVuSans-20"/>
     <use x="2174.019531" xlink:href="#DejaVuSans-28"/>
     <use x="2213.033203" xlink:href="#DejaVuSans-32"/>
     <use x="2276.65625" xlink:href="#DejaVuSans-33"/>
     <use x="2340.279297" xlink:href="#DejaVuSans-68"/>
     <use x="2403.658203" xlink:href="#DejaVuSans-2c"/>
     <use x="2435.445312" xlink:href="#DejaVuSans-20"/>
     <use x="2467.232422" xlink:href="#DejaVuSans-31"/>
     <use x="2530.855469" xlink:href="#DejaVuSans-34"/>
     <use x="2594.478516" xlink:href="#DejaVuSans-20"/>
     <use x="2626.265625" xlink:href="#DejaVuSans-74"/>
     <use x="2665.474609" xlink:href="#DejaVuSans-72"/>
     <use x="2706.587891" xlink:href="#DejaVuSans-69"/>
     <use x="2734.371094" xlink:href="#DejaVuSans-61"/>
     <use x="2795.650391" xlink:href="#DejaVuSans-6c"/>
     <use x="2823.433594" xlink:href="#DejaVuSans-73"/>
     <use x="2875.533203" xlink:href="#DejaVuSans-2f"/>
     <use x="2909.224609" xlink:href="#DejaVuSans-66"/>
     <use x="2944.429688" xlink:href="#DejaVuSans-75"/>
     <use x="3007.808594" xlink:href="#DejaVuSans-7a"/>
     <use x="3060.298828" xlink:href="#DejaVuSans-7a"/>
     <use x="3112.789062" xlink:href="#DejaVuSans-65"/>
     <use x="3174.3125" xlink:href="#DejaVuSans-72"/>
     <use x="3215.425781" xlink:href="#DejaVuSans-29"/>
    </g>
   </g>
   <g id="legend_1">
    <g id="line2d_35">
     <path d="M 420.810625 30.416562 
L 440.810625 30.416562 
" style="fill:none;stroke:#d62728;stroke-linecap:square;stroke-width:1.5;"/>
    </g>
    <g id="line2d_36">
     <defs>
      <path d="M 0 -3 
L -3 3 
L 3 3 
z
" id="m23dce059de" style="stroke:#d62728;stroke-linejoin:miter;"/>
     </defs>
     <g>
      <use style="fill:#d62728;stroke:#d62728;stroke-linejoin:miter;" x="430.810625" xlink:href="#m23dce059de" y="30.416562"/>
     </g>
    </g>
    <g id="text_15">
     <!-- afl_scheduling_random -->
     <g transform="translate(448.810625 33.916562)scale(0.1 -0.1)">
      <use xlink:href="#DejaVuSans-61"/>
      <use x="61.279297" xlink:href="#DejaVuSans-66"/>
      <use x="96.484375" xlink:href="#DejaVuSans-6c"/>
      <use x="124.267578" xlink:href="#DejaVuSans-5f"/>
      <use x="174.267578" xlink:href="#DejaVuSans-73"/>
      <use x="226.367188" xlink:href="#DejaVuSans-63"/>
      <use x="281.347656" xlink:href="#DejaVuSans-68"/>
      <use x="344.726562" xlink:href="#DejaVuSans-65"/>
      <use x="406.25" xlink:href="#DejaVuSans-64"/>
      <use x="469.726562" xlink:href="#DejaVuSans-75"/>
      <use x="533.105469" xlink:href="#DejaVuSans-6c"/>
      <use x="560.888672" xlink:href="#DejaVuSans-69"/>
      <use x="588.671875" xlink:href="#DejaVuSans-6e"/>
      <use x="652.050781" xlink:href="#DejaVuSans-67"/>
      <use x="715.527344" xlink:href="#DejaVuSans-5f"/>
      <use x="765.527344" xlink:href="#DejaVuSans-72"/>
      <use x="806.640625" xlink:href="#DejaVuSans-61"/>
      <use x="867.919922" xlink:href="#DejaVuSans-6e"/>
      <use x="931.298828" xlink:href="#DejaVuSans-64"/>
      <use x="994.775391" xlink:href="#DejaVuSans-6f"/>
      <use x="1055.957031" xlink:href="#DejaVuSans-6d"/>
     </g>
    </g>
    <g id="line2d_37">
     <path d="M 420.810625 45.372813 
L 440.810625 45.372813 
" style="fill:none;stroke:#1f77b4;stroke-linecap:square;stroke-width:1.5;"/>
    </g>
    <g id="line2d_38">
     <defs>
      <path d="M 0 3 
C 0.795609 3 1.55874 2.683901 2.12132 2.12132 
C 2.683901 1.55874 3 0.795609 3 0 
C 3 -0.795609 2.683901 -1.55874 2.12132 -2.12132 
C 1.55874 -2.683901 0.795609 -3 0 -3 
C -0.795609 -3 -1.55874 -2.683901 -2.12132 -2.12132 
C -2.683901 -1.55874 -3 -0.795609 -3 0 
C -3 0.795609 -2.683901 1.55874 -2.12132 2.12132 
C -1.55874 2.683901 -0.795609 3 0 3 
z
" id="m9d78577981" style="stroke:#1f77b4;"/>
     </defs>
     <g>
      <use style="fill:#1f77b4;stroke:#1f77b4;" x="430.810625" xlink:href="#m9d78577981" y="45.372813"/>
     </g>
    </g>
    <g id="text_16">
     <!-- afl -->
     <g transform="translate(448.810625 48.872813)scale(0.1 -0.1)">
      <use xlink:href="#DejaVuSans-61"/>
      <use x="61.279297" xlink:href="#DejaVuSans-66"/>
      <use x="96.484375" xlink:href="#DejaVuSans-6c"/>
     </g>
    </g>
    <g id="line2d_39">
     <path d="M 420.810625 60.050937 
L 440.810625 60.050937 
" style="fill:none;stroke:#98df8a;stroke-linecap:square;stroke-width:1.5;"/>
    </g>
    <g id="line2d_40">
     <defs>
      <path d="M -0 3 
L 3 -3 
L -3 -3 
z
" id="m011143d8ee" style="stroke:#98df8a;stroke-linejoin:miter;"/>
     </defs>
     <g>
      <use style="fill:#98df8a;stroke:#98df8a;stroke-linejoin:miter;" x="430.810625" xlink:href="#m011143d8ee" y="60.050937"/>
     </g>
    </g>
    <g id="text_17">
     <!-- afl_scheduling_lifo -->
     <g transform="translate(448.810625 63.550937)scale(0.1 -0.1)">
      <use xlink:href="#DejaVuSans-61"/>
      <use x="61.279297" xlink:href="#DejaVuSans-66"/>
      <use x="96.484375" xlink:href="#DejaVuSans-6c"/>
      <use x="124.267578" xlink:href="#DejaVuSans-5f"/>
      <use x="174.267578" xlink:href="#DejaVuSans-73"/>
      <use x="226.367188" xlink:href="#DejaVuSans-63"/>
      <use x="281.347656" xlink:href="#DejaVuSans-68"/>
      <use x="344.726562" xlink:href="#DejaVuSans-65"/>
      <use x="406.25" xlink:href="#DejaVuSans-64"/>
      <use x="469.726562" xlink:href="#DejaVuSans-75"/>
      <use x="533.105469" xlink:href="#DejaVuSans-6c"/>
      <use x="560.888672" xlink:href="#DejaVuSans-69"/>
      <use x="588.671875" xlink:href="#DejaVuSans-6e"/>
      <use x="652.050781" xlink:href="#DejaVuSans-67"/>
      <use x="715.527344" xlink:href="#DejaVuSans-5f"/>
      <use x="765.527344" xlink:href="#DejaVuSans-6c"/>
      <use x="793.310547" xlink:href="#DejaVuSans-69"/>
      <use x="821.09375" xlink:href="#DejaVuSans-66"/>
      <use x="856.298828" xlink:href="#DejaVuSans-6f"/>
     </g>
    </g>
   </g>
  </g>
 </g>
 <defs>
  <clipPath id="p2463117a4f">
   <rect height="266.112" width="357.12" x="59.690625" y="22.318125"/>
  </clipPath>
 </defs>
</svg>
