<?xml version="1.0" encoding="utf-8" standalone="no"?>
<!DOCTYPE svg PUBLIC "-//W3C//DTD SVG 1.1//EN"
  "http://www.w3.org/Graphics/SVG/1.1/DTD/svg11.dtd">
<svg height="325.986375pt" version="1.1" viewBox="0 0 568.985625 325.986375" width="568.985625pt" xmlns="http://www.w3.org/2000/svg" xmlns:xlink="http://www.w3.org/1999/xlink">
 <metadata>
  <rdf:RDF xmlns:cc="http://creativecommons.org/ns#" xmlns:dc="http://purl.org/dc/elements/1.1/" xmlns:rdf="http://www.w3.org/1999/02/22-rdf-syntax-ns#">
   <cc:Work>
    <dc:type rdf:resource="http://purl.org/dc/dcmitype/StillImage"/>
    <dc:date>2022-05-31T14:21:52.635987</dc:date>
    <dc:format>image/svg+xml</dc:format>
    <dc:creator>
     <cc:Agent>
      <dc:title>Matplotlib v3.4.3, https://matplotlib.org/</dc:title>
     </cc:Agent>
    </dc:creator>
   </cc:Work>
  </rdf:RDF>
 </metadata>
 <defs>
  <style type="text/css">*{stroke-linecap:butt;stroke-linejoin:round;}</style>
 </defs>
 <g id="figure_1">
  <g id="patch_1">
   <path d="M 0 325.986375 
L 568.985625 325.986375 
L 568.985625 0 
L 0 0 
z
" style="fill:#ffffff;"/>
  </g>
  <g id="axes_1">
   <g id="patch_2">
    <path d="M 53.328125 288.430125 
L 410.448125 288.430125 
L 410.448125 22.318125 
L 53.328125 22.318125 
z
" style="fill:#ffffff;"/>
   </g>
   <g id="PolyCollection_1">
    <defs>
     <path d="M 69.560852 -128.736879 
L 69.560852 -101.218778 
L 73.128485 -163.194327 
L 76.696117 -182.696286 
L 80.263749 -185.208808 
L 83.831382 -186.764179 
L 87.399014 -190.832072 
L 90.966646 -194.660677 
L 94.534279 -197.292843 
L 98.101911 -199.92501 
L 101.669544 -203.035751 
L 105.237176 -204.232191 
L 108.804808 -204.232191 
L 112.372441 -205.907205 
L 115.940073 -209.735811 
L 119.507705 -212.367977 
L 123.075338 -213.085841 
L 126.64297 -212.846553 
L 130.210603 -215.000143 
L 133.778235 -221.580559 
L 137.345867 -226.007384 
L 140.9135 -228.63955 
L 144.481132 -226.007384 
L 148.048764 -233.664594 
L 151.616397 -238.211063 
L 155.184029 -238.450351 
L 158.751661 -238.211063 
L 162.319294 -240.723585 
L 165.886926 -244.312903 
L 169.454559 -244.312903 
L 173.022191 -248.979016 
L 176.589823 -249.457591 
L 180.157456 -252.089757 
L 183.725088 -252.089757 
L 187.29272 -253.046909 
L 190.860353 -256.746897 
L 194.427985 -257.473734 
L 197.995618 -258.311241 
L 201.56325 -260.823763 
L 205.130882 -261.302339 
L 208.698515 -261.541627 
L 212.266147 -262.379134 
L 215.833779 -263.814861 
L 219.401412 -264.293437 
L 222.969044 -264.293437 
L 226.536676 -264.772013 
L 230.104309 -266.20774 
L 233.671941 -266.20774 
L 237.239574 -266.20774 
L 240.807206 -266.20774 
L 244.374838 -266.566671 
L 247.942471 -268.122042 
L 251.510103 -267.523823 
L 255.077735 -268.600618 
L 258.645368 -269.797057 
L 262.213 -269.677413 
L 265.780632 -269.677413 
L 269.348265 -270.036345 
L 272.915897 -270.036345 
L 276.48353 -270.514921 
L 280.051162 -271.349437 
L 283.618794 -273.861959 
L 287.186427 -273.506019 
L 290.754059 -273.506019 
L 294.321691 -273.86495 
L 297.889324 -273.506019 
L 301.456956 -273.86495 
L 305.024589 -273.86495 
L 308.592221 -274.822102 
L 312.159853 -275.300677 
L 315.727486 -276.736404 
L 319.295118 -276.736404 
L 322.86275 -276.972701 
L 326.430383 -277.095336 
L 329.998015 -278.411419 
L 333.565647 -278.770351 
L 337.13328 -280.445366 
L 340.700912 -280.445366 
L 344.268545 -281.043585 
L 347.836177 -281.043585 
L 351.403809 -281.043585 
L 354.971442 -282.703645 
L 358.539074 -282.7186 
L 362.106706 -282.120381 
L 365.674339 -282.7186 
L 369.241971 -283.197176 
L 372.809604 -283.197176 
L 376.377236 -283.188203 
L 379.944868 -283.197176 
L 383.512501 -283.197176 
L 387.080133 -283.197176 
L 390.647765 -283.197176 
L 394.215398 -283.792404 
L 394.215398 -291.57225 
L 394.215398 -291.57225 
L 390.647765 -291.57225 
L 387.080133 -291.57225 
L 383.512501 -291.093674 
L 379.944868 -291.093674 
L 376.377236 -291.093674 
L 372.809604 -291.093674 
L 369.241971 -291.093674 
L 365.674339 -290.016879 
L 362.106706 -289.897235 
L 358.539074 -289.897235 
L 354.971442 -289.657947 
L 351.403809 -289.657947 
L 347.836177 -289.657947 
L 344.268545 -288.940084 
L 340.700912 -288.461508 
L 337.13328 -288.581152 
L 333.565647 -288.22222 
L 329.998015 -288.461508 
L 326.430383 -286.550197 
L 322.86275 -286.307918 
L 319.295118 -286.307918 
L 315.727486 -286.307918 
L 312.159853 -285.829342 
L 308.592221 -285.590054 
L 305.024589 -284.513259 
L 301.456956 -284.513259 
L 297.889324 -284.154327 
L 294.321691 -283.915039 
L 290.754059 -283.91803 
L 287.186427 -283.436464 
L 283.618794 -282.240024 
L 280.051162 -282.957888 
L 276.48353 -282.120381 
L 272.915897 -281.761449 
L 269.348265 -281.522161 
L 265.780632 -280.325722 
L 262.213 -280.346659 
L 258.645368 -280.325722 
L 255.077735 -280.325722 
L 251.510103 -277.693556 
L 247.942471 -276.497116 
L 244.374838 -276.497116 
L 240.807206 -276.497116 
L 237.239574 -275.898897 
L 233.671941 -275.181033 
L 230.104309 -274.941746 
L 226.536676 -273.147087 
L 222.969044 -273.984594 
L 219.401412 -273.027443 
L 215.833779 -271.831004 
L 212.266147 -270.637556 
L 208.698515 -270.275633 
L 205.130882 -269.575716 
L 201.56325 -267.882754 
L 197.995618 -266.327384 
L 194.427985 -264.772013 
L 190.860353 -264.772013 
L 187.29272 -264.054149 
L 183.725088 -264.054149 
L 180.157456 -263.575573 
L 176.589823 -262.139846 
L 173.022191 -261.661271 
L 169.454559 -259.986256 
L 165.886926 -258.670173 
L 162.319294 -257.832665 
L 158.751661 -255.200499 
L 155.184029 -253.046909 
L 151.616397 -247.782576 
L 148.048764 -247.543289 
L 144.481132 -240.603941 
L 140.9135 -240.24501 
L 137.345867 -234.741389 
L 133.778235 -233.425306 
L 130.210603 -231.271716 
L 126.64297 -231.271716 
L 123.075338 -231.39136 
L 119.507705 -231.032428 
L 115.940073 -231.032428 
L 112.372441 -222.896642 
L 108.804808 -222.657354 
L 105.237176 -221.700203 
L 101.669544 -220.982339 
L 98.101911 -218.828749 
L 94.534279 -218.828749 
L 90.966646 -216.196582 
L 87.399014 -207.58222 
L 83.831382 -202.557176 
L 80.263749 -198.130351 
L 76.696117 -189.874921 
L 73.128485 -181.739134 
L 69.560852 -128.736879 
z
" id="m9bc6183a46" style="stroke:#1f77b4;stroke-opacity:0.2;"/>
    </defs>
    <g clip-path="url(#p12737bafcf)">
     <use style="fill:#1f77b4;fill-opacity:0.2;stroke:#1f77b4;stroke-opacity:0.2;" x="0" xlink:href="#m9bc6183a46" y="325.986375"/>
    </g>
   </g>
   <g id="PolyCollection_2">
    <defs>
     <path d="M 69.560852 -85.066849 
L 69.560852 -56.471953 
L 73.128485 -77.648927 
L 76.696117 -98.8259 
L 80.263749 -111.149223 
L 83.831382 -135.197651 
L 87.399014 -145.367384 
L 90.966646 -156.613912 
L 94.534279 -168.219372 
L 98.101911 -169.535455 
L 101.669544 -178.149817 
L 105.237176 -179.824832 
L 108.804808 -182.21771 
L 112.372441 -182.935573 
L 115.940073 -188.558838 
L 119.507705 -187.72133 
L 123.075338 -195.961805 
L 126.64297 -195.019609 
L 130.210603 -198.489283 
L 133.778235 -198.967858 
L 137.345867 -202.557176 
L 140.9135 -206.266137 
L 144.481132 -207.462576 
L 148.048764 -208.988036 
L 151.616397 -209.496523 
L 155.184029 -211.53047 
L 158.751661 -212.367977 
L 162.319294 -216.675158 
L 165.886926 -223.973437 
L 169.454559 -224.452013 
L 173.022191 -225.409164 
L 176.589823 -226.246671 
L 180.157456 -225.050232 
L 183.725088 -225.648452 
L 187.29272 -226.231716 
L 190.860353 -229.357413 
L 194.427985 -231.152072 
L 197.995618 -232.827087 
L 201.56325 -233.664594 
L 205.130882 -234.502102 
L 208.698515 -234.741389 
L 212.266147 -235.818185 
L 215.833779 -237.008642 
L 219.401412 -237.732487 
L 222.969044 -237.014624 
L 226.536676 -237.4932 
L 230.104309 -243.714683 
L 233.671941 -243.236108 
L 237.239574 -241.920024 
L 240.807206 -241.920024 
L 244.374838 -238.928927 
L 247.942471 -244.911122 
L 251.510103 -249.218303 
L 255.077735 -248.261152 
L 258.645368 -249.218303 
L 262.213 -249.218303 
L 265.780632 -248.620084 
L 269.348265 -249.218303 
L 272.915897 -249.696879 
L 276.48353 -250.295099 
L 280.051162 -250.893318 
L 283.618794 -250.893318 
L 287.186427 -251.371894 
L 290.754059 -252.329045 
L 294.321691 -251.611182 
L 297.889324 -252.807621 
L 301.456956 -253.277223 
L 305.024589 -253.525484 
L 308.592221 -253.525484 
L 312.159853 -253.525484 
L 315.727486 -254.243348 
L 319.295118 -255.439787 
L 322.86275 -255.906398 
L 326.430383 -255.918363 
L 329.998015 -259.226517 
L 333.565647 -264.054149 
L 337.13328 -264.054149 
L 340.700912 -263.575573 
L 344.268545 -264.891657 
L 347.836177 -265.729164 
L 351.403809 -265.250588 
L 354.971442 -265.60952 
L 358.539074 -267.164891 
L 362.106706 -268.36133 
L 365.674339 -269.797057 
L 369.241971 -270.873852 
L 372.809604 -271.950648 
L 376.377236 -272.907799 
L 379.944868 -275.519027 
L 383.512501 -275.539965 
L 387.080133 -274.702458 
L 390.647765 -272.907799 
L 394.215398 -275.779253 
L 394.215398 -289.657947 
L 394.215398 -289.657947 
L 390.647765 -288.700796 
L 387.080133 -288.82044 
L 383.512501 -288.700796 
L 379.944868 -287.863289 
L 376.377236 -287.743645 
L 372.809604 -287.384713 
L 369.241971 -286.786493 
L 365.674339 -284.872191 
L 362.106706 -282.7186 
L 358.539074 -282.479312 
L 354.971442 -282.479312 
L 351.403809 -282.479312 
L 347.836177 -280.086434 
L 344.268545 -280.086434 
L 340.700912 -280.086434 
L 337.13328 -280.086434 
L 333.565647 -280.086434 
L 329.998015 -279.009639 
L 326.430383 -277.693556 
L 322.86275 -277.693556 
L 319.295118 -278.291775 
L 315.727486 -277.693556 
L 312.159853 -277.693556 
L 308.592221 -276.736404 
L 305.024589 -276.018541 
L 301.456956 -276.856048 
L 297.889324 -273.984594 
L 294.321691 -271.510956 
L 290.754059 -270.514921 
L 287.186427 -272.432214 
L 283.618794 -270.275633 
L 280.051162 -271.71136 
L 276.48353 -270.754208 
L 272.915897 -269.557769 
L 269.348265 -270.993496 
L 265.780632 -270.155989 
L 262.213 -267.882754 
L 258.645368 -268.95955 
L 255.077735 -268.122042 
L 251.510103 -267.404179 
L 247.942471 -268.241686 
L 244.374838 -263.096998 
L 240.807206 -264.891657 
L 237.239574 -262.738066 
L 233.671941 -261.302339 
L 230.104309 -262.618422 
L 226.536676 -260.464832 
L 222.969044 -256.157651 
L 219.401412 -259.866612 
L 215.833779 -258.071953 
L 212.266147 -255.688048 
L 208.698515 -257.832665 
L 205.130882 -254.482636 
L 201.56325 -254.00406 
L 197.995618 -253.166553 
L 194.427985 -248.021864 
L 190.860353 -246.346849 
L 187.29272 -245.868274 
L 183.725088 -245.389698 
L 180.157456 -250.414743 
L 176.589823 -242.877176 
L 173.022191 -238.928927 
L 169.454559 -237.253912 
L 165.886926 -236.536048 
L 162.319294 -234.980677 
L 158.751661 -236.536048 
L 155.184029 -233.784238 
L 151.616397 -232.228867 
L 148.048764 -228.878838 
L 144.481132 -227.921686 
L 140.9135 -225.768096 
L 137.345867 -225.28952 
L 133.778235 -222.776998 
L 130.210603 -225.28952 
L 126.64297 -221.700203 
L 123.075338 -220.025188 
L 119.507705 -217.991241 
L 115.940073 -216.555514 
L 112.372441 -216.196582 
L 108.804808 -213.325128 
L 105.237176 -207.624096 
L 101.669544 -210.354968 
L 98.101911 -205.548274 
L 94.534279 -204.950054 
L 90.966646 -192.746375 
L 87.399014 -190.353496 
L 83.831382 -181.021271 
L 80.263749 -170.253318 
L 76.696117 -156.8532 
L 73.128485 -136.513734 
L 69.560852 -85.066849 
z
" id="m8961d36297" style="stroke:#d62728;stroke-opacity:0.2;"/>
    </defs>
    <g clip-path="url(#p12737bafcf)">
     <use style="fill:#d62728;fill-opacity:0.2;stroke:#d62728;stroke-opacity:0.2;" x="0" xlink:href="#m8961d36297" y="325.986375"/>
    </g>
   </g>
   <g id="PolyCollection_3">
    <defs>
     <path d="M 69.560852 -74.059609 
L 69.560852 -49.65225 
L 73.128485 -63.530944 
L 76.696117 -69.51314 
L 80.263749 -72.86317 
L 83.831382 -75.495336 
L 87.399014 -76.931063 
L 90.966646 -77.164369 
L 94.534279 -80.041805 
L 98.101911 -80.041805 
L 101.669544 -80.281093 
L 105.237176 -81.477532 
L 108.804808 -81.477532 
L 112.372441 -82.434683 
L 115.940073 -82.673971 
L 119.507705 -82.673971 
L 123.075338 -84.109698 
L 126.64297 -84.109698 
L 130.210603 -85.306137 
L 133.778235 -85.545425 
L 137.345867 -85.545425 
L 140.9135 -86.981152 
L 144.481132 -87.699016 
L 148.048764 -87.699016 
L 151.616397 -87.699016 
L 155.184029 -87.699016 
L 158.751661 -87.699016 
L 162.319294 -87.699016 
L 165.886926 -88.416879 
L 169.454559 -88.656167 
L 173.022191 -88.656167 
L 176.589823 -88.656167 
L 180.157456 -90.091894 
L 183.725088 -90.091894 
L 187.29272 -90.091894 
L 190.860353 -90.091894 
L 194.427985 -90.091894 
L 197.995618 -90.091894 
L 201.56325 -97.031241 
L 205.130882 -97.031241 
L 208.698515 -97.031241 
L 212.266147 -97.031241 
L 215.833779 -97.031241 
L 219.401412 -100.620559 
L 222.969044 -101.338422 
L 226.536676 -105.645603 
L 230.104309 -110.670648 
L 233.671941 -116.892131 
L 237.239574 -117.609995 
L 240.807206 -117.849283 
L 244.374838 -118.327858 
L 247.942471 -119.28501 
L 251.510103 -119.28501 
L 255.077735 -132.924416 
L 258.645368 -132.924416 
L 262.213 -132.924416 
L 265.780632 -136.513734 
L 269.348265 -136.513734 
L 272.915897 -136.513734 
L 276.48353 -136.513734 
L 280.051162 -138.667324 
L 283.618794 -140.820915 
L 287.186427 -140.820915 
L 290.754059 -146.324535 
L 294.321691 -146.324535 
L 297.889324 -146.324535 
L 301.456956 -146.324535 
L 305.024589 -146.324535 
L 308.592221 -146.324535 
L 312.159853 -146.324535 
L 315.727486 -146.324535 
L 319.295118 -146.324535 
L 322.86275 -147.99955 
L 326.430383 -141.778066 
L 329.998015 -147.99955 
L 333.565647 -148.238838 
L 337.13328 -141.89771 
L 340.700912 -148.238838 
L 344.268545 -143.094149 
L 347.836177 -141.89771 
L 351.403809 -148.238838 
L 354.971442 -148.238838 
L 358.539074 -148.238838 
L 362.106706 -148.238838 
L 365.674339 -148.238838 
L 369.241971 -148.238838 
L 372.809604 -148.238838 
L 376.377236 -142.49593 
L 379.944868 -142.49593 
L 383.512501 -148.13714 
L 387.080133 -144.170944 
L 390.647765 -144.170944 
L 394.215398 -148.358481 
L 394.215398 -197.532131 
L 394.215398 -197.532131 
L 390.647765 -197.532131 
L 387.080133 -197.053556 
L 383.512501 -197.053556 
L 379.944868 -197.053556 
L 376.377236 -197.053556 
L 372.809604 -197.1732 
L 369.241971 -190.832072 
L 365.674339 -190.832072 
L 362.106706 -190.832072 
L 358.539074 -188.439194 
L 354.971442 -188.439194 
L 351.403809 -188.439194 
L 347.836177 -186.883823 
L 344.268545 -186.046315 
L 340.700912 -187.242754 
L 337.13328 -184.867823 
L 333.565647 -186.524891 
L 329.998015 -186.524891 
L 326.430383 -185.56774 
L 322.86275 -185.807027 
L 319.295118 -184.610588 
L 315.727486 -184.610588 
L 312.159853 -184.610588 
L 308.592221 -181.978422 
L 305.024589 -181.978422 
L 301.456956 -181.978422 
L 297.889324 -181.978422 
L 294.321691 -181.978422 
L 290.754059 -181.978422 
L 287.186427 -181.978422 
L 283.618794 -179.585544 
L 280.051162 -179.106968 
L 276.48353 -179.106968 
L 272.915897 -179.106968 
L 269.348265 -179.106968 
L 265.780632 -179.106968 
L 262.213 -179.106968 
L 258.645368 -179.106968 
L 255.077735 -179.106968 
L 251.510103 -178.86768 
L 247.942471 -175.996226 
L 244.374838 -175.517651 
L 240.807206 -173.36406 
L 237.239574 -171.449757 
L 233.671941 -171.449757 
L 230.104309 -166.903289 
L 226.536676 -166.903289 
L 222.969044 -166.664001 
L 219.401412 -166.664001 
L 215.833779 -166.664001 
L 212.266147 -162.596108 
L 208.698515 -162.596108 
L 205.130882 -161.399668 
L 201.56325 -159.724654 
L 197.995618 -159.00679 
L 194.427985 -158.049639 
L 190.860353 -158.049639 
L 187.29272 -157.092487 
L 183.725088 -157.092487 
L 180.157456 -154.460321 
L 176.589823 -152.785306 
L 173.022191 -151.349579 
L 169.454559 -150.15314 
L 165.886926 -150.15314 
L 162.319294 -149.913852 
L 158.751661 -144.170944 
L 155.184029 -143.237722 
L 151.616397 -143.213793 
L 148.048764 -142.974505 
L 144.481132 -137.470885 
L 140.9135 -137.470885 
L 137.345867 -134.838719 
L 133.778235 -132.445841 
L 130.210603 -129.574386 
L 126.64297 -128.617235 
L 123.075338 -128.377947 
L 119.507705 -128.377947 
L 115.940073 -126.94222 
L 112.372441 -126.94222 
L 108.804808 -110.192072 
L 105.237176 -110.192072 
L 101.669544 -108.277769 
L 98.101911 -98.22768 
L 94.534279 -96.791953 
L 90.966646 -92.72406 
L 87.399014 -92.484772 
L 83.831382 -89.37403 
L 80.263749 -83.87041 
L 76.696117 -80.281093 
L 73.128485 -77.648927 
L 69.560852 -74.059609 
z
" id="m9ca15d6811" style="stroke:#98df8a;stroke-opacity:0.2;"/>
    </defs>
    <g clip-path="url(#p12737bafcf)">
     <use style="fill:#98df8a;fill-opacity:0.2;stroke:#98df8a;stroke-opacity:0.2;" x="0" xlink:href="#m9ca15d6811" y="325.986375"/>
    </g>
   </g>
   <g id="matplotlib.axis_1">
    <g id="xtick_1">
     <g id="line2d_1">
      <defs>
       <path d="M 0 0 
L 0 3.5 
" id="m157bb082a5" style="stroke:#000000;stroke-width:0.8;"/>
      </defs>
      <g>
       <use style="stroke:#000000;stroke-width:0.8;" x="69.560852" xlink:href="#m157bb082a5" y="288.430125"/>
      </g>
     </g>
     <g id="text_1">
      <!-- 15m -->
      <g transform="translate(58.32804 303.028562)scale(0.1 -0.1)">
       <defs>
        <path d="M 794 531 
L 1825 531 
L 1825 4091 
L 703 3866 
L 703 4441 
L 1819 4666 
L 2450 4666 
L 2450 531 
L 3481 531 
L 3481 0 
L 794 0 
L 794 531 
z
" id="DejaVuSans-31" transform="scale(0.015625)"/>
        <path d="M 691 4666 
L 3169 4666 
L 3169 4134 
L 1269 4134 
L 1269 2991 
Q 1406 3038 1543 3061 
Q 1681 3084 1819 3084 
Q 2600 3084 3056 2656 
Q 3513 2228 3513 1497 
Q 3513 744 3044 326 
Q 2575 -91 1722 -91 
Q 1428 -91 1123 -41 
Q 819 9 494 109 
L 494 744 
Q 775 591 1075 516 
Q 1375 441 1709 441 
Q 2250 441 2565 725 
Q 2881 1009 2881 1497 
Q 2881 1984 2565 2268 
Q 2250 2553 1709 2553 
Q 1456 2553 1204 2497 
Q 953 2441 691 2322 
L 691 4666 
z
" id="DejaVuSans-35" transform="scale(0.015625)"/>
        <path d="M 3328 2828 
Q 3544 3216 3844 3400 
Q 4144 3584 4550 3584 
Q 5097 3584 5394 3201 
Q 5691 2819 5691 2113 
L 5691 0 
L 5113 0 
L 5113 2094 
Q 5113 2597 4934 2840 
Q 4756 3084 4391 3084 
Q 3944 3084 3684 2787 
Q 3425 2491 3425 1978 
L 3425 0 
L 2847 0 
L 2847 2094 
Q 2847 2600 2669 2842 
Q 2491 3084 2119 3084 
Q 1678 3084 1418 2786 
Q 1159 2488 1159 1978 
L 1159 0 
L 581 0 
L 581 3500 
L 1159 3500 
L 1159 2956 
Q 1356 3278 1631 3431 
Q 1906 3584 2284 3584 
Q 2666 3584 2933 3390 
Q 3200 3197 3328 2828 
z
" id="DejaVuSans-6d" transform="scale(0.015625)"/>
       </defs>
       <use xlink:href="#DejaVuSans-31"/>
       <use x="63.623047" xlink:href="#DejaVuSans-35"/>
       <use x="127.246094" xlink:href="#DejaVuSans-6d"/>
      </g>
     </g>
    </g>
    <g id="xtick_2">
     <g id="line2d_2">
      <g>
       <use style="stroke:#000000;stroke-width:0.8;" x="124.264549" xlink:href="#m157bb082a5" y="288.430125"/>
      </g>
     </g>
     <g id="text_2">
      <!-- 4h:5m -->
      <g transform="translate(108.178611 303.028562)scale(0.1 -0.1)">
       <defs>
        <path d="M 2419 4116 
L 825 1625 
L 2419 1625 
L 2419 4116 
z
M 2253 4666 
L 3047 4666 
L 3047 1625 
L 3713 1625 
L 3713 1100 
L 3047 1100 
L 3047 0 
L 2419 0 
L 2419 1100 
L 313 1100 
L 313 1709 
L 2253 4666 
z
" id="DejaVuSans-34" transform="scale(0.015625)"/>
        <path d="M 3513 2113 
L 3513 0 
L 2938 0 
L 2938 2094 
Q 2938 2591 2744 2837 
Q 2550 3084 2163 3084 
Q 1697 3084 1428 2787 
Q 1159 2491 1159 1978 
L 1159 0 
L 581 0 
L 581 4863 
L 1159 4863 
L 1159 2956 
Q 1366 3272 1645 3428 
Q 1925 3584 2291 3584 
Q 2894 3584 3203 3211 
Q 3513 2838 3513 2113 
z
" id="DejaVuSans-68" transform="scale(0.015625)"/>
        <path d="M 750 794 
L 1409 794 
L 1409 0 
L 750 0 
L 750 794 
z
M 750 3309 
L 1409 3309 
L 1409 2516 
L 750 2516 
L 750 3309 
z
" id="DejaVuSans-3a" transform="scale(0.015625)"/>
       </defs>
       <use xlink:href="#DejaVuSans-34"/>
       <use x="63.623047" xlink:href="#DejaVuSans-68"/>
       <use x="127.001953" xlink:href="#DejaVuSans-3a"/>
       <use x="160.693359" xlink:href="#DejaVuSans-35"/>
       <use x="224.316406" xlink:href="#DejaVuSans-6d"/>
      </g>
     </g>
    </g>
    <g id="xtick_3">
     <g id="line2d_3">
      <g>
       <use style="stroke:#000000;stroke-width:0.8;" x="178.968245" xlink:href="#m157bb082a5" y="288.430125"/>
      </g>
     </g>
     <g id="text_3">
      <!-- 7h:55m -->
      <g transform="translate(159.701057 303.028562)scale(0.1 -0.1)">
       <defs>
        <path d="M 525 4666 
L 3525 4666 
L 3525 4397 
L 1831 0 
L 1172 0 
L 2766 4134 
L 525 4134 
L 525 4666 
z
" id="DejaVuSans-37" transform="scale(0.015625)"/>
       </defs>
       <use xlink:href="#DejaVuSans-37"/>
       <use x="63.623047" xlink:href="#DejaVuSans-68"/>
       <use x="127.001953" xlink:href="#DejaVuSans-3a"/>
       <use x="160.693359" xlink:href="#DejaVuSans-35"/>
       <use x="224.316406" xlink:href="#DejaVuSans-35"/>
       <use x="287.939453" xlink:href="#DejaVuSans-6d"/>
      </g>
     </g>
    </g>
    <g id="xtick_4">
     <g id="line2d_4">
      <g>
       <use style="stroke:#000000;stroke-width:0.8;" x="233.671941" xlink:href="#m157bb082a5" y="288.430125"/>
      </g>
     </g>
     <g id="text_4">
      <!-- 11h:45m -->
      <g transform="translate(211.223504 303.028562)scale(0.1 -0.1)">
       <use xlink:href="#DejaVuSans-31"/>
       <use x="63.623047" xlink:href="#DejaVuSans-31"/>
       <use x="127.246094" xlink:href="#DejaVuSans-68"/>
       <use x="190.625" xlink:href="#DejaVuSans-3a"/>
       <use x="224.316406" xlink:href="#DejaVuSans-34"/>
       <use x="287.939453" xlink:href="#DejaVuSans-35"/>
       <use x="351.5625" xlink:href="#DejaVuSans-6d"/>
      </g>
     </g>
    </g>
    <g id="xtick_5">
     <g id="line2d_5">
      <g>
       <use style="stroke:#000000;stroke-width:0.8;" x="288.375637" xlink:href="#m157bb082a5" y="288.430125"/>
      </g>
     </g>
     <g id="text_5">
      <!-- 15h:35m -->
      <g transform="translate(265.9272 303.028562)scale(0.1 -0.1)">
       <defs>
        <path d="M 2597 2516 
Q 3050 2419 3304 2112 
Q 3559 1806 3559 1356 
Q 3559 666 3084 287 
Q 2609 -91 1734 -91 
Q 1441 -91 1130 -33 
Q 819 25 488 141 
L 488 750 
Q 750 597 1062 519 
Q 1375 441 1716 441 
Q 2309 441 2620 675 
Q 2931 909 2931 1356 
Q 2931 1769 2642 2001 
Q 2353 2234 1838 2234 
L 1294 2234 
L 1294 2753 
L 1863 2753 
Q 2328 2753 2575 2939 
Q 2822 3125 2822 3475 
Q 2822 3834 2567 4026 
Q 2313 4219 1838 4219 
Q 1578 4219 1281 4162 
Q 984 4106 628 3988 
L 628 4550 
Q 988 4650 1302 4700 
Q 1616 4750 1894 4750 
Q 2613 4750 3031 4423 
Q 3450 4097 3450 3541 
Q 3450 3153 3228 2886 
Q 3006 2619 2597 2516 
z
" id="DejaVuSans-33" transform="scale(0.015625)"/>
       </defs>
       <use xlink:href="#DejaVuSans-31"/>
       <use x="63.623047" xlink:href="#DejaVuSans-35"/>
       <use x="127.246094" xlink:href="#DejaVuSans-68"/>
       <use x="190.625" xlink:href="#DejaVuSans-3a"/>
       <use x="224.316406" xlink:href="#DejaVuSans-33"/>
       <use x="287.939453" xlink:href="#DejaVuSans-35"/>
       <use x="351.5625" xlink:href="#DejaVuSans-6d"/>
      </g>
     </g>
    </g>
    <g id="xtick_6">
     <g id="line2d_6">
      <g>
       <use style="stroke:#000000;stroke-width:0.8;" x="343.079334" xlink:href="#m157bb082a5" y="288.430125"/>
      </g>
     </g>
     <g id="text_6">
      <!-- 19h:25m -->
      <g transform="translate(320.630896 303.028562)scale(0.1 -0.1)">
       <defs>
        <path d="M 703 97 
L 703 672 
Q 941 559 1184 500 
Q 1428 441 1663 441 
Q 2288 441 2617 861 
Q 2947 1281 2994 2138 
Q 2813 1869 2534 1725 
Q 2256 1581 1919 1581 
Q 1219 1581 811 2004 
Q 403 2428 403 3163 
Q 403 3881 828 4315 
Q 1253 4750 1959 4750 
Q 2769 4750 3195 4129 
Q 3622 3509 3622 2328 
Q 3622 1225 3098 567 
Q 2575 -91 1691 -91 
Q 1453 -91 1209 -44 
Q 966 3 703 97 
z
M 1959 2075 
Q 2384 2075 2632 2365 
Q 2881 2656 2881 3163 
Q 2881 3666 2632 3958 
Q 2384 4250 1959 4250 
Q 1534 4250 1286 3958 
Q 1038 3666 1038 3163 
Q 1038 2656 1286 2365 
Q 1534 2075 1959 2075 
z
" id="DejaVuSans-39" transform="scale(0.015625)"/>
        <path d="M 1228 531 
L 3431 531 
L 3431 0 
L 469 0 
L 469 531 
Q 828 903 1448 1529 
Q 2069 2156 2228 2338 
Q 2531 2678 2651 2914 
Q 2772 3150 2772 3378 
Q 2772 3750 2511 3984 
Q 2250 4219 1831 4219 
Q 1534 4219 1204 4116 
Q 875 4013 500 3803 
L 500 4441 
Q 881 4594 1212 4672 
Q 1544 4750 1819 4750 
Q 2544 4750 2975 4387 
Q 3406 4025 3406 3419 
Q 3406 3131 3298 2873 
Q 3191 2616 2906 2266 
Q 2828 2175 2409 1742 
Q 1991 1309 1228 531 
z
" id="DejaVuSans-32" transform="scale(0.015625)"/>
       </defs>
       <use xlink:href="#DejaVuSans-31"/>
       <use x="63.623047" xlink:href="#DejaVuSans-39"/>
       <use x="127.246094" xlink:href="#DejaVuSans-68"/>
       <use x="190.625" xlink:href="#DejaVuSans-3a"/>
       <use x="224.316406" xlink:href="#DejaVuSans-32"/>
       <use x="287.939453" xlink:href="#DejaVuSans-35"/>
       <use x="351.5625" xlink:href="#DejaVuSans-6d"/>
      </g>
     </g>
    </g>
    <g id="text_7">
     <!-- Time (hour:minute) -->
     <g transform="translate(183.481094 316.706687)scale(0.1 -0.1)">
      <defs>
       <path d="M -19 4666 
L 3928 4666 
L 3928 4134 
L 2272 4134 
L 2272 0 
L 1638 0 
L 1638 4134 
L -19 4134 
L -19 4666 
z
" id="DejaVuSans-54" transform="scale(0.015625)"/>
       <path d="M 603 3500 
L 1178 3500 
L 1178 0 
L 603 0 
L 603 3500 
z
M 603 4863 
L 1178 4863 
L 1178 4134 
L 603 4134 
L 603 4863 
z
" id="DejaVuSans-69" transform="scale(0.015625)"/>
       <path d="M 3597 1894 
L 3597 1613 
L 953 1613 
Q 991 1019 1311 708 
Q 1631 397 2203 397 
Q 2534 397 2845 478 
Q 3156 559 3463 722 
L 3463 178 
Q 3153 47 2828 -22 
Q 2503 -91 2169 -91 
Q 1331 -91 842 396 
Q 353 884 353 1716 
Q 353 2575 817 3079 
Q 1281 3584 2069 3584 
Q 2775 3584 3186 3129 
Q 3597 2675 3597 1894 
z
M 3022 2063 
Q 3016 2534 2758 2815 
Q 2500 3097 2075 3097 
Q 1594 3097 1305 2825 
Q 1016 2553 972 2059 
L 3022 2063 
z
" id="DejaVuSans-65" transform="scale(0.015625)"/>
       <path id="DejaVuSans-20" transform="scale(0.015625)"/>
       <path d="M 1984 4856 
Q 1566 4138 1362 3434 
Q 1159 2731 1159 2009 
Q 1159 1288 1364 580 
Q 1569 -128 1984 -844 
L 1484 -844 
Q 1016 -109 783 600 
Q 550 1309 550 2009 
Q 550 2706 781 3412 
Q 1013 4119 1484 4856 
L 1984 4856 
z
" id="DejaVuSans-28" transform="scale(0.015625)"/>
       <path d="M 1959 3097 
Q 1497 3097 1228 2736 
Q 959 2375 959 1747 
Q 959 1119 1226 758 
Q 1494 397 1959 397 
Q 2419 397 2687 759 
Q 2956 1122 2956 1747 
Q 2956 2369 2687 2733 
Q 2419 3097 1959 3097 
z
M 1959 3584 
Q 2709 3584 3137 3096 
Q 3566 2609 3566 1747 
Q 3566 888 3137 398 
Q 2709 -91 1959 -91 
Q 1206 -91 779 398 
Q 353 888 353 1747 
Q 353 2609 779 3096 
Q 1206 3584 1959 3584 
z
" id="DejaVuSans-6f" transform="scale(0.015625)"/>
       <path d="M 544 1381 
L 544 3500 
L 1119 3500 
L 1119 1403 
Q 1119 906 1312 657 
Q 1506 409 1894 409 
Q 2359 409 2629 706 
Q 2900 1003 2900 1516 
L 2900 3500 
L 3475 3500 
L 3475 0 
L 2900 0 
L 2900 538 
Q 2691 219 2414 64 
Q 2138 -91 1772 -91 
Q 1169 -91 856 284 
Q 544 659 544 1381 
z
M 1991 3584 
L 1991 3584 
z
" id="DejaVuSans-75" transform="scale(0.015625)"/>
       <path d="M 2631 2963 
Q 2534 3019 2420 3045 
Q 2306 3072 2169 3072 
Q 1681 3072 1420 2755 
Q 1159 2438 1159 1844 
L 1159 0 
L 581 0 
L 581 3500 
L 1159 3500 
L 1159 2956 
Q 1341 3275 1631 3429 
Q 1922 3584 2338 3584 
Q 2397 3584 2469 3576 
Q 2541 3569 2628 3553 
L 2631 2963 
z
" id="DejaVuSans-72" transform="scale(0.015625)"/>
       <path d="M 3513 2113 
L 3513 0 
L 2938 0 
L 2938 2094 
Q 2938 2591 2744 2837 
Q 2550 3084 2163 3084 
Q 1697 3084 1428 2787 
Q 1159 2491 1159 1978 
L 1159 0 
L 581 0 
L 581 3500 
L 1159 3500 
L 1159 2956 
Q 1366 3272 1645 3428 
Q 1925 3584 2291 3584 
Q 2894 3584 3203 3211 
Q 3513 2838 3513 2113 
z
" id="DejaVuSans-6e" transform="scale(0.015625)"/>
       <path d="M 1172 4494 
L 1172 3500 
L 2356 3500 
L 2356 3053 
L 1172 3053 
L 1172 1153 
Q 1172 725 1289 603 
Q 1406 481 1766 481 
L 2356 481 
L 2356 0 
L 1766 0 
Q 1100 0 847 248 
Q 594 497 594 1153 
L 594 3053 
L 172 3053 
L 172 3500 
L 594 3500 
L 594 4494 
L 1172 4494 
z
" id="DejaVuSans-74" transform="scale(0.015625)"/>
       <path d="M 513 4856 
L 1013 4856 
Q 1481 4119 1714 3412 
Q 1947 2706 1947 2009 
Q 1947 1309 1714 600 
Q 1481 -109 1013 -844 
L 513 -844 
Q 928 -128 1133 580 
Q 1338 1288 1338 2009 
Q 1338 2731 1133 3434 
Q 928 4138 513 4856 
z
" id="DejaVuSans-29" transform="scale(0.015625)"/>
      </defs>
      <use xlink:href="#DejaVuSans-54"/>
      <use x="57.958984" xlink:href="#DejaVuSans-69"/>
      <use x="85.742188" xlink:href="#DejaVuSans-6d"/>
      <use x="183.154297" xlink:href="#DejaVuSans-65"/>
      <use x="244.677734" xlink:href="#DejaVuSans-20"/>
      <use x="276.464844" xlink:href="#DejaVuSans-28"/>
      <use x="315.478516" xlink:href="#DejaVuSans-68"/>
      <use x="378.857422" xlink:href="#DejaVuSans-6f"/>
      <use x="440.039062" xlink:href="#DejaVuSans-75"/>
      <use x="503.417969" xlink:href="#DejaVuSans-72"/>
      <use x="542.78125" xlink:href="#DejaVuSans-3a"/>
      <use x="576.472656" xlink:href="#DejaVuSans-6d"/>
      <use x="673.884766" xlink:href="#DejaVuSans-69"/>
      <use x="701.667969" xlink:href="#DejaVuSans-6e"/>
      <use x="765.046875" xlink:href="#DejaVuSans-75"/>
      <use x="828.425781" xlink:href="#DejaVuSans-74"/>
      <use x="867.634766" xlink:href="#DejaVuSans-65"/>
      <use x="929.158203" xlink:href="#DejaVuSans-29"/>
     </g>
    </g>
   </g>
   <g id="matplotlib.axis_2">
    <g id="ytick_1">
     <g id="line2d_7">
      <defs>
       <path d="M 0 0 
L -3.5 0 
" id="m0fc574fd8a" style="stroke:#000000;stroke-width:0.8;"/>
      </defs>
      <g>
       <use style="stroke:#000000;stroke-width:0.8;" x="53.328125" xlink:href="#m0fc574fd8a" y="265.087597"/>
      </g>
     </g>
     <g id="text_8">
      <!-- 1800 -->
      <g transform="translate(20.878125 268.886816)scale(0.1 -0.1)">
       <defs>
        <path d="M 2034 2216 
Q 1584 2216 1326 1975 
Q 1069 1734 1069 1313 
Q 1069 891 1326 650 
Q 1584 409 2034 409 
Q 2484 409 2743 651 
Q 3003 894 3003 1313 
Q 3003 1734 2745 1975 
Q 2488 2216 2034 2216 
z
M 1403 2484 
Q 997 2584 770 2862 
Q 544 3141 544 3541 
Q 544 4100 942 4425 
Q 1341 4750 2034 4750 
Q 2731 4750 3128 4425 
Q 3525 4100 3525 3541 
Q 3525 3141 3298 2862 
Q 3072 2584 2669 2484 
Q 3125 2378 3379 2068 
Q 3634 1759 3634 1313 
Q 3634 634 3220 271 
Q 2806 -91 2034 -91 
Q 1263 -91 848 271 
Q 434 634 434 1313 
Q 434 1759 690 2068 
Q 947 2378 1403 2484 
z
M 1172 3481 
Q 1172 3119 1398 2916 
Q 1625 2713 2034 2713 
Q 2441 2713 2670 2916 
Q 2900 3119 2900 3481 
Q 2900 3844 2670 4047 
Q 2441 4250 2034 4250 
Q 1625 4250 1398 4047 
Q 1172 3844 1172 3481 
z
" id="DejaVuSans-38" transform="scale(0.015625)"/>
        <path d="M 2034 4250 
Q 1547 4250 1301 3770 
Q 1056 3291 1056 2328 
Q 1056 1369 1301 889 
Q 1547 409 2034 409 
Q 2525 409 2770 889 
Q 3016 1369 3016 2328 
Q 3016 3291 2770 3770 
Q 2525 4250 2034 4250 
z
M 2034 4750 
Q 2819 4750 3233 4129 
Q 3647 3509 3647 2328 
Q 3647 1150 3233 529 
Q 2819 -91 2034 -91 
Q 1250 -91 836 529 
Q 422 1150 422 2328 
Q 422 3509 836 4129 
Q 1250 4750 2034 4750 
z
" id="DejaVuSans-30" transform="scale(0.015625)"/>
       </defs>
       <use xlink:href="#DejaVuSans-31"/>
       <use x="63.623047" xlink:href="#DejaVuSans-38"/>
       <use x="127.246094" xlink:href="#DejaVuSans-30"/>
       <use x="190.869141" xlink:href="#DejaVuSans-30"/>
      </g>
     </g>
    </g>
    <g id="ytick_2">
     <g id="line2d_8">
      <g>
       <use style="stroke:#000000;stroke-width:0.8;" x="53.328125" xlink:href="#m0fc574fd8a" y="217.23003"/>
      </g>
     </g>
     <g id="text_9">
      <!-- 2000 -->
      <g transform="translate(20.878125 221.029249)scale(0.1 -0.1)">
       <use xlink:href="#DejaVuSans-32"/>
       <use x="63.623047" xlink:href="#DejaVuSans-30"/>
       <use x="127.246094" xlink:href="#DejaVuSans-30"/>
       <use x="190.869141" xlink:href="#DejaVuSans-30"/>
      </g>
     </g>
    </g>
    <g id="ytick_3">
     <g id="line2d_9">
      <g>
       <use style="stroke:#000000;stroke-width:0.8;" x="53.328125" xlink:href="#m0fc574fd8a" y="169.372463"/>
      </g>
     </g>
     <g id="text_10">
      <!-- 2200 -->
      <g transform="translate(20.878125 173.171682)scale(0.1 -0.1)">
       <use xlink:href="#DejaVuSans-32"/>
       <use x="63.623047" xlink:href="#DejaVuSans-32"/>
       <use x="127.246094" xlink:href="#DejaVuSans-30"/>
       <use x="190.869141" xlink:href="#DejaVuSans-30"/>
      </g>
     </g>
    </g>
    <g id="ytick_4">
     <g id="line2d_10">
      <g>
       <use style="stroke:#000000;stroke-width:0.8;" x="53.328125" xlink:href="#m0fc574fd8a" y="121.514897"/>
      </g>
     </g>
     <g id="text_11">
      <!-- 2400 -->
      <g transform="translate(20.878125 125.314115)scale(0.1 -0.1)">
       <use xlink:href="#DejaVuSans-32"/>
       <use x="63.623047" xlink:href="#DejaVuSans-34"/>
       <use x="127.246094" xlink:href="#DejaVuSans-30"/>
       <use x="190.869141" xlink:href="#DejaVuSans-30"/>
      </g>
     </g>
    </g>
    <g id="ytick_5">
     <g id="line2d_11">
      <g>
       <use style="stroke:#000000;stroke-width:0.8;" x="53.328125" xlink:href="#m0fc574fd8a" y="73.65733"/>
      </g>
     </g>
     <g id="text_12">
      <!-- 2600 -->
      <g transform="translate(20.878125 77.456548)scale(0.1 -0.1)">
       <defs>
        <path d="M 2113 2584 
Q 1688 2584 1439 2293 
Q 1191 2003 1191 1497 
Q 1191 994 1439 701 
Q 1688 409 2113 409 
Q 2538 409 2786 701 
Q 3034 994 3034 1497 
Q 3034 2003 2786 2293 
Q 2538 2584 2113 2584 
z
M 3366 4563 
L 3366 3988 
Q 3128 4100 2886 4159 
Q 2644 4219 2406 4219 
Q 1781 4219 1451 3797 
Q 1122 3375 1075 2522 
Q 1259 2794 1537 2939 
Q 1816 3084 2150 3084 
Q 2853 3084 3261 2657 
Q 3669 2231 3669 1497 
Q 3669 778 3244 343 
Q 2819 -91 2113 -91 
Q 1303 -91 875 529 
Q 447 1150 447 2328 
Q 447 3434 972 4092 
Q 1497 4750 2381 4750 
Q 2619 4750 2861 4703 
Q 3103 4656 3366 4563 
z
" id="DejaVuSans-36" transform="scale(0.015625)"/>
       </defs>
       <use xlink:href="#DejaVuSans-32"/>
       <use x="63.623047" xlink:href="#DejaVuSans-36"/>
       <use x="127.246094" xlink:href="#DejaVuSans-30"/>
       <use x="190.869141" xlink:href="#DejaVuSans-30"/>
      </g>
     </g>
    </g>
    <g id="ytick_6">
     <g id="line2d_12">
      <g>
       <use style="stroke:#000000;stroke-width:0.8;" x="53.328125" xlink:href="#m0fc574fd8a" y="25.799763"/>
      </g>
     </g>
     <g id="text_13">
      <!-- 2800 -->
      <g transform="translate(20.878125 29.598982)scale(0.1 -0.1)">
       <use xlink:href="#DejaVuSans-32"/>
       <use x="63.623047" xlink:href="#DejaVuSans-38"/>
       <use x="127.246094" xlink:href="#DejaVuSans-30"/>
       <use x="190.869141" xlink:href="#DejaVuSans-30"/>
      </g>
     </g>
    </g>
    <g id="text_14">
     <!-- Code region coverage -->
     <g transform="translate(14.798438 210.379594)rotate(-90)scale(0.1 -0.1)">
      <defs>
       <path d="M 4122 4306 
L 4122 3641 
Q 3803 3938 3442 4084 
Q 3081 4231 2675 4231 
Q 1875 4231 1450 3742 
Q 1025 3253 1025 2328 
Q 1025 1406 1450 917 
Q 1875 428 2675 428 
Q 3081 428 3442 575 
Q 3803 722 4122 1019 
L 4122 359 
Q 3791 134 3420 21 
Q 3050 -91 2638 -91 
Q 1578 -91 968 557 
Q 359 1206 359 2328 
Q 359 3453 968 4101 
Q 1578 4750 2638 4750 
Q 3056 4750 3426 4639 
Q 3797 4528 4122 4306 
z
" id="DejaVuSans-43" transform="scale(0.015625)"/>
       <path d="M 2906 2969 
L 2906 4863 
L 3481 4863 
L 3481 0 
L 2906 0 
L 2906 525 
Q 2725 213 2448 61 
Q 2172 -91 1784 -91 
Q 1150 -91 751 415 
Q 353 922 353 1747 
Q 353 2572 751 3078 
Q 1150 3584 1784 3584 
Q 2172 3584 2448 3432 
Q 2725 3281 2906 2969 
z
M 947 1747 
Q 947 1113 1208 752 
Q 1469 391 1925 391 
Q 2381 391 2643 752 
Q 2906 1113 2906 1747 
Q 2906 2381 2643 2742 
Q 2381 3103 1925 3103 
Q 1469 3103 1208 2742 
Q 947 2381 947 1747 
z
" id="DejaVuSans-64" transform="scale(0.015625)"/>
       <path d="M 2906 1791 
Q 2906 2416 2648 2759 
Q 2391 3103 1925 3103 
Q 1463 3103 1205 2759 
Q 947 2416 947 1791 
Q 947 1169 1205 825 
Q 1463 481 1925 481 
Q 2391 481 2648 825 
Q 2906 1169 2906 1791 
z
M 3481 434 
Q 3481 -459 3084 -895 
Q 2688 -1331 1869 -1331 
Q 1566 -1331 1297 -1286 
Q 1028 -1241 775 -1147 
L 775 -588 
Q 1028 -725 1275 -790 
Q 1522 -856 1778 -856 
Q 2344 -856 2625 -561 
Q 2906 -266 2906 331 
L 2906 616 
Q 2728 306 2450 153 
Q 2172 0 1784 0 
Q 1141 0 747 490 
Q 353 981 353 1791 
Q 353 2603 747 3093 
Q 1141 3584 1784 3584 
Q 2172 3584 2450 3431 
Q 2728 3278 2906 2969 
L 2906 3500 
L 3481 3500 
L 3481 434 
z
" id="DejaVuSans-67" transform="scale(0.015625)"/>
       <path d="M 3122 3366 
L 3122 2828 
Q 2878 2963 2633 3030 
Q 2388 3097 2138 3097 
Q 1578 3097 1268 2742 
Q 959 2388 959 1747 
Q 959 1106 1268 751 
Q 1578 397 2138 397 
Q 2388 397 2633 464 
Q 2878 531 3122 666 
L 3122 134 
Q 2881 22 2623 -34 
Q 2366 -91 2075 -91 
Q 1284 -91 818 406 
Q 353 903 353 1747 
Q 353 2603 823 3093 
Q 1294 3584 2113 3584 
Q 2378 3584 2631 3529 
Q 2884 3475 3122 3366 
z
" id="DejaVuSans-63" transform="scale(0.015625)"/>
       <path d="M 191 3500 
L 800 3500 
L 1894 563 
L 2988 3500 
L 3597 3500 
L 2284 0 
L 1503 0 
L 191 3500 
z
" id="DejaVuSans-76" transform="scale(0.015625)"/>
       <path d="M 2194 1759 
Q 1497 1759 1228 1600 
Q 959 1441 959 1056 
Q 959 750 1161 570 
Q 1363 391 1709 391 
Q 2188 391 2477 730 
Q 2766 1069 2766 1631 
L 2766 1759 
L 2194 1759 
z
M 3341 1997 
L 3341 0 
L 2766 0 
L 2766 531 
Q 2569 213 2275 61 
Q 1981 -91 1556 -91 
Q 1019 -91 701 211 
Q 384 513 384 1019 
Q 384 1609 779 1909 
Q 1175 2209 1959 2209 
L 2766 2209 
L 2766 2266 
Q 2766 2663 2505 2880 
Q 2244 3097 1772 3097 
Q 1472 3097 1187 3025 
Q 903 2953 641 2809 
L 641 3341 
Q 956 3463 1253 3523 
Q 1550 3584 1831 3584 
Q 2591 3584 2966 3190 
Q 3341 2797 3341 1997 
z
" id="DejaVuSans-61" transform="scale(0.015625)"/>
      </defs>
      <use xlink:href="#DejaVuSans-43"/>
      <use x="69.824219" xlink:href="#DejaVuSans-6f"/>
      <use x="131.005859" xlink:href="#DejaVuSans-64"/>
      <use x="194.482422" xlink:href="#DejaVuSans-65"/>
      <use x="256.005859" xlink:href="#DejaVuSans-20"/>
      <use x="287.792969" xlink:href="#DejaVuSans-72"/>
      <use x="326.65625" xlink:href="#DejaVuSans-65"/>
      <use x="388.179688" xlink:href="#DejaVuSans-67"/>
      <use x="451.65625" xlink:href="#DejaVuSans-69"/>
      <use x="479.439453" xlink:href="#DejaVuSans-6f"/>
      <use x="540.621094" xlink:href="#DejaVuSans-6e"/>
      <use x="604" xlink:href="#DejaVuSans-20"/>
      <use x="635.787109" xlink:href="#DejaVuSans-63"/>
      <use x="690.767578" xlink:href="#DejaVuSans-6f"/>
      <use x="751.949219" xlink:href="#DejaVuSans-76"/>
      <use x="811.128906" xlink:href="#DejaVuSans-65"/>
      <use x="872.652344" xlink:href="#DejaVuSans-72"/>
      <use x="913.765625" xlink:href="#DejaVuSans-61"/>
      <use x="975.044922" xlink:href="#DejaVuSans-67"/>
      <use x="1038.521484" xlink:href="#DejaVuSans-65"/>
     </g>
    </g>
   </g>
   <g id="line2d_13">
    <path clip-path="url(#p12737bafcf)" d="M 69.560852 206.462078 
L 73.128485 149.272285 
L 76.696117 140.179348 
L 80.263749 135.872167 
L 83.831382 132.282849 
L 87.399014 128.214956 
L 90.966646 128.454244 
L 94.534279 125.343502 
L 98.101911 122.711336 
L 101.669544 120.318457 
L 105.237176 118.164867 
L 108.804808 117.925579 
L 112.372441 108.114778 
L 115.940073 104.046885 
L 119.507705 99.978991 
L 123.075338 98.423621 
L 126.64297 98.543264 
L 130.210603 97.346825 
L 133.778235 95.911098 
L 137.345867 94.475371 
L 140.9135 91.962849 
L 144.481132 90.16819 
L 148.048764 84.66457 
L 151.616397 82.989555 
L 155.184029 82.750267 
L 158.751661 82.51098 
L 162.319294 76.528784 
L 165.886926 75.093057 
L 169.454559 73.418042 
L 173.022191 70.3073 
L 176.589823 67.076914 
L 180.157456 66.717983 
L 183.725088 66.000119 
L 187.29272 66.000119 
L 190.860353 65.401899 
L 194.427985 63.846529 
L 197.995618 62.530445 
L 201.56325 61.692938 
L 205.130882 61.692938 
L 208.698515 61.692938 
L 212.266147 61.692938 
L 215.833779 61.094718 
L 219.401412 59.658991 
L 222.969044 59.060772 
L 226.536676 58.582196 
L 230.104309 57.744689 
L 233.671941 56.308962 
L 237.239574 55.710742 
L 240.807206 55.710742 
L 244.374838 55.710742 
L 247.942471 55.232167 
L 251.510103 53.557152 
L 255.077735 55.232167 
L 258.645368 52.839288 
L 262.213 52.839288 
L 265.780632 52.839288 
L 269.348265 51.762493 
L 272.915897 49.130327 
L 276.48353 49.130327 
L 280.051162 48.173175 
L 283.618794 48.173175 
L 287.186427 46.737448 
L 290.754059 45.541009 
L 294.321691 45.421365 
L 297.889324 44.703502 
L 301.456956 44.34457 
L 305.024589 44.105282 
L 308.592221 42.789199 
L 312.159853 42.789199 
L 315.727486 42.310624 
L 319.295118 42.789199 
L 322.86275 41.832048 
L 326.430383 40.99454 
L 329.998015 40.635609 
L 333.565647 39.917745 
L 337.13328 39.43917 
L 340.700912 38.601662 
L 344.268545 38.362374 
L 347.836177 38.362374 
L 351.403809 38.24273 
L 354.971442 38.003443 
L 358.539074 38.003443 
L 362.106706 38.003443 
L 365.674339 38.003443 
L 369.241971 38.24273 
L 372.809604 38.003443 
L 376.377236 38.003443 
L 379.944868 37.883799 
L 383.512501 38.003443 
L 387.080133 37.524867 
L 390.647765 36.567716 
L 394.215398 36.567716 
" style="fill:none;stroke:#1f77b4;stroke-linecap:square;stroke-width:1.5;"/>
    <defs>
     <path d="M 0 3 
C 0.795609 3 1.55874 2.683901 2.12132 2.12132 
C 2.683901 1.55874 3 0.795609 3 0 
C 3 -0.795609 2.683901 -1.55874 2.12132 -2.12132 
C 1.55874 -2.683901 0.795609 -3 0 -3 
C -0.795609 -3 -1.55874 -2.683901 -2.12132 -2.12132 
C -2.683901 -1.55874 -3 -0.795609 -3 0 
C -3 0.795609 -2.683901 1.55874 -2.12132 2.12132 
C -1.55874 2.683901 -0.795609 3 0 3 
z
" id="m6c4ee857c0" style="stroke:#ffffff;stroke-width:0.75;"/>
    </defs>
    <g clip-path="url(#p12737bafcf)">
     <use style="fill:#1f77b4;stroke:#ffffff;stroke-width:0.75;" x="69.560852" xlink:href="#m6c4ee857c0" y="206.462078"/>
     <use style="fill:#1f77b4;stroke:#ffffff;stroke-width:0.75;" x="73.128485" xlink:href="#m6c4ee857c0" y="149.272285"/>
     <use style="fill:#1f77b4;stroke:#ffffff;stroke-width:0.75;" x="76.696117" xlink:href="#m6c4ee857c0" y="140.179348"/>
     <use style="fill:#1f77b4;stroke:#ffffff;stroke-width:0.75;" x="80.263749" xlink:href="#m6c4ee857c0" y="135.872167"/>
     <use style="fill:#1f77b4;stroke:#ffffff;stroke-width:0.75;" x="83.831382" xlink:href="#m6c4ee857c0" y="132.282849"/>
     <use style="fill:#1f77b4;stroke:#ffffff;stroke-width:0.75;" x="87.399014" xlink:href="#m6c4ee857c0" y="128.214956"/>
     <use style="fill:#1f77b4;stroke:#ffffff;stroke-width:0.75;" x="90.966646" xlink:href="#m6c4ee857c0" y="128.454244"/>
     <use style="fill:#1f77b4;stroke:#ffffff;stroke-width:0.75;" x="94.534279" xlink:href="#m6c4ee857c0" y="125.343502"/>
     <use style="fill:#1f77b4;stroke:#ffffff;stroke-width:0.75;" x="98.101911" xlink:href="#m6c4ee857c0" y="122.711336"/>
     <use style="fill:#1f77b4;stroke:#ffffff;stroke-width:0.75;" x="101.669544" xlink:href="#m6c4ee857c0" y="120.318457"/>
     <use style="fill:#1f77b4;stroke:#ffffff;stroke-width:0.75;" x="105.237176" xlink:href="#m6c4ee857c0" y="118.164867"/>
     <use style="fill:#1f77b4;stroke:#ffffff;stroke-width:0.75;" x="108.804808" xlink:href="#m6c4ee857c0" y="117.925579"/>
     <use style="fill:#1f77b4;stroke:#ffffff;stroke-width:0.75;" x="112.372441" xlink:href="#m6c4ee857c0" y="108.114778"/>
     <use style="fill:#1f77b4;stroke:#ffffff;stroke-width:0.75;" x="115.940073" xlink:href="#m6c4ee857c0" y="104.046885"/>
     <use style="fill:#1f77b4;stroke:#ffffff;stroke-width:0.75;" x="119.507705" xlink:href="#m6c4ee857c0" y="99.978991"/>
     <use style="fill:#1f77b4;stroke:#ffffff;stroke-width:0.75;" x="123.075338" xlink:href="#m6c4ee857c0" y="98.423621"/>
     <use style="fill:#1f77b4;stroke:#ffffff;stroke-width:0.75;" x="126.64297" xlink:href="#m6c4ee857c0" y="98.543264"/>
     <use style="fill:#1f77b4;stroke:#ffffff;stroke-width:0.75;" x="130.210603" xlink:href="#m6c4ee857c0" y="97.346825"/>
     <use style="fill:#1f77b4;stroke:#ffffff;stroke-width:0.75;" x="133.778235" xlink:href="#m6c4ee857c0" y="95.911098"/>
     <use style="fill:#1f77b4;stroke:#ffffff;stroke-width:0.75;" x="137.345867" xlink:href="#m6c4ee857c0" y="94.475371"/>
     <use style="fill:#1f77b4;stroke:#ffffff;stroke-width:0.75;" x="140.9135" xlink:href="#m6c4ee857c0" y="91.962849"/>
     <use style="fill:#1f77b4;stroke:#ffffff;stroke-width:0.75;" x="144.481132" xlink:href="#m6c4ee857c0" y="90.16819"/>
     <use style="fill:#1f77b4;stroke:#ffffff;stroke-width:0.75;" x="148.048764" xlink:href="#m6c4ee857c0" y="84.66457"/>
     <use style="fill:#1f77b4;stroke:#ffffff;stroke-width:0.75;" x="151.616397" xlink:href="#m6c4ee857c0" y="82.989555"/>
     <use style="fill:#1f77b4;stroke:#ffffff;stroke-width:0.75;" x="155.184029" xlink:href="#m6c4ee857c0" y="82.750267"/>
     <use style="fill:#1f77b4;stroke:#ffffff;stroke-width:0.75;" x="158.751661" xlink:href="#m6c4ee857c0" y="82.51098"/>
     <use style="fill:#1f77b4;stroke:#ffffff;stroke-width:0.75;" x="162.319294" xlink:href="#m6c4ee857c0" y="76.528784"/>
     <use style="fill:#1f77b4;stroke:#ffffff;stroke-width:0.75;" x="165.886926" xlink:href="#m6c4ee857c0" y="75.093057"/>
     <use style="fill:#1f77b4;stroke:#ffffff;stroke-width:0.75;" x="169.454559" xlink:href="#m6c4ee857c0" y="73.418042"/>
     <use style="fill:#1f77b4;stroke:#ffffff;stroke-width:0.75;" x="173.022191" xlink:href="#m6c4ee857c0" y="70.3073"/>
     <use style="fill:#1f77b4;stroke:#ffffff;stroke-width:0.75;" x="176.589823" xlink:href="#m6c4ee857c0" y="67.076914"/>
     <use style="fill:#1f77b4;stroke:#ffffff;stroke-width:0.75;" x="180.157456" xlink:href="#m6c4ee857c0" y="66.717983"/>
     <use style="fill:#1f77b4;stroke:#ffffff;stroke-width:0.75;" x="183.725088" xlink:href="#m6c4ee857c0" y="66.000119"/>
     <use style="fill:#1f77b4;stroke:#ffffff;stroke-width:0.75;" x="187.29272" xlink:href="#m6c4ee857c0" y="66.000119"/>
     <use style="fill:#1f77b4;stroke:#ffffff;stroke-width:0.75;" x="190.860353" xlink:href="#m6c4ee857c0" y="65.401899"/>
     <use style="fill:#1f77b4;stroke:#ffffff;stroke-width:0.75;" x="194.427985" xlink:href="#m6c4ee857c0" y="63.846529"/>
     <use style="fill:#1f77b4;stroke:#ffffff;stroke-width:0.75;" x="197.995618" xlink:href="#m6c4ee857c0" y="62.530445"/>
     <use style="fill:#1f77b4;stroke:#ffffff;stroke-width:0.75;" x="201.56325" xlink:href="#m6c4ee857c0" y="61.692938"/>
     <use style="fill:#1f77b4;stroke:#ffffff;stroke-width:0.75;" x="205.130882" xlink:href="#m6c4ee857c0" y="61.692938"/>
     <use style="fill:#1f77b4;stroke:#ffffff;stroke-width:0.75;" x="208.698515" xlink:href="#m6c4ee857c0" y="61.692938"/>
     <use style="fill:#1f77b4;stroke:#ffffff;stroke-width:0.75;" x="212.266147" xlink:href="#m6c4ee857c0" y="61.692938"/>
     <use style="fill:#1f77b4;stroke:#ffffff;stroke-width:0.75;" x="215.833779" xlink:href="#m6c4ee857c0" y="61.094718"/>
     <use style="fill:#1f77b4;stroke:#ffffff;stroke-width:0.75;" x="219.401412" xlink:href="#m6c4ee857c0" y="59.658991"/>
     <use style="fill:#1f77b4;stroke:#ffffff;stroke-width:0.75;" x="222.969044" xlink:href="#m6c4ee857c0" y="59.060772"/>
     <use style="fill:#1f77b4;stroke:#ffffff;stroke-width:0.75;" x="226.536676" xlink:href="#m6c4ee857c0" y="58.582196"/>
     <use style="fill:#1f77b4;stroke:#ffffff;stroke-width:0.75;" x="230.104309" xlink:href="#m6c4ee857c0" y="57.744689"/>
     <use style="fill:#1f77b4;stroke:#ffffff;stroke-width:0.75;" x="233.671941" xlink:href="#m6c4ee857c0" y="56.308962"/>
     <use style="fill:#1f77b4;stroke:#ffffff;stroke-width:0.75;" x="237.239574" xlink:href="#m6c4ee857c0" y="55.710742"/>
     <use style="fill:#1f77b4;stroke:#ffffff;stroke-width:0.75;" x="240.807206" xlink:href="#m6c4ee857c0" y="55.710742"/>
     <use style="fill:#1f77b4;stroke:#ffffff;stroke-width:0.75;" x="244.374838" xlink:href="#m6c4ee857c0" y="55.710742"/>
     <use style="fill:#1f77b4;stroke:#ffffff;stroke-width:0.75;" x="247.942471" xlink:href="#m6c4ee857c0" y="55.232167"/>
     <use style="fill:#1f77b4;stroke:#ffffff;stroke-width:0.75;" x="251.510103" xlink:href="#m6c4ee857c0" y="53.557152"/>
     <use style="fill:#1f77b4;stroke:#ffffff;stroke-width:0.75;" x="255.077735" xlink:href="#m6c4ee857c0" y="55.232167"/>
     <use style="fill:#1f77b4;stroke:#ffffff;stroke-width:0.75;" x="258.645368" xlink:href="#m6c4ee857c0" y="52.839288"/>
     <use style="fill:#1f77b4;stroke:#ffffff;stroke-width:0.75;" x="262.213" xlink:href="#m6c4ee857c0" y="52.839288"/>
     <use style="fill:#1f77b4;stroke:#ffffff;stroke-width:0.75;" x="265.780632" xlink:href="#m6c4ee857c0" y="52.839288"/>
     <use style="fill:#1f77b4;stroke:#ffffff;stroke-width:0.75;" x="269.348265" xlink:href="#m6c4ee857c0" y="51.762493"/>
     <use style="fill:#1f77b4;stroke:#ffffff;stroke-width:0.75;" x="272.915897" xlink:href="#m6c4ee857c0" y="49.130327"/>
     <use style="fill:#1f77b4;stroke:#ffffff;stroke-width:0.75;" x="276.48353" xlink:href="#m6c4ee857c0" y="49.130327"/>
     <use style="fill:#1f77b4;stroke:#ffffff;stroke-width:0.75;" x="280.051162" xlink:href="#m6c4ee857c0" y="48.173175"/>
     <use style="fill:#1f77b4;stroke:#ffffff;stroke-width:0.75;" x="283.618794" xlink:href="#m6c4ee857c0" y="48.173175"/>
     <use style="fill:#1f77b4;stroke:#ffffff;stroke-width:0.75;" x="287.186427" xlink:href="#m6c4ee857c0" y="46.737448"/>
     <use style="fill:#1f77b4;stroke:#ffffff;stroke-width:0.75;" x="290.754059" xlink:href="#m6c4ee857c0" y="45.541009"/>
     <use style="fill:#1f77b4;stroke:#ffffff;stroke-width:0.75;" x="294.321691" xlink:href="#m6c4ee857c0" y="45.421365"/>
     <use style="fill:#1f77b4;stroke:#ffffff;stroke-width:0.75;" x="297.889324" xlink:href="#m6c4ee857c0" y="44.703502"/>
     <use style="fill:#1f77b4;stroke:#ffffff;stroke-width:0.75;" x="301.456956" xlink:href="#m6c4ee857c0" y="44.34457"/>
     <use style="fill:#1f77b4;stroke:#ffffff;stroke-width:0.75;" x="305.024589" xlink:href="#m6c4ee857c0" y="44.105282"/>
     <use style="fill:#1f77b4;stroke:#ffffff;stroke-width:0.75;" x="308.592221" xlink:href="#m6c4ee857c0" y="42.789199"/>
     <use style="fill:#1f77b4;stroke:#ffffff;stroke-width:0.75;" x="312.159853" xlink:href="#m6c4ee857c0" y="42.789199"/>
     <use style="fill:#1f77b4;stroke:#ffffff;stroke-width:0.75;" x="315.727486" xlink:href="#m6c4ee857c0" y="42.310624"/>
     <use style="fill:#1f77b4;stroke:#ffffff;stroke-width:0.75;" x="319.295118" xlink:href="#m6c4ee857c0" y="42.789199"/>
     <use style="fill:#1f77b4;stroke:#ffffff;stroke-width:0.75;" x="322.86275" xlink:href="#m6c4ee857c0" y="41.832048"/>
     <use style="fill:#1f77b4;stroke:#ffffff;stroke-width:0.75;" x="326.430383" xlink:href="#m6c4ee857c0" y="40.99454"/>
     <use style="fill:#1f77b4;stroke:#ffffff;stroke-width:0.75;" x="329.998015" xlink:href="#m6c4ee857c0" y="40.635609"/>
     <use style="fill:#1f77b4;stroke:#ffffff;stroke-width:0.75;" x="333.565647" xlink:href="#m6c4ee857c0" y="39.917745"/>
     <use style="fill:#1f77b4;stroke:#ffffff;stroke-width:0.75;" x="337.13328" xlink:href="#m6c4ee857c0" y="39.43917"/>
     <use style="fill:#1f77b4;stroke:#ffffff;stroke-width:0.75;" x="340.700912" xlink:href="#m6c4ee857c0" y="38.601662"/>
     <use style="fill:#1f77b4;stroke:#ffffff;stroke-width:0.75;" x="344.268545" xlink:href="#m6c4ee857c0" y="38.362374"/>
     <use style="fill:#1f77b4;stroke:#ffffff;stroke-width:0.75;" x="347.836177" xlink:href="#m6c4ee857c0" y="38.362374"/>
     <use style="fill:#1f77b4;stroke:#ffffff;stroke-width:0.75;" x="351.403809" xlink:href="#m6c4ee857c0" y="38.24273"/>
     <use style="fill:#1f77b4;stroke:#ffffff;stroke-width:0.75;" x="354.971442" xlink:href="#m6c4ee857c0" y="38.003443"/>
     <use style="fill:#1f77b4;stroke:#ffffff;stroke-width:0.75;" x="358.539074" xlink:href="#m6c4ee857c0" y="38.003443"/>
     <use style="fill:#1f77b4;stroke:#ffffff;stroke-width:0.75;" x="362.106706" xlink:href="#m6c4ee857c0" y="38.003443"/>
     <use style="fill:#1f77b4;stroke:#ffffff;stroke-width:0.75;" x="365.674339" xlink:href="#m6c4ee857c0" y="38.003443"/>
     <use style="fill:#1f77b4;stroke:#ffffff;stroke-width:0.75;" x="369.241971" xlink:href="#m6c4ee857c0" y="38.24273"/>
     <use style="fill:#1f77b4;stroke:#ffffff;stroke-width:0.75;" x="372.809604" xlink:href="#m6c4ee857c0" y="38.003443"/>
     <use style="fill:#1f77b4;stroke:#ffffff;stroke-width:0.75;" x="376.377236" xlink:href="#m6c4ee857c0" y="38.003443"/>
     <use style="fill:#1f77b4;stroke:#ffffff;stroke-width:0.75;" x="379.944868" xlink:href="#m6c4ee857c0" y="37.883799"/>
     <use style="fill:#1f77b4;stroke:#ffffff;stroke-width:0.75;" x="383.512501" xlink:href="#m6c4ee857c0" y="38.003443"/>
     <use style="fill:#1f77b4;stroke:#ffffff;stroke-width:0.75;" x="387.080133" xlink:href="#m6c4ee857c0" y="37.524867"/>
     <use style="fill:#1f77b4;stroke:#ffffff;stroke-width:0.75;" x="390.647765" xlink:href="#m6c4ee857c0" y="36.567716"/>
     <use style="fill:#1f77b4;stroke:#ffffff;stroke-width:0.75;" x="394.215398" xlink:href="#m6c4ee857c0" y="36.567716"/>
    </g>
   </g>
   <g id="line2d_14">
    <path clip-path="url(#p12737bafcf)" d="M 69.560852 266.882256 
L 73.128485 223.33187 
L 76.696117 191.386944 
L 80.263749 179.183264 
L 83.831382 162.911692 
L 87.399014 156.211632 
L 90.966646 145.682968 
L 94.534279 139.102552 
L 98.101911 128.932819 
L 101.669544 126.539941 
L 105.237176 124.745282 
L 108.804808 123.070267 
L 112.372441 122.472048 
L 115.940073 120.677389 
L 119.507705 121.395253 
L 123.075338 118.045223 
L 126.64297 114.814837 
L 130.210603 113.857686 
L 133.778235 110.746944 
L 137.345867 106.679051 
L 140.9135 107.995134 
L 144.481132 105.362968 
L 148.048764 104.286172 
L 151.616397 100.577211 
L 155.184029 98.423621 
L 158.751661 98.303977 
L 162.319294 96.987894 
L 165.886926 95.073591 
L 169.454559 93.039644 
L 173.022191 92.800356 
L 176.589823 92.800356 
L 180.157456 92.561069 
L 183.725088 88.253888 
L 187.29272 88.253888 
L 190.860353 88.134244 
L 194.427985 88.134244 
L 197.995618 84.903858 
L 201.56325 84.185994 
L 205.130882 84.066351 
L 208.698515 82.51098 
L 212.266147 82.51098 
L 215.833779 81.553828 
L 219.401412 81.075253 
L 222.969044 79.878813 
L 226.536676 77.844867 
L 230.104309 76.169852 
L 233.671941 76.169852 
L 237.239574 73.178754 
L 240.807206 73.178754 
L 244.374838 72.221603 
L 247.942471 70.187656 
L 251.510103 72.221603 
L 255.077735 68.871573 
L 258.645368 68.871573 
L 262.213 72.221603 
L 265.780632 66.837626 
L 269.348265 66.717983 
L 272.915897 71.982315 
L 276.48353 66.717983 
L 280.051162 66.717983 
L 283.618794 67.914422 
L 287.186427 63.966172 
L 290.754059 67.435846 
L 294.321691 63.367953 
L 297.889324 63.128665 
L 301.456956 62.291158 
L 305.024589 62.291158 
L 308.592221 66.95727 
L 312.159853 61.45365 
L 315.727486 61.334006 
L 319.295118 61.334006 
L 322.86275 57.983977 
L 326.430383 55.232167 
L 329.998015 54.753591 
L 333.565647 54.275015 
L 337.13328 53.916083 
L 340.700912 52.839288 
L 344.268545 50.924986 
L 347.836177 49.967834 
L 351.403809 50.207122 
L 354.971442 49.249971 
L 358.539074 48.292819 
L 362.106706 48.292819 
L 365.674339 47.6946 
L 369.241971 47.216024 
L 372.809604 46.378517 
L 376.377236 46.139229 
L 379.944868 44.583858 
L 383.512501 44.583858 
L 387.080133 44.583858 
L 390.647765 43.028487 
L 394.215398 41.353472 
" style="fill:none;stroke:#d62728;stroke-linecap:square;stroke-width:1.5;"/>
    <defs>
     <path d="M 0 -3 
L -3 3 
L 3 3 
z
" id="mcb202cafeb" style="stroke:#ffffff;stroke-linejoin:miter;stroke-width:0.75;"/>
    </defs>
    <g clip-path="url(#p12737bafcf)">
     <use style="fill:#d62728;stroke:#ffffff;stroke-linejoin:miter;stroke-width:0.75;" x="69.560852" xlink:href="#mcb202cafeb" y="266.882256"/>
     <use style="fill:#d62728;stroke:#ffffff;stroke-linejoin:miter;stroke-width:0.75;" x="73.128485" xlink:href="#mcb202cafeb" y="223.33187"/>
     <use style="fill:#d62728;stroke:#ffffff;stroke-linejoin:miter;stroke-width:0.75;" x="76.696117" xlink:href="#mcb202cafeb" y="191.386944"/>
     <use style="fill:#d62728;stroke:#ffffff;stroke-linejoin:miter;stroke-width:0.75;" x="80.263749" xlink:href="#mcb202cafeb" y="179.183264"/>
     <use style="fill:#d62728;stroke:#ffffff;stroke-linejoin:miter;stroke-width:0.75;" x="83.831382" xlink:href="#mcb202cafeb" y="162.911692"/>
     <use style="fill:#d62728;stroke:#ffffff;stroke-linejoin:miter;stroke-width:0.75;" x="87.399014" xlink:href="#mcb202cafeb" y="156.211632"/>
     <use style="fill:#d62728;stroke:#ffffff;stroke-linejoin:miter;stroke-width:0.75;" x="90.966646" xlink:href="#mcb202cafeb" y="145.682968"/>
     <use style="fill:#d62728;stroke:#ffffff;stroke-linejoin:miter;stroke-width:0.75;" x="94.534279" xlink:href="#mcb202cafeb" y="139.102552"/>
     <use style="fill:#d62728;stroke:#ffffff;stroke-linejoin:miter;stroke-width:0.75;" x="98.101911" xlink:href="#mcb202cafeb" y="128.932819"/>
     <use style="fill:#d62728;stroke:#ffffff;stroke-linejoin:miter;stroke-width:0.75;" x="101.669544" xlink:href="#mcb202cafeb" y="126.539941"/>
     <use style="fill:#d62728;stroke:#ffffff;stroke-linejoin:miter;stroke-width:0.75;" x="105.237176" xlink:href="#mcb202cafeb" y="124.745282"/>
     <use style="fill:#d62728;stroke:#ffffff;stroke-linejoin:miter;stroke-width:0.75;" x="108.804808" xlink:href="#mcb202cafeb" y="123.070267"/>
     <use style="fill:#d62728;stroke:#ffffff;stroke-linejoin:miter;stroke-width:0.75;" x="112.372441" xlink:href="#mcb202cafeb" y="122.472048"/>
     <use style="fill:#d62728;stroke:#ffffff;stroke-linejoin:miter;stroke-width:0.75;" x="115.940073" xlink:href="#mcb202cafeb" y="120.677389"/>
     <use style="fill:#d62728;stroke:#ffffff;stroke-linejoin:miter;stroke-width:0.75;" x="119.507705" xlink:href="#mcb202cafeb" y="121.395253"/>
     <use style="fill:#d62728;stroke:#ffffff;stroke-linejoin:miter;stroke-width:0.75;" x="123.075338" xlink:href="#mcb202cafeb" y="118.045223"/>
     <use style="fill:#d62728;stroke:#ffffff;stroke-linejoin:miter;stroke-width:0.75;" x="126.64297" xlink:href="#mcb202cafeb" y="114.814837"/>
     <use style="fill:#d62728;stroke:#ffffff;stroke-linejoin:miter;stroke-width:0.75;" x="130.210603" xlink:href="#mcb202cafeb" y="113.857686"/>
     <use style="fill:#d62728;stroke:#ffffff;stroke-linejoin:miter;stroke-width:0.75;" x="133.778235" xlink:href="#mcb202cafeb" y="110.746944"/>
     <use style="fill:#d62728;stroke:#ffffff;stroke-linejoin:miter;stroke-width:0.75;" x="137.345867" xlink:href="#mcb202cafeb" y="106.679051"/>
     <use style="fill:#d62728;stroke:#ffffff;stroke-linejoin:miter;stroke-width:0.75;" x="140.9135" xlink:href="#mcb202cafeb" y="107.995134"/>
     <use style="fill:#d62728;stroke:#ffffff;stroke-linejoin:miter;stroke-width:0.75;" x="144.481132" xlink:href="#mcb202cafeb" y="105.362968"/>
     <use style="fill:#d62728;stroke:#ffffff;stroke-linejoin:miter;stroke-width:0.75;" x="148.048764" xlink:href="#mcb202cafeb" y="104.286172"/>
     <use style="fill:#d62728;stroke:#ffffff;stroke-linejoin:miter;stroke-width:0.75;" x="151.616397" xlink:href="#mcb202cafeb" y="100.577211"/>
     <use style="fill:#d62728;stroke:#ffffff;stroke-linejoin:miter;stroke-width:0.75;" x="155.184029" xlink:href="#mcb202cafeb" y="98.423621"/>
     <use style="fill:#d62728;stroke:#ffffff;stroke-linejoin:miter;stroke-width:0.75;" x="158.751661" xlink:href="#mcb202cafeb" y="98.303977"/>
     <use style="fill:#d62728;stroke:#ffffff;stroke-linejoin:miter;stroke-width:0.75;" x="162.319294" xlink:href="#mcb202cafeb" y="96.987894"/>
     <use style="fill:#d62728;stroke:#ffffff;stroke-linejoin:miter;stroke-width:0.75;" x="165.886926" xlink:href="#mcb202cafeb" y="95.073591"/>
     <use style="fill:#d62728;stroke:#ffffff;stroke-linejoin:miter;stroke-width:0.75;" x="169.454559" xlink:href="#mcb202cafeb" y="93.039644"/>
     <use style="fill:#d62728;stroke:#ffffff;stroke-linejoin:miter;stroke-width:0.75;" x="173.022191" xlink:href="#mcb202cafeb" y="92.800356"/>
     <use style="fill:#d62728;stroke:#ffffff;stroke-linejoin:miter;stroke-width:0.75;" x="176.589823" xlink:href="#mcb202cafeb" y="92.800356"/>
     <use style="fill:#d62728;stroke:#ffffff;stroke-linejoin:miter;stroke-width:0.75;" x="180.157456" xlink:href="#mcb202cafeb" y="92.561069"/>
     <use style="fill:#d62728;stroke:#ffffff;stroke-linejoin:miter;stroke-width:0.75;" x="183.725088" xlink:href="#mcb202cafeb" y="88.253888"/>
     <use style="fill:#d62728;stroke:#ffffff;stroke-linejoin:miter;stroke-width:0.75;" x="187.29272" xlink:href="#mcb202cafeb" y="88.253888"/>
     <use style="fill:#d62728;stroke:#ffffff;stroke-linejoin:miter;stroke-width:0.75;" x="190.860353" xlink:href="#mcb202cafeb" y="88.134244"/>
     <use style="fill:#d62728;stroke:#ffffff;stroke-linejoin:miter;stroke-width:0.75;" x="194.427985" xlink:href="#mcb202cafeb" y="88.134244"/>
     <use style="fill:#d62728;stroke:#ffffff;stroke-linejoin:miter;stroke-width:0.75;" x="197.995618" xlink:href="#mcb202cafeb" y="84.903858"/>
     <use style="fill:#d62728;stroke:#ffffff;stroke-linejoin:miter;stroke-width:0.75;" x="201.56325" xlink:href="#mcb202cafeb" y="84.185994"/>
     <use style="fill:#d62728;stroke:#ffffff;stroke-linejoin:miter;stroke-width:0.75;" x="205.130882" xlink:href="#mcb202cafeb" y="84.066351"/>
     <use style="fill:#d62728;stroke:#ffffff;stroke-linejoin:miter;stroke-width:0.75;" x="208.698515" xlink:href="#mcb202cafeb" y="82.51098"/>
     <use style="fill:#d62728;stroke:#ffffff;stroke-linejoin:miter;stroke-width:0.75;" x="212.266147" xlink:href="#mcb202cafeb" y="82.51098"/>
     <use style="fill:#d62728;stroke:#ffffff;stroke-linejoin:miter;stroke-width:0.75;" x="215.833779" xlink:href="#mcb202cafeb" y="81.553828"/>
     <use style="fill:#d62728;stroke:#ffffff;stroke-linejoin:miter;stroke-width:0.75;" x="219.401412" xlink:href="#mcb202cafeb" y="81.075253"/>
     <use style="fill:#d62728;stroke:#ffffff;stroke-linejoin:miter;stroke-width:0.75;" x="222.969044" xlink:href="#mcb202cafeb" y="79.878813"/>
     <use style="fill:#d62728;stroke:#ffffff;stroke-linejoin:miter;stroke-width:0.75;" x="226.536676" xlink:href="#mcb202cafeb" y="77.844867"/>
     <use style="fill:#d62728;stroke:#ffffff;stroke-linejoin:miter;stroke-width:0.75;" x="230.104309" xlink:href="#mcb202cafeb" y="76.169852"/>
     <use style="fill:#d62728;stroke:#ffffff;stroke-linejoin:miter;stroke-width:0.75;" x="233.671941" xlink:href="#mcb202cafeb" y="76.169852"/>
     <use style="fill:#d62728;stroke:#ffffff;stroke-linejoin:miter;stroke-width:0.75;" x="237.239574" xlink:href="#mcb202cafeb" y="73.178754"/>
     <use style="fill:#d62728;stroke:#ffffff;stroke-linejoin:miter;stroke-width:0.75;" x="240.807206" xlink:href="#mcb202cafeb" y="73.178754"/>
     <use style="fill:#d62728;stroke:#ffffff;stroke-linejoin:miter;stroke-width:0.75;" x="244.374838" xlink:href="#mcb202cafeb" y="72.221603"/>
     <use style="fill:#d62728;stroke:#ffffff;stroke-linejoin:miter;stroke-width:0.75;" x="247.942471" xlink:href="#mcb202cafeb" y="70.187656"/>
     <use style="fill:#d62728;stroke:#ffffff;stroke-linejoin:miter;stroke-width:0.75;" x="251.510103" xlink:href="#mcb202cafeb" y="72.221603"/>
     <use style="fill:#d62728;stroke:#ffffff;stroke-linejoin:miter;stroke-width:0.75;" x="255.077735" xlink:href="#mcb202cafeb" y="68.871573"/>
     <use style="fill:#d62728;stroke:#ffffff;stroke-linejoin:miter;stroke-width:0.75;" x="258.645368" xlink:href="#mcb202cafeb" y="68.871573"/>
     <use style="fill:#d62728;stroke:#ffffff;stroke-linejoin:miter;stroke-width:0.75;" x="262.213" xlink:href="#mcb202cafeb" y="72.221603"/>
     <use style="fill:#d62728;stroke:#ffffff;stroke-linejoin:miter;stroke-width:0.75;" x="265.780632" xlink:href="#mcb202cafeb" y="66.837626"/>
     <use style="fill:#d62728;stroke:#ffffff;stroke-linejoin:miter;stroke-width:0.75;" x="269.348265" xlink:href="#mcb202cafeb" y="66.717983"/>
     <use style="fill:#d62728;stroke:#ffffff;stroke-linejoin:miter;stroke-width:0.75;" x="272.915897" xlink:href="#mcb202cafeb" y="71.982315"/>
     <use style="fill:#d62728;stroke:#ffffff;stroke-linejoin:miter;stroke-width:0.75;" x="276.48353" xlink:href="#mcb202cafeb" y="66.717983"/>
     <use style="fill:#d62728;stroke:#ffffff;stroke-linejoin:miter;stroke-width:0.75;" x="280.051162" xlink:href="#mcb202cafeb" y="66.717983"/>
     <use style="fill:#d62728;stroke:#ffffff;stroke-linejoin:miter;stroke-width:0.75;" x="283.618794" xlink:href="#mcb202cafeb" y="67.914422"/>
     <use style="fill:#d62728;stroke:#ffffff;stroke-linejoin:miter;stroke-width:0.75;" x="287.186427" xlink:href="#mcb202cafeb" y="63.966172"/>
     <use style="fill:#d62728;stroke:#ffffff;stroke-linejoin:miter;stroke-width:0.75;" x="290.754059" xlink:href="#mcb202cafeb" y="67.435846"/>
     <use style="fill:#d62728;stroke:#ffffff;stroke-linejoin:miter;stroke-width:0.75;" x="294.321691" xlink:href="#mcb202cafeb" y="63.367953"/>
     <use style="fill:#d62728;stroke:#ffffff;stroke-linejoin:miter;stroke-width:0.75;" x="297.889324" xlink:href="#mcb202cafeb" y="63.128665"/>
     <use style="fill:#d62728;stroke:#ffffff;stroke-linejoin:miter;stroke-width:0.75;" x="301.456956" xlink:href="#mcb202cafeb" y="62.291158"/>
     <use style="fill:#d62728;stroke:#ffffff;stroke-linejoin:miter;stroke-width:0.75;" x="305.024589" xlink:href="#mcb202cafeb" y="62.291158"/>
     <use style="fill:#d62728;stroke:#ffffff;stroke-linejoin:miter;stroke-width:0.75;" x="308.592221" xlink:href="#mcb202cafeb" y="66.95727"/>
     <use style="fill:#d62728;stroke:#ffffff;stroke-linejoin:miter;stroke-width:0.75;" x="312.159853" xlink:href="#mcb202cafeb" y="61.45365"/>
     <use style="fill:#d62728;stroke:#ffffff;stroke-linejoin:miter;stroke-width:0.75;" x="315.727486" xlink:href="#mcb202cafeb" y="61.334006"/>
     <use style="fill:#d62728;stroke:#ffffff;stroke-linejoin:miter;stroke-width:0.75;" x="319.295118" xlink:href="#mcb202cafeb" y="61.334006"/>
     <use style="fill:#d62728;stroke:#ffffff;stroke-linejoin:miter;stroke-width:0.75;" x="322.86275" xlink:href="#mcb202cafeb" y="57.983977"/>
     <use style="fill:#d62728;stroke:#ffffff;stroke-linejoin:miter;stroke-width:0.75;" x="326.430383" xlink:href="#mcb202cafeb" y="55.232167"/>
     <use style="fill:#d62728;stroke:#ffffff;stroke-linejoin:miter;stroke-width:0.75;" x="329.998015" xlink:href="#mcb202cafeb" y="54.753591"/>
     <use style="fill:#d62728;stroke:#ffffff;stroke-linejoin:miter;stroke-width:0.75;" x="333.565647" xlink:href="#mcb202cafeb" y="54.275015"/>
     <use style="fill:#d62728;stroke:#ffffff;stroke-linejoin:miter;stroke-width:0.75;" x="337.13328" xlink:href="#mcb202cafeb" y="53.916083"/>
     <use style="fill:#d62728;stroke:#ffffff;stroke-linejoin:miter;stroke-width:0.75;" x="340.700912" xlink:href="#mcb202cafeb" y="52.839288"/>
     <use style="fill:#d62728;stroke:#ffffff;stroke-linejoin:miter;stroke-width:0.75;" x="344.268545" xlink:href="#mcb202cafeb" y="50.924986"/>
     <use style="fill:#d62728;stroke:#ffffff;stroke-linejoin:miter;stroke-width:0.75;" x="347.836177" xlink:href="#mcb202cafeb" y="49.967834"/>
     <use style="fill:#d62728;stroke:#ffffff;stroke-linejoin:miter;stroke-width:0.75;" x="351.403809" xlink:href="#mcb202cafeb" y="50.207122"/>
     <use style="fill:#d62728;stroke:#ffffff;stroke-linejoin:miter;stroke-width:0.75;" x="354.971442" xlink:href="#mcb202cafeb" y="49.249971"/>
     <use style="fill:#d62728;stroke:#ffffff;stroke-linejoin:miter;stroke-width:0.75;" x="358.539074" xlink:href="#mcb202cafeb" y="48.292819"/>
     <use style="fill:#d62728;stroke:#ffffff;stroke-linejoin:miter;stroke-width:0.75;" x="362.106706" xlink:href="#mcb202cafeb" y="48.292819"/>
     <use style="fill:#d62728;stroke:#ffffff;stroke-linejoin:miter;stroke-width:0.75;" x="365.674339" xlink:href="#mcb202cafeb" y="47.6946"/>
     <use style="fill:#d62728;stroke:#ffffff;stroke-linejoin:miter;stroke-width:0.75;" x="369.241971" xlink:href="#mcb202cafeb" y="47.216024"/>
     <use style="fill:#d62728;stroke:#ffffff;stroke-linejoin:miter;stroke-width:0.75;" x="372.809604" xlink:href="#mcb202cafeb" y="46.378517"/>
     <use style="fill:#d62728;stroke:#ffffff;stroke-linejoin:miter;stroke-width:0.75;" x="376.377236" xlink:href="#mcb202cafeb" y="46.139229"/>
     <use style="fill:#d62728;stroke:#ffffff;stroke-linejoin:miter;stroke-width:0.75;" x="379.944868" xlink:href="#mcb202cafeb" y="44.583858"/>
     <use style="fill:#d62728;stroke:#ffffff;stroke-linejoin:miter;stroke-width:0.75;" x="383.512501" xlink:href="#mcb202cafeb" y="44.583858"/>
     <use style="fill:#d62728;stroke:#ffffff;stroke-linejoin:miter;stroke-width:0.75;" x="387.080133" xlink:href="#mcb202cafeb" y="44.583858"/>
     <use style="fill:#d62728;stroke:#ffffff;stroke-linejoin:miter;stroke-width:0.75;" x="390.647765" xlink:href="#mcb202cafeb" y="43.028487"/>
     <use style="fill:#d62728;stroke:#ffffff;stroke-linejoin:miter;stroke-width:0.75;" x="394.215398" xlink:href="#mcb202cafeb" y="41.353472"/>
    </g>
   </g>
   <g id="line2d_15">
    <path clip-path="url(#p12737bafcf)" d="M 69.560852 264.609021 
L 73.128485 257.430386 
L 76.696117 249.055312 
L 80.263749 247.380297 
L 83.831382 247.141009 
L 87.399014 246.662434 
L 90.966646 245.94457 
L 94.534279 243.073116 
L 98.101911 242.833828 
L 101.669544 231.108724 
L 105.237176 231.108724 
L 108.804808 228.476558 
L 112.372441 220.58006 
L 115.940073 220.58006 
L 119.507705 219.144333 
L 123.075338 213.640713 
L 126.64297 213.640713 
L 130.210603 209.812107 
L 133.778235 201.676321 
L 137.345867 200.001306 
L 140.9135 195.215549 
L 144.481132 192.822671 
L 148.048764 192.822671 
L 151.616397 190.190505 
L 155.184029 190.190505 
L 158.751661 190.190505 
L 162.319294 188.276202 
L 165.886926 186.361899 
L 169.454559 186.361899 
L 173.022191 183.01187 
L 176.589823 183.01187 
L 180.157456 183.01187 
L 183.725088 180.140416 
L 187.29272 178.943977 
L 190.860353 175.833235 
L 194.427985 175.833235 
L 197.995618 175.354659 
L 201.56325 175.354659 
L 205.130882 172.961781 
L 208.698515 172.483205 
L 212.266147 171.286766 
L 215.833779 171.286766 
L 219.401412 171.047478 
L 222.969044 170.090327 
L 226.536676 169.372463 
L 230.104309 167.697448 
L 233.671941 167.458161 
L 237.239574 167.458161 
L 240.807206 166.979585 
L 244.374838 166.501009 
L 247.942471 166.261721 
L 251.510103 165.783146 
L 255.077735 165.783146 
L 258.645368 165.783146 
L 262.213 165.783146 
L 265.780632 165.783146 
L 269.348265 165.783146 
L 272.915897 165.783146 
L 276.48353 164.108131 
L 280.051162 163.15098 
L 283.618794 162.911692 
L 287.186427 162.672404 
L 290.754059 162.672404 
L 294.321691 160.997389 
L 297.889324 160.997389 
L 301.456956 160.279526 
L 305.024589 160.279526 
L 308.592221 160.279526 
L 312.159853 160.279526 
L 315.727486 160.279526 
L 319.295118 157.408072 
L 322.86275 156.929496 
L 326.430383 159.920594 
L 329.998015 149.990149 
L 333.565647 149.990149 
L 337.13328 153.100891 
L 340.700912 147.59727 
L 344.268545 151.904451 
L 347.836177 151.784807 
L 351.403809 146.400831 
L 354.971442 144.486529 
L 358.539074 144.247241 
L 362.106706 142.572226 
L 365.674339 142.572226 
L 369.241971 141.615075 
L 372.809604 148.075846 
L 376.377236 155.254481 
L 379.944868 155.015193 
L 383.512501 155.015193 
L 387.080133 155.015193 
L 390.647765 154.536618 
L 394.215398 146.520475 
" style="fill:none;stroke:#98df8a;stroke-linecap:square;stroke-width:1.5;"/>
    <defs>
     <path d="M -0 3 
L 3 -3 
L -3 -3 
z
" id="ma01208dfe5" style="stroke:#ffffff;stroke-linejoin:miter;stroke-width:0.75;"/>
    </defs>
    <g clip-path="url(#p12737bafcf)">
     <use style="fill:#98df8a;stroke:#ffffff;stroke-linejoin:miter;stroke-width:0.75;" x="69.560852" xlink:href="#ma01208dfe5" y="264.609021"/>
     <use style="fill:#98df8a;stroke:#ffffff;stroke-linejoin:miter;stroke-width:0.75;" x="73.128485" xlink:href="#ma01208dfe5" y="257.430386"/>
     <use style="fill:#98df8a;stroke:#ffffff;stroke-linejoin:miter;stroke-width:0.75;" x="76.696117" xlink:href="#ma01208dfe5" y="249.055312"/>
     <use style="fill:#98df8a;stroke:#ffffff;stroke-linejoin:miter;stroke-width:0.75;" x="80.263749" xlink:href="#ma01208dfe5" y="247.380297"/>
     <use style="fill:#98df8a;stroke:#ffffff;stroke-linejoin:miter;stroke-width:0.75;" x="83.831382" xlink:href="#ma01208dfe5" y="247.141009"/>
     <use style="fill:#98df8a;stroke:#ffffff;stroke-linejoin:miter;stroke-width:0.75;" x="87.399014" xlink:href="#ma01208dfe5" y="246.662434"/>
     <use style="fill:#98df8a;stroke:#ffffff;stroke-linejoin:miter;stroke-width:0.75;" x="90.966646" xlink:href="#ma01208dfe5" y="245.94457"/>
     <use style="fill:#98df8a;stroke:#ffffff;stroke-linejoin:miter;stroke-width:0.75;" x="94.534279" xlink:href="#ma01208dfe5" y="243.073116"/>
     <use style="fill:#98df8a;stroke:#ffffff;stroke-linejoin:miter;stroke-width:0.75;" x="98.101911" xlink:href="#ma01208dfe5" y="242.833828"/>
     <use style="fill:#98df8a;stroke:#ffffff;stroke-linejoin:miter;stroke-width:0.75;" x="101.669544" xlink:href="#ma01208dfe5" y="231.108724"/>
     <use style="fill:#98df8a;stroke:#ffffff;stroke-linejoin:miter;stroke-width:0.75;" x="105.237176" xlink:href="#ma01208dfe5" y="231.108724"/>
     <use style="fill:#98df8a;stroke:#ffffff;stroke-linejoin:miter;stroke-width:0.75;" x="108.804808" xlink:href="#ma01208dfe5" y="228.476558"/>
     <use style="fill:#98df8a;stroke:#ffffff;stroke-linejoin:miter;stroke-width:0.75;" x="112.372441" xlink:href="#ma01208dfe5" y="220.58006"/>
     <use style="fill:#98df8a;stroke:#ffffff;stroke-linejoin:miter;stroke-width:0.75;" x="115.940073" xlink:href="#ma01208dfe5" y="220.58006"/>
     <use style="fill:#98df8a;stroke:#ffffff;stroke-linejoin:miter;stroke-width:0.75;" x="119.507705" xlink:href="#ma01208dfe5" y="219.144333"/>
     <use style="fill:#98df8a;stroke:#ffffff;stroke-linejoin:miter;stroke-width:0.75;" x="123.075338" xlink:href="#ma01208dfe5" y="213.640713"/>
     <use style="fill:#98df8a;stroke:#ffffff;stroke-linejoin:miter;stroke-width:0.75;" x="126.64297" xlink:href="#ma01208dfe5" y="213.640713"/>
     <use style="fill:#98df8a;stroke:#ffffff;stroke-linejoin:miter;stroke-width:0.75;" x="130.210603" xlink:href="#ma01208dfe5" y="209.812107"/>
     <use style="fill:#98df8a;stroke:#ffffff;stroke-linejoin:miter;stroke-width:0.75;" x="133.778235" xlink:href="#ma01208dfe5" y="201.676321"/>
     <use style="fill:#98df8a;stroke:#ffffff;stroke-linejoin:miter;stroke-width:0.75;" x="137.345867" xlink:href="#ma01208dfe5" y="200.001306"/>
     <use style="fill:#98df8a;stroke:#ffffff;stroke-linejoin:miter;stroke-width:0.75;" x="140.9135" xlink:href="#ma01208dfe5" y="195.215549"/>
     <use style="fill:#98df8a;stroke:#ffffff;stroke-linejoin:miter;stroke-width:0.75;" x="144.481132" xlink:href="#ma01208dfe5" y="192.822671"/>
     <use style="fill:#98df8a;stroke:#ffffff;stroke-linejoin:miter;stroke-width:0.75;" x="148.048764" xlink:href="#ma01208dfe5" y="192.822671"/>
     <use style="fill:#98df8a;stroke:#ffffff;stroke-linejoin:miter;stroke-width:0.75;" x="151.616397" xlink:href="#ma01208dfe5" y="190.190505"/>
     <use style="fill:#98df8a;stroke:#ffffff;stroke-linejoin:miter;stroke-width:0.75;" x="155.184029" xlink:href="#ma01208dfe5" y="190.190505"/>
     <use style="fill:#98df8a;stroke:#ffffff;stroke-linejoin:miter;stroke-width:0.75;" x="158.751661" xlink:href="#ma01208dfe5" y="190.190505"/>
     <use style="fill:#98df8a;stroke:#ffffff;stroke-linejoin:miter;stroke-width:0.75;" x="162.319294" xlink:href="#ma01208dfe5" y="188.276202"/>
     <use style="fill:#98df8a;stroke:#ffffff;stroke-linejoin:miter;stroke-width:0.75;" x="165.886926" xlink:href="#ma01208dfe5" y="186.361899"/>
     <use style="fill:#98df8a;stroke:#ffffff;stroke-linejoin:miter;stroke-width:0.75;" x="169.454559" xlink:href="#ma01208dfe5" y="186.361899"/>
     <use style="fill:#98df8a;stroke:#ffffff;stroke-linejoin:miter;stroke-width:0.75;" x="173.022191" xlink:href="#ma01208dfe5" y="183.01187"/>
     <use style="fill:#98df8a;stroke:#ffffff;stroke-linejoin:miter;stroke-width:0.75;" x="176.589823" xlink:href="#ma01208dfe5" y="183.01187"/>
     <use style="fill:#98df8a;stroke:#ffffff;stroke-linejoin:miter;stroke-width:0.75;" x="180.157456" xlink:href="#ma01208dfe5" y="183.01187"/>
     <use style="fill:#98df8a;stroke:#ffffff;stroke-linejoin:miter;stroke-width:0.75;" x="183.725088" xlink:href="#ma01208dfe5" y="180.140416"/>
     <use style="fill:#98df8a;stroke:#ffffff;stroke-linejoin:miter;stroke-width:0.75;" x="187.29272" xlink:href="#ma01208dfe5" y="178.943977"/>
     <use style="fill:#98df8a;stroke:#ffffff;stroke-linejoin:miter;stroke-width:0.75;" x="190.860353" xlink:href="#ma01208dfe5" y="175.833235"/>
     <use style="fill:#98df8a;stroke:#ffffff;stroke-linejoin:miter;stroke-width:0.75;" x="194.427985" xlink:href="#ma01208dfe5" y="175.833235"/>
     <use style="fill:#98df8a;stroke:#ffffff;stroke-linejoin:miter;stroke-width:0.75;" x="197.995618" xlink:href="#ma01208dfe5" y="175.354659"/>
     <use style="fill:#98df8a;stroke:#ffffff;stroke-linejoin:miter;stroke-width:0.75;" x="201.56325" xlink:href="#ma01208dfe5" y="175.354659"/>
     <use style="fill:#98df8a;stroke:#ffffff;stroke-linejoin:miter;stroke-width:0.75;" x="205.130882" xlink:href="#ma01208dfe5" y="172.961781"/>
     <use style="fill:#98df8a;stroke:#ffffff;stroke-linejoin:miter;stroke-width:0.75;" x="208.698515" xlink:href="#ma01208dfe5" y="172.483205"/>
     <use style="fill:#98df8a;stroke:#ffffff;stroke-linejoin:miter;stroke-width:0.75;" x="212.266147" xlink:href="#ma01208dfe5" y="171.286766"/>
     <use style="fill:#98df8a;stroke:#ffffff;stroke-linejoin:miter;stroke-width:0.75;" x="215.833779" xlink:href="#ma01208dfe5" y="171.286766"/>
     <use style="fill:#98df8a;stroke:#ffffff;stroke-linejoin:miter;stroke-width:0.75;" x="219.401412" xlink:href="#ma01208dfe5" y="171.047478"/>
     <use style="fill:#98df8a;stroke:#ffffff;stroke-linejoin:miter;stroke-width:0.75;" x="222.969044" xlink:href="#ma01208dfe5" y="170.090327"/>
     <use style="fill:#98df8a;stroke:#ffffff;stroke-linejoin:miter;stroke-width:0.75;" x="226.536676" xlink:href="#ma01208dfe5" y="169.372463"/>
     <use style="fill:#98df8a;stroke:#ffffff;stroke-linejoin:miter;stroke-width:0.75;" x="230.104309" xlink:href="#ma01208dfe5" y="167.697448"/>
     <use style="fill:#98df8a;stroke:#ffffff;stroke-linejoin:miter;stroke-width:0.75;" x="233.671941" xlink:href="#ma01208dfe5" y="167.458161"/>
     <use style="fill:#98df8a;stroke:#ffffff;stroke-linejoin:miter;stroke-width:0.75;" x="237.239574" xlink:href="#ma01208dfe5" y="167.458161"/>
     <use style="fill:#98df8a;stroke:#ffffff;stroke-linejoin:miter;stroke-width:0.75;" x="240.807206" xlink:href="#ma01208dfe5" y="166.979585"/>
     <use style="fill:#98df8a;stroke:#ffffff;stroke-linejoin:miter;stroke-width:0.75;" x="244.374838" xlink:href="#ma01208dfe5" y="166.501009"/>
     <use style="fill:#98df8a;stroke:#ffffff;stroke-linejoin:miter;stroke-width:0.75;" x="247.942471" xlink:href="#ma01208dfe5" y="166.261721"/>
     <use style="fill:#98df8a;stroke:#ffffff;stroke-linejoin:miter;stroke-width:0.75;" x="251.510103" xlink:href="#ma01208dfe5" y="165.783146"/>
     <use style="fill:#98df8a;stroke:#ffffff;stroke-linejoin:miter;stroke-width:0.75;" x="255.077735" xlink:href="#ma01208dfe5" y="165.783146"/>
     <use style="fill:#98df8a;stroke:#ffffff;stroke-linejoin:miter;stroke-width:0.75;" x="258.645368" xlink:href="#ma01208dfe5" y="165.783146"/>
     <use style="fill:#98df8a;stroke:#ffffff;stroke-linejoin:miter;stroke-width:0.75;" x="262.213" xlink:href="#ma01208dfe5" y="165.783146"/>
     <use style="fill:#98df8a;stroke:#ffffff;stroke-linejoin:miter;stroke-width:0.75;" x="265.780632" xlink:href="#ma01208dfe5" y="165.783146"/>
     <use style="fill:#98df8a;stroke:#ffffff;stroke-linejoin:miter;stroke-width:0.75;" x="269.348265" xlink:href="#ma01208dfe5" y="165.783146"/>
     <use style="fill:#98df8a;stroke:#ffffff;stroke-linejoin:miter;stroke-width:0.75;" x="272.915897" xlink:href="#ma01208dfe5" y="165.783146"/>
     <use style="fill:#98df8a;stroke:#ffffff;stroke-linejoin:miter;stroke-width:0.75;" x="276.48353" xlink:href="#ma01208dfe5" y="164.108131"/>
     <use style="fill:#98df8a;stroke:#ffffff;stroke-linejoin:miter;stroke-width:0.75;" x="280.051162" xlink:href="#ma01208dfe5" y="163.15098"/>
     <use style="fill:#98df8a;stroke:#ffffff;stroke-linejoin:miter;stroke-width:0.75;" x="283.618794" xlink:href="#ma01208dfe5" y="162.911692"/>
     <use style="fill:#98df8a;stroke:#ffffff;stroke-linejoin:miter;stroke-width:0.75;" x="287.186427" xlink:href="#ma01208dfe5" y="162.672404"/>
     <use style="fill:#98df8a;stroke:#ffffff;stroke-linejoin:miter;stroke-width:0.75;" x="290.754059" xlink:href="#ma01208dfe5" y="162.672404"/>
     <use style="fill:#98df8a;stroke:#ffffff;stroke-linejoin:miter;stroke-width:0.75;" x="294.321691" xlink:href="#ma01208dfe5" y="160.997389"/>
     <use style="fill:#98df8a;stroke:#ffffff;stroke-linejoin:miter;stroke-width:0.75;" x="297.889324" xlink:href="#ma01208dfe5" y="160.997389"/>
     <use style="fill:#98df8a;stroke:#ffffff;stroke-linejoin:miter;stroke-width:0.75;" x="301.456956" xlink:href="#ma01208dfe5" y="160.279526"/>
     <use style="fill:#98df8a;stroke:#ffffff;stroke-linejoin:miter;stroke-width:0.75;" x="305.024589" xlink:href="#ma01208dfe5" y="160.279526"/>
     <use style="fill:#98df8a;stroke:#ffffff;stroke-linejoin:miter;stroke-width:0.75;" x="308.592221" xlink:href="#ma01208dfe5" y="160.279526"/>
     <use style="fill:#98df8a;stroke:#ffffff;stroke-linejoin:miter;stroke-width:0.75;" x="312.159853" xlink:href="#ma01208dfe5" y="160.279526"/>
     <use style="fill:#98df8a;stroke:#ffffff;stroke-linejoin:miter;stroke-width:0.75;" x="315.727486" xlink:href="#ma01208dfe5" y="160.279526"/>
     <use style="fill:#98df8a;stroke:#ffffff;stroke-linejoin:miter;stroke-width:0.75;" x="319.295118" xlink:href="#ma01208dfe5" y="157.408072"/>
     <use style="fill:#98df8a;stroke:#ffffff;stroke-linejoin:miter;stroke-width:0.75;" x="322.86275" xlink:href="#ma01208dfe5" y="156.929496"/>
     <use style="fill:#98df8a;stroke:#ffffff;stroke-linejoin:miter;stroke-width:0.75;" x="326.430383" xlink:href="#ma01208dfe5" y="159.920594"/>
     <use style="fill:#98df8a;stroke:#ffffff;stroke-linejoin:miter;stroke-width:0.75;" x="329.998015" xlink:href="#ma01208dfe5" y="149.990149"/>
     <use style="fill:#98df8a;stroke:#ffffff;stroke-linejoin:miter;stroke-width:0.75;" x="333.565647" xlink:href="#ma01208dfe5" y="149.990149"/>
     <use style="fill:#98df8a;stroke:#ffffff;stroke-linejoin:miter;stroke-width:0.75;" x="337.13328" xlink:href="#ma01208dfe5" y="153.100891"/>
     <use style="fill:#98df8a;stroke:#ffffff;stroke-linejoin:miter;stroke-width:0.75;" x="340.700912" xlink:href="#ma01208dfe5" y="147.59727"/>
     <use style="fill:#98df8a;stroke:#ffffff;stroke-linejoin:miter;stroke-width:0.75;" x="344.268545" xlink:href="#ma01208dfe5" y="151.904451"/>
     <use style="fill:#98df8a;stroke:#ffffff;stroke-linejoin:miter;stroke-width:0.75;" x="347.836177" xlink:href="#ma01208dfe5" y="151.784807"/>
     <use style="fill:#98df8a;stroke:#ffffff;stroke-linejoin:miter;stroke-width:0.75;" x="351.403809" xlink:href="#ma01208dfe5" y="146.400831"/>
     <use style="fill:#98df8a;stroke:#ffffff;stroke-linejoin:miter;stroke-width:0.75;" x="354.971442" xlink:href="#ma01208dfe5" y="144.486529"/>
     <use style="fill:#98df8a;stroke:#ffffff;stroke-linejoin:miter;stroke-width:0.75;" x="358.539074" xlink:href="#ma01208dfe5" y="144.247241"/>
     <use style="fill:#98df8a;stroke:#ffffff;stroke-linejoin:miter;stroke-width:0.75;" x="362.106706" xlink:href="#ma01208dfe5" y="142.572226"/>
     <use style="fill:#98df8a;stroke:#ffffff;stroke-linejoin:miter;stroke-width:0.75;" x="365.674339" xlink:href="#ma01208dfe5" y="142.572226"/>
     <use style="fill:#98df8a;stroke:#ffffff;stroke-linejoin:miter;stroke-width:0.75;" x="369.241971" xlink:href="#ma01208dfe5" y="141.615075"/>
     <use style="fill:#98df8a;stroke:#ffffff;stroke-linejoin:miter;stroke-width:0.75;" x="372.809604" xlink:href="#ma01208dfe5" y="148.075846"/>
     <use style="fill:#98df8a;stroke:#ffffff;stroke-linejoin:miter;stroke-width:0.75;" x="376.377236" xlink:href="#ma01208dfe5" y="155.254481"/>
     <use style="fill:#98df8a;stroke:#ffffff;stroke-linejoin:miter;stroke-width:0.75;" x="379.944868" xlink:href="#ma01208dfe5" y="155.015193"/>
     <use style="fill:#98df8a;stroke:#ffffff;stroke-linejoin:miter;stroke-width:0.75;" x="383.512501" xlink:href="#ma01208dfe5" y="155.015193"/>
     <use style="fill:#98df8a;stroke:#ffffff;stroke-linejoin:miter;stroke-width:0.75;" x="387.080133" xlink:href="#ma01208dfe5" y="155.015193"/>
     <use style="fill:#98df8a;stroke:#ffffff;stroke-linejoin:miter;stroke-width:0.75;" x="390.647765" xlink:href="#ma01208dfe5" y="154.536618"/>
     <use style="fill:#98df8a;stroke:#ffffff;stroke-linejoin:miter;stroke-width:0.75;" x="394.215398" xlink:href="#ma01208dfe5" y="146.520475"/>
    </g>
   </g>
   <g id="line2d_16"/>
   <g id="line2d_17"/>
   <g id="line2d_18"/>
   <g id="patch_3">
    <path d="M 53.328125 265.087597 
L 53.328125 25.799763 
" style="fill:none;stroke:#000000;stroke-linecap:square;stroke-linejoin:miter;stroke-width:0.8;"/>
   </g>
   <g id="patch_4">
    <path d="M 69.560852 288.430125 
L 343.079334 288.430125 
" style="fill:none;stroke:#000000;stroke-linecap:square;stroke-linejoin:miter;stroke-width:0.8;"/>
   </g>
   <g id="text_15">
    <!-- matio_matio_fuzzer (23h, 18 trials/fuzzer) -->
    <g transform="translate(106.364375 16.318125)scale(0.12 -0.12)">
     <defs>
      <path d="M 3263 -1063 
L 3263 -1509 
L -63 -1509 
L -63 -1063 
L 3263 -1063 
z
" id="DejaVuSans-5f" transform="scale(0.015625)"/>
      <path d="M 2375 4863 
L 2375 4384 
L 1825 4384 
Q 1516 4384 1395 4259 
Q 1275 4134 1275 3809 
L 1275 3500 
L 2222 3500 
L 2222 3053 
L 1275 3053 
L 1275 0 
L 697 0 
L 697 3053 
L 147 3053 
L 147 3500 
L 697 3500 
L 697 3744 
Q 697 4328 969 4595 
Q 1241 4863 1831 4863 
L 2375 4863 
z
" id="DejaVuSans-66" transform="scale(0.015625)"/>
      <path d="M 353 3500 
L 3084 3500 
L 3084 2975 
L 922 459 
L 3084 459 
L 3084 0 
L 275 0 
L 275 525 
L 2438 3041 
L 353 3041 
L 353 3500 
z
" id="DejaVuSans-7a" transform="scale(0.015625)"/>
      <path d="M 750 794 
L 1409 794 
L 1409 256 
L 897 -744 
L 494 -744 
L 750 256 
L 750 794 
z
" id="DejaVuSans-2c" transform="scale(0.015625)"/>
      <path d="M 603 4863 
L 1178 4863 
L 1178 0 
L 603 0 
L 603 4863 
z
" id="DejaVuSans-6c" transform="scale(0.015625)"/>
      <path d="M 2834 3397 
L 2834 2853 
Q 2591 2978 2328 3040 
Q 2066 3103 1784 3103 
Q 1356 3103 1142 2972 
Q 928 2841 928 2578 
Q 928 2378 1081 2264 
Q 1234 2150 1697 2047 
L 1894 2003 
Q 2506 1872 2764 1633 
Q 3022 1394 3022 966 
Q 3022 478 2636 193 
Q 2250 -91 1575 -91 
Q 1294 -91 989 -36 
Q 684 19 347 128 
L 347 722 
Q 666 556 975 473 
Q 1284 391 1588 391 
Q 1994 391 2212 530 
Q 2431 669 2431 922 
Q 2431 1156 2273 1281 
Q 2116 1406 1581 1522 
L 1381 1569 
Q 847 1681 609 1914 
Q 372 2147 372 2553 
Q 372 3047 722 3315 
Q 1072 3584 1716 3584 
Q 2034 3584 2315 3537 
Q 2597 3491 2834 3397 
z
" id="DejaVuSans-73" transform="scale(0.015625)"/>
      <path d="M 1625 4666 
L 2156 4666 
L 531 -594 
L 0 -594 
L 1625 4666 
z
" id="DejaVuSans-2f" transform="scale(0.015625)"/>
     </defs>
     <use xlink:href="#DejaVuSans-6d"/>
     <use x="97.412109" xlink:href="#DejaVuSans-61"/>
     <use x="158.691406" xlink:href="#DejaVuSans-74"/>
     <use x="197.900391" xlink:href="#DejaVuSans-69"/>
     <use x="225.683594" xlink:href="#DejaVuSans-6f"/>
     <use x="286.865234" xlink:href="#DejaVuSans-5f"/>
     <use x="336.865234" xlink:href="#DejaVuSans-6d"/>
     <use x="434.277344" xlink:href="#DejaVuSans-61"/>
     <use x="495.556641" xlink:href="#DejaVuSans-74"/>
     <use x="534.765625" xlink:href="#DejaVuSans-69"/>
     <use x="562.548828" xlink:href="#DejaVuSans-6f"/>
     <use x="623.730469" xlink:href="#DejaVuSans-5f"/>
     <use x="673.730469" xlink:href="#DejaVuSans-66"/>
     <use x="708.935547" xlink:href="#DejaVuSans-75"/>
     <use x="772.314453" xlink:href="#DejaVuSans-7a"/>
     <use x="824.804688" xlink:href="#DejaVuSans-7a"/>
     <use x="877.294922" xlink:href="#DejaVuSans-65"/>
     <use x="938.818359" xlink:href="#DejaVuSans-72"/>
     <use x="979.931641" xlink:href="#DejaVuSans-20"/>
     <use x="1011.71875" xlink:href="#DejaVuSans-28"/>
     <use x="1050.732422" xlink:href="#DejaVuSans-32"/>
     <use x="1114.355469" xlink:href="#DejaVuSans-33"/>
     <use x="1177.978516" xlink:href="#DejaVuSans-68"/>
     <use x="1241.357422" xlink:href="#DejaVuSans-2c"/>
     <use x="1273.144531" xlink:href="#DejaVuSans-20"/>
     <use x="1304.931641" xlink:href="#DejaVuSans-31"/>
     <use x="1368.554688" xlink:href="#DejaVuSans-38"/>
     <use x="1432.177734" xlink:href="#DejaVuSans-20"/>
     <use x="1463.964844" xlink:href="#DejaVuSans-74"/>
     <use x="1503.173828" xlink:href="#DejaVuSans-72"/>
     <use x="1544.287109" xlink:href="#DejaVuSans-69"/>
     <use x="1572.070312" xlink:href="#DejaVuSans-61"/>
     <use x="1633.349609" xlink:href="#DejaVuSans-6c"/>
     <use x="1661.132812" xlink:href="#DejaVuSans-73"/>
     <use x="1713.232422" xlink:href="#DejaVuSans-2f"/>
     <use x="1746.923828" xlink:href="#DejaVuSans-66"/>
     <use x="1782.128906" xlink:href="#DejaVuSans-75"/>
     <use x="1845.507812" xlink:href="#DejaVuSans-7a"/>
     <use x="1897.998047" xlink:href="#DejaVuSans-7a"/>
     <use x="1950.488281" xlink:href="#DejaVuSans-65"/>
     <use x="2012.011719" xlink:href="#DejaVuSans-72"/>
     <use x="2053.125" xlink:href="#DejaVuSans-29"/>
    </g>
   </g>
   <g id="legend_1">
    <g id="line2d_19">
     <path d="M 414.448125 30.416562 
L 434.448125 30.416562 
" style="fill:none;stroke:#1f77b4;stroke-linecap:square;stroke-width:1.5;"/>
    </g>
    <g id="line2d_20">
     <defs>
      <path d="M 0 3 
C 0.795609 3 1.55874 2.683901 2.12132 2.12132 
C 2.683901 1.55874 3 0.795609 3 0 
C 3 -0.795609 2.683901 -1.55874 2.12132 -2.12132 
C 1.55874 -2.683901 0.795609 -3 0 -3 
C -0.795609 -3 -1.55874 -2.683901 -2.12132 -2.12132 
C -2.683901 -1.55874 -3 -0.795609 -3 0 
C -3 0.795609 -2.683901 1.55874 -2.12132 2.12132 
C -1.55874 2.683901 -0.795609 3 0 3 
z
" id="m9e7dd328d0" style="stroke:#1f77b4;"/>
     </defs>
     <g>
      <use style="fill:#1f77b4;stroke:#1f77b4;" x="424.448125" xlink:href="#m9e7dd328d0" y="30.416562"/>
     </g>
    </g>
    <g id="text_16">
     <!-- afl -->
     <g transform="translate(442.448125 33.916562)scale(0.1 -0.1)">
      <use xlink:href="#DejaVuSans-61"/>
      <use x="61.279297" xlink:href="#DejaVuSans-66"/>
      <use x="96.484375" xlink:href="#DejaVuSans-6c"/>
     </g>
    </g>
    <g id="line2d_21">
     <path d="M 414.448125 45.094688 
L 434.448125 45.094688 
" style="fill:none;stroke:#d62728;stroke-linecap:square;stroke-width:1.5;"/>
    </g>
    <g id="line2d_22">
     <defs>
      <path d="M 0 -3 
L -3 3 
L 3 3 
z
" id="m09be22e04b" style="stroke:#d62728;stroke-linejoin:miter;"/>
     </defs>
     <g>
      <use style="fill:#d62728;stroke:#d62728;stroke-linejoin:miter;" x="424.448125" xlink:href="#m09be22e04b" y="45.094688"/>
     </g>
    </g>
    <g id="text_17">
     <!-- afl_scheduling_random -->
     <g transform="translate(442.448125 48.594688)scale(0.1 -0.1)">
      <use xlink:href="#DejaVuSans-61"/>
      <use x="61.279297" xlink:href="#DejaVuSans-66"/>
      <use x="96.484375" xlink:href="#DejaVuSans-6c"/>
      <use x="124.267578" xlink:href="#DejaVuSans-5f"/>
      <use x="174.267578" xlink:href="#DejaVuSans-73"/>
      <use x="226.367188" xlink:href="#DejaVuSans-63"/>
      <use x="281.347656" xlink:href="#DejaVuSans-68"/>
      <use x="344.726562" xlink:href="#DejaVuSans-65"/>
      <use x="406.25" xlink:href="#DejaVuSans-64"/>
      <use x="469.726562" xlink:href="#DejaVuSans-75"/>
      <use x="533.105469" xlink:href="#DejaVuSans-6c"/>
      <use x="560.888672" xlink:href="#DejaVuSans-69"/>
      <use x="588.671875" xlink:href="#DejaVuSans-6e"/>
      <use x="652.050781" xlink:href="#DejaVuSans-67"/>
      <use x="715.527344" xlink:href="#DejaVuSans-5f"/>
      <use x="765.527344" xlink:href="#DejaVuSans-72"/>
      <use x="806.640625" xlink:href="#DejaVuSans-61"/>
      <use x="867.919922" xlink:href="#DejaVuSans-6e"/>
      <use x="931.298828" xlink:href="#DejaVuSans-64"/>
      <use x="994.775391" xlink:href="#DejaVuSans-6f"/>
      <use x="1055.957031" xlink:href="#DejaVuSans-6d"/>
     </g>
    </g>
    <g id="line2d_23">
     <path d="M 414.448125 60.050937 
L 434.448125 60.050937 
" style="fill:none;stroke:#98df8a;stroke-linecap:square;stroke-width:1.5;"/>
    </g>
    <g id="line2d_24">
     <defs>
      <path d="M -0 3 
L 3 -3 
L -3 -3 
z
" id="m3dede7a296" style="stroke:#98df8a;stroke-linejoin:miter;"/>
     </defs>
     <g>
      <use style="fill:#98df8a;stroke:#98df8a;stroke-linejoin:miter;" x="424.448125" xlink:href="#m3dede7a296" y="60.050937"/>
     </g>
    </g>
    <g id="text_18">
     <!-- afl_scheduling_lifo -->
     <g transform="translate(442.448125 63.550937)scale(0.1 -0.1)">
      <use xlink:href="#DejaVuSans-61"/>
      <use x="61.279297" xlink:href="#DejaVuSans-66"/>
      <use x="96.484375" xlink:href="#DejaVuSans-6c"/>
      <use x="124.267578" xlink:href="#DejaVuSans-5f"/>
      <use x="174.267578" xlink:href="#DejaVuSans-73"/>
      <use x="226.367188" xlink:href="#DejaVuSans-63"/>
      <use x="281.347656" xlink:href="#DejaVuSans-68"/>
      <use x="344.726562" xlink:href="#DejaVuSans-65"/>
      <use x="406.25" xlink:href="#DejaVuSans-64"/>
      <use x="469.726562" xlink:href="#DejaVuSans-75"/>
      <use x="533.105469" xlink:href="#DejaVuSans-6c"/>
      <use x="560.888672" xlink:href="#DejaVuSans-69"/>
      <use x="588.671875" xlink:href="#DejaVuSans-6e"/>
      <use x="652.050781" xlink:href="#DejaVuSans-67"/>
      <use x="715.527344" xlink:href="#DejaVuSans-5f"/>
      <use x="765.527344" xlink:href="#DejaVuSans-6c"/>
      <use x="793.310547" xlink:href="#DejaVuSans-69"/>
      <use x="821.09375" xlink:href="#DejaVuSans-66"/>
      <use x="856.298828" xlink:href="#DejaVuSans-6f"/>
     </g>
    </g>
   </g>
  </g>
 </g>
 <defs>
  <clipPath id="p12737bafcf">
   <rect height="266.112" width="357.12" x="53.328125" y="22.318125"/>
  </clipPath>
 </defs>
</svg>
