<?xml version="1.0" encoding="utf-8" standalone="no"?>
<!DOCTYPE svg PUBLIC "-//W3C//DTD SVG 1.1//EN"
  "http://www.w3.org/Graphics/SVG/1.1/DTD/svg11.dtd">
<svg height="325.986375pt" version="1.1" viewBox="0 0 575.348125 325.986375" width="575.348125pt" xmlns="http://www.w3.org/2000/svg" xmlns:xlink="http://www.w3.org/1999/xlink">
 <metadata>
  <rdf:RDF xmlns:cc="http://creativecommons.org/ns#" xmlns:dc="http://purl.org/dc/elements/1.1/" xmlns:rdf="http://www.w3.org/1999/02/22-rdf-syntax-ns#">
   <cc:Work>
    <dc:type rdf:resource="http://purl.org/dc/dcmitype/StillImage"/>
    <dc:date>2022-05-31T14:23:16.617563</dc:date>
    <dc:format>image/svg+xml</dc:format>
    <dc:creator>
     <cc:Agent>
      <dc:title>Matplotlib v3.4.3, https://matplotlib.org/</dc:title>
     </cc:Agent>
    </dc:creator>
   </cc:Work>
  </rdf:RDF>
 </metadata>
 <defs>
  <style type="text/css">*{stroke-linecap:butt;stroke-linejoin:round;}</style>
 </defs>
 <g id="figure_1">
  <g id="patch_1">
   <path d="M 0 325.986375 
L 575.348125 325.986375 
L 575.348125 0 
L 0 0 
z
" style="fill:#ffffff;"/>
  </g>
  <g id="axes_1">
   <g id="patch_2">
    <path d="M 59.690625 288.430125 
L 416.810625 288.430125 
L 416.810625 22.318125 
L 59.690625 22.318125 
z
" style="fill:#ffffff;"/>
   </g>
   <g id="PolyCollection_1">
    <defs>
     <path d="M 75.923352 -55.150571 
L 75.923352 -51.819666 
L 125.689806 -62.50864 
L 154.801316 -74.387822 
L 175.45626 -89.045938 
L 191.47748 -103.520829 
L 204.567769 -110.300208 
L 215.635452 -111.704944 
L 225.222714 -113.995274 
L 233.679279 -115.125171 
L 241.243934 -115.552699 
L 248.086996 -114.758718 
L 254.334223 -117.751417 
L 260.081115 -126.6379 
L 265.401906 -131.157486 
L 270.355443 -134.028034 
L 274.989168 -138.27278 
L 279.341883 -141.234941 
L 283.445733 -145.113235 
L 287.327641 -153.114123 
L 291.010388 -157.633709 
L 294.513415 -160.382106 
L 297.85345 -167.344711 
L 301.04499 -170.852735 
L 304.100677 -176.200657 
L 307.031607 -181.330998 
L 309.847569 -185.056602 
L 312.557242 -185.484131 
L 315.168359 -188.110377 
L 317.68784 -192.874265 
L 320.121897 -194.82868 
L 322.476135 -196.844171 
L 324.755622 -200.325474 
L 326.96496 -203.257097 
L 329.108337 -204.661833 
L 331.189579 -205.700117 
L 333.212187 -208.204212 
L 335.179373 -208.265287 
L 337.094095 -209.914325 
L 338.959078 -212.479496 
L 340.776842 -215.288968 
L 342.549717 -219.014573 
L 344.279869 -222.312649 
L 345.969307 -225.427499 
L 347.619904 -227.748367 
L 349.233406 -230.802141 
L 350.811444 -230.466226 
L 352.355542 -233.12301 
L 353.867131 -236.880679 
L 355.347551 -236.90969 
L 356.798061 -238.314426 
L 358.219847 -238.786998 
L 359.614023 -239.535936 
L 360.981642 -240.390993 
L 362.323696 -241.673578 
L 363.641124 -241.856804 
L 364.934813 -242.345408 
L 366.205604 -242.467559 
L 367.454294 -244.505954 
L 368.681636 -245.857249 
L 369.888351 -243.078314 
L 371.075119 -244.788428 
L 372.242589 -246.437466 
L 373.391378 -244.910579 
L 374.522076 -243.841758 
L 375.635243 -243.13939 
L 376.731414 -243.13939 
L 377.8111 -243.13939 
L 378.874791 -243.81122 
L 379.922953 -247.414674 
L 380.956033 -249.063712 
L 381.974459 -249.063712 
L 382.978641 -253.522222 
L 383.968971 -254.579592 
L 384.945827 -254.510882 
L 385.909571 -254.804807 
L 386.860549 -249.49124 
L 387.799096 -261.156658 
L 388.725532 -250.04092 
L 389.640166 -250.16307 
L 390.543295 -253.797062 
L 391.435205 -251.140278 
L 392.316171 -251.140278 
L 393.186458 -251.262429 
L 394.046323 -249.063712 
L 394.896011 -249.063712 
L 395.735761 -249.338551 
L 396.565803 -252.300713 
L 397.386358 -252.300713 
L 398.197642 -252.300713 
L 398.99986 -252.300713 
L 399.793214 -252.300713 
L 399.793214 -286.625136 
L 399.793214 -286.625136 
L 398.99986 -286.625136 
L 398.197642 -285.159324 
L 397.386358 -284.792871 
L 396.565803 -289.190306 
L 395.735761 -285.220399 
L 394.896011 -284.518031 
L 394.046323 -284.334805 
L 393.186458 -279.112851 
L 392.316171 -279.112851 
L 391.435205 -286.441909 
L 390.543295 -286.441909 
L 389.640166 -279.112851 
L 388.725532 -291.57225 
L 387.799096 -288.946004 
L 386.860549 -288.823853 
L 385.909571 -279.387691 
L 384.945827 -276.456067 
L 383.968971 -273.829821 
L 382.978641 -273.554982 
L 381.974459 -272.028094 
L 380.956033 -271.173038 
L 379.922953 -270.134754 
L 378.874791 -270.134754 
L 377.8111 -269.340773 
L 376.731414 -269.340773 
L 375.635243 -269.340773 
L 374.522076 -275.60101 
L 373.391378 -285.037173 
L 372.242589 -281.922323 
L 371.075119 -276.779004 
L 369.888351 -277.524888 
L 368.681636 -279.387691 
L 367.454294 -276.669831 
L 366.205604 -272.82513 
L 364.934813 -278.868549 
L 363.641124 -278.807473 
L 362.323696 -278.441021 
L 360.981642 -269.157547 
L 359.614023 -267.386358 
L 358.219847 -272.638849 
L 356.798061 -266.742011 
L 355.347551 -266.592376 
L 353.867131 -261.584186 
L 352.355542 -256.698148 
L 350.811444 -251.567807 
L 349.233406 -250.591362 
L 347.619904 -248.991948 
L 345.969307 -254.377279 
L 344.279869 -245.582409 
L 342.549717 -239.902389 
L 340.776842 -237.092916 
L 338.959078 -234.588822 
L 337.094095 -231.138057 
L 335.179373 -226.343631 
L 333.212187 -229.214179 
L 331.189579 -226.282555 
L 329.108337 -224.389215 
L 326.96496 -220.663611 
L 324.755622 -218.709195 
L 322.476135 -212.174118 
L 320.121897 -209.670023 
L 317.68784 -206.799475 
L 315.168359 -201.608059 
L 312.557242 -199.83687 
L 309.847569 -194.034699 
L 307.031607 -190.919849 
L 304.100677 -184.445848 
L 301.04499 -182.430357 
L 297.85345 -176.017431 
L 294.513415 -172.719354 
L 291.010388 -166.489655 
L 287.327641 -162.519748 
L 283.445733 -156.076284 
L 279.341883 -153.327887 
L 274.989168 -151.953689 
L 270.355443 -148.564 
L 265.401906 -140.135582 
L 260.081115 -138.608695 
L 254.334223 -134.852553 
L 248.086996 -131.126948 
L 241.243934 -127.187579 
L 233.679279 -125.69123 
L 225.222714 -123.828428 
L 215.635452 -121.110569 
L 204.567769 -119.46153 
L 191.47748 -116.652058 
L 175.45626 -108.040415 
L 154.801316 -96.313921 
L 125.689806 -73.257925 
L 75.923352 -55.150571 
z
" id="m183e8d88ff" style="stroke:#1f77b4;stroke-opacity:0.2;"/>
    </defs>
    <g clip-path="url(#p552560becc)">
     <use style="fill:#1f77b4;fill-opacity:0.2;stroke:#1f77b4;stroke-opacity:0.2;" x="0" xlink:href="#m183e8d88ff" y="325.986375"/>
    </g>
   </g>
   <g id="PolyCollection_2">
    <defs>
     <path d="M 75.923352 -60.767988 
L 75.923352 -50.751609 
L 125.689806 -61.806272 
L 154.801316 -71.731038 
L 175.45626 -78.571493 
L 191.47748 -82.816239 
L 204.567769 -83.854522 
L 215.635452 -95.825317 
L 225.222714 -98.390488 
L 233.679279 -107.786951 
L 241.243934 -113.353982 
L 248.086996 -121.782399 
L 254.334223 -123.767352 
L 260.081115 -127.58457 
L 265.401906 -135.890836 
L 270.355443 -137.05127 
L 274.989168 -138.303318 
L 279.341883 -146.317185 
L 283.445733 -151.709387 
L 287.327641 -151.770463 
L 291.010388 -159.25221 
L 294.513415 -158.366615 
L 297.85345 -162.09222 
L 301.04499 -166.001051 
L 304.100677 -169.482354 
L 307.031607 -177.440489 
L 309.847569 -181.056158 
L 312.557242 -184.354234 
L 315.168359 -182.552508 
L 317.68784 -180.323252 
L 320.121897 -184.201546 
L 322.476135 -184.201546 
L 324.755622 -189.430371 
L 326.96496 -184.69015 
L 329.108337 -184.69015 
L 331.189579 -184.69015 
L 333.212187 -189.14866 
L 335.179373 -192.874265 
L 337.094095 -193.851472 
L 338.959078 -197.332775 
L 340.776842 -197.393851 
L 342.549717 -198.859662 
L 344.279869 -198.859662 
L 345.969307 -198.981813 
L 347.619904 -202.279889 
L 349.233406 -196.72202 
L 350.811444 -198.157294 
L 352.355542 -198.126756 
L 353.867131 -198.584823 
L 355.347551 -203.867852 
L 356.798061 -205.229835 
L 358.219847 -201.241606 
L 359.614023 -205.333664 
L 360.981642 -197.2717 
L 362.323696 -197.2717 
L 363.641124 -197.699228 
L 364.934813 -208.020985 
L 366.205604 -208.110308 
L 367.454294 -211.257986 
L 368.681636 -209.883787 
L 369.888351 -208.265287 
L 371.075119 -208.876042 
L 372.242589 -210.952608 
L 373.391378 -212.528356 
L 374.522076 -215.044666 
L 375.635243 -212.174118 
L 376.731414 -214.556062 
L 377.8111 -214.617138 
L 378.874791 -218.464893 
L 379.922953 -220.297158 
L 380.956033 -228.542348 
L 381.974459 -228.542348 
L 382.978641 -228.542348 
L 383.968971 -224.816744 
L 384.945827 -224.816744 
L 385.909571 -229.947085 
L 386.860549 -227.717829 
L 387.799096 -225.183197 
L 388.725532 -225.305348 
L 389.640166 -225.610725 
L 390.543295 -230.374613 
L 391.435205 -221.091139 
L 392.316171 -232.329029 
L 393.186458 -234.161293 
L 394.046323 -236.787539 
L 394.896011 -236.787539 
L 395.735761 -236.787539 
L 396.565803 -242.650786 
L 397.386358 -242.956163 
L 398.197642 -222.495875 
L 398.99986 -230.099773 
L 399.793214 -228.878264 
L 400.577898 -229.000415 
L 400.577898 -262.378168 
L 400.577898 -262.378168 
L 399.793214 -261.614724 
L 398.99986 -259.324393 
L 398.197642 -259.324393 
L 397.386358 -262.317092 
L 396.565803 -261.523111 
L 395.735761 -261.034507 
L 394.896011 -261.034507 
L 394.046323 -260.912356 
L 393.186458 -258.591488 
L 392.316171 -244.605201 
L 391.435205 -257.492129 
L 390.543295 -244.48305 
L 389.640166 -255.659864 
L 388.725532 -249.714929 
L 387.799096 -254.621581 
L 386.860549 -249.949306 
L 385.909571 -253.087059 
L 384.945827 -247.781127 
L 383.968971 -247.781127 
L 382.978641 -248.361344 
L 381.974459 -247.720051 
L 380.956033 -243.994446 
L 379.922953 -243.872295 
L 378.874791 -243.627993 
L 377.8111 -243.566918 
L 376.731414 -241.734653 
L 375.635243 -241.001748 
L 374.522076 -240.085615 
L 373.391378 -237.947973 
L 372.242589 -236.726464 
L 371.075119 -235.627105 
L 369.888351 -235.627105 
L 368.681636 -234.466671 
L 367.454294 -236.23786 
L 366.205604 -234.039142 
L 364.934813 -235.810331 
L 363.641124 -232.634406 
L 362.323696 -232.634406 
L 360.981642 -232.023651 
L 359.614023 -232.189318 
L 358.219847 -232.267953 
L 356.798061 -231.809887 
L 355.347551 -230.985368 
L 353.867131 -230.67999 
L 352.355542 -227.778905 
L 350.811444 -224.511366 
L 349.233406 -225.405359 
L 347.619904 -224.205989 
L 345.969307 -222.312649 
L 344.279869 -222.312649 
L 342.549717 -222.312649 
L 340.776842 -221.640819 
L 338.959078 -221.518668 
L 337.094095 -221.457592 
L 335.179373 -218.587044 
L 333.212187 -214.769826 
L 331.189579 -212.571109 
L 329.108337 -211.868741 
L 326.96496 -211.013684 
L 324.755622 -208.876042 
L 322.476135 -205.51689 
L 320.121897 -202.646342 
L 317.68784 -199.287191 
L 315.168359 -197.149549 
L 312.557242 -197.119011 
L 309.847569 -193.790397 
L 307.031607 -190.797698 
L 304.100677 -188.293603 
L 301.04499 -184.232083 
L 297.85345 -182.796809 
L 294.513415 -179.68196 
L 291.010388 -175.162374 
L 287.327641 -172.597203 
L 283.445733 -169.360203 
L 279.341883 -160.962323 
L 274.989168 -158.946832 
L 270.355443 -155.068539 
L 265.401906 -148.930452 
L 260.081115 -147.128726 
L 254.334223 -145.113235 
L 248.086996 -143.372583 
L 241.243934 -137.906327 
L 233.679279 -135.585459 
L 225.222714 -120.255512 
L 215.635452 -112.743227 
L 204.567769 -107.673962 
L 191.47748 -101.74964 
L 175.45626 -97.41328 
L 154.801316 -90.694977 
L 125.689806 -85.014956 
L 75.923352 -60.767988 
z
" id="m2304f8b3cd" style="stroke:#d62728;stroke-opacity:0.2;"/>
    </defs>
    <g clip-path="url(#p552560becc)">
     <use style="fill:#d62728;fill-opacity:0.2;stroke:#d62728;stroke-opacity:0.2;" x="0" xlink:href="#m2304f8b3cd" y="325.986375"/>
    </g>
   </g>
   <g id="PolyCollection_3">
    <defs>
     <path d="M 75.923352 -53.622157 
L 75.923352 -49.65225 
L 125.689806 -54.721515 
L 154.801316 -59.424328 
L 175.45626 -62.722404 
L 191.47748 -65.776178 
L 204.567769 -66.692311 
L 215.635452 -71.944802 
L 225.222714 -77.075143 
L 233.679279 -81.686342 
L 241.243934 -83.121616 
L 248.086996 -84.037749 
L 254.334223 -87.030447 
L 260.081115 -88.984863 
L 265.401906 -89.351316 
L 270.355443 -89.412391 
L 274.989168 -91.427882 
L 279.341883 -91.947024 
L 283.445733 -94.054128 
L 287.327641 -94.664883 
L 291.010388 -97.718657 
L 294.513415 -97.901884 
L 297.85345 -97.962959 
L 301.04499 -98.207261 
L 304.100677 -100.222752 
L 307.031607 -101.19996 
L 309.847569 -101.932866 
L 312.557242 -103.337602 
L 315.168359 -103.826206 
L 317.68784 -104.742338 
L 320.121897 -105.353093 
L 322.476135 -105.475244 
L 324.755622 -105.475244 
L 326.96496 -106.818905 
L 329.108337 -106.941056 
L 331.189579 -107.673962 
L 333.212187 -108.284717 
L 335.179373 -109.689453 
L 337.094095 -109.842141 
L 338.959078 -110.513972 
L 340.776842 -110.849887 
L 342.549717 -111.582793 
L 344.279869 -111.582793 
L 345.969307 -111.979783 
L 347.619904 -112.985239 
L 349.233406 -113.10968 
L 350.811444 -114.209039 
L 352.355542 -115.980228 
L 353.867131 -114.361727 
L 355.347551 -115.064095 
L 356.798061 -115.27786 
L 358.219847 -115.27786 
L 359.614023 -116.163454 
L 360.981642 -116.22453 
L 362.323696 -116.407756 
L 363.641124 -119.166841 
L 364.934813 -123.187135 
L 366.205604 -123.187135 
L 367.454294 -123.187135 
L 368.681636 -123.187135 
L 369.888351 -123.187135 
L 371.075119 -124.286494 
L 372.242589 -124.286494 
L 373.391378 -124.286494 
L 374.522076 -123.05964 
L 375.635243 -123.461975 
L 376.731414 -124.530796 
L 377.8111 -124.591871 
L 378.874791 -126.057683 
L 379.922953 -126.057683 
L 380.956033 -126.057683 
L 381.974459 -128.745004 
L 382.978641 -128.80608 
L 383.968971 -129.283996 
L 384.945827 -128.867155 
L 385.909571 -130.760495 
L 386.860549 -131.126948 
L 387.799096 -131.126948 
L 388.725532 -131.126948 
L 389.640166 -132.073618 
L 390.543295 -131.36667 
L 391.435205 -131.188024 
L 392.316171 -131.188024 
L 393.186458 -131.188024 
L 394.046323 -131.188024 
L 394.896011 -132.104156 
L 395.735761 -132.653835 
L 396.565803 -132.837062 
L 397.386358 -132.653835 
L 398.197642 -132.653835 
L 398.99986 -133.142439 
L 399.793214 -133.631043 
L 400.577898 -130.760495 
L 400.577898 -148.899915 
L 400.577898 -148.899915 
L 399.793214 -153.02251 
L 398.99986 -149.449594 
L 398.197642 -149.388519 
L 397.386358 -149.388519 
L 396.565803 -151.220783 
L 395.735761 -154.900581 
L 394.896011 -150.793255 
L 394.046323 -146.090442 
L 393.186458 -145.357537 
L 392.316171 -145.357537 
L 391.435205 -145.357537 
L 390.543295 -149.144217 
L 389.640166 -148.993818 
L 388.725532 -145.235386 
L 387.799096 -145.235386 
L 386.860549 -145.052159 
L 385.909571 -148.105933 
L 384.945827 -148.105933 
L 383.968971 -150.915406 
L 382.978641 -144.319253 
L 381.974459 -144.319253 
L 380.956033 -143.342046 
L 379.922953 -143.342046 
L 378.874791 -143.342046 
L 377.8111 -143.28097 
L 376.731414 -142.945055 
L 375.635243 -143.097744 
L 374.522076 -142.883979 
L 373.391378 -143.097744 
L 372.242589 -143.097744 
L 371.075119 -143.097744 
L 369.888351 -143.097744 
L 368.681636 -143.097744 
L 367.454294 -143.097744 
L 366.205604 -142.914517 
L 364.934813 -140.837951 
L 363.641124 -141.021177 
L 362.323696 -140.654724 
L 360.981642 -139.860743 
L 359.614023 -139.738592 
L 358.219847 -138.883535 
L 356.798061 -136.043525 
L 355.347551 -133.722656 
L 353.867131 -133.722656 
L 352.355542 -135.585459 
L 350.811444 -134.791477 
L 349.233406 -133.325666 
L 347.619904 -130.058127 
L 345.969307 -127.248655 
L 344.279869 -129.233608 
L 342.549717 -128.928231 
L 340.776842 -128.80608 
L 338.959078 -124.836173 
L 337.094095 -123.370362 
L 335.179373 -123.339824 
L 333.212187 -124.46972 
L 331.189579 -124.46972 
L 329.108337 -123.920041 
L 326.96496 -117.262813 
L 324.755622 -117.140662 
L 322.476135 -118.087332 
L 320.121897 -114.33119 
L 317.68784 -113.964737 
L 315.168359 -112.071397 
L 312.557242 -111.094189 
L 309.847569 -110.788811 
L 307.031607 -111.766019 
L 304.100677 -111.766019 
L 301.04499 -110.239132 
L 297.85345 -110.055906 
L 294.513415 -108.956547 
L 291.010388 -108.895471 
L 287.327641 -108.284717 
L 283.445733 -100.864045 
L 279.341883 -100.405979 
L 274.989168 -100.344903 
L 270.355443 -100.344903 
L 265.401906 -100.344903 
L 260.081115 -99.917375 
L 254.334223 -96.985752 
L 248.086996 -96.130695 
L 241.243934 -94.176279 
L 233.679279 -91.73326 
L 225.222714 -88.099268 
L 215.635452 -86.12195 
L 204.567769 -85.992164 
L 191.47748 -85.076032 
L 175.45626 -81.289352 
L 154.801316 -76.70869 
L 125.689806 -59.790781 
L 75.923352 -53.622157 
z
" id="m4c6dc0c4e4" style="stroke:#98df8a;stroke-opacity:0.2;"/>
    </defs>
    <g clip-path="url(#p552560becc)">
     <use style="fill:#98df8a;fill-opacity:0.2;stroke:#98df8a;stroke-opacity:0.2;" x="0" xlink:href="#m4c6dc0c4e4" y="325.986375"/>
    </g>
   </g>
   <g id="matplotlib.axis_1">
    <g id="xtick_1">
     <g id="line2d_1">
      <defs>
       <path d="M 0 0 
L 0 3.5 
" id="mb6ca3d0081" style="stroke:#000000;stroke-width:0.8;"/>
      </defs>
      <g>
       <use style="stroke:#000000;stroke-width:0.8;" x="75.923352" xlink:href="#mb6ca3d0081" y="288.430125"/>
      </g>
     </g>
     <g id="text_1">
      <!-- 14m -->
      <g transform="translate(64.69054 303.028562)scale(0.1 -0.1)">
       <defs>
        <path d="M 794 531 
L 1825 531 
L 1825 4091 
L 703 3866 
L 703 4441 
L 1819 4666 
L 2450 4666 
L 2450 531 
L 3481 531 
L 3481 0 
L 794 0 
L 794 531 
z
" id="DejaVuSans-31" transform="scale(0.015625)"/>
        <path d="M 2419 4116 
L 825 1625 
L 2419 1625 
L 2419 4116 
z
M 2253 4666 
L 3047 4666 
L 3047 1625 
L 3713 1625 
L 3713 1100 
L 3047 1100 
L 3047 0 
L 2419 0 
L 2419 1100 
L 313 1100 
L 313 1709 
L 2253 4666 
z
" id="DejaVuSans-34" transform="scale(0.015625)"/>
        <path d="M 3328 2828 
Q 3544 3216 3844 3400 
Q 4144 3584 4550 3584 
Q 5097 3584 5394 3201 
Q 5691 2819 5691 2113 
L 5691 0 
L 5113 0 
L 5113 2094 
Q 5113 2597 4934 2840 
Q 4756 3084 4391 3084 
Q 3944 3084 3684 2787 
Q 3425 2491 3425 1978 
L 3425 0 
L 2847 0 
L 2847 2094 
Q 2847 2600 2669 2842 
Q 2491 3084 2119 3084 
Q 1678 3084 1418 2786 
Q 1159 2488 1159 1978 
L 1159 0 
L 581 0 
L 581 3500 
L 1159 3500 
L 1159 2956 
Q 1356 3278 1631 3431 
Q 1906 3584 2284 3584 
Q 2666 3584 2933 3390 
Q 3200 3197 3328 2828 
z
" id="DejaVuSans-6d" transform="scale(0.015625)"/>
       </defs>
       <use xlink:href="#DejaVuSans-31"/>
       <use x="63.623047" xlink:href="#DejaVuSans-34"/>
       <use x="127.246094" xlink:href="#DejaVuSans-6d"/>
      </g>
     </g>
    </g>
    <g id="xtick_2">
     <g id="line2d_2">
      <g>
       <use style="stroke:#000000;stroke-width:0.8;" x="140.854435" xlink:href="#mb6ca3d0081" y="288.430125"/>
      </g>
     </g>
     <g id="text_2">
      <!-- 37m -->
      <g transform="translate(129.621622 303.028562)scale(0.1 -0.1)">
       <defs>
        <path d="M 2597 2516 
Q 3050 2419 3304 2112 
Q 3559 1806 3559 1356 
Q 3559 666 3084 287 
Q 2609 -91 1734 -91 
Q 1441 -91 1130 -33 
Q 819 25 488 141 
L 488 750 
Q 750 597 1062 519 
Q 1375 441 1716 441 
Q 2309 441 2620 675 
Q 2931 909 2931 1356 
Q 2931 1769 2642 2001 
Q 2353 2234 1838 2234 
L 1294 2234 
L 1294 2753 
L 1863 2753 
Q 2328 2753 2575 2939 
Q 2822 3125 2822 3475 
Q 2822 3834 2567 4026 
Q 2313 4219 1838 4219 
Q 1578 4219 1281 4162 
Q 984 4106 628 3988 
L 628 4550 
Q 988 4650 1302 4700 
Q 1616 4750 1894 4750 
Q 2613 4750 3031 4423 
Q 3450 4097 3450 3541 
Q 3450 3153 3228 2886 
Q 3006 2619 2597 2516 
z
" id="DejaVuSans-33" transform="scale(0.015625)"/>
        <path d="M 525 4666 
L 3525 4666 
L 3525 4397 
L 1831 0 
L 1172 0 
L 2766 4134 
L 525 4134 
L 525 4666 
z
" id="DejaVuSans-37" transform="scale(0.015625)"/>
       </defs>
       <use xlink:href="#DejaVuSans-33"/>
       <use x="63.623047" xlink:href="#DejaVuSans-37"/>
       <use x="127.246094" xlink:href="#DejaVuSans-6d"/>
      </g>
     </g>
    </g>
    <g id="xtick_3">
     <g id="line2d_3">
      <g>
       <use style="stroke:#000000;stroke-width:0.8;" x="205.785517" xlink:href="#mb6ca3d0081" y="288.430125"/>
      </g>
     </g>
     <g id="text_3">
      <!-- 1h:31m -->
      <g transform="translate(186.51833 303.028562)scale(0.1 -0.1)">
       <defs>
        <path d="M 3513 2113 
L 3513 0 
L 2938 0 
L 2938 2094 
Q 2938 2591 2744 2837 
Q 2550 3084 2163 3084 
Q 1697 3084 1428 2787 
Q 1159 2491 1159 1978 
L 1159 0 
L 581 0 
L 581 4863 
L 1159 4863 
L 1159 2956 
Q 1366 3272 1645 3428 
Q 1925 3584 2291 3584 
Q 2894 3584 3203 3211 
Q 3513 2838 3513 2113 
z
" id="DejaVuSans-68" transform="scale(0.015625)"/>
        <path d="M 750 794 
L 1409 794 
L 1409 0 
L 750 0 
L 750 794 
z
M 750 3309 
L 1409 3309 
L 1409 2516 
L 750 2516 
L 750 3309 
z
" id="DejaVuSans-3a" transform="scale(0.015625)"/>
       </defs>
       <use xlink:href="#DejaVuSans-31"/>
       <use x="63.623047" xlink:href="#DejaVuSans-68"/>
       <use x="127.001953" xlink:href="#DejaVuSans-3a"/>
       <use x="160.693359" xlink:href="#DejaVuSans-33"/>
       <use x="224.316406" xlink:href="#DejaVuSans-31"/>
       <use x="287.939453" xlink:href="#DejaVuSans-6d"/>
      </g>
     </g>
    </g>
    <g id="xtick_4">
     <g id="line2d_4">
      <g>
       <use style="stroke:#000000;stroke-width:0.8;" x="270.7166" xlink:href="#mb6ca3d0081" y="288.430125"/>
      </g>
     </g>
     <g id="text_4">
      <!-- 3h:46m -->
      <g transform="translate(251.449412 303.028562)scale(0.1 -0.1)">
       <defs>
        <path d="M 2113 2584 
Q 1688 2584 1439 2293 
Q 1191 2003 1191 1497 
Q 1191 994 1439 701 
Q 1688 409 2113 409 
Q 2538 409 2786 701 
Q 3034 994 3034 1497 
Q 3034 2003 2786 2293 
Q 2538 2584 2113 2584 
z
M 3366 4563 
L 3366 3988 
Q 3128 4100 2886 4159 
Q 2644 4219 2406 4219 
Q 1781 4219 1451 3797 
Q 1122 3375 1075 2522 
Q 1259 2794 1537 2939 
Q 1816 3084 2150 3084 
Q 2853 3084 3261 2657 
Q 3669 2231 3669 1497 
Q 3669 778 3244 343 
Q 2819 -91 2113 -91 
Q 1303 -91 875 529 
Q 447 1150 447 2328 
Q 447 3434 972 4092 
Q 1497 4750 2381 4750 
Q 2619 4750 2861 4703 
Q 3103 4656 3366 4563 
z
" id="DejaVuSans-36" transform="scale(0.015625)"/>
       </defs>
       <use xlink:href="#DejaVuSans-33"/>
       <use x="63.623047" xlink:href="#DejaVuSans-68"/>
       <use x="127.001953" xlink:href="#DejaVuSans-3a"/>
       <use x="160.693359" xlink:href="#DejaVuSans-34"/>
       <use x="224.316406" xlink:href="#DejaVuSans-36"/>
       <use x="287.939453" xlink:href="#DejaVuSans-6d"/>
      </g>
     </g>
    </g>
    <g id="xtick_5">
     <g id="line2d_5">
      <g>
       <use style="stroke:#000000;stroke-width:0.8;" x="335.647682" xlink:href="#mb6ca3d0081" y="288.430125"/>
      </g>
     </g>
     <g id="text_5">
      <!-- 9h:18m -->
      <g transform="translate(316.380495 303.028562)scale(0.1 -0.1)">
       <defs>
        <path d="M 703 97 
L 703 672 
Q 941 559 1184 500 
Q 1428 441 1663 441 
Q 2288 441 2617 861 
Q 2947 1281 2994 2138 
Q 2813 1869 2534 1725 
Q 2256 1581 1919 1581 
Q 1219 1581 811 2004 
Q 403 2428 403 3163 
Q 403 3881 828 4315 
Q 1253 4750 1959 4750 
Q 2769 4750 3195 4129 
Q 3622 3509 3622 2328 
Q 3622 1225 3098 567 
Q 2575 -91 1691 -91 
Q 1453 -91 1209 -44 
Q 966 3 703 97 
z
M 1959 2075 
Q 2384 2075 2632 2365 
Q 2881 2656 2881 3163 
Q 2881 3666 2632 3958 
Q 2384 4250 1959 4250 
Q 1534 4250 1286 3958 
Q 1038 3666 1038 3163 
Q 1038 2656 1286 2365 
Q 1534 2075 1959 2075 
z
" id="DejaVuSans-39" transform="scale(0.015625)"/>
        <path d="M 2034 2216 
Q 1584 2216 1326 1975 
Q 1069 1734 1069 1313 
Q 1069 891 1326 650 
Q 1584 409 2034 409 
Q 2484 409 2743 651 
Q 3003 894 3003 1313 
Q 3003 1734 2745 1975 
Q 2488 2216 2034 2216 
z
M 1403 2484 
Q 997 2584 770 2862 
Q 544 3141 544 3541 
Q 544 4100 942 4425 
Q 1341 4750 2034 4750 
Q 2731 4750 3128 4425 
Q 3525 4100 3525 3541 
Q 3525 3141 3298 2862 
Q 3072 2584 2669 2484 
Q 3125 2378 3379 2068 
Q 3634 1759 3634 1313 
Q 3634 634 3220 271 
Q 2806 -91 2034 -91 
Q 1263 -91 848 271 
Q 434 634 434 1313 
Q 434 1759 690 2068 
Q 947 2378 1403 2484 
z
M 1172 3481 
Q 1172 3119 1398 2916 
Q 1625 2713 2034 2713 
Q 2441 2713 2670 2916 
Q 2900 3119 2900 3481 
Q 2900 3844 2670 4047 
Q 2441 4250 2034 4250 
Q 1625 4250 1398 4047 
Q 1172 3844 1172 3481 
z
" id="DejaVuSans-38" transform="scale(0.015625)"/>
       </defs>
       <use xlink:href="#DejaVuSans-39"/>
       <use x="63.623047" xlink:href="#DejaVuSans-68"/>
       <use x="127.001953" xlink:href="#DejaVuSans-3a"/>
       <use x="160.693359" xlink:href="#DejaVuSans-31"/>
       <use x="224.316406" xlink:href="#DejaVuSans-38"/>
       <use x="287.939453" xlink:href="#DejaVuSans-6d"/>
      </g>
     </g>
    </g>
    <g id="xtick_6">
     <g id="line2d_6">
      <g>
       <use style="stroke:#000000;stroke-width:0.8;" x="400.578765" xlink:href="#mb6ca3d0081" y="288.430125"/>
      </g>
     </g>
     <g id="text_6">
      <!-- 23h -->
      <g transform="translate(391.047515 303.028562)scale(0.1 -0.1)">
       <defs>
        <path d="M 1228 531 
L 3431 531 
L 3431 0 
L 469 0 
L 469 531 
Q 828 903 1448 1529 
Q 2069 2156 2228 2338 
Q 2531 2678 2651 2914 
Q 2772 3150 2772 3378 
Q 2772 3750 2511 3984 
Q 2250 4219 1831 4219 
Q 1534 4219 1204 4116 
Q 875 4013 500 3803 
L 500 4441 
Q 881 4594 1212 4672 
Q 1544 4750 1819 4750 
Q 2544 4750 2975 4387 
Q 3406 4025 3406 3419 
Q 3406 3131 3298 2873 
Q 3191 2616 2906 2266 
Q 2828 2175 2409 1742 
Q 1991 1309 1228 531 
z
" id="DejaVuSans-32" transform="scale(0.015625)"/>
       </defs>
       <use xlink:href="#DejaVuSans-32"/>
       <use x="63.623047" xlink:href="#DejaVuSans-33"/>
       <use x="127.246094" xlink:href="#DejaVuSans-68"/>
      </g>
     </g>
    </g>
    <g id="xtick_7">
     <g id="line2d_7">
      <defs>
       <path d="M 0 0 
L 0 2 
" id="me70fde33ed" style="stroke:#000000;stroke-width:0.6;"/>
      </defs>
      <g>
       <use style="stroke:#000000;stroke-width:0.6;" x="67.466788" xlink:href="#me70fde33ed" y="288.430125"/>
      </g>
     </g>
    </g>
    <g id="xtick_8">
     <g id="line2d_8">
      <g>
       <use style="stroke:#000000;stroke-width:0.6;" x="133.254461" xlink:href="#me70fde33ed" y="288.430125"/>
      </g>
     </g>
    </g>
    <g id="xtick_9">
     <g id="line2d_9">
      <g>
       <use style="stroke:#000000;stroke-width:0.6;" x="162.36597" xlink:href="#me70fde33ed" y="288.430125"/>
      </g>
     </g>
    </g>
    <g id="xtick_10">
     <g id="line2d_10">
      <g>
       <use style="stroke:#000000;stroke-width:0.6;" x="183.020915" xlink:href="#me70fde33ed" y="288.430125"/>
      </g>
     </g>
    </g>
    <g id="xtick_11">
     <g id="line2d_11">
      <g>
       <use style="stroke:#000000;stroke-width:0.6;" x="199.042135" xlink:href="#me70fde33ed" y="288.430125"/>
      </g>
     </g>
    </g>
    <g id="xtick_12">
     <g id="line2d_12">
      <g>
       <use style="stroke:#000000;stroke-width:0.6;" x="212.132424" xlink:href="#me70fde33ed" y="288.430125"/>
      </g>
     </g>
    </g>
    <g id="xtick_13">
     <g id="line2d_13">
      <g>
       <use style="stroke:#000000;stroke-width:0.6;" x="223.200107" xlink:href="#me70fde33ed" y="288.430125"/>
      </g>
     </g>
    </g>
    <g id="xtick_14">
     <g id="line2d_14">
      <g>
       <use style="stroke:#000000;stroke-width:0.6;" x="232.787369" xlink:href="#me70fde33ed" y="288.430125"/>
      </g>
     </g>
    </g>
    <g id="xtick_15">
     <g id="line2d_15">
      <g>
       <use style="stroke:#000000;stroke-width:0.6;" x="241.243934" xlink:href="#me70fde33ed" y="288.430125"/>
      </g>
     </g>
    </g>
    <g id="xtick_16">
     <g id="line2d_16">
      <g>
       <use style="stroke:#000000;stroke-width:0.6;" x="298.575043" xlink:href="#me70fde33ed" y="288.430125"/>
      </g>
     </g>
    </g>
    <g id="xtick_17">
     <g id="line2d_17">
      <g>
       <use style="stroke:#000000;stroke-width:0.6;" x="327.686552" xlink:href="#me70fde33ed" y="288.430125"/>
      </g>
     </g>
    </g>
    <g id="xtick_18">
     <g id="line2d_18">
      <g>
       <use style="stroke:#000000;stroke-width:0.6;" x="348.341496" xlink:href="#me70fde33ed" y="288.430125"/>
      </g>
     </g>
    </g>
    <g id="xtick_19">
     <g id="line2d_19">
      <g>
       <use style="stroke:#000000;stroke-width:0.6;" x="364.362716" xlink:href="#me70fde33ed" y="288.430125"/>
      </g>
     </g>
    </g>
    <g id="xtick_20">
     <g id="line2d_20">
      <g>
       <use style="stroke:#000000;stroke-width:0.6;" x="377.453006" xlink:href="#me70fde33ed" y="288.430125"/>
      </g>
     </g>
    </g>
    <g id="xtick_21">
     <g id="line2d_21">
      <g>
       <use style="stroke:#000000;stroke-width:0.6;" x="388.520688" xlink:href="#me70fde33ed" y="288.430125"/>
      </g>
     </g>
    </g>
    <g id="xtick_22">
     <g id="line2d_22">
      <g>
       <use style="stroke:#000000;stroke-width:0.6;" x="398.10795" xlink:href="#me70fde33ed" y="288.430125"/>
      </g>
     </g>
    </g>
    <g id="xtick_23">
     <g id="line2d_23">
      <g>
       <use style="stroke:#000000;stroke-width:0.6;" x="406.564515" xlink:href="#me70fde33ed" y="288.430125"/>
      </g>
     </g>
    </g>
    <g id="text_7">
     <!-- Time (hour:minute) -->
     <g transform="translate(189.843594 316.706687)scale(0.1 -0.1)">
      <defs>
       <path d="M -19 4666 
L 3928 4666 
L 3928 4134 
L 2272 4134 
L 2272 0 
L 1638 0 
L 1638 4134 
L -19 4134 
L -19 4666 
z
" id="DejaVuSans-54" transform="scale(0.015625)"/>
       <path d="M 603 3500 
L 1178 3500 
L 1178 0 
L 603 0 
L 603 3500 
z
M 603 4863 
L 1178 4863 
L 1178 4134 
L 603 4134 
L 603 4863 
z
" id="DejaVuSans-69" transform="scale(0.015625)"/>
       <path d="M 3597 1894 
L 3597 1613 
L 953 1613 
Q 991 1019 1311 708 
Q 1631 397 2203 397 
Q 2534 397 2845 478 
Q 3156 559 3463 722 
L 3463 178 
Q 3153 47 2828 -22 
Q 2503 -91 2169 -91 
Q 1331 -91 842 396 
Q 353 884 353 1716 
Q 353 2575 817 3079 
Q 1281 3584 2069 3584 
Q 2775 3584 3186 3129 
Q 3597 2675 3597 1894 
z
M 3022 2063 
Q 3016 2534 2758 2815 
Q 2500 3097 2075 3097 
Q 1594 3097 1305 2825 
Q 1016 2553 972 2059 
L 3022 2063 
z
" id="DejaVuSans-65" transform="scale(0.015625)"/>
       <path id="DejaVuSans-20" transform="scale(0.015625)"/>
       <path d="M 1984 4856 
Q 1566 4138 1362 3434 
Q 1159 2731 1159 2009 
Q 1159 1288 1364 580 
Q 1569 -128 1984 -844 
L 1484 -844 
Q 1016 -109 783 600 
Q 550 1309 550 2009 
Q 550 2706 781 3412 
Q 1013 4119 1484 4856 
L 1984 4856 
z
" id="DejaVuSans-28" transform="scale(0.015625)"/>
       <path d="M 1959 3097 
Q 1497 3097 1228 2736 
Q 959 2375 959 1747 
Q 959 1119 1226 758 
Q 1494 397 1959 397 
Q 2419 397 2687 759 
Q 2956 1122 2956 1747 
Q 2956 2369 2687 2733 
Q 2419 3097 1959 3097 
z
M 1959 3584 
Q 2709 3584 3137 3096 
Q 3566 2609 3566 1747 
Q 3566 888 3137 398 
Q 2709 -91 1959 -91 
Q 1206 -91 779 398 
Q 353 888 353 1747 
Q 353 2609 779 3096 
Q 1206 3584 1959 3584 
z
" id="DejaVuSans-6f" transform="scale(0.015625)"/>
       <path d="M 544 1381 
L 544 3500 
L 1119 3500 
L 1119 1403 
Q 1119 906 1312 657 
Q 1506 409 1894 409 
Q 2359 409 2629 706 
Q 2900 1003 2900 1516 
L 2900 3500 
L 3475 3500 
L 3475 0 
L 2900 0 
L 2900 538 
Q 2691 219 2414 64 
Q 2138 -91 1772 -91 
Q 1169 -91 856 284 
Q 544 659 544 1381 
z
M 1991 3584 
L 1991 3584 
z
" id="DejaVuSans-75" transform="scale(0.015625)"/>
       <path d="M 2631 2963 
Q 2534 3019 2420 3045 
Q 2306 3072 2169 3072 
Q 1681 3072 1420 2755 
Q 1159 2438 1159 1844 
L 1159 0 
L 581 0 
L 581 3500 
L 1159 3500 
L 1159 2956 
Q 1341 3275 1631 3429 
Q 1922 3584 2338 3584 
Q 2397 3584 2469 3576 
Q 2541 3569 2628 3553 
L 2631 2963 
z
" id="DejaVuSans-72" transform="scale(0.015625)"/>
       <path d="M 3513 2113 
L 3513 0 
L 2938 0 
L 2938 2094 
Q 2938 2591 2744 2837 
Q 2550 3084 2163 3084 
Q 1697 3084 1428 2787 
Q 1159 2491 1159 1978 
L 1159 0 
L 581 0 
L 581 3500 
L 1159 3500 
L 1159 2956 
Q 1366 3272 1645 3428 
Q 1925 3584 2291 3584 
Q 2894 3584 3203 3211 
Q 3513 2838 3513 2113 
z
" id="DejaVuSans-6e" transform="scale(0.015625)"/>
       <path d="M 1172 4494 
L 1172 3500 
L 2356 3500 
L 2356 3053 
L 1172 3053 
L 1172 1153 
Q 1172 725 1289 603 
Q 1406 481 1766 481 
L 2356 481 
L 2356 0 
L 1766 0 
Q 1100 0 847 248 
Q 594 497 594 1153 
L 594 3053 
L 172 3053 
L 172 3500 
L 594 3500 
L 594 4494 
L 1172 4494 
z
" id="DejaVuSans-74" transform="scale(0.015625)"/>
       <path d="M 513 4856 
L 1013 4856 
Q 1481 4119 1714 3412 
Q 1947 2706 1947 2009 
Q 1947 1309 1714 600 
Q 1481 -109 1013 -844 
L 513 -844 
Q 928 -128 1133 580 
Q 1338 1288 1338 2009 
Q 1338 2731 1133 3434 
Q 928 4138 513 4856 
z
" id="DejaVuSans-29" transform="scale(0.015625)"/>
      </defs>
      <use xlink:href="#DejaVuSans-54"/>
      <use x="57.958984" xlink:href="#DejaVuSans-69"/>
      <use x="85.742188" xlink:href="#DejaVuSans-6d"/>
      <use x="183.154297" xlink:href="#DejaVuSans-65"/>
      <use x="244.677734" xlink:href="#DejaVuSans-20"/>
      <use x="276.464844" xlink:href="#DejaVuSans-28"/>
      <use x="315.478516" xlink:href="#DejaVuSans-68"/>
      <use x="378.857422" xlink:href="#DejaVuSans-6f"/>
      <use x="440.039062" xlink:href="#DejaVuSans-75"/>
      <use x="503.417969" xlink:href="#DejaVuSans-72"/>
      <use x="542.78125" xlink:href="#DejaVuSans-3a"/>
      <use x="576.472656" xlink:href="#DejaVuSans-6d"/>
      <use x="673.884766" xlink:href="#DejaVuSans-69"/>
      <use x="701.667969" xlink:href="#DejaVuSans-6e"/>
      <use x="765.046875" xlink:href="#DejaVuSans-75"/>
      <use x="828.425781" xlink:href="#DejaVuSans-74"/>
      <use x="867.634766" xlink:href="#DejaVuSans-65"/>
      <use x="929.158203" xlink:href="#DejaVuSans-29"/>
     </g>
    </g>
   </g>
   <g id="matplotlib.axis_2">
    <g id="ytick_1">
     <g id="line2d_24">
      <defs>
       <path d="M 0 0 
L -3.5 0 
" id="m9d64586973" style="stroke:#000000;stroke-width:0.8;"/>
      </defs>
      <g>
       <use style="stroke:#000000;stroke-width:0.8;" x="59.690625" xlink:href="#m9d64586973" y="281.342315"/>
      </g>
     </g>
     <g id="text_8">
      <!-- 12500 -->
      <g transform="translate(20.878125 285.141534)scale(0.1 -0.1)">
       <defs>
        <path d="M 691 4666 
L 3169 4666 
L 3169 4134 
L 1269 4134 
L 1269 2991 
Q 1406 3038 1543 3061 
Q 1681 3084 1819 3084 
Q 2600 3084 3056 2656 
Q 3513 2228 3513 1497 
Q 3513 744 3044 326 
Q 2575 -91 1722 -91 
Q 1428 -91 1123 -41 
Q 819 9 494 109 
L 494 744 
Q 775 591 1075 516 
Q 1375 441 1709 441 
Q 2250 441 2565 725 
Q 2881 1009 2881 1497 
Q 2881 1984 2565 2268 
Q 2250 2553 1709 2553 
Q 1456 2553 1204 2497 
Q 953 2441 691 2322 
L 691 4666 
z
" id="DejaVuSans-35" transform="scale(0.015625)"/>
        <path d="M 2034 4250 
Q 1547 4250 1301 3770 
Q 1056 3291 1056 2328 
Q 1056 1369 1301 889 
Q 1547 409 2034 409 
Q 2525 409 2770 889 
Q 3016 1369 3016 2328 
Q 3016 3291 2770 3770 
Q 2525 4250 2034 4250 
z
M 2034 4750 
Q 2819 4750 3233 4129 
Q 3647 3509 3647 2328 
Q 3647 1150 3233 529 
Q 2819 -91 2034 -91 
Q 1250 -91 836 529 
Q 422 1150 422 2328 
Q 422 3509 836 4129 
Q 1250 4750 2034 4750 
z
" id="DejaVuSans-30" transform="scale(0.015625)"/>
       </defs>
       <use xlink:href="#DejaVuSans-31"/>
       <use x="63.623047" xlink:href="#DejaVuSans-32"/>
       <use x="127.246094" xlink:href="#DejaVuSans-35"/>
       <use x="190.869141" xlink:href="#DejaVuSans-30"/>
       <use x="254.492188" xlink:href="#DejaVuSans-30"/>
      </g>
     </g>
    </g>
    <g id="ytick_2">
     <g id="line2d_25">
      <g>
       <use style="stroke:#000000;stroke-width:0.8;" x="59.690625" xlink:href="#m9d64586973" y="250.804572"/>
      </g>
     </g>
     <g id="text_9">
      <!-- 13000 -->
      <g transform="translate(20.878125 254.603791)scale(0.1 -0.1)">
       <use xlink:href="#DejaVuSans-31"/>
       <use x="63.623047" xlink:href="#DejaVuSans-33"/>
       <use x="127.246094" xlink:href="#DejaVuSans-30"/>
       <use x="190.869141" xlink:href="#DejaVuSans-30"/>
       <use x="254.492188" xlink:href="#DejaVuSans-30"/>
      </g>
     </g>
    </g>
    <g id="ytick_3">
     <g id="line2d_26">
      <g>
       <use style="stroke:#000000;stroke-width:0.8;" x="59.690625" xlink:href="#m9d64586973" y="220.266829"/>
      </g>
     </g>
     <g id="text_10">
      <!-- 13500 -->
      <g transform="translate(20.878125 224.066048)scale(0.1 -0.1)">
       <use xlink:href="#DejaVuSans-31"/>
       <use x="63.623047" xlink:href="#DejaVuSans-33"/>
       <use x="127.246094" xlink:href="#DejaVuSans-35"/>
       <use x="190.869141" xlink:href="#DejaVuSans-30"/>
       <use x="254.492188" xlink:href="#DejaVuSans-30"/>
      </g>
     </g>
    </g>
    <g id="ytick_4">
     <g id="line2d_27">
      <g>
       <use style="stroke:#000000;stroke-width:0.8;" x="59.690625" xlink:href="#m9d64586973" y="189.729086"/>
      </g>
     </g>
     <g id="text_11">
      <!-- 14000 -->
      <g transform="translate(20.878125 193.528305)scale(0.1 -0.1)">
       <use xlink:href="#DejaVuSans-31"/>
       <use x="63.623047" xlink:href="#DejaVuSans-34"/>
       <use x="127.246094" xlink:href="#DejaVuSans-30"/>
       <use x="190.869141" xlink:href="#DejaVuSans-30"/>
       <use x="254.492188" xlink:href="#DejaVuSans-30"/>
      </g>
     </g>
    </g>
    <g id="ytick_5">
     <g id="line2d_28">
      <g>
       <use style="stroke:#000000;stroke-width:0.8;" x="59.690625" xlink:href="#m9d64586973" y="159.191343"/>
      </g>
     </g>
     <g id="text_12">
      <!-- 14500 -->
      <g transform="translate(20.878125 162.990562)scale(0.1 -0.1)">
       <use xlink:href="#DejaVuSans-31"/>
       <use x="63.623047" xlink:href="#DejaVuSans-34"/>
       <use x="127.246094" xlink:href="#DejaVuSans-35"/>
       <use x="190.869141" xlink:href="#DejaVuSans-30"/>
       <use x="254.492188" xlink:href="#DejaVuSans-30"/>
      </g>
     </g>
    </g>
    <g id="ytick_6">
     <g id="line2d_29">
      <g>
       <use style="stroke:#000000;stroke-width:0.8;" x="59.690625" xlink:href="#m9d64586973" y="128.6536"/>
      </g>
     </g>
     <g id="text_13">
      <!-- 15000 -->
      <g transform="translate(20.878125 132.452819)scale(0.1 -0.1)">
       <use xlink:href="#DejaVuSans-31"/>
       <use x="63.623047" xlink:href="#DejaVuSans-35"/>
       <use x="127.246094" xlink:href="#DejaVuSans-30"/>
       <use x="190.869141" xlink:href="#DejaVuSans-30"/>
       <use x="254.492188" xlink:href="#DejaVuSans-30"/>
      </g>
     </g>
    </g>
    <g id="ytick_7">
     <g id="line2d_30">
      <g>
       <use style="stroke:#000000;stroke-width:0.8;" x="59.690625" xlink:href="#m9d64586973" y="98.115857"/>
      </g>
     </g>
     <g id="text_14">
      <!-- 15500 -->
      <g transform="translate(20.878125 101.915076)scale(0.1 -0.1)">
       <use xlink:href="#DejaVuSans-31"/>
       <use x="63.623047" xlink:href="#DejaVuSans-35"/>
       <use x="127.246094" xlink:href="#DejaVuSans-35"/>
       <use x="190.869141" xlink:href="#DejaVuSans-30"/>
       <use x="254.492188" xlink:href="#DejaVuSans-30"/>
      </g>
     </g>
    </g>
    <g id="ytick_8">
     <g id="line2d_31">
      <g>
       <use style="stroke:#000000;stroke-width:0.8;" x="59.690625" xlink:href="#m9d64586973" y="67.578114"/>
      </g>
     </g>
     <g id="text_15">
      <!-- 16000 -->
      <g transform="translate(20.878125 71.377333)scale(0.1 -0.1)">
       <use xlink:href="#DejaVuSans-31"/>
       <use x="63.623047" xlink:href="#DejaVuSans-36"/>
       <use x="127.246094" xlink:href="#DejaVuSans-30"/>
       <use x="190.869141" xlink:href="#DejaVuSans-30"/>
       <use x="254.492188" xlink:href="#DejaVuSans-30"/>
      </g>
     </g>
    </g>
    <g id="ytick_9">
     <g id="line2d_32">
      <g>
       <use style="stroke:#000000;stroke-width:0.8;" x="59.690625" xlink:href="#m9d64586973" y="37.040371"/>
      </g>
     </g>
     <g id="text_16">
      <!-- 16500 -->
      <g transform="translate(20.878125 40.83959)scale(0.1 -0.1)">
       <use xlink:href="#DejaVuSans-31"/>
       <use x="63.623047" xlink:href="#DejaVuSans-36"/>
       <use x="127.246094" xlink:href="#DejaVuSans-35"/>
       <use x="190.869141" xlink:href="#DejaVuSans-30"/>
       <use x="254.492188" xlink:href="#DejaVuSans-30"/>
      </g>
     </g>
    </g>
    <g id="text_17">
     <!-- Code region coverage -->
     <g transform="translate(14.798438 210.379594)rotate(-90)scale(0.1 -0.1)">
      <defs>
       <path d="M 4122 4306 
L 4122 3641 
Q 3803 3938 3442 4084 
Q 3081 4231 2675 4231 
Q 1875 4231 1450 3742 
Q 1025 3253 1025 2328 
Q 1025 1406 1450 917 
Q 1875 428 2675 428 
Q 3081 428 3442 575 
Q 3803 722 4122 1019 
L 4122 359 
Q 3791 134 3420 21 
Q 3050 -91 2638 -91 
Q 1578 -91 968 557 
Q 359 1206 359 2328 
Q 359 3453 968 4101 
Q 1578 4750 2638 4750 
Q 3056 4750 3426 4639 
Q 3797 4528 4122 4306 
z
" id="DejaVuSans-43" transform="scale(0.015625)"/>
       <path d="M 2906 2969 
L 2906 4863 
L 3481 4863 
L 3481 0 
L 2906 0 
L 2906 525 
Q 2725 213 2448 61 
Q 2172 -91 1784 -91 
Q 1150 -91 751 415 
Q 353 922 353 1747 
Q 353 2572 751 3078 
Q 1150 3584 1784 3584 
Q 2172 3584 2448 3432 
Q 2725 3281 2906 2969 
z
M 947 1747 
Q 947 1113 1208 752 
Q 1469 391 1925 391 
Q 2381 391 2643 752 
Q 2906 1113 2906 1747 
Q 2906 2381 2643 2742 
Q 2381 3103 1925 3103 
Q 1469 3103 1208 2742 
Q 947 2381 947 1747 
z
" id="DejaVuSans-64" transform="scale(0.015625)"/>
       <path d="M 2906 1791 
Q 2906 2416 2648 2759 
Q 2391 3103 1925 3103 
Q 1463 3103 1205 2759 
Q 947 2416 947 1791 
Q 947 1169 1205 825 
Q 1463 481 1925 481 
Q 2391 481 2648 825 
Q 2906 1169 2906 1791 
z
M 3481 434 
Q 3481 -459 3084 -895 
Q 2688 -1331 1869 -1331 
Q 1566 -1331 1297 -1286 
Q 1028 -1241 775 -1147 
L 775 -588 
Q 1028 -725 1275 -790 
Q 1522 -856 1778 -856 
Q 2344 -856 2625 -561 
Q 2906 -266 2906 331 
L 2906 616 
Q 2728 306 2450 153 
Q 2172 0 1784 0 
Q 1141 0 747 490 
Q 353 981 353 1791 
Q 353 2603 747 3093 
Q 1141 3584 1784 3584 
Q 2172 3584 2450 3431 
Q 2728 3278 2906 2969 
L 2906 3500 
L 3481 3500 
L 3481 434 
z
" id="DejaVuSans-67" transform="scale(0.015625)"/>
       <path d="M 3122 3366 
L 3122 2828 
Q 2878 2963 2633 3030 
Q 2388 3097 2138 3097 
Q 1578 3097 1268 2742 
Q 959 2388 959 1747 
Q 959 1106 1268 751 
Q 1578 397 2138 397 
Q 2388 397 2633 464 
Q 2878 531 3122 666 
L 3122 134 
Q 2881 22 2623 -34 
Q 2366 -91 2075 -91 
Q 1284 -91 818 406 
Q 353 903 353 1747 
Q 353 2603 823 3093 
Q 1294 3584 2113 3584 
Q 2378 3584 2631 3529 
Q 2884 3475 3122 3366 
z
" id="DejaVuSans-63" transform="scale(0.015625)"/>
       <path d="M 191 3500 
L 800 3500 
L 1894 563 
L 2988 3500 
L 3597 3500 
L 2284 0 
L 1503 0 
L 191 3500 
z
" id="DejaVuSans-76" transform="scale(0.015625)"/>
       <path d="M 2194 1759 
Q 1497 1759 1228 1600 
Q 959 1441 959 1056 
Q 959 750 1161 570 
Q 1363 391 1709 391 
Q 2188 391 2477 730 
Q 2766 1069 2766 1631 
L 2766 1759 
L 2194 1759 
z
M 3341 1997 
L 3341 0 
L 2766 0 
L 2766 531 
Q 2569 213 2275 61 
Q 1981 -91 1556 -91 
Q 1019 -91 701 211 
Q 384 513 384 1019 
Q 384 1609 779 1909 
Q 1175 2209 1959 2209 
L 2766 2209 
L 2766 2266 
Q 2766 2663 2505 2880 
Q 2244 3097 1772 3097 
Q 1472 3097 1187 3025 
Q 903 2953 641 2809 
L 641 3341 
Q 956 3463 1253 3523 
Q 1550 3584 1831 3584 
Q 2591 3584 2966 3190 
Q 3341 2797 3341 1997 
z
" id="DejaVuSans-61" transform="scale(0.015625)"/>
      </defs>
      <use xlink:href="#DejaVuSans-43"/>
      <use x="69.824219" xlink:href="#DejaVuSans-6f"/>
      <use x="131.005859" xlink:href="#DejaVuSans-64"/>
      <use x="194.482422" xlink:href="#DejaVuSans-65"/>
      <use x="256.005859" xlink:href="#DejaVuSans-20"/>
      <use x="287.792969" xlink:href="#DejaVuSans-72"/>
      <use x="326.65625" xlink:href="#DejaVuSans-65"/>
      <use x="388.179688" xlink:href="#DejaVuSans-67"/>
      <use x="451.65625" xlink:href="#DejaVuSans-69"/>
      <use x="479.439453" xlink:href="#DejaVuSans-6f"/>
      <use x="540.621094" xlink:href="#DejaVuSans-6e"/>
      <use x="604" xlink:href="#DejaVuSans-20"/>
      <use x="635.787109" xlink:href="#DejaVuSans-63"/>
      <use x="690.767578" xlink:href="#DejaVuSans-6f"/>
      <use x="751.949219" xlink:href="#DejaVuSans-76"/>
      <use x="811.128906" xlink:href="#DejaVuSans-65"/>
      <use x="872.652344" xlink:href="#DejaVuSans-72"/>
      <use x="913.765625" xlink:href="#DejaVuSans-61"/>
      <use x="975.044922" xlink:href="#DejaVuSans-67"/>
      <use x="1038.521484" xlink:href="#DejaVuSans-65"/>
     </g>
    </g>
   </g>
   <g id="line2d_33">
    <path clip-path="url(#p552560becc)" d="M 75.923352 272.60852 
L 125.689806 258.622234 
L 154.801316 240.910343 
L 175.45626 224.908566 
L 191.47748 215.808318 
L 204.567769 208.234958 
L 215.635452 206.830222 
L 225.222714 204.814731 
L 233.679279 203.196231 
L 241.243934 201.363966 
L 248.086996 197.913201 
L 254.334223 193.637917 
L 260.081115 193.821143 
L 265.401906 189.209944 
L 270.355443 187.072302 
L 274.989168 185.698104 
L 279.341883 180.048621 
L 283.445733 175.864951 
L 287.327641 171.589667 
L 291.010388 165.848571 
L 294.513415 158.15306 
L 297.85345 153.14487 
L 301.04499 151.617983 
L 304.100677 144.563764 
L 307.031607 137.387394 
L 309.847569 134.150394 
L 312.557242 133.722865 
L 315.168359 128.531449 
L 317.68784 126.943486 
L 320.121897 124.439391 
L 322.476135 115.705597 
L 324.755622 111.552464 
L 326.96496 111.552464 
L 329.108337 110.819558 
L 331.189579 109.292671 
L 333.212187 106.147283 
L 335.179373 102.391141 
L 337.094095 102.085763 
L 338.959078 100.10081 
L 340.776842 97.779942 
L 342.549717 95.733913 
L 344.279869 95.733913 
L 345.969307 93.779497 
L 347.619904 93.47412 
L 349.233406 90.817336 
L 350.811444 90.328732 
L 352.355542 87.061194 
L 353.867131 85.839684 
L 355.347551 84.740325 
L 356.798061 85.045703 
L 358.219847 78.846541 
L 359.614023 77.930409 
L 360.981642 77.716645 
L 362.323696 76.739437 
L 363.641124 73.441361 
L 364.934813 73.441361 
L 366.205604 73.594049 
L 367.454294 71.670171 
L 368.681636 69.471454 
L 369.888351 69.471454 
L 371.075119 67.486501 
L 372.242589 67.425425 
L 373.391378 70.998341 
L 374.522076 70.723501 
L 375.635243 70.937266 
L 376.731414 70.082209 
L 377.8111 69.288227 
L 378.874791 69.105001 
L 379.922953 67.455963 
L 380.956033 68.249944 
L 381.974459 67.08951 
L 382.978641 67.08951 
L 383.968971 65.593161 
L 384.945827 62.692075 
L 385.909571 62.35616 
L 386.860549 56.4013 
L 387.799096 55.363017 
L 388.725532 54.813337 
L 389.640166 59.607763 
L 390.543295 58.844319 
L 391.435205 56.065385 
L 392.316171 56.523451 
L 393.186458 55.851621 
L 394.046323 55.515705 
L 394.896011 54.630111 
L 395.735761 54.172045 
L 396.565803 44.064052 
L 397.386358 46.812449 
L 398.197642 46.812449 
L 398.99986 46.812449 
L 399.793214 44.430505 
L 400.577898 39.055862 
" style="fill:none;stroke:#1f77b4;stroke-linecap:square;stroke-width:1.5;"/>
    <defs>
     <path d="M 0 3 
C 0.795609 3 1.55874 2.683901 2.12132 2.12132 
C 2.683901 1.55874 3 0.795609 3 0 
C 3 -0.795609 2.683901 -1.55874 2.12132 -2.12132 
C 1.55874 -2.683901 0.795609 -3 0 -3 
C -0.795609 -3 -1.55874 -2.683901 -2.12132 -2.12132 
C -2.683901 -1.55874 -3 -0.795609 -3 0 
C -3 0.795609 -2.683901 1.55874 -2.12132 2.12132 
C -1.55874 2.683901 -0.795609 3 0 3 
z
" id="mb279aac8a3" style="stroke:#ffffff;stroke-width:0.75;"/>
    </defs>
    <g clip-path="url(#p552560becc)">
     <use style="fill:#1f77b4;stroke:#ffffff;stroke-width:0.75;" x="75.923352" xlink:href="#mb279aac8a3" y="272.60852"/>
     <use style="fill:#1f77b4;stroke:#ffffff;stroke-width:0.75;" x="125.689806" xlink:href="#mb279aac8a3" y="258.622234"/>
     <use style="fill:#1f77b4;stroke:#ffffff;stroke-width:0.75;" x="154.801316" xlink:href="#mb279aac8a3" y="240.910343"/>
     <use style="fill:#1f77b4;stroke:#ffffff;stroke-width:0.75;" x="175.45626" xlink:href="#mb279aac8a3" y="224.908566"/>
     <use style="fill:#1f77b4;stroke:#ffffff;stroke-width:0.75;" x="191.47748" xlink:href="#mb279aac8a3" y="215.808318"/>
     <use style="fill:#1f77b4;stroke:#ffffff;stroke-width:0.75;" x="204.567769" xlink:href="#mb279aac8a3" y="208.234958"/>
     <use style="fill:#1f77b4;stroke:#ffffff;stroke-width:0.75;" x="215.635452" xlink:href="#mb279aac8a3" y="206.830222"/>
     <use style="fill:#1f77b4;stroke:#ffffff;stroke-width:0.75;" x="225.222714" xlink:href="#mb279aac8a3" y="204.814731"/>
     <use style="fill:#1f77b4;stroke:#ffffff;stroke-width:0.75;" x="233.679279" xlink:href="#mb279aac8a3" y="203.196231"/>
     <use style="fill:#1f77b4;stroke:#ffffff;stroke-width:0.75;" x="241.243934" xlink:href="#mb279aac8a3" y="201.363966"/>
     <use style="fill:#1f77b4;stroke:#ffffff;stroke-width:0.75;" x="248.086996" xlink:href="#mb279aac8a3" y="197.913201"/>
     <use style="fill:#1f77b4;stroke:#ffffff;stroke-width:0.75;" x="254.334223" xlink:href="#mb279aac8a3" y="193.637917"/>
     <use style="fill:#1f77b4;stroke:#ffffff;stroke-width:0.75;" x="260.081115" xlink:href="#mb279aac8a3" y="193.821143"/>
     <use style="fill:#1f77b4;stroke:#ffffff;stroke-width:0.75;" x="265.401906" xlink:href="#mb279aac8a3" y="189.209944"/>
     <use style="fill:#1f77b4;stroke:#ffffff;stroke-width:0.75;" x="270.355443" xlink:href="#mb279aac8a3" y="187.072302"/>
     <use style="fill:#1f77b4;stroke:#ffffff;stroke-width:0.75;" x="274.989168" xlink:href="#mb279aac8a3" y="185.698104"/>
     <use style="fill:#1f77b4;stroke:#ffffff;stroke-width:0.75;" x="279.341883" xlink:href="#mb279aac8a3" y="180.048621"/>
     <use style="fill:#1f77b4;stroke:#ffffff;stroke-width:0.75;" x="283.445733" xlink:href="#mb279aac8a3" y="175.864951"/>
     <use style="fill:#1f77b4;stroke:#ffffff;stroke-width:0.75;" x="287.327641" xlink:href="#mb279aac8a3" y="171.589667"/>
     <use style="fill:#1f77b4;stroke:#ffffff;stroke-width:0.75;" x="291.010388" xlink:href="#mb279aac8a3" y="165.848571"/>
     <use style="fill:#1f77b4;stroke:#ffffff;stroke-width:0.75;" x="294.513415" xlink:href="#mb279aac8a3" y="158.15306"/>
     <use style="fill:#1f77b4;stroke:#ffffff;stroke-width:0.75;" x="297.85345" xlink:href="#mb279aac8a3" y="153.14487"/>
     <use style="fill:#1f77b4;stroke:#ffffff;stroke-width:0.75;" x="301.04499" xlink:href="#mb279aac8a3" y="151.617983"/>
     <use style="fill:#1f77b4;stroke:#ffffff;stroke-width:0.75;" x="304.100677" xlink:href="#mb279aac8a3" y="144.563764"/>
     <use style="fill:#1f77b4;stroke:#ffffff;stroke-width:0.75;" x="307.031607" xlink:href="#mb279aac8a3" y="137.387394"/>
     <use style="fill:#1f77b4;stroke:#ffffff;stroke-width:0.75;" x="309.847569" xlink:href="#mb279aac8a3" y="134.150394"/>
     <use style="fill:#1f77b4;stroke:#ffffff;stroke-width:0.75;" x="312.557242" xlink:href="#mb279aac8a3" y="133.722865"/>
     <use style="fill:#1f77b4;stroke:#ffffff;stroke-width:0.75;" x="315.168359" xlink:href="#mb279aac8a3" y="128.531449"/>
     <use style="fill:#1f77b4;stroke:#ffffff;stroke-width:0.75;" x="317.68784" xlink:href="#mb279aac8a3" y="126.943486"/>
     <use style="fill:#1f77b4;stroke:#ffffff;stroke-width:0.75;" x="320.121897" xlink:href="#mb279aac8a3" y="124.439391"/>
     <use style="fill:#1f77b4;stroke:#ffffff;stroke-width:0.75;" x="322.476135" xlink:href="#mb279aac8a3" y="115.705597"/>
     <use style="fill:#1f77b4;stroke:#ffffff;stroke-width:0.75;" x="324.755622" xlink:href="#mb279aac8a3" y="111.552464"/>
     <use style="fill:#1f77b4;stroke:#ffffff;stroke-width:0.75;" x="326.96496" xlink:href="#mb279aac8a3" y="111.552464"/>
     <use style="fill:#1f77b4;stroke:#ffffff;stroke-width:0.75;" x="329.108337" xlink:href="#mb279aac8a3" y="110.819558"/>
     <use style="fill:#1f77b4;stroke:#ffffff;stroke-width:0.75;" x="331.189579" xlink:href="#mb279aac8a3" y="109.292671"/>
     <use style="fill:#1f77b4;stroke:#ffffff;stroke-width:0.75;" x="333.212187" xlink:href="#mb279aac8a3" y="106.147283"/>
     <use style="fill:#1f77b4;stroke:#ffffff;stroke-width:0.75;" x="335.179373" xlink:href="#mb279aac8a3" y="102.391141"/>
     <use style="fill:#1f77b4;stroke:#ffffff;stroke-width:0.75;" x="337.094095" xlink:href="#mb279aac8a3" y="102.085763"/>
     <use style="fill:#1f77b4;stroke:#ffffff;stroke-width:0.75;" x="338.959078" xlink:href="#mb279aac8a3" y="100.10081"/>
     <use style="fill:#1f77b4;stroke:#ffffff;stroke-width:0.75;" x="340.776842" xlink:href="#mb279aac8a3" y="97.779942"/>
     <use style="fill:#1f77b4;stroke:#ffffff;stroke-width:0.75;" x="342.549717" xlink:href="#mb279aac8a3" y="95.733913"/>
     <use style="fill:#1f77b4;stroke:#ffffff;stroke-width:0.75;" x="344.279869" xlink:href="#mb279aac8a3" y="95.733913"/>
     <use style="fill:#1f77b4;stroke:#ffffff;stroke-width:0.75;" x="345.969307" xlink:href="#mb279aac8a3" y="93.779497"/>
     <use style="fill:#1f77b4;stroke:#ffffff;stroke-width:0.75;" x="347.619904" xlink:href="#mb279aac8a3" y="93.47412"/>
     <use style="fill:#1f77b4;stroke:#ffffff;stroke-width:0.75;" x="349.233406" xlink:href="#mb279aac8a3" y="90.817336"/>
     <use style="fill:#1f77b4;stroke:#ffffff;stroke-width:0.75;" x="350.811444" xlink:href="#mb279aac8a3" y="90.328732"/>
     <use style="fill:#1f77b4;stroke:#ffffff;stroke-width:0.75;" x="352.355542" xlink:href="#mb279aac8a3" y="87.061194"/>
     <use style="fill:#1f77b4;stroke:#ffffff;stroke-width:0.75;" x="353.867131" xlink:href="#mb279aac8a3" y="85.839684"/>
     <use style="fill:#1f77b4;stroke:#ffffff;stroke-width:0.75;" x="355.347551" xlink:href="#mb279aac8a3" y="84.740325"/>
     <use style="fill:#1f77b4;stroke:#ffffff;stroke-width:0.75;" x="356.798061" xlink:href="#mb279aac8a3" y="85.045703"/>
     <use style="fill:#1f77b4;stroke:#ffffff;stroke-width:0.75;" x="358.219847" xlink:href="#mb279aac8a3" y="78.846541"/>
     <use style="fill:#1f77b4;stroke:#ffffff;stroke-width:0.75;" x="359.614023" xlink:href="#mb279aac8a3" y="77.930409"/>
     <use style="fill:#1f77b4;stroke:#ffffff;stroke-width:0.75;" x="360.981642" xlink:href="#mb279aac8a3" y="77.716645"/>
     <use style="fill:#1f77b4;stroke:#ffffff;stroke-width:0.75;" x="362.323696" xlink:href="#mb279aac8a3" y="76.739437"/>
     <use style="fill:#1f77b4;stroke:#ffffff;stroke-width:0.75;" x="363.641124" xlink:href="#mb279aac8a3" y="73.441361"/>
     <use style="fill:#1f77b4;stroke:#ffffff;stroke-width:0.75;" x="364.934813" xlink:href="#mb279aac8a3" y="73.441361"/>
     <use style="fill:#1f77b4;stroke:#ffffff;stroke-width:0.75;" x="366.205604" xlink:href="#mb279aac8a3" y="73.594049"/>
     <use style="fill:#1f77b4;stroke:#ffffff;stroke-width:0.75;" x="367.454294" xlink:href="#mb279aac8a3" y="71.670171"/>
     <use style="fill:#1f77b4;stroke:#ffffff;stroke-width:0.75;" x="368.681636" xlink:href="#mb279aac8a3" y="69.471454"/>
     <use style="fill:#1f77b4;stroke:#ffffff;stroke-width:0.75;" x="369.888351" xlink:href="#mb279aac8a3" y="69.471454"/>
     <use style="fill:#1f77b4;stroke:#ffffff;stroke-width:0.75;" x="371.075119" xlink:href="#mb279aac8a3" y="67.486501"/>
     <use style="fill:#1f77b4;stroke:#ffffff;stroke-width:0.75;" x="372.242589" xlink:href="#mb279aac8a3" y="67.425425"/>
     <use style="fill:#1f77b4;stroke:#ffffff;stroke-width:0.75;" x="373.391378" xlink:href="#mb279aac8a3" y="70.998341"/>
     <use style="fill:#1f77b4;stroke:#ffffff;stroke-width:0.75;" x="374.522076" xlink:href="#mb279aac8a3" y="70.723501"/>
     <use style="fill:#1f77b4;stroke:#ffffff;stroke-width:0.75;" x="375.635243" xlink:href="#mb279aac8a3" y="70.937266"/>
     <use style="fill:#1f77b4;stroke:#ffffff;stroke-width:0.75;" x="376.731414" xlink:href="#mb279aac8a3" y="70.082209"/>
     <use style="fill:#1f77b4;stroke:#ffffff;stroke-width:0.75;" x="377.8111" xlink:href="#mb279aac8a3" y="69.288227"/>
     <use style="fill:#1f77b4;stroke:#ffffff;stroke-width:0.75;" x="378.874791" xlink:href="#mb279aac8a3" y="69.105001"/>
     <use style="fill:#1f77b4;stroke:#ffffff;stroke-width:0.75;" x="379.922953" xlink:href="#mb279aac8a3" y="67.455963"/>
     <use style="fill:#1f77b4;stroke:#ffffff;stroke-width:0.75;" x="380.956033" xlink:href="#mb279aac8a3" y="68.249944"/>
     <use style="fill:#1f77b4;stroke:#ffffff;stroke-width:0.75;" x="381.974459" xlink:href="#mb279aac8a3" y="67.08951"/>
     <use style="fill:#1f77b4;stroke:#ffffff;stroke-width:0.75;" x="382.978641" xlink:href="#mb279aac8a3" y="67.08951"/>
     <use style="fill:#1f77b4;stroke:#ffffff;stroke-width:0.75;" x="383.968971" xlink:href="#mb279aac8a3" y="65.593161"/>
     <use style="fill:#1f77b4;stroke:#ffffff;stroke-width:0.75;" x="384.945827" xlink:href="#mb279aac8a3" y="62.692075"/>
     <use style="fill:#1f77b4;stroke:#ffffff;stroke-width:0.75;" x="385.909571" xlink:href="#mb279aac8a3" y="62.35616"/>
     <use style="fill:#1f77b4;stroke:#ffffff;stroke-width:0.75;" x="386.860549" xlink:href="#mb279aac8a3" y="56.4013"/>
     <use style="fill:#1f77b4;stroke:#ffffff;stroke-width:0.75;" x="387.799096" xlink:href="#mb279aac8a3" y="55.363017"/>
     <use style="fill:#1f77b4;stroke:#ffffff;stroke-width:0.75;" x="388.725532" xlink:href="#mb279aac8a3" y="54.813337"/>
     <use style="fill:#1f77b4;stroke:#ffffff;stroke-width:0.75;" x="389.640166" xlink:href="#mb279aac8a3" y="59.607763"/>
     <use style="fill:#1f77b4;stroke:#ffffff;stroke-width:0.75;" x="390.543295" xlink:href="#mb279aac8a3" y="58.844319"/>
     <use style="fill:#1f77b4;stroke:#ffffff;stroke-width:0.75;" x="391.435205" xlink:href="#mb279aac8a3" y="56.065385"/>
     <use style="fill:#1f77b4;stroke:#ffffff;stroke-width:0.75;" x="392.316171" xlink:href="#mb279aac8a3" y="56.523451"/>
     <use style="fill:#1f77b4;stroke:#ffffff;stroke-width:0.75;" x="393.186458" xlink:href="#mb279aac8a3" y="55.851621"/>
     <use style="fill:#1f77b4;stroke:#ffffff;stroke-width:0.75;" x="394.046323" xlink:href="#mb279aac8a3" y="55.515705"/>
     <use style="fill:#1f77b4;stroke:#ffffff;stroke-width:0.75;" x="394.896011" xlink:href="#mb279aac8a3" y="54.630111"/>
     <use style="fill:#1f77b4;stroke:#ffffff;stroke-width:0.75;" x="395.735761" xlink:href="#mb279aac8a3" y="54.172045"/>
     <use style="fill:#1f77b4;stroke:#ffffff;stroke-width:0.75;" x="396.565803" xlink:href="#mb279aac8a3" y="44.064052"/>
     <use style="fill:#1f77b4;stroke:#ffffff;stroke-width:0.75;" x="397.386358" xlink:href="#mb279aac8a3" y="46.812449"/>
     <use style="fill:#1f77b4;stroke:#ffffff;stroke-width:0.75;" x="398.197642" xlink:href="#mb279aac8a3" y="46.812449"/>
     <use style="fill:#1f77b4;stroke:#ffffff;stroke-width:0.75;" x="398.99986" xlink:href="#mb279aac8a3" y="46.812449"/>
     <use style="fill:#1f77b4;stroke:#ffffff;stroke-width:0.75;" x="399.793214" xlink:href="#mb279aac8a3" y="44.430505"/>
     <use style="fill:#1f77b4;stroke:#ffffff;stroke-width:0.75;" x="400.577898" xlink:href="#mb279aac8a3" y="39.055862"/>
    </g>
   </g>
   <g id="line2d_34">
    <path clip-path="url(#p552560becc)" d="M 75.923352 272.852822 
L 125.689806 259.660517 
L 154.801316 245.307778 
L 175.45626 235.627314 
L 191.47748 229.519765 
L 204.567769 226.985132 
L 215.635452 222.709848 
L 225.222714 217.701658 
L 233.679279 211.227657 
L 241.243934 206.127854 
L 248.086996 201.180739 
L 254.334223 197.729975 
L 260.081115 193.454691 
L 265.401906 186.278321 
L 270.355443 177.697215 
L 274.989168 173.483007 
L 279.341883 170.917836 
L 283.445733 167.864062 
L 287.327641 161.817589 
L 291.010388 157.389616 
L 294.513415 156.198644 
L 297.85345 156.320795 
L 301.04499 152.106586 
L 304.100677 144.594302 
L 307.031607 138.242451 
L 309.847569 137.082017 
L 312.557242 134.700073 
L 315.168359 133.539639 
L 317.68784 131.21877 
L 320.121897 127.248864 
L 322.476135 126.882411 
L 324.755622 124.775307 
L 326.96496 123.767561 
L 329.108337 123.706486 
L 331.189579 125.233373 
L 333.212187 124.225627 
L 335.179373 121.813145 
L 337.094095 121.446693 
L 338.959078 121.446693 
L 340.776842 120.774862 
L 342.549717 120.774862 
L 344.279869 120.041956 
L 345.969307 111.73569 
L 347.619904 111.73569 
L 349.233406 116.346889 
L 350.811444 114.758927 
L 352.355542 114.697851 
L 353.867131 109.109444 
L 355.347551 108.49869 
L 356.798061 106.758038 
L 358.219847 105.353302 
L 359.614023 104.101255 
L 360.981642 106.177821 
L 362.323696 105.811368 
L 363.641124 104.589858 
L 364.934813 101.658235 
L 366.205604 100.497801 
L 367.454294 100.497801 
L 368.681636 97.963168 
L 369.888351 98.970914 
L 371.075119 98.970914 
L 372.242589 98.970914 
L 373.391378 96.98596 
L 374.522076 96.802734 
L 375.635243 98.970914 
L 376.731414 96.466819 
L 377.8111 96.008753 
L 378.874791 91.977771 
L 379.922953 91.825082 
L 380.956033 88.679694 
L 381.974459 88.19109 
L 382.978641 87.671949 
L 383.968971 88.160553 
L 384.945827 87.977326 
L 385.909571 86.114524 
L 386.860549 85.717533 
L 387.799096 85.534307 
L 388.725532 85.320543 
L 389.640166 85.198392 
L 390.543295 85.839684 
L 391.435205 85.228929 
L 392.316171 85.228929 
L 393.186458 83.946344 
L 394.046323 82.327844 
L 394.896011 82.053004 
L 395.735761 80.61773 
L 396.565803 79.487834 
L 397.386358 79.365683 
L 398.197642 80.648268 
L 398.99986 79.548909 
L 399.793214 79.335145 
L 400.577898 78.785466 
" style="fill:none;stroke:#d62728;stroke-linecap:square;stroke-width:1.5;"/>
    <defs>
     <path d="M 0 -3 
L -3 3 
L 3 3 
z
" id="ma6b37d3a62" style="stroke:#ffffff;stroke-linejoin:miter;stroke-width:0.75;"/>
    </defs>
    <g clip-path="url(#p552560becc)">
     <use style="fill:#d62728;stroke:#ffffff;stroke-linejoin:miter;stroke-width:0.75;" x="75.923352" xlink:href="#ma6b37d3a62" y="272.852822"/>
     <use style="fill:#d62728;stroke:#ffffff;stroke-linejoin:miter;stroke-width:0.75;" x="125.689806" xlink:href="#ma6b37d3a62" y="259.660517"/>
     <use style="fill:#d62728;stroke:#ffffff;stroke-linejoin:miter;stroke-width:0.75;" x="154.801316" xlink:href="#ma6b37d3a62" y="245.307778"/>
     <use style="fill:#d62728;stroke:#ffffff;stroke-linejoin:miter;stroke-width:0.75;" x="175.45626" xlink:href="#ma6b37d3a62" y="235.627314"/>
     <use style="fill:#d62728;stroke:#ffffff;stroke-linejoin:miter;stroke-width:0.75;" x="191.47748" xlink:href="#ma6b37d3a62" y="229.519765"/>
     <use style="fill:#d62728;stroke:#ffffff;stroke-linejoin:miter;stroke-width:0.75;" x="204.567769" xlink:href="#ma6b37d3a62" y="226.985132"/>
     <use style="fill:#d62728;stroke:#ffffff;stroke-linejoin:miter;stroke-width:0.75;" x="215.635452" xlink:href="#ma6b37d3a62" y="222.709848"/>
     <use style="fill:#d62728;stroke:#ffffff;stroke-linejoin:miter;stroke-width:0.75;" x="225.222714" xlink:href="#ma6b37d3a62" y="217.701658"/>
     <use style="fill:#d62728;stroke:#ffffff;stroke-linejoin:miter;stroke-width:0.75;" x="233.679279" xlink:href="#ma6b37d3a62" y="211.227657"/>
     <use style="fill:#d62728;stroke:#ffffff;stroke-linejoin:miter;stroke-width:0.75;" x="241.243934" xlink:href="#ma6b37d3a62" y="206.127854"/>
     <use style="fill:#d62728;stroke:#ffffff;stroke-linejoin:miter;stroke-width:0.75;" x="248.086996" xlink:href="#ma6b37d3a62" y="201.180739"/>
     <use style="fill:#d62728;stroke:#ffffff;stroke-linejoin:miter;stroke-width:0.75;" x="254.334223" xlink:href="#ma6b37d3a62" y="197.729975"/>
     <use style="fill:#d62728;stroke:#ffffff;stroke-linejoin:miter;stroke-width:0.75;" x="260.081115" xlink:href="#ma6b37d3a62" y="193.454691"/>
     <use style="fill:#d62728;stroke:#ffffff;stroke-linejoin:miter;stroke-width:0.75;" x="265.401906" xlink:href="#ma6b37d3a62" y="186.278321"/>
     <use style="fill:#d62728;stroke:#ffffff;stroke-linejoin:miter;stroke-width:0.75;" x="270.355443" xlink:href="#ma6b37d3a62" y="177.697215"/>
     <use style="fill:#d62728;stroke:#ffffff;stroke-linejoin:miter;stroke-width:0.75;" x="274.989168" xlink:href="#ma6b37d3a62" y="173.483007"/>
     <use style="fill:#d62728;stroke:#ffffff;stroke-linejoin:miter;stroke-width:0.75;" x="279.341883" xlink:href="#ma6b37d3a62" y="170.917836"/>
     <use style="fill:#d62728;stroke:#ffffff;stroke-linejoin:miter;stroke-width:0.75;" x="283.445733" xlink:href="#ma6b37d3a62" y="167.864062"/>
     <use style="fill:#d62728;stroke:#ffffff;stroke-linejoin:miter;stroke-width:0.75;" x="287.327641" xlink:href="#ma6b37d3a62" y="161.817589"/>
     <use style="fill:#d62728;stroke:#ffffff;stroke-linejoin:miter;stroke-width:0.75;" x="291.010388" xlink:href="#ma6b37d3a62" y="157.389616"/>
     <use style="fill:#d62728;stroke:#ffffff;stroke-linejoin:miter;stroke-width:0.75;" x="294.513415" xlink:href="#ma6b37d3a62" y="156.198644"/>
     <use style="fill:#d62728;stroke:#ffffff;stroke-linejoin:miter;stroke-width:0.75;" x="297.85345" xlink:href="#ma6b37d3a62" y="156.320795"/>
     <use style="fill:#d62728;stroke:#ffffff;stroke-linejoin:miter;stroke-width:0.75;" x="301.04499" xlink:href="#ma6b37d3a62" y="152.106586"/>
     <use style="fill:#d62728;stroke:#ffffff;stroke-linejoin:miter;stroke-width:0.75;" x="304.100677" xlink:href="#ma6b37d3a62" y="144.594302"/>
     <use style="fill:#d62728;stroke:#ffffff;stroke-linejoin:miter;stroke-width:0.75;" x="307.031607" xlink:href="#ma6b37d3a62" y="138.242451"/>
     <use style="fill:#d62728;stroke:#ffffff;stroke-linejoin:miter;stroke-width:0.75;" x="309.847569" xlink:href="#ma6b37d3a62" y="137.082017"/>
     <use style="fill:#d62728;stroke:#ffffff;stroke-linejoin:miter;stroke-width:0.75;" x="312.557242" xlink:href="#ma6b37d3a62" y="134.700073"/>
     <use style="fill:#d62728;stroke:#ffffff;stroke-linejoin:miter;stroke-width:0.75;" x="315.168359" xlink:href="#ma6b37d3a62" y="133.539639"/>
     <use style="fill:#d62728;stroke:#ffffff;stroke-linejoin:miter;stroke-width:0.75;" x="317.68784" xlink:href="#ma6b37d3a62" y="131.21877"/>
     <use style="fill:#d62728;stroke:#ffffff;stroke-linejoin:miter;stroke-width:0.75;" x="320.121897" xlink:href="#ma6b37d3a62" y="127.248864"/>
     <use style="fill:#d62728;stroke:#ffffff;stroke-linejoin:miter;stroke-width:0.75;" x="322.476135" xlink:href="#ma6b37d3a62" y="126.882411"/>
     <use style="fill:#d62728;stroke:#ffffff;stroke-linejoin:miter;stroke-width:0.75;" x="324.755622" xlink:href="#ma6b37d3a62" y="124.775307"/>
     <use style="fill:#d62728;stroke:#ffffff;stroke-linejoin:miter;stroke-width:0.75;" x="326.96496" xlink:href="#ma6b37d3a62" y="123.767561"/>
     <use style="fill:#d62728;stroke:#ffffff;stroke-linejoin:miter;stroke-width:0.75;" x="329.108337" xlink:href="#ma6b37d3a62" y="123.706486"/>
     <use style="fill:#d62728;stroke:#ffffff;stroke-linejoin:miter;stroke-width:0.75;" x="331.189579" xlink:href="#ma6b37d3a62" y="125.233373"/>
     <use style="fill:#d62728;stroke:#ffffff;stroke-linejoin:miter;stroke-width:0.75;" x="333.212187" xlink:href="#ma6b37d3a62" y="124.225627"/>
     <use style="fill:#d62728;stroke:#ffffff;stroke-linejoin:miter;stroke-width:0.75;" x="335.179373" xlink:href="#ma6b37d3a62" y="121.813145"/>
     <use style="fill:#d62728;stroke:#ffffff;stroke-linejoin:miter;stroke-width:0.75;" x="337.094095" xlink:href="#ma6b37d3a62" y="121.446693"/>
     <use style="fill:#d62728;stroke:#ffffff;stroke-linejoin:miter;stroke-width:0.75;" x="338.959078" xlink:href="#ma6b37d3a62" y="121.446693"/>
     <use style="fill:#d62728;stroke:#ffffff;stroke-linejoin:miter;stroke-width:0.75;" x="340.776842" xlink:href="#ma6b37d3a62" y="120.774862"/>
     <use style="fill:#d62728;stroke:#ffffff;stroke-linejoin:miter;stroke-width:0.75;" x="342.549717" xlink:href="#ma6b37d3a62" y="120.774862"/>
     <use style="fill:#d62728;stroke:#ffffff;stroke-linejoin:miter;stroke-width:0.75;" x="344.279869" xlink:href="#ma6b37d3a62" y="120.041956"/>
     <use style="fill:#d62728;stroke:#ffffff;stroke-linejoin:miter;stroke-width:0.75;" x="345.969307" xlink:href="#ma6b37d3a62" y="111.73569"/>
     <use style="fill:#d62728;stroke:#ffffff;stroke-linejoin:miter;stroke-width:0.75;" x="347.619904" xlink:href="#ma6b37d3a62" y="111.73569"/>
     <use style="fill:#d62728;stroke:#ffffff;stroke-linejoin:miter;stroke-width:0.75;" x="349.233406" xlink:href="#ma6b37d3a62" y="116.346889"/>
     <use style="fill:#d62728;stroke:#ffffff;stroke-linejoin:miter;stroke-width:0.75;" x="350.811444" xlink:href="#ma6b37d3a62" y="114.758927"/>
     <use style="fill:#d62728;stroke:#ffffff;stroke-linejoin:miter;stroke-width:0.75;" x="352.355542" xlink:href="#ma6b37d3a62" y="114.697851"/>
     <use style="fill:#d62728;stroke:#ffffff;stroke-linejoin:miter;stroke-width:0.75;" x="353.867131" xlink:href="#ma6b37d3a62" y="109.109444"/>
     <use style="fill:#d62728;stroke:#ffffff;stroke-linejoin:miter;stroke-width:0.75;" x="355.347551" xlink:href="#ma6b37d3a62" y="108.49869"/>
     <use style="fill:#d62728;stroke:#ffffff;stroke-linejoin:miter;stroke-width:0.75;" x="356.798061" xlink:href="#ma6b37d3a62" y="106.758038"/>
     <use style="fill:#d62728;stroke:#ffffff;stroke-linejoin:miter;stroke-width:0.75;" x="358.219847" xlink:href="#ma6b37d3a62" y="105.353302"/>
     <use style="fill:#d62728;stroke:#ffffff;stroke-linejoin:miter;stroke-width:0.75;" x="359.614023" xlink:href="#ma6b37d3a62" y="104.101255"/>
     <use style="fill:#d62728;stroke:#ffffff;stroke-linejoin:miter;stroke-width:0.75;" x="360.981642" xlink:href="#ma6b37d3a62" y="106.177821"/>
     <use style="fill:#d62728;stroke:#ffffff;stroke-linejoin:miter;stroke-width:0.75;" x="362.323696" xlink:href="#ma6b37d3a62" y="105.811368"/>
     <use style="fill:#d62728;stroke:#ffffff;stroke-linejoin:miter;stroke-width:0.75;" x="363.641124" xlink:href="#ma6b37d3a62" y="104.589858"/>
     <use style="fill:#d62728;stroke:#ffffff;stroke-linejoin:miter;stroke-width:0.75;" x="364.934813" xlink:href="#ma6b37d3a62" y="101.658235"/>
     <use style="fill:#d62728;stroke:#ffffff;stroke-linejoin:miter;stroke-width:0.75;" x="366.205604" xlink:href="#ma6b37d3a62" y="100.497801"/>
     <use style="fill:#d62728;stroke:#ffffff;stroke-linejoin:miter;stroke-width:0.75;" x="367.454294" xlink:href="#ma6b37d3a62" y="100.497801"/>
     <use style="fill:#d62728;stroke:#ffffff;stroke-linejoin:miter;stroke-width:0.75;" x="368.681636" xlink:href="#ma6b37d3a62" y="97.963168"/>
     <use style="fill:#d62728;stroke:#ffffff;stroke-linejoin:miter;stroke-width:0.75;" x="369.888351" xlink:href="#ma6b37d3a62" y="98.970914"/>
     <use style="fill:#d62728;stroke:#ffffff;stroke-linejoin:miter;stroke-width:0.75;" x="371.075119" xlink:href="#ma6b37d3a62" y="98.970914"/>
     <use style="fill:#d62728;stroke:#ffffff;stroke-linejoin:miter;stroke-width:0.75;" x="372.242589" xlink:href="#ma6b37d3a62" y="98.970914"/>
     <use style="fill:#d62728;stroke:#ffffff;stroke-linejoin:miter;stroke-width:0.75;" x="373.391378" xlink:href="#ma6b37d3a62" y="96.98596"/>
     <use style="fill:#d62728;stroke:#ffffff;stroke-linejoin:miter;stroke-width:0.75;" x="374.522076" xlink:href="#ma6b37d3a62" y="96.802734"/>
     <use style="fill:#d62728;stroke:#ffffff;stroke-linejoin:miter;stroke-width:0.75;" x="375.635243" xlink:href="#ma6b37d3a62" y="98.970914"/>
     <use style="fill:#d62728;stroke:#ffffff;stroke-linejoin:miter;stroke-width:0.75;" x="376.731414" xlink:href="#ma6b37d3a62" y="96.466819"/>
     <use style="fill:#d62728;stroke:#ffffff;stroke-linejoin:miter;stroke-width:0.75;" x="377.8111" xlink:href="#ma6b37d3a62" y="96.008753"/>
     <use style="fill:#d62728;stroke:#ffffff;stroke-linejoin:miter;stroke-width:0.75;" x="378.874791" xlink:href="#ma6b37d3a62" y="91.977771"/>
     <use style="fill:#d62728;stroke:#ffffff;stroke-linejoin:miter;stroke-width:0.75;" x="379.922953" xlink:href="#ma6b37d3a62" y="91.825082"/>
     <use style="fill:#d62728;stroke:#ffffff;stroke-linejoin:miter;stroke-width:0.75;" x="380.956033" xlink:href="#ma6b37d3a62" y="88.679694"/>
     <use style="fill:#d62728;stroke:#ffffff;stroke-linejoin:miter;stroke-width:0.75;" x="381.974459" xlink:href="#ma6b37d3a62" y="88.19109"/>
     <use style="fill:#d62728;stroke:#ffffff;stroke-linejoin:miter;stroke-width:0.75;" x="382.978641" xlink:href="#ma6b37d3a62" y="87.671949"/>
     <use style="fill:#d62728;stroke:#ffffff;stroke-linejoin:miter;stroke-width:0.75;" x="383.968971" xlink:href="#ma6b37d3a62" y="88.160553"/>
     <use style="fill:#d62728;stroke:#ffffff;stroke-linejoin:miter;stroke-width:0.75;" x="384.945827" xlink:href="#ma6b37d3a62" y="87.977326"/>
     <use style="fill:#d62728;stroke:#ffffff;stroke-linejoin:miter;stroke-width:0.75;" x="385.909571" xlink:href="#ma6b37d3a62" y="86.114524"/>
     <use style="fill:#d62728;stroke:#ffffff;stroke-linejoin:miter;stroke-width:0.75;" x="386.860549" xlink:href="#ma6b37d3a62" y="85.717533"/>
     <use style="fill:#d62728;stroke:#ffffff;stroke-linejoin:miter;stroke-width:0.75;" x="387.799096" xlink:href="#ma6b37d3a62" y="85.534307"/>
     <use style="fill:#d62728;stroke:#ffffff;stroke-linejoin:miter;stroke-width:0.75;" x="388.725532" xlink:href="#ma6b37d3a62" y="85.320543"/>
     <use style="fill:#d62728;stroke:#ffffff;stroke-linejoin:miter;stroke-width:0.75;" x="389.640166" xlink:href="#ma6b37d3a62" y="85.198392"/>
     <use style="fill:#d62728;stroke:#ffffff;stroke-linejoin:miter;stroke-width:0.75;" x="390.543295" xlink:href="#ma6b37d3a62" y="85.839684"/>
     <use style="fill:#d62728;stroke:#ffffff;stroke-linejoin:miter;stroke-width:0.75;" x="391.435205" xlink:href="#ma6b37d3a62" y="85.228929"/>
     <use style="fill:#d62728;stroke:#ffffff;stroke-linejoin:miter;stroke-width:0.75;" x="392.316171" xlink:href="#ma6b37d3a62" y="85.228929"/>
     <use style="fill:#d62728;stroke:#ffffff;stroke-linejoin:miter;stroke-width:0.75;" x="393.186458" xlink:href="#ma6b37d3a62" y="83.946344"/>
     <use style="fill:#d62728;stroke:#ffffff;stroke-linejoin:miter;stroke-width:0.75;" x="394.046323" xlink:href="#ma6b37d3a62" y="82.327844"/>
     <use style="fill:#d62728;stroke:#ffffff;stroke-linejoin:miter;stroke-width:0.75;" x="394.896011" xlink:href="#ma6b37d3a62" y="82.053004"/>
     <use style="fill:#d62728;stroke:#ffffff;stroke-linejoin:miter;stroke-width:0.75;" x="395.735761" xlink:href="#ma6b37d3a62" y="80.61773"/>
     <use style="fill:#d62728;stroke:#ffffff;stroke-linejoin:miter;stroke-width:0.75;" x="396.565803" xlink:href="#ma6b37d3a62" y="79.487834"/>
     <use style="fill:#d62728;stroke:#ffffff;stroke-linejoin:miter;stroke-width:0.75;" x="397.386358" xlink:href="#ma6b37d3a62" y="79.365683"/>
     <use style="fill:#d62728;stroke:#ffffff;stroke-linejoin:miter;stroke-width:0.75;" x="398.197642" xlink:href="#ma6b37d3a62" y="80.648268"/>
     <use style="fill:#d62728;stroke:#ffffff;stroke-linejoin:miter;stroke-width:0.75;" x="398.99986" xlink:href="#ma6b37d3a62" y="79.548909"/>
     <use style="fill:#d62728;stroke:#ffffff;stroke-linejoin:miter;stroke-width:0.75;" x="399.793214" xlink:href="#ma6b37d3a62" y="79.335145"/>
     <use style="fill:#d62728;stroke:#ffffff;stroke-linejoin:miter;stroke-width:0.75;" x="400.577898" xlink:href="#ma6b37d3a62" y="78.785466"/>
    </g>
   </g>
   <g id="line2d_35">
    <path clip-path="url(#p552560becc)" d="M 75.923352 274.624011 
L 125.689806 269.249369 
L 154.801316 264.302254 
L 175.45626 256.851045 
L 191.47748 250.132742 
L 204.567769 249.827364 
L 215.635452 248.086713 
L 225.222714 242.009702 
L 233.679279 239.108616 
L 241.243934 237.245814 
L 248.086996 236.818286 
L 254.334223 234.130964 
L 260.081115 231.321492 
L 265.401906 231.199341 
L 270.355443 230.222133 
L 274.989168 229.886218 
L 279.341883 228.450944 
L 283.445733 227.931802 
L 287.327641 227.168359 
L 291.010388 226.74083 
L 294.513415 225.641472 
L 297.85345 224.419962 
L 301.04499 224.419962 
L 304.100677 222.831999 
L 307.031607 222.770924 
L 309.847569 222.648773 
L 312.557242 221.61049 
L 315.168359 221.61049 
L 317.68784 219.778225 
L 320.121897 218.190262 
L 322.476135 217.151979 
L 324.755622 216.296922 
L 326.96496 215.747243 
L 329.108337 214.770035 
L 331.189579 214.586809 
L 333.212187 213.609601 
L 335.179373 213.151535 
L 337.094095 212.937771 
L 338.959078 211.807874 
L 340.776842 209.090015 
L 342.549717 207.929581 
L 344.279869 207.868505 
L 345.969307 208.7541 
L 347.619904 208.20442 
L 349.233406 208.173883 
L 350.811444 207.135599 
L 352.355542 205.91409 
L 353.867131 205.36441 
L 355.347551 204.936882 
L 356.798061 204.326127 
L 358.219847 204.234514 
L 359.614023 201.455579 
L 360.981642 200.539447 
L 362.323696 201.638806 
L 363.641124 200.447834 
L 364.934813 200.35622 
L 366.205604 200.172994 
L 367.454294 200.050843 
L 368.681636 199.989768 
L 369.888351 199.440088 
L 371.075119 199.440088 
L 372.242589 198.890409 
L 373.391378 198.768258 
L 374.522076 198.035352 
L 375.635243 197.852126 
L 376.731414 196.661154 
L 377.8111 195.653408 
L 378.874791 195.653408 
L 379.922953 195.470182 
L 380.956033 194.309747 
L 381.974459 194.248672 
L 382.978641 192.660709 
L 383.968971 190.003926 
L 384.945827 190.003926 
L 385.909571 189.881775 
L 386.860549 192.416407 
L 387.799096 191.805652 
L 388.725532 190.156614 
L 389.640166 188.293812 
L 390.543295 187.37768 
L 391.435205 190.034463 
L 392.316171 190.034463 
L 393.186458 190.034463 
L 394.046323 189.851237 
L 394.896011 187.163915 
L 395.735761 186.400472 
L 396.565803 186.369934 
L 397.386358 188.690803 
L 398.197642 187.163915 
L 398.99986 186.675312 
L 399.793214 184.415519 
L 400.577898 188.202199 
" style="fill:none;stroke:#98df8a;stroke-linecap:square;stroke-width:1.5;"/>
    <defs>
     <path d="M -0 3 
L 3 -3 
L -3 -3 
z
" id="m8c3201ec14" style="stroke:#ffffff;stroke-linejoin:miter;stroke-width:0.75;"/>
    </defs>
    <g clip-path="url(#p552560becc)">
     <use style="fill:#98df8a;stroke:#ffffff;stroke-linejoin:miter;stroke-width:0.75;" x="75.923352" xlink:href="#m8c3201ec14" y="274.624011"/>
     <use style="fill:#98df8a;stroke:#ffffff;stroke-linejoin:miter;stroke-width:0.75;" x="125.689806" xlink:href="#m8c3201ec14" y="269.249369"/>
     <use style="fill:#98df8a;stroke:#ffffff;stroke-linejoin:miter;stroke-width:0.75;" x="154.801316" xlink:href="#m8c3201ec14" y="264.302254"/>
     <use style="fill:#98df8a;stroke:#ffffff;stroke-linejoin:miter;stroke-width:0.75;" x="175.45626" xlink:href="#m8c3201ec14" y="256.851045"/>
     <use style="fill:#98df8a;stroke:#ffffff;stroke-linejoin:miter;stroke-width:0.75;" x="191.47748" xlink:href="#m8c3201ec14" y="250.132742"/>
     <use style="fill:#98df8a;stroke:#ffffff;stroke-linejoin:miter;stroke-width:0.75;" x="204.567769" xlink:href="#m8c3201ec14" y="249.827364"/>
     <use style="fill:#98df8a;stroke:#ffffff;stroke-linejoin:miter;stroke-width:0.75;" x="215.635452" xlink:href="#m8c3201ec14" y="248.086713"/>
     <use style="fill:#98df8a;stroke:#ffffff;stroke-linejoin:miter;stroke-width:0.75;" x="225.222714" xlink:href="#m8c3201ec14" y="242.009702"/>
     <use style="fill:#98df8a;stroke:#ffffff;stroke-linejoin:miter;stroke-width:0.75;" x="233.679279" xlink:href="#m8c3201ec14" y="239.108616"/>
     <use style="fill:#98df8a;stroke:#ffffff;stroke-linejoin:miter;stroke-width:0.75;" x="241.243934" xlink:href="#m8c3201ec14" y="237.245814"/>
     <use style="fill:#98df8a;stroke:#ffffff;stroke-linejoin:miter;stroke-width:0.75;" x="248.086996" xlink:href="#m8c3201ec14" y="236.818286"/>
     <use style="fill:#98df8a;stroke:#ffffff;stroke-linejoin:miter;stroke-width:0.75;" x="254.334223" xlink:href="#m8c3201ec14" y="234.130964"/>
     <use style="fill:#98df8a;stroke:#ffffff;stroke-linejoin:miter;stroke-width:0.75;" x="260.081115" xlink:href="#m8c3201ec14" y="231.321492"/>
     <use style="fill:#98df8a;stroke:#ffffff;stroke-linejoin:miter;stroke-width:0.75;" x="265.401906" xlink:href="#m8c3201ec14" y="231.199341"/>
     <use style="fill:#98df8a;stroke:#ffffff;stroke-linejoin:miter;stroke-width:0.75;" x="270.355443" xlink:href="#m8c3201ec14" y="230.222133"/>
     <use style="fill:#98df8a;stroke:#ffffff;stroke-linejoin:miter;stroke-width:0.75;" x="274.989168" xlink:href="#m8c3201ec14" y="229.886218"/>
     <use style="fill:#98df8a;stroke:#ffffff;stroke-linejoin:miter;stroke-width:0.75;" x="279.341883" xlink:href="#m8c3201ec14" y="228.450944"/>
     <use style="fill:#98df8a;stroke:#ffffff;stroke-linejoin:miter;stroke-width:0.75;" x="283.445733" xlink:href="#m8c3201ec14" y="227.931802"/>
     <use style="fill:#98df8a;stroke:#ffffff;stroke-linejoin:miter;stroke-width:0.75;" x="287.327641" xlink:href="#m8c3201ec14" y="227.168359"/>
     <use style="fill:#98df8a;stroke:#ffffff;stroke-linejoin:miter;stroke-width:0.75;" x="291.010388" xlink:href="#m8c3201ec14" y="226.74083"/>
     <use style="fill:#98df8a;stroke:#ffffff;stroke-linejoin:miter;stroke-width:0.75;" x="294.513415" xlink:href="#m8c3201ec14" y="225.641472"/>
     <use style="fill:#98df8a;stroke:#ffffff;stroke-linejoin:miter;stroke-width:0.75;" x="297.85345" xlink:href="#m8c3201ec14" y="224.419962"/>
     <use style="fill:#98df8a;stroke:#ffffff;stroke-linejoin:miter;stroke-width:0.75;" x="301.04499" xlink:href="#m8c3201ec14" y="224.419962"/>
     <use style="fill:#98df8a;stroke:#ffffff;stroke-linejoin:miter;stroke-width:0.75;" x="304.100677" xlink:href="#m8c3201ec14" y="222.831999"/>
     <use style="fill:#98df8a;stroke:#ffffff;stroke-linejoin:miter;stroke-width:0.75;" x="307.031607" xlink:href="#m8c3201ec14" y="222.770924"/>
     <use style="fill:#98df8a;stroke:#ffffff;stroke-linejoin:miter;stroke-width:0.75;" x="309.847569" xlink:href="#m8c3201ec14" y="222.648773"/>
     <use style="fill:#98df8a;stroke:#ffffff;stroke-linejoin:miter;stroke-width:0.75;" x="312.557242" xlink:href="#m8c3201ec14" y="221.61049"/>
     <use style="fill:#98df8a;stroke:#ffffff;stroke-linejoin:miter;stroke-width:0.75;" x="315.168359" xlink:href="#m8c3201ec14" y="221.61049"/>
     <use style="fill:#98df8a;stroke:#ffffff;stroke-linejoin:miter;stroke-width:0.75;" x="317.68784" xlink:href="#m8c3201ec14" y="219.778225"/>
     <use style="fill:#98df8a;stroke:#ffffff;stroke-linejoin:miter;stroke-width:0.75;" x="320.121897" xlink:href="#m8c3201ec14" y="218.190262"/>
     <use style="fill:#98df8a;stroke:#ffffff;stroke-linejoin:miter;stroke-width:0.75;" x="322.476135" xlink:href="#m8c3201ec14" y="217.151979"/>
     <use style="fill:#98df8a;stroke:#ffffff;stroke-linejoin:miter;stroke-width:0.75;" x="324.755622" xlink:href="#m8c3201ec14" y="216.296922"/>
     <use style="fill:#98df8a;stroke:#ffffff;stroke-linejoin:miter;stroke-width:0.75;" x="326.96496" xlink:href="#m8c3201ec14" y="215.747243"/>
     <use style="fill:#98df8a;stroke:#ffffff;stroke-linejoin:miter;stroke-width:0.75;" x="329.108337" xlink:href="#m8c3201ec14" y="214.770035"/>
     <use style="fill:#98df8a;stroke:#ffffff;stroke-linejoin:miter;stroke-width:0.75;" x="331.189579" xlink:href="#m8c3201ec14" y="214.586809"/>
     <use style="fill:#98df8a;stroke:#ffffff;stroke-linejoin:miter;stroke-width:0.75;" x="333.212187" xlink:href="#m8c3201ec14" y="213.609601"/>
     <use style="fill:#98df8a;stroke:#ffffff;stroke-linejoin:miter;stroke-width:0.75;" x="335.179373" xlink:href="#m8c3201ec14" y="213.151535"/>
     <use style="fill:#98df8a;stroke:#ffffff;stroke-linejoin:miter;stroke-width:0.75;" x="337.094095" xlink:href="#m8c3201ec14" y="212.937771"/>
     <use style="fill:#98df8a;stroke:#ffffff;stroke-linejoin:miter;stroke-width:0.75;" x="338.959078" xlink:href="#m8c3201ec14" y="211.807874"/>
     <use style="fill:#98df8a;stroke:#ffffff;stroke-linejoin:miter;stroke-width:0.75;" x="340.776842" xlink:href="#m8c3201ec14" y="209.090015"/>
     <use style="fill:#98df8a;stroke:#ffffff;stroke-linejoin:miter;stroke-width:0.75;" x="342.549717" xlink:href="#m8c3201ec14" y="207.929581"/>
     <use style="fill:#98df8a;stroke:#ffffff;stroke-linejoin:miter;stroke-width:0.75;" x="344.279869" xlink:href="#m8c3201ec14" y="207.868505"/>
     <use style="fill:#98df8a;stroke:#ffffff;stroke-linejoin:miter;stroke-width:0.75;" x="345.969307" xlink:href="#m8c3201ec14" y="208.7541"/>
     <use style="fill:#98df8a;stroke:#ffffff;stroke-linejoin:miter;stroke-width:0.75;" x="347.619904" xlink:href="#m8c3201ec14" y="208.20442"/>
     <use style="fill:#98df8a;stroke:#ffffff;stroke-linejoin:miter;stroke-width:0.75;" x="349.233406" xlink:href="#m8c3201ec14" y="208.173883"/>
     <use style="fill:#98df8a;stroke:#ffffff;stroke-linejoin:miter;stroke-width:0.75;" x="350.811444" xlink:href="#m8c3201ec14" y="207.135599"/>
     <use style="fill:#98df8a;stroke:#ffffff;stroke-linejoin:miter;stroke-width:0.75;" x="352.355542" xlink:href="#m8c3201ec14" y="205.91409"/>
     <use style="fill:#98df8a;stroke:#ffffff;stroke-linejoin:miter;stroke-width:0.75;" x="353.867131" xlink:href="#m8c3201ec14" y="205.36441"/>
     <use style="fill:#98df8a;stroke:#ffffff;stroke-linejoin:miter;stroke-width:0.75;" x="355.347551" xlink:href="#m8c3201ec14" y="204.936882"/>
     <use style="fill:#98df8a;stroke:#ffffff;stroke-linejoin:miter;stroke-width:0.75;" x="356.798061" xlink:href="#m8c3201ec14" y="204.326127"/>
     <use style="fill:#98df8a;stroke:#ffffff;stroke-linejoin:miter;stroke-width:0.75;" x="358.219847" xlink:href="#m8c3201ec14" y="204.234514"/>
     <use style="fill:#98df8a;stroke:#ffffff;stroke-linejoin:miter;stroke-width:0.75;" x="359.614023" xlink:href="#m8c3201ec14" y="201.455579"/>
     <use style="fill:#98df8a;stroke:#ffffff;stroke-linejoin:miter;stroke-width:0.75;" x="360.981642" xlink:href="#m8c3201ec14" y="200.539447"/>
     <use style="fill:#98df8a;stroke:#ffffff;stroke-linejoin:miter;stroke-width:0.75;" x="362.323696" xlink:href="#m8c3201ec14" y="201.638806"/>
     <use style="fill:#98df8a;stroke:#ffffff;stroke-linejoin:miter;stroke-width:0.75;" x="363.641124" xlink:href="#m8c3201ec14" y="200.447834"/>
     <use style="fill:#98df8a;stroke:#ffffff;stroke-linejoin:miter;stroke-width:0.75;" x="364.934813" xlink:href="#m8c3201ec14" y="200.35622"/>
     <use style="fill:#98df8a;stroke:#ffffff;stroke-linejoin:miter;stroke-width:0.75;" x="366.205604" xlink:href="#m8c3201ec14" y="200.172994"/>
     <use style="fill:#98df8a;stroke:#ffffff;stroke-linejoin:miter;stroke-width:0.75;" x="367.454294" xlink:href="#m8c3201ec14" y="200.050843"/>
     <use style="fill:#98df8a;stroke:#ffffff;stroke-linejoin:miter;stroke-width:0.75;" x="368.681636" xlink:href="#m8c3201ec14" y="199.989768"/>
     <use style="fill:#98df8a;stroke:#ffffff;stroke-linejoin:miter;stroke-width:0.75;" x="369.888351" xlink:href="#m8c3201ec14" y="199.440088"/>
     <use style="fill:#98df8a;stroke:#ffffff;stroke-linejoin:miter;stroke-width:0.75;" x="371.075119" xlink:href="#m8c3201ec14" y="199.440088"/>
     <use style="fill:#98df8a;stroke:#ffffff;stroke-linejoin:miter;stroke-width:0.75;" x="372.242589" xlink:href="#m8c3201ec14" y="198.890409"/>
     <use style="fill:#98df8a;stroke:#ffffff;stroke-linejoin:miter;stroke-width:0.75;" x="373.391378" xlink:href="#m8c3201ec14" y="198.768258"/>
     <use style="fill:#98df8a;stroke:#ffffff;stroke-linejoin:miter;stroke-width:0.75;" x="374.522076" xlink:href="#m8c3201ec14" y="198.035352"/>
     <use style="fill:#98df8a;stroke:#ffffff;stroke-linejoin:miter;stroke-width:0.75;" x="375.635243" xlink:href="#m8c3201ec14" y="197.852126"/>
     <use style="fill:#98df8a;stroke:#ffffff;stroke-linejoin:miter;stroke-width:0.75;" x="376.731414" xlink:href="#m8c3201ec14" y="196.661154"/>
     <use style="fill:#98df8a;stroke:#ffffff;stroke-linejoin:miter;stroke-width:0.75;" x="377.8111" xlink:href="#m8c3201ec14" y="195.653408"/>
     <use style="fill:#98df8a;stroke:#ffffff;stroke-linejoin:miter;stroke-width:0.75;" x="378.874791" xlink:href="#m8c3201ec14" y="195.653408"/>
     <use style="fill:#98df8a;stroke:#ffffff;stroke-linejoin:miter;stroke-width:0.75;" x="379.922953" xlink:href="#m8c3201ec14" y="195.470182"/>
     <use style="fill:#98df8a;stroke:#ffffff;stroke-linejoin:miter;stroke-width:0.75;" x="380.956033" xlink:href="#m8c3201ec14" y="194.309747"/>
     <use style="fill:#98df8a;stroke:#ffffff;stroke-linejoin:miter;stroke-width:0.75;" x="381.974459" xlink:href="#m8c3201ec14" y="194.248672"/>
     <use style="fill:#98df8a;stroke:#ffffff;stroke-linejoin:miter;stroke-width:0.75;" x="382.978641" xlink:href="#m8c3201ec14" y="192.660709"/>
     <use style="fill:#98df8a;stroke:#ffffff;stroke-linejoin:miter;stroke-width:0.75;" x="383.968971" xlink:href="#m8c3201ec14" y="190.003926"/>
     <use style="fill:#98df8a;stroke:#ffffff;stroke-linejoin:miter;stroke-width:0.75;" x="384.945827" xlink:href="#m8c3201ec14" y="190.003926"/>
     <use style="fill:#98df8a;stroke:#ffffff;stroke-linejoin:miter;stroke-width:0.75;" x="385.909571" xlink:href="#m8c3201ec14" y="189.881775"/>
     <use style="fill:#98df8a;stroke:#ffffff;stroke-linejoin:miter;stroke-width:0.75;" x="386.860549" xlink:href="#m8c3201ec14" y="192.416407"/>
     <use style="fill:#98df8a;stroke:#ffffff;stroke-linejoin:miter;stroke-width:0.75;" x="387.799096" xlink:href="#m8c3201ec14" y="191.805652"/>
     <use style="fill:#98df8a;stroke:#ffffff;stroke-linejoin:miter;stroke-width:0.75;" x="388.725532" xlink:href="#m8c3201ec14" y="190.156614"/>
     <use style="fill:#98df8a;stroke:#ffffff;stroke-linejoin:miter;stroke-width:0.75;" x="389.640166" xlink:href="#m8c3201ec14" y="188.293812"/>
     <use style="fill:#98df8a;stroke:#ffffff;stroke-linejoin:miter;stroke-width:0.75;" x="390.543295" xlink:href="#m8c3201ec14" y="187.37768"/>
     <use style="fill:#98df8a;stroke:#ffffff;stroke-linejoin:miter;stroke-width:0.75;" x="391.435205" xlink:href="#m8c3201ec14" y="190.034463"/>
     <use style="fill:#98df8a;stroke:#ffffff;stroke-linejoin:miter;stroke-width:0.75;" x="392.316171" xlink:href="#m8c3201ec14" y="190.034463"/>
     <use style="fill:#98df8a;stroke:#ffffff;stroke-linejoin:miter;stroke-width:0.75;" x="393.186458" xlink:href="#m8c3201ec14" y="190.034463"/>
     <use style="fill:#98df8a;stroke:#ffffff;stroke-linejoin:miter;stroke-width:0.75;" x="394.046323" xlink:href="#m8c3201ec14" y="189.851237"/>
     <use style="fill:#98df8a;stroke:#ffffff;stroke-linejoin:miter;stroke-width:0.75;" x="394.896011" xlink:href="#m8c3201ec14" y="187.163915"/>
     <use style="fill:#98df8a;stroke:#ffffff;stroke-linejoin:miter;stroke-width:0.75;" x="395.735761" xlink:href="#m8c3201ec14" y="186.400472"/>
     <use style="fill:#98df8a;stroke:#ffffff;stroke-linejoin:miter;stroke-width:0.75;" x="396.565803" xlink:href="#m8c3201ec14" y="186.369934"/>
     <use style="fill:#98df8a;stroke:#ffffff;stroke-linejoin:miter;stroke-width:0.75;" x="397.386358" xlink:href="#m8c3201ec14" y="188.690803"/>
     <use style="fill:#98df8a;stroke:#ffffff;stroke-linejoin:miter;stroke-width:0.75;" x="398.197642" xlink:href="#m8c3201ec14" y="187.163915"/>
     <use style="fill:#98df8a;stroke:#ffffff;stroke-linejoin:miter;stroke-width:0.75;" x="398.99986" xlink:href="#m8c3201ec14" y="186.675312"/>
     <use style="fill:#98df8a;stroke:#ffffff;stroke-linejoin:miter;stroke-width:0.75;" x="399.793214" xlink:href="#m8c3201ec14" y="184.415519"/>
     <use style="fill:#98df8a;stroke:#ffffff;stroke-linejoin:miter;stroke-width:0.75;" x="400.577898" xlink:href="#m8c3201ec14" y="188.202199"/>
    </g>
   </g>
   <g id="line2d_36"/>
   <g id="line2d_37"/>
   <g id="line2d_38"/>
   <g id="patch_3">
    <path d="M 59.690625 281.342315 
L 59.690625 37.040371 
" style="fill:none;stroke:#000000;stroke-linecap:square;stroke-linejoin:miter;stroke-width:0.8;"/>
   </g>
   <g id="patch_4">
    <path d="M 75.923352 288.430125 
L 400.578765 288.430125 
" style="fill:none;stroke:#000000;stroke-linecap:square;stroke-linejoin:miter;stroke-width:0.8;"/>
   </g>
   <g id="text_18">
    <!-- mruby-2018-05-23 (23h, 1 trials/fuzzer) -->
    <g transform="translate(118.935938 16.318125)scale(0.12 -0.12)">
     <defs>
      <path d="M 3116 1747 
Q 3116 2381 2855 2742 
Q 2594 3103 2138 3103 
Q 1681 3103 1420 2742 
Q 1159 2381 1159 1747 
Q 1159 1113 1420 752 
Q 1681 391 2138 391 
Q 2594 391 2855 752 
Q 3116 1113 3116 1747 
z
M 1159 2969 
Q 1341 3281 1617 3432 
Q 1894 3584 2278 3584 
Q 2916 3584 3314 3078 
Q 3713 2572 3713 1747 
Q 3713 922 3314 415 
Q 2916 -91 2278 -91 
Q 1894 -91 1617 61 
Q 1341 213 1159 525 
L 1159 0 
L 581 0 
L 581 4863 
L 1159 4863 
L 1159 2969 
z
" id="DejaVuSans-62" transform="scale(0.015625)"/>
      <path d="M 2059 -325 
Q 1816 -950 1584 -1140 
Q 1353 -1331 966 -1331 
L 506 -1331 
L 506 -850 
L 844 -850 
Q 1081 -850 1212 -737 
Q 1344 -625 1503 -206 
L 1606 56 
L 191 3500 
L 800 3500 
L 1894 763 
L 2988 3500 
L 3597 3500 
L 2059 -325 
z
" id="DejaVuSans-79" transform="scale(0.015625)"/>
      <path d="M 313 2009 
L 1997 2009 
L 1997 1497 
L 313 1497 
L 313 2009 
z
" id="DejaVuSans-2d" transform="scale(0.015625)"/>
      <path d="M 750 794 
L 1409 794 
L 1409 256 
L 897 -744 
L 494 -744 
L 750 256 
L 750 794 
z
" id="DejaVuSans-2c" transform="scale(0.015625)"/>
      <path d="M 603 4863 
L 1178 4863 
L 1178 0 
L 603 0 
L 603 4863 
z
" id="DejaVuSans-6c" transform="scale(0.015625)"/>
      <path d="M 2834 3397 
L 2834 2853 
Q 2591 2978 2328 3040 
Q 2066 3103 1784 3103 
Q 1356 3103 1142 2972 
Q 928 2841 928 2578 
Q 928 2378 1081 2264 
Q 1234 2150 1697 2047 
L 1894 2003 
Q 2506 1872 2764 1633 
Q 3022 1394 3022 966 
Q 3022 478 2636 193 
Q 2250 -91 1575 -91 
Q 1294 -91 989 -36 
Q 684 19 347 128 
L 347 722 
Q 666 556 975 473 
Q 1284 391 1588 391 
Q 1994 391 2212 530 
Q 2431 669 2431 922 
Q 2431 1156 2273 1281 
Q 2116 1406 1581 1522 
L 1381 1569 
Q 847 1681 609 1914 
Q 372 2147 372 2553 
Q 372 3047 722 3315 
Q 1072 3584 1716 3584 
Q 2034 3584 2315 3537 
Q 2597 3491 2834 3397 
z
" id="DejaVuSans-73" transform="scale(0.015625)"/>
      <path d="M 1625 4666 
L 2156 4666 
L 531 -594 
L 0 -594 
L 1625 4666 
z
" id="DejaVuSans-2f" transform="scale(0.015625)"/>
      <path d="M 2375 4863 
L 2375 4384 
L 1825 4384 
Q 1516 4384 1395 4259 
Q 1275 4134 1275 3809 
L 1275 3500 
L 2222 3500 
L 2222 3053 
L 1275 3053 
L 1275 0 
L 697 0 
L 697 3053 
L 147 3053 
L 147 3500 
L 697 3500 
L 697 3744 
Q 697 4328 969 4595 
Q 1241 4863 1831 4863 
L 2375 4863 
z
" id="DejaVuSans-66" transform="scale(0.015625)"/>
      <path d="M 353 3500 
L 3084 3500 
L 3084 2975 
L 922 459 
L 3084 459 
L 3084 0 
L 275 0 
L 275 525 
L 2438 3041 
L 353 3041 
L 353 3500 
z
" id="DejaVuSans-7a" transform="scale(0.015625)"/>
     </defs>
     <use xlink:href="#DejaVuSans-6d"/>
     <use x="97.412109" xlink:href="#DejaVuSans-72"/>
     <use x="138.525391" xlink:href="#DejaVuSans-75"/>
     <use x="201.904297" xlink:href="#DejaVuSans-62"/>
     <use x="265.380859" xlink:href="#DejaVuSans-79"/>
     <use x="322.810547" xlink:href="#DejaVuSans-2d"/>
     <use x="358.894531" xlink:href="#DejaVuSans-32"/>
     <use x="422.517578" xlink:href="#DejaVuSans-30"/>
     <use x="486.140625" xlink:href="#DejaVuSans-31"/>
     <use x="549.763672" xlink:href="#DejaVuSans-38"/>
     <use x="613.386719" xlink:href="#DejaVuSans-2d"/>
     <use x="649.470703" xlink:href="#DejaVuSans-30"/>
     <use x="713.09375" xlink:href="#DejaVuSans-35"/>
     <use x="776.716797" xlink:href="#DejaVuSans-2d"/>
     <use x="812.800781" xlink:href="#DejaVuSans-32"/>
     <use x="876.423828" xlink:href="#DejaVuSans-33"/>
     <use x="940.046875" xlink:href="#DejaVuSans-20"/>
     <use x="971.833984" xlink:href="#DejaVuSans-28"/>
     <use x="1010.847656" xlink:href="#DejaVuSans-32"/>
     <use x="1074.470703" xlink:href="#DejaVuSans-33"/>
     <use x="1138.09375" xlink:href="#DejaVuSans-68"/>
     <use x="1201.472656" xlink:href="#DejaVuSans-2c"/>
     <use x="1233.259766" xlink:href="#DejaVuSans-20"/>
     <use x="1265.046875" xlink:href="#DejaVuSans-31"/>
     <use x="1328.669922" xlink:href="#DejaVuSans-20"/>
     <use x="1360.457031" xlink:href="#DejaVuSans-74"/>
     <use x="1399.666016" xlink:href="#DejaVuSans-72"/>
     <use x="1440.779297" xlink:href="#DejaVuSans-69"/>
     <use x="1468.5625" xlink:href="#DejaVuSans-61"/>
     <use x="1529.841797" xlink:href="#DejaVuSans-6c"/>
     <use x="1557.625" xlink:href="#DejaVuSans-73"/>
     <use x="1609.724609" xlink:href="#DejaVuSans-2f"/>
     <use x="1643.416016" xlink:href="#DejaVuSans-66"/>
     <use x="1678.621094" xlink:href="#DejaVuSans-75"/>
     <use x="1742" xlink:href="#DejaVuSans-7a"/>
     <use x="1794.490234" xlink:href="#DejaVuSans-7a"/>
     <use x="1846.980469" xlink:href="#DejaVuSans-65"/>
     <use x="1908.503906" xlink:href="#DejaVuSans-72"/>
     <use x="1949.617188" xlink:href="#DejaVuSans-29"/>
    </g>
   </g>
   <g id="legend_1">
    <g id="line2d_39">
     <path d="M 420.810625 30.416562 
L 440.810625 30.416562 
" style="fill:none;stroke:#1f77b4;stroke-linecap:square;stroke-width:1.5;"/>
    </g>
    <g id="line2d_40">
     <defs>
      <path d="M 0 3 
C 0.795609 3 1.55874 2.683901 2.12132 2.12132 
C 2.683901 1.55874 3 0.795609 3 0 
C 3 -0.795609 2.683901 -1.55874 2.12132 -2.12132 
C 1.55874 -2.683901 0.795609 -3 0 -3 
C -0.795609 -3 -1.55874 -2.683901 -2.12132 -2.12132 
C -2.683901 -1.55874 -3 -0.795609 -3 0 
C -3 0.795609 -2.683901 1.55874 -2.12132 2.12132 
C -1.55874 2.683901 -0.795609 3 0 3 
z
" id="mced3814351" style="stroke:#1f77b4;"/>
     </defs>
     <g>
      <use style="fill:#1f77b4;stroke:#1f77b4;" x="430.810625" xlink:href="#mced3814351" y="30.416562"/>
     </g>
    </g>
    <g id="text_19">
     <!-- afl -->
     <g transform="translate(448.810625 33.916562)scale(0.1 -0.1)">
      <use xlink:href="#DejaVuSans-61"/>
      <use x="61.279297" xlink:href="#DejaVuSans-66"/>
      <use x="96.484375" xlink:href="#DejaVuSans-6c"/>
     </g>
    </g>
    <g id="line2d_41">
     <path d="M 420.810625 45.094688 
L 440.810625 45.094688 
" style="fill:none;stroke:#d62728;stroke-linecap:square;stroke-width:1.5;"/>
    </g>
    <g id="line2d_42">
     <defs>
      <path d="M 0 -3 
L -3 3 
L 3 3 
z
" id="md9256918d9" style="stroke:#d62728;stroke-linejoin:miter;"/>
     </defs>
     <g>
      <use style="fill:#d62728;stroke:#d62728;stroke-linejoin:miter;" x="430.810625" xlink:href="#md9256918d9" y="45.094688"/>
     </g>
    </g>
    <g id="text_20">
     <!-- afl_scheduling_random -->
     <g transform="translate(448.810625 48.594688)scale(0.1 -0.1)">
      <defs>
       <path d="M 3263 -1063 
L 3263 -1509 
L -63 -1509 
L -63 -1063 
L 3263 -1063 
z
" id="DejaVuSans-5f" transform="scale(0.015625)"/>
      </defs>
      <use xlink:href="#DejaVuSans-61"/>
      <use x="61.279297" xlink:href="#DejaVuSans-66"/>
      <use x="96.484375" xlink:href="#DejaVuSans-6c"/>
      <use x="124.267578" xlink:href="#DejaVuSans-5f"/>
      <use x="174.267578" xlink:href="#DejaVuSans-73"/>
      <use x="226.367188" xlink:href="#DejaVuSans-63"/>
      <use x="281.347656" xlink:href="#DejaVuSans-68"/>
      <use x="344.726562" xlink:href="#DejaVuSans-65"/>
      <use x="406.25" xlink:href="#DejaVuSans-64"/>
      <use x="469.726562" xlink:href="#DejaVuSans-75"/>
      <use x="533.105469" xlink:href="#DejaVuSans-6c"/>
      <use x="560.888672" xlink:href="#DejaVuSans-69"/>
      <use x="588.671875" xlink:href="#DejaVuSans-6e"/>
      <use x="652.050781" xlink:href="#DejaVuSans-67"/>
      <use x="715.527344" xlink:href="#DejaVuSans-5f"/>
      <use x="765.527344" xlink:href="#DejaVuSans-72"/>
      <use x="806.640625" xlink:href="#DejaVuSans-61"/>
      <use x="867.919922" xlink:href="#DejaVuSans-6e"/>
      <use x="931.298828" xlink:href="#DejaVuSans-64"/>
      <use x="994.775391" xlink:href="#DejaVuSans-6f"/>
      <use x="1055.957031" xlink:href="#DejaVuSans-6d"/>
     </g>
    </g>
    <g id="line2d_43">
     <path d="M 420.810625 60.050937 
L 440.810625 60.050937 
" style="fill:none;stroke:#98df8a;stroke-linecap:square;stroke-width:1.5;"/>
    </g>
    <g id="line2d_44">
     <defs>
      <path d="M -0 3 
L 3 -3 
L -3 -3 
z
" id="m30499d2ca5" style="stroke:#98df8a;stroke-linejoin:miter;"/>
     </defs>
     <g>
      <use style="fill:#98df8a;stroke:#98df8a;stroke-linejoin:miter;" x="430.810625" xlink:href="#m30499d2ca5" y="60.050937"/>
     </g>
    </g>
    <g id="text_21">
     <!-- afl_scheduling_lifo -->
     <g transform="translate(448.810625 63.550937)scale(0.1 -0.1)">
      <use xlink:href="#DejaVuSans-61"/>
      <use x="61.279297" xlink:href="#DejaVuSans-66"/>
      <use x="96.484375" xlink:href="#DejaVuSans-6c"/>
      <use x="124.267578" xlink:href="#DejaVuSans-5f"/>
      <use x="174.267578" xlink:href="#DejaVuSans-73"/>
      <use x="226.367188" xlink:href="#DejaVuSans-63"/>
      <use x="281.347656" xlink:href="#DejaVuSans-68"/>
      <use x="344.726562" xlink:href="#DejaVuSans-65"/>
      <use x="406.25" xlink:href="#DejaVuSans-64"/>
      <use x="469.726562" xlink:href="#DejaVuSans-75"/>
      <use x="533.105469" xlink:href="#DejaVuSans-6c"/>
      <use x="560.888672" xlink:href="#DejaVuSans-69"/>
      <use x="588.671875" xlink:href="#DejaVuSans-6e"/>
      <use x="652.050781" xlink:href="#DejaVuSans-67"/>
      <use x="715.527344" xlink:href="#DejaVuSans-5f"/>
      <use x="765.527344" xlink:href="#DejaVuSans-6c"/>
      <use x="793.310547" xlink:href="#DejaVuSans-69"/>
      <use x="821.09375" xlink:href="#DejaVuSans-66"/>
      <use x="856.298828" xlink:href="#DejaVuSans-6f"/>
     </g>
    </g>
   </g>
  </g>
 </g>
 <defs>
  <clipPath id="p552560becc">
   <rect height="266.112" width="357.12" x="59.690625" y="22.318125"/>
  </clipPath>
 </defs>
</svg>
