<?xml version="1.0" encoding="utf-8" standalone="no"?>
<!DOCTYPE svg PUBLIC "-//W3C//DTD SVG 1.1//EN"
  "http://www.w3.org/Graphics/SVG/1.1/DTD/svg11.dtd">
<svg height="325.986375pt" version="1.1" viewBox="0 0 568.985625 325.986375" width="568.985625pt" xmlns="http://www.w3.org/2000/svg" xmlns:xlink="http://www.w3.org/1999/xlink">
 <metadata>
  <rdf:RDF xmlns:cc="http://creativecommons.org/ns#" xmlns:dc="http://purl.org/dc/elements/1.1/" xmlns:rdf="http://www.w3.org/1999/02/22-rdf-syntax-ns#">
   <cc:Work>
    <dc:type rdf:resource="http://purl.org/dc/dcmitype/StillImage"/>
    <dc:date>2022-05-31T14:25:13.879390</dc:date>
    <dc:format>image/svg+xml</dc:format>
    <dc:creator>
     <cc:Agent>
      <dc:title>Matplotlib v3.4.3, https://matplotlib.org/</dc:title>
     </cc:Agent>
    </dc:creator>
   </cc:Work>
  </rdf:RDF>
 </metadata>
 <defs>
  <style type="text/css">*{stroke-linecap:butt;stroke-linejoin:round;}</style>
 </defs>
 <g id="figure_1">
  <g id="patch_1">
   <path d="M 0 325.986375 
L 568.985625 325.986375 
L 568.985625 0 
L 0 0 
z
" style="fill:#ffffff;"/>
  </g>
  <g id="axes_1">
   <g id="patch_2">
    <path d="M 53.328125 288.430125 
L 410.448125 288.430125 
L 410.448125 22.318125 
L 53.328125 22.318125 
z
" style="fill:#ffffff;"/>
   </g>
   <g id="PolyCollection_1">
    <defs>
     <path d="M 69.560852 -161.510571 
L 69.560852 -150.606143 
L 73.128485 -188.815609 
L 76.696117 -194.839426 
L 80.263749 -202.490113 
L 83.831382 -210.93225 
L 87.399014 -213.570418 
L 90.966646 -215.417135 
L 94.534279 -215.944769 
L 98.101911 -229.663242 
L 101.669544 -234.236067 
L 105.237176 -234.939578 
L 108.804808 -237.841563 
L 112.372441 -237.401868 
L 115.940073 -239.864158 
L 119.507705 -241.007365 
L 123.075338 -241.007365 
L 126.64297 -241.710876 
L 130.210603 -241.798815 
L 133.778235 -245.272403 
L 137.345867 -245.800036 
L 140.9135 -249.317594 
L 144.481132 -249.62538 
L 148.048764 -249.62538 
L 151.616397 -249.62538 
L 155.184029 -251.296219 
L 158.751661 -251.296219 
L 162.319294 -252.527365 
L 165.886926 -252.791181 
L 169.454559 -253.054998 
L 173.022191 -253.011029 
L 176.589823 -253.054998 
L 180.157456 -253.494693 
L 183.725088 -253.582632 
L 187.29272 -255.781105 
L 190.860353 -255.781105 
L 194.427985 -256.924311 
L 197.995618 -256.924311 
L 201.56325 -257.01225 
L 205.130882 -258.155456 
L 208.698515 -258.155456 
L 212.266147 -259.210723 
L 215.833779 -259.914235 
L 219.401412 -259.914235 
L 222.969044 -259.914235 
L 226.536676 -259.914235 
L 230.104309 -261.233319 
L 233.671941 -263.080036 
L 237.239574 -263.167975 
L 240.807206 -263.167975 
L 244.374838 -263.167975 
L 247.942471 -263.167975 
L 251.510103 -263.167975 
L 255.077735 -263.167975 
L 258.645368 -264.662937 
L 262.213 -264.662937 
L 265.780632 -265.102632 
L 269.348265 -265.102632 
L 272.915897 -265.190571 
L 276.48353 -265.190571 
L 280.051162 -265.190571 
L 283.618794 -265.190571 
L 287.186427 -265.190571 
L 290.754059 -265.190571 
L 294.321691 -265.190571 
L 297.889324 -266.157899 
L 301.456956 -266.157899 
L 305.024589 -269.631487 
L 308.592221 -269.631487 
L 312.159853 -266.157899 
L 315.727486 -266.157899 
L 319.295118 -266.245838 
L 322.86275 -266.245838 
L 326.430383 -267.828739 
L 329.998015 -267.828739 
L 333.565647 -269.763395 
L 337.13328 -273.105074 
L 340.700912 -273.105074 
L 344.268545 -273.105074 
L 347.836177 -273.105074 
L 351.403809 -273.105074 
L 354.971442 -273.105074 
L 358.539074 -273.105074 
L 362.106706 -273.105074 
L 365.674339 -273.105074 
L 369.241971 -273.896525 
L 372.809604 -273.896525 
L 376.377236 -273.896525 
L 379.944868 -273.105074 
L 383.512501 -273.105074 
L 387.080133 -273.105074 
L 390.647765 -273.105074 
L 394.215398 -273.105074 
L 394.215398 -291.57225 
L 394.215398 -291.57225 
L 390.647765 -291.57225 
L 387.080133 -290.868739 
L 383.512501 -290.868739 
L 379.944868 -290.868739 
L 376.377236 -291.088586 
L 372.809604 -289.549655 
L 369.241971 -289.90141 
L 365.674339 -289.90141 
L 362.106706 -289.90141 
L 358.539074 -289.90141 
L 354.971442 -289.90141 
L 351.403809 -289.90141 
L 347.836177 -289.90141 
L 344.268545 -289.90141 
L 340.700912 -289.90141 
L 337.13328 -289.90141 
L 333.565647 -289.90141 
L 329.998015 -289.90141 
L 326.430383 -289.461716 
L 322.86275 -289.461716 
L 319.295118 -288.494387 
L 315.727486 -288.494387 
L 312.159853 -288.494387 
L 308.592221 -288.846143 
L 305.024589 -288.538357 
L 301.456956 -288.406448 
L 297.889324 -288.406448 
L 294.321691 -288.406448 
L 290.754059 -288.406448 
L 287.186427 -288.406448 
L 283.618794 -288.406448 
L 280.051162 -288.406448 
L 276.48353 -288.406448 
L 272.915897 -288.230571 
L 269.348265 -288.230571 
L 265.780632 -287.790876 
L 262.213 -287.790876 
L 258.645368 -287.790876 
L 255.077735 -286.735609 
L 251.510103 -285.240647 
L 247.942471 -279.524616 
L 244.374838 -279.524616 
L 240.807206 -279.524616 
L 237.239574 -279.524616 
L 233.671941 -279.348739 
L 230.104309 -278.733166 
L 226.536676 -276.974387 
L 222.969044 -276.974387 
L 219.401412 -276.974387 
L 215.833779 -275.391487 
L 212.266147 -275.391487 
L 208.698515 -275.391487 
L 205.130882 -273.984464 
L 201.56325 -272.929197 
L 197.995618 -273.017135 
L 194.427985 -272.137746 
L 190.860353 -272.66538 
L 187.29272 -272.66538 
L 183.725088 -272.313624 
L 180.157456 -272.049807 
L 176.589823 -266.421716 
L 173.022191 -265.762174 
L 169.454559 -265.058662 
L 165.886926 -264.003395 
L 162.319294 -262.112708 
L 158.751661 -261.848891 
L 155.184029 -261.409197 
L 151.616397 -261.409197 
L 148.048764 -261.321258 
L 144.481132 -260.441868 
L 140.9135 -257.715761 
L 137.345867 -256.264769 
L 133.778235 -256.044922 
L 130.210603 -255.34141 
L 126.64297 -251.120342 
L 123.075338 -248.74599 
L 119.507705 -248.394235 
L 115.940073 -247.11912 
L 112.372441 -245.975914 
L 108.804808 -246.635456 
L 105.237176 -245.580189 
L 101.669544 -242.502326 
L 98.101911 -239.072708 
L 94.534279 -238.633013 
L 90.966646 -234.148128 
L 87.399014 -231.905685 
L 83.831382 -225.545502 
L 80.263749 -221.6608 
L 76.696117 -213.922174 
L 73.128485 -199.851945 
L 69.560852 -161.510571 
z
" id="m6ffb06c565" style="stroke:#d62728;stroke-opacity:0.2;"/>
    </defs>
    <g clip-path="url(#p0b1cf3434a)">
     <use style="fill:#d62728;fill-opacity:0.2;stroke:#d62728;stroke-opacity:0.2;" x="0" xlink:href="#m6ffb06c565" y="325.986375"/>
    </g>
   </g>
   <g id="PolyCollection_2">
    <defs>
     <path d="M 69.560852 -158.872403 
L 69.560852 -146.209197 
L 73.128485 -182.703853 
L 76.696117 -185.342021 
L 80.263749 -185.605838 
L 83.831382 -191.14599 
L 87.399014 -196.422326 
L 90.966646 -198.093166 
L 94.534279 -207.502632 
L 98.101911 -207.942326 
L 101.669544 -209.701105 
L 105.237176 -214.18599 
L 108.804808 -216.032708 
L 112.372441 -219.814082 
L 115.940073 -219.814082 
L 119.507705 -226.849197 
L 123.075338 -234.675761 
L 126.64297 -236.522479 
L 130.210603 -239.424464 
L 133.778235 -243.469655 
L 137.345867 -245.404311 
L 140.9135 -245.404311 
L 144.481132 -245.404311 
L 148.048764 -245.580189 
L 151.616397 -245.580189 
L 155.184029 -246.2837 
L 158.751661 -249.449502 
L 162.319294 -251.120342 
L 165.886926 -253.75851 
L 169.454559 -253.75851 
L 173.022191 -254.022326 
L 176.589823 -254.901716 
L 180.157456 -254.901716 
L 183.725088 -255.165532 
L 187.29272 -255.165532 
L 190.860353 -258.243395 
L 194.427985 -258.419273 
L 197.995618 -258.595151 
L 201.56325 -261.321258 
L 205.130882 -261.321258 
L 208.698515 -261.321258 
L 212.266147 -261.93683 
L 215.833779 -263.60767 
L 219.401412 -263.60767 
L 222.969044 -263.60767 
L 226.536676 -263.60767 
L 230.104309 -263.60767 
L 233.671941 -263.60767 
L 237.239574 -263.60767 
L 240.807206 -265.190571 
L 244.374838 -265.190571 
L 247.942471 -265.190571 
L 251.510103 -265.190571 
L 255.077735 -265.190571 
L 258.645368 -265.190571 
L 262.213 -265.454387 
L 265.780632 -265.982021 
L 269.348265 -266.597594 
L 272.915897 -266.597594 
L 276.48353 -266.597594 
L 280.051162 -266.597594 
L 283.618794 -266.86141 
L 287.186427 -266.949349 
L 290.754059 -267.125227 
L 294.321691 -267.652861 
L 297.889324 -267.7408 
L 301.456956 -267.7408 
L 305.024589 -267.7408 
L 308.592221 -268.708128 
L 312.159853 -268.708128 
L 315.727486 -268.971945 
L 319.295118 -268.971945 
L 322.86275 -268.971945 
L 326.430383 -268.971945 
L 329.998015 -268.971945 
L 333.565647 -269.059884 
L 337.13328 -269.059884 
L 340.700912 -270.730723 
L 344.268545 -270.730723 
L 347.836177 -270.730723 
L 351.403809 -271.082479 
L 354.971442 -273.720647 
L 358.539074 -273.720647 
L 362.106706 -273.720647 
L 365.674339 -273.720647 
L 369.241971 -274.072403 
L 372.809604 -272.577441 
L 376.377236 -272.577441 
L 379.944868 -272.797288 
L 383.512501 -273.149044 
L 387.080133 -273.366693 
L 390.647765 -273.236983 
L 394.215398 -273.236983 
L 394.215398 -284.932861 
L 394.215398 -284.932861 
L 390.647765 -284.449197 
L 387.080133 -284.932861 
L 383.512501 -283.745685 
L 379.944868 -283.437899 
L 376.377236 -283.218052 
L 372.809604 -283.218052 
L 369.241971 -283.657746 
L 365.674339 -283.657746 
L 362.106706 -283.218052 
L 358.539074 -283.218052 
L 354.971442 -283.218052 
L 351.403809 -281.898968 
L 347.836177 -281.811029 
L 344.268545 -281.811029 
L 340.700912 -281.811029 
L 337.13328 -281.811029 
L 333.565647 -281.811029 
L 329.998015 -281.811029 
L 326.430383 -281.635151 
L 322.86275 -281.635151 
L 319.295118 -281.459273 
L 315.727486 -281.459273 
L 312.159853 -281.371334 
L 308.592221 -279.172861 
L 305.024589 -275.655303 
L 301.456956 -275.655303 
L 297.889324 -275.655303 
L 294.321691 -275.215609 
L 290.754059 -275.215609 
L 287.186427 -275.215609 
L 283.618794 -275.215609 
L 280.051162 -275.215609 
L 276.48353 -275.215609 
L 272.915897 -273.45683 
L 269.348265 -273.45683 
L 265.780632 -273.45683 
L 262.213 -272.577441 
L 258.645368 -272.577441 
L 255.077735 -272.313624 
L 251.510103 -272.049807 
L 247.942471 -271.346296 
L 244.374838 -271.346296 
L 240.807206 -271.346296 
L 237.239574 -269.499578 
L 233.671941 -269.499578 
L 230.104309 -268.708128 
L 226.536676 -268.092555 
L 222.969044 -268.092555 
L 219.401412 -268.092555 
L 215.833779 -267.301105 
L 212.266147 -267.301105 
L 208.698515 -267.125227 
L 205.130882 -267.125227 
L 201.56325 -267.037288 
L 197.995618 -266.86141 
L 194.427985 -266.86141 
L 190.860353 -266.333777 
L 187.29272 -265.894082 
L 183.725088 -265.102632 
L 180.157456 -264.223242 
L 176.589823 -262.728281 
L 173.022191 -262.552403 
L 169.454559 -261.93683 
L 165.886926 -261.848891 
L 162.319294 -261.409197 
L 158.751661 -261.409197 
L 155.184029 -261.233319 
L 151.616397 -261.233319 
L 148.048764 -258.946906 
L 144.481132 -258.946906 
L 140.9135 -258.946906 
L 137.345867 -258.771029 
L 133.778235 -258.68309 
L 130.210603 -253.406754 
L 126.64297 -251.911792 
L 123.075338 -251.911792 
L 119.507705 -247.426906 
L 115.940073 -246.2837 
L 112.372441 -246.019884 
L 108.804808 -244.436983 
L 105.237176 -244.436983 
L 101.669544 -240.215914 
L 98.101911 -237.138052 
L 94.534279 -235.115456 
L 90.966646 -234.060189 
L 87.399014 -233.444616 
L 83.831382 -208.382021 
L 80.263749 -203.017746 
L 76.696117 -194.663548 
L 73.128485 -190.266601 
L 69.560852 -158.872403 
z
" id="m919a8317f4" style="stroke:#1f77b4;stroke-opacity:0.2;"/>
    </defs>
    <g clip-path="url(#p0b1cf3434a)">
     <use style="fill:#1f77b4;fill-opacity:0.2;stroke:#1f77b4;stroke-opacity:0.2;" x="0" xlink:href="#m919a8317f4" y="325.986375"/>
    </g>
   </g>
   <g id="PolyCollection_3">
    <defs>
     <path d="M 69.560852 -63.546601 
L 69.560852 -49.65225 
L 73.128485 -60.029044 
L 76.696117 -66.448586 
L 80.263749 -71.724922 
L 83.831382 -74.451029 
L 87.399014 -79.419578 
L 90.966646 -82.626052 
L 94.534279 -85.531334 
L 98.101911 -87.817746 
L 101.669544 -90.367975 
L 105.237176 -94.852861 
L 108.804808 -96.5237 
L 112.372441 -99.468555 
L 115.940073 -99.513624 
L 119.507705 -102.239731 
L 123.075338 -103.690723 
L 126.64297 -103.382937 
L 130.210603 -104.086448 
L 133.778235 -105.229655 
L 137.345867 -108.571334 
L 140.9135 -108.571334 
L 144.481132 -109.71454 
L 148.048764 -110.022326 
L 151.616397 -110.945685 
L 155.184029 -111.590937 
L 158.751661 -112.088891 
L 162.319294 -113.493716 
L 165.886926 -114.814998 
L 169.454559 -115.166754 
L 173.022191 -114.814998 
L 176.589823 -116.749655 
L 180.157456 -118.156677 
L 183.725088 -119.255914 
L 187.29272 -119.255914 
L 190.860353 -119.298784 
L 194.427985 -119.298784 
L 197.995618 -121.673135 
L 201.56325 -120.531029 
L 205.130882 -122.201868 
L 208.698515 -122.553624 
L 212.266147 -123.784769 
L 215.833779 -123.99912 
L 219.401412 -125.013716 
L 222.969044 -125.36767 
L 226.536676 -125.36767 
L 230.104309 -125.147823 
L 233.671941 -125.147823 
L 237.239574 -125.895303 
L 240.807206 -126.950571 
L 244.374838 -127.207792 
L 247.942471 -128.885227 
L 251.510103 -128.881929 
L 255.077735 -130.29225 
L 258.645368 -131.254082 
L 262.213 -131.606937 
L 265.780632 -131.479426 
L 269.348265 -131.786113 
L 272.915897 -131.875151 
L 276.48353 -133.106296 
L 280.051162 -132.75454 
L 283.618794 -132.79851 
L 287.186427 -132.79741 
L 290.754059 -132.930418 
L 294.321691 -133.633929 
L 297.889324 -133.633929 
L 301.456956 -133.721868 
L 305.024589 -134.689197 
L 308.592221 -134.689197 
L 312.159853 -134.865074 
L 315.727486 -134.865074 
L 319.295118 -134.865074 
L 322.86275 -134.953013 
L 326.430383 -134.865074 
L 329.998015 -135.21683 
L 333.565647 -135.21683 
L 337.13328 -136.623853 
L 340.700912 -138.118815 
L 344.268545 -138.118815 
L 347.836177 -138.118815 
L 351.403809 -139.086143 
L 354.971442 -139.701716 
L 358.539074 -139.086143 
L 362.106706 -139.086143 
L 365.674339 -139.701716 
L 369.241971 -139.701716 
L 372.809604 -139.701716 
L 376.377236 -139.701716 
L 379.944868 -140.229349 
L 383.512501 -140.405227 
L 387.080133 -140.405227 
L 390.647765 -140.405227 
L 394.215398 -140.493166 
L 394.215398 -150.957899 
L 394.215398 -150.957899 
L 390.647765 -150.606143 
L 387.080133 -149.990571 
L 383.512501 -149.902632 
L 379.944868 -149.902632 
L 376.377236 -149.902632 
L 372.809604 -149.902632 
L 369.241971 -149.814693 
L 365.674339 -149.814693 
L 362.106706 -149.726754 
L 358.539074 -149.726754 
L 354.971442 -149.726754 
L 351.403809 -144.802174 
L 347.836177 -144.802174 
L 344.268545 -144.802174 
L 340.700912 -144.538357 
L 337.13328 -143.48309 
L 333.565647 -143.48309 
L 329.998015 -143.48309 
L 326.430383 -143.131334 
L 322.86275 -141.652861 
L 319.295118 -142.164006 
L 315.727486 -140.229349 
L 312.159853 -141.108739 
L 308.592221 -141.108739 
L 305.024589 -141.108739 
L 301.456956 -141.108739 
L 297.889324 -140.449197 
L 294.321691 -140.009502 
L 290.754059 -139.877594 
L 287.186427 -139.614876 
L 283.618794 -139.005899 
L 280.051162 -138.778357 
L 276.48353 -138.646448 
L 272.915897 -137.811029 
L 269.348265 -137.767059 
L 265.780632 -137.327365 
L 262.213 -137.063548 
L 258.645368 -137.063548 
L 255.077735 -136.975609 
L 251.510103 -135.876372 
L 247.942471 -135.876372 
L 244.374838 -135.040952 
L 240.807206 -134.996983 
L 237.239574 -134.645227 
L 233.671941 -133.941716 
L 230.104309 -132.79851 
L 226.536676 -132.666601 
L 222.969044 -132.79851 
L 219.401412 -132.79851 
L 215.833779 -132.138968 
L 212.266147 -132.358815 
L 208.698515 -128.973166 
L 205.130882 -128.973166 
L 201.56325 -126.642784 
L 197.995618 -126.598815 
L 194.427985 -126.20309 
L 190.860353 -125.543548 
L 187.29272 -125.499578 
L 183.725088 -124.840036 
L 180.157456 -123.872708 
L 176.589823 -123.828739 
L 173.022191 -123.213166 
L 169.454559 -123.081258 
L 165.886926 -122.86141 
L 162.319294 -122.597594 
L 158.751661 -121.762174 
L 155.184029 -121.190571 
L 151.616397 -120.311181 
L 148.048764 -118.684311 
L 144.481132 -118.508433 
L 140.9135 -118.948128 
L 137.345867 -118.596372 
L 133.778235 -117.453166 
L 130.210603 -116.134082 
L 126.64297 -115.175548 
L 123.075338 -112.044922 
L 119.507705 -109.362784 
L 115.940073 -108.527365 
L 112.372441 -107.883212 
L 108.804808 -105.757288 
L 105.237176 -103.95454 
L 101.669544 -100.393013 
L 98.101911 -99.073929 
L 94.534279 -96.699578 
L 90.966646 -93.094082 
L 87.399014 -89.928281 
L 83.831382 -85.487365 
L 80.263749 -79.991181 
L 76.696117 -75.594235 
L 73.128485 -70.933471 
L 69.560852 -63.546601 
z
" id="m1c575336cd" style="stroke:#98df8a;stroke-opacity:0.2;"/>
    </defs>
    <g clip-path="url(#p0b1cf3434a)">
     <use style="fill:#98df8a;fill-opacity:0.2;stroke:#98df8a;stroke-opacity:0.2;" x="0" xlink:href="#m1c575336cd" y="325.986375"/>
    </g>
   </g>
   <g id="matplotlib.axis_1">
    <g id="xtick_1">
     <g id="line2d_1">
      <defs>
       <path d="M 0 0 
L 0 3.5 
" id="mf8e836a4a7" style="stroke:#000000;stroke-width:0.8;"/>
      </defs>
      <g>
       <use style="stroke:#000000;stroke-width:0.8;" x="69.560852" xlink:href="#mf8e836a4a7" y="288.430125"/>
      </g>
     </g>
     <g id="text_1">
      <!-- 15m -->
      <g transform="translate(58.32804 303.028562)scale(0.1 -0.1)">
       <defs>
        <path d="M 794 531 
L 1825 531 
L 1825 4091 
L 703 3866 
L 703 4441 
L 1819 4666 
L 2450 4666 
L 2450 531 
L 3481 531 
L 3481 0 
L 794 0 
L 794 531 
z
" id="DejaVuSans-31" transform="scale(0.015625)"/>
        <path d="M 691 4666 
L 3169 4666 
L 3169 4134 
L 1269 4134 
L 1269 2991 
Q 1406 3038 1543 3061 
Q 1681 3084 1819 3084 
Q 2600 3084 3056 2656 
Q 3513 2228 3513 1497 
Q 3513 744 3044 326 
Q 2575 -91 1722 -91 
Q 1428 -91 1123 -41 
Q 819 9 494 109 
L 494 744 
Q 775 591 1075 516 
Q 1375 441 1709 441 
Q 2250 441 2565 725 
Q 2881 1009 2881 1497 
Q 2881 1984 2565 2268 
Q 2250 2553 1709 2553 
Q 1456 2553 1204 2497 
Q 953 2441 691 2322 
L 691 4666 
z
" id="DejaVuSans-35" transform="scale(0.015625)"/>
        <path d="M 3328 2828 
Q 3544 3216 3844 3400 
Q 4144 3584 4550 3584 
Q 5097 3584 5394 3201 
Q 5691 2819 5691 2113 
L 5691 0 
L 5113 0 
L 5113 2094 
Q 5113 2597 4934 2840 
Q 4756 3084 4391 3084 
Q 3944 3084 3684 2787 
Q 3425 2491 3425 1978 
L 3425 0 
L 2847 0 
L 2847 2094 
Q 2847 2600 2669 2842 
Q 2491 3084 2119 3084 
Q 1678 3084 1418 2786 
Q 1159 2488 1159 1978 
L 1159 0 
L 581 0 
L 581 3500 
L 1159 3500 
L 1159 2956 
Q 1356 3278 1631 3431 
Q 1906 3584 2284 3584 
Q 2666 3584 2933 3390 
Q 3200 3197 3328 2828 
z
" id="DejaVuSans-6d" transform="scale(0.015625)"/>
       </defs>
       <use xlink:href="#DejaVuSans-31"/>
       <use x="63.623047" xlink:href="#DejaVuSans-35"/>
       <use x="127.246094" xlink:href="#DejaVuSans-6d"/>
      </g>
     </g>
    </g>
    <g id="xtick_2">
     <g id="line2d_2">
      <g>
       <use style="stroke:#000000;stroke-width:0.8;" x="124.264549" xlink:href="#mf8e836a4a7" y="288.430125"/>
      </g>
     </g>
     <g id="text_2">
      <!-- 4h:5m -->
      <g transform="translate(108.178611 303.028562)scale(0.1 -0.1)">
       <defs>
        <path d="M 2419 4116 
L 825 1625 
L 2419 1625 
L 2419 4116 
z
M 2253 4666 
L 3047 4666 
L 3047 1625 
L 3713 1625 
L 3713 1100 
L 3047 1100 
L 3047 0 
L 2419 0 
L 2419 1100 
L 313 1100 
L 313 1709 
L 2253 4666 
z
" id="DejaVuSans-34" transform="scale(0.015625)"/>
        <path d="M 3513 2113 
L 3513 0 
L 2938 0 
L 2938 2094 
Q 2938 2591 2744 2837 
Q 2550 3084 2163 3084 
Q 1697 3084 1428 2787 
Q 1159 2491 1159 1978 
L 1159 0 
L 581 0 
L 581 4863 
L 1159 4863 
L 1159 2956 
Q 1366 3272 1645 3428 
Q 1925 3584 2291 3584 
Q 2894 3584 3203 3211 
Q 3513 2838 3513 2113 
z
" id="DejaVuSans-68" transform="scale(0.015625)"/>
        <path d="M 750 794 
L 1409 794 
L 1409 0 
L 750 0 
L 750 794 
z
M 750 3309 
L 1409 3309 
L 1409 2516 
L 750 2516 
L 750 3309 
z
" id="DejaVuSans-3a" transform="scale(0.015625)"/>
       </defs>
       <use xlink:href="#DejaVuSans-34"/>
       <use x="63.623047" xlink:href="#DejaVuSans-68"/>
       <use x="127.001953" xlink:href="#DejaVuSans-3a"/>
       <use x="160.693359" xlink:href="#DejaVuSans-35"/>
       <use x="224.316406" xlink:href="#DejaVuSans-6d"/>
      </g>
     </g>
    </g>
    <g id="xtick_3">
     <g id="line2d_3">
      <g>
       <use style="stroke:#000000;stroke-width:0.8;" x="178.968245" xlink:href="#mf8e836a4a7" y="288.430125"/>
      </g>
     </g>
     <g id="text_3">
      <!-- 7h:55m -->
      <g transform="translate(159.701057 303.028562)scale(0.1 -0.1)">
       <defs>
        <path d="M 525 4666 
L 3525 4666 
L 3525 4397 
L 1831 0 
L 1172 0 
L 2766 4134 
L 525 4134 
L 525 4666 
z
" id="DejaVuSans-37" transform="scale(0.015625)"/>
       </defs>
       <use xlink:href="#DejaVuSans-37"/>
       <use x="63.623047" xlink:href="#DejaVuSans-68"/>
       <use x="127.001953" xlink:href="#DejaVuSans-3a"/>
       <use x="160.693359" xlink:href="#DejaVuSans-35"/>
       <use x="224.316406" xlink:href="#DejaVuSans-35"/>
       <use x="287.939453" xlink:href="#DejaVuSans-6d"/>
      </g>
     </g>
    </g>
    <g id="xtick_4">
     <g id="line2d_4">
      <g>
       <use style="stroke:#000000;stroke-width:0.8;" x="233.671941" xlink:href="#mf8e836a4a7" y="288.430125"/>
      </g>
     </g>
     <g id="text_4">
      <!-- 11h:45m -->
      <g transform="translate(211.223504 303.028562)scale(0.1 -0.1)">
       <use xlink:href="#DejaVuSans-31"/>
       <use x="63.623047" xlink:href="#DejaVuSans-31"/>
       <use x="127.246094" xlink:href="#DejaVuSans-68"/>
       <use x="190.625" xlink:href="#DejaVuSans-3a"/>
       <use x="224.316406" xlink:href="#DejaVuSans-34"/>
       <use x="287.939453" xlink:href="#DejaVuSans-35"/>
       <use x="351.5625" xlink:href="#DejaVuSans-6d"/>
      </g>
     </g>
    </g>
    <g id="xtick_5">
     <g id="line2d_5">
      <g>
       <use style="stroke:#000000;stroke-width:0.8;" x="288.375637" xlink:href="#mf8e836a4a7" y="288.430125"/>
      </g>
     </g>
     <g id="text_5">
      <!-- 15h:35m -->
      <g transform="translate(265.9272 303.028562)scale(0.1 -0.1)">
       <defs>
        <path d="M 2597 2516 
Q 3050 2419 3304 2112 
Q 3559 1806 3559 1356 
Q 3559 666 3084 287 
Q 2609 -91 1734 -91 
Q 1441 -91 1130 -33 
Q 819 25 488 141 
L 488 750 
Q 750 597 1062 519 
Q 1375 441 1716 441 
Q 2309 441 2620 675 
Q 2931 909 2931 1356 
Q 2931 1769 2642 2001 
Q 2353 2234 1838 2234 
L 1294 2234 
L 1294 2753 
L 1863 2753 
Q 2328 2753 2575 2939 
Q 2822 3125 2822 3475 
Q 2822 3834 2567 4026 
Q 2313 4219 1838 4219 
Q 1578 4219 1281 4162 
Q 984 4106 628 3988 
L 628 4550 
Q 988 4650 1302 4700 
Q 1616 4750 1894 4750 
Q 2613 4750 3031 4423 
Q 3450 4097 3450 3541 
Q 3450 3153 3228 2886 
Q 3006 2619 2597 2516 
z
" id="DejaVuSans-33" transform="scale(0.015625)"/>
       </defs>
       <use xlink:href="#DejaVuSans-31"/>
       <use x="63.623047" xlink:href="#DejaVuSans-35"/>
       <use x="127.246094" xlink:href="#DejaVuSans-68"/>
       <use x="190.625" xlink:href="#DejaVuSans-3a"/>
       <use x="224.316406" xlink:href="#DejaVuSans-33"/>
       <use x="287.939453" xlink:href="#DejaVuSans-35"/>
       <use x="351.5625" xlink:href="#DejaVuSans-6d"/>
      </g>
     </g>
    </g>
    <g id="xtick_6">
     <g id="line2d_6">
      <g>
       <use style="stroke:#000000;stroke-width:0.8;" x="343.079334" xlink:href="#mf8e836a4a7" y="288.430125"/>
      </g>
     </g>
     <g id="text_6">
      <!-- 19h:25m -->
      <g transform="translate(320.630896 303.028562)scale(0.1 -0.1)">
       <defs>
        <path d="M 703 97 
L 703 672 
Q 941 559 1184 500 
Q 1428 441 1663 441 
Q 2288 441 2617 861 
Q 2947 1281 2994 2138 
Q 2813 1869 2534 1725 
Q 2256 1581 1919 1581 
Q 1219 1581 811 2004 
Q 403 2428 403 3163 
Q 403 3881 828 4315 
Q 1253 4750 1959 4750 
Q 2769 4750 3195 4129 
Q 3622 3509 3622 2328 
Q 3622 1225 3098 567 
Q 2575 -91 1691 -91 
Q 1453 -91 1209 -44 
Q 966 3 703 97 
z
M 1959 2075 
Q 2384 2075 2632 2365 
Q 2881 2656 2881 3163 
Q 2881 3666 2632 3958 
Q 2384 4250 1959 4250 
Q 1534 4250 1286 3958 
Q 1038 3666 1038 3163 
Q 1038 2656 1286 2365 
Q 1534 2075 1959 2075 
z
" id="DejaVuSans-39" transform="scale(0.015625)"/>
        <path d="M 1228 531 
L 3431 531 
L 3431 0 
L 469 0 
L 469 531 
Q 828 903 1448 1529 
Q 2069 2156 2228 2338 
Q 2531 2678 2651 2914 
Q 2772 3150 2772 3378 
Q 2772 3750 2511 3984 
Q 2250 4219 1831 4219 
Q 1534 4219 1204 4116 
Q 875 4013 500 3803 
L 500 4441 
Q 881 4594 1212 4672 
Q 1544 4750 1819 4750 
Q 2544 4750 2975 4387 
Q 3406 4025 3406 3419 
Q 3406 3131 3298 2873 
Q 3191 2616 2906 2266 
Q 2828 2175 2409 1742 
Q 1991 1309 1228 531 
z
" id="DejaVuSans-32" transform="scale(0.015625)"/>
       </defs>
       <use xlink:href="#DejaVuSans-31"/>
       <use x="63.623047" xlink:href="#DejaVuSans-39"/>
       <use x="127.246094" xlink:href="#DejaVuSans-68"/>
       <use x="190.625" xlink:href="#DejaVuSans-3a"/>
       <use x="224.316406" xlink:href="#DejaVuSans-32"/>
       <use x="287.939453" xlink:href="#DejaVuSans-35"/>
       <use x="351.5625" xlink:href="#DejaVuSans-6d"/>
      </g>
     </g>
    </g>
    <g id="text_7">
     <!-- Time (hour:minute) -->
     <g transform="translate(183.481094 316.706687)scale(0.1 -0.1)">
      <defs>
       <path d="M -19 4666 
L 3928 4666 
L 3928 4134 
L 2272 4134 
L 2272 0 
L 1638 0 
L 1638 4134 
L -19 4134 
L -19 4666 
z
" id="DejaVuSans-54" transform="scale(0.015625)"/>
       <path d="M 603 3500 
L 1178 3500 
L 1178 0 
L 603 0 
L 603 3500 
z
M 603 4863 
L 1178 4863 
L 1178 4134 
L 603 4134 
L 603 4863 
z
" id="DejaVuSans-69" transform="scale(0.015625)"/>
       <path d="M 3597 1894 
L 3597 1613 
L 953 1613 
Q 991 1019 1311 708 
Q 1631 397 2203 397 
Q 2534 397 2845 478 
Q 3156 559 3463 722 
L 3463 178 
Q 3153 47 2828 -22 
Q 2503 -91 2169 -91 
Q 1331 -91 842 396 
Q 353 884 353 1716 
Q 353 2575 817 3079 
Q 1281 3584 2069 3584 
Q 2775 3584 3186 3129 
Q 3597 2675 3597 1894 
z
M 3022 2063 
Q 3016 2534 2758 2815 
Q 2500 3097 2075 3097 
Q 1594 3097 1305 2825 
Q 1016 2553 972 2059 
L 3022 2063 
z
" id="DejaVuSans-65" transform="scale(0.015625)"/>
       <path id="DejaVuSans-20" transform="scale(0.015625)"/>
       <path d="M 1984 4856 
Q 1566 4138 1362 3434 
Q 1159 2731 1159 2009 
Q 1159 1288 1364 580 
Q 1569 -128 1984 -844 
L 1484 -844 
Q 1016 -109 783 600 
Q 550 1309 550 2009 
Q 550 2706 781 3412 
Q 1013 4119 1484 4856 
L 1984 4856 
z
" id="DejaVuSans-28" transform="scale(0.015625)"/>
       <path d="M 1959 3097 
Q 1497 3097 1228 2736 
Q 959 2375 959 1747 
Q 959 1119 1226 758 
Q 1494 397 1959 397 
Q 2419 397 2687 759 
Q 2956 1122 2956 1747 
Q 2956 2369 2687 2733 
Q 2419 3097 1959 3097 
z
M 1959 3584 
Q 2709 3584 3137 3096 
Q 3566 2609 3566 1747 
Q 3566 888 3137 398 
Q 2709 -91 1959 -91 
Q 1206 -91 779 398 
Q 353 888 353 1747 
Q 353 2609 779 3096 
Q 1206 3584 1959 3584 
z
" id="DejaVuSans-6f" transform="scale(0.015625)"/>
       <path d="M 544 1381 
L 544 3500 
L 1119 3500 
L 1119 1403 
Q 1119 906 1312 657 
Q 1506 409 1894 409 
Q 2359 409 2629 706 
Q 2900 1003 2900 1516 
L 2900 3500 
L 3475 3500 
L 3475 0 
L 2900 0 
L 2900 538 
Q 2691 219 2414 64 
Q 2138 -91 1772 -91 
Q 1169 -91 856 284 
Q 544 659 544 1381 
z
M 1991 3584 
L 1991 3584 
z
" id="DejaVuSans-75" transform="scale(0.015625)"/>
       <path d="M 2631 2963 
Q 2534 3019 2420 3045 
Q 2306 3072 2169 3072 
Q 1681 3072 1420 2755 
Q 1159 2438 1159 1844 
L 1159 0 
L 581 0 
L 581 3500 
L 1159 3500 
L 1159 2956 
Q 1341 3275 1631 3429 
Q 1922 3584 2338 3584 
Q 2397 3584 2469 3576 
Q 2541 3569 2628 3553 
L 2631 2963 
z
" id="DejaVuSans-72" transform="scale(0.015625)"/>
       <path d="M 3513 2113 
L 3513 0 
L 2938 0 
L 2938 2094 
Q 2938 2591 2744 2837 
Q 2550 3084 2163 3084 
Q 1697 3084 1428 2787 
Q 1159 2491 1159 1978 
L 1159 0 
L 581 0 
L 581 3500 
L 1159 3500 
L 1159 2956 
Q 1366 3272 1645 3428 
Q 1925 3584 2291 3584 
Q 2894 3584 3203 3211 
Q 3513 2838 3513 2113 
z
" id="DejaVuSans-6e" transform="scale(0.015625)"/>
       <path d="M 1172 4494 
L 1172 3500 
L 2356 3500 
L 2356 3053 
L 1172 3053 
L 1172 1153 
Q 1172 725 1289 603 
Q 1406 481 1766 481 
L 2356 481 
L 2356 0 
L 1766 0 
Q 1100 0 847 248 
Q 594 497 594 1153 
L 594 3053 
L 172 3053 
L 172 3500 
L 594 3500 
L 594 4494 
L 1172 4494 
z
" id="DejaVuSans-74" transform="scale(0.015625)"/>
       <path d="M 513 4856 
L 1013 4856 
Q 1481 4119 1714 3412 
Q 1947 2706 1947 2009 
Q 1947 1309 1714 600 
Q 1481 -109 1013 -844 
L 513 -844 
Q 928 -128 1133 580 
Q 1338 1288 1338 2009 
Q 1338 2731 1133 3434 
Q 928 4138 513 4856 
z
" id="DejaVuSans-29" transform="scale(0.015625)"/>
      </defs>
      <use xlink:href="#DejaVuSans-54"/>
      <use x="57.958984" xlink:href="#DejaVuSans-69"/>
      <use x="85.742188" xlink:href="#DejaVuSans-6d"/>
      <use x="183.154297" xlink:href="#DejaVuSans-65"/>
      <use x="244.677734" xlink:href="#DejaVuSans-20"/>
      <use x="276.464844" xlink:href="#DejaVuSans-28"/>
      <use x="315.478516" xlink:href="#DejaVuSans-68"/>
      <use x="378.857422" xlink:href="#DejaVuSans-6f"/>
      <use x="440.039062" xlink:href="#DejaVuSans-75"/>
      <use x="503.417969" xlink:href="#DejaVuSans-72"/>
      <use x="542.78125" xlink:href="#DejaVuSans-3a"/>
      <use x="576.472656" xlink:href="#DejaVuSans-6d"/>
      <use x="673.884766" xlink:href="#DejaVuSans-69"/>
      <use x="701.667969" xlink:href="#DejaVuSans-6e"/>
      <use x="765.046875" xlink:href="#DejaVuSans-75"/>
      <use x="828.425781" xlink:href="#DejaVuSans-74"/>
      <use x="867.634766" xlink:href="#DejaVuSans-65"/>
      <use x="929.158203" xlink:href="#DejaVuSans-29"/>
     </g>
    </g>
   </g>
   <g id="matplotlib.axis_2">
    <g id="ytick_1">
     <g id="line2d_7">
      <defs>
       <path d="M 0 0 
L -3.5 0 
" id="m8cf83d4006" style="stroke:#000000;stroke-width:0.8;"/>
      </defs>
      <g>
       <use style="stroke:#000000;stroke-width:0.8;" x="53.328125" xlink:href="#m8cf83d4006" y="246.346949"/>
      </g>
     </g>
     <g id="text_8">
      <!-- 5000 -->
      <g transform="translate(20.878125 250.146168)scale(0.1 -0.1)">
       <defs>
        <path d="M 2034 4250 
Q 1547 4250 1301 3770 
Q 1056 3291 1056 2328 
Q 1056 1369 1301 889 
Q 1547 409 2034 409 
Q 2525 409 2770 889 
Q 3016 1369 3016 2328 
Q 3016 3291 2770 3770 
Q 2525 4250 2034 4250 
z
M 2034 4750 
Q 2819 4750 3233 4129 
Q 3647 3509 3647 2328 
Q 3647 1150 3233 529 
Q 2819 -91 2034 -91 
Q 1250 -91 836 529 
Q 422 1150 422 2328 
Q 422 3509 836 4129 
Q 1250 4750 2034 4750 
z
" id="DejaVuSans-30" transform="scale(0.015625)"/>
       </defs>
       <use xlink:href="#DejaVuSans-35"/>
       <use x="63.623047" xlink:href="#DejaVuSans-30"/>
       <use x="127.246094" xlink:href="#DejaVuSans-30"/>
       <use x="190.869141" xlink:href="#DejaVuSans-30"/>
      </g>
     </g>
    </g>
    <g id="ytick_2">
     <g id="line2d_8">
      <g>
       <use style="stroke:#000000;stroke-width:0.8;" x="53.328125" xlink:href="#m8cf83d4006" y="202.377484"/>
      </g>
     </g>
     <g id="text_9">
      <!-- 5500 -->
      <g transform="translate(20.878125 206.176703)scale(0.1 -0.1)">
       <use xlink:href="#DejaVuSans-35"/>
       <use x="63.623047" xlink:href="#DejaVuSans-35"/>
       <use x="127.246094" xlink:href="#DejaVuSans-30"/>
       <use x="190.869141" xlink:href="#DejaVuSans-30"/>
      </g>
     </g>
    </g>
    <g id="ytick_3">
     <g id="line2d_9">
      <g>
       <use style="stroke:#000000;stroke-width:0.8;" x="53.328125" xlink:href="#m8cf83d4006" y="158.408018"/>
      </g>
     </g>
     <g id="text_10">
      <!-- 6000 -->
      <g transform="translate(20.878125 162.207237)scale(0.1 -0.1)">
       <defs>
        <path d="M 2113 2584 
Q 1688 2584 1439 2293 
Q 1191 2003 1191 1497 
Q 1191 994 1439 701 
Q 1688 409 2113 409 
Q 2538 409 2786 701 
Q 3034 994 3034 1497 
Q 3034 2003 2786 2293 
Q 2538 2584 2113 2584 
z
M 3366 4563 
L 3366 3988 
Q 3128 4100 2886 4159 
Q 2644 4219 2406 4219 
Q 1781 4219 1451 3797 
Q 1122 3375 1075 2522 
Q 1259 2794 1537 2939 
Q 1816 3084 2150 3084 
Q 2853 3084 3261 2657 
Q 3669 2231 3669 1497 
Q 3669 778 3244 343 
Q 2819 -91 2113 -91 
Q 1303 -91 875 529 
Q 447 1150 447 2328 
Q 447 3434 972 4092 
Q 1497 4750 2381 4750 
Q 2619 4750 2861 4703 
Q 3103 4656 3366 4563 
z
" id="DejaVuSans-36" transform="scale(0.015625)"/>
       </defs>
       <use xlink:href="#DejaVuSans-36"/>
       <use x="63.623047" xlink:href="#DejaVuSans-30"/>
       <use x="127.246094" xlink:href="#DejaVuSans-30"/>
       <use x="190.869141" xlink:href="#DejaVuSans-30"/>
      </g>
     </g>
    </g>
    <g id="ytick_4">
     <g id="line2d_10">
      <g>
       <use style="stroke:#000000;stroke-width:0.8;" x="53.328125" xlink:href="#m8cf83d4006" y="114.438552"/>
      </g>
     </g>
     <g id="text_11">
      <!-- 6500 -->
      <g transform="translate(20.878125 118.237771)scale(0.1 -0.1)">
       <use xlink:href="#DejaVuSans-36"/>
       <use x="63.623047" xlink:href="#DejaVuSans-35"/>
       <use x="127.246094" xlink:href="#DejaVuSans-30"/>
       <use x="190.869141" xlink:href="#DejaVuSans-30"/>
      </g>
     </g>
    </g>
    <g id="ytick_5">
     <g id="line2d_11">
      <g>
       <use style="stroke:#000000;stroke-width:0.8;" x="53.328125" xlink:href="#m8cf83d4006" y="70.469087"/>
      </g>
     </g>
     <g id="text_12">
      <!-- 7000 -->
      <g transform="translate(20.878125 74.268306)scale(0.1 -0.1)">
       <use xlink:href="#DejaVuSans-37"/>
       <use x="63.623047" xlink:href="#DejaVuSans-30"/>
       <use x="127.246094" xlink:href="#DejaVuSans-30"/>
       <use x="190.869141" xlink:href="#DejaVuSans-30"/>
      </g>
     </g>
    </g>
    <g id="ytick_6">
     <g id="line2d_12">
      <g>
       <use style="stroke:#000000;stroke-width:0.8;" x="53.328125" xlink:href="#m8cf83d4006" y="26.499621"/>
      </g>
     </g>
     <g id="text_13">
      <!-- 7500 -->
      <g transform="translate(20.878125 30.29884)scale(0.1 -0.1)">
       <use xlink:href="#DejaVuSans-37"/>
       <use x="63.623047" xlink:href="#DejaVuSans-35"/>
       <use x="127.246094" xlink:href="#DejaVuSans-30"/>
       <use x="190.869141" xlink:href="#DejaVuSans-30"/>
      </g>
     </g>
    </g>
    <g id="text_14">
     <!-- Code region coverage -->
     <g transform="translate(14.798438 210.379594)rotate(-90)scale(0.1 -0.1)">
      <defs>
       <path d="M 4122 4306 
L 4122 3641 
Q 3803 3938 3442 4084 
Q 3081 4231 2675 4231 
Q 1875 4231 1450 3742 
Q 1025 3253 1025 2328 
Q 1025 1406 1450 917 
Q 1875 428 2675 428 
Q 3081 428 3442 575 
Q 3803 722 4122 1019 
L 4122 359 
Q 3791 134 3420 21 
Q 3050 -91 2638 -91 
Q 1578 -91 968 557 
Q 359 1206 359 2328 
Q 359 3453 968 4101 
Q 1578 4750 2638 4750 
Q 3056 4750 3426 4639 
Q 3797 4528 4122 4306 
z
" id="DejaVuSans-43" transform="scale(0.015625)"/>
       <path d="M 2906 2969 
L 2906 4863 
L 3481 4863 
L 3481 0 
L 2906 0 
L 2906 525 
Q 2725 213 2448 61 
Q 2172 -91 1784 -91 
Q 1150 -91 751 415 
Q 353 922 353 1747 
Q 353 2572 751 3078 
Q 1150 3584 1784 3584 
Q 2172 3584 2448 3432 
Q 2725 3281 2906 2969 
z
M 947 1747 
Q 947 1113 1208 752 
Q 1469 391 1925 391 
Q 2381 391 2643 752 
Q 2906 1113 2906 1747 
Q 2906 2381 2643 2742 
Q 2381 3103 1925 3103 
Q 1469 3103 1208 2742 
Q 947 2381 947 1747 
z
" id="DejaVuSans-64" transform="scale(0.015625)"/>
       <path d="M 2906 1791 
Q 2906 2416 2648 2759 
Q 2391 3103 1925 3103 
Q 1463 3103 1205 2759 
Q 947 2416 947 1791 
Q 947 1169 1205 825 
Q 1463 481 1925 481 
Q 2391 481 2648 825 
Q 2906 1169 2906 1791 
z
M 3481 434 
Q 3481 -459 3084 -895 
Q 2688 -1331 1869 -1331 
Q 1566 -1331 1297 -1286 
Q 1028 -1241 775 -1147 
L 775 -588 
Q 1028 -725 1275 -790 
Q 1522 -856 1778 -856 
Q 2344 -856 2625 -561 
Q 2906 -266 2906 331 
L 2906 616 
Q 2728 306 2450 153 
Q 2172 0 1784 0 
Q 1141 0 747 490 
Q 353 981 353 1791 
Q 353 2603 747 3093 
Q 1141 3584 1784 3584 
Q 2172 3584 2450 3431 
Q 2728 3278 2906 2969 
L 2906 3500 
L 3481 3500 
L 3481 434 
z
" id="DejaVuSans-67" transform="scale(0.015625)"/>
       <path d="M 3122 3366 
L 3122 2828 
Q 2878 2963 2633 3030 
Q 2388 3097 2138 3097 
Q 1578 3097 1268 2742 
Q 959 2388 959 1747 
Q 959 1106 1268 751 
Q 1578 397 2138 397 
Q 2388 397 2633 464 
Q 2878 531 3122 666 
L 3122 134 
Q 2881 22 2623 -34 
Q 2366 -91 2075 -91 
Q 1284 -91 818 406 
Q 353 903 353 1747 
Q 353 2603 823 3093 
Q 1294 3584 2113 3584 
Q 2378 3584 2631 3529 
Q 2884 3475 3122 3366 
z
" id="DejaVuSans-63" transform="scale(0.015625)"/>
       <path d="M 191 3500 
L 800 3500 
L 1894 563 
L 2988 3500 
L 3597 3500 
L 2284 0 
L 1503 0 
L 191 3500 
z
" id="DejaVuSans-76" transform="scale(0.015625)"/>
       <path d="M 2194 1759 
Q 1497 1759 1228 1600 
Q 959 1441 959 1056 
Q 959 750 1161 570 
Q 1363 391 1709 391 
Q 2188 391 2477 730 
Q 2766 1069 2766 1631 
L 2766 1759 
L 2194 1759 
z
M 3341 1997 
L 3341 0 
L 2766 0 
L 2766 531 
Q 2569 213 2275 61 
Q 1981 -91 1556 -91 
Q 1019 -91 701 211 
Q 384 513 384 1019 
Q 384 1609 779 1909 
Q 1175 2209 1959 2209 
L 2766 2209 
L 2766 2266 
Q 2766 2663 2505 2880 
Q 2244 3097 1772 3097 
Q 1472 3097 1187 3025 
Q 903 2953 641 2809 
L 641 3341 
Q 956 3463 1253 3523 
Q 1550 3584 1831 3584 
Q 2591 3584 2966 3190 
Q 3341 2797 3341 1997 
z
" id="DejaVuSans-61" transform="scale(0.015625)"/>
      </defs>
      <use xlink:href="#DejaVuSans-43"/>
      <use x="69.824219" xlink:href="#DejaVuSans-6f"/>
      <use x="131.005859" xlink:href="#DejaVuSans-64"/>
      <use x="194.482422" xlink:href="#DejaVuSans-65"/>
      <use x="256.005859" xlink:href="#DejaVuSans-20"/>
      <use x="287.792969" xlink:href="#DejaVuSans-72"/>
      <use x="326.65625" xlink:href="#DejaVuSans-65"/>
      <use x="388.179688" xlink:href="#DejaVuSans-67"/>
      <use x="451.65625" xlink:href="#DejaVuSans-69"/>
      <use x="479.439453" xlink:href="#DejaVuSans-6f"/>
      <use x="540.621094" xlink:href="#DejaVuSans-6e"/>
      <use x="604" xlink:href="#DejaVuSans-20"/>
      <use x="635.787109" xlink:href="#DejaVuSans-63"/>
      <use x="690.767578" xlink:href="#DejaVuSans-6f"/>
      <use x="751.949219" xlink:href="#DejaVuSans-76"/>
      <use x="811.128906" xlink:href="#DejaVuSans-65"/>
      <use x="872.652344" xlink:href="#DejaVuSans-72"/>
      <use x="913.765625" xlink:href="#DejaVuSans-61"/>
      <use x="975.044922" xlink:href="#DejaVuSans-67"/>
      <use x="1038.521484" xlink:href="#DejaVuSans-65"/>
     </g>
    </g>
   </g>
   <g id="line2d_13">
    <path clip-path="url(#p0b1cf3434a)" d="M 69.560852 169.356415 
L 73.128485 134.444659 
L 76.696117 124.815346 
L 80.263749 111.624507 
L 83.831382 103.797942 
L 87.399014 99.181148 
L 90.966646 93.772904 
L 94.534279 92.717636 
L 98.101911 89.463896 
L 101.669544 87.880995 
L 105.237176 85.330766 
L 108.804808 84.891072 
L 112.372441 82.780537 
L 115.940073 81.857178 
L 119.507705 80.757942 
L 123.075338 80.230308 
L 126.64297 79.438858 
L 130.210603 77.152446 
L 133.778235 76.624812 
L 137.345867 76.00924 
L 140.9135 74.29443 
L 144.481132 75.12985 
L 148.048764 72.491682 
L 151.616397 69.41382 
L 155.184029 68.886186 
L 158.751661 68.182675 
L 162.319294 66.687713 
L 165.886926 66.379927 
L 169.454559 66.335957 
L 173.022191 66.11611 
L 176.589823 64.225423 
L 180.157456 63.258094 
L 183.725088 63.258094 
L 187.29272 62.202827 
L 190.860353 62.202827 
L 194.427985 62.466644 
L 197.995618 62.466644 
L 201.56325 62.466644 
L 205.130882 61.675194 
L 208.698515 60.268171 
L 212.266147 58.069698 
L 215.833779 55.695346 
L 219.401412 55.607407 
L 222.969044 55.079774 
L 226.536676 54.024507 
L 230.104309 54.024507 
L 233.671941 52.617484 
L 237.239574 51.122522 
L 240.807206 50.682827 
L 244.374838 50.594888 
L 247.942471 50.594888 
L 251.510103 50.594888 
L 255.077735 50.41901 
L 258.645368 50.331072 
L 262.213 50.243133 
L 265.780632 49.891377 
L 269.348265 49.715499 
L 272.915897 49.715499 
L 276.48353 49.715499 
L 280.051162 49.715499 
L 283.618794 49.62756 
L 287.186427 49.62756 
L 290.754059 49.187865 
L 294.321691 48.748171 
L 297.889324 48.748171 
L 301.456956 48.484354 
L 305.024589 48.352446 
L 308.592221 48.352446 
L 312.159853 48.484354 
L 315.727486 48.220537 
L 319.295118 48.044659 
L 322.86275 48.044659 
L 326.430383 47.868781 
L 329.998015 47.868781 
L 333.565647 47.868781 
L 337.13328 47.868781 
L 340.700912 47.868781 
L 344.268545 47.868781 
L 347.836177 47.780843 
L 351.403809 47.780843 
L 354.971442 47.780843 
L 358.539074 47.780843 
L 362.106706 47.780843 
L 365.674339 47.780843 
L 369.241971 46.285881 
L 372.809604 46.285881 
L 376.377236 46.285881 
L 379.944868 45.230614 
L 383.512501 44.70298 
L 387.080133 44.70298 
L 390.647765 44.70298 
L 394.215398 44.70298 
" style="fill:none;stroke:#d62728;stroke-linecap:square;stroke-width:1.5;"/>
    <defs>
     <path d="M 0 -3 
L -3 3 
L 3 3 
z
" id="m2d273bf4cb" style="stroke:#ffffff;stroke-linejoin:miter;stroke-width:0.75;"/>
    </defs>
    <g clip-path="url(#p0b1cf3434a)">
     <use style="fill:#d62728;stroke:#ffffff;stroke-linejoin:miter;stroke-width:0.75;" x="69.560852" xlink:href="#m2d273bf4cb" y="169.356415"/>
     <use style="fill:#d62728;stroke:#ffffff;stroke-linejoin:miter;stroke-width:0.75;" x="73.128485" xlink:href="#m2d273bf4cb" y="134.444659"/>
     <use style="fill:#d62728;stroke:#ffffff;stroke-linejoin:miter;stroke-width:0.75;" x="76.696117" xlink:href="#m2d273bf4cb" y="124.815346"/>
     <use style="fill:#d62728;stroke:#ffffff;stroke-linejoin:miter;stroke-width:0.75;" x="80.263749" xlink:href="#m2d273bf4cb" y="111.624507"/>
     <use style="fill:#d62728;stroke:#ffffff;stroke-linejoin:miter;stroke-width:0.75;" x="83.831382" xlink:href="#m2d273bf4cb" y="103.797942"/>
     <use style="fill:#d62728;stroke:#ffffff;stroke-linejoin:miter;stroke-width:0.75;" x="87.399014" xlink:href="#m2d273bf4cb" y="99.181148"/>
     <use style="fill:#d62728;stroke:#ffffff;stroke-linejoin:miter;stroke-width:0.75;" x="90.966646" xlink:href="#m2d273bf4cb" y="93.772904"/>
     <use style="fill:#d62728;stroke:#ffffff;stroke-linejoin:miter;stroke-width:0.75;" x="94.534279" xlink:href="#m2d273bf4cb" y="92.717636"/>
     <use style="fill:#d62728;stroke:#ffffff;stroke-linejoin:miter;stroke-width:0.75;" x="98.101911" xlink:href="#m2d273bf4cb" y="89.463896"/>
     <use style="fill:#d62728;stroke:#ffffff;stroke-linejoin:miter;stroke-width:0.75;" x="101.669544" xlink:href="#m2d273bf4cb" y="87.880995"/>
     <use style="fill:#d62728;stroke:#ffffff;stroke-linejoin:miter;stroke-width:0.75;" x="105.237176" xlink:href="#m2d273bf4cb" y="85.330766"/>
     <use style="fill:#d62728;stroke:#ffffff;stroke-linejoin:miter;stroke-width:0.75;" x="108.804808" xlink:href="#m2d273bf4cb" y="84.891072"/>
     <use style="fill:#d62728;stroke:#ffffff;stroke-linejoin:miter;stroke-width:0.75;" x="112.372441" xlink:href="#m2d273bf4cb" y="82.780537"/>
     <use style="fill:#d62728;stroke:#ffffff;stroke-linejoin:miter;stroke-width:0.75;" x="115.940073" xlink:href="#m2d273bf4cb" y="81.857178"/>
     <use style="fill:#d62728;stroke:#ffffff;stroke-linejoin:miter;stroke-width:0.75;" x="119.507705" xlink:href="#m2d273bf4cb" y="80.757942"/>
     <use style="fill:#d62728;stroke:#ffffff;stroke-linejoin:miter;stroke-width:0.75;" x="123.075338" xlink:href="#m2d273bf4cb" y="80.230308"/>
     <use style="fill:#d62728;stroke:#ffffff;stroke-linejoin:miter;stroke-width:0.75;" x="126.64297" xlink:href="#m2d273bf4cb" y="79.438858"/>
     <use style="fill:#d62728;stroke:#ffffff;stroke-linejoin:miter;stroke-width:0.75;" x="130.210603" xlink:href="#m2d273bf4cb" y="77.152446"/>
     <use style="fill:#d62728;stroke:#ffffff;stroke-linejoin:miter;stroke-width:0.75;" x="133.778235" xlink:href="#m2d273bf4cb" y="76.624812"/>
     <use style="fill:#d62728;stroke:#ffffff;stroke-linejoin:miter;stroke-width:0.75;" x="137.345867" xlink:href="#m2d273bf4cb" y="76.00924"/>
     <use style="fill:#d62728;stroke:#ffffff;stroke-linejoin:miter;stroke-width:0.75;" x="140.9135" xlink:href="#m2d273bf4cb" y="74.29443"/>
     <use style="fill:#d62728;stroke:#ffffff;stroke-linejoin:miter;stroke-width:0.75;" x="144.481132" xlink:href="#m2d273bf4cb" y="75.12985"/>
     <use style="fill:#d62728;stroke:#ffffff;stroke-linejoin:miter;stroke-width:0.75;" x="148.048764" xlink:href="#m2d273bf4cb" y="72.491682"/>
     <use style="fill:#d62728;stroke:#ffffff;stroke-linejoin:miter;stroke-width:0.75;" x="151.616397" xlink:href="#m2d273bf4cb" y="69.41382"/>
     <use style="fill:#d62728;stroke:#ffffff;stroke-linejoin:miter;stroke-width:0.75;" x="155.184029" xlink:href="#m2d273bf4cb" y="68.886186"/>
     <use style="fill:#d62728;stroke:#ffffff;stroke-linejoin:miter;stroke-width:0.75;" x="158.751661" xlink:href="#m2d273bf4cb" y="68.182675"/>
     <use style="fill:#d62728;stroke:#ffffff;stroke-linejoin:miter;stroke-width:0.75;" x="162.319294" xlink:href="#m2d273bf4cb" y="66.687713"/>
     <use style="fill:#d62728;stroke:#ffffff;stroke-linejoin:miter;stroke-width:0.75;" x="165.886926" xlink:href="#m2d273bf4cb" y="66.379927"/>
     <use style="fill:#d62728;stroke:#ffffff;stroke-linejoin:miter;stroke-width:0.75;" x="169.454559" xlink:href="#m2d273bf4cb" y="66.335957"/>
     <use style="fill:#d62728;stroke:#ffffff;stroke-linejoin:miter;stroke-width:0.75;" x="173.022191" xlink:href="#m2d273bf4cb" y="66.11611"/>
     <use style="fill:#d62728;stroke:#ffffff;stroke-linejoin:miter;stroke-width:0.75;" x="176.589823" xlink:href="#m2d273bf4cb" y="64.225423"/>
     <use style="fill:#d62728;stroke:#ffffff;stroke-linejoin:miter;stroke-width:0.75;" x="180.157456" xlink:href="#m2d273bf4cb" y="63.258094"/>
     <use style="fill:#d62728;stroke:#ffffff;stroke-linejoin:miter;stroke-width:0.75;" x="183.725088" xlink:href="#m2d273bf4cb" y="63.258094"/>
     <use style="fill:#d62728;stroke:#ffffff;stroke-linejoin:miter;stroke-width:0.75;" x="187.29272" xlink:href="#m2d273bf4cb" y="62.202827"/>
     <use style="fill:#d62728;stroke:#ffffff;stroke-linejoin:miter;stroke-width:0.75;" x="190.860353" xlink:href="#m2d273bf4cb" y="62.202827"/>
     <use style="fill:#d62728;stroke:#ffffff;stroke-linejoin:miter;stroke-width:0.75;" x="194.427985" xlink:href="#m2d273bf4cb" y="62.466644"/>
     <use style="fill:#d62728;stroke:#ffffff;stroke-linejoin:miter;stroke-width:0.75;" x="197.995618" xlink:href="#m2d273bf4cb" y="62.466644"/>
     <use style="fill:#d62728;stroke:#ffffff;stroke-linejoin:miter;stroke-width:0.75;" x="201.56325" xlink:href="#m2d273bf4cb" y="62.466644"/>
     <use style="fill:#d62728;stroke:#ffffff;stroke-linejoin:miter;stroke-width:0.75;" x="205.130882" xlink:href="#m2d273bf4cb" y="61.675194"/>
     <use style="fill:#d62728;stroke:#ffffff;stroke-linejoin:miter;stroke-width:0.75;" x="208.698515" xlink:href="#m2d273bf4cb" y="60.268171"/>
     <use style="fill:#d62728;stroke:#ffffff;stroke-linejoin:miter;stroke-width:0.75;" x="212.266147" xlink:href="#m2d273bf4cb" y="58.069698"/>
     <use style="fill:#d62728;stroke:#ffffff;stroke-linejoin:miter;stroke-width:0.75;" x="215.833779" xlink:href="#m2d273bf4cb" y="55.695346"/>
     <use style="fill:#d62728;stroke:#ffffff;stroke-linejoin:miter;stroke-width:0.75;" x="219.401412" xlink:href="#m2d273bf4cb" y="55.607407"/>
     <use style="fill:#d62728;stroke:#ffffff;stroke-linejoin:miter;stroke-width:0.75;" x="222.969044" xlink:href="#m2d273bf4cb" y="55.079774"/>
     <use style="fill:#d62728;stroke:#ffffff;stroke-linejoin:miter;stroke-width:0.75;" x="226.536676" xlink:href="#m2d273bf4cb" y="54.024507"/>
     <use style="fill:#d62728;stroke:#ffffff;stroke-linejoin:miter;stroke-width:0.75;" x="230.104309" xlink:href="#m2d273bf4cb" y="54.024507"/>
     <use style="fill:#d62728;stroke:#ffffff;stroke-linejoin:miter;stroke-width:0.75;" x="233.671941" xlink:href="#m2d273bf4cb" y="52.617484"/>
     <use style="fill:#d62728;stroke:#ffffff;stroke-linejoin:miter;stroke-width:0.75;" x="237.239574" xlink:href="#m2d273bf4cb" y="51.122522"/>
     <use style="fill:#d62728;stroke:#ffffff;stroke-linejoin:miter;stroke-width:0.75;" x="240.807206" xlink:href="#m2d273bf4cb" y="50.682827"/>
     <use style="fill:#d62728;stroke:#ffffff;stroke-linejoin:miter;stroke-width:0.75;" x="244.374838" xlink:href="#m2d273bf4cb" y="50.594888"/>
     <use style="fill:#d62728;stroke:#ffffff;stroke-linejoin:miter;stroke-width:0.75;" x="247.942471" xlink:href="#m2d273bf4cb" y="50.594888"/>
     <use style="fill:#d62728;stroke:#ffffff;stroke-linejoin:miter;stroke-width:0.75;" x="251.510103" xlink:href="#m2d273bf4cb" y="50.594888"/>
     <use style="fill:#d62728;stroke:#ffffff;stroke-linejoin:miter;stroke-width:0.75;" x="255.077735" xlink:href="#m2d273bf4cb" y="50.41901"/>
     <use style="fill:#d62728;stroke:#ffffff;stroke-linejoin:miter;stroke-width:0.75;" x="258.645368" xlink:href="#m2d273bf4cb" y="50.331072"/>
     <use style="fill:#d62728;stroke:#ffffff;stroke-linejoin:miter;stroke-width:0.75;" x="262.213" xlink:href="#m2d273bf4cb" y="50.243133"/>
     <use style="fill:#d62728;stroke:#ffffff;stroke-linejoin:miter;stroke-width:0.75;" x="265.780632" xlink:href="#m2d273bf4cb" y="49.891377"/>
     <use style="fill:#d62728;stroke:#ffffff;stroke-linejoin:miter;stroke-width:0.75;" x="269.348265" xlink:href="#m2d273bf4cb" y="49.715499"/>
     <use style="fill:#d62728;stroke:#ffffff;stroke-linejoin:miter;stroke-width:0.75;" x="272.915897" xlink:href="#m2d273bf4cb" y="49.715499"/>
     <use style="fill:#d62728;stroke:#ffffff;stroke-linejoin:miter;stroke-width:0.75;" x="276.48353" xlink:href="#m2d273bf4cb" y="49.715499"/>
     <use style="fill:#d62728;stroke:#ffffff;stroke-linejoin:miter;stroke-width:0.75;" x="280.051162" xlink:href="#m2d273bf4cb" y="49.715499"/>
     <use style="fill:#d62728;stroke:#ffffff;stroke-linejoin:miter;stroke-width:0.75;" x="283.618794" xlink:href="#m2d273bf4cb" y="49.62756"/>
     <use style="fill:#d62728;stroke:#ffffff;stroke-linejoin:miter;stroke-width:0.75;" x="287.186427" xlink:href="#m2d273bf4cb" y="49.62756"/>
     <use style="fill:#d62728;stroke:#ffffff;stroke-linejoin:miter;stroke-width:0.75;" x="290.754059" xlink:href="#m2d273bf4cb" y="49.187865"/>
     <use style="fill:#d62728;stroke:#ffffff;stroke-linejoin:miter;stroke-width:0.75;" x="294.321691" xlink:href="#m2d273bf4cb" y="48.748171"/>
     <use style="fill:#d62728;stroke:#ffffff;stroke-linejoin:miter;stroke-width:0.75;" x="297.889324" xlink:href="#m2d273bf4cb" y="48.748171"/>
     <use style="fill:#d62728;stroke:#ffffff;stroke-linejoin:miter;stroke-width:0.75;" x="301.456956" xlink:href="#m2d273bf4cb" y="48.484354"/>
     <use style="fill:#d62728;stroke:#ffffff;stroke-linejoin:miter;stroke-width:0.75;" x="305.024589" xlink:href="#m2d273bf4cb" y="48.352446"/>
     <use style="fill:#d62728;stroke:#ffffff;stroke-linejoin:miter;stroke-width:0.75;" x="308.592221" xlink:href="#m2d273bf4cb" y="48.352446"/>
     <use style="fill:#d62728;stroke:#ffffff;stroke-linejoin:miter;stroke-width:0.75;" x="312.159853" xlink:href="#m2d273bf4cb" y="48.484354"/>
     <use style="fill:#d62728;stroke:#ffffff;stroke-linejoin:miter;stroke-width:0.75;" x="315.727486" xlink:href="#m2d273bf4cb" y="48.220537"/>
     <use style="fill:#d62728;stroke:#ffffff;stroke-linejoin:miter;stroke-width:0.75;" x="319.295118" xlink:href="#m2d273bf4cb" y="48.044659"/>
     <use style="fill:#d62728;stroke:#ffffff;stroke-linejoin:miter;stroke-width:0.75;" x="322.86275" xlink:href="#m2d273bf4cb" y="48.044659"/>
     <use style="fill:#d62728;stroke:#ffffff;stroke-linejoin:miter;stroke-width:0.75;" x="326.430383" xlink:href="#m2d273bf4cb" y="47.868781"/>
     <use style="fill:#d62728;stroke:#ffffff;stroke-linejoin:miter;stroke-width:0.75;" x="329.998015" xlink:href="#m2d273bf4cb" y="47.868781"/>
     <use style="fill:#d62728;stroke:#ffffff;stroke-linejoin:miter;stroke-width:0.75;" x="333.565647" xlink:href="#m2d273bf4cb" y="47.868781"/>
     <use style="fill:#d62728;stroke:#ffffff;stroke-linejoin:miter;stroke-width:0.75;" x="337.13328" xlink:href="#m2d273bf4cb" y="47.868781"/>
     <use style="fill:#d62728;stroke:#ffffff;stroke-linejoin:miter;stroke-width:0.75;" x="340.700912" xlink:href="#m2d273bf4cb" y="47.868781"/>
     <use style="fill:#d62728;stroke:#ffffff;stroke-linejoin:miter;stroke-width:0.75;" x="344.268545" xlink:href="#m2d273bf4cb" y="47.868781"/>
     <use style="fill:#d62728;stroke:#ffffff;stroke-linejoin:miter;stroke-width:0.75;" x="347.836177" xlink:href="#m2d273bf4cb" y="47.780843"/>
     <use style="fill:#d62728;stroke:#ffffff;stroke-linejoin:miter;stroke-width:0.75;" x="351.403809" xlink:href="#m2d273bf4cb" y="47.780843"/>
     <use style="fill:#d62728;stroke:#ffffff;stroke-linejoin:miter;stroke-width:0.75;" x="354.971442" xlink:href="#m2d273bf4cb" y="47.780843"/>
     <use style="fill:#d62728;stroke:#ffffff;stroke-linejoin:miter;stroke-width:0.75;" x="358.539074" xlink:href="#m2d273bf4cb" y="47.780843"/>
     <use style="fill:#d62728;stroke:#ffffff;stroke-linejoin:miter;stroke-width:0.75;" x="362.106706" xlink:href="#m2d273bf4cb" y="47.780843"/>
     <use style="fill:#d62728;stroke:#ffffff;stroke-linejoin:miter;stroke-width:0.75;" x="365.674339" xlink:href="#m2d273bf4cb" y="47.780843"/>
     <use style="fill:#d62728;stroke:#ffffff;stroke-linejoin:miter;stroke-width:0.75;" x="369.241971" xlink:href="#m2d273bf4cb" y="46.285881"/>
     <use style="fill:#d62728;stroke:#ffffff;stroke-linejoin:miter;stroke-width:0.75;" x="372.809604" xlink:href="#m2d273bf4cb" y="46.285881"/>
     <use style="fill:#d62728;stroke:#ffffff;stroke-linejoin:miter;stroke-width:0.75;" x="376.377236" xlink:href="#m2d273bf4cb" y="46.285881"/>
     <use style="fill:#d62728;stroke:#ffffff;stroke-linejoin:miter;stroke-width:0.75;" x="379.944868" xlink:href="#m2d273bf4cb" y="45.230614"/>
     <use style="fill:#d62728;stroke:#ffffff;stroke-linejoin:miter;stroke-width:0.75;" x="383.512501" xlink:href="#m2d273bf4cb" y="44.70298"/>
     <use style="fill:#d62728;stroke:#ffffff;stroke-linejoin:miter;stroke-width:0.75;" x="387.080133" xlink:href="#m2d273bf4cb" y="44.70298"/>
     <use style="fill:#d62728;stroke:#ffffff;stroke-linejoin:miter;stroke-width:0.75;" x="390.647765" xlink:href="#m2d273bf4cb" y="44.70298"/>
     <use style="fill:#d62728;stroke:#ffffff;stroke-linejoin:miter;stroke-width:0.75;" x="394.215398" xlink:href="#m2d273bf4cb" y="44.70298"/>
    </g>
   </g>
   <g id="line2d_14">
    <path clip-path="url(#p0b1cf3434a)" d="M 69.560852 173.269698 
L 73.128485 139.32527 
L 76.696117 135.104201 
L 80.263749 132.466033 
L 83.831382 129.827865 
L 87.399014 124.55153 
L 90.966646 118.131988 
L 94.534279 110.833056 
L 98.101911 100.280385 
L 101.669544 99.04924 
L 105.237176 94.300537 
L 108.804808 94.212598 
L 112.372441 88.144812 
L 115.940073 88.144812 
L 119.507705 87.52924 
L 123.075338 82.340843 
L 126.64297 80.757942 
L 130.210603 80.670003 
L 133.778235 77.855957 
L 137.345867 74.426339 
L 140.9135 74.074583 
L 144.481132 73.107255 
L 148.048764 73.107255 
L 151.616397 73.107255 
L 155.184029 72.755499 
L 158.751661 72.755499 
L 162.319294 69.941453 
L 165.886926 69.150003 
L 169.454559 67.74298 
L 173.022191 67.74298 
L 176.589823 65.192751 
L 180.157456 64.665117 
L 183.725088 64.665117 
L 187.29272 63.346033 
L 190.860353 63.346033 
L 194.427985 62.466644 
L 197.995618 61.587255 
L 201.56325 61.587255 
L 205.130882 61.499316 
L 208.698515 61.499316 
L 212.266147 59.828476 
L 215.833779 59.828476 
L 219.401412 59.564659 
L 222.969044 59.564659 
L 226.536676 59.564659 
L 230.104309 59.47672 
L 233.671941 58.68527 
L 237.239574 58.68527 
L 240.807206 58.597331 
L 244.374838 58.597331 
L 247.942471 58.597331 
L 251.510103 58.333514 
L 255.077735 58.333514 
L 258.645368 58.333514 
L 262.213 58.333514 
L 265.780632 58.157636 
L 269.348265 56.047102 
L 272.915897 56.047102 
L 276.48353 56.047102 
L 280.051162 56.047102 
L 283.618794 56.047102 
L 287.186427 56.047102 
L 290.754059 55.783285 
L 294.321691 55.783285 
L 297.889324 54.464201 
L 301.456956 54.376262 
L 305.024589 52.617484 
L 308.592221 52.617484 
L 312.159853 52.617484 
L 315.727486 50.770766 
L 319.295118 50.770766 
L 322.86275 50.770766 
L 326.430383 50.770766 
L 329.998015 50.770766 
L 333.565647 50.770766 
L 337.13328 50.770766 
L 340.700912 50.770766 
L 344.268545 50.770766 
L 347.836177 50.770766 
L 351.403809 50.770766 
L 354.971442 49.363743 
L 358.539074 49.363743 
L 362.106706 49.363743 
L 365.674339 49.363743 
L 369.241971 49.363743 
L 372.809604 49.67153 
L 376.377236 49.67153 
L 379.944868 49.67153 
L 383.512501 47.824812 
L 387.080133 46.901453 
L 390.647765 46.681606 
L 394.215398 46.637636 
" style="fill:none;stroke:#1f77b4;stroke-linecap:square;stroke-width:1.5;"/>
    <defs>
     <path d="M 0 3 
C 0.795609 3 1.55874 2.683901 2.12132 2.12132 
C 2.683901 1.55874 3 0.795609 3 0 
C 3 -0.795609 2.683901 -1.55874 2.12132 -2.12132 
C 1.55874 -2.683901 0.795609 -3 0 -3 
C -0.795609 -3 -1.55874 -2.683901 -2.12132 -2.12132 
C -2.683901 -1.55874 -3 -0.795609 -3 0 
C -3 0.795609 -2.683901 1.55874 -2.12132 2.12132 
C -1.55874 2.683901 -0.795609 3 0 3 
z
" id="mb67c5a4a36" style="stroke:#ffffff;stroke-width:0.75;"/>
    </defs>
    <g clip-path="url(#p0b1cf3434a)">
     <use style="fill:#1f77b4;stroke:#ffffff;stroke-width:0.75;" x="69.560852" xlink:href="#mb67c5a4a36" y="173.269698"/>
     <use style="fill:#1f77b4;stroke:#ffffff;stroke-width:0.75;" x="73.128485" xlink:href="#mb67c5a4a36" y="139.32527"/>
     <use style="fill:#1f77b4;stroke:#ffffff;stroke-width:0.75;" x="76.696117" xlink:href="#mb67c5a4a36" y="135.104201"/>
     <use style="fill:#1f77b4;stroke:#ffffff;stroke-width:0.75;" x="80.263749" xlink:href="#mb67c5a4a36" y="132.466033"/>
     <use style="fill:#1f77b4;stroke:#ffffff;stroke-width:0.75;" x="83.831382" xlink:href="#mb67c5a4a36" y="129.827865"/>
     <use style="fill:#1f77b4;stroke:#ffffff;stroke-width:0.75;" x="87.399014" xlink:href="#mb67c5a4a36" y="124.55153"/>
     <use style="fill:#1f77b4;stroke:#ffffff;stroke-width:0.75;" x="90.966646" xlink:href="#mb67c5a4a36" y="118.131988"/>
     <use style="fill:#1f77b4;stroke:#ffffff;stroke-width:0.75;" x="94.534279" xlink:href="#mb67c5a4a36" y="110.833056"/>
     <use style="fill:#1f77b4;stroke:#ffffff;stroke-width:0.75;" x="98.101911" xlink:href="#mb67c5a4a36" y="100.280385"/>
     <use style="fill:#1f77b4;stroke:#ffffff;stroke-width:0.75;" x="101.669544" xlink:href="#mb67c5a4a36" y="99.04924"/>
     <use style="fill:#1f77b4;stroke:#ffffff;stroke-width:0.75;" x="105.237176" xlink:href="#mb67c5a4a36" y="94.300537"/>
     <use style="fill:#1f77b4;stroke:#ffffff;stroke-width:0.75;" x="108.804808" xlink:href="#mb67c5a4a36" y="94.212598"/>
     <use style="fill:#1f77b4;stroke:#ffffff;stroke-width:0.75;" x="112.372441" xlink:href="#mb67c5a4a36" y="88.144812"/>
     <use style="fill:#1f77b4;stroke:#ffffff;stroke-width:0.75;" x="115.940073" xlink:href="#mb67c5a4a36" y="88.144812"/>
     <use style="fill:#1f77b4;stroke:#ffffff;stroke-width:0.75;" x="119.507705" xlink:href="#mb67c5a4a36" y="87.52924"/>
     <use style="fill:#1f77b4;stroke:#ffffff;stroke-width:0.75;" x="123.075338" xlink:href="#mb67c5a4a36" y="82.340843"/>
     <use style="fill:#1f77b4;stroke:#ffffff;stroke-width:0.75;" x="126.64297" xlink:href="#mb67c5a4a36" y="80.757942"/>
     <use style="fill:#1f77b4;stroke:#ffffff;stroke-width:0.75;" x="130.210603" xlink:href="#mb67c5a4a36" y="80.670003"/>
     <use style="fill:#1f77b4;stroke:#ffffff;stroke-width:0.75;" x="133.778235" xlink:href="#mb67c5a4a36" y="77.855957"/>
     <use style="fill:#1f77b4;stroke:#ffffff;stroke-width:0.75;" x="137.345867" xlink:href="#mb67c5a4a36" y="74.426339"/>
     <use style="fill:#1f77b4;stroke:#ffffff;stroke-width:0.75;" x="140.9135" xlink:href="#mb67c5a4a36" y="74.074583"/>
     <use style="fill:#1f77b4;stroke:#ffffff;stroke-width:0.75;" x="144.481132" xlink:href="#mb67c5a4a36" y="73.107255"/>
     <use style="fill:#1f77b4;stroke:#ffffff;stroke-width:0.75;" x="148.048764" xlink:href="#mb67c5a4a36" y="73.107255"/>
     <use style="fill:#1f77b4;stroke:#ffffff;stroke-width:0.75;" x="151.616397" xlink:href="#mb67c5a4a36" y="73.107255"/>
     <use style="fill:#1f77b4;stroke:#ffffff;stroke-width:0.75;" x="155.184029" xlink:href="#mb67c5a4a36" y="72.755499"/>
     <use style="fill:#1f77b4;stroke:#ffffff;stroke-width:0.75;" x="158.751661" xlink:href="#mb67c5a4a36" y="72.755499"/>
     <use style="fill:#1f77b4;stroke:#ffffff;stroke-width:0.75;" x="162.319294" xlink:href="#mb67c5a4a36" y="69.941453"/>
     <use style="fill:#1f77b4;stroke:#ffffff;stroke-width:0.75;" x="165.886926" xlink:href="#mb67c5a4a36" y="69.150003"/>
     <use style="fill:#1f77b4;stroke:#ffffff;stroke-width:0.75;" x="169.454559" xlink:href="#mb67c5a4a36" y="67.74298"/>
     <use style="fill:#1f77b4;stroke:#ffffff;stroke-width:0.75;" x="173.022191" xlink:href="#mb67c5a4a36" y="67.74298"/>
     <use style="fill:#1f77b4;stroke:#ffffff;stroke-width:0.75;" x="176.589823" xlink:href="#mb67c5a4a36" y="65.192751"/>
     <use style="fill:#1f77b4;stroke:#ffffff;stroke-width:0.75;" x="180.157456" xlink:href="#mb67c5a4a36" y="64.665117"/>
     <use style="fill:#1f77b4;stroke:#ffffff;stroke-width:0.75;" x="183.725088" xlink:href="#mb67c5a4a36" y="64.665117"/>
     <use style="fill:#1f77b4;stroke:#ffffff;stroke-width:0.75;" x="187.29272" xlink:href="#mb67c5a4a36" y="63.346033"/>
     <use style="fill:#1f77b4;stroke:#ffffff;stroke-width:0.75;" x="190.860353" xlink:href="#mb67c5a4a36" y="63.346033"/>
     <use style="fill:#1f77b4;stroke:#ffffff;stroke-width:0.75;" x="194.427985" xlink:href="#mb67c5a4a36" y="62.466644"/>
     <use style="fill:#1f77b4;stroke:#ffffff;stroke-width:0.75;" x="197.995618" xlink:href="#mb67c5a4a36" y="61.587255"/>
     <use style="fill:#1f77b4;stroke:#ffffff;stroke-width:0.75;" x="201.56325" xlink:href="#mb67c5a4a36" y="61.587255"/>
     <use style="fill:#1f77b4;stroke:#ffffff;stroke-width:0.75;" x="205.130882" xlink:href="#mb67c5a4a36" y="61.499316"/>
     <use style="fill:#1f77b4;stroke:#ffffff;stroke-width:0.75;" x="208.698515" xlink:href="#mb67c5a4a36" y="61.499316"/>
     <use style="fill:#1f77b4;stroke:#ffffff;stroke-width:0.75;" x="212.266147" xlink:href="#mb67c5a4a36" y="59.828476"/>
     <use style="fill:#1f77b4;stroke:#ffffff;stroke-width:0.75;" x="215.833779" xlink:href="#mb67c5a4a36" y="59.828476"/>
     <use style="fill:#1f77b4;stroke:#ffffff;stroke-width:0.75;" x="219.401412" xlink:href="#mb67c5a4a36" y="59.564659"/>
     <use style="fill:#1f77b4;stroke:#ffffff;stroke-width:0.75;" x="222.969044" xlink:href="#mb67c5a4a36" y="59.564659"/>
     <use style="fill:#1f77b4;stroke:#ffffff;stroke-width:0.75;" x="226.536676" xlink:href="#mb67c5a4a36" y="59.564659"/>
     <use style="fill:#1f77b4;stroke:#ffffff;stroke-width:0.75;" x="230.104309" xlink:href="#mb67c5a4a36" y="59.47672"/>
     <use style="fill:#1f77b4;stroke:#ffffff;stroke-width:0.75;" x="233.671941" xlink:href="#mb67c5a4a36" y="58.68527"/>
     <use style="fill:#1f77b4;stroke:#ffffff;stroke-width:0.75;" x="237.239574" xlink:href="#mb67c5a4a36" y="58.68527"/>
     <use style="fill:#1f77b4;stroke:#ffffff;stroke-width:0.75;" x="240.807206" xlink:href="#mb67c5a4a36" y="58.597331"/>
     <use style="fill:#1f77b4;stroke:#ffffff;stroke-width:0.75;" x="244.374838" xlink:href="#mb67c5a4a36" y="58.597331"/>
     <use style="fill:#1f77b4;stroke:#ffffff;stroke-width:0.75;" x="247.942471" xlink:href="#mb67c5a4a36" y="58.597331"/>
     <use style="fill:#1f77b4;stroke:#ffffff;stroke-width:0.75;" x="251.510103" xlink:href="#mb67c5a4a36" y="58.333514"/>
     <use style="fill:#1f77b4;stroke:#ffffff;stroke-width:0.75;" x="255.077735" xlink:href="#mb67c5a4a36" y="58.333514"/>
     <use style="fill:#1f77b4;stroke:#ffffff;stroke-width:0.75;" x="258.645368" xlink:href="#mb67c5a4a36" y="58.333514"/>
     <use style="fill:#1f77b4;stroke:#ffffff;stroke-width:0.75;" x="262.213" xlink:href="#mb67c5a4a36" y="58.333514"/>
     <use style="fill:#1f77b4;stroke:#ffffff;stroke-width:0.75;" x="265.780632" xlink:href="#mb67c5a4a36" y="58.157636"/>
     <use style="fill:#1f77b4;stroke:#ffffff;stroke-width:0.75;" x="269.348265" xlink:href="#mb67c5a4a36" y="56.047102"/>
     <use style="fill:#1f77b4;stroke:#ffffff;stroke-width:0.75;" x="272.915897" xlink:href="#mb67c5a4a36" y="56.047102"/>
     <use style="fill:#1f77b4;stroke:#ffffff;stroke-width:0.75;" x="276.48353" xlink:href="#mb67c5a4a36" y="56.047102"/>
     <use style="fill:#1f77b4;stroke:#ffffff;stroke-width:0.75;" x="280.051162" xlink:href="#mb67c5a4a36" y="56.047102"/>
     <use style="fill:#1f77b4;stroke:#ffffff;stroke-width:0.75;" x="283.618794" xlink:href="#mb67c5a4a36" y="56.047102"/>
     <use style="fill:#1f77b4;stroke:#ffffff;stroke-width:0.75;" x="287.186427" xlink:href="#mb67c5a4a36" y="56.047102"/>
     <use style="fill:#1f77b4;stroke:#ffffff;stroke-width:0.75;" x="290.754059" xlink:href="#mb67c5a4a36" y="55.783285"/>
     <use style="fill:#1f77b4;stroke:#ffffff;stroke-width:0.75;" x="294.321691" xlink:href="#mb67c5a4a36" y="55.783285"/>
     <use style="fill:#1f77b4;stroke:#ffffff;stroke-width:0.75;" x="297.889324" xlink:href="#mb67c5a4a36" y="54.464201"/>
     <use style="fill:#1f77b4;stroke:#ffffff;stroke-width:0.75;" x="301.456956" xlink:href="#mb67c5a4a36" y="54.376262"/>
     <use style="fill:#1f77b4;stroke:#ffffff;stroke-width:0.75;" x="305.024589" xlink:href="#mb67c5a4a36" y="52.617484"/>
     <use style="fill:#1f77b4;stroke:#ffffff;stroke-width:0.75;" x="308.592221" xlink:href="#mb67c5a4a36" y="52.617484"/>
     <use style="fill:#1f77b4;stroke:#ffffff;stroke-width:0.75;" x="312.159853" xlink:href="#mb67c5a4a36" y="52.617484"/>
     <use style="fill:#1f77b4;stroke:#ffffff;stroke-width:0.75;" x="315.727486" xlink:href="#mb67c5a4a36" y="50.770766"/>
     <use style="fill:#1f77b4;stroke:#ffffff;stroke-width:0.75;" x="319.295118" xlink:href="#mb67c5a4a36" y="50.770766"/>
     <use style="fill:#1f77b4;stroke:#ffffff;stroke-width:0.75;" x="322.86275" xlink:href="#mb67c5a4a36" y="50.770766"/>
     <use style="fill:#1f77b4;stroke:#ffffff;stroke-width:0.75;" x="326.430383" xlink:href="#mb67c5a4a36" y="50.770766"/>
     <use style="fill:#1f77b4;stroke:#ffffff;stroke-width:0.75;" x="329.998015" xlink:href="#mb67c5a4a36" y="50.770766"/>
     <use style="fill:#1f77b4;stroke:#ffffff;stroke-width:0.75;" x="333.565647" xlink:href="#mb67c5a4a36" y="50.770766"/>
     <use style="fill:#1f77b4;stroke:#ffffff;stroke-width:0.75;" x="337.13328" xlink:href="#mb67c5a4a36" y="50.770766"/>
     <use style="fill:#1f77b4;stroke:#ffffff;stroke-width:0.75;" x="340.700912" xlink:href="#mb67c5a4a36" y="50.770766"/>
     <use style="fill:#1f77b4;stroke:#ffffff;stroke-width:0.75;" x="344.268545" xlink:href="#mb67c5a4a36" y="50.770766"/>
     <use style="fill:#1f77b4;stroke:#ffffff;stroke-width:0.75;" x="347.836177" xlink:href="#mb67c5a4a36" y="50.770766"/>
     <use style="fill:#1f77b4;stroke:#ffffff;stroke-width:0.75;" x="351.403809" xlink:href="#mb67c5a4a36" y="50.770766"/>
     <use style="fill:#1f77b4;stroke:#ffffff;stroke-width:0.75;" x="354.971442" xlink:href="#mb67c5a4a36" y="49.363743"/>
     <use style="fill:#1f77b4;stroke:#ffffff;stroke-width:0.75;" x="358.539074" xlink:href="#mb67c5a4a36" y="49.363743"/>
     <use style="fill:#1f77b4;stroke:#ffffff;stroke-width:0.75;" x="362.106706" xlink:href="#mb67c5a4a36" y="49.363743"/>
     <use style="fill:#1f77b4;stroke:#ffffff;stroke-width:0.75;" x="365.674339" xlink:href="#mb67c5a4a36" y="49.363743"/>
     <use style="fill:#1f77b4;stroke:#ffffff;stroke-width:0.75;" x="369.241971" xlink:href="#mb67c5a4a36" y="49.363743"/>
     <use style="fill:#1f77b4;stroke:#ffffff;stroke-width:0.75;" x="372.809604" xlink:href="#mb67c5a4a36" y="49.67153"/>
     <use style="fill:#1f77b4;stroke:#ffffff;stroke-width:0.75;" x="376.377236" xlink:href="#mb67c5a4a36" y="49.67153"/>
     <use style="fill:#1f77b4;stroke:#ffffff;stroke-width:0.75;" x="379.944868" xlink:href="#mb67c5a4a36" y="49.67153"/>
     <use style="fill:#1f77b4;stroke:#ffffff;stroke-width:0.75;" x="383.512501" xlink:href="#mb67c5a4a36" y="47.824812"/>
     <use style="fill:#1f77b4;stroke:#ffffff;stroke-width:0.75;" x="387.080133" xlink:href="#mb67c5a4a36" y="46.901453"/>
     <use style="fill:#1f77b4;stroke:#ffffff;stroke-width:0.75;" x="390.647765" xlink:href="#mb67c5a4a36" y="46.681606"/>
     <use style="fill:#1f77b4;stroke:#ffffff;stroke-width:0.75;" x="394.215398" xlink:href="#mb67c5a4a36" y="46.637636"/>
    </g>
   </g>
   <g id="line2d_15">
    <path clip-path="url(#p0b1cf3434a)" d="M 69.560852 271.321606 
L 73.128485 260.417178 
L 76.696117 257.691072 
L 80.263749 249.688629 
L 83.831382 244.412293 
L 87.399014 240.191224 
L 90.966646 237.597026 
L 94.534279 234.299316 
L 98.101911 233.331988 
L 101.669544 229.726491 
L 105.237176 226.956415 
L 108.804808 225.109698 
L 112.372441 224.142369 
L 115.940073 222.119774 
L 119.507705 221.152446 
L 123.075338 219.041911 
L 126.64297 218.997942 
L 130.210603 217.415041 
L 133.778235 215.216568 
L 137.345867 215.04069 
L 140.9135 214.513056 
L 144.481132 212.974125 
L 148.048764 211.69901 
L 151.616397 211.303285 
L 155.184029 211.303285 
L 158.751661 208.797026 
L 162.319294 206.77443 
L 165.886926 206.686491 
L 169.454559 206.598552 
L 173.022191 206.510614 
L 176.589823 205.015652 
L 180.157456 204.268171 
L 183.725088 202.949087 
L 187.29272 202.641301 
L 190.860353 202.289545 
L 194.427985 202.289545 
L 197.995618 201.937789 
L 201.56325 201.937789 
L 205.130882 201.366186 
L 208.698515 200.794583 
L 212.266147 200.17901 
L 215.833779 199.343591 
L 219.401412 198.200385 
L 222.969044 198.156415 
L 226.536676 197.892598 
L 230.104309 197.76069 
L 233.671941 195.738094 
L 237.239574 194.770766 
L 240.807206 194.243133 
L 244.374838 193.583591 
L 247.942471 193.583591 
L 251.510103 193.451682 
L 255.077735 193.407713 
L 258.645368 192.572293 
L 262.213 192.572293 
L 265.780632 192.528323 
L 269.348265 191.253209 
L 272.915897 191.033362 
L 276.48353 189.802217 
L 280.051162 189.186644 
L 283.618794 189.054736 
L 287.186427 189.010766 
L 290.754059 188.70298 
L 294.321691 188.527102 
L 297.889324 187.91153 
L 301.456956 187.779621 
L 305.024589 187.779621 
L 308.592221 187.779621 
L 312.159853 187.779621 
L 315.727486 186.548476 
L 319.295118 186.372598 
L 322.86275 186.372598 
L 326.430383 186.460537 
L 329.998015 186.284659 
L 333.565647 186.108781 
L 337.13328 186.020843 
L 340.700912 185.229392 
L 344.268545 184.61382 
L 347.836177 184.437942 
L 351.403809 183.382675 
L 354.971442 183.382675 
L 358.539074 183.382675 
L 362.106706 183.030919 
L 365.674339 182.94298 
L 369.241971 182.94298 
L 372.809604 182.94298 
L 376.377236 182.767102 
L 379.944868 182.415346 
L 383.512501 181.975652 
L 387.080133 181.448018 
L 390.647765 181.448018 
L 394.215398 179.865117 
" style="fill:none;stroke:#98df8a;stroke-linecap:square;stroke-width:1.5;"/>
    <defs>
     <path d="M -0 3 
L 3 -3 
L -3 -3 
z
" id="m55d10c4b98" style="stroke:#ffffff;stroke-linejoin:miter;stroke-width:0.75;"/>
    </defs>
    <g clip-path="url(#p0b1cf3434a)">
     <use style="fill:#98df8a;stroke:#ffffff;stroke-linejoin:miter;stroke-width:0.75;" x="69.560852" xlink:href="#m55d10c4b98" y="271.321606"/>
     <use style="fill:#98df8a;stroke:#ffffff;stroke-linejoin:miter;stroke-width:0.75;" x="73.128485" xlink:href="#m55d10c4b98" y="260.417178"/>
     <use style="fill:#98df8a;stroke:#ffffff;stroke-linejoin:miter;stroke-width:0.75;" x="76.696117" xlink:href="#m55d10c4b98" y="257.691072"/>
     <use style="fill:#98df8a;stroke:#ffffff;stroke-linejoin:miter;stroke-width:0.75;" x="80.263749" xlink:href="#m55d10c4b98" y="249.688629"/>
     <use style="fill:#98df8a;stroke:#ffffff;stroke-linejoin:miter;stroke-width:0.75;" x="83.831382" xlink:href="#m55d10c4b98" y="244.412293"/>
     <use style="fill:#98df8a;stroke:#ffffff;stroke-linejoin:miter;stroke-width:0.75;" x="87.399014" xlink:href="#m55d10c4b98" y="240.191224"/>
     <use style="fill:#98df8a;stroke:#ffffff;stroke-linejoin:miter;stroke-width:0.75;" x="90.966646" xlink:href="#m55d10c4b98" y="237.597026"/>
     <use style="fill:#98df8a;stroke:#ffffff;stroke-linejoin:miter;stroke-width:0.75;" x="94.534279" xlink:href="#m55d10c4b98" y="234.299316"/>
     <use style="fill:#98df8a;stroke:#ffffff;stroke-linejoin:miter;stroke-width:0.75;" x="98.101911" xlink:href="#m55d10c4b98" y="233.331988"/>
     <use style="fill:#98df8a;stroke:#ffffff;stroke-linejoin:miter;stroke-width:0.75;" x="101.669544" xlink:href="#m55d10c4b98" y="229.726491"/>
     <use style="fill:#98df8a;stroke:#ffffff;stroke-linejoin:miter;stroke-width:0.75;" x="105.237176" xlink:href="#m55d10c4b98" y="226.956415"/>
     <use style="fill:#98df8a;stroke:#ffffff;stroke-linejoin:miter;stroke-width:0.75;" x="108.804808" xlink:href="#m55d10c4b98" y="225.109698"/>
     <use style="fill:#98df8a;stroke:#ffffff;stroke-linejoin:miter;stroke-width:0.75;" x="112.372441" xlink:href="#m55d10c4b98" y="224.142369"/>
     <use style="fill:#98df8a;stroke:#ffffff;stroke-linejoin:miter;stroke-width:0.75;" x="115.940073" xlink:href="#m55d10c4b98" y="222.119774"/>
     <use style="fill:#98df8a;stroke:#ffffff;stroke-linejoin:miter;stroke-width:0.75;" x="119.507705" xlink:href="#m55d10c4b98" y="221.152446"/>
     <use style="fill:#98df8a;stroke:#ffffff;stroke-linejoin:miter;stroke-width:0.75;" x="123.075338" xlink:href="#m55d10c4b98" y="219.041911"/>
     <use style="fill:#98df8a;stroke:#ffffff;stroke-linejoin:miter;stroke-width:0.75;" x="126.64297" xlink:href="#m55d10c4b98" y="218.997942"/>
     <use style="fill:#98df8a;stroke:#ffffff;stroke-linejoin:miter;stroke-width:0.75;" x="130.210603" xlink:href="#m55d10c4b98" y="217.415041"/>
     <use style="fill:#98df8a;stroke:#ffffff;stroke-linejoin:miter;stroke-width:0.75;" x="133.778235" xlink:href="#m55d10c4b98" y="215.216568"/>
     <use style="fill:#98df8a;stroke:#ffffff;stroke-linejoin:miter;stroke-width:0.75;" x="137.345867" xlink:href="#m55d10c4b98" y="215.04069"/>
     <use style="fill:#98df8a;stroke:#ffffff;stroke-linejoin:miter;stroke-width:0.75;" x="140.9135" xlink:href="#m55d10c4b98" y="214.513056"/>
     <use style="fill:#98df8a;stroke:#ffffff;stroke-linejoin:miter;stroke-width:0.75;" x="144.481132" xlink:href="#m55d10c4b98" y="212.974125"/>
     <use style="fill:#98df8a;stroke:#ffffff;stroke-linejoin:miter;stroke-width:0.75;" x="148.048764" xlink:href="#m55d10c4b98" y="211.69901"/>
     <use style="fill:#98df8a;stroke:#ffffff;stroke-linejoin:miter;stroke-width:0.75;" x="151.616397" xlink:href="#m55d10c4b98" y="211.303285"/>
     <use style="fill:#98df8a;stroke:#ffffff;stroke-linejoin:miter;stroke-width:0.75;" x="155.184029" xlink:href="#m55d10c4b98" y="211.303285"/>
     <use style="fill:#98df8a;stroke:#ffffff;stroke-linejoin:miter;stroke-width:0.75;" x="158.751661" xlink:href="#m55d10c4b98" y="208.797026"/>
     <use style="fill:#98df8a;stroke:#ffffff;stroke-linejoin:miter;stroke-width:0.75;" x="162.319294" xlink:href="#m55d10c4b98" y="206.77443"/>
     <use style="fill:#98df8a;stroke:#ffffff;stroke-linejoin:miter;stroke-width:0.75;" x="165.886926" xlink:href="#m55d10c4b98" y="206.686491"/>
     <use style="fill:#98df8a;stroke:#ffffff;stroke-linejoin:miter;stroke-width:0.75;" x="169.454559" xlink:href="#m55d10c4b98" y="206.598552"/>
     <use style="fill:#98df8a;stroke:#ffffff;stroke-linejoin:miter;stroke-width:0.75;" x="173.022191" xlink:href="#m55d10c4b98" y="206.510614"/>
     <use style="fill:#98df8a;stroke:#ffffff;stroke-linejoin:miter;stroke-width:0.75;" x="176.589823" xlink:href="#m55d10c4b98" y="205.015652"/>
     <use style="fill:#98df8a;stroke:#ffffff;stroke-linejoin:miter;stroke-width:0.75;" x="180.157456" xlink:href="#m55d10c4b98" y="204.268171"/>
     <use style="fill:#98df8a;stroke:#ffffff;stroke-linejoin:miter;stroke-width:0.75;" x="183.725088" xlink:href="#m55d10c4b98" y="202.949087"/>
     <use style="fill:#98df8a;stroke:#ffffff;stroke-linejoin:miter;stroke-width:0.75;" x="187.29272" xlink:href="#m55d10c4b98" y="202.641301"/>
     <use style="fill:#98df8a;stroke:#ffffff;stroke-linejoin:miter;stroke-width:0.75;" x="190.860353" xlink:href="#m55d10c4b98" y="202.289545"/>
     <use style="fill:#98df8a;stroke:#ffffff;stroke-linejoin:miter;stroke-width:0.75;" x="194.427985" xlink:href="#m55d10c4b98" y="202.289545"/>
     <use style="fill:#98df8a;stroke:#ffffff;stroke-linejoin:miter;stroke-width:0.75;" x="197.995618" xlink:href="#m55d10c4b98" y="201.937789"/>
     <use style="fill:#98df8a;stroke:#ffffff;stroke-linejoin:miter;stroke-width:0.75;" x="201.56325" xlink:href="#m55d10c4b98" y="201.937789"/>
     <use style="fill:#98df8a;stroke:#ffffff;stroke-linejoin:miter;stroke-width:0.75;" x="205.130882" xlink:href="#m55d10c4b98" y="201.366186"/>
     <use style="fill:#98df8a;stroke:#ffffff;stroke-linejoin:miter;stroke-width:0.75;" x="208.698515" xlink:href="#m55d10c4b98" y="200.794583"/>
     <use style="fill:#98df8a;stroke:#ffffff;stroke-linejoin:miter;stroke-width:0.75;" x="212.266147" xlink:href="#m55d10c4b98" y="200.17901"/>
     <use style="fill:#98df8a;stroke:#ffffff;stroke-linejoin:miter;stroke-width:0.75;" x="215.833779" xlink:href="#m55d10c4b98" y="199.343591"/>
     <use style="fill:#98df8a;stroke:#ffffff;stroke-linejoin:miter;stroke-width:0.75;" x="219.401412" xlink:href="#m55d10c4b98" y="198.200385"/>
     <use style="fill:#98df8a;stroke:#ffffff;stroke-linejoin:miter;stroke-width:0.75;" x="222.969044" xlink:href="#m55d10c4b98" y="198.156415"/>
     <use style="fill:#98df8a;stroke:#ffffff;stroke-linejoin:miter;stroke-width:0.75;" x="226.536676" xlink:href="#m55d10c4b98" y="197.892598"/>
     <use style="fill:#98df8a;stroke:#ffffff;stroke-linejoin:miter;stroke-width:0.75;" x="230.104309" xlink:href="#m55d10c4b98" y="197.76069"/>
     <use style="fill:#98df8a;stroke:#ffffff;stroke-linejoin:miter;stroke-width:0.75;" x="233.671941" xlink:href="#m55d10c4b98" y="195.738094"/>
     <use style="fill:#98df8a;stroke:#ffffff;stroke-linejoin:miter;stroke-width:0.75;" x="237.239574" xlink:href="#m55d10c4b98" y="194.770766"/>
     <use style="fill:#98df8a;stroke:#ffffff;stroke-linejoin:miter;stroke-width:0.75;" x="240.807206" xlink:href="#m55d10c4b98" y="194.243133"/>
     <use style="fill:#98df8a;stroke:#ffffff;stroke-linejoin:miter;stroke-width:0.75;" x="244.374838" xlink:href="#m55d10c4b98" y="193.583591"/>
     <use style="fill:#98df8a;stroke:#ffffff;stroke-linejoin:miter;stroke-width:0.75;" x="247.942471" xlink:href="#m55d10c4b98" y="193.583591"/>
     <use style="fill:#98df8a;stroke:#ffffff;stroke-linejoin:miter;stroke-width:0.75;" x="251.510103" xlink:href="#m55d10c4b98" y="193.451682"/>
     <use style="fill:#98df8a;stroke:#ffffff;stroke-linejoin:miter;stroke-width:0.75;" x="255.077735" xlink:href="#m55d10c4b98" y="193.407713"/>
     <use style="fill:#98df8a;stroke:#ffffff;stroke-linejoin:miter;stroke-width:0.75;" x="258.645368" xlink:href="#m55d10c4b98" y="192.572293"/>
     <use style="fill:#98df8a;stroke:#ffffff;stroke-linejoin:miter;stroke-width:0.75;" x="262.213" xlink:href="#m55d10c4b98" y="192.572293"/>
     <use style="fill:#98df8a;stroke:#ffffff;stroke-linejoin:miter;stroke-width:0.75;" x="265.780632" xlink:href="#m55d10c4b98" y="192.528323"/>
     <use style="fill:#98df8a;stroke:#ffffff;stroke-linejoin:miter;stroke-width:0.75;" x="269.348265" xlink:href="#m55d10c4b98" y="191.253209"/>
     <use style="fill:#98df8a;stroke:#ffffff;stroke-linejoin:miter;stroke-width:0.75;" x="272.915897" xlink:href="#m55d10c4b98" y="191.033362"/>
     <use style="fill:#98df8a;stroke:#ffffff;stroke-linejoin:miter;stroke-width:0.75;" x="276.48353" xlink:href="#m55d10c4b98" y="189.802217"/>
     <use style="fill:#98df8a;stroke:#ffffff;stroke-linejoin:miter;stroke-width:0.75;" x="280.051162" xlink:href="#m55d10c4b98" y="189.186644"/>
     <use style="fill:#98df8a;stroke:#ffffff;stroke-linejoin:miter;stroke-width:0.75;" x="283.618794" xlink:href="#m55d10c4b98" y="189.054736"/>
     <use style="fill:#98df8a;stroke:#ffffff;stroke-linejoin:miter;stroke-width:0.75;" x="287.186427" xlink:href="#m55d10c4b98" y="189.010766"/>
     <use style="fill:#98df8a;stroke:#ffffff;stroke-linejoin:miter;stroke-width:0.75;" x="290.754059" xlink:href="#m55d10c4b98" y="188.70298"/>
     <use style="fill:#98df8a;stroke:#ffffff;stroke-linejoin:miter;stroke-width:0.75;" x="294.321691" xlink:href="#m55d10c4b98" y="188.527102"/>
     <use style="fill:#98df8a;stroke:#ffffff;stroke-linejoin:miter;stroke-width:0.75;" x="297.889324" xlink:href="#m55d10c4b98" y="187.91153"/>
     <use style="fill:#98df8a;stroke:#ffffff;stroke-linejoin:miter;stroke-width:0.75;" x="301.456956" xlink:href="#m55d10c4b98" y="187.779621"/>
     <use style="fill:#98df8a;stroke:#ffffff;stroke-linejoin:miter;stroke-width:0.75;" x="305.024589" xlink:href="#m55d10c4b98" y="187.779621"/>
     <use style="fill:#98df8a;stroke:#ffffff;stroke-linejoin:miter;stroke-width:0.75;" x="308.592221" xlink:href="#m55d10c4b98" y="187.779621"/>
     <use style="fill:#98df8a;stroke:#ffffff;stroke-linejoin:miter;stroke-width:0.75;" x="312.159853" xlink:href="#m55d10c4b98" y="187.779621"/>
     <use style="fill:#98df8a;stroke:#ffffff;stroke-linejoin:miter;stroke-width:0.75;" x="315.727486" xlink:href="#m55d10c4b98" y="186.548476"/>
     <use style="fill:#98df8a;stroke:#ffffff;stroke-linejoin:miter;stroke-width:0.75;" x="319.295118" xlink:href="#m55d10c4b98" y="186.372598"/>
     <use style="fill:#98df8a;stroke:#ffffff;stroke-linejoin:miter;stroke-width:0.75;" x="322.86275" xlink:href="#m55d10c4b98" y="186.372598"/>
     <use style="fill:#98df8a;stroke:#ffffff;stroke-linejoin:miter;stroke-width:0.75;" x="326.430383" xlink:href="#m55d10c4b98" y="186.460537"/>
     <use style="fill:#98df8a;stroke:#ffffff;stroke-linejoin:miter;stroke-width:0.75;" x="329.998015" xlink:href="#m55d10c4b98" y="186.284659"/>
     <use style="fill:#98df8a;stroke:#ffffff;stroke-linejoin:miter;stroke-width:0.75;" x="333.565647" xlink:href="#m55d10c4b98" y="186.108781"/>
     <use style="fill:#98df8a;stroke:#ffffff;stroke-linejoin:miter;stroke-width:0.75;" x="337.13328" xlink:href="#m55d10c4b98" y="186.020843"/>
     <use style="fill:#98df8a;stroke:#ffffff;stroke-linejoin:miter;stroke-width:0.75;" x="340.700912" xlink:href="#m55d10c4b98" y="185.229392"/>
     <use style="fill:#98df8a;stroke:#ffffff;stroke-linejoin:miter;stroke-width:0.75;" x="344.268545" xlink:href="#m55d10c4b98" y="184.61382"/>
     <use style="fill:#98df8a;stroke:#ffffff;stroke-linejoin:miter;stroke-width:0.75;" x="347.836177" xlink:href="#m55d10c4b98" y="184.437942"/>
     <use style="fill:#98df8a;stroke:#ffffff;stroke-linejoin:miter;stroke-width:0.75;" x="351.403809" xlink:href="#m55d10c4b98" y="183.382675"/>
     <use style="fill:#98df8a;stroke:#ffffff;stroke-linejoin:miter;stroke-width:0.75;" x="354.971442" xlink:href="#m55d10c4b98" y="183.382675"/>
     <use style="fill:#98df8a;stroke:#ffffff;stroke-linejoin:miter;stroke-width:0.75;" x="358.539074" xlink:href="#m55d10c4b98" y="183.382675"/>
     <use style="fill:#98df8a;stroke:#ffffff;stroke-linejoin:miter;stroke-width:0.75;" x="362.106706" xlink:href="#m55d10c4b98" y="183.030919"/>
     <use style="fill:#98df8a;stroke:#ffffff;stroke-linejoin:miter;stroke-width:0.75;" x="365.674339" xlink:href="#m55d10c4b98" y="182.94298"/>
     <use style="fill:#98df8a;stroke:#ffffff;stroke-linejoin:miter;stroke-width:0.75;" x="369.241971" xlink:href="#m55d10c4b98" y="182.94298"/>
     <use style="fill:#98df8a;stroke:#ffffff;stroke-linejoin:miter;stroke-width:0.75;" x="372.809604" xlink:href="#m55d10c4b98" y="182.94298"/>
     <use style="fill:#98df8a;stroke:#ffffff;stroke-linejoin:miter;stroke-width:0.75;" x="376.377236" xlink:href="#m55d10c4b98" y="182.767102"/>
     <use style="fill:#98df8a;stroke:#ffffff;stroke-linejoin:miter;stroke-width:0.75;" x="379.944868" xlink:href="#m55d10c4b98" y="182.415346"/>
     <use style="fill:#98df8a;stroke:#ffffff;stroke-linejoin:miter;stroke-width:0.75;" x="383.512501" xlink:href="#m55d10c4b98" y="181.975652"/>
     <use style="fill:#98df8a;stroke:#ffffff;stroke-linejoin:miter;stroke-width:0.75;" x="387.080133" xlink:href="#m55d10c4b98" y="181.448018"/>
     <use style="fill:#98df8a;stroke:#ffffff;stroke-linejoin:miter;stroke-width:0.75;" x="390.647765" xlink:href="#m55d10c4b98" y="181.448018"/>
     <use style="fill:#98df8a;stroke:#ffffff;stroke-linejoin:miter;stroke-width:0.75;" x="394.215398" xlink:href="#m55d10c4b98" y="179.865117"/>
    </g>
   </g>
   <g id="line2d_16"/>
   <g id="line2d_17"/>
   <g id="line2d_18"/>
   <g id="patch_3">
    <path d="M 53.328125 246.346949 
L 53.328125 26.499621 
" style="fill:none;stroke:#000000;stroke-linecap:square;stroke-linejoin:miter;stroke-width:0.8;"/>
   </g>
   <g id="patch_4">
    <path d="M 69.560852 288.430125 
L 343.079334 288.430125 
" style="fill:none;stroke:#000000;stroke-linecap:square;stroke-linejoin:miter;stroke-width:0.8;"/>
   </g>
   <g id="text_15">
    <!-- njs_njs_process_script_fuzzer (23h, 16 trials/fuzzer) -->
    <g transform="translate(77.824063 16.318125)scale(0.12 -0.12)">
     <defs>
      <path d="M 603 3500 
L 1178 3500 
L 1178 -63 
Q 1178 -731 923 -1031 
Q 669 -1331 103 -1331 
L -116 -1331 
L -116 -844 
L 38 -844 
Q 366 -844 484 -692 
Q 603 -541 603 -63 
L 603 3500 
z
M 603 4863 
L 1178 4863 
L 1178 4134 
L 603 4134 
L 603 4863 
z
" id="DejaVuSans-6a" transform="scale(0.015625)"/>
      <path d="M 2834 3397 
L 2834 2853 
Q 2591 2978 2328 3040 
Q 2066 3103 1784 3103 
Q 1356 3103 1142 2972 
Q 928 2841 928 2578 
Q 928 2378 1081 2264 
Q 1234 2150 1697 2047 
L 1894 2003 
Q 2506 1872 2764 1633 
Q 3022 1394 3022 966 
Q 3022 478 2636 193 
Q 2250 -91 1575 -91 
Q 1294 -91 989 -36 
Q 684 19 347 128 
L 347 722 
Q 666 556 975 473 
Q 1284 391 1588 391 
Q 1994 391 2212 530 
Q 2431 669 2431 922 
Q 2431 1156 2273 1281 
Q 2116 1406 1581 1522 
L 1381 1569 
Q 847 1681 609 1914 
Q 372 2147 372 2553 
Q 372 3047 722 3315 
Q 1072 3584 1716 3584 
Q 2034 3584 2315 3537 
Q 2597 3491 2834 3397 
z
" id="DejaVuSans-73" transform="scale(0.015625)"/>
      <path d="M 3263 -1063 
L 3263 -1509 
L -63 -1509 
L -63 -1063 
L 3263 -1063 
z
" id="DejaVuSans-5f" transform="scale(0.015625)"/>
      <path d="M 1159 525 
L 1159 -1331 
L 581 -1331 
L 581 3500 
L 1159 3500 
L 1159 2969 
Q 1341 3281 1617 3432 
Q 1894 3584 2278 3584 
Q 2916 3584 3314 3078 
Q 3713 2572 3713 1747 
Q 3713 922 3314 415 
Q 2916 -91 2278 -91 
Q 1894 -91 1617 61 
Q 1341 213 1159 525 
z
M 3116 1747 
Q 3116 2381 2855 2742 
Q 2594 3103 2138 3103 
Q 1681 3103 1420 2742 
Q 1159 2381 1159 1747 
Q 1159 1113 1420 752 
Q 1681 391 2138 391 
Q 2594 391 2855 752 
Q 3116 1113 3116 1747 
z
" id="DejaVuSans-70" transform="scale(0.015625)"/>
      <path d="M 2375 4863 
L 2375 4384 
L 1825 4384 
Q 1516 4384 1395 4259 
Q 1275 4134 1275 3809 
L 1275 3500 
L 2222 3500 
L 2222 3053 
L 1275 3053 
L 1275 0 
L 697 0 
L 697 3053 
L 147 3053 
L 147 3500 
L 697 3500 
L 697 3744 
Q 697 4328 969 4595 
Q 1241 4863 1831 4863 
L 2375 4863 
z
" id="DejaVuSans-66" transform="scale(0.015625)"/>
      <path d="M 353 3500 
L 3084 3500 
L 3084 2975 
L 922 459 
L 3084 459 
L 3084 0 
L 275 0 
L 275 525 
L 2438 3041 
L 353 3041 
L 353 3500 
z
" id="DejaVuSans-7a" transform="scale(0.015625)"/>
      <path d="M 750 794 
L 1409 794 
L 1409 256 
L 897 -744 
L 494 -744 
L 750 256 
L 750 794 
z
" id="DejaVuSans-2c" transform="scale(0.015625)"/>
      <path d="M 603 4863 
L 1178 4863 
L 1178 0 
L 603 0 
L 603 4863 
z
" id="DejaVuSans-6c" transform="scale(0.015625)"/>
      <path d="M 1625 4666 
L 2156 4666 
L 531 -594 
L 0 -594 
L 1625 4666 
z
" id="DejaVuSans-2f" transform="scale(0.015625)"/>
     </defs>
     <use xlink:href="#DejaVuSans-6e"/>
     <use x="63.378906" xlink:href="#DejaVuSans-6a"/>
     <use x="91.162109" xlink:href="#DejaVuSans-73"/>
     <use x="143.261719" xlink:href="#DejaVuSans-5f"/>
     <use x="193.261719" xlink:href="#DejaVuSans-6e"/>
     <use x="256.640625" xlink:href="#DejaVuSans-6a"/>
     <use x="284.423828" xlink:href="#DejaVuSans-73"/>
     <use x="336.523438" xlink:href="#DejaVuSans-5f"/>
     <use x="386.523438" xlink:href="#DejaVuSans-70"/>
     <use x="450" xlink:href="#DejaVuSans-72"/>
     <use x="488.863281" xlink:href="#DejaVuSans-6f"/>
     <use x="550.044922" xlink:href="#DejaVuSans-63"/>
     <use x="605.025391" xlink:href="#DejaVuSans-65"/>
     <use x="666.548828" xlink:href="#DejaVuSans-73"/>
     <use x="718.648438" xlink:href="#DejaVuSans-73"/>
     <use x="770.748047" xlink:href="#DejaVuSans-5f"/>
     <use x="820.748047" xlink:href="#DejaVuSans-73"/>
     <use x="872.847656" xlink:href="#DejaVuSans-63"/>
     <use x="927.828125" xlink:href="#DejaVuSans-72"/>
     <use x="968.941406" xlink:href="#DejaVuSans-69"/>
     <use x="996.724609" xlink:href="#DejaVuSans-70"/>
     <use x="1060.201172" xlink:href="#DejaVuSans-74"/>
     <use x="1099.410156" xlink:href="#DejaVuSans-5f"/>
     <use x="1149.410156" xlink:href="#DejaVuSans-66"/>
     <use x="1184.615234" xlink:href="#DejaVuSans-75"/>
     <use x="1247.994141" xlink:href="#DejaVuSans-7a"/>
     <use x="1300.484375" xlink:href="#DejaVuSans-7a"/>
     <use x="1352.974609" xlink:href="#DejaVuSans-65"/>
     <use x="1414.498047" xlink:href="#DejaVuSans-72"/>
     <use x="1455.611328" xlink:href="#DejaVuSans-20"/>
     <use x="1487.398438" xlink:href="#DejaVuSans-28"/>
     <use x="1526.412109" xlink:href="#DejaVuSans-32"/>
     <use x="1590.035156" xlink:href="#DejaVuSans-33"/>
     <use x="1653.658203" xlink:href="#DejaVuSans-68"/>
     <use x="1717.037109" xlink:href="#DejaVuSans-2c"/>
     <use x="1748.824219" xlink:href="#DejaVuSans-20"/>
     <use x="1780.611328" xlink:href="#DejaVuSans-31"/>
     <use x="1844.234375" xlink:href="#DejaVuSans-36"/>
     <use x="1907.857422" xlink:href="#DejaVuSans-20"/>
     <use x="1939.644531" xlink:href="#DejaVuSans-74"/>
     <use x="1978.853516" xlink:href="#DejaVuSans-72"/>
     <use x="2019.966797" xlink:href="#DejaVuSans-69"/>
     <use x="2047.75" xlink:href="#DejaVuSans-61"/>
     <use x="2109.029297" xlink:href="#DejaVuSans-6c"/>
     <use x="2136.8125" xlink:href="#DejaVuSans-73"/>
     <use x="2188.912109" xlink:href="#DejaVuSans-2f"/>
     <use x="2222.603516" xlink:href="#DejaVuSans-66"/>
     <use x="2257.808594" xlink:href="#DejaVuSans-75"/>
     <use x="2321.1875" xlink:href="#DejaVuSans-7a"/>
     <use x="2373.677734" xlink:href="#DejaVuSans-7a"/>
     <use x="2426.167969" xlink:href="#DejaVuSans-65"/>
     <use x="2487.691406" xlink:href="#DejaVuSans-72"/>
     <use x="2528.804688" xlink:href="#DejaVuSans-29"/>
    </g>
   </g>
   <g id="legend_1">
    <g id="line2d_19">
     <path d="M 414.448125 30.416562 
L 434.448125 30.416562 
" style="fill:none;stroke:#d62728;stroke-linecap:square;stroke-width:1.5;"/>
    </g>
    <g id="line2d_20">
     <defs>
      <path d="M 0 -3 
L -3 3 
L 3 3 
z
" id="m16738655e2" style="stroke:#d62728;stroke-linejoin:miter;"/>
     </defs>
     <g>
      <use style="fill:#d62728;stroke:#d62728;stroke-linejoin:miter;" x="424.448125" xlink:href="#m16738655e2" y="30.416562"/>
     </g>
    </g>
    <g id="text_16">
     <!-- afl_scheduling_random -->
     <g transform="translate(442.448125 33.916562)scale(0.1 -0.1)">
      <use xlink:href="#DejaVuSans-61"/>
      <use x="61.279297" xlink:href="#DejaVuSans-66"/>
      <use x="96.484375" xlink:href="#DejaVuSans-6c"/>
      <use x="124.267578" xlink:href="#DejaVuSans-5f"/>
      <use x="174.267578" xlink:href="#DejaVuSans-73"/>
      <use x="226.367188" xlink:href="#DejaVuSans-63"/>
      <use x="281.347656" xlink:href="#DejaVuSans-68"/>
      <use x="344.726562" xlink:href="#DejaVuSans-65"/>
      <use x="406.25" xlink:href="#DejaVuSans-64"/>
      <use x="469.726562" xlink:href="#DejaVuSans-75"/>
      <use x="533.105469" xlink:href="#DejaVuSans-6c"/>
      <use x="560.888672" xlink:href="#DejaVuSans-69"/>
      <use x="588.671875" xlink:href="#DejaVuSans-6e"/>
      <use x="652.050781" xlink:href="#DejaVuSans-67"/>
      <use x="715.527344" xlink:href="#DejaVuSans-5f"/>
      <use x="765.527344" xlink:href="#DejaVuSans-72"/>
      <use x="806.640625" xlink:href="#DejaVuSans-61"/>
      <use x="867.919922" xlink:href="#DejaVuSans-6e"/>
      <use x="931.298828" xlink:href="#DejaVuSans-64"/>
      <use x="994.775391" xlink:href="#DejaVuSans-6f"/>
      <use x="1055.957031" xlink:href="#DejaVuSans-6d"/>
     </g>
    </g>
    <g id="line2d_21">
     <path d="M 414.448125 45.372813 
L 434.448125 45.372813 
" style="fill:none;stroke:#1f77b4;stroke-linecap:square;stroke-width:1.5;"/>
    </g>
    <g id="line2d_22">
     <defs>
      <path d="M 0 3 
C 0.795609 3 1.55874 2.683901 2.12132 2.12132 
C 2.683901 1.55874 3 0.795609 3 0 
C 3 -0.795609 2.683901 -1.55874 2.12132 -2.12132 
C 1.55874 -2.683901 0.795609 -3 0 -3 
C -0.795609 -3 -1.55874 -2.683901 -2.12132 -2.12132 
C -2.683901 -1.55874 -3 -0.795609 -3 0 
C -3 0.795609 -2.683901 1.55874 -2.12132 2.12132 
C -1.55874 2.683901 -0.795609 3 0 3 
z
" id="mb336db6857" style="stroke:#1f77b4;"/>
     </defs>
     <g>
      <use style="fill:#1f77b4;stroke:#1f77b4;" x="424.448125" xlink:href="#mb336db6857" y="45.372813"/>
     </g>
    </g>
    <g id="text_17">
     <!-- afl -->
     <g transform="translate(442.448125 48.872813)scale(0.1 -0.1)">
      <use xlink:href="#DejaVuSans-61"/>
      <use x="61.279297" xlink:href="#DejaVuSans-66"/>
      <use x="96.484375" xlink:href="#DejaVuSans-6c"/>
     </g>
    </g>
    <g id="line2d_23">
     <path d="M 414.448125 60.050937 
L 434.448125 60.050937 
" style="fill:none;stroke:#98df8a;stroke-linecap:square;stroke-width:1.5;"/>
    </g>
    <g id="line2d_24">
     <defs>
      <path d="M -0 3 
L 3 -3 
L -3 -3 
z
" id="m9d219a9301" style="stroke:#98df8a;stroke-linejoin:miter;"/>
     </defs>
     <g>
      <use style="fill:#98df8a;stroke:#98df8a;stroke-linejoin:miter;" x="424.448125" xlink:href="#m9d219a9301" y="60.050937"/>
     </g>
    </g>
    <g id="text_18">
     <!-- afl_scheduling_lifo -->
     <g transform="translate(442.448125 63.550937)scale(0.1 -0.1)">
      <use xlink:href="#DejaVuSans-61"/>
      <use x="61.279297" xlink:href="#DejaVuSans-66"/>
      <use x="96.484375" xlink:href="#DejaVuSans-6c"/>
      <use x="124.267578" xlink:href="#DejaVuSans-5f"/>
      <use x="174.267578" xlink:href="#DejaVuSans-73"/>
      <use x="226.367188" xlink:href="#DejaVuSans-63"/>
      <use x="281.347656" xlink:href="#DejaVuSans-68"/>
      <use x="344.726562" xlink:href="#DejaVuSans-65"/>
      <use x="406.25" xlink:href="#DejaVuSans-64"/>
      <use x="469.726562" xlink:href="#DejaVuSans-75"/>
      <use x="533.105469" xlink:href="#DejaVuSans-6c"/>
      <use x="560.888672" xlink:href="#DejaVuSans-69"/>
      <use x="588.671875" xlink:href="#DejaVuSans-6e"/>
      <use x="652.050781" xlink:href="#DejaVuSans-67"/>
      <use x="715.527344" xlink:href="#DejaVuSans-5f"/>
      <use x="765.527344" xlink:href="#DejaVuSans-6c"/>
      <use x="793.310547" xlink:href="#DejaVuSans-69"/>
      <use x="821.09375" xlink:href="#DejaVuSans-66"/>
      <use x="856.298828" xlink:href="#DejaVuSans-6f"/>
     </g>
    </g>
   </g>
  </g>
 </g>
 <defs>
  <clipPath id="p0b1cf3434a">
   <rect height="266.112" width="357.12" x="53.328125" y="22.318125"/>
  </clipPath>
 </defs>
</svg>
