<?xml version="1.0" encoding="utf-8" standalone="no"?>
<!DOCTYPE svg PUBLIC "-//W3C//DTD SVG 1.1//EN"
  "http://www.w3.org/Graphics/SVG/1.1/DTD/svg11.dtd">
<svg height="325.986375pt" version="1.1" viewBox="0 0 568.985625 325.986375" width="568.985625pt" xmlns="http://www.w3.org/2000/svg" xmlns:xlink="http://www.w3.org/1999/xlink">
 <metadata>
  <rdf:RDF xmlns:cc="http://creativecommons.org/ns#" xmlns:dc="http://purl.org/dc/elements/1.1/" xmlns:rdf="http://www.w3.org/1999/02/22-rdf-syntax-ns#">
   <cc:Work>
    <dc:type rdf:resource="http://purl.org/dc/dcmitype/StillImage"/>
    <dc:date>2022-05-31T14:25:30.089637</dc:date>
    <dc:format>image/svg+xml</dc:format>
    <dc:creator>
     <cc:Agent>
      <dc:title>Matplotlib v3.4.3, https://matplotlib.org/</dc:title>
     </cc:Agent>
    </dc:creator>
   </cc:Work>
  </rdf:RDF>
 </metadata>
 <defs>
  <style type="text/css">*{stroke-linecap:butt;stroke-linejoin:round;}</style>
 </defs>
 <g id="figure_1">
  <g id="patch_1">
   <path d="M 0 325.986375 
L 568.985625 325.986375 
L 568.985625 0 
L 0 0 
z
" style="fill:#ffffff;"/>
  </g>
  <g id="axes_1">
   <g id="patch_2">
    <path d="M 53.328125 288.430125 
L 410.448125 288.430125 
L 410.448125 22.318125 
L 53.328125 22.318125 
z
" style="fill:#ffffff;"/>
   </g>
   <g id="PolyCollection_1">
    <defs>
     <path d="M 69.560852 -161.510571 
L 69.560852 -150.691884 
L 119.327306 -188.815609 
L 148.438816 -194.839426 
L 169.09376 -202.490113 
L 185.11498 -210.93225 
L 198.205269 -213.570418 
L 209.272952 -215.417135 
L 218.860214 -215.944769 
L 227.316779 -229.663242 
L 234.881434 -234.236067 
L 241.724496 -234.939578 
L 247.971723 -237.841563 
L 253.718615 -237.094082 
L 259.039406 -239.864158 
L 263.992943 -241.007365 
L 268.626668 -241.007365 
L 272.979383 -241.710876 
L 277.083233 -241.798815 
L 280.965141 -245.184464 
L 284.647888 -245.844006 
L 288.150915 -249.361563 
L 291.49095 -249.62538 
L 294.68249 -249.62538 
L 297.738177 -249.62538 
L 300.669107 -251.296219 
L 303.485069 -251.296219 
L 306.194742 -252.527365 
L 308.805859 -252.791181 
L 311.32534 -252.791181 
L 313.759397 -253.011029 
L 316.113635 -253.054998 
L 318.393122 -253.494693 
L 320.60246 -253.582632 
L 322.745837 -255.781105 
L 324.827079 -255.781105 
L 326.849687 -256.908922 
L 328.816873 -256.924311 
L 330.731595 -257.01225 
L 332.596578 -258.155456 
L 334.414342 -258.155456 
L 336.187217 -259.210723 
L 337.917369 -259.914235 
L 339.606807 -259.914235 
L 341.257404 -259.914235 
L 342.870906 -259.914235 
L 344.448944 -261.233319 
L 345.993042 -263.080036 
L 347.504631 -263.167975 
L 348.985051 -263.167975 
L 350.435561 -263.167975 
L 351.857347 -263.167975 
L 353.251523 -263.167975 
L 354.619142 -263.167975 
L 355.961196 -264.662937 
L 357.278624 -264.662937 
L 358.572313 -265.102632 
L 359.843104 -265.102632 
L 361.091794 -265.190571 
L 362.319136 -265.190571 
L 363.525851 -265.190571 
L 364.712619 -265.190571 
L 365.880089 -265.190571 
L 367.028878 -265.190571 
L 368.159576 -265.190571 
L 369.272743 -266.157899 
L 370.368914 -266.157899 
L 371.4486 -270.060189 
L 372.512291 -269.631487 
L 373.560453 -266.157899 
L 374.593533 -266.157899 
L 375.611959 -266.245838 
L 376.616141 -266.245838 
L 377.606471 -267.828739 
L 378.583327 -267.828739 
L 379.547071 -269.763395 
L 380.498049 -273.105074 
L 381.436596 -273.105074 
L 382.363032 -273.105074 
L 383.277666 -273.105074 
L 384.180795 -273.105074 
L 385.072705 -273.105074 
L 385.953671 -273.105074 
L 386.823958 -273.105074 
L 387.683823 -273.105074 
L 388.533511 -273.876739 
L 389.373261 -273.896525 
L 390.203303 -273.896525 
L 391.023858 -273.105074 
L 391.835142 -273.105074 
L 392.63736 -273.105074 
L 393.430714 -273.105074 
L 394.215398 -273.105074 
L 394.215398 -291.57225 
L 394.215398 -291.57225 
L 393.430714 -291.57225 
L 392.63736 -290.868739 
L 391.835142 -290.868739 
L 391.023858 -290.868739 
L 390.203303 -291.088586 
L 389.373261 -289.549655 
L 388.533511 -289.90141 
L 387.683823 -289.90141 
L 386.823958 -289.90141 
L 385.953671 -289.90141 
L 385.072705 -289.90141 
L 384.180795 -289.90141 
L 383.277666 -289.90141 
L 382.363032 -289.90141 
L 381.436596 -289.90141 
L 380.498049 -289.90141 
L 379.547071 -289.90141 
L 378.583327 -289.90141 
L 377.606471 -289.461716 
L 376.616141 -289.461716 
L 375.611959 -288.494387 
L 374.593533 -288.494387 
L 373.560453 -288.494387 
L 372.512291 -288.760403 
L 371.4486 -288.538357 
L 370.368914 -288.406448 
L 369.272743 -288.406448 
L 368.159576 -288.406448 
L 367.028878 -288.406448 
L 365.880089 -288.406448 
L 364.712619 -288.406448 
L 363.525851 -288.406448 
L 362.319136 -288.406448 
L 361.091794 -288.230571 
L 359.843104 -288.230571 
L 358.572313 -287.790876 
L 357.278624 -287.790876 
L 355.961196 -287.790876 
L 354.619142 -286.735609 
L 353.251523 -285.240647 
L 351.857347 -279.524616 
L 350.435561 -279.524616 
L 348.985051 -279.524616 
L 347.504631 -279.524616 
L 345.993042 -279.348739 
L 344.448944 -278.733166 
L 342.870906 -276.974387 
L 341.257404 -276.974387 
L 339.606807 -276.974387 
L 337.917369 -275.391487 
L 336.187217 -275.391487 
L 334.414342 -275.391487 
L 332.596578 -273.984464 
L 330.731595 -272.929197 
L 328.816873 -272.929197 
L 326.849687 -272.137746 
L 324.827079 -272.66538 
L 322.745837 -272.66538 
L 320.60246 -272.313624 
L 318.393122 -272.049807 
L 316.113635 -266.421716 
L 313.759397 -266.245838 
L 311.32534 -265.058662 
L 308.805859 -264.926754 
L 306.194742 -262.112708 
L 303.485069 -261.848891 
L 300.669107 -261.409197 
L 297.738177 -261.409197 
L 294.68249 -261.321258 
L 291.49095 -260.441868 
L 288.150915 -257.715761 
L 284.647888 -256.264769 
L 280.965141 -256.044922 
L 277.083233 -255.34141 
L 272.979383 -251.120342 
L 268.626668 -248.74599 
L 263.992943 -248.394235 
L 259.039406 -247.11912 
L 253.718615 -245.847303 
L 247.971723 -246.635456 
L 241.724496 -245.580189 
L 234.881434 -242.502326 
L 227.316779 -239.072708 
L 218.860214 -238.633013 
L 209.272952 -234.148128 
L 198.205269 -231.905685 
L 185.11498 -226.145685 
L 169.09376 -221.6608 
L 148.438816 -213.922174 
L 119.327306 -199.060494 
L 69.560852 -161.510571 
z
" id="m10b59f4bc5" style="stroke:#d62728;stroke-opacity:0.2;"/>
    </defs>
    <g clip-path="url(#peaa51e1405)">
     <use style="fill:#d62728;fill-opacity:0.2;stroke:#d62728;stroke-opacity:0.2;" x="0" xlink:href="#m10b59f4bc5" y="325.986375"/>
    </g>
   </g>
   <g id="PolyCollection_2">
    <defs>
     <path d="M 69.560852 -158.872403 
L 69.560852 -146.209197 
L 119.327306 -182.703853 
L 148.438816 -185.342021 
L 169.09376 -185.605838 
L 185.11498 -191.14599 
L 198.205269 -196.422326 
L 209.272952 -198.093166 
L 218.860214 -207.502632 
L 227.316779 -207.942326 
L 234.881434 -209.701105 
L 241.724496 -214.18599 
L 247.971723 -216.032708 
L 253.718615 -219.814082 
L 259.039406 -219.814082 
L 263.992943 -226.849197 
L 268.626668 -234.675761 
L 272.979383 -236.522479 
L 277.083233 -239.424464 
L 280.965141 -243.469655 
L 284.647888 -245.404311 
L 288.150915 -245.404311 
L 291.49095 -245.404311 
L 294.68249 -245.580189 
L 297.738177 -245.580189 
L 300.669107 -246.2837 
L 303.485069 -249.449502 
L 306.194742 -251.120342 
L 308.805859 -253.75851 
L 311.32534 -253.75851 
L 313.759397 -254.022326 
L 316.113635 -254.901716 
L 318.393122 -254.901716 
L 320.60246 -255.165532 
L 322.745837 -255.165532 
L 324.827079 -258.243395 
L 326.849687 -258.419273 
L 328.816873 -258.595151 
L 330.731595 -261.321258 
L 332.596578 -261.321258 
L 334.414342 -261.321258 
L 336.187217 -261.93683 
L 337.917369 -263.60767 
L 339.606807 -263.60767 
L 341.257404 -263.60767 
L 342.870906 -263.60767 
L 344.448944 -263.60767 
L 345.993042 -263.60767 
L 347.504631 -263.60767 
L 348.985051 -265.190571 
L 350.435561 -265.190571 
L 351.857347 -265.190571 
L 353.251523 -265.190571 
L 354.619142 -265.190571 
L 355.961196 -265.190571 
L 357.278624 -265.454387 
L 358.572313 -265.982021 
L 359.843104 -266.597594 
L 361.091794 -266.597594 
L 362.319136 -266.597594 
L 363.525851 -266.597594 
L 364.712619 -266.86141 
L 365.880089 -266.949349 
L 367.028878 -267.125227 
L 368.159576 -267.652861 
L 369.272743 -267.7408 
L 370.368914 -267.7408 
L 371.4486 -267.7408 
L 372.512291 -268.708128 
L 373.560453 -268.708128 
L 374.593533 -268.971945 
L 375.611959 -268.971945 
L 376.616141 -268.971945 
L 377.606471 -268.971945 
L 378.583327 -268.971945 
L 379.547071 -269.059884 
L 380.498049 -269.059884 
L 381.436596 -270.730723 
L 382.363032 -270.730723 
L 383.277666 -270.730723 
L 384.180795 -271.082479 
L 385.072705 -273.720647 
L 385.953671 -273.720647 
L 386.823958 -273.720647 
L 387.683823 -273.720647 
L 388.533511 -274.072403 
L 389.373261 -272.748922 
L 390.203303 -273.236983 
L 391.023858 -273.149044 
L 391.835142 -273.236983 
L 392.63736 -273.149044 
L 393.430714 -273.236983 
L 394.215398 -273.236983 
L 394.215398 -285.152708 
L 394.215398 -285.152708 
L 393.430714 -283.657746 
L 392.63736 -284.229349 
L 391.835142 -283.745685 
L 391.023858 -283.437899 
L 390.203303 -283.30599 
L 389.373261 -283.218052 
L 388.533511 -283.657746 
L 387.683823 -283.657746 
L 386.823958 -283.218052 
L 385.953671 -283.218052 
L 385.072705 -283.218052 
L 384.180795 -281.898968 
L 383.277666 -281.811029 
L 382.363032 -281.811029 
L 381.436596 -281.811029 
L 380.498049 -281.811029 
L 379.547071 -281.811029 
L 378.583327 -281.811029 
L 377.606471 -281.635151 
L 376.616141 -281.635151 
L 375.611959 -281.459273 
L 374.593533 -281.459273 
L 373.560453 -281.371334 
L 372.512291 -279.172861 
L 371.4486 -275.655303 
L 370.368914 -275.655303 
L 369.272743 -275.655303 
L 368.159576 -275.215609 
L 367.028878 -275.215609 
L 365.880089 -275.215609 
L 364.712619 -275.215609 
L 363.525851 -275.215609 
L 362.319136 -275.215609 
L 361.091794 -273.45683 
L 359.843104 -273.45683 
L 358.572313 -273.45683 
L 357.278624 -272.577441 
L 355.961196 -272.577441 
L 354.619142 -272.313624 
L 353.251523 -272.049807 
L 351.857347 -271.346296 
L 350.435561 -271.346296 
L 348.985051 -271.346296 
L 347.504631 -269.499578 
L 345.993042 -269.499578 
L 344.448944 -268.708128 
L 342.870906 -268.092555 
L 341.257404 -268.092555 
L 339.606807 -268.092555 
L 337.917369 -267.301105 
L 336.187217 -267.301105 
L 334.414342 -267.125227 
L 332.596578 -267.125227 
L 330.731595 -267.037288 
L 328.816873 -266.86141 
L 326.849687 -266.86141 
L 324.827079 -266.333777 
L 322.745837 -265.894082 
L 320.60246 -265.102632 
L 318.393122 -264.223242 
L 316.113635 -262.728281 
L 313.759397 -262.552403 
L 311.32534 -261.93683 
L 308.805859 -261.848891 
L 306.194742 -261.409197 
L 303.485069 -261.409197 
L 300.669107 -261.233319 
L 297.738177 -261.233319 
L 294.68249 -258.946906 
L 291.49095 -258.946906 
L 288.150915 -258.946906 
L 284.647888 -258.771029 
L 280.965141 -258.68309 
L 277.083233 -253.406754 
L 272.979383 -251.911792 
L 268.626668 -251.911792 
L 263.992943 -247.426906 
L 259.039406 -246.2837 
L 253.718615 -246.019884 
L 247.971723 -244.436983 
L 241.724496 -244.436983 
L 234.881434 -240.215914 
L 227.316779 -237.138052 
L 218.860214 -235.115456 
L 209.272952 -234.060189 
L 198.205269 -233.444616 
L 185.11498 -208.382021 
L 169.09376 -203.017746 
L 148.438816 -194.663548 
L 119.327306 -190.266601 
L 69.560852 -158.872403 
z
" id="m570e4344a0" style="stroke:#1f77b4;stroke-opacity:0.2;"/>
    </defs>
    <g clip-path="url(#peaa51e1405)">
     <use style="fill:#1f77b4;fill-opacity:0.2;stroke:#1f77b4;stroke-opacity:0.2;" x="0" xlink:href="#m570e4344a0" y="325.986375"/>
    </g>
   </g>
   <g id="PolyCollection_3">
    <defs>
     <path d="M 69.560852 -63.546601 
L 69.560852 -49.65225 
L 119.327306 -60.029044 
L 148.438816 -66.448586 
L 169.09376 -71.988739 
L 185.11498 -74.714845 
L 198.205269 -79.419578 
L 209.272952 -82.629349 
L 218.860214 -85.355456 
L 227.316779 -87.378052 
L 234.881434 -90.367975 
L 241.724496 -94.501105 
L 247.971723 -96.5237 
L 253.718615 -99.425685 
L 259.039406 -99.513624 
L 263.992943 -101.712097 
L 268.626668 -103.16309 
L 272.979383 -103.16309 
L 277.083233 -104.086448 
L 280.965141 -105.229655 
L 284.647888 -108.571334 
L 288.150915 -108.571334 
L 291.49095 -109.230876 
L 294.68249 -110.286143 
L 297.738177 -111.297441 
L 300.669107 -111.605227 
L 303.485069 -111.429349 
L 306.194742 -113.407975 
L 308.805859 -114.63912 
L 311.32534 -114.814998 
L 313.759397 -115.166754 
L 316.113635 -118.068739 
L 318.393122 -117.921441 
L 320.60246 -119.255914 
L 322.745837 -119.255914 
L 324.827079 -119.915456 
L 326.849687 -119.299884 
L 328.816873 -120.487059 
L 330.731595 -120.574998 
L 332.596578 -121.894082 
L 334.414342 -122.553624 
L 336.187217 -124.004616 
L 337.917369 -123.784769 
L 339.606807 -125.36767 
L 341.257404 -125.015914 
L 342.870906 -124.926876 
L 344.448944 -125.147823 
L 345.993042 -125.147823 
L 347.504631 -126.281135 
L 348.985051 -126.950571 
L 350.435561 -126.950571 
L 351.857347 -128.753319 
L 353.251523 -128.885227 
L 354.619142 -130.160342 
L 355.961196 -130.775914 
L 357.278624 -131.435456 
L 358.572313 -131.611334 
L 359.843104 -131.743242 
L 361.091794 -132.226906 
L 362.319136 -132.578662 
L 363.525851 -132.75454 
L 364.712619 -132.75454 
L 365.880089 -132.75454 
L 367.028878 -132.974387 
L 368.159576 -133.58996 
L 369.272743 -133.633929 
L 370.368914 -133.721868 
L 371.4486 -134.689197 
L 372.512291 -134.689197 
L 373.560453 -134.865074 
L 374.593533 -134.865074 
L 375.611959 -134.865074 
L 376.616141 -134.953013 
L 377.606471 -134.865074 
L 378.583327 -135.21683 
L 379.547071 -135.21683 
L 380.498049 -136.623853 
L 381.436596 -138.118815 
L 382.363032 -138.118815 
L 383.277666 -138.118815 
L 384.180795 -139.086143 
L 385.072705 -139.086143 
L 385.953671 -139.086143 
L 386.823958 -139.086143 
L 387.683823 -139.701716 
L 388.533511 -139.701716 
L 389.373261 -139.701716 
L 390.203303 -139.701716 
L 391.023858 -140.229349 
L 391.835142 -140.405227 
L 392.63736 -140.405227 
L 393.430714 -140.405227 
L 394.215398 -140.493166 
L 394.215398 -150.957899 
L 394.215398 -150.957899 
L 393.430714 -150.430265 
L 392.63736 -149.990571 
L 391.835142 -149.902632 
L 391.023858 -149.902632 
L 390.203303 -149.902632 
L 389.373261 -149.902632 
L 388.533511 -149.814693 
L 387.683823 -149.814693 
L 386.823958 -149.726754 
L 385.953671 -149.726754 
L 385.072705 -149.726754 
L 384.180795 -144.459212 
L 383.277666 -144.802174 
L 382.363032 -144.802174 
L 381.436596 -144.538357 
L 380.498049 -143.48309 
L 379.547071 -143.48309 
L 378.583327 -143.48309 
L 377.606471 -143.131334 
L 376.616141 -142.295914 
L 375.611959 -141.563823 
L 374.593533 -141.108739 
L 373.560453 -141.108739 
L 372.512291 -141.108739 
L 371.4486 -141.108739 
L 370.368914 -141.108739 
L 369.272743 -140.449197 
L 368.159576 -139.877594 
L 367.028878 -140.009502 
L 365.880089 -139.745685 
L 364.712619 -139.30599 
L 363.525851 -138.778357 
L 362.319136 -138.646448 
L 361.091794 -137.811029 
L 359.843104 -137.327365 
L 358.572313 -137.503242 
L 357.278624 -136.447975 
L 355.961196 -137.063548 
L 354.619142 -136.360036 
L 353.251523 -135.876372 
L 351.857347 -135.876372 
L 350.435561 -134.601258 
L 348.985051 -134.996983 
L 347.504631 -134.645227 
L 345.993042 -133.941716 
L 344.448944 -132.669899 
L 342.870906 -132.666601 
L 341.257404 -132.666601 
L 339.606807 -132.79851 
L 337.917369 -132.138968 
L 336.187217 -132.358815 
L 334.414342 -128.710448 
L 332.596578 -128.973166 
L 330.731595 -126.642784 
L 328.816873 -126.598815 
L 326.849687 -126.20309 
L 324.827079 -125.543548 
L 322.745837 -125.36767 
L 320.60246 -124.796067 
L 318.393122 -124.004616 
L 316.113635 -123.614387 
L 313.759397 -123.037288 
L 311.32534 -122.86141 
L 308.805859 -122.86141 
L 306.194742 -122.509655 
L 303.485069 -121.674235 
L 300.669107 -121.190571 
L 297.738177 -120.311181 
L 294.68249 -118.684311 
L 291.49095 -118.508433 
L 288.150915 -118.948128 
L 284.647888 -118.596372 
L 280.965141 -117.453166 
L 277.083233 -116.134082 
L 272.979383 -115.166754 
L 268.626668 -112.000952 
L 263.992943 -109.849746 
L 259.039406 -107.955761 
L 253.718615 -108.483395 
L 247.971723 -105.889197 
L 241.724496 -102.855303 
L 234.881434 -100.524922 
L 227.316779 -98.282479 
L 218.860214 -96.699578 
L 209.272952 -93.094082 
L 198.205269 -89.928281 
L 185.11498 -84.739884 
L 169.09376 -79.991181 
L 148.438816 -75.594235 
L 119.327306 -70.933471 
L 69.560852 -63.546601 
z
" id="me4a8483dac" style="stroke:#98df8a;stroke-opacity:0.2;"/>
    </defs>
    <g clip-path="url(#peaa51e1405)">
     <use style="fill:#98df8a;fill-opacity:0.2;stroke:#98df8a;stroke-opacity:0.2;" x="0" xlink:href="#me4a8483dac" y="325.986375"/>
    </g>
   </g>
   <g id="matplotlib.axis_1">
    <g id="xtick_1">
     <g id="line2d_1">
      <defs>
       <path d="M 0 0 
L 0 3.5 
" id="m76e57fe667" style="stroke:#000000;stroke-width:0.8;"/>
      </defs>
      <g>
       <use style="stroke:#000000;stroke-width:0.8;" x="69.560852" xlink:href="#m76e57fe667" y="288.430125"/>
      </g>
     </g>
     <g id="text_1">
      <!-- 14m -->
      <g transform="translate(58.32804 303.028562)scale(0.1 -0.1)">
       <defs>
        <path d="M 794 531 
L 1825 531 
L 1825 4091 
L 703 3866 
L 703 4441 
L 1819 4666 
L 2450 4666 
L 2450 531 
L 3481 531 
L 3481 0 
L 794 0 
L 794 531 
z
" id="DejaVuSans-31" transform="scale(0.015625)"/>
        <path d="M 2419 4116 
L 825 1625 
L 2419 1625 
L 2419 4116 
z
M 2253 4666 
L 3047 4666 
L 3047 1625 
L 3713 1625 
L 3713 1100 
L 3047 1100 
L 3047 0 
L 2419 0 
L 2419 1100 
L 313 1100 
L 313 1709 
L 2253 4666 
z
" id="DejaVuSans-34" transform="scale(0.015625)"/>
        <path d="M 3328 2828 
Q 3544 3216 3844 3400 
Q 4144 3584 4550 3584 
Q 5097 3584 5394 3201 
Q 5691 2819 5691 2113 
L 5691 0 
L 5113 0 
L 5113 2094 
Q 5113 2597 4934 2840 
Q 4756 3084 4391 3084 
Q 3944 3084 3684 2787 
Q 3425 2491 3425 1978 
L 3425 0 
L 2847 0 
L 2847 2094 
Q 2847 2600 2669 2842 
Q 2491 3084 2119 3084 
Q 1678 3084 1418 2786 
Q 1159 2488 1159 1978 
L 1159 0 
L 581 0 
L 581 3500 
L 1159 3500 
L 1159 2956 
Q 1356 3278 1631 3431 
Q 1906 3584 2284 3584 
Q 2666 3584 2933 3390 
Q 3200 3197 3328 2828 
z
" id="DejaVuSans-6d" transform="scale(0.015625)"/>
       </defs>
       <use xlink:href="#DejaVuSans-31"/>
       <use x="63.623047" xlink:href="#DejaVuSans-34"/>
       <use x="127.246094" xlink:href="#DejaVuSans-6d"/>
      </g>
     </g>
    </g>
    <g id="xtick_2">
     <g id="line2d_2">
      <g>
       <use style="stroke:#000000;stroke-width:0.8;" x="134.491935" xlink:href="#m76e57fe667" y="288.430125"/>
      </g>
     </g>
     <g id="text_2">
      <!-- 37m -->
      <g transform="translate(123.259122 303.028562)scale(0.1 -0.1)">
       <defs>
        <path d="M 2597 2516 
Q 3050 2419 3304 2112 
Q 3559 1806 3559 1356 
Q 3559 666 3084 287 
Q 2609 -91 1734 -91 
Q 1441 -91 1130 -33 
Q 819 25 488 141 
L 488 750 
Q 750 597 1062 519 
Q 1375 441 1716 441 
Q 2309 441 2620 675 
Q 2931 909 2931 1356 
Q 2931 1769 2642 2001 
Q 2353 2234 1838 2234 
L 1294 2234 
L 1294 2753 
L 1863 2753 
Q 2328 2753 2575 2939 
Q 2822 3125 2822 3475 
Q 2822 3834 2567 4026 
Q 2313 4219 1838 4219 
Q 1578 4219 1281 4162 
Q 984 4106 628 3988 
L 628 4550 
Q 988 4650 1302 4700 
Q 1616 4750 1894 4750 
Q 2613 4750 3031 4423 
Q 3450 4097 3450 3541 
Q 3450 3153 3228 2886 
Q 3006 2619 2597 2516 
z
" id="DejaVuSans-33" transform="scale(0.015625)"/>
        <path d="M 525 4666 
L 3525 4666 
L 3525 4397 
L 1831 0 
L 1172 0 
L 2766 4134 
L 525 4134 
L 525 4666 
z
" id="DejaVuSans-37" transform="scale(0.015625)"/>
       </defs>
       <use xlink:href="#DejaVuSans-33"/>
       <use x="63.623047" xlink:href="#DejaVuSans-37"/>
       <use x="127.246094" xlink:href="#DejaVuSans-6d"/>
      </g>
     </g>
    </g>
    <g id="xtick_3">
     <g id="line2d_3">
      <g>
       <use style="stroke:#000000;stroke-width:0.8;" x="199.423017" xlink:href="#m76e57fe667" y="288.430125"/>
      </g>
     </g>
     <g id="text_3">
      <!-- 1h:31m -->
      <g transform="translate(180.15583 303.028562)scale(0.1 -0.1)">
       <defs>
        <path d="M 3513 2113 
L 3513 0 
L 2938 0 
L 2938 2094 
Q 2938 2591 2744 2837 
Q 2550 3084 2163 3084 
Q 1697 3084 1428 2787 
Q 1159 2491 1159 1978 
L 1159 0 
L 581 0 
L 581 4863 
L 1159 4863 
L 1159 2956 
Q 1366 3272 1645 3428 
Q 1925 3584 2291 3584 
Q 2894 3584 3203 3211 
Q 3513 2838 3513 2113 
z
" id="DejaVuSans-68" transform="scale(0.015625)"/>
        <path d="M 750 794 
L 1409 794 
L 1409 0 
L 750 0 
L 750 794 
z
M 750 3309 
L 1409 3309 
L 1409 2516 
L 750 2516 
L 750 3309 
z
" id="DejaVuSans-3a" transform="scale(0.015625)"/>
       </defs>
       <use xlink:href="#DejaVuSans-31"/>
       <use x="63.623047" xlink:href="#DejaVuSans-68"/>
       <use x="127.001953" xlink:href="#DejaVuSans-3a"/>
       <use x="160.693359" xlink:href="#DejaVuSans-33"/>
       <use x="224.316406" xlink:href="#DejaVuSans-31"/>
       <use x="287.939453" xlink:href="#DejaVuSans-6d"/>
      </g>
     </g>
    </g>
    <g id="xtick_4">
     <g id="line2d_4">
      <g>
       <use style="stroke:#000000;stroke-width:0.8;" x="264.3541" xlink:href="#m76e57fe667" y="288.430125"/>
      </g>
     </g>
     <g id="text_4">
      <!-- 3h:46m -->
      <g transform="translate(245.086912 303.028562)scale(0.1 -0.1)">
       <defs>
        <path d="M 2113 2584 
Q 1688 2584 1439 2293 
Q 1191 2003 1191 1497 
Q 1191 994 1439 701 
Q 1688 409 2113 409 
Q 2538 409 2786 701 
Q 3034 994 3034 1497 
Q 3034 2003 2786 2293 
Q 2538 2584 2113 2584 
z
M 3366 4563 
L 3366 3988 
Q 3128 4100 2886 4159 
Q 2644 4219 2406 4219 
Q 1781 4219 1451 3797 
Q 1122 3375 1075 2522 
Q 1259 2794 1537 2939 
Q 1816 3084 2150 3084 
Q 2853 3084 3261 2657 
Q 3669 2231 3669 1497 
Q 3669 778 3244 343 
Q 2819 -91 2113 -91 
Q 1303 -91 875 529 
Q 447 1150 447 2328 
Q 447 3434 972 4092 
Q 1497 4750 2381 4750 
Q 2619 4750 2861 4703 
Q 3103 4656 3366 4563 
z
" id="DejaVuSans-36" transform="scale(0.015625)"/>
       </defs>
       <use xlink:href="#DejaVuSans-33"/>
       <use x="63.623047" xlink:href="#DejaVuSans-68"/>
       <use x="127.001953" xlink:href="#DejaVuSans-3a"/>
       <use x="160.693359" xlink:href="#DejaVuSans-34"/>
       <use x="224.316406" xlink:href="#DejaVuSans-36"/>
       <use x="287.939453" xlink:href="#DejaVuSans-6d"/>
      </g>
     </g>
    </g>
    <g id="xtick_5">
     <g id="line2d_5">
      <g>
       <use style="stroke:#000000;stroke-width:0.8;" x="329.285182" xlink:href="#m76e57fe667" y="288.430125"/>
      </g>
     </g>
     <g id="text_5">
      <!-- 9h:18m -->
      <g transform="translate(310.017995 303.028562)scale(0.1 -0.1)">
       <defs>
        <path d="M 703 97 
L 703 672 
Q 941 559 1184 500 
Q 1428 441 1663 441 
Q 2288 441 2617 861 
Q 2947 1281 2994 2138 
Q 2813 1869 2534 1725 
Q 2256 1581 1919 1581 
Q 1219 1581 811 2004 
Q 403 2428 403 3163 
Q 403 3881 828 4315 
Q 1253 4750 1959 4750 
Q 2769 4750 3195 4129 
Q 3622 3509 3622 2328 
Q 3622 1225 3098 567 
Q 2575 -91 1691 -91 
Q 1453 -91 1209 -44 
Q 966 3 703 97 
z
M 1959 2075 
Q 2384 2075 2632 2365 
Q 2881 2656 2881 3163 
Q 2881 3666 2632 3958 
Q 2384 4250 1959 4250 
Q 1534 4250 1286 3958 
Q 1038 3666 1038 3163 
Q 1038 2656 1286 2365 
Q 1534 2075 1959 2075 
z
" id="DejaVuSans-39" transform="scale(0.015625)"/>
        <path d="M 2034 2216 
Q 1584 2216 1326 1975 
Q 1069 1734 1069 1313 
Q 1069 891 1326 650 
Q 1584 409 2034 409 
Q 2484 409 2743 651 
Q 3003 894 3003 1313 
Q 3003 1734 2745 1975 
Q 2488 2216 2034 2216 
z
M 1403 2484 
Q 997 2584 770 2862 
Q 544 3141 544 3541 
Q 544 4100 942 4425 
Q 1341 4750 2034 4750 
Q 2731 4750 3128 4425 
Q 3525 4100 3525 3541 
Q 3525 3141 3298 2862 
Q 3072 2584 2669 2484 
Q 3125 2378 3379 2068 
Q 3634 1759 3634 1313 
Q 3634 634 3220 271 
Q 2806 -91 2034 -91 
Q 1263 -91 848 271 
Q 434 634 434 1313 
Q 434 1759 690 2068 
Q 947 2378 1403 2484 
z
M 1172 3481 
Q 1172 3119 1398 2916 
Q 1625 2713 2034 2713 
Q 2441 2713 2670 2916 
Q 2900 3119 2900 3481 
Q 2900 3844 2670 4047 
Q 2441 4250 2034 4250 
Q 1625 4250 1398 4047 
Q 1172 3844 1172 3481 
z
" id="DejaVuSans-38" transform="scale(0.015625)"/>
       </defs>
       <use xlink:href="#DejaVuSans-39"/>
       <use x="63.623047" xlink:href="#DejaVuSans-68"/>
       <use x="127.001953" xlink:href="#DejaVuSans-3a"/>
       <use x="160.693359" xlink:href="#DejaVuSans-31"/>
       <use x="224.316406" xlink:href="#DejaVuSans-38"/>
       <use x="287.939453" xlink:href="#DejaVuSans-6d"/>
      </g>
     </g>
    </g>
    <g id="xtick_6">
     <g id="line2d_6">
      <g>
       <use style="stroke:#000000;stroke-width:0.8;" x="394.216265" xlink:href="#m76e57fe667" y="288.430125"/>
      </g>
     </g>
     <g id="text_6">
      <!-- 23h -->
      <g transform="translate(384.685015 303.028562)scale(0.1 -0.1)">
       <defs>
        <path d="M 1228 531 
L 3431 531 
L 3431 0 
L 469 0 
L 469 531 
Q 828 903 1448 1529 
Q 2069 2156 2228 2338 
Q 2531 2678 2651 2914 
Q 2772 3150 2772 3378 
Q 2772 3750 2511 3984 
Q 2250 4219 1831 4219 
Q 1534 4219 1204 4116 
Q 875 4013 500 3803 
L 500 4441 
Q 881 4594 1212 4672 
Q 1544 4750 1819 4750 
Q 2544 4750 2975 4387 
Q 3406 4025 3406 3419 
Q 3406 3131 3298 2873 
Q 3191 2616 2906 2266 
Q 2828 2175 2409 1742 
Q 1991 1309 1228 531 
z
" id="DejaVuSans-32" transform="scale(0.015625)"/>
       </defs>
       <use xlink:href="#DejaVuSans-32"/>
       <use x="63.623047" xlink:href="#DejaVuSans-33"/>
       <use x="127.246094" xlink:href="#DejaVuSans-68"/>
      </g>
     </g>
    </g>
    <g id="xtick_7">
     <g id="line2d_7">
      <defs>
       <path d="M 0 0 
L 0 2 
" id="m6490071b4e" style="stroke:#000000;stroke-width:0.6;"/>
      </defs>
      <g>
       <use style="stroke:#000000;stroke-width:0.6;" x="61.104288" xlink:href="#m6490071b4e" y="288.430125"/>
      </g>
     </g>
    </g>
    <g id="xtick_8">
     <g id="line2d_8">
      <g>
       <use style="stroke:#000000;stroke-width:0.6;" x="126.891961" xlink:href="#m6490071b4e" y="288.430125"/>
      </g>
     </g>
    </g>
    <g id="xtick_9">
     <g id="line2d_9">
      <g>
       <use style="stroke:#000000;stroke-width:0.6;" x="156.00347" xlink:href="#m6490071b4e" y="288.430125"/>
      </g>
     </g>
    </g>
    <g id="xtick_10">
     <g id="line2d_10">
      <g>
       <use style="stroke:#000000;stroke-width:0.6;" x="176.658415" xlink:href="#m6490071b4e" y="288.430125"/>
      </g>
     </g>
    </g>
    <g id="xtick_11">
     <g id="line2d_11">
      <g>
       <use style="stroke:#000000;stroke-width:0.6;" x="192.679635" xlink:href="#m6490071b4e" y="288.430125"/>
      </g>
     </g>
    </g>
    <g id="xtick_12">
     <g id="line2d_12">
      <g>
       <use style="stroke:#000000;stroke-width:0.6;" x="205.769924" xlink:href="#m6490071b4e" y="288.430125"/>
      </g>
     </g>
    </g>
    <g id="xtick_13">
     <g id="line2d_13">
      <g>
       <use style="stroke:#000000;stroke-width:0.6;" x="216.837607" xlink:href="#m6490071b4e" y="288.430125"/>
      </g>
     </g>
    </g>
    <g id="xtick_14">
     <g id="line2d_14">
      <g>
       <use style="stroke:#000000;stroke-width:0.6;" x="226.424869" xlink:href="#m6490071b4e" y="288.430125"/>
      </g>
     </g>
    </g>
    <g id="xtick_15">
     <g id="line2d_15">
      <g>
       <use style="stroke:#000000;stroke-width:0.6;" x="234.881434" xlink:href="#m6490071b4e" y="288.430125"/>
      </g>
     </g>
    </g>
    <g id="xtick_16">
     <g id="line2d_16">
      <g>
       <use style="stroke:#000000;stroke-width:0.6;" x="292.212543" xlink:href="#m6490071b4e" y="288.430125"/>
      </g>
     </g>
    </g>
    <g id="xtick_17">
     <g id="line2d_17">
      <g>
       <use style="stroke:#000000;stroke-width:0.6;" x="321.324052" xlink:href="#m6490071b4e" y="288.430125"/>
      </g>
     </g>
    </g>
    <g id="xtick_18">
     <g id="line2d_18">
      <g>
       <use style="stroke:#000000;stroke-width:0.6;" x="341.978996" xlink:href="#m6490071b4e" y="288.430125"/>
      </g>
     </g>
    </g>
    <g id="xtick_19">
     <g id="line2d_19">
      <g>
       <use style="stroke:#000000;stroke-width:0.6;" x="358.000216" xlink:href="#m6490071b4e" y="288.430125"/>
      </g>
     </g>
    </g>
    <g id="xtick_20">
     <g id="line2d_20">
      <g>
       <use style="stroke:#000000;stroke-width:0.6;" x="371.090506" xlink:href="#m6490071b4e" y="288.430125"/>
      </g>
     </g>
    </g>
    <g id="xtick_21">
     <g id="line2d_21">
      <g>
       <use style="stroke:#000000;stroke-width:0.6;" x="382.158188" xlink:href="#m6490071b4e" y="288.430125"/>
      </g>
     </g>
    </g>
    <g id="xtick_22">
     <g id="line2d_22">
      <g>
       <use style="stroke:#000000;stroke-width:0.6;" x="391.74545" xlink:href="#m6490071b4e" y="288.430125"/>
      </g>
     </g>
    </g>
    <g id="xtick_23">
     <g id="line2d_23">
      <g>
       <use style="stroke:#000000;stroke-width:0.6;" x="400.202015" xlink:href="#m6490071b4e" y="288.430125"/>
      </g>
     </g>
    </g>
    <g id="text_7">
     <!-- Time (hour:minute) -->
     <g transform="translate(183.481094 316.706687)scale(0.1 -0.1)">
      <defs>
       <path d="M -19 4666 
L 3928 4666 
L 3928 4134 
L 2272 4134 
L 2272 0 
L 1638 0 
L 1638 4134 
L -19 4134 
L -19 4666 
z
" id="DejaVuSans-54" transform="scale(0.015625)"/>
       <path d="M 603 3500 
L 1178 3500 
L 1178 0 
L 603 0 
L 603 3500 
z
M 603 4863 
L 1178 4863 
L 1178 4134 
L 603 4134 
L 603 4863 
z
" id="DejaVuSans-69" transform="scale(0.015625)"/>
       <path d="M 3597 1894 
L 3597 1613 
L 953 1613 
Q 991 1019 1311 708 
Q 1631 397 2203 397 
Q 2534 397 2845 478 
Q 3156 559 3463 722 
L 3463 178 
Q 3153 47 2828 -22 
Q 2503 -91 2169 -91 
Q 1331 -91 842 396 
Q 353 884 353 1716 
Q 353 2575 817 3079 
Q 1281 3584 2069 3584 
Q 2775 3584 3186 3129 
Q 3597 2675 3597 1894 
z
M 3022 2063 
Q 3016 2534 2758 2815 
Q 2500 3097 2075 3097 
Q 1594 3097 1305 2825 
Q 1016 2553 972 2059 
L 3022 2063 
z
" id="DejaVuSans-65" transform="scale(0.015625)"/>
       <path id="DejaVuSans-20" transform="scale(0.015625)"/>
       <path d="M 1984 4856 
Q 1566 4138 1362 3434 
Q 1159 2731 1159 2009 
Q 1159 1288 1364 580 
Q 1569 -128 1984 -844 
L 1484 -844 
Q 1016 -109 783 600 
Q 550 1309 550 2009 
Q 550 2706 781 3412 
Q 1013 4119 1484 4856 
L 1984 4856 
z
" id="DejaVuSans-28" transform="scale(0.015625)"/>
       <path d="M 1959 3097 
Q 1497 3097 1228 2736 
Q 959 2375 959 1747 
Q 959 1119 1226 758 
Q 1494 397 1959 397 
Q 2419 397 2687 759 
Q 2956 1122 2956 1747 
Q 2956 2369 2687 2733 
Q 2419 3097 1959 3097 
z
M 1959 3584 
Q 2709 3584 3137 3096 
Q 3566 2609 3566 1747 
Q 3566 888 3137 398 
Q 2709 -91 1959 -91 
Q 1206 -91 779 398 
Q 353 888 353 1747 
Q 353 2609 779 3096 
Q 1206 3584 1959 3584 
z
" id="DejaVuSans-6f" transform="scale(0.015625)"/>
       <path d="M 544 1381 
L 544 3500 
L 1119 3500 
L 1119 1403 
Q 1119 906 1312 657 
Q 1506 409 1894 409 
Q 2359 409 2629 706 
Q 2900 1003 2900 1516 
L 2900 3500 
L 3475 3500 
L 3475 0 
L 2900 0 
L 2900 538 
Q 2691 219 2414 64 
Q 2138 -91 1772 -91 
Q 1169 -91 856 284 
Q 544 659 544 1381 
z
M 1991 3584 
L 1991 3584 
z
" id="DejaVuSans-75" transform="scale(0.015625)"/>
       <path d="M 2631 2963 
Q 2534 3019 2420 3045 
Q 2306 3072 2169 3072 
Q 1681 3072 1420 2755 
Q 1159 2438 1159 1844 
L 1159 0 
L 581 0 
L 581 3500 
L 1159 3500 
L 1159 2956 
Q 1341 3275 1631 3429 
Q 1922 3584 2338 3584 
Q 2397 3584 2469 3576 
Q 2541 3569 2628 3553 
L 2631 2963 
z
" id="DejaVuSans-72" transform="scale(0.015625)"/>
       <path d="M 3513 2113 
L 3513 0 
L 2938 0 
L 2938 2094 
Q 2938 2591 2744 2837 
Q 2550 3084 2163 3084 
Q 1697 3084 1428 2787 
Q 1159 2491 1159 1978 
L 1159 0 
L 581 0 
L 581 3500 
L 1159 3500 
L 1159 2956 
Q 1366 3272 1645 3428 
Q 1925 3584 2291 3584 
Q 2894 3584 3203 3211 
Q 3513 2838 3513 2113 
z
" id="DejaVuSans-6e" transform="scale(0.015625)"/>
       <path d="M 1172 4494 
L 1172 3500 
L 2356 3500 
L 2356 3053 
L 1172 3053 
L 1172 1153 
Q 1172 725 1289 603 
Q 1406 481 1766 481 
L 2356 481 
L 2356 0 
L 1766 0 
Q 1100 0 847 248 
Q 594 497 594 1153 
L 594 3053 
L 172 3053 
L 172 3500 
L 594 3500 
L 594 4494 
L 1172 4494 
z
" id="DejaVuSans-74" transform="scale(0.015625)"/>
       <path d="M 513 4856 
L 1013 4856 
Q 1481 4119 1714 3412 
Q 1947 2706 1947 2009 
Q 1947 1309 1714 600 
Q 1481 -109 1013 -844 
L 513 -844 
Q 928 -128 1133 580 
Q 1338 1288 1338 2009 
Q 1338 2731 1133 3434 
Q 928 4138 513 4856 
z
" id="DejaVuSans-29" transform="scale(0.015625)"/>
      </defs>
      <use xlink:href="#DejaVuSans-54"/>
      <use x="57.958984" xlink:href="#DejaVuSans-69"/>
      <use x="85.742188" xlink:href="#DejaVuSans-6d"/>
      <use x="183.154297" xlink:href="#DejaVuSans-65"/>
      <use x="244.677734" xlink:href="#DejaVuSans-20"/>
      <use x="276.464844" xlink:href="#DejaVuSans-28"/>
      <use x="315.478516" xlink:href="#DejaVuSans-68"/>
      <use x="378.857422" xlink:href="#DejaVuSans-6f"/>
      <use x="440.039062" xlink:href="#DejaVuSans-75"/>
      <use x="503.417969" xlink:href="#DejaVuSans-72"/>
      <use x="542.78125" xlink:href="#DejaVuSans-3a"/>
      <use x="576.472656" xlink:href="#DejaVuSans-6d"/>
      <use x="673.884766" xlink:href="#DejaVuSans-69"/>
      <use x="701.667969" xlink:href="#DejaVuSans-6e"/>
      <use x="765.046875" xlink:href="#DejaVuSans-75"/>
      <use x="828.425781" xlink:href="#DejaVuSans-74"/>
      <use x="867.634766" xlink:href="#DejaVuSans-65"/>
      <use x="929.158203" xlink:href="#DejaVuSans-29"/>
     </g>
    </g>
   </g>
   <g id="matplotlib.axis_2">
    <g id="ytick_1">
     <g id="line2d_24">
      <defs>
       <path d="M 0 0 
L -3.5 0 
" id="mb23cbec75f" style="stroke:#000000;stroke-width:0.8;"/>
      </defs>
      <g>
       <use style="stroke:#000000;stroke-width:0.8;" x="53.328125" xlink:href="#mb23cbec75f" y="246.346949"/>
      </g>
     </g>
     <g id="text_8">
      <!-- 5000 -->
      <g transform="translate(20.878125 250.146168)scale(0.1 -0.1)">
       <defs>
        <path d="M 691 4666 
L 3169 4666 
L 3169 4134 
L 1269 4134 
L 1269 2991 
Q 1406 3038 1543 3061 
Q 1681 3084 1819 3084 
Q 2600 3084 3056 2656 
Q 3513 2228 3513 1497 
Q 3513 744 3044 326 
Q 2575 -91 1722 -91 
Q 1428 -91 1123 -41 
Q 819 9 494 109 
L 494 744 
Q 775 591 1075 516 
Q 1375 441 1709 441 
Q 2250 441 2565 725 
Q 2881 1009 2881 1497 
Q 2881 1984 2565 2268 
Q 2250 2553 1709 2553 
Q 1456 2553 1204 2497 
Q 953 2441 691 2322 
L 691 4666 
z
" id="DejaVuSans-35" transform="scale(0.015625)"/>
        <path d="M 2034 4250 
Q 1547 4250 1301 3770 
Q 1056 3291 1056 2328 
Q 1056 1369 1301 889 
Q 1547 409 2034 409 
Q 2525 409 2770 889 
Q 3016 1369 3016 2328 
Q 3016 3291 2770 3770 
Q 2525 4250 2034 4250 
z
M 2034 4750 
Q 2819 4750 3233 4129 
Q 3647 3509 3647 2328 
Q 3647 1150 3233 529 
Q 2819 -91 2034 -91 
Q 1250 -91 836 529 
Q 422 1150 422 2328 
Q 422 3509 836 4129 
Q 1250 4750 2034 4750 
z
" id="DejaVuSans-30" transform="scale(0.015625)"/>
       </defs>
       <use xlink:href="#DejaVuSans-35"/>
       <use x="63.623047" xlink:href="#DejaVuSans-30"/>
       <use x="127.246094" xlink:href="#DejaVuSans-30"/>
       <use x="190.869141" xlink:href="#DejaVuSans-30"/>
      </g>
     </g>
    </g>
    <g id="ytick_2">
     <g id="line2d_25">
      <g>
       <use style="stroke:#000000;stroke-width:0.8;" x="53.328125" xlink:href="#mb23cbec75f" y="202.377484"/>
      </g>
     </g>
     <g id="text_9">
      <!-- 5500 -->
      <g transform="translate(20.878125 206.176703)scale(0.1 -0.1)">
       <use xlink:href="#DejaVuSans-35"/>
       <use x="63.623047" xlink:href="#DejaVuSans-35"/>
       <use x="127.246094" xlink:href="#DejaVuSans-30"/>
       <use x="190.869141" xlink:href="#DejaVuSans-30"/>
      </g>
     </g>
    </g>
    <g id="ytick_3">
     <g id="line2d_26">
      <g>
       <use style="stroke:#000000;stroke-width:0.8;" x="53.328125" xlink:href="#mb23cbec75f" y="158.408018"/>
      </g>
     </g>
     <g id="text_10">
      <!-- 6000 -->
      <g transform="translate(20.878125 162.207237)scale(0.1 -0.1)">
       <use xlink:href="#DejaVuSans-36"/>
       <use x="63.623047" xlink:href="#DejaVuSans-30"/>
       <use x="127.246094" xlink:href="#DejaVuSans-30"/>
       <use x="190.869141" xlink:href="#DejaVuSans-30"/>
      </g>
     </g>
    </g>
    <g id="ytick_4">
     <g id="line2d_27">
      <g>
       <use style="stroke:#000000;stroke-width:0.8;" x="53.328125" xlink:href="#mb23cbec75f" y="114.438552"/>
      </g>
     </g>
     <g id="text_11">
      <!-- 6500 -->
      <g transform="translate(20.878125 118.237771)scale(0.1 -0.1)">
       <use xlink:href="#DejaVuSans-36"/>
       <use x="63.623047" xlink:href="#DejaVuSans-35"/>
       <use x="127.246094" xlink:href="#DejaVuSans-30"/>
       <use x="190.869141" xlink:href="#DejaVuSans-30"/>
      </g>
     </g>
    </g>
    <g id="ytick_5">
     <g id="line2d_28">
      <g>
       <use style="stroke:#000000;stroke-width:0.8;" x="53.328125" xlink:href="#mb23cbec75f" y="70.469087"/>
      </g>
     </g>
     <g id="text_12">
      <!-- 7000 -->
      <g transform="translate(20.878125 74.268306)scale(0.1 -0.1)">
       <use xlink:href="#DejaVuSans-37"/>
       <use x="63.623047" xlink:href="#DejaVuSans-30"/>
       <use x="127.246094" xlink:href="#DejaVuSans-30"/>
       <use x="190.869141" xlink:href="#DejaVuSans-30"/>
      </g>
     </g>
    </g>
    <g id="ytick_6">
     <g id="line2d_29">
      <g>
       <use style="stroke:#000000;stroke-width:0.8;" x="53.328125" xlink:href="#mb23cbec75f" y="26.499621"/>
      </g>
     </g>
     <g id="text_13">
      <!-- 7500 -->
      <g transform="translate(20.878125 30.29884)scale(0.1 -0.1)">
       <use xlink:href="#DejaVuSans-37"/>
       <use x="63.623047" xlink:href="#DejaVuSans-35"/>
       <use x="127.246094" xlink:href="#DejaVuSans-30"/>
       <use x="190.869141" xlink:href="#DejaVuSans-30"/>
      </g>
     </g>
    </g>
    <g id="text_14">
     <!-- Code region coverage -->
     <g transform="translate(14.798438 210.379594)rotate(-90)scale(0.1 -0.1)">
      <defs>
       <path d="M 4122 4306 
L 4122 3641 
Q 3803 3938 3442 4084 
Q 3081 4231 2675 4231 
Q 1875 4231 1450 3742 
Q 1025 3253 1025 2328 
Q 1025 1406 1450 917 
Q 1875 428 2675 428 
Q 3081 428 3442 575 
Q 3803 722 4122 1019 
L 4122 359 
Q 3791 134 3420 21 
Q 3050 -91 2638 -91 
Q 1578 -91 968 557 
Q 359 1206 359 2328 
Q 359 3453 968 4101 
Q 1578 4750 2638 4750 
Q 3056 4750 3426 4639 
Q 3797 4528 4122 4306 
z
" id="DejaVuSans-43" transform="scale(0.015625)"/>
       <path d="M 2906 2969 
L 2906 4863 
L 3481 4863 
L 3481 0 
L 2906 0 
L 2906 525 
Q 2725 213 2448 61 
Q 2172 -91 1784 -91 
Q 1150 -91 751 415 
Q 353 922 353 1747 
Q 353 2572 751 3078 
Q 1150 3584 1784 3584 
Q 2172 3584 2448 3432 
Q 2725 3281 2906 2969 
z
M 947 1747 
Q 947 1113 1208 752 
Q 1469 391 1925 391 
Q 2381 391 2643 752 
Q 2906 1113 2906 1747 
Q 2906 2381 2643 2742 
Q 2381 3103 1925 3103 
Q 1469 3103 1208 2742 
Q 947 2381 947 1747 
z
" id="DejaVuSans-64" transform="scale(0.015625)"/>
       <path d="M 2906 1791 
Q 2906 2416 2648 2759 
Q 2391 3103 1925 3103 
Q 1463 3103 1205 2759 
Q 947 2416 947 1791 
Q 947 1169 1205 825 
Q 1463 481 1925 481 
Q 2391 481 2648 825 
Q 2906 1169 2906 1791 
z
M 3481 434 
Q 3481 -459 3084 -895 
Q 2688 -1331 1869 -1331 
Q 1566 -1331 1297 -1286 
Q 1028 -1241 775 -1147 
L 775 -588 
Q 1028 -725 1275 -790 
Q 1522 -856 1778 -856 
Q 2344 -856 2625 -561 
Q 2906 -266 2906 331 
L 2906 616 
Q 2728 306 2450 153 
Q 2172 0 1784 0 
Q 1141 0 747 490 
Q 353 981 353 1791 
Q 353 2603 747 3093 
Q 1141 3584 1784 3584 
Q 2172 3584 2450 3431 
Q 2728 3278 2906 2969 
L 2906 3500 
L 3481 3500 
L 3481 434 
z
" id="DejaVuSans-67" transform="scale(0.015625)"/>
       <path d="M 3122 3366 
L 3122 2828 
Q 2878 2963 2633 3030 
Q 2388 3097 2138 3097 
Q 1578 3097 1268 2742 
Q 959 2388 959 1747 
Q 959 1106 1268 751 
Q 1578 397 2138 397 
Q 2388 397 2633 464 
Q 2878 531 3122 666 
L 3122 134 
Q 2881 22 2623 -34 
Q 2366 -91 2075 -91 
Q 1284 -91 818 406 
Q 353 903 353 1747 
Q 353 2603 823 3093 
Q 1294 3584 2113 3584 
Q 2378 3584 2631 3529 
Q 2884 3475 3122 3366 
z
" id="DejaVuSans-63" transform="scale(0.015625)"/>
       <path d="M 191 3500 
L 800 3500 
L 1894 563 
L 2988 3500 
L 3597 3500 
L 2284 0 
L 1503 0 
L 191 3500 
z
" id="DejaVuSans-76" transform="scale(0.015625)"/>
       <path d="M 2194 1759 
Q 1497 1759 1228 1600 
Q 959 1441 959 1056 
Q 959 750 1161 570 
Q 1363 391 1709 391 
Q 2188 391 2477 730 
Q 2766 1069 2766 1631 
L 2766 1759 
L 2194 1759 
z
M 3341 1997 
L 3341 0 
L 2766 0 
L 2766 531 
Q 2569 213 2275 61 
Q 1981 -91 1556 -91 
Q 1019 -91 701 211 
Q 384 513 384 1019 
Q 384 1609 779 1909 
Q 1175 2209 1959 2209 
L 2766 2209 
L 2766 2266 
Q 2766 2663 2505 2880 
Q 2244 3097 1772 3097 
Q 1472 3097 1187 3025 
Q 903 2953 641 2809 
L 641 3341 
Q 956 3463 1253 3523 
Q 1550 3584 1831 3584 
Q 2591 3584 2966 3190 
Q 3341 2797 3341 1997 
z
" id="DejaVuSans-61" transform="scale(0.015625)"/>
      </defs>
      <use xlink:href="#DejaVuSans-43"/>
      <use x="69.824219" xlink:href="#DejaVuSans-6f"/>
      <use x="131.005859" xlink:href="#DejaVuSans-64"/>
      <use x="194.482422" xlink:href="#DejaVuSans-65"/>
      <use x="256.005859" xlink:href="#DejaVuSans-20"/>
      <use x="287.792969" xlink:href="#DejaVuSans-72"/>
      <use x="326.65625" xlink:href="#DejaVuSans-65"/>
      <use x="388.179688" xlink:href="#DejaVuSans-67"/>
      <use x="451.65625" xlink:href="#DejaVuSans-69"/>
      <use x="479.439453" xlink:href="#DejaVuSans-6f"/>
      <use x="540.621094" xlink:href="#DejaVuSans-6e"/>
      <use x="604" xlink:href="#DejaVuSans-20"/>
      <use x="635.787109" xlink:href="#DejaVuSans-63"/>
      <use x="690.767578" xlink:href="#DejaVuSans-6f"/>
      <use x="751.949219" xlink:href="#DejaVuSans-76"/>
      <use x="811.128906" xlink:href="#DejaVuSans-65"/>
      <use x="872.652344" xlink:href="#DejaVuSans-72"/>
      <use x="913.765625" xlink:href="#DejaVuSans-61"/>
      <use x="975.044922" xlink:href="#DejaVuSans-67"/>
      <use x="1038.521484" xlink:href="#DejaVuSans-65"/>
     </g>
    </g>
   </g>
   <g id="line2d_30">
    <path clip-path="url(#peaa51e1405)" d="M 69.560852 169.356415 
L 119.327306 134.444659 
L 148.438816 124.815346 
L 169.09376 111.624507 
L 185.11498 103.797942 
L 198.205269 99.181148 
L 209.272952 93.772904 
L 218.860214 92.717636 
L 227.316779 89.463896 
L 234.881434 87.880995 
L 241.724496 85.330766 
L 247.971723 84.891072 
L 253.718615 82.780537 
L 259.039406 81.857178 
L 263.992943 80.757942 
L 268.626668 80.230308 
L 272.979383 79.438858 
L 277.083233 77.152446 
L 280.965141 76.624812 
L 284.647888 76.00924 
L 288.150915 74.29443 
L 291.49095 75.12985 
L 294.68249 72.491682 
L 297.738177 69.41382 
L 300.669107 68.886186 
L 303.485069 68.182675 
L 306.194742 66.687713 
L 308.805859 66.379927 
L 311.32534 66.335957 
L 313.759397 66.11611 
L 316.113635 64.225423 
L 318.393122 63.258094 
L 320.60246 63.258094 
L 322.745837 62.202827 
L 324.827079 62.202827 
L 326.849687 62.466644 
L 328.816873 62.466644 
L 330.731595 62.466644 
L 332.596578 61.675194 
L 334.414342 60.268171 
L 336.187217 58.069698 
L 337.917369 55.695346 
L 339.606807 55.607407 
L 341.257404 55.079774 
L 342.870906 54.024507 
L 344.448944 54.024507 
L 345.993042 52.617484 
L 347.504631 51.122522 
L 348.985051 50.682827 
L 350.435561 50.594888 
L 351.857347 50.594888 
L 353.251523 50.594888 
L 354.619142 50.41901 
L 355.961196 50.331072 
L 357.278624 50.243133 
L 358.572313 49.891377 
L 359.843104 49.715499 
L 361.091794 49.715499 
L 362.319136 49.715499 
L 363.525851 49.715499 
L 364.712619 49.62756 
L 365.880089 49.62756 
L 367.028878 49.187865 
L 368.159576 48.748171 
L 369.272743 48.748171 
L 370.368914 48.484354 
L 371.4486 48.352446 
L 372.512291 48.352446 
L 373.560453 48.484354 
L 374.593533 48.220537 
L 375.611959 48.044659 
L 376.616141 48.044659 
L 377.606471 47.868781 
L 378.583327 47.868781 
L 379.547071 47.868781 
L 380.498049 47.868781 
L 381.436596 47.868781 
L 382.363032 47.868781 
L 383.277666 47.780843 
L 384.180795 47.780843 
L 385.072705 47.780843 
L 385.953671 47.780843 
L 386.823958 47.780843 
L 387.683823 47.780843 
L 388.533511 46.285881 
L 389.373261 46.285881 
L 390.203303 46.285881 
L 391.023858 45.230614 
L 391.835142 44.70298 
L 392.63736 44.70298 
L 393.430714 44.70298 
L 394.215398 44.70298 
" style="fill:none;stroke:#d62728;stroke-linecap:square;stroke-width:1.5;"/>
    <defs>
     <path d="M 0 -3 
L -3 3 
L 3 3 
z
" id="md271a07dfe" style="stroke:#ffffff;stroke-linejoin:miter;stroke-width:0.75;"/>
    </defs>
    <g clip-path="url(#peaa51e1405)">
     <use style="fill:#d62728;stroke:#ffffff;stroke-linejoin:miter;stroke-width:0.75;" x="69.560852" xlink:href="#md271a07dfe" y="169.356415"/>
     <use style="fill:#d62728;stroke:#ffffff;stroke-linejoin:miter;stroke-width:0.75;" x="119.327306" xlink:href="#md271a07dfe" y="134.444659"/>
     <use style="fill:#d62728;stroke:#ffffff;stroke-linejoin:miter;stroke-width:0.75;" x="148.438816" xlink:href="#md271a07dfe" y="124.815346"/>
     <use style="fill:#d62728;stroke:#ffffff;stroke-linejoin:miter;stroke-width:0.75;" x="169.09376" xlink:href="#md271a07dfe" y="111.624507"/>
     <use style="fill:#d62728;stroke:#ffffff;stroke-linejoin:miter;stroke-width:0.75;" x="185.11498" xlink:href="#md271a07dfe" y="103.797942"/>
     <use style="fill:#d62728;stroke:#ffffff;stroke-linejoin:miter;stroke-width:0.75;" x="198.205269" xlink:href="#md271a07dfe" y="99.181148"/>
     <use style="fill:#d62728;stroke:#ffffff;stroke-linejoin:miter;stroke-width:0.75;" x="209.272952" xlink:href="#md271a07dfe" y="93.772904"/>
     <use style="fill:#d62728;stroke:#ffffff;stroke-linejoin:miter;stroke-width:0.75;" x="218.860214" xlink:href="#md271a07dfe" y="92.717636"/>
     <use style="fill:#d62728;stroke:#ffffff;stroke-linejoin:miter;stroke-width:0.75;" x="227.316779" xlink:href="#md271a07dfe" y="89.463896"/>
     <use style="fill:#d62728;stroke:#ffffff;stroke-linejoin:miter;stroke-width:0.75;" x="234.881434" xlink:href="#md271a07dfe" y="87.880995"/>
     <use style="fill:#d62728;stroke:#ffffff;stroke-linejoin:miter;stroke-width:0.75;" x="241.724496" xlink:href="#md271a07dfe" y="85.330766"/>
     <use style="fill:#d62728;stroke:#ffffff;stroke-linejoin:miter;stroke-width:0.75;" x="247.971723" xlink:href="#md271a07dfe" y="84.891072"/>
     <use style="fill:#d62728;stroke:#ffffff;stroke-linejoin:miter;stroke-width:0.75;" x="253.718615" xlink:href="#md271a07dfe" y="82.780537"/>
     <use style="fill:#d62728;stroke:#ffffff;stroke-linejoin:miter;stroke-width:0.75;" x="259.039406" xlink:href="#md271a07dfe" y="81.857178"/>
     <use style="fill:#d62728;stroke:#ffffff;stroke-linejoin:miter;stroke-width:0.75;" x="263.992943" xlink:href="#md271a07dfe" y="80.757942"/>
     <use style="fill:#d62728;stroke:#ffffff;stroke-linejoin:miter;stroke-width:0.75;" x="268.626668" xlink:href="#md271a07dfe" y="80.230308"/>
     <use style="fill:#d62728;stroke:#ffffff;stroke-linejoin:miter;stroke-width:0.75;" x="272.979383" xlink:href="#md271a07dfe" y="79.438858"/>
     <use style="fill:#d62728;stroke:#ffffff;stroke-linejoin:miter;stroke-width:0.75;" x="277.083233" xlink:href="#md271a07dfe" y="77.152446"/>
     <use style="fill:#d62728;stroke:#ffffff;stroke-linejoin:miter;stroke-width:0.75;" x="280.965141" xlink:href="#md271a07dfe" y="76.624812"/>
     <use style="fill:#d62728;stroke:#ffffff;stroke-linejoin:miter;stroke-width:0.75;" x="284.647888" xlink:href="#md271a07dfe" y="76.00924"/>
     <use style="fill:#d62728;stroke:#ffffff;stroke-linejoin:miter;stroke-width:0.75;" x="288.150915" xlink:href="#md271a07dfe" y="74.29443"/>
     <use style="fill:#d62728;stroke:#ffffff;stroke-linejoin:miter;stroke-width:0.75;" x="291.49095" xlink:href="#md271a07dfe" y="75.12985"/>
     <use style="fill:#d62728;stroke:#ffffff;stroke-linejoin:miter;stroke-width:0.75;" x="294.68249" xlink:href="#md271a07dfe" y="72.491682"/>
     <use style="fill:#d62728;stroke:#ffffff;stroke-linejoin:miter;stroke-width:0.75;" x="297.738177" xlink:href="#md271a07dfe" y="69.41382"/>
     <use style="fill:#d62728;stroke:#ffffff;stroke-linejoin:miter;stroke-width:0.75;" x="300.669107" xlink:href="#md271a07dfe" y="68.886186"/>
     <use style="fill:#d62728;stroke:#ffffff;stroke-linejoin:miter;stroke-width:0.75;" x="303.485069" xlink:href="#md271a07dfe" y="68.182675"/>
     <use style="fill:#d62728;stroke:#ffffff;stroke-linejoin:miter;stroke-width:0.75;" x="306.194742" xlink:href="#md271a07dfe" y="66.687713"/>
     <use style="fill:#d62728;stroke:#ffffff;stroke-linejoin:miter;stroke-width:0.75;" x="308.805859" xlink:href="#md271a07dfe" y="66.379927"/>
     <use style="fill:#d62728;stroke:#ffffff;stroke-linejoin:miter;stroke-width:0.75;" x="311.32534" xlink:href="#md271a07dfe" y="66.335957"/>
     <use style="fill:#d62728;stroke:#ffffff;stroke-linejoin:miter;stroke-width:0.75;" x="313.759397" xlink:href="#md271a07dfe" y="66.11611"/>
     <use style="fill:#d62728;stroke:#ffffff;stroke-linejoin:miter;stroke-width:0.75;" x="316.113635" xlink:href="#md271a07dfe" y="64.225423"/>
     <use style="fill:#d62728;stroke:#ffffff;stroke-linejoin:miter;stroke-width:0.75;" x="318.393122" xlink:href="#md271a07dfe" y="63.258094"/>
     <use style="fill:#d62728;stroke:#ffffff;stroke-linejoin:miter;stroke-width:0.75;" x="320.60246" xlink:href="#md271a07dfe" y="63.258094"/>
     <use style="fill:#d62728;stroke:#ffffff;stroke-linejoin:miter;stroke-width:0.75;" x="322.745837" xlink:href="#md271a07dfe" y="62.202827"/>
     <use style="fill:#d62728;stroke:#ffffff;stroke-linejoin:miter;stroke-width:0.75;" x="324.827079" xlink:href="#md271a07dfe" y="62.202827"/>
     <use style="fill:#d62728;stroke:#ffffff;stroke-linejoin:miter;stroke-width:0.75;" x="326.849687" xlink:href="#md271a07dfe" y="62.466644"/>
     <use style="fill:#d62728;stroke:#ffffff;stroke-linejoin:miter;stroke-width:0.75;" x="328.816873" xlink:href="#md271a07dfe" y="62.466644"/>
     <use style="fill:#d62728;stroke:#ffffff;stroke-linejoin:miter;stroke-width:0.75;" x="330.731595" xlink:href="#md271a07dfe" y="62.466644"/>
     <use style="fill:#d62728;stroke:#ffffff;stroke-linejoin:miter;stroke-width:0.75;" x="332.596578" xlink:href="#md271a07dfe" y="61.675194"/>
     <use style="fill:#d62728;stroke:#ffffff;stroke-linejoin:miter;stroke-width:0.75;" x="334.414342" xlink:href="#md271a07dfe" y="60.268171"/>
     <use style="fill:#d62728;stroke:#ffffff;stroke-linejoin:miter;stroke-width:0.75;" x="336.187217" xlink:href="#md271a07dfe" y="58.069698"/>
     <use style="fill:#d62728;stroke:#ffffff;stroke-linejoin:miter;stroke-width:0.75;" x="337.917369" xlink:href="#md271a07dfe" y="55.695346"/>
     <use style="fill:#d62728;stroke:#ffffff;stroke-linejoin:miter;stroke-width:0.75;" x="339.606807" xlink:href="#md271a07dfe" y="55.607407"/>
     <use style="fill:#d62728;stroke:#ffffff;stroke-linejoin:miter;stroke-width:0.75;" x="341.257404" xlink:href="#md271a07dfe" y="55.079774"/>
     <use style="fill:#d62728;stroke:#ffffff;stroke-linejoin:miter;stroke-width:0.75;" x="342.870906" xlink:href="#md271a07dfe" y="54.024507"/>
     <use style="fill:#d62728;stroke:#ffffff;stroke-linejoin:miter;stroke-width:0.75;" x="344.448944" xlink:href="#md271a07dfe" y="54.024507"/>
     <use style="fill:#d62728;stroke:#ffffff;stroke-linejoin:miter;stroke-width:0.75;" x="345.993042" xlink:href="#md271a07dfe" y="52.617484"/>
     <use style="fill:#d62728;stroke:#ffffff;stroke-linejoin:miter;stroke-width:0.75;" x="347.504631" xlink:href="#md271a07dfe" y="51.122522"/>
     <use style="fill:#d62728;stroke:#ffffff;stroke-linejoin:miter;stroke-width:0.75;" x="348.985051" xlink:href="#md271a07dfe" y="50.682827"/>
     <use style="fill:#d62728;stroke:#ffffff;stroke-linejoin:miter;stroke-width:0.75;" x="350.435561" xlink:href="#md271a07dfe" y="50.594888"/>
     <use style="fill:#d62728;stroke:#ffffff;stroke-linejoin:miter;stroke-width:0.75;" x="351.857347" xlink:href="#md271a07dfe" y="50.594888"/>
     <use style="fill:#d62728;stroke:#ffffff;stroke-linejoin:miter;stroke-width:0.75;" x="353.251523" xlink:href="#md271a07dfe" y="50.594888"/>
     <use style="fill:#d62728;stroke:#ffffff;stroke-linejoin:miter;stroke-width:0.75;" x="354.619142" xlink:href="#md271a07dfe" y="50.41901"/>
     <use style="fill:#d62728;stroke:#ffffff;stroke-linejoin:miter;stroke-width:0.75;" x="355.961196" xlink:href="#md271a07dfe" y="50.331072"/>
     <use style="fill:#d62728;stroke:#ffffff;stroke-linejoin:miter;stroke-width:0.75;" x="357.278624" xlink:href="#md271a07dfe" y="50.243133"/>
     <use style="fill:#d62728;stroke:#ffffff;stroke-linejoin:miter;stroke-width:0.75;" x="358.572313" xlink:href="#md271a07dfe" y="49.891377"/>
     <use style="fill:#d62728;stroke:#ffffff;stroke-linejoin:miter;stroke-width:0.75;" x="359.843104" xlink:href="#md271a07dfe" y="49.715499"/>
     <use style="fill:#d62728;stroke:#ffffff;stroke-linejoin:miter;stroke-width:0.75;" x="361.091794" xlink:href="#md271a07dfe" y="49.715499"/>
     <use style="fill:#d62728;stroke:#ffffff;stroke-linejoin:miter;stroke-width:0.75;" x="362.319136" xlink:href="#md271a07dfe" y="49.715499"/>
     <use style="fill:#d62728;stroke:#ffffff;stroke-linejoin:miter;stroke-width:0.75;" x="363.525851" xlink:href="#md271a07dfe" y="49.715499"/>
     <use style="fill:#d62728;stroke:#ffffff;stroke-linejoin:miter;stroke-width:0.75;" x="364.712619" xlink:href="#md271a07dfe" y="49.62756"/>
     <use style="fill:#d62728;stroke:#ffffff;stroke-linejoin:miter;stroke-width:0.75;" x="365.880089" xlink:href="#md271a07dfe" y="49.62756"/>
     <use style="fill:#d62728;stroke:#ffffff;stroke-linejoin:miter;stroke-width:0.75;" x="367.028878" xlink:href="#md271a07dfe" y="49.187865"/>
     <use style="fill:#d62728;stroke:#ffffff;stroke-linejoin:miter;stroke-width:0.75;" x="368.159576" xlink:href="#md271a07dfe" y="48.748171"/>
     <use style="fill:#d62728;stroke:#ffffff;stroke-linejoin:miter;stroke-width:0.75;" x="369.272743" xlink:href="#md271a07dfe" y="48.748171"/>
     <use style="fill:#d62728;stroke:#ffffff;stroke-linejoin:miter;stroke-width:0.75;" x="370.368914" xlink:href="#md271a07dfe" y="48.484354"/>
     <use style="fill:#d62728;stroke:#ffffff;stroke-linejoin:miter;stroke-width:0.75;" x="371.4486" xlink:href="#md271a07dfe" y="48.352446"/>
     <use style="fill:#d62728;stroke:#ffffff;stroke-linejoin:miter;stroke-width:0.75;" x="372.512291" xlink:href="#md271a07dfe" y="48.352446"/>
     <use style="fill:#d62728;stroke:#ffffff;stroke-linejoin:miter;stroke-width:0.75;" x="373.560453" xlink:href="#md271a07dfe" y="48.484354"/>
     <use style="fill:#d62728;stroke:#ffffff;stroke-linejoin:miter;stroke-width:0.75;" x="374.593533" xlink:href="#md271a07dfe" y="48.220537"/>
     <use style="fill:#d62728;stroke:#ffffff;stroke-linejoin:miter;stroke-width:0.75;" x="375.611959" xlink:href="#md271a07dfe" y="48.044659"/>
     <use style="fill:#d62728;stroke:#ffffff;stroke-linejoin:miter;stroke-width:0.75;" x="376.616141" xlink:href="#md271a07dfe" y="48.044659"/>
     <use style="fill:#d62728;stroke:#ffffff;stroke-linejoin:miter;stroke-width:0.75;" x="377.606471" xlink:href="#md271a07dfe" y="47.868781"/>
     <use style="fill:#d62728;stroke:#ffffff;stroke-linejoin:miter;stroke-width:0.75;" x="378.583327" xlink:href="#md271a07dfe" y="47.868781"/>
     <use style="fill:#d62728;stroke:#ffffff;stroke-linejoin:miter;stroke-width:0.75;" x="379.547071" xlink:href="#md271a07dfe" y="47.868781"/>
     <use style="fill:#d62728;stroke:#ffffff;stroke-linejoin:miter;stroke-width:0.75;" x="380.498049" xlink:href="#md271a07dfe" y="47.868781"/>
     <use style="fill:#d62728;stroke:#ffffff;stroke-linejoin:miter;stroke-width:0.75;" x="381.436596" xlink:href="#md271a07dfe" y="47.868781"/>
     <use style="fill:#d62728;stroke:#ffffff;stroke-linejoin:miter;stroke-width:0.75;" x="382.363032" xlink:href="#md271a07dfe" y="47.868781"/>
     <use style="fill:#d62728;stroke:#ffffff;stroke-linejoin:miter;stroke-width:0.75;" x="383.277666" xlink:href="#md271a07dfe" y="47.780843"/>
     <use style="fill:#d62728;stroke:#ffffff;stroke-linejoin:miter;stroke-width:0.75;" x="384.180795" xlink:href="#md271a07dfe" y="47.780843"/>
     <use style="fill:#d62728;stroke:#ffffff;stroke-linejoin:miter;stroke-width:0.75;" x="385.072705" xlink:href="#md271a07dfe" y="47.780843"/>
     <use style="fill:#d62728;stroke:#ffffff;stroke-linejoin:miter;stroke-width:0.75;" x="385.953671" xlink:href="#md271a07dfe" y="47.780843"/>
     <use style="fill:#d62728;stroke:#ffffff;stroke-linejoin:miter;stroke-width:0.75;" x="386.823958" xlink:href="#md271a07dfe" y="47.780843"/>
     <use style="fill:#d62728;stroke:#ffffff;stroke-linejoin:miter;stroke-width:0.75;" x="387.683823" xlink:href="#md271a07dfe" y="47.780843"/>
     <use style="fill:#d62728;stroke:#ffffff;stroke-linejoin:miter;stroke-width:0.75;" x="388.533511" xlink:href="#md271a07dfe" y="46.285881"/>
     <use style="fill:#d62728;stroke:#ffffff;stroke-linejoin:miter;stroke-width:0.75;" x="389.373261" xlink:href="#md271a07dfe" y="46.285881"/>
     <use style="fill:#d62728;stroke:#ffffff;stroke-linejoin:miter;stroke-width:0.75;" x="390.203303" xlink:href="#md271a07dfe" y="46.285881"/>
     <use style="fill:#d62728;stroke:#ffffff;stroke-linejoin:miter;stroke-width:0.75;" x="391.023858" xlink:href="#md271a07dfe" y="45.230614"/>
     <use style="fill:#d62728;stroke:#ffffff;stroke-linejoin:miter;stroke-width:0.75;" x="391.835142" xlink:href="#md271a07dfe" y="44.70298"/>
     <use style="fill:#d62728;stroke:#ffffff;stroke-linejoin:miter;stroke-width:0.75;" x="392.63736" xlink:href="#md271a07dfe" y="44.70298"/>
     <use style="fill:#d62728;stroke:#ffffff;stroke-linejoin:miter;stroke-width:0.75;" x="393.430714" xlink:href="#md271a07dfe" y="44.70298"/>
     <use style="fill:#d62728;stroke:#ffffff;stroke-linejoin:miter;stroke-width:0.75;" x="394.215398" xlink:href="#md271a07dfe" y="44.70298"/>
    </g>
   </g>
   <g id="line2d_31">
    <path clip-path="url(#peaa51e1405)" d="M 69.560852 173.269698 
L 119.327306 139.32527 
L 148.438816 135.104201 
L 169.09376 132.466033 
L 185.11498 129.827865 
L 198.205269 124.55153 
L 209.272952 118.131988 
L 218.860214 110.833056 
L 227.316779 100.280385 
L 234.881434 99.04924 
L 241.724496 94.300537 
L 247.971723 94.212598 
L 253.718615 88.144812 
L 259.039406 88.144812 
L 263.992943 87.52924 
L 268.626668 82.340843 
L 272.979383 80.757942 
L 277.083233 80.670003 
L 280.965141 77.855957 
L 284.647888 74.426339 
L 288.150915 74.074583 
L 291.49095 73.107255 
L 294.68249 73.107255 
L 297.738177 73.107255 
L 300.669107 72.755499 
L 303.485069 72.755499 
L 306.194742 69.941453 
L 308.805859 69.150003 
L 311.32534 67.74298 
L 313.759397 67.74298 
L 316.113635 65.192751 
L 318.393122 64.665117 
L 320.60246 64.665117 
L 322.745837 63.346033 
L 324.827079 63.346033 
L 326.849687 62.466644 
L 328.816873 61.587255 
L 330.731595 61.587255 
L 332.596578 61.499316 
L 334.414342 61.499316 
L 336.187217 59.828476 
L 337.917369 59.828476 
L 339.606807 59.564659 
L 341.257404 59.564659 
L 342.870906 59.564659 
L 344.448944 59.47672 
L 345.993042 58.68527 
L 347.504631 58.68527 
L 348.985051 58.597331 
L 350.435561 58.597331 
L 351.857347 58.597331 
L 353.251523 58.333514 
L 354.619142 58.333514 
L 355.961196 58.333514 
L 357.278624 58.333514 
L 358.572313 58.157636 
L 359.843104 56.047102 
L 361.091794 56.047102 
L 362.319136 56.047102 
L 363.525851 56.047102 
L 364.712619 56.047102 
L 365.880089 56.047102 
L 367.028878 55.783285 
L 368.159576 55.783285 
L 369.272743 54.464201 
L 370.368914 54.376262 
L 371.4486 52.617484 
L 372.512291 52.617484 
L 373.560453 52.617484 
L 374.593533 50.770766 
L 375.611959 50.770766 
L 376.616141 50.770766 
L 377.606471 50.770766 
L 378.583327 50.770766 
L 379.547071 50.770766 
L 380.498049 50.770766 
L 381.436596 50.770766 
L 382.363032 50.770766 
L 383.277666 50.770766 
L 384.180795 50.770766 
L 385.072705 49.363743 
L 385.953671 49.363743 
L 386.823958 49.363743 
L 387.683823 49.363743 
L 388.533511 49.363743 
L 389.373261 49.67153 
L 390.203303 49.67153 
L 391.023858 49.67153 
L 391.835142 47.824812 
L 392.63736 46.901453 
L 393.430714 46.681606 
L 394.215398 46.637636 
" style="fill:none;stroke:#1f77b4;stroke-linecap:square;stroke-width:1.5;"/>
    <defs>
     <path d="M 0 3 
C 0.795609 3 1.55874 2.683901 2.12132 2.12132 
C 2.683901 1.55874 3 0.795609 3 0 
C 3 -0.795609 2.683901 -1.55874 2.12132 -2.12132 
C 1.55874 -2.683901 0.795609 -3 0 -3 
C -0.795609 -3 -1.55874 -2.683901 -2.12132 -2.12132 
C -2.683901 -1.55874 -3 -0.795609 -3 0 
C -3 0.795609 -2.683901 1.55874 -2.12132 2.12132 
C -1.55874 2.683901 -0.795609 3 0 3 
z
" id="m4082417539" style="stroke:#ffffff;stroke-width:0.75;"/>
    </defs>
    <g clip-path="url(#peaa51e1405)">
     <use style="fill:#1f77b4;stroke:#ffffff;stroke-width:0.75;" x="69.560852" xlink:href="#m4082417539" y="173.269698"/>
     <use style="fill:#1f77b4;stroke:#ffffff;stroke-width:0.75;" x="119.327306" xlink:href="#m4082417539" y="139.32527"/>
     <use style="fill:#1f77b4;stroke:#ffffff;stroke-width:0.75;" x="148.438816" xlink:href="#m4082417539" y="135.104201"/>
     <use style="fill:#1f77b4;stroke:#ffffff;stroke-width:0.75;" x="169.09376" xlink:href="#m4082417539" y="132.466033"/>
     <use style="fill:#1f77b4;stroke:#ffffff;stroke-width:0.75;" x="185.11498" xlink:href="#m4082417539" y="129.827865"/>
     <use style="fill:#1f77b4;stroke:#ffffff;stroke-width:0.75;" x="198.205269" xlink:href="#m4082417539" y="124.55153"/>
     <use style="fill:#1f77b4;stroke:#ffffff;stroke-width:0.75;" x="209.272952" xlink:href="#m4082417539" y="118.131988"/>
     <use style="fill:#1f77b4;stroke:#ffffff;stroke-width:0.75;" x="218.860214" xlink:href="#m4082417539" y="110.833056"/>
     <use style="fill:#1f77b4;stroke:#ffffff;stroke-width:0.75;" x="227.316779" xlink:href="#m4082417539" y="100.280385"/>
     <use style="fill:#1f77b4;stroke:#ffffff;stroke-width:0.75;" x="234.881434" xlink:href="#m4082417539" y="99.04924"/>
     <use style="fill:#1f77b4;stroke:#ffffff;stroke-width:0.75;" x="241.724496" xlink:href="#m4082417539" y="94.300537"/>
     <use style="fill:#1f77b4;stroke:#ffffff;stroke-width:0.75;" x="247.971723" xlink:href="#m4082417539" y="94.212598"/>
     <use style="fill:#1f77b4;stroke:#ffffff;stroke-width:0.75;" x="253.718615" xlink:href="#m4082417539" y="88.144812"/>
     <use style="fill:#1f77b4;stroke:#ffffff;stroke-width:0.75;" x="259.039406" xlink:href="#m4082417539" y="88.144812"/>
     <use style="fill:#1f77b4;stroke:#ffffff;stroke-width:0.75;" x="263.992943" xlink:href="#m4082417539" y="87.52924"/>
     <use style="fill:#1f77b4;stroke:#ffffff;stroke-width:0.75;" x="268.626668" xlink:href="#m4082417539" y="82.340843"/>
     <use style="fill:#1f77b4;stroke:#ffffff;stroke-width:0.75;" x="272.979383" xlink:href="#m4082417539" y="80.757942"/>
     <use style="fill:#1f77b4;stroke:#ffffff;stroke-width:0.75;" x="277.083233" xlink:href="#m4082417539" y="80.670003"/>
     <use style="fill:#1f77b4;stroke:#ffffff;stroke-width:0.75;" x="280.965141" xlink:href="#m4082417539" y="77.855957"/>
     <use style="fill:#1f77b4;stroke:#ffffff;stroke-width:0.75;" x="284.647888" xlink:href="#m4082417539" y="74.426339"/>
     <use style="fill:#1f77b4;stroke:#ffffff;stroke-width:0.75;" x="288.150915" xlink:href="#m4082417539" y="74.074583"/>
     <use style="fill:#1f77b4;stroke:#ffffff;stroke-width:0.75;" x="291.49095" xlink:href="#m4082417539" y="73.107255"/>
     <use style="fill:#1f77b4;stroke:#ffffff;stroke-width:0.75;" x="294.68249" xlink:href="#m4082417539" y="73.107255"/>
     <use style="fill:#1f77b4;stroke:#ffffff;stroke-width:0.75;" x="297.738177" xlink:href="#m4082417539" y="73.107255"/>
     <use style="fill:#1f77b4;stroke:#ffffff;stroke-width:0.75;" x="300.669107" xlink:href="#m4082417539" y="72.755499"/>
     <use style="fill:#1f77b4;stroke:#ffffff;stroke-width:0.75;" x="303.485069" xlink:href="#m4082417539" y="72.755499"/>
     <use style="fill:#1f77b4;stroke:#ffffff;stroke-width:0.75;" x="306.194742" xlink:href="#m4082417539" y="69.941453"/>
     <use style="fill:#1f77b4;stroke:#ffffff;stroke-width:0.75;" x="308.805859" xlink:href="#m4082417539" y="69.150003"/>
     <use style="fill:#1f77b4;stroke:#ffffff;stroke-width:0.75;" x="311.32534" xlink:href="#m4082417539" y="67.74298"/>
     <use style="fill:#1f77b4;stroke:#ffffff;stroke-width:0.75;" x="313.759397" xlink:href="#m4082417539" y="67.74298"/>
     <use style="fill:#1f77b4;stroke:#ffffff;stroke-width:0.75;" x="316.113635" xlink:href="#m4082417539" y="65.192751"/>
     <use style="fill:#1f77b4;stroke:#ffffff;stroke-width:0.75;" x="318.393122" xlink:href="#m4082417539" y="64.665117"/>
     <use style="fill:#1f77b4;stroke:#ffffff;stroke-width:0.75;" x="320.60246" xlink:href="#m4082417539" y="64.665117"/>
     <use style="fill:#1f77b4;stroke:#ffffff;stroke-width:0.75;" x="322.745837" xlink:href="#m4082417539" y="63.346033"/>
     <use style="fill:#1f77b4;stroke:#ffffff;stroke-width:0.75;" x="324.827079" xlink:href="#m4082417539" y="63.346033"/>
     <use style="fill:#1f77b4;stroke:#ffffff;stroke-width:0.75;" x="326.849687" xlink:href="#m4082417539" y="62.466644"/>
     <use style="fill:#1f77b4;stroke:#ffffff;stroke-width:0.75;" x="328.816873" xlink:href="#m4082417539" y="61.587255"/>
     <use style="fill:#1f77b4;stroke:#ffffff;stroke-width:0.75;" x="330.731595" xlink:href="#m4082417539" y="61.587255"/>
     <use style="fill:#1f77b4;stroke:#ffffff;stroke-width:0.75;" x="332.596578" xlink:href="#m4082417539" y="61.499316"/>
     <use style="fill:#1f77b4;stroke:#ffffff;stroke-width:0.75;" x="334.414342" xlink:href="#m4082417539" y="61.499316"/>
     <use style="fill:#1f77b4;stroke:#ffffff;stroke-width:0.75;" x="336.187217" xlink:href="#m4082417539" y="59.828476"/>
     <use style="fill:#1f77b4;stroke:#ffffff;stroke-width:0.75;" x="337.917369" xlink:href="#m4082417539" y="59.828476"/>
     <use style="fill:#1f77b4;stroke:#ffffff;stroke-width:0.75;" x="339.606807" xlink:href="#m4082417539" y="59.564659"/>
     <use style="fill:#1f77b4;stroke:#ffffff;stroke-width:0.75;" x="341.257404" xlink:href="#m4082417539" y="59.564659"/>
     <use style="fill:#1f77b4;stroke:#ffffff;stroke-width:0.75;" x="342.870906" xlink:href="#m4082417539" y="59.564659"/>
     <use style="fill:#1f77b4;stroke:#ffffff;stroke-width:0.75;" x="344.448944" xlink:href="#m4082417539" y="59.47672"/>
     <use style="fill:#1f77b4;stroke:#ffffff;stroke-width:0.75;" x="345.993042" xlink:href="#m4082417539" y="58.68527"/>
     <use style="fill:#1f77b4;stroke:#ffffff;stroke-width:0.75;" x="347.504631" xlink:href="#m4082417539" y="58.68527"/>
     <use style="fill:#1f77b4;stroke:#ffffff;stroke-width:0.75;" x="348.985051" xlink:href="#m4082417539" y="58.597331"/>
     <use style="fill:#1f77b4;stroke:#ffffff;stroke-width:0.75;" x="350.435561" xlink:href="#m4082417539" y="58.597331"/>
     <use style="fill:#1f77b4;stroke:#ffffff;stroke-width:0.75;" x="351.857347" xlink:href="#m4082417539" y="58.597331"/>
     <use style="fill:#1f77b4;stroke:#ffffff;stroke-width:0.75;" x="353.251523" xlink:href="#m4082417539" y="58.333514"/>
     <use style="fill:#1f77b4;stroke:#ffffff;stroke-width:0.75;" x="354.619142" xlink:href="#m4082417539" y="58.333514"/>
     <use style="fill:#1f77b4;stroke:#ffffff;stroke-width:0.75;" x="355.961196" xlink:href="#m4082417539" y="58.333514"/>
     <use style="fill:#1f77b4;stroke:#ffffff;stroke-width:0.75;" x="357.278624" xlink:href="#m4082417539" y="58.333514"/>
     <use style="fill:#1f77b4;stroke:#ffffff;stroke-width:0.75;" x="358.572313" xlink:href="#m4082417539" y="58.157636"/>
     <use style="fill:#1f77b4;stroke:#ffffff;stroke-width:0.75;" x="359.843104" xlink:href="#m4082417539" y="56.047102"/>
     <use style="fill:#1f77b4;stroke:#ffffff;stroke-width:0.75;" x="361.091794" xlink:href="#m4082417539" y="56.047102"/>
     <use style="fill:#1f77b4;stroke:#ffffff;stroke-width:0.75;" x="362.319136" xlink:href="#m4082417539" y="56.047102"/>
     <use style="fill:#1f77b4;stroke:#ffffff;stroke-width:0.75;" x="363.525851" xlink:href="#m4082417539" y="56.047102"/>
     <use style="fill:#1f77b4;stroke:#ffffff;stroke-width:0.75;" x="364.712619" xlink:href="#m4082417539" y="56.047102"/>
     <use style="fill:#1f77b4;stroke:#ffffff;stroke-width:0.75;" x="365.880089" xlink:href="#m4082417539" y="56.047102"/>
     <use style="fill:#1f77b4;stroke:#ffffff;stroke-width:0.75;" x="367.028878" xlink:href="#m4082417539" y="55.783285"/>
     <use style="fill:#1f77b4;stroke:#ffffff;stroke-width:0.75;" x="368.159576" xlink:href="#m4082417539" y="55.783285"/>
     <use style="fill:#1f77b4;stroke:#ffffff;stroke-width:0.75;" x="369.272743" xlink:href="#m4082417539" y="54.464201"/>
     <use style="fill:#1f77b4;stroke:#ffffff;stroke-width:0.75;" x="370.368914" xlink:href="#m4082417539" y="54.376262"/>
     <use style="fill:#1f77b4;stroke:#ffffff;stroke-width:0.75;" x="371.4486" xlink:href="#m4082417539" y="52.617484"/>
     <use style="fill:#1f77b4;stroke:#ffffff;stroke-width:0.75;" x="372.512291" xlink:href="#m4082417539" y="52.617484"/>
     <use style="fill:#1f77b4;stroke:#ffffff;stroke-width:0.75;" x="373.560453" xlink:href="#m4082417539" y="52.617484"/>
     <use style="fill:#1f77b4;stroke:#ffffff;stroke-width:0.75;" x="374.593533" xlink:href="#m4082417539" y="50.770766"/>
     <use style="fill:#1f77b4;stroke:#ffffff;stroke-width:0.75;" x="375.611959" xlink:href="#m4082417539" y="50.770766"/>
     <use style="fill:#1f77b4;stroke:#ffffff;stroke-width:0.75;" x="376.616141" xlink:href="#m4082417539" y="50.770766"/>
     <use style="fill:#1f77b4;stroke:#ffffff;stroke-width:0.75;" x="377.606471" xlink:href="#m4082417539" y="50.770766"/>
     <use style="fill:#1f77b4;stroke:#ffffff;stroke-width:0.75;" x="378.583327" xlink:href="#m4082417539" y="50.770766"/>
     <use style="fill:#1f77b4;stroke:#ffffff;stroke-width:0.75;" x="379.547071" xlink:href="#m4082417539" y="50.770766"/>
     <use style="fill:#1f77b4;stroke:#ffffff;stroke-width:0.75;" x="380.498049" xlink:href="#m4082417539" y="50.770766"/>
     <use style="fill:#1f77b4;stroke:#ffffff;stroke-width:0.75;" x="381.436596" xlink:href="#m4082417539" y="50.770766"/>
     <use style="fill:#1f77b4;stroke:#ffffff;stroke-width:0.75;" x="382.363032" xlink:href="#m4082417539" y="50.770766"/>
     <use style="fill:#1f77b4;stroke:#ffffff;stroke-width:0.75;" x="383.277666" xlink:href="#m4082417539" y="50.770766"/>
     <use style="fill:#1f77b4;stroke:#ffffff;stroke-width:0.75;" x="384.180795" xlink:href="#m4082417539" y="50.770766"/>
     <use style="fill:#1f77b4;stroke:#ffffff;stroke-width:0.75;" x="385.072705" xlink:href="#m4082417539" y="49.363743"/>
     <use style="fill:#1f77b4;stroke:#ffffff;stroke-width:0.75;" x="385.953671" xlink:href="#m4082417539" y="49.363743"/>
     <use style="fill:#1f77b4;stroke:#ffffff;stroke-width:0.75;" x="386.823958" xlink:href="#m4082417539" y="49.363743"/>
     <use style="fill:#1f77b4;stroke:#ffffff;stroke-width:0.75;" x="387.683823" xlink:href="#m4082417539" y="49.363743"/>
     <use style="fill:#1f77b4;stroke:#ffffff;stroke-width:0.75;" x="388.533511" xlink:href="#m4082417539" y="49.363743"/>
     <use style="fill:#1f77b4;stroke:#ffffff;stroke-width:0.75;" x="389.373261" xlink:href="#m4082417539" y="49.67153"/>
     <use style="fill:#1f77b4;stroke:#ffffff;stroke-width:0.75;" x="390.203303" xlink:href="#m4082417539" y="49.67153"/>
     <use style="fill:#1f77b4;stroke:#ffffff;stroke-width:0.75;" x="391.023858" xlink:href="#m4082417539" y="49.67153"/>
     <use style="fill:#1f77b4;stroke:#ffffff;stroke-width:0.75;" x="391.835142" xlink:href="#m4082417539" y="47.824812"/>
     <use style="fill:#1f77b4;stroke:#ffffff;stroke-width:0.75;" x="392.63736" xlink:href="#m4082417539" y="46.901453"/>
     <use style="fill:#1f77b4;stroke:#ffffff;stroke-width:0.75;" x="393.430714" xlink:href="#m4082417539" y="46.681606"/>
     <use style="fill:#1f77b4;stroke:#ffffff;stroke-width:0.75;" x="394.215398" xlink:href="#m4082417539" y="46.637636"/>
    </g>
   </g>
   <g id="line2d_32">
    <path clip-path="url(#peaa51e1405)" d="M 69.560852 271.321606 
L 119.327306 260.417178 
L 148.438816 257.691072 
L 169.09376 249.688629 
L 185.11498 244.412293 
L 198.205269 240.191224 
L 209.272952 237.597026 
L 218.860214 234.299316 
L 227.316779 233.331988 
L 234.881434 229.726491 
L 241.724496 226.956415 
L 247.971723 225.109698 
L 253.718615 224.142369 
L 259.039406 222.119774 
L 263.992943 221.152446 
L 268.626668 219.041911 
L 272.979383 218.997942 
L 277.083233 217.415041 
L 280.965141 215.216568 
L 284.647888 215.04069 
L 288.150915 214.513056 
L 291.49095 212.974125 
L 294.68249 211.69901 
L 297.738177 211.303285 
L 300.669107 211.303285 
L 303.485069 208.797026 
L 306.194742 206.77443 
L 308.805859 206.686491 
L 311.32534 206.598552 
L 313.759397 206.510614 
L 316.113635 205.015652 
L 318.393122 204.268171 
L 320.60246 202.949087 
L 322.745837 202.641301 
L 324.827079 202.289545 
L 326.849687 202.289545 
L 328.816873 201.937789 
L 330.731595 201.937789 
L 332.596578 201.366186 
L 334.414342 200.794583 
L 336.187217 200.17901 
L 337.917369 199.343591 
L 339.606807 198.200385 
L 341.257404 198.156415 
L 342.870906 197.892598 
L 344.448944 197.76069 
L 345.993042 195.738094 
L 347.504631 194.770766 
L 348.985051 194.243133 
L 350.435561 193.583591 
L 351.857347 193.583591 
L 353.251523 193.451682 
L 354.619142 193.407713 
L 355.961196 192.572293 
L 357.278624 192.572293 
L 358.572313 192.528323 
L 359.843104 191.253209 
L 361.091794 191.033362 
L 362.319136 189.802217 
L 363.525851 189.186644 
L 364.712619 189.054736 
L 365.880089 189.010766 
L 367.028878 188.70298 
L 368.159576 188.527102 
L 369.272743 187.91153 
L 370.368914 187.779621 
L 371.4486 187.779621 
L 372.512291 187.779621 
L 373.560453 187.779621 
L 374.593533 186.548476 
L 375.611959 186.372598 
L 376.616141 186.372598 
L 377.606471 186.460537 
L 378.583327 186.284659 
L 379.547071 186.108781 
L 380.498049 186.020843 
L 381.436596 185.229392 
L 382.363032 184.61382 
L 383.277666 184.437942 
L 384.180795 183.382675 
L 385.072705 183.382675 
L 385.953671 183.382675 
L 386.823958 183.030919 
L 387.683823 182.94298 
L 388.533511 182.94298 
L 389.373261 182.94298 
L 390.203303 182.767102 
L 391.023858 182.415346 
L 391.835142 181.975652 
L 392.63736 181.448018 
L 393.430714 181.448018 
L 394.215398 179.865117 
" style="fill:none;stroke:#98df8a;stroke-linecap:square;stroke-width:1.5;"/>
    <defs>
     <path d="M -0 3 
L 3 -3 
L -3 -3 
z
" id="meb8f95d7ad" style="stroke:#ffffff;stroke-linejoin:miter;stroke-width:0.75;"/>
    </defs>
    <g clip-path="url(#peaa51e1405)">
     <use style="fill:#98df8a;stroke:#ffffff;stroke-linejoin:miter;stroke-width:0.75;" x="69.560852" xlink:href="#meb8f95d7ad" y="271.321606"/>
     <use style="fill:#98df8a;stroke:#ffffff;stroke-linejoin:miter;stroke-width:0.75;" x="119.327306" xlink:href="#meb8f95d7ad" y="260.417178"/>
     <use style="fill:#98df8a;stroke:#ffffff;stroke-linejoin:miter;stroke-width:0.75;" x="148.438816" xlink:href="#meb8f95d7ad" y="257.691072"/>
     <use style="fill:#98df8a;stroke:#ffffff;stroke-linejoin:miter;stroke-width:0.75;" x="169.09376" xlink:href="#meb8f95d7ad" y="249.688629"/>
     <use style="fill:#98df8a;stroke:#ffffff;stroke-linejoin:miter;stroke-width:0.75;" x="185.11498" xlink:href="#meb8f95d7ad" y="244.412293"/>
     <use style="fill:#98df8a;stroke:#ffffff;stroke-linejoin:miter;stroke-width:0.75;" x="198.205269" xlink:href="#meb8f95d7ad" y="240.191224"/>
     <use style="fill:#98df8a;stroke:#ffffff;stroke-linejoin:miter;stroke-width:0.75;" x="209.272952" xlink:href="#meb8f95d7ad" y="237.597026"/>
     <use style="fill:#98df8a;stroke:#ffffff;stroke-linejoin:miter;stroke-width:0.75;" x="218.860214" xlink:href="#meb8f95d7ad" y="234.299316"/>
     <use style="fill:#98df8a;stroke:#ffffff;stroke-linejoin:miter;stroke-width:0.75;" x="227.316779" xlink:href="#meb8f95d7ad" y="233.331988"/>
     <use style="fill:#98df8a;stroke:#ffffff;stroke-linejoin:miter;stroke-width:0.75;" x="234.881434" xlink:href="#meb8f95d7ad" y="229.726491"/>
     <use style="fill:#98df8a;stroke:#ffffff;stroke-linejoin:miter;stroke-width:0.75;" x="241.724496" xlink:href="#meb8f95d7ad" y="226.956415"/>
     <use style="fill:#98df8a;stroke:#ffffff;stroke-linejoin:miter;stroke-width:0.75;" x="247.971723" xlink:href="#meb8f95d7ad" y="225.109698"/>
     <use style="fill:#98df8a;stroke:#ffffff;stroke-linejoin:miter;stroke-width:0.75;" x="253.718615" xlink:href="#meb8f95d7ad" y="224.142369"/>
     <use style="fill:#98df8a;stroke:#ffffff;stroke-linejoin:miter;stroke-width:0.75;" x="259.039406" xlink:href="#meb8f95d7ad" y="222.119774"/>
     <use style="fill:#98df8a;stroke:#ffffff;stroke-linejoin:miter;stroke-width:0.75;" x="263.992943" xlink:href="#meb8f95d7ad" y="221.152446"/>
     <use style="fill:#98df8a;stroke:#ffffff;stroke-linejoin:miter;stroke-width:0.75;" x="268.626668" xlink:href="#meb8f95d7ad" y="219.041911"/>
     <use style="fill:#98df8a;stroke:#ffffff;stroke-linejoin:miter;stroke-width:0.75;" x="272.979383" xlink:href="#meb8f95d7ad" y="218.997942"/>
     <use style="fill:#98df8a;stroke:#ffffff;stroke-linejoin:miter;stroke-width:0.75;" x="277.083233" xlink:href="#meb8f95d7ad" y="217.415041"/>
     <use style="fill:#98df8a;stroke:#ffffff;stroke-linejoin:miter;stroke-width:0.75;" x="280.965141" xlink:href="#meb8f95d7ad" y="215.216568"/>
     <use style="fill:#98df8a;stroke:#ffffff;stroke-linejoin:miter;stroke-width:0.75;" x="284.647888" xlink:href="#meb8f95d7ad" y="215.04069"/>
     <use style="fill:#98df8a;stroke:#ffffff;stroke-linejoin:miter;stroke-width:0.75;" x="288.150915" xlink:href="#meb8f95d7ad" y="214.513056"/>
     <use style="fill:#98df8a;stroke:#ffffff;stroke-linejoin:miter;stroke-width:0.75;" x="291.49095" xlink:href="#meb8f95d7ad" y="212.974125"/>
     <use style="fill:#98df8a;stroke:#ffffff;stroke-linejoin:miter;stroke-width:0.75;" x="294.68249" xlink:href="#meb8f95d7ad" y="211.69901"/>
     <use style="fill:#98df8a;stroke:#ffffff;stroke-linejoin:miter;stroke-width:0.75;" x="297.738177" xlink:href="#meb8f95d7ad" y="211.303285"/>
     <use style="fill:#98df8a;stroke:#ffffff;stroke-linejoin:miter;stroke-width:0.75;" x="300.669107" xlink:href="#meb8f95d7ad" y="211.303285"/>
     <use style="fill:#98df8a;stroke:#ffffff;stroke-linejoin:miter;stroke-width:0.75;" x="303.485069" xlink:href="#meb8f95d7ad" y="208.797026"/>
     <use style="fill:#98df8a;stroke:#ffffff;stroke-linejoin:miter;stroke-width:0.75;" x="306.194742" xlink:href="#meb8f95d7ad" y="206.77443"/>
     <use style="fill:#98df8a;stroke:#ffffff;stroke-linejoin:miter;stroke-width:0.75;" x="308.805859" xlink:href="#meb8f95d7ad" y="206.686491"/>
     <use style="fill:#98df8a;stroke:#ffffff;stroke-linejoin:miter;stroke-width:0.75;" x="311.32534" xlink:href="#meb8f95d7ad" y="206.598552"/>
     <use style="fill:#98df8a;stroke:#ffffff;stroke-linejoin:miter;stroke-width:0.75;" x="313.759397" xlink:href="#meb8f95d7ad" y="206.510614"/>
     <use style="fill:#98df8a;stroke:#ffffff;stroke-linejoin:miter;stroke-width:0.75;" x="316.113635" xlink:href="#meb8f95d7ad" y="205.015652"/>
     <use style="fill:#98df8a;stroke:#ffffff;stroke-linejoin:miter;stroke-width:0.75;" x="318.393122" xlink:href="#meb8f95d7ad" y="204.268171"/>
     <use style="fill:#98df8a;stroke:#ffffff;stroke-linejoin:miter;stroke-width:0.75;" x="320.60246" xlink:href="#meb8f95d7ad" y="202.949087"/>
     <use style="fill:#98df8a;stroke:#ffffff;stroke-linejoin:miter;stroke-width:0.75;" x="322.745837" xlink:href="#meb8f95d7ad" y="202.641301"/>
     <use style="fill:#98df8a;stroke:#ffffff;stroke-linejoin:miter;stroke-width:0.75;" x="324.827079" xlink:href="#meb8f95d7ad" y="202.289545"/>
     <use style="fill:#98df8a;stroke:#ffffff;stroke-linejoin:miter;stroke-width:0.75;" x="326.849687" xlink:href="#meb8f95d7ad" y="202.289545"/>
     <use style="fill:#98df8a;stroke:#ffffff;stroke-linejoin:miter;stroke-width:0.75;" x="328.816873" xlink:href="#meb8f95d7ad" y="201.937789"/>
     <use style="fill:#98df8a;stroke:#ffffff;stroke-linejoin:miter;stroke-width:0.75;" x="330.731595" xlink:href="#meb8f95d7ad" y="201.937789"/>
     <use style="fill:#98df8a;stroke:#ffffff;stroke-linejoin:miter;stroke-width:0.75;" x="332.596578" xlink:href="#meb8f95d7ad" y="201.366186"/>
     <use style="fill:#98df8a;stroke:#ffffff;stroke-linejoin:miter;stroke-width:0.75;" x="334.414342" xlink:href="#meb8f95d7ad" y="200.794583"/>
     <use style="fill:#98df8a;stroke:#ffffff;stroke-linejoin:miter;stroke-width:0.75;" x="336.187217" xlink:href="#meb8f95d7ad" y="200.17901"/>
     <use style="fill:#98df8a;stroke:#ffffff;stroke-linejoin:miter;stroke-width:0.75;" x="337.917369" xlink:href="#meb8f95d7ad" y="199.343591"/>
     <use style="fill:#98df8a;stroke:#ffffff;stroke-linejoin:miter;stroke-width:0.75;" x="339.606807" xlink:href="#meb8f95d7ad" y="198.200385"/>
     <use style="fill:#98df8a;stroke:#ffffff;stroke-linejoin:miter;stroke-width:0.75;" x="341.257404" xlink:href="#meb8f95d7ad" y="198.156415"/>
     <use style="fill:#98df8a;stroke:#ffffff;stroke-linejoin:miter;stroke-width:0.75;" x="342.870906" xlink:href="#meb8f95d7ad" y="197.892598"/>
     <use style="fill:#98df8a;stroke:#ffffff;stroke-linejoin:miter;stroke-width:0.75;" x="344.448944" xlink:href="#meb8f95d7ad" y="197.76069"/>
     <use style="fill:#98df8a;stroke:#ffffff;stroke-linejoin:miter;stroke-width:0.75;" x="345.993042" xlink:href="#meb8f95d7ad" y="195.738094"/>
     <use style="fill:#98df8a;stroke:#ffffff;stroke-linejoin:miter;stroke-width:0.75;" x="347.504631" xlink:href="#meb8f95d7ad" y="194.770766"/>
     <use style="fill:#98df8a;stroke:#ffffff;stroke-linejoin:miter;stroke-width:0.75;" x="348.985051" xlink:href="#meb8f95d7ad" y="194.243133"/>
     <use style="fill:#98df8a;stroke:#ffffff;stroke-linejoin:miter;stroke-width:0.75;" x="350.435561" xlink:href="#meb8f95d7ad" y="193.583591"/>
     <use style="fill:#98df8a;stroke:#ffffff;stroke-linejoin:miter;stroke-width:0.75;" x="351.857347" xlink:href="#meb8f95d7ad" y="193.583591"/>
     <use style="fill:#98df8a;stroke:#ffffff;stroke-linejoin:miter;stroke-width:0.75;" x="353.251523" xlink:href="#meb8f95d7ad" y="193.451682"/>
     <use style="fill:#98df8a;stroke:#ffffff;stroke-linejoin:miter;stroke-width:0.75;" x="354.619142" xlink:href="#meb8f95d7ad" y="193.407713"/>
     <use style="fill:#98df8a;stroke:#ffffff;stroke-linejoin:miter;stroke-width:0.75;" x="355.961196" xlink:href="#meb8f95d7ad" y="192.572293"/>
     <use style="fill:#98df8a;stroke:#ffffff;stroke-linejoin:miter;stroke-width:0.75;" x="357.278624" xlink:href="#meb8f95d7ad" y="192.572293"/>
     <use style="fill:#98df8a;stroke:#ffffff;stroke-linejoin:miter;stroke-width:0.75;" x="358.572313" xlink:href="#meb8f95d7ad" y="192.528323"/>
     <use style="fill:#98df8a;stroke:#ffffff;stroke-linejoin:miter;stroke-width:0.75;" x="359.843104" xlink:href="#meb8f95d7ad" y="191.253209"/>
     <use style="fill:#98df8a;stroke:#ffffff;stroke-linejoin:miter;stroke-width:0.75;" x="361.091794" xlink:href="#meb8f95d7ad" y="191.033362"/>
     <use style="fill:#98df8a;stroke:#ffffff;stroke-linejoin:miter;stroke-width:0.75;" x="362.319136" xlink:href="#meb8f95d7ad" y="189.802217"/>
     <use style="fill:#98df8a;stroke:#ffffff;stroke-linejoin:miter;stroke-width:0.75;" x="363.525851" xlink:href="#meb8f95d7ad" y="189.186644"/>
     <use style="fill:#98df8a;stroke:#ffffff;stroke-linejoin:miter;stroke-width:0.75;" x="364.712619" xlink:href="#meb8f95d7ad" y="189.054736"/>
     <use style="fill:#98df8a;stroke:#ffffff;stroke-linejoin:miter;stroke-width:0.75;" x="365.880089" xlink:href="#meb8f95d7ad" y="189.010766"/>
     <use style="fill:#98df8a;stroke:#ffffff;stroke-linejoin:miter;stroke-width:0.75;" x="367.028878" xlink:href="#meb8f95d7ad" y="188.70298"/>
     <use style="fill:#98df8a;stroke:#ffffff;stroke-linejoin:miter;stroke-width:0.75;" x="368.159576" xlink:href="#meb8f95d7ad" y="188.527102"/>
     <use style="fill:#98df8a;stroke:#ffffff;stroke-linejoin:miter;stroke-width:0.75;" x="369.272743" xlink:href="#meb8f95d7ad" y="187.91153"/>
     <use style="fill:#98df8a;stroke:#ffffff;stroke-linejoin:miter;stroke-width:0.75;" x="370.368914" xlink:href="#meb8f95d7ad" y="187.779621"/>
     <use style="fill:#98df8a;stroke:#ffffff;stroke-linejoin:miter;stroke-width:0.75;" x="371.4486" xlink:href="#meb8f95d7ad" y="187.779621"/>
     <use style="fill:#98df8a;stroke:#ffffff;stroke-linejoin:miter;stroke-width:0.75;" x="372.512291" xlink:href="#meb8f95d7ad" y="187.779621"/>
     <use style="fill:#98df8a;stroke:#ffffff;stroke-linejoin:miter;stroke-width:0.75;" x="373.560453" xlink:href="#meb8f95d7ad" y="187.779621"/>
     <use style="fill:#98df8a;stroke:#ffffff;stroke-linejoin:miter;stroke-width:0.75;" x="374.593533" xlink:href="#meb8f95d7ad" y="186.548476"/>
     <use style="fill:#98df8a;stroke:#ffffff;stroke-linejoin:miter;stroke-width:0.75;" x="375.611959" xlink:href="#meb8f95d7ad" y="186.372598"/>
     <use style="fill:#98df8a;stroke:#ffffff;stroke-linejoin:miter;stroke-width:0.75;" x="376.616141" xlink:href="#meb8f95d7ad" y="186.372598"/>
     <use style="fill:#98df8a;stroke:#ffffff;stroke-linejoin:miter;stroke-width:0.75;" x="377.606471" xlink:href="#meb8f95d7ad" y="186.460537"/>
     <use style="fill:#98df8a;stroke:#ffffff;stroke-linejoin:miter;stroke-width:0.75;" x="378.583327" xlink:href="#meb8f95d7ad" y="186.284659"/>
     <use style="fill:#98df8a;stroke:#ffffff;stroke-linejoin:miter;stroke-width:0.75;" x="379.547071" xlink:href="#meb8f95d7ad" y="186.108781"/>
     <use style="fill:#98df8a;stroke:#ffffff;stroke-linejoin:miter;stroke-width:0.75;" x="380.498049" xlink:href="#meb8f95d7ad" y="186.020843"/>
     <use style="fill:#98df8a;stroke:#ffffff;stroke-linejoin:miter;stroke-width:0.75;" x="381.436596" xlink:href="#meb8f95d7ad" y="185.229392"/>
     <use style="fill:#98df8a;stroke:#ffffff;stroke-linejoin:miter;stroke-width:0.75;" x="382.363032" xlink:href="#meb8f95d7ad" y="184.61382"/>
     <use style="fill:#98df8a;stroke:#ffffff;stroke-linejoin:miter;stroke-width:0.75;" x="383.277666" xlink:href="#meb8f95d7ad" y="184.437942"/>
     <use style="fill:#98df8a;stroke:#ffffff;stroke-linejoin:miter;stroke-width:0.75;" x="384.180795" xlink:href="#meb8f95d7ad" y="183.382675"/>
     <use style="fill:#98df8a;stroke:#ffffff;stroke-linejoin:miter;stroke-width:0.75;" x="385.072705" xlink:href="#meb8f95d7ad" y="183.382675"/>
     <use style="fill:#98df8a;stroke:#ffffff;stroke-linejoin:miter;stroke-width:0.75;" x="385.953671" xlink:href="#meb8f95d7ad" y="183.382675"/>
     <use style="fill:#98df8a;stroke:#ffffff;stroke-linejoin:miter;stroke-width:0.75;" x="386.823958" xlink:href="#meb8f95d7ad" y="183.030919"/>
     <use style="fill:#98df8a;stroke:#ffffff;stroke-linejoin:miter;stroke-width:0.75;" x="387.683823" xlink:href="#meb8f95d7ad" y="182.94298"/>
     <use style="fill:#98df8a;stroke:#ffffff;stroke-linejoin:miter;stroke-width:0.75;" x="388.533511" xlink:href="#meb8f95d7ad" y="182.94298"/>
     <use style="fill:#98df8a;stroke:#ffffff;stroke-linejoin:miter;stroke-width:0.75;" x="389.373261" xlink:href="#meb8f95d7ad" y="182.94298"/>
     <use style="fill:#98df8a;stroke:#ffffff;stroke-linejoin:miter;stroke-width:0.75;" x="390.203303" xlink:href="#meb8f95d7ad" y="182.767102"/>
     <use style="fill:#98df8a;stroke:#ffffff;stroke-linejoin:miter;stroke-width:0.75;" x="391.023858" xlink:href="#meb8f95d7ad" y="182.415346"/>
     <use style="fill:#98df8a;stroke:#ffffff;stroke-linejoin:miter;stroke-width:0.75;" x="391.835142" xlink:href="#meb8f95d7ad" y="181.975652"/>
     <use style="fill:#98df8a;stroke:#ffffff;stroke-linejoin:miter;stroke-width:0.75;" x="392.63736" xlink:href="#meb8f95d7ad" y="181.448018"/>
     <use style="fill:#98df8a;stroke:#ffffff;stroke-linejoin:miter;stroke-width:0.75;" x="393.430714" xlink:href="#meb8f95d7ad" y="181.448018"/>
     <use style="fill:#98df8a;stroke:#ffffff;stroke-linejoin:miter;stroke-width:0.75;" x="394.215398" xlink:href="#meb8f95d7ad" y="179.865117"/>
    </g>
   </g>
   <g id="line2d_33"/>
   <g id="line2d_34"/>
   <g id="line2d_35"/>
   <g id="patch_3">
    <path d="M 53.328125 246.346949 
L 53.328125 26.499621 
" style="fill:none;stroke:#000000;stroke-linecap:square;stroke-linejoin:miter;stroke-width:0.8;"/>
   </g>
   <g id="patch_4">
    <path d="M 69.560852 288.430125 
L 394.216265 288.430125 
" style="fill:none;stroke:#000000;stroke-linecap:square;stroke-linejoin:miter;stroke-width:0.8;"/>
   </g>
   <g id="text_15">
    <!-- njs_njs_process_script_fuzzer (23h, 16 trials/fuzzer) -->
    <g transform="translate(77.824063 16.318125)scale(0.12 -0.12)">
     <defs>
      <path d="M 603 3500 
L 1178 3500 
L 1178 -63 
Q 1178 -731 923 -1031 
Q 669 -1331 103 -1331 
L -116 -1331 
L -116 -844 
L 38 -844 
Q 366 -844 484 -692 
Q 603 -541 603 -63 
L 603 3500 
z
M 603 4863 
L 1178 4863 
L 1178 4134 
L 603 4134 
L 603 4863 
z
" id="DejaVuSans-6a" transform="scale(0.015625)"/>
      <path d="M 2834 3397 
L 2834 2853 
Q 2591 2978 2328 3040 
Q 2066 3103 1784 3103 
Q 1356 3103 1142 2972 
Q 928 2841 928 2578 
Q 928 2378 1081 2264 
Q 1234 2150 1697 2047 
L 1894 2003 
Q 2506 1872 2764 1633 
Q 3022 1394 3022 966 
Q 3022 478 2636 193 
Q 2250 -91 1575 -91 
Q 1294 -91 989 -36 
Q 684 19 347 128 
L 347 722 
Q 666 556 975 473 
Q 1284 391 1588 391 
Q 1994 391 2212 530 
Q 2431 669 2431 922 
Q 2431 1156 2273 1281 
Q 2116 1406 1581 1522 
L 1381 1569 
Q 847 1681 609 1914 
Q 372 2147 372 2553 
Q 372 3047 722 3315 
Q 1072 3584 1716 3584 
Q 2034 3584 2315 3537 
Q 2597 3491 2834 3397 
z
" id="DejaVuSans-73" transform="scale(0.015625)"/>
      <path d="M 3263 -1063 
L 3263 -1509 
L -63 -1509 
L -63 -1063 
L 3263 -1063 
z
" id="DejaVuSans-5f" transform="scale(0.015625)"/>
      <path d="M 1159 525 
L 1159 -1331 
L 581 -1331 
L 581 3500 
L 1159 3500 
L 1159 2969 
Q 1341 3281 1617 3432 
Q 1894 3584 2278 3584 
Q 2916 3584 3314 3078 
Q 3713 2572 3713 1747 
Q 3713 922 3314 415 
Q 2916 -91 2278 -91 
Q 1894 -91 1617 61 
Q 1341 213 1159 525 
z
M 3116 1747 
Q 3116 2381 2855 2742 
Q 2594 3103 2138 3103 
Q 1681 3103 1420 2742 
Q 1159 2381 1159 1747 
Q 1159 1113 1420 752 
Q 1681 391 2138 391 
Q 2594 391 2855 752 
Q 3116 1113 3116 1747 
z
" id="DejaVuSans-70" transform="scale(0.015625)"/>
      <path d="M 2375 4863 
L 2375 4384 
L 1825 4384 
Q 1516 4384 1395 4259 
Q 1275 4134 1275 3809 
L 1275 3500 
L 2222 3500 
L 2222 3053 
L 1275 3053 
L 1275 0 
L 697 0 
L 697 3053 
L 147 3053 
L 147 3500 
L 697 3500 
L 697 3744 
Q 697 4328 969 4595 
Q 1241 4863 1831 4863 
L 2375 4863 
z
" id="DejaVuSans-66" transform="scale(0.015625)"/>
      <path d="M 353 3500 
L 3084 3500 
L 3084 2975 
L 922 459 
L 3084 459 
L 3084 0 
L 275 0 
L 275 525 
L 2438 3041 
L 353 3041 
L 353 3500 
z
" id="DejaVuSans-7a" transform="scale(0.015625)"/>
      <path d="M 750 794 
L 1409 794 
L 1409 256 
L 897 -744 
L 494 -744 
L 750 256 
L 750 794 
z
" id="DejaVuSans-2c" transform="scale(0.015625)"/>
      <path d="M 603 4863 
L 1178 4863 
L 1178 0 
L 603 0 
L 603 4863 
z
" id="DejaVuSans-6c" transform="scale(0.015625)"/>
      <path d="M 1625 4666 
L 2156 4666 
L 531 -594 
L 0 -594 
L 1625 4666 
z
" id="DejaVuSans-2f" transform="scale(0.015625)"/>
     </defs>
     <use xlink:href="#DejaVuSans-6e"/>
     <use x="63.378906" xlink:href="#DejaVuSans-6a"/>
     <use x="91.162109" xlink:href="#DejaVuSans-73"/>
     <use x="143.261719" xlink:href="#DejaVuSans-5f"/>
     <use x="193.261719" xlink:href="#DejaVuSans-6e"/>
     <use x="256.640625" xlink:href="#DejaVuSans-6a"/>
     <use x="284.423828" xlink:href="#DejaVuSans-73"/>
     <use x="336.523438" xlink:href="#DejaVuSans-5f"/>
     <use x="386.523438" xlink:href="#DejaVuSans-70"/>
     <use x="450" xlink:href="#DejaVuSans-72"/>
     <use x="488.863281" xlink:href="#DejaVuSans-6f"/>
     <use x="550.044922" xlink:href="#DejaVuSans-63"/>
     <use x="605.025391" xlink:href="#DejaVuSans-65"/>
     <use x="666.548828" xlink:href="#DejaVuSans-73"/>
     <use x="718.648438" xlink:href="#DejaVuSans-73"/>
     <use x="770.748047" xlink:href="#DejaVuSans-5f"/>
     <use x="820.748047" xlink:href="#DejaVuSans-73"/>
     <use x="872.847656" xlink:href="#DejaVuSans-63"/>
     <use x="927.828125" xlink:href="#DejaVuSans-72"/>
     <use x="968.941406" xlink:href="#DejaVuSans-69"/>
     <use x="996.724609" xlink:href="#DejaVuSans-70"/>
     <use x="1060.201172" xlink:href="#DejaVuSans-74"/>
     <use x="1099.410156" xlink:href="#DejaVuSans-5f"/>
     <use x="1149.410156" xlink:href="#DejaVuSans-66"/>
     <use x="1184.615234" xlink:href="#DejaVuSans-75"/>
     <use x="1247.994141" xlink:href="#DejaVuSans-7a"/>
     <use x="1300.484375" xlink:href="#DejaVuSans-7a"/>
     <use x="1352.974609" xlink:href="#DejaVuSans-65"/>
     <use x="1414.498047" xlink:href="#DejaVuSans-72"/>
     <use x="1455.611328" xlink:href="#DejaVuSans-20"/>
     <use x="1487.398438" xlink:href="#DejaVuSans-28"/>
     <use x="1526.412109" xlink:href="#DejaVuSans-32"/>
     <use x="1590.035156" xlink:href="#DejaVuSans-33"/>
     <use x="1653.658203" xlink:href="#DejaVuSans-68"/>
     <use x="1717.037109" xlink:href="#DejaVuSans-2c"/>
     <use x="1748.824219" xlink:href="#DejaVuSans-20"/>
     <use x="1780.611328" xlink:href="#DejaVuSans-31"/>
     <use x="1844.234375" xlink:href="#DejaVuSans-36"/>
     <use x="1907.857422" xlink:href="#DejaVuSans-20"/>
     <use x="1939.644531" xlink:href="#DejaVuSans-74"/>
     <use x="1978.853516" xlink:href="#DejaVuSans-72"/>
     <use x="2019.966797" xlink:href="#DejaVuSans-69"/>
     <use x="2047.75" xlink:href="#DejaVuSans-61"/>
     <use x="2109.029297" xlink:href="#DejaVuSans-6c"/>
     <use x="2136.8125" xlink:href="#DejaVuSans-73"/>
     <use x="2188.912109" xlink:href="#DejaVuSans-2f"/>
     <use x="2222.603516" xlink:href="#DejaVuSans-66"/>
     <use x="2257.808594" xlink:href="#DejaVuSans-75"/>
     <use x="2321.1875" xlink:href="#DejaVuSans-7a"/>
     <use x="2373.677734" xlink:href="#DejaVuSans-7a"/>
     <use x="2426.167969" xlink:href="#DejaVuSans-65"/>
     <use x="2487.691406" xlink:href="#DejaVuSans-72"/>
     <use x="2528.804688" xlink:href="#DejaVuSans-29"/>
    </g>
   </g>
   <g id="legend_1">
    <g id="line2d_36">
     <path d="M 414.448125 30.416562 
L 434.448125 30.416562 
" style="fill:none;stroke:#d62728;stroke-linecap:square;stroke-width:1.5;"/>
    </g>
    <g id="line2d_37">
     <defs>
      <path d="M 0 -3 
L -3 3 
L 3 3 
z
" id="m8a5032526c" style="stroke:#d62728;stroke-linejoin:miter;"/>
     </defs>
     <g>
      <use style="fill:#d62728;stroke:#d62728;stroke-linejoin:miter;" x="424.448125" xlink:href="#m8a5032526c" y="30.416562"/>
     </g>
    </g>
    <g id="text_16">
     <!-- afl_scheduling_random -->
     <g transform="translate(442.448125 33.916562)scale(0.1 -0.1)">
      <use xlink:href="#DejaVuSans-61"/>
      <use x="61.279297" xlink:href="#DejaVuSans-66"/>
      <use x="96.484375" xlink:href="#DejaVuSans-6c"/>
      <use x="124.267578" xlink:href="#DejaVuSans-5f"/>
      <use x="174.267578" xlink:href="#DejaVuSans-73"/>
      <use x="226.367188" xlink:href="#DejaVuSans-63"/>
      <use x="281.347656" xlink:href="#DejaVuSans-68"/>
      <use x="344.726562" xlink:href="#DejaVuSans-65"/>
      <use x="406.25" xlink:href="#DejaVuSans-64"/>
      <use x="469.726562" xlink:href="#DejaVuSans-75"/>
      <use x="533.105469" xlink:href="#DejaVuSans-6c"/>
      <use x="560.888672" xlink:href="#DejaVuSans-69"/>
      <use x="588.671875" xlink:href="#DejaVuSans-6e"/>
      <use x="652.050781" xlink:href="#DejaVuSans-67"/>
      <use x="715.527344" xlink:href="#DejaVuSans-5f"/>
      <use x="765.527344" xlink:href="#DejaVuSans-72"/>
      <use x="806.640625" xlink:href="#DejaVuSans-61"/>
      <use x="867.919922" xlink:href="#DejaVuSans-6e"/>
      <use x="931.298828" xlink:href="#DejaVuSans-64"/>
      <use x="994.775391" xlink:href="#DejaVuSans-6f"/>
      <use x="1055.957031" xlink:href="#DejaVuSans-6d"/>
     </g>
    </g>
    <g id="line2d_38">
     <path d="M 414.448125 45.372813 
L 434.448125 45.372813 
" style="fill:none;stroke:#1f77b4;stroke-linecap:square;stroke-width:1.5;"/>
    </g>
    <g id="line2d_39">
     <defs>
      <path d="M 0 3 
C 0.795609 3 1.55874 2.683901 2.12132 2.12132 
C 2.683901 1.55874 3 0.795609 3 0 
C 3 -0.795609 2.683901 -1.55874 2.12132 -2.12132 
C 1.55874 -2.683901 0.795609 -3 0 -3 
C -0.795609 -3 -1.55874 -2.683901 -2.12132 -2.12132 
C -2.683901 -1.55874 -3 -0.795609 -3 0 
C -3 0.795609 -2.683901 1.55874 -2.12132 2.12132 
C -1.55874 2.683901 -0.795609 3 0 3 
z
" id="m26c0ff08e7" style="stroke:#1f77b4;"/>
     </defs>
     <g>
      <use style="fill:#1f77b4;stroke:#1f77b4;" x="424.448125" xlink:href="#m26c0ff08e7" y="45.372813"/>
     </g>
    </g>
    <g id="text_17">
     <!-- afl -->
     <g transform="translate(442.448125 48.872813)scale(0.1 -0.1)">
      <use xlink:href="#DejaVuSans-61"/>
      <use x="61.279297" xlink:href="#DejaVuSans-66"/>
      <use x="96.484375" xlink:href="#DejaVuSans-6c"/>
     </g>
    </g>
    <g id="line2d_40">
     <path d="M 414.448125 60.050937 
L 434.448125 60.050937 
" style="fill:none;stroke:#98df8a;stroke-linecap:square;stroke-width:1.5;"/>
    </g>
    <g id="line2d_41">
     <defs>
      <path d="M -0 3 
L 3 -3 
L -3 -3 
z
" id="m6615fda77b" style="stroke:#98df8a;stroke-linejoin:miter;"/>
     </defs>
     <g>
      <use style="fill:#98df8a;stroke:#98df8a;stroke-linejoin:miter;" x="424.448125" xlink:href="#m6615fda77b" y="60.050937"/>
     </g>
    </g>
    <g id="text_18">
     <!-- afl_scheduling_lifo -->
     <g transform="translate(442.448125 63.550937)scale(0.1 -0.1)">
      <use xlink:href="#DejaVuSans-61"/>
      <use x="61.279297" xlink:href="#DejaVuSans-66"/>
      <use x="96.484375" xlink:href="#DejaVuSans-6c"/>
      <use x="124.267578" xlink:href="#DejaVuSans-5f"/>
      <use x="174.267578" xlink:href="#DejaVuSans-73"/>
      <use x="226.367188" xlink:href="#DejaVuSans-63"/>
      <use x="281.347656" xlink:href="#DejaVuSans-68"/>
      <use x="344.726562" xlink:href="#DejaVuSans-65"/>
      <use x="406.25" xlink:href="#DejaVuSans-64"/>
      <use x="469.726562" xlink:href="#DejaVuSans-75"/>
      <use x="533.105469" xlink:href="#DejaVuSans-6c"/>
      <use x="560.888672" xlink:href="#DejaVuSans-69"/>
      <use x="588.671875" xlink:href="#DejaVuSans-6e"/>
      <use x="652.050781" xlink:href="#DejaVuSans-67"/>
      <use x="715.527344" xlink:href="#DejaVuSans-5f"/>
      <use x="765.527344" xlink:href="#DejaVuSans-6c"/>
      <use x="793.310547" xlink:href="#DejaVuSans-69"/>
      <use x="821.09375" xlink:href="#DejaVuSans-66"/>
      <use x="856.298828" xlink:href="#DejaVuSans-6f"/>
     </g>
    </g>
   </g>
  </g>
 </g>
 <defs>
  <clipPath id="peaa51e1405">
   <rect height="266.112" width="357.12" x="53.328125" y="22.318125"/>
  </clipPath>
 </defs>
</svg>
