<?xml version="1.0" encoding="utf-8" standalone="no"?>
<!DOCTYPE svg PUBLIC "-//W3C//DTD SVG 1.1//EN"
  "http://www.w3.org/Graphics/SVG/1.1/DTD/svg11.dtd">
<svg height="325.986375pt" version="1.1" viewBox="0 0 575.348125 325.986375" width="575.348125pt" xmlns="http://www.w3.org/2000/svg" xmlns:xlink="http://www.w3.org/1999/xlink">
 <metadata>
  <rdf:RDF xmlns:cc="http://creativecommons.org/ns#" xmlns:dc="http://purl.org/dc/elements/1.1/" xmlns:rdf="http://www.w3.org/1999/02/22-rdf-syntax-ns#">
   <cc:Work>
    <dc:type rdf:resource="http://purl.org/dc/dcmitype/StillImage"/>
    <dc:date>2022-05-31T14:26:20.236509</dc:date>
    <dc:format>image/svg+xml</dc:format>
    <dc:creator>
     <cc:Agent>
      <dc:title>Matplotlib v3.4.3, https://matplotlib.org/</dc:title>
     </cc:Agent>
    </dc:creator>
   </cc:Work>
  </rdf:RDF>
 </metadata>
 <defs>
  <style type="text/css">*{stroke-linecap:butt;stroke-linejoin:round;}</style>
 </defs>
 <g id="figure_1">
  <g id="patch_1">
   <path d="M 0 325.986375 
L 575.348125 325.986375 
L 575.348125 0 
L 0 0 
z
" style="fill:#ffffff;"/>
  </g>
  <g id="axes_1">
   <g id="patch_2">
    <path d="M 59.690625 288.430125 
L 416.810625 288.430125 
L 416.810625 22.318125 
L 59.690625 22.318125 
z
" style="fill:#ffffff;"/>
   </g>
   <g id="PolyCollection_1">
    <defs>
     <path d="M 75.923352 -118.985831 
L 75.923352 -78.338785 
L 79.490985 -100.951624 
L 83.058617 -126.554591 
L 86.626249 -146.364185 
L 90.193882 -153.278855 
L 93.761514 -132.534846 
L 97.329146 -167.014753 
L 100.896779 -187.945645 
L 104.464411 -192.150512 
L 108.032044 -197.570118 
L 111.599676 -197.943884 
L 115.167308 -205.979851 
L 118.734941 -208.035564 
L 122.302573 -214.202702 
L 125.870205 -218.50101 
L 129.437838 -220.556723 
L 133.00547 -219.996074 
L 136.573103 -221.304255 
L 140.140735 -220.743606 
L 143.708367 -223.733733 
L 147.276 -225.964649 
L 150.843632 -223.920616 
L 154.411264 -224.014058 
L 157.978897 -222.425552 
L 161.546529 -228.966456 
L 165.114161 -222.799318 
L 168.681794 -226.536978 
L 172.249426 -226.536978 
L 175.817059 -226.723861 
L 179.384691 -231.022169 
L 182.952323 -232.517233 
L 186.519956 -232.517233 
L 190.087588 -232.423791 
L 193.65522 -237.002424 
L 197.222853 -241.487615 
L 200.790485 -239.245019 
L 204.358118 -235.50736 
L 207.92575 -235.881126 
L 211.493382 -235.881126 
L 215.061015 -243.898405 
L 218.628647 -241.207291 
L 222.196279 -237.749956 
L 225.763912 -242.795796 
L 229.331544 -240.459759 
L 232.899176 -245.038391 
L 236.466809 -237.749956 
L 240.034441 -264.189223 
L 243.602074 -246.346572 
L 247.169706 -241.861381 
L 250.737338 -255.223513 
L 254.304971 -242.235147 
L 257.872603 -269.333177 
L 261.440235 -242.982679 
L 265.007868 -260.362795 
L 268.5755 -260.736561 
L 272.143132 -260.923444 
L 275.710765 -261.110326 
L 279.278397 -267.237752 
L 282.84603 -271.949539 
L 286.413662 -268.398762 
L 289.981294 -269.52006 
L 293.548927 -270.828241 
L 297.116559 -274.5659 
L 300.684191 -271.575773 
L 304.251824 -271.949539 
L 307.819456 -271.949539 
L 311.387089 -274.752783 
L 314.954721 -274.687374 
L 318.522353 -273.444602 
L 322.089986 -272.69707 
L 325.657618 -273.444602 
L 329.22525 -272.883953 
L 332.792883 -275.126549 
L 336.360515 -275.119541 
L 339.928147 -275.126549 
L 343.49578 -275.126549 
L 347.063412 -275.126549 
L 350.631045 -275.126549 
L 354.198677 -275.126549 
L 357.766309 -275.126549 
L 361.333942 -276.995379 
L 364.901574 -277.556028 
L 368.469206 -276.995379 
L 372.036839 -277.74291 
L 375.604471 -277.182262 
L 379.172104 -277.929793 
L 382.739736 -277.74291 
L 386.307368 -277.182262 
L 389.875001 -278.116676 
L 393.442633 -278.116676 
L 397.010265 -277.74291 
L 400.577898 -278.116676 
L 400.577898 -291.198484 
L 400.577898 -291.198484 
L 397.010265 -291.198484 
L 393.442633 -291.198484 
L 389.875001 -290.637835 
L 386.307368 -290.637835 
L 382.739736 -290.91816 
L 379.172104 -290.637835 
L 375.604471 -290.637835 
L 372.036839 -291.198484 
L 368.469206 -290.637835 
L 364.901574 -290.637835 
L 361.333942 -290.544394 
L 357.766309 -291.57225 
L 354.198677 -290.637835 
L 350.631045 -290.637835 
L 347.063412 -289.890303 
L 343.49578 -289.70342 
L 339.928147 -289.70342 
L 336.360515 -289.70342 
L 332.792883 -289.70342 
L 329.22525 -289.329654 
L 325.657618 -289.329654 
L 322.089986 -289.329654 
L 318.522353 -289.04933 
L 314.954721 -288.769006 
L 311.387089 -288.208357 
L 307.819456 -288.208357 
L 304.251824 -288.208357 
L 300.684191 -287.087059 
L 297.116559 -287.834591 
L 293.548927 -286.713293 
L 289.981294 -286.059202 
L 286.413662 -286.713293 
L 282.84603 -285.591995 
L 279.278397 -285.965761 
L 275.710765 -281.106804 
L 272.143132 -278.864208 
L 268.5755 -277.929793 
L 265.007868 -281.106804 
L 261.440235 -276.621613 
L 257.872603 -281.106804 
L 254.304971 -274.005251 
L 250.737338 -280.733038 
L 247.169706 -274.379017 
L 243.602074 -274.409386 
L 240.034441 -274.192134 
L 236.466809 -271.949539 
L 232.899176 -273.818368 
L 229.331544 -270.361033 
L 225.763912 -271.949539 
L 222.196279 -271.762656 
L 218.628647 -270.295624 
L 215.061015 -271.762656 
L 211.493382 -269.333177 
L 207.92575 -266.539277 
L 204.358118 -258.867731 
L 200.790485 -259.802146 
L 197.222853 -259.42838 
L 193.65522 -258.680848 
L 190.087588 -257.185784 
L 186.519956 -253.074359 
L 182.952323 -253.074359 
L 179.384691 -250.084231 
L 175.817059 -244.571184 
L 172.249426 -239.618785 
L 168.681794 -241.113849 
L 165.114161 -239.431902 
L 161.546529 -240.926966 
L 157.978897 -238.310605 
L 154.411264 -238.777812 
L 150.843632 -234.759828 
L 147.276 -234.572945 
L 143.708367 -234.012296 
L 140.140735 -232.704116 
L 136.573103 -232.143467 
L 133.00547 -231.022169 
L 129.437838 -229.340222 
L 125.870205 -228.966456 
L 122.302573 -229.153339 
L 118.734941 -226.536978 
L 115.167308 -225.976329 
L 111.599676 -225.135355 
L 108.032044 -224.855031 
L 104.464411 -222.612435 
L 100.896779 -211.960106 
L 97.329146 -207.942123 
L 93.761514 -201.681543 
L 90.193882 -196.44882 
L 86.626249 -185.609608 
L 83.058617 -167.48196 
L 79.490985 -154.400153 
L 75.923352 -118.985831 
z
" id="m3066454b5f" style="stroke:#1f77b4;stroke-opacity:0.2;"/>
    </defs>
    <g clip-path="url(#pdb15de3e85)">
     <use style="fill:#1f77b4;fill-opacity:0.2;stroke:#1f77b4;stroke-opacity:0.2;" x="0" xlink:href="#m3066454b5f" y="325.986375"/>
    </g>
   </g>
   <g id="PolyCollection_2">
    <defs>
     <path d="M 75.923352 -96.840199 
L 75.923352 -51.801404 
L 79.490985 -78.338785 
L 83.058617 -113.472783 
L 86.626249 -139.449515 
L 90.193882 -150.288727 
L 93.761514 -151.970674 
L 97.329146 -165.706572 
L 100.896779 -172.714683 
L 104.464411 -176.667258 
L 108.032044 -170.098322 
L 111.599676 -177.57364 
L 115.167308 -177.646058 
L 118.734941 -178.508055 
L 122.302573 -178.694938 
L 125.870205 -178.881821 
L 129.437838 -190.094799 
L 133.00547 -197.383235 
L 136.573103 -199.438948 
L 140.140735 -200.373362 
L 143.708367 -202.429075 
L 147.276 -204.01758 
L 150.843632 -203.36349 
L 154.411264 -203.550373 
L 157.978897 -204.484788 
L 161.546529 -206.232143 
L 165.114161 -207.568357 
L 168.681794 -210.091277 
L 172.249426 -210.465043 
L 175.817059 -212.469362 
L 179.384691 -214.562452 
L 182.952323 -211.025691 
L 186.519956 -214.665237 
L 190.087588 -215.884649 
L 193.65522 -214.856792 
L 197.222853 -216.445298 
L 200.790485 -216.445298 
L 204.358118 -217.005946 
L 207.92575 -214.015819 
L 211.493382 -214.202702 
L 215.061015 -218.127244 
L 218.628647 -218.314127 
L 222.196279 -229.620547 
L 225.763912 -230.648403 
L 229.331544 -230.688116 
L 232.899176 -232.610674 
L 236.466809 -238.871253 
L 240.034441 -241.487615 
L 243.602074 -242.048264 
L 247.169706 -241.767939 
L 250.737338 -241.767939 
L 254.304971 -240.5532 
L 257.872603 -241.300732 
L 261.440235 -241.300732 
L 265.007868 -245.412157 
L 268.5755 -245.59904 
L 272.143132 -245.59904 
L 275.710765 -245.59904 
L 279.278397 -245.972806 
L 282.84603 -253.635008 
L 286.413662 -253.635008 
L 289.981294 -253.635008 
L 293.548927 -254.008774 
L 297.116559 -250.177673 
L 300.684191 -255.69072 
L 304.251824 -255.69072 
L 307.819456 -255.69072 
L 311.387089 -255.69072 
L 314.954721 -255.69072 
L 318.522353 -255.69072 
L 322.089986 -255.69072 
L 325.657618 -255.69072 
L 329.22525 -255.69072 
L 332.792883 -255.69072 
L 336.360515 -255.69072 
L 339.928147 -255.69072 
L 343.49578 -261.670975 
L 347.063412 -261.670975 
L 350.631045 -261.670975 
L 354.198677 -261.857858 
L 357.766309 -262.044741 
L 361.333942 -262.044741 
L 364.901574 -262.044741 
L 368.469206 -262.044741 
L 372.036839 -262.044741 
L 375.604471 -262.044741 
L 379.172104 -262.044741 
L 382.739736 -262.231624 
L 386.307368 -262.231624 
L 389.875001 -262.231624 
L 393.442633 -262.231624 
L 397.010265 -262.231624 
L 400.577898 -262.792273 
L 400.577898 -282.601868 
L 400.577898 -282.601868 
L 397.010265 -282.601868 
L 393.442633 -282.601868 
L 389.875001 -284.844463 
L 386.307368 -281.48057 
L 382.739736 -281.293687 
L 379.172104 -281.106804 
L 375.604471 -281.106804 
L 372.036839 -280.733038 
L 368.469206 -280.172389 
L 364.901574 -279.798623 
L 361.333942 -279.798623 
L 357.766309 -279.61174 
L 354.198677 -279.61174 
L 350.631045 -279.424857 
L 347.063412 -284.096931 
L 343.49578 -279.424857 
L 339.928147 -279.237974 
L 336.360515 -279.051091 
L 332.792883 -279.051091 
L 329.22525 -279.051091 
L 325.657618 -279.051091 
L 322.089986 -279.051091 
L 318.522353 -279.051091 
L 314.954721 -278.864208 
L 311.387089 -278.864208 
L 307.819456 -278.677325 
L 304.251824 -278.303559 
L 300.684191 -278.303559 
L 297.116559 -277.182262 
L 293.548927 -277.182262 
L 289.981294 -277.182262 
L 286.413662 -275.874081 
L 282.84603 -275.126549 
L 279.278397 -271.575773 
L 275.710765 -271.38889 
L 272.143132 -271.38889 
L 268.5755 -271.38889 
L 265.007868 -267.277464 
L 261.440235 -267.090581 
L 257.872603 -266.903698 
L 254.304971 -265.595518 
L 250.737338 -264.847986 
L 247.169706 -261.133687 
L 243.602074 -259.895587 
L 240.034441 -259.334938 
L 236.466809 -258.381835 
L 232.899176 -257.702048 
L 229.331544 -259.42838 
L 225.763912 -255.971045 
L 222.196279 -259.42838 
L 218.628647 -247.280987 
L 215.061015 -246.346572 
L 211.493382 -246.346572 
L 207.92575 -246.346572 
L 204.358118 -246.159689 
L 200.790485 -242.795796 
L 197.222853 -242.42203 
L 193.65522 -241.394174 
L 190.087588 -241.207291 
L 186.519956 -241.674498 
L 182.952323 -240.740083 
L 179.384691 -240.179434 
L 175.817059 -239.450591 
L 172.249426 -239.338461 
L 168.681794 -238.123722 
L 165.114161 -237.936839 
L 161.546529 -237.563073 
L 157.978897 -235.974567 
L 154.411264 -237.563073 
L 150.843632 -237.563073 
L 147.276 -226.910744 
L 143.708367 -226.723861 
L 140.140735 -224.948472 
L 136.573103 -224.387824 
L 133.00547 -218.687893 
L 129.437838 -213.361729 
L 125.870205 -209.250303 
L 122.302573 -207.661798 
L 118.734941 -213.268287 
L 115.167308 -201.214336 
L 111.599676 -199.158623 
L 108.032044 -207.101149 
L 104.464411 -196.635703 
L 100.896779 -198.878299 
L 97.329146 -182.712922 
L 93.761514 -175.704811 
L 90.193882 -165.239365 
L 86.626249 -151.783791 
L 83.058617 -148.046132 
L 79.490985 -126.367708 
L 75.923352 -96.840199 
z
" id="m905673e1ae" style="stroke:#d62728;stroke-opacity:0.2;"/>
    </defs>
    <g clip-path="url(#pdb15de3e85)">
     <use style="fill:#d62728;fill-opacity:0.2;stroke:#d62728;stroke-opacity:0.2;" x="0" xlink:href="#m905673e1ae" y="325.986375"/>
    </g>
   </g>
   <g id="PolyCollection_3">
    <defs>
     <path d="M 75.923352 -110.868102 
L 75.923352 -49.65225 
L 79.490985 -76.283073 
L 83.058617 -115.902262 
L 86.626249 -128.236537 
L 90.193882 -137.762897 
L 93.761514 -143.990771 
L 97.329146 -149.914961 
L 100.896779 -154.680477 
L 104.464411 -158.511578 
L 108.032044 -161.478345 
L 111.599676 -164.30495 
L 115.167308 -167.108194 
L 118.734941 -169.724556 
L 122.302573 -170.098322 
L 125.870205 -170.845854 
L 129.437838 -171.593386 
L 133.00547 -172.247476 
L 136.573103 -173.275332 
L 140.140735 -174.583513 
L 143.708367 -175.331045 
L 147.276 -175.704811 
L 150.843632 -176.078577 
L 154.411264 -177.57364 
L 157.978897 -176.826109 
L 161.546529 -178.134289 
L 165.114161 -178.694938 
L 168.681794 -181.3113 
L 172.249426 -180.283444 
L 175.817059 -181.871949 
L 179.384691 -181.871949 
L 182.952323 -184.48831 
L 186.519956 -184.48831 
L 190.087588 -182.993247 
L 193.65522 -184.565399 
L 197.222853 -183.553895 
L 200.790485 -183.740778 
L 204.358118 -184.862076 
L 207.92575 -185.235842 
L 211.493382 -184.862076 
L 215.061015 -185.796491 
L 218.628647 -186.170257 
L 222.196279 -186.170257 
L 225.763912 -186.730906 
L 229.331544 -186.730906 
L 232.899176 -186.544023 
L 236.466809 -189.134688 
L 240.034441 -186.544023 
L 243.602074 -189.53415 
L 247.169706 -188.973501 
L 250.737338 -189.721033 
L 254.304971 -187.665321 
L 257.872603 -189.53415 
L 261.440235 -187.943309 
L 265.007868 -190.094799 
L 268.5755 -190.281682 
L 272.143132 -190.646104 
L 275.710765 -190.842331 
L 279.278397 -190.281682 
L 282.84603 -190.281682 
L 286.413662 -190.655448 
L 289.981294 -191.589863 
L 293.548927 -190.842331 
L 297.116559 -190.842331 
L 300.684191 -191.963629 
L 304.251824 -191.963629 
L 307.819456 -191.40298 
L 311.387089 -191.963629 
L 314.954721 -194.206225 
L 318.522353 -191.589863 
L 322.089986 -194.206225 
L 325.657618 -194.206225 
L 329.22525 -194.393107 
L 332.792883 -194.393107 
L 336.360515 -194.206225 
L 339.928147 -194.206225 
L 343.49578 -194.393107 
L 347.063412 -194.953756 
L 350.631045 -194.953756 
L 354.198677 -194.953756 
L 357.766309 -195.140639 
L 361.333942 -195.140639 
L 364.901574 -195.140639 
L 368.469206 -195.514405 
L 372.036839 -195.888171 
L 375.604471 -195.888171 
L 379.172104 -195.883499 
L 382.739736 -195.888171 
L 386.307368 -195.888171 
L 389.875001 -196.822586 
L 393.442633 -196.075054 
L 397.010265 -196.261937 
L 400.577898 -197.570118 
L 400.577898 -210.091277 
L 400.577898 -210.091277 
L 397.010265 -205.239328 
L 393.442633 -204.297905 
L 389.875001 -209.717511 
L 386.307368 -209.717511 
L 382.739736 -209.717511 
L 379.172104 -209.717511 
L 375.604471 -204.111022 
L 372.036839 -209.156862 
L 368.469206 -209.156862 
L 364.901574 -209.156862 
L 361.333942 -204.7838 
L 357.766309 -203.550373 
L 354.198677 -202.055309 
L 350.631045 -201.681543 
L 347.063412 -201.49466 
L 343.49578 -201.49466 
L 339.928147 -201.307777 
L 336.360515 -201.120894 
L 332.792883 -200.934011 
L 329.22525 -200.943355 
L 325.657618 -200.560245 
L 322.089986 -200.373362 
L 318.522353 -200.186479 
L 314.954721 -199.635175 
L 311.387089 -199.625831 
L 307.819456 -199.065182 
L 304.251824 -199.065182 
L 300.684191 -198.878299 
L 297.116559 -199.065182 
L 293.548927 -199.065182 
L 289.981294 -199.065182 
L 286.413662 -197.757001 
L 282.84603 -197.757001 
L 279.278397 -198.31765 
L 275.710765 -197.943884 
L 272.143132 -197.570118 
L 268.5755 -197.570118 
L 265.007868 -197.383235 
L 261.440235 -197.383235 
L 257.872603 -197.196352 
L 254.304971 -196.822586 
L 250.737338 -196.44882 
L 247.169706 -196.261937 
L 243.602074 -195.701288 
L 240.034441 -195.327522 
L 236.466809 -195.420964 
L 232.899176 -195.327522 
L 229.331544 -195.327522 
L 225.763912 -195.327522 
L 222.196279 -195.140639 
L 218.628647 -194.393107 
L 215.061015 -194.206225 
L 211.493382 -193.832459 
L 207.92575 -193.458693 
L 204.358118 -193.458693 
L 200.790485 -193.458693 
L 197.222853 -193.27181 
L 193.65522 -193.27181 
L 190.087588 -192.711161 
L 186.519956 -190.702169 
L 182.952323 -193.084927 
L 179.384691 -192.898044 
L 175.817059 -191.239457 
L 172.249426 -190.562007 
L 168.681794 -190.281682 
L 165.114161 -189.907916 
L 161.546529 -189.347267 
L 157.978897 -188.599736 
L 154.411264 -189.347267 
L 150.843632 -188.599736 
L 147.276 -187.478438 
L 143.708367 -186.917789 
L 140.140735 -185.796491 
L 136.573103 -185.422725 
L 133.00547 -183.927661 
L 129.437838 -184.301427 
L 125.870205 -184.114544 
L 122.302573 -183.740778 
L 118.734941 -179.643369 
L 115.167308 -179.44247 
L 111.599676 -179.068704 
L 108.032044 -176.078577 
L 104.464411 -173.088449 
L 100.896779 -167.855726 
L 97.329146 -163.931184 
L 93.761514 -157.577163 
L 90.193882 -153.932945 
L 86.626249 -148.980547 
L 83.058617 -141.878994 
L 79.490985 -131.600431 
L 75.923352 -110.868102 
z
" id="m8ed215c56e" style="stroke:#98df8a;stroke-opacity:0.2;"/>
    </defs>
    <g clip-path="url(#pdb15de3e85)">
     <use style="fill:#98df8a;fill-opacity:0.2;stroke:#98df8a;stroke-opacity:0.2;" x="0" xlink:href="#m8ed215c56e" y="325.986375"/>
    </g>
   </g>
   <g id="matplotlib.axis_1">
    <g id="xtick_1">
     <g id="line2d_1">
      <defs>
       <path d="M 0 0 
L 0 3.5 
" id="m6d33d6b503" style="stroke:#000000;stroke-width:0.8;"/>
      </defs>
      <g>
       <use style="stroke:#000000;stroke-width:0.8;" x="75.923352" xlink:href="#m6d33d6b503" y="288.430125"/>
      </g>
     </g>
     <g id="text_1">
      <!-- 15m -->
      <g transform="translate(64.69054 303.028562)scale(0.1 -0.1)">
       <defs>
        <path d="M 794 531 
L 1825 531 
L 1825 4091 
L 703 3866 
L 703 4441 
L 1819 4666 
L 2450 4666 
L 2450 531 
L 3481 531 
L 3481 0 
L 794 0 
L 794 531 
z
" id="DejaVuSans-31" transform="scale(0.015625)"/>
        <path d="M 691 4666 
L 3169 4666 
L 3169 4134 
L 1269 4134 
L 1269 2991 
Q 1406 3038 1543 3061 
Q 1681 3084 1819 3084 
Q 2600 3084 3056 2656 
Q 3513 2228 3513 1497 
Q 3513 744 3044 326 
Q 2575 -91 1722 -91 
Q 1428 -91 1123 -41 
Q 819 9 494 109 
L 494 744 
Q 775 591 1075 516 
Q 1375 441 1709 441 
Q 2250 441 2565 725 
Q 2881 1009 2881 1497 
Q 2881 1984 2565 2268 
Q 2250 2553 1709 2553 
Q 1456 2553 1204 2497 
Q 953 2441 691 2322 
L 691 4666 
z
" id="DejaVuSans-35" transform="scale(0.015625)"/>
        <path d="M 3328 2828 
Q 3544 3216 3844 3400 
Q 4144 3584 4550 3584 
Q 5097 3584 5394 3201 
Q 5691 2819 5691 2113 
L 5691 0 
L 5113 0 
L 5113 2094 
Q 5113 2597 4934 2840 
Q 4756 3084 4391 3084 
Q 3944 3084 3684 2787 
Q 3425 2491 3425 1978 
L 3425 0 
L 2847 0 
L 2847 2094 
Q 2847 2600 2669 2842 
Q 2491 3084 2119 3084 
Q 1678 3084 1418 2786 
Q 1159 2488 1159 1978 
L 1159 0 
L 581 0 
L 581 3500 
L 1159 3500 
L 1159 2956 
Q 1356 3278 1631 3431 
Q 1906 3584 2284 3584 
Q 2666 3584 2933 3390 
Q 3200 3197 3328 2828 
z
" id="DejaVuSans-6d" transform="scale(0.015625)"/>
       </defs>
       <use xlink:href="#DejaVuSans-31"/>
       <use x="63.623047" xlink:href="#DejaVuSans-35"/>
       <use x="127.246094" xlink:href="#DejaVuSans-6d"/>
      </g>
     </g>
    </g>
    <g id="xtick_2">
     <g id="line2d_2">
      <g>
       <use style="stroke:#000000;stroke-width:0.8;" x="130.627049" xlink:href="#m6d33d6b503" y="288.430125"/>
      </g>
     </g>
     <g id="text_2">
      <!-- 4h:5m -->
      <g transform="translate(114.541111 303.028562)scale(0.1 -0.1)">
       <defs>
        <path d="M 2419 4116 
L 825 1625 
L 2419 1625 
L 2419 4116 
z
M 2253 4666 
L 3047 4666 
L 3047 1625 
L 3713 1625 
L 3713 1100 
L 3047 1100 
L 3047 0 
L 2419 0 
L 2419 1100 
L 313 1100 
L 313 1709 
L 2253 4666 
z
" id="DejaVuSans-34" transform="scale(0.015625)"/>
        <path d="M 3513 2113 
L 3513 0 
L 2938 0 
L 2938 2094 
Q 2938 2591 2744 2837 
Q 2550 3084 2163 3084 
Q 1697 3084 1428 2787 
Q 1159 2491 1159 1978 
L 1159 0 
L 581 0 
L 581 4863 
L 1159 4863 
L 1159 2956 
Q 1366 3272 1645 3428 
Q 1925 3584 2291 3584 
Q 2894 3584 3203 3211 
Q 3513 2838 3513 2113 
z
" id="DejaVuSans-68" transform="scale(0.015625)"/>
        <path d="M 750 794 
L 1409 794 
L 1409 0 
L 750 0 
L 750 794 
z
M 750 3309 
L 1409 3309 
L 1409 2516 
L 750 2516 
L 750 3309 
z
" id="DejaVuSans-3a" transform="scale(0.015625)"/>
       </defs>
       <use xlink:href="#DejaVuSans-34"/>
       <use x="63.623047" xlink:href="#DejaVuSans-68"/>
       <use x="127.001953" xlink:href="#DejaVuSans-3a"/>
       <use x="160.693359" xlink:href="#DejaVuSans-35"/>
       <use x="224.316406" xlink:href="#DejaVuSans-6d"/>
      </g>
     </g>
    </g>
    <g id="xtick_3">
     <g id="line2d_3">
      <g>
       <use style="stroke:#000000;stroke-width:0.8;" x="185.330745" xlink:href="#m6d33d6b503" y="288.430125"/>
      </g>
     </g>
     <g id="text_3">
      <!-- 7h:55m -->
      <g transform="translate(166.063557 303.028562)scale(0.1 -0.1)">
       <defs>
        <path d="M 525 4666 
L 3525 4666 
L 3525 4397 
L 1831 0 
L 1172 0 
L 2766 4134 
L 525 4134 
L 525 4666 
z
" id="DejaVuSans-37" transform="scale(0.015625)"/>
       </defs>
       <use xlink:href="#DejaVuSans-37"/>
       <use x="63.623047" xlink:href="#DejaVuSans-68"/>
       <use x="127.001953" xlink:href="#DejaVuSans-3a"/>
       <use x="160.693359" xlink:href="#DejaVuSans-35"/>
       <use x="224.316406" xlink:href="#DejaVuSans-35"/>
       <use x="287.939453" xlink:href="#DejaVuSans-6d"/>
      </g>
     </g>
    </g>
    <g id="xtick_4">
     <g id="line2d_4">
      <g>
       <use style="stroke:#000000;stroke-width:0.8;" x="240.034441" xlink:href="#m6d33d6b503" y="288.430125"/>
      </g>
     </g>
     <g id="text_4">
      <!-- 11h:45m -->
      <g transform="translate(217.586004 303.028562)scale(0.1 -0.1)">
       <use xlink:href="#DejaVuSans-31"/>
       <use x="63.623047" xlink:href="#DejaVuSans-31"/>
       <use x="127.246094" xlink:href="#DejaVuSans-68"/>
       <use x="190.625" xlink:href="#DejaVuSans-3a"/>
       <use x="224.316406" xlink:href="#DejaVuSans-34"/>
       <use x="287.939453" xlink:href="#DejaVuSans-35"/>
       <use x="351.5625" xlink:href="#DejaVuSans-6d"/>
      </g>
     </g>
    </g>
    <g id="xtick_5">
     <g id="line2d_5">
      <g>
       <use style="stroke:#000000;stroke-width:0.8;" x="294.738137" xlink:href="#m6d33d6b503" y="288.430125"/>
      </g>
     </g>
     <g id="text_5">
      <!-- 15h:35m -->
      <g transform="translate(272.2897 303.028562)scale(0.1 -0.1)">
       <defs>
        <path d="M 2597 2516 
Q 3050 2419 3304 2112 
Q 3559 1806 3559 1356 
Q 3559 666 3084 287 
Q 2609 -91 1734 -91 
Q 1441 -91 1130 -33 
Q 819 25 488 141 
L 488 750 
Q 750 597 1062 519 
Q 1375 441 1716 441 
Q 2309 441 2620 675 
Q 2931 909 2931 1356 
Q 2931 1769 2642 2001 
Q 2353 2234 1838 2234 
L 1294 2234 
L 1294 2753 
L 1863 2753 
Q 2328 2753 2575 2939 
Q 2822 3125 2822 3475 
Q 2822 3834 2567 4026 
Q 2313 4219 1838 4219 
Q 1578 4219 1281 4162 
Q 984 4106 628 3988 
L 628 4550 
Q 988 4650 1302 4700 
Q 1616 4750 1894 4750 
Q 2613 4750 3031 4423 
Q 3450 4097 3450 3541 
Q 3450 3153 3228 2886 
Q 3006 2619 2597 2516 
z
" id="DejaVuSans-33" transform="scale(0.015625)"/>
       </defs>
       <use xlink:href="#DejaVuSans-31"/>
       <use x="63.623047" xlink:href="#DejaVuSans-35"/>
       <use x="127.246094" xlink:href="#DejaVuSans-68"/>
       <use x="190.625" xlink:href="#DejaVuSans-3a"/>
       <use x="224.316406" xlink:href="#DejaVuSans-33"/>
       <use x="287.939453" xlink:href="#DejaVuSans-35"/>
       <use x="351.5625" xlink:href="#DejaVuSans-6d"/>
      </g>
     </g>
    </g>
    <g id="xtick_6">
     <g id="line2d_6">
      <g>
       <use style="stroke:#000000;stroke-width:0.8;" x="349.441834" xlink:href="#m6d33d6b503" y="288.430125"/>
      </g>
     </g>
     <g id="text_6">
      <!-- 19h:25m -->
      <g transform="translate(326.993396 303.028562)scale(0.1 -0.1)">
       <defs>
        <path d="M 703 97 
L 703 672 
Q 941 559 1184 500 
Q 1428 441 1663 441 
Q 2288 441 2617 861 
Q 2947 1281 2994 2138 
Q 2813 1869 2534 1725 
Q 2256 1581 1919 1581 
Q 1219 1581 811 2004 
Q 403 2428 403 3163 
Q 403 3881 828 4315 
Q 1253 4750 1959 4750 
Q 2769 4750 3195 4129 
Q 3622 3509 3622 2328 
Q 3622 1225 3098 567 
Q 2575 -91 1691 -91 
Q 1453 -91 1209 -44 
Q 966 3 703 97 
z
M 1959 2075 
Q 2384 2075 2632 2365 
Q 2881 2656 2881 3163 
Q 2881 3666 2632 3958 
Q 2384 4250 1959 4250 
Q 1534 4250 1286 3958 
Q 1038 3666 1038 3163 
Q 1038 2656 1286 2365 
Q 1534 2075 1959 2075 
z
" id="DejaVuSans-39" transform="scale(0.015625)"/>
        <path d="M 1228 531 
L 3431 531 
L 3431 0 
L 469 0 
L 469 531 
Q 828 903 1448 1529 
Q 2069 2156 2228 2338 
Q 2531 2678 2651 2914 
Q 2772 3150 2772 3378 
Q 2772 3750 2511 3984 
Q 2250 4219 1831 4219 
Q 1534 4219 1204 4116 
Q 875 4013 500 3803 
L 500 4441 
Q 881 4594 1212 4672 
Q 1544 4750 1819 4750 
Q 2544 4750 2975 4387 
Q 3406 4025 3406 3419 
Q 3406 3131 3298 2873 
Q 3191 2616 2906 2266 
Q 2828 2175 2409 1742 
Q 1991 1309 1228 531 
z
" id="DejaVuSans-32" transform="scale(0.015625)"/>
       </defs>
       <use xlink:href="#DejaVuSans-31"/>
       <use x="63.623047" xlink:href="#DejaVuSans-39"/>
       <use x="127.246094" xlink:href="#DejaVuSans-68"/>
       <use x="190.625" xlink:href="#DejaVuSans-3a"/>
       <use x="224.316406" xlink:href="#DejaVuSans-32"/>
       <use x="287.939453" xlink:href="#DejaVuSans-35"/>
       <use x="351.5625" xlink:href="#DejaVuSans-6d"/>
      </g>
     </g>
    </g>
    <g id="text_7">
     <!-- Time (hour:minute) -->
     <g transform="translate(189.843594 316.706687)scale(0.1 -0.1)">
      <defs>
       <path d="M -19 4666 
L 3928 4666 
L 3928 4134 
L 2272 4134 
L 2272 0 
L 1638 0 
L 1638 4134 
L -19 4134 
L -19 4666 
z
" id="DejaVuSans-54" transform="scale(0.015625)"/>
       <path d="M 603 3500 
L 1178 3500 
L 1178 0 
L 603 0 
L 603 3500 
z
M 603 4863 
L 1178 4863 
L 1178 4134 
L 603 4134 
L 603 4863 
z
" id="DejaVuSans-69" transform="scale(0.015625)"/>
       <path d="M 3597 1894 
L 3597 1613 
L 953 1613 
Q 991 1019 1311 708 
Q 1631 397 2203 397 
Q 2534 397 2845 478 
Q 3156 559 3463 722 
L 3463 178 
Q 3153 47 2828 -22 
Q 2503 -91 2169 -91 
Q 1331 -91 842 396 
Q 353 884 353 1716 
Q 353 2575 817 3079 
Q 1281 3584 2069 3584 
Q 2775 3584 3186 3129 
Q 3597 2675 3597 1894 
z
M 3022 2063 
Q 3016 2534 2758 2815 
Q 2500 3097 2075 3097 
Q 1594 3097 1305 2825 
Q 1016 2553 972 2059 
L 3022 2063 
z
" id="DejaVuSans-65" transform="scale(0.015625)"/>
       <path id="DejaVuSans-20" transform="scale(0.015625)"/>
       <path d="M 1984 4856 
Q 1566 4138 1362 3434 
Q 1159 2731 1159 2009 
Q 1159 1288 1364 580 
Q 1569 -128 1984 -844 
L 1484 -844 
Q 1016 -109 783 600 
Q 550 1309 550 2009 
Q 550 2706 781 3412 
Q 1013 4119 1484 4856 
L 1984 4856 
z
" id="DejaVuSans-28" transform="scale(0.015625)"/>
       <path d="M 1959 3097 
Q 1497 3097 1228 2736 
Q 959 2375 959 1747 
Q 959 1119 1226 758 
Q 1494 397 1959 397 
Q 2419 397 2687 759 
Q 2956 1122 2956 1747 
Q 2956 2369 2687 2733 
Q 2419 3097 1959 3097 
z
M 1959 3584 
Q 2709 3584 3137 3096 
Q 3566 2609 3566 1747 
Q 3566 888 3137 398 
Q 2709 -91 1959 -91 
Q 1206 -91 779 398 
Q 353 888 353 1747 
Q 353 2609 779 3096 
Q 1206 3584 1959 3584 
z
" id="DejaVuSans-6f" transform="scale(0.015625)"/>
       <path d="M 544 1381 
L 544 3500 
L 1119 3500 
L 1119 1403 
Q 1119 906 1312 657 
Q 1506 409 1894 409 
Q 2359 409 2629 706 
Q 2900 1003 2900 1516 
L 2900 3500 
L 3475 3500 
L 3475 0 
L 2900 0 
L 2900 538 
Q 2691 219 2414 64 
Q 2138 -91 1772 -91 
Q 1169 -91 856 284 
Q 544 659 544 1381 
z
M 1991 3584 
L 1991 3584 
z
" id="DejaVuSans-75" transform="scale(0.015625)"/>
       <path d="M 2631 2963 
Q 2534 3019 2420 3045 
Q 2306 3072 2169 3072 
Q 1681 3072 1420 2755 
Q 1159 2438 1159 1844 
L 1159 0 
L 581 0 
L 581 3500 
L 1159 3500 
L 1159 2956 
Q 1341 3275 1631 3429 
Q 1922 3584 2338 3584 
Q 2397 3584 2469 3576 
Q 2541 3569 2628 3553 
L 2631 2963 
z
" id="DejaVuSans-72" transform="scale(0.015625)"/>
       <path d="M 3513 2113 
L 3513 0 
L 2938 0 
L 2938 2094 
Q 2938 2591 2744 2837 
Q 2550 3084 2163 3084 
Q 1697 3084 1428 2787 
Q 1159 2491 1159 1978 
L 1159 0 
L 581 0 
L 581 3500 
L 1159 3500 
L 1159 2956 
Q 1366 3272 1645 3428 
Q 1925 3584 2291 3584 
Q 2894 3584 3203 3211 
Q 3513 2838 3513 2113 
z
" id="DejaVuSans-6e" transform="scale(0.015625)"/>
       <path d="M 1172 4494 
L 1172 3500 
L 2356 3500 
L 2356 3053 
L 1172 3053 
L 1172 1153 
Q 1172 725 1289 603 
Q 1406 481 1766 481 
L 2356 481 
L 2356 0 
L 1766 0 
Q 1100 0 847 248 
Q 594 497 594 1153 
L 594 3053 
L 172 3053 
L 172 3500 
L 594 3500 
L 594 4494 
L 1172 4494 
z
" id="DejaVuSans-74" transform="scale(0.015625)"/>
       <path d="M 513 4856 
L 1013 4856 
Q 1481 4119 1714 3412 
Q 1947 2706 1947 2009 
Q 1947 1309 1714 600 
Q 1481 -109 1013 -844 
L 513 -844 
Q 928 -128 1133 580 
Q 1338 1288 1338 2009 
Q 1338 2731 1133 3434 
Q 928 4138 513 4856 
z
" id="DejaVuSans-29" transform="scale(0.015625)"/>
      </defs>
      <use xlink:href="#DejaVuSans-54"/>
      <use x="57.958984" xlink:href="#DejaVuSans-69"/>
      <use x="85.742188" xlink:href="#DejaVuSans-6d"/>
      <use x="183.154297" xlink:href="#DejaVuSans-65"/>
      <use x="244.677734" xlink:href="#DejaVuSans-20"/>
      <use x="276.464844" xlink:href="#DejaVuSans-28"/>
      <use x="315.478516" xlink:href="#DejaVuSans-68"/>
      <use x="378.857422" xlink:href="#DejaVuSans-6f"/>
      <use x="440.039062" xlink:href="#DejaVuSans-75"/>
      <use x="503.417969" xlink:href="#DejaVuSans-72"/>
      <use x="542.78125" xlink:href="#DejaVuSans-3a"/>
      <use x="576.472656" xlink:href="#DejaVuSans-6d"/>
      <use x="673.884766" xlink:href="#DejaVuSans-69"/>
      <use x="701.667969" xlink:href="#DejaVuSans-6e"/>
      <use x="765.046875" xlink:href="#DejaVuSans-75"/>
      <use x="828.425781" xlink:href="#DejaVuSans-74"/>
      <use x="867.634766" xlink:href="#DejaVuSans-65"/>
      <use x="929.158203" xlink:href="#DejaVuSans-29"/>
     </g>
    </g>
   </g>
   <g id="matplotlib.axis_2">
    <g id="ytick_1">
     <g id="line2d_7">
      <defs>
       <path d="M 0 0 
L -3.5 0 
" id="m2c570d02b1" style="stroke:#000000;stroke-width:0.8;"/>
      </defs>
      <g>
       <use style="stroke:#000000;stroke-width:0.8;" x="59.690625" xlink:href="#m2c570d02b1" y="284.8373"/>
      </g>
     </g>
     <g id="text_8">
      <!-- 13000 -->
      <g transform="translate(20.878125 288.636519)scale(0.1 -0.1)">
       <defs>
        <path d="M 2034 4250 
Q 1547 4250 1301 3770 
Q 1056 3291 1056 2328 
Q 1056 1369 1301 889 
Q 1547 409 2034 409 
Q 2525 409 2770 889 
Q 3016 1369 3016 2328 
Q 3016 3291 2770 3770 
Q 2525 4250 2034 4250 
z
M 2034 4750 
Q 2819 4750 3233 4129 
Q 3647 3509 3647 2328 
Q 3647 1150 3233 529 
Q 2819 -91 2034 -91 
Q 1250 -91 836 529 
Q 422 1150 422 2328 
Q 422 3509 836 4129 
Q 1250 4750 2034 4750 
z
" id="DejaVuSans-30" transform="scale(0.015625)"/>
       </defs>
       <use xlink:href="#DejaVuSans-31"/>
       <use x="63.623047" xlink:href="#DejaVuSans-33"/>
       <use x="127.246094" xlink:href="#DejaVuSans-30"/>
       <use x="190.869141" xlink:href="#DejaVuSans-30"/>
       <use x="254.492188" xlink:href="#DejaVuSans-30"/>
      </g>
     </g>
    </g>
    <g id="ytick_2">
     <g id="line2d_8">
      <g>
       <use style="stroke:#000000;stroke-width:0.8;" x="59.690625" xlink:href="#m2c570d02b1" y="247.460707"/>
      </g>
     </g>
     <g id="text_9">
      <!-- 13200 -->
      <g transform="translate(20.878125 251.259925)scale(0.1 -0.1)">
       <use xlink:href="#DejaVuSans-31"/>
       <use x="63.623047" xlink:href="#DejaVuSans-33"/>
       <use x="127.246094" xlink:href="#DejaVuSans-32"/>
       <use x="190.869141" xlink:href="#DejaVuSans-30"/>
       <use x="254.492188" xlink:href="#DejaVuSans-30"/>
      </g>
     </g>
    </g>
    <g id="ytick_3">
     <g id="line2d_9">
      <g>
       <use style="stroke:#000000;stroke-width:0.8;" x="59.690625" xlink:href="#m2c570d02b1" y="210.084113"/>
      </g>
     </g>
     <g id="text_10">
      <!-- 13400 -->
      <g transform="translate(20.878125 213.883332)scale(0.1 -0.1)">
       <use xlink:href="#DejaVuSans-31"/>
       <use x="63.623047" xlink:href="#DejaVuSans-33"/>
       <use x="127.246094" xlink:href="#DejaVuSans-34"/>
       <use x="190.869141" xlink:href="#DejaVuSans-30"/>
       <use x="254.492188" xlink:href="#DejaVuSans-30"/>
      </g>
     </g>
    </g>
    <g id="ytick_4">
     <g id="line2d_10">
      <g>
       <use style="stroke:#000000;stroke-width:0.8;" x="59.690625" xlink:href="#m2c570d02b1" y="172.70752"/>
      </g>
     </g>
     <g id="text_11">
      <!-- 13600 -->
      <g transform="translate(20.878125 176.506739)scale(0.1 -0.1)">
       <defs>
        <path d="M 2113 2584 
Q 1688 2584 1439 2293 
Q 1191 2003 1191 1497 
Q 1191 994 1439 701 
Q 1688 409 2113 409 
Q 2538 409 2786 701 
Q 3034 994 3034 1497 
Q 3034 2003 2786 2293 
Q 2538 2584 2113 2584 
z
M 3366 4563 
L 3366 3988 
Q 3128 4100 2886 4159 
Q 2644 4219 2406 4219 
Q 1781 4219 1451 3797 
Q 1122 3375 1075 2522 
Q 1259 2794 1537 2939 
Q 1816 3084 2150 3084 
Q 2853 3084 3261 2657 
Q 3669 2231 3669 1497 
Q 3669 778 3244 343 
Q 2819 -91 2113 -91 
Q 1303 -91 875 529 
Q 447 1150 447 2328 
Q 447 3434 972 4092 
Q 1497 4750 2381 4750 
Q 2619 4750 2861 4703 
Q 3103 4656 3366 4563 
z
" id="DejaVuSans-36" transform="scale(0.015625)"/>
       </defs>
       <use xlink:href="#DejaVuSans-31"/>
       <use x="63.623047" xlink:href="#DejaVuSans-33"/>
       <use x="127.246094" xlink:href="#DejaVuSans-36"/>
       <use x="190.869141" xlink:href="#DejaVuSans-30"/>
       <use x="254.492188" xlink:href="#DejaVuSans-30"/>
      </g>
     </g>
    </g>
    <g id="ytick_5">
     <g id="line2d_11">
      <g>
       <use style="stroke:#000000;stroke-width:0.8;" x="59.690625" xlink:href="#m2c570d02b1" y="135.330927"/>
      </g>
     </g>
     <g id="text_12">
      <!-- 13800 -->
      <g transform="translate(20.878125 139.130146)scale(0.1 -0.1)">
       <defs>
        <path d="M 2034 2216 
Q 1584 2216 1326 1975 
Q 1069 1734 1069 1313 
Q 1069 891 1326 650 
Q 1584 409 2034 409 
Q 2484 409 2743 651 
Q 3003 894 3003 1313 
Q 3003 1734 2745 1975 
Q 2488 2216 2034 2216 
z
M 1403 2484 
Q 997 2584 770 2862 
Q 544 3141 544 3541 
Q 544 4100 942 4425 
Q 1341 4750 2034 4750 
Q 2731 4750 3128 4425 
Q 3525 4100 3525 3541 
Q 3525 3141 3298 2862 
Q 3072 2584 2669 2484 
Q 3125 2378 3379 2068 
Q 3634 1759 3634 1313 
Q 3634 634 3220 271 
Q 2806 -91 2034 -91 
Q 1263 -91 848 271 
Q 434 634 434 1313 
Q 434 1759 690 2068 
Q 947 2378 1403 2484 
z
M 1172 3481 
Q 1172 3119 1398 2916 
Q 1625 2713 2034 2713 
Q 2441 2713 2670 2916 
Q 2900 3119 2900 3481 
Q 2900 3844 2670 4047 
Q 2441 4250 2034 4250 
Q 1625 4250 1398 4047 
Q 1172 3844 1172 3481 
z
" id="DejaVuSans-38" transform="scale(0.015625)"/>
       </defs>
       <use xlink:href="#DejaVuSans-31"/>
       <use x="63.623047" xlink:href="#DejaVuSans-33"/>
       <use x="127.246094" xlink:href="#DejaVuSans-38"/>
       <use x="190.869141" xlink:href="#DejaVuSans-30"/>
       <use x="254.492188" xlink:href="#DejaVuSans-30"/>
      </g>
     </g>
    </g>
    <g id="ytick_6">
     <g id="line2d_12">
      <g>
       <use style="stroke:#000000;stroke-width:0.8;" x="59.690625" xlink:href="#m2c570d02b1" y="97.954334"/>
      </g>
     </g>
     <g id="text_13">
      <!-- 14000 -->
      <g transform="translate(20.878125 101.753552)scale(0.1 -0.1)">
       <use xlink:href="#DejaVuSans-31"/>
       <use x="63.623047" xlink:href="#DejaVuSans-34"/>
       <use x="127.246094" xlink:href="#DejaVuSans-30"/>
       <use x="190.869141" xlink:href="#DejaVuSans-30"/>
       <use x="254.492188" xlink:href="#DejaVuSans-30"/>
      </g>
     </g>
    </g>
    <g id="ytick_7">
     <g id="line2d_13">
      <g>
       <use style="stroke:#000000;stroke-width:0.8;" x="59.690625" xlink:href="#m2c570d02b1" y="60.57774"/>
      </g>
     </g>
     <g id="text_14">
      <!-- 14200 -->
      <g transform="translate(20.878125 64.376959)scale(0.1 -0.1)">
       <use xlink:href="#DejaVuSans-31"/>
       <use x="63.623047" xlink:href="#DejaVuSans-34"/>
       <use x="127.246094" xlink:href="#DejaVuSans-32"/>
       <use x="190.869141" xlink:href="#DejaVuSans-30"/>
       <use x="254.492188" xlink:href="#DejaVuSans-30"/>
      </g>
     </g>
    </g>
    <g id="ytick_8">
     <g id="line2d_14">
      <g>
       <use style="stroke:#000000;stroke-width:0.8;" x="59.690625" xlink:href="#m2c570d02b1" y="23.201147"/>
      </g>
     </g>
     <g id="text_15">
      <!-- 14400 -->
      <g transform="translate(20.878125 27.000366)scale(0.1 -0.1)">
       <use xlink:href="#DejaVuSans-31"/>
       <use x="63.623047" xlink:href="#DejaVuSans-34"/>
       <use x="127.246094" xlink:href="#DejaVuSans-34"/>
       <use x="190.869141" xlink:href="#DejaVuSans-30"/>
       <use x="254.492188" xlink:href="#DejaVuSans-30"/>
      </g>
     </g>
    </g>
    <g id="text_16">
     <!-- Code region coverage -->
     <g transform="translate(14.798438 210.379594)rotate(-90)scale(0.1 -0.1)">
      <defs>
       <path d="M 4122 4306 
L 4122 3641 
Q 3803 3938 3442 4084 
Q 3081 4231 2675 4231 
Q 1875 4231 1450 3742 
Q 1025 3253 1025 2328 
Q 1025 1406 1450 917 
Q 1875 428 2675 428 
Q 3081 428 3442 575 
Q 3803 722 4122 1019 
L 4122 359 
Q 3791 134 3420 21 
Q 3050 -91 2638 -91 
Q 1578 -91 968 557 
Q 359 1206 359 2328 
Q 359 3453 968 4101 
Q 1578 4750 2638 4750 
Q 3056 4750 3426 4639 
Q 3797 4528 4122 4306 
z
" id="DejaVuSans-43" transform="scale(0.015625)"/>
       <path d="M 2906 2969 
L 2906 4863 
L 3481 4863 
L 3481 0 
L 2906 0 
L 2906 525 
Q 2725 213 2448 61 
Q 2172 -91 1784 -91 
Q 1150 -91 751 415 
Q 353 922 353 1747 
Q 353 2572 751 3078 
Q 1150 3584 1784 3584 
Q 2172 3584 2448 3432 
Q 2725 3281 2906 2969 
z
M 947 1747 
Q 947 1113 1208 752 
Q 1469 391 1925 391 
Q 2381 391 2643 752 
Q 2906 1113 2906 1747 
Q 2906 2381 2643 2742 
Q 2381 3103 1925 3103 
Q 1469 3103 1208 2742 
Q 947 2381 947 1747 
z
" id="DejaVuSans-64" transform="scale(0.015625)"/>
       <path d="M 2906 1791 
Q 2906 2416 2648 2759 
Q 2391 3103 1925 3103 
Q 1463 3103 1205 2759 
Q 947 2416 947 1791 
Q 947 1169 1205 825 
Q 1463 481 1925 481 
Q 2391 481 2648 825 
Q 2906 1169 2906 1791 
z
M 3481 434 
Q 3481 -459 3084 -895 
Q 2688 -1331 1869 -1331 
Q 1566 -1331 1297 -1286 
Q 1028 -1241 775 -1147 
L 775 -588 
Q 1028 -725 1275 -790 
Q 1522 -856 1778 -856 
Q 2344 -856 2625 -561 
Q 2906 -266 2906 331 
L 2906 616 
Q 2728 306 2450 153 
Q 2172 0 1784 0 
Q 1141 0 747 490 
Q 353 981 353 1791 
Q 353 2603 747 3093 
Q 1141 3584 1784 3584 
Q 2172 3584 2450 3431 
Q 2728 3278 2906 2969 
L 2906 3500 
L 3481 3500 
L 3481 434 
z
" id="DejaVuSans-67" transform="scale(0.015625)"/>
       <path d="M 3122 3366 
L 3122 2828 
Q 2878 2963 2633 3030 
Q 2388 3097 2138 3097 
Q 1578 3097 1268 2742 
Q 959 2388 959 1747 
Q 959 1106 1268 751 
Q 1578 397 2138 397 
Q 2388 397 2633 464 
Q 2878 531 3122 666 
L 3122 134 
Q 2881 22 2623 -34 
Q 2366 -91 2075 -91 
Q 1284 -91 818 406 
Q 353 903 353 1747 
Q 353 2603 823 3093 
Q 1294 3584 2113 3584 
Q 2378 3584 2631 3529 
Q 2884 3475 3122 3366 
z
" id="DejaVuSans-63" transform="scale(0.015625)"/>
       <path d="M 191 3500 
L 800 3500 
L 1894 563 
L 2988 3500 
L 3597 3500 
L 2284 0 
L 1503 0 
L 191 3500 
z
" id="DejaVuSans-76" transform="scale(0.015625)"/>
       <path d="M 2194 1759 
Q 1497 1759 1228 1600 
Q 959 1441 959 1056 
Q 959 750 1161 570 
Q 1363 391 1709 391 
Q 2188 391 2477 730 
Q 2766 1069 2766 1631 
L 2766 1759 
L 2194 1759 
z
M 3341 1997 
L 3341 0 
L 2766 0 
L 2766 531 
Q 2569 213 2275 61 
Q 1981 -91 1556 -91 
Q 1019 -91 701 211 
Q 384 513 384 1019 
Q 384 1609 779 1909 
Q 1175 2209 1959 2209 
L 2766 2209 
L 2766 2266 
Q 2766 2663 2505 2880 
Q 2244 3097 1772 3097 
Q 1472 3097 1187 3025 
Q 903 2953 641 2809 
L 641 3341 
Q 956 3463 1253 3523 
Q 1550 3584 1831 3584 
Q 2591 3584 2966 3190 
Q 3341 2797 3341 1997 
z
" id="DejaVuSans-61" transform="scale(0.015625)"/>
      </defs>
      <use xlink:href="#DejaVuSans-43"/>
      <use x="69.824219" xlink:href="#DejaVuSans-6f"/>
      <use x="131.005859" xlink:href="#DejaVuSans-64"/>
      <use x="194.482422" xlink:href="#DejaVuSans-65"/>
      <use x="256.005859" xlink:href="#DejaVuSans-20"/>
      <use x="287.792969" xlink:href="#DejaVuSans-72"/>
      <use x="326.65625" xlink:href="#DejaVuSans-65"/>
      <use x="388.179688" xlink:href="#DejaVuSans-67"/>
      <use x="451.65625" xlink:href="#DejaVuSans-69"/>
      <use x="479.439453" xlink:href="#DejaVuSans-6f"/>
      <use x="540.621094" xlink:href="#DejaVuSans-6e"/>
      <use x="604" xlink:href="#DejaVuSans-20"/>
      <use x="635.787109" xlink:href="#DejaVuSans-63"/>
      <use x="690.767578" xlink:href="#DejaVuSans-6f"/>
      <use x="751.949219" xlink:href="#DejaVuSans-76"/>
      <use x="811.128906" xlink:href="#DejaVuSans-65"/>
      <use x="872.652344" xlink:href="#DejaVuSans-72"/>
      <use x="913.765625" xlink:href="#DejaVuSans-61"/>
      <use x="975.044922" xlink:href="#DejaVuSans-67"/>
      <use x="1038.521484" xlink:href="#DejaVuSans-65"/>
     </g>
    </g>
   </g>
   <g id="line2d_15">
    <path clip-path="url(#pdb15de3e85)" d="M 75.923352 221.85774 
L 79.490985 195.507242 
L 83.058617 173.641935 
L 86.626249 160.09292 
L 90.193882 140.750533 
L 93.761514 139.816118 
L 97.329146 129.817879 
L 100.896779 127.294959 
L 104.464411 123.931066 
L 108.032044 118.51146 
L 111.599676 111.409907 
L 115.167308 103.654264 
L 118.734941 110.475492 
L 122.302573 102.906732 
L 125.870205 102.626408 
L 129.437838 103.187057 
L 133.00547 101.131344 
L 136.573103 98.141217 
L 140.140735 96.085504 
L 143.708367 95.244531 
L 147.276 95.151089 
L 150.843632 94.870765 
L 154.411264 92.908493 
L 157.978897 91.600313 
L 161.546529 90.105249 
L 165.114161 88.516744 
L 168.681794 88.049536 
L 172.249426 89.638042 
L 175.817059 86.554473 
L 179.384691 87.302004 
L 182.952323 84.592201 
L 186.519956 84.218436 
L 190.087588 84.49876 
L 193.65522 79.266037 
L 197.222853 75.715261 
L 200.790485 77.023441 
L 204.358118 78.144739 
L 207.92575 71.323511 
L 211.493382 74.780846 
L 215.061015 64.502283 
L 218.628647 69.174357 
L 222.196279 61.699038 
L 225.763912 61.325272 
L 229.331544 59.92365 
L 232.899176 58.428586 
L 236.466809 59.643325 
L 240.034441 55.905666 
L 243.602074 57.120405 
L 247.169706 57.587613 
L 250.737338 54.223719 
L 254.304971 54.410602 
L 257.872603 53.663071 
L 261.440235 54.036836 
L 265.007868 53.102422 
L 268.5755 53.195863 
L 272.143132 53.102422 
L 275.710765 48.056582 
L 279.278397 46.468076 
L 282.84603 50.48606 
L 286.413662 48.056582 
L 289.981294 47.869699 
L 293.548927 47.869699 
L 297.116559 46.187752 
L 300.684191 47.776257 
L 304.251824 47.776257 
L 307.819456 47.589374 
L 311.387089 47.30905 
L 314.954721 47.495933 
L 318.522353 47.30905 
L 322.089986 47.30905 
L 325.657618 44.78613 
L 329.22525 47.122167 
L 332.792883 38.712433 
L 336.360515 42.356651 
L 339.928147 41.982885 
L 343.49578 37.404252 
L 347.063412 41.889444 
L 350.631045 37.404252 
L 354.198677 46.374635 
L 357.766309 37.404252 
L 361.333942 41.889444 
L 364.901574 44.879571 
L 368.469206 45.627103 
L 372.036839 40.114055 
L 375.604471 42.9173 
L 379.172104 42.543534 
L 382.739736 36.843604 
L 386.307368 46.187752 
L 389.875001 37.217369 
L 393.442633 36.282955 
L 397.010265 41.515678 
L 400.577898 36.656721 
" style="fill:none;stroke:#1f77b4;stroke-linecap:square;stroke-width:1.5;"/>
    <defs>
     <path d="M 0 3 
C 0.795609 3 1.55874 2.683901 2.12132 2.12132 
C 2.683901 1.55874 3 0.795609 3 0 
C 3 -0.795609 2.683901 -1.55874 2.12132 -2.12132 
C 1.55874 -2.683901 0.795609 -3 0 -3 
C -0.795609 -3 -1.55874 -2.683901 -2.12132 -2.12132 
C -2.683901 -1.55874 -3 -0.795609 -3 0 
C -3 0.795609 -2.683901 1.55874 -2.12132 2.12132 
C -1.55874 2.683901 -0.795609 3 0 3 
z
" id="m54b0bc8918" style="stroke:#ffffff;stroke-width:0.75;"/>
    </defs>
    <g clip-path="url(#pdb15de3e85)">
     <use style="fill:#1f77b4;stroke:#ffffff;stroke-width:0.75;" x="75.923352" xlink:href="#m54b0bc8918" y="221.85774"/>
     <use style="fill:#1f77b4;stroke:#ffffff;stroke-width:0.75;" x="79.490985" xlink:href="#m54b0bc8918" y="195.507242"/>
     <use style="fill:#1f77b4;stroke:#ffffff;stroke-width:0.75;" x="83.058617" xlink:href="#m54b0bc8918" y="173.641935"/>
     <use style="fill:#1f77b4;stroke:#ffffff;stroke-width:0.75;" x="86.626249" xlink:href="#m54b0bc8918" y="160.09292"/>
     <use style="fill:#1f77b4;stroke:#ffffff;stroke-width:0.75;" x="90.193882" xlink:href="#m54b0bc8918" y="140.750533"/>
     <use style="fill:#1f77b4;stroke:#ffffff;stroke-width:0.75;" x="93.761514" xlink:href="#m54b0bc8918" y="139.816118"/>
     <use style="fill:#1f77b4;stroke:#ffffff;stroke-width:0.75;" x="97.329146" xlink:href="#m54b0bc8918" y="129.817879"/>
     <use style="fill:#1f77b4;stroke:#ffffff;stroke-width:0.75;" x="100.896779" xlink:href="#m54b0bc8918" y="127.294959"/>
     <use style="fill:#1f77b4;stroke:#ffffff;stroke-width:0.75;" x="104.464411" xlink:href="#m54b0bc8918" y="123.931066"/>
     <use style="fill:#1f77b4;stroke:#ffffff;stroke-width:0.75;" x="108.032044" xlink:href="#m54b0bc8918" y="118.51146"/>
     <use style="fill:#1f77b4;stroke:#ffffff;stroke-width:0.75;" x="111.599676" xlink:href="#m54b0bc8918" y="111.409907"/>
     <use style="fill:#1f77b4;stroke:#ffffff;stroke-width:0.75;" x="115.167308" xlink:href="#m54b0bc8918" y="103.654264"/>
     <use style="fill:#1f77b4;stroke:#ffffff;stroke-width:0.75;" x="118.734941" xlink:href="#m54b0bc8918" y="110.475492"/>
     <use style="fill:#1f77b4;stroke:#ffffff;stroke-width:0.75;" x="122.302573" xlink:href="#m54b0bc8918" y="102.906732"/>
     <use style="fill:#1f77b4;stroke:#ffffff;stroke-width:0.75;" x="125.870205" xlink:href="#m54b0bc8918" y="102.626408"/>
     <use style="fill:#1f77b4;stroke:#ffffff;stroke-width:0.75;" x="129.437838" xlink:href="#m54b0bc8918" y="103.187057"/>
     <use style="fill:#1f77b4;stroke:#ffffff;stroke-width:0.75;" x="133.00547" xlink:href="#m54b0bc8918" y="101.131344"/>
     <use style="fill:#1f77b4;stroke:#ffffff;stroke-width:0.75;" x="136.573103" xlink:href="#m54b0bc8918" y="98.141217"/>
     <use style="fill:#1f77b4;stroke:#ffffff;stroke-width:0.75;" x="140.140735" xlink:href="#m54b0bc8918" y="96.085504"/>
     <use style="fill:#1f77b4;stroke:#ffffff;stroke-width:0.75;" x="143.708367" xlink:href="#m54b0bc8918" y="95.244531"/>
     <use style="fill:#1f77b4;stroke:#ffffff;stroke-width:0.75;" x="147.276" xlink:href="#m54b0bc8918" y="95.151089"/>
     <use style="fill:#1f77b4;stroke:#ffffff;stroke-width:0.75;" x="150.843632" xlink:href="#m54b0bc8918" y="94.870765"/>
     <use style="fill:#1f77b4;stroke:#ffffff;stroke-width:0.75;" x="154.411264" xlink:href="#m54b0bc8918" y="92.908493"/>
     <use style="fill:#1f77b4;stroke:#ffffff;stroke-width:0.75;" x="157.978897" xlink:href="#m54b0bc8918" y="91.600313"/>
     <use style="fill:#1f77b4;stroke:#ffffff;stroke-width:0.75;" x="161.546529" xlink:href="#m54b0bc8918" y="90.105249"/>
     <use style="fill:#1f77b4;stroke:#ffffff;stroke-width:0.75;" x="165.114161" xlink:href="#m54b0bc8918" y="88.516744"/>
     <use style="fill:#1f77b4;stroke:#ffffff;stroke-width:0.75;" x="168.681794" xlink:href="#m54b0bc8918" y="88.049536"/>
     <use style="fill:#1f77b4;stroke:#ffffff;stroke-width:0.75;" x="172.249426" xlink:href="#m54b0bc8918" y="89.638042"/>
     <use style="fill:#1f77b4;stroke:#ffffff;stroke-width:0.75;" x="175.817059" xlink:href="#m54b0bc8918" y="86.554473"/>
     <use style="fill:#1f77b4;stroke:#ffffff;stroke-width:0.75;" x="179.384691" xlink:href="#m54b0bc8918" y="87.302004"/>
     <use style="fill:#1f77b4;stroke:#ffffff;stroke-width:0.75;" x="182.952323" xlink:href="#m54b0bc8918" y="84.592201"/>
     <use style="fill:#1f77b4;stroke:#ffffff;stroke-width:0.75;" x="186.519956" xlink:href="#m54b0bc8918" y="84.218436"/>
     <use style="fill:#1f77b4;stroke:#ffffff;stroke-width:0.75;" x="190.087588" xlink:href="#m54b0bc8918" y="84.49876"/>
     <use style="fill:#1f77b4;stroke:#ffffff;stroke-width:0.75;" x="193.65522" xlink:href="#m54b0bc8918" y="79.266037"/>
     <use style="fill:#1f77b4;stroke:#ffffff;stroke-width:0.75;" x="197.222853" xlink:href="#m54b0bc8918" y="75.715261"/>
     <use style="fill:#1f77b4;stroke:#ffffff;stroke-width:0.75;" x="200.790485" xlink:href="#m54b0bc8918" y="77.023441"/>
     <use style="fill:#1f77b4;stroke:#ffffff;stroke-width:0.75;" x="204.358118" xlink:href="#m54b0bc8918" y="78.144739"/>
     <use style="fill:#1f77b4;stroke:#ffffff;stroke-width:0.75;" x="207.92575" xlink:href="#m54b0bc8918" y="71.323511"/>
     <use style="fill:#1f77b4;stroke:#ffffff;stroke-width:0.75;" x="211.493382" xlink:href="#m54b0bc8918" y="74.780846"/>
     <use style="fill:#1f77b4;stroke:#ffffff;stroke-width:0.75;" x="215.061015" xlink:href="#m54b0bc8918" y="64.502283"/>
     <use style="fill:#1f77b4;stroke:#ffffff;stroke-width:0.75;" x="218.628647" xlink:href="#m54b0bc8918" y="69.174357"/>
     <use style="fill:#1f77b4;stroke:#ffffff;stroke-width:0.75;" x="222.196279" xlink:href="#m54b0bc8918" y="61.699038"/>
     <use style="fill:#1f77b4;stroke:#ffffff;stroke-width:0.75;" x="225.763912" xlink:href="#m54b0bc8918" y="61.325272"/>
     <use style="fill:#1f77b4;stroke:#ffffff;stroke-width:0.75;" x="229.331544" xlink:href="#m54b0bc8918" y="59.92365"/>
     <use style="fill:#1f77b4;stroke:#ffffff;stroke-width:0.75;" x="232.899176" xlink:href="#m54b0bc8918" y="58.428586"/>
     <use style="fill:#1f77b4;stroke:#ffffff;stroke-width:0.75;" x="236.466809" xlink:href="#m54b0bc8918" y="59.643325"/>
     <use style="fill:#1f77b4;stroke:#ffffff;stroke-width:0.75;" x="240.034441" xlink:href="#m54b0bc8918" y="55.905666"/>
     <use style="fill:#1f77b4;stroke:#ffffff;stroke-width:0.75;" x="243.602074" xlink:href="#m54b0bc8918" y="57.120405"/>
     <use style="fill:#1f77b4;stroke:#ffffff;stroke-width:0.75;" x="247.169706" xlink:href="#m54b0bc8918" y="57.587613"/>
     <use style="fill:#1f77b4;stroke:#ffffff;stroke-width:0.75;" x="250.737338" xlink:href="#m54b0bc8918" y="54.223719"/>
     <use style="fill:#1f77b4;stroke:#ffffff;stroke-width:0.75;" x="254.304971" xlink:href="#m54b0bc8918" y="54.410602"/>
     <use style="fill:#1f77b4;stroke:#ffffff;stroke-width:0.75;" x="257.872603" xlink:href="#m54b0bc8918" y="53.663071"/>
     <use style="fill:#1f77b4;stroke:#ffffff;stroke-width:0.75;" x="261.440235" xlink:href="#m54b0bc8918" y="54.036836"/>
     <use style="fill:#1f77b4;stroke:#ffffff;stroke-width:0.75;" x="265.007868" xlink:href="#m54b0bc8918" y="53.102422"/>
     <use style="fill:#1f77b4;stroke:#ffffff;stroke-width:0.75;" x="268.5755" xlink:href="#m54b0bc8918" y="53.195863"/>
     <use style="fill:#1f77b4;stroke:#ffffff;stroke-width:0.75;" x="272.143132" xlink:href="#m54b0bc8918" y="53.102422"/>
     <use style="fill:#1f77b4;stroke:#ffffff;stroke-width:0.75;" x="275.710765" xlink:href="#m54b0bc8918" y="48.056582"/>
     <use style="fill:#1f77b4;stroke:#ffffff;stroke-width:0.75;" x="279.278397" xlink:href="#m54b0bc8918" y="46.468076"/>
     <use style="fill:#1f77b4;stroke:#ffffff;stroke-width:0.75;" x="282.84603" xlink:href="#m54b0bc8918" y="50.48606"/>
     <use style="fill:#1f77b4;stroke:#ffffff;stroke-width:0.75;" x="286.413662" xlink:href="#m54b0bc8918" y="48.056582"/>
     <use style="fill:#1f77b4;stroke:#ffffff;stroke-width:0.75;" x="289.981294" xlink:href="#m54b0bc8918" y="47.869699"/>
     <use style="fill:#1f77b4;stroke:#ffffff;stroke-width:0.75;" x="293.548927" xlink:href="#m54b0bc8918" y="47.869699"/>
     <use style="fill:#1f77b4;stroke:#ffffff;stroke-width:0.75;" x="297.116559" xlink:href="#m54b0bc8918" y="46.187752"/>
     <use style="fill:#1f77b4;stroke:#ffffff;stroke-width:0.75;" x="300.684191" xlink:href="#m54b0bc8918" y="47.776257"/>
     <use style="fill:#1f77b4;stroke:#ffffff;stroke-width:0.75;" x="304.251824" xlink:href="#m54b0bc8918" y="47.776257"/>
     <use style="fill:#1f77b4;stroke:#ffffff;stroke-width:0.75;" x="307.819456" xlink:href="#m54b0bc8918" y="47.589374"/>
     <use style="fill:#1f77b4;stroke:#ffffff;stroke-width:0.75;" x="311.387089" xlink:href="#m54b0bc8918" y="47.30905"/>
     <use style="fill:#1f77b4;stroke:#ffffff;stroke-width:0.75;" x="314.954721" xlink:href="#m54b0bc8918" y="47.495933"/>
     <use style="fill:#1f77b4;stroke:#ffffff;stroke-width:0.75;" x="318.522353" xlink:href="#m54b0bc8918" y="47.30905"/>
     <use style="fill:#1f77b4;stroke:#ffffff;stroke-width:0.75;" x="322.089986" xlink:href="#m54b0bc8918" y="47.30905"/>
     <use style="fill:#1f77b4;stroke:#ffffff;stroke-width:0.75;" x="325.657618" xlink:href="#m54b0bc8918" y="44.78613"/>
     <use style="fill:#1f77b4;stroke:#ffffff;stroke-width:0.75;" x="329.22525" xlink:href="#m54b0bc8918" y="47.122167"/>
     <use style="fill:#1f77b4;stroke:#ffffff;stroke-width:0.75;" x="332.792883" xlink:href="#m54b0bc8918" y="38.712433"/>
     <use style="fill:#1f77b4;stroke:#ffffff;stroke-width:0.75;" x="336.360515" xlink:href="#m54b0bc8918" y="42.356651"/>
     <use style="fill:#1f77b4;stroke:#ffffff;stroke-width:0.75;" x="339.928147" xlink:href="#m54b0bc8918" y="41.982885"/>
     <use style="fill:#1f77b4;stroke:#ffffff;stroke-width:0.75;" x="343.49578" xlink:href="#m54b0bc8918" y="37.404252"/>
     <use style="fill:#1f77b4;stroke:#ffffff;stroke-width:0.75;" x="347.063412" xlink:href="#m54b0bc8918" y="41.889444"/>
     <use style="fill:#1f77b4;stroke:#ffffff;stroke-width:0.75;" x="350.631045" xlink:href="#m54b0bc8918" y="37.404252"/>
     <use style="fill:#1f77b4;stroke:#ffffff;stroke-width:0.75;" x="354.198677" xlink:href="#m54b0bc8918" y="46.374635"/>
     <use style="fill:#1f77b4;stroke:#ffffff;stroke-width:0.75;" x="357.766309" xlink:href="#m54b0bc8918" y="37.404252"/>
     <use style="fill:#1f77b4;stroke:#ffffff;stroke-width:0.75;" x="361.333942" xlink:href="#m54b0bc8918" y="41.889444"/>
     <use style="fill:#1f77b4;stroke:#ffffff;stroke-width:0.75;" x="364.901574" xlink:href="#m54b0bc8918" y="44.879571"/>
     <use style="fill:#1f77b4;stroke:#ffffff;stroke-width:0.75;" x="368.469206" xlink:href="#m54b0bc8918" y="45.627103"/>
     <use style="fill:#1f77b4;stroke:#ffffff;stroke-width:0.75;" x="372.036839" xlink:href="#m54b0bc8918" y="40.114055"/>
     <use style="fill:#1f77b4;stroke:#ffffff;stroke-width:0.75;" x="375.604471" xlink:href="#m54b0bc8918" y="42.9173"/>
     <use style="fill:#1f77b4;stroke:#ffffff;stroke-width:0.75;" x="379.172104" xlink:href="#m54b0bc8918" y="42.543534"/>
     <use style="fill:#1f77b4;stroke:#ffffff;stroke-width:0.75;" x="382.739736" xlink:href="#m54b0bc8918" y="36.843604"/>
     <use style="fill:#1f77b4;stroke:#ffffff;stroke-width:0.75;" x="386.307368" xlink:href="#m54b0bc8918" y="46.187752"/>
     <use style="fill:#1f77b4;stroke:#ffffff;stroke-width:0.75;" x="389.875001" xlink:href="#m54b0bc8918" y="37.217369"/>
     <use style="fill:#1f77b4;stroke:#ffffff;stroke-width:0.75;" x="393.442633" xlink:href="#m54b0bc8918" y="36.282955"/>
     <use style="fill:#1f77b4;stroke:#ffffff;stroke-width:0.75;" x="397.010265" xlink:href="#m54b0bc8918" y="41.515678"/>
     <use style="fill:#1f77b4;stroke:#ffffff;stroke-width:0.75;" x="400.577898" xlink:href="#m54b0bc8918" y="36.656721"/>
    </g>
   </g>
   <g id="line2d_16">
    <path clip-path="url(#pdb15de3e85)" d="M 75.923352 240.546037 
L 79.490985 214.569305 
L 83.058617 196.441657 
L 86.626249 179.435307 
L 90.193882 169.156744 
L 93.761514 159.999478 
L 97.329146 155.233963 
L 100.896779 148.412735 
L 104.464411 145.983256 
L 108.032044 146.357022 
L 111.599676 145.516049 
L 115.167308 142.899687 
L 118.734941 139.255469 
L 122.302573 134.770278 
L 125.870205 132.99489 
L 129.437838 128.696582 
L 133.00547 124.398273 
L 136.573103 118.418018 
L 140.140735 116.829513 
L 143.708367 116.455747 
L 147.276 114.213152 
L 150.843632 113.839386 
L 154.411264 113.559061 
L 157.978897 112.811529 
L 161.546529 111.877115 
L 165.114161 102.813291 
L 168.681794 98.795307 
L 172.249426 98.795307 
L 175.817059 98.141217 
L 179.384691 96.926477 
L 182.952323 96.926477 
L 186.519956 95.431414 
L 190.087588 94.870765 
L 193.65522 94.310116 
L 197.222853 87.582329 
L 200.790485 84.685643 
L 204.358118 84.031553 
L 207.92575 83.657787 
L 211.493382 83.284021 
L 215.061015 83.190579 
L 218.628647 83.003696 
L 222.196279 81.882398 
L 225.763912 81.882398 
L 229.331544 81.508633 
L 232.899176 80.013569 
L 236.466809 80.013569 
L 240.034441 80.013569 
L 243.602074 78.518505 
L 247.169706 78.238181 
L 250.737338 77.957856 
L 254.304971 76.649675 
L 257.872603 72.912016 
L 261.440235 74.220197 
L 265.007868 70.295655 
L 268.5755 68.613708 
L 272.143132 68.613708 
L 275.710765 68.613708 
L 279.278397 68.426825 
L 282.84603 61.512155 
L 286.413662 61.512155 
L 289.981294 61.512155 
L 293.548927 61.512155 
L 297.116559 62.726894 
L 300.684191 55.158134 
L 304.251824 54.971251 
L 307.819456 54.971251 
L 311.387089 54.971251 
L 314.954721 54.410602 
L 318.522353 54.223719 
L 322.089986 54.223719 
L 325.657618 54.223719 
L 329.22525 54.223719 
L 332.792883 54.223719 
L 336.360515 54.223719 
L 339.928147 54.223719 
L 343.49578 53.289305 
L 347.063412 52.35489 
L 350.631045 51.981124 
L 354.198677 51.981124 
L 357.766309 51.607358 
L 361.333942 51.607358 
L 364.901574 51.607358 
L 368.469206 51.420475 
L 372.036839 51.420475 
L 375.604471 51.420475 
L 379.172104 51.233592 
L 382.739736 51.233592 
L 386.307368 51.233592 
L 389.875001 51.233592 
L 393.442633 51.233592 
L 397.010265 51.233592 
L 400.577898 51.233592 
" style="fill:none;stroke:#d62728;stroke-linecap:square;stroke-width:1.5;"/>
    <defs>
     <path d="M 0 -3 
L -3 3 
L 3 3 
z
" id="mcee7a6f98f" style="stroke:#ffffff;stroke-linejoin:miter;stroke-width:0.75;"/>
    </defs>
    <g clip-path="url(#pdb15de3e85)">
     <use style="fill:#d62728;stroke:#ffffff;stroke-linejoin:miter;stroke-width:0.75;" x="75.923352" xlink:href="#mcee7a6f98f" y="240.546037"/>
     <use style="fill:#d62728;stroke:#ffffff;stroke-linejoin:miter;stroke-width:0.75;" x="79.490985" xlink:href="#mcee7a6f98f" y="214.569305"/>
     <use style="fill:#d62728;stroke:#ffffff;stroke-linejoin:miter;stroke-width:0.75;" x="83.058617" xlink:href="#mcee7a6f98f" y="196.441657"/>
     <use style="fill:#d62728;stroke:#ffffff;stroke-linejoin:miter;stroke-width:0.75;" x="86.626249" xlink:href="#mcee7a6f98f" y="179.435307"/>
     <use style="fill:#d62728;stroke:#ffffff;stroke-linejoin:miter;stroke-width:0.75;" x="90.193882" xlink:href="#mcee7a6f98f" y="169.156744"/>
     <use style="fill:#d62728;stroke:#ffffff;stroke-linejoin:miter;stroke-width:0.75;" x="93.761514" xlink:href="#mcee7a6f98f" y="159.999478"/>
     <use style="fill:#d62728;stroke:#ffffff;stroke-linejoin:miter;stroke-width:0.75;" x="97.329146" xlink:href="#mcee7a6f98f" y="155.233963"/>
     <use style="fill:#d62728;stroke:#ffffff;stroke-linejoin:miter;stroke-width:0.75;" x="100.896779" xlink:href="#mcee7a6f98f" y="148.412735"/>
     <use style="fill:#d62728;stroke:#ffffff;stroke-linejoin:miter;stroke-width:0.75;" x="104.464411" xlink:href="#mcee7a6f98f" y="145.983256"/>
     <use style="fill:#d62728;stroke:#ffffff;stroke-linejoin:miter;stroke-width:0.75;" x="108.032044" xlink:href="#mcee7a6f98f" y="146.357022"/>
     <use style="fill:#d62728;stroke:#ffffff;stroke-linejoin:miter;stroke-width:0.75;" x="111.599676" xlink:href="#mcee7a6f98f" y="145.516049"/>
     <use style="fill:#d62728;stroke:#ffffff;stroke-linejoin:miter;stroke-width:0.75;" x="115.167308" xlink:href="#mcee7a6f98f" y="142.899687"/>
     <use style="fill:#d62728;stroke:#ffffff;stroke-linejoin:miter;stroke-width:0.75;" x="118.734941" xlink:href="#mcee7a6f98f" y="139.255469"/>
     <use style="fill:#d62728;stroke:#ffffff;stroke-linejoin:miter;stroke-width:0.75;" x="122.302573" xlink:href="#mcee7a6f98f" y="134.770278"/>
     <use style="fill:#d62728;stroke:#ffffff;stroke-linejoin:miter;stroke-width:0.75;" x="125.870205" xlink:href="#mcee7a6f98f" y="132.99489"/>
     <use style="fill:#d62728;stroke:#ffffff;stroke-linejoin:miter;stroke-width:0.75;" x="129.437838" xlink:href="#mcee7a6f98f" y="128.696582"/>
     <use style="fill:#d62728;stroke:#ffffff;stroke-linejoin:miter;stroke-width:0.75;" x="133.00547" xlink:href="#mcee7a6f98f" y="124.398273"/>
     <use style="fill:#d62728;stroke:#ffffff;stroke-linejoin:miter;stroke-width:0.75;" x="136.573103" xlink:href="#mcee7a6f98f" y="118.418018"/>
     <use style="fill:#d62728;stroke:#ffffff;stroke-linejoin:miter;stroke-width:0.75;" x="140.140735" xlink:href="#mcee7a6f98f" y="116.829513"/>
     <use style="fill:#d62728;stroke:#ffffff;stroke-linejoin:miter;stroke-width:0.75;" x="143.708367" xlink:href="#mcee7a6f98f" y="116.455747"/>
     <use style="fill:#d62728;stroke:#ffffff;stroke-linejoin:miter;stroke-width:0.75;" x="147.276" xlink:href="#mcee7a6f98f" y="114.213152"/>
     <use style="fill:#d62728;stroke:#ffffff;stroke-linejoin:miter;stroke-width:0.75;" x="150.843632" xlink:href="#mcee7a6f98f" y="113.839386"/>
     <use style="fill:#d62728;stroke:#ffffff;stroke-linejoin:miter;stroke-width:0.75;" x="154.411264" xlink:href="#mcee7a6f98f" y="113.559061"/>
     <use style="fill:#d62728;stroke:#ffffff;stroke-linejoin:miter;stroke-width:0.75;" x="157.978897" xlink:href="#mcee7a6f98f" y="112.811529"/>
     <use style="fill:#d62728;stroke:#ffffff;stroke-linejoin:miter;stroke-width:0.75;" x="161.546529" xlink:href="#mcee7a6f98f" y="111.877115"/>
     <use style="fill:#d62728;stroke:#ffffff;stroke-linejoin:miter;stroke-width:0.75;" x="165.114161" xlink:href="#mcee7a6f98f" y="102.813291"/>
     <use style="fill:#d62728;stroke:#ffffff;stroke-linejoin:miter;stroke-width:0.75;" x="168.681794" xlink:href="#mcee7a6f98f" y="98.795307"/>
     <use style="fill:#d62728;stroke:#ffffff;stroke-linejoin:miter;stroke-width:0.75;" x="172.249426" xlink:href="#mcee7a6f98f" y="98.795307"/>
     <use style="fill:#d62728;stroke:#ffffff;stroke-linejoin:miter;stroke-width:0.75;" x="175.817059" xlink:href="#mcee7a6f98f" y="98.141217"/>
     <use style="fill:#d62728;stroke:#ffffff;stroke-linejoin:miter;stroke-width:0.75;" x="179.384691" xlink:href="#mcee7a6f98f" y="96.926477"/>
     <use style="fill:#d62728;stroke:#ffffff;stroke-linejoin:miter;stroke-width:0.75;" x="182.952323" xlink:href="#mcee7a6f98f" y="96.926477"/>
     <use style="fill:#d62728;stroke:#ffffff;stroke-linejoin:miter;stroke-width:0.75;" x="186.519956" xlink:href="#mcee7a6f98f" y="95.431414"/>
     <use style="fill:#d62728;stroke:#ffffff;stroke-linejoin:miter;stroke-width:0.75;" x="190.087588" xlink:href="#mcee7a6f98f" y="94.870765"/>
     <use style="fill:#d62728;stroke:#ffffff;stroke-linejoin:miter;stroke-width:0.75;" x="193.65522" xlink:href="#mcee7a6f98f" y="94.310116"/>
     <use style="fill:#d62728;stroke:#ffffff;stroke-linejoin:miter;stroke-width:0.75;" x="197.222853" xlink:href="#mcee7a6f98f" y="87.582329"/>
     <use style="fill:#d62728;stroke:#ffffff;stroke-linejoin:miter;stroke-width:0.75;" x="200.790485" xlink:href="#mcee7a6f98f" y="84.685643"/>
     <use style="fill:#d62728;stroke:#ffffff;stroke-linejoin:miter;stroke-width:0.75;" x="204.358118" xlink:href="#mcee7a6f98f" y="84.031553"/>
     <use style="fill:#d62728;stroke:#ffffff;stroke-linejoin:miter;stroke-width:0.75;" x="207.92575" xlink:href="#mcee7a6f98f" y="83.657787"/>
     <use style="fill:#d62728;stroke:#ffffff;stroke-linejoin:miter;stroke-width:0.75;" x="211.493382" xlink:href="#mcee7a6f98f" y="83.284021"/>
     <use style="fill:#d62728;stroke:#ffffff;stroke-linejoin:miter;stroke-width:0.75;" x="215.061015" xlink:href="#mcee7a6f98f" y="83.190579"/>
     <use style="fill:#d62728;stroke:#ffffff;stroke-linejoin:miter;stroke-width:0.75;" x="218.628647" xlink:href="#mcee7a6f98f" y="83.003696"/>
     <use style="fill:#d62728;stroke:#ffffff;stroke-linejoin:miter;stroke-width:0.75;" x="222.196279" xlink:href="#mcee7a6f98f" y="81.882398"/>
     <use style="fill:#d62728;stroke:#ffffff;stroke-linejoin:miter;stroke-width:0.75;" x="225.763912" xlink:href="#mcee7a6f98f" y="81.882398"/>
     <use style="fill:#d62728;stroke:#ffffff;stroke-linejoin:miter;stroke-width:0.75;" x="229.331544" xlink:href="#mcee7a6f98f" y="81.508633"/>
     <use style="fill:#d62728;stroke:#ffffff;stroke-linejoin:miter;stroke-width:0.75;" x="232.899176" xlink:href="#mcee7a6f98f" y="80.013569"/>
     <use style="fill:#d62728;stroke:#ffffff;stroke-linejoin:miter;stroke-width:0.75;" x="236.466809" xlink:href="#mcee7a6f98f" y="80.013569"/>
     <use style="fill:#d62728;stroke:#ffffff;stroke-linejoin:miter;stroke-width:0.75;" x="240.034441" xlink:href="#mcee7a6f98f" y="80.013569"/>
     <use style="fill:#d62728;stroke:#ffffff;stroke-linejoin:miter;stroke-width:0.75;" x="243.602074" xlink:href="#mcee7a6f98f" y="78.518505"/>
     <use style="fill:#d62728;stroke:#ffffff;stroke-linejoin:miter;stroke-width:0.75;" x="247.169706" xlink:href="#mcee7a6f98f" y="78.238181"/>
     <use style="fill:#d62728;stroke:#ffffff;stroke-linejoin:miter;stroke-width:0.75;" x="250.737338" xlink:href="#mcee7a6f98f" y="77.957856"/>
     <use style="fill:#d62728;stroke:#ffffff;stroke-linejoin:miter;stroke-width:0.75;" x="254.304971" xlink:href="#mcee7a6f98f" y="76.649675"/>
     <use style="fill:#d62728;stroke:#ffffff;stroke-linejoin:miter;stroke-width:0.75;" x="257.872603" xlink:href="#mcee7a6f98f" y="72.912016"/>
     <use style="fill:#d62728;stroke:#ffffff;stroke-linejoin:miter;stroke-width:0.75;" x="261.440235" xlink:href="#mcee7a6f98f" y="74.220197"/>
     <use style="fill:#d62728;stroke:#ffffff;stroke-linejoin:miter;stroke-width:0.75;" x="265.007868" xlink:href="#mcee7a6f98f" y="70.295655"/>
     <use style="fill:#d62728;stroke:#ffffff;stroke-linejoin:miter;stroke-width:0.75;" x="268.5755" xlink:href="#mcee7a6f98f" y="68.613708"/>
     <use style="fill:#d62728;stroke:#ffffff;stroke-linejoin:miter;stroke-width:0.75;" x="272.143132" xlink:href="#mcee7a6f98f" y="68.613708"/>
     <use style="fill:#d62728;stroke:#ffffff;stroke-linejoin:miter;stroke-width:0.75;" x="275.710765" xlink:href="#mcee7a6f98f" y="68.613708"/>
     <use style="fill:#d62728;stroke:#ffffff;stroke-linejoin:miter;stroke-width:0.75;" x="279.278397" xlink:href="#mcee7a6f98f" y="68.426825"/>
     <use style="fill:#d62728;stroke:#ffffff;stroke-linejoin:miter;stroke-width:0.75;" x="282.84603" xlink:href="#mcee7a6f98f" y="61.512155"/>
     <use style="fill:#d62728;stroke:#ffffff;stroke-linejoin:miter;stroke-width:0.75;" x="286.413662" xlink:href="#mcee7a6f98f" y="61.512155"/>
     <use style="fill:#d62728;stroke:#ffffff;stroke-linejoin:miter;stroke-width:0.75;" x="289.981294" xlink:href="#mcee7a6f98f" y="61.512155"/>
     <use style="fill:#d62728;stroke:#ffffff;stroke-linejoin:miter;stroke-width:0.75;" x="293.548927" xlink:href="#mcee7a6f98f" y="61.512155"/>
     <use style="fill:#d62728;stroke:#ffffff;stroke-linejoin:miter;stroke-width:0.75;" x="297.116559" xlink:href="#mcee7a6f98f" y="62.726894"/>
     <use style="fill:#d62728;stroke:#ffffff;stroke-linejoin:miter;stroke-width:0.75;" x="300.684191" xlink:href="#mcee7a6f98f" y="55.158134"/>
     <use style="fill:#d62728;stroke:#ffffff;stroke-linejoin:miter;stroke-width:0.75;" x="304.251824" xlink:href="#mcee7a6f98f" y="54.971251"/>
     <use style="fill:#d62728;stroke:#ffffff;stroke-linejoin:miter;stroke-width:0.75;" x="307.819456" xlink:href="#mcee7a6f98f" y="54.971251"/>
     <use style="fill:#d62728;stroke:#ffffff;stroke-linejoin:miter;stroke-width:0.75;" x="311.387089" xlink:href="#mcee7a6f98f" y="54.971251"/>
     <use style="fill:#d62728;stroke:#ffffff;stroke-linejoin:miter;stroke-width:0.75;" x="314.954721" xlink:href="#mcee7a6f98f" y="54.410602"/>
     <use style="fill:#d62728;stroke:#ffffff;stroke-linejoin:miter;stroke-width:0.75;" x="318.522353" xlink:href="#mcee7a6f98f" y="54.223719"/>
     <use style="fill:#d62728;stroke:#ffffff;stroke-linejoin:miter;stroke-width:0.75;" x="322.089986" xlink:href="#mcee7a6f98f" y="54.223719"/>
     <use style="fill:#d62728;stroke:#ffffff;stroke-linejoin:miter;stroke-width:0.75;" x="325.657618" xlink:href="#mcee7a6f98f" y="54.223719"/>
     <use style="fill:#d62728;stroke:#ffffff;stroke-linejoin:miter;stroke-width:0.75;" x="329.22525" xlink:href="#mcee7a6f98f" y="54.223719"/>
     <use style="fill:#d62728;stroke:#ffffff;stroke-linejoin:miter;stroke-width:0.75;" x="332.792883" xlink:href="#mcee7a6f98f" y="54.223719"/>
     <use style="fill:#d62728;stroke:#ffffff;stroke-linejoin:miter;stroke-width:0.75;" x="336.360515" xlink:href="#mcee7a6f98f" y="54.223719"/>
     <use style="fill:#d62728;stroke:#ffffff;stroke-linejoin:miter;stroke-width:0.75;" x="339.928147" xlink:href="#mcee7a6f98f" y="54.223719"/>
     <use style="fill:#d62728;stroke:#ffffff;stroke-linejoin:miter;stroke-width:0.75;" x="343.49578" xlink:href="#mcee7a6f98f" y="53.289305"/>
     <use style="fill:#d62728;stroke:#ffffff;stroke-linejoin:miter;stroke-width:0.75;" x="347.063412" xlink:href="#mcee7a6f98f" y="52.35489"/>
     <use style="fill:#d62728;stroke:#ffffff;stroke-linejoin:miter;stroke-width:0.75;" x="350.631045" xlink:href="#mcee7a6f98f" y="51.981124"/>
     <use style="fill:#d62728;stroke:#ffffff;stroke-linejoin:miter;stroke-width:0.75;" x="354.198677" xlink:href="#mcee7a6f98f" y="51.981124"/>
     <use style="fill:#d62728;stroke:#ffffff;stroke-linejoin:miter;stroke-width:0.75;" x="357.766309" xlink:href="#mcee7a6f98f" y="51.607358"/>
     <use style="fill:#d62728;stroke:#ffffff;stroke-linejoin:miter;stroke-width:0.75;" x="361.333942" xlink:href="#mcee7a6f98f" y="51.607358"/>
     <use style="fill:#d62728;stroke:#ffffff;stroke-linejoin:miter;stroke-width:0.75;" x="364.901574" xlink:href="#mcee7a6f98f" y="51.607358"/>
     <use style="fill:#d62728;stroke:#ffffff;stroke-linejoin:miter;stroke-width:0.75;" x="368.469206" xlink:href="#mcee7a6f98f" y="51.420475"/>
     <use style="fill:#d62728;stroke:#ffffff;stroke-linejoin:miter;stroke-width:0.75;" x="372.036839" xlink:href="#mcee7a6f98f" y="51.420475"/>
     <use style="fill:#d62728;stroke:#ffffff;stroke-linejoin:miter;stroke-width:0.75;" x="375.604471" xlink:href="#mcee7a6f98f" y="51.420475"/>
     <use style="fill:#d62728;stroke:#ffffff;stroke-linejoin:miter;stroke-width:0.75;" x="379.172104" xlink:href="#mcee7a6f98f" y="51.233592"/>
     <use style="fill:#d62728;stroke:#ffffff;stroke-linejoin:miter;stroke-width:0.75;" x="382.739736" xlink:href="#mcee7a6f98f" y="51.233592"/>
     <use style="fill:#d62728;stroke:#ffffff;stroke-linejoin:miter;stroke-width:0.75;" x="386.307368" xlink:href="#mcee7a6f98f" y="51.233592"/>
     <use style="fill:#d62728;stroke:#ffffff;stroke-linejoin:miter;stroke-width:0.75;" x="389.875001" xlink:href="#mcee7a6f98f" y="51.233592"/>
     <use style="fill:#d62728;stroke:#ffffff;stroke-linejoin:miter;stroke-width:0.75;" x="393.442633" xlink:href="#mcee7a6f98f" y="51.233592"/>
     <use style="fill:#d62728;stroke:#ffffff;stroke-linejoin:miter;stroke-width:0.75;" x="397.010265" xlink:href="#mcee7a6f98f" y="51.233592"/>
     <use style="fill:#d62728;stroke:#ffffff;stroke-linejoin:miter;stroke-width:0.75;" x="400.577898" xlink:href="#mcee7a6f98f" y="51.233592"/>
    </g>
   </g>
   <g id="line2d_17">
    <path clip-path="url(#pdb15de3e85)" d="M 75.923352 254.655701 
L 79.490985 211.952943 
L 83.058617 190.835168 
L 86.626249 183.920498 
L 90.193882 180.743488 
L 93.761514 176.164855 
L 97.329146 168.969861 
L 100.896779 163.550255 
L 104.464411 160.933893 
L 108.032044 158.504415 
L 111.599676 156.448702 
L 115.167308 155.140521 
L 118.734941 152.711043 
L 122.302573 151.402862 
L 125.870205 150.468447 
L 129.437838 148.225852 
L 133.00547 148.319293 
L 136.573103 145.048841 
L 140.140735 144.301309 
L 143.708367 144.675075 
L 147.276 142.619363 
L 150.843632 141.684948 
L 154.411264 141.684948 
L 157.978897 143.180011 
L 161.546529 141.591506 
L 165.114161 141.684948 
L 168.681794 140.189884 
L 172.249426 138.69482 
L 175.817059 137.012874 
L 179.384691 137.012874 
L 182.952323 136.825991 
L 186.519956 138.881703 
L 190.087588 138.69482 
L 193.65522 137.386639 
L 197.222853 138.507937 
L 200.790485 138.507937 
L 204.358118 136.825991 
L 207.92575 136.639108 
L 211.493382 137.573522 
L 215.061015 135.51781 
L 218.628647 135.51781 
L 222.196279 134.583395 
L 225.763912 134.303071 
L 229.331544 134.022746 
L 232.899176 133.835863 
L 236.466809 132.527682 
L 240.034441 133.462097 
L 243.602074 132.340799 
L 247.169706 133.462097 
L 250.737338 133.462097 
L 254.304971 132.340799 
L 257.872603 130.47197 
L 261.440235 132.153916 
L 265.007868 130.378528 
L 268.5755 130.378528 
L 272.143132 130.191645 
L 275.710765 130.191645 
L 279.278397 130.098204 
L 282.84603 130.098204 
L 286.413662 130.098204 
L 289.981294 129.911321 
L 293.548927 128.976906 
L 297.116559 128.790023 
L 300.684191 128.229374 
L 304.251824 128.229374 
L 307.819456 128.229374 
L 311.387089 128.229374 
L 314.954721 128.229374 
L 318.522353 128.229374 
L 322.089986 128.229374 
L 325.657618 126.921193 
L 329.22525 126.921193 
L 332.792883 126.921193 
L 336.360515 128.042491 
L 339.928147 126.547427 
L 343.49578 126.173662 
L 347.063412 127.575284 
L 350.631045 126.173662 
L 354.198677 126.173662 
L 357.766309 125.799896 
L 361.333942 125.799896 
L 364.901574 125.799896 
L 368.469206 125.799896 
L 372.036839 125.799896 
L 375.604471 125.613013 
L 379.172104 125.613013 
L 382.739736 125.613013 
L 386.307368 125.613013 
L 389.875001 126.08022 
L 393.442633 125.42613 
L 397.010265 125.519571 
L 400.577898 125.239247 
" style="fill:none;stroke:#98df8a;stroke-linecap:square;stroke-width:1.5;"/>
    <defs>
     <path d="M -0 3 
L 3 -3 
L -3 -3 
z
" id="maabaec8366" style="stroke:#ffffff;stroke-linejoin:miter;stroke-width:0.75;"/>
    </defs>
    <g clip-path="url(#pdb15de3e85)">
     <use style="fill:#98df8a;stroke:#ffffff;stroke-linejoin:miter;stroke-width:0.75;" x="75.923352" xlink:href="#maabaec8366" y="254.655701"/>
     <use style="fill:#98df8a;stroke:#ffffff;stroke-linejoin:miter;stroke-width:0.75;" x="79.490985" xlink:href="#maabaec8366" y="211.952943"/>
     <use style="fill:#98df8a;stroke:#ffffff;stroke-linejoin:miter;stroke-width:0.75;" x="83.058617" xlink:href="#maabaec8366" y="190.835168"/>
     <use style="fill:#98df8a;stroke:#ffffff;stroke-linejoin:miter;stroke-width:0.75;" x="86.626249" xlink:href="#maabaec8366" y="183.920498"/>
     <use style="fill:#98df8a;stroke:#ffffff;stroke-linejoin:miter;stroke-width:0.75;" x="90.193882" xlink:href="#maabaec8366" y="180.743488"/>
     <use style="fill:#98df8a;stroke:#ffffff;stroke-linejoin:miter;stroke-width:0.75;" x="93.761514" xlink:href="#maabaec8366" y="176.164855"/>
     <use style="fill:#98df8a;stroke:#ffffff;stroke-linejoin:miter;stroke-width:0.75;" x="97.329146" xlink:href="#maabaec8366" y="168.969861"/>
     <use style="fill:#98df8a;stroke:#ffffff;stroke-linejoin:miter;stroke-width:0.75;" x="100.896779" xlink:href="#maabaec8366" y="163.550255"/>
     <use style="fill:#98df8a;stroke:#ffffff;stroke-linejoin:miter;stroke-width:0.75;" x="104.464411" xlink:href="#maabaec8366" y="160.933893"/>
     <use style="fill:#98df8a;stroke:#ffffff;stroke-linejoin:miter;stroke-width:0.75;" x="108.032044" xlink:href="#maabaec8366" y="158.504415"/>
     <use style="fill:#98df8a;stroke:#ffffff;stroke-linejoin:miter;stroke-width:0.75;" x="111.599676" xlink:href="#maabaec8366" y="156.448702"/>
     <use style="fill:#98df8a;stroke:#ffffff;stroke-linejoin:miter;stroke-width:0.75;" x="115.167308" xlink:href="#maabaec8366" y="155.140521"/>
     <use style="fill:#98df8a;stroke:#ffffff;stroke-linejoin:miter;stroke-width:0.75;" x="118.734941" xlink:href="#maabaec8366" y="152.711043"/>
     <use style="fill:#98df8a;stroke:#ffffff;stroke-linejoin:miter;stroke-width:0.75;" x="122.302573" xlink:href="#maabaec8366" y="151.402862"/>
     <use style="fill:#98df8a;stroke:#ffffff;stroke-linejoin:miter;stroke-width:0.75;" x="125.870205" xlink:href="#maabaec8366" y="150.468447"/>
     <use style="fill:#98df8a;stroke:#ffffff;stroke-linejoin:miter;stroke-width:0.75;" x="129.437838" xlink:href="#maabaec8366" y="148.225852"/>
     <use style="fill:#98df8a;stroke:#ffffff;stroke-linejoin:miter;stroke-width:0.75;" x="133.00547" xlink:href="#maabaec8366" y="148.319293"/>
     <use style="fill:#98df8a;stroke:#ffffff;stroke-linejoin:miter;stroke-width:0.75;" x="136.573103" xlink:href="#maabaec8366" y="145.048841"/>
     <use style="fill:#98df8a;stroke:#ffffff;stroke-linejoin:miter;stroke-width:0.75;" x="140.140735" xlink:href="#maabaec8366" y="144.301309"/>
     <use style="fill:#98df8a;stroke:#ffffff;stroke-linejoin:miter;stroke-width:0.75;" x="143.708367" xlink:href="#maabaec8366" y="144.675075"/>
     <use style="fill:#98df8a;stroke:#ffffff;stroke-linejoin:miter;stroke-width:0.75;" x="147.276" xlink:href="#maabaec8366" y="142.619363"/>
     <use style="fill:#98df8a;stroke:#ffffff;stroke-linejoin:miter;stroke-width:0.75;" x="150.843632" xlink:href="#maabaec8366" y="141.684948"/>
     <use style="fill:#98df8a;stroke:#ffffff;stroke-linejoin:miter;stroke-width:0.75;" x="154.411264" xlink:href="#maabaec8366" y="141.684948"/>
     <use style="fill:#98df8a;stroke:#ffffff;stroke-linejoin:miter;stroke-width:0.75;" x="157.978897" xlink:href="#maabaec8366" y="143.180011"/>
     <use style="fill:#98df8a;stroke:#ffffff;stroke-linejoin:miter;stroke-width:0.75;" x="161.546529" xlink:href="#maabaec8366" y="141.591506"/>
     <use style="fill:#98df8a;stroke:#ffffff;stroke-linejoin:miter;stroke-width:0.75;" x="165.114161" xlink:href="#maabaec8366" y="141.684948"/>
     <use style="fill:#98df8a;stroke:#ffffff;stroke-linejoin:miter;stroke-width:0.75;" x="168.681794" xlink:href="#maabaec8366" y="140.189884"/>
     <use style="fill:#98df8a;stroke:#ffffff;stroke-linejoin:miter;stroke-width:0.75;" x="172.249426" xlink:href="#maabaec8366" y="138.69482"/>
     <use style="fill:#98df8a;stroke:#ffffff;stroke-linejoin:miter;stroke-width:0.75;" x="175.817059" xlink:href="#maabaec8366" y="137.012874"/>
     <use style="fill:#98df8a;stroke:#ffffff;stroke-linejoin:miter;stroke-width:0.75;" x="179.384691" xlink:href="#maabaec8366" y="137.012874"/>
     <use style="fill:#98df8a;stroke:#ffffff;stroke-linejoin:miter;stroke-width:0.75;" x="182.952323" xlink:href="#maabaec8366" y="136.825991"/>
     <use style="fill:#98df8a;stroke:#ffffff;stroke-linejoin:miter;stroke-width:0.75;" x="186.519956" xlink:href="#maabaec8366" y="138.881703"/>
     <use style="fill:#98df8a;stroke:#ffffff;stroke-linejoin:miter;stroke-width:0.75;" x="190.087588" xlink:href="#maabaec8366" y="138.69482"/>
     <use style="fill:#98df8a;stroke:#ffffff;stroke-linejoin:miter;stroke-width:0.75;" x="193.65522" xlink:href="#maabaec8366" y="137.386639"/>
     <use style="fill:#98df8a;stroke:#ffffff;stroke-linejoin:miter;stroke-width:0.75;" x="197.222853" xlink:href="#maabaec8366" y="138.507937"/>
     <use style="fill:#98df8a;stroke:#ffffff;stroke-linejoin:miter;stroke-width:0.75;" x="200.790485" xlink:href="#maabaec8366" y="138.507937"/>
     <use style="fill:#98df8a;stroke:#ffffff;stroke-linejoin:miter;stroke-width:0.75;" x="204.358118" xlink:href="#maabaec8366" y="136.825991"/>
     <use style="fill:#98df8a;stroke:#ffffff;stroke-linejoin:miter;stroke-width:0.75;" x="207.92575" xlink:href="#maabaec8366" y="136.639108"/>
     <use style="fill:#98df8a;stroke:#ffffff;stroke-linejoin:miter;stroke-width:0.75;" x="211.493382" xlink:href="#maabaec8366" y="137.573522"/>
     <use style="fill:#98df8a;stroke:#ffffff;stroke-linejoin:miter;stroke-width:0.75;" x="215.061015" xlink:href="#maabaec8366" y="135.51781"/>
     <use style="fill:#98df8a;stroke:#ffffff;stroke-linejoin:miter;stroke-width:0.75;" x="218.628647" xlink:href="#maabaec8366" y="135.51781"/>
     <use style="fill:#98df8a;stroke:#ffffff;stroke-linejoin:miter;stroke-width:0.75;" x="222.196279" xlink:href="#maabaec8366" y="134.583395"/>
     <use style="fill:#98df8a;stroke:#ffffff;stroke-linejoin:miter;stroke-width:0.75;" x="225.763912" xlink:href="#maabaec8366" y="134.303071"/>
     <use style="fill:#98df8a;stroke:#ffffff;stroke-linejoin:miter;stroke-width:0.75;" x="229.331544" xlink:href="#maabaec8366" y="134.022746"/>
     <use style="fill:#98df8a;stroke:#ffffff;stroke-linejoin:miter;stroke-width:0.75;" x="232.899176" xlink:href="#maabaec8366" y="133.835863"/>
     <use style="fill:#98df8a;stroke:#ffffff;stroke-linejoin:miter;stroke-width:0.75;" x="236.466809" xlink:href="#maabaec8366" y="132.527682"/>
     <use style="fill:#98df8a;stroke:#ffffff;stroke-linejoin:miter;stroke-width:0.75;" x="240.034441" xlink:href="#maabaec8366" y="133.462097"/>
     <use style="fill:#98df8a;stroke:#ffffff;stroke-linejoin:miter;stroke-width:0.75;" x="243.602074" xlink:href="#maabaec8366" y="132.340799"/>
     <use style="fill:#98df8a;stroke:#ffffff;stroke-linejoin:miter;stroke-width:0.75;" x="247.169706" xlink:href="#maabaec8366" y="133.462097"/>
     <use style="fill:#98df8a;stroke:#ffffff;stroke-linejoin:miter;stroke-width:0.75;" x="250.737338" xlink:href="#maabaec8366" y="133.462097"/>
     <use style="fill:#98df8a;stroke:#ffffff;stroke-linejoin:miter;stroke-width:0.75;" x="254.304971" xlink:href="#maabaec8366" y="132.340799"/>
     <use style="fill:#98df8a;stroke:#ffffff;stroke-linejoin:miter;stroke-width:0.75;" x="257.872603" xlink:href="#maabaec8366" y="130.47197"/>
     <use style="fill:#98df8a;stroke:#ffffff;stroke-linejoin:miter;stroke-width:0.75;" x="261.440235" xlink:href="#maabaec8366" y="132.153916"/>
     <use style="fill:#98df8a;stroke:#ffffff;stroke-linejoin:miter;stroke-width:0.75;" x="265.007868" xlink:href="#maabaec8366" y="130.378528"/>
     <use style="fill:#98df8a;stroke:#ffffff;stroke-linejoin:miter;stroke-width:0.75;" x="268.5755" xlink:href="#maabaec8366" y="130.378528"/>
     <use style="fill:#98df8a;stroke:#ffffff;stroke-linejoin:miter;stroke-width:0.75;" x="272.143132" xlink:href="#maabaec8366" y="130.191645"/>
     <use style="fill:#98df8a;stroke:#ffffff;stroke-linejoin:miter;stroke-width:0.75;" x="275.710765" xlink:href="#maabaec8366" y="130.191645"/>
     <use style="fill:#98df8a;stroke:#ffffff;stroke-linejoin:miter;stroke-width:0.75;" x="279.278397" xlink:href="#maabaec8366" y="130.098204"/>
     <use style="fill:#98df8a;stroke:#ffffff;stroke-linejoin:miter;stroke-width:0.75;" x="282.84603" xlink:href="#maabaec8366" y="130.098204"/>
     <use style="fill:#98df8a;stroke:#ffffff;stroke-linejoin:miter;stroke-width:0.75;" x="286.413662" xlink:href="#maabaec8366" y="130.098204"/>
     <use style="fill:#98df8a;stroke:#ffffff;stroke-linejoin:miter;stroke-width:0.75;" x="289.981294" xlink:href="#maabaec8366" y="129.911321"/>
     <use style="fill:#98df8a;stroke:#ffffff;stroke-linejoin:miter;stroke-width:0.75;" x="293.548927" xlink:href="#maabaec8366" y="128.976906"/>
     <use style="fill:#98df8a;stroke:#ffffff;stroke-linejoin:miter;stroke-width:0.75;" x="297.116559" xlink:href="#maabaec8366" y="128.790023"/>
     <use style="fill:#98df8a;stroke:#ffffff;stroke-linejoin:miter;stroke-width:0.75;" x="300.684191" xlink:href="#maabaec8366" y="128.229374"/>
     <use style="fill:#98df8a;stroke:#ffffff;stroke-linejoin:miter;stroke-width:0.75;" x="304.251824" xlink:href="#maabaec8366" y="128.229374"/>
     <use style="fill:#98df8a;stroke:#ffffff;stroke-linejoin:miter;stroke-width:0.75;" x="307.819456" xlink:href="#maabaec8366" y="128.229374"/>
     <use style="fill:#98df8a;stroke:#ffffff;stroke-linejoin:miter;stroke-width:0.75;" x="311.387089" xlink:href="#maabaec8366" y="128.229374"/>
     <use style="fill:#98df8a;stroke:#ffffff;stroke-linejoin:miter;stroke-width:0.75;" x="314.954721" xlink:href="#maabaec8366" y="128.229374"/>
     <use style="fill:#98df8a;stroke:#ffffff;stroke-linejoin:miter;stroke-width:0.75;" x="318.522353" xlink:href="#maabaec8366" y="128.229374"/>
     <use style="fill:#98df8a;stroke:#ffffff;stroke-linejoin:miter;stroke-width:0.75;" x="322.089986" xlink:href="#maabaec8366" y="128.229374"/>
     <use style="fill:#98df8a;stroke:#ffffff;stroke-linejoin:miter;stroke-width:0.75;" x="325.657618" xlink:href="#maabaec8366" y="126.921193"/>
     <use style="fill:#98df8a;stroke:#ffffff;stroke-linejoin:miter;stroke-width:0.75;" x="329.22525" xlink:href="#maabaec8366" y="126.921193"/>
     <use style="fill:#98df8a;stroke:#ffffff;stroke-linejoin:miter;stroke-width:0.75;" x="332.792883" xlink:href="#maabaec8366" y="126.921193"/>
     <use style="fill:#98df8a;stroke:#ffffff;stroke-linejoin:miter;stroke-width:0.75;" x="336.360515" xlink:href="#maabaec8366" y="128.042491"/>
     <use style="fill:#98df8a;stroke:#ffffff;stroke-linejoin:miter;stroke-width:0.75;" x="339.928147" xlink:href="#maabaec8366" y="126.547427"/>
     <use style="fill:#98df8a;stroke:#ffffff;stroke-linejoin:miter;stroke-width:0.75;" x="343.49578" xlink:href="#maabaec8366" y="126.173662"/>
     <use style="fill:#98df8a;stroke:#ffffff;stroke-linejoin:miter;stroke-width:0.75;" x="347.063412" xlink:href="#maabaec8366" y="127.575284"/>
     <use style="fill:#98df8a;stroke:#ffffff;stroke-linejoin:miter;stroke-width:0.75;" x="350.631045" xlink:href="#maabaec8366" y="126.173662"/>
     <use style="fill:#98df8a;stroke:#ffffff;stroke-linejoin:miter;stroke-width:0.75;" x="354.198677" xlink:href="#maabaec8366" y="126.173662"/>
     <use style="fill:#98df8a;stroke:#ffffff;stroke-linejoin:miter;stroke-width:0.75;" x="357.766309" xlink:href="#maabaec8366" y="125.799896"/>
     <use style="fill:#98df8a;stroke:#ffffff;stroke-linejoin:miter;stroke-width:0.75;" x="361.333942" xlink:href="#maabaec8366" y="125.799896"/>
     <use style="fill:#98df8a;stroke:#ffffff;stroke-linejoin:miter;stroke-width:0.75;" x="364.901574" xlink:href="#maabaec8366" y="125.799896"/>
     <use style="fill:#98df8a;stroke:#ffffff;stroke-linejoin:miter;stroke-width:0.75;" x="368.469206" xlink:href="#maabaec8366" y="125.799896"/>
     <use style="fill:#98df8a;stroke:#ffffff;stroke-linejoin:miter;stroke-width:0.75;" x="372.036839" xlink:href="#maabaec8366" y="125.799896"/>
     <use style="fill:#98df8a;stroke:#ffffff;stroke-linejoin:miter;stroke-width:0.75;" x="375.604471" xlink:href="#maabaec8366" y="125.613013"/>
     <use style="fill:#98df8a;stroke:#ffffff;stroke-linejoin:miter;stroke-width:0.75;" x="379.172104" xlink:href="#maabaec8366" y="125.613013"/>
     <use style="fill:#98df8a;stroke:#ffffff;stroke-linejoin:miter;stroke-width:0.75;" x="382.739736" xlink:href="#maabaec8366" y="125.613013"/>
     <use style="fill:#98df8a;stroke:#ffffff;stroke-linejoin:miter;stroke-width:0.75;" x="386.307368" xlink:href="#maabaec8366" y="125.613013"/>
     <use style="fill:#98df8a;stroke:#ffffff;stroke-linejoin:miter;stroke-width:0.75;" x="389.875001" xlink:href="#maabaec8366" y="126.08022"/>
     <use style="fill:#98df8a;stroke:#ffffff;stroke-linejoin:miter;stroke-width:0.75;" x="393.442633" xlink:href="#maabaec8366" y="125.42613"/>
     <use style="fill:#98df8a;stroke:#ffffff;stroke-linejoin:miter;stroke-width:0.75;" x="397.010265" xlink:href="#maabaec8366" y="125.519571"/>
     <use style="fill:#98df8a;stroke:#ffffff;stroke-linejoin:miter;stroke-width:0.75;" x="400.577898" xlink:href="#maabaec8366" y="125.239247"/>
    </g>
   </g>
   <g id="line2d_18"/>
   <g id="line2d_19"/>
   <g id="line2d_20"/>
   <g id="patch_3">
    <path d="M 59.690625 284.8373 
L 59.690625 23.201147 
" style="fill:none;stroke:#000000;stroke-linecap:square;stroke-linejoin:miter;stroke-width:0.8;"/>
   </g>
   <g id="patch_4">
    <path d="M 75.923352 288.430125 
L 349.441834 288.430125 
" style="fill:none;stroke:#000000;stroke-linecap:square;stroke-linejoin:miter;stroke-width:0.8;"/>
   </g>
   <g id="text_17">
    <!-- openh264_decoder_fuzzer (23h, 13 trials/fuzzer) -->
    <g transform="translate(92.481563 16.318125)scale(0.12 -0.12)">
     <defs>
      <path d="M 1159 525 
L 1159 -1331 
L 581 -1331 
L 581 3500 
L 1159 3500 
L 1159 2969 
Q 1341 3281 1617 3432 
Q 1894 3584 2278 3584 
Q 2916 3584 3314 3078 
Q 3713 2572 3713 1747 
Q 3713 922 3314 415 
Q 2916 -91 2278 -91 
Q 1894 -91 1617 61 
Q 1341 213 1159 525 
z
M 3116 1747 
Q 3116 2381 2855 2742 
Q 2594 3103 2138 3103 
Q 1681 3103 1420 2742 
Q 1159 2381 1159 1747 
Q 1159 1113 1420 752 
Q 1681 391 2138 391 
Q 2594 391 2855 752 
Q 3116 1113 3116 1747 
z
" id="DejaVuSans-70" transform="scale(0.015625)"/>
      <path d="M 3263 -1063 
L 3263 -1509 
L -63 -1509 
L -63 -1063 
L 3263 -1063 
z
" id="DejaVuSans-5f" transform="scale(0.015625)"/>
      <path d="M 2375 4863 
L 2375 4384 
L 1825 4384 
Q 1516 4384 1395 4259 
Q 1275 4134 1275 3809 
L 1275 3500 
L 2222 3500 
L 2222 3053 
L 1275 3053 
L 1275 0 
L 697 0 
L 697 3053 
L 147 3053 
L 147 3500 
L 697 3500 
L 697 3744 
Q 697 4328 969 4595 
Q 1241 4863 1831 4863 
L 2375 4863 
z
" id="DejaVuSans-66" transform="scale(0.015625)"/>
      <path d="M 353 3500 
L 3084 3500 
L 3084 2975 
L 922 459 
L 3084 459 
L 3084 0 
L 275 0 
L 275 525 
L 2438 3041 
L 353 3041 
L 353 3500 
z
" id="DejaVuSans-7a" transform="scale(0.015625)"/>
      <path d="M 750 794 
L 1409 794 
L 1409 256 
L 897 -744 
L 494 -744 
L 750 256 
L 750 794 
z
" id="DejaVuSans-2c" transform="scale(0.015625)"/>
      <path d="M 603 4863 
L 1178 4863 
L 1178 0 
L 603 0 
L 603 4863 
z
" id="DejaVuSans-6c" transform="scale(0.015625)"/>
      <path d="M 2834 3397 
L 2834 2853 
Q 2591 2978 2328 3040 
Q 2066 3103 1784 3103 
Q 1356 3103 1142 2972 
Q 928 2841 928 2578 
Q 928 2378 1081 2264 
Q 1234 2150 1697 2047 
L 1894 2003 
Q 2506 1872 2764 1633 
Q 3022 1394 3022 966 
Q 3022 478 2636 193 
Q 2250 -91 1575 -91 
Q 1294 -91 989 -36 
Q 684 19 347 128 
L 347 722 
Q 666 556 975 473 
Q 1284 391 1588 391 
Q 1994 391 2212 530 
Q 2431 669 2431 922 
Q 2431 1156 2273 1281 
Q 2116 1406 1581 1522 
L 1381 1569 
Q 847 1681 609 1914 
Q 372 2147 372 2553 
Q 372 3047 722 3315 
Q 1072 3584 1716 3584 
Q 2034 3584 2315 3537 
Q 2597 3491 2834 3397 
z
" id="DejaVuSans-73" transform="scale(0.015625)"/>
      <path d="M 1625 4666 
L 2156 4666 
L 531 -594 
L 0 -594 
L 1625 4666 
z
" id="DejaVuSans-2f" transform="scale(0.015625)"/>
     </defs>
     <use xlink:href="#DejaVuSans-6f"/>
     <use x="61.181641" xlink:href="#DejaVuSans-70"/>
     <use x="124.658203" xlink:href="#DejaVuSans-65"/>
     <use x="186.181641" xlink:href="#DejaVuSans-6e"/>
     <use x="249.560547" xlink:href="#DejaVuSans-68"/>
     <use x="312.939453" xlink:href="#DejaVuSans-32"/>
     <use x="376.5625" xlink:href="#DejaVuSans-36"/>
     <use x="440.185547" xlink:href="#DejaVuSans-34"/>
     <use x="503.808594" xlink:href="#DejaVuSans-5f"/>
     <use x="553.808594" xlink:href="#DejaVuSans-64"/>
     <use x="617.285156" xlink:href="#DejaVuSans-65"/>
     <use x="678.808594" xlink:href="#DejaVuSans-63"/>
     <use x="733.789062" xlink:href="#DejaVuSans-6f"/>
     <use x="794.970703" xlink:href="#DejaVuSans-64"/>
     <use x="858.447266" xlink:href="#DejaVuSans-65"/>
     <use x="919.970703" xlink:href="#DejaVuSans-72"/>
     <use x="961.083984" xlink:href="#DejaVuSans-5f"/>
     <use x="1011.083984" xlink:href="#DejaVuSans-66"/>
     <use x="1046.289062" xlink:href="#DejaVuSans-75"/>
     <use x="1109.667969" xlink:href="#DejaVuSans-7a"/>
     <use x="1162.158203" xlink:href="#DejaVuSans-7a"/>
     <use x="1214.648438" xlink:href="#DejaVuSans-65"/>
     <use x="1276.171875" xlink:href="#DejaVuSans-72"/>
     <use x="1317.285156" xlink:href="#DejaVuSans-20"/>
     <use x="1349.072266" xlink:href="#DejaVuSans-28"/>
     <use x="1388.085938" xlink:href="#DejaVuSans-32"/>
     <use x="1451.708984" xlink:href="#DejaVuSans-33"/>
     <use x="1515.332031" xlink:href="#DejaVuSans-68"/>
     <use x="1578.710938" xlink:href="#DejaVuSans-2c"/>
     <use x="1610.498047" xlink:href="#DejaVuSans-20"/>
     <use x="1642.285156" xlink:href="#DejaVuSans-31"/>
     <use x="1705.908203" xlink:href="#DejaVuSans-33"/>
     <use x="1769.53125" xlink:href="#DejaVuSans-20"/>
     <use x="1801.318359" xlink:href="#DejaVuSans-74"/>
     <use x="1840.527344" xlink:href="#DejaVuSans-72"/>
     <use x="1881.640625" xlink:href="#DejaVuSans-69"/>
     <use x="1909.423828" xlink:href="#DejaVuSans-61"/>
     <use x="1970.703125" xlink:href="#DejaVuSans-6c"/>
     <use x="1998.486328" xlink:href="#DejaVuSans-73"/>
     <use x="2050.585938" xlink:href="#DejaVuSans-2f"/>
     <use x="2084.277344" xlink:href="#DejaVuSans-66"/>
     <use x="2119.482422" xlink:href="#DejaVuSans-75"/>
     <use x="2182.861328" xlink:href="#DejaVuSans-7a"/>
     <use x="2235.351562" xlink:href="#DejaVuSans-7a"/>
     <use x="2287.841797" xlink:href="#DejaVuSans-65"/>
     <use x="2349.365234" xlink:href="#DejaVuSans-72"/>
     <use x="2390.478516" xlink:href="#DejaVuSans-29"/>
    </g>
   </g>
   <g id="legend_1">
    <g id="line2d_21">
     <path d="M 420.810625 30.416562 
L 440.810625 30.416562 
" style="fill:none;stroke:#1f77b4;stroke-linecap:square;stroke-width:1.5;"/>
    </g>
    <g id="line2d_22">
     <defs>
      <path d="M 0 3 
C 0.795609 3 1.55874 2.683901 2.12132 2.12132 
C 2.683901 1.55874 3 0.795609 3 0 
C 3 -0.795609 2.683901 -1.55874 2.12132 -2.12132 
C 1.55874 -2.683901 0.795609 -3 0 -3 
C -0.795609 -3 -1.55874 -2.683901 -2.12132 -2.12132 
C -2.683901 -1.55874 -3 -0.795609 -3 0 
C -3 0.795609 -2.683901 1.55874 -2.12132 2.12132 
C -1.55874 2.683901 -0.795609 3 0 3 
z
" id="ma292704420" style="stroke:#1f77b4;"/>
     </defs>
     <g>
      <use style="fill:#1f77b4;stroke:#1f77b4;" x="430.810625" xlink:href="#ma292704420" y="30.416562"/>
     </g>
    </g>
    <g id="text_18">
     <!-- afl -->
     <g transform="translate(448.810625 33.916562)scale(0.1 -0.1)">
      <use xlink:href="#DejaVuSans-61"/>
      <use x="61.279297" xlink:href="#DejaVuSans-66"/>
      <use x="96.484375" xlink:href="#DejaVuSans-6c"/>
     </g>
    </g>
    <g id="line2d_23">
     <path d="M 420.810625 45.094688 
L 440.810625 45.094688 
" style="fill:none;stroke:#d62728;stroke-linecap:square;stroke-width:1.5;"/>
    </g>
    <g id="line2d_24">
     <defs>
      <path d="M 0 -3 
L -3 3 
L 3 3 
z
" id="m9da8361a2d" style="stroke:#d62728;stroke-linejoin:miter;"/>
     </defs>
     <g>
      <use style="fill:#d62728;stroke:#d62728;stroke-linejoin:miter;" x="430.810625" xlink:href="#m9da8361a2d" y="45.094688"/>
     </g>
    </g>
    <g id="text_19">
     <!-- afl_scheduling_random -->
     <g transform="translate(448.810625 48.594688)scale(0.1 -0.1)">
      <use xlink:href="#DejaVuSans-61"/>
      <use x="61.279297" xlink:href="#DejaVuSans-66"/>
      <use x="96.484375" xlink:href="#DejaVuSans-6c"/>
      <use x="124.267578" xlink:href="#DejaVuSans-5f"/>
      <use x="174.267578" xlink:href="#DejaVuSans-73"/>
      <use x="226.367188" xlink:href="#DejaVuSans-63"/>
      <use x="281.347656" xlink:href="#DejaVuSans-68"/>
      <use x="344.726562" xlink:href="#DejaVuSans-65"/>
      <use x="406.25" xlink:href="#DejaVuSans-64"/>
      <use x="469.726562" xlink:href="#DejaVuSans-75"/>
      <use x="533.105469" xlink:href="#DejaVuSans-6c"/>
      <use x="560.888672" xlink:href="#DejaVuSans-69"/>
      <use x="588.671875" xlink:href="#DejaVuSans-6e"/>
      <use x="652.050781" xlink:href="#DejaVuSans-67"/>
      <use x="715.527344" xlink:href="#DejaVuSans-5f"/>
      <use x="765.527344" xlink:href="#DejaVuSans-72"/>
      <use x="806.640625" xlink:href="#DejaVuSans-61"/>
      <use x="867.919922" xlink:href="#DejaVuSans-6e"/>
      <use x="931.298828" xlink:href="#DejaVuSans-64"/>
      <use x="994.775391" xlink:href="#DejaVuSans-6f"/>
      <use x="1055.957031" xlink:href="#DejaVuSans-6d"/>
     </g>
    </g>
    <g id="line2d_25">
     <path d="M 420.810625 60.050937 
L 440.810625 60.050937 
" style="fill:none;stroke:#98df8a;stroke-linecap:square;stroke-width:1.5;"/>
    </g>
    <g id="line2d_26">
     <defs>
      <path d="M -0 3 
L 3 -3 
L -3 -3 
z
" id="mf69b55a51b" style="stroke:#98df8a;stroke-linejoin:miter;"/>
     </defs>
     <g>
      <use style="fill:#98df8a;stroke:#98df8a;stroke-linejoin:miter;" x="430.810625" xlink:href="#mf69b55a51b" y="60.050937"/>
     </g>
    </g>
    <g id="text_20">
     <!-- afl_scheduling_lifo -->
     <g transform="translate(448.810625 63.550937)scale(0.1 -0.1)">
      <use xlink:href="#DejaVuSans-61"/>
      <use x="61.279297" xlink:href="#DejaVuSans-66"/>
      <use x="96.484375" xlink:href="#DejaVuSans-6c"/>
      <use x="124.267578" xlink:href="#DejaVuSans-5f"/>
      <use x="174.267578" xlink:href="#DejaVuSans-73"/>
      <use x="226.367188" xlink:href="#DejaVuSans-63"/>
      <use x="281.347656" xlink:href="#DejaVuSans-68"/>
      <use x="344.726562" xlink:href="#DejaVuSans-65"/>
      <use x="406.25" xlink:href="#DejaVuSans-64"/>
      <use x="469.726562" xlink:href="#DejaVuSans-75"/>
      <use x="533.105469" xlink:href="#DejaVuSans-6c"/>
      <use x="560.888672" xlink:href="#DejaVuSans-69"/>
      <use x="588.671875" xlink:href="#DejaVuSans-6e"/>
      <use x="652.050781" xlink:href="#DejaVuSans-67"/>
      <use x="715.527344" xlink:href="#DejaVuSans-5f"/>
      <use x="765.527344" xlink:href="#DejaVuSans-6c"/>
      <use x="793.310547" xlink:href="#DejaVuSans-69"/>
      <use x="821.09375" xlink:href="#DejaVuSans-66"/>
      <use x="856.298828" xlink:href="#DejaVuSans-6f"/>
     </g>
    </g>
   </g>
  </g>
 </g>
 <defs>
  <clipPath id="pdb15de3e85">
   <rect height="266.112" width="357.12" x="59.690625" y="22.318125"/>
  </clipPath>
 </defs>
</svg>
