<?xml version="1.0" encoding="utf-8" standalone="no"?>
<!DOCTYPE svg PUBLIC "-//W3C//DTD SVG 1.1//EN"
  "http://www.w3.org/Graphics/SVG/1.1/DTD/svg11.dtd">
<svg height="325.986375pt" version="1.1" viewBox="0 0 575.348125 325.986375" width="575.348125pt" xmlns="http://www.w3.org/2000/svg" xmlns:xlink="http://www.w3.org/1999/xlink">
 <metadata>
  <rdf:RDF xmlns:cc="http://creativecommons.org/ns#" xmlns:dc="http://purl.org/dc/elements/1.1/" xmlns:rdf="http://www.w3.org/1999/02/22-rdf-syntax-ns#">
   <cc:Work>
    <dc:type rdf:resource="http://purl.org/dc/dcmitype/StillImage"/>
    <dc:date>2022-05-31T14:28:33.480028</dc:date>
    <dc:format>image/svg+xml</dc:format>
    <dc:creator>
     <cc:Agent>
      <dc:title>Matplotlib v3.4.3, https://matplotlib.org/</dc:title>
     </cc:Agent>
    </dc:creator>
   </cc:Work>
  </rdf:RDF>
 </metadata>
 <defs>
  <style type="text/css">*{stroke-linecap:butt;stroke-linejoin:round;}</style>
 </defs>
 <g id="figure_1">
  <g id="patch_1">
   <path d="M 0 325.986375 
L 575.348125 325.986375 
L 575.348125 0 
L 0 0 
z
" style="fill:#ffffff;"/>
  </g>
  <g id="axes_1">
   <g id="patch_2">
    <path d="M 59.690625 288.430125 
L 416.810625 288.430125 
L 416.810625 22.318125 
L 59.690625 22.318125 
z
" style="fill:#ffffff;"/>
   </g>
   <g id="PolyCollection_1">
    <defs>
     <path d="M 75.923352 -166.564849 
L 75.923352 -143.906795 
L 79.490985 -179.464785 
L 83.058617 -186.118047 
L 86.626249 -192.771309 
L 90.193882 -196.208828 
L 93.761514 -206.427129 
L 97.329146 -206.706197 
L 100.896779 -209.330539 
L 104.464411 -214.061747 
L 108.032044 -210.06979 
L 111.599676 -217.055715 
L 115.167308 -217.388378 
L 118.734941 -217.684079 
L 122.302573 -218.57118 
L 125.870205 -220.419309 
L 129.437838 -220.86286 
L 133.00547 -221.232485 
L 136.573103 -222.858838 
L 140.140735 -222.858838 
L 143.708367 -225.224443 
L 147.276 -225.963694 
L 150.843632 -250.432913 
L 154.411264 -251.024314 
L 157.978897 -251.024314 
L 161.546529 -254.350945 
L 165.114161 -255.459822 
L 168.681794 -257.1601 
L 172.249426 -258.490753 
L 175.817059 -258.638603 
L 179.384691 -259.969255 
L 182.952323 -260.117106 
L 186.519956 -260.117106 
L 190.087588 -260.117106 
L 193.65522 -260.412806 
L 197.222853 -260.412806 
L 200.790485 -260.486731 
L 204.358118 -260.560656 
L 207.92575 -260.782432 
L 211.493382 -260.782432 
L 215.061015 -265.07009 
L 218.628647 -265.36579 
L 222.196279 -268.766346 
L 225.763912 -268.766346 
L 229.331544 -270.466624 
L 232.899176 -271.058025 
L 236.466809 -271.131951 
L 240.034441 -271.131951 
L 243.602074 -271.427651 
L 247.169706 -271.427651 
L 250.737338 -272.610453 
L 254.304971 -273.201854 
L 257.872603 -273.201854 
L 261.440235 -273.201854 
L 265.007868 -273.201854 
L 268.5755 -274.606432 
L 272.143132 -275.345683 
L 275.710765 -275.419608 
L 279.278397 -275.641384 
L 282.84603 -278.598389 
L 286.413662 -278.598389 
L 289.981294 -278.598389 
L 293.548927 -278.672314 
L 297.116559 -278.746239 
L 300.684191 -278.746239 
L 304.251824 -279.707266 
L 307.819456 -279.707266 
L 311.387089 -281.481469 
L 314.954721 -281.481469 
L 318.522353 -281.481469 
L 322.089986 -281.555394 
L 325.657618 -281.998945 
L 329.22525 -282.738197 
L 332.792883 -283.773148 
L 336.360515 -284.068849 
L 339.928147 -284.438475 
L 343.49578 -284.438475 
L 347.063412 -284.438475 
L 350.631045 -284.8081 
L 354.198677 -284.8081 
L 357.766309 -284.8081 
L 361.333942 -284.8081 
L 364.901574 -284.8081 
L 368.469206 -284.955951 
L 372.036839 -284.955951 
L 375.604471 -285.029876 
L 379.172104 -285.029876 
L 382.739736 -285.029876 
L 386.307368 -285.251651 
L 389.875001 -285.251651 
L 393.442633 -285.399501 
L 397.010265 -285.140763 
L 400.577898 -285.473426 
L 400.577898 -291.535287 
L 400.577898 -291.535287 
L 397.010265 -291.57225 
L 393.442633 -291.535287 
L 389.875001 -290.943886 
L 386.307368 -290.943886 
L 382.739736 -290.869961 
L 379.172104 -290.42641 
L 375.604471 -289.908934 
L 372.036839 -289.687159 
L 368.469206 -289.169683 
L 364.901574 -288.873983 
L 361.333942 -288.726132 
L 357.766309 -288.430432 
L 354.198677 -288.430432 
L 350.631045 -288.430432 
L 347.063412 -288.208656 
L 343.49578 -287.912956 
L 339.928147 -287.765106 
L 336.360515 -287.469405 
L 332.792883 -287.173705 
L 329.22525 -287.173705 
L 325.657618 -287.173705 
L 322.089986 -287.173705 
L 318.522353 -285.990902 
L 314.954721 -285.990902 
L 311.387089 -285.621277 
L 307.819456 -285.621277 
L 304.251824 -285.251651 
L 300.684191 -285.029876 
L 297.116559 -285.029876 
L 293.548927 -284.734175 
L 289.981294 -284.438475 
L 286.413662 -284.216699 
L 282.84603 -283.773148 
L 279.278397 -281.555394 
L 275.710765 -281.555394 
L 272.143132 -281.555394 
L 268.5755 -280.520443 
L 265.007868 -280.150817 
L 261.440235 -280.150817 
L 257.872603 -280.076892 
L 254.304971 -279.115865 
L 250.737338 -278.968015 
L 247.169706 -278.968015 
L 243.602074 -278.820164 
L 240.034441 -277.933063 
L 236.466809 -277.637362 
L 232.899176 -277.637362 
L 229.331544 -277.045961 
L 225.763912 -276.380635 
L 222.196279 -276.380635 
L 218.628647 -275.641384 
L 215.061015 -275.493533 
L 211.493382 -274.976057 
L 207.92575 -274.384656 
L 204.358118 -273.275779 
L 200.790485 -272.906154 
L 197.222853 -272.462603 
L 193.65522 -271.649426 
L 190.087588 -271.279801 
L 186.519956 -271.205876 
L 182.952323 -269.801298 
L 179.384691 -269.579523 
L 175.817059 -269.062047 
L 172.249426 -267.879245 
L 168.681794 -265.291865 
L 165.114161 -265.291865 
L 161.546529 -264.922239 
L 157.978897 -263.517662 
L 154.411264 -263.443737 
L 150.843632 -261.521683 
L 147.276 -261.521683 
L 143.708367 -261.521683 
L 140.140735 -261.004207 
L 136.573103 -260.486731 
L 133.00547 -259.451779 
L 129.437838 -255.164122 
L 125.870205 -254.794496 
L 122.302573 -254.055245 
L 118.734941 -253.833469 
L 115.167308 -253.020293 
L 111.599676 -251.467865 
L 108.032044 -247.401983 
L 104.464411 -241.814167 
L 100.896779 -232.506068 
L 97.329146 -231.508079 
L 93.761514 -229.992614 
L 90.193882 -225.889769 
L 86.626249 -220.345384 
L 83.058617 -210.993854 
L 79.490985 -205.303467 
L 75.923352 -166.564849 
z
" id="m2072b83c48" style="stroke:#d62728;stroke-opacity:0.2;"/>
    </defs>
    <g clip-path="url(#p1c8f69a9ab)">
     <use style="fill:#d62728;fill-opacity:0.2;stroke:#d62728;stroke-opacity:0.2;" x="0" xlink:href="#m2072b83c48" y="325.986375"/>
    </g>
   </g>
   <g id="PolyCollection_2">
    <defs>
     <path d="M 75.923352 -179.760485 
L 75.923352 -141.984742 
L 79.490985 -162.535929 
L 83.058617 -165.936485 
L 86.626249 -185.970197 
L 90.193882 -192.549533 
L 93.761514 -191.107993 
L 97.329146 -198.019993 
L 100.896779 -194.989063 
L 104.464411 -202.085876 
L 108.032044 -205.708207 
L 111.599676 -205.678637 
L 115.167308 -203.416528 
L 118.734941 -206.077833 
L 122.302573 -206.077833 
L 125.870205 -207.999886 
L 129.437838 -209.513503 
L 133.00547 -207.999886 
L 136.573103 -209.441426 
L 140.140735 -207.999886 
L 143.708367 -206.077833 
L 147.276 -209.405388 
L 150.843632 -209.848015 
L 154.411264 -209.478389 
L 157.978897 -210.848776 
L 161.546529 -206.225683 
L 165.114161 -206.225683 
L 168.681794 -215.614175 
L 172.249426 -221.602111 
L 175.817059 -220.788934 
L 179.384691 -221.823886 
L 182.952323 -221.818342 
L 186.519956 -230.362239 
L 190.087588 -223.487202 
L 193.65522 -228.440186 
L 197.222853 -225.767792 
L 200.790485 -225.815844 
L 204.358118 -228.033598 
L 207.92575 -228.033598 
L 211.493382 -228.329298 
L 215.061015 -236.534988 
L 218.628647 -229.733876 
L 222.196279 -229.733876 
L 225.763912 -229.733876 
L 229.331544 -230.990603 
L 232.899176 -231.064528 
L 236.466809 -236.188464 
L 240.034441 -231.064528 
L 243.602074 -228.735886 
L 247.169706 -236.4241 
L 250.737338 -228.735886 
L 254.304971 -231.434154 
L 257.872603 -231.434154 
L 261.440235 -235.943587 
L 265.007868 -240.45302 
L 268.5755 -242.079373 
L 272.143132 -242.079373 
L 275.710765 -242.190261 
L 279.278397 -241.561897 
L 282.84603 -244.075352 
L 286.413662 -243.705726 
L 289.981294 -243.705726 
L 293.548927 -244.592828 
L 297.116559 -244.592828 
L 300.684191 -247.032357 
L 304.251824 -247.328057 
L 307.819456 -247.328057 
L 311.387089 -247.328057 
L 314.954721 -249.287074 
L 318.522353 -249.287074 
L 322.089986 -249.324036 
L 325.657618 -249.324036 
L 329.22525 -249.324036 
L 332.792883 -249.397961 
L 336.360515 -251.172164 
L 339.928147 -250.469876 
L 343.49578 -251.837491 
L 347.063412 -251.837491 
L 350.631045 -251.837491 
L 354.198677 -251.837491 
L 357.766309 -251.837491 
L 361.333942 -251.837491 
L 364.901574 -251.837491 
L 368.469206 -251.837491 
L 372.036839 -251.837491 
L 375.604471 -251.837491 
L 379.172104 -251.837491 
L 382.739736 -254.12917 
L 386.307368 -251.837491 
L 389.875001 -251.837491 
L 393.442633 -251.837491 
L 397.010265 -251.837491 
L 400.577898 -251.837491 
L 400.577898 -275.197833 
L 400.577898 -275.197833 
L 397.010265 -275.197833 
L 393.442633 -275.123908 
L 389.875001 -273.201854 
L 386.307368 -273.201854 
L 382.739736 -271.501576 
L 379.172104 -271.501576 
L 375.604471 -271.501576 
L 372.036839 -271.844404 
L 368.469206 -271.501576 
L 364.901574 -271.501576 
L 361.333942 -271.501576 
L 357.766309 -271.501576 
L 354.198677 -271.501576 
L 350.631045 -271.205876 
L 347.063412 -271.427651 
L 343.49578 -270.614475 
L 339.928147 -270.540549 
L 336.360515 -270.466624 
L 332.792883 -267.361769 
L 329.22525 -267.00046 
L 325.657618 -267.583544 
L 322.089986 -266.696443 
L 318.522353 -266.696443 
L 314.954721 -266.844293 
L 311.387089 -266.178967 
L 307.819456 -266.031116 
L 304.251824 -266.031116 
L 300.684191 -266.031116 
L 297.116559 -265.144015 
L 293.548927 -263.739437 
L 289.981294 -263.887287 
L 286.413662 -258.15809 
L 282.84603 -258.712528 
L 279.278397 -257.307951 
L 275.710765 -253.315993 
L 272.143132 -258.010239 
L 268.5755 -253.057255 
L 265.007868 -257.1601 
L 261.440235 -251.652678 
L 257.872603 -257.1601 
L 254.304971 -246.07133 
L 250.737338 -250.137213 
L 247.169706 -250.137213 
L 243.602074 -250.147377 
L 240.034441 -256.346924 
L 236.466809 -250.211138 
L 232.899176 -244.297127 
L 229.331544 -256.051223 
L 225.763912 -249.434924 
L 222.196279 -242.818624 
L 218.628647 -242.818624 
L 215.061015 -243.008982 
L 211.493382 -242.818624 
L 207.92575 -250.211138 
L 204.358118 -242.818624 
L 200.790485 -250.137213 
L 197.222853 -246.600819 
L 193.65522 -243.779651 
L 190.087588 -242.375074 
L 186.519956 -241.428832 
L 182.952323 -240.342132 
L 179.384691 -241.266197 
L 175.817059 -241.266197 
L 172.249426 -240.194282 
L 168.681794 -238.641854 
L 165.114161 -238.013491 
L 161.546529 -236.313213 
L 157.978897 -234.945598 
L 154.411264 -232.321255 
L 150.843632 -233.208357 
L 147.276 -231.064528 
L 143.708367 -232.173405 
L 140.140735 -231.064528 
L 136.573103 -233.208357 
L 133.00547 -231.064528 
L 129.437838 -230.399202 
L 125.870205 -232.543031 
L 122.302573 -230.990603 
L 118.734941 -228.440186 
L 115.167308 -230.990603 
L 111.599676 -232.24733 
L 108.032044 -229.031587 
L 104.464411 -230.990603 
L 100.896779 -230.990603 
L 97.329146 -226.407245 
L 93.761514 -220.936785 
L 90.193882 -219.901833 
L 86.626249 -214.874924 
L 83.058617 -199.298898 
L 79.490985 -194.693362 
L 75.923352 -179.760485 
z
" id="mc76fdaf768" style="stroke:#1f77b4;stroke-opacity:0.2;"/>
    </defs>
    <g clip-path="url(#p1c8f69a9ab)">
     <use style="fill:#1f77b4;fill-opacity:0.2;stroke:#1f77b4;stroke-opacity:0.2;" x="0" xlink:href="#mc76fdaf768" y="325.986375"/>
    </g>
   </g>
   <g id="PolyCollection_3">
    <defs>
     <path d="M 75.923352 -70.573063 
L 75.923352 -49.65225 
L 79.490985 -63.6241 
L 83.058617 -81.218282 
L 86.626249 -84.470988 
L 90.193882 -101.325918 
L 93.761514 -108.422731 
L 97.329146 -112.266838 
L 100.896779 -117.145897 
L 104.464411 -120.546453 
L 108.032044 -130.415459 
L 111.599676 -132.522325 
L 115.167308 -133.261576 
L 118.734941 -136.181619 
L 122.302573 -137.401384 
L 125.870205 -141.726004 
L 129.437838 -142.206517 
L 133.00547 -147.233426 
L 136.573103 -146.050624 
L 140.140735 -148.785854 
L 143.708367 -153.775801 
L 147.276 -149.894731 
L 150.843632 -152.03856 
L 154.411264 -162.97948 
L 157.978897 -154.330239 
L 161.546529 -154.404164 
L 165.114161 -162.535929 
L 168.681794 -156.917619 
L 172.249426 -165.234197 
L 175.817059 -158.617897 
L 179.384691 -169.22523 
L 182.952323 -160.022475 
L 186.519956 -172.294047 
L 190.087588 -174.252139 
L 193.65522 -183.658188 
L 197.222853 -162.97948 
L 200.790485 -175.36194 
L 204.358118 -164.975459 
L 207.92575 -175.879416 
L 211.493382 -178.134132 
L 215.061015 -189.370753 
L 218.628647 -189.444678 
L 222.196279 -189.592528 
L 225.763912 -192.401683 
L 229.331544 -193.251822 
L 232.899176 -192.549533 
L 236.466809 -192.623459 
L 240.034441 -194.249811 
L 243.602074 -193.584485 
L 247.169706 -194.9521 
L 250.737338 -193.880186 
L 254.304971 -196.763266 
L 257.872603 -193.954111 
L 261.440235 -198.086526 
L 265.007868 -194.175886 
L 268.5755 -195.802239 
L 272.143132 -196.09794 
L 275.710765 -197.53948 
L 279.278397 -199.905084 
L 282.84603 -198.98102 
L 286.413662 -197.872143 
L 289.981294 -199.12887 
L 293.548927 -199.202795 
L 297.116559 -199.794197 
L 300.684191 -199.683309 
L 304.251824 -203.120828 
L 307.819456 -203.194753 
L 311.387089 -203.342603 
L 314.954721 -203.342603 
L 318.522353 -203.416528 
L 322.089986 -204.673255 
L 325.657618 -205.782132 
L 329.22525 -205.782132 
L 332.792883 -205.782132 
L 336.360515 -205.856057 
L 339.928147 -205.856057 
L 343.49578 -206.077833 
L 347.063412 -206.447459 
L 350.631045 -206.669234 
L 354.198677 -206.669234 
L 357.766309 -205.59732 
L 361.333942 -206.817084 
L 364.901574 -206.964934 
L 368.469206 -207.112785 
L 372.036839 -207.112785 
L 375.604471 -208.960913 
L 379.172104 -208.073811 
L 382.739736 -209.700164 
L 386.307368 -209.700164 
L 389.875001 -212.250582 
L 393.442633 -210.809041 
L 397.010265 -210.882967 
L 400.577898 -213.026795 
L 400.577898 -233.24532 
L 400.577898 -233.24532 
L 397.010265 -230.029576 
L 393.442633 -230.029576 
L 389.875001 -232.062517 
L 386.307368 -229.068549 
L 382.739736 -228.551074 
L 379.172104 -229.659951 
L 375.604471 -227.072571 
L 372.036839 -226.924721 
L 368.469206 -228.107523 
L 364.901574 -227.663972 
L 361.333942 -226.48117 
L 357.766309 -226.361966 
L 354.198677 -226.111544 
L 350.631045 -226.924721 
L 347.063412 -226.000656 
L 343.49578 -225.889769 
L 339.928147 -225.594068 
L 336.360515 -225.815844 
L 332.792883 -224.04164 
L 329.22525 -226.998646 
L 325.657618 -223.819865 
L 322.089986 -222.119587 
L 318.522353 -225.667993 
L 314.954721 -225.667993 
L 311.387089 -220.419309 
L 307.819456 -220.202154 
L 304.251824 -220.123608 
L 300.684191 -217.979779 
L 297.116559 -217.979779 
L 293.548927 -218.719031 
L 289.981294 -212.439091 
L 286.413662 -212.50932 
L 282.84603 -218.57118 
L 279.278397 -218.57118 
L 275.710765 -218.497255 
L 272.143132 -218.27548 
L 268.5755 -217.758004 
L 265.007868 -217.684079 
L 261.440235 -216.131651 
L 257.872603 -212.50932 
L 254.304971 -213.602487 
L 250.737338 -211.917918 
L 247.169706 -213.470346 
L 243.602074 -210.291566 
L 240.034441 -210.291566 
L 236.466809 -210.291566 
L 232.899176 -209.77409 
L 229.331544 -209.77409 
L 225.763912 -207.852036 
L 222.196279 -207.778111 
L 218.628647 -207.630261 
L 215.061015 -207.630261 
L 211.493382 -205.375544 
L 207.92575 -202.585794 
L 204.358118 -199.424571 
L 200.790485 -201.938025 
L 197.222853 -199.054945 
L 193.65522 -198.463544 
L 190.087588 -195.136913 
L 186.519956 -199.000425 
L 182.952323 -192.327758 
L 179.384691 -191.92117 
L 175.817059 -189.222902 
L 172.249426 -190.997106 
L 168.681794 -189.666453 
L 165.114161 -189.925191 
L 161.546529 -188.927202 
L 157.978897 -188.483651 
L 154.411264 -186.74641 
L 150.843632 -184.565619 
L 147.276 -183.456742 
L 143.708367 -183.937255 
L 140.140735 -182.12609 
L 136.573103 -181.238988 
L 133.00547 -181.202025 
L 129.437838 -179.612635 
L 125.870205 -178.281983 
L 122.302573 -175.546753 
L 118.734941 -173.655193 
L 115.167308 -170.519844 
L 111.599676 -167.636763 
L 108.032044 -166.084336 
L 104.464411 -161.500977 
L 100.896779 -159.689811 
L 97.329146 -149.45118 
L 93.761514 -138.436336 
L 90.193882 -119.659352 
L 86.626249 -114.336742 
L 83.058617 -107.53563 
L 79.490985 -96.44686 
L 75.923352 -70.573063 
z
" id="m8f1a29d0e7" style="stroke:#98df8a;stroke-opacity:0.2;"/>
    </defs>
    <g clip-path="url(#p1c8f69a9ab)">
     <use style="fill:#98df8a;fill-opacity:0.2;stroke:#98df8a;stroke-opacity:0.2;" x="0" xlink:href="#m8f1a29d0e7" y="325.986375"/>
    </g>
   </g>
   <g id="matplotlib.axis_1">
    <g id="xtick_1">
     <g id="line2d_1">
      <defs>
       <path d="M 0 0 
L 0 3.5 
" id="m10cc6eb9d0" style="stroke:#000000;stroke-width:0.8;"/>
      </defs>
      <g>
       <use style="stroke:#000000;stroke-width:0.8;" x="75.923352" xlink:href="#m10cc6eb9d0" y="288.430125"/>
      </g>
     </g>
     <g id="text_1">
      <!-- 15m -->
      <g transform="translate(64.69054 303.028562)scale(0.1 -0.1)">
       <defs>
        <path d="M 794 531 
L 1825 531 
L 1825 4091 
L 703 3866 
L 703 4441 
L 1819 4666 
L 2450 4666 
L 2450 531 
L 3481 531 
L 3481 0 
L 794 0 
L 794 531 
z
" id="DejaVuSans-31" transform="scale(0.015625)"/>
        <path d="M 691 4666 
L 3169 4666 
L 3169 4134 
L 1269 4134 
L 1269 2991 
Q 1406 3038 1543 3061 
Q 1681 3084 1819 3084 
Q 2600 3084 3056 2656 
Q 3513 2228 3513 1497 
Q 3513 744 3044 326 
Q 2575 -91 1722 -91 
Q 1428 -91 1123 -41 
Q 819 9 494 109 
L 494 744 
Q 775 591 1075 516 
Q 1375 441 1709 441 
Q 2250 441 2565 725 
Q 2881 1009 2881 1497 
Q 2881 1984 2565 2268 
Q 2250 2553 1709 2553 
Q 1456 2553 1204 2497 
Q 953 2441 691 2322 
L 691 4666 
z
" id="DejaVuSans-35" transform="scale(0.015625)"/>
        <path d="M 3328 2828 
Q 3544 3216 3844 3400 
Q 4144 3584 4550 3584 
Q 5097 3584 5394 3201 
Q 5691 2819 5691 2113 
L 5691 0 
L 5113 0 
L 5113 2094 
Q 5113 2597 4934 2840 
Q 4756 3084 4391 3084 
Q 3944 3084 3684 2787 
Q 3425 2491 3425 1978 
L 3425 0 
L 2847 0 
L 2847 2094 
Q 2847 2600 2669 2842 
Q 2491 3084 2119 3084 
Q 1678 3084 1418 2786 
Q 1159 2488 1159 1978 
L 1159 0 
L 581 0 
L 581 3500 
L 1159 3500 
L 1159 2956 
Q 1356 3278 1631 3431 
Q 1906 3584 2284 3584 
Q 2666 3584 2933 3390 
Q 3200 3197 3328 2828 
z
" id="DejaVuSans-6d" transform="scale(0.015625)"/>
       </defs>
       <use xlink:href="#DejaVuSans-31"/>
       <use x="63.623047" xlink:href="#DejaVuSans-35"/>
       <use x="127.246094" xlink:href="#DejaVuSans-6d"/>
      </g>
     </g>
    </g>
    <g id="xtick_2">
     <g id="line2d_2">
      <g>
       <use style="stroke:#000000;stroke-width:0.8;" x="130.627049" xlink:href="#m10cc6eb9d0" y="288.430125"/>
      </g>
     </g>
     <g id="text_2">
      <!-- 4h:5m -->
      <g transform="translate(114.541111 303.028562)scale(0.1 -0.1)">
       <defs>
        <path d="M 2419 4116 
L 825 1625 
L 2419 1625 
L 2419 4116 
z
M 2253 4666 
L 3047 4666 
L 3047 1625 
L 3713 1625 
L 3713 1100 
L 3047 1100 
L 3047 0 
L 2419 0 
L 2419 1100 
L 313 1100 
L 313 1709 
L 2253 4666 
z
" id="DejaVuSans-34" transform="scale(0.015625)"/>
        <path d="M 3513 2113 
L 3513 0 
L 2938 0 
L 2938 2094 
Q 2938 2591 2744 2837 
Q 2550 3084 2163 3084 
Q 1697 3084 1428 2787 
Q 1159 2491 1159 1978 
L 1159 0 
L 581 0 
L 581 4863 
L 1159 4863 
L 1159 2956 
Q 1366 3272 1645 3428 
Q 1925 3584 2291 3584 
Q 2894 3584 3203 3211 
Q 3513 2838 3513 2113 
z
" id="DejaVuSans-68" transform="scale(0.015625)"/>
        <path d="M 750 794 
L 1409 794 
L 1409 0 
L 750 0 
L 750 794 
z
M 750 3309 
L 1409 3309 
L 1409 2516 
L 750 2516 
L 750 3309 
z
" id="DejaVuSans-3a" transform="scale(0.015625)"/>
       </defs>
       <use xlink:href="#DejaVuSans-34"/>
       <use x="63.623047" xlink:href="#DejaVuSans-68"/>
       <use x="127.001953" xlink:href="#DejaVuSans-3a"/>
       <use x="160.693359" xlink:href="#DejaVuSans-35"/>
       <use x="224.316406" xlink:href="#DejaVuSans-6d"/>
      </g>
     </g>
    </g>
    <g id="xtick_3">
     <g id="line2d_3">
      <g>
       <use style="stroke:#000000;stroke-width:0.8;" x="185.330745" xlink:href="#m10cc6eb9d0" y="288.430125"/>
      </g>
     </g>
     <g id="text_3">
      <!-- 7h:55m -->
      <g transform="translate(166.063557 303.028562)scale(0.1 -0.1)">
       <defs>
        <path d="M 525 4666 
L 3525 4666 
L 3525 4397 
L 1831 0 
L 1172 0 
L 2766 4134 
L 525 4134 
L 525 4666 
z
" id="DejaVuSans-37" transform="scale(0.015625)"/>
       </defs>
       <use xlink:href="#DejaVuSans-37"/>
       <use x="63.623047" xlink:href="#DejaVuSans-68"/>
       <use x="127.001953" xlink:href="#DejaVuSans-3a"/>
       <use x="160.693359" xlink:href="#DejaVuSans-35"/>
       <use x="224.316406" xlink:href="#DejaVuSans-35"/>
       <use x="287.939453" xlink:href="#DejaVuSans-6d"/>
      </g>
     </g>
    </g>
    <g id="xtick_4">
     <g id="line2d_4">
      <g>
       <use style="stroke:#000000;stroke-width:0.8;" x="240.034441" xlink:href="#m10cc6eb9d0" y="288.430125"/>
      </g>
     </g>
     <g id="text_4">
      <!-- 11h:45m -->
      <g transform="translate(217.586004 303.028562)scale(0.1 -0.1)">
       <use xlink:href="#DejaVuSans-31"/>
       <use x="63.623047" xlink:href="#DejaVuSans-31"/>
       <use x="127.246094" xlink:href="#DejaVuSans-68"/>
       <use x="190.625" xlink:href="#DejaVuSans-3a"/>
       <use x="224.316406" xlink:href="#DejaVuSans-34"/>
       <use x="287.939453" xlink:href="#DejaVuSans-35"/>
       <use x="351.5625" xlink:href="#DejaVuSans-6d"/>
      </g>
     </g>
    </g>
    <g id="xtick_5">
     <g id="line2d_5">
      <g>
       <use style="stroke:#000000;stroke-width:0.8;" x="294.738137" xlink:href="#m10cc6eb9d0" y="288.430125"/>
      </g>
     </g>
     <g id="text_5">
      <!-- 15h:35m -->
      <g transform="translate(272.2897 303.028562)scale(0.1 -0.1)">
       <defs>
        <path d="M 2597 2516 
Q 3050 2419 3304 2112 
Q 3559 1806 3559 1356 
Q 3559 666 3084 287 
Q 2609 -91 1734 -91 
Q 1441 -91 1130 -33 
Q 819 25 488 141 
L 488 750 
Q 750 597 1062 519 
Q 1375 441 1716 441 
Q 2309 441 2620 675 
Q 2931 909 2931 1356 
Q 2931 1769 2642 2001 
Q 2353 2234 1838 2234 
L 1294 2234 
L 1294 2753 
L 1863 2753 
Q 2328 2753 2575 2939 
Q 2822 3125 2822 3475 
Q 2822 3834 2567 4026 
Q 2313 4219 1838 4219 
Q 1578 4219 1281 4162 
Q 984 4106 628 3988 
L 628 4550 
Q 988 4650 1302 4700 
Q 1616 4750 1894 4750 
Q 2613 4750 3031 4423 
Q 3450 4097 3450 3541 
Q 3450 3153 3228 2886 
Q 3006 2619 2597 2516 
z
" id="DejaVuSans-33" transform="scale(0.015625)"/>
       </defs>
       <use xlink:href="#DejaVuSans-31"/>
       <use x="63.623047" xlink:href="#DejaVuSans-35"/>
       <use x="127.246094" xlink:href="#DejaVuSans-68"/>
       <use x="190.625" xlink:href="#DejaVuSans-3a"/>
       <use x="224.316406" xlink:href="#DejaVuSans-33"/>
       <use x="287.939453" xlink:href="#DejaVuSans-35"/>
       <use x="351.5625" xlink:href="#DejaVuSans-6d"/>
      </g>
     </g>
    </g>
    <g id="xtick_6">
     <g id="line2d_6">
      <g>
       <use style="stroke:#000000;stroke-width:0.8;" x="349.441834" xlink:href="#m10cc6eb9d0" y="288.430125"/>
      </g>
     </g>
     <g id="text_6">
      <!-- 19h:25m -->
      <g transform="translate(326.993396 303.028562)scale(0.1 -0.1)">
       <defs>
        <path d="M 703 97 
L 703 672 
Q 941 559 1184 500 
Q 1428 441 1663 441 
Q 2288 441 2617 861 
Q 2947 1281 2994 2138 
Q 2813 1869 2534 1725 
Q 2256 1581 1919 1581 
Q 1219 1581 811 2004 
Q 403 2428 403 3163 
Q 403 3881 828 4315 
Q 1253 4750 1959 4750 
Q 2769 4750 3195 4129 
Q 3622 3509 3622 2328 
Q 3622 1225 3098 567 
Q 2575 -91 1691 -91 
Q 1453 -91 1209 -44 
Q 966 3 703 97 
z
M 1959 2075 
Q 2384 2075 2632 2365 
Q 2881 2656 2881 3163 
Q 2881 3666 2632 3958 
Q 2384 4250 1959 4250 
Q 1534 4250 1286 3958 
Q 1038 3666 1038 3163 
Q 1038 2656 1286 2365 
Q 1534 2075 1959 2075 
z
" id="DejaVuSans-39" transform="scale(0.015625)"/>
        <path d="M 1228 531 
L 3431 531 
L 3431 0 
L 469 0 
L 469 531 
Q 828 903 1448 1529 
Q 2069 2156 2228 2338 
Q 2531 2678 2651 2914 
Q 2772 3150 2772 3378 
Q 2772 3750 2511 3984 
Q 2250 4219 1831 4219 
Q 1534 4219 1204 4116 
Q 875 4013 500 3803 
L 500 4441 
Q 881 4594 1212 4672 
Q 1544 4750 1819 4750 
Q 2544 4750 2975 4387 
Q 3406 4025 3406 3419 
Q 3406 3131 3298 2873 
Q 3191 2616 2906 2266 
Q 2828 2175 2409 1742 
Q 1991 1309 1228 531 
z
" id="DejaVuSans-32" transform="scale(0.015625)"/>
       </defs>
       <use xlink:href="#DejaVuSans-31"/>
       <use x="63.623047" xlink:href="#DejaVuSans-39"/>
       <use x="127.246094" xlink:href="#DejaVuSans-68"/>
       <use x="190.625" xlink:href="#DejaVuSans-3a"/>
       <use x="224.316406" xlink:href="#DejaVuSans-32"/>
       <use x="287.939453" xlink:href="#DejaVuSans-35"/>
       <use x="351.5625" xlink:href="#DejaVuSans-6d"/>
      </g>
     </g>
    </g>
    <g id="text_7">
     <!-- Time (hour:minute) -->
     <g transform="translate(189.843594 316.706687)scale(0.1 -0.1)">
      <defs>
       <path d="M -19 4666 
L 3928 4666 
L 3928 4134 
L 2272 4134 
L 2272 0 
L 1638 0 
L 1638 4134 
L -19 4134 
L -19 4666 
z
" id="DejaVuSans-54" transform="scale(0.015625)"/>
       <path d="M 603 3500 
L 1178 3500 
L 1178 0 
L 603 0 
L 603 3500 
z
M 603 4863 
L 1178 4863 
L 1178 4134 
L 603 4134 
L 603 4863 
z
" id="DejaVuSans-69" transform="scale(0.015625)"/>
       <path d="M 3597 1894 
L 3597 1613 
L 953 1613 
Q 991 1019 1311 708 
Q 1631 397 2203 397 
Q 2534 397 2845 478 
Q 3156 559 3463 722 
L 3463 178 
Q 3153 47 2828 -22 
Q 2503 -91 2169 -91 
Q 1331 -91 842 396 
Q 353 884 353 1716 
Q 353 2575 817 3079 
Q 1281 3584 2069 3584 
Q 2775 3584 3186 3129 
Q 3597 2675 3597 1894 
z
M 3022 2063 
Q 3016 2534 2758 2815 
Q 2500 3097 2075 3097 
Q 1594 3097 1305 2825 
Q 1016 2553 972 2059 
L 3022 2063 
z
" id="DejaVuSans-65" transform="scale(0.015625)"/>
       <path id="DejaVuSans-20" transform="scale(0.015625)"/>
       <path d="M 1984 4856 
Q 1566 4138 1362 3434 
Q 1159 2731 1159 2009 
Q 1159 1288 1364 580 
Q 1569 -128 1984 -844 
L 1484 -844 
Q 1016 -109 783 600 
Q 550 1309 550 2009 
Q 550 2706 781 3412 
Q 1013 4119 1484 4856 
L 1984 4856 
z
" id="DejaVuSans-28" transform="scale(0.015625)"/>
       <path d="M 1959 3097 
Q 1497 3097 1228 2736 
Q 959 2375 959 1747 
Q 959 1119 1226 758 
Q 1494 397 1959 397 
Q 2419 397 2687 759 
Q 2956 1122 2956 1747 
Q 2956 2369 2687 2733 
Q 2419 3097 1959 3097 
z
M 1959 3584 
Q 2709 3584 3137 3096 
Q 3566 2609 3566 1747 
Q 3566 888 3137 398 
Q 2709 -91 1959 -91 
Q 1206 -91 779 398 
Q 353 888 353 1747 
Q 353 2609 779 3096 
Q 1206 3584 1959 3584 
z
" id="DejaVuSans-6f" transform="scale(0.015625)"/>
       <path d="M 544 1381 
L 544 3500 
L 1119 3500 
L 1119 1403 
Q 1119 906 1312 657 
Q 1506 409 1894 409 
Q 2359 409 2629 706 
Q 2900 1003 2900 1516 
L 2900 3500 
L 3475 3500 
L 3475 0 
L 2900 0 
L 2900 538 
Q 2691 219 2414 64 
Q 2138 -91 1772 -91 
Q 1169 -91 856 284 
Q 544 659 544 1381 
z
M 1991 3584 
L 1991 3584 
z
" id="DejaVuSans-75" transform="scale(0.015625)"/>
       <path d="M 2631 2963 
Q 2534 3019 2420 3045 
Q 2306 3072 2169 3072 
Q 1681 3072 1420 2755 
Q 1159 2438 1159 1844 
L 1159 0 
L 581 0 
L 581 3500 
L 1159 3500 
L 1159 2956 
Q 1341 3275 1631 3429 
Q 1922 3584 2338 3584 
Q 2397 3584 2469 3576 
Q 2541 3569 2628 3553 
L 2631 2963 
z
" id="DejaVuSans-72" transform="scale(0.015625)"/>
       <path d="M 3513 2113 
L 3513 0 
L 2938 0 
L 2938 2094 
Q 2938 2591 2744 2837 
Q 2550 3084 2163 3084 
Q 1697 3084 1428 2787 
Q 1159 2491 1159 1978 
L 1159 0 
L 581 0 
L 581 3500 
L 1159 3500 
L 1159 2956 
Q 1366 3272 1645 3428 
Q 1925 3584 2291 3584 
Q 2894 3584 3203 3211 
Q 3513 2838 3513 2113 
z
" id="DejaVuSans-6e" transform="scale(0.015625)"/>
       <path d="M 1172 4494 
L 1172 3500 
L 2356 3500 
L 2356 3053 
L 1172 3053 
L 1172 1153 
Q 1172 725 1289 603 
Q 1406 481 1766 481 
L 2356 481 
L 2356 0 
L 1766 0 
Q 1100 0 847 248 
Q 594 497 594 1153 
L 594 3053 
L 172 3053 
L 172 3500 
L 594 3500 
L 594 4494 
L 1172 4494 
z
" id="DejaVuSans-74" transform="scale(0.015625)"/>
       <path d="M 513 4856 
L 1013 4856 
Q 1481 4119 1714 3412 
Q 1947 2706 1947 2009 
Q 1947 1309 1714 600 
Q 1481 -109 1013 -844 
L 513 -844 
Q 928 -128 1133 580 
Q 1338 1288 1338 2009 
Q 1338 2731 1133 3434 
Q 928 4138 513 4856 
z
" id="DejaVuSans-29" transform="scale(0.015625)"/>
      </defs>
      <use xlink:href="#DejaVuSans-54"/>
      <use x="57.958984" xlink:href="#DejaVuSans-69"/>
      <use x="85.742188" xlink:href="#DejaVuSans-6d"/>
      <use x="183.154297" xlink:href="#DejaVuSans-65"/>
      <use x="244.677734" xlink:href="#DejaVuSans-20"/>
      <use x="276.464844" xlink:href="#DejaVuSans-28"/>
      <use x="315.478516" xlink:href="#DejaVuSans-68"/>
      <use x="378.857422" xlink:href="#DejaVuSans-6f"/>
      <use x="440.039062" xlink:href="#DejaVuSans-75"/>
      <use x="503.417969" xlink:href="#DejaVuSans-72"/>
      <use x="542.78125" xlink:href="#DejaVuSans-3a"/>
      <use x="576.472656" xlink:href="#DejaVuSans-6d"/>
      <use x="673.884766" xlink:href="#DejaVuSans-69"/>
      <use x="701.667969" xlink:href="#DejaVuSans-6e"/>
      <use x="765.046875" xlink:href="#DejaVuSans-75"/>
      <use x="828.425781" xlink:href="#DejaVuSans-74"/>
      <use x="867.634766" xlink:href="#DejaVuSans-65"/>
      <use x="929.158203" xlink:href="#DejaVuSans-29"/>
     </g>
    </g>
   </g>
   <g id="matplotlib.axis_2">
    <g id="ytick_1">
     <g id="line2d_7">
      <defs>
       <path d="M 0 0 
L -3.5 0 
" id="meb8ec016f9" style="stroke:#000000;stroke-width:0.8;"/>
      </defs>
      <g>
       <use style="stroke:#000000;stroke-width:0.8;" x="59.690625" xlink:href="#meb8ec016f9" y="277.738703"/>
      </g>
     </g>
     <g id="text_8">
      <!-- 42000 -->
      <g transform="translate(20.878125 281.537921)scale(0.1 -0.1)">
       <defs>
        <path d="M 2034 4250 
Q 1547 4250 1301 3770 
Q 1056 3291 1056 2328 
Q 1056 1369 1301 889 
Q 1547 409 2034 409 
Q 2525 409 2770 889 
Q 3016 1369 3016 2328 
Q 3016 3291 2770 3770 
Q 2525 4250 2034 4250 
z
M 2034 4750 
Q 2819 4750 3233 4129 
Q 3647 3509 3647 2328 
Q 3647 1150 3233 529 
Q 2819 -91 2034 -91 
Q 1250 -91 836 529 
Q 422 1150 422 2328 
Q 422 3509 836 4129 
Q 1250 4750 2034 4750 
z
" id="DejaVuSans-30" transform="scale(0.015625)"/>
       </defs>
       <use xlink:href="#DejaVuSans-34"/>
       <use x="63.623047" xlink:href="#DejaVuSans-32"/>
       <use x="127.246094" xlink:href="#DejaVuSans-30"/>
       <use x="190.869141" xlink:href="#DejaVuSans-30"/>
       <use x="254.492188" xlink:href="#DejaVuSans-30"/>
      </g>
     </g>
    </g>
    <g id="ytick_2">
     <g id="line2d_8">
      <g>
       <use style="stroke:#000000;stroke-width:0.8;" x="59.690625" xlink:href="#meb8ec016f9" y="240.776136"/>
      </g>
     </g>
     <g id="text_9">
      <!-- 42500 -->
      <g transform="translate(20.878125 244.575354)scale(0.1 -0.1)">
       <use xlink:href="#DejaVuSans-34"/>
       <use x="63.623047" xlink:href="#DejaVuSans-32"/>
       <use x="127.246094" xlink:href="#DejaVuSans-35"/>
       <use x="190.869141" xlink:href="#DejaVuSans-30"/>
       <use x="254.492188" xlink:href="#DejaVuSans-30"/>
      </g>
     </g>
    </g>
    <g id="ytick_3">
     <g id="line2d_9">
      <g>
       <use style="stroke:#000000;stroke-width:0.8;" x="59.690625" xlink:href="#meb8ec016f9" y="203.813569"/>
      </g>
     </g>
     <g id="text_10">
      <!-- 43000 -->
      <g transform="translate(20.878125 207.612788)scale(0.1 -0.1)">
       <use xlink:href="#DejaVuSans-34"/>
       <use x="63.623047" xlink:href="#DejaVuSans-33"/>
       <use x="127.246094" xlink:href="#DejaVuSans-30"/>
       <use x="190.869141" xlink:href="#DejaVuSans-30"/>
       <use x="254.492188" xlink:href="#DejaVuSans-30"/>
      </g>
     </g>
    </g>
    <g id="ytick_4">
     <g id="line2d_10">
      <g>
       <use style="stroke:#000000;stroke-width:0.8;" x="59.690625" xlink:href="#meb8ec016f9" y="166.851002"/>
      </g>
     </g>
     <g id="text_11">
      <!-- 43500 -->
      <g transform="translate(20.878125 170.650221)scale(0.1 -0.1)">
       <use xlink:href="#DejaVuSans-34"/>
       <use x="63.623047" xlink:href="#DejaVuSans-33"/>
       <use x="127.246094" xlink:href="#DejaVuSans-35"/>
       <use x="190.869141" xlink:href="#DejaVuSans-30"/>
       <use x="254.492188" xlink:href="#DejaVuSans-30"/>
      </g>
     </g>
    </g>
    <g id="ytick_5">
     <g id="line2d_11">
      <g>
       <use style="stroke:#000000;stroke-width:0.8;" x="59.690625" xlink:href="#meb8ec016f9" y="129.888435"/>
      </g>
     </g>
     <g id="text_12">
      <!-- 44000 -->
      <g transform="translate(20.878125 133.687654)scale(0.1 -0.1)">
       <use xlink:href="#DejaVuSans-34"/>
       <use x="63.623047" xlink:href="#DejaVuSans-34"/>
       <use x="127.246094" xlink:href="#DejaVuSans-30"/>
       <use x="190.869141" xlink:href="#DejaVuSans-30"/>
       <use x="254.492188" xlink:href="#DejaVuSans-30"/>
      </g>
     </g>
    </g>
    <g id="ytick_6">
     <g id="line2d_12">
      <g>
       <use style="stroke:#000000;stroke-width:0.8;" x="59.690625" xlink:href="#meb8ec016f9" y="92.925868"/>
      </g>
     </g>
     <g id="text_13">
      <!-- 44500 -->
      <g transform="translate(20.878125 96.725087)scale(0.1 -0.1)">
       <use xlink:href="#DejaVuSans-34"/>
       <use x="63.623047" xlink:href="#DejaVuSans-34"/>
       <use x="127.246094" xlink:href="#DejaVuSans-35"/>
       <use x="190.869141" xlink:href="#DejaVuSans-30"/>
       <use x="254.492188" xlink:href="#DejaVuSans-30"/>
      </g>
     </g>
    </g>
    <g id="ytick_7">
     <g id="line2d_13">
      <g>
       <use style="stroke:#000000;stroke-width:0.8;" x="59.690625" xlink:href="#meb8ec016f9" y="55.963301"/>
      </g>
     </g>
     <g id="text_14">
      <!-- 45000 -->
      <g transform="translate(20.878125 59.76252)scale(0.1 -0.1)">
       <use xlink:href="#DejaVuSans-34"/>
       <use x="63.623047" xlink:href="#DejaVuSans-35"/>
       <use x="127.246094" xlink:href="#DejaVuSans-30"/>
       <use x="190.869141" xlink:href="#DejaVuSans-30"/>
       <use x="254.492188" xlink:href="#DejaVuSans-30"/>
      </g>
     </g>
    </g>
    <g id="text_15">
     <!-- Code region coverage -->
     <g transform="translate(14.798438 210.379594)rotate(-90)scale(0.1 -0.1)">
      <defs>
       <path d="M 4122 4306 
L 4122 3641 
Q 3803 3938 3442 4084 
Q 3081 4231 2675 4231 
Q 1875 4231 1450 3742 
Q 1025 3253 1025 2328 
Q 1025 1406 1450 917 
Q 1875 428 2675 428 
Q 3081 428 3442 575 
Q 3803 722 4122 1019 
L 4122 359 
Q 3791 134 3420 21 
Q 3050 -91 2638 -91 
Q 1578 -91 968 557 
Q 359 1206 359 2328 
Q 359 3453 968 4101 
Q 1578 4750 2638 4750 
Q 3056 4750 3426 4639 
Q 3797 4528 4122 4306 
z
" id="DejaVuSans-43" transform="scale(0.015625)"/>
       <path d="M 2906 2969 
L 2906 4863 
L 3481 4863 
L 3481 0 
L 2906 0 
L 2906 525 
Q 2725 213 2448 61 
Q 2172 -91 1784 -91 
Q 1150 -91 751 415 
Q 353 922 353 1747 
Q 353 2572 751 3078 
Q 1150 3584 1784 3584 
Q 2172 3584 2448 3432 
Q 2725 3281 2906 2969 
z
M 947 1747 
Q 947 1113 1208 752 
Q 1469 391 1925 391 
Q 2381 391 2643 752 
Q 2906 1113 2906 1747 
Q 2906 2381 2643 2742 
Q 2381 3103 1925 3103 
Q 1469 3103 1208 2742 
Q 947 2381 947 1747 
z
" id="DejaVuSans-64" transform="scale(0.015625)"/>
       <path d="M 2906 1791 
Q 2906 2416 2648 2759 
Q 2391 3103 1925 3103 
Q 1463 3103 1205 2759 
Q 947 2416 947 1791 
Q 947 1169 1205 825 
Q 1463 481 1925 481 
Q 2391 481 2648 825 
Q 2906 1169 2906 1791 
z
M 3481 434 
Q 3481 -459 3084 -895 
Q 2688 -1331 1869 -1331 
Q 1566 -1331 1297 -1286 
Q 1028 -1241 775 -1147 
L 775 -588 
Q 1028 -725 1275 -790 
Q 1522 -856 1778 -856 
Q 2344 -856 2625 -561 
Q 2906 -266 2906 331 
L 2906 616 
Q 2728 306 2450 153 
Q 2172 0 1784 0 
Q 1141 0 747 490 
Q 353 981 353 1791 
Q 353 2603 747 3093 
Q 1141 3584 1784 3584 
Q 2172 3584 2450 3431 
Q 2728 3278 2906 2969 
L 2906 3500 
L 3481 3500 
L 3481 434 
z
" id="DejaVuSans-67" transform="scale(0.015625)"/>
       <path d="M 3122 3366 
L 3122 2828 
Q 2878 2963 2633 3030 
Q 2388 3097 2138 3097 
Q 1578 3097 1268 2742 
Q 959 2388 959 1747 
Q 959 1106 1268 751 
Q 1578 397 2138 397 
Q 2388 397 2633 464 
Q 2878 531 3122 666 
L 3122 134 
Q 2881 22 2623 -34 
Q 2366 -91 2075 -91 
Q 1284 -91 818 406 
Q 353 903 353 1747 
Q 353 2603 823 3093 
Q 1294 3584 2113 3584 
Q 2378 3584 2631 3529 
Q 2884 3475 3122 3366 
z
" id="DejaVuSans-63" transform="scale(0.015625)"/>
       <path d="M 191 3500 
L 800 3500 
L 1894 563 
L 2988 3500 
L 3597 3500 
L 2284 0 
L 1503 0 
L 191 3500 
z
" id="DejaVuSans-76" transform="scale(0.015625)"/>
       <path d="M 2194 1759 
Q 1497 1759 1228 1600 
Q 959 1441 959 1056 
Q 959 750 1161 570 
Q 1363 391 1709 391 
Q 2188 391 2477 730 
Q 2766 1069 2766 1631 
L 2766 1759 
L 2194 1759 
z
M 3341 1997 
L 3341 0 
L 2766 0 
L 2766 531 
Q 2569 213 2275 61 
Q 1981 -91 1556 -91 
Q 1019 -91 701 211 
Q 384 513 384 1019 
Q 384 1609 779 1909 
Q 1175 2209 1959 2209 
L 2766 2209 
L 2766 2266 
Q 2766 2663 2505 2880 
Q 2244 3097 1772 3097 
Q 1472 3097 1187 3025 
Q 903 2953 641 2809 
L 641 3341 
Q 956 3463 1253 3523 
Q 1550 3584 1831 3584 
Q 2591 3584 2966 3190 
Q 3341 2797 3341 1997 
z
" id="DejaVuSans-61" transform="scale(0.015625)"/>
      </defs>
      <use xlink:href="#DejaVuSans-43"/>
      <use x="69.824219" xlink:href="#DejaVuSans-6f"/>
      <use x="131.005859" xlink:href="#DejaVuSans-64"/>
      <use x="194.482422" xlink:href="#DejaVuSans-65"/>
      <use x="256.005859" xlink:href="#DejaVuSans-20"/>
      <use x="287.792969" xlink:href="#DejaVuSans-72"/>
      <use x="326.65625" xlink:href="#DejaVuSans-65"/>
      <use x="388.179688" xlink:href="#DejaVuSans-67"/>
      <use x="451.65625" xlink:href="#DejaVuSans-69"/>
      <use x="479.439453" xlink:href="#DejaVuSans-6f"/>
      <use x="540.621094" xlink:href="#DejaVuSans-6e"/>
      <use x="604" xlink:href="#DejaVuSans-20"/>
      <use x="635.787109" xlink:href="#DejaVuSans-63"/>
      <use x="690.767578" xlink:href="#DejaVuSans-6f"/>
      <use x="751.949219" xlink:href="#DejaVuSans-76"/>
      <use x="811.128906" xlink:href="#DejaVuSans-65"/>
      <use x="872.652344" xlink:href="#DejaVuSans-72"/>
      <use x="913.765625" xlink:href="#DejaVuSans-61"/>
      <use x="975.044922" xlink:href="#DejaVuSans-67"/>
      <use x="1038.521484" xlink:href="#DejaVuSans-65"/>
     </g>
    </g>
   </g>
   <g id="line2d_14">
    <path clip-path="url(#p1c8f69a9ab)" d="M 75.923352 167.959879 
L 79.490985 136.800435 
L 83.058617 128.927408 
L 86.626249 121.645783 
L 90.193882 111.481077 
L 93.761514 108.893697 
L 97.329146 106.823793 
L 100.896779 105.640991 
L 104.464411 96.437312 
L 108.032044 92.186617 
L 111.599676 81.652285 
L 115.167308 79.693269 
L 118.734941 78.880093 
L 122.302573 76.440564 
L 125.870205 75.553462 
L 129.437838 72.226831 
L 133.00547 72.078981 
L 136.573103 71.561505 
L 140.140735 70.896178 
L 143.708367 69.269826 
L 147.276 69.04805 
L 150.843632 68.234874 
L 154.411264 67.273847 
L 157.978897 66.756371 
L 161.546529 64.686467 
L 165.114161 63.799366 
L 168.681794 63.725441 
L 172.249426 63.134039 
L 175.817059 62.394788 
L 179.384691 61.951237 
L 182.952323 60.250959 
L 186.519956 60.250959 
L 190.087588 59.881334 
L 193.65522 59.733483 
L 197.222853 59.437783 
L 200.790485 58.10713 
L 204.358118 58.10713 
L 207.92575 56.185077 
L 211.493382 55.963301 
L 215.061015 55.889376 
L 218.628647 55.889376 
L 222.196279 54.484799 
L 225.763912 52.562745 
L 229.331544 52.48882 
L 232.899176 51.823494 
L 236.466809 51.158168 
L 240.034441 51.010318 
L 243.602074 50.566767 
L 247.169706 49.827515 
L 250.737338 49.679665 
L 254.304971 48.349013 
L 257.872603 47.387986 
L 261.440235 47.314061 
L 265.007868 47.240136 
L 268.5755 47.240136 
L 272.143132 47.166211 
L 275.710765 46.796585 
L 279.278397 45.318082 
L 282.84603 44.948457 
L 286.413662 44.800606 
L 289.981294 44.726681 
L 293.548927 44.504906 
L 297.116559 43.98743 
L 300.684191 43.100328 
L 304.251824 42.361077 
L 307.819456 42.361077 
L 311.387089 42.361077 
L 314.954721 42.361077 
L 318.522353 42.065376 
L 322.089986 42.065376 
L 325.657618 41.769676 
L 329.22525 41.473975 
L 332.792883 41.473975 
L 336.360515 41.473975 
L 339.928147 41.178275 
L 343.49578 40.956499 
L 347.063412 40.956499 
L 350.631045 40.956499 
L 354.198677 40.956499 
L 357.766309 39.625847 
L 361.333942 39.625847 
L 364.901574 39.625847 
L 368.469206 39.625847 
L 372.036839 39.625847 
L 375.604471 39.330146 
L 379.172104 39.182296 
L 382.739736 38.443045 
L 386.307368 37.999494 
L 389.875001 37.999494 
L 393.442633 37.925569 
L 397.010265 37.260243 
L 400.577898 37.260243 
" style="fill:none;stroke:#d62728;stroke-linecap:square;stroke-width:1.5;"/>
    <defs>
     <path d="M 0 -3 
L -3 3 
L 3 3 
z
" id="m545c0955ee" style="stroke:#ffffff;stroke-linejoin:miter;stroke-width:0.75;"/>
    </defs>
    <g clip-path="url(#p1c8f69a9ab)">
     <use style="fill:#d62728;stroke:#ffffff;stroke-linejoin:miter;stroke-width:0.75;" x="75.923352" xlink:href="#m545c0955ee" y="167.959879"/>
     <use style="fill:#d62728;stroke:#ffffff;stroke-linejoin:miter;stroke-width:0.75;" x="79.490985" xlink:href="#m545c0955ee" y="136.800435"/>
     <use style="fill:#d62728;stroke:#ffffff;stroke-linejoin:miter;stroke-width:0.75;" x="83.058617" xlink:href="#m545c0955ee" y="128.927408"/>
     <use style="fill:#d62728;stroke:#ffffff;stroke-linejoin:miter;stroke-width:0.75;" x="86.626249" xlink:href="#m545c0955ee" y="121.645783"/>
     <use style="fill:#d62728;stroke:#ffffff;stroke-linejoin:miter;stroke-width:0.75;" x="90.193882" xlink:href="#m545c0955ee" y="111.481077"/>
     <use style="fill:#d62728;stroke:#ffffff;stroke-linejoin:miter;stroke-width:0.75;" x="93.761514" xlink:href="#m545c0955ee" y="108.893697"/>
     <use style="fill:#d62728;stroke:#ffffff;stroke-linejoin:miter;stroke-width:0.75;" x="97.329146" xlink:href="#m545c0955ee" y="106.823793"/>
     <use style="fill:#d62728;stroke:#ffffff;stroke-linejoin:miter;stroke-width:0.75;" x="100.896779" xlink:href="#m545c0955ee" y="105.640991"/>
     <use style="fill:#d62728;stroke:#ffffff;stroke-linejoin:miter;stroke-width:0.75;" x="104.464411" xlink:href="#m545c0955ee" y="96.437312"/>
     <use style="fill:#d62728;stroke:#ffffff;stroke-linejoin:miter;stroke-width:0.75;" x="108.032044" xlink:href="#m545c0955ee" y="92.186617"/>
     <use style="fill:#d62728;stroke:#ffffff;stroke-linejoin:miter;stroke-width:0.75;" x="111.599676" xlink:href="#m545c0955ee" y="81.652285"/>
     <use style="fill:#d62728;stroke:#ffffff;stroke-linejoin:miter;stroke-width:0.75;" x="115.167308" xlink:href="#m545c0955ee" y="79.693269"/>
     <use style="fill:#d62728;stroke:#ffffff;stroke-linejoin:miter;stroke-width:0.75;" x="118.734941" xlink:href="#m545c0955ee" y="78.880093"/>
     <use style="fill:#d62728;stroke:#ffffff;stroke-linejoin:miter;stroke-width:0.75;" x="122.302573" xlink:href="#m545c0955ee" y="76.440564"/>
     <use style="fill:#d62728;stroke:#ffffff;stroke-linejoin:miter;stroke-width:0.75;" x="125.870205" xlink:href="#m545c0955ee" y="75.553462"/>
     <use style="fill:#d62728;stroke:#ffffff;stroke-linejoin:miter;stroke-width:0.75;" x="129.437838" xlink:href="#m545c0955ee" y="72.226831"/>
     <use style="fill:#d62728;stroke:#ffffff;stroke-linejoin:miter;stroke-width:0.75;" x="133.00547" xlink:href="#m545c0955ee" y="72.078981"/>
     <use style="fill:#d62728;stroke:#ffffff;stroke-linejoin:miter;stroke-width:0.75;" x="136.573103" xlink:href="#m545c0955ee" y="71.561505"/>
     <use style="fill:#d62728;stroke:#ffffff;stroke-linejoin:miter;stroke-width:0.75;" x="140.140735" xlink:href="#m545c0955ee" y="70.896178"/>
     <use style="fill:#d62728;stroke:#ffffff;stroke-linejoin:miter;stroke-width:0.75;" x="143.708367" xlink:href="#m545c0955ee" y="69.269826"/>
     <use style="fill:#d62728;stroke:#ffffff;stroke-linejoin:miter;stroke-width:0.75;" x="147.276" xlink:href="#m545c0955ee" y="69.04805"/>
     <use style="fill:#d62728;stroke:#ffffff;stroke-linejoin:miter;stroke-width:0.75;" x="150.843632" xlink:href="#m545c0955ee" y="68.234874"/>
     <use style="fill:#d62728;stroke:#ffffff;stroke-linejoin:miter;stroke-width:0.75;" x="154.411264" xlink:href="#m545c0955ee" y="67.273847"/>
     <use style="fill:#d62728;stroke:#ffffff;stroke-linejoin:miter;stroke-width:0.75;" x="157.978897" xlink:href="#m545c0955ee" y="66.756371"/>
     <use style="fill:#d62728;stroke:#ffffff;stroke-linejoin:miter;stroke-width:0.75;" x="161.546529" xlink:href="#m545c0955ee" y="64.686467"/>
     <use style="fill:#d62728;stroke:#ffffff;stroke-linejoin:miter;stroke-width:0.75;" x="165.114161" xlink:href="#m545c0955ee" y="63.799366"/>
     <use style="fill:#d62728;stroke:#ffffff;stroke-linejoin:miter;stroke-width:0.75;" x="168.681794" xlink:href="#m545c0955ee" y="63.725441"/>
     <use style="fill:#d62728;stroke:#ffffff;stroke-linejoin:miter;stroke-width:0.75;" x="172.249426" xlink:href="#m545c0955ee" y="63.134039"/>
     <use style="fill:#d62728;stroke:#ffffff;stroke-linejoin:miter;stroke-width:0.75;" x="175.817059" xlink:href="#m545c0955ee" y="62.394788"/>
     <use style="fill:#d62728;stroke:#ffffff;stroke-linejoin:miter;stroke-width:0.75;" x="179.384691" xlink:href="#m545c0955ee" y="61.951237"/>
     <use style="fill:#d62728;stroke:#ffffff;stroke-linejoin:miter;stroke-width:0.75;" x="182.952323" xlink:href="#m545c0955ee" y="60.250959"/>
     <use style="fill:#d62728;stroke:#ffffff;stroke-linejoin:miter;stroke-width:0.75;" x="186.519956" xlink:href="#m545c0955ee" y="60.250959"/>
     <use style="fill:#d62728;stroke:#ffffff;stroke-linejoin:miter;stroke-width:0.75;" x="190.087588" xlink:href="#m545c0955ee" y="59.881334"/>
     <use style="fill:#d62728;stroke:#ffffff;stroke-linejoin:miter;stroke-width:0.75;" x="193.65522" xlink:href="#m545c0955ee" y="59.733483"/>
     <use style="fill:#d62728;stroke:#ffffff;stroke-linejoin:miter;stroke-width:0.75;" x="197.222853" xlink:href="#m545c0955ee" y="59.437783"/>
     <use style="fill:#d62728;stroke:#ffffff;stroke-linejoin:miter;stroke-width:0.75;" x="200.790485" xlink:href="#m545c0955ee" y="58.10713"/>
     <use style="fill:#d62728;stroke:#ffffff;stroke-linejoin:miter;stroke-width:0.75;" x="204.358118" xlink:href="#m545c0955ee" y="58.10713"/>
     <use style="fill:#d62728;stroke:#ffffff;stroke-linejoin:miter;stroke-width:0.75;" x="207.92575" xlink:href="#m545c0955ee" y="56.185077"/>
     <use style="fill:#d62728;stroke:#ffffff;stroke-linejoin:miter;stroke-width:0.75;" x="211.493382" xlink:href="#m545c0955ee" y="55.963301"/>
     <use style="fill:#d62728;stroke:#ffffff;stroke-linejoin:miter;stroke-width:0.75;" x="215.061015" xlink:href="#m545c0955ee" y="55.889376"/>
     <use style="fill:#d62728;stroke:#ffffff;stroke-linejoin:miter;stroke-width:0.75;" x="218.628647" xlink:href="#m545c0955ee" y="55.889376"/>
     <use style="fill:#d62728;stroke:#ffffff;stroke-linejoin:miter;stroke-width:0.75;" x="222.196279" xlink:href="#m545c0955ee" y="54.484799"/>
     <use style="fill:#d62728;stroke:#ffffff;stroke-linejoin:miter;stroke-width:0.75;" x="225.763912" xlink:href="#m545c0955ee" y="52.562745"/>
     <use style="fill:#d62728;stroke:#ffffff;stroke-linejoin:miter;stroke-width:0.75;" x="229.331544" xlink:href="#m545c0955ee" y="52.48882"/>
     <use style="fill:#d62728;stroke:#ffffff;stroke-linejoin:miter;stroke-width:0.75;" x="232.899176" xlink:href="#m545c0955ee" y="51.823494"/>
     <use style="fill:#d62728;stroke:#ffffff;stroke-linejoin:miter;stroke-width:0.75;" x="236.466809" xlink:href="#m545c0955ee" y="51.158168"/>
     <use style="fill:#d62728;stroke:#ffffff;stroke-linejoin:miter;stroke-width:0.75;" x="240.034441" xlink:href="#m545c0955ee" y="51.010318"/>
     <use style="fill:#d62728;stroke:#ffffff;stroke-linejoin:miter;stroke-width:0.75;" x="243.602074" xlink:href="#m545c0955ee" y="50.566767"/>
     <use style="fill:#d62728;stroke:#ffffff;stroke-linejoin:miter;stroke-width:0.75;" x="247.169706" xlink:href="#m545c0955ee" y="49.827515"/>
     <use style="fill:#d62728;stroke:#ffffff;stroke-linejoin:miter;stroke-width:0.75;" x="250.737338" xlink:href="#m545c0955ee" y="49.679665"/>
     <use style="fill:#d62728;stroke:#ffffff;stroke-linejoin:miter;stroke-width:0.75;" x="254.304971" xlink:href="#m545c0955ee" y="48.349013"/>
     <use style="fill:#d62728;stroke:#ffffff;stroke-linejoin:miter;stroke-width:0.75;" x="257.872603" xlink:href="#m545c0955ee" y="47.387986"/>
     <use style="fill:#d62728;stroke:#ffffff;stroke-linejoin:miter;stroke-width:0.75;" x="261.440235" xlink:href="#m545c0955ee" y="47.314061"/>
     <use style="fill:#d62728;stroke:#ffffff;stroke-linejoin:miter;stroke-width:0.75;" x="265.007868" xlink:href="#m545c0955ee" y="47.240136"/>
     <use style="fill:#d62728;stroke:#ffffff;stroke-linejoin:miter;stroke-width:0.75;" x="268.5755" xlink:href="#m545c0955ee" y="47.240136"/>
     <use style="fill:#d62728;stroke:#ffffff;stroke-linejoin:miter;stroke-width:0.75;" x="272.143132" xlink:href="#m545c0955ee" y="47.166211"/>
     <use style="fill:#d62728;stroke:#ffffff;stroke-linejoin:miter;stroke-width:0.75;" x="275.710765" xlink:href="#m545c0955ee" y="46.796585"/>
     <use style="fill:#d62728;stroke:#ffffff;stroke-linejoin:miter;stroke-width:0.75;" x="279.278397" xlink:href="#m545c0955ee" y="45.318082"/>
     <use style="fill:#d62728;stroke:#ffffff;stroke-linejoin:miter;stroke-width:0.75;" x="282.84603" xlink:href="#m545c0955ee" y="44.948457"/>
     <use style="fill:#d62728;stroke:#ffffff;stroke-linejoin:miter;stroke-width:0.75;" x="286.413662" xlink:href="#m545c0955ee" y="44.800606"/>
     <use style="fill:#d62728;stroke:#ffffff;stroke-linejoin:miter;stroke-width:0.75;" x="289.981294" xlink:href="#m545c0955ee" y="44.726681"/>
     <use style="fill:#d62728;stroke:#ffffff;stroke-linejoin:miter;stroke-width:0.75;" x="293.548927" xlink:href="#m545c0955ee" y="44.504906"/>
     <use style="fill:#d62728;stroke:#ffffff;stroke-linejoin:miter;stroke-width:0.75;" x="297.116559" xlink:href="#m545c0955ee" y="43.98743"/>
     <use style="fill:#d62728;stroke:#ffffff;stroke-linejoin:miter;stroke-width:0.75;" x="300.684191" xlink:href="#m545c0955ee" y="43.100328"/>
     <use style="fill:#d62728;stroke:#ffffff;stroke-linejoin:miter;stroke-width:0.75;" x="304.251824" xlink:href="#m545c0955ee" y="42.361077"/>
     <use style="fill:#d62728;stroke:#ffffff;stroke-linejoin:miter;stroke-width:0.75;" x="307.819456" xlink:href="#m545c0955ee" y="42.361077"/>
     <use style="fill:#d62728;stroke:#ffffff;stroke-linejoin:miter;stroke-width:0.75;" x="311.387089" xlink:href="#m545c0955ee" y="42.361077"/>
     <use style="fill:#d62728;stroke:#ffffff;stroke-linejoin:miter;stroke-width:0.75;" x="314.954721" xlink:href="#m545c0955ee" y="42.361077"/>
     <use style="fill:#d62728;stroke:#ffffff;stroke-linejoin:miter;stroke-width:0.75;" x="318.522353" xlink:href="#m545c0955ee" y="42.065376"/>
     <use style="fill:#d62728;stroke:#ffffff;stroke-linejoin:miter;stroke-width:0.75;" x="322.089986" xlink:href="#m545c0955ee" y="42.065376"/>
     <use style="fill:#d62728;stroke:#ffffff;stroke-linejoin:miter;stroke-width:0.75;" x="325.657618" xlink:href="#m545c0955ee" y="41.769676"/>
     <use style="fill:#d62728;stroke:#ffffff;stroke-linejoin:miter;stroke-width:0.75;" x="329.22525" xlink:href="#m545c0955ee" y="41.473975"/>
     <use style="fill:#d62728;stroke:#ffffff;stroke-linejoin:miter;stroke-width:0.75;" x="332.792883" xlink:href="#m545c0955ee" y="41.473975"/>
     <use style="fill:#d62728;stroke:#ffffff;stroke-linejoin:miter;stroke-width:0.75;" x="336.360515" xlink:href="#m545c0955ee" y="41.473975"/>
     <use style="fill:#d62728;stroke:#ffffff;stroke-linejoin:miter;stroke-width:0.75;" x="339.928147" xlink:href="#m545c0955ee" y="41.178275"/>
     <use style="fill:#d62728;stroke:#ffffff;stroke-linejoin:miter;stroke-width:0.75;" x="343.49578" xlink:href="#m545c0955ee" y="40.956499"/>
     <use style="fill:#d62728;stroke:#ffffff;stroke-linejoin:miter;stroke-width:0.75;" x="347.063412" xlink:href="#m545c0955ee" y="40.956499"/>
     <use style="fill:#d62728;stroke:#ffffff;stroke-linejoin:miter;stroke-width:0.75;" x="350.631045" xlink:href="#m545c0955ee" y="40.956499"/>
     <use style="fill:#d62728;stroke:#ffffff;stroke-linejoin:miter;stroke-width:0.75;" x="354.198677" xlink:href="#m545c0955ee" y="40.956499"/>
     <use style="fill:#d62728;stroke:#ffffff;stroke-linejoin:miter;stroke-width:0.75;" x="357.766309" xlink:href="#m545c0955ee" y="39.625847"/>
     <use style="fill:#d62728;stroke:#ffffff;stroke-linejoin:miter;stroke-width:0.75;" x="361.333942" xlink:href="#m545c0955ee" y="39.625847"/>
     <use style="fill:#d62728;stroke:#ffffff;stroke-linejoin:miter;stroke-width:0.75;" x="364.901574" xlink:href="#m545c0955ee" y="39.625847"/>
     <use style="fill:#d62728;stroke:#ffffff;stroke-linejoin:miter;stroke-width:0.75;" x="368.469206" xlink:href="#m545c0955ee" y="39.625847"/>
     <use style="fill:#d62728;stroke:#ffffff;stroke-linejoin:miter;stroke-width:0.75;" x="372.036839" xlink:href="#m545c0955ee" y="39.625847"/>
     <use style="fill:#d62728;stroke:#ffffff;stroke-linejoin:miter;stroke-width:0.75;" x="375.604471" xlink:href="#m545c0955ee" y="39.330146"/>
     <use style="fill:#d62728;stroke:#ffffff;stroke-linejoin:miter;stroke-width:0.75;" x="379.172104" xlink:href="#m545c0955ee" y="39.182296"/>
     <use style="fill:#d62728;stroke:#ffffff;stroke-linejoin:miter;stroke-width:0.75;" x="382.739736" xlink:href="#m545c0955ee" y="38.443045"/>
     <use style="fill:#d62728;stroke:#ffffff;stroke-linejoin:miter;stroke-width:0.75;" x="386.307368" xlink:href="#m545c0955ee" y="37.999494"/>
     <use style="fill:#d62728;stroke:#ffffff;stroke-linejoin:miter;stroke-width:0.75;" x="389.875001" xlink:href="#m545c0955ee" y="37.999494"/>
     <use style="fill:#d62728;stroke:#ffffff;stroke-linejoin:miter;stroke-width:0.75;" x="393.442633" xlink:href="#m545c0955ee" y="37.925569"/>
     <use style="fill:#d62728;stroke:#ffffff;stroke-linejoin:miter;stroke-width:0.75;" x="397.010265" xlink:href="#m545c0955ee" y="37.260243"/>
     <use style="fill:#d62728;stroke:#ffffff;stroke-linejoin:miter;stroke-width:0.75;" x="400.577898" xlink:href="#m545c0955ee" y="37.260243"/>
    </g>
   </g>
   <g id="line2d_15">
    <path clip-path="url(#p1c8f69a9ab)" d="M 75.923352 163.524371 
L 79.490985 139.868328 
L 83.058617 129.149184 
L 86.626249 125.305077 
L 90.193882 122.458959 
L 93.761514 121.719708 
L 97.329146 117.912564 
L 100.896779 117.099387 
L 104.464411 113.846681 
L 108.032044 114.438082 
L 111.599676 108.967622 
L 115.167308 113.033505 
L 118.734941 112.922617 
L 122.302573 104.827815 
L 125.870205 102.129547 
L 129.437838 107.969633 
L 133.00547 107.93267 
L 136.573103 102.129547 
L 140.140735 106.232392 
L 143.708367 104.75389 
L 147.276 106.010617 
L 150.843632 101.464221 
L 154.411264 105.825804 
L 157.978897 99.837868 
L 161.546529 104.75389 
L 165.114161 101.870809 
L 168.681794 93.332457 
L 172.249426 90.190638 
L 175.817059 90.560264 
L 179.384691 89.229612 
L 182.952323 88.49036 
L 186.519956 87.344521 
L 190.087588 87.011858 
L 193.65522 86.90097 
L 197.222853 86.90097 
L 200.790485 85.829055 
L 204.358118 86.124756 
L 207.92575 85.829055 
L 211.493382 85.681205 
L 215.061015 85.681205 
L 218.628647 84.424478 
L 222.196279 84.720178 
L 225.763912 83.943965 
L 229.331544 83.389526 
L 232.899176 84.498403 
L 236.466809 83.685227 
L 240.034441 83.389526 
L 243.602074 83.500414 
L 247.169706 83.241676 
L 250.737338 82.835088 
L 254.304971 82.428499 
L 257.872603 80.728221 
L 261.440235 81.393547 
L 265.007868 80.654296 
L 268.5755 80.617334 
L 272.143132 80.173783 
L 275.710765 79.656307 
L 279.278397 80.13682 
L 282.84603 77.179815 
L 286.413662 77.660328 
L 289.981294 77.25374 
L 293.548927 76.736264 
L 297.116559 76.588414 
L 300.684191 74.296735 
L 304.251824 71.117954 
L 307.819456 71.117954 
L 311.387089 67.643473 
L 314.954721 65.536606 
L 318.522353 65.425719 
L 322.089986 66.978146 
L 325.657618 63.28189 
L 329.22525 65.056093 
L 332.792883 65.056093 
L 336.360515 62.764414 
L 339.928147 60.768435 
L 343.49578 60.620585 
L 347.063412 60.620585 
L 350.631045 60.657547 
L 354.198677 59.289932 
L 357.766309 59.955259 
L 361.333942 59.881334 
L 364.901574 59.881334 
L 368.469206 59.585633 
L 372.036839 59.585633 
L 375.604471 59.585633 
L 379.172104 59.585633 
L 382.739736 59.031195 
L 386.307368 58.661569 
L 389.875001 58.254981 
L 393.442633 56.887366 
L 397.010265 58.328906 
L 400.577898 56.850403 
" style="fill:none;stroke:#1f77b4;stroke-linecap:square;stroke-width:1.5;"/>
    <defs>
     <path d="M 0 3 
C 0.795609 3 1.55874 2.683901 2.12132 2.12132 
C 2.683901 1.55874 3 0.795609 3 0 
C 3 -0.795609 2.683901 -1.55874 2.12132 -2.12132 
C 1.55874 -2.683901 0.795609 -3 0 -3 
C -0.795609 -3 -1.55874 -2.683901 -2.12132 -2.12132 
C -2.683901 -1.55874 -3 -0.795609 -3 0 
C -3 0.795609 -2.683901 1.55874 -2.12132 2.12132 
C -1.55874 2.683901 -0.795609 3 0 3 
z
" id="mc7486b5fe9" style="stroke:#ffffff;stroke-width:0.75;"/>
    </defs>
    <g clip-path="url(#p1c8f69a9ab)">
     <use style="fill:#1f77b4;stroke:#ffffff;stroke-width:0.75;" x="75.923352" xlink:href="#mc7486b5fe9" y="163.524371"/>
     <use style="fill:#1f77b4;stroke:#ffffff;stroke-width:0.75;" x="79.490985" xlink:href="#mc7486b5fe9" y="139.868328"/>
     <use style="fill:#1f77b4;stroke:#ffffff;stroke-width:0.75;" x="83.058617" xlink:href="#mc7486b5fe9" y="129.149184"/>
     <use style="fill:#1f77b4;stroke:#ffffff;stroke-width:0.75;" x="86.626249" xlink:href="#mc7486b5fe9" y="125.305077"/>
     <use style="fill:#1f77b4;stroke:#ffffff;stroke-width:0.75;" x="90.193882" xlink:href="#mc7486b5fe9" y="122.458959"/>
     <use style="fill:#1f77b4;stroke:#ffffff;stroke-width:0.75;" x="93.761514" xlink:href="#mc7486b5fe9" y="121.719708"/>
     <use style="fill:#1f77b4;stroke:#ffffff;stroke-width:0.75;" x="97.329146" xlink:href="#mc7486b5fe9" y="117.912564"/>
     <use style="fill:#1f77b4;stroke:#ffffff;stroke-width:0.75;" x="100.896779" xlink:href="#mc7486b5fe9" y="117.099387"/>
     <use style="fill:#1f77b4;stroke:#ffffff;stroke-width:0.75;" x="104.464411" xlink:href="#mc7486b5fe9" y="113.846681"/>
     <use style="fill:#1f77b4;stroke:#ffffff;stroke-width:0.75;" x="108.032044" xlink:href="#mc7486b5fe9" y="114.438082"/>
     <use style="fill:#1f77b4;stroke:#ffffff;stroke-width:0.75;" x="111.599676" xlink:href="#mc7486b5fe9" y="108.967622"/>
     <use style="fill:#1f77b4;stroke:#ffffff;stroke-width:0.75;" x="115.167308" xlink:href="#mc7486b5fe9" y="113.033505"/>
     <use style="fill:#1f77b4;stroke:#ffffff;stroke-width:0.75;" x="118.734941" xlink:href="#mc7486b5fe9" y="112.922617"/>
     <use style="fill:#1f77b4;stroke:#ffffff;stroke-width:0.75;" x="122.302573" xlink:href="#mc7486b5fe9" y="104.827815"/>
     <use style="fill:#1f77b4;stroke:#ffffff;stroke-width:0.75;" x="125.870205" xlink:href="#mc7486b5fe9" y="102.129547"/>
     <use style="fill:#1f77b4;stroke:#ffffff;stroke-width:0.75;" x="129.437838" xlink:href="#mc7486b5fe9" y="107.969633"/>
     <use style="fill:#1f77b4;stroke:#ffffff;stroke-width:0.75;" x="133.00547" xlink:href="#mc7486b5fe9" y="107.93267"/>
     <use style="fill:#1f77b4;stroke:#ffffff;stroke-width:0.75;" x="136.573103" xlink:href="#mc7486b5fe9" y="102.129547"/>
     <use style="fill:#1f77b4;stroke:#ffffff;stroke-width:0.75;" x="140.140735" xlink:href="#mc7486b5fe9" y="106.232392"/>
     <use style="fill:#1f77b4;stroke:#ffffff;stroke-width:0.75;" x="143.708367" xlink:href="#mc7486b5fe9" y="104.75389"/>
     <use style="fill:#1f77b4;stroke:#ffffff;stroke-width:0.75;" x="147.276" xlink:href="#mc7486b5fe9" y="106.010617"/>
     <use style="fill:#1f77b4;stroke:#ffffff;stroke-width:0.75;" x="150.843632" xlink:href="#mc7486b5fe9" y="101.464221"/>
     <use style="fill:#1f77b4;stroke:#ffffff;stroke-width:0.75;" x="154.411264" xlink:href="#mc7486b5fe9" y="105.825804"/>
     <use style="fill:#1f77b4;stroke:#ffffff;stroke-width:0.75;" x="157.978897" xlink:href="#mc7486b5fe9" y="99.837868"/>
     <use style="fill:#1f77b4;stroke:#ffffff;stroke-width:0.75;" x="161.546529" xlink:href="#mc7486b5fe9" y="104.75389"/>
     <use style="fill:#1f77b4;stroke:#ffffff;stroke-width:0.75;" x="165.114161" xlink:href="#mc7486b5fe9" y="101.870809"/>
     <use style="fill:#1f77b4;stroke:#ffffff;stroke-width:0.75;" x="168.681794" xlink:href="#mc7486b5fe9" y="93.332457"/>
     <use style="fill:#1f77b4;stroke:#ffffff;stroke-width:0.75;" x="172.249426" xlink:href="#mc7486b5fe9" y="90.190638"/>
     <use style="fill:#1f77b4;stroke:#ffffff;stroke-width:0.75;" x="175.817059" xlink:href="#mc7486b5fe9" y="90.560264"/>
     <use style="fill:#1f77b4;stroke:#ffffff;stroke-width:0.75;" x="179.384691" xlink:href="#mc7486b5fe9" y="89.229612"/>
     <use style="fill:#1f77b4;stroke:#ffffff;stroke-width:0.75;" x="182.952323" xlink:href="#mc7486b5fe9" y="88.49036"/>
     <use style="fill:#1f77b4;stroke:#ffffff;stroke-width:0.75;" x="186.519956" xlink:href="#mc7486b5fe9" y="87.344521"/>
     <use style="fill:#1f77b4;stroke:#ffffff;stroke-width:0.75;" x="190.087588" xlink:href="#mc7486b5fe9" y="87.011858"/>
     <use style="fill:#1f77b4;stroke:#ffffff;stroke-width:0.75;" x="193.65522" xlink:href="#mc7486b5fe9" y="86.90097"/>
     <use style="fill:#1f77b4;stroke:#ffffff;stroke-width:0.75;" x="197.222853" xlink:href="#mc7486b5fe9" y="86.90097"/>
     <use style="fill:#1f77b4;stroke:#ffffff;stroke-width:0.75;" x="200.790485" xlink:href="#mc7486b5fe9" y="85.829055"/>
     <use style="fill:#1f77b4;stroke:#ffffff;stroke-width:0.75;" x="204.358118" xlink:href="#mc7486b5fe9" y="86.124756"/>
     <use style="fill:#1f77b4;stroke:#ffffff;stroke-width:0.75;" x="207.92575" xlink:href="#mc7486b5fe9" y="85.829055"/>
     <use style="fill:#1f77b4;stroke:#ffffff;stroke-width:0.75;" x="211.493382" xlink:href="#mc7486b5fe9" y="85.681205"/>
     <use style="fill:#1f77b4;stroke:#ffffff;stroke-width:0.75;" x="215.061015" xlink:href="#mc7486b5fe9" y="85.681205"/>
     <use style="fill:#1f77b4;stroke:#ffffff;stroke-width:0.75;" x="218.628647" xlink:href="#mc7486b5fe9" y="84.424478"/>
     <use style="fill:#1f77b4;stroke:#ffffff;stroke-width:0.75;" x="222.196279" xlink:href="#mc7486b5fe9" y="84.720178"/>
     <use style="fill:#1f77b4;stroke:#ffffff;stroke-width:0.75;" x="225.763912" xlink:href="#mc7486b5fe9" y="83.943965"/>
     <use style="fill:#1f77b4;stroke:#ffffff;stroke-width:0.75;" x="229.331544" xlink:href="#mc7486b5fe9" y="83.389526"/>
     <use style="fill:#1f77b4;stroke:#ffffff;stroke-width:0.75;" x="232.899176" xlink:href="#mc7486b5fe9" y="84.498403"/>
     <use style="fill:#1f77b4;stroke:#ffffff;stroke-width:0.75;" x="236.466809" xlink:href="#mc7486b5fe9" y="83.685227"/>
     <use style="fill:#1f77b4;stroke:#ffffff;stroke-width:0.75;" x="240.034441" xlink:href="#mc7486b5fe9" y="83.389526"/>
     <use style="fill:#1f77b4;stroke:#ffffff;stroke-width:0.75;" x="243.602074" xlink:href="#mc7486b5fe9" y="83.500414"/>
     <use style="fill:#1f77b4;stroke:#ffffff;stroke-width:0.75;" x="247.169706" xlink:href="#mc7486b5fe9" y="83.241676"/>
     <use style="fill:#1f77b4;stroke:#ffffff;stroke-width:0.75;" x="250.737338" xlink:href="#mc7486b5fe9" y="82.835088"/>
     <use style="fill:#1f77b4;stroke:#ffffff;stroke-width:0.75;" x="254.304971" xlink:href="#mc7486b5fe9" y="82.428499"/>
     <use style="fill:#1f77b4;stroke:#ffffff;stroke-width:0.75;" x="257.872603" xlink:href="#mc7486b5fe9" y="80.728221"/>
     <use style="fill:#1f77b4;stroke:#ffffff;stroke-width:0.75;" x="261.440235" xlink:href="#mc7486b5fe9" y="81.393547"/>
     <use style="fill:#1f77b4;stroke:#ffffff;stroke-width:0.75;" x="265.007868" xlink:href="#mc7486b5fe9" y="80.654296"/>
     <use style="fill:#1f77b4;stroke:#ffffff;stroke-width:0.75;" x="268.5755" xlink:href="#mc7486b5fe9" y="80.617334"/>
     <use style="fill:#1f77b4;stroke:#ffffff;stroke-width:0.75;" x="272.143132" xlink:href="#mc7486b5fe9" y="80.173783"/>
     <use style="fill:#1f77b4;stroke:#ffffff;stroke-width:0.75;" x="275.710765" xlink:href="#mc7486b5fe9" y="79.656307"/>
     <use style="fill:#1f77b4;stroke:#ffffff;stroke-width:0.75;" x="279.278397" xlink:href="#mc7486b5fe9" y="80.13682"/>
     <use style="fill:#1f77b4;stroke:#ffffff;stroke-width:0.75;" x="282.84603" xlink:href="#mc7486b5fe9" y="77.179815"/>
     <use style="fill:#1f77b4;stroke:#ffffff;stroke-width:0.75;" x="286.413662" xlink:href="#mc7486b5fe9" y="77.660328"/>
     <use style="fill:#1f77b4;stroke:#ffffff;stroke-width:0.75;" x="289.981294" xlink:href="#mc7486b5fe9" y="77.25374"/>
     <use style="fill:#1f77b4;stroke:#ffffff;stroke-width:0.75;" x="293.548927" xlink:href="#mc7486b5fe9" y="76.736264"/>
     <use style="fill:#1f77b4;stroke:#ffffff;stroke-width:0.75;" x="297.116559" xlink:href="#mc7486b5fe9" y="76.588414"/>
     <use style="fill:#1f77b4;stroke:#ffffff;stroke-width:0.75;" x="300.684191" xlink:href="#mc7486b5fe9" y="74.296735"/>
     <use style="fill:#1f77b4;stroke:#ffffff;stroke-width:0.75;" x="304.251824" xlink:href="#mc7486b5fe9" y="71.117954"/>
     <use style="fill:#1f77b4;stroke:#ffffff;stroke-width:0.75;" x="307.819456" xlink:href="#mc7486b5fe9" y="71.117954"/>
     <use style="fill:#1f77b4;stroke:#ffffff;stroke-width:0.75;" x="311.387089" xlink:href="#mc7486b5fe9" y="67.643473"/>
     <use style="fill:#1f77b4;stroke:#ffffff;stroke-width:0.75;" x="314.954721" xlink:href="#mc7486b5fe9" y="65.536606"/>
     <use style="fill:#1f77b4;stroke:#ffffff;stroke-width:0.75;" x="318.522353" xlink:href="#mc7486b5fe9" y="65.425719"/>
     <use style="fill:#1f77b4;stroke:#ffffff;stroke-width:0.75;" x="322.089986" xlink:href="#mc7486b5fe9" y="66.978146"/>
     <use style="fill:#1f77b4;stroke:#ffffff;stroke-width:0.75;" x="325.657618" xlink:href="#mc7486b5fe9" y="63.28189"/>
     <use style="fill:#1f77b4;stroke:#ffffff;stroke-width:0.75;" x="329.22525" xlink:href="#mc7486b5fe9" y="65.056093"/>
     <use style="fill:#1f77b4;stroke:#ffffff;stroke-width:0.75;" x="332.792883" xlink:href="#mc7486b5fe9" y="65.056093"/>
     <use style="fill:#1f77b4;stroke:#ffffff;stroke-width:0.75;" x="336.360515" xlink:href="#mc7486b5fe9" y="62.764414"/>
     <use style="fill:#1f77b4;stroke:#ffffff;stroke-width:0.75;" x="339.928147" xlink:href="#mc7486b5fe9" y="60.768435"/>
     <use style="fill:#1f77b4;stroke:#ffffff;stroke-width:0.75;" x="343.49578" xlink:href="#mc7486b5fe9" y="60.620585"/>
     <use style="fill:#1f77b4;stroke:#ffffff;stroke-width:0.75;" x="347.063412" xlink:href="#mc7486b5fe9" y="60.620585"/>
     <use style="fill:#1f77b4;stroke:#ffffff;stroke-width:0.75;" x="350.631045" xlink:href="#mc7486b5fe9" y="60.657547"/>
     <use style="fill:#1f77b4;stroke:#ffffff;stroke-width:0.75;" x="354.198677" xlink:href="#mc7486b5fe9" y="59.289932"/>
     <use style="fill:#1f77b4;stroke:#ffffff;stroke-width:0.75;" x="357.766309" xlink:href="#mc7486b5fe9" y="59.955259"/>
     <use style="fill:#1f77b4;stroke:#ffffff;stroke-width:0.75;" x="361.333942" xlink:href="#mc7486b5fe9" y="59.881334"/>
     <use style="fill:#1f77b4;stroke:#ffffff;stroke-width:0.75;" x="364.901574" xlink:href="#mc7486b5fe9" y="59.881334"/>
     <use style="fill:#1f77b4;stroke:#ffffff;stroke-width:0.75;" x="368.469206" xlink:href="#mc7486b5fe9" y="59.585633"/>
     <use style="fill:#1f77b4;stroke:#ffffff;stroke-width:0.75;" x="372.036839" xlink:href="#mc7486b5fe9" y="59.585633"/>
     <use style="fill:#1f77b4;stroke:#ffffff;stroke-width:0.75;" x="375.604471" xlink:href="#mc7486b5fe9" y="59.585633"/>
     <use style="fill:#1f77b4;stroke:#ffffff;stroke-width:0.75;" x="379.172104" xlink:href="#mc7486b5fe9" y="59.585633"/>
     <use style="fill:#1f77b4;stroke:#ffffff;stroke-width:0.75;" x="382.739736" xlink:href="#mc7486b5fe9" y="59.031195"/>
     <use style="fill:#1f77b4;stroke:#ffffff;stroke-width:0.75;" x="386.307368" xlink:href="#mc7486b5fe9" y="58.661569"/>
     <use style="fill:#1f77b4;stroke:#ffffff;stroke-width:0.75;" x="389.875001" xlink:href="#mc7486b5fe9" y="58.254981"/>
     <use style="fill:#1f77b4;stroke:#ffffff;stroke-width:0.75;" x="393.442633" xlink:href="#mc7486b5fe9" y="56.887366"/>
     <use style="fill:#1f77b4;stroke:#ffffff;stroke-width:0.75;" x="397.010265" xlink:href="#mc7486b5fe9" y="58.328906"/>
     <use style="fill:#1f77b4;stroke:#ffffff;stroke-width:0.75;" x="400.577898" xlink:href="#mc7486b5fe9" y="56.850403"/>
    </g>
   </g>
   <g id="line2d_16">
    <path clip-path="url(#p1c8f69a9ab)" d="M 75.923352 264.099515 
L 79.490985 245.100756 
L 83.058617 234.492499 
L 86.626249 228.208863 
L 90.193882 215.567665 
L 93.761514 208.803515 
L 97.329146 206.474874 
L 100.896779 191.061483 
L 104.464411 185.923686 
L 108.032044 174.391366 
L 111.599676 171.13866 
L 115.167308 167.442403 
L 118.734941 160.456478 
L 122.302573 160.04989 
L 125.870205 153.766253 
L 129.437838 152.657376 
L 133.00547 151.659387 
L 136.573103 151.400649 
L 140.140735 150.735323 
L 143.708367 148.850232 
L 147.276 148.295793 
L 150.843632 148.147943 
L 154.411264 146.22589 
L 157.978897 145.486638 
L 161.546529 142.751408 
L 165.114161 141.753419 
L 168.681794 141.938232 
L 172.249426 140.237954 
L 175.817059 140.75543 
L 179.384691 137.946275 
L 182.952323 138.685526 
L 186.519956 134.952307 
L 190.087588 134.360906 
L 193.65522 132.54974 
L 197.222853 130.627686 
L 200.790485 129.407922 
L 204.358118 129.223109 
L 207.92575 127.670681 
L 211.493382 127.190168 
L 215.061015 126.635729 
L 218.628647 125.896478 
L 222.196279 125.822553 
L 225.763912 125.674703 
L 229.331544 125.305077 
L 232.899176 125.452927 
L 236.466809 124.861526 
L 240.034441 123.309098 
L 243.602074 124.122275 
L 247.169706 121.830596 
L 250.737338 123.678724 
L 254.304971 121.276157 
L 257.872603 122.939473 
L 261.440235 120.795644 
L 265.007868 122.126296 
L 268.5755 122.052371 
L 272.143132 119.908542 
L 275.710765 118.134339 
L 279.278397 117.875601 
L 282.84603 118.947515 
L 286.413662 118.503965 
L 289.981294 117.986489 
L 293.548927 116.581911 
L 297.116559 116.581911 
L 300.684191 116.507986 
L 304.251824 113.329205 
L 307.819456 114.290232 
L 311.387089 115.029483 
L 314.954721 109.632949 
L 318.522353 109.115473 
L 322.089986 111.702852 
L 325.657618 108.893697 
L 329.22525 108.893697 
L 332.792883 108.893697 
L 336.360515 108.819772 
L 339.928147 110.52005 
L 343.49578 110.22435 
L 347.063412 109.632949 
L 350.631045 107.341269 
L 354.198677 108.782809 
L 357.766309 108.080521 
L 361.333942 107.969633 
L 364.901574 105.714916 
L 368.469206 107.378232 
L 372.036839 106.04758 
L 375.604471 105.825804 
L 379.172104 105.714916 
L 382.739736 104.162489 
L 386.307368 104.938703 
L 389.875001 102.203473 
L 393.442633 104.75389 
L 397.010265 104.051601 
L 400.577898 101.279408 
" style="fill:none;stroke:#98df8a;stroke-linecap:square;stroke-width:1.5;"/>
    <defs>
     <path d="M -0 3 
L 3 -3 
L -3 -3 
z
" id="m737b37cdfc" style="stroke:#ffffff;stroke-linejoin:miter;stroke-width:0.75;"/>
    </defs>
    <g clip-path="url(#p1c8f69a9ab)">
     <use style="fill:#98df8a;stroke:#ffffff;stroke-linejoin:miter;stroke-width:0.75;" x="75.923352" xlink:href="#m737b37cdfc" y="264.099515"/>
     <use style="fill:#98df8a;stroke:#ffffff;stroke-linejoin:miter;stroke-width:0.75;" x="79.490985" xlink:href="#m737b37cdfc" y="245.100756"/>
     <use style="fill:#98df8a;stroke:#ffffff;stroke-linejoin:miter;stroke-width:0.75;" x="83.058617" xlink:href="#m737b37cdfc" y="234.492499"/>
     <use style="fill:#98df8a;stroke:#ffffff;stroke-linejoin:miter;stroke-width:0.75;" x="86.626249" xlink:href="#m737b37cdfc" y="228.208863"/>
     <use style="fill:#98df8a;stroke:#ffffff;stroke-linejoin:miter;stroke-width:0.75;" x="90.193882" xlink:href="#m737b37cdfc" y="215.567665"/>
     <use style="fill:#98df8a;stroke:#ffffff;stroke-linejoin:miter;stroke-width:0.75;" x="93.761514" xlink:href="#m737b37cdfc" y="208.803515"/>
     <use style="fill:#98df8a;stroke:#ffffff;stroke-linejoin:miter;stroke-width:0.75;" x="97.329146" xlink:href="#m737b37cdfc" y="206.474874"/>
     <use style="fill:#98df8a;stroke:#ffffff;stroke-linejoin:miter;stroke-width:0.75;" x="100.896779" xlink:href="#m737b37cdfc" y="191.061483"/>
     <use style="fill:#98df8a;stroke:#ffffff;stroke-linejoin:miter;stroke-width:0.75;" x="104.464411" xlink:href="#m737b37cdfc" y="185.923686"/>
     <use style="fill:#98df8a;stroke:#ffffff;stroke-linejoin:miter;stroke-width:0.75;" x="108.032044" xlink:href="#m737b37cdfc" y="174.391366"/>
     <use style="fill:#98df8a;stroke:#ffffff;stroke-linejoin:miter;stroke-width:0.75;" x="111.599676" xlink:href="#m737b37cdfc" y="171.13866"/>
     <use style="fill:#98df8a;stroke:#ffffff;stroke-linejoin:miter;stroke-width:0.75;" x="115.167308" xlink:href="#m737b37cdfc" y="167.442403"/>
     <use style="fill:#98df8a;stroke:#ffffff;stroke-linejoin:miter;stroke-width:0.75;" x="118.734941" xlink:href="#m737b37cdfc" y="160.456478"/>
     <use style="fill:#98df8a;stroke:#ffffff;stroke-linejoin:miter;stroke-width:0.75;" x="122.302573" xlink:href="#m737b37cdfc" y="160.04989"/>
     <use style="fill:#98df8a;stroke:#ffffff;stroke-linejoin:miter;stroke-width:0.75;" x="125.870205" xlink:href="#m737b37cdfc" y="153.766253"/>
     <use style="fill:#98df8a;stroke:#ffffff;stroke-linejoin:miter;stroke-width:0.75;" x="129.437838" xlink:href="#m737b37cdfc" y="152.657376"/>
     <use style="fill:#98df8a;stroke:#ffffff;stroke-linejoin:miter;stroke-width:0.75;" x="133.00547" xlink:href="#m737b37cdfc" y="151.659387"/>
     <use style="fill:#98df8a;stroke:#ffffff;stroke-linejoin:miter;stroke-width:0.75;" x="136.573103" xlink:href="#m737b37cdfc" y="151.400649"/>
     <use style="fill:#98df8a;stroke:#ffffff;stroke-linejoin:miter;stroke-width:0.75;" x="140.140735" xlink:href="#m737b37cdfc" y="150.735323"/>
     <use style="fill:#98df8a;stroke:#ffffff;stroke-linejoin:miter;stroke-width:0.75;" x="143.708367" xlink:href="#m737b37cdfc" y="148.850232"/>
     <use style="fill:#98df8a;stroke:#ffffff;stroke-linejoin:miter;stroke-width:0.75;" x="147.276" xlink:href="#m737b37cdfc" y="148.295793"/>
     <use style="fill:#98df8a;stroke:#ffffff;stroke-linejoin:miter;stroke-width:0.75;" x="150.843632" xlink:href="#m737b37cdfc" y="148.147943"/>
     <use style="fill:#98df8a;stroke:#ffffff;stroke-linejoin:miter;stroke-width:0.75;" x="154.411264" xlink:href="#m737b37cdfc" y="146.22589"/>
     <use style="fill:#98df8a;stroke:#ffffff;stroke-linejoin:miter;stroke-width:0.75;" x="157.978897" xlink:href="#m737b37cdfc" y="145.486638"/>
     <use style="fill:#98df8a;stroke:#ffffff;stroke-linejoin:miter;stroke-width:0.75;" x="161.546529" xlink:href="#m737b37cdfc" y="142.751408"/>
     <use style="fill:#98df8a;stroke:#ffffff;stroke-linejoin:miter;stroke-width:0.75;" x="165.114161" xlink:href="#m737b37cdfc" y="141.753419"/>
     <use style="fill:#98df8a;stroke:#ffffff;stroke-linejoin:miter;stroke-width:0.75;" x="168.681794" xlink:href="#m737b37cdfc" y="141.938232"/>
     <use style="fill:#98df8a;stroke:#ffffff;stroke-linejoin:miter;stroke-width:0.75;" x="172.249426" xlink:href="#m737b37cdfc" y="140.237954"/>
     <use style="fill:#98df8a;stroke:#ffffff;stroke-linejoin:miter;stroke-width:0.75;" x="175.817059" xlink:href="#m737b37cdfc" y="140.75543"/>
     <use style="fill:#98df8a;stroke:#ffffff;stroke-linejoin:miter;stroke-width:0.75;" x="179.384691" xlink:href="#m737b37cdfc" y="137.946275"/>
     <use style="fill:#98df8a;stroke:#ffffff;stroke-linejoin:miter;stroke-width:0.75;" x="182.952323" xlink:href="#m737b37cdfc" y="138.685526"/>
     <use style="fill:#98df8a;stroke:#ffffff;stroke-linejoin:miter;stroke-width:0.75;" x="186.519956" xlink:href="#m737b37cdfc" y="134.952307"/>
     <use style="fill:#98df8a;stroke:#ffffff;stroke-linejoin:miter;stroke-width:0.75;" x="190.087588" xlink:href="#m737b37cdfc" y="134.360906"/>
     <use style="fill:#98df8a;stroke:#ffffff;stroke-linejoin:miter;stroke-width:0.75;" x="193.65522" xlink:href="#m737b37cdfc" y="132.54974"/>
     <use style="fill:#98df8a;stroke:#ffffff;stroke-linejoin:miter;stroke-width:0.75;" x="197.222853" xlink:href="#m737b37cdfc" y="130.627686"/>
     <use style="fill:#98df8a;stroke:#ffffff;stroke-linejoin:miter;stroke-width:0.75;" x="200.790485" xlink:href="#m737b37cdfc" y="129.407922"/>
     <use style="fill:#98df8a;stroke:#ffffff;stroke-linejoin:miter;stroke-width:0.75;" x="204.358118" xlink:href="#m737b37cdfc" y="129.223109"/>
     <use style="fill:#98df8a;stroke:#ffffff;stroke-linejoin:miter;stroke-width:0.75;" x="207.92575" xlink:href="#m737b37cdfc" y="127.670681"/>
     <use style="fill:#98df8a;stroke:#ffffff;stroke-linejoin:miter;stroke-width:0.75;" x="211.493382" xlink:href="#m737b37cdfc" y="127.190168"/>
     <use style="fill:#98df8a;stroke:#ffffff;stroke-linejoin:miter;stroke-width:0.75;" x="215.061015" xlink:href="#m737b37cdfc" y="126.635729"/>
     <use style="fill:#98df8a;stroke:#ffffff;stroke-linejoin:miter;stroke-width:0.75;" x="218.628647" xlink:href="#m737b37cdfc" y="125.896478"/>
     <use style="fill:#98df8a;stroke:#ffffff;stroke-linejoin:miter;stroke-width:0.75;" x="222.196279" xlink:href="#m737b37cdfc" y="125.822553"/>
     <use style="fill:#98df8a;stroke:#ffffff;stroke-linejoin:miter;stroke-width:0.75;" x="225.763912" xlink:href="#m737b37cdfc" y="125.674703"/>
     <use style="fill:#98df8a;stroke:#ffffff;stroke-linejoin:miter;stroke-width:0.75;" x="229.331544" xlink:href="#m737b37cdfc" y="125.305077"/>
     <use style="fill:#98df8a;stroke:#ffffff;stroke-linejoin:miter;stroke-width:0.75;" x="232.899176" xlink:href="#m737b37cdfc" y="125.452927"/>
     <use style="fill:#98df8a;stroke:#ffffff;stroke-linejoin:miter;stroke-width:0.75;" x="236.466809" xlink:href="#m737b37cdfc" y="124.861526"/>
     <use style="fill:#98df8a;stroke:#ffffff;stroke-linejoin:miter;stroke-width:0.75;" x="240.034441" xlink:href="#m737b37cdfc" y="123.309098"/>
     <use style="fill:#98df8a;stroke:#ffffff;stroke-linejoin:miter;stroke-width:0.75;" x="243.602074" xlink:href="#m737b37cdfc" y="124.122275"/>
     <use style="fill:#98df8a;stroke:#ffffff;stroke-linejoin:miter;stroke-width:0.75;" x="247.169706" xlink:href="#m737b37cdfc" y="121.830596"/>
     <use style="fill:#98df8a;stroke:#ffffff;stroke-linejoin:miter;stroke-width:0.75;" x="250.737338" xlink:href="#m737b37cdfc" y="123.678724"/>
     <use style="fill:#98df8a;stroke:#ffffff;stroke-linejoin:miter;stroke-width:0.75;" x="254.304971" xlink:href="#m737b37cdfc" y="121.276157"/>
     <use style="fill:#98df8a;stroke:#ffffff;stroke-linejoin:miter;stroke-width:0.75;" x="257.872603" xlink:href="#m737b37cdfc" y="122.939473"/>
     <use style="fill:#98df8a;stroke:#ffffff;stroke-linejoin:miter;stroke-width:0.75;" x="261.440235" xlink:href="#m737b37cdfc" y="120.795644"/>
     <use style="fill:#98df8a;stroke:#ffffff;stroke-linejoin:miter;stroke-width:0.75;" x="265.007868" xlink:href="#m737b37cdfc" y="122.126296"/>
     <use style="fill:#98df8a;stroke:#ffffff;stroke-linejoin:miter;stroke-width:0.75;" x="268.5755" xlink:href="#m737b37cdfc" y="122.052371"/>
     <use style="fill:#98df8a;stroke:#ffffff;stroke-linejoin:miter;stroke-width:0.75;" x="272.143132" xlink:href="#m737b37cdfc" y="119.908542"/>
     <use style="fill:#98df8a;stroke:#ffffff;stroke-linejoin:miter;stroke-width:0.75;" x="275.710765" xlink:href="#m737b37cdfc" y="118.134339"/>
     <use style="fill:#98df8a;stroke:#ffffff;stroke-linejoin:miter;stroke-width:0.75;" x="279.278397" xlink:href="#m737b37cdfc" y="117.875601"/>
     <use style="fill:#98df8a;stroke:#ffffff;stroke-linejoin:miter;stroke-width:0.75;" x="282.84603" xlink:href="#m737b37cdfc" y="118.947515"/>
     <use style="fill:#98df8a;stroke:#ffffff;stroke-linejoin:miter;stroke-width:0.75;" x="286.413662" xlink:href="#m737b37cdfc" y="118.503965"/>
     <use style="fill:#98df8a;stroke:#ffffff;stroke-linejoin:miter;stroke-width:0.75;" x="289.981294" xlink:href="#m737b37cdfc" y="117.986489"/>
     <use style="fill:#98df8a;stroke:#ffffff;stroke-linejoin:miter;stroke-width:0.75;" x="293.548927" xlink:href="#m737b37cdfc" y="116.581911"/>
     <use style="fill:#98df8a;stroke:#ffffff;stroke-linejoin:miter;stroke-width:0.75;" x="297.116559" xlink:href="#m737b37cdfc" y="116.581911"/>
     <use style="fill:#98df8a;stroke:#ffffff;stroke-linejoin:miter;stroke-width:0.75;" x="300.684191" xlink:href="#m737b37cdfc" y="116.507986"/>
     <use style="fill:#98df8a;stroke:#ffffff;stroke-linejoin:miter;stroke-width:0.75;" x="304.251824" xlink:href="#m737b37cdfc" y="113.329205"/>
     <use style="fill:#98df8a;stroke:#ffffff;stroke-linejoin:miter;stroke-width:0.75;" x="307.819456" xlink:href="#m737b37cdfc" y="114.290232"/>
     <use style="fill:#98df8a;stroke:#ffffff;stroke-linejoin:miter;stroke-width:0.75;" x="311.387089" xlink:href="#m737b37cdfc" y="115.029483"/>
     <use style="fill:#98df8a;stroke:#ffffff;stroke-linejoin:miter;stroke-width:0.75;" x="314.954721" xlink:href="#m737b37cdfc" y="109.632949"/>
     <use style="fill:#98df8a;stroke:#ffffff;stroke-linejoin:miter;stroke-width:0.75;" x="318.522353" xlink:href="#m737b37cdfc" y="109.115473"/>
     <use style="fill:#98df8a;stroke:#ffffff;stroke-linejoin:miter;stroke-width:0.75;" x="322.089986" xlink:href="#m737b37cdfc" y="111.702852"/>
     <use style="fill:#98df8a;stroke:#ffffff;stroke-linejoin:miter;stroke-width:0.75;" x="325.657618" xlink:href="#m737b37cdfc" y="108.893697"/>
     <use style="fill:#98df8a;stroke:#ffffff;stroke-linejoin:miter;stroke-width:0.75;" x="329.22525" xlink:href="#m737b37cdfc" y="108.893697"/>
     <use style="fill:#98df8a;stroke:#ffffff;stroke-linejoin:miter;stroke-width:0.75;" x="332.792883" xlink:href="#m737b37cdfc" y="108.893697"/>
     <use style="fill:#98df8a;stroke:#ffffff;stroke-linejoin:miter;stroke-width:0.75;" x="336.360515" xlink:href="#m737b37cdfc" y="108.819772"/>
     <use style="fill:#98df8a;stroke:#ffffff;stroke-linejoin:miter;stroke-width:0.75;" x="339.928147" xlink:href="#m737b37cdfc" y="110.52005"/>
     <use style="fill:#98df8a;stroke:#ffffff;stroke-linejoin:miter;stroke-width:0.75;" x="343.49578" xlink:href="#m737b37cdfc" y="110.22435"/>
     <use style="fill:#98df8a;stroke:#ffffff;stroke-linejoin:miter;stroke-width:0.75;" x="347.063412" xlink:href="#m737b37cdfc" y="109.632949"/>
     <use style="fill:#98df8a;stroke:#ffffff;stroke-linejoin:miter;stroke-width:0.75;" x="350.631045" xlink:href="#m737b37cdfc" y="107.341269"/>
     <use style="fill:#98df8a;stroke:#ffffff;stroke-linejoin:miter;stroke-width:0.75;" x="354.198677" xlink:href="#m737b37cdfc" y="108.782809"/>
     <use style="fill:#98df8a;stroke:#ffffff;stroke-linejoin:miter;stroke-width:0.75;" x="357.766309" xlink:href="#m737b37cdfc" y="108.080521"/>
     <use style="fill:#98df8a;stroke:#ffffff;stroke-linejoin:miter;stroke-width:0.75;" x="361.333942" xlink:href="#m737b37cdfc" y="107.969633"/>
     <use style="fill:#98df8a;stroke:#ffffff;stroke-linejoin:miter;stroke-width:0.75;" x="364.901574" xlink:href="#m737b37cdfc" y="105.714916"/>
     <use style="fill:#98df8a;stroke:#ffffff;stroke-linejoin:miter;stroke-width:0.75;" x="368.469206" xlink:href="#m737b37cdfc" y="107.378232"/>
     <use style="fill:#98df8a;stroke:#ffffff;stroke-linejoin:miter;stroke-width:0.75;" x="372.036839" xlink:href="#m737b37cdfc" y="106.04758"/>
     <use style="fill:#98df8a;stroke:#ffffff;stroke-linejoin:miter;stroke-width:0.75;" x="375.604471" xlink:href="#m737b37cdfc" y="105.825804"/>
     <use style="fill:#98df8a;stroke:#ffffff;stroke-linejoin:miter;stroke-width:0.75;" x="379.172104" xlink:href="#m737b37cdfc" y="105.714916"/>
     <use style="fill:#98df8a;stroke:#ffffff;stroke-linejoin:miter;stroke-width:0.75;" x="382.739736" xlink:href="#m737b37cdfc" y="104.162489"/>
     <use style="fill:#98df8a;stroke:#ffffff;stroke-linejoin:miter;stroke-width:0.75;" x="386.307368" xlink:href="#m737b37cdfc" y="104.938703"/>
     <use style="fill:#98df8a;stroke:#ffffff;stroke-linejoin:miter;stroke-width:0.75;" x="389.875001" xlink:href="#m737b37cdfc" y="102.203473"/>
     <use style="fill:#98df8a;stroke:#ffffff;stroke-linejoin:miter;stroke-width:0.75;" x="393.442633" xlink:href="#m737b37cdfc" y="104.75389"/>
     <use style="fill:#98df8a;stroke:#ffffff;stroke-linejoin:miter;stroke-width:0.75;" x="397.010265" xlink:href="#m737b37cdfc" y="104.051601"/>
     <use style="fill:#98df8a;stroke:#ffffff;stroke-linejoin:miter;stroke-width:0.75;" x="400.577898" xlink:href="#m737b37cdfc" y="101.279408"/>
    </g>
   </g>
   <g id="line2d_17"/>
   <g id="line2d_18"/>
   <g id="line2d_19"/>
   <g id="patch_3">
    <path d="M 59.690625 277.738703 
L 59.690625 55.963301 
" style="fill:none;stroke:#000000;stroke-linecap:square;stroke-linejoin:miter;stroke-width:0.8;"/>
   </g>
   <g id="patch_4">
    <path d="M 75.923352 288.430125 
L 349.441834 288.430125 
" style="fill:none;stroke:#000000;stroke-linecap:square;stroke-linejoin:miter;stroke-width:0.8;"/>
   </g>
   <g id="text_16">
    <!-- php_php-fuzz-parser-2020-07-25 (23h, 12 trials/fuzzer) -->
    <g transform="translate(73.249688 16.318125)scale(0.12 -0.12)">
     <defs>
      <path d="M 1159 525 
L 1159 -1331 
L 581 -1331 
L 581 3500 
L 1159 3500 
L 1159 2969 
Q 1341 3281 1617 3432 
Q 1894 3584 2278 3584 
Q 2916 3584 3314 3078 
Q 3713 2572 3713 1747 
Q 3713 922 3314 415 
Q 2916 -91 2278 -91 
Q 1894 -91 1617 61 
Q 1341 213 1159 525 
z
M 3116 1747 
Q 3116 2381 2855 2742 
Q 2594 3103 2138 3103 
Q 1681 3103 1420 2742 
Q 1159 2381 1159 1747 
Q 1159 1113 1420 752 
Q 1681 391 2138 391 
Q 2594 391 2855 752 
Q 3116 1113 3116 1747 
z
" id="DejaVuSans-70" transform="scale(0.015625)"/>
      <path d="M 3263 -1063 
L 3263 -1509 
L -63 -1509 
L -63 -1063 
L 3263 -1063 
z
" id="DejaVuSans-5f" transform="scale(0.015625)"/>
      <path d="M 313 2009 
L 1997 2009 
L 1997 1497 
L 313 1497 
L 313 2009 
z
" id="DejaVuSans-2d" transform="scale(0.015625)"/>
      <path d="M 2375 4863 
L 2375 4384 
L 1825 4384 
Q 1516 4384 1395 4259 
Q 1275 4134 1275 3809 
L 1275 3500 
L 2222 3500 
L 2222 3053 
L 1275 3053 
L 1275 0 
L 697 0 
L 697 3053 
L 147 3053 
L 147 3500 
L 697 3500 
L 697 3744 
Q 697 4328 969 4595 
Q 1241 4863 1831 4863 
L 2375 4863 
z
" id="DejaVuSans-66" transform="scale(0.015625)"/>
      <path d="M 353 3500 
L 3084 3500 
L 3084 2975 
L 922 459 
L 3084 459 
L 3084 0 
L 275 0 
L 275 525 
L 2438 3041 
L 353 3041 
L 353 3500 
z
" id="DejaVuSans-7a" transform="scale(0.015625)"/>
      <path d="M 2834 3397 
L 2834 2853 
Q 2591 2978 2328 3040 
Q 2066 3103 1784 3103 
Q 1356 3103 1142 2972 
Q 928 2841 928 2578 
Q 928 2378 1081 2264 
Q 1234 2150 1697 2047 
L 1894 2003 
Q 2506 1872 2764 1633 
Q 3022 1394 3022 966 
Q 3022 478 2636 193 
Q 2250 -91 1575 -91 
Q 1294 -91 989 -36 
Q 684 19 347 128 
L 347 722 
Q 666 556 975 473 
Q 1284 391 1588 391 
Q 1994 391 2212 530 
Q 2431 669 2431 922 
Q 2431 1156 2273 1281 
Q 2116 1406 1581 1522 
L 1381 1569 
Q 847 1681 609 1914 
Q 372 2147 372 2553 
Q 372 3047 722 3315 
Q 1072 3584 1716 3584 
Q 2034 3584 2315 3537 
Q 2597 3491 2834 3397 
z
" id="DejaVuSans-73" transform="scale(0.015625)"/>
      <path d="M 750 794 
L 1409 794 
L 1409 256 
L 897 -744 
L 494 -744 
L 750 256 
L 750 794 
z
" id="DejaVuSans-2c" transform="scale(0.015625)"/>
      <path d="M 603 4863 
L 1178 4863 
L 1178 0 
L 603 0 
L 603 4863 
z
" id="DejaVuSans-6c" transform="scale(0.015625)"/>
      <path d="M 1625 4666 
L 2156 4666 
L 531 -594 
L 0 -594 
L 1625 4666 
z
" id="DejaVuSans-2f" transform="scale(0.015625)"/>
     </defs>
     <use xlink:href="#DejaVuSans-70"/>
     <use x="63.476562" xlink:href="#DejaVuSans-68"/>
     <use x="126.855469" xlink:href="#DejaVuSans-70"/>
     <use x="190.332031" xlink:href="#DejaVuSans-5f"/>
     <use x="240.332031" xlink:href="#DejaVuSans-70"/>
     <use x="303.808594" xlink:href="#DejaVuSans-68"/>
     <use x="367.1875" xlink:href="#DejaVuSans-70"/>
     <use x="430.664062" xlink:href="#DejaVuSans-2d"/>
     <use x="466.748047" xlink:href="#DejaVuSans-66"/>
     <use x="501.953125" xlink:href="#DejaVuSans-75"/>
     <use x="565.332031" xlink:href="#DejaVuSans-7a"/>
     <use x="617.822266" xlink:href="#DejaVuSans-7a"/>
     <use x="670.3125" xlink:href="#DejaVuSans-2d"/>
     <use x="706.396484" xlink:href="#DejaVuSans-70"/>
     <use x="769.873047" xlink:href="#DejaVuSans-61"/>
     <use x="831.152344" xlink:href="#DejaVuSans-72"/>
     <use x="872.265625" xlink:href="#DejaVuSans-73"/>
     <use x="924.365234" xlink:href="#DejaVuSans-65"/>
     <use x="985.888672" xlink:href="#DejaVuSans-72"/>
     <use x="1020.626953" xlink:href="#DejaVuSans-2d"/>
     <use x="1056.710938" xlink:href="#DejaVuSans-32"/>
     <use x="1120.333984" xlink:href="#DejaVuSans-30"/>
     <use x="1183.957031" xlink:href="#DejaVuSans-32"/>
     <use x="1247.580078" xlink:href="#DejaVuSans-30"/>
     <use x="1311.203125" xlink:href="#DejaVuSans-2d"/>
     <use x="1347.287109" xlink:href="#DejaVuSans-30"/>
     <use x="1410.910156" xlink:href="#DejaVuSans-37"/>
     <use x="1474.533203" xlink:href="#DejaVuSans-2d"/>
     <use x="1510.617188" xlink:href="#DejaVuSans-32"/>
     <use x="1574.240234" xlink:href="#DejaVuSans-35"/>
     <use x="1637.863281" xlink:href="#DejaVuSans-20"/>
     <use x="1669.650391" xlink:href="#DejaVuSans-28"/>
     <use x="1708.664062" xlink:href="#DejaVuSans-32"/>
     <use x="1772.287109" xlink:href="#DejaVuSans-33"/>
     <use x="1835.910156" xlink:href="#DejaVuSans-68"/>
     <use x="1899.289062" xlink:href="#DejaVuSans-2c"/>
     <use x="1931.076172" xlink:href="#DejaVuSans-20"/>
     <use x="1962.863281" xlink:href="#DejaVuSans-31"/>
     <use x="2026.486328" xlink:href="#DejaVuSans-32"/>
     <use x="2090.109375" xlink:href="#DejaVuSans-20"/>
     <use x="2121.896484" xlink:href="#DejaVuSans-74"/>
     <use x="2161.105469" xlink:href="#DejaVuSans-72"/>
     <use x="2202.21875" xlink:href="#DejaVuSans-69"/>
     <use x="2230.001953" xlink:href="#DejaVuSans-61"/>
     <use x="2291.28125" xlink:href="#DejaVuSans-6c"/>
     <use x="2319.064453" xlink:href="#DejaVuSans-73"/>
     <use x="2371.164062" xlink:href="#DejaVuSans-2f"/>
     <use x="2404.855469" xlink:href="#DejaVuSans-66"/>
     <use x="2440.060547" xlink:href="#DejaVuSans-75"/>
     <use x="2503.439453" xlink:href="#DejaVuSans-7a"/>
     <use x="2555.929688" xlink:href="#DejaVuSans-7a"/>
     <use x="2608.419922" xlink:href="#DejaVuSans-65"/>
     <use x="2669.943359" xlink:href="#DejaVuSans-72"/>
     <use x="2711.056641" xlink:href="#DejaVuSans-29"/>
    </g>
   </g>
   <g id="legend_1">
    <g id="line2d_20">
     <path d="M 420.810625 30.416562 
L 440.810625 30.416562 
" style="fill:none;stroke:#d62728;stroke-linecap:square;stroke-width:1.5;"/>
    </g>
    <g id="line2d_21">
     <defs>
      <path d="M 0 -3 
L -3 3 
L 3 3 
z
" id="mc49625baa3" style="stroke:#d62728;stroke-linejoin:miter;"/>
     </defs>
     <g>
      <use style="fill:#d62728;stroke:#d62728;stroke-linejoin:miter;" x="430.810625" xlink:href="#mc49625baa3" y="30.416562"/>
     </g>
    </g>
    <g id="text_17">
     <!-- afl_scheduling_random -->
     <g transform="translate(448.810625 33.916562)scale(0.1 -0.1)">
      <use xlink:href="#DejaVuSans-61"/>
      <use x="61.279297" xlink:href="#DejaVuSans-66"/>
      <use x="96.484375" xlink:href="#DejaVuSans-6c"/>
      <use x="124.267578" xlink:href="#DejaVuSans-5f"/>
      <use x="174.267578" xlink:href="#DejaVuSans-73"/>
      <use x="226.367188" xlink:href="#DejaVuSans-63"/>
      <use x="281.347656" xlink:href="#DejaVuSans-68"/>
      <use x="344.726562" xlink:href="#DejaVuSans-65"/>
      <use x="406.25" xlink:href="#DejaVuSans-64"/>
      <use x="469.726562" xlink:href="#DejaVuSans-75"/>
      <use x="533.105469" xlink:href="#DejaVuSans-6c"/>
      <use x="560.888672" xlink:href="#DejaVuSans-69"/>
      <use x="588.671875" xlink:href="#DejaVuSans-6e"/>
      <use x="652.050781" xlink:href="#DejaVuSans-67"/>
      <use x="715.527344" xlink:href="#DejaVuSans-5f"/>
      <use x="765.527344" xlink:href="#DejaVuSans-72"/>
      <use x="806.640625" xlink:href="#DejaVuSans-61"/>
      <use x="867.919922" xlink:href="#DejaVuSans-6e"/>
      <use x="931.298828" xlink:href="#DejaVuSans-64"/>
      <use x="994.775391" xlink:href="#DejaVuSans-6f"/>
      <use x="1055.957031" xlink:href="#DejaVuSans-6d"/>
     </g>
    </g>
    <g id="line2d_22">
     <path d="M 420.810625 45.372813 
L 440.810625 45.372813 
" style="fill:none;stroke:#1f77b4;stroke-linecap:square;stroke-width:1.5;"/>
    </g>
    <g id="line2d_23">
     <defs>
      <path d="M 0 3 
C 0.795609 3 1.55874 2.683901 2.12132 2.12132 
C 2.683901 1.55874 3 0.795609 3 0 
C 3 -0.795609 2.683901 -1.55874 2.12132 -2.12132 
C 1.55874 -2.683901 0.795609 -3 0 -3 
C -0.795609 -3 -1.55874 -2.683901 -2.12132 -2.12132 
C -2.683901 -1.55874 -3 -0.795609 -3 0 
C -3 0.795609 -2.683901 1.55874 -2.12132 2.12132 
C -1.55874 2.683901 -0.795609 3 0 3 
z
" id="ma39106a71c" style="stroke:#1f77b4;"/>
     </defs>
     <g>
      <use style="fill:#1f77b4;stroke:#1f77b4;" x="430.810625" xlink:href="#ma39106a71c" y="45.372813"/>
     </g>
    </g>
    <g id="text_18">
     <!-- afl -->
     <g transform="translate(448.810625 48.872813)scale(0.1 -0.1)">
      <use xlink:href="#DejaVuSans-61"/>
      <use x="61.279297" xlink:href="#DejaVuSans-66"/>
      <use x="96.484375" xlink:href="#DejaVuSans-6c"/>
     </g>
    </g>
    <g id="line2d_24">
     <path d="M 420.810625 60.050937 
L 440.810625 60.050937 
" style="fill:none;stroke:#98df8a;stroke-linecap:square;stroke-width:1.5;"/>
    </g>
    <g id="line2d_25">
     <defs>
      <path d="M -0 3 
L 3 -3 
L -3 -3 
z
" id="m4228a816d5" style="stroke:#98df8a;stroke-linejoin:miter;"/>
     </defs>
     <g>
      <use style="fill:#98df8a;stroke:#98df8a;stroke-linejoin:miter;" x="430.810625" xlink:href="#m4228a816d5" y="60.050937"/>
     </g>
    </g>
    <g id="text_19">
     <!-- afl_scheduling_lifo -->
     <g transform="translate(448.810625 63.550937)scale(0.1 -0.1)">
      <use xlink:href="#DejaVuSans-61"/>
      <use x="61.279297" xlink:href="#DejaVuSans-66"/>
      <use x="96.484375" xlink:href="#DejaVuSans-6c"/>
      <use x="124.267578" xlink:href="#DejaVuSans-5f"/>
      <use x="174.267578" xlink:href="#DejaVuSans-73"/>
      <use x="226.367188" xlink:href="#DejaVuSans-63"/>
      <use x="281.347656" xlink:href="#DejaVuSans-68"/>
      <use x="344.726562" xlink:href="#DejaVuSans-65"/>
      <use x="406.25" xlink:href="#DejaVuSans-64"/>
      <use x="469.726562" xlink:href="#DejaVuSans-75"/>
      <use x="533.105469" xlink:href="#DejaVuSans-6c"/>
      <use x="560.888672" xlink:href="#DejaVuSans-69"/>
      <use x="588.671875" xlink:href="#DejaVuSans-6e"/>
      <use x="652.050781" xlink:href="#DejaVuSans-67"/>
      <use x="715.527344" xlink:href="#DejaVuSans-5f"/>
      <use x="765.527344" xlink:href="#DejaVuSans-6c"/>
      <use x="793.310547" xlink:href="#DejaVuSans-69"/>
      <use x="821.09375" xlink:href="#DejaVuSans-66"/>
      <use x="856.298828" xlink:href="#DejaVuSans-6f"/>
     </g>
    </g>
   </g>
  </g>
 </g>
 <defs>
  <clipPath id="p1c8f69a9ab">
   <rect height="266.112" width="357.12" x="59.690625" y="22.318125"/>
  </clipPath>
 </defs>
</svg>
