<?xml version="1.0" encoding="utf-8" standalone="no"?>
<!DOCTYPE svg PUBLIC "-//W3C//DTD SVG 1.1//EN"
  "http://www.w3.org/Graphics/SVG/1.1/DTD/svg11.dtd">
<svg height="325.986375pt" version="1.1" viewBox="0 0 581.710625 325.986375" width="581.710625pt" xmlns="http://www.w3.org/2000/svg" xmlns:xlink="http://www.w3.org/1999/xlink">
 <metadata>
  <rdf:RDF xmlns:cc="http://creativecommons.org/ns#" xmlns:dc="http://purl.org/dc/elements/1.1/" xmlns:rdf="http://www.w3.org/1999/02/22-rdf-syntax-ns#">
   <cc:Work>
    <dc:type rdf:resource="http://purl.org/dc/dcmitype/StillImage"/>
    <dc:date>2022-05-31T14:27:26.603117</dc:date>
    <dc:format>image/svg+xml</dc:format>
    <dc:creator>
     <cc:Agent>
      <dc:title>Matplotlib v3.4.3, https://matplotlib.org/</dc:title>
     </cc:Agent>
    </dc:creator>
   </cc:Work>
  </rdf:RDF>
 </metadata>
 <defs>
  <style type="text/css">*{stroke-linecap:butt;stroke-linejoin:round;}</style>
 </defs>
 <g id="figure_1">
  <g id="patch_1">
   <path d="M 0 325.986375 
L 581.710625 325.986375 
L 581.710625 0 
L 0 0 
z
" style="fill:#ffffff;"/>
  </g>
  <g id="axes_1">
   <g id="patch_2">
    <path d="M 66.053125 288.430125 
L 423.173125 288.430125 
L 423.173125 22.318125 
L 66.053125 22.318125 
z
" style="fill:#ffffff;"/>
   </g>
   <g id="PolyCollection_1">
    <defs>
     <path d="M 82.285852 -82.985246 
L 82.285852 -74.899179 
L 85.853485 -99.316437 
L 89.421117 -126.738565 
L 92.988749 -143.05256 
L 96.556382 -151.125731 
L 100.124014 -159.594392 
L 103.691646 -166.511182 
L 107.259279 -172.38766 
L 110.826911 -176.404901 
L 114.394544 -180.548956 
L 117.962176 -184.136316 
L 121.529808 -187.393741 
L 125.097441 -190.20624 
L 128.665073 -193.28419 
L 132.232705 -196.044028 
L 135.800338 -199.994637 
L 139.36797 -201.729208 
L 142.935603 -203.498169 
L 146.503235 -205.626082 
L 150.070867 -206.111848 
L 153.6385 -208.235461 
L 157.206132 -209.877608 
L 160.773764 -213.368244 
L 164.341397 -216.067899 
L 167.909029 -217.558727 
L 171.476661 -216.944856 
L 175.044294 -220.750219 
L 178.611926 -221.518793 
L 182.179559 -222.524716 
L 185.747191 -223.332893 
L 189.314823 -225.336139 
L 192.882456 -229.815503 
L 196.450088 -231.268501 
L 200.01772 -231.017021 
L 203.585353 -232.798879 
L 207.152985 -234.870907 
L 210.720618 -235.76506 
L 214.28825 -233.703779 
L 217.855882 -237.273943 
L 221.423515 -238.275567 
L 224.991147 -240.158447 
L 228.558779 -241.908063 
L 232.126412 -242.690447 
L 235.694044 -243.421246 
L 239.261676 -244.16494 
L 242.829309 -244.646407 
L 246.396941 -245.033301 
L 249.964574 -245.948948 
L 253.532206 -246.877491 
L 257.099838 -247.922103 
L 260.667471 -252.827048 
L 264.235103 -250.621757 
L 267.802735 -251.331062 
L 271.370368 -252.147836 
L 274.938 -253.299918 
L 278.505632 -254.507884 
L 282.073265 -254.929168 
L 285.640897 -256.021067 
L 289.20853 -256.971104 
L 292.776162 -258.127485 
L 296.343794 -258.748663 
L 299.911427 -259.146304 
L 303.479059 -260.487533 
L 307.046691 -261.325802 
L 310.614324 -262.387609 
L 314.181956 -263.922285 
L 317.749589 -261.72989 
L 321.317221 -262.329575 
L 324.884853 -265.835257 
L 328.452486 -267.137797 
L 332.020118 -266.90996 
L 335.58775 -267.748228 
L 339.155383 -269.141044 
L 342.723015 -270.194253 
L 346.290647 -270.920752 
L 349.85828 -269.562327 
L 353.425912 -272.519911 
L 356.993545 -273.461351 
L 360.561177 -270.482273 
L 364.128809 -275.262554 
L 367.696442 -272.438233 
L 371.264074 -273.891232 
L 374.831706 -273.932071 
L 378.399339 -275.142187 
L 381.966971 -275.305542 
L 385.534604 -277.356075 
L 389.102236 -279.776307 
L 392.669868 -280.23628 
L 396.237501 -278.331906 
L 399.805133 -278.710202 
L 403.372765 -278.925142 
L 406.940398 -278.476615 
L 406.940398 -291.57225 
L 406.940398 -291.57225 
L 403.372765 -291.251236 
L 399.805133 -290.785567 
L 396.237501 -290.454559 
L 392.669868 -290.110654 
L 389.102236 -289.740956 
L 385.534604 -289.885664 
L 381.966971 -286.641511 
L 378.399339 -287.784996 
L 374.831706 -285.773151 
L 371.264074 -286.57273 
L 367.696442 -285.919311 
L 364.128809 -285.519521 
L 360.561177 -283.778502 
L 356.993545 -285.779599 
L 353.425912 -283.361517 
L 349.85828 -283.13368 
L 346.290647 -284.287911 
L 342.723015 -283.986994 
L 339.155383 -283.552814 
L 335.58775 -281.2508 
L 332.020118 -281.060685 
L 328.452486 -282.033184 
L 324.884853 -280.072925 
L 321.317221 -280.805873 
L 317.749589 -280.139557 
L 314.181956 -277.902025 
L 310.614324 -277.755865 
L 307.046691 -276.47052 
L 303.479059 -275.937467 
L 299.911427 -275.20237 
L 296.343794 -274.665018 
L 292.776162 -273.917025 
L 289.20853 -273.482845 
L 285.640897 -273.100251 
L 282.073265 -272.678967 
L 278.505632 -272.292074 
L 274.938 -271.784814 
L 271.370368 -270.851971 
L 267.802735 -270.888511 
L 264.235103 -269.502144 
L 260.667471 -266.447837 
L 257.099838 -268.010456 
L 253.532206 -266.940052 
L 249.964574 -264.687474 
L 246.396941 -262.714318 
L 242.829309 -262.548814 
L 239.261676 -259.959048 
L 235.694044 -261.022735 
L 232.126412 -258.168324 
L 228.558779 -256.743267 
L 224.991147 -256.06701 
L 221.423515 -254.862536 
L 217.855882 -254.510034 
L 214.28825 -253.43705 
L 210.720618 -252.620705 
L 207.152985 -250.660447 
L 203.585353 -249.893109 
L 200.01772 -248.558327 
L 196.450088 -247.118225 
L 192.882456 -247.240741 
L 189.314823 -244.233721 
L 185.747191 -242.690447 
L 182.179559 -241.976844 
L 178.611926 -239.20411 
L 175.044294 -238.447519 
L 171.476661 -237.265345 
L 167.909029 -236.216435 
L 164.341397 -231.367374 
L 160.773764 -227.307145 
L 157.206132 -228.212045 
L 153.6385 -225.447909 
L 150.070867 -224.117426 
L 146.503235 -221.166291 
L 142.935603 -224.416193 
L 139.36797 -217.778826 
L 135.800338 -212.0786 
L 132.232705 -210.470844 
L 128.665073 -206.324639 
L 125.097441 -205.763644 
L 121.529808 -199.719513 
L 117.962176 -194.713599 
L 114.394544 -190.017092 
L 110.826911 -185.187375 
L 107.259279 -180.035248 
L 103.691646 -172.325327 
L 100.124014 -164.886231 
L 96.556382 -157.857672 
L 92.988749 -149.337424 
L 89.421117 -136.174459 
L 85.853485 -117.728253 
L 82.285852 -82.985246 
z
" id="m371f2c8729" style="stroke:#d62728;stroke-opacity:0.2;"/>
    </defs>
    <g clip-path="url(#p3904dd2168)">
     <use style="fill:#d62728;fill-opacity:0.2;stroke:#d62728;stroke-opacity:0.2;" x="0" xlink:href="#m371f2c8729" y="325.986375"/>
    </g>
   </g>
   <g id="PolyCollection_2">
    <defs>
     <path d="M 82.285852 -85.074469 
L 82.285852 -79.627873 
L 85.853485 -98.374996 
L 89.421117 -123.273721 
L 92.988749 -140.365802 
L 96.556382 -153.274869 
L 100.124014 -161.472974 
L 103.691646 -171.570885 
L 107.259279 -179.957869 
L 110.826911 -182.059989 
L 114.394544 -185.486143 
L 117.962176 -191.096094 
L 121.529808 -193.903219 
L 125.097441 -195.691525 
L 128.665073 -197.677577 
L 132.232705 -195.592652 
L 135.800338 -195.695824 
L 139.36797 -196.405128 
L 142.935603 -198.593224 
L 146.503235 -197.914011 
L 150.070867 -198.812463 
L 153.6385 -198.730786 
L 157.206132 -199.422895 
L 160.773764 -199.921557 
L 164.341397 -199.487377 
L 167.909029 -200.759826 
L 171.476661 -201.24989 
L 175.044294 -200.007533 
L 178.611926 -200.119302 
L 182.179559 -200.198938 
L 185.747191 -204.249226 
L 189.314823 -202.677096 
L 192.882456 -198.015033 
L 196.450088 -203.042495 
L 200.01772 -203.235942 
L 203.585353 -203.235942 
L 207.152985 -203.541158 
L 210.720618 -209.071473 
L 214.28825 -209.757241 
L 217.855882 -203.962441 
L 221.423515 -204.160187 
L 224.991147 -204.177382 
L 228.558779 -204.306346 
L 232.126412 -200.794216 
L 235.694044 -204.676044 
L 239.261676 -204.80071 
L 242.829309 -202.019378 
L 246.396941 -205.368153 
L 249.964574 -205.402544 
L 253.532206 -203.64003 
L 257.099838 -205.660472 
L 260.667471 -203.953844 
L 264.235103 -205.772241 
L 267.802735 -204.026923 
L 271.370368 -204.467552 
L 274.938 -205.95709 
L 278.505632 -206.03017 
L 282.073265 -206.073158 
L 285.640897 -206.094652 
L 289.20853 -205.258533 
L 292.776162 -205.292924 
L 296.343794 -205.30582 
L 299.911427 -205.376751 
L 303.479059 -210.701583 
L 307.046691 -206.520235 
L 310.614324 -205.419739 
L 314.181956 -204.314944 
L 317.749589 -206.692187 
L 321.317221 -206.829749 
L 324.884853 -206.851244 
L 328.452486 -212.177473 
L 332.020118 -206.984507 
L 335.58775 -217.422025 
L 339.155383 -207.242436 
L 342.723015 -207.242436 
L 346.290647 -207.242436 
L 349.85828 -207.281125 
L 353.425912 -207.285424 
L 356.993545 -207.294021 
L 360.561177 -207.315515 
L 364.128809 -207.315515 
L 367.696442 -207.315515 
L 371.264074 -207.324113 
L 374.831706 -211.900199 
L 378.399339 -211.902349 
L 381.966971 -207.921648 
L 385.534604 -211.827979 
L 389.102236 -207.968935 
L 392.669868 -211.966831 
L 396.237501 -211.966831 
L 399.805133 -211.956783 
L 403.372765 -212.153829 
L 406.940398 -213.12966 
L 406.940398 -236.225033 
L 406.940398 -236.225033 
L 403.372765 -239.462039 
L 399.805133 -237.766157 
L 396.237501 -238.62592 
L 392.669868 -238.610874 
L 389.102236 -235.808048 
L 385.534604 -237.991845 
L 381.966971 -237.983247 
L 378.399339 -236.691454 
L 374.831706 -234.155154 
L 371.264074 -235.378167 
L 367.696442 -235.236306 
L 364.128809 -235.047158 
L 360.561177 -235.870381 
L 356.993545 -234.935389 
L 353.425912 -234.82362 
L 349.85828 -236.646316 
L 346.290647 -234.612978 
L 342.723015 -234.608679 
L 339.155383 -234.527002 
L 335.58775 -234.35075 
L 332.020118 -234.084224 
L 328.452486 -236.457169 
L 324.884853 -233.039612 
L 321.317221 -232.166953 
L 317.749589 -236.23363 
L 314.181956 -236.164849 
L 310.614324 -233.654343 
L 307.046691 -235.636095 
L 303.479059 -232.824672 
L 299.911427 -232.532352 
L 296.343794 -237.703824 
L 292.776162 -231.765014 
L 289.20853 -233.32731 
L 285.640897 -227.820853 
L 282.073265 -234.918194 
L 278.505632 -227.696188 
L 274.938 -227.32649 
L 271.370368 -230.075581 
L 267.802735 -229.981007 
L 264.235103 -226.741851 
L 260.667471 -229.323288 
L 257.099838 -226.363556 
L 253.532206 -229.181428 
L 249.964574 -225.860595 
L 246.396941 -225.821905 
L 242.829309 -228.439882 
L 239.261676 -225.379128 
L 235.694044 -225.168486 
L 232.126412 -224.272183 
L 228.558779 -225.04382 
L 224.991147 -224.89766 
L 221.423515 -224.622859 
L 217.855882 -224.601042 
L 214.28825 -224.459182 
L 210.720618 -224.274333 
L 207.152985 -224.300125 
L 203.585353 -224.222747 
L 200.01772 -223.427466 
L 196.450088 -227.111549 
L 192.882456 -226.913804 
L 189.314823 -223.109354 
L 185.747191 -221.81971 
L 182.179559 -221.344638 
L 178.611926 -221.140498 
L 175.044294 -220.805191 
L 171.476661 -220.431194 
L 167.909029 -220.59025 
L 164.341397 -220.603254 
L 160.773764 -220.44409 
L 157.206132 -218.569808 
L 153.6385 -218.548314 
L 150.070867 -215.814269 
L 146.503235 -214.00017 
L 142.935603 -217.361841 
L 139.36797 -213.380818 
L 135.800338 -212.581561 
L 132.232705 -211.57349 
L 128.665073 -210.836243 
L 125.097441 -208.383609 
L 121.529808 -208.222565 
L 117.962176 -202.541684 
L 114.394544 -197.892517 
L 110.826911 -192.402933 
L 107.259279 -185.434557 
L 103.691646 -175.938479 
L 100.124014 -166.678944 
L 96.556382 -157.006507 
L 92.988749 -146.715149 
L 89.421117 -129.988467 
L 85.853485 -102.598903 
L 82.285852 -85.074469 
z
" id="m5705823fe4" style="stroke:#1f77b4;stroke-opacity:0.2;"/>
    </defs>
    <g clip-path="url(#p3904dd2168)">
     <use style="fill:#1f77b4;fill-opacity:0.2;stroke:#1f77b4;stroke-opacity:0.2;" x="0" xlink:href="#m5705823fe4" y="325.986375"/>
    </g>
   </g>
   <g id="PolyCollection_3">
    <defs>
     <path d="M 82.285852 -51.384672 
L 82.285852 -49.65225 
L 85.853485 -51.937069 
L 89.421117 -53.940316 
L 92.988749 -56.074677 
L 96.556382 -56.927991 
L 100.124014 -57.61795 
L 103.691646 -58.387438 
L 107.259279 -59.677082 
L 110.826911 -60.063975 
L 114.394544 -62.458414 
L 117.962176 -62.189523 
L 121.529808 -63.417049 
L 125.097441 -64.508948 
L 128.665073 -65.102184 
L 132.232705 -65.772799 
L 135.800338 -66.103807 
L 139.36797 -66.836755 
L 142.935603 -67.629886 
L 146.503235 -67.840528 
L 150.070867 -68.683095 
L 153.6385 -69.581547 
L 157.206132 -68.949622 
L 160.773764 -70.196277 
L 164.341397 -72.001779 
L 167.909029 -71.111924 
L 171.476661 -71.283877 
L 175.044294 -72.6509 
L 178.611926 -72.994805 
L 182.179559 -73.824475 
L 185.747191 -74.189875 
L 189.314823 -74.486493 
L 192.882456 -74.256506 
L 196.450088 -75.823424 
L 200.01772 -75.664152 
L 203.585353 -76.640198 
L 207.152985 -76.53622 
L 210.720618 -77.822372 
L 214.28825 -77.97283 
L 217.855882 -77.654718 
L 221.423515 -78.94909 
L 224.991147 -79.172199 
L 228.558779 -78.84334 
L 232.126412 -79.718148 
L 235.694044 -79.221635 
L 239.261676 -80.479038 
L 242.829309 -80.728369 
L 246.396941 -79.597781 
L 249.964574 -80.592957 
L 253.532206 -81.712475 
L 257.099838 -81.218326 
L 260.667471 -81.388237 
L 264.235103 -82.24585 
L 267.802735 -82.018443 
L 271.370368 -82.353267 
L 274.938 -82.834787 
L 278.505632 -83.29476 
L 282.073265 -83.526896 
L 285.640897 -83.552689 
L 289.20853 -83.930985 
L 292.776162 -83.935284 
L 296.343794 -84.244798 
L 299.911427 -84.421049 
L 303.479059 -84.85523 
L 307.046691 -85.224928 
L 310.614324 -85.276513 
L 314.181956 -85.573131 
L 317.749589 -85.736486 
L 321.317221 -86.144873 
L 324.884853 -86.398503 
L 328.452486 -86.187862 
L 332.020118 -86.553261 
L 335.58775 -87.193784 
L 339.155383 -86.858476 
L 342.723015 -87.114256 
L 346.290647 -86.95305 
L 349.85828 -87.365736 
L 353.425912 -88.126626 
L 356.993545 -88.204005 
L 360.561177 -88.375581 
L 364.128809 -88.167465 
L 367.696442 -88.975642 
L 371.264074 -88.414647 
L 374.831706 -88.926206 
L 378.399339 -89.080963 
L 381.966971 -89.080963 
L 385.534604 -89.351788 
L 389.102236 -89.424868 
L 392.669868 -89.59682 
L 396.237501 -89.641098 
L 399.805133 -89.050871 
L 403.372765 -89.768773 
L 406.940398 -90.190057 
L 406.940398 -108.025832 
L 406.940398 -108.025832 
L 403.372765 -102.725395 
L 399.805133 -107.355217 
L 396.237501 -107.243448 
L 392.669868 -114.55143 
L 389.102236 -102.286916 
L 385.534604 -114.164537 
L 381.966971 -102.114964 
L 378.399339 -102.733993 
L 374.831706 -101.758162 
L 371.264074 -101.667887 
L 367.696442 -101.521728 
L 364.128809 -101.526564 
L 360.561177 -101.680784 
L 356.993545 -101.620815 
L 353.425912 -100.967181 
L 349.85828 -100.85971 
L 346.290647 -103.447596 
L 342.723015 -100.327732 
L 339.155383 -111.202654 
L 335.58775 -110.880243 
L 332.020118 -110.622315 
L 328.452486 -98.65012 
L 324.884853 -109.573404 
L 321.317221 -109.048949 
L 317.749589 -108.563183 
L 314.181956 -108.434219 
L 310.614324 -108.270864 
L 307.046691 -107.23485 
L 303.479059 -106.611522 
L 299.911427 -106.508351 
L 296.343794 -106.069872 
L 292.776162 -97.63775 
L 289.20853 -97.538877 
L 285.640897 -105.072547 
L 282.073265 -94.735138 
L 278.505632 -96.288836 
L 274.938 -96.777987 
L 271.370368 -96.305118 
L 267.802735 -96.128867 
L 264.235103 -102.248227 
L 260.667471 -95.705434 
L 257.099838 -94.089349 
L 253.532206 -92.391049 
L 249.964574 -94.273929 
L 246.396941 -90.202953 
L 242.829309 -99.948362 
L 239.261676 -93.897783 
L 235.694044 -93.839749 
L 232.126412 -93.449202 
L 228.558779 -91.007691 
L 224.991147 -89.016481 
L 221.423515 -91.087864 
L 217.855882 -93.268007 
L 214.28825 -94.858567 
L 210.720618 -94.540455 
L 207.152985 -88.168593 
L 203.585353 -89.932128 
L 200.01772 -88.812287 
L 196.450088 -88.926206 
L 192.882456 -86.182058 
L 189.314823 -82.306033 
L 185.747191 -86.907913 
L 182.179559 -86.340469 
L 178.611926 -85.970772 
L 175.044294 -85.603223 
L 171.476661 -83.647263 
L 167.909029 -84.249097 
L 164.341397 -86.041702 
L 160.773764 -83.417277 
L 157.206132 -82.486584 
L 153.6385 -78.050209 
L 150.070867 -77.667614 
L 146.503235 -76.739393 
L 142.935603 -75.801929 
L 139.36797 -77.555845 
L 135.800338 -80.500532 
L 132.232705 -79.498909 
L 128.665073 -75.073281 
L 125.097441 -72.910655 
L 121.529808 -77.495662 
L 117.962176 -71.068936 
L 114.394544 -70.916328 
L 110.826911 -70.164036 
L 107.259279 -70.4757 
L 103.691646 -67.883516 
L 100.124014 -67.866321 
L 96.556382 -63.975895 
L 92.988749 -59.943608 
L 89.421117 -58.108015 
L 85.853485 -55.490038 
L 82.285852 -51.384672 
z
" id="md726acf4fb" style="stroke:#98df8a;stroke-opacity:0.2;"/>
    </defs>
    <g clip-path="url(#p3904dd2168)">
     <use style="fill:#98df8a;fill-opacity:0.2;stroke:#98df8a;stroke-opacity:0.2;" x="0" xlink:href="#md726acf4fb" y="325.986375"/>
    </g>
   </g>
   <g id="matplotlib.axis_1">
    <g id="xtick_1">
     <g id="line2d_1">
      <defs>
       <path d="M 0 0 
L 0 3.5 
" id="m1f4dd41fbf" style="stroke:#000000;stroke-width:0.8;"/>
      </defs>
      <g>
       <use style="stroke:#000000;stroke-width:0.8;" x="82.285852" xlink:href="#m1f4dd41fbf" y="288.430125"/>
      </g>
     </g>
     <g id="text_1">
      <!-- 15m -->
      <g transform="translate(71.05304 303.028562)scale(0.1 -0.1)">
       <defs>
        <path d="M 794 531 
L 1825 531 
L 1825 4091 
L 703 3866 
L 703 4441 
L 1819 4666 
L 2450 4666 
L 2450 531 
L 3481 531 
L 3481 0 
L 794 0 
L 794 531 
z
" id="DejaVuSans-31" transform="scale(0.015625)"/>
        <path d="M 691 4666 
L 3169 4666 
L 3169 4134 
L 1269 4134 
L 1269 2991 
Q 1406 3038 1543 3061 
Q 1681 3084 1819 3084 
Q 2600 3084 3056 2656 
Q 3513 2228 3513 1497 
Q 3513 744 3044 326 
Q 2575 -91 1722 -91 
Q 1428 -91 1123 -41 
Q 819 9 494 109 
L 494 744 
Q 775 591 1075 516 
Q 1375 441 1709 441 
Q 2250 441 2565 725 
Q 2881 1009 2881 1497 
Q 2881 1984 2565 2268 
Q 2250 2553 1709 2553 
Q 1456 2553 1204 2497 
Q 953 2441 691 2322 
L 691 4666 
z
" id="DejaVuSans-35" transform="scale(0.015625)"/>
        <path d="M 3328 2828 
Q 3544 3216 3844 3400 
Q 4144 3584 4550 3584 
Q 5097 3584 5394 3201 
Q 5691 2819 5691 2113 
L 5691 0 
L 5113 0 
L 5113 2094 
Q 5113 2597 4934 2840 
Q 4756 3084 4391 3084 
Q 3944 3084 3684 2787 
Q 3425 2491 3425 1978 
L 3425 0 
L 2847 0 
L 2847 2094 
Q 2847 2600 2669 2842 
Q 2491 3084 2119 3084 
Q 1678 3084 1418 2786 
Q 1159 2488 1159 1978 
L 1159 0 
L 581 0 
L 581 3500 
L 1159 3500 
L 1159 2956 
Q 1356 3278 1631 3431 
Q 1906 3584 2284 3584 
Q 2666 3584 2933 3390 
Q 3200 3197 3328 2828 
z
" id="DejaVuSans-6d" transform="scale(0.015625)"/>
       </defs>
       <use xlink:href="#DejaVuSans-31"/>
       <use x="63.623047" xlink:href="#DejaVuSans-35"/>
       <use x="127.246094" xlink:href="#DejaVuSans-6d"/>
      </g>
     </g>
    </g>
    <g id="xtick_2">
     <g id="line2d_2">
      <g>
       <use style="stroke:#000000;stroke-width:0.8;" x="136.989549" xlink:href="#m1f4dd41fbf" y="288.430125"/>
      </g>
     </g>
     <g id="text_2">
      <!-- 4h:5m -->
      <g transform="translate(120.903611 303.028562)scale(0.1 -0.1)">
       <defs>
        <path d="M 2419 4116 
L 825 1625 
L 2419 1625 
L 2419 4116 
z
M 2253 4666 
L 3047 4666 
L 3047 1625 
L 3713 1625 
L 3713 1100 
L 3047 1100 
L 3047 0 
L 2419 0 
L 2419 1100 
L 313 1100 
L 313 1709 
L 2253 4666 
z
" id="DejaVuSans-34" transform="scale(0.015625)"/>
        <path d="M 3513 2113 
L 3513 0 
L 2938 0 
L 2938 2094 
Q 2938 2591 2744 2837 
Q 2550 3084 2163 3084 
Q 1697 3084 1428 2787 
Q 1159 2491 1159 1978 
L 1159 0 
L 581 0 
L 581 4863 
L 1159 4863 
L 1159 2956 
Q 1366 3272 1645 3428 
Q 1925 3584 2291 3584 
Q 2894 3584 3203 3211 
Q 3513 2838 3513 2113 
z
" id="DejaVuSans-68" transform="scale(0.015625)"/>
        <path d="M 750 794 
L 1409 794 
L 1409 0 
L 750 0 
L 750 794 
z
M 750 3309 
L 1409 3309 
L 1409 2516 
L 750 2516 
L 750 3309 
z
" id="DejaVuSans-3a" transform="scale(0.015625)"/>
       </defs>
       <use xlink:href="#DejaVuSans-34"/>
       <use x="63.623047" xlink:href="#DejaVuSans-68"/>
       <use x="127.001953" xlink:href="#DejaVuSans-3a"/>
       <use x="160.693359" xlink:href="#DejaVuSans-35"/>
       <use x="224.316406" xlink:href="#DejaVuSans-6d"/>
      </g>
     </g>
    </g>
    <g id="xtick_3">
     <g id="line2d_3">
      <g>
       <use style="stroke:#000000;stroke-width:0.8;" x="191.693245" xlink:href="#m1f4dd41fbf" y="288.430125"/>
      </g>
     </g>
     <g id="text_3">
      <!-- 7h:55m -->
      <g transform="translate(172.426057 303.028562)scale(0.1 -0.1)">
       <defs>
        <path d="M 525 4666 
L 3525 4666 
L 3525 4397 
L 1831 0 
L 1172 0 
L 2766 4134 
L 525 4134 
L 525 4666 
z
" id="DejaVuSans-37" transform="scale(0.015625)"/>
       </defs>
       <use xlink:href="#DejaVuSans-37"/>
       <use x="63.623047" xlink:href="#DejaVuSans-68"/>
       <use x="127.001953" xlink:href="#DejaVuSans-3a"/>
       <use x="160.693359" xlink:href="#DejaVuSans-35"/>
       <use x="224.316406" xlink:href="#DejaVuSans-35"/>
       <use x="287.939453" xlink:href="#DejaVuSans-6d"/>
      </g>
     </g>
    </g>
    <g id="xtick_4">
     <g id="line2d_4">
      <g>
       <use style="stroke:#000000;stroke-width:0.8;" x="246.396941" xlink:href="#m1f4dd41fbf" y="288.430125"/>
      </g>
     </g>
     <g id="text_4">
      <!-- 11h:45m -->
      <g transform="translate(223.948504 303.028562)scale(0.1 -0.1)">
       <use xlink:href="#DejaVuSans-31"/>
       <use x="63.623047" xlink:href="#DejaVuSans-31"/>
       <use x="127.246094" xlink:href="#DejaVuSans-68"/>
       <use x="190.625" xlink:href="#DejaVuSans-3a"/>
       <use x="224.316406" xlink:href="#DejaVuSans-34"/>
       <use x="287.939453" xlink:href="#DejaVuSans-35"/>
       <use x="351.5625" xlink:href="#DejaVuSans-6d"/>
      </g>
     </g>
    </g>
    <g id="xtick_5">
     <g id="line2d_5">
      <g>
       <use style="stroke:#000000;stroke-width:0.8;" x="301.100637" xlink:href="#m1f4dd41fbf" y="288.430125"/>
      </g>
     </g>
     <g id="text_5">
      <!-- 15h:35m -->
      <g transform="translate(278.6522 303.028562)scale(0.1 -0.1)">
       <defs>
        <path d="M 2597 2516 
Q 3050 2419 3304 2112 
Q 3559 1806 3559 1356 
Q 3559 666 3084 287 
Q 2609 -91 1734 -91 
Q 1441 -91 1130 -33 
Q 819 25 488 141 
L 488 750 
Q 750 597 1062 519 
Q 1375 441 1716 441 
Q 2309 441 2620 675 
Q 2931 909 2931 1356 
Q 2931 1769 2642 2001 
Q 2353 2234 1838 2234 
L 1294 2234 
L 1294 2753 
L 1863 2753 
Q 2328 2753 2575 2939 
Q 2822 3125 2822 3475 
Q 2822 3834 2567 4026 
Q 2313 4219 1838 4219 
Q 1578 4219 1281 4162 
Q 984 4106 628 3988 
L 628 4550 
Q 988 4650 1302 4700 
Q 1616 4750 1894 4750 
Q 2613 4750 3031 4423 
Q 3450 4097 3450 3541 
Q 3450 3153 3228 2886 
Q 3006 2619 2597 2516 
z
" id="DejaVuSans-33" transform="scale(0.015625)"/>
       </defs>
       <use xlink:href="#DejaVuSans-31"/>
       <use x="63.623047" xlink:href="#DejaVuSans-35"/>
       <use x="127.246094" xlink:href="#DejaVuSans-68"/>
       <use x="190.625" xlink:href="#DejaVuSans-3a"/>
       <use x="224.316406" xlink:href="#DejaVuSans-33"/>
       <use x="287.939453" xlink:href="#DejaVuSans-35"/>
       <use x="351.5625" xlink:href="#DejaVuSans-6d"/>
      </g>
     </g>
    </g>
    <g id="xtick_6">
     <g id="line2d_6">
      <g>
       <use style="stroke:#000000;stroke-width:0.8;" x="355.804334" xlink:href="#m1f4dd41fbf" y="288.430125"/>
      </g>
     </g>
     <g id="text_6">
      <!-- 19h:25m -->
      <g transform="translate(333.355896 303.028562)scale(0.1 -0.1)">
       <defs>
        <path d="M 703 97 
L 703 672 
Q 941 559 1184 500 
Q 1428 441 1663 441 
Q 2288 441 2617 861 
Q 2947 1281 2994 2138 
Q 2813 1869 2534 1725 
Q 2256 1581 1919 1581 
Q 1219 1581 811 2004 
Q 403 2428 403 3163 
Q 403 3881 828 4315 
Q 1253 4750 1959 4750 
Q 2769 4750 3195 4129 
Q 3622 3509 3622 2328 
Q 3622 1225 3098 567 
Q 2575 -91 1691 -91 
Q 1453 -91 1209 -44 
Q 966 3 703 97 
z
M 1959 2075 
Q 2384 2075 2632 2365 
Q 2881 2656 2881 3163 
Q 2881 3666 2632 3958 
Q 2384 4250 1959 4250 
Q 1534 4250 1286 3958 
Q 1038 3666 1038 3163 
Q 1038 2656 1286 2365 
Q 1534 2075 1959 2075 
z
" id="DejaVuSans-39" transform="scale(0.015625)"/>
        <path d="M 1228 531 
L 3431 531 
L 3431 0 
L 469 0 
L 469 531 
Q 828 903 1448 1529 
Q 2069 2156 2228 2338 
Q 2531 2678 2651 2914 
Q 2772 3150 2772 3378 
Q 2772 3750 2511 3984 
Q 2250 4219 1831 4219 
Q 1534 4219 1204 4116 
Q 875 4013 500 3803 
L 500 4441 
Q 881 4594 1212 4672 
Q 1544 4750 1819 4750 
Q 2544 4750 2975 4387 
Q 3406 4025 3406 3419 
Q 3406 3131 3298 2873 
Q 3191 2616 2906 2266 
Q 2828 2175 2409 1742 
Q 1991 1309 1228 531 
z
" id="DejaVuSans-32" transform="scale(0.015625)"/>
       </defs>
       <use xlink:href="#DejaVuSans-31"/>
       <use x="63.623047" xlink:href="#DejaVuSans-39"/>
       <use x="127.246094" xlink:href="#DejaVuSans-68"/>
       <use x="190.625" xlink:href="#DejaVuSans-3a"/>
       <use x="224.316406" xlink:href="#DejaVuSans-32"/>
       <use x="287.939453" xlink:href="#DejaVuSans-35"/>
       <use x="351.5625" xlink:href="#DejaVuSans-6d"/>
      </g>
     </g>
    </g>
    <g id="text_7">
     <!-- Time (hour:minute) -->
     <g transform="translate(196.206094 316.706687)scale(0.1 -0.1)">
      <defs>
       <path d="M -19 4666 
L 3928 4666 
L 3928 4134 
L 2272 4134 
L 2272 0 
L 1638 0 
L 1638 4134 
L -19 4134 
L -19 4666 
z
" id="DejaVuSans-54" transform="scale(0.015625)"/>
       <path d="M 603 3500 
L 1178 3500 
L 1178 0 
L 603 0 
L 603 3500 
z
M 603 4863 
L 1178 4863 
L 1178 4134 
L 603 4134 
L 603 4863 
z
" id="DejaVuSans-69" transform="scale(0.015625)"/>
       <path d="M 3597 1894 
L 3597 1613 
L 953 1613 
Q 991 1019 1311 708 
Q 1631 397 2203 397 
Q 2534 397 2845 478 
Q 3156 559 3463 722 
L 3463 178 
Q 3153 47 2828 -22 
Q 2503 -91 2169 -91 
Q 1331 -91 842 396 
Q 353 884 353 1716 
Q 353 2575 817 3079 
Q 1281 3584 2069 3584 
Q 2775 3584 3186 3129 
Q 3597 2675 3597 1894 
z
M 3022 2063 
Q 3016 2534 2758 2815 
Q 2500 3097 2075 3097 
Q 1594 3097 1305 2825 
Q 1016 2553 972 2059 
L 3022 2063 
z
" id="DejaVuSans-65" transform="scale(0.015625)"/>
       <path id="DejaVuSans-20" transform="scale(0.015625)"/>
       <path d="M 1984 4856 
Q 1566 4138 1362 3434 
Q 1159 2731 1159 2009 
Q 1159 1288 1364 580 
Q 1569 -128 1984 -844 
L 1484 -844 
Q 1016 -109 783 600 
Q 550 1309 550 2009 
Q 550 2706 781 3412 
Q 1013 4119 1484 4856 
L 1984 4856 
z
" id="DejaVuSans-28" transform="scale(0.015625)"/>
       <path d="M 1959 3097 
Q 1497 3097 1228 2736 
Q 959 2375 959 1747 
Q 959 1119 1226 758 
Q 1494 397 1959 397 
Q 2419 397 2687 759 
Q 2956 1122 2956 1747 
Q 2956 2369 2687 2733 
Q 2419 3097 1959 3097 
z
M 1959 3584 
Q 2709 3584 3137 3096 
Q 3566 2609 3566 1747 
Q 3566 888 3137 398 
Q 2709 -91 1959 -91 
Q 1206 -91 779 398 
Q 353 888 353 1747 
Q 353 2609 779 3096 
Q 1206 3584 1959 3584 
z
" id="DejaVuSans-6f" transform="scale(0.015625)"/>
       <path d="M 544 1381 
L 544 3500 
L 1119 3500 
L 1119 1403 
Q 1119 906 1312 657 
Q 1506 409 1894 409 
Q 2359 409 2629 706 
Q 2900 1003 2900 1516 
L 2900 3500 
L 3475 3500 
L 3475 0 
L 2900 0 
L 2900 538 
Q 2691 219 2414 64 
Q 2138 -91 1772 -91 
Q 1169 -91 856 284 
Q 544 659 544 1381 
z
M 1991 3584 
L 1991 3584 
z
" id="DejaVuSans-75" transform="scale(0.015625)"/>
       <path d="M 2631 2963 
Q 2534 3019 2420 3045 
Q 2306 3072 2169 3072 
Q 1681 3072 1420 2755 
Q 1159 2438 1159 1844 
L 1159 0 
L 581 0 
L 581 3500 
L 1159 3500 
L 1159 2956 
Q 1341 3275 1631 3429 
Q 1922 3584 2338 3584 
Q 2397 3584 2469 3576 
Q 2541 3569 2628 3553 
L 2631 2963 
z
" id="DejaVuSans-72" transform="scale(0.015625)"/>
       <path d="M 3513 2113 
L 3513 0 
L 2938 0 
L 2938 2094 
Q 2938 2591 2744 2837 
Q 2550 3084 2163 3084 
Q 1697 3084 1428 2787 
Q 1159 2491 1159 1978 
L 1159 0 
L 581 0 
L 581 3500 
L 1159 3500 
L 1159 2956 
Q 1366 3272 1645 3428 
Q 1925 3584 2291 3584 
Q 2894 3584 3203 3211 
Q 3513 2838 3513 2113 
z
" id="DejaVuSans-6e" transform="scale(0.015625)"/>
       <path d="M 1172 4494 
L 1172 3500 
L 2356 3500 
L 2356 3053 
L 1172 3053 
L 1172 1153 
Q 1172 725 1289 603 
Q 1406 481 1766 481 
L 2356 481 
L 2356 0 
L 1766 0 
Q 1100 0 847 248 
Q 594 497 594 1153 
L 594 3053 
L 172 3053 
L 172 3500 
L 594 3500 
L 594 4494 
L 1172 4494 
z
" id="DejaVuSans-74" transform="scale(0.015625)"/>
       <path d="M 513 4856 
L 1013 4856 
Q 1481 4119 1714 3412 
Q 1947 2706 1947 2009 
Q 1947 1309 1714 600 
Q 1481 -109 1013 -844 
L 513 -844 
Q 928 -128 1133 580 
Q 1338 1288 1338 2009 
Q 1338 2731 1133 3434 
Q 928 4138 513 4856 
z
" id="DejaVuSans-29" transform="scale(0.015625)"/>
      </defs>
      <use xlink:href="#DejaVuSans-54"/>
      <use x="57.958984" xlink:href="#DejaVuSans-69"/>
      <use x="85.742188" xlink:href="#DejaVuSans-6d"/>
      <use x="183.154297" xlink:href="#DejaVuSans-65"/>
      <use x="244.677734" xlink:href="#DejaVuSans-20"/>
      <use x="276.464844" xlink:href="#DejaVuSans-28"/>
      <use x="315.478516" xlink:href="#DejaVuSans-68"/>
      <use x="378.857422" xlink:href="#DejaVuSans-6f"/>
      <use x="440.039062" xlink:href="#DejaVuSans-75"/>
      <use x="503.417969" xlink:href="#DejaVuSans-72"/>
      <use x="542.78125" xlink:href="#DejaVuSans-3a"/>
      <use x="576.472656" xlink:href="#DejaVuSans-6d"/>
      <use x="673.884766" xlink:href="#DejaVuSans-69"/>
      <use x="701.667969" xlink:href="#DejaVuSans-6e"/>
      <use x="765.046875" xlink:href="#DejaVuSans-75"/>
      <use x="828.425781" xlink:href="#DejaVuSans-74"/>
      <use x="867.634766" xlink:href="#DejaVuSans-65"/>
      <use x="929.158203" xlink:href="#DejaVuSans-29"/>
     </g>
    </g>
   </g>
   <g id="matplotlib.axis_2">
    <g id="ytick_1">
     <g id="line2d_7">
      <defs>
       <path d="M 0 0 
L -3.5 0 
" id="m309bec6e26" style="stroke:#000000;stroke-width:0.8;"/>
      </defs>
      <g>
       <use style="stroke:#000000;stroke-width:0.8;" x="66.053125" xlink:href="#m309bec6e26" y="264.228668"/>
      </g>
     </g>
     <g id="text_8">
      <!-- 140000 -->
      <g transform="translate(20.878125 268.027886)scale(0.1 -0.1)">
       <defs>
        <path d="M 2034 4250 
Q 1547 4250 1301 3770 
Q 1056 3291 1056 2328 
Q 1056 1369 1301 889 
Q 1547 409 2034 409 
Q 2525 409 2770 889 
Q 3016 1369 3016 2328 
Q 3016 3291 2770 3770 
Q 2525 4250 2034 4250 
z
M 2034 4750 
Q 2819 4750 3233 4129 
Q 3647 3509 3647 2328 
Q 3647 1150 3233 529 
Q 2819 -91 2034 -91 
Q 1250 -91 836 529 
Q 422 1150 422 2328 
Q 422 3509 836 4129 
Q 1250 4750 2034 4750 
z
" id="DejaVuSans-30" transform="scale(0.015625)"/>
       </defs>
       <use xlink:href="#DejaVuSans-31"/>
       <use x="63.623047" xlink:href="#DejaVuSans-34"/>
       <use x="127.246094" xlink:href="#DejaVuSans-30"/>
       <use x="190.869141" xlink:href="#DejaVuSans-30"/>
       <use x="254.492188" xlink:href="#DejaVuSans-30"/>
       <use x="318.115234" xlink:href="#DejaVuSans-30"/>
      </g>
     </g>
    </g>
    <g id="ytick_2">
     <g id="line2d_8">
      <g>
       <use style="stroke:#000000;stroke-width:0.8;" x="66.053125" xlink:href="#m309bec6e26" y="221.240538"/>
      </g>
     </g>
     <g id="text_9">
      <!-- 150000 -->
      <g transform="translate(20.878125 225.039756)scale(0.1 -0.1)">
       <use xlink:href="#DejaVuSans-31"/>
       <use x="63.623047" xlink:href="#DejaVuSans-35"/>
       <use x="127.246094" xlink:href="#DejaVuSans-30"/>
       <use x="190.869141" xlink:href="#DejaVuSans-30"/>
       <use x="254.492188" xlink:href="#DejaVuSans-30"/>
       <use x="318.115234" xlink:href="#DejaVuSans-30"/>
      </g>
     </g>
    </g>
    <g id="ytick_3">
     <g id="line2d_9">
      <g>
       <use style="stroke:#000000;stroke-width:0.8;" x="66.053125" xlink:href="#m309bec6e26" y="178.252408"/>
      </g>
     </g>
     <g id="text_10">
      <!-- 160000 -->
      <g transform="translate(20.878125 182.051626)scale(0.1 -0.1)">
       <defs>
        <path d="M 2113 2584 
Q 1688 2584 1439 2293 
Q 1191 2003 1191 1497 
Q 1191 994 1439 701 
Q 1688 409 2113 409 
Q 2538 409 2786 701 
Q 3034 994 3034 1497 
Q 3034 2003 2786 2293 
Q 2538 2584 2113 2584 
z
M 3366 4563 
L 3366 3988 
Q 3128 4100 2886 4159 
Q 2644 4219 2406 4219 
Q 1781 4219 1451 3797 
Q 1122 3375 1075 2522 
Q 1259 2794 1537 2939 
Q 1816 3084 2150 3084 
Q 2853 3084 3261 2657 
Q 3669 2231 3669 1497 
Q 3669 778 3244 343 
Q 2819 -91 2113 -91 
Q 1303 -91 875 529 
Q 447 1150 447 2328 
Q 447 3434 972 4092 
Q 1497 4750 2381 4750 
Q 2619 4750 2861 4703 
Q 3103 4656 3366 4563 
z
" id="DejaVuSans-36" transform="scale(0.015625)"/>
       </defs>
       <use xlink:href="#DejaVuSans-31"/>
       <use x="63.623047" xlink:href="#DejaVuSans-36"/>
       <use x="127.246094" xlink:href="#DejaVuSans-30"/>
       <use x="190.869141" xlink:href="#DejaVuSans-30"/>
       <use x="254.492188" xlink:href="#DejaVuSans-30"/>
       <use x="318.115234" xlink:href="#DejaVuSans-30"/>
      </g>
     </g>
    </g>
    <g id="ytick_4">
     <g id="line2d_10">
      <g>
       <use style="stroke:#000000;stroke-width:0.8;" x="66.053125" xlink:href="#m309bec6e26" y="135.264278"/>
      </g>
     </g>
     <g id="text_11">
      <!-- 170000 -->
      <g transform="translate(20.878125 139.063497)scale(0.1 -0.1)">
       <use xlink:href="#DejaVuSans-31"/>
       <use x="63.623047" xlink:href="#DejaVuSans-37"/>
       <use x="127.246094" xlink:href="#DejaVuSans-30"/>
       <use x="190.869141" xlink:href="#DejaVuSans-30"/>
       <use x="254.492188" xlink:href="#DejaVuSans-30"/>
       <use x="318.115234" xlink:href="#DejaVuSans-30"/>
      </g>
     </g>
    </g>
    <g id="ytick_5">
     <g id="line2d_11">
      <g>
       <use style="stroke:#000000;stroke-width:0.8;" x="66.053125" xlink:href="#m309bec6e26" y="92.276148"/>
      </g>
     </g>
     <g id="text_12">
      <!-- 180000 -->
      <g transform="translate(20.878125 96.075367)scale(0.1 -0.1)">
       <defs>
        <path d="M 2034 2216 
Q 1584 2216 1326 1975 
Q 1069 1734 1069 1313 
Q 1069 891 1326 650 
Q 1584 409 2034 409 
Q 2484 409 2743 651 
Q 3003 894 3003 1313 
Q 3003 1734 2745 1975 
Q 2488 2216 2034 2216 
z
M 1403 2484 
Q 997 2584 770 2862 
Q 544 3141 544 3541 
Q 544 4100 942 4425 
Q 1341 4750 2034 4750 
Q 2731 4750 3128 4425 
Q 3525 4100 3525 3541 
Q 3525 3141 3298 2862 
Q 3072 2584 2669 2484 
Q 3125 2378 3379 2068 
Q 3634 1759 3634 1313 
Q 3634 634 3220 271 
Q 2806 -91 2034 -91 
Q 1263 -91 848 271 
Q 434 634 434 1313 
Q 434 1759 690 2068 
Q 947 2378 1403 2484 
z
M 1172 3481 
Q 1172 3119 1398 2916 
Q 1625 2713 2034 2713 
Q 2441 2713 2670 2916 
Q 2900 3119 2900 3481 
Q 2900 3844 2670 4047 
Q 2441 4250 2034 4250 
Q 1625 4250 1398 4047 
Q 1172 3844 1172 3481 
z
" id="DejaVuSans-38" transform="scale(0.015625)"/>
       </defs>
       <use xlink:href="#DejaVuSans-31"/>
       <use x="63.623047" xlink:href="#DejaVuSans-38"/>
       <use x="127.246094" xlink:href="#DejaVuSans-30"/>
       <use x="190.869141" xlink:href="#DejaVuSans-30"/>
       <use x="254.492188" xlink:href="#DejaVuSans-30"/>
       <use x="318.115234" xlink:href="#DejaVuSans-30"/>
      </g>
     </g>
    </g>
    <g id="ytick_6">
     <g id="line2d_12">
      <g>
       <use style="stroke:#000000;stroke-width:0.8;" x="66.053125" xlink:href="#m309bec6e26" y="49.288018"/>
      </g>
     </g>
     <g id="text_13">
      <!-- 190000 -->
      <g transform="translate(20.878125 53.087237)scale(0.1 -0.1)">
       <use xlink:href="#DejaVuSans-31"/>
       <use x="63.623047" xlink:href="#DejaVuSans-39"/>
       <use x="127.246094" xlink:href="#DejaVuSans-30"/>
       <use x="190.869141" xlink:href="#DejaVuSans-30"/>
       <use x="254.492188" xlink:href="#DejaVuSans-30"/>
       <use x="318.115234" xlink:href="#DejaVuSans-30"/>
      </g>
     </g>
    </g>
    <g id="text_14">
     <!-- Code region coverage -->
     <g transform="translate(14.798438 210.379594)rotate(-90)scale(0.1 -0.1)">
      <defs>
       <path d="M 4122 4306 
L 4122 3641 
Q 3803 3938 3442 4084 
Q 3081 4231 2675 4231 
Q 1875 4231 1450 3742 
Q 1025 3253 1025 2328 
Q 1025 1406 1450 917 
Q 1875 428 2675 428 
Q 3081 428 3442 575 
Q 3803 722 4122 1019 
L 4122 359 
Q 3791 134 3420 21 
Q 3050 -91 2638 -91 
Q 1578 -91 968 557 
Q 359 1206 359 2328 
Q 359 3453 968 4101 
Q 1578 4750 2638 4750 
Q 3056 4750 3426 4639 
Q 3797 4528 4122 4306 
z
" id="DejaVuSans-43" transform="scale(0.015625)"/>
       <path d="M 2906 2969 
L 2906 4863 
L 3481 4863 
L 3481 0 
L 2906 0 
L 2906 525 
Q 2725 213 2448 61 
Q 2172 -91 1784 -91 
Q 1150 -91 751 415 
Q 353 922 353 1747 
Q 353 2572 751 3078 
Q 1150 3584 1784 3584 
Q 2172 3584 2448 3432 
Q 2725 3281 2906 2969 
z
M 947 1747 
Q 947 1113 1208 752 
Q 1469 391 1925 391 
Q 2381 391 2643 752 
Q 2906 1113 2906 1747 
Q 2906 2381 2643 2742 
Q 2381 3103 1925 3103 
Q 1469 3103 1208 2742 
Q 947 2381 947 1747 
z
" id="DejaVuSans-64" transform="scale(0.015625)"/>
       <path d="M 2906 1791 
Q 2906 2416 2648 2759 
Q 2391 3103 1925 3103 
Q 1463 3103 1205 2759 
Q 947 2416 947 1791 
Q 947 1169 1205 825 
Q 1463 481 1925 481 
Q 2391 481 2648 825 
Q 2906 1169 2906 1791 
z
M 3481 434 
Q 3481 -459 3084 -895 
Q 2688 -1331 1869 -1331 
Q 1566 -1331 1297 -1286 
Q 1028 -1241 775 -1147 
L 775 -588 
Q 1028 -725 1275 -790 
Q 1522 -856 1778 -856 
Q 2344 -856 2625 -561 
Q 2906 -266 2906 331 
L 2906 616 
Q 2728 306 2450 153 
Q 2172 0 1784 0 
Q 1141 0 747 490 
Q 353 981 353 1791 
Q 353 2603 747 3093 
Q 1141 3584 1784 3584 
Q 2172 3584 2450 3431 
Q 2728 3278 2906 2969 
L 2906 3500 
L 3481 3500 
L 3481 434 
z
" id="DejaVuSans-67" transform="scale(0.015625)"/>
       <path d="M 3122 3366 
L 3122 2828 
Q 2878 2963 2633 3030 
Q 2388 3097 2138 3097 
Q 1578 3097 1268 2742 
Q 959 2388 959 1747 
Q 959 1106 1268 751 
Q 1578 397 2138 397 
Q 2388 397 2633 464 
Q 2878 531 3122 666 
L 3122 134 
Q 2881 22 2623 -34 
Q 2366 -91 2075 -91 
Q 1284 -91 818 406 
Q 353 903 353 1747 
Q 353 2603 823 3093 
Q 1294 3584 2113 3584 
Q 2378 3584 2631 3529 
Q 2884 3475 3122 3366 
z
" id="DejaVuSans-63" transform="scale(0.015625)"/>
       <path d="M 191 3500 
L 800 3500 
L 1894 563 
L 2988 3500 
L 3597 3500 
L 2284 0 
L 1503 0 
L 191 3500 
z
" id="DejaVuSans-76" transform="scale(0.015625)"/>
       <path d="M 2194 1759 
Q 1497 1759 1228 1600 
Q 959 1441 959 1056 
Q 959 750 1161 570 
Q 1363 391 1709 391 
Q 2188 391 2477 730 
Q 2766 1069 2766 1631 
L 2766 1759 
L 2194 1759 
z
M 3341 1997 
L 3341 0 
L 2766 0 
L 2766 531 
Q 2569 213 2275 61 
Q 1981 -91 1556 -91 
Q 1019 -91 701 211 
Q 384 513 384 1019 
Q 384 1609 779 1909 
Q 1175 2209 1959 2209 
L 2766 2209 
L 2766 2266 
Q 2766 2663 2505 2880 
Q 2244 3097 1772 3097 
Q 1472 3097 1187 3025 
Q 903 2953 641 2809 
L 641 3341 
Q 956 3463 1253 3523 
Q 1550 3584 1831 3584 
Q 2591 3584 2966 3190 
Q 3341 2797 3341 1997 
z
" id="DejaVuSans-61" transform="scale(0.015625)"/>
      </defs>
      <use xlink:href="#DejaVuSans-43"/>
      <use x="69.824219" xlink:href="#DejaVuSans-6f"/>
      <use x="131.005859" xlink:href="#DejaVuSans-64"/>
      <use x="194.482422" xlink:href="#DejaVuSans-65"/>
      <use x="256.005859" xlink:href="#DejaVuSans-20"/>
      <use x="287.792969" xlink:href="#DejaVuSans-72"/>
      <use x="326.65625" xlink:href="#DejaVuSans-65"/>
      <use x="388.179688" xlink:href="#DejaVuSans-67"/>
      <use x="451.65625" xlink:href="#DejaVuSans-69"/>
      <use x="479.439453" xlink:href="#DejaVuSans-6f"/>
      <use x="540.621094" xlink:href="#DejaVuSans-6e"/>
      <use x="604" xlink:href="#DejaVuSans-20"/>
      <use x="635.787109" xlink:href="#DejaVuSans-63"/>
      <use x="690.767578" xlink:href="#DejaVuSans-6f"/>
      <use x="751.949219" xlink:href="#DejaVuSans-76"/>
      <use x="811.128906" xlink:href="#DejaVuSans-65"/>
      <use x="872.652344" xlink:href="#DejaVuSans-72"/>
      <use x="913.765625" xlink:href="#DejaVuSans-61"/>
      <use x="975.044922" xlink:href="#DejaVuSans-67"/>
      <use x="1038.521484" xlink:href="#DejaVuSans-65"/>
     </g>
    </g>
   </g>
   <g id="line2d_13">
    <path clip-path="url(#p3904dd2168)" d="M 82.285852 246.491765 
L 85.853485 215.742356 
L 89.421117 192.950049 
L 92.988749 178.454452 
L 96.556382 169.29798 
L 100.124014 163.247401 
L 103.691646 156.734699 
L 107.259279 150.929152 
L 110.826911 146.232699 
L 114.394544 141.005343 
L 117.962176 137.276122 
L 121.529808 134.174529 
L 125.097441 131.648976 
L 128.665073 129.617787 
L 132.232705 128.33889 
L 135.800338 119.917515 
L 139.36797 120.265719 
L 142.935603 118.176496 
L 146.503235 114.724549 
L 150.070867 113.464997 
L 153.6385 111.242511 
L 157.206132 109.166184 
L 160.773764 107.640106 
L 164.341397 105.467056 
L 167.909029 103.403625 
L 171.476661 100.332123 
L 175.044294 98.191315 
L 178.611926 95.930139 
L 182.179559 92.759764 
L 185.747191 90.689886 
L 189.314823 88.89943 
L 192.882456 87.265881 
L 196.450088 84.757524 
L 200.01772 83.401248 
L 203.585353 81.900963 
L 207.152985 80.93373 
L 210.720618 79.528018 
L 214.28825 78.827311 
L 217.855882 78.302856 
L 221.423515 77.494679 
L 224.991147 76.516699 
L 228.558779 75.506478 
L 232.126412 74.513453 
L 235.694044 73.262498 
L 239.261676 72.308162 
L 242.829309 69.608507 
L 246.396941 67.85889 
L 249.964574 69.2732 
L 253.532206 66.41234 
L 257.099838 64.96364 
L 260.667471 64.540206 
L 264.235103 63.710536 
L 267.802735 62.683119 
L 271.370368 63.362332 
L 274.938 61.859897 
L 278.505632 61.309648 
L 282.073265 60.748653 
L 285.640897 60.389703 
L 289.20853 59.867397 
L 292.776162 59.56433 
L 296.343794 59.1323 
L 299.911427 58.818486 
L 303.479059 58.231698 
L 307.046691 54.82274 
L 310.614324 53.111812 
L 314.181956 51.903846 
L 317.749589 51.499757 
L 321.317221 50.925866 
L 324.884853 52.232705 
L 328.452486 49.775933 
L 332.020118 49.31811 
L 335.58775 50.736718 
L 339.155383 48.062856 
L 342.723015 47.847916 
L 346.290647 47.491114 
L 349.85828 47.865111 
L 353.425912 47.319162 
L 356.993545 45.492166 
L 360.561177 46.145586 
L 364.128809 46.111195 
L 367.696442 45.810278 
L 371.264074 45.139663 
L 374.831706 45.859715 
L 378.399339 43.832824 
L 381.966971 44.288498 
L 385.534604 40.047719 
L 389.102236 40.33359 
L 392.669868 40.036972 
L 396.237501 39.744653 
L 399.805133 42.07246 
L 403.372765 39.228796 
L 406.940398 41.487822 
" style="fill:none;stroke:#d62728;stroke-linecap:square;stroke-width:1.5;"/>
    <defs>
     <path d="M 0 -3 
L -3 3 
L 3 3 
z
" id="m49e6b0fe9e" style="stroke:#ffffff;stroke-linejoin:miter;stroke-width:0.75;"/>
    </defs>
    <g clip-path="url(#p3904dd2168)">
     <use style="fill:#d62728;stroke:#ffffff;stroke-linejoin:miter;stroke-width:0.75;" x="82.285852" xlink:href="#m49e6b0fe9e" y="246.491765"/>
     <use style="fill:#d62728;stroke:#ffffff;stroke-linejoin:miter;stroke-width:0.75;" x="85.853485" xlink:href="#m49e6b0fe9e" y="215.742356"/>
     <use style="fill:#d62728;stroke:#ffffff;stroke-linejoin:miter;stroke-width:0.75;" x="89.421117" xlink:href="#m49e6b0fe9e" y="192.950049"/>
     <use style="fill:#d62728;stroke:#ffffff;stroke-linejoin:miter;stroke-width:0.75;" x="92.988749" xlink:href="#m49e6b0fe9e" y="178.454452"/>
     <use style="fill:#d62728;stroke:#ffffff;stroke-linejoin:miter;stroke-width:0.75;" x="96.556382" xlink:href="#m49e6b0fe9e" y="169.29798"/>
     <use style="fill:#d62728;stroke:#ffffff;stroke-linejoin:miter;stroke-width:0.75;" x="100.124014" xlink:href="#m49e6b0fe9e" y="163.247401"/>
     <use style="fill:#d62728;stroke:#ffffff;stroke-linejoin:miter;stroke-width:0.75;" x="103.691646" xlink:href="#m49e6b0fe9e" y="156.734699"/>
     <use style="fill:#d62728;stroke:#ffffff;stroke-linejoin:miter;stroke-width:0.75;" x="107.259279" xlink:href="#m49e6b0fe9e" y="150.929152"/>
     <use style="fill:#d62728;stroke:#ffffff;stroke-linejoin:miter;stroke-width:0.75;" x="110.826911" xlink:href="#m49e6b0fe9e" y="146.232699"/>
     <use style="fill:#d62728;stroke:#ffffff;stroke-linejoin:miter;stroke-width:0.75;" x="114.394544" xlink:href="#m49e6b0fe9e" y="141.005343"/>
     <use style="fill:#d62728;stroke:#ffffff;stroke-linejoin:miter;stroke-width:0.75;" x="117.962176" xlink:href="#m49e6b0fe9e" y="137.276122"/>
     <use style="fill:#d62728;stroke:#ffffff;stroke-linejoin:miter;stroke-width:0.75;" x="121.529808" xlink:href="#m49e6b0fe9e" y="134.174529"/>
     <use style="fill:#d62728;stroke:#ffffff;stroke-linejoin:miter;stroke-width:0.75;" x="125.097441" xlink:href="#m49e6b0fe9e" y="131.648976"/>
     <use style="fill:#d62728;stroke:#ffffff;stroke-linejoin:miter;stroke-width:0.75;" x="128.665073" xlink:href="#m49e6b0fe9e" y="129.617787"/>
     <use style="fill:#d62728;stroke:#ffffff;stroke-linejoin:miter;stroke-width:0.75;" x="132.232705" xlink:href="#m49e6b0fe9e" y="128.33889"/>
     <use style="fill:#d62728;stroke:#ffffff;stroke-linejoin:miter;stroke-width:0.75;" x="135.800338" xlink:href="#m49e6b0fe9e" y="119.917515"/>
     <use style="fill:#d62728;stroke:#ffffff;stroke-linejoin:miter;stroke-width:0.75;" x="139.36797" xlink:href="#m49e6b0fe9e" y="120.265719"/>
     <use style="fill:#d62728;stroke:#ffffff;stroke-linejoin:miter;stroke-width:0.75;" x="142.935603" xlink:href="#m49e6b0fe9e" y="118.176496"/>
     <use style="fill:#d62728;stroke:#ffffff;stroke-linejoin:miter;stroke-width:0.75;" x="146.503235" xlink:href="#m49e6b0fe9e" y="114.724549"/>
     <use style="fill:#d62728;stroke:#ffffff;stroke-linejoin:miter;stroke-width:0.75;" x="150.070867" xlink:href="#m49e6b0fe9e" y="113.464997"/>
     <use style="fill:#d62728;stroke:#ffffff;stroke-linejoin:miter;stroke-width:0.75;" x="153.6385" xlink:href="#m49e6b0fe9e" y="111.242511"/>
     <use style="fill:#d62728;stroke:#ffffff;stroke-linejoin:miter;stroke-width:0.75;" x="157.206132" xlink:href="#m49e6b0fe9e" y="109.166184"/>
     <use style="fill:#d62728;stroke:#ffffff;stroke-linejoin:miter;stroke-width:0.75;" x="160.773764" xlink:href="#m49e6b0fe9e" y="107.640106"/>
     <use style="fill:#d62728;stroke:#ffffff;stroke-linejoin:miter;stroke-width:0.75;" x="164.341397" xlink:href="#m49e6b0fe9e" y="105.467056"/>
     <use style="fill:#d62728;stroke:#ffffff;stroke-linejoin:miter;stroke-width:0.75;" x="167.909029" xlink:href="#m49e6b0fe9e" y="103.403625"/>
     <use style="fill:#d62728;stroke:#ffffff;stroke-linejoin:miter;stroke-width:0.75;" x="171.476661" xlink:href="#m49e6b0fe9e" y="100.332123"/>
     <use style="fill:#d62728;stroke:#ffffff;stroke-linejoin:miter;stroke-width:0.75;" x="175.044294" xlink:href="#m49e6b0fe9e" y="98.191315"/>
     <use style="fill:#d62728;stroke:#ffffff;stroke-linejoin:miter;stroke-width:0.75;" x="178.611926" xlink:href="#m49e6b0fe9e" y="95.930139"/>
     <use style="fill:#d62728;stroke:#ffffff;stroke-linejoin:miter;stroke-width:0.75;" x="182.179559" xlink:href="#m49e6b0fe9e" y="92.759764"/>
     <use style="fill:#d62728;stroke:#ffffff;stroke-linejoin:miter;stroke-width:0.75;" x="185.747191" xlink:href="#m49e6b0fe9e" y="90.689886"/>
     <use style="fill:#d62728;stroke:#ffffff;stroke-linejoin:miter;stroke-width:0.75;" x="189.314823" xlink:href="#m49e6b0fe9e" y="88.89943"/>
     <use style="fill:#d62728;stroke:#ffffff;stroke-linejoin:miter;stroke-width:0.75;" x="192.882456" xlink:href="#m49e6b0fe9e" y="87.265881"/>
     <use style="fill:#d62728;stroke:#ffffff;stroke-linejoin:miter;stroke-width:0.75;" x="196.450088" xlink:href="#m49e6b0fe9e" y="84.757524"/>
     <use style="fill:#d62728;stroke:#ffffff;stroke-linejoin:miter;stroke-width:0.75;" x="200.01772" xlink:href="#m49e6b0fe9e" y="83.401248"/>
     <use style="fill:#d62728;stroke:#ffffff;stroke-linejoin:miter;stroke-width:0.75;" x="203.585353" xlink:href="#m49e6b0fe9e" y="81.900963"/>
     <use style="fill:#d62728;stroke:#ffffff;stroke-linejoin:miter;stroke-width:0.75;" x="207.152985" xlink:href="#m49e6b0fe9e" y="80.93373"/>
     <use style="fill:#d62728;stroke:#ffffff;stroke-linejoin:miter;stroke-width:0.75;" x="210.720618" xlink:href="#m49e6b0fe9e" y="79.528018"/>
     <use style="fill:#d62728;stroke:#ffffff;stroke-linejoin:miter;stroke-width:0.75;" x="214.28825" xlink:href="#m49e6b0fe9e" y="78.827311"/>
     <use style="fill:#d62728;stroke:#ffffff;stroke-linejoin:miter;stroke-width:0.75;" x="217.855882" xlink:href="#m49e6b0fe9e" y="78.302856"/>
     <use style="fill:#d62728;stroke:#ffffff;stroke-linejoin:miter;stroke-width:0.75;" x="221.423515" xlink:href="#m49e6b0fe9e" y="77.494679"/>
     <use style="fill:#d62728;stroke:#ffffff;stroke-linejoin:miter;stroke-width:0.75;" x="224.991147" xlink:href="#m49e6b0fe9e" y="76.516699"/>
     <use style="fill:#d62728;stroke:#ffffff;stroke-linejoin:miter;stroke-width:0.75;" x="228.558779" xlink:href="#m49e6b0fe9e" y="75.506478"/>
     <use style="fill:#d62728;stroke:#ffffff;stroke-linejoin:miter;stroke-width:0.75;" x="232.126412" xlink:href="#m49e6b0fe9e" y="74.513453"/>
     <use style="fill:#d62728;stroke:#ffffff;stroke-linejoin:miter;stroke-width:0.75;" x="235.694044" xlink:href="#m49e6b0fe9e" y="73.262498"/>
     <use style="fill:#d62728;stroke:#ffffff;stroke-linejoin:miter;stroke-width:0.75;" x="239.261676" xlink:href="#m49e6b0fe9e" y="72.308162"/>
     <use style="fill:#d62728;stroke:#ffffff;stroke-linejoin:miter;stroke-width:0.75;" x="242.829309" xlink:href="#m49e6b0fe9e" y="69.608507"/>
     <use style="fill:#d62728;stroke:#ffffff;stroke-linejoin:miter;stroke-width:0.75;" x="246.396941" xlink:href="#m49e6b0fe9e" y="67.85889"/>
     <use style="fill:#d62728;stroke:#ffffff;stroke-linejoin:miter;stroke-width:0.75;" x="249.964574" xlink:href="#m49e6b0fe9e" y="69.2732"/>
     <use style="fill:#d62728;stroke:#ffffff;stroke-linejoin:miter;stroke-width:0.75;" x="253.532206" xlink:href="#m49e6b0fe9e" y="66.41234"/>
     <use style="fill:#d62728;stroke:#ffffff;stroke-linejoin:miter;stroke-width:0.75;" x="257.099838" xlink:href="#m49e6b0fe9e" y="64.96364"/>
     <use style="fill:#d62728;stroke:#ffffff;stroke-linejoin:miter;stroke-width:0.75;" x="260.667471" xlink:href="#m49e6b0fe9e" y="64.540206"/>
     <use style="fill:#d62728;stroke:#ffffff;stroke-linejoin:miter;stroke-width:0.75;" x="264.235103" xlink:href="#m49e6b0fe9e" y="63.710536"/>
     <use style="fill:#d62728;stroke:#ffffff;stroke-linejoin:miter;stroke-width:0.75;" x="267.802735" xlink:href="#m49e6b0fe9e" y="62.683119"/>
     <use style="fill:#d62728;stroke:#ffffff;stroke-linejoin:miter;stroke-width:0.75;" x="271.370368" xlink:href="#m49e6b0fe9e" y="63.362332"/>
     <use style="fill:#d62728;stroke:#ffffff;stroke-linejoin:miter;stroke-width:0.75;" x="274.938" xlink:href="#m49e6b0fe9e" y="61.859897"/>
     <use style="fill:#d62728;stroke:#ffffff;stroke-linejoin:miter;stroke-width:0.75;" x="278.505632" xlink:href="#m49e6b0fe9e" y="61.309648"/>
     <use style="fill:#d62728;stroke:#ffffff;stroke-linejoin:miter;stroke-width:0.75;" x="282.073265" xlink:href="#m49e6b0fe9e" y="60.748653"/>
     <use style="fill:#d62728;stroke:#ffffff;stroke-linejoin:miter;stroke-width:0.75;" x="285.640897" xlink:href="#m49e6b0fe9e" y="60.389703"/>
     <use style="fill:#d62728;stroke:#ffffff;stroke-linejoin:miter;stroke-width:0.75;" x="289.20853" xlink:href="#m49e6b0fe9e" y="59.867397"/>
     <use style="fill:#d62728;stroke:#ffffff;stroke-linejoin:miter;stroke-width:0.75;" x="292.776162" xlink:href="#m49e6b0fe9e" y="59.56433"/>
     <use style="fill:#d62728;stroke:#ffffff;stroke-linejoin:miter;stroke-width:0.75;" x="296.343794" xlink:href="#m49e6b0fe9e" y="59.1323"/>
     <use style="fill:#d62728;stroke:#ffffff;stroke-linejoin:miter;stroke-width:0.75;" x="299.911427" xlink:href="#m49e6b0fe9e" y="58.818486"/>
     <use style="fill:#d62728;stroke:#ffffff;stroke-linejoin:miter;stroke-width:0.75;" x="303.479059" xlink:href="#m49e6b0fe9e" y="58.231698"/>
     <use style="fill:#d62728;stroke:#ffffff;stroke-linejoin:miter;stroke-width:0.75;" x="307.046691" xlink:href="#m49e6b0fe9e" y="54.82274"/>
     <use style="fill:#d62728;stroke:#ffffff;stroke-linejoin:miter;stroke-width:0.75;" x="310.614324" xlink:href="#m49e6b0fe9e" y="53.111812"/>
     <use style="fill:#d62728;stroke:#ffffff;stroke-linejoin:miter;stroke-width:0.75;" x="314.181956" xlink:href="#m49e6b0fe9e" y="51.903846"/>
     <use style="fill:#d62728;stroke:#ffffff;stroke-linejoin:miter;stroke-width:0.75;" x="317.749589" xlink:href="#m49e6b0fe9e" y="51.499757"/>
     <use style="fill:#d62728;stroke:#ffffff;stroke-linejoin:miter;stroke-width:0.75;" x="321.317221" xlink:href="#m49e6b0fe9e" y="50.925866"/>
     <use style="fill:#d62728;stroke:#ffffff;stroke-linejoin:miter;stroke-width:0.75;" x="324.884853" xlink:href="#m49e6b0fe9e" y="52.232705"/>
     <use style="fill:#d62728;stroke:#ffffff;stroke-linejoin:miter;stroke-width:0.75;" x="328.452486" xlink:href="#m49e6b0fe9e" y="49.775933"/>
     <use style="fill:#d62728;stroke:#ffffff;stroke-linejoin:miter;stroke-width:0.75;" x="332.020118" xlink:href="#m49e6b0fe9e" y="49.31811"/>
     <use style="fill:#d62728;stroke:#ffffff;stroke-linejoin:miter;stroke-width:0.75;" x="335.58775" xlink:href="#m49e6b0fe9e" y="50.736718"/>
     <use style="fill:#d62728;stroke:#ffffff;stroke-linejoin:miter;stroke-width:0.75;" x="339.155383" xlink:href="#m49e6b0fe9e" y="48.062856"/>
     <use style="fill:#d62728;stroke:#ffffff;stroke-linejoin:miter;stroke-width:0.75;" x="342.723015" xlink:href="#m49e6b0fe9e" y="47.847916"/>
     <use style="fill:#d62728;stroke:#ffffff;stroke-linejoin:miter;stroke-width:0.75;" x="346.290647" xlink:href="#m49e6b0fe9e" y="47.491114"/>
     <use style="fill:#d62728;stroke:#ffffff;stroke-linejoin:miter;stroke-width:0.75;" x="349.85828" xlink:href="#m49e6b0fe9e" y="47.865111"/>
     <use style="fill:#d62728;stroke:#ffffff;stroke-linejoin:miter;stroke-width:0.75;" x="353.425912" xlink:href="#m49e6b0fe9e" y="47.319162"/>
     <use style="fill:#d62728;stroke:#ffffff;stroke-linejoin:miter;stroke-width:0.75;" x="356.993545" xlink:href="#m49e6b0fe9e" y="45.492166"/>
     <use style="fill:#d62728;stroke:#ffffff;stroke-linejoin:miter;stroke-width:0.75;" x="360.561177" xlink:href="#m49e6b0fe9e" y="46.145586"/>
     <use style="fill:#d62728;stroke:#ffffff;stroke-linejoin:miter;stroke-width:0.75;" x="364.128809" xlink:href="#m49e6b0fe9e" y="46.111195"/>
     <use style="fill:#d62728;stroke:#ffffff;stroke-linejoin:miter;stroke-width:0.75;" x="367.696442" xlink:href="#m49e6b0fe9e" y="45.810278"/>
     <use style="fill:#d62728;stroke:#ffffff;stroke-linejoin:miter;stroke-width:0.75;" x="371.264074" xlink:href="#m49e6b0fe9e" y="45.139663"/>
     <use style="fill:#d62728;stroke:#ffffff;stroke-linejoin:miter;stroke-width:0.75;" x="374.831706" xlink:href="#m49e6b0fe9e" y="45.859715"/>
     <use style="fill:#d62728;stroke:#ffffff;stroke-linejoin:miter;stroke-width:0.75;" x="378.399339" xlink:href="#m49e6b0fe9e" y="43.832824"/>
     <use style="fill:#d62728;stroke:#ffffff;stroke-linejoin:miter;stroke-width:0.75;" x="381.966971" xlink:href="#m49e6b0fe9e" y="44.288498"/>
     <use style="fill:#d62728;stroke:#ffffff;stroke-linejoin:miter;stroke-width:0.75;" x="385.534604" xlink:href="#m49e6b0fe9e" y="40.047719"/>
     <use style="fill:#d62728;stroke:#ffffff;stroke-linejoin:miter;stroke-width:0.75;" x="389.102236" xlink:href="#m49e6b0fe9e" y="40.33359"/>
     <use style="fill:#d62728;stroke:#ffffff;stroke-linejoin:miter;stroke-width:0.75;" x="392.669868" xlink:href="#m49e6b0fe9e" y="40.036972"/>
     <use style="fill:#d62728;stroke:#ffffff;stroke-linejoin:miter;stroke-width:0.75;" x="396.237501" xlink:href="#m49e6b0fe9e" y="39.744653"/>
     <use style="fill:#d62728;stroke:#ffffff;stroke-linejoin:miter;stroke-width:0.75;" x="399.805133" xlink:href="#m49e6b0fe9e" y="42.07246"/>
     <use style="fill:#d62728;stroke:#ffffff;stroke-linejoin:miter;stroke-width:0.75;" x="403.372765" xlink:href="#m49e6b0fe9e" y="39.228796"/>
     <use style="fill:#d62728;stroke:#ffffff;stroke-linejoin:miter;stroke-width:0.75;" x="406.940398" xlink:href="#m49e6b0fe9e" y="41.487822"/>
    </g>
   </g>
   <g id="line2d_14">
    <path clip-path="url(#p3904dd2168)" d="M 82.285852 242.876463 
L 85.853485 225.543649 
L 89.421117 198.246187 
L 92.988749 181.919295 
L 96.556382 171.696718 
L 100.124014 162.497258 
L 103.691646 151.750226 
L 107.259279 142.963452 
L 110.826911 136.186373 
L 114.394544 132.642002 
L 117.962176 128.104605 
L 121.529808 124.910587 
L 125.097441 122.625768 
L 128.665073 121.383411 
L 132.232705 119.283441 
L 135.800338 118.303311 
L 139.36797 117.428503 
L 142.935603 115.257602 
L 146.503235 115.405911 
L 150.070867 113.439204 
L 153.6385 113.654145 
L 157.206132 111.6423 
L 160.773764 111.362878 
L 164.341397 114.608481 
L 167.909029 111.362878 
L 171.476661 112.878209 
L 175.044294 114.35915 
L 178.611926 114.28607 
L 182.179559 112.177503 
L 185.747191 110.387047 
L 189.314823 109.750823 
L 192.882456 111.459601 
L 196.450088 109.639054 
L 200.01772 109.518687 
L 203.585353 107.672347 
L 207.152985 104.132274 
L 210.720618 105.587422 
L 214.28825 104.360111 
L 217.855882 104.321422 
L 221.423515 104.033401 
L 224.991147 105.112403 
L 228.558779 104.987738 
L 232.126412 106.189256 
L 235.694044 104.626638 
L 239.261676 104.373008 
L 242.829309 106.264485 
L 246.396941 104.080688 
L 249.964574 104.016206 
L 253.532206 105.871144 
L 257.099838 107.773369 
L 260.667471 103.809863 
L 264.235103 102.674977 
L 267.802735 103.715289 
L 271.370368 105.019979 
L 274.938 102.649184 
L 278.505632 102.503024 
L 282.073265 102.421347 
L 285.640897 102.176314 
L 289.20853 104.284882 
L 292.776162 102.782447 
L 296.343794 102.507323 
L 299.911427 103.842104 
L 303.479059 99.700198 
L 307.046691 101.153197 
L 310.614324 103.612118 
L 314.181956 106.062441 
L 317.749589 100.865176 
L 321.317221 100.719017 
L 324.884853 100.70612 
L 328.452486 96.658788 
L 332.020118 100.478283 
L 335.58775 98.928561 
L 339.155383 100.327825 
L 342.723015 100.276239 
L 346.290647 100.207458 
L 349.85828 97.138105 
L 353.425912 100.134378 
L 356.993545 100.069896 
L 360.561177 98.457841 
L 364.128809 99.919437 
L 367.696442 99.915139 
L 371.264074 99.915139 
L 374.831706 98.124683 
L 378.399339 98.101039 
L 381.966971 97.969926 
L 385.534604 97.875352 
L 389.102236 99.859254 
L 392.669868 97.641067 
L 396.237501 97.619572 
L 399.805133 97.598078 
L 403.372765 97.514252 
L 406.940398 97.400333 
" style="fill:none;stroke:#1f77b4;stroke-linecap:square;stroke-width:1.5;"/>
    <defs>
     <path d="M 0 3 
C 0.795609 3 1.55874 2.683901 2.12132 2.12132 
C 2.683901 1.55874 3 0.795609 3 0 
C 3 -0.795609 2.683901 -1.55874 2.12132 -2.12132 
C 1.55874 -2.683901 0.795609 -3 0 -3 
C -0.795609 -3 -1.55874 -2.683901 -2.12132 -2.12132 
C -2.683901 -1.55874 -3 -0.795609 -3 0 
C -3 0.795609 -2.683901 1.55874 -2.12132 2.12132 
C -1.55874 2.683901 -0.795609 3 0 3 
z
" id="mb13a9d2c84" style="stroke:#ffffff;stroke-width:0.75;"/>
    </defs>
    <g clip-path="url(#p3904dd2168)">
     <use style="fill:#1f77b4;stroke:#ffffff;stroke-width:0.75;" x="82.285852" xlink:href="#mb13a9d2c84" y="242.876463"/>
     <use style="fill:#1f77b4;stroke:#ffffff;stroke-width:0.75;" x="85.853485" xlink:href="#mb13a9d2c84" y="225.543649"/>
     <use style="fill:#1f77b4;stroke:#ffffff;stroke-width:0.75;" x="89.421117" xlink:href="#mb13a9d2c84" y="198.246187"/>
     <use style="fill:#1f77b4;stroke:#ffffff;stroke-width:0.75;" x="92.988749" xlink:href="#mb13a9d2c84" y="181.919295"/>
     <use style="fill:#1f77b4;stroke:#ffffff;stroke-width:0.75;" x="96.556382" xlink:href="#mb13a9d2c84" y="171.696718"/>
     <use style="fill:#1f77b4;stroke:#ffffff;stroke-width:0.75;" x="100.124014" xlink:href="#mb13a9d2c84" y="162.497258"/>
     <use style="fill:#1f77b4;stroke:#ffffff;stroke-width:0.75;" x="103.691646" xlink:href="#mb13a9d2c84" y="151.750226"/>
     <use style="fill:#1f77b4;stroke:#ffffff;stroke-width:0.75;" x="107.259279" xlink:href="#mb13a9d2c84" y="142.963452"/>
     <use style="fill:#1f77b4;stroke:#ffffff;stroke-width:0.75;" x="110.826911" xlink:href="#mb13a9d2c84" y="136.186373"/>
     <use style="fill:#1f77b4;stroke:#ffffff;stroke-width:0.75;" x="114.394544" xlink:href="#mb13a9d2c84" y="132.642002"/>
     <use style="fill:#1f77b4;stroke:#ffffff;stroke-width:0.75;" x="117.962176" xlink:href="#mb13a9d2c84" y="128.104605"/>
     <use style="fill:#1f77b4;stroke:#ffffff;stroke-width:0.75;" x="121.529808" xlink:href="#mb13a9d2c84" y="124.910587"/>
     <use style="fill:#1f77b4;stroke:#ffffff;stroke-width:0.75;" x="125.097441" xlink:href="#mb13a9d2c84" y="122.625768"/>
     <use style="fill:#1f77b4;stroke:#ffffff;stroke-width:0.75;" x="128.665073" xlink:href="#mb13a9d2c84" y="121.383411"/>
     <use style="fill:#1f77b4;stroke:#ffffff;stroke-width:0.75;" x="132.232705" xlink:href="#mb13a9d2c84" y="119.283441"/>
     <use style="fill:#1f77b4;stroke:#ffffff;stroke-width:0.75;" x="135.800338" xlink:href="#mb13a9d2c84" y="118.303311"/>
     <use style="fill:#1f77b4;stroke:#ffffff;stroke-width:0.75;" x="139.36797" xlink:href="#mb13a9d2c84" y="117.428503"/>
     <use style="fill:#1f77b4;stroke:#ffffff;stroke-width:0.75;" x="142.935603" xlink:href="#mb13a9d2c84" y="115.257602"/>
     <use style="fill:#1f77b4;stroke:#ffffff;stroke-width:0.75;" x="146.503235" xlink:href="#mb13a9d2c84" y="115.405911"/>
     <use style="fill:#1f77b4;stroke:#ffffff;stroke-width:0.75;" x="150.070867" xlink:href="#mb13a9d2c84" y="113.439204"/>
     <use style="fill:#1f77b4;stroke:#ffffff;stroke-width:0.75;" x="153.6385" xlink:href="#mb13a9d2c84" y="113.654145"/>
     <use style="fill:#1f77b4;stroke:#ffffff;stroke-width:0.75;" x="157.206132" xlink:href="#mb13a9d2c84" y="111.6423"/>
     <use style="fill:#1f77b4;stroke:#ffffff;stroke-width:0.75;" x="160.773764" xlink:href="#mb13a9d2c84" y="111.362878"/>
     <use style="fill:#1f77b4;stroke:#ffffff;stroke-width:0.75;" x="164.341397" xlink:href="#mb13a9d2c84" y="114.608481"/>
     <use style="fill:#1f77b4;stroke:#ffffff;stroke-width:0.75;" x="167.909029" xlink:href="#mb13a9d2c84" y="111.362878"/>
     <use style="fill:#1f77b4;stroke:#ffffff;stroke-width:0.75;" x="171.476661" xlink:href="#mb13a9d2c84" y="112.878209"/>
     <use style="fill:#1f77b4;stroke:#ffffff;stroke-width:0.75;" x="175.044294" xlink:href="#mb13a9d2c84" y="114.35915"/>
     <use style="fill:#1f77b4;stroke:#ffffff;stroke-width:0.75;" x="178.611926" xlink:href="#mb13a9d2c84" y="114.28607"/>
     <use style="fill:#1f77b4;stroke:#ffffff;stroke-width:0.75;" x="182.179559" xlink:href="#mb13a9d2c84" y="112.177503"/>
     <use style="fill:#1f77b4;stroke:#ffffff;stroke-width:0.75;" x="185.747191" xlink:href="#mb13a9d2c84" y="110.387047"/>
     <use style="fill:#1f77b4;stroke:#ffffff;stroke-width:0.75;" x="189.314823" xlink:href="#mb13a9d2c84" y="109.750823"/>
     <use style="fill:#1f77b4;stroke:#ffffff;stroke-width:0.75;" x="192.882456" xlink:href="#mb13a9d2c84" y="111.459601"/>
     <use style="fill:#1f77b4;stroke:#ffffff;stroke-width:0.75;" x="196.450088" xlink:href="#mb13a9d2c84" y="109.639054"/>
     <use style="fill:#1f77b4;stroke:#ffffff;stroke-width:0.75;" x="200.01772" xlink:href="#mb13a9d2c84" y="109.518687"/>
     <use style="fill:#1f77b4;stroke:#ffffff;stroke-width:0.75;" x="203.585353" xlink:href="#mb13a9d2c84" y="107.672347"/>
     <use style="fill:#1f77b4;stroke:#ffffff;stroke-width:0.75;" x="207.152985" xlink:href="#mb13a9d2c84" y="104.132274"/>
     <use style="fill:#1f77b4;stroke:#ffffff;stroke-width:0.75;" x="210.720618" xlink:href="#mb13a9d2c84" y="105.587422"/>
     <use style="fill:#1f77b4;stroke:#ffffff;stroke-width:0.75;" x="214.28825" xlink:href="#mb13a9d2c84" y="104.360111"/>
     <use style="fill:#1f77b4;stroke:#ffffff;stroke-width:0.75;" x="217.855882" xlink:href="#mb13a9d2c84" y="104.321422"/>
     <use style="fill:#1f77b4;stroke:#ffffff;stroke-width:0.75;" x="221.423515" xlink:href="#mb13a9d2c84" y="104.033401"/>
     <use style="fill:#1f77b4;stroke:#ffffff;stroke-width:0.75;" x="224.991147" xlink:href="#mb13a9d2c84" y="105.112403"/>
     <use style="fill:#1f77b4;stroke:#ffffff;stroke-width:0.75;" x="228.558779" xlink:href="#mb13a9d2c84" y="104.987738"/>
     <use style="fill:#1f77b4;stroke:#ffffff;stroke-width:0.75;" x="232.126412" xlink:href="#mb13a9d2c84" y="106.189256"/>
     <use style="fill:#1f77b4;stroke:#ffffff;stroke-width:0.75;" x="235.694044" xlink:href="#mb13a9d2c84" y="104.626638"/>
     <use style="fill:#1f77b4;stroke:#ffffff;stroke-width:0.75;" x="239.261676" xlink:href="#mb13a9d2c84" y="104.373008"/>
     <use style="fill:#1f77b4;stroke:#ffffff;stroke-width:0.75;" x="242.829309" xlink:href="#mb13a9d2c84" y="106.264485"/>
     <use style="fill:#1f77b4;stroke:#ffffff;stroke-width:0.75;" x="246.396941" xlink:href="#mb13a9d2c84" y="104.080688"/>
     <use style="fill:#1f77b4;stroke:#ffffff;stroke-width:0.75;" x="249.964574" xlink:href="#mb13a9d2c84" y="104.016206"/>
     <use style="fill:#1f77b4;stroke:#ffffff;stroke-width:0.75;" x="253.532206" xlink:href="#mb13a9d2c84" y="105.871144"/>
     <use style="fill:#1f77b4;stroke:#ffffff;stroke-width:0.75;" x="257.099838" xlink:href="#mb13a9d2c84" y="107.773369"/>
     <use style="fill:#1f77b4;stroke:#ffffff;stroke-width:0.75;" x="260.667471" xlink:href="#mb13a9d2c84" y="103.809863"/>
     <use style="fill:#1f77b4;stroke:#ffffff;stroke-width:0.75;" x="264.235103" xlink:href="#mb13a9d2c84" y="102.674977"/>
     <use style="fill:#1f77b4;stroke:#ffffff;stroke-width:0.75;" x="267.802735" xlink:href="#mb13a9d2c84" y="103.715289"/>
     <use style="fill:#1f77b4;stroke:#ffffff;stroke-width:0.75;" x="271.370368" xlink:href="#mb13a9d2c84" y="105.019979"/>
     <use style="fill:#1f77b4;stroke:#ffffff;stroke-width:0.75;" x="274.938" xlink:href="#mb13a9d2c84" y="102.649184"/>
     <use style="fill:#1f77b4;stroke:#ffffff;stroke-width:0.75;" x="278.505632" xlink:href="#mb13a9d2c84" y="102.503024"/>
     <use style="fill:#1f77b4;stroke:#ffffff;stroke-width:0.75;" x="282.073265" xlink:href="#mb13a9d2c84" y="102.421347"/>
     <use style="fill:#1f77b4;stroke:#ffffff;stroke-width:0.75;" x="285.640897" xlink:href="#mb13a9d2c84" y="102.176314"/>
     <use style="fill:#1f77b4;stroke:#ffffff;stroke-width:0.75;" x="289.20853" xlink:href="#mb13a9d2c84" y="104.284882"/>
     <use style="fill:#1f77b4;stroke:#ffffff;stroke-width:0.75;" x="292.776162" xlink:href="#mb13a9d2c84" y="102.782447"/>
     <use style="fill:#1f77b4;stroke:#ffffff;stroke-width:0.75;" x="296.343794" xlink:href="#mb13a9d2c84" y="102.507323"/>
     <use style="fill:#1f77b4;stroke:#ffffff;stroke-width:0.75;" x="299.911427" xlink:href="#mb13a9d2c84" y="103.842104"/>
     <use style="fill:#1f77b4;stroke:#ffffff;stroke-width:0.75;" x="303.479059" xlink:href="#mb13a9d2c84" y="99.700198"/>
     <use style="fill:#1f77b4;stroke:#ffffff;stroke-width:0.75;" x="307.046691" xlink:href="#mb13a9d2c84" y="101.153197"/>
     <use style="fill:#1f77b4;stroke:#ffffff;stroke-width:0.75;" x="310.614324" xlink:href="#mb13a9d2c84" y="103.612118"/>
     <use style="fill:#1f77b4;stroke:#ffffff;stroke-width:0.75;" x="314.181956" xlink:href="#mb13a9d2c84" y="106.062441"/>
     <use style="fill:#1f77b4;stroke:#ffffff;stroke-width:0.75;" x="317.749589" xlink:href="#mb13a9d2c84" y="100.865176"/>
     <use style="fill:#1f77b4;stroke:#ffffff;stroke-width:0.75;" x="321.317221" xlink:href="#mb13a9d2c84" y="100.719017"/>
     <use style="fill:#1f77b4;stroke:#ffffff;stroke-width:0.75;" x="324.884853" xlink:href="#mb13a9d2c84" y="100.70612"/>
     <use style="fill:#1f77b4;stroke:#ffffff;stroke-width:0.75;" x="328.452486" xlink:href="#mb13a9d2c84" y="96.658788"/>
     <use style="fill:#1f77b4;stroke:#ffffff;stroke-width:0.75;" x="332.020118" xlink:href="#mb13a9d2c84" y="100.478283"/>
     <use style="fill:#1f77b4;stroke:#ffffff;stroke-width:0.75;" x="335.58775" xlink:href="#mb13a9d2c84" y="98.928561"/>
     <use style="fill:#1f77b4;stroke:#ffffff;stroke-width:0.75;" x="339.155383" xlink:href="#mb13a9d2c84" y="100.327825"/>
     <use style="fill:#1f77b4;stroke:#ffffff;stroke-width:0.75;" x="342.723015" xlink:href="#mb13a9d2c84" y="100.276239"/>
     <use style="fill:#1f77b4;stroke:#ffffff;stroke-width:0.75;" x="346.290647" xlink:href="#mb13a9d2c84" y="100.207458"/>
     <use style="fill:#1f77b4;stroke:#ffffff;stroke-width:0.75;" x="349.85828" xlink:href="#mb13a9d2c84" y="97.138105"/>
     <use style="fill:#1f77b4;stroke:#ffffff;stroke-width:0.75;" x="353.425912" xlink:href="#mb13a9d2c84" y="100.134378"/>
     <use style="fill:#1f77b4;stroke:#ffffff;stroke-width:0.75;" x="356.993545" xlink:href="#mb13a9d2c84" y="100.069896"/>
     <use style="fill:#1f77b4;stroke:#ffffff;stroke-width:0.75;" x="360.561177" xlink:href="#mb13a9d2c84" y="98.457841"/>
     <use style="fill:#1f77b4;stroke:#ffffff;stroke-width:0.75;" x="364.128809" xlink:href="#mb13a9d2c84" y="99.919437"/>
     <use style="fill:#1f77b4;stroke:#ffffff;stroke-width:0.75;" x="367.696442" xlink:href="#mb13a9d2c84" y="99.915139"/>
     <use style="fill:#1f77b4;stroke:#ffffff;stroke-width:0.75;" x="371.264074" xlink:href="#mb13a9d2c84" y="99.915139"/>
     <use style="fill:#1f77b4;stroke:#ffffff;stroke-width:0.75;" x="374.831706" xlink:href="#mb13a9d2c84" y="98.124683"/>
     <use style="fill:#1f77b4;stroke:#ffffff;stroke-width:0.75;" x="378.399339" xlink:href="#mb13a9d2c84" y="98.101039"/>
     <use style="fill:#1f77b4;stroke:#ffffff;stroke-width:0.75;" x="381.966971" xlink:href="#mb13a9d2c84" y="97.969926"/>
     <use style="fill:#1f77b4;stroke:#ffffff;stroke-width:0.75;" x="385.534604" xlink:href="#mb13a9d2c84" y="97.875352"/>
     <use style="fill:#1f77b4;stroke:#ffffff;stroke-width:0.75;" x="389.102236" xlink:href="#mb13a9d2c84" y="99.859254"/>
     <use style="fill:#1f77b4;stroke:#ffffff;stroke-width:0.75;" x="392.669868" xlink:href="#mb13a9d2c84" y="97.641067"/>
     <use style="fill:#1f77b4;stroke:#ffffff;stroke-width:0.75;" x="396.237501" xlink:href="#mb13a9d2c84" y="97.619572"/>
     <use style="fill:#1f77b4;stroke:#ffffff;stroke-width:0.75;" x="399.805133" xlink:href="#mb13a9d2c84" y="97.598078"/>
     <use style="fill:#1f77b4;stroke:#ffffff;stroke-width:0.75;" x="403.372765" xlink:href="#mb13a9d2c84" y="97.514252"/>
     <use style="fill:#1f77b4;stroke:#ffffff;stroke-width:0.75;" x="406.940398" xlink:href="#mb13a9d2c84" y="97.400333"/>
    </g>
   </g>
   <g id="line2d_15">
    <path clip-path="url(#p3904dd2168)" d="M 82.285852 275.525948 
L 85.853485 272.413608 
L 89.421117 270.386717 
L 92.988749 268.858489 
L 96.556382 267.773039 
L 100.124014 266.687589 
L 103.691646 265.941745 
L 107.259279 264.770318 
L 110.826911 264.1126 
L 114.394544 262.350086 
L 117.962176 261.513967 
L 121.529808 259.637535 
L 125.097441 258.659555 
L 128.665073 257.905114 
L 132.232705 255.841683 
L 135.800338 255.218356 
L 139.36797 255.689076 
L 142.935603 255.289286 
L 146.503235 253.722369 
L 150.070867 253.455842 
L 153.6385 253.129132 
L 157.206132 252.804572 
L 160.773764 252.452069 
L 164.341397 251.418205 
L 167.909029 251.29139 
L 171.476661 250.698154 
L 175.044294 249.995298 
L 178.611926 249.743817 
L 182.179559 249.393464 
L 185.747191 249.126938 
L 189.314823 248.750791 
L 192.882456 248.340255 
L 196.450088 248.198394 
L 200.01772 247.802903 
L 203.585353 247.467596 
L 207.152985 246.992577 
L 210.720618 246.749694 
L 214.28825 246.109171 
L 217.855882 245.773863 
L 221.423515 245.548176 
L 224.991147 245.35258 
L 228.558779 244.673367 
L 232.126412 244.318715 
L 235.694044 244.12097 
L 239.261676 243.858742 
L 242.829309 243.422413 
L 246.396941 242.857119 
L 249.964574 242.446582 
L 253.532206 242.23594 
L 257.099838 241.997356 
L 260.667471 241.558877 
L 264.235103 240.198303 
L 267.802735 240.737804 
L 271.370368 239.807111 
L 274.938 239.446011 
L 278.505632 239.263311 
L 282.073265 239.046221 
L 285.640897 238.431491 
L 289.20853 238.713063 
L 292.776162 238.633535 
L 296.343794 238.083287 
L 299.911427 238.014506 
L 303.479059 237.997311 
L 307.046691 237.96292 
L 310.614324 237.876944 
L 314.181956 236.909711 
L 317.749589 236.888217 
L 321.317221 236.604495 
L 324.884853 236.5873 
L 328.452486 237.017181 
L 332.020118 236.372359 
L 335.58775 236.114431 
L 339.155383 236.028454 
L 342.723015 236.264889 
L 346.290647 236.04565 
L 349.85828 235.989765 
L 353.425912 235.867249 
L 356.993545 235.774824 
L 360.561177 235.729687 
L 364.128809 235.402977 
L 367.696442 234.990291 
L 371.264074 234.919361 
L 374.831706 234.852729 
L 378.399339 234.706569 
L 381.966971 234.599099 
L 385.534604 233.788773 
L 389.102236 234.063897 
L 392.669868 233.565235 
L 396.237501 233.838209 
L 399.805133 233.775876 
L 403.372765 233.65336 
L 406.940398 233.575982 
" style="fill:none;stroke:#98df8a;stroke-linecap:square;stroke-width:1.5;"/>
    <defs>
     <path d="M -0 3 
L 3 -3 
L -3 -3 
z
" id="m2a25923d53" style="stroke:#ffffff;stroke-linejoin:miter;stroke-width:0.75;"/>
    </defs>
    <g clip-path="url(#p3904dd2168)">
     <use style="fill:#98df8a;stroke:#ffffff;stroke-linejoin:miter;stroke-width:0.75;" x="82.285852" xlink:href="#m2a25923d53" y="275.525948"/>
     <use style="fill:#98df8a;stroke:#ffffff;stroke-linejoin:miter;stroke-width:0.75;" x="85.853485" xlink:href="#m2a25923d53" y="272.413608"/>
     <use style="fill:#98df8a;stroke:#ffffff;stroke-linejoin:miter;stroke-width:0.75;" x="89.421117" xlink:href="#m2a25923d53" y="270.386717"/>
     <use style="fill:#98df8a;stroke:#ffffff;stroke-linejoin:miter;stroke-width:0.75;" x="92.988749" xlink:href="#m2a25923d53" y="268.858489"/>
     <use style="fill:#98df8a;stroke:#ffffff;stroke-linejoin:miter;stroke-width:0.75;" x="96.556382" xlink:href="#m2a25923d53" y="267.773039"/>
     <use style="fill:#98df8a;stroke:#ffffff;stroke-linejoin:miter;stroke-width:0.75;" x="100.124014" xlink:href="#m2a25923d53" y="266.687589"/>
     <use style="fill:#98df8a;stroke:#ffffff;stroke-linejoin:miter;stroke-width:0.75;" x="103.691646" xlink:href="#m2a25923d53" y="265.941745"/>
     <use style="fill:#98df8a;stroke:#ffffff;stroke-linejoin:miter;stroke-width:0.75;" x="107.259279" xlink:href="#m2a25923d53" y="264.770318"/>
     <use style="fill:#98df8a;stroke:#ffffff;stroke-linejoin:miter;stroke-width:0.75;" x="110.826911" xlink:href="#m2a25923d53" y="264.1126"/>
     <use style="fill:#98df8a;stroke:#ffffff;stroke-linejoin:miter;stroke-width:0.75;" x="114.394544" xlink:href="#m2a25923d53" y="262.350086"/>
     <use style="fill:#98df8a;stroke:#ffffff;stroke-linejoin:miter;stroke-width:0.75;" x="117.962176" xlink:href="#m2a25923d53" y="261.513967"/>
     <use style="fill:#98df8a;stroke:#ffffff;stroke-linejoin:miter;stroke-width:0.75;" x="121.529808" xlink:href="#m2a25923d53" y="259.637535"/>
     <use style="fill:#98df8a;stroke:#ffffff;stroke-linejoin:miter;stroke-width:0.75;" x="125.097441" xlink:href="#m2a25923d53" y="258.659555"/>
     <use style="fill:#98df8a;stroke:#ffffff;stroke-linejoin:miter;stroke-width:0.75;" x="128.665073" xlink:href="#m2a25923d53" y="257.905114"/>
     <use style="fill:#98df8a;stroke:#ffffff;stroke-linejoin:miter;stroke-width:0.75;" x="132.232705" xlink:href="#m2a25923d53" y="255.841683"/>
     <use style="fill:#98df8a;stroke:#ffffff;stroke-linejoin:miter;stroke-width:0.75;" x="135.800338" xlink:href="#m2a25923d53" y="255.218356"/>
     <use style="fill:#98df8a;stroke:#ffffff;stroke-linejoin:miter;stroke-width:0.75;" x="139.36797" xlink:href="#m2a25923d53" y="255.689076"/>
     <use style="fill:#98df8a;stroke:#ffffff;stroke-linejoin:miter;stroke-width:0.75;" x="142.935603" xlink:href="#m2a25923d53" y="255.289286"/>
     <use style="fill:#98df8a;stroke:#ffffff;stroke-linejoin:miter;stroke-width:0.75;" x="146.503235" xlink:href="#m2a25923d53" y="253.722369"/>
     <use style="fill:#98df8a;stroke:#ffffff;stroke-linejoin:miter;stroke-width:0.75;" x="150.070867" xlink:href="#m2a25923d53" y="253.455842"/>
     <use style="fill:#98df8a;stroke:#ffffff;stroke-linejoin:miter;stroke-width:0.75;" x="153.6385" xlink:href="#m2a25923d53" y="253.129132"/>
     <use style="fill:#98df8a;stroke:#ffffff;stroke-linejoin:miter;stroke-width:0.75;" x="157.206132" xlink:href="#m2a25923d53" y="252.804572"/>
     <use style="fill:#98df8a;stroke:#ffffff;stroke-linejoin:miter;stroke-width:0.75;" x="160.773764" xlink:href="#m2a25923d53" y="252.452069"/>
     <use style="fill:#98df8a;stroke:#ffffff;stroke-linejoin:miter;stroke-width:0.75;" x="164.341397" xlink:href="#m2a25923d53" y="251.418205"/>
     <use style="fill:#98df8a;stroke:#ffffff;stroke-linejoin:miter;stroke-width:0.75;" x="167.909029" xlink:href="#m2a25923d53" y="251.29139"/>
     <use style="fill:#98df8a;stroke:#ffffff;stroke-linejoin:miter;stroke-width:0.75;" x="171.476661" xlink:href="#m2a25923d53" y="250.698154"/>
     <use style="fill:#98df8a;stroke:#ffffff;stroke-linejoin:miter;stroke-width:0.75;" x="175.044294" xlink:href="#m2a25923d53" y="249.995298"/>
     <use style="fill:#98df8a;stroke:#ffffff;stroke-linejoin:miter;stroke-width:0.75;" x="178.611926" xlink:href="#m2a25923d53" y="249.743817"/>
     <use style="fill:#98df8a;stroke:#ffffff;stroke-linejoin:miter;stroke-width:0.75;" x="182.179559" xlink:href="#m2a25923d53" y="249.393464"/>
     <use style="fill:#98df8a;stroke:#ffffff;stroke-linejoin:miter;stroke-width:0.75;" x="185.747191" xlink:href="#m2a25923d53" y="249.126938"/>
     <use style="fill:#98df8a;stroke:#ffffff;stroke-linejoin:miter;stroke-width:0.75;" x="189.314823" xlink:href="#m2a25923d53" y="248.750791"/>
     <use style="fill:#98df8a;stroke:#ffffff;stroke-linejoin:miter;stroke-width:0.75;" x="192.882456" xlink:href="#m2a25923d53" y="248.340255"/>
     <use style="fill:#98df8a;stroke:#ffffff;stroke-linejoin:miter;stroke-width:0.75;" x="196.450088" xlink:href="#m2a25923d53" y="248.198394"/>
     <use style="fill:#98df8a;stroke:#ffffff;stroke-linejoin:miter;stroke-width:0.75;" x="200.01772" xlink:href="#m2a25923d53" y="247.802903"/>
     <use style="fill:#98df8a;stroke:#ffffff;stroke-linejoin:miter;stroke-width:0.75;" x="203.585353" xlink:href="#m2a25923d53" y="247.467596"/>
     <use style="fill:#98df8a;stroke:#ffffff;stroke-linejoin:miter;stroke-width:0.75;" x="207.152985" xlink:href="#m2a25923d53" y="246.992577"/>
     <use style="fill:#98df8a;stroke:#ffffff;stroke-linejoin:miter;stroke-width:0.75;" x="210.720618" xlink:href="#m2a25923d53" y="246.749694"/>
     <use style="fill:#98df8a;stroke:#ffffff;stroke-linejoin:miter;stroke-width:0.75;" x="214.28825" xlink:href="#m2a25923d53" y="246.109171"/>
     <use style="fill:#98df8a;stroke:#ffffff;stroke-linejoin:miter;stroke-width:0.75;" x="217.855882" xlink:href="#m2a25923d53" y="245.773863"/>
     <use style="fill:#98df8a;stroke:#ffffff;stroke-linejoin:miter;stroke-width:0.75;" x="221.423515" xlink:href="#m2a25923d53" y="245.548176"/>
     <use style="fill:#98df8a;stroke:#ffffff;stroke-linejoin:miter;stroke-width:0.75;" x="224.991147" xlink:href="#m2a25923d53" y="245.35258"/>
     <use style="fill:#98df8a;stroke:#ffffff;stroke-linejoin:miter;stroke-width:0.75;" x="228.558779" xlink:href="#m2a25923d53" y="244.673367"/>
     <use style="fill:#98df8a;stroke:#ffffff;stroke-linejoin:miter;stroke-width:0.75;" x="232.126412" xlink:href="#m2a25923d53" y="244.318715"/>
     <use style="fill:#98df8a;stroke:#ffffff;stroke-linejoin:miter;stroke-width:0.75;" x="235.694044" xlink:href="#m2a25923d53" y="244.12097"/>
     <use style="fill:#98df8a;stroke:#ffffff;stroke-linejoin:miter;stroke-width:0.75;" x="239.261676" xlink:href="#m2a25923d53" y="243.858742"/>
     <use style="fill:#98df8a;stroke:#ffffff;stroke-linejoin:miter;stroke-width:0.75;" x="242.829309" xlink:href="#m2a25923d53" y="243.422413"/>
     <use style="fill:#98df8a;stroke:#ffffff;stroke-linejoin:miter;stroke-width:0.75;" x="246.396941" xlink:href="#m2a25923d53" y="242.857119"/>
     <use style="fill:#98df8a;stroke:#ffffff;stroke-linejoin:miter;stroke-width:0.75;" x="249.964574" xlink:href="#m2a25923d53" y="242.446582"/>
     <use style="fill:#98df8a;stroke:#ffffff;stroke-linejoin:miter;stroke-width:0.75;" x="253.532206" xlink:href="#m2a25923d53" y="242.23594"/>
     <use style="fill:#98df8a;stroke:#ffffff;stroke-linejoin:miter;stroke-width:0.75;" x="257.099838" xlink:href="#m2a25923d53" y="241.997356"/>
     <use style="fill:#98df8a;stroke:#ffffff;stroke-linejoin:miter;stroke-width:0.75;" x="260.667471" xlink:href="#m2a25923d53" y="241.558877"/>
     <use style="fill:#98df8a;stroke:#ffffff;stroke-linejoin:miter;stroke-width:0.75;" x="264.235103" xlink:href="#m2a25923d53" y="240.198303"/>
     <use style="fill:#98df8a;stroke:#ffffff;stroke-linejoin:miter;stroke-width:0.75;" x="267.802735" xlink:href="#m2a25923d53" y="240.737804"/>
     <use style="fill:#98df8a;stroke:#ffffff;stroke-linejoin:miter;stroke-width:0.75;" x="271.370368" xlink:href="#m2a25923d53" y="239.807111"/>
     <use style="fill:#98df8a;stroke:#ffffff;stroke-linejoin:miter;stroke-width:0.75;" x="274.938" xlink:href="#m2a25923d53" y="239.446011"/>
     <use style="fill:#98df8a;stroke:#ffffff;stroke-linejoin:miter;stroke-width:0.75;" x="278.505632" xlink:href="#m2a25923d53" y="239.263311"/>
     <use style="fill:#98df8a;stroke:#ffffff;stroke-linejoin:miter;stroke-width:0.75;" x="282.073265" xlink:href="#m2a25923d53" y="239.046221"/>
     <use style="fill:#98df8a;stroke:#ffffff;stroke-linejoin:miter;stroke-width:0.75;" x="285.640897" xlink:href="#m2a25923d53" y="238.431491"/>
     <use style="fill:#98df8a;stroke:#ffffff;stroke-linejoin:miter;stroke-width:0.75;" x="289.20853" xlink:href="#m2a25923d53" y="238.713063"/>
     <use style="fill:#98df8a;stroke:#ffffff;stroke-linejoin:miter;stroke-width:0.75;" x="292.776162" xlink:href="#m2a25923d53" y="238.633535"/>
     <use style="fill:#98df8a;stroke:#ffffff;stroke-linejoin:miter;stroke-width:0.75;" x="296.343794" xlink:href="#m2a25923d53" y="238.083287"/>
     <use style="fill:#98df8a;stroke:#ffffff;stroke-linejoin:miter;stroke-width:0.75;" x="299.911427" xlink:href="#m2a25923d53" y="238.014506"/>
     <use style="fill:#98df8a;stroke:#ffffff;stroke-linejoin:miter;stroke-width:0.75;" x="303.479059" xlink:href="#m2a25923d53" y="237.997311"/>
     <use style="fill:#98df8a;stroke:#ffffff;stroke-linejoin:miter;stroke-width:0.75;" x="307.046691" xlink:href="#m2a25923d53" y="237.96292"/>
     <use style="fill:#98df8a;stroke:#ffffff;stroke-linejoin:miter;stroke-width:0.75;" x="310.614324" xlink:href="#m2a25923d53" y="237.876944"/>
     <use style="fill:#98df8a;stroke:#ffffff;stroke-linejoin:miter;stroke-width:0.75;" x="314.181956" xlink:href="#m2a25923d53" y="236.909711"/>
     <use style="fill:#98df8a;stroke:#ffffff;stroke-linejoin:miter;stroke-width:0.75;" x="317.749589" xlink:href="#m2a25923d53" y="236.888217"/>
     <use style="fill:#98df8a;stroke:#ffffff;stroke-linejoin:miter;stroke-width:0.75;" x="321.317221" xlink:href="#m2a25923d53" y="236.604495"/>
     <use style="fill:#98df8a;stroke:#ffffff;stroke-linejoin:miter;stroke-width:0.75;" x="324.884853" xlink:href="#m2a25923d53" y="236.5873"/>
     <use style="fill:#98df8a;stroke:#ffffff;stroke-linejoin:miter;stroke-width:0.75;" x="328.452486" xlink:href="#m2a25923d53" y="237.017181"/>
     <use style="fill:#98df8a;stroke:#ffffff;stroke-linejoin:miter;stroke-width:0.75;" x="332.020118" xlink:href="#m2a25923d53" y="236.372359"/>
     <use style="fill:#98df8a;stroke:#ffffff;stroke-linejoin:miter;stroke-width:0.75;" x="335.58775" xlink:href="#m2a25923d53" y="236.114431"/>
     <use style="fill:#98df8a;stroke:#ffffff;stroke-linejoin:miter;stroke-width:0.75;" x="339.155383" xlink:href="#m2a25923d53" y="236.028454"/>
     <use style="fill:#98df8a;stroke:#ffffff;stroke-linejoin:miter;stroke-width:0.75;" x="342.723015" xlink:href="#m2a25923d53" y="236.264889"/>
     <use style="fill:#98df8a;stroke:#ffffff;stroke-linejoin:miter;stroke-width:0.75;" x="346.290647" xlink:href="#m2a25923d53" y="236.04565"/>
     <use style="fill:#98df8a;stroke:#ffffff;stroke-linejoin:miter;stroke-width:0.75;" x="349.85828" xlink:href="#m2a25923d53" y="235.989765"/>
     <use style="fill:#98df8a;stroke:#ffffff;stroke-linejoin:miter;stroke-width:0.75;" x="353.425912" xlink:href="#m2a25923d53" y="235.867249"/>
     <use style="fill:#98df8a;stroke:#ffffff;stroke-linejoin:miter;stroke-width:0.75;" x="356.993545" xlink:href="#m2a25923d53" y="235.774824"/>
     <use style="fill:#98df8a;stroke:#ffffff;stroke-linejoin:miter;stroke-width:0.75;" x="360.561177" xlink:href="#m2a25923d53" y="235.729687"/>
     <use style="fill:#98df8a;stroke:#ffffff;stroke-linejoin:miter;stroke-width:0.75;" x="364.128809" xlink:href="#m2a25923d53" y="235.402977"/>
     <use style="fill:#98df8a;stroke:#ffffff;stroke-linejoin:miter;stroke-width:0.75;" x="367.696442" xlink:href="#m2a25923d53" y="234.990291"/>
     <use style="fill:#98df8a;stroke:#ffffff;stroke-linejoin:miter;stroke-width:0.75;" x="371.264074" xlink:href="#m2a25923d53" y="234.919361"/>
     <use style="fill:#98df8a;stroke:#ffffff;stroke-linejoin:miter;stroke-width:0.75;" x="374.831706" xlink:href="#m2a25923d53" y="234.852729"/>
     <use style="fill:#98df8a;stroke:#ffffff;stroke-linejoin:miter;stroke-width:0.75;" x="378.399339" xlink:href="#m2a25923d53" y="234.706569"/>
     <use style="fill:#98df8a;stroke:#ffffff;stroke-linejoin:miter;stroke-width:0.75;" x="381.966971" xlink:href="#m2a25923d53" y="234.599099"/>
     <use style="fill:#98df8a;stroke:#ffffff;stroke-linejoin:miter;stroke-width:0.75;" x="385.534604" xlink:href="#m2a25923d53" y="233.788773"/>
     <use style="fill:#98df8a;stroke:#ffffff;stroke-linejoin:miter;stroke-width:0.75;" x="389.102236" xlink:href="#m2a25923d53" y="234.063897"/>
     <use style="fill:#98df8a;stroke:#ffffff;stroke-linejoin:miter;stroke-width:0.75;" x="392.669868" xlink:href="#m2a25923d53" y="233.565235"/>
     <use style="fill:#98df8a;stroke:#ffffff;stroke-linejoin:miter;stroke-width:0.75;" x="396.237501" xlink:href="#m2a25923d53" y="233.838209"/>
     <use style="fill:#98df8a;stroke:#ffffff;stroke-linejoin:miter;stroke-width:0.75;" x="399.805133" xlink:href="#m2a25923d53" y="233.775876"/>
     <use style="fill:#98df8a;stroke:#ffffff;stroke-linejoin:miter;stroke-width:0.75;" x="403.372765" xlink:href="#m2a25923d53" y="233.65336"/>
     <use style="fill:#98df8a;stroke:#ffffff;stroke-linejoin:miter;stroke-width:0.75;" x="406.940398" xlink:href="#m2a25923d53" y="233.575982"/>
    </g>
   </g>
   <g id="line2d_16"/>
   <g id="line2d_17"/>
   <g id="line2d_18"/>
   <g id="patch_3">
    <path d="M 66.053125 264.228668 
L 66.053125 49.288018 
" style="fill:none;stroke:#000000;stroke-linecap:square;stroke-linejoin:miter;stroke-width:0.8;"/>
   </g>
   <g id="patch_4">
    <path d="M 82.285852 288.430125 
L 355.804334 288.430125 
" style="fill:none;stroke:#000000;stroke-linecap:square;stroke-linejoin:miter;stroke-width:0.8;"/>
   </g>
   <g id="text_15">
    <!-- php_php-fuzz-execute (23h, 10 trials/fuzzer) -->
    <g transform="translate(111.712188 16.318125)scale(0.12 -0.12)">
     <defs>
      <path d="M 1159 525 
L 1159 -1331 
L 581 -1331 
L 581 3500 
L 1159 3500 
L 1159 2969 
Q 1341 3281 1617 3432 
Q 1894 3584 2278 3584 
Q 2916 3584 3314 3078 
Q 3713 2572 3713 1747 
Q 3713 922 3314 415 
Q 2916 -91 2278 -91 
Q 1894 -91 1617 61 
Q 1341 213 1159 525 
z
M 3116 1747 
Q 3116 2381 2855 2742 
Q 2594 3103 2138 3103 
Q 1681 3103 1420 2742 
Q 1159 2381 1159 1747 
Q 1159 1113 1420 752 
Q 1681 391 2138 391 
Q 2594 391 2855 752 
Q 3116 1113 3116 1747 
z
" id="DejaVuSans-70" transform="scale(0.015625)"/>
      <path d="M 3263 -1063 
L 3263 -1509 
L -63 -1509 
L -63 -1063 
L 3263 -1063 
z
" id="DejaVuSans-5f" transform="scale(0.015625)"/>
      <path d="M 313 2009 
L 1997 2009 
L 1997 1497 
L 313 1497 
L 313 2009 
z
" id="DejaVuSans-2d" transform="scale(0.015625)"/>
      <path d="M 2375 4863 
L 2375 4384 
L 1825 4384 
Q 1516 4384 1395 4259 
Q 1275 4134 1275 3809 
L 1275 3500 
L 2222 3500 
L 2222 3053 
L 1275 3053 
L 1275 0 
L 697 0 
L 697 3053 
L 147 3053 
L 147 3500 
L 697 3500 
L 697 3744 
Q 697 4328 969 4595 
Q 1241 4863 1831 4863 
L 2375 4863 
z
" id="DejaVuSans-66" transform="scale(0.015625)"/>
      <path d="M 353 3500 
L 3084 3500 
L 3084 2975 
L 922 459 
L 3084 459 
L 3084 0 
L 275 0 
L 275 525 
L 2438 3041 
L 353 3041 
L 353 3500 
z
" id="DejaVuSans-7a" transform="scale(0.015625)"/>
      <path d="M 3513 3500 
L 2247 1797 
L 3578 0 
L 2900 0 
L 1881 1375 
L 863 0 
L 184 0 
L 1544 1831 
L 300 3500 
L 978 3500 
L 1906 2253 
L 2834 3500 
L 3513 3500 
z
" id="DejaVuSans-78" transform="scale(0.015625)"/>
      <path d="M 750 794 
L 1409 794 
L 1409 256 
L 897 -744 
L 494 -744 
L 750 256 
L 750 794 
z
" id="DejaVuSans-2c" transform="scale(0.015625)"/>
      <path d="M 603 4863 
L 1178 4863 
L 1178 0 
L 603 0 
L 603 4863 
z
" id="DejaVuSans-6c" transform="scale(0.015625)"/>
      <path d="M 2834 3397 
L 2834 2853 
Q 2591 2978 2328 3040 
Q 2066 3103 1784 3103 
Q 1356 3103 1142 2972 
Q 928 2841 928 2578 
Q 928 2378 1081 2264 
Q 1234 2150 1697 2047 
L 1894 2003 
Q 2506 1872 2764 1633 
Q 3022 1394 3022 966 
Q 3022 478 2636 193 
Q 2250 -91 1575 -91 
Q 1294 -91 989 -36 
Q 684 19 347 128 
L 347 722 
Q 666 556 975 473 
Q 1284 391 1588 391 
Q 1994 391 2212 530 
Q 2431 669 2431 922 
Q 2431 1156 2273 1281 
Q 2116 1406 1581 1522 
L 1381 1569 
Q 847 1681 609 1914 
Q 372 2147 372 2553 
Q 372 3047 722 3315 
Q 1072 3584 1716 3584 
Q 2034 3584 2315 3537 
Q 2597 3491 2834 3397 
z
" id="DejaVuSans-73" transform="scale(0.015625)"/>
      <path d="M 1625 4666 
L 2156 4666 
L 531 -594 
L 0 -594 
L 1625 4666 
z
" id="DejaVuSans-2f" transform="scale(0.015625)"/>
     </defs>
     <use xlink:href="#DejaVuSans-70"/>
     <use x="63.476562" xlink:href="#DejaVuSans-68"/>
     <use x="126.855469" xlink:href="#DejaVuSans-70"/>
     <use x="190.332031" xlink:href="#DejaVuSans-5f"/>
     <use x="240.332031" xlink:href="#DejaVuSans-70"/>
     <use x="303.808594" xlink:href="#DejaVuSans-68"/>
     <use x="367.1875" xlink:href="#DejaVuSans-70"/>
     <use x="430.664062" xlink:href="#DejaVuSans-2d"/>
     <use x="466.748047" xlink:href="#DejaVuSans-66"/>
     <use x="501.953125" xlink:href="#DejaVuSans-75"/>
     <use x="565.332031" xlink:href="#DejaVuSans-7a"/>
     <use x="617.822266" xlink:href="#DejaVuSans-7a"/>
     <use x="670.3125" xlink:href="#DejaVuSans-2d"/>
     <use x="706.396484" xlink:href="#DejaVuSans-65"/>
     <use x="766.169922" xlink:href="#DejaVuSans-78"/>
     <use x="822.224609" xlink:href="#DejaVuSans-65"/>
     <use x="883.748047" xlink:href="#DejaVuSans-63"/>
     <use x="938.728516" xlink:href="#DejaVuSans-75"/>
     <use x="1002.107422" xlink:href="#DejaVuSans-74"/>
     <use x="1041.316406" xlink:href="#DejaVuSans-65"/>
     <use x="1102.839844" xlink:href="#DejaVuSans-20"/>
     <use x="1134.626953" xlink:href="#DejaVuSans-28"/>
     <use x="1173.640625" xlink:href="#DejaVuSans-32"/>
     <use x="1237.263672" xlink:href="#DejaVuSans-33"/>
     <use x="1300.886719" xlink:href="#DejaVuSans-68"/>
     <use x="1364.265625" xlink:href="#DejaVuSans-2c"/>
     <use x="1396.052734" xlink:href="#DejaVuSans-20"/>
     <use x="1427.839844" xlink:href="#DejaVuSans-31"/>
     <use x="1491.462891" xlink:href="#DejaVuSans-30"/>
     <use x="1555.085938" xlink:href="#DejaVuSans-20"/>
     <use x="1586.873047" xlink:href="#DejaVuSans-74"/>
     <use x="1626.082031" xlink:href="#DejaVuSans-72"/>
     <use x="1667.195312" xlink:href="#DejaVuSans-69"/>
     <use x="1694.978516" xlink:href="#DejaVuSans-61"/>
     <use x="1756.257812" xlink:href="#DejaVuSans-6c"/>
     <use x="1784.041016" xlink:href="#DejaVuSans-73"/>
     <use x="1836.140625" xlink:href="#DejaVuSans-2f"/>
     <use x="1869.832031" xlink:href="#DejaVuSans-66"/>
     <use x="1905.037109" xlink:href="#DejaVuSans-75"/>
     <use x="1968.416016" xlink:href="#DejaVuSans-7a"/>
     <use x="2020.90625" xlink:href="#DejaVuSans-7a"/>
     <use x="2073.396484" xlink:href="#DejaVuSans-65"/>
     <use x="2134.919922" xlink:href="#DejaVuSans-72"/>
     <use x="2176.033203" xlink:href="#DejaVuSans-29"/>
    </g>
   </g>
   <g id="legend_1">
    <g id="line2d_19">
     <path d="M 427.173125 30.416562 
L 447.173125 30.416562 
" style="fill:none;stroke:#d62728;stroke-linecap:square;stroke-width:1.5;"/>
    </g>
    <g id="line2d_20">
     <defs>
      <path d="M 0 -3 
L -3 3 
L 3 3 
z
" id="ma0ed539f84" style="stroke:#d62728;stroke-linejoin:miter;"/>
     </defs>
     <g>
      <use style="fill:#d62728;stroke:#d62728;stroke-linejoin:miter;" x="437.173125" xlink:href="#ma0ed539f84" y="30.416562"/>
     </g>
    </g>
    <g id="text_16">
     <!-- afl_scheduling_random -->
     <g transform="translate(455.173125 33.916562)scale(0.1 -0.1)">
      <use xlink:href="#DejaVuSans-61"/>
      <use x="61.279297" xlink:href="#DejaVuSans-66"/>
      <use x="96.484375" xlink:href="#DejaVuSans-6c"/>
      <use x="124.267578" xlink:href="#DejaVuSans-5f"/>
      <use x="174.267578" xlink:href="#DejaVuSans-73"/>
      <use x="226.367188" xlink:href="#DejaVuSans-63"/>
      <use x="281.347656" xlink:href="#DejaVuSans-68"/>
      <use x="344.726562" xlink:href="#DejaVuSans-65"/>
      <use x="406.25" xlink:href="#DejaVuSans-64"/>
      <use x="469.726562" xlink:href="#DejaVuSans-75"/>
      <use x="533.105469" xlink:href="#DejaVuSans-6c"/>
      <use x="560.888672" xlink:href="#DejaVuSans-69"/>
      <use x="588.671875" xlink:href="#DejaVuSans-6e"/>
      <use x="652.050781" xlink:href="#DejaVuSans-67"/>
      <use x="715.527344" xlink:href="#DejaVuSans-5f"/>
      <use x="765.527344" xlink:href="#DejaVuSans-72"/>
      <use x="806.640625" xlink:href="#DejaVuSans-61"/>
      <use x="867.919922" xlink:href="#DejaVuSans-6e"/>
      <use x="931.298828" xlink:href="#DejaVuSans-64"/>
      <use x="994.775391" xlink:href="#DejaVuSans-6f"/>
      <use x="1055.957031" xlink:href="#DejaVuSans-6d"/>
     </g>
    </g>
    <g id="line2d_21">
     <path d="M 427.173125 45.372813 
L 447.173125 45.372813 
" style="fill:none;stroke:#1f77b4;stroke-linecap:square;stroke-width:1.5;"/>
    </g>
    <g id="line2d_22">
     <defs>
      <path d="M 0 3 
C 0.795609 3 1.55874 2.683901 2.12132 2.12132 
C 2.683901 1.55874 3 0.795609 3 0 
C 3 -0.795609 2.683901 -1.55874 2.12132 -2.12132 
C 1.55874 -2.683901 0.795609 -3 0 -3 
C -0.795609 -3 -1.55874 -2.683901 -2.12132 -2.12132 
C -2.683901 -1.55874 -3 -0.795609 -3 0 
C -3 0.795609 -2.683901 1.55874 -2.12132 2.12132 
C -1.55874 2.683901 -0.795609 3 0 3 
z
" id="mfb496374bf" style="stroke:#1f77b4;"/>
     </defs>
     <g>
      <use style="fill:#1f77b4;stroke:#1f77b4;" x="437.173125" xlink:href="#mfb496374bf" y="45.372813"/>
     </g>
    </g>
    <g id="text_17">
     <!-- afl -->
     <g transform="translate(455.173125 48.872813)scale(0.1 -0.1)">
      <use xlink:href="#DejaVuSans-61"/>
      <use x="61.279297" xlink:href="#DejaVuSans-66"/>
      <use x="96.484375" xlink:href="#DejaVuSans-6c"/>
     </g>
    </g>
    <g id="line2d_23">
     <path d="M 427.173125 60.050937 
L 447.173125 60.050937 
" style="fill:none;stroke:#98df8a;stroke-linecap:square;stroke-width:1.5;"/>
    </g>
    <g id="line2d_24">
     <defs>
      <path d="M -0 3 
L 3 -3 
L -3 -3 
z
" id="m7609ebb527" style="stroke:#98df8a;stroke-linejoin:miter;"/>
     </defs>
     <g>
      <use style="fill:#98df8a;stroke:#98df8a;stroke-linejoin:miter;" x="437.173125" xlink:href="#m7609ebb527" y="60.050937"/>
     </g>
    </g>
    <g id="text_18">
     <!-- afl_scheduling_lifo -->
     <g transform="translate(455.173125 63.550937)scale(0.1 -0.1)">
      <use xlink:href="#DejaVuSans-61"/>
      <use x="61.279297" xlink:href="#DejaVuSans-66"/>
      <use x="96.484375" xlink:href="#DejaVuSans-6c"/>
      <use x="124.267578" xlink:href="#DejaVuSans-5f"/>
      <use x="174.267578" xlink:href="#DejaVuSans-73"/>
      <use x="226.367188" xlink:href="#DejaVuSans-63"/>
      <use x="281.347656" xlink:href="#DejaVuSans-68"/>
      <use x="344.726562" xlink:href="#DejaVuSans-65"/>
      <use x="406.25" xlink:href="#DejaVuSans-64"/>
      <use x="469.726562" xlink:href="#DejaVuSans-75"/>
      <use x="533.105469" xlink:href="#DejaVuSans-6c"/>
      <use x="560.888672" xlink:href="#DejaVuSans-69"/>
      <use x="588.671875" xlink:href="#DejaVuSans-6e"/>
      <use x="652.050781" xlink:href="#DejaVuSans-67"/>
      <use x="715.527344" xlink:href="#DejaVuSans-5f"/>
      <use x="765.527344" xlink:href="#DejaVuSans-6c"/>
      <use x="793.310547" xlink:href="#DejaVuSans-69"/>
      <use x="821.09375" xlink:href="#DejaVuSans-66"/>
      <use x="856.298828" xlink:href="#DejaVuSans-6f"/>
     </g>
    </g>
   </g>
  </g>
 </g>
 <defs>
  <clipPath id="p3904dd2168">
   <rect height="266.112" width="357.12" x="66.053125" y="22.318125"/>
  </clipPath>
 </defs>
</svg>
