<?xml version="1.0" encoding="utf-8" standalone="no"?>
<!DOCTYPE svg PUBLIC "-//W3C//DTD SVG 1.1//EN"
  "http://www.w3.org/Graphics/SVG/1.1/DTD/svg11.dtd">
<svg height="325.986375pt" version="1.1" viewBox="0 0 565.80125 325.986375" width="565.80125pt" xmlns="http://www.w3.org/2000/svg" xmlns:xlink="http://www.w3.org/1999/xlink">
 <metadata>
  <rdf:RDF xmlns:cc="http://creativecommons.org/ns#" xmlns:dc="http://purl.org/dc/elements/1.1/" xmlns:rdf="http://www.w3.org/1999/02/22-rdf-syntax-ns#">
   <cc:Work>
    <dc:type rdf:resource="http://purl.org/dc/dcmitype/StillImage"/>
    <dc:date>2022-05-31T14:30:29.741353</dc:date>
    <dc:format>image/svg+xml</dc:format>
    <dc:creator>
     <cc:Agent>
      <dc:title>Matplotlib v3.4.3, https://matplotlib.org/</dc:title>
     </cc:Agent>
    </dc:creator>
   </cc:Work>
  </rdf:RDF>
 </metadata>
 <defs>
  <style type="text/css">*{stroke-linecap:butt;stroke-linejoin:round;}</style>
 </defs>
 <g id="figure_1">
  <g id="patch_1">
   <path d="M 0 325.986375 
L 565.80125 325.986375 
L 565.80125 0 
L 0 0 
z
" style="fill:#ffffff;"/>
  </g>
  <g id="axes_1">
   <g id="patch_2">
    <path d="M 50.14375 288.430125 
L 407.26375 288.430125 
L 407.26375 22.318125 
L 50.14375 22.318125 
z
" style="fill:#ffffff;"/>
   </g>
   <g id="PolyCollection_1">
    <defs>
     <path d="M 66.376477 -49.65225 
L 66.376477 -49.65225 
L 116.142931 -49.65225 
L 145.254441 -49.65225 
L 165.909385 -63.09225 
L 181.930605 -49.65225 
L 195.020894 -63.09225 
L 206.088577 -76.53225 
L 215.675839 -76.53225 
L 224.132404 -76.53225 
L 231.697059 -76.53225 
L 238.540121 -76.53225 
L 244.787348 -76.53225 
L 250.53424 -76.53225 
L 255.855031 -89.97225 
L 260.808568 -89.80425 
L 265.442293 -89.97225 
L 269.795008 -89.97225 
L 273.898858 -103.41225 
L 277.780766 -103.41225 
L 281.463513 -96.69225 
L 284.96654 -103.41225 
L 288.306575 -103.41225 
L 291.498115 -103.41225 
L 294.553802 -103.41225 
L 297.484732 -116.85225 
L 300.300694 -116.85225 
L 303.010367 -116.85225 
L 305.621484 -116.85225 
L 308.140965 -116.85225 
L 310.575022 -130.29225 
L 312.92926 -130.29225 
L 315.208747 -130.29225 
L 317.418085 -130.12425 
L 319.561462 -130.29225 
L 321.642704 -130.29225 
L 323.665312 -143.73225 
L 325.632498 -157.17225 
L 327.54722 -143.73225 
L 329.412203 -143.73225 
L 331.229967 -143.73225 
L 333.002842 -143.73225 
L 334.732994 -143.73225 
L 336.422432 -143.73225 
L 338.073029 -143.73225 
L 339.686531 -143.73225 
L 341.264569 -170.61225 
L 342.808667 -157.17225 
L 344.320256 -157.17225 
L 345.800676 -157.17225 
L 347.251186 -157.17225 
L 348.672972 -184.05225 
L 350.067148 -184.05225 
L 351.434767 -170.61225 
L 352.776821 -184.05225 
L 354.094249 -190.77225 
L 355.387938 -184.05225 
L 356.658729 -184.05225 
L 357.907419 -197.49225 
L 359.134761 -204.21225 
L 360.341476 -210.93225 
L 361.528244 -204.21225 
L 362.695714 -190.77225 
L 363.844503 -204.21225 
L 364.975201 -204.21225 
L 366.088368 -204.21225 
L 367.184539 -210.76425 
L 368.264225 -210.93225 
L 369.327916 -210.93225 
L 370.376078 -204.21225 
L 371.409158 -210.93225 
L 372.427584 -210.93225 
L 373.431766 -210.93225 
L 374.422096 -210.93225 
L 375.398952 -210.93225 
L 376.362696 -210.93225 
L 377.313674 -210.93225 
L 378.252221 -210.93225 
L 379.178657 -210.93225 
L 380.093291 -210.93225 
L 380.99642 -210.93225 
L 381.88833 -210.93225 
L 382.769296 -224.37225 
L 383.639583 -224.37225 
L 384.499448 -224.37225 
L 385.349136 -217.65225 
L 386.188886 -210.93225 
L 387.018928 -204.21225 
L 387.839483 -210.93225 
L 388.650767 -197.49225 
L 389.452985 -210.93225 
L 390.246339 -197.49225 
L 391.031023 -210.93225 
L 391.031023 -237.81225 
L 391.031023 -237.81225 
L 390.246339 -237.81225 
L 389.452985 -237.81225 
L 388.650767 -237.81225 
L 387.839483 -237.81225 
L 387.018928 -244.53225 
L 386.188886 -237.81225 
L 385.349136 -237.81225 
L 384.499448 -237.81225 
L 383.639583 -237.81225 
L 382.769296 -251.25225 
L 381.88833 -237.81225 
L 380.99642 -237.81225 
L 380.093291 -237.81225 
L 379.178657 -237.81225 
L 378.252221 -237.81225 
L 377.313674 -237.81225 
L 376.362696 -237.81225 
L 375.398952 -237.81225 
L 374.422096 -237.81225 
L 373.431766 -237.81225 
L 372.427584 -237.81225 
L 371.409158 -231.09225 
L 370.376078 -231.09225 
L 369.327916 -224.37225 
L 368.264225 -224.37225 
L 367.184539 -224.37225 
L 366.088368 -224.37225 
L 364.975201 -224.37225 
L 363.844503 -224.37225 
L 362.695714 -224.37225 
L 361.528244 -224.37225 
L 360.341476 -224.37225 
L 359.134761 -224.37225 
L 357.907419 -224.37225 
L 356.658729 -224.37225 
L 355.387938 -224.37225 
L 354.094249 -224.37225 
L 352.776821 -224.37225 
L 351.434767 -224.37225 
L 350.067148 -224.37225 
L 348.672972 -224.37225 
L 347.251186 -224.37225 
L 345.800676 -224.37225 
L 344.320256 -224.37225 
L 342.808667 -224.37225 
L 341.264569 -224.37225 
L 339.686531 -210.93225 
L 338.073029 -210.93225 
L 336.422432 -224.37225 
L 334.732994 -210.93225 
L 333.002842 -197.49225 
L 331.229967 -197.49225 
L 329.412203 -197.49225 
L 327.54722 -197.49225 
L 325.632498 -197.49225 
L 323.665312 -197.49225 
L 321.642704 -184.05225 
L 319.561462 -197.49225 
L 317.418085 -177.33225 
L 315.208747 -170.61225 
L 312.92926 -170.61225 
L 310.575022 -170.61225 
L 308.140965 -163.89225 
L 305.621484 -170.61225 
L 303.010367 -157.17225 
L 300.300694 -157.17225 
L 297.484732 -170.61225 
L 294.553802 -143.73225 
L 291.498115 -143.73225 
L 288.306575 -143.73225 
L 284.96654 -143.73225 
L 281.463513 -137.18025 
L 277.780766 -130.29225 
L 273.898858 -130.29225 
L 269.795008 -130.29225 
L 265.442293 -130.29225 
L 260.808568 -123.74025 
L 255.855031 -130.29225 
L 250.53424 -116.85225 
L 244.787348 -116.85225 
L 238.540121 -116.85225 
L 231.697059 -116.85225 
L 224.132404 -103.41225 
L 215.675839 -103.41225 
L 206.088577 -103.41225 
L 195.020894 -103.41225 
L 181.930605 -89.97225 
L 165.909385 -89.97225 
L 145.254441 -89.97225 
L 116.142931 -76.53225 
L 66.376477 -49.65225 
z
" id="m2b3736280a" style="stroke:#1f77b4;stroke-opacity:0.2;"/>
    </defs>
    <g clip-path="url(#pe569b94856)">
     <use style="fill:#1f77b4;fill-opacity:0.2;stroke:#1f77b4;stroke-opacity:0.2;" x="0" xlink:href="#m2b3736280a" y="325.986375"/>
    </g>
   </g>
   <g id="PolyCollection_2">
    <defs>
     <path d="M 66.376477 -49.65225 
L 66.376477 -49.65225 
L 116.142931 -49.65225 
L 145.254441 -63.09225 
L 165.909385 -63.09225 
L 181.930605 -69.81225 
L 195.020894 -63.09225 
L 206.088577 -63.09225 
L 215.675839 -76.53225 
L 224.132404 -76.53225 
L 231.697059 -76.53225 
L 238.540121 -89.97225 
L 244.787348 -89.97225 
L 250.53424 -89.97225 
L 255.855031 -89.97225 
L 260.808568 -89.97225 
L 265.442293 -103.41225 
L 269.795008 -103.41225 
L 273.898858 -103.41225 
L 277.780766 -103.41225 
L 281.463513 -103.41225 
L 284.96654 -103.41225 
L 288.306575 -103.41225 
L 291.498115 -110.13225 
L 294.553802 -116.85225 
L 297.484732 -116.85225 
L 300.300694 -116.85225 
L 303.010367 -116.85225 
L 305.621484 -116.85225 
L 308.140965 -116.85225 
L 310.575022 -116.85225 
L 312.92926 -116.85225 
L 315.208747 -116.85225 
L 317.418085 -116.85225 
L 319.561462 -116.85225 
L 321.642704 -116.85225 
L 323.665312 -116.85225 
L 325.632498 -116.85225 
L 327.54722 -116.85225 
L 329.412203 -116.85225 
L 331.229967 -116.85225 
L 333.002842 -130.29225 
L 334.732994 -116.85225 
L 336.422432 -143.73225 
L 338.073029 -143.73225 
L 339.686531 -143.73225 
L 341.264569 -143.73225 
L 342.808667 -143.73225 
L 344.320256 -157.17225 
L 345.800676 -157.17225 
L 347.251186 -157.17225 
L 348.672972 -157.17225 
L 350.067148 -157.17225 
L 351.434767 -157.17225 
L 352.776821 -157.17225 
L 354.094249 -157.17225 
L 355.387938 -157.17225 
L 356.658729 -157.17225 
L 357.907419 -157.17225 
L 359.134761 -157.17225 
L 360.341476 -157.17225 
L 361.528244 -157.17225 
L 362.695714 -157.17225 
L 363.844503 -157.17225 
L 364.975201 -157.17225 
L 366.088368 -157.17225 
L 367.184539 -157.17225 
L 368.264225 -157.17225 
L 369.327916 -157.17225 
L 370.376078 -157.17225 
L 371.409158 -157.17225 
L 372.427584 -157.17225 
L 373.431766 -157.17225 
L 374.422096 -157.17225 
L 375.398952 -157.17225 
L 376.362696 -157.17225 
L 377.313674 -157.17225 
L 378.252221 -157.17225 
L 379.178657 -157.17225 
L 380.093291 -157.17225 
L 380.99642 -157.17225 
L 381.88833 -157.17225 
L 382.769296 -157.17225 
L 383.639583 -157.17225 
L 384.499448 -157.17225 
L 385.349136 -157.17225 
L 386.188886 -157.17225 
L 387.018928 -170.61225 
L 387.839483 -157.17225 
L 388.650767 -170.61225 
L 389.452985 -157.17225 
L 390.246339 -157.17225 
L 391.031023 -157.17225 
L 391.031023 -291.57225 
L 391.031023 -291.57225 
L 390.246339 -291.57225 
L 389.452985 -291.57225 
L 388.650767 -291.57225 
L 387.839483 -291.57225 
L 387.018928 -291.57225 
L 386.188886 -257.97225 
L 385.349136 -265.36425 
L 384.499448 -291.57225 
L 383.639583 -278.13225 
L 382.769296 -251.25225 
L 381.88833 -231.09225 
L 380.99642 -224.37225 
L 380.093291 -224.37225 
L 379.178657 -224.37225 
L 378.252221 -224.37225 
L 377.313674 -224.37225 
L 376.362696 -217.82025 
L 375.398952 -224.37225 
L 374.422096 -224.37225 
L 373.431766 -210.93225 
L 372.427584 -210.93225 
L 371.409158 -210.93225 
L 370.376078 -210.93225 
L 369.327916 -210.93225 
L 368.264225 -210.93225 
L 367.184539 -210.93225 
L 366.088368 -210.93225 
L 364.975201 -197.82825 
L 363.844503 -210.93225 
L 362.695714 -197.49225 
L 361.528244 -210.93225 
L 360.341476 -210.93225 
L 359.134761 -210.93225 
L 357.907419 -184.05225 
L 356.658729 -184.05225 
L 355.387938 -184.05225 
L 354.094249 -184.05225 
L 352.776821 -184.05225 
L 351.434767 -184.05225 
L 350.067148 -184.05225 
L 348.672972 -184.05225 
L 347.251186 -170.61225 
L 345.800676 -184.05225 
L 344.320256 -184.05225 
L 342.808667 -184.05225 
L 341.264569 -184.05225 
L 339.686531 -184.05225 
L 338.073029 -184.05225 
L 336.422432 -184.05225 
L 334.732994 -184.05225 
L 333.002842 -184.05225 
L 331.229967 -184.05225 
L 329.412203 -170.61225 
L 327.54722 -170.94825 
L 325.632498 -184.05225 
L 323.665312 -184.05225 
L 321.642704 -184.05225 
L 319.561462 -184.05225 
L 317.418085 -184.05225 
L 315.208747 -170.61225 
L 312.92926 -170.61225 
L 310.575022 -170.61225 
L 308.140965 -170.61225 
L 305.621484 -163.89225 
L 303.010367 -170.61225 
L 300.300694 -163.89225 
L 297.484732 -163.89225 
L 294.553802 -157.17225 
L 291.498115 -157.34025 
L 288.306575 -157.17225 
L 284.96654 -157.17225 
L 281.463513 -157.17225 
L 277.780766 -157.17225 
L 273.898858 -157.17225 
L 269.795008 -143.73225 
L 265.442293 -116.85225 
L 260.808568 -116.85225 
L 255.855031 -137.01225 
L 250.53424 -137.01225 
L 244.787348 -137.01225 
L 238.540121 -116.85225 
L 231.697059 -116.85225 
L 224.132404 -116.85225 
L 215.675839 -116.85225 
L 206.088577 -103.41225 
L 195.020894 -103.41225 
L 181.930605 -96.69225 
L 165.909385 -89.97225 
L 145.254441 -76.53225 
L 116.142931 -63.09225 
L 66.376477 -49.65225 
z
" id="mdfd42bb18e" style="stroke:#98df8a;stroke-opacity:0.2;"/>
    </defs>
    <g clip-path="url(#pe569b94856)">
     <use style="fill:#98df8a;fill-opacity:0.2;stroke:#98df8a;stroke-opacity:0.2;" x="0" xlink:href="#mdfd42bb18e" y="325.986375"/>
    </g>
   </g>
   <g id="PolyCollection_3">
    <defs>
     <path d="M 66.376477 -49.65225 
L 66.376477 -49.65225 
L 116.142931 -49.65225 
L 145.254441 -49.65225 
L 165.909385 -49.65225 
L 181.930605 -56.37225 
L 195.020894 -63.09225 
L 206.088577 -63.09225 
L 215.675839 -63.09225 
L 224.132404 -63.09225 
L 231.697059 -63.09225 
L 238.540121 -76.53225 
L 244.787348 -76.53225 
L 250.53424 -89.97225 
L 255.855031 -83.25225 
L 260.808568 -89.97225 
L 265.442293 -89.97225 
L 269.795008 -89.97225 
L 273.898858 -89.97225 
L 277.780766 -89.97225 
L 281.463513 -89.97225 
L 284.96654 -89.97225 
L 288.306575 -89.97225 
L 291.498115 -96.69225 
L 294.553802 -103.41225 
L 297.484732 -103.41225 
L 300.300694 -103.41225 
L 303.010367 -110.13225 
L 305.621484 -110.13225 
L 308.140965 -109.96425 
L 310.575022 -116.85225 
L 312.92926 -116.85225 
L 315.208747 -130.29225 
L 317.418085 -130.29225 
L 319.561462 -130.29225 
L 321.642704 -116.85225 
L 323.665312 -123.57225 
L 325.632498 -116.85225 
L 327.54722 -130.29225 
L 329.412203 -116.85225 
L 331.229967 -130.29225 
L 333.002842 -130.29225 
L 334.732994 -130.29225 
L 336.422432 -130.29225 
L 338.073029 -130.29225 
L 339.686531 -130.29225 
L 341.264569 -130.29225 
L 342.808667 -130.29225 
L 344.320256 -143.73225 
L 345.800676 -143.73225 
L 347.251186 -143.73225 
L 348.672972 -143.73225 
L 350.067148 -143.73225 
L 351.434767 -143.73225 
L 352.776821 -143.73225 
L 354.094249 -157.17225 
L 355.387938 -143.73225 
L 356.658729 -157.17225 
L 357.907419 -157.17225 
L 359.134761 -157.17225 
L 360.341476 -157.17225 
L 361.528244 -157.17225 
L 362.695714 -157.17225 
L 363.844503 -157.17225 
L 364.975201 -157.17225 
L 366.088368 -163.89225 
L 367.184539 -170.61225 
L 368.264225 -170.61225 
L 369.327916 -170.61225 
L 370.376078 -170.61225 
L 371.409158 -170.61225 
L 372.427584 -170.61225 
L 373.431766 -170.61225 
L 374.422096 -170.61225 
L 375.398952 -170.61225 
L 376.362696 -170.61225 
L 377.313674 -170.61225 
L 378.252221 -170.61225 
L 379.178657 -170.61225 
L 380.093291 -170.61225 
L 380.99642 -177.33225 
L 381.88833 -170.61225 
L 382.769296 -177.16425 
L 383.639583 -177.33225 
L 384.499448 -170.61225 
L 385.349136 -177.33225 
L 386.188886 -170.61225 
L 387.018928 -177.33225 
L 387.839483 -177.33225 
L 388.650767 -184.05225 
L 389.452985 -184.05225 
L 390.246339 -184.05225 
L 391.031023 -184.05225 
L 391.031023 -224.37225 
L 391.031023 -224.37225 
L 390.246339 -224.37225 
L 389.452985 -224.37225 
L 388.650767 -224.37225 
L 387.839483 -224.37225 
L 387.018928 -224.37225 
L 386.188886 -224.37225 
L 385.349136 -224.37225 
L 384.499448 -224.37225 
L 383.639583 -224.37225 
L 382.769296 -217.65225 
L 381.88833 -210.93225 
L 380.99642 -210.93225 
L 380.093291 -210.93225 
L 379.178657 -210.93225 
L 378.252221 -210.93225 
L 377.313674 -210.93225 
L 376.362696 -204.21225 
L 375.398952 -204.21225 
L 374.422096 -210.93225 
L 373.431766 -210.93225 
L 372.427584 -204.38025 
L 371.409158 -210.93225 
L 370.376078 -210.93225 
L 369.327916 -210.93225 
L 368.264225 -210.93225 
L 367.184539 -210.93225 
L 366.088368 -204.21225 
L 364.975201 -210.93225 
L 363.844503 -210.93225 
L 362.695714 -197.49225 
L 361.528244 -197.49225 
L 360.341476 -197.49225 
L 359.134761 -197.49225 
L 357.907419 -197.49225 
L 356.658729 -210.93225 
L 355.387938 -197.49225 
L 354.094249 -197.49225 
L 352.776821 -190.77225 
L 351.434767 -190.77225 
L 350.067148 -190.94025 
L 348.672972 -184.05225 
L 347.251186 -184.05225 
L 345.800676 -184.05225 
L 344.320256 -177.33225 
L 342.808667 -177.33225 
L 341.264569 -184.05225 
L 339.686531 -184.05225 
L 338.073029 -177.33225 
L 336.422432 -177.33225 
L 334.732994 -184.05225 
L 333.002842 -170.61225 
L 331.229967 -170.61225 
L 329.412203 -170.61225 
L 327.54722 -170.61225 
L 325.632498 -170.61225 
L 323.665312 -163.89225 
L 321.642704 -157.17225 
L 319.561462 -157.17225 
L 317.418085 -157.17225 
L 315.208747 -157.17225 
L 312.92926 -157.17225 
L 310.575022 -157.17225 
L 308.140965 -157.17225 
L 305.621484 -157.17225 
L 303.010367 -157.17225 
L 300.300694 -143.73225 
L 297.484732 -143.73225 
L 294.553802 -143.73225 
L 291.498115 -143.73225 
L 288.306575 -143.73225 
L 284.96654 -137.01225 
L 281.463513 -130.29225 
L 277.780766 -123.57225 
L 273.898858 -116.85225 
L 269.795008 -110.13225 
L 265.442293 -103.41225 
L 260.808568 -103.41225 
L 255.855031 -103.41225 
L 250.53424 -103.41225 
L 244.787348 -103.41225 
L 238.540121 -103.41225 
L 231.697059 -103.41225 
L 224.132404 -96.69225 
L 215.675839 -103.41225 
L 206.088577 -89.97225 
L 195.020894 -76.86825 
L 181.930605 -83.25225 
L 165.909385 -69.81225 
L 145.254441 -63.09225 
L 116.142931 -49.65225 
L 66.376477 -49.65225 
z
" id="m24e4ec4670" style="stroke:#d62728;stroke-opacity:0.2;"/>
    </defs>
    <g clip-path="url(#pe569b94856)">
     <use style="fill:#d62728;fill-opacity:0.2;stroke:#d62728;stroke-opacity:0.2;" x="0" xlink:href="#m24e4ec4670" y="325.986375"/>
    </g>
   </g>
   <g id="matplotlib.axis_1">
    <g id="xtick_1">
     <g id="line2d_1">
      <defs>
       <path d="M 0 0 
L 0 3.5 
" id="mc2b5128791" style="stroke:#000000;stroke-width:0.8;"/>
      </defs>
      <g>
       <use style="stroke:#000000;stroke-width:0.8;" x="66.376477" xlink:href="#mc2b5128791" y="288.430125"/>
      </g>
     </g>
     <g id="text_1">
      <!-- 14m -->
      <g transform="translate(55.143665 303.028562)scale(0.1 -0.1)">
       <defs>
        <path d="M 794 531 
L 1825 531 
L 1825 4091 
L 703 3866 
L 703 4441 
L 1819 4666 
L 2450 4666 
L 2450 531 
L 3481 531 
L 3481 0 
L 794 0 
L 794 531 
z
" id="DejaVuSans-31" transform="scale(0.015625)"/>
        <path d="M 2419 4116 
L 825 1625 
L 2419 1625 
L 2419 4116 
z
M 2253 4666 
L 3047 4666 
L 3047 1625 
L 3713 1625 
L 3713 1100 
L 3047 1100 
L 3047 0 
L 2419 0 
L 2419 1100 
L 313 1100 
L 313 1709 
L 2253 4666 
z
" id="DejaVuSans-34" transform="scale(0.015625)"/>
        <path d="M 3328 2828 
Q 3544 3216 3844 3400 
Q 4144 3584 4550 3584 
Q 5097 3584 5394 3201 
Q 5691 2819 5691 2113 
L 5691 0 
L 5113 0 
L 5113 2094 
Q 5113 2597 4934 2840 
Q 4756 3084 4391 3084 
Q 3944 3084 3684 2787 
Q 3425 2491 3425 1978 
L 3425 0 
L 2847 0 
L 2847 2094 
Q 2847 2600 2669 2842 
Q 2491 3084 2119 3084 
Q 1678 3084 1418 2786 
Q 1159 2488 1159 1978 
L 1159 0 
L 581 0 
L 581 3500 
L 1159 3500 
L 1159 2956 
Q 1356 3278 1631 3431 
Q 1906 3584 2284 3584 
Q 2666 3584 2933 3390 
Q 3200 3197 3328 2828 
z
" id="DejaVuSans-6d" transform="scale(0.015625)"/>
       </defs>
       <use xlink:href="#DejaVuSans-31"/>
       <use x="63.623047" xlink:href="#DejaVuSans-34"/>
       <use x="127.246094" xlink:href="#DejaVuSans-6d"/>
      </g>
     </g>
    </g>
    <g id="xtick_2">
     <g id="line2d_2">
      <g>
       <use style="stroke:#000000;stroke-width:0.8;" x="131.30756" xlink:href="#mc2b5128791" y="288.430125"/>
      </g>
     </g>
     <g id="text_2">
      <!-- 37m -->
      <g transform="translate(120.074747 303.028562)scale(0.1 -0.1)">
       <defs>
        <path d="M 2597 2516 
Q 3050 2419 3304 2112 
Q 3559 1806 3559 1356 
Q 3559 666 3084 287 
Q 2609 -91 1734 -91 
Q 1441 -91 1130 -33 
Q 819 25 488 141 
L 488 750 
Q 750 597 1062 519 
Q 1375 441 1716 441 
Q 2309 441 2620 675 
Q 2931 909 2931 1356 
Q 2931 1769 2642 2001 
Q 2353 2234 1838 2234 
L 1294 2234 
L 1294 2753 
L 1863 2753 
Q 2328 2753 2575 2939 
Q 2822 3125 2822 3475 
Q 2822 3834 2567 4026 
Q 2313 4219 1838 4219 
Q 1578 4219 1281 4162 
Q 984 4106 628 3988 
L 628 4550 
Q 988 4650 1302 4700 
Q 1616 4750 1894 4750 
Q 2613 4750 3031 4423 
Q 3450 4097 3450 3541 
Q 3450 3153 3228 2886 
Q 3006 2619 2597 2516 
z
" id="DejaVuSans-33" transform="scale(0.015625)"/>
        <path d="M 525 4666 
L 3525 4666 
L 3525 4397 
L 1831 0 
L 1172 0 
L 2766 4134 
L 525 4134 
L 525 4666 
z
" id="DejaVuSans-37" transform="scale(0.015625)"/>
       </defs>
       <use xlink:href="#DejaVuSans-33"/>
       <use x="63.623047" xlink:href="#DejaVuSans-37"/>
       <use x="127.246094" xlink:href="#DejaVuSans-6d"/>
      </g>
     </g>
    </g>
    <g id="xtick_3">
     <g id="line2d_3">
      <g>
       <use style="stroke:#000000;stroke-width:0.8;" x="196.238642" xlink:href="#mc2b5128791" y="288.430125"/>
      </g>
     </g>
     <g id="text_3">
      <!-- 1h:31m -->
      <g transform="translate(176.971455 303.028562)scale(0.1 -0.1)">
       <defs>
        <path d="M 3513 2113 
L 3513 0 
L 2938 0 
L 2938 2094 
Q 2938 2591 2744 2837 
Q 2550 3084 2163 3084 
Q 1697 3084 1428 2787 
Q 1159 2491 1159 1978 
L 1159 0 
L 581 0 
L 581 4863 
L 1159 4863 
L 1159 2956 
Q 1366 3272 1645 3428 
Q 1925 3584 2291 3584 
Q 2894 3584 3203 3211 
Q 3513 2838 3513 2113 
z
" id="DejaVuSans-68" transform="scale(0.015625)"/>
        <path d="M 750 794 
L 1409 794 
L 1409 0 
L 750 0 
L 750 794 
z
M 750 3309 
L 1409 3309 
L 1409 2516 
L 750 2516 
L 750 3309 
z
" id="DejaVuSans-3a" transform="scale(0.015625)"/>
       </defs>
       <use xlink:href="#DejaVuSans-31"/>
       <use x="63.623047" xlink:href="#DejaVuSans-68"/>
       <use x="127.001953" xlink:href="#DejaVuSans-3a"/>
       <use x="160.693359" xlink:href="#DejaVuSans-33"/>
       <use x="224.316406" xlink:href="#DejaVuSans-31"/>
       <use x="287.939453" xlink:href="#DejaVuSans-6d"/>
      </g>
     </g>
    </g>
    <g id="xtick_4">
     <g id="line2d_4">
      <g>
       <use style="stroke:#000000;stroke-width:0.8;" x="261.169725" xlink:href="#mc2b5128791" y="288.430125"/>
      </g>
     </g>
     <g id="text_4">
      <!-- 3h:46m -->
      <g transform="translate(241.902537 303.028562)scale(0.1 -0.1)">
       <defs>
        <path d="M 2113 2584 
Q 1688 2584 1439 2293 
Q 1191 2003 1191 1497 
Q 1191 994 1439 701 
Q 1688 409 2113 409 
Q 2538 409 2786 701 
Q 3034 994 3034 1497 
Q 3034 2003 2786 2293 
Q 2538 2584 2113 2584 
z
M 3366 4563 
L 3366 3988 
Q 3128 4100 2886 4159 
Q 2644 4219 2406 4219 
Q 1781 4219 1451 3797 
Q 1122 3375 1075 2522 
Q 1259 2794 1537 2939 
Q 1816 3084 2150 3084 
Q 2853 3084 3261 2657 
Q 3669 2231 3669 1497 
Q 3669 778 3244 343 
Q 2819 -91 2113 -91 
Q 1303 -91 875 529 
Q 447 1150 447 2328 
Q 447 3434 972 4092 
Q 1497 4750 2381 4750 
Q 2619 4750 2861 4703 
Q 3103 4656 3366 4563 
z
" id="DejaVuSans-36" transform="scale(0.015625)"/>
       </defs>
       <use xlink:href="#DejaVuSans-33"/>
       <use x="63.623047" xlink:href="#DejaVuSans-68"/>
       <use x="127.001953" xlink:href="#DejaVuSans-3a"/>
       <use x="160.693359" xlink:href="#DejaVuSans-34"/>
       <use x="224.316406" xlink:href="#DejaVuSans-36"/>
       <use x="287.939453" xlink:href="#DejaVuSans-6d"/>
      </g>
     </g>
    </g>
    <g id="xtick_5">
     <g id="line2d_5">
      <g>
       <use style="stroke:#000000;stroke-width:0.8;" x="326.100807" xlink:href="#mc2b5128791" y="288.430125"/>
      </g>
     </g>
     <g id="text_5">
      <!-- 9h:18m -->
      <g transform="translate(306.83362 303.028562)scale(0.1 -0.1)">
       <defs>
        <path d="M 703 97 
L 703 672 
Q 941 559 1184 500 
Q 1428 441 1663 441 
Q 2288 441 2617 861 
Q 2947 1281 2994 2138 
Q 2813 1869 2534 1725 
Q 2256 1581 1919 1581 
Q 1219 1581 811 2004 
Q 403 2428 403 3163 
Q 403 3881 828 4315 
Q 1253 4750 1959 4750 
Q 2769 4750 3195 4129 
Q 3622 3509 3622 2328 
Q 3622 1225 3098 567 
Q 2575 -91 1691 -91 
Q 1453 -91 1209 -44 
Q 966 3 703 97 
z
M 1959 2075 
Q 2384 2075 2632 2365 
Q 2881 2656 2881 3163 
Q 2881 3666 2632 3958 
Q 2384 4250 1959 4250 
Q 1534 4250 1286 3958 
Q 1038 3666 1038 3163 
Q 1038 2656 1286 2365 
Q 1534 2075 1959 2075 
z
" id="DejaVuSans-39" transform="scale(0.015625)"/>
        <path d="M 2034 2216 
Q 1584 2216 1326 1975 
Q 1069 1734 1069 1313 
Q 1069 891 1326 650 
Q 1584 409 2034 409 
Q 2484 409 2743 651 
Q 3003 894 3003 1313 
Q 3003 1734 2745 1975 
Q 2488 2216 2034 2216 
z
M 1403 2484 
Q 997 2584 770 2862 
Q 544 3141 544 3541 
Q 544 4100 942 4425 
Q 1341 4750 2034 4750 
Q 2731 4750 3128 4425 
Q 3525 4100 3525 3541 
Q 3525 3141 3298 2862 
Q 3072 2584 2669 2484 
Q 3125 2378 3379 2068 
Q 3634 1759 3634 1313 
Q 3634 634 3220 271 
Q 2806 -91 2034 -91 
Q 1263 -91 848 271 
Q 434 634 434 1313 
Q 434 1759 690 2068 
Q 947 2378 1403 2484 
z
M 1172 3481 
Q 1172 3119 1398 2916 
Q 1625 2713 2034 2713 
Q 2441 2713 2670 2916 
Q 2900 3119 2900 3481 
Q 2900 3844 2670 4047 
Q 2441 4250 2034 4250 
Q 1625 4250 1398 4047 
Q 1172 3844 1172 3481 
z
" id="DejaVuSans-38" transform="scale(0.015625)"/>
       </defs>
       <use xlink:href="#DejaVuSans-39"/>
       <use x="63.623047" xlink:href="#DejaVuSans-68"/>
       <use x="127.001953" xlink:href="#DejaVuSans-3a"/>
       <use x="160.693359" xlink:href="#DejaVuSans-31"/>
       <use x="224.316406" xlink:href="#DejaVuSans-38"/>
       <use x="287.939453" xlink:href="#DejaVuSans-6d"/>
      </g>
     </g>
    </g>
    <g id="xtick_6">
     <g id="line2d_6">
      <g>
       <use style="stroke:#000000;stroke-width:0.8;" x="391.03189" xlink:href="#mc2b5128791" y="288.430125"/>
      </g>
     </g>
     <g id="text_6">
      <!-- 23h -->
      <g transform="translate(381.50064 303.028562)scale(0.1 -0.1)">
       <defs>
        <path d="M 1228 531 
L 3431 531 
L 3431 0 
L 469 0 
L 469 531 
Q 828 903 1448 1529 
Q 2069 2156 2228 2338 
Q 2531 2678 2651 2914 
Q 2772 3150 2772 3378 
Q 2772 3750 2511 3984 
Q 2250 4219 1831 4219 
Q 1534 4219 1204 4116 
Q 875 4013 500 3803 
L 500 4441 
Q 881 4594 1212 4672 
Q 1544 4750 1819 4750 
Q 2544 4750 2975 4387 
Q 3406 4025 3406 3419 
Q 3406 3131 3298 2873 
Q 3191 2616 2906 2266 
Q 2828 2175 2409 1742 
Q 1991 1309 1228 531 
z
" id="DejaVuSans-32" transform="scale(0.015625)"/>
       </defs>
       <use xlink:href="#DejaVuSans-32"/>
       <use x="63.623047" xlink:href="#DejaVuSans-33"/>
       <use x="127.246094" xlink:href="#DejaVuSans-68"/>
      </g>
     </g>
    </g>
    <g id="xtick_7">
     <g id="line2d_7">
      <defs>
       <path d="M 0 0 
L 0 2 
" id="ma9506b033f" style="stroke:#000000;stroke-width:0.6;"/>
      </defs>
      <g>
       <use style="stroke:#000000;stroke-width:0.6;" x="57.919913" xlink:href="#ma9506b033f" y="288.430125"/>
      </g>
     </g>
    </g>
    <g id="xtick_8">
     <g id="line2d_8">
      <g>
       <use style="stroke:#000000;stroke-width:0.6;" x="123.707586" xlink:href="#ma9506b033f" y="288.430125"/>
      </g>
     </g>
    </g>
    <g id="xtick_9">
     <g id="line2d_9">
      <g>
       <use style="stroke:#000000;stroke-width:0.6;" x="152.819095" xlink:href="#ma9506b033f" y="288.430125"/>
      </g>
     </g>
    </g>
    <g id="xtick_10">
     <g id="line2d_10">
      <g>
       <use style="stroke:#000000;stroke-width:0.6;" x="173.47404" xlink:href="#ma9506b033f" y="288.430125"/>
      </g>
     </g>
    </g>
    <g id="xtick_11">
     <g id="line2d_11">
      <g>
       <use style="stroke:#000000;stroke-width:0.6;" x="189.49526" xlink:href="#ma9506b033f" y="288.430125"/>
      </g>
     </g>
    </g>
    <g id="xtick_12">
     <g id="line2d_12">
      <g>
       <use style="stroke:#000000;stroke-width:0.6;" x="202.585549" xlink:href="#ma9506b033f" y="288.430125"/>
      </g>
     </g>
    </g>
    <g id="xtick_13">
     <g id="line2d_13">
      <g>
       <use style="stroke:#000000;stroke-width:0.6;" x="213.653232" xlink:href="#ma9506b033f" y="288.430125"/>
      </g>
     </g>
    </g>
    <g id="xtick_14">
     <g id="line2d_14">
      <g>
       <use style="stroke:#000000;stroke-width:0.6;" x="223.240494" xlink:href="#ma9506b033f" y="288.430125"/>
      </g>
     </g>
    </g>
    <g id="xtick_15">
     <g id="line2d_15">
      <g>
       <use style="stroke:#000000;stroke-width:0.6;" x="231.697059" xlink:href="#ma9506b033f" y="288.430125"/>
      </g>
     </g>
    </g>
    <g id="xtick_16">
     <g id="line2d_16">
      <g>
       <use style="stroke:#000000;stroke-width:0.6;" x="289.028168" xlink:href="#ma9506b033f" y="288.430125"/>
      </g>
     </g>
    </g>
    <g id="xtick_17">
     <g id="line2d_17">
      <g>
       <use style="stroke:#000000;stroke-width:0.6;" x="318.139677" xlink:href="#ma9506b033f" y="288.430125"/>
      </g>
     </g>
    </g>
    <g id="xtick_18">
     <g id="line2d_18">
      <g>
       <use style="stroke:#000000;stroke-width:0.6;" x="338.794621" xlink:href="#ma9506b033f" y="288.430125"/>
      </g>
     </g>
    </g>
    <g id="xtick_19">
     <g id="line2d_19">
      <g>
       <use style="stroke:#000000;stroke-width:0.6;" x="354.815841" xlink:href="#ma9506b033f" y="288.430125"/>
      </g>
     </g>
    </g>
    <g id="xtick_20">
     <g id="line2d_20">
      <g>
       <use style="stroke:#000000;stroke-width:0.6;" x="367.906131" xlink:href="#ma9506b033f" y="288.430125"/>
      </g>
     </g>
    </g>
    <g id="xtick_21">
     <g id="line2d_21">
      <g>
       <use style="stroke:#000000;stroke-width:0.6;" x="378.973813" xlink:href="#ma9506b033f" y="288.430125"/>
      </g>
     </g>
    </g>
    <g id="xtick_22">
     <g id="line2d_22">
      <g>
       <use style="stroke:#000000;stroke-width:0.6;" x="388.561075" xlink:href="#ma9506b033f" y="288.430125"/>
      </g>
     </g>
    </g>
    <g id="xtick_23">
     <g id="line2d_23">
      <g>
       <use style="stroke:#000000;stroke-width:0.6;" x="397.01764" xlink:href="#ma9506b033f" y="288.430125"/>
      </g>
     </g>
    </g>
    <g id="text_7">
     <!-- Time (hour:minute) -->
     <g transform="translate(180.296719 316.706687)scale(0.1 -0.1)">
      <defs>
       <path d="M -19 4666 
L 3928 4666 
L 3928 4134 
L 2272 4134 
L 2272 0 
L 1638 0 
L 1638 4134 
L -19 4134 
L -19 4666 
z
" id="DejaVuSans-54" transform="scale(0.015625)"/>
       <path d="M 603 3500 
L 1178 3500 
L 1178 0 
L 603 0 
L 603 3500 
z
M 603 4863 
L 1178 4863 
L 1178 4134 
L 603 4134 
L 603 4863 
z
" id="DejaVuSans-69" transform="scale(0.015625)"/>
       <path d="M 3597 1894 
L 3597 1613 
L 953 1613 
Q 991 1019 1311 708 
Q 1631 397 2203 397 
Q 2534 397 2845 478 
Q 3156 559 3463 722 
L 3463 178 
Q 3153 47 2828 -22 
Q 2503 -91 2169 -91 
Q 1331 -91 842 396 
Q 353 884 353 1716 
Q 353 2575 817 3079 
Q 1281 3584 2069 3584 
Q 2775 3584 3186 3129 
Q 3597 2675 3597 1894 
z
M 3022 2063 
Q 3016 2534 2758 2815 
Q 2500 3097 2075 3097 
Q 1594 3097 1305 2825 
Q 1016 2553 972 2059 
L 3022 2063 
z
" id="DejaVuSans-65" transform="scale(0.015625)"/>
       <path id="DejaVuSans-20" transform="scale(0.015625)"/>
       <path d="M 1984 4856 
Q 1566 4138 1362 3434 
Q 1159 2731 1159 2009 
Q 1159 1288 1364 580 
Q 1569 -128 1984 -844 
L 1484 -844 
Q 1016 -109 783 600 
Q 550 1309 550 2009 
Q 550 2706 781 3412 
Q 1013 4119 1484 4856 
L 1984 4856 
z
" id="DejaVuSans-28" transform="scale(0.015625)"/>
       <path d="M 1959 3097 
Q 1497 3097 1228 2736 
Q 959 2375 959 1747 
Q 959 1119 1226 758 
Q 1494 397 1959 397 
Q 2419 397 2687 759 
Q 2956 1122 2956 1747 
Q 2956 2369 2687 2733 
Q 2419 3097 1959 3097 
z
M 1959 3584 
Q 2709 3584 3137 3096 
Q 3566 2609 3566 1747 
Q 3566 888 3137 398 
Q 2709 -91 1959 -91 
Q 1206 -91 779 398 
Q 353 888 353 1747 
Q 353 2609 779 3096 
Q 1206 3584 1959 3584 
z
" id="DejaVuSans-6f" transform="scale(0.015625)"/>
       <path d="M 544 1381 
L 544 3500 
L 1119 3500 
L 1119 1403 
Q 1119 906 1312 657 
Q 1506 409 1894 409 
Q 2359 409 2629 706 
Q 2900 1003 2900 1516 
L 2900 3500 
L 3475 3500 
L 3475 0 
L 2900 0 
L 2900 538 
Q 2691 219 2414 64 
Q 2138 -91 1772 -91 
Q 1169 -91 856 284 
Q 544 659 544 1381 
z
M 1991 3584 
L 1991 3584 
z
" id="DejaVuSans-75" transform="scale(0.015625)"/>
       <path d="M 2631 2963 
Q 2534 3019 2420 3045 
Q 2306 3072 2169 3072 
Q 1681 3072 1420 2755 
Q 1159 2438 1159 1844 
L 1159 0 
L 581 0 
L 581 3500 
L 1159 3500 
L 1159 2956 
Q 1341 3275 1631 3429 
Q 1922 3584 2338 3584 
Q 2397 3584 2469 3576 
Q 2541 3569 2628 3553 
L 2631 2963 
z
" id="DejaVuSans-72" transform="scale(0.015625)"/>
       <path d="M 3513 2113 
L 3513 0 
L 2938 0 
L 2938 2094 
Q 2938 2591 2744 2837 
Q 2550 3084 2163 3084 
Q 1697 3084 1428 2787 
Q 1159 2491 1159 1978 
L 1159 0 
L 581 0 
L 581 3500 
L 1159 3500 
L 1159 2956 
Q 1366 3272 1645 3428 
Q 1925 3584 2291 3584 
Q 2894 3584 3203 3211 
Q 3513 2838 3513 2113 
z
" id="DejaVuSans-6e" transform="scale(0.015625)"/>
       <path d="M 1172 4494 
L 1172 3500 
L 2356 3500 
L 2356 3053 
L 1172 3053 
L 1172 1153 
Q 1172 725 1289 603 
Q 1406 481 1766 481 
L 2356 481 
L 2356 0 
L 1766 0 
Q 1100 0 847 248 
Q 594 497 594 1153 
L 594 3053 
L 172 3053 
L 172 3500 
L 594 3500 
L 594 4494 
L 1172 4494 
z
" id="DejaVuSans-74" transform="scale(0.015625)"/>
       <path d="M 513 4856 
L 1013 4856 
Q 1481 4119 1714 3412 
Q 1947 2706 1947 2009 
Q 1947 1309 1714 600 
Q 1481 -109 1013 -844 
L 513 -844 
Q 928 -128 1133 580 
Q 1338 1288 1338 2009 
Q 1338 2731 1133 3434 
Q 928 4138 513 4856 
z
" id="DejaVuSans-29" transform="scale(0.015625)"/>
      </defs>
      <use xlink:href="#DejaVuSans-54"/>
      <use x="57.958984" xlink:href="#DejaVuSans-69"/>
      <use x="85.742188" xlink:href="#DejaVuSans-6d"/>
      <use x="183.154297" xlink:href="#DejaVuSans-65"/>
      <use x="244.677734" xlink:href="#DejaVuSans-20"/>
      <use x="276.464844" xlink:href="#DejaVuSans-28"/>
      <use x="315.478516" xlink:href="#DejaVuSans-68"/>
      <use x="378.857422" xlink:href="#DejaVuSans-6f"/>
      <use x="440.039062" xlink:href="#DejaVuSans-75"/>
      <use x="503.417969" xlink:href="#DejaVuSans-72"/>
      <use x="542.78125" xlink:href="#DejaVuSans-3a"/>
      <use x="576.472656" xlink:href="#DejaVuSans-6d"/>
      <use x="673.884766" xlink:href="#DejaVuSans-69"/>
      <use x="701.667969" xlink:href="#DejaVuSans-6e"/>
      <use x="765.046875" xlink:href="#DejaVuSans-75"/>
      <use x="828.425781" xlink:href="#DejaVuSans-74"/>
      <use x="867.634766" xlink:href="#DejaVuSans-65"/>
      <use x="929.158203" xlink:href="#DejaVuSans-29"/>
     </g>
    </g>
   </g>
   <g id="matplotlib.axis_2">
    <g id="ytick_1">
     <g id="line2d_24">
      <defs>
       <path d="M 0 0 
L -3.5 0 
" id="mb90f928f3e" style="stroke:#000000;stroke-width:0.8;"/>
      </defs>
      <g>
       <use style="stroke:#000000;stroke-width:0.8;" x="50.14375" xlink:href="#mb90f928f3e" y="256.174125"/>
      </g>
     </g>
     <g id="text_8">
      <!-- 2.5 -->
      <g transform="translate(27.240625 259.973344)scale(0.1 -0.1)">
       <defs>
        <path d="M 684 794 
L 1344 794 
L 1344 0 
L 684 0 
L 684 794 
z
" id="DejaVuSans-2e" transform="scale(0.015625)"/>
        <path d="M 691 4666 
L 3169 4666 
L 3169 4134 
L 1269 4134 
L 1269 2991 
Q 1406 3038 1543 3061 
Q 1681 3084 1819 3084 
Q 2600 3084 3056 2656 
Q 3513 2228 3513 1497 
Q 3513 744 3044 326 
Q 2575 -91 1722 -91 
Q 1428 -91 1123 -41 
Q 819 9 494 109 
L 494 744 
Q 775 591 1075 516 
Q 1375 441 1709 441 
Q 2250 441 2565 725 
Q 2881 1009 2881 1497 
Q 2881 1984 2565 2268 
Q 2250 2553 1709 2553 
Q 1456 2553 1204 2497 
Q 953 2441 691 2322 
L 691 4666 
z
" id="DejaVuSans-35" transform="scale(0.015625)"/>
       </defs>
       <use xlink:href="#DejaVuSans-32"/>
       <use x="63.623047" xlink:href="#DejaVuSans-2e"/>
       <use x="95.410156" xlink:href="#DejaVuSans-35"/>
      </g>
     </g>
    </g>
    <g id="ytick_2">
     <g id="line2d_25">
      <g>
       <use style="stroke:#000000;stroke-width:0.8;" x="50.14375" xlink:href="#mb90f928f3e" y="222.574125"/>
      </g>
     </g>
     <g id="text_9">
      <!-- 5.0 -->
      <g transform="translate(27.240625 226.373344)scale(0.1 -0.1)">
       <defs>
        <path d="M 2034 4250 
Q 1547 4250 1301 3770 
Q 1056 3291 1056 2328 
Q 1056 1369 1301 889 
Q 1547 409 2034 409 
Q 2525 409 2770 889 
Q 3016 1369 3016 2328 
Q 3016 3291 2770 3770 
Q 2525 4250 2034 4250 
z
M 2034 4750 
Q 2819 4750 3233 4129 
Q 3647 3509 3647 2328 
Q 3647 1150 3233 529 
Q 2819 -91 2034 -91 
Q 1250 -91 836 529 
Q 422 1150 422 2328 
Q 422 3509 836 4129 
Q 1250 4750 2034 4750 
z
" id="DejaVuSans-30" transform="scale(0.015625)"/>
       </defs>
       <use xlink:href="#DejaVuSans-35"/>
       <use x="63.623047" xlink:href="#DejaVuSans-2e"/>
       <use x="95.410156" xlink:href="#DejaVuSans-30"/>
      </g>
     </g>
    </g>
    <g id="ytick_3">
     <g id="line2d_26">
      <g>
       <use style="stroke:#000000;stroke-width:0.8;" x="50.14375" xlink:href="#mb90f928f3e" y="188.974125"/>
      </g>
     </g>
     <g id="text_10">
      <!-- 7.5 -->
      <g transform="translate(27.240625 192.773344)scale(0.1 -0.1)">
       <use xlink:href="#DejaVuSans-37"/>
       <use x="63.623047" xlink:href="#DejaVuSans-2e"/>
       <use x="95.410156" xlink:href="#DejaVuSans-35"/>
      </g>
     </g>
    </g>
    <g id="ytick_4">
     <g id="line2d_27">
      <g>
       <use style="stroke:#000000;stroke-width:0.8;" x="50.14375" xlink:href="#mb90f928f3e" y="155.374125"/>
      </g>
     </g>
     <g id="text_11">
      <!-- 10.0 -->
      <g transform="translate(20.878125 159.173344)scale(0.1 -0.1)">
       <use xlink:href="#DejaVuSans-31"/>
       <use x="63.623047" xlink:href="#DejaVuSans-30"/>
       <use x="127.246094" xlink:href="#DejaVuSans-2e"/>
       <use x="159.033203" xlink:href="#DejaVuSans-30"/>
      </g>
     </g>
    </g>
    <g id="ytick_5">
     <g id="line2d_28">
      <g>
       <use style="stroke:#000000;stroke-width:0.8;" x="50.14375" xlink:href="#mb90f928f3e" y="121.774125"/>
      </g>
     </g>
     <g id="text_12">
      <!-- 12.5 -->
      <g transform="translate(20.878125 125.573344)scale(0.1 -0.1)">
       <use xlink:href="#DejaVuSans-31"/>
       <use x="63.623047" xlink:href="#DejaVuSans-32"/>
       <use x="127.246094" xlink:href="#DejaVuSans-2e"/>
       <use x="159.033203" xlink:href="#DejaVuSans-35"/>
      </g>
     </g>
    </g>
    <g id="ytick_6">
     <g id="line2d_29">
      <g>
       <use style="stroke:#000000;stroke-width:0.8;" x="50.14375" xlink:href="#mb90f928f3e" y="88.174125"/>
      </g>
     </g>
     <g id="text_13">
      <!-- 15.0 -->
      <g transform="translate(20.878125 91.973344)scale(0.1 -0.1)">
       <use xlink:href="#DejaVuSans-31"/>
       <use x="63.623047" xlink:href="#DejaVuSans-35"/>
       <use x="127.246094" xlink:href="#DejaVuSans-2e"/>
       <use x="159.033203" xlink:href="#DejaVuSans-30"/>
      </g>
     </g>
    </g>
    <g id="ytick_7">
     <g id="line2d_30">
      <g>
       <use style="stroke:#000000;stroke-width:0.8;" x="50.14375" xlink:href="#mb90f928f3e" y="54.574125"/>
      </g>
     </g>
     <g id="text_14">
      <!-- 17.5 -->
      <g transform="translate(20.878125 58.373344)scale(0.1 -0.1)">
       <use xlink:href="#DejaVuSans-31"/>
       <use x="63.623047" xlink:href="#DejaVuSans-37"/>
       <use x="127.246094" xlink:href="#DejaVuSans-2e"/>
       <use x="159.033203" xlink:href="#DejaVuSans-35"/>
      </g>
     </g>
    </g>
    <g id="text_15">
     <!-- Bug coverage -->
     <g transform="translate(14.798438 189.951469)rotate(-90)scale(0.1 -0.1)">
      <defs>
       <path d="M 1259 2228 
L 1259 519 
L 2272 519 
Q 2781 519 3026 730 
Q 3272 941 3272 1375 
Q 3272 1813 3026 2020 
Q 2781 2228 2272 2228 
L 1259 2228 
z
M 1259 4147 
L 1259 2741 
L 2194 2741 
Q 2656 2741 2882 2914 
Q 3109 3088 3109 3444 
Q 3109 3797 2882 3972 
Q 2656 4147 2194 4147 
L 1259 4147 
z
M 628 4666 
L 2241 4666 
Q 2963 4666 3353 4366 
Q 3744 4066 3744 3513 
Q 3744 3084 3544 2831 
Q 3344 2578 2956 2516 
Q 3422 2416 3680 2098 
Q 3938 1781 3938 1306 
Q 3938 681 3513 340 
Q 3088 0 2303 0 
L 628 0 
L 628 4666 
z
" id="DejaVuSans-42" transform="scale(0.015625)"/>
       <path d="M 2906 1791 
Q 2906 2416 2648 2759 
Q 2391 3103 1925 3103 
Q 1463 3103 1205 2759 
Q 947 2416 947 1791 
Q 947 1169 1205 825 
Q 1463 481 1925 481 
Q 2391 481 2648 825 
Q 2906 1169 2906 1791 
z
M 3481 434 
Q 3481 -459 3084 -895 
Q 2688 -1331 1869 -1331 
Q 1566 -1331 1297 -1286 
Q 1028 -1241 775 -1147 
L 775 -588 
Q 1028 -725 1275 -790 
Q 1522 -856 1778 -856 
Q 2344 -856 2625 -561 
Q 2906 -266 2906 331 
L 2906 616 
Q 2728 306 2450 153 
Q 2172 0 1784 0 
Q 1141 0 747 490 
Q 353 981 353 1791 
Q 353 2603 747 3093 
Q 1141 3584 1784 3584 
Q 2172 3584 2450 3431 
Q 2728 3278 2906 2969 
L 2906 3500 
L 3481 3500 
L 3481 434 
z
" id="DejaVuSans-67" transform="scale(0.015625)"/>
       <path d="M 3122 3366 
L 3122 2828 
Q 2878 2963 2633 3030 
Q 2388 3097 2138 3097 
Q 1578 3097 1268 2742 
Q 959 2388 959 1747 
Q 959 1106 1268 751 
Q 1578 397 2138 397 
Q 2388 397 2633 464 
Q 2878 531 3122 666 
L 3122 134 
Q 2881 22 2623 -34 
Q 2366 -91 2075 -91 
Q 1284 -91 818 406 
Q 353 903 353 1747 
Q 353 2603 823 3093 
Q 1294 3584 2113 3584 
Q 2378 3584 2631 3529 
Q 2884 3475 3122 3366 
z
" id="DejaVuSans-63" transform="scale(0.015625)"/>
       <path d="M 191 3500 
L 800 3500 
L 1894 563 
L 2988 3500 
L 3597 3500 
L 2284 0 
L 1503 0 
L 191 3500 
z
" id="DejaVuSans-76" transform="scale(0.015625)"/>
       <path d="M 2194 1759 
Q 1497 1759 1228 1600 
Q 959 1441 959 1056 
Q 959 750 1161 570 
Q 1363 391 1709 391 
Q 2188 391 2477 730 
Q 2766 1069 2766 1631 
L 2766 1759 
L 2194 1759 
z
M 3341 1997 
L 3341 0 
L 2766 0 
L 2766 531 
Q 2569 213 2275 61 
Q 1981 -91 1556 -91 
Q 1019 -91 701 211 
Q 384 513 384 1019 
Q 384 1609 779 1909 
Q 1175 2209 1959 2209 
L 2766 2209 
L 2766 2266 
Q 2766 2663 2505 2880 
Q 2244 3097 1772 3097 
Q 1472 3097 1187 3025 
Q 903 2953 641 2809 
L 641 3341 
Q 956 3463 1253 3523 
Q 1550 3584 1831 3584 
Q 2591 3584 2966 3190 
Q 3341 2797 3341 1997 
z
" id="DejaVuSans-61" transform="scale(0.015625)"/>
      </defs>
      <use xlink:href="#DejaVuSans-42"/>
      <use x="68.603516" xlink:href="#DejaVuSans-75"/>
      <use x="131.982422" xlink:href="#DejaVuSans-67"/>
      <use x="195.458984" xlink:href="#DejaVuSans-20"/>
      <use x="227.246094" xlink:href="#DejaVuSans-63"/>
      <use x="282.226562" xlink:href="#DejaVuSans-6f"/>
      <use x="343.408203" xlink:href="#DejaVuSans-76"/>
      <use x="402.587891" xlink:href="#DejaVuSans-65"/>
      <use x="464.111328" xlink:href="#DejaVuSans-72"/>
      <use x="505.224609" xlink:href="#DejaVuSans-61"/>
      <use x="566.503906" xlink:href="#DejaVuSans-67"/>
      <use x="629.980469" xlink:href="#DejaVuSans-65"/>
     </g>
    </g>
   </g>
   <g id="line2d_31">
    <path clip-path="url(#pe569b94856)" d="M 66.376477 276.334125 
L 116.142931 262.894125 
L 145.254441 262.894125 
L 165.909385 249.454125 
L 181.930605 249.454125 
L 195.020894 249.454125 
L 206.088577 236.014125 
L 215.675839 242.734125 
L 224.132404 236.014125 
L 231.697059 222.574125 
L 238.540121 222.574125 
L 244.787348 229.294125 
L 250.53424 236.014125 
L 255.855031 222.574125 
L 260.808568 229.294125 
L 265.442293 222.574125 
L 269.795008 222.574125 
L 273.898858 209.134125 
L 277.780766 209.134125 
L 281.463513 209.134125 
L 284.96654 209.134125 
L 288.306575 209.134125 
L 291.498115 209.134125 
L 294.553802 202.414125 
L 297.484732 195.694125 
L 300.300694 195.694125 
L 303.010367 195.694125 
L 305.621484 195.694125 
L 308.140965 188.974125 
L 310.575022 188.974125 
L 312.92926 168.814125 
L 315.208747 182.254125 
L 317.418085 182.254125 
L 319.561462 155.374125 
L 321.642704 168.814125 
L 323.665312 162.094125 
L 325.632498 155.374125 
L 327.54722 155.374125 
L 329.412203 155.374125 
L 331.229967 155.374125 
L 333.002842 155.374125 
L 334.732994 155.374125 
L 336.422432 155.374125 
L 338.073029 155.374125 
L 339.686531 155.374125 
L 341.264569 128.494125 
L 342.808667 128.494125 
L 344.320256 121.774125 
L 345.800676 128.494125 
L 347.251186 128.494125 
L 348.672972 115.054125 
L 350.067148 115.054125 
L 351.434767 115.054125 
L 352.776821 115.054125 
L 354.094249 108.334125 
L 355.387938 115.054125 
L 356.658729 108.334125 
L 357.907419 115.054125 
L 359.134761 115.054125 
L 360.341476 115.054125 
L 361.528244 108.334125 
L 362.695714 108.334125 
L 363.844503 108.334125 
L 364.975201 108.334125 
L 366.088368 108.334125 
L 367.184539 108.334125 
L 368.264225 101.614125 
L 369.327916 101.614125 
L 370.376078 108.334125 
L 371.409158 101.614125 
L 372.427584 101.614125 
L 373.431766 101.614125 
L 374.422096 101.614125 
L 375.398952 101.614125 
L 376.362696 101.614125 
L 377.313674 101.614125 
L 378.252221 101.614125 
L 379.178657 101.614125 
L 380.093291 101.614125 
L 380.99642 88.174125 
L 381.88833 94.894125 
L 382.769296 88.174125 
L 383.639583 88.174125 
L 384.499448 94.894125 
L 385.349136 94.894125 
L 386.188886 101.614125 
L 387.018928 94.894125 
L 387.839483 101.614125 
L 388.650767 101.614125 
L 389.452985 101.614125 
L 390.246339 101.614125 
L 391.031023 101.614125 
" style="fill:none;stroke:#1f77b4;stroke-linecap:square;stroke-width:1.5;"/>
    <defs>
     <path d="M 0 3 
C 0.795609 3 1.55874 2.683901 2.12132 2.12132 
C 2.683901 1.55874 3 0.795609 3 0 
C 3 -0.795609 2.683901 -1.55874 2.12132 -2.12132 
C 1.55874 -2.683901 0.795609 -3 0 -3 
C -0.795609 -3 -1.55874 -2.683901 -2.12132 -2.12132 
C -2.683901 -1.55874 -3 -0.795609 -3 0 
C -3 0.795609 -2.683901 1.55874 -2.12132 2.12132 
C -1.55874 2.683901 -0.795609 3 0 3 
z
" id="ma7d35b1847" style="stroke:#ffffff;stroke-width:0.75;"/>
    </defs>
    <g clip-path="url(#pe569b94856)">
     <use style="fill:#1f77b4;stroke:#ffffff;stroke-width:0.75;" x="66.376477" xlink:href="#ma7d35b1847" y="276.334125"/>
     <use style="fill:#1f77b4;stroke:#ffffff;stroke-width:0.75;" x="116.142931" xlink:href="#ma7d35b1847" y="262.894125"/>
     <use style="fill:#1f77b4;stroke:#ffffff;stroke-width:0.75;" x="145.254441" xlink:href="#ma7d35b1847" y="262.894125"/>
     <use style="fill:#1f77b4;stroke:#ffffff;stroke-width:0.75;" x="165.909385" xlink:href="#ma7d35b1847" y="249.454125"/>
     <use style="fill:#1f77b4;stroke:#ffffff;stroke-width:0.75;" x="181.930605" xlink:href="#ma7d35b1847" y="249.454125"/>
     <use style="fill:#1f77b4;stroke:#ffffff;stroke-width:0.75;" x="195.020894" xlink:href="#ma7d35b1847" y="249.454125"/>
     <use style="fill:#1f77b4;stroke:#ffffff;stroke-width:0.75;" x="206.088577" xlink:href="#ma7d35b1847" y="236.014125"/>
     <use style="fill:#1f77b4;stroke:#ffffff;stroke-width:0.75;" x="215.675839" xlink:href="#ma7d35b1847" y="242.734125"/>
     <use style="fill:#1f77b4;stroke:#ffffff;stroke-width:0.75;" x="224.132404" xlink:href="#ma7d35b1847" y="236.014125"/>
     <use style="fill:#1f77b4;stroke:#ffffff;stroke-width:0.75;" x="231.697059" xlink:href="#ma7d35b1847" y="222.574125"/>
     <use style="fill:#1f77b4;stroke:#ffffff;stroke-width:0.75;" x="238.540121" xlink:href="#ma7d35b1847" y="222.574125"/>
     <use style="fill:#1f77b4;stroke:#ffffff;stroke-width:0.75;" x="244.787348" xlink:href="#ma7d35b1847" y="229.294125"/>
     <use style="fill:#1f77b4;stroke:#ffffff;stroke-width:0.75;" x="250.53424" xlink:href="#ma7d35b1847" y="236.014125"/>
     <use style="fill:#1f77b4;stroke:#ffffff;stroke-width:0.75;" x="255.855031" xlink:href="#ma7d35b1847" y="222.574125"/>
     <use style="fill:#1f77b4;stroke:#ffffff;stroke-width:0.75;" x="260.808568" xlink:href="#ma7d35b1847" y="229.294125"/>
     <use style="fill:#1f77b4;stroke:#ffffff;stroke-width:0.75;" x="265.442293" xlink:href="#ma7d35b1847" y="222.574125"/>
     <use style="fill:#1f77b4;stroke:#ffffff;stroke-width:0.75;" x="269.795008" xlink:href="#ma7d35b1847" y="222.574125"/>
     <use style="fill:#1f77b4;stroke:#ffffff;stroke-width:0.75;" x="273.898858" xlink:href="#ma7d35b1847" y="209.134125"/>
     <use style="fill:#1f77b4;stroke:#ffffff;stroke-width:0.75;" x="277.780766" xlink:href="#ma7d35b1847" y="209.134125"/>
     <use style="fill:#1f77b4;stroke:#ffffff;stroke-width:0.75;" x="281.463513" xlink:href="#ma7d35b1847" y="209.134125"/>
     <use style="fill:#1f77b4;stroke:#ffffff;stroke-width:0.75;" x="284.96654" xlink:href="#ma7d35b1847" y="209.134125"/>
     <use style="fill:#1f77b4;stroke:#ffffff;stroke-width:0.75;" x="288.306575" xlink:href="#ma7d35b1847" y="209.134125"/>
     <use style="fill:#1f77b4;stroke:#ffffff;stroke-width:0.75;" x="291.498115" xlink:href="#ma7d35b1847" y="209.134125"/>
     <use style="fill:#1f77b4;stroke:#ffffff;stroke-width:0.75;" x="294.553802" xlink:href="#ma7d35b1847" y="202.414125"/>
     <use style="fill:#1f77b4;stroke:#ffffff;stroke-width:0.75;" x="297.484732" xlink:href="#ma7d35b1847" y="195.694125"/>
     <use style="fill:#1f77b4;stroke:#ffffff;stroke-width:0.75;" x="300.300694" xlink:href="#ma7d35b1847" y="195.694125"/>
     <use style="fill:#1f77b4;stroke:#ffffff;stroke-width:0.75;" x="303.010367" xlink:href="#ma7d35b1847" y="195.694125"/>
     <use style="fill:#1f77b4;stroke:#ffffff;stroke-width:0.75;" x="305.621484" xlink:href="#ma7d35b1847" y="195.694125"/>
     <use style="fill:#1f77b4;stroke:#ffffff;stroke-width:0.75;" x="308.140965" xlink:href="#ma7d35b1847" y="188.974125"/>
     <use style="fill:#1f77b4;stroke:#ffffff;stroke-width:0.75;" x="310.575022" xlink:href="#ma7d35b1847" y="188.974125"/>
     <use style="fill:#1f77b4;stroke:#ffffff;stroke-width:0.75;" x="312.92926" xlink:href="#ma7d35b1847" y="168.814125"/>
     <use style="fill:#1f77b4;stroke:#ffffff;stroke-width:0.75;" x="315.208747" xlink:href="#ma7d35b1847" y="182.254125"/>
     <use style="fill:#1f77b4;stroke:#ffffff;stroke-width:0.75;" x="317.418085" xlink:href="#ma7d35b1847" y="182.254125"/>
     <use style="fill:#1f77b4;stroke:#ffffff;stroke-width:0.75;" x="319.561462" xlink:href="#ma7d35b1847" y="155.374125"/>
     <use style="fill:#1f77b4;stroke:#ffffff;stroke-width:0.75;" x="321.642704" xlink:href="#ma7d35b1847" y="168.814125"/>
     <use style="fill:#1f77b4;stroke:#ffffff;stroke-width:0.75;" x="323.665312" xlink:href="#ma7d35b1847" y="162.094125"/>
     <use style="fill:#1f77b4;stroke:#ffffff;stroke-width:0.75;" x="325.632498" xlink:href="#ma7d35b1847" y="155.374125"/>
     <use style="fill:#1f77b4;stroke:#ffffff;stroke-width:0.75;" x="327.54722" xlink:href="#ma7d35b1847" y="155.374125"/>
     <use style="fill:#1f77b4;stroke:#ffffff;stroke-width:0.75;" x="329.412203" xlink:href="#ma7d35b1847" y="155.374125"/>
     <use style="fill:#1f77b4;stroke:#ffffff;stroke-width:0.75;" x="331.229967" xlink:href="#ma7d35b1847" y="155.374125"/>
     <use style="fill:#1f77b4;stroke:#ffffff;stroke-width:0.75;" x="333.002842" xlink:href="#ma7d35b1847" y="155.374125"/>
     <use style="fill:#1f77b4;stroke:#ffffff;stroke-width:0.75;" x="334.732994" xlink:href="#ma7d35b1847" y="155.374125"/>
     <use style="fill:#1f77b4;stroke:#ffffff;stroke-width:0.75;" x="336.422432" xlink:href="#ma7d35b1847" y="155.374125"/>
     <use style="fill:#1f77b4;stroke:#ffffff;stroke-width:0.75;" x="338.073029" xlink:href="#ma7d35b1847" y="155.374125"/>
     <use style="fill:#1f77b4;stroke:#ffffff;stroke-width:0.75;" x="339.686531" xlink:href="#ma7d35b1847" y="155.374125"/>
     <use style="fill:#1f77b4;stroke:#ffffff;stroke-width:0.75;" x="341.264569" xlink:href="#ma7d35b1847" y="128.494125"/>
     <use style="fill:#1f77b4;stroke:#ffffff;stroke-width:0.75;" x="342.808667" xlink:href="#ma7d35b1847" y="128.494125"/>
     <use style="fill:#1f77b4;stroke:#ffffff;stroke-width:0.75;" x="344.320256" xlink:href="#ma7d35b1847" y="121.774125"/>
     <use style="fill:#1f77b4;stroke:#ffffff;stroke-width:0.75;" x="345.800676" xlink:href="#ma7d35b1847" y="128.494125"/>
     <use style="fill:#1f77b4;stroke:#ffffff;stroke-width:0.75;" x="347.251186" xlink:href="#ma7d35b1847" y="128.494125"/>
     <use style="fill:#1f77b4;stroke:#ffffff;stroke-width:0.75;" x="348.672972" xlink:href="#ma7d35b1847" y="115.054125"/>
     <use style="fill:#1f77b4;stroke:#ffffff;stroke-width:0.75;" x="350.067148" xlink:href="#ma7d35b1847" y="115.054125"/>
     <use style="fill:#1f77b4;stroke:#ffffff;stroke-width:0.75;" x="351.434767" xlink:href="#ma7d35b1847" y="115.054125"/>
     <use style="fill:#1f77b4;stroke:#ffffff;stroke-width:0.75;" x="352.776821" xlink:href="#ma7d35b1847" y="115.054125"/>
     <use style="fill:#1f77b4;stroke:#ffffff;stroke-width:0.75;" x="354.094249" xlink:href="#ma7d35b1847" y="108.334125"/>
     <use style="fill:#1f77b4;stroke:#ffffff;stroke-width:0.75;" x="355.387938" xlink:href="#ma7d35b1847" y="115.054125"/>
     <use style="fill:#1f77b4;stroke:#ffffff;stroke-width:0.75;" x="356.658729" xlink:href="#ma7d35b1847" y="108.334125"/>
     <use style="fill:#1f77b4;stroke:#ffffff;stroke-width:0.75;" x="357.907419" xlink:href="#ma7d35b1847" y="115.054125"/>
     <use style="fill:#1f77b4;stroke:#ffffff;stroke-width:0.75;" x="359.134761" xlink:href="#ma7d35b1847" y="115.054125"/>
     <use style="fill:#1f77b4;stroke:#ffffff;stroke-width:0.75;" x="360.341476" xlink:href="#ma7d35b1847" y="115.054125"/>
     <use style="fill:#1f77b4;stroke:#ffffff;stroke-width:0.75;" x="361.528244" xlink:href="#ma7d35b1847" y="108.334125"/>
     <use style="fill:#1f77b4;stroke:#ffffff;stroke-width:0.75;" x="362.695714" xlink:href="#ma7d35b1847" y="108.334125"/>
     <use style="fill:#1f77b4;stroke:#ffffff;stroke-width:0.75;" x="363.844503" xlink:href="#ma7d35b1847" y="108.334125"/>
     <use style="fill:#1f77b4;stroke:#ffffff;stroke-width:0.75;" x="364.975201" xlink:href="#ma7d35b1847" y="108.334125"/>
     <use style="fill:#1f77b4;stroke:#ffffff;stroke-width:0.75;" x="366.088368" xlink:href="#ma7d35b1847" y="108.334125"/>
     <use style="fill:#1f77b4;stroke:#ffffff;stroke-width:0.75;" x="367.184539" xlink:href="#ma7d35b1847" y="108.334125"/>
     <use style="fill:#1f77b4;stroke:#ffffff;stroke-width:0.75;" x="368.264225" xlink:href="#ma7d35b1847" y="101.614125"/>
     <use style="fill:#1f77b4;stroke:#ffffff;stroke-width:0.75;" x="369.327916" xlink:href="#ma7d35b1847" y="101.614125"/>
     <use style="fill:#1f77b4;stroke:#ffffff;stroke-width:0.75;" x="370.376078" xlink:href="#ma7d35b1847" y="108.334125"/>
     <use style="fill:#1f77b4;stroke:#ffffff;stroke-width:0.75;" x="371.409158" xlink:href="#ma7d35b1847" y="101.614125"/>
     <use style="fill:#1f77b4;stroke:#ffffff;stroke-width:0.75;" x="372.427584" xlink:href="#ma7d35b1847" y="101.614125"/>
     <use style="fill:#1f77b4;stroke:#ffffff;stroke-width:0.75;" x="373.431766" xlink:href="#ma7d35b1847" y="101.614125"/>
     <use style="fill:#1f77b4;stroke:#ffffff;stroke-width:0.75;" x="374.422096" xlink:href="#ma7d35b1847" y="101.614125"/>
     <use style="fill:#1f77b4;stroke:#ffffff;stroke-width:0.75;" x="375.398952" xlink:href="#ma7d35b1847" y="101.614125"/>
     <use style="fill:#1f77b4;stroke:#ffffff;stroke-width:0.75;" x="376.362696" xlink:href="#ma7d35b1847" y="101.614125"/>
     <use style="fill:#1f77b4;stroke:#ffffff;stroke-width:0.75;" x="377.313674" xlink:href="#ma7d35b1847" y="101.614125"/>
     <use style="fill:#1f77b4;stroke:#ffffff;stroke-width:0.75;" x="378.252221" xlink:href="#ma7d35b1847" y="101.614125"/>
     <use style="fill:#1f77b4;stroke:#ffffff;stroke-width:0.75;" x="379.178657" xlink:href="#ma7d35b1847" y="101.614125"/>
     <use style="fill:#1f77b4;stroke:#ffffff;stroke-width:0.75;" x="380.093291" xlink:href="#ma7d35b1847" y="101.614125"/>
     <use style="fill:#1f77b4;stroke:#ffffff;stroke-width:0.75;" x="380.99642" xlink:href="#ma7d35b1847" y="88.174125"/>
     <use style="fill:#1f77b4;stroke:#ffffff;stroke-width:0.75;" x="381.88833" xlink:href="#ma7d35b1847" y="94.894125"/>
     <use style="fill:#1f77b4;stroke:#ffffff;stroke-width:0.75;" x="382.769296" xlink:href="#ma7d35b1847" y="88.174125"/>
     <use style="fill:#1f77b4;stroke:#ffffff;stroke-width:0.75;" x="383.639583" xlink:href="#ma7d35b1847" y="88.174125"/>
     <use style="fill:#1f77b4;stroke:#ffffff;stroke-width:0.75;" x="384.499448" xlink:href="#ma7d35b1847" y="94.894125"/>
     <use style="fill:#1f77b4;stroke:#ffffff;stroke-width:0.75;" x="385.349136" xlink:href="#ma7d35b1847" y="94.894125"/>
     <use style="fill:#1f77b4;stroke:#ffffff;stroke-width:0.75;" x="386.188886" xlink:href="#ma7d35b1847" y="101.614125"/>
     <use style="fill:#1f77b4;stroke:#ffffff;stroke-width:0.75;" x="387.018928" xlink:href="#ma7d35b1847" y="94.894125"/>
     <use style="fill:#1f77b4;stroke:#ffffff;stroke-width:0.75;" x="387.839483" xlink:href="#ma7d35b1847" y="101.614125"/>
     <use style="fill:#1f77b4;stroke:#ffffff;stroke-width:0.75;" x="388.650767" xlink:href="#ma7d35b1847" y="101.614125"/>
     <use style="fill:#1f77b4;stroke:#ffffff;stroke-width:0.75;" x="389.452985" xlink:href="#ma7d35b1847" y="101.614125"/>
     <use style="fill:#1f77b4;stroke:#ffffff;stroke-width:0.75;" x="390.246339" xlink:href="#ma7d35b1847" y="101.614125"/>
     <use style="fill:#1f77b4;stroke:#ffffff;stroke-width:0.75;" x="391.031023" xlink:href="#ma7d35b1847" y="101.614125"/>
    </g>
   </g>
   <g id="line2d_32">
    <path clip-path="url(#pe569b94856)" d="M 66.376477 276.334125 
L 116.142931 262.894125 
L 145.254441 249.454125 
L 165.909385 249.454125 
L 181.930605 249.454125 
L 195.020894 242.734125 
L 206.088577 242.734125 
L 215.675839 236.014125 
L 224.132404 236.014125 
L 231.697059 236.014125 
L 238.540121 236.014125 
L 244.787348 229.294125 
L 250.53424 229.294125 
L 255.855031 229.294125 
L 260.808568 222.574125 
L 265.442293 222.574125 
L 269.795008 222.574125 
L 273.898858 209.134125 
L 277.780766 202.414125 
L 281.463513 209.134125 
L 284.96654 195.694125 
L 288.306575 195.694125 
L 291.498115 195.694125 
L 294.553802 188.974125 
L 297.484732 188.974125 
L 300.300694 188.974125 
L 303.010367 182.254125 
L 305.621484 182.254125 
L 308.140965 182.254125 
L 310.575022 182.254125 
L 312.92926 182.254125 
L 315.208747 182.254125 
L 317.418085 182.254125 
L 319.561462 168.814125 
L 321.642704 168.814125 
L 323.665312 168.814125 
L 325.632498 168.814125 
L 327.54722 168.814125 
L 329.412203 168.814125 
L 331.229967 168.814125 
L 333.002842 155.374125 
L 334.732994 155.374125 
L 336.422432 155.374125 
L 338.073029 155.374125 
L 339.686531 155.374125 
L 341.264569 155.374125 
L 342.808667 155.374125 
L 344.320256 155.374125 
L 345.800676 155.374125 
L 347.251186 155.374125 
L 348.672972 155.374125 
L 350.067148 155.374125 
L 351.434767 155.374125 
L 352.776821 141.934125 
L 354.094249 141.934125 
L 355.387938 141.934125 
L 356.658729 141.934125 
L 357.907419 141.934125 
L 359.134761 141.934125 
L 360.341476 141.934125 
L 361.528244 141.934125 
L 362.695714 141.934125 
L 363.844503 141.934125 
L 364.975201 141.934125 
L 366.088368 141.934125 
L 367.184539 141.934125 
L 368.264225 141.934125 
L 369.327916 141.934125 
L 370.376078 141.934125 
L 371.409158 141.934125 
L 372.427584 141.934125 
L 373.431766 141.934125 
L 374.422096 141.934125 
L 375.398952 141.934125 
L 376.362696 141.934125 
L 377.313674 141.934125 
L 378.252221 141.934125 
L 379.178657 141.934125 
L 380.093291 141.934125 
L 380.99642 141.934125 
L 381.88833 135.214125 
L 382.769296 135.214125 
L 383.639583 135.214125 
L 384.499448 135.214125 
L 385.349136 135.214125 
L 386.188886 135.214125 
L 387.018928 135.214125 
L 387.839483 141.934125 
L 388.650767 135.214125 
L 389.452985 141.934125 
L 390.246339 141.934125 
L 391.031023 128.494125 
" style="fill:none;stroke:#98df8a;stroke-linecap:square;stroke-width:1.5;"/>
    <defs>
     <path d="M -0 3 
L 3 -3 
L -3 -3 
z
" id="m5d4ab97a77" style="stroke:#ffffff;stroke-linejoin:miter;stroke-width:0.75;"/>
    </defs>
    <g clip-path="url(#pe569b94856)">
     <use style="fill:#98df8a;stroke:#ffffff;stroke-linejoin:miter;stroke-width:0.75;" x="66.376477" xlink:href="#m5d4ab97a77" y="276.334125"/>
     <use style="fill:#98df8a;stroke:#ffffff;stroke-linejoin:miter;stroke-width:0.75;" x="116.142931" xlink:href="#m5d4ab97a77" y="262.894125"/>
     <use style="fill:#98df8a;stroke:#ffffff;stroke-linejoin:miter;stroke-width:0.75;" x="145.254441" xlink:href="#m5d4ab97a77" y="249.454125"/>
     <use style="fill:#98df8a;stroke:#ffffff;stroke-linejoin:miter;stroke-width:0.75;" x="165.909385" xlink:href="#m5d4ab97a77" y="249.454125"/>
     <use style="fill:#98df8a;stroke:#ffffff;stroke-linejoin:miter;stroke-width:0.75;" x="181.930605" xlink:href="#m5d4ab97a77" y="249.454125"/>
     <use style="fill:#98df8a;stroke:#ffffff;stroke-linejoin:miter;stroke-width:0.75;" x="195.020894" xlink:href="#m5d4ab97a77" y="242.734125"/>
     <use style="fill:#98df8a;stroke:#ffffff;stroke-linejoin:miter;stroke-width:0.75;" x="206.088577" xlink:href="#m5d4ab97a77" y="242.734125"/>
     <use style="fill:#98df8a;stroke:#ffffff;stroke-linejoin:miter;stroke-width:0.75;" x="215.675839" xlink:href="#m5d4ab97a77" y="236.014125"/>
     <use style="fill:#98df8a;stroke:#ffffff;stroke-linejoin:miter;stroke-width:0.75;" x="224.132404" xlink:href="#m5d4ab97a77" y="236.014125"/>
     <use style="fill:#98df8a;stroke:#ffffff;stroke-linejoin:miter;stroke-width:0.75;" x="231.697059" xlink:href="#m5d4ab97a77" y="236.014125"/>
     <use style="fill:#98df8a;stroke:#ffffff;stroke-linejoin:miter;stroke-width:0.75;" x="238.540121" xlink:href="#m5d4ab97a77" y="236.014125"/>
     <use style="fill:#98df8a;stroke:#ffffff;stroke-linejoin:miter;stroke-width:0.75;" x="244.787348" xlink:href="#m5d4ab97a77" y="229.294125"/>
     <use style="fill:#98df8a;stroke:#ffffff;stroke-linejoin:miter;stroke-width:0.75;" x="250.53424" xlink:href="#m5d4ab97a77" y="229.294125"/>
     <use style="fill:#98df8a;stroke:#ffffff;stroke-linejoin:miter;stroke-width:0.75;" x="255.855031" xlink:href="#m5d4ab97a77" y="229.294125"/>
     <use style="fill:#98df8a;stroke:#ffffff;stroke-linejoin:miter;stroke-width:0.75;" x="260.808568" xlink:href="#m5d4ab97a77" y="222.574125"/>
     <use style="fill:#98df8a;stroke:#ffffff;stroke-linejoin:miter;stroke-width:0.75;" x="265.442293" xlink:href="#m5d4ab97a77" y="222.574125"/>
     <use style="fill:#98df8a;stroke:#ffffff;stroke-linejoin:miter;stroke-width:0.75;" x="269.795008" xlink:href="#m5d4ab97a77" y="222.574125"/>
     <use style="fill:#98df8a;stroke:#ffffff;stroke-linejoin:miter;stroke-width:0.75;" x="273.898858" xlink:href="#m5d4ab97a77" y="209.134125"/>
     <use style="fill:#98df8a;stroke:#ffffff;stroke-linejoin:miter;stroke-width:0.75;" x="277.780766" xlink:href="#m5d4ab97a77" y="202.414125"/>
     <use style="fill:#98df8a;stroke:#ffffff;stroke-linejoin:miter;stroke-width:0.75;" x="281.463513" xlink:href="#m5d4ab97a77" y="209.134125"/>
     <use style="fill:#98df8a;stroke:#ffffff;stroke-linejoin:miter;stroke-width:0.75;" x="284.96654" xlink:href="#m5d4ab97a77" y="195.694125"/>
     <use style="fill:#98df8a;stroke:#ffffff;stroke-linejoin:miter;stroke-width:0.75;" x="288.306575" xlink:href="#m5d4ab97a77" y="195.694125"/>
     <use style="fill:#98df8a;stroke:#ffffff;stroke-linejoin:miter;stroke-width:0.75;" x="291.498115" xlink:href="#m5d4ab97a77" y="195.694125"/>
     <use style="fill:#98df8a;stroke:#ffffff;stroke-linejoin:miter;stroke-width:0.75;" x="294.553802" xlink:href="#m5d4ab97a77" y="188.974125"/>
     <use style="fill:#98df8a;stroke:#ffffff;stroke-linejoin:miter;stroke-width:0.75;" x="297.484732" xlink:href="#m5d4ab97a77" y="188.974125"/>
     <use style="fill:#98df8a;stroke:#ffffff;stroke-linejoin:miter;stroke-width:0.75;" x="300.300694" xlink:href="#m5d4ab97a77" y="188.974125"/>
     <use style="fill:#98df8a;stroke:#ffffff;stroke-linejoin:miter;stroke-width:0.75;" x="303.010367" xlink:href="#m5d4ab97a77" y="182.254125"/>
     <use style="fill:#98df8a;stroke:#ffffff;stroke-linejoin:miter;stroke-width:0.75;" x="305.621484" xlink:href="#m5d4ab97a77" y="182.254125"/>
     <use style="fill:#98df8a;stroke:#ffffff;stroke-linejoin:miter;stroke-width:0.75;" x="308.140965" xlink:href="#m5d4ab97a77" y="182.254125"/>
     <use style="fill:#98df8a;stroke:#ffffff;stroke-linejoin:miter;stroke-width:0.75;" x="310.575022" xlink:href="#m5d4ab97a77" y="182.254125"/>
     <use style="fill:#98df8a;stroke:#ffffff;stroke-linejoin:miter;stroke-width:0.75;" x="312.92926" xlink:href="#m5d4ab97a77" y="182.254125"/>
     <use style="fill:#98df8a;stroke:#ffffff;stroke-linejoin:miter;stroke-width:0.75;" x="315.208747" xlink:href="#m5d4ab97a77" y="182.254125"/>
     <use style="fill:#98df8a;stroke:#ffffff;stroke-linejoin:miter;stroke-width:0.75;" x="317.418085" xlink:href="#m5d4ab97a77" y="182.254125"/>
     <use style="fill:#98df8a;stroke:#ffffff;stroke-linejoin:miter;stroke-width:0.75;" x="319.561462" xlink:href="#m5d4ab97a77" y="168.814125"/>
     <use style="fill:#98df8a;stroke:#ffffff;stroke-linejoin:miter;stroke-width:0.75;" x="321.642704" xlink:href="#m5d4ab97a77" y="168.814125"/>
     <use style="fill:#98df8a;stroke:#ffffff;stroke-linejoin:miter;stroke-width:0.75;" x="323.665312" xlink:href="#m5d4ab97a77" y="168.814125"/>
     <use style="fill:#98df8a;stroke:#ffffff;stroke-linejoin:miter;stroke-width:0.75;" x="325.632498" xlink:href="#m5d4ab97a77" y="168.814125"/>
     <use style="fill:#98df8a;stroke:#ffffff;stroke-linejoin:miter;stroke-width:0.75;" x="327.54722" xlink:href="#m5d4ab97a77" y="168.814125"/>
     <use style="fill:#98df8a;stroke:#ffffff;stroke-linejoin:miter;stroke-width:0.75;" x="329.412203" xlink:href="#m5d4ab97a77" y="168.814125"/>
     <use style="fill:#98df8a;stroke:#ffffff;stroke-linejoin:miter;stroke-width:0.75;" x="331.229967" xlink:href="#m5d4ab97a77" y="168.814125"/>
     <use style="fill:#98df8a;stroke:#ffffff;stroke-linejoin:miter;stroke-width:0.75;" x="333.002842" xlink:href="#m5d4ab97a77" y="155.374125"/>
     <use style="fill:#98df8a;stroke:#ffffff;stroke-linejoin:miter;stroke-width:0.75;" x="334.732994" xlink:href="#m5d4ab97a77" y="155.374125"/>
     <use style="fill:#98df8a;stroke:#ffffff;stroke-linejoin:miter;stroke-width:0.75;" x="336.422432" xlink:href="#m5d4ab97a77" y="155.374125"/>
     <use style="fill:#98df8a;stroke:#ffffff;stroke-linejoin:miter;stroke-width:0.75;" x="338.073029" xlink:href="#m5d4ab97a77" y="155.374125"/>
     <use style="fill:#98df8a;stroke:#ffffff;stroke-linejoin:miter;stroke-width:0.75;" x="339.686531" xlink:href="#m5d4ab97a77" y="155.374125"/>
     <use style="fill:#98df8a;stroke:#ffffff;stroke-linejoin:miter;stroke-width:0.75;" x="341.264569" xlink:href="#m5d4ab97a77" y="155.374125"/>
     <use style="fill:#98df8a;stroke:#ffffff;stroke-linejoin:miter;stroke-width:0.75;" x="342.808667" xlink:href="#m5d4ab97a77" y="155.374125"/>
     <use style="fill:#98df8a;stroke:#ffffff;stroke-linejoin:miter;stroke-width:0.75;" x="344.320256" xlink:href="#m5d4ab97a77" y="155.374125"/>
     <use style="fill:#98df8a;stroke:#ffffff;stroke-linejoin:miter;stroke-width:0.75;" x="345.800676" xlink:href="#m5d4ab97a77" y="155.374125"/>
     <use style="fill:#98df8a;stroke:#ffffff;stroke-linejoin:miter;stroke-width:0.75;" x="347.251186" xlink:href="#m5d4ab97a77" y="155.374125"/>
     <use style="fill:#98df8a;stroke:#ffffff;stroke-linejoin:miter;stroke-width:0.75;" x="348.672972" xlink:href="#m5d4ab97a77" y="155.374125"/>
     <use style="fill:#98df8a;stroke:#ffffff;stroke-linejoin:miter;stroke-width:0.75;" x="350.067148" xlink:href="#m5d4ab97a77" y="155.374125"/>
     <use style="fill:#98df8a;stroke:#ffffff;stroke-linejoin:miter;stroke-width:0.75;" x="351.434767" xlink:href="#m5d4ab97a77" y="155.374125"/>
     <use style="fill:#98df8a;stroke:#ffffff;stroke-linejoin:miter;stroke-width:0.75;" x="352.776821" xlink:href="#m5d4ab97a77" y="141.934125"/>
     <use style="fill:#98df8a;stroke:#ffffff;stroke-linejoin:miter;stroke-width:0.75;" x="354.094249" xlink:href="#m5d4ab97a77" y="141.934125"/>
     <use style="fill:#98df8a;stroke:#ffffff;stroke-linejoin:miter;stroke-width:0.75;" x="355.387938" xlink:href="#m5d4ab97a77" y="141.934125"/>
     <use style="fill:#98df8a;stroke:#ffffff;stroke-linejoin:miter;stroke-width:0.75;" x="356.658729" xlink:href="#m5d4ab97a77" y="141.934125"/>
     <use style="fill:#98df8a;stroke:#ffffff;stroke-linejoin:miter;stroke-width:0.75;" x="357.907419" xlink:href="#m5d4ab97a77" y="141.934125"/>
     <use style="fill:#98df8a;stroke:#ffffff;stroke-linejoin:miter;stroke-width:0.75;" x="359.134761" xlink:href="#m5d4ab97a77" y="141.934125"/>
     <use style="fill:#98df8a;stroke:#ffffff;stroke-linejoin:miter;stroke-width:0.75;" x="360.341476" xlink:href="#m5d4ab97a77" y="141.934125"/>
     <use style="fill:#98df8a;stroke:#ffffff;stroke-linejoin:miter;stroke-width:0.75;" x="361.528244" xlink:href="#m5d4ab97a77" y="141.934125"/>
     <use style="fill:#98df8a;stroke:#ffffff;stroke-linejoin:miter;stroke-width:0.75;" x="362.695714" xlink:href="#m5d4ab97a77" y="141.934125"/>
     <use style="fill:#98df8a;stroke:#ffffff;stroke-linejoin:miter;stroke-width:0.75;" x="363.844503" xlink:href="#m5d4ab97a77" y="141.934125"/>
     <use style="fill:#98df8a;stroke:#ffffff;stroke-linejoin:miter;stroke-width:0.75;" x="364.975201" xlink:href="#m5d4ab97a77" y="141.934125"/>
     <use style="fill:#98df8a;stroke:#ffffff;stroke-linejoin:miter;stroke-width:0.75;" x="366.088368" xlink:href="#m5d4ab97a77" y="141.934125"/>
     <use style="fill:#98df8a;stroke:#ffffff;stroke-linejoin:miter;stroke-width:0.75;" x="367.184539" xlink:href="#m5d4ab97a77" y="141.934125"/>
     <use style="fill:#98df8a;stroke:#ffffff;stroke-linejoin:miter;stroke-width:0.75;" x="368.264225" xlink:href="#m5d4ab97a77" y="141.934125"/>
     <use style="fill:#98df8a;stroke:#ffffff;stroke-linejoin:miter;stroke-width:0.75;" x="369.327916" xlink:href="#m5d4ab97a77" y="141.934125"/>
     <use style="fill:#98df8a;stroke:#ffffff;stroke-linejoin:miter;stroke-width:0.75;" x="370.376078" xlink:href="#m5d4ab97a77" y="141.934125"/>
     <use style="fill:#98df8a;stroke:#ffffff;stroke-linejoin:miter;stroke-width:0.75;" x="371.409158" xlink:href="#m5d4ab97a77" y="141.934125"/>
     <use style="fill:#98df8a;stroke:#ffffff;stroke-linejoin:miter;stroke-width:0.75;" x="372.427584" xlink:href="#m5d4ab97a77" y="141.934125"/>
     <use style="fill:#98df8a;stroke:#ffffff;stroke-linejoin:miter;stroke-width:0.75;" x="373.431766" xlink:href="#m5d4ab97a77" y="141.934125"/>
     <use style="fill:#98df8a;stroke:#ffffff;stroke-linejoin:miter;stroke-width:0.75;" x="374.422096" xlink:href="#m5d4ab97a77" y="141.934125"/>
     <use style="fill:#98df8a;stroke:#ffffff;stroke-linejoin:miter;stroke-width:0.75;" x="375.398952" xlink:href="#m5d4ab97a77" y="141.934125"/>
     <use style="fill:#98df8a;stroke:#ffffff;stroke-linejoin:miter;stroke-width:0.75;" x="376.362696" xlink:href="#m5d4ab97a77" y="141.934125"/>
     <use style="fill:#98df8a;stroke:#ffffff;stroke-linejoin:miter;stroke-width:0.75;" x="377.313674" xlink:href="#m5d4ab97a77" y="141.934125"/>
     <use style="fill:#98df8a;stroke:#ffffff;stroke-linejoin:miter;stroke-width:0.75;" x="378.252221" xlink:href="#m5d4ab97a77" y="141.934125"/>
     <use style="fill:#98df8a;stroke:#ffffff;stroke-linejoin:miter;stroke-width:0.75;" x="379.178657" xlink:href="#m5d4ab97a77" y="141.934125"/>
     <use style="fill:#98df8a;stroke:#ffffff;stroke-linejoin:miter;stroke-width:0.75;" x="380.093291" xlink:href="#m5d4ab97a77" y="141.934125"/>
     <use style="fill:#98df8a;stroke:#ffffff;stroke-linejoin:miter;stroke-width:0.75;" x="380.99642" xlink:href="#m5d4ab97a77" y="141.934125"/>
     <use style="fill:#98df8a;stroke:#ffffff;stroke-linejoin:miter;stroke-width:0.75;" x="381.88833" xlink:href="#m5d4ab97a77" y="135.214125"/>
     <use style="fill:#98df8a;stroke:#ffffff;stroke-linejoin:miter;stroke-width:0.75;" x="382.769296" xlink:href="#m5d4ab97a77" y="135.214125"/>
     <use style="fill:#98df8a;stroke:#ffffff;stroke-linejoin:miter;stroke-width:0.75;" x="383.639583" xlink:href="#m5d4ab97a77" y="135.214125"/>
     <use style="fill:#98df8a;stroke:#ffffff;stroke-linejoin:miter;stroke-width:0.75;" x="384.499448" xlink:href="#m5d4ab97a77" y="135.214125"/>
     <use style="fill:#98df8a;stroke:#ffffff;stroke-linejoin:miter;stroke-width:0.75;" x="385.349136" xlink:href="#m5d4ab97a77" y="135.214125"/>
     <use style="fill:#98df8a;stroke:#ffffff;stroke-linejoin:miter;stroke-width:0.75;" x="386.188886" xlink:href="#m5d4ab97a77" y="135.214125"/>
     <use style="fill:#98df8a;stroke:#ffffff;stroke-linejoin:miter;stroke-width:0.75;" x="387.018928" xlink:href="#m5d4ab97a77" y="135.214125"/>
     <use style="fill:#98df8a;stroke:#ffffff;stroke-linejoin:miter;stroke-width:0.75;" x="387.839483" xlink:href="#m5d4ab97a77" y="141.934125"/>
     <use style="fill:#98df8a;stroke:#ffffff;stroke-linejoin:miter;stroke-width:0.75;" x="388.650767" xlink:href="#m5d4ab97a77" y="135.214125"/>
     <use style="fill:#98df8a;stroke:#ffffff;stroke-linejoin:miter;stroke-width:0.75;" x="389.452985" xlink:href="#m5d4ab97a77" y="141.934125"/>
     <use style="fill:#98df8a;stroke:#ffffff;stroke-linejoin:miter;stroke-width:0.75;" x="390.246339" xlink:href="#m5d4ab97a77" y="141.934125"/>
     <use style="fill:#98df8a;stroke:#ffffff;stroke-linejoin:miter;stroke-width:0.75;" x="391.031023" xlink:href="#m5d4ab97a77" y="128.494125"/>
    </g>
   </g>
   <g id="line2d_33">
    <path clip-path="url(#pe569b94856)" d="M 66.376477 276.334125 
L 116.142931 276.334125 
L 145.254441 262.894125 
L 165.909385 262.894125 
L 181.930605 262.894125 
L 195.020894 249.454125 
L 206.088577 256.174125 
L 215.675839 249.454125 
L 224.132404 249.454125 
L 231.697059 236.014125 
L 238.540121 236.014125 
L 244.787348 236.014125 
L 250.53424 236.014125 
L 255.855031 236.014125 
L 260.808568 236.014125 
L 265.442293 229.294125 
L 269.795008 222.574125 
L 273.898858 222.574125 
L 277.780766 222.574125 
L 281.463513 222.574125 
L 284.96654 222.574125 
L 288.306575 215.854125 
L 291.498115 209.134125 
L 294.553802 209.134125 
L 297.484732 209.134125 
L 300.300694 209.134125 
L 303.010367 209.134125 
L 305.621484 202.414125 
L 308.140965 195.694125 
L 310.575022 195.694125 
L 312.92926 188.974125 
L 315.208747 182.254125 
L 317.418085 182.254125 
L 319.561462 182.254125 
L 321.642704 188.974125 
L 323.665312 175.534125 
L 325.632498 188.974125 
L 327.54722 182.254125 
L 329.412203 175.534125 
L 331.229967 175.534125 
L 333.002842 175.534125 
L 334.732994 168.814125 
L 336.422432 168.814125 
L 338.073029 168.814125 
L 339.686531 168.814125 
L 341.264569 168.814125 
L 342.808667 168.814125 
L 344.320256 168.814125 
L 345.800676 168.814125 
L 347.251186 168.814125 
L 348.672972 168.814125 
L 350.067148 168.814125 
L 351.434767 168.814125 
L 352.776821 168.814125 
L 354.094249 168.814125 
L 355.387938 168.814125 
L 356.658729 155.374125 
L 357.907419 162.094125 
L 359.134761 148.654125 
L 360.341476 155.374125 
L 361.528244 155.374125 
L 362.695714 148.654125 
L 363.844503 141.934125 
L 364.975201 148.654125 
L 366.088368 141.934125 
L 367.184539 141.934125 
L 368.264225 141.934125 
L 369.327916 141.934125 
L 370.376078 141.934125 
L 371.409158 141.934125 
L 372.427584 141.934125 
L 373.431766 141.934125 
L 374.422096 141.934125 
L 375.398952 141.934125 
L 376.362696 141.934125 
L 377.313674 141.934125 
L 378.252221 128.494125 
L 379.178657 128.494125 
L 380.093291 128.494125 
L 380.99642 128.494125 
L 381.88833 128.494125 
L 382.769296 115.054125 
L 383.639583 115.054125 
L 384.499448 115.054125 
L 385.349136 115.054125 
L 386.188886 115.054125 
L 387.018928 115.054125 
L 387.839483 115.054125 
L 388.650767 115.054125 
L 389.452985 115.054125 
L 390.246339 115.054125 
L 391.031023 115.054125 
" style="fill:none;stroke:#d62728;stroke-linecap:square;stroke-width:1.5;"/>
    <defs>
     <path d="M 0 -3 
L -3 3 
L 3 3 
z
" id="mf39d2b21e8" style="stroke:#ffffff;stroke-linejoin:miter;stroke-width:0.75;"/>
    </defs>
    <g clip-path="url(#pe569b94856)">
     <use style="fill:#d62728;stroke:#ffffff;stroke-linejoin:miter;stroke-width:0.75;" x="66.376477" xlink:href="#mf39d2b21e8" y="276.334125"/>
     <use style="fill:#d62728;stroke:#ffffff;stroke-linejoin:miter;stroke-width:0.75;" x="116.142931" xlink:href="#mf39d2b21e8" y="276.334125"/>
     <use style="fill:#d62728;stroke:#ffffff;stroke-linejoin:miter;stroke-width:0.75;" x="145.254441" xlink:href="#mf39d2b21e8" y="262.894125"/>
     <use style="fill:#d62728;stroke:#ffffff;stroke-linejoin:miter;stroke-width:0.75;" x="165.909385" xlink:href="#mf39d2b21e8" y="262.894125"/>
     <use style="fill:#d62728;stroke:#ffffff;stroke-linejoin:miter;stroke-width:0.75;" x="181.930605" xlink:href="#mf39d2b21e8" y="262.894125"/>
     <use style="fill:#d62728;stroke:#ffffff;stroke-linejoin:miter;stroke-width:0.75;" x="195.020894" xlink:href="#mf39d2b21e8" y="249.454125"/>
     <use style="fill:#d62728;stroke:#ffffff;stroke-linejoin:miter;stroke-width:0.75;" x="206.088577" xlink:href="#mf39d2b21e8" y="256.174125"/>
     <use style="fill:#d62728;stroke:#ffffff;stroke-linejoin:miter;stroke-width:0.75;" x="215.675839" xlink:href="#mf39d2b21e8" y="249.454125"/>
     <use style="fill:#d62728;stroke:#ffffff;stroke-linejoin:miter;stroke-width:0.75;" x="224.132404" xlink:href="#mf39d2b21e8" y="249.454125"/>
     <use style="fill:#d62728;stroke:#ffffff;stroke-linejoin:miter;stroke-width:0.75;" x="231.697059" xlink:href="#mf39d2b21e8" y="236.014125"/>
     <use style="fill:#d62728;stroke:#ffffff;stroke-linejoin:miter;stroke-width:0.75;" x="238.540121" xlink:href="#mf39d2b21e8" y="236.014125"/>
     <use style="fill:#d62728;stroke:#ffffff;stroke-linejoin:miter;stroke-width:0.75;" x="244.787348" xlink:href="#mf39d2b21e8" y="236.014125"/>
     <use style="fill:#d62728;stroke:#ffffff;stroke-linejoin:miter;stroke-width:0.75;" x="250.53424" xlink:href="#mf39d2b21e8" y="236.014125"/>
     <use style="fill:#d62728;stroke:#ffffff;stroke-linejoin:miter;stroke-width:0.75;" x="255.855031" xlink:href="#mf39d2b21e8" y="236.014125"/>
     <use style="fill:#d62728;stroke:#ffffff;stroke-linejoin:miter;stroke-width:0.75;" x="260.808568" xlink:href="#mf39d2b21e8" y="236.014125"/>
     <use style="fill:#d62728;stroke:#ffffff;stroke-linejoin:miter;stroke-width:0.75;" x="265.442293" xlink:href="#mf39d2b21e8" y="229.294125"/>
     <use style="fill:#d62728;stroke:#ffffff;stroke-linejoin:miter;stroke-width:0.75;" x="269.795008" xlink:href="#mf39d2b21e8" y="222.574125"/>
     <use style="fill:#d62728;stroke:#ffffff;stroke-linejoin:miter;stroke-width:0.75;" x="273.898858" xlink:href="#mf39d2b21e8" y="222.574125"/>
     <use style="fill:#d62728;stroke:#ffffff;stroke-linejoin:miter;stroke-width:0.75;" x="277.780766" xlink:href="#mf39d2b21e8" y="222.574125"/>
     <use style="fill:#d62728;stroke:#ffffff;stroke-linejoin:miter;stroke-width:0.75;" x="281.463513" xlink:href="#mf39d2b21e8" y="222.574125"/>
     <use style="fill:#d62728;stroke:#ffffff;stroke-linejoin:miter;stroke-width:0.75;" x="284.96654" xlink:href="#mf39d2b21e8" y="222.574125"/>
     <use style="fill:#d62728;stroke:#ffffff;stroke-linejoin:miter;stroke-width:0.75;" x="288.306575" xlink:href="#mf39d2b21e8" y="215.854125"/>
     <use style="fill:#d62728;stroke:#ffffff;stroke-linejoin:miter;stroke-width:0.75;" x="291.498115" xlink:href="#mf39d2b21e8" y="209.134125"/>
     <use style="fill:#d62728;stroke:#ffffff;stroke-linejoin:miter;stroke-width:0.75;" x="294.553802" xlink:href="#mf39d2b21e8" y="209.134125"/>
     <use style="fill:#d62728;stroke:#ffffff;stroke-linejoin:miter;stroke-width:0.75;" x="297.484732" xlink:href="#mf39d2b21e8" y="209.134125"/>
     <use style="fill:#d62728;stroke:#ffffff;stroke-linejoin:miter;stroke-width:0.75;" x="300.300694" xlink:href="#mf39d2b21e8" y="209.134125"/>
     <use style="fill:#d62728;stroke:#ffffff;stroke-linejoin:miter;stroke-width:0.75;" x="303.010367" xlink:href="#mf39d2b21e8" y="209.134125"/>
     <use style="fill:#d62728;stroke:#ffffff;stroke-linejoin:miter;stroke-width:0.75;" x="305.621484" xlink:href="#mf39d2b21e8" y="202.414125"/>
     <use style="fill:#d62728;stroke:#ffffff;stroke-linejoin:miter;stroke-width:0.75;" x="308.140965" xlink:href="#mf39d2b21e8" y="195.694125"/>
     <use style="fill:#d62728;stroke:#ffffff;stroke-linejoin:miter;stroke-width:0.75;" x="310.575022" xlink:href="#mf39d2b21e8" y="195.694125"/>
     <use style="fill:#d62728;stroke:#ffffff;stroke-linejoin:miter;stroke-width:0.75;" x="312.92926" xlink:href="#mf39d2b21e8" y="188.974125"/>
     <use style="fill:#d62728;stroke:#ffffff;stroke-linejoin:miter;stroke-width:0.75;" x="315.208747" xlink:href="#mf39d2b21e8" y="182.254125"/>
     <use style="fill:#d62728;stroke:#ffffff;stroke-linejoin:miter;stroke-width:0.75;" x="317.418085" xlink:href="#mf39d2b21e8" y="182.254125"/>
     <use style="fill:#d62728;stroke:#ffffff;stroke-linejoin:miter;stroke-width:0.75;" x="319.561462" xlink:href="#mf39d2b21e8" y="182.254125"/>
     <use style="fill:#d62728;stroke:#ffffff;stroke-linejoin:miter;stroke-width:0.75;" x="321.642704" xlink:href="#mf39d2b21e8" y="188.974125"/>
     <use style="fill:#d62728;stroke:#ffffff;stroke-linejoin:miter;stroke-width:0.75;" x="323.665312" xlink:href="#mf39d2b21e8" y="175.534125"/>
     <use style="fill:#d62728;stroke:#ffffff;stroke-linejoin:miter;stroke-width:0.75;" x="325.632498" xlink:href="#mf39d2b21e8" y="188.974125"/>
     <use style="fill:#d62728;stroke:#ffffff;stroke-linejoin:miter;stroke-width:0.75;" x="327.54722" xlink:href="#mf39d2b21e8" y="182.254125"/>
     <use style="fill:#d62728;stroke:#ffffff;stroke-linejoin:miter;stroke-width:0.75;" x="329.412203" xlink:href="#mf39d2b21e8" y="175.534125"/>
     <use style="fill:#d62728;stroke:#ffffff;stroke-linejoin:miter;stroke-width:0.75;" x="331.229967" xlink:href="#mf39d2b21e8" y="175.534125"/>
     <use style="fill:#d62728;stroke:#ffffff;stroke-linejoin:miter;stroke-width:0.75;" x="333.002842" xlink:href="#mf39d2b21e8" y="175.534125"/>
     <use style="fill:#d62728;stroke:#ffffff;stroke-linejoin:miter;stroke-width:0.75;" x="334.732994" xlink:href="#mf39d2b21e8" y="168.814125"/>
     <use style="fill:#d62728;stroke:#ffffff;stroke-linejoin:miter;stroke-width:0.75;" x="336.422432" xlink:href="#mf39d2b21e8" y="168.814125"/>
     <use style="fill:#d62728;stroke:#ffffff;stroke-linejoin:miter;stroke-width:0.75;" x="338.073029" xlink:href="#mf39d2b21e8" y="168.814125"/>
     <use style="fill:#d62728;stroke:#ffffff;stroke-linejoin:miter;stroke-width:0.75;" x="339.686531" xlink:href="#mf39d2b21e8" y="168.814125"/>
     <use style="fill:#d62728;stroke:#ffffff;stroke-linejoin:miter;stroke-width:0.75;" x="341.264569" xlink:href="#mf39d2b21e8" y="168.814125"/>
     <use style="fill:#d62728;stroke:#ffffff;stroke-linejoin:miter;stroke-width:0.75;" x="342.808667" xlink:href="#mf39d2b21e8" y="168.814125"/>
     <use style="fill:#d62728;stroke:#ffffff;stroke-linejoin:miter;stroke-width:0.75;" x="344.320256" xlink:href="#mf39d2b21e8" y="168.814125"/>
     <use style="fill:#d62728;stroke:#ffffff;stroke-linejoin:miter;stroke-width:0.75;" x="345.800676" xlink:href="#mf39d2b21e8" y="168.814125"/>
     <use style="fill:#d62728;stroke:#ffffff;stroke-linejoin:miter;stroke-width:0.75;" x="347.251186" xlink:href="#mf39d2b21e8" y="168.814125"/>
     <use style="fill:#d62728;stroke:#ffffff;stroke-linejoin:miter;stroke-width:0.75;" x="348.672972" xlink:href="#mf39d2b21e8" y="168.814125"/>
     <use style="fill:#d62728;stroke:#ffffff;stroke-linejoin:miter;stroke-width:0.75;" x="350.067148" xlink:href="#mf39d2b21e8" y="168.814125"/>
     <use style="fill:#d62728;stroke:#ffffff;stroke-linejoin:miter;stroke-width:0.75;" x="351.434767" xlink:href="#mf39d2b21e8" y="168.814125"/>
     <use style="fill:#d62728;stroke:#ffffff;stroke-linejoin:miter;stroke-width:0.75;" x="352.776821" xlink:href="#mf39d2b21e8" y="168.814125"/>
     <use style="fill:#d62728;stroke:#ffffff;stroke-linejoin:miter;stroke-width:0.75;" x="354.094249" xlink:href="#mf39d2b21e8" y="168.814125"/>
     <use style="fill:#d62728;stroke:#ffffff;stroke-linejoin:miter;stroke-width:0.75;" x="355.387938" xlink:href="#mf39d2b21e8" y="168.814125"/>
     <use style="fill:#d62728;stroke:#ffffff;stroke-linejoin:miter;stroke-width:0.75;" x="356.658729" xlink:href="#mf39d2b21e8" y="155.374125"/>
     <use style="fill:#d62728;stroke:#ffffff;stroke-linejoin:miter;stroke-width:0.75;" x="357.907419" xlink:href="#mf39d2b21e8" y="162.094125"/>
     <use style="fill:#d62728;stroke:#ffffff;stroke-linejoin:miter;stroke-width:0.75;" x="359.134761" xlink:href="#mf39d2b21e8" y="148.654125"/>
     <use style="fill:#d62728;stroke:#ffffff;stroke-linejoin:miter;stroke-width:0.75;" x="360.341476" xlink:href="#mf39d2b21e8" y="155.374125"/>
     <use style="fill:#d62728;stroke:#ffffff;stroke-linejoin:miter;stroke-width:0.75;" x="361.528244" xlink:href="#mf39d2b21e8" y="155.374125"/>
     <use style="fill:#d62728;stroke:#ffffff;stroke-linejoin:miter;stroke-width:0.75;" x="362.695714" xlink:href="#mf39d2b21e8" y="148.654125"/>
     <use style="fill:#d62728;stroke:#ffffff;stroke-linejoin:miter;stroke-width:0.75;" x="363.844503" xlink:href="#mf39d2b21e8" y="141.934125"/>
     <use style="fill:#d62728;stroke:#ffffff;stroke-linejoin:miter;stroke-width:0.75;" x="364.975201" xlink:href="#mf39d2b21e8" y="148.654125"/>
     <use style="fill:#d62728;stroke:#ffffff;stroke-linejoin:miter;stroke-width:0.75;" x="366.088368" xlink:href="#mf39d2b21e8" y="141.934125"/>
     <use style="fill:#d62728;stroke:#ffffff;stroke-linejoin:miter;stroke-width:0.75;" x="367.184539" xlink:href="#mf39d2b21e8" y="141.934125"/>
     <use style="fill:#d62728;stroke:#ffffff;stroke-linejoin:miter;stroke-width:0.75;" x="368.264225" xlink:href="#mf39d2b21e8" y="141.934125"/>
     <use style="fill:#d62728;stroke:#ffffff;stroke-linejoin:miter;stroke-width:0.75;" x="369.327916" xlink:href="#mf39d2b21e8" y="141.934125"/>
     <use style="fill:#d62728;stroke:#ffffff;stroke-linejoin:miter;stroke-width:0.75;" x="370.376078" xlink:href="#mf39d2b21e8" y="141.934125"/>
     <use style="fill:#d62728;stroke:#ffffff;stroke-linejoin:miter;stroke-width:0.75;" x="371.409158" xlink:href="#mf39d2b21e8" y="141.934125"/>
     <use style="fill:#d62728;stroke:#ffffff;stroke-linejoin:miter;stroke-width:0.75;" x="372.427584" xlink:href="#mf39d2b21e8" y="141.934125"/>
     <use style="fill:#d62728;stroke:#ffffff;stroke-linejoin:miter;stroke-width:0.75;" x="373.431766" xlink:href="#mf39d2b21e8" y="141.934125"/>
     <use style="fill:#d62728;stroke:#ffffff;stroke-linejoin:miter;stroke-width:0.75;" x="374.422096" xlink:href="#mf39d2b21e8" y="141.934125"/>
     <use style="fill:#d62728;stroke:#ffffff;stroke-linejoin:miter;stroke-width:0.75;" x="375.398952" xlink:href="#mf39d2b21e8" y="141.934125"/>
     <use style="fill:#d62728;stroke:#ffffff;stroke-linejoin:miter;stroke-width:0.75;" x="376.362696" xlink:href="#mf39d2b21e8" y="141.934125"/>
     <use style="fill:#d62728;stroke:#ffffff;stroke-linejoin:miter;stroke-width:0.75;" x="377.313674" xlink:href="#mf39d2b21e8" y="141.934125"/>
     <use style="fill:#d62728;stroke:#ffffff;stroke-linejoin:miter;stroke-width:0.75;" x="378.252221" xlink:href="#mf39d2b21e8" y="128.494125"/>
     <use style="fill:#d62728;stroke:#ffffff;stroke-linejoin:miter;stroke-width:0.75;" x="379.178657" xlink:href="#mf39d2b21e8" y="128.494125"/>
     <use style="fill:#d62728;stroke:#ffffff;stroke-linejoin:miter;stroke-width:0.75;" x="380.093291" xlink:href="#mf39d2b21e8" y="128.494125"/>
     <use style="fill:#d62728;stroke:#ffffff;stroke-linejoin:miter;stroke-width:0.75;" x="380.99642" xlink:href="#mf39d2b21e8" y="128.494125"/>
     <use style="fill:#d62728;stroke:#ffffff;stroke-linejoin:miter;stroke-width:0.75;" x="381.88833" xlink:href="#mf39d2b21e8" y="128.494125"/>
     <use style="fill:#d62728;stroke:#ffffff;stroke-linejoin:miter;stroke-width:0.75;" x="382.769296" xlink:href="#mf39d2b21e8" y="115.054125"/>
     <use style="fill:#d62728;stroke:#ffffff;stroke-linejoin:miter;stroke-width:0.75;" x="383.639583" xlink:href="#mf39d2b21e8" y="115.054125"/>
     <use style="fill:#d62728;stroke:#ffffff;stroke-linejoin:miter;stroke-width:0.75;" x="384.499448" xlink:href="#mf39d2b21e8" y="115.054125"/>
     <use style="fill:#d62728;stroke:#ffffff;stroke-linejoin:miter;stroke-width:0.75;" x="385.349136" xlink:href="#mf39d2b21e8" y="115.054125"/>
     <use style="fill:#d62728;stroke:#ffffff;stroke-linejoin:miter;stroke-width:0.75;" x="386.188886" xlink:href="#mf39d2b21e8" y="115.054125"/>
     <use style="fill:#d62728;stroke:#ffffff;stroke-linejoin:miter;stroke-width:0.75;" x="387.018928" xlink:href="#mf39d2b21e8" y="115.054125"/>
     <use style="fill:#d62728;stroke:#ffffff;stroke-linejoin:miter;stroke-width:0.75;" x="387.839483" xlink:href="#mf39d2b21e8" y="115.054125"/>
     <use style="fill:#d62728;stroke:#ffffff;stroke-linejoin:miter;stroke-width:0.75;" x="388.650767" xlink:href="#mf39d2b21e8" y="115.054125"/>
     <use style="fill:#d62728;stroke:#ffffff;stroke-linejoin:miter;stroke-width:0.75;" x="389.452985" xlink:href="#mf39d2b21e8" y="115.054125"/>
     <use style="fill:#d62728;stroke:#ffffff;stroke-linejoin:miter;stroke-width:0.75;" x="390.246339" xlink:href="#mf39d2b21e8" y="115.054125"/>
     <use style="fill:#d62728;stroke:#ffffff;stroke-linejoin:miter;stroke-width:0.75;" x="391.031023" xlink:href="#mf39d2b21e8" y="115.054125"/>
    </g>
   </g>
   <g id="line2d_34"/>
   <g id="line2d_35"/>
   <g id="line2d_36"/>
   <g id="patch_3">
    <path d="M 50.14375 256.174125 
L 50.14375 54.574125 
" style="fill:none;stroke:#000000;stroke-linecap:square;stroke-linejoin:miter;stroke-width:0.8;"/>
   </g>
   <g id="patch_4">
    <path d="M 66.376477 288.430125 
L 391.03189 288.430125 
" style="fill:none;stroke:#000000;stroke-linecap:square;stroke-linejoin:miter;stroke-width:0.8;"/>
   </g>
   <g id="text_16">
    <!-- poppler_pdf_fuzzer (23h, 8 trials/fuzzer) -->
    <g transform="translate(108.766563 16.318125)scale(0.12 -0.12)">
     <defs>
      <path d="M 1159 525 
L 1159 -1331 
L 581 -1331 
L 581 3500 
L 1159 3500 
L 1159 2969 
Q 1341 3281 1617 3432 
Q 1894 3584 2278 3584 
Q 2916 3584 3314 3078 
Q 3713 2572 3713 1747 
Q 3713 922 3314 415 
Q 2916 -91 2278 -91 
Q 1894 -91 1617 61 
Q 1341 213 1159 525 
z
M 3116 1747 
Q 3116 2381 2855 2742 
Q 2594 3103 2138 3103 
Q 1681 3103 1420 2742 
Q 1159 2381 1159 1747 
Q 1159 1113 1420 752 
Q 1681 391 2138 391 
Q 2594 391 2855 752 
Q 3116 1113 3116 1747 
z
" id="DejaVuSans-70" transform="scale(0.015625)"/>
      <path d="M 603 4863 
L 1178 4863 
L 1178 0 
L 603 0 
L 603 4863 
z
" id="DejaVuSans-6c" transform="scale(0.015625)"/>
      <path d="M 3263 -1063 
L 3263 -1509 
L -63 -1509 
L -63 -1063 
L 3263 -1063 
z
" id="DejaVuSans-5f" transform="scale(0.015625)"/>
      <path d="M 2906 2969 
L 2906 4863 
L 3481 4863 
L 3481 0 
L 2906 0 
L 2906 525 
Q 2725 213 2448 61 
Q 2172 -91 1784 -91 
Q 1150 -91 751 415 
Q 353 922 353 1747 
Q 353 2572 751 3078 
Q 1150 3584 1784 3584 
Q 2172 3584 2448 3432 
Q 2725 3281 2906 2969 
z
M 947 1747 
Q 947 1113 1208 752 
Q 1469 391 1925 391 
Q 2381 391 2643 752 
Q 2906 1113 2906 1747 
Q 2906 2381 2643 2742 
Q 2381 3103 1925 3103 
Q 1469 3103 1208 2742 
Q 947 2381 947 1747 
z
" id="DejaVuSans-64" transform="scale(0.015625)"/>
      <path d="M 2375 4863 
L 2375 4384 
L 1825 4384 
Q 1516 4384 1395 4259 
Q 1275 4134 1275 3809 
L 1275 3500 
L 2222 3500 
L 2222 3053 
L 1275 3053 
L 1275 0 
L 697 0 
L 697 3053 
L 147 3053 
L 147 3500 
L 697 3500 
L 697 3744 
Q 697 4328 969 4595 
Q 1241 4863 1831 4863 
L 2375 4863 
z
" id="DejaVuSans-66" transform="scale(0.015625)"/>
      <path d="M 353 3500 
L 3084 3500 
L 3084 2975 
L 922 459 
L 3084 459 
L 3084 0 
L 275 0 
L 275 525 
L 2438 3041 
L 353 3041 
L 353 3500 
z
" id="DejaVuSans-7a" transform="scale(0.015625)"/>
      <path d="M 750 794 
L 1409 794 
L 1409 256 
L 897 -744 
L 494 -744 
L 750 256 
L 750 794 
z
" id="DejaVuSans-2c" transform="scale(0.015625)"/>
      <path d="M 2834 3397 
L 2834 2853 
Q 2591 2978 2328 3040 
Q 2066 3103 1784 3103 
Q 1356 3103 1142 2972 
Q 928 2841 928 2578 
Q 928 2378 1081 2264 
Q 1234 2150 1697 2047 
L 1894 2003 
Q 2506 1872 2764 1633 
Q 3022 1394 3022 966 
Q 3022 478 2636 193 
Q 2250 -91 1575 -91 
Q 1294 -91 989 -36 
Q 684 19 347 128 
L 347 722 
Q 666 556 975 473 
Q 1284 391 1588 391 
Q 1994 391 2212 530 
Q 2431 669 2431 922 
Q 2431 1156 2273 1281 
Q 2116 1406 1581 1522 
L 1381 1569 
Q 847 1681 609 1914 
Q 372 2147 372 2553 
Q 372 3047 722 3315 
Q 1072 3584 1716 3584 
Q 2034 3584 2315 3537 
Q 2597 3491 2834 3397 
z
" id="DejaVuSans-73" transform="scale(0.015625)"/>
      <path d="M 1625 4666 
L 2156 4666 
L 531 -594 
L 0 -594 
L 1625 4666 
z
" id="DejaVuSans-2f" transform="scale(0.015625)"/>
     </defs>
     <use xlink:href="#DejaVuSans-70"/>
     <use x="63.476562" xlink:href="#DejaVuSans-6f"/>
     <use x="124.658203" xlink:href="#DejaVuSans-70"/>
     <use x="188.134766" xlink:href="#DejaVuSans-70"/>
     <use x="251.611328" xlink:href="#DejaVuSans-6c"/>
     <use x="279.394531" xlink:href="#DejaVuSans-65"/>
     <use x="340.917969" xlink:href="#DejaVuSans-72"/>
     <use x="382.03125" xlink:href="#DejaVuSans-5f"/>
     <use x="432.03125" xlink:href="#DejaVuSans-70"/>
     <use x="495.507812" xlink:href="#DejaVuSans-64"/>
     <use x="558.984375" xlink:href="#DejaVuSans-66"/>
     <use x="594.189453" xlink:href="#DejaVuSans-5f"/>
     <use x="644.189453" xlink:href="#DejaVuSans-66"/>
     <use x="679.394531" xlink:href="#DejaVuSans-75"/>
     <use x="742.773438" xlink:href="#DejaVuSans-7a"/>
     <use x="795.263672" xlink:href="#DejaVuSans-7a"/>
     <use x="847.753906" xlink:href="#DejaVuSans-65"/>
     <use x="909.277344" xlink:href="#DejaVuSans-72"/>
     <use x="950.390625" xlink:href="#DejaVuSans-20"/>
     <use x="982.177734" xlink:href="#DejaVuSans-28"/>
     <use x="1021.191406" xlink:href="#DejaVuSans-32"/>
     <use x="1084.814453" xlink:href="#DejaVuSans-33"/>
     <use x="1148.4375" xlink:href="#DejaVuSans-68"/>
     <use x="1211.816406" xlink:href="#DejaVuSans-2c"/>
     <use x="1243.603516" xlink:href="#DejaVuSans-20"/>
     <use x="1275.390625" xlink:href="#DejaVuSans-38"/>
     <use x="1339.013672" xlink:href="#DejaVuSans-20"/>
     <use x="1370.800781" xlink:href="#DejaVuSans-74"/>
     <use x="1410.009766" xlink:href="#DejaVuSans-72"/>
     <use x="1451.123047" xlink:href="#DejaVuSans-69"/>
     <use x="1478.90625" xlink:href="#DejaVuSans-61"/>
     <use x="1540.185547" xlink:href="#DejaVuSans-6c"/>
     <use x="1567.96875" xlink:href="#DejaVuSans-73"/>
     <use x="1620.068359" xlink:href="#DejaVuSans-2f"/>
     <use x="1653.759766" xlink:href="#DejaVuSans-66"/>
     <use x="1688.964844" xlink:href="#DejaVuSans-75"/>
     <use x="1752.34375" xlink:href="#DejaVuSans-7a"/>
     <use x="1804.833984" xlink:href="#DejaVuSans-7a"/>
     <use x="1857.324219" xlink:href="#DejaVuSans-65"/>
     <use x="1918.847656" xlink:href="#DejaVuSans-72"/>
     <use x="1959.960938" xlink:href="#DejaVuSans-29"/>
    </g>
   </g>
   <g id="legend_1">
    <g id="line2d_37">
     <path d="M 411.26375 30.416562 
L 431.26375 30.416562 
" style="fill:none;stroke:#1f77b4;stroke-linecap:square;stroke-width:1.5;"/>
    </g>
    <g id="line2d_38">
     <defs>
      <path d="M 0 3 
C 0.795609 3 1.55874 2.683901 2.12132 2.12132 
C 2.683901 1.55874 3 0.795609 3 0 
C 3 -0.795609 2.683901 -1.55874 2.12132 -2.12132 
C 1.55874 -2.683901 0.795609 -3 0 -3 
C -0.795609 -3 -1.55874 -2.683901 -2.12132 -2.12132 
C -2.683901 -1.55874 -3 -0.795609 -3 0 
C -3 0.795609 -2.683901 1.55874 -2.12132 2.12132 
C -1.55874 2.683901 -0.795609 3 0 3 
z
" id="mae1291b401" style="stroke:#1f77b4;"/>
     </defs>
     <g>
      <use style="fill:#1f77b4;stroke:#1f77b4;" x="421.26375" xlink:href="#mae1291b401" y="30.416562"/>
     </g>
    </g>
    <g id="text_17">
     <!-- afl -->
     <g transform="translate(439.26375 33.916562)scale(0.1 -0.1)">
      <use xlink:href="#DejaVuSans-61"/>
      <use x="61.279297" xlink:href="#DejaVuSans-66"/>
      <use x="96.484375" xlink:href="#DejaVuSans-6c"/>
     </g>
    </g>
    <g id="line2d_39">
     <path d="M 411.26375 45.094688 
L 431.26375 45.094688 
" style="fill:none;stroke:#98df8a;stroke-linecap:square;stroke-width:1.5;"/>
    </g>
    <g id="line2d_40">
     <defs>
      <path d="M -0 3 
L 3 -3 
L -3 -3 
z
" id="m0ddc1e2d21" style="stroke:#98df8a;stroke-linejoin:miter;"/>
     </defs>
     <g>
      <use style="fill:#98df8a;stroke:#98df8a;stroke-linejoin:miter;" x="421.26375" xlink:href="#m0ddc1e2d21" y="45.094688"/>
     </g>
    </g>
    <g id="text_18">
     <!-- afl_scheduling_lifo -->
     <g transform="translate(439.26375 48.594688)scale(0.1 -0.1)">
      <use xlink:href="#DejaVuSans-61"/>
      <use x="61.279297" xlink:href="#DejaVuSans-66"/>
      <use x="96.484375" xlink:href="#DejaVuSans-6c"/>
      <use x="124.267578" xlink:href="#DejaVuSans-5f"/>
      <use x="174.267578" xlink:href="#DejaVuSans-73"/>
      <use x="226.367188" xlink:href="#DejaVuSans-63"/>
      <use x="281.347656" xlink:href="#DejaVuSans-68"/>
      <use x="344.726562" xlink:href="#DejaVuSans-65"/>
      <use x="406.25" xlink:href="#DejaVuSans-64"/>
      <use x="469.726562" xlink:href="#DejaVuSans-75"/>
      <use x="533.105469" xlink:href="#DejaVuSans-6c"/>
      <use x="560.888672" xlink:href="#DejaVuSans-69"/>
      <use x="588.671875" xlink:href="#DejaVuSans-6e"/>
      <use x="652.050781" xlink:href="#DejaVuSans-67"/>
      <use x="715.527344" xlink:href="#DejaVuSans-5f"/>
      <use x="765.527344" xlink:href="#DejaVuSans-6c"/>
      <use x="793.310547" xlink:href="#DejaVuSans-69"/>
      <use x="821.09375" xlink:href="#DejaVuSans-66"/>
      <use x="856.298828" xlink:href="#DejaVuSans-6f"/>
     </g>
    </g>
    <g id="line2d_41">
     <path d="M 411.26375 60.050937 
L 431.26375 60.050937 
" style="fill:none;stroke:#d62728;stroke-linecap:square;stroke-width:1.5;"/>
    </g>
    <g id="line2d_42">
     <defs>
      <path d="M 0 -3 
L -3 3 
L 3 3 
z
" id="m89c8ea91e7" style="stroke:#d62728;stroke-linejoin:miter;"/>
     </defs>
     <g>
      <use style="fill:#d62728;stroke:#d62728;stroke-linejoin:miter;" x="421.26375" xlink:href="#m89c8ea91e7" y="60.050937"/>
     </g>
    </g>
    <g id="text_19">
     <!-- afl_scheduling_random -->
     <g transform="translate(439.26375 63.550937)scale(0.1 -0.1)">
      <use xlink:href="#DejaVuSans-61"/>
      <use x="61.279297" xlink:href="#DejaVuSans-66"/>
      <use x="96.484375" xlink:href="#DejaVuSans-6c"/>
      <use x="124.267578" xlink:href="#DejaVuSans-5f"/>
      <use x="174.267578" xlink:href="#DejaVuSans-73"/>
      <use x="226.367188" xlink:href="#DejaVuSans-63"/>
      <use x="281.347656" xlink:href="#DejaVuSans-68"/>
      <use x="344.726562" xlink:href="#DejaVuSans-65"/>
      <use x="406.25" xlink:href="#DejaVuSans-64"/>
      <use x="469.726562" xlink:href="#DejaVuSans-75"/>
      <use x="533.105469" xlink:href="#DejaVuSans-6c"/>
      <use x="560.888672" xlink:href="#DejaVuSans-69"/>
      <use x="588.671875" xlink:href="#DejaVuSans-6e"/>
      <use x="652.050781" xlink:href="#DejaVuSans-67"/>
      <use x="715.527344" xlink:href="#DejaVuSans-5f"/>
      <use x="765.527344" xlink:href="#DejaVuSans-72"/>
      <use x="806.640625" xlink:href="#DejaVuSans-61"/>
      <use x="867.919922" xlink:href="#DejaVuSans-6e"/>
      <use x="931.298828" xlink:href="#DejaVuSans-64"/>
      <use x="994.775391" xlink:href="#DejaVuSans-6f"/>
      <use x="1055.957031" xlink:href="#DejaVuSans-6d"/>
     </g>
    </g>
   </g>
  </g>
 </g>
 <defs>
  <clipPath id="pe569b94856">
   <rect height="266.112" width="357.12" x="50.14375" y="22.318125"/>
  </clipPath>
 </defs>
</svg>
