<?xml version="1.0" encoding="utf-8" standalone="no"?>
<!DOCTYPE svg PUBLIC "-//W3C//DTD SVG 1.1//EN"
  "http://www.w3.org/Graphics/SVG/1.1/DTD/svg11.dtd">
<svg height="325.986375pt" version="1.1" viewBox="0 0 568.985625 325.986375" width="568.985625pt" xmlns="http://www.w3.org/2000/svg" xmlns:xlink="http://www.w3.org/1999/xlink">
 <metadata>
  <rdf:RDF xmlns:cc="http://creativecommons.org/ns#" xmlns:dc="http://purl.org/dc/elements/1.1/" xmlns:rdf="http://www.w3.org/1999/02/22-rdf-syntax-ns#">
   <cc:Work>
    <dc:type rdf:resource="http://purl.org/dc/dcmitype/StillImage"/>
    <dc:date>2022-05-31T14:33:02.719347</dc:date>
    <dc:format>image/svg+xml</dc:format>
    <dc:creator>
     <cc:Agent>
      <dc:title>Matplotlib v3.4.3, https://matplotlib.org/</dc:title>
     </cc:Agent>
    </dc:creator>
   </cc:Work>
  </rdf:RDF>
 </metadata>
 <defs>
  <style type="text/css">*{stroke-linecap:butt;stroke-linejoin:round;}</style>
 </defs>
 <g id="figure_1">
  <g id="patch_1">
   <path d="M 0 325.986375 
L 568.985625 325.986375 
L 568.985625 0 
L 0 0 
z
" style="fill:#ffffff;"/>
  </g>
  <g id="axes_1">
   <g id="patch_2">
    <path d="M 53.328125 288.430125 
L 410.448125 288.430125 
L 410.448125 22.318125 
L 53.328125 22.318125 
z
" style="fill:#ffffff;"/>
   </g>
   <g id="PolyCollection_1">
    <defs>
     <path d="M 69.560852 -185.295256 
L 69.560852 -148.063348 
L 73.128485 -176.730169 
L 76.696117 -191.413175 
L 80.263749 -194.909129 
L 83.831382 -198.055487 
L 87.399014 -199.279071 
L 90.966646 -199.978262 
L 94.534279 -200.677452 
L 98.101911 -200.677452 
L 101.669544 -201.201845 
L 105.237176 -201.201845 
L 108.804808 -201.376643 
L 112.372441 -201.551441 
L 115.940073 -201.551441 
L 119.507705 -201.551441 
L 123.075338 -202.075834 
L 126.64297 -201.726238 
L 130.210603 -202.949822 
L 133.778235 -203.649013 
L 137.345867 -203.823811 
L 140.9135 -203.823811 
L 144.481132 -203.823811 
L 148.048764 -204.173406 
L 151.616397 -204.697799 
L 155.184029 -205.39699 
L 158.751661 -205.39699 
L 162.319294 -206.445776 
L 165.886926 -206.445776 
L 169.454559 -208.018955 
L 173.022191 -208.364181 
L 176.589823 -208.543348 
L 180.157456 -208.543348 
L 183.725088 -208.718146 
L 187.29272 -208.718146 
L 190.860353 -208.718146 
L 194.427985 -209.242539 
L 197.995618 -209.242539 
L 201.56325 -209.762562 
L 205.130882 -209.766932 
L 208.698515 -209.592134 
L 212.266147 -209.94173 
L 215.833779 -209.94173 
L 219.401412 -209.94173 
L 222.969044 -209.94173 
L 226.536676 -209.94173 
L 230.104309 -209.94173 
L 233.671941 -209.766932 
L 237.239574 -209.94173 
L 240.807206 -209.94173 
L 244.374838 -209.94173 
L 247.942471 -210.116527 
L 251.510103 -210.116527 
L 255.077735 -210.116527 
L 258.645368 -210.116527 
L 262.213 -210.116527 
L 265.780632 -210.116527 
L 269.348265 -210.116527 
L 272.915897 -210.116527 
L 276.48353 -210.116527 
L 280.051162 -210.116527 
L 283.618794 -210.116527 
L 287.186427 -210.116527 
L 290.754059 -210.116527 
L 294.321691 -210.116527 
L 297.889324 -210.116527 
L 301.456956 -210.116527 
L 305.024589 -210.116527 
L 308.592221 -210.116527 
L 312.159853 -210.116527 
L 315.727486 -220.953984 
L 319.295118 -224.799533 
L 322.86275 -240.006932 
L 326.430383 -240.006932 
L 329.998015 -240.006932 
L 333.565647 -240.006932 
L 337.13328 -240.006932 
L 340.700912 -241.230516 
L 344.268545 -240.880921 
L 347.836177 -241.230516 
L 351.403809 -240.880921 
L 354.971442 -240.880921 
L 358.539074 -240.880921 
L 362.106706 -240.880921 
L 365.674339 -240.880921 
L 369.241971 -240.880921 
L 372.809604 -240.880921 
L 376.377236 -241.055718 
L 379.944868 -241.405314 
L 383.512501 -241.405314 
L 387.080133 -241.405314 
L 390.647765 -241.405314 
L 394.215398 -241.405314 
L 394.215398 -284.929938 
L 394.215398 -284.929938 
L 390.647765 -284.75514 
L 387.080133 -284.580342 
L 383.512501 -284.929938 
L 379.944868 -284.75514 
L 376.377236 -284.75514 
L 372.809604 -284.75514 
L 369.241971 -284.75514 
L 365.674339 -284.75514 
L 362.106706 -284.75514 
L 358.539074 -284.75514 
L 354.971442 -284.75514 
L 351.403809 -284.929938 
L 347.836177 -284.75514 
L 344.268545 -284.929938 
L 340.700912 -284.75514 
L 337.13328 -284.75514 
L 333.565647 -284.75514 
L 329.998015 -284.75514 
L 326.430383 -284.405545 
L 322.86275 -284.405545 
L 319.295118 -284.405545 
L 315.727486 -284.405545 
L 312.159853 -284.405545 
L 308.592221 -284.230747 
L 305.024589 -284.230747 
L 301.456956 -284.230747 
L 297.889324 -284.230747 
L 294.321691 -284.230747 
L 290.754059 -284.230747 
L 287.186427 -284.230747 
L 283.618794 -284.230747 
L 280.051162 -284.055949 
L 276.48353 -284.055949 
L 272.915897 -284.055949 
L 269.348265 -284.055949 
L 265.780632 -283.706354 
L 262.213 -283.706354 
L 258.645368 -283.706354 
L 255.077735 -283.706354 
L 251.510103 -283.706354 
L 247.942471 -283.181961 
L 244.374838 -283.181961 
L 240.807206 -283.181961 
L 237.239574 -283.181961 
L 233.671941 -282.657568 
L 230.104309 -282.657568 
L 226.536676 -282.657568 
L 222.969044 -282.657568 
L 219.401412 -282.657568 
L 215.833779 -282.48277 
L 212.266147 -282.48277 
L 208.698515 -282.48277 
L 205.130882 -282.307973 
L 201.56325 -282.307973 
L 197.995618 -282.307973 
L 194.427985 -282.133175 
L 190.860353 -282.137545 
L 187.29272 -281.259186 
L 183.725088 -279.336412 
L 180.157456 -279.336412 
L 176.589823 -278.112828 
L 173.022191 -264.653406 
L 169.454559 -251.718377 
L 165.886926 -246.474447 
L 162.319294 -244.027279 
L 158.751661 -243.677684 
L 155.184029 -230.742655 
L 151.616397 -212.572435 
L 148.048764 -212.2141 
L 144.481132 -211.689707 
L 140.9135 -209.067741 
L 137.345867 -208.892944 
L 133.778235 -208.718146 
L 130.210603 -208.718146 
L 126.64297 -208.018955 
L 123.075338 -208.018955 
L 119.507705 -207.848527 
L 115.940073 -206.620574 
L 112.372441 -206.620574 
L 108.804808 -206.620574 
L 105.237176 -206.096181 
L 101.669544 -204.872597 
L 98.101911 -204.697799 
L 94.534279 -204.348204 
L 90.966646 -203.649013 
L 87.399014 -202.425429 
L 83.831382 -201.726238 
L 80.263749 -199.279071 
L 76.696117 -195.433522 
L 73.128485 -190.189591 
L 69.560852 -185.295256 
z
" id="m59afcd6af7" style="stroke:#d62728;stroke-opacity:0.2;"/>
    </defs>
    <g clip-path="url(#pbb3ced48fb)">
     <use style="fill:#d62728;fill-opacity:0.2;stroke:#d62728;stroke-opacity:0.2;" x="0" xlink:href="#m59afcd6af7" y="325.986375"/>
    </g>
   </g>
   <g id="PolyCollection_2">
    <defs>
     <path d="M 69.560852 -175.506585 
L 69.560852 -49.65225 
L 73.128485 -152.083695 
L 76.696117 -168.689475 
L 80.263749 -180.051325 
L 83.831382 -184.24647 
L 87.399014 -186.693637 
L 90.966646 -188.441614 
L 94.534279 -188.441614 
L 98.101911 -191.413175 
L 101.669544 -193.161152 
L 105.237176 -192.986354 
L 108.804808 -197.181499 
L 112.372441 -197.181499 
L 115.940073 -196.128342 
L 119.507705 -196.132712 
L 123.075338 -197.531094 
L 126.64297 -199.453868 
L 130.210603 -199.453868 
L 133.778235 -199.978262 
L 137.345867 -200.327857 
L 140.9135 -202.775025 
L 144.481132 -202.250632 
L 148.048764 -201.376643 
L 151.616397 -203.474215 
L 155.184029 -204.173406 
L 158.751661 -204.872597 
L 162.319294 -204.872597 
L 165.886926 -204.348204 
L 169.454559 -203.823811 
L 173.022191 -203.823811 
L 176.589823 -203.823811 
L 180.157456 -203.823811 
L 183.725088 -205.222192 
L 187.29272 -205.571788 
L 190.860353 -205.571788 
L 194.427985 -206.270978 
L 197.995618 -206.270978 
L 201.56325 -206.270978 
L 205.130882 -205.571788 
L 208.698515 -206.270978 
L 212.266147 -206.270978 
L 215.833779 -206.270978 
L 219.401412 -206.270978 
L 222.969044 -206.270978 
L 226.536676 -206.620574 
L 230.104309 -207.311025 
L 233.671941 -207.315395 
L 237.239574 -206.970169 
L 240.807206 -206.970169 
L 244.374838 -206.970169 
L 247.942471 -206.970169 
L 251.510103 -207.319764 
L 255.077735 -207.66499 
L 258.645368 -208.018955 
L 262.213 -207.66936 
L 265.780632 -208.368551 
L 269.348265 -208.543348 
L 272.915897 -208.543348 
L 276.48353 -208.368551 
L 280.051162 -208.368551 
L 283.618794 -210.116527 
L 287.186427 -209.94173 
L 290.754059 -209.94173 
L 294.321691 -209.94173 
L 297.889324 -209.592134 
L 301.456956 -209.94173 
L 305.024589 -210.116527 
L 308.592221 -210.116527 
L 312.159853 -210.116527 
L 315.727486 -210.116527 
L 319.295118 -210.116527 
L 322.86275 -210.116527 
L 326.430383 -210.990516 
L 329.998015 -211.514909 
L 333.565647 -210.990516 
L 337.13328 -211.514909 
L 340.700912 -211.864504 
L 344.268545 -211.864504 
L 347.836177 -211.864504 
L 351.403809 -211.864504 
L 354.971442 -211.864504 
L 358.539074 -212.91329 
L 362.106706 -211.864504 
L 365.674339 -211.864504 
L 369.241971 -211.501799 
L 372.809604 -210.990516 
L 376.377236 -210.990516 
L 379.944868 -210.990516 
L 383.512501 -211.864504 
L 387.080133 -211.864504 
L 390.647765 -216.059649 
L 394.215398 -212.388897 
L 394.215398 -291.57225 
L 394.215398 -291.57225 
L 390.647765 -291.57225 
L 387.080133 -291.57225 
L 383.512501 -291.57225 
L 379.944868 -291.222655 
L 376.377236 -290.873059 
L 372.809604 -290.873059 
L 369.241971 -290.873059 
L 365.674339 -291.57225 
L 362.106706 -291.57225 
L 358.539074 -291.57225 
L 354.971442 -291.57225 
L 351.403809 -291.57225 
L 347.836177 -291.57225 
L 344.268545 -291.57225 
L 340.700912 -291.57225 
L 337.13328 -291.222655 
L 333.565647 -291.222655 
L 329.998015 -290.873059 
L 326.430383 -291.222655 
L 322.86275 -291.57225 
L 319.295118 -291.57225 
L 315.727486 -291.57225 
L 312.159853 -291.57225 
L 308.592221 -291.57225 
L 305.024589 -291.57225 
L 301.456956 -289.824273 
L 297.889324 -289.824273 
L 294.321691 -290.698262 
L 290.754059 -290.698262 
L 287.186427 -289.824273 
L 283.618794 -291.57225 
L 280.051162 -289.824273 
L 276.48353 -289.824273 
L 272.915897 -284.929938 
L 269.348265 -281.608782 
L 265.780632 -280.909591 
L 262.213 -283.181961 
L 258.645368 -282.670678 
L 255.077735 -281.259186 
L 251.510103 -280.918331 
L 247.942471 -281.259186 
L 244.374838 -281.259186 
L 240.807206 -281.259186 
L 237.239574 -280.035603 
L 233.671941 -279.686007 
L 230.104309 -278.637221 
L 226.536676 -279.336412 
L 222.969044 -279.336412 
L 219.401412 -279.336412 
L 215.833779 -279.336412 
L 212.266147 -279.336412 
L 208.698515 -279.336412 
L 205.130882 -279.336412 
L 201.56325 -278.287626 
L 197.995618 -271.295718 
L 194.427985 -273.917684 
L 190.860353 -271.295718 
L 187.29272 -271.120921 
L 183.725088 -271.295718 
L 180.157456 -271.295718 
L 176.589823 -270.946123 
L 173.022191 -270.946123 
L 169.454559 -270.246932 
L 165.886926 -263.954215 
L 162.319294 -251.019186 
L 158.751661 -250.319996 
L 155.184029 -246.474447 
L 151.616397 -227.596296 
L 148.048764 -223.051556 
L 144.481132 -212.738493 
L 140.9135 -212.563695 
L 137.345867 -212.388897 
L 133.778235 -210.815718 
L 130.210603 -208.910423 
L 126.64297 -208.368551 
L 123.075338 -209.592134 
L 119.507705 -210.815718 
L 115.940073 -208.368551 
L 112.372441 -208.368551 
L 108.804808 -207.319764 
L 105.237176 -202.080204 
L 101.669544 -202.250632 
L 98.101911 -203.12462 
L 94.534279 -203.12462 
L 90.966646 -203.12462 
L 87.399014 -201.027048 
L 83.831382 -199.628666 
L 80.263749 -198.929475 
L 76.696117 -198.57988 
L 73.128485 -190.539186 
L 69.560852 -175.506585 
z
" id="m1f190a6c48" style="stroke:#1f77b4;stroke-opacity:0.2;"/>
    </defs>
    <g clip-path="url(#pbb3ced48fb)">
     <use style="fill:#1f77b4;fill-opacity:0.2;stroke:#1f77b4;stroke-opacity:0.2;" x="0" xlink:href="#m1f190a6c48" y="325.986375"/>
    </g>
   </g>
   <g id="PolyCollection_3">
    <defs>
     <path d="M 69.560852 -133.030747 
L 69.560852 -71.327163 
L 73.128485 -94.22566 
L 76.696117 -110.481845 
L 80.263749 -121.668897 
L 83.831382 -124.116065 
L 87.399014 -128.835603 
L 90.966646 -132.855949 
L 94.534279 -134.603926 
L 98.101911 -137.225892 
L 101.669544 -140.37225 
L 105.237176 -142.994215 
L 108.804808 -142.994215 
L 112.372441 -143.343811 
L 115.940073 -145.091788 
L 119.507705 -145.091788 
L 123.075338 -146.140574 
L 126.64297 -145.616181 
L 130.210603 -145.441383 
L 133.778235 -145.091788 
L 137.345867 -146.839764 
L 140.9135 -147.359788 
L 144.481132 -150.335718 
L 148.048764 -150.335718 
L 151.616397 -147.888551 
L 155.184029 -147.888551 
L 158.751661 -150.335718 
L 162.319294 -150.335718 
L 165.886926 -152.782886 
L 169.454559 -152.43329 
L 173.022191 -152.380851 
L 176.589823 -151.7341 
L 180.157456 -152.083695 
L 183.725088 -152.782886 
L 187.29272 -155.579649 
L 190.860353 -154.530863 
L 194.427985 -156.27884 
L 197.995618 -156.27884 
L 201.56325 -156.27884 
L 205.130882 -154.880458 
L 208.698515 -156.27884 
L 212.266147 -156.97803 
L 215.833779 -155.230053 
L 219.401412 -155.230053 
L 222.969044 -156.97803 
L 226.536676 -156.763903 
L 230.104309 -155.404851 
L 233.671941 -155.404851 
L 237.239574 -156.97803 
L 240.807206 -156.97803 
L 244.374838 -156.951811 
L 247.942471 -156.97803 
L 251.510103 -156.97803 
L 255.077735 -158.026816 
L 258.645368 -157.502423 
L 262.213 -157.502423 
L 265.780632 -158.026816 
L 269.348265 -158.026816 
L 272.915897 -160.473984 
L 276.48353 -158.026816 
L 280.051162 -158.026816 
L 283.618794 -162.746354 
L 287.186427 -167.465892 
L 290.754059 -165.014354 
L 294.321691 -167.465892 
L 297.889324 -167.465892 
L 301.456956 -167.465892 
L 305.024589 -167.465892 
L 308.592221 -168.514678 
L 312.159853 -168.514678 
L 315.727486 -169.563464 
L 319.295118 -169.563464 
L 322.86275 -169.563464 
L 326.430383 -169.913059 
L 329.998015 -175.856181 
L 333.565647 -167.465892 
L 337.13328 -170.262655 
L 340.700912 -170.262655 
L 344.268545 -171.311441 
L 347.836177 -171.311441 
L 351.403809 -175.506585 
L 354.971442 -170.262655 
L 358.539074 -169.738262 
L 362.106706 -168.645776 
L 365.674339 -173.059418 
L 369.241971 -174.457799 
L 372.809604 -175.681383 
L 376.377236 -173.059418 
L 379.944868 -173.059418 
L 383.512501 -173.059418 
L 387.080133 -173.059418 
L 390.647765 -173.059418 
L 394.215398 -173.409013 
L 394.215398 -197.880689 
L 394.215398 -197.880689 
L 390.647765 -197.880689 
L 387.080133 -197.880689 
L 383.512501 -196.132712 
L 379.944868 -195.783117 
L 376.377236 -195.783117 
L 372.809604 -193.161152 
L 369.241971 -193.860342 
L 365.674339 -195.783117 
L 362.106706 -195.783117 
L 358.539074 -195.783117 
L 354.971442 -195.783117 
L 351.403809 -191.937568 
L 347.836177 -193.161152 
L 344.268545 -191.238377 
L 340.700912 -195.783117 
L 337.13328 -195.783117 
L 333.565647 -196.482308 
L 329.998015 -195.783117 
L 326.430383 -193.510747 
L 322.86275 -193.510747 
L 319.295118 -191.238377 
L 315.727486 -190.888782 
L 312.159853 -190.888782 
L 308.592221 -192.986354 
L 305.024589 -195.783117 
L 301.456956 -195.783117 
L 297.889324 -195.783117 
L 294.321691 -195.783117 
L 290.754059 -193.161152 
L 287.186427 -190.539186 
L 283.618794 -192.990724 
L 280.051162 -195.783117 
L 276.48353 -195.783117 
L 272.915897 -195.433522 
L 269.348265 -195.433522 
L 265.780632 -192.461961 
L 262.213 -192.461961 
L 258.645368 -192.986354 
L 255.077735 -192.986354 
L 251.510103 -195.433522 
L 247.942471 -192.986354 
L 244.374838 -192.986354 
L 240.807206 -190.539186 
L 237.239574 -190.539186 
L 233.671941 -190.713984 
L 230.104309 -190.539186 
L 226.536676 -190.539186 
L 222.969044 -190.539186 
L 219.401412 -189.315603 
L 215.833779 -189.315603 
L 212.266147 -190.539186 
L 208.698515 -191.76277 
L 205.130882 -191.587973 
L 201.56325 -190.189591 
L 197.995618 -189.4904 
L 194.427985 -189.4904 
L 190.860353 -189.5341 
L 187.29272 -188.092019 
L 183.725088 -188.092019 
L 180.157456 -188.092019 
L 176.589823 -188.092019 
L 173.022191 -187.392828 
L 169.454559 -185.295256 
L 165.886926 -184.94566 
L 162.319294 -182.148897 
L 158.751661 -182.148897 
L 155.184029 -182.148897 
L 151.616397 -178.652944 
L 148.048764 -177.953753 
L 144.481132 -177.254562 
L 140.9135 -173.234215 
L 137.345867 -173.234215 
L 133.778235 -175.856181 
L 130.210603 -175.506585 
L 126.64297 -175.506585 
L 123.075338 -172.010632 
L 119.507705 -173.059418 
L 115.940073 -171.835834 
L 112.372441 -171.311441 
L 108.804808 -171.311441 
L 105.237176 -171.311441 
L 101.669544 -165.543117 
L 98.101911 -167.640689 
L 94.534279 -166.251048 
L 90.966646 -167.465892 
L 87.399014 -165.193522 
L 83.831382 -161.697568 
L 80.263749 -157.852019 
L 76.696117 -149.986123 
L 73.128485 -144.742192 
L 69.560852 -133.030747 
z
" id="m8338a7c4d5" style="stroke:#98df8a;stroke-opacity:0.2;"/>
    </defs>
    <g clip-path="url(#pbb3ced48fb)">
     <use style="fill:#98df8a;fill-opacity:0.2;stroke:#98df8a;stroke-opacity:0.2;" x="0" xlink:href="#m8338a7c4d5" y="325.986375"/>
    </g>
   </g>
   <g id="matplotlib.axis_1">
    <g id="xtick_1">
     <g id="line2d_1">
      <defs>
       <path d="M 0 0 
L 0 3.5 
" id="mdb1f1abd36" style="stroke:#000000;stroke-width:0.8;"/>
      </defs>
      <g>
       <use style="stroke:#000000;stroke-width:0.8;" x="69.560852" xlink:href="#mdb1f1abd36" y="288.430125"/>
      </g>
     </g>
     <g id="text_1">
      <!-- 15m -->
      <g transform="translate(58.32804 303.028562)scale(0.1 -0.1)">
       <defs>
        <path d="M 794 531 
L 1825 531 
L 1825 4091 
L 703 3866 
L 703 4441 
L 1819 4666 
L 2450 4666 
L 2450 531 
L 3481 531 
L 3481 0 
L 794 0 
L 794 531 
z
" id="DejaVuSans-31" transform="scale(0.015625)"/>
        <path d="M 691 4666 
L 3169 4666 
L 3169 4134 
L 1269 4134 
L 1269 2991 
Q 1406 3038 1543 3061 
Q 1681 3084 1819 3084 
Q 2600 3084 3056 2656 
Q 3513 2228 3513 1497 
Q 3513 744 3044 326 
Q 2575 -91 1722 -91 
Q 1428 -91 1123 -41 
Q 819 9 494 109 
L 494 744 
Q 775 591 1075 516 
Q 1375 441 1709 441 
Q 2250 441 2565 725 
Q 2881 1009 2881 1497 
Q 2881 1984 2565 2268 
Q 2250 2553 1709 2553 
Q 1456 2553 1204 2497 
Q 953 2441 691 2322 
L 691 4666 
z
" id="DejaVuSans-35" transform="scale(0.015625)"/>
        <path d="M 3328 2828 
Q 3544 3216 3844 3400 
Q 4144 3584 4550 3584 
Q 5097 3584 5394 3201 
Q 5691 2819 5691 2113 
L 5691 0 
L 5113 0 
L 5113 2094 
Q 5113 2597 4934 2840 
Q 4756 3084 4391 3084 
Q 3944 3084 3684 2787 
Q 3425 2491 3425 1978 
L 3425 0 
L 2847 0 
L 2847 2094 
Q 2847 2600 2669 2842 
Q 2491 3084 2119 3084 
Q 1678 3084 1418 2786 
Q 1159 2488 1159 1978 
L 1159 0 
L 581 0 
L 581 3500 
L 1159 3500 
L 1159 2956 
Q 1356 3278 1631 3431 
Q 1906 3584 2284 3584 
Q 2666 3584 2933 3390 
Q 3200 3197 3328 2828 
z
" id="DejaVuSans-6d" transform="scale(0.015625)"/>
       </defs>
       <use xlink:href="#DejaVuSans-31"/>
       <use x="63.623047" xlink:href="#DejaVuSans-35"/>
       <use x="127.246094" xlink:href="#DejaVuSans-6d"/>
      </g>
     </g>
    </g>
    <g id="xtick_2">
     <g id="line2d_2">
      <g>
       <use style="stroke:#000000;stroke-width:0.8;" x="124.264549" xlink:href="#mdb1f1abd36" y="288.430125"/>
      </g>
     </g>
     <g id="text_2">
      <!-- 4h:5m -->
      <g transform="translate(108.178611 303.028562)scale(0.1 -0.1)">
       <defs>
        <path d="M 2419 4116 
L 825 1625 
L 2419 1625 
L 2419 4116 
z
M 2253 4666 
L 3047 4666 
L 3047 1625 
L 3713 1625 
L 3713 1100 
L 3047 1100 
L 3047 0 
L 2419 0 
L 2419 1100 
L 313 1100 
L 313 1709 
L 2253 4666 
z
" id="DejaVuSans-34" transform="scale(0.015625)"/>
        <path d="M 3513 2113 
L 3513 0 
L 2938 0 
L 2938 2094 
Q 2938 2591 2744 2837 
Q 2550 3084 2163 3084 
Q 1697 3084 1428 2787 
Q 1159 2491 1159 1978 
L 1159 0 
L 581 0 
L 581 4863 
L 1159 4863 
L 1159 2956 
Q 1366 3272 1645 3428 
Q 1925 3584 2291 3584 
Q 2894 3584 3203 3211 
Q 3513 2838 3513 2113 
z
" id="DejaVuSans-68" transform="scale(0.015625)"/>
        <path d="M 750 794 
L 1409 794 
L 1409 0 
L 750 0 
L 750 794 
z
M 750 3309 
L 1409 3309 
L 1409 2516 
L 750 2516 
L 750 3309 
z
" id="DejaVuSans-3a" transform="scale(0.015625)"/>
       </defs>
       <use xlink:href="#DejaVuSans-34"/>
       <use x="63.623047" xlink:href="#DejaVuSans-68"/>
       <use x="127.001953" xlink:href="#DejaVuSans-3a"/>
       <use x="160.693359" xlink:href="#DejaVuSans-35"/>
       <use x="224.316406" xlink:href="#DejaVuSans-6d"/>
      </g>
     </g>
    </g>
    <g id="xtick_3">
     <g id="line2d_3">
      <g>
       <use style="stroke:#000000;stroke-width:0.8;" x="178.968245" xlink:href="#mdb1f1abd36" y="288.430125"/>
      </g>
     </g>
     <g id="text_3">
      <!-- 7h:55m -->
      <g transform="translate(159.701057 303.028562)scale(0.1 -0.1)">
       <defs>
        <path d="M 525 4666 
L 3525 4666 
L 3525 4397 
L 1831 0 
L 1172 0 
L 2766 4134 
L 525 4134 
L 525 4666 
z
" id="DejaVuSans-37" transform="scale(0.015625)"/>
       </defs>
       <use xlink:href="#DejaVuSans-37"/>
       <use x="63.623047" xlink:href="#DejaVuSans-68"/>
       <use x="127.001953" xlink:href="#DejaVuSans-3a"/>
       <use x="160.693359" xlink:href="#DejaVuSans-35"/>
       <use x="224.316406" xlink:href="#DejaVuSans-35"/>
       <use x="287.939453" xlink:href="#DejaVuSans-6d"/>
      </g>
     </g>
    </g>
    <g id="xtick_4">
     <g id="line2d_4">
      <g>
       <use style="stroke:#000000;stroke-width:0.8;" x="233.671941" xlink:href="#mdb1f1abd36" y="288.430125"/>
      </g>
     </g>
     <g id="text_4">
      <!-- 11h:45m -->
      <g transform="translate(211.223504 303.028562)scale(0.1 -0.1)">
       <use xlink:href="#DejaVuSans-31"/>
       <use x="63.623047" xlink:href="#DejaVuSans-31"/>
       <use x="127.246094" xlink:href="#DejaVuSans-68"/>
       <use x="190.625" xlink:href="#DejaVuSans-3a"/>
       <use x="224.316406" xlink:href="#DejaVuSans-34"/>
       <use x="287.939453" xlink:href="#DejaVuSans-35"/>
       <use x="351.5625" xlink:href="#DejaVuSans-6d"/>
      </g>
     </g>
    </g>
    <g id="xtick_5">
     <g id="line2d_5">
      <g>
       <use style="stroke:#000000;stroke-width:0.8;" x="288.375637" xlink:href="#mdb1f1abd36" y="288.430125"/>
      </g>
     </g>
     <g id="text_5">
      <!-- 15h:35m -->
      <g transform="translate(265.9272 303.028562)scale(0.1 -0.1)">
       <defs>
        <path d="M 2597 2516 
Q 3050 2419 3304 2112 
Q 3559 1806 3559 1356 
Q 3559 666 3084 287 
Q 2609 -91 1734 -91 
Q 1441 -91 1130 -33 
Q 819 25 488 141 
L 488 750 
Q 750 597 1062 519 
Q 1375 441 1716 441 
Q 2309 441 2620 675 
Q 2931 909 2931 1356 
Q 2931 1769 2642 2001 
Q 2353 2234 1838 2234 
L 1294 2234 
L 1294 2753 
L 1863 2753 
Q 2328 2753 2575 2939 
Q 2822 3125 2822 3475 
Q 2822 3834 2567 4026 
Q 2313 4219 1838 4219 
Q 1578 4219 1281 4162 
Q 984 4106 628 3988 
L 628 4550 
Q 988 4650 1302 4700 
Q 1616 4750 1894 4750 
Q 2613 4750 3031 4423 
Q 3450 4097 3450 3541 
Q 3450 3153 3228 2886 
Q 3006 2619 2597 2516 
z
" id="DejaVuSans-33" transform="scale(0.015625)"/>
       </defs>
       <use xlink:href="#DejaVuSans-31"/>
       <use x="63.623047" xlink:href="#DejaVuSans-35"/>
       <use x="127.246094" xlink:href="#DejaVuSans-68"/>
       <use x="190.625" xlink:href="#DejaVuSans-3a"/>
       <use x="224.316406" xlink:href="#DejaVuSans-33"/>
       <use x="287.939453" xlink:href="#DejaVuSans-35"/>
       <use x="351.5625" xlink:href="#DejaVuSans-6d"/>
      </g>
     </g>
    </g>
    <g id="xtick_6">
     <g id="line2d_6">
      <g>
       <use style="stroke:#000000;stroke-width:0.8;" x="343.079334" xlink:href="#mdb1f1abd36" y="288.430125"/>
      </g>
     </g>
     <g id="text_6">
      <!-- 19h:25m -->
      <g transform="translate(320.630896 303.028562)scale(0.1 -0.1)">
       <defs>
        <path d="M 703 97 
L 703 672 
Q 941 559 1184 500 
Q 1428 441 1663 441 
Q 2288 441 2617 861 
Q 2947 1281 2994 2138 
Q 2813 1869 2534 1725 
Q 2256 1581 1919 1581 
Q 1219 1581 811 2004 
Q 403 2428 403 3163 
Q 403 3881 828 4315 
Q 1253 4750 1959 4750 
Q 2769 4750 3195 4129 
Q 3622 3509 3622 2328 
Q 3622 1225 3098 567 
Q 2575 -91 1691 -91 
Q 1453 -91 1209 -44 
Q 966 3 703 97 
z
M 1959 2075 
Q 2384 2075 2632 2365 
Q 2881 2656 2881 3163 
Q 2881 3666 2632 3958 
Q 2384 4250 1959 4250 
Q 1534 4250 1286 3958 
Q 1038 3666 1038 3163 
Q 1038 2656 1286 2365 
Q 1534 2075 1959 2075 
z
" id="DejaVuSans-39" transform="scale(0.015625)"/>
        <path d="M 1228 531 
L 3431 531 
L 3431 0 
L 469 0 
L 469 531 
Q 828 903 1448 1529 
Q 2069 2156 2228 2338 
Q 2531 2678 2651 2914 
Q 2772 3150 2772 3378 
Q 2772 3750 2511 3984 
Q 2250 4219 1831 4219 
Q 1534 4219 1204 4116 
Q 875 4013 500 3803 
L 500 4441 
Q 881 4594 1212 4672 
Q 1544 4750 1819 4750 
Q 2544 4750 2975 4387 
Q 3406 4025 3406 3419 
Q 3406 3131 3298 2873 
Q 3191 2616 2906 2266 
Q 2828 2175 2409 1742 
Q 1991 1309 1228 531 
z
" id="DejaVuSans-32" transform="scale(0.015625)"/>
       </defs>
       <use xlink:href="#DejaVuSans-31"/>
       <use x="63.623047" xlink:href="#DejaVuSans-39"/>
       <use x="127.246094" xlink:href="#DejaVuSans-68"/>
       <use x="190.625" xlink:href="#DejaVuSans-3a"/>
       <use x="224.316406" xlink:href="#DejaVuSans-32"/>
       <use x="287.939453" xlink:href="#DejaVuSans-35"/>
       <use x="351.5625" xlink:href="#DejaVuSans-6d"/>
      </g>
     </g>
    </g>
    <g id="text_7">
     <!-- Time (hour:minute) -->
     <g transform="translate(183.481094 316.706687)scale(0.1 -0.1)">
      <defs>
       <path d="M -19 4666 
L 3928 4666 
L 3928 4134 
L 2272 4134 
L 2272 0 
L 1638 0 
L 1638 4134 
L -19 4134 
L -19 4666 
z
" id="DejaVuSans-54" transform="scale(0.015625)"/>
       <path d="M 603 3500 
L 1178 3500 
L 1178 0 
L 603 0 
L 603 3500 
z
M 603 4863 
L 1178 4863 
L 1178 4134 
L 603 4134 
L 603 4863 
z
" id="DejaVuSans-69" transform="scale(0.015625)"/>
       <path d="M 3597 1894 
L 3597 1613 
L 953 1613 
Q 991 1019 1311 708 
Q 1631 397 2203 397 
Q 2534 397 2845 478 
Q 3156 559 3463 722 
L 3463 178 
Q 3153 47 2828 -22 
Q 2503 -91 2169 -91 
Q 1331 -91 842 396 
Q 353 884 353 1716 
Q 353 2575 817 3079 
Q 1281 3584 2069 3584 
Q 2775 3584 3186 3129 
Q 3597 2675 3597 1894 
z
M 3022 2063 
Q 3016 2534 2758 2815 
Q 2500 3097 2075 3097 
Q 1594 3097 1305 2825 
Q 1016 2553 972 2059 
L 3022 2063 
z
" id="DejaVuSans-65" transform="scale(0.015625)"/>
       <path id="DejaVuSans-20" transform="scale(0.015625)"/>
       <path d="M 1984 4856 
Q 1566 4138 1362 3434 
Q 1159 2731 1159 2009 
Q 1159 1288 1364 580 
Q 1569 -128 1984 -844 
L 1484 -844 
Q 1016 -109 783 600 
Q 550 1309 550 2009 
Q 550 2706 781 3412 
Q 1013 4119 1484 4856 
L 1984 4856 
z
" id="DejaVuSans-28" transform="scale(0.015625)"/>
       <path d="M 1959 3097 
Q 1497 3097 1228 2736 
Q 959 2375 959 1747 
Q 959 1119 1226 758 
Q 1494 397 1959 397 
Q 2419 397 2687 759 
Q 2956 1122 2956 1747 
Q 2956 2369 2687 2733 
Q 2419 3097 1959 3097 
z
M 1959 3584 
Q 2709 3584 3137 3096 
Q 3566 2609 3566 1747 
Q 3566 888 3137 398 
Q 2709 -91 1959 -91 
Q 1206 -91 779 398 
Q 353 888 353 1747 
Q 353 2609 779 3096 
Q 1206 3584 1959 3584 
z
" id="DejaVuSans-6f" transform="scale(0.015625)"/>
       <path d="M 544 1381 
L 544 3500 
L 1119 3500 
L 1119 1403 
Q 1119 906 1312 657 
Q 1506 409 1894 409 
Q 2359 409 2629 706 
Q 2900 1003 2900 1516 
L 2900 3500 
L 3475 3500 
L 3475 0 
L 2900 0 
L 2900 538 
Q 2691 219 2414 64 
Q 2138 -91 1772 -91 
Q 1169 -91 856 284 
Q 544 659 544 1381 
z
M 1991 3584 
L 1991 3584 
z
" id="DejaVuSans-75" transform="scale(0.015625)"/>
       <path d="M 2631 2963 
Q 2534 3019 2420 3045 
Q 2306 3072 2169 3072 
Q 1681 3072 1420 2755 
Q 1159 2438 1159 1844 
L 1159 0 
L 581 0 
L 581 3500 
L 1159 3500 
L 1159 2956 
Q 1341 3275 1631 3429 
Q 1922 3584 2338 3584 
Q 2397 3584 2469 3576 
Q 2541 3569 2628 3553 
L 2631 2963 
z
" id="DejaVuSans-72" transform="scale(0.015625)"/>
       <path d="M 3513 2113 
L 3513 0 
L 2938 0 
L 2938 2094 
Q 2938 2591 2744 2837 
Q 2550 3084 2163 3084 
Q 1697 3084 1428 2787 
Q 1159 2491 1159 1978 
L 1159 0 
L 581 0 
L 581 3500 
L 1159 3500 
L 1159 2956 
Q 1366 3272 1645 3428 
Q 1925 3584 2291 3584 
Q 2894 3584 3203 3211 
Q 3513 2838 3513 2113 
z
" id="DejaVuSans-6e" transform="scale(0.015625)"/>
       <path d="M 1172 4494 
L 1172 3500 
L 2356 3500 
L 2356 3053 
L 1172 3053 
L 1172 1153 
Q 1172 725 1289 603 
Q 1406 481 1766 481 
L 2356 481 
L 2356 0 
L 1766 0 
Q 1100 0 847 248 
Q 594 497 594 1153 
L 594 3053 
L 172 3053 
L 172 3500 
L 594 3500 
L 594 4494 
L 1172 4494 
z
" id="DejaVuSans-74" transform="scale(0.015625)"/>
       <path d="M 513 4856 
L 1013 4856 
Q 1481 4119 1714 3412 
Q 1947 2706 1947 2009 
Q 1947 1309 1714 600 
Q 1481 -109 1013 -844 
L 513 -844 
Q 928 -128 1133 580 
Q 1338 1288 1338 2009 
Q 1338 2731 1133 3434 
Q 928 4138 513 4856 
z
" id="DejaVuSans-29" transform="scale(0.015625)"/>
      </defs>
      <use xlink:href="#DejaVuSans-54"/>
      <use x="57.958984" xlink:href="#DejaVuSans-69"/>
      <use x="85.742188" xlink:href="#DejaVuSans-6d"/>
      <use x="183.154297" xlink:href="#DejaVuSans-65"/>
      <use x="244.677734" xlink:href="#DejaVuSans-20"/>
      <use x="276.464844" xlink:href="#DejaVuSans-28"/>
      <use x="315.478516" xlink:href="#DejaVuSans-68"/>
      <use x="378.857422" xlink:href="#DejaVuSans-6f"/>
      <use x="440.039062" xlink:href="#DejaVuSans-75"/>
      <use x="503.417969" xlink:href="#DejaVuSans-72"/>
      <use x="542.78125" xlink:href="#DejaVuSans-3a"/>
      <use x="576.472656" xlink:href="#DejaVuSans-6d"/>
      <use x="673.884766" xlink:href="#DejaVuSans-69"/>
      <use x="701.667969" xlink:href="#DejaVuSans-6e"/>
      <use x="765.046875" xlink:href="#DejaVuSans-75"/>
      <use x="828.425781" xlink:href="#DejaVuSans-74"/>
      <use x="867.634766" xlink:href="#DejaVuSans-65"/>
      <use x="929.158203" xlink:href="#DejaVuSans-29"/>
     </g>
    </g>
   </g>
   <g id="matplotlib.axis_2">
    <g id="ytick_1">
     <g id="line2d_7">
      <defs>
       <path d="M 0 0 
L -3.5 0 
" id="m712fd93bd4" style="stroke:#000000;stroke-width:0.8;"/>
      </defs>
      <g>
       <use style="stroke:#000000;stroke-width:0.8;" x="53.328125" xlink:href="#m712fd93bd4" y="260.951928"/>
      </g>
     </g>
     <g id="text_8">
      <!-- 2000 -->
      <g transform="translate(20.878125 264.751147)scale(0.1 -0.1)">
       <defs>
        <path d="M 2034 4250 
Q 1547 4250 1301 3770 
Q 1056 3291 1056 2328 
Q 1056 1369 1301 889 
Q 1547 409 2034 409 
Q 2525 409 2770 889 
Q 3016 1369 3016 2328 
Q 3016 3291 2770 3770 
Q 2525 4250 2034 4250 
z
M 2034 4750 
Q 2819 4750 3233 4129 
Q 3647 3509 3647 2328 
Q 3647 1150 3233 529 
Q 2819 -91 2034 -91 
Q 1250 -91 836 529 
Q 422 1150 422 2328 
Q 422 3509 836 4129 
Q 1250 4750 2034 4750 
z
" id="DejaVuSans-30" transform="scale(0.015625)"/>
       </defs>
       <use xlink:href="#DejaVuSans-32"/>
       <use x="63.623047" xlink:href="#DejaVuSans-30"/>
       <use x="127.246094" xlink:href="#DejaVuSans-30"/>
       <use x="190.869141" xlink:href="#DejaVuSans-30"/>
      </g>
     </g>
    </g>
    <g id="ytick_2">
     <g id="line2d_8">
      <g>
       <use style="stroke:#000000;stroke-width:0.8;" x="53.328125" xlink:href="#m712fd93bd4" y="225.992391"/>
      </g>
     </g>
     <g id="text_9">
      <!-- 2100 -->
      <g transform="translate(20.878125 229.79161)scale(0.1 -0.1)">
       <use xlink:href="#DejaVuSans-32"/>
       <use x="63.623047" xlink:href="#DejaVuSans-31"/>
       <use x="127.246094" xlink:href="#DejaVuSans-30"/>
       <use x="190.869141" xlink:href="#DejaVuSans-30"/>
      </g>
     </g>
    </g>
    <g id="ytick_3">
     <g id="line2d_9">
      <g>
       <use style="stroke:#000000;stroke-width:0.8;" x="53.328125" xlink:href="#m712fd93bd4" y="191.032853"/>
      </g>
     </g>
     <g id="text_10">
      <!-- 2200 -->
      <g transform="translate(20.878125 194.832072)scale(0.1 -0.1)">
       <use xlink:href="#DejaVuSans-32"/>
       <use x="63.623047" xlink:href="#DejaVuSans-32"/>
       <use x="127.246094" xlink:href="#DejaVuSans-30"/>
       <use x="190.869141" xlink:href="#DejaVuSans-30"/>
      </g>
     </g>
    </g>
    <g id="ytick_4">
     <g id="line2d_10">
      <g>
       <use style="stroke:#000000;stroke-width:0.8;" x="53.328125" xlink:href="#m712fd93bd4" y="156.073316"/>
      </g>
     </g>
     <g id="text_11">
      <!-- 2300 -->
      <g transform="translate(20.878125 159.872535)scale(0.1 -0.1)">
       <use xlink:href="#DejaVuSans-32"/>
       <use x="63.623047" xlink:href="#DejaVuSans-33"/>
       <use x="127.246094" xlink:href="#DejaVuSans-30"/>
       <use x="190.869141" xlink:href="#DejaVuSans-30"/>
      </g>
     </g>
    </g>
    <g id="ytick_5">
     <g id="line2d_11">
      <g>
       <use style="stroke:#000000;stroke-width:0.8;" x="53.328125" xlink:href="#m712fd93bd4" y="121.113778"/>
      </g>
     </g>
     <g id="text_12">
      <!-- 2400 -->
      <g transform="translate(20.878125 124.912997)scale(0.1 -0.1)">
       <use xlink:href="#DejaVuSans-32"/>
       <use x="63.623047" xlink:href="#DejaVuSans-34"/>
       <use x="127.246094" xlink:href="#DejaVuSans-30"/>
       <use x="190.869141" xlink:href="#DejaVuSans-30"/>
      </g>
     </g>
    </g>
    <g id="ytick_6">
     <g id="line2d_12">
      <g>
       <use style="stroke:#000000;stroke-width:0.8;" x="53.328125" xlink:href="#m712fd93bd4" y="86.154241"/>
      </g>
     </g>
     <g id="text_13">
      <!-- 2500 -->
      <g transform="translate(20.878125 89.953459)scale(0.1 -0.1)">
       <use xlink:href="#DejaVuSans-32"/>
       <use x="63.623047" xlink:href="#DejaVuSans-35"/>
       <use x="127.246094" xlink:href="#DejaVuSans-30"/>
       <use x="190.869141" xlink:href="#DejaVuSans-30"/>
      </g>
     </g>
    </g>
    <g id="ytick_7">
     <g id="line2d_13">
      <g>
       <use style="stroke:#000000;stroke-width:0.8;" x="53.328125" xlink:href="#m712fd93bd4" y="51.194703"/>
      </g>
     </g>
     <g id="text_14">
      <!-- 2600 -->
      <g transform="translate(20.878125 54.993922)scale(0.1 -0.1)">
       <defs>
        <path d="M 2113 2584 
Q 1688 2584 1439 2293 
Q 1191 2003 1191 1497 
Q 1191 994 1439 701 
Q 1688 409 2113 409 
Q 2538 409 2786 701 
Q 3034 994 3034 1497 
Q 3034 2003 2786 2293 
Q 2538 2584 2113 2584 
z
M 3366 4563 
L 3366 3988 
Q 3128 4100 2886 4159 
Q 2644 4219 2406 4219 
Q 1781 4219 1451 3797 
Q 1122 3375 1075 2522 
Q 1259 2794 1537 2939 
Q 1816 3084 2150 3084 
Q 2853 3084 3261 2657 
Q 3669 2231 3669 1497 
Q 3669 778 3244 343 
Q 2819 -91 2113 -91 
Q 1303 -91 875 529 
Q 447 1150 447 2328 
Q 447 3434 972 4092 
Q 1497 4750 2381 4750 
Q 2619 4750 2861 4703 
Q 3103 4656 3366 4563 
z
" id="DejaVuSans-36" transform="scale(0.015625)"/>
       </defs>
       <use xlink:href="#DejaVuSans-32"/>
       <use x="63.623047" xlink:href="#DejaVuSans-36"/>
       <use x="127.246094" xlink:href="#DejaVuSans-30"/>
       <use x="190.869141" xlink:href="#DejaVuSans-30"/>
      </g>
     </g>
    </g>
    <g id="text_15">
     <!-- Code region coverage -->
     <g transform="translate(14.798438 210.379594)rotate(-90)scale(0.1 -0.1)">
      <defs>
       <path d="M 4122 4306 
L 4122 3641 
Q 3803 3938 3442 4084 
Q 3081 4231 2675 4231 
Q 1875 4231 1450 3742 
Q 1025 3253 1025 2328 
Q 1025 1406 1450 917 
Q 1875 428 2675 428 
Q 3081 428 3442 575 
Q 3803 722 4122 1019 
L 4122 359 
Q 3791 134 3420 21 
Q 3050 -91 2638 -91 
Q 1578 -91 968 557 
Q 359 1206 359 2328 
Q 359 3453 968 4101 
Q 1578 4750 2638 4750 
Q 3056 4750 3426 4639 
Q 3797 4528 4122 4306 
z
" id="DejaVuSans-43" transform="scale(0.015625)"/>
       <path d="M 2906 2969 
L 2906 4863 
L 3481 4863 
L 3481 0 
L 2906 0 
L 2906 525 
Q 2725 213 2448 61 
Q 2172 -91 1784 -91 
Q 1150 -91 751 415 
Q 353 922 353 1747 
Q 353 2572 751 3078 
Q 1150 3584 1784 3584 
Q 2172 3584 2448 3432 
Q 2725 3281 2906 2969 
z
M 947 1747 
Q 947 1113 1208 752 
Q 1469 391 1925 391 
Q 2381 391 2643 752 
Q 2906 1113 2906 1747 
Q 2906 2381 2643 2742 
Q 2381 3103 1925 3103 
Q 1469 3103 1208 2742 
Q 947 2381 947 1747 
z
" id="DejaVuSans-64" transform="scale(0.015625)"/>
       <path d="M 2906 1791 
Q 2906 2416 2648 2759 
Q 2391 3103 1925 3103 
Q 1463 3103 1205 2759 
Q 947 2416 947 1791 
Q 947 1169 1205 825 
Q 1463 481 1925 481 
Q 2391 481 2648 825 
Q 2906 1169 2906 1791 
z
M 3481 434 
Q 3481 -459 3084 -895 
Q 2688 -1331 1869 -1331 
Q 1566 -1331 1297 -1286 
Q 1028 -1241 775 -1147 
L 775 -588 
Q 1028 -725 1275 -790 
Q 1522 -856 1778 -856 
Q 2344 -856 2625 -561 
Q 2906 -266 2906 331 
L 2906 616 
Q 2728 306 2450 153 
Q 2172 0 1784 0 
Q 1141 0 747 490 
Q 353 981 353 1791 
Q 353 2603 747 3093 
Q 1141 3584 1784 3584 
Q 2172 3584 2450 3431 
Q 2728 3278 2906 2969 
L 2906 3500 
L 3481 3500 
L 3481 434 
z
" id="DejaVuSans-67" transform="scale(0.015625)"/>
       <path d="M 3122 3366 
L 3122 2828 
Q 2878 2963 2633 3030 
Q 2388 3097 2138 3097 
Q 1578 3097 1268 2742 
Q 959 2388 959 1747 
Q 959 1106 1268 751 
Q 1578 397 2138 397 
Q 2388 397 2633 464 
Q 2878 531 3122 666 
L 3122 134 
Q 2881 22 2623 -34 
Q 2366 -91 2075 -91 
Q 1284 -91 818 406 
Q 353 903 353 1747 
Q 353 2603 823 3093 
Q 1294 3584 2113 3584 
Q 2378 3584 2631 3529 
Q 2884 3475 3122 3366 
z
" id="DejaVuSans-63" transform="scale(0.015625)"/>
       <path d="M 191 3500 
L 800 3500 
L 1894 563 
L 2988 3500 
L 3597 3500 
L 2284 0 
L 1503 0 
L 191 3500 
z
" id="DejaVuSans-76" transform="scale(0.015625)"/>
       <path d="M 2194 1759 
Q 1497 1759 1228 1600 
Q 959 1441 959 1056 
Q 959 750 1161 570 
Q 1363 391 1709 391 
Q 2188 391 2477 730 
Q 2766 1069 2766 1631 
L 2766 1759 
L 2194 1759 
z
M 3341 1997 
L 3341 0 
L 2766 0 
L 2766 531 
Q 2569 213 2275 61 
Q 1981 -91 1556 -91 
Q 1019 -91 701 211 
Q 384 513 384 1019 
Q 384 1609 779 1909 
Q 1175 2209 1959 2209 
L 2766 2209 
L 2766 2266 
Q 2766 2663 2505 2880 
Q 2244 3097 1772 3097 
Q 1472 3097 1187 3025 
Q 903 2953 641 2809 
L 641 3341 
Q 956 3463 1253 3523 
Q 1550 3584 1831 3584 
Q 2591 3584 2966 3190 
Q 3341 2797 3341 1997 
z
" id="DejaVuSans-61" transform="scale(0.015625)"/>
      </defs>
      <use xlink:href="#DejaVuSans-43"/>
      <use x="69.824219" xlink:href="#DejaVuSans-6f"/>
      <use x="131.005859" xlink:href="#DejaVuSans-64"/>
      <use x="194.482422" xlink:href="#DejaVuSans-65"/>
      <use x="256.005859" xlink:href="#DejaVuSans-20"/>
      <use x="287.792969" xlink:href="#DejaVuSans-72"/>
      <use x="326.65625" xlink:href="#DejaVuSans-65"/>
      <use x="388.179688" xlink:href="#DejaVuSans-67"/>
      <use x="451.65625" xlink:href="#DejaVuSans-69"/>
      <use x="479.439453" xlink:href="#DejaVuSans-6f"/>
      <use x="540.621094" xlink:href="#DejaVuSans-6e"/>
      <use x="604" xlink:href="#DejaVuSans-20"/>
      <use x="635.787109" xlink:href="#DejaVuSans-63"/>
      <use x="690.767578" xlink:href="#DejaVuSans-6f"/>
      <use x="751.949219" xlink:href="#DejaVuSans-76"/>
      <use x="811.128906" xlink:href="#DejaVuSans-65"/>
      <use x="872.652344" xlink:href="#DejaVuSans-72"/>
      <use x="913.765625" xlink:href="#DejaVuSans-61"/>
      <use x="975.044922" xlink:href="#DejaVuSans-67"/>
      <use x="1038.521484" xlink:href="#DejaVuSans-65"/>
     </g>
    </g>
   </g>
   <g id="line2d_14">
    <path clip-path="url(#pbb3ced48fb)" d="M 69.560852 149.081408 
L 73.128485 136.321177 
L 76.696117 131.426842 
L 80.263749 129.32927 
L 83.831382 126.008113 
L 87.399014 124.78453 
L 90.966646 124.085339 
L 94.534279 122.861755 
L 98.101911 122.861755 
L 101.669544 122.861755 
L 105.237176 122.337362 
L 108.804808 122.337362 
L 112.372441 122.162564 
L 115.940073 121.987767 
L 119.507705 121.638171 
L 123.075338 121.463374 
L 126.64297 121.463374 
L 130.210603 120.93898 
L 133.778235 120.764183 
L 137.345867 120.764183 
L 140.9135 120.764183 
L 144.481132 117.617824 
L 148.048764 117.443027 
L 151.616397 117.443027 
L 155.184029 116.743836 
L 158.751661 116.743836 
L 162.319294 116.743836 
L 165.886926 116.743836 
L 169.454559 115.869848 
L 173.022191 101.886033 
L 176.589823 100.312853 
L 180.157456 99.438865 
L 183.725088 98.914472 
L 187.29272 98.914472 
L 190.860353 98.914472 
L 194.427985 80.735512 
L 197.995618 78.63794 
L 201.56325 69.54846 
L 205.130882 66.751697 
L 208.698515 58.361408 
L 212.266147 58.361408 
L 215.833779 50.67031 
L 219.401412 47.698749 
L 222.969044 47.698749 
L 226.536676 47.698749 
L 230.104309 47.698749 
L 233.671941 47.698749 
L 237.239574 47.523952 
L 240.807206 47.523952 
L 244.374838 47.523952 
L 247.942471 47.523952 
L 251.510103 47.349154 
L 255.077735 46.12557 
L 258.645368 46.12557 
L 262.213 46.12557 
L 265.780632 46.12557 
L 269.348265 44.727189 
L 272.915897 44.727189 
L 276.48353 44.727189 
L 280.051162 44.727189 
L 283.618794 44.727189 
L 287.186427 44.727189 
L 290.754059 44.727189 
L 294.321691 44.727189 
L 297.889324 44.727189 
L 301.456956 44.727189 
L 305.024589 44.727189 
L 308.592221 44.727189 
L 312.159853 44.727189 
L 315.727486 44.727189 
L 319.295118 44.727189 
L 322.86275 44.727189 
L 326.430383 44.727189 
L 329.998015 44.727189 
L 333.565647 44.727189 
L 337.13328 44.727189 
L 340.700912 44.727189 
L 344.268545 44.727189 
L 347.836177 44.727189 
L 351.403809 44.727189 
L 354.971442 44.727189 
L 358.539074 44.727189 
L 362.106706 44.727189 
L 365.674339 44.727189 
L 369.241971 44.727189 
L 372.809604 44.727189 
L 376.377236 44.727189 
L 379.944868 44.727189 
L 383.512501 44.552391 
L 387.080133 44.552391 
L 390.647765 44.552391 
L 394.215398 44.552391 
" style="fill:none;stroke:#d62728;stroke-linecap:square;stroke-width:1.5;"/>
    <defs>
     <path d="M 0 -3 
L -3 3 
L 3 3 
z
" id="m9bae67dafb" style="stroke:#ffffff;stroke-linejoin:miter;stroke-width:0.75;"/>
    </defs>
    <g clip-path="url(#pbb3ced48fb)">
     <use style="fill:#d62728;stroke:#ffffff;stroke-linejoin:miter;stroke-width:0.75;" x="69.560852" xlink:href="#m9bae67dafb" y="149.081408"/>
     <use style="fill:#d62728;stroke:#ffffff;stroke-linejoin:miter;stroke-width:0.75;" x="73.128485" xlink:href="#m9bae67dafb" y="136.321177"/>
     <use style="fill:#d62728;stroke:#ffffff;stroke-linejoin:miter;stroke-width:0.75;" x="76.696117" xlink:href="#m9bae67dafb" y="131.426842"/>
     <use style="fill:#d62728;stroke:#ffffff;stroke-linejoin:miter;stroke-width:0.75;" x="80.263749" xlink:href="#m9bae67dafb" y="129.32927"/>
     <use style="fill:#d62728;stroke:#ffffff;stroke-linejoin:miter;stroke-width:0.75;" x="83.831382" xlink:href="#m9bae67dafb" y="126.008113"/>
     <use style="fill:#d62728;stroke:#ffffff;stroke-linejoin:miter;stroke-width:0.75;" x="87.399014" xlink:href="#m9bae67dafb" y="124.78453"/>
     <use style="fill:#d62728;stroke:#ffffff;stroke-linejoin:miter;stroke-width:0.75;" x="90.966646" xlink:href="#m9bae67dafb" y="124.085339"/>
     <use style="fill:#d62728;stroke:#ffffff;stroke-linejoin:miter;stroke-width:0.75;" x="94.534279" xlink:href="#m9bae67dafb" y="122.861755"/>
     <use style="fill:#d62728;stroke:#ffffff;stroke-linejoin:miter;stroke-width:0.75;" x="98.101911" xlink:href="#m9bae67dafb" y="122.861755"/>
     <use style="fill:#d62728;stroke:#ffffff;stroke-linejoin:miter;stroke-width:0.75;" x="101.669544" xlink:href="#m9bae67dafb" y="122.861755"/>
     <use style="fill:#d62728;stroke:#ffffff;stroke-linejoin:miter;stroke-width:0.75;" x="105.237176" xlink:href="#m9bae67dafb" y="122.337362"/>
     <use style="fill:#d62728;stroke:#ffffff;stroke-linejoin:miter;stroke-width:0.75;" x="108.804808" xlink:href="#m9bae67dafb" y="122.337362"/>
     <use style="fill:#d62728;stroke:#ffffff;stroke-linejoin:miter;stroke-width:0.75;" x="112.372441" xlink:href="#m9bae67dafb" y="122.162564"/>
     <use style="fill:#d62728;stroke:#ffffff;stroke-linejoin:miter;stroke-width:0.75;" x="115.940073" xlink:href="#m9bae67dafb" y="121.987767"/>
     <use style="fill:#d62728;stroke:#ffffff;stroke-linejoin:miter;stroke-width:0.75;" x="119.507705" xlink:href="#m9bae67dafb" y="121.638171"/>
     <use style="fill:#d62728;stroke:#ffffff;stroke-linejoin:miter;stroke-width:0.75;" x="123.075338" xlink:href="#m9bae67dafb" y="121.463374"/>
     <use style="fill:#d62728;stroke:#ffffff;stroke-linejoin:miter;stroke-width:0.75;" x="126.64297" xlink:href="#m9bae67dafb" y="121.463374"/>
     <use style="fill:#d62728;stroke:#ffffff;stroke-linejoin:miter;stroke-width:0.75;" x="130.210603" xlink:href="#m9bae67dafb" y="120.93898"/>
     <use style="fill:#d62728;stroke:#ffffff;stroke-linejoin:miter;stroke-width:0.75;" x="133.778235" xlink:href="#m9bae67dafb" y="120.764183"/>
     <use style="fill:#d62728;stroke:#ffffff;stroke-linejoin:miter;stroke-width:0.75;" x="137.345867" xlink:href="#m9bae67dafb" y="120.764183"/>
     <use style="fill:#d62728;stroke:#ffffff;stroke-linejoin:miter;stroke-width:0.75;" x="140.9135" xlink:href="#m9bae67dafb" y="120.764183"/>
     <use style="fill:#d62728;stroke:#ffffff;stroke-linejoin:miter;stroke-width:0.75;" x="144.481132" xlink:href="#m9bae67dafb" y="117.617824"/>
     <use style="fill:#d62728;stroke:#ffffff;stroke-linejoin:miter;stroke-width:0.75;" x="148.048764" xlink:href="#m9bae67dafb" y="117.443027"/>
     <use style="fill:#d62728;stroke:#ffffff;stroke-linejoin:miter;stroke-width:0.75;" x="151.616397" xlink:href="#m9bae67dafb" y="117.443027"/>
     <use style="fill:#d62728;stroke:#ffffff;stroke-linejoin:miter;stroke-width:0.75;" x="155.184029" xlink:href="#m9bae67dafb" y="116.743836"/>
     <use style="fill:#d62728;stroke:#ffffff;stroke-linejoin:miter;stroke-width:0.75;" x="158.751661" xlink:href="#m9bae67dafb" y="116.743836"/>
     <use style="fill:#d62728;stroke:#ffffff;stroke-linejoin:miter;stroke-width:0.75;" x="162.319294" xlink:href="#m9bae67dafb" y="116.743836"/>
     <use style="fill:#d62728;stroke:#ffffff;stroke-linejoin:miter;stroke-width:0.75;" x="165.886926" xlink:href="#m9bae67dafb" y="116.743836"/>
     <use style="fill:#d62728;stroke:#ffffff;stroke-linejoin:miter;stroke-width:0.75;" x="169.454559" xlink:href="#m9bae67dafb" y="115.869848"/>
     <use style="fill:#d62728;stroke:#ffffff;stroke-linejoin:miter;stroke-width:0.75;" x="173.022191" xlink:href="#m9bae67dafb" y="101.886033"/>
     <use style="fill:#d62728;stroke:#ffffff;stroke-linejoin:miter;stroke-width:0.75;" x="176.589823" xlink:href="#m9bae67dafb" y="100.312853"/>
     <use style="fill:#d62728;stroke:#ffffff;stroke-linejoin:miter;stroke-width:0.75;" x="180.157456" xlink:href="#m9bae67dafb" y="99.438865"/>
     <use style="fill:#d62728;stroke:#ffffff;stroke-linejoin:miter;stroke-width:0.75;" x="183.725088" xlink:href="#m9bae67dafb" y="98.914472"/>
     <use style="fill:#d62728;stroke:#ffffff;stroke-linejoin:miter;stroke-width:0.75;" x="187.29272" xlink:href="#m9bae67dafb" y="98.914472"/>
     <use style="fill:#d62728;stroke:#ffffff;stroke-linejoin:miter;stroke-width:0.75;" x="190.860353" xlink:href="#m9bae67dafb" y="98.914472"/>
     <use style="fill:#d62728;stroke:#ffffff;stroke-linejoin:miter;stroke-width:0.75;" x="194.427985" xlink:href="#m9bae67dafb" y="80.735512"/>
     <use style="fill:#d62728;stroke:#ffffff;stroke-linejoin:miter;stroke-width:0.75;" x="197.995618" xlink:href="#m9bae67dafb" y="78.63794"/>
     <use style="fill:#d62728;stroke:#ffffff;stroke-linejoin:miter;stroke-width:0.75;" x="201.56325" xlink:href="#m9bae67dafb" y="69.54846"/>
     <use style="fill:#d62728;stroke:#ffffff;stroke-linejoin:miter;stroke-width:0.75;" x="205.130882" xlink:href="#m9bae67dafb" y="66.751697"/>
     <use style="fill:#d62728;stroke:#ffffff;stroke-linejoin:miter;stroke-width:0.75;" x="208.698515" xlink:href="#m9bae67dafb" y="58.361408"/>
     <use style="fill:#d62728;stroke:#ffffff;stroke-linejoin:miter;stroke-width:0.75;" x="212.266147" xlink:href="#m9bae67dafb" y="58.361408"/>
     <use style="fill:#d62728;stroke:#ffffff;stroke-linejoin:miter;stroke-width:0.75;" x="215.833779" xlink:href="#m9bae67dafb" y="50.67031"/>
     <use style="fill:#d62728;stroke:#ffffff;stroke-linejoin:miter;stroke-width:0.75;" x="219.401412" xlink:href="#m9bae67dafb" y="47.698749"/>
     <use style="fill:#d62728;stroke:#ffffff;stroke-linejoin:miter;stroke-width:0.75;" x="222.969044" xlink:href="#m9bae67dafb" y="47.698749"/>
     <use style="fill:#d62728;stroke:#ffffff;stroke-linejoin:miter;stroke-width:0.75;" x="226.536676" xlink:href="#m9bae67dafb" y="47.698749"/>
     <use style="fill:#d62728;stroke:#ffffff;stroke-linejoin:miter;stroke-width:0.75;" x="230.104309" xlink:href="#m9bae67dafb" y="47.698749"/>
     <use style="fill:#d62728;stroke:#ffffff;stroke-linejoin:miter;stroke-width:0.75;" x="233.671941" xlink:href="#m9bae67dafb" y="47.698749"/>
     <use style="fill:#d62728;stroke:#ffffff;stroke-linejoin:miter;stroke-width:0.75;" x="237.239574" xlink:href="#m9bae67dafb" y="47.523952"/>
     <use style="fill:#d62728;stroke:#ffffff;stroke-linejoin:miter;stroke-width:0.75;" x="240.807206" xlink:href="#m9bae67dafb" y="47.523952"/>
     <use style="fill:#d62728;stroke:#ffffff;stroke-linejoin:miter;stroke-width:0.75;" x="244.374838" xlink:href="#m9bae67dafb" y="47.523952"/>
     <use style="fill:#d62728;stroke:#ffffff;stroke-linejoin:miter;stroke-width:0.75;" x="247.942471" xlink:href="#m9bae67dafb" y="47.523952"/>
     <use style="fill:#d62728;stroke:#ffffff;stroke-linejoin:miter;stroke-width:0.75;" x="251.510103" xlink:href="#m9bae67dafb" y="47.349154"/>
     <use style="fill:#d62728;stroke:#ffffff;stroke-linejoin:miter;stroke-width:0.75;" x="255.077735" xlink:href="#m9bae67dafb" y="46.12557"/>
     <use style="fill:#d62728;stroke:#ffffff;stroke-linejoin:miter;stroke-width:0.75;" x="258.645368" xlink:href="#m9bae67dafb" y="46.12557"/>
     <use style="fill:#d62728;stroke:#ffffff;stroke-linejoin:miter;stroke-width:0.75;" x="262.213" xlink:href="#m9bae67dafb" y="46.12557"/>
     <use style="fill:#d62728;stroke:#ffffff;stroke-linejoin:miter;stroke-width:0.75;" x="265.780632" xlink:href="#m9bae67dafb" y="46.12557"/>
     <use style="fill:#d62728;stroke:#ffffff;stroke-linejoin:miter;stroke-width:0.75;" x="269.348265" xlink:href="#m9bae67dafb" y="44.727189"/>
     <use style="fill:#d62728;stroke:#ffffff;stroke-linejoin:miter;stroke-width:0.75;" x="272.915897" xlink:href="#m9bae67dafb" y="44.727189"/>
     <use style="fill:#d62728;stroke:#ffffff;stroke-linejoin:miter;stroke-width:0.75;" x="276.48353" xlink:href="#m9bae67dafb" y="44.727189"/>
     <use style="fill:#d62728;stroke:#ffffff;stroke-linejoin:miter;stroke-width:0.75;" x="280.051162" xlink:href="#m9bae67dafb" y="44.727189"/>
     <use style="fill:#d62728;stroke:#ffffff;stroke-linejoin:miter;stroke-width:0.75;" x="283.618794" xlink:href="#m9bae67dafb" y="44.727189"/>
     <use style="fill:#d62728;stroke:#ffffff;stroke-linejoin:miter;stroke-width:0.75;" x="287.186427" xlink:href="#m9bae67dafb" y="44.727189"/>
     <use style="fill:#d62728;stroke:#ffffff;stroke-linejoin:miter;stroke-width:0.75;" x="290.754059" xlink:href="#m9bae67dafb" y="44.727189"/>
     <use style="fill:#d62728;stroke:#ffffff;stroke-linejoin:miter;stroke-width:0.75;" x="294.321691" xlink:href="#m9bae67dafb" y="44.727189"/>
     <use style="fill:#d62728;stroke:#ffffff;stroke-linejoin:miter;stroke-width:0.75;" x="297.889324" xlink:href="#m9bae67dafb" y="44.727189"/>
     <use style="fill:#d62728;stroke:#ffffff;stroke-linejoin:miter;stroke-width:0.75;" x="301.456956" xlink:href="#m9bae67dafb" y="44.727189"/>
     <use style="fill:#d62728;stroke:#ffffff;stroke-linejoin:miter;stroke-width:0.75;" x="305.024589" xlink:href="#m9bae67dafb" y="44.727189"/>
     <use style="fill:#d62728;stroke:#ffffff;stroke-linejoin:miter;stroke-width:0.75;" x="308.592221" xlink:href="#m9bae67dafb" y="44.727189"/>
     <use style="fill:#d62728;stroke:#ffffff;stroke-linejoin:miter;stroke-width:0.75;" x="312.159853" xlink:href="#m9bae67dafb" y="44.727189"/>
     <use style="fill:#d62728;stroke:#ffffff;stroke-linejoin:miter;stroke-width:0.75;" x="315.727486" xlink:href="#m9bae67dafb" y="44.727189"/>
     <use style="fill:#d62728;stroke:#ffffff;stroke-linejoin:miter;stroke-width:0.75;" x="319.295118" xlink:href="#m9bae67dafb" y="44.727189"/>
     <use style="fill:#d62728;stroke:#ffffff;stroke-linejoin:miter;stroke-width:0.75;" x="322.86275" xlink:href="#m9bae67dafb" y="44.727189"/>
     <use style="fill:#d62728;stroke:#ffffff;stroke-linejoin:miter;stroke-width:0.75;" x="326.430383" xlink:href="#m9bae67dafb" y="44.727189"/>
     <use style="fill:#d62728;stroke:#ffffff;stroke-linejoin:miter;stroke-width:0.75;" x="329.998015" xlink:href="#m9bae67dafb" y="44.727189"/>
     <use style="fill:#d62728;stroke:#ffffff;stroke-linejoin:miter;stroke-width:0.75;" x="333.565647" xlink:href="#m9bae67dafb" y="44.727189"/>
     <use style="fill:#d62728;stroke:#ffffff;stroke-linejoin:miter;stroke-width:0.75;" x="337.13328" xlink:href="#m9bae67dafb" y="44.727189"/>
     <use style="fill:#d62728;stroke:#ffffff;stroke-linejoin:miter;stroke-width:0.75;" x="340.700912" xlink:href="#m9bae67dafb" y="44.727189"/>
     <use style="fill:#d62728;stroke:#ffffff;stroke-linejoin:miter;stroke-width:0.75;" x="344.268545" xlink:href="#m9bae67dafb" y="44.727189"/>
     <use style="fill:#d62728;stroke:#ffffff;stroke-linejoin:miter;stroke-width:0.75;" x="347.836177" xlink:href="#m9bae67dafb" y="44.727189"/>
     <use style="fill:#d62728;stroke:#ffffff;stroke-linejoin:miter;stroke-width:0.75;" x="351.403809" xlink:href="#m9bae67dafb" y="44.727189"/>
     <use style="fill:#d62728;stroke:#ffffff;stroke-linejoin:miter;stroke-width:0.75;" x="354.971442" xlink:href="#m9bae67dafb" y="44.727189"/>
     <use style="fill:#d62728;stroke:#ffffff;stroke-linejoin:miter;stroke-width:0.75;" x="358.539074" xlink:href="#m9bae67dafb" y="44.727189"/>
     <use style="fill:#d62728;stroke:#ffffff;stroke-linejoin:miter;stroke-width:0.75;" x="362.106706" xlink:href="#m9bae67dafb" y="44.727189"/>
     <use style="fill:#d62728;stroke:#ffffff;stroke-linejoin:miter;stroke-width:0.75;" x="365.674339" xlink:href="#m9bae67dafb" y="44.727189"/>
     <use style="fill:#d62728;stroke:#ffffff;stroke-linejoin:miter;stroke-width:0.75;" x="369.241971" xlink:href="#m9bae67dafb" y="44.727189"/>
     <use style="fill:#d62728;stroke:#ffffff;stroke-linejoin:miter;stroke-width:0.75;" x="372.809604" xlink:href="#m9bae67dafb" y="44.727189"/>
     <use style="fill:#d62728;stroke:#ffffff;stroke-linejoin:miter;stroke-width:0.75;" x="376.377236" xlink:href="#m9bae67dafb" y="44.727189"/>
     <use style="fill:#d62728;stroke:#ffffff;stroke-linejoin:miter;stroke-width:0.75;" x="379.944868" xlink:href="#m9bae67dafb" y="44.727189"/>
     <use style="fill:#d62728;stroke:#ffffff;stroke-linejoin:miter;stroke-width:0.75;" x="383.512501" xlink:href="#m9bae67dafb" y="44.552391"/>
     <use style="fill:#d62728;stroke:#ffffff;stroke-linejoin:miter;stroke-width:0.75;" x="387.080133" xlink:href="#m9bae67dafb" y="44.552391"/>
     <use style="fill:#d62728;stroke:#ffffff;stroke-linejoin:miter;stroke-width:0.75;" x="390.647765" xlink:href="#m9bae67dafb" y="44.552391"/>
     <use style="fill:#d62728;stroke:#ffffff;stroke-linejoin:miter;stroke-width:0.75;" x="394.215398" xlink:href="#m9bae67dafb" y="44.552391"/>
    </g>
   </g>
   <g id="line2d_15">
    <path clip-path="url(#pbb3ced48fb)" d="M 69.560852 182.642564 
L 73.128485 147.683027 
L 76.696117 144.711466 
L 80.263749 133.699212 
L 83.831382 131.776437 
L 87.399014 133.349616 
L 90.966646 133.349616 
L 94.534279 130.203258 
L 98.101911 128.630079 
L 101.669544 128.280483 
L 105.237176 127.406495 
L 108.804808 126.008113 
L 112.372441 126.008113 
L 115.940073 125.48372 
L 119.507705 126.357709 
L 123.075338 124.434934 
L 126.64297 122.337362 
L 130.210603 122.337362 
L 133.778235 120.93898 
L 137.345867 120.93898 
L 140.9135 120.064992 
L 144.481132 120.589385 
L 148.048764 121.113778 
L 151.616397 120.064992 
L 155.184029 117.093431 
L 158.751661 117.617824 
L 162.319294 116.219443 
L 165.886926 116.569038 
L 169.454559 115.869848 
L 173.022191 115.869848 
L 176.589823 115.869848 
L 180.157456 115.869848 
L 183.725088 115.869848 
L 187.29272 115.869848 
L 190.860353 115.869848 
L 194.427985 106.780368 
L 197.995618 115.869848 
L 201.56325 116.569038 
L 205.130882 115.869848 
L 208.698515 115.869848 
L 212.266147 115.869848 
L 215.833779 115.869848 
L 219.401412 115.869848 
L 222.969044 115.869848 
L 226.536676 115.869848 
L 230.104309 115.869848 
L 233.671941 115.869848 
L 237.239574 115.869848 
L 240.807206 87.203027 
L 244.374838 85.804645 
L 247.942471 85.105454 
L 251.510103 83.881871 
L 255.077735 83.881871 
L 258.645368 83.707073 
L 262.213 83.707073 
L 265.780632 109.577131 
L 269.348265 109.577131 
L 272.915897 109.577131 
L 276.48353 103.983605 
L 280.051162 103.983605 
L 283.618794 103.983605 
L 287.186427 104.857593 
L 290.754059 104.857593 
L 294.321691 104.857593 
L 297.889324 104.857593 
L 301.456956 104.857593 
L 305.024589 103.983605 
L 308.592221 103.983605 
L 312.159853 103.983605 
L 315.727486 103.983605 
L 319.295118 103.983605 
L 322.86275 103.983605 
L 326.430383 89.99979 
L 329.998015 89.99979 
L 333.565647 89.99979 
L 337.13328 89.99979 
L 340.700912 76.015975 
L 344.268545 76.015975 
L 347.836177 76.015975 
L 351.403809 76.015975 
L 354.971442 76.015975 
L 358.539074 76.015975 
L 362.106706 76.015975 
L 365.674339 76.015975 
L 369.241971 89.99979 
L 372.809604 89.99979 
L 376.377236 89.99979 
L 379.944868 89.99979 
L 383.512501 76.015975 
L 387.080133 56.089038 
L 390.647765 51.019905 
L 394.215398 51.019905 
" style="fill:none;stroke:#1f77b4;stroke-linecap:square;stroke-width:1.5;"/>
    <defs>
     <path d="M 0 3 
C 0.795609 3 1.55874 2.683901 2.12132 2.12132 
C 2.683901 1.55874 3 0.795609 3 0 
C 3 -0.795609 2.683901 -1.55874 2.12132 -2.12132 
C 1.55874 -2.683901 0.795609 -3 0 -3 
C -0.795609 -3 -1.55874 -2.683901 -2.12132 -2.12132 
C -2.683901 -1.55874 -3 -0.795609 -3 0 
C -3 0.795609 -2.683901 1.55874 -2.12132 2.12132 
C -1.55874 2.683901 -0.795609 3 0 3 
z
" id="m84f8f03e4f" style="stroke:#ffffff;stroke-width:0.75;"/>
    </defs>
    <g clip-path="url(#pbb3ced48fb)">
     <use style="fill:#1f77b4;stroke:#ffffff;stroke-width:0.75;" x="69.560852" xlink:href="#m84f8f03e4f" y="182.642564"/>
     <use style="fill:#1f77b4;stroke:#ffffff;stroke-width:0.75;" x="73.128485" xlink:href="#m84f8f03e4f" y="147.683027"/>
     <use style="fill:#1f77b4;stroke:#ffffff;stroke-width:0.75;" x="76.696117" xlink:href="#m84f8f03e4f" y="144.711466"/>
     <use style="fill:#1f77b4;stroke:#ffffff;stroke-width:0.75;" x="80.263749" xlink:href="#m84f8f03e4f" y="133.699212"/>
     <use style="fill:#1f77b4;stroke:#ffffff;stroke-width:0.75;" x="83.831382" xlink:href="#m84f8f03e4f" y="131.776437"/>
     <use style="fill:#1f77b4;stroke:#ffffff;stroke-width:0.75;" x="87.399014" xlink:href="#m84f8f03e4f" y="133.349616"/>
     <use style="fill:#1f77b4;stroke:#ffffff;stroke-width:0.75;" x="90.966646" xlink:href="#m84f8f03e4f" y="133.349616"/>
     <use style="fill:#1f77b4;stroke:#ffffff;stroke-width:0.75;" x="94.534279" xlink:href="#m84f8f03e4f" y="130.203258"/>
     <use style="fill:#1f77b4;stroke:#ffffff;stroke-width:0.75;" x="98.101911" xlink:href="#m84f8f03e4f" y="128.630079"/>
     <use style="fill:#1f77b4;stroke:#ffffff;stroke-width:0.75;" x="101.669544" xlink:href="#m84f8f03e4f" y="128.280483"/>
     <use style="fill:#1f77b4;stroke:#ffffff;stroke-width:0.75;" x="105.237176" xlink:href="#m84f8f03e4f" y="127.406495"/>
     <use style="fill:#1f77b4;stroke:#ffffff;stroke-width:0.75;" x="108.804808" xlink:href="#m84f8f03e4f" y="126.008113"/>
     <use style="fill:#1f77b4;stroke:#ffffff;stroke-width:0.75;" x="112.372441" xlink:href="#m84f8f03e4f" y="126.008113"/>
     <use style="fill:#1f77b4;stroke:#ffffff;stroke-width:0.75;" x="115.940073" xlink:href="#m84f8f03e4f" y="125.48372"/>
     <use style="fill:#1f77b4;stroke:#ffffff;stroke-width:0.75;" x="119.507705" xlink:href="#m84f8f03e4f" y="126.357709"/>
     <use style="fill:#1f77b4;stroke:#ffffff;stroke-width:0.75;" x="123.075338" xlink:href="#m84f8f03e4f" y="124.434934"/>
     <use style="fill:#1f77b4;stroke:#ffffff;stroke-width:0.75;" x="126.64297" xlink:href="#m84f8f03e4f" y="122.337362"/>
     <use style="fill:#1f77b4;stroke:#ffffff;stroke-width:0.75;" x="130.210603" xlink:href="#m84f8f03e4f" y="122.337362"/>
     <use style="fill:#1f77b4;stroke:#ffffff;stroke-width:0.75;" x="133.778235" xlink:href="#m84f8f03e4f" y="120.93898"/>
     <use style="fill:#1f77b4;stroke:#ffffff;stroke-width:0.75;" x="137.345867" xlink:href="#m84f8f03e4f" y="120.93898"/>
     <use style="fill:#1f77b4;stroke:#ffffff;stroke-width:0.75;" x="140.9135" xlink:href="#m84f8f03e4f" y="120.064992"/>
     <use style="fill:#1f77b4;stroke:#ffffff;stroke-width:0.75;" x="144.481132" xlink:href="#m84f8f03e4f" y="120.589385"/>
     <use style="fill:#1f77b4;stroke:#ffffff;stroke-width:0.75;" x="148.048764" xlink:href="#m84f8f03e4f" y="121.113778"/>
     <use style="fill:#1f77b4;stroke:#ffffff;stroke-width:0.75;" x="151.616397" xlink:href="#m84f8f03e4f" y="120.064992"/>
     <use style="fill:#1f77b4;stroke:#ffffff;stroke-width:0.75;" x="155.184029" xlink:href="#m84f8f03e4f" y="117.093431"/>
     <use style="fill:#1f77b4;stroke:#ffffff;stroke-width:0.75;" x="158.751661" xlink:href="#m84f8f03e4f" y="117.617824"/>
     <use style="fill:#1f77b4;stroke:#ffffff;stroke-width:0.75;" x="162.319294" xlink:href="#m84f8f03e4f" y="116.219443"/>
     <use style="fill:#1f77b4;stroke:#ffffff;stroke-width:0.75;" x="165.886926" xlink:href="#m84f8f03e4f" y="116.569038"/>
     <use style="fill:#1f77b4;stroke:#ffffff;stroke-width:0.75;" x="169.454559" xlink:href="#m84f8f03e4f" y="115.869848"/>
     <use style="fill:#1f77b4;stroke:#ffffff;stroke-width:0.75;" x="173.022191" xlink:href="#m84f8f03e4f" y="115.869848"/>
     <use style="fill:#1f77b4;stroke:#ffffff;stroke-width:0.75;" x="176.589823" xlink:href="#m84f8f03e4f" y="115.869848"/>
     <use style="fill:#1f77b4;stroke:#ffffff;stroke-width:0.75;" x="180.157456" xlink:href="#m84f8f03e4f" y="115.869848"/>
     <use style="fill:#1f77b4;stroke:#ffffff;stroke-width:0.75;" x="183.725088" xlink:href="#m84f8f03e4f" y="115.869848"/>
     <use style="fill:#1f77b4;stroke:#ffffff;stroke-width:0.75;" x="187.29272" xlink:href="#m84f8f03e4f" y="115.869848"/>
     <use style="fill:#1f77b4;stroke:#ffffff;stroke-width:0.75;" x="190.860353" xlink:href="#m84f8f03e4f" y="115.869848"/>
     <use style="fill:#1f77b4;stroke:#ffffff;stroke-width:0.75;" x="194.427985" xlink:href="#m84f8f03e4f" y="106.780368"/>
     <use style="fill:#1f77b4;stroke:#ffffff;stroke-width:0.75;" x="197.995618" xlink:href="#m84f8f03e4f" y="115.869848"/>
     <use style="fill:#1f77b4;stroke:#ffffff;stroke-width:0.75;" x="201.56325" xlink:href="#m84f8f03e4f" y="116.569038"/>
     <use style="fill:#1f77b4;stroke:#ffffff;stroke-width:0.75;" x="205.130882" xlink:href="#m84f8f03e4f" y="115.869848"/>
     <use style="fill:#1f77b4;stroke:#ffffff;stroke-width:0.75;" x="208.698515" xlink:href="#m84f8f03e4f" y="115.869848"/>
     <use style="fill:#1f77b4;stroke:#ffffff;stroke-width:0.75;" x="212.266147" xlink:href="#m84f8f03e4f" y="115.869848"/>
     <use style="fill:#1f77b4;stroke:#ffffff;stroke-width:0.75;" x="215.833779" xlink:href="#m84f8f03e4f" y="115.869848"/>
     <use style="fill:#1f77b4;stroke:#ffffff;stroke-width:0.75;" x="219.401412" xlink:href="#m84f8f03e4f" y="115.869848"/>
     <use style="fill:#1f77b4;stroke:#ffffff;stroke-width:0.75;" x="222.969044" xlink:href="#m84f8f03e4f" y="115.869848"/>
     <use style="fill:#1f77b4;stroke:#ffffff;stroke-width:0.75;" x="226.536676" xlink:href="#m84f8f03e4f" y="115.869848"/>
     <use style="fill:#1f77b4;stroke:#ffffff;stroke-width:0.75;" x="230.104309" xlink:href="#m84f8f03e4f" y="115.869848"/>
     <use style="fill:#1f77b4;stroke:#ffffff;stroke-width:0.75;" x="233.671941" xlink:href="#m84f8f03e4f" y="115.869848"/>
     <use style="fill:#1f77b4;stroke:#ffffff;stroke-width:0.75;" x="237.239574" xlink:href="#m84f8f03e4f" y="115.869848"/>
     <use style="fill:#1f77b4;stroke:#ffffff;stroke-width:0.75;" x="240.807206" xlink:href="#m84f8f03e4f" y="87.203027"/>
     <use style="fill:#1f77b4;stroke:#ffffff;stroke-width:0.75;" x="244.374838" xlink:href="#m84f8f03e4f" y="85.804645"/>
     <use style="fill:#1f77b4;stroke:#ffffff;stroke-width:0.75;" x="247.942471" xlink:href="#m84f8f03e4f" y="85.105454"/>
     <use style="fill:#1f77b4;stroke:#ffffff;stroke-width:0.75;" x="251.510103" xlink:href="#m84f8f03e4f" y="83.881871"/>
     <use style="fill:#1f77b4;stroke:#ffffff;stroke-width:0.75;" x="255.077735" xlink:href="#m84f8f03e4f" y="83.881871"/>
     <use style="fill:#1f77b4;stroke:#ffffff;stroke-width:0.75;" x="258.645368" xlink:href="#m84f8f03e4f" y="83.707073"/>
     <use style="fill:#1f77b4;stroke:#ffffff;stroke-width:0.75;" x="262.213" xlink:href="#m84f8f03e4f" y="83.707073"/>
     <use style="fill:#1f77b4;stroke:#ffffff;stroke-width:0.75;" x="265.780632" xlink:href="#m84f8f03e4f" y="109.577131"/>
     <use style="fill:#1f77b4;stroke:#ffffff;stroke-width:0.75;" x="269.348265" xlink:href="#m84f8f03e4f" y="109.577131"/>
     <use style="fill:#1f77b4;stroke:#ffffff;stroke-width:0.75;" x="272.915897" xlink:href="#m84f8f03e4f" y="109.577131"/>
     <use style="fill:#1f77b4;stroke:#ffffff;stroke-width:0.75;" x="276.48353" xlink:href="#m84f8f03e4f" y="103.983605"/>
     <use style="fill:#1f77b4;stroke:#ffffff;stroke-width:0.75;" x="280.051162" xlink:href="#m84f8f03e4f" y="103.983605"/>
     <use style="fill:#1f77b4;stroke:#ffffff;stroke-width:0.75;" x="283.618794" xlink:href="#m84f8f03e4f" y="103.983605"/>
     <use style="fill:#1f77b4;stroke:#ffffff;stroke-width:0.75;" x="287.186427" xlink:href="#m84f8f03e4f" y="104.857593"/>
     <use style="fill:#1f77b4;stroke:#ffffff;stroke-width:0.75;" x="290.754059" xlink:href="#m84f8f03e4f" y="104.857593"/>
     <use style="fill:#1f77b4;stroke:#ffffff;stroke-width:0.75;" x="294.321691" xlink:href="#m84f8f03e4f" y="104.857593"/>
     <use style="fill:#1f77b4;stroke:#ffffff;stroke-width:0.75;" x="297.889324" xlink:href="#m84f8f03e4f" y="104.857593"/>
     <use style="fill:#1f77b4;stroke:#ffffff;stroke-width:0.75;" x="301.456956" xlink:href="#m84f8f03e4f" y="104.857593"/>
     <use style="fill:#1f77b4;stroke:#ffffff;stroke-width:0.75;" x="305.024589" xlink:href="#m84f8f03e4f" y="103.983605"/>
     <use style="fill:#1f77b4;stroke:#ffffff;stroke-width:0.75;" x="308.592221" xlink:href="#m84f8f03e4f" y="103.983605"/>
     <use style="fill:#1f77b4;stroke:#ffffff;stroke-width:0.75;" x="312.159853" xlink:href="#m84f8f03e4f" y="103.983605"/>
     <use style="fill:#1f77b4;stroke:#ffffff;stroke-width:0.75;" x="315.727486" xlink:href="#m84f8f03e4f" y="103.983605"/>
     <use style="fill:#1f77b4;stroke:#ffffff;stroke-width:0.75;" x="319.295118" xlink:href="#m84f8f03e4f" y="103.983605"/>
     <use style="fill:#1f77b4;stroke:#ffffff;stroke-width:0.75;" x="322.86275" xlink:href="#m84f8f03e4f" y="103.983605"/>
     <use style="fill:#1f77b4;stroke:#ffffff;stroke-width:0.75;" x="326.430383" xlink:href="#m84f8f03e4f" y="89.99979"/>
     <use style="fill:#1f77b4;stroke:#ffffff;stroke-width:0.75;" x="329.998015" xlink:href="#m84f8f03e4f" y="89.99979"/>
     <use style="fill:#1f77b4;stroke:#ffffff;stroke-width:0.75;" x="333.565647" xlink:href="#m84f8f03e4f" y="89.99979"/>
     <use style="fill:#1f77b4;stroke:#ffffff;stroke-width:0.75;" x="337.13328" xlink:href="#m84f8f03e4f" y="89.99979"/>
     <use style="fill:#1f77b4;stroke:#ffffff;stroke-width:0.75;" x="340.700912" xlink:href="#m84f8f03e4f" y="76.015975"/>
     <use style="fill:#1f77b4;stroke:#ffffff;stroke-width:0.75;" x="344.268545" xlink:href="#m84f8f03e4f" y="76.015975"/>
     <use style="fill:#1f77b4;stroke:#ffffff;stroke-width:0.75;" x="347.836177" xlink:href="#m84f8f03e4f" y="76.015975"/>
     <use style="fill:#1f77b4;stroke:#ffffff;stroke-width:0.75;" x="351.403809" xlink:href="#m84f8f03e4f" y="76.015975"/>
     <use style="fill:#1f77b4;stroke:#ffffff;stroke-width:0.75;" x="354.971442" xlink:href="#m84f8f03e4f" y="76.015975"/>
     <use style="fill:#1f77b4;stroke:#ffffff;stroke-width:0.75;" x="358.539074" xlink:href="#m84f8f03e4f" y="76.015975"/>
     <use style="fill:#1f77b4;stroke:#ffffff;stroke-width:0.75;" x="362.106706" xlink:href="#m84f8f03e4f" y="76.015975"/>
     <use style="fill:#1f77b4;stroke:#ffffff;stroke-width:0.75;" x="365.674339" xlink:href="#m84f8f03e4f" y="76.015975"/>
     <use style="fill:#1f77b4;stroke:#ffffff;stroke-width:0.75;" x="369.241971" xlink:href="#m84f8f03e4f" y="89.99979"/>
     <use style="fill:#1f77b4;stroke:#ffffff;stroke-width:0.75;" x="372.809604" xlink:href="#m84f8f03e4f" y="89.99979"/>
     <use style="fill:#1f77b4;stroke:#ffffff;stroke-width:0.75;" x="376.377236" xlink:href="#m84f8f03e4f" y="89.99979"/>
     <use style="fill:#1f77b4;stroke:#ffffff;stroke-width:0.75;" x="379.944868" xlink:href="#m84f8f03e4f" y="89.99979"/>
     <use style="fill:#1f77b4;stroke:#ffffff;stroke-width:0.75;" x="383.512501" xlink:href="#m84f8f03e4f" y="76.015975"/>
     <use style="fill:#1f77b4;stroke:#ffffff;stroke-width:0.75;" x="387.080133" xlink:href="#m84f8f03e4f" y="56.089038"/>
     <use style="fill:#1f77b4;stroke:#ffffff;stroke-width:0.75;" x="390.647765" xlink:href="#m84f8f03e4f" y="51.019905"/>
     <use style="fill:#1f77b4;stroke:#ffffff;stroke-width:0.75;" x="394.215398" xlink:href="#m84f8f03e4f" y="51.019905"/>
    </g>
   </g>
   <g id="line2d_16">
    <path clip-path="url(#pbb3ced48fb)" d="M 69.560852 220.573663 
L 73.128485 213.23216 
L 76.696117 195.577593 
L 80.263749 190.158865 
L 83.831382 186.313316 
L 87.399014 185.089732 
L 90.966646 184.740137 
L 94.534279 181.943374 
L 98.101911 181.943374 
L 101.669544 178.44742 
L 105.237176 174.601871 
L 108.804808 172.853894 
L 112.372441 172.853894 
L 115.940073 170.057131 
L 119.507705 169.882333 
L 123.075338 169.707535 
L 126.64297 169.707535 
L 130.210603 168.309154 
L 133.778235 169.707535 
L 137.345867 171.280715 
L 140.9135 169.532738 
L 144.481132 166.561177 
L 148.048764 166.561177 
L 151.616397 166.561177 
L 155.184029 166.561177 
L 158.751661 166.211582 
L 162.319294 166.211582 
L 165.886926 166.211582 
L 169.454559 165.162796 
L 173.022191 165.162796 
L 176.589823 164.114009 
L 180.157456 162.715628 
L 183.725088 161.666842 
L 187.29272 161.492044 
L 190.860353 157.646495 
L 194.427985 162.016437 
L 197.995618 162.016437 
L 201.56325 160.26846 
L 205.130882 155.898518 
L 208.698515 155.898518 
L 212.266147 160.26846 
L 215.833779 161.142449 
L 219.401412 160.967651 
L 222.969044 160.26846 
L 226.536676 155.374125 
L 230.104309 155.374125 
L 233.671941 155.374125 
L 237.239574 158.870079 
L 240.807206 158.870079 
L 244.374838 154.500137 
L 247.942471 152.402564 
L 251.510103 150.130194 
L 255.077735 152.402564 
L 258.645368 152.402564 
L 262.213 149.256206 
L 265.780632 149.256206 
L 269.348265 148.382217 
L 272.915897 148.382217 
L 276.48353 148.382217 
L 280.051162 147.683027 
L 283.618794 148.906611 
L 287.186427 150.130194 
L 290.754059 148.906611 
L 294.321691 147.683027 
L 297.889324 147.683027 
L 301.456956 147.683027 
L 305.024589 147.683027 
L 308.592221 148.906611 
L 312.159853 148.731813 
L 315.727486 148.731813 
L 319.295118 147.683027 
L 322.86275 147.158634 
L 326.430383 147.158634 
L 329.998015 146.983836 
L 333.565647 143.66268 
L 337.13328 146.983836 
L 340.700912 146.634241 
L 344.268545 146.634241 
L 347.836177 145.585454 
L 351.403809 146.634241 
L 354.971442 146.284645 
L 358.539074 142.788691 
L 362.106706 142.788691 
L 365.674339 145.93505 
L 369.241971 145.235859 
L 372.809604 145.235859 
L 376.377236 145.93505 
L 379.944868 145.93505 
L 383.512501 145.93505 
L 387.080133 145.93505 
L 390.647765 145.93505 
L 394.215398 142.788691 
" style="fill:none;stroke:#98df8a;stroke-linecap:square;stroke-width:1.5;"/>
    <defs>
     <path d="M -0 3 
L 3 -3 
L -3 -3 
z
" id="m36696ac77a" style="stroke:#ffffff;stroke-linejoin:miter;stroke-width:0.75;"/>
    </defs>
    <g clip-path="url(#pbb3ced48fb)">
     <use style="fill:#98df8a;stroke:#ffffff;stroke-linejoin:miter;stroke-width:0.75;" x="69.560852" xlink:href="#m36696ac77a" y="220.573663"/>
     <use style="fill:#98df8a;stroke:#ffffff;stroke-linejoin:miter;stroke-width:0.75;" x="73.128485" xlink:href="#m36696ac77a" y="213.23216"/>
     <use style="fill:#98df8a;stroke:#ffffff;stroke-linejoin:miter;stroke-width:0.75;" x="76.696117" xlink:href="#m36696ac77a" y="195.577593"/>
     <use style="fill:#98df8a;stroke:#ffffff;stroke-linejoin:miter;stroke-width:0.75;" x="80.263749" xlink:href="#m36696ac77a" y="190.158865"/>
     <use style="fill:#98df8a;stroke:#ffffff;stroke-linejoin:miter;stroke-width:0.75;" x="83.831382" xlink:href="#m36696ac77a" y="186.313316"/>
     <use style="fill:#98df8a;stroke:#ffffff;stroke-linejoin:miter;stroke-width:0.75;" x="87.399014" xlink:href="#m36696ac77a" y="185.089732"/>
     <use style="fill:#98df8a;stroke:#ffffff;stroke-linejoin:miter;stroke-width:0.75;" x="90.966646" xlink:href="#m36696ac77a" y="184.740137"/>
     <use style="fill:#98df8a;stroke:#ffffff;stroke-linejoin:miter;stroke-width:0.75;" x="94.534279" xlink:href="#m36696ac77a" y="181.943374"/>
     <use style="fill:#98df8a;stroke:#ffffff;stroke-linejoin:miter;stroke-width:0.75;" x="98.101911" xlink:href="#m36696ac77a" y="181.943374"/>
     <use style="fill:#98df8a;stroke:#ffffff;stroke-linejoin:miter;stroke-width:0.75;" x="101.669544" xlink:href="#m36696ac77a" y="178.44742"/>
     <use style="fill:#98df8a;stroke:#ffffff;stroke-linejoin:miter;stroke-width:0.75;" x="105.237176" xlink:href="#m36696ac77a" y="174.601871"/>
     <use style="fill:#98df8a;stroke:#ffffff;stroke-linejoin:miter;stroke-width:0.75;" x="108.804808" xlink:href="#m36696ac77a" y="172.853894"/>
     <use style="fill:#98df8a;stroke:#ffffff;stroke-linejoin:miter;stroke-width:0.75;" x="112.372441" xlink:href="#m36696ac77a" y="172.853894"/>
     <use style="fill:#98df8a;stroke:#ffffff;stroke-linejoin:miter;stroke-width:0.75;" x="115.940073" xlink:href="#m36696ac77a" y="170.057131"/>
     <use style="fill:#98df8a;stroke:#ffffff;stroke-linejoin:miter;stroke-width:0.75;" x="119.507705" xlink:href="#m36696ac77a" y="169.882333"/>
     <use style="fill:#98df8a;stroke:#ffffff;stroke-linejoin:miter;stroke-width:0.75;" x="123.075338" xlink:href="#m36696ac77a" y="169.707535"/>
     <use style="fill:#98df8a;stroke:#ffffff;stroke-linejoin:miter;stroke-width:0.75;" x="126.64297" xlink:href="#m36696ac77a" y="169.707535"/>
     <use style="fill:#98df8a;stroke:#ffffff;stroke-linejoin:miter;stroke-width:0.75;" x="130.210603" xlink:href="#m36696ac77a" y="168.309154"/>
     <use style="fill:#98df8a;stroke:#ffffff;stroke-linejoin:miter;stroke-width:0.75;" x="133.778235" xlink:href="#m36696ac77a" y="169.707535"/>
     <use style="fill:#98df8a;stroke:#ffffff;stroke-linejoin:miter;stroke-width:0.75;" x="137.345867" xlink:href="#m36696ac77a" y="171.280715"/>
     <use style="fill:#98df8a;stroke:#ffffff;stroke-linejoin:miter;stroke-width:0.75;" x="140.9135" xlink:href="#m36696ac77a" y="169.532738"/>
     <use style="fill:#98df8a;stroke:#ffffff;stroke-linejoin:miter;stroke-width:0.75;" x="144.481132" xlink:href="#m36696ac77a" y="166.561177"/>
     <use style="fill:#98df8a;stroke:#ffffff;stroke-linejoin:miter;stroke-width:0.75;" x="148.048764" xlink:href="#m36696ac77a" y="166.561177"/>
     <use style="fill:#98df8a;stroke:#ffffff;stroke-linejoin:miter;stroke-width:0.75;" x="151.616397" xlink:href="#m36696ac77a" y="166.561177"/>
     <use style="fill:#98df8a;stroke:#ffffff;stroke-linejoin:miter;stroke-width:0.75;" x="155.184029" xlink:href="#m36696ac77a" y="166.561177"/>
     <use style="fill:#98df8a;stroke:#ffffff;stroke-linejoin:miter;stroke-width:0.75;" x="158.751661" xlink:href="#m36696ac77a" y="166.211582"/>
     <use style="fill:#98df8a;stroke:#ffffff;stroke-linejoin:miter;stroke-width:0.75;" x="162.319294" xlink:href="#m36696ac77a" y="166.211582"/>
     <use style="fill:#98df8a;stroke:#ffffff;stroke-linejoin:miter;stroke-width:0.75;" x="165.886926" xlink:href="#m36696ac77a" y="166.211582"/>
     <use style="fill:#98df8a;stroke:#ffffff;stroke-linejoin:miter;stroke-width:0.75;" x="169.454559" xlink:href="#m36696ac77a" y="165.162796"/>
     <use style="fill:#98df8a;stroke:#ffffff;stroke-linejoin:miter;stroke-width:0.75;" x="173.022191" xlink:href="#m36696ac77a" y="165.162796"/>
     <use style="fill:#98df8a;stroke:#ffffff;stroke-linejoin:miter;stroke-width:0.75;" x="176.589823" xlink:href="#m36696ac77a" y="164.114009"/>
     <use style="fill:#98df8a;stroke:#ffffff;stroke-linejoin:miter;stroke-width:0.75;" x="180.157456" xlink:href="#m36696ac77a" y="162.715628"/>
     <use style="fill:#98df8a;stroke:#ffffff;stroke-linejoin:miter;stroke-width:0.75;" x="183.725088" xlink:href="#m36696ac77a" y="161.666842"/>
     <use style="fill:#98df8a;stroke:#ffffff;stroke-linejoin:miter;stroke-width:0.75;" x="187.29272" xlink:href="#m36696ac77a" y="161.492044"/>
     <use style="fill:#98df8a;stroke:#ffffff;stroke-linejoin:miter;stroke-width:0.75;" x="190.860353" xlink:href="#m36696ac77a" y="157.646495"/>
     <use style="fill:#98df8a;stroke:#ffffff;stroke-linejoin:miter;stroke-width:0.75;" x="194.427985" xlink:href="#m36696ac77a" y="162.016437"/>
     <use style="fill:#98df8a;stroke:#ffffff;stroke-linejoin:miter;stroke-width:0.75;" x="197.995618" xlink:href="#m36696ac77a" y="162.016437"/>
     <use style="fill:#98df8a;stroke:#ffffff;stroke-linejoin:miter;stroke-width:0.75;" x="201.56325" xlink:href="#m36696ac77a" y="160.26846"/>
     <use style="fill:#98df8a;stroke:#ffffff;stroke-linejoin:miter;stroke-width:0.75;" x="205.130882" xlink:href="#m36696ac77a" y="155.898518"/>
     <use style="fill:#98df8a;stroke:#ffffff;stroke-linejoin:miter;stroke-width:0.75;" x="208.698515" xlink:href="#m36696ac77a" y="155.898518"/>
     <use style="fill:#98df8a;stroke:#ffffff;stroke-linejoin:miter;stroke-width:0.75;" x="212.266147" xlink:href="#m36696ac77a" y="160.26846"/>
     <use style="fill:#98df8a;stroke:#ffffff;stroke-linejoin:miter;stroke-width:0.75;" x="215.833779" xlink:href="#m36696ac77a" y="161.142449"/>
     <use style="fill:#98df8a;stroke:#ffffff;stroke-linejoin:miter;stroke-width:0.75;" x="219.401412" xlink:href="#m36696ac77a" y="160.967651"/>
     <use style="fill:#98df8a;stroke:#ffffff;stroke-linejoin:miter;stroke-width:0.75;" x="222.969044" xlink:href="#m36696ac77a" y="160.26846"/>
     <use style="fill:#98df8a;stroke:#ffffff;stroke-linejoin:miter;stroke-width:0.75;" x="226.536676" xlink:href="#m36696ac77a" y="155.374125"/>
     <use style="fill:#98df8a;stroke:#ffffff;stroke-linejoin:miter;stroke-width:0.75;" x="230.104309" xlink:href="#m36696ac77a" y="155.374125"/>
     <use style="fill:#98df8a;stroke:#ffffff;stroke-linejoin:miter;stroke-width:0.75;" x="233.671941" xlink:href="#m36696ac77a" y="155.374125"/>
     <use style="fill:#98df8a;stroke:#ffffff;stroke-linejoin:miter;stroke-width:0.75;" x="237.239574" xlink:href="#m36696ac77a" y="158.870079"/>
     <use style="fill:#98df8a;stroke:#ffffff;stroke-linejoin:miter;stroke-width:0.75;" x="240.807206" xlink:href="#m36696ac77a" y="158.870079"/>
     <use style="fill:#98df8a;stroke:#ffffff;stroke-linejoin:miter;stroke-width:0.75;" x="244.374838" xlink:href="#m36696ac77a" y="154.500137"/>
     <use style="fill:#98df8a;stroke:#ffffff;stroke-linejoin:miter;stroke-width:0.75;" x="247.942471" xlink:href="#m36696ac77a" y="152.402564"/>
     <use style="fill:#98df8a;stroke:#ffffff;stroke-linejoin:miter;stroke-width:0.75;" x="251.510103" xlink:href="#m36696ac77a" y="150.130194"/>
     <use style="fill:#98df8a;stroke:#ffffff;stroke-linejoin:miter;stroke-width:0.75;" x="255.077735" xlink:href="#m36696ac77a" y="152.402564"/>
     <use style="fill:#98df8a;stroke:#ffffff;stroke-linejoin:miter;stroke-width:0.75;" x="258.645368" xlink:href="#m36696ac77a" y="152.402564"/>
     <use style="fill:#98df8a;stroke:#ffffff;stroke-linejoin:miter;stroke-width:0.75;" x="262.213" xlink:href="#m36696ac77a" y="149.256206"/>
     <use style="fill:#98df8a;stroke:#ffffff;stroke-linejoin:miter;stroke-width:0.75;" x="265.780632" xlink:href="#m36696ac77a" y="149.256206"/>
     <use style="fill:#98df8a;stroke:#ffffff;stroke-linejoin:miter;stroke-width:0.75;" x="269.348265" xlink:href="#m36696ac77a" y="148.382217"/>
     <use style="fill:#98df8a;stroke:#ffffff;stroke-linejoin:miter;stroke-width:0.75;" x="272.915897" xlink:href="#m36696ac77a" y="148.382217"/>
     <use style="fill:#98df8a;stroke:#ffffff;stroke-linejoin:miter;stroke-width:0.75;" x="276.48353" xlink:href="#m36696ac77a" y="148.382217"/>
     <use style="fill:#98df8a;stroke:#ffffff;stroke-linejoin:miter;stroke-width:0.75;" x="280.051162" xlink:href="#m36696ac77a" y="147.683027"/>
     <use style="fill:#98df8a;stroke:#ffffff;stroke-linejoin:miter;stroke-width:0.75;" x="283.618794" xlink:href="#m36696ac77a" y="148.906611"/>
     <use style="fill:#98df8a;stroke:#ffffff;stroke-linejoin:miter;stroke-width:0.75;" x="287.186427" xlink:href="#m36696ac77a" y="150.130194"/>
     <use style="fill:#98df8a;stroke:#ffffff;stroke-linejoin:miter;stroke-width:0.75;" x="290.754059" xlink:href="#m36696ac77a" y="148.906611"/>
     <use style="fill:#98df8a;stroke:#ffffff;stroke-linejoin:miter;stroke-width:0.75;" x="294.321691" xlink:href="#m36696ac77a" y="147.683027"/>
     <use style="fill:#98df8a;stroke:#ffffff;stroke-linejoin:miter;stroke-width:0.75;" x="297.889324" xlink:href="#m36696ac77a" y="147.683027"/>
     <use style="fill:#98df8a;stroke:#ffffff;stroke-linejoin:miter;stroke-width:0.75;" x="301.456956" xlink:href="#m36696ac77a" y="147.683027"/>
     <use style="fill:#98df8a;stroke:#ffffff;stroke-linejoin:miter;stroke-width:0.75;" x="305.024589" xlink:href="#m36696ac77a" y="147.683027"/>
     <use style="fill:#98df8a;stroke:#ffffff;stroke-linejoin:miter;stroke-width:0.75;" x="308.592221" xlink:href="#m36696ac77a" y="148.906611"/>
     <use style="fill:#98df8a;stroke:#ffffff;stroke-linejoin:miter;stroke-width:0.75;" x="312.159853" xlink:href="#m36696ac77a" y="148.731813"/>
     <use style="fill:#98df8a;stroke:#ffffff;stroke-linejoin:miter;stroke-width:0.75;" x="315.727486" xlink:href="#m36696ac77a" y="148.731813"/>
     <use style="fill:#98df8a;stroke:#ffffff;stroke-linejoin:miter;stroke-width:0.75;" x="319.295118" xlink:href="#m36696ac77a" y="147.683027"/>
     <use style="fill:#98df8a;stroke:#ffffff;stroke-linejoin:miter;stroke-width:0.75;" x="322.86275" xlink:href="#m36696ac77a" y="147.158634"/>
     <use style="fill:#98df8a;stroke:#ffffff;stroke-linejoin:miter;stroke-width:0.75;" x="326.430383" xlink:href="#m36696ac77a" y="147.158634"/>
     <use style="fill:#98df8a;stroke:#ffffff;stroke-linejoin:miter;stroke-width:0.75;" x="329.998015" xlink:href="#m36696ac77a" y="146.983836"/>
     <use style="fill:#98df8a;stroke:#ffffff;stroke-linejoin:miter;stroke-width:0.75;" x="333.565647" xlink:href="#m36696ac77a" y="143.66268"/>
     <use style="fill:#98df8a;stroke:#ffffff;stroke-linejoin:miter;stroke-width:0.75;" x="337.13328" xlink:href="#m36696ac77a" y="146.983836"/>
     <use style="fill:#98df8a;stroke:#ffffff;stroke-linejoin:miter;stroke-width:0.75;" x="340.700912" xlink:href="#m36696ac77a" y="146.634241"/>
     <use style="fill:#98df8a;stroke:#ffffff;stroke-linejoin:miter;stroke-width:0.75;" x="344.268545" xlink:href="#m36696ac77a" y="146.634241"/>
     <use style="fill:#98df8a;stroke:#ffffff;stroke-linejoin:miter;stroke-width:0.75;" x="347.836177" xlink:href="#m36696ac77a" y="145.585454"/>
     <use style="fill:#98df8a;stroke:#ffffff;stroke-linejoin:miter;stroke-width:0.75;" x="351.403809" xlink:href="#m36696ac77a" y="146.634241"/>
     <use style="fill:#98df8a;stroke:#ffffff;stroke-linejoin:miter;stroke-width:0.75;" x="354.971442" xlink:href="#m36696ac77a" y="146.284645"/>
     <use style="fill:#98df8a;stroke:#ffffff;stroke-linejoin:miter;stroke-width:0.75;" x="358.539074" xlink:href="#m36696ac77a" y="142.788691"/>
     <use style="fill:#98df8a;stroke:#ffffff;stroke-linejoin:miter;stroke-width:0.75;" x="362.106706" xlink:href="#m36696ac77a" y="142.788691"/>
     <use style="fill:#98df8a;stroke:#ffffff;stroke-linejoin:miter;stroke-width:0.75;" x="365.674339" xlink:href="#m36696ac77a" y="145.93505"/>
     <use style="fill:#98df8a;stroke:#ffffff;stroke-linejoin:miter;stroke-width:0.75;" x="369.241971" xlink:href="#m36696ac77a" y="145.235859"/>
     <use style="fill:#98df8a;stroke:#ffffff;stroke-linejoin:miter;stroke-width:0.75;" x="372.809604" xlink:href="#m36696ac77a" y="145.235859"/>
     <use style="fill:#98df8a;stroke:#ffffff;stroke-linejoin:miter;stroke-width:0.75;" x="376.377236" xlink:href="#m36696ac77a" y="145.93505"/>
     <use style="fill:#98df8a;stroke:#ffffff;stroke-linejoin:miter;stroke-width:0.75;" x="379.944868" xlink:href="#m36696ac77a" y="145.93505"/>
     <use style="fill:#98df8a;stroke:#ffffff;stroke-linejoin:miter;stroke-width:0.75;" x="383.512501" xlink:href="#m36696ac77a" y="145.93505"/>
     <use style="fill:#98df8a;stroke:#ffffff;stroke-linejoin:miter;stroke-width:0.75;" x="387.080133" xlink:href="#m36696ac77a" y="145.93505"/>
     <use style="fill:#98df8a;stroke:#ffffff;stroke-linejoin:miter;stroke-width:0.75;" x="390.647765" xlink:href="#m36696ac77a" y="145.93505"/>
     <use style="fill:#98df8a;stroke:#ffffff;stroke-linejoin:miter;stroke-width:0.75;" x="394.215398" xlink:href="#m36696ac77a" y="142.788691"/>
    </g>
   </g>
   <g id="line2d_17"/>
   <g id="line2d_18"/>
   <g id="line2d_19"/>
   <g id="patch_3">
    <path d="M 53.328125 260.951928 
L 53.328125 51.194703 
" style="fill:none;stroke:#000000;stroke-linecap:square;stroke-linejoin:miter;stroke-width:0.8;"/>
   </g>
   <g id="patch_4">
    <path d="M 69.560852 288.430125 
L 343.079334 288.430125 
" style="fill:none;stroke:#000000;stroke-linecap:square;stroke-linejoin:miter;stroke-width:0.8;"/>
   </g>
   <g id="text_16">
    <!-- stb_stbi_read_fuzzer (23h, 16 trials/fuzzer) -->
    <g transform="translate(104.0375 16.318125)scale(0.12 -0.12)">
     <defs>
      <path d="M 2834 3397 
L 2834 2853 
Q 2591 2978 2328 3040 
Q 2066 3103 1784 3103 
Q 1356 3103 1142 2972 
Q 928 2841 928 2578 
Q 928 2378 1081 2264 
Q 1234 2150 1697 2047 
L 1894 2003 
Q 2506 1872 2764 1633 
Q 3022 1394 3022 966 
Q 3022 478 2636 193 
Q 2250 -91 1575 -91 
Q 1294 -91 989 -36 
Q 684 19 347 128 
L 347 722 
Q 666 556 975 473 
Q 1284 391 1588 391 
Q 1994 391 2212 530 
Q 2431 669 2431 922 
Q 2431 1156 2273 1281 
Q 2116 1406 1581 1522 
L 1381 1569 
Q 847 1681 609 1914 
Q 372 2147 372 2553 
Q 372 3047 722 3315 
Q 1072 3584 1716 3584 
Q 2034 3584 2315 3537 
Q 2597 3491 2834 3397 
z
" id="DejaVuSans-73" transform="scale(0.015625)"/>
      <path d="M 3116 1747 
Q 3116 2381 2855 2742 
Q 2594 3103 2138 3103 
Q 1681 3103 1420 2742 
Q 1159 2381 1159 1747 
Q 1159 1113 1420 752 
Q 1681 391 2138 391 
Q 2594 391 2855 752 
Q 3116 1113 3116 1747 
z
M 1159 2969 
Q 1341 3281 1617 3432 
Q 1894 3584 2278 3584 
Q 2916 3584 3314 3078 
Q 3713 2572 3713 1747 
Q 3713 922 3314 415 
Q 2916 -91 2278 -91 
Q 1894 -91 1617 61 
Q 1341 213 1159 525 
L 1159 0 
L 581 0 
L 581 4863 
L 1159 4863 
L 1159 2969 
z
" id="DejaVuSans-62" transform="scale(0.015625)"/>
      <path d="M 3263 -1063 
L 3263 -1509 
L -63 -1509 
L -63 -1063 
L 3263 -1063 
z
" id="DejaVuSans-5f" transform="scale(0.015625)"/>
      <path d="M 2375 4863 
L 2375 4384 
L 1825 4384 
Q 1516 4384 1395 4259 
Q 1275 4134 1275 3809 
L 1275 3500 
L 2222 3500 
L 2222 3053 
L 1275 3053 
L 1275 0 
L 697 0 
L 697 3053 
L 147 3053 
L 147 3500 
L 697 3500 
L 697 3744 
Q 697 4328 969 4595 
Q 1241 4863 1831 4863 
L 2375 4863 
z
" id="DejaVuSans-66" transform="scale(0.015625)"/>
      <path d="M 353 3500 
L 3084 3500 
L 3084 2975 
L 922 459 
L 3084 459 
L 3084 0 
L 275 0 
L 275 525 
L 2438 3041 
L 353 3041 
L 353 3500 
z
" id="DejaVuSans-7a" transform="scale(0.015625)"/>
      <path d="M 750 794 
L 1409 794 
L 1409 256 
L 897 -744 
L 494 -744 
L 750 256 
L 750 794 
z
" id="DejaVuSans-2c" transform="scale(0.015625)"/>
      <path d="M 603 4863 
L 1178 4863 
L 1178 0 
L 603 0 
L 603 4863 
z
" id="DejaVuSans-6c" transform="scale(0.015625)"/>
      <path d="M 1625 4666 
L 2156 4666 
L 531 -594 
L 0 -594 
L 1625 4666 
z
" id="DejaVuSans-2f" transform="scale(0.015625)"/>
     </defs>
     <use xlink:href="#DejaVuSans-73"/>
     <use x="52.099609" xlink:href="#DejaVuSans-74"/>
     <use x="91.308594" xlink:href="#DejaVuSans-62"/>
     <use x="154.785156" xlink:href="#DejaVuSans-5f"/>
     <use x="204.785156" xlink:href="#DejaVuSans-73"/>
     <use x="256.884766" xlink:href="#DejaVuSans-74"/>
     <use x="296.09375" xlink:href="#DejaVuSans-62"/>
     <use x="359.570312" xlink:href="#DejaVuSans-69"/>
     <use x="387.353516" xlink:href="#DejaVuSans-5f"/>
     <use x="437.353516" xlink:href="#DejaVuSans-72"/>
     <use x="476.216797" xlink:href="#DejaVuSans-65"/>
     <use x="537.740234" xlink:href="#DejaVuSans-61"/>
     <use x="599.019531" xlink:href="#DejaVuSans-64"/>
     <use x="662.496094" xlink:href="#DejaVuSans-5f"/>
     <use x="712.496094" xlink:href="#DejaVuSans-66"/>
     <use x="747.701172" xlink:href="#DejaVuSans-75"/>
     <use x="811.080078" xlink:href="#DejaVuSans-7a"/>
     <use x="863.570312" xlink:href="#DejaVuSans-7a"/>
     <use x="916.060547" xlink:href="#DejaVuSans-65"/>
     <use x="977.583984" xlink:href="#DejaVuSans-72"/>
     <use x="1018.697266" xlink:href="#DejaVuSans-20"/>
     <use x="1050.484375" xlink:href="#DejaVuSans-28"/>
     <use x="1089.498047" xlink:href="#DejaVuSans-32"/>
     <use x="1153.121094" xlink:href="#DejaVuSans-33"/>
     <use x="1216.744141" xlink:href="#DejaVuSans-68"/>
     <use x="1280.123047" xlink:href="#DejaVuSans-2c"/>
     <use x="1311.910156" xlink:href="#DejaVuSans-20"/>
     <use x="1343.697266" xlink:href="#DejaVuSans-31"/>
     <use x="1407.320312" xlink:href="#DejaVuSans-36"/>
     <use x="1470.943359" xlink:href="#DejaVuSans-20"/>
     <use x="1502.730469" xlink:href="#DejaVuSans-74"/>
     <use x="1541.939453" xlink:href="#DejaVuSans-72"/>
     <use x="1583.052734" xlink:href="#DejaVuSans-69"/>
     <use x="1610.835938" xlink:href="#DejaVuSans-61"/>
     <use x="1672.115234" xlink:href="#DejaVuSans-6c"/>
     <use x="1699.898438" xlink:href="#DejaVuSans-73"/>
     <use x="1751.998047" xlink:href="#DejaVuSans-2f"/>
     <use x="1785.689453" xlink:href="#DejaVuSans-66"/>
     <use x="1820.894531" xlink:href="#DejaVuSans-75"/>
     <use x="1884.273438" xlink:href="#DejaVuSans-7a"/>
     <use x="1936.763672" xlink:href="#DejaVuSans-7a"/>
     <use x="1989.253906" xlink:href="#DejaVuSans-65"/>
     <use x="2050.777344" xlink:href="#DejaVuSans-72"/>
     <use x="2091.890625" xlink:href="#DejaVuSans-29"/>
    </g>
   </g>
   <g id="legend_1">
    <g id="line2d_20">
     <path d="M 414.448125 30.416562 
L 434.448125 30.416562 
" style="fill:none;stroke:#d62728;stroke-linecap:square;stroke-width:1.5;"/>
    </g>
    <g id="line2d_21">
     <defs>
      <path d="M 0 -3 
L -3 3 
L 3 3 
z
" id="m1288c0b615" style="stroke:#d62728;stroke-linejoin:miter;"/>
     </defs>
     <g>
      <use style="fill:#d62728;stroke:#d62728;stroke-linejoin:miter;" x="424.448125" xlink:href="#m1288c0b615" y="30.416562"/>
     </g>
    </g>
    <g id="text_17">
     <!-- afl_scheduling_random -->
     <g transform="translate(442.448125 33.916562)scale(0.1 -0.1)">
      <use xlink:href="#DejaVuSans-61"/>
      <use x="61.279297" xlink:href="#DejaVuSans-66"/>
      <use x="96.484375" xlink:href="#DejaVuSans-6c"/>
      <use x="124.267578" xlink:href="#DejaVuSans-5f"/>
      <use x="174.267578" xlink:href="#DejaVuSans-73"/>
      <use x="226.367188" xlink:href="#DejaVuSans-63"/>
      <use x="281.347656" xlink:href="#DejaVuSans-68"/>
      <use x="344.726562" xlink:href="#DejaVuSans-65"/>
      <use x="406.25" xlink:href="#DejaVuSans-64"/>
      <use x="469.726562" xlink:href="#DejaVuSans-75"/>
      <use x="533.105469" xlink:href="#DejaVuSans-6c"/>
      <use x="560.888672" xlink:href="#DejaVuSans-69"/>
      <use x="588.671875" xlink:href="#DejaVuSans-6e"/>
      <use x="652.050781" xlink:href="#DejaVuSans-67"/>
      <use x="715.527344" xlink:href="#DejaVuSans-5f"/>
      <use x="765.527344" xlink:href="#DejaVuSans-72"/>
      <use x="806.640625" xlink:href="#DejaVuSans-61"/>
      <use x="867.919922" xlink:href="#DejaVuSans-6e"/>
      <use x="931.298828" xlink:href="#DejaVuSans-64"/>
      <use x="994.775391" xlink:href="#DejaVuSans-6f"/>
      <use x="1055.957031" xlink:href="#DejaVuSans-6d"/>
     </g>
    </g>
    <g id="line2d_22">
     <path d="M 414.448125 45.372813 
L 434.448125 45.372813 
" style="fill:none;stroke:#1f77b4;stroke-linecap:square;stroke-width:1.5;"/>
    </g>
    <g id="line2d_23">
     <defs>
      <path d="M 0 3 
C 0.795609 3 1.55874 2.683901 2.12132 2.12132 
C 2.683901 1.55874 3 0.795609 3 0 
C 3 -0.795609 2.683901 -1.55874 2.12132 -2.12132 
C 1.55874 -2.683901 0.795609 -3 0 -3 
C -0.795609 -3 -1.55874 -2.683901 -2.12132 -2.12132 
C -2.683901 -1.55874 -3 -0.795609 -3 0 
C -3 0.795609 -2.683901 1.55874 -2.12132 2.12132 
C -1.55874 2.683901 -0.795609 3 0 3 
z
" id="mbd93910f1b" style="stroke:#1f77b4;"/>
     </defs>
     <g>
      <use style="fill:#1f77b4;stroke:#1f77b4;" x="424.448125" xlink:href="#mbd93910f1b" y="45.372813"/>
     </g>
    </g>
    <g id="text_18">
     <!-- afl -->
     <g transform="translate(442.448125 48.872813)scale(0.1 -0.1)">
      <use xlink:href="#DejaVuSans-61"/>
      <use x="61.279297" xlink:href="#DejaVuSans-66"/>
      <use x="96.484375" xlink:href="#DejaVuSans-6c"/>
     </g>
    </g>
    <g id="line2d_24">
     <path d="M 414.448125 60.050937 
L 434.448125 60.050937 
" style="fill:none;stroke:#98df8a;stroke-linecap:square;stroke-width:1.5;"/>
    </g>
    <g id="line2d_25">
     <defs>
      <path d="M -0 3 
L 3 -3 
L -3 -3 
z
" id="mffc193208d" style="stroke:#98df8a;stroke-linejoin:miter;"/>
     </defs>
     <g>
      <use style="fill:#98df8a;stroke:#98df8a;stroke-linejoin:miter;" x="424.448125" xlink:href="#mffc193208d" y="60.050937"/>
     </g>
    </g>
    <g id="text_19">
     <!-- afl_scheduling_lifo -->
     <g transform="translate(442.448125 63.550937)scale(0.1 -0.1)">
      <use xlink:href="#DejaVuSans-61"/>
      <use x="61.279297" xlink:href="#DejaVuSans-66"/>
      <use x="96.484375" xlink:href="#DejaVuSans-6c"/>
      <use x="124.267578" xlink:href="#DejaVuSans-5f"/>
      <use x="174.267578" xlink:href="#DejaVuSans-73"/>
      <use x="226.367188" xlink:href="#DejaVuSans-63"/>
      <use x="281.347656" xlink:href="#DejaVuSans-68"/>
      <use x="344.726562" xlink:href="#DejaVuSans-65"/>
      <use x="406.25" xlink:href="#DejaVuSans-64"/>
      <use x="469.726562" xlink:href="#DejaVuSans-75"/>
      <use x="533.105469" xlink:href="#DejaVuSans-6c"/>
      <use x="560.888672" xlink:href="#DejaVuSans-69"/>
      <use x="588.671875" xlink:href="#DejaVuSans-6e"/>
      <use x="652.050781" xlink:href="#DejaVuSans-67"/>
      <use x="715.527344" xlink:href="#DejaVuSans-5f"/>
      <use x="765.527344" xlink:href="#DejaVuSans-6c"/>
      <use x="793.310547" xlink:href="#DejaVuSans-69"/>
      <use x="821.09375" xlink:href="#DejaVuSans-66"/>
      <use x="856.298828" xlink:href="#DejaVuSans-6f"/>
     </g>
    </g>
   </g>
  </g>
 </g>
 <defs>
  <clipPath id="pbb3ced48fb">
   <rect height="266.112" width="357.12" x="53.328125" y="22.318125"/>
  </clipPath>
 </defs>
</svg>
