<?xml version="1.0" encoding="utf-8" standalone="no"?>
<!DOCTYPE svg PUBLIC "-//W3C//DTD SVG 1.1//EN"
  "http://www.w3.org/Graphics/SVG/1.1/DTD/svg11.dtd">
<svg height="325.986375pt" version="1.1" viewBox="0 0 575.348125 325.986375" width="575.348125pt" xmlns="http://www.w3.org/2000/svg" xmlns:xlink="http://www.w3.org/1999/xlink">
 <metadata>
  <rdf:RDF xmlns:cc="http://creativecommons.org/ns#" xmlns:dc="http://purl.org/dc/elements/1.1/" xmlns:rdf="http://www.w3.org/1999/02/22-rdf-syntax-ns#">
   <cc:Work>
    <dc:type rdf:resource="http://purl.org/dc/dcmitype/StillImage"/>
    <dc:date>2022-05-31T14:35:34.124002</dc:date>
    <dc:format>image/svg+xml</dc:format>
    <dc:creator>
     <cc:Agent>
      <dc:title>Matplotlib v3.4.3, https://matplotlib.org/</dc:title>
     </cc:Agent>
    </dc:creator>
   </cc:Work>
  </rdf:RDF>
 </metadata>
 <defs>
  <style type="text/css">*{stroke-linecap:butt;stroke-linejoin:round;}</style>
 </defs>
 <g id="figure_1">
  <g id="patch_1">
   <path d="M 0 325.986375 
L 575.348125 325.986375 
L 575.348125 0 
L 0 0 
z
" style="fill:#ffffff;"/>
  </g>
  <g id="axes_1">
   <g id="patch_2">
    <path d="M 59.690625 288.430125 
L 416.810625 288.430125 
L 416.810625 22.318125 
L 59.690625 22.318125 
z
" style="fill:#ffffff;"/>
   </g>
   <g id="PolyCollection_1">
    <defs>
     <path d="M 75.923352 -214.824234 
L 75.923352 -192.397865 
L 125.689806 -208.772674 
L 154.801316 -214.468259 
L 175.45626 -217.173663 
L 191.47748 -222.726859 
L 204.567769 -221.587741 
L 215.635452 -227.532509 
L 225.222714 -229.454769 
L 233.679279 -235.435134 
L 241.243934 -235.613121 
L 248.086996 -237.96255 
L 254.334223 -240.403643 
L 260.081115 -238.64691 
L 265.401906 -245.93637 
L 270.355443 -245.93637 
L 274.989168 -250.279254 
L 279.341883 -252.628683 
L 283.445733 -249.033345 
L 287.327641 -249.10454 
L 291.010388 -254.301761 
L 294.513415 -255.084905 
L 297.85345 -256.757983 
L 301.04499 -257.861503 
L 304.100677 -258.644646 
L 307.031607 -261.599231 
L 309.847569 -261.599231 
L 312.557242 -262.168789 
L 315.168359 -262.168789 
L 317.68784 -258.822633 
L 320.121897 -262.239984 
L 322.476135 -262.667153 
L 324.755622 -262.667153 
L 326.96496 -263.023127 
L 329.108337 -263.094322 
L 331.189579 -265.951904 
L 333.212187 -266.582868 
L 335.179373 -266.654063 
L 337.094095 -267.330414 
L 338.959078 -267.330414 
L 340.776842 -268.291544 
L 342.549717 -268.353839 
L 344.279869 -267.757583 
L 345.969307 -268.362739 
L 347.619904 -268.362739 
L 349.233406 -268.362739 
L 350.811444 -268.362739 
L 352.355542 -268.006764 
L 353.867131 -268.861102 
L 355.347551 -268.861102 
L 356.798061 -268.683115 
L 358.219847 -269.359466 
L 359.614023 -269.359466 
L 360.981642 -270.783362 
L 362.323696 -270.783362 
L 363.641124 -271.281726 
L 364.934813 -270.67568 
L 366.205604 -271.103739 
L 367.454294 -271.103739 
L 368.681636 -271.78009 
L 369.888351 -271.78009 
L 371.075119 -271.815687 
L 372.242589 -271.886882 
L 373.391378 -272.492038 
L 374.522076 -272.526746 
L 375.635243 -272.527636 
L 376.731414 -272.527636 
L 377.8111 -272.527636 
L 378.874791 -272.527636 
L 379.922953 -272.527636 
L 380.956033 -272.705623 
L 381.974459 -272.527636 
L 382.978641 -273.55996 
L 383.968971 -273.310779 
L 384.945827 -273.55996 
L 385.909571 -273.55996 
L 386.860549 -273.453168 
L 387.799096 -274.734675 
L 388.725532 -275.090649 
L 389.640166 -275.767 
L 390.543295 -275.660208 
L 391.435205 -275.660208 
L 392.316171 -275.541846 
L 393.186458 -275.62461 
L 394.046323 -275.62461 
L 394.896011 -275.62461 
L 395.735761 -275.767 
L 396.565803 -277.68926 
L 397.386358 -277.68926 
L 398.197642 -277.68926 
L 398.99986 -277.68926 
L 399.793214 -277.68926 
L 400.577898 -277.974039 
L 400.577898 -283.100066 
L 400.577898 -283.100066 
L 399.793214 -283.100066 
L 398.99986 -283.100066 
L 398.197642 -283.100066 
L 397.386358 -283.100066 
L 396.565803 -283.100066 
L 395.735761 -284.808742 
L 394.896011 -284.808742 
L 394.046323 -283.954404 
L 393.186458 -284.844339 
L 392.316171 -284.844339 
L 391.435205 -284.844339 
L 390.543295 -284.844339 
L 389.640166 -284.844339 
L 388.725532 -284.844339 
L 387.799096 -283.356368 
L 386.860549 -282.213691 
L 385.909571 -281.925352 
L 384.945827 -281.925352 
L 383.968971 -281.854157 
L 382.978641 -282.067741 
L 381.974459 -281.106611 
L 380.956033 -281.106611 
L 379.922953 -279.397936 
L 378.874791 -279.397936 
L 377.8111 -279.326741 
L 376.731414 -279.326741 
L 375.635243 -279.291143 
L 374.522076 -279.291143 
L 373.391378 -279.291143 
L 372.242589 -279.009924 
L 371.075119 -278.294416 
L 369.888351 -278.436806 
L 368.681636 -277.974039 
L 367.454294 -278.045234 
L 366.205604 -278.436806 
L 364.934813 -277.511273 
L 363.641124 -276.656935 
L 362.323696 -276.478948 
L 360.981642 -276.483398 
L 359.614023 -276.478948 
L 358.219847 -276.478948 
L 356.798061 -276.478948 
L 355.347551 -276.514545 
L 353.867131 -276.479838 
L 352.355542 -276.514545 
L 350.811444 -276.550143 
L 349.233406 -276.478948 
L 347.619904 -276.478948 
L 345.969307 -276.478948 
L 344.279869 -276.057119 
L 342.549717 -276.265364 
L 340.776842 -276.091826 
L 338.959078 -276.091826 
L 337.094095 -276.051779 
L 335.179373 -276.265364 
L 333.212187 -276.265364 
L 331.189579 -276.051779 
L 329.108337 -276.051779 
L 326.96496 -276.051779 
L 324.755622 -274.948259 
L 322.476135 -273.773545 
L 320.121897 -273.666753 
L 317.68784 -273.666753 
L 315.168359 -273.84474 
L 312.557242 -273.84474 
L 309.847569 -272.919207 
L 307.031607 -272.919207 
L 304.100677 -271.92248 
L 301.04499 -270.213804 
L 297.85345 -268.718713 
L 294.513415 -267.437206 
L 291.010388 -267.294816 
L 287.327641 -267.152427 
L 283.445733 -267.010037 
L 279.341883 -267.010037 
L 274.989168 -266.796452 
L 270.355443 -266.582868 
L 265.401906 -266.298089 
L 260.081115 -263.607814 
L 254.334223 -260.495711 
L 248.086996 -259.036217 
L 241.243934 -258.787035 
L 233.679279 -258.395464 
L 225.222714 -255.654463 
L 215.635452 -251.351626 
L 204.567769 -249.567306 
L 191.47748 -246.861903 
L 175.45626 -245.438006 
L 154.801316 -244.01411 
L 125.689806 -239.457641 
L 75.923352 -214.824234 
z
" id="m394426a388" style="stroke:#1f77b4;stroke-opacity:0.2;"/>
    </defs>
    <g clip-path="url(#p458ab115a2)">
     <use style="fill:#1f77b4;fill-opacity:0.2;stroke:#1f77b4;stroke-opacity:0.2;" x="0" xlink:href="#m394426a388" y="325.986375"/>
    </g>
   </g>
   <g id="PolyCollection_2">
    <defs>
     <path d="M 75.923352 -233.334887 
L 75.923352 -190.333215 
L 125.689806 -208.4167 
L 154.801316 -217.031273 
L 175.45626 -233.619666 
L 191.47748 -244.085305 
L 204.567769 -246.149955 
L 215.635452 -247.289072 
L 225.222714 -249.353721 
L 233.679279 -249.424916 
L 241.243934 -251.560761 
L 248.086996 -251.560761 
L 254.334223 -254.479749 
L 260.081115 -254.622138 
L 265.401906 -254.764528 
L 270.355443 -255.903645 
L 274.989168 -256.544398 
L 279.341883 -256.900372 
L 283.445733 -256.971567 
L 287.327641 -257.042762 
L 291.010388 -256.971567 
L 294.513415 -257.007165 
L 297.85345 -257.042762 
L 301.04499 -257.8971 
L 304.100677 -257.8971 
L 307.031607 -258.680243 
L 309.847569 -258.680243 
L 312.557242 -258.680243 
L 315.168359 -259.107412 
L 317.68784 -260.104139 
L 320.121897 -260.104139 
L 322.476135 -260.104139 
L 324.755622 -260.104139 
L 326.96496 -261.385646 
L 329.108337 -261.385646 
L 331.189579 -261.385646 
L 333.212187 -261.528036 
L 335.179373 -261.528036 
L 337.094095 -261.528036 
L 338.959078 -261.528036 
L 340.776842 -261.528036 
L 342.549717 -261.528036 
L 344.279869 -261.670425 
L 345.969307 -261.670425 
L 347.619904 -261.670425 
L 349.233406 -261.670425 
L 350.811444 -261.88401 
L 352.355542 -261.88401 
L 353.867131 -264.233439 
L 355.347551 -264.233439 
L 356.798061 -264.233439 
L 358.219847 -264.233439 
L 359.614023 -264.233439 
L 360.981642 -264.233439 
L 362.323696 -264.233439 
L 363.641124 -264.233439 
L 364.934813 -264.233439 
L 366.205604 -264.233439 
L 367.454294 -264.233439 
L 368.681636 -264.233439 
L 369.888351 -264.233439 
L 371.075119 -264.233439 
L 372.242589 -264.233439 
L 373.391378 -264.233439 
L 374.522076 -264.233439 
L 375.635243 -264.233439 
L 376.731414 -264.233439 
L 377.8111 -264.233439 
L 378.874791 -267.366011 
L 379.922953 -267.366011 
L 380.956033 -267.366011 
L 381.974459 -267.366011 
L 382.978641 -267.366011 
L 383.968971 -267.366011 
L 384.945827 -267.366011 
L 385.909571 -267.366011 
L 386.860549 -267.93557 
L 387.799096 -268.077959 
L 388.725532 -268.077959 
L 389.640166 -268.077959 
L 390.543295 -268.077959 
L 391.435205 -268.077959 
L 392.316171 -268.077959 
L 393.186458 -268.077959 
L 394.046323 -268.077959 
L 394.896011 -268.077959 
L 395.735761 -268.718713 
L 396.565803 -269.430661 
L 397.386358 -269.430661 
L 398.197642 -269.430661 
L 398.99986 -269.430661 
L 399.793214 -269.430661 
L 400.577898 -269.074687 
L 400.577898 -291.57225 
L 400.577898 -291.57225 
L 399.793214 -276.336558 
L 398.99986 -276.336558 
L 398.197642 -274.699078 
L 397.386358 -274.414298 
L 396.565803 -274.414298 
L 395.735761 -274.414298 
L 394.896011 -274.414298 
L 394.046323 -274.414298 
L 393.186458 -274.414298 
L 392.316171 -274.414298 
L 391.435205 -274.414298 
L 390.543295 -274.414298 
L 389.640166 -274.414298 
L 388.725532 -274.414298 
L 387.799096 -274.414298 
L 386.860549 -274.414298 
L 385.909571 -274.414298 
L 384.945827 -274.414298 
L 383.968971 -274.414298 
L 382.978641 -272.492038 
L 381.974459 -272.492038 
L 380.956033 -272.492038 
L 379.922953 -272.492038 
L 378.874791 -272.420843 
L 377.8111 -272.207259 
L 376.731414 -271.424116 
L 375.635243 -271.424116 
L 374.522076 -271.424116 
L 373.391378 -271.424116 
L 372.242589 -271.424116 
L 371.075119 -271.424116 
L 369.888351 -271.424116 
L 368.681636 -271.424116 
L 367.454294 -271.424116 
L 366.205604 -271.424116 
L 364.934813 -271.352921 
L 363.641124 -271.352921 
L 362.323696 -271.139337 
L 360.981642 -271.139337 
L 359.614023 -270.854557 
L 358.219847 -270.783362 
L 356.798061 -270.640973 
L 355.347551 -270.640973 
L 353.867131 -270.640973 
L 352.355542 -270.640973 
L 350.811444 -270.569778 
L 349.233406 -270.569778 
L 347.619904 -270.569778 
L 345.969307 -270.427388 
L 344.279869 -270.427388 
L 342.549717 -270.427388 
L 340.776842 -270.427388 
L 338.959078 -270.427388 
L 337.094095 -270.427388 
L 335.179373 -270.071414 
L 333.212187 -269.929025 
L 331.189579 -269.85783 
L 329.108337 -269.85783 
L 326.96496 -269.145882 
L 324.755622 -268.291544 
L 322.476135 -268.291544 
L 320.121897 -267.79318 
L 317.68784 -267.65079 
L 315.168359 -264.518218 
L 312.557242 -264.518218 
L 309.847569 -264.518218 
L 307.031607 -263.877465 
L 304.100677 -263.877465 
L 301.04499 -263.307906 
L 297.85345 -263.307906 
L 294.513415 -262.026399 
L 291.010388 -261.955205 
L 287.327641 -261.812815 
L 283.445733 -261.528036 
L 279.341883 -261.456841 
L 274.989168 -261.456841 
L 270.355443 -260.816088 
L 265.401906 -259.890555 
L 260.081115 -259.890555 
L 254.334223 -258.466658 
L 248.086996 -258.466658 
L 241.243934 -257.256347 
L 233.679279 -256.117229 
L 225.222714 -256.046035 
L 215.635452 -255.83245 
L 204.567769 -254.123774 
L 191.47748 -252.771073 
L 175.45626 -252.272709 
L 154.801316 -249.211332 
L 125.689806 -241.80707 
L 75.923352 -233.334887 
z
" id="m60cf71247a" style="stroke:#d62728;stroke-opacity:0.2;"/>
    </defs>
    <g clip-path="url(#p458ab115a2)">
     <use style="fill:#d62728;fill-opacity:0.2;stroke:#d62728;stroke-opacity:0.2;" x="0" xlink:href="#m60cf71247a" y="325.986375"/>
    </g>
   </g>
   <g id="PolyCollection_3">
    <defs>
     <path d="M 75.923352 -149.253804 
L 75.923352 -49.65225 
L 125.689806 -63.108071 
L 154.801316 -70.583527 
L 175.45626 -72.007424 
L 191.47748 -76.741879 
L 204.567769 -82.686647 
L 215.635452 -104.614651 
L 225.222714 -109.02873 
L 233.679279 -118.640921 
L 241.243934 -113.086835 
L 248.086996 -113.798783 
L 254.334223 -114.012368 
L 260.081115 -116.860161 
L 265.401906 -119.280784 
L 270.355443 -121.487824 
L 274.989168 -120.740278 
L 279.341883 -125.047565 
L 283.445733 -128.251332 
L 287.327641 -128.464916 
L 291.010388 -131.170319 
L 294.513415 -131.917865 
L 297.85345 -136.581126 
L 301.04499 -136.581126 
L 304.100677 -136.581126 
L 307.031607 -136.901503 
L 309.847569 -138.396594 
L 312.557242 -139.927282 
L 315.168359 -138.752568 
L 317.68784 -144.483751 
L 320.121897 -146.583998 
L 322.476135 -147.046764 
L 324.755622 -148.470661 
L 326.96496 -151.674428 
L 329.108337 -148.61305 
L 331.189579 -148.61305 
L 333.212187 -149.894557 
L 335.179373 -150.036947 
L 337.094095 -150.82009 
L 338.959078 -152.457571 
L 340.776842 -152.457571 
L 342.549717 -155.447753 
L 344.279869 -165.343833 
L 345.969307 -159.221079 
L 347.619904 -166.910119 
L 349.233406 -166.835365 
L 350.811444 -152.813545 
L 352.355542 -152.88474 
L 353.867131 -152.88474 
L 355.347551 -166.910119 
L 356.798061 -160.253404 
L 358.219847 -159.363468 
L 359.614023 -159.363468 
L 360.981642 -160.289001 
L 362.323696 -162.49604 
L 363.641124 -158.79391 
L 364.934813 -155.091779 
L 366.205604 -155.091779 
L 367.454294 -155.091779 
L 368.681636 -155.162974 
L 369.888351 -168.68999 
L 371.075119 -157.939572 
L 372.242589 -169.259548 
L 373.391378 -170.968224 
L 374.522076 -170.968224 
L 375.635243 -166.198171 
L 376.731414 -166.198171 
L 377.8111 -166.269366 
L 378.874791 -166.233769 
L 379.922953 -166.340561 
L 380.956033 -166.340561 
L 381.974459 -166.554145 
L 382.978641 -166.554145 
L 383.968971 -166.554145 
L 384.945827 -178.799654 
L 385.909571 -178.799654 
L 386.860549 -178.799654 
L 387.799096 -178.942044 
L 388.725532 -181.718642 
L 389.640166 -178.942044 
L 390.543295 -178.942044 
L 391.435205 -178.942044 
L 392.316171 -179.298018 
L 393.186458 -174.955134 
L 394.046323 -179.440408 
L 394.896011 -179.511603 
L 395.735761 -179.511603 
L 396.565803 -179.511603 
L 397.386358 -179.653992 
L 398.197642 -176.414628 
L 398.99986 -178.977641 
L 399.793214 -180.36594 
L 400.577898 -180.36594 
L 400.577898 -249.92328 
L 400.577898 -249.92328 
L 399.793214 -249.92506 
L 398.99986 -250.243657 
L 398.197642 -249.92328 
L 397.386358 -250.564033 
L 396.565803 -250.564033 
L 395.735761 -250.564033 
L 394.896011 -250.492839 
L 394.046323 -249.92328 
L 393.186458 -249.282527 
L 392.316171 -248.652452 
L 391.435205 -248.641773 
L 390.543295 -246.648318 
L 389.640166 -246.648318 
L 388.725532 -245.402409 
L 387.799096 -246.648318 
L 386.860549 -246.648318 
L 385.909571 -246.648318 
L 384.945827 -246.648318 
L 383.968971 -246.648318 
L 382.978641 -246.648318 
L 381.974459 -246.648318 
L 380.956033 -246.648318 
L 379.922953 -245.402409 
L 378.874791 -244.1565 
L 377.8111 -244.1565 
L 376.731414 -244.1565 
L 375.635243 -243.017382 
L 374.522076 -243.230967 
L 373.391378 -243.586941 
L 372.242589 -243.126844 
L 371.075119 -244.01411 
L 369.888351 -244.01411 
L 368.681636 -244.01411 
L 367.454294 -243.942915 
L 366.205604 -243.942915 
L 364.934813 -243.942915 
L 363.641124 -241.80707 
L 362.323696 -240.952733 
L 360.981642 -240.952733 
L 359.614023 -240.952733 
L 358.219847 -240.952733 
L 356.798061 -242.056252 
L 355.347551 -241.878265 
L 353.867131 -243.017382 
L 352.355542 -243.017382 
L 350.811444 -242.874993 
L 349.233406 -241.878265 
L 347.619904 -241.237512 
L 345.969307 -241.593486 
L 344.279869 -241.273109 
L 342.549717 -241.273109 
L 340.776842 -240.127763 
L 338.959078 -240.127763 
L 337.094095 -240.127763 
L 335.179373 -240.098395 
L 333.212187 -242.447824 
L 331.189579 -241.735876 
L 329.108337 -241.735876 
L 326.96496 -238.816888 
L 324.755622 -237.891355 
L 322.476135 -235.8979 
L 320.121897 -235.8979 
L 317.68784 -239.244057 
L 315.168359 -234.829978 
L 312.557242 -230.629484 
L 309.847569 -233.868848 
L 307.031607 -233.797653 
L 304.100677 -229.884608 
L 301.04499 -233.406082 
L 297.85345 -229.632756 
L 294.513415 -228.244457 
L 291.010388 -227.710496 
L 287.327641 -227.568106 
L 283.445733 -227.568106 
L 279.341883 -227.069743 
L 274.989168 -225.752638 
L 270.355443 -223.296417 
L 265.401906 -222.1573 
L 260.081115 -220.875793 
L 254.334223 -219.095923 
L 248.086996 -215.607377 
L 241.243934 -214.112285 
L 233.679279 -213.011435 
L 225.222714 -212.11883 
L 215.635452 -208.13192 
L 204.567769 -203.789036 
L 191.47748 -189.336488 
L 175.45626 -180.330343 
L 154.801316 -176.023056 
L 125.689806 -169.330743 
L 75.923352 -149.253804 
z
" id="m6ccfb5e1fd" style="stroke:#98df8a;stroke-opacity:0.2;"/>
    </defs>
    <g clip-path="url(#p458ab115a2)">
     <use style="fill:#98df8a;fill-opacity:0.2;stroke:#98df8a;stroke-opacity:0.2;" x="0" xlink:href="#m6ccfb5e1fd" y="325.986375"/>
    </g>
   </g>
   <g id="matplotlib.axis_1">
    <g id="xtick_1">
     <g id="line2d_1">
      <defs>
       <path d="M 0 0 
L 0 3.5 
" id="mb57d182ba5" style="stroke:#000000;stroke-width:0.8;"/>
      </defs>
      <g>
       <use style="stroke:#000000;stroke-width:0.8;" x="75.923352" xlink:href="#mb57d182ba5" y="288.430125"/>
      </g>
     </g>
     <g id="text_1">
      <!-- 14m -->
      <g transform="translate(64.69054 303.028562)scale(0.1 -0.1)">
       <defs>
        <path d="M 794 531 
L 1825 531 
L 1825 4091 
L 703 3866 
L 703 4441 
L 1819 4666 
L 2450 4666 
L 2450 531 
L 3481 531 
L 3481 0 
L 794 0 
L 794 531 
z
" id="DejaVuSans-31" transform="scale(0.015625)"/>
        <path d="M 2419 4116 
L 825 1625 
L 2419 1625 
L 2419 4116 
z
M 2253 4666 
L 3047 4666 
L 3047 1625 
L 3713 1625 
L 3713 1100 
L 3047 1100 
L 3047 0 
L 2419 0 
L 2419 1100 
L 313 1100 
L 313 1709 
L 2253 4666 
z
" id="DejaVuSans-34" transform="scale(0.015625)"/>
        <path d="M 3328 2828 
Q 3544 3216 3844 3400 
Q 4144 3584 4550 3584 
Q 5097 3584 5394 3201 
Q 5691 2819 5691 2113 
L 5691 0 
L 5113 0 
L 5113 2094 
Q 5113 2597 4934 2840 
Q 4756 3084 4391 3084 
Q 3944 3084 3684 2787 
Q 3425 2491 3425 1978 
L 3425 0 
L 2847 0 
L 2847 2094 
Q 2847 2600 2669 2842 
Q 2491 3084 2119 3084 
Q 1678 3084 1418 2786 
Q 1159 2488 1159 1978 
L 1159 0 
L 581 0 
L 581 3500 
L 1159 3500 
L 1159 2956 
Q 1356 3278 1631 3431 
Q 1906 3584 2284 3584 
Q 2666 3584 2933 3390 
Q 3200 3197 3328 2828 
z
" id="DejaVuSans-6d" transform="scale(0.015625)"/>
       </defs>
       <use xlink:href="#DejaVuSans-31"/>
       <use x="63.623047" xlink:href="#DejaVuSans-34"/>
       <use x="127.246094" xlink:href="#DejaVuSans-6d"/>
      </g>
     </g>
    </g>
    <g id="xtick_2">
     <g id="line2d_2">
      <g>
       <use style="stroke:#000000;stroke-width:0.8;" x="140.854435" xlink:href="#mb57d182ba5" y="288.430125"/>
      </g>
     </g>
     <g id="text_2">
      <!-- 37m -->
      <g transform="translate(129.621622 303.028562)scale(0.1 -0.1)">
       <defs>
        <path d="M 2597 2516 
Q 3050 2419 3304 2112 
Q 3559 1806 3559 1356 
Q 3559 666 3084 287 
Q 2609 -91 1734 -91 
Q 1441 -91 1130 -33 
Q 819 25 488 141 
L 488 750 
Q 750 597 1062 519 
Q 1375 441 1716 441 
Q 2309 441 2620 675 
Q 2931 909 2931 1356 
Q 2931 1769 2642 2001 
Q 2353 2234 1838 2234 
L 1294 2234 
L 1294 2753 
L 1863 2753 
Q 2328 2753 2575 2939 
Q 2822 3125 2822 3475 
Q 2822 3834 2567 4026 
Q 2313 4219 1838 4219 
Q 1578 4219 1281 4162 
Q 984 4106 628 3988 
L 628 4550 
Q 988 4650 1302 4700 
Q 1616 4750 1894 4750 
Q 2613 4750 3031 4423 
Q 3450 4097 3450 3541 
Q 3450 3153 3228 2886 
Q 3006 2619 2597 2516 
z
" id="DejaVuSans-33" transform="scale(0.015625)"/>
        <path d="M 525 4666 
L 3525 4666 
L 3525 4397 
L 1831 0 
L 1172 0 
L 2766 4134 
L 525 4134 
L 525 4666 
z
" id="DejaVuSans-37" transform="scale(0.015625)"/>
       </defs>
       <use xlink:href="#DejaVuSans-33"/>
       <use x="63.623047" xlink:href="#DejaVuSans-37"/>
       <use x="127.246094" xlink:href="#DejaVuSans-6d"/>
      </g>
     </g>
    </g>
    <g id="xtick_3">
     <g id="line2d_3">
      <g>
       <use style="stroke:#000000;stroke-width:0.8;" x="205.785517" xlink:href="#mb57d182ba5" y="288.430125"/>
      </g>
     </g>
     <g id="text_3">
      <!-- 1h:31m -->
      <g transform="translate(186.51833 303.028562)scale(0.1 -0.1)">
       <defs>
        <path d="M 3513 2113 
L 3513 0 
L 2938 0 
L 2938 2094 
Q 2938 2591 2744 2837 
Q 2550 3084 2163 3084 
Q 1697 3084 1428 2787 
Q 1159 2491 1159 1978 
L 1159 0 
L 581 0 
L 581 4863 
L 1159 4863 
L 1159 2956 
Q 1366 3272 1645 3428 
Q 1925 3584 2291 3584 
Q 2894 3584 3203 3211 
Q 3513 2838 3513 2113 
z
" id="DejaVuSans-68" transform="scale(0.015625)"/>
        <path d="M 750 794 
L 1409 794 
L 1409 0 
L 750 0 
L 750 794 
z
M 750 3309 
L 1409 3309 
L 1409 2516 
L 750 2516 
L 750 3309 
z
" id="DejaVuSans-3a" transform="scale(0.015625)"/>
       </defs>
       <use xlink:href="#DejaVuSans-31"/>
       <use x="63.623047" xlink:href="#DejaVuSans-68"/>
       <use x="127.001953" xlink:href="#DejaVuSans-3a"/>
       <use x="160.693359" xlink:href="#DejaVuSans-33"/>
       <use x="224.316406" xlink:href="#DejaVuSans-31"/>
       <use x="287.939453" xlink:href="#DejaVuSans-6d"/>
      </g>
     </g>
    </g>
    <g id="xtick_4">
     <g id="line2d_4">
      <g>
       <use style="stroke:#000000;stroke-width:0.8;" x="270.7166" xlink:href="#mb57d182ba5" y="288.430125"/>
      </g>
     </g>
     <g id="text_4">
      <!-- 3h:46m -->
      <g transform="translate(251.449412 303.028562)scale(0.1 -0.1)">
       <defs>
        <path d="M 2113 2584 
Q 1688 2584 1439 2293 
Q 1191 2003 1191 1497 
Q 1191 994 1439 701 
Q 1688 409 2113 409 
Q 2538 409 2786 701 
Q 3034 994 3034 1497 
Q 3034 2003 2786 2293 
Q 2538 2584 2113 2584 
z
M 3366 4563 
L 3366 3988 
Q 3128 4100 2886 4159 
Q 2644 4219 2406 4219 
Q 1781 4219 1451 3797 
Q 1122 3375 1075 2522 
Q 1259 2794 1537 2939 
Q 1816 3084 2150 3084 
Q 2853 3084 3261 2657 
Q 3669 2231 3669 1497 
Q 3669 778 3244 343 
Q 2819 -91 2113 -91 
Q 1303 -91 875 529 
Q 447 1150 447 2328 
Q 447 3434 972 4092 
Q 1497 4750 2381 4750 
Q 2619 4750 2861 4703 
Q 3103 4656 3366 4563 
z
" id="DejaVuSans-36" transform="scale(0.015625)"/>
       </defs>
       <use xlink:href="#DejaVuSans-33"/>
       <use x="63.623047" xlink:href="#DejaVuSans-68"/>
       <use x="127.001953" xlink:href="#DejaVuSans-3a"/>
       <use x="160.693359" xlink:href="#DejaVuSans-34"/>
       <use x="224.316406" xlink:href="#DejaVuSans-36"/>
       <use x="287.939453" xlink:href="#DejaVuSans-6d"/>
      </g>
     </g>
    </g>
    <g id="xtick_5">
     <g id="line2d_5">
      <g>
       <use style="stroke:#000000;stroke-width:0.8;" x="335.647682" xlink:href="#mb57d182ba5" y="288.430125"/>
      </g>
     </g>
     <g id="text_5">
      <!-- 9h:18m -->
      <g transform="translate(316.380495 303.028562)scale(0.1 -0.1)">
       <defs>
        <path d="M 703 97 
L 703 672 
Q 941 559 1184 500 
Q 1428 441 1663 441 
Q 2288 441 2617 861 
Q 2947 1281 2994 2138 
Q 2813 1869 2534 1725 
Q 2256 1581 1919 1581 
Q 1219 1581 811 2004 
Q 403 2428 403 3163 
Q 403 3881 828 4315 
Q 1253 4750 1959 4750 
Q 2769 4750 3195 4129 
Q 3622 3509 3622 2328 
Q 3622 1225 3098 567 
Q 2575 -91 1691 -91 
Q 1453 -91 1209 -44 
Q 966 3 703 97 
z
M 1959 2075 
Q 2384 2075 2632 2365 
Q 2881 2656 2881 3163 
Q 2881 3666 2632 3958 
Q 2384 4250 1959 4250 
Q 1534 4250 1286 3958 
Q 1038 3666 1038 3163 
Q 1038 2656 1286 2365 
Q 1534 2075 1959 2075 
z
" id="DejaVuSans-39" transform="scale(0.015625)"/>
        <path d="M 2034 2216 
Q 1584 2216 1326 1975 
Q 1069 1734 1069 1313 
Q 1069 891 1326 650 
Q 1584 409 2034 409 
Q 2484 409 2743 651 
Q 3003 894 3003 1313 
Q 3003 1734 2745 1975 
Q 2488 2216 2034 2216 
z
M 1403 2484 
Q 997 2584 770 2862 
Q 544 3141 544 3541 
Q 544 4100 942 4425 
Q 1341 4750 2034 4750 
Q 2731 4750 3128 4425 
Q 3525 4100 3525 3541 
Q 3525 3141 3298 2862 
Q 3072 2584 2669 2484 
Q 3125 2378 3379 2068 
Q 3634 1759 3634 1313 
Q 3634 634 3220 271 
Q 2806 -91 2034 -91 
Q 1263 -91 848 271 
Q 434 634 434 1313 
Q 434 1759 690 2068 
Q 947 2378 1403 2484 
z
M 1172 3481 
Q 1172 3119 1398 2916 
Q 1625 2713 2034 2713 
Q 2441 2713 2670 2916 
Q 2900 3119 2900 3481 
Q 2900 3844 2670 4047 
Q 2441 4250 2034 4250 
Q 1625 4250 1398 4047 
Q 1172 3844 1172 3481 
z
" id="DejaVuSans-38" transform="scale(0.015625)"/>
       </defs>
       <use xlink:href="#DejaVuSans-39"/>
       <use x="63.623047" xlink:href="#DejaVuSans-68"/>
       <use x="127.001953" xlink:href="#DejaVuSans-3a"/>
       <use x="160.693359" xlink:href="#DejaVuSans-31"/>
       <use x="224.316406" xlink:href="#DejaVuSans-38"/>
       <use x="287.939453" xlink:href="#DejaVuSans-6d"/>
      </g>
     </g>
    </g>
    <g id="xtick_6">
     <g id="line2d_6">
      <g>
       <use style="stroke:#000000;stroke-width:0.8;" x="400.578765" xlink:href="#mb57d182ba5" y="288.430125"/>
      </g>
     </g>
     <g id="text_6">
      <!-- 23h -->
      <g transform="translate(391.047515 303.028562)scale(0.1 -0.1)">
       <defs>
        <path d="M 1228 531 
L 3431 531 
L 3431 0 
L 469 0 
L 469 531 
Q 828 903 1448 1529 
Q 2069 2156 2228 2338 
Q 2531 2678 2651 2914 
Q 2772 3150 2772 3378 
Q 2772 3750 2511 3984 
Q 2250 4219 1831 4219 
Q 1534 4219 1204 4116 
Q 875 4013 500 3803 
L 500 4441 
Q 881 4594 1212 4672 
Q 1544 4750 1819 4750 
Q 2544 4750 2975 4387 
Q 3406 4025 3406 3419 
Q 3406 3131 3298 2873 
Q 3191 2616 2906 2266 
Q 2828 2175 2409 1742 
Q 1991 1309 1228 531 
z
" id="DejaVuSans-32" transform="scale(0.015625)"/>
       </defs>
       <use xlink:href="#DejaVuSans-32"/>
       <use x="63.623047" xlink:href="#DejaVuSans-33"/>
       <use x="127.246094" xlink:href="#DejaVuSans-68"/>
      </g>
     </g>
    </g>
    <g id="xtick_7">
     <g id="line2d_7">
      <defs>
       <path d="M 0 0 
L 0 2 
" id="md1d67e9415" style="stroke:#000000;stroke-width:0.6;"/>
      </defs>
      <g>
       <use style="stroke:#000000;stroke-width:0.6;" x="67.466788" xlink:href="#md1d67e9415" y="288.430125"/>
      </g>
     </g>
    </g>
    <g id="xtick_8">
     <g id="line2d_8">
      <g>
       <use style="stroke:#000000;stroke-width:0.6;" x="133.254461" xlink:href="#md1d67e9415" y="288.430125"/>
      </g>
     </g>
    </g>
    <g id="xtick_9">
     <g id="line2d_9">
      <g>
       <use style="stroke:#000000;stroke-width:0.6;" x="162.36597" xlink:href="#md1d67e9415" y="288.430125"/>
      </g>
     </g>
    </g>
    <g id="xtick_10">
     <g id="line2d_10">
      <g>
       <use style="stroke:#000000;stroke-width:0.6;" x="183.020915" xlink:href="#md1d67e9415" y="288.430125"/>
      </g>
     </g>
    </g>
    <g id="xtick_11">
     <g id="line2d_11">
      <g>
       <use style="stroke:#000000;stroke-width:0.6;" x="199.042135" xlink:href="#md1d67e9415" y="288.430125"/>
      </g>
     </g>
    </g>
    <g id="xtick_12">
     <g id="line2d_12">
      <g>
       <use style="stroke:#000000;stroke-width:0.6;" x="212.132424" xlink:href="#md1d67e9415" y="288.430125"/>
      </g>
     </g>
    </g>
    <g id="xtick_13">
     <g id="line2d_13">
      <g>
       <use style="stroke:#000000;stroke-width:0.6;" x="223.200107" xlink:href="#md1d67e9415" y="288.430125"/>
      </g>
     </g>
    </g>
    <g id="xtick_14">
     <g id="line2d_14">
      <g>
       <use style="stroke:#000000;stroke-width:0.6;" x="232.787369" xlink:href="#md1d67e9415" y="288.430125"/>
      </g>
     </g>
    </g>
    <g id="xtick_15">
     <g id="line2d_15">
      <g>
       <use style="stroke:#000000;stroke-width:0.6;" x="241.243934" xlink:href="#md1d67e9415" y="288.430125"/>
      </g>
     </g>
    </g>
    <g id="xtick_16">
     <g id="line2d_16">
      <g>
       <use style="stroke:#000000;stroke-width:0.6;" x="298.575043" xlink:href="#md1d67e9415" y="288.430125"/>
      </g>
     </g>
    </g>
    <g id="xtick_17">
     <g id="line2d_17">
      <g>
       <use style="stroke:#000000;stroke-width:0.6;" x="327.686552" xlink:href="#md1d67e9415" y="288.430125"/>
      </g>
     </g>
    </g>
    <g id="xtick_18">
     <g id="line2d_18">
      <g>
       <use style="stroke:#000000;stroke-width:0.6;" x="348.341496" xlink:href="#md1d67e9415" y="288.430125"/>
      </g>
     </g>
    </g>
    <g id="xtick_19">
     <g id="line2d_19">
      <g>
       <use style="stroke:#000000;stroke-width:0.6;" x="364.362716" xlink:href="#md1d67e9415" y="288.430125"/>
      </g>
     </g>
    </g>
    <g id="xtick_20">
     <g id="line2d_20">
      <g>
       <use style="stroke:#000000;stroke-width:0.6;" x="377.453006" xlink:href="#md1d67e9415" y="288.430125"/>
      </g>
     </g>
    </g>
    <g id="xtick_21">
     <g id="line2d_21">
      <g>
       <use style="stroke:#000000;stroke-width:0.6;" x="388.520688" xlink:href="#md1d67e9415" y="288.430125"/>
      </g>
     </g>
    </g>
    <g id="xtick_22">
     <g id="line2d_22">
      <g>
       <use style="stroke:#000000;stroke-width:0.6;" x="398.10795" xlink:href="#md1d67e9415" y="288.430125"/>
      </g>
     </g>
    </g>
    <g id="xtick_23">
     <g id="line2d_23">
      <g>
       <use style="stroke:#000000;stroke-width:0.6;" x="406.564515" xlink:href="#md1d67e9415" y="288.430125"/>
      </g>
     </g>
    </g>
    <g id="text_7">
     <!-- Time (hour:minute) -->
     <g transform="translate(189.843594 316.706687)scale(0.1 -0.1)">
      <defs>
       <path d="M -19 4666 
L 3928 4666 
L 3928 4134 
L 2272 4134 
L 2272 0 
L 1638 0 
L 1638 4134 
L -19 4134 
L -19 4666 
z
" id="DejaVuSans-54" transform="scale(0.015625)"/>
       <path d="M 603 3500 
L 1178 3500 
L 1178 0 
L 603 0 
L 603 3500 
z
M 603 4863 
L 1178 4863 
L 1178 4134 
L 603 4134 
L 603 4863 
z
" id="DejaVuSans-69" transform="scale(0.015625)"/>
       <path d="M 3597 1894 
L 3597 1613 
L 953 1613 
Q 991 1019 1311 708 
Q 1631 397 2203 397 
Q 2534 397 2845 478 
Q 3156 559 3463 722 
L 3463 178 
Q 3153 47 2828 -22 
Q 2503 -91 2169 -91 
Q 1331 -91 842 396 
Q 353 884 353 1716 
Q 353 2575 817 3079 
Q 1281 3584 2069 3584 
Q 2775 3584 3186 3129 
Q 3597 2675 3597 1894 
z
M 3022 2063 
Q 3016 2534 2758 2815 
Q 2500 3097 2075 3097 
Q 1594 3097 1305 2825 
Q 1016 2553 972 2059 
L 3022 2063 
z
" id="DejaVuSans-65" transform="scale(0.015625)"/>
       <path id="DejaVuSans-20" transform="scale(0.015625)"/>
       <path d="M 1984 4856 
Q 1566 4138 1362 3434 
Q 1159 2731 1159 2009 
Q 1159 1288 1364 580 
Q 1569 -128 1984 -844 
L 1484 -844 
Q 1016 -109 783 600 
Q 550 1309 550 2009 
Q 550 2706 781 3412 
Q 1013 4119 1484 4856 
L 1984 4856 
z
" id="DejaVuSans-28" transform="scale(0.015625)"/>
       <path d="M 1959 3097 
Q 1497 3097 1228 2736 
Q 959 2375 959 1747 
Q 959 1119 1226 758 
Q 1494 397 1959 397 
Q 2419 397 2687 759 
Q 2956 1122 2956 1747 
Q 2956 2369 2687 2733 
Q 2419 3097 1959 3097 
z
M 1959 3584 
Q 2709 3584 3137 3096 
Q 3566 2609 3566 1747 
Q 3566 888 3137 398 
Q 2709 -91 1959 -91 
Q 1206 -91 779 398 
Q 353 888 353 1747 
Q 353 2609 779 3096 
Q 1206 3584 1959 3584 
z
" id="DejaVuSans-6f" transform="scale(0.015625)"/>
       <path d="M 544 1381 
L 544 3500 
L 1119 3500 
L 1119 1403 
Q 1119 906 1312 657 
Q 1506 409 1894 409 
Q 2359 409 2629 706 
Q 2900 1003 2900 1516 
L 2900 3500 
L 3475 3500 
L 3475 0 
L 2900 0 
L 2900 538 
Q 2691 219 2414 64 
Q 2138 -91 1772 -91 
Q 1169 -91 856 284 
Q 544 659 544 1381 
z
M 1991 3584 
L 1991 3584 
z
" id="DejaVuSans-75" transform="scale(0.015625)"/>
       <path d="M 2631 2963 
Q 2534 3019 2420 3045 
Q 2306 3072 2169 3072 
Q 1681 3072 1420 2755 
Q 1159 2438 1159 1844 
L 1159 0 
L 581 0 
L 581 3500 
L 1159 3500 
L 1159 2956 
Q 1341 3275 1631 3429 
Q 1922 3584 2338 3584 
Q 2397 3584 2469 3576 
Q 2541 3569 2628 3553 
L 2631 2963 
z
" id="DejaVuSans-72" transform="scale(0.015625)"/>
       <path d="M 3513 2113 
L 3513 0 
L 2938 0 
L 2938 2094 
Q 2938 2591 2744 2837 
Q 2550 3084 2163 3084 
Q 1697 3084 1428 2787 
Q 1159 2491 1159 1978 
L 1159 0 
L 581 0 
L 581 3500 
L 1159 3500 
L 1159 2956 
Q 1366 3272 1645 3428 
Q 1925 3584 2291 3584 
Q 2894 3584 3203 3211 
Q 3513 2838 3513 2113 
z
" id="DejaVuSans-6e" transform="scale(0.015625)"/>
       <path d="M 1172 4494 
L 1172 3500 
L 2356 3500 
L 2356 3053 
L 1172 3053 
L 1172 1153 
Q 1172 725 1289 603 
Q 1406 481 1766 481 
L 2356 481 
L 2356 0 
L 1766 0 
Q 1100 0 847 248 
Q 594 497 594 1153 
L 594 3053 
L 172 3053 
L 172 3500 
L 594 3500 
L 594 4494 
L 1172 4494 
z
" id="DejaVuSans-74" transform="scale(0.015625)"/>
       <path d="M 513 4856 
L 1013 4856 
Q 1481 4119 1714 3412 
Q 1947 2706 1947 2009 
Q 1947 1309 1714 600 
Q 1481 -109 1013 -844 
L 513 -844 
Q 928 -128 1133 580 
Q 1338 1288 1338 2009 
Q 1338 2731 1133 3434 
Q 928 4138 513 4856 
z
" id="DejaVuSans-29" transform="scale(0.015625)"/>
      </defs>
      <use xlink:href="#DejaVuSans-54"/>
      <use x="57.958984" xlink:href="#DejaVuSans-69"/>
      <use x="85.742188" xlink:href="#DejaVuSans-6d"/>
      <use x="183.154297" xlink:href="#DejaVuSans-65"/>
      <use x="244.677734" xlink:href="#DejaVuSans-20"/>
      <use x="276.464844" xlink:href="#DejaVuSans-28"/>
      <use x="315.478516" xlink:href="#DejaVuSans-68"/>
      <use x="378.857422" xlink:href="#DejaVuSans-6f"/>
      <use x="440.039062" xlink:href="#DejaVuSans-75"/>
      <use x="503.417969" xlink:href="#DejaVuSans-72"/>
      <use x="542.78125" xlink:href="#DejaVuSans-3a"/>
      <use x="576.472656" xlink:href="#DejaVuSans-6d"/>
      <use x="673.884766" xlink:href="#DejaVuSans-69"/>
      <use x="701.667969" xlink:href="#DejaVuSans-6e"/>
      <use x="765.046875" xlink:href="#DejaVuSans-75"/>
      <use x="828.425781" xlink:href="#DejaVuSans-74"/>
      <use x="867.634766" xlink:href="#DejaVuSans-65"/>
      <use x="929.158203" xlink:href="#DejaVuSans-29"/>
     </g>
    </g>
   </g>
   <g id="matplotlib.axis_2">
    <g id="ytick_1">
     <g id="line2d_24">
      <defs>
       <path d="M 0 0 
L -3.5 0 
" id="m10db2edc2d" style="stroke:#000000;stroke-width:0.8;"/>
      </defs>
      <g>
       <use style="stroke:#000000;stroke-width:0.8;" x="59.690625" xlink:href="#m10db2edc2d" y="261.881576"/>
      </g>
     </g>
     <g id="text_8">
      <!-- 10500 -->
      <g transform="translate(20.878125 265.680795)scale(0.1 -0.1)">
       <defs>
        <path d="M 2034 4250 
Q 1547 4250 1301 3770 
Q 1056 3291 1056 2328 
Q 1056 1369 1301 889 
Q 1547 409 2034 409 
Q 2525 409 2770 889 
Q 3016 1369 3016 2328 
Q 3016 3291 2770 3770 
Q 2525 4250 2034 4250 
z
M 2034 4750 
Q 2819 4750 3233 4129 
Q 3647 3509 3647 2328 
Q 3647 1150 3233 529 
Q 2819 -91 2034 -91 
Q 1250 -91 836 529 
Q 422 1150 422 2328 
Q 422 3509 836 4129 
Q 1250 4750 2034 4750 
z
" id="DejaVuSans-30" transform="scale(0.015625)"/>
        <path d="M 691 4666 
L 3169 4666 
L 3169 4134 
L 1269 4134 
L 1269 2991 
Q 1406 3038 1543 3061 
Q 1681 3084 1819 3084 
Q 2600 3084 3056 2656 
Q 3513 2228 3513 1497 
Q 3513 744 3044 326 
Q 2575 -91 1722 -91 
Q 1428 -91 1123 -41 
Q 819 9 494 109 
L 494 744 
Q 775 591 1075 516 
Q 1375 441 1709 441 
Q 2250 441 2565 725 
Q 2881 1009 2881 1497 
Q 2881 1984 2565 2268 
Q 2250 2553 1709 2553 
Q 1456 2553 1204 2497 
Q 953 2441 691 2322 
L 691 4666 
z
" id="DejaVuSans-35" transform="scale(0.015625)"/>
       </defs>
       <use xlink:href="#DejaVuSans-31"/>
       <use x="63.623047" xlink:href="#DejaVuSans-30"/>
       <use x="127.246094" xlink:href="#DejaVuSans-35"/>
       <use x="190.869141" xlink:href="#DejaVuSans-30"/>
       <use x="254.492188" xlink:href="#DejaVuSans-30"/>
      </g>
     </g>
    </g>
    <g id="ytick_2">
     <g id="line2d_25">
      <g>
       <use style="stroke:#000000;stroke-width:0.8;" x="59.690625" xlink:href="#m10db2edc2d" y="226.284166"/>
      </g>
     </g>
     <g id="text_9">
      <!-- 11000 -->
      <g transform="translate(20.878125 230.083385)scale(0.1 -0.1)">
       <use xlink:href="#DejaVuSans-31"/>
       <use x="63.623047" xlink:href="#DejaVuSans-31"/>
       <use x="127.246094" xlink:href="#DejaVuSans-30"/>
       <use x="190.869141" xlink:href="#DejaVuSans-30"/>
       <use x="254.492188" xlink:href="#DejaVuSans-30"/>
      </g>
     </g>
    </g>
    <g id="ytick_3">
     <g id="line2d_26">
      <g>
       <use style="stroke:#000000;stroke-width:0.8;" x="59.690625" xlink:href="#m10db2edc2d" y="190.686756"/>
      </g>
     </g>
     <g id="text_10">
      <!-- 11500 -->
      <g transform="translate(20.878125 194.485975)scale(0.1 -0.1)">
       <use xlink:href="#DejaVuSans-31"/>
       <use x="63.623047" xlink:href="#DejaVuSans-31"/>
       <use x="127.246094" xlink:href="#DejaVuSans-35"/>
       <use x="190.869141" xlink:href="#DejaVuSans-30"/>
       <use x="254.492188" xlink:href="#DejaVuSans-30"/>
      </g>
     </g>
    </g>
    <g id="ytick_4">
     <g id="line2d_27">
      <g>
       <use style="stroke:#000000;stroke-width:0.8;" x="59.690625" xlink:href="#m10db2edc2d" y="155.089346"/>
      </g>
     </g>
     <g id="text_11">
      <!-- 12000 -->
      <g transform="translate(20.878125 158.888564)scale(0.1 -0.1)">
       <use xlink:href="#DejaVuSans-31"/>
       <use x="63.623047" xlink:href="#DejaVuSans-32"/>
       <use x="127.246094" xlink:href="#DejaVuSans-30"/>
       <use x="190.869141" xlink:href="#DejaVuSans-30"/>
       <use x="254.492188" xlink:href="#DejaVuSans-30"/>
      </g>
     </g>
    </g>
    <g id="ytick_5">
     <g id="line2d_28">
      <g>
       <use style="stroke:#000000;stroke-width:0.8;" x="59.690625" xlink:href="#m10db2edc2d" y="119.491935"/>
      </g>
     </g>
     <g id="text_12">
      <!-- 12500 -->
      <g transform="translate(20.878125 123.291154)scale(0.1 -0.1)">
       <use xlink:href="#DejaVuSans-31"/>
       <use x="63.623047" xlink:href="#DejaVuSans-32"/>
       <use x="127.246094" xlink:href="#DejaVuSans-35"/>
       <use x="190.869141" xlink:href="#DejaVuSans-30"/>
       <use x="254.492188" xlink:href="#DejaVuSans-30"/>
      </g>
     </g>
    </g>
    <g id="ytick_6">
     <g id="line2d_29">
      <g>
       <use style="stroke:#000000;stroke-width:0.8;" x="59.690625" xlink:href="#m10db2edc2d" y="83.894525"/>
      </g>
     </g>
     <g id="text_13">
      <!-- 13000 -->
      <g transform="translate(20.878125 87.693744)scale(0.1 -0.1)">
       <use xlink:href="#DejaVuSans-31"/>
       <use x="63.623047" xlink:href="#DejaVuSans-33"/>
       <use x="127.246094" xlink:href="#DejaVuSans-30"/>
       <use x="190.869141" xlink:href="#DejaVuSans-30"/>
       <use x="254.492188" xlink:href="#DejaVuSans-30"/>
      </g>
     </g>
    </g>
    <g id="ytick_7">
     <g id="line2d_30">
      <g>
       <use style="stroke:#000000;stroke-width:0.8;" x="59.690625" xlink:href="#m10db2edc2d" y="48.297115"/>
      </g>
     </g>
     <g id="text_14">
      <!-- 13500 -->
      <g transform="translate(20.878125 52.096334)scale(0.1 -0.1)">
       <use xlink:href="#DejaVuSans-31"/>
       <use x="63.623047" xlink:href="#DejaVuSans-33"/>
       <use x="127.246094" xlink:href="#DejaVuSans-35"/>
       <use x="190.869141" xlink:href="#DejaVuSans-30"/>
       <use x="254.492188" xlink:href="#DejaVuSans-30"/>
      </g>
     </g>
    </g>
    <g id="text_15">
     <!-- Code region coverage -->
     <g transform="translate(14.798438 210.379594)rotate(-90)scale(0.1 -0.1)">
      <defs>
       <path d="M 4122 4306 
L 4122 3641 
Q 3803 3938 3442 4084 
Q 3081 4231 2675 4231 
Q 1875 4231 1450 3742 
Q 1025 3253 1025 2328 
Q 1025 1406 1450 917 
Q 1875 428 2675 428 
Q 3081 428 3442 575 
Q 3803 722 4122 1019 
L 4122 359 
Q 3791 134 3420 21 
Q 3050 -91 2638 -91 
Q 1578 -91 968 557 
Q 359 1206 359 2328 
Q 359 3453 968 4101 
Q 1578 4750 2638 4750 
Q 3056 4750 3426 4639 
Q 3797 4528 4122 4306 
z
" id="DejaVuSans-43" transform="scale(0.015625)"/>
       <path d="M 2906 2969 
L 2906 4863 
L 3481 4863 
L 3481 0 
L 2906 0 
L 2906 525 
Q 2725 213 2448 61 
Q 2172 -91 1784 -91 
Q 1150 -91 751 415 
Q 353 922 353 1747 
Q 353 2572 751 3078 
Q 1150 3584 1784 3584 
Q 2172 3584 2448 3432 
Q 2725 3281 2906 2969 
z
M 947 1747 
Q 947 1113 1208 752 
Q 1469 391 1925 391 
Q 2381 391 2643 752 
Q 2906 1113 2906 1747 
Q 2906 2381 2643 2742 
Q 2381 3103 1925 3103 
Q 1469 3103 1208 2742 
Q 947 2381 947 1747 
z
" id="DejaVuSans-64" transform="scale(0.015625)"/>
       <path d="M 2906 1791 
Q 2906 2416 2648 2759 
Q 2391 3103 1925 3103 
Q 1463 3103 1205 2759 
Q 947 2416 947 1791 
Q 947 1169 1205 825 
Q 1463 481 1925 481 
Q 2391 481 2648 825 
Q 2906 1169 2906 1791 
z
M 3481 434 
Q 3481 -459 3084 -895 
Q 2688 -1331 1869 -1331 
Q 1566 -1331 1297 -1286 
Q 1028 -1241 775 -1147 
L 775 -588 
Q 1028 -725 1275 -790 
Q 1522 -856 1778 -856 
Q 2344 -856 2625 -561 
Q 2906 -266 2906 331 
L 2906 616 
Q 2728 306 2450 153 
Q 2172 0 1784 0 
Q 1141 0 747 490 
Q 353 981 353 1791 
Q 353 2603 747 3093 
Q 1141 3584 1784 3584 
Q 2172 3584 2450 3431 
Q 2728 3278 2906 2969 
L 2906 3500 
L 3481 3500 
L 3481 434 
z
" id="DejaVuSans-67" transform="scale(0.015625)"/>
       <path d="M 3122 3366 
L 3122 2828 
Q 2878 2963 2633 3030 
Q 2388 3097 2138 3097 
Q 1578 3097 1268 2742 
Q 959 2388 959 1747 
Q 959 1106 1268 751 
Q 1578 397 2138 397 
Q 2388 397 2633 464 
Q 2878 531 3122 666 
L 3122 134 
Q 2881 22 2623 -34 
Q 2366 -91 2075 -91 
Q 1284 -91 818 406 
Q 353 903 353 1747 
Q 353 2603 823 3093 
Q 1294 3584 2113 3584 
Q 2378 3584 2631 3529 
Q 2884 3475 3122 3366 
z
" id="DejaVuSans-63" transform="scale(0.015625)"/>
       <path d="M 191 3500 
L 800 3500 
L 1894 563 
L 2988 3500 
L 3597 3500 
L 2284 0 
L 1503 0 
L 191 3500 
z
" id="DejaVuSans-76" transform="scale(0.015625)"/>
       <path d="M 2194 1759 
Q 1497 1759 1228 1600 
Q 959 1441 959 1056 
Q 959 750 1161 570 
Q 1363 391 1709 391 
Q 2188 391 2477 730 
Q 2766 1069 2766 1631 
L 2766 1759 
L 2194 1759 
z
M 3341 1997 
L 3341 0 
L 2766 0 
L 2766 531 
Q 2569 213 2275 61 
Q 1981 -91 1556 -91 
Q 1019 -91 701 211 
Q 384 513 384 1019 
Q 384 1609 779 1909 
Q 1175 2209 1959 2209 
L 2766 2209 
L 2766 2266 
Q 2766 2663 2505 2880 
Q 2244 3097 1772 3097 
Q 1472 3097 1187 3025 
Q 903 2953 641 2809 
L 641 3341 
Q 956 3463 1253 3523 
Q 1550 3584 1831 3584 
Q 2591 3584 2966 3190 
Q 3341 2797 3341 1997 
z
" id="DejaVuSans-61" transform="scale(0.015625)"/>
      </defs>
      <use xlink:href="#DejaVuSans-43"/>
      <use x="69.824219" xlink:href="#DejaVuSans-6f"/>
      <use x="131.005859" xlink:href="#DejaVuSans-64"/>
      <use x="194.482422" xlink:href="#DejaVuSans-65"/>
      <use x="256.005859" xlink:href="#DejaVuSans-20"/>
      <use x="287.792969" xlink:href="#DejaVuSans-72"/>
      <use x="326.65625" xlink:href="#DejaVuSans-65"/>
      <use x="388.179688" xlink:href="#DejaVuSans-67"/>
      <use x="451.65625" xlink:href="#DejaVuSans-69"/>
      <use x="479.439453" xlink:href="#DejaVuSans-6f"/>
      <use x="540.621094" xlink:href="#DejaVuSans-6e"/>
      <use x="604" xlink:href="#DejaVuSans-20"/>
      <use x="635.787109" xlink:href="#DejaVuSans-63"/>
      <use x="690.767578" xlink:href="#DejaVuSans-6f"/>
      <use x="751.949219" xlink:href="#DejaVuSans-76"/>
      <use x="811.128906" xlink:href="#DejaVuSans-65"/>
      <use x="872.652344" xlink:href="#DejaVuSans-72"/>
      <use x="913.765625" xlink:href="#DejaVuSans-61"/>
      <use x="975.044922" xlink:href="#DejaVuSans-67"/>
      <use x="1038.521484" xlink:href="#DejaVuSans-65"/>
     </g>
    </g>
   </g>
   <g id="line2d_31">
    <path clip-path="url(#p458ab115a2)" d="M 75.923352 125.401106 
L 125.689806 98.347074 
L 154.801316 85.176032 
L 175.45626 84.321694 
L 191.47748 83.680941 
L 204.567769 87.489864 
L 215.635452 81.687486 
L 225.222714 78.87529 
L 233.679279 75.03077 
L 241.243934 74.923978 
L 248.086996 74.425614 
L 254.334223 68.516444 
L 260.081115 67.341729 
L 265.401906 65.882236 
L 270.355443 65.027898 
L 274.989168 63.461612 
L 279.341883 63.461612 
L 283.445733 64.565131 
L 287.327641 64.565131 
L 291.010388 61.29017 
L 294.513415 61.29017 
L 297.85345 61.254572 
L 301.04499 61.218975 
L 304.100677 60.969793 
L 307.031607 58.833948 
L 309.847569 57.410052 
L 312.557242 57.410052 
L 315.168359 57.410052 
L 317.68784 59.439104 
L 320.121897 59.439104 
L 322.476135 57.374455 
L 324.755622 57.374455 
L 326.96496 56.235337 
L 329.108337 56.235337 
L 331.189579 55.203013 
L 333.212187 54.455467 
L 335.179373 54.455467 
L 337.094095 54.455467 
L 338.959078 54.455467 
L 340.776842 54.27748 
L 342.549717 54.099493 
L 344.279869 54.099493 
L 345.969307 53.494337 
L 347.619904 53.494337 
L 349.233406 53.494337 
L 350.811444 53.494337 
L 352.355542 54.099493 
L 353.867131 53.921506 
L 355.347551 53.601129 
L 356.798061 53.601129 
L 358.219847 53.601129 
L 359.614023 53.565532 
L 360.981642 52.568804 
L 362.323696 52.568804 
L 363.641124 52.568804 
L 364.934813 51.465285 
L 366.205604 49.685414 
L 367.454294 49.685414 
L 368.681636 49.685414 
L 369.888351 49.685414 
L 371.075119 49.685414 
L 372.242589 49.685414 
L 373.391378 49.685414 
L 374.522076 49.649817 
L 375.635243 49.649817 
L 376.731414 49.649817 
L 377.8111 49.649817 
L 378.874791 49.649817 
L 379.922953 49.649817 
L 380.956033 49.115855 
L 381.974459 48.866674 
L 382.978641 48.119128 
L 383.968971 48.119128 
L 384.945827 48.119128 
L 385.909571 47.976738 
L 386.860549 47.976738 
L 387.799096 47.976738 
L 388.725532 47.976738 
L 389.640166 47.1224 
L 390.543295 47.1224 
L 391.435205 47.1224 
L 392.316171 47.1224 
L 393.186458 47.1224 
L 394.046323 47.1224 
L 394.896011 47.1224 
L 395.735761 47.1224 
L 396.565803 47.086803 
L 397.386358 47.086803 
L 398.197642 47.086803 
L 398.99986 47.086803 
L 399.793214 47.086803 
L 400.577898 46.944413 
" style="fill:none;stroke:#1f77b4;stroke-linecap:square;stroke-width:1.5;"/>
    <defs>
     <path d="M 0 3 
C 0.795609 3 1.55874 2.683901 2.12132 2.12132 
C 2.683901 1.55874 3 0.795609 3 0 
C 3 -0.795609 2.683901 -1.55874 2.12132 -2.12132 
C 1.55874 -2.683901 0.795609 -3 0 -3 
C -0.795609 -3 -1.55874 -2.683901 -2.12132 -2.12132 
C -2.683901 -1.55874 -3 -0.795609 -3 0 
C -3 0.795609 -2.683901 1.55874 -2.12132 2.12132 
C -1.55874 2.683901 -0.795609 3 0 3 
z
" id="m8b2c87cfa7" style="stroke:#ffffff;stroke-width:0.75;"/>
    </defs>
    <g clip-path="url(#p458ab115a2)">
     <use style="fill:#1f77b4;stroke:#ffffff;stroke-width:0.75;" x="75.923352" xlink:href="#m8b2c87cfa7" y="125.401106"/>
     <use style="fill:#1f77b4;stroke:#ffffff;stroke-width:0.75;" x="125.689806" xlink:href="#m8b2c87cfa7" y="98.347074"/>
     <use style="fill:#1f77b4;stroke:#ffffff;stroke-width:0.75;" x="154.801316" xlink:href="#m8b2c87cfa7" y="85.176032"/>
     <use style="fill:#1f77b4;stroke:#ffffff;stroke-width:0.75;" x="175.45626" xlink:href="#m8b2c87cfa7" y="84.321694"/>
     <use style="fill:#1f77b4;stroke:#ffffff;stroke-width:0.75;" x="191.47748" xlink:href="#m8b2c87cfa7" y="83.680941"/>
     <use style="fill:#1f77b4;stroke:#ffffff;stroke-width:0.75;" x="204.567769" xlink:href="#m8b2c87cfa7" y="87.489864"/>
     <use style="fill:#1f77b4;stroke:#ffffff;stroke-width:0.75;" x="215.635452" xlink:href="#m8b2c87cfa7" y="81.687486"/>
     <use style="fill:#1f77b4;stroke:#ffffff;stroke-width:0.75;" x="225.222714" xlink:href="#m8b2c87cfa7" y="78.87529"/>
     <use style="fill:#1f77b4;stroke:#ffffff;stroke-width:0.75;" x="233.679279" xlink:href="#m8b2c87cfa7" y="75.03077"/>
     <use style="fill:#1f77b4;stroke:#ffffff;stroke-width:0.75;" x="241.243934" xlink:href="#m8b2c87cfa7" y="74.923978"/>
     <use style="fill:#1f77b4;stroke:#ffffff;stroke-width:0.75;" x="248.086996" xlink:href="#m8b2c87cfa7" y="74.425614"/>
     <use style="fill:#1f77b4;stroke:#ffffff;stroke-width:0.75;" x="254.334223" xlink:href="#m8b2c87cfa7" y="68.516444"/>
     <use style="fill:#1f77b4;stroke:#ffffff;stroke-width:0.75;" x="260.081115" xlink:href="#m8b2c87cfa7" y="67.341729"/>
     <use style="fill:#1f77b4;stroke:#ffffff;stroke-width:0.75;" x="265.401906" xlink:href="#m8b2c87cfa7" y="65.882236"/>
     <use style="fill:#1f77b4;stroke:#ffffff;stroke-width:0.75;" x="270.355443" xlink:href="#m8b2c87cfa7" y="65.027898"/>
     <use style="fill:#1f77b4;stroke:#ffffff;stroke-width:0.75;" x="274.989168" xlink:href="#m8b2c87cfa7" y="63.461612"/>
     <use style="fill:#1f77b4;stroke:#ffffff;stroke-width:0.75;" x="279.341883" xlink:href="#m8b2c87cfa7" y="63.461612"/>
     <use style="fill:#1f77b4;stroke:#ffffff;stroke-width:0.75;" x="283.445733" xlink:href="#m8b2c87cfa7" y="64.565131"/>
     <use style="fill:#1f77b4;stroke:#ffffff;stroke-width:0.75;" x="287.327641" xlink:href="#m8b2c87cfa7" y="64.565131"/>
     <use style="fill:#1f77b4;stroke:#ffffff;stroke-width:0.75;" x="291.010388" xlink:href="#m8b2c87cfa7" y="61.29017"/>
     <use style="fill:#1f77b4;stroke:#ffffff;stroke-width:0.75;" x="294.513415" xlink:href="#m8b2c87cfa7" y="61.29017"/>
     <use style="fill:#1f77b4;stroke:#ffffff;stroke-width:0.75;" x="297.85345" xlink:href="#m8b2c87cfa7" y="61.254572"/>
     <use style="fill:#1f77b4;stroke:#ffffff;stroke-width:0.75;" x="301.04499" xlink:href="#m8b2c87cfa7" y="61.218975"/>
     <use style="fill:#1f77b4;stroke:#ffffff;stroke-width:0.75;" x="304.100677" xlink:href="#m8b2c87cfa7" y="60.969793"/>
     <use style="fill:#1f77b4;stroke:#ffffff;stroke-width:0.75;" x="307.031607" xlink:href="#m8b2c87cfa7" y="58.833948"/>
     <use style="fill:#1f77b4;stroke:#ffffff;stroke-width:0.75;" x="309.847569" xlink:href="#m8b2c87cfa7" y="57.410052"/>
     <use style="fill:#1f77b4;stroke:#ffffff;stroke-width:0.75;" x="312.557242" xlink:href="#m8b2c87cfa7" y="57.410052"/>
     <use style="fill:#1f77b4;stroke:#ffffff;stroke-width:0.75;" x="315.168359" xlink:href="#m8b2c87cfa7" y="57.410052"/>
     <use style="fill:#1f77b4;stroke:#ffffff;stroke-width:0.75;" x="317.68784" xlink:href="#m8b2c87cfa7" y="59.439104"/>
     <use style="fill:#1f77b4;stroke:#ffffff;stroke-width:0.75;" x="320.121897" xlink:href="#m8b2c87cfa7" y="59.439104"/>
     <use style="fill:#1f77b4;stroke:#ffffff;stroke-width:0.75;" x="322.476135" xlink:href="#m8b2c87cfa7" y="57.374455"/>
     <use style="fill:#1f77b4;stroke:#ffffff;stroke-width:0.75;" x="324.755622" xlink:href="#m8b2c87cfa7" y="57.374455"/>
     <use style="fill:#1f77b4;stroke:#ffffff;stroke-width:0.75;" x="326.96496" xlink:href="#m8b2c87cfa7" y="56.235337"/>
     <use style="fill:#1f77b4;stroke:#ffffff;stroke-width:0.75;" x="329.108337" xlink:href="#m8b2c87cfa7" y="56.235337"/>
     <use style="fill:#1f77b4;stroke:#ffffff;stroke-width:0.75;" x="331.189579" xlink:href="#m8b2c87cfa7" y="55.203013"/>
     <use style="fill:#1f77b4;stroke:#ffffff;stroke-width:0.75;" x="333.212187" xlink:href="#m8b2c87cfa7" y="54.455467"/>
     <use style="fill:#1f77b4;stroke:#ffffff;stroke-width:0.75;" x="335.179373" xlink:href="#m8b2c87cfa7" y="54.455467"/>
     <use style="fill:#1f77b4;stroke:#ffffff;stroke-width:0.75;" x="337.094095" xlink:href="#m8b2c87cfa7" y="54.455467"/>
     <use style="fill:#1f77b4;stroke:#ffffff;stroke-width:0.75;" x="338.959078" xlink:href="#m8b2c87cfa7" y="54.455467"/>
     <use style="fill:#1f77b4;stroke:#ffffff;stroke-width:0.75;" x="340.776842" xlink:href="#m8b2c87cfa7" y="54.27748"/>
     <use style="fill:#1f77b4;stroke:#ffffff;stroke-width:0.75;" x="342.549717" xlink:href="#m8b2c87cfa7" y="54.099493"/>
     <use style="fill:#1f77b4;stroke:#ffffff;stroke-width:0.75;" x="344.279869" xlink:href="#m8b2c87cfa7" y="54.099493"/>
     <use style="fill:#1f77b4;stroke:#ffffff;stroke-width:0.75;" x="345.969307" xlink:href="#m8b2c87cfa7" y="53.494337"/>
     <use style="fill:#1f77b4;stroke:#ffffff;stroke-width:0.75;" x="347.619904" xlink:href="#m8b2c87cfa7" y="53.494337"/>
     <use style="fill:#1f77b4;stroke:#ffffff;stroke-width:0.75;" x="349.233406" xlink:href="#m8b2c87cfa7" y="53.494337"/>
     <use style="fill:#1f77b4;stroke:#ffffff;stroke-width:0.75;" x="350.811444" xlink:href="#m8b2c87cfa7" y="53.494337"/>
     <use style="fill:#1f77b4;stroke:#ffffff;stroke-width:0.75;" x="352.355542" xlink:href="#m8b2c87cfa7" y="54.099493"/>
     <use style="fill:#1f77b4;stroke:#ffffff;stroke-width:0.75;" x="353.867131" xlink:href="#m8b2c87cfa7" y="53.921506"/>
     <use style="fill:#1f77b4;stroke:#ffffff;stroke-width:0.75;" x="355.347551" xlink:href="#m8b2c87cfa7" y="53.601129"/>
     <use style="fill:#1f77b4;stroke:#ffffff;stroke-width:0.75;" x="356.798061" xlink:href="#m8b2c87cfa7" y="53.601129"/>
     <use style="fill:#1f77b4;stroke:#ffffff;stroke-width:0.75;" x="358.219847" xlink:href="#m8b2c87cfa7" y="53.601129"/>
     <use style="fill:#1f77b4;stroke:#ffffff;stroke-width:0.75;" x="359.614023" xlink:href="#m8b2c87cfa7" y="53.565532"/>
     <use style="fill:#1f77b4;stroke:#ffffff;stroke-width:0.75;" x="360.981642" xlink:href="#m8b2c87cfa7" y="52.568804"/>
     <use style="fill:#1f77b4;stroke:#ffffff;stroke-width:0.75;" x="362.323696" xlink:href="#m8b2c87cfa7" y="52.568804"/>
     <use style="fill:#1f77b4;stroke:#ffffff;stroke-width:0.75;" x="363.641124" xlink:href="#m8b2c87cfa7" y="52.568804"/>
     <use style="fill:#1f77b4;stroke:#ffffff;stroke-width:0.75;" x="364.934813" xlink:href="#m8b2c87cfa7" y="51.465285"/>
     <use style="fill:#1f77b4;stroke:#ffffff;stroke-width:0.75;" x="366.205604" xlink:href="#m8b2c87cfa7" y="49.685414"/>
     <use style="fill:#1f77b4;stroke:#ffffff;stroke-width:0.75;" x="367.454294" xlink:href="#m8b2c87cfa7" y="49.685414"/>
     <use style="fill:#1f77b4;stroke:#ffffff;stroke-width:0.75;" x="368.681636" xlink:href="#m8b2c87cfa7" y="49.685414"/>
     <use style="fill:#1f77b4;stroke:#ffffff;stroke-width:0.75;" x="369.888351" xlink:href="#m8b2c87cfa7" y="49.685414"/>
     <use style="fill:#1f77b4;stroke:#ffffff;stroke-width:0.75;" x="371.075119" xlink:href="#m8b2c87cfa7" y="49.685414"/>
     <use style="fill:#1f77b4;stroke:#ffffff;stroke-width:0.75;" x="372.242589" xlink:href="#m8b2c87cfa7" y="49.685414"/>
     <use style="fill:#1f77b4;stroke:#ffffff;stroke-width:0.75;" x="373.391378" xlink:href="#m8b2c87cfa7" y="49.685414"/>
     <use style="fill:#1f77b4;stroke:#ffffff;stroke-width:0.75;" x="374.522076" xlink:href="#m8b2c87cfa7" y="49.649817"/>
     <use style="fill:#1f77b4;stroke:#ffffff;stroke-width:0.75;" x="375.635243" xlink:href="#m8b2c87cfa7" y="49.649817"/>
     <use style="fill:#1f77b4;stroke:#ffffff;stroke-width:0.75;" x="376.731414" xlink:href="#m8b2c87cfa7" y="49.649817"/>
     <use style="fill:#1f77b4;stroke:#ffffff;stroke-width:0.75;" x="377.8111" xlink:href="#m8b2c87cfa7" y="49.649817"/>
     <use style="fill:#1f77b4;stroke:#ffffff;stroke-width:0.75;" x="378.874791" xlink:href="#m8b2c87cfa7" y="49.649817"/>
     <use style="fill:#1f77b4;stroke:#ffffff;stroke-width:0.75;" x="379.922953" xlink:href="#m8b2c87cfa7" y="49.649817"/>
     <use style="fill:#1f77b4;stroke:#ffffff;stroke-width:0.75;" x="380.956033" xlink:href="#m8b2c87cfa7" y="49.115855"/>
     <use style="fill:#1f77b4;stroke:#ffffff;stroke-width:0.75;" x="381.974459" xlink:href="#m8b2c87cfa7" y="48.866674"/>
     <use style="fill:#1f77b4;stroke:#ffffff;stroke-width:0.75;" x="382.978641" xlink:href="#m8b2c87cfa7" y="48.119128"/>
     <use style="fill:#1f77b4;stroke:#ffffff;stroke-width:0.75;" x="383.968971" xlink:href="#m8b2c87cfa7" y="48.119128"/>
     <use style="fill:#1f77b4;stroke:#ffffff;stroke-width:0.75;" x="384.945827" xlink:href="#m8b2c87cfa7" y="48.119128"/>
     <use style="fill:#1f77b4;stroke:#ffffff;stroke-width:0.75;" x="385.909571" xlink:href="#m8b2c87cfa7" y="47.976738"/>
     <use style="fill:#1f77b4;stroke:#ffffff;stroke-width:0.75;" x="386.860549" xlink:href="#m8b2c87cfa7" y="47.976738"/>
     <use style="fill:#1f77b4;stroke:#ffffff;stroke-width:0.75;" x="387.799096" xlink:href="#m8b2c87cfa7" y="47.976738"/>
     <use style="fill:#1f77b4;stroke:#ffffff;stroke-width:0.75;" x="388.725532" xlink:href="#m8b2c87cfa7" y="47.976738"/>
     <use style="fill:#1f77b4;stroke:#ffffff;stroke-width:0.75;" x="389.640166" xlink:href="#m8b2c87cfa7" y="47.1224"/>
     <use style="fill:#1f77b4;stroke:#ffffff;stroke-width:0.75;" x="390.543295" xlink:href="#m8b2c87cfa7" y="47.1224"/>
     <use style="fill:#1f77b4;stroke:#ffffff;stroke-width:0.75;" x="391.435205" xlink:href="#m8b2c87cfa7" y="47.1224"/>
     <use style="fill:#1f77b4;stroke:#ffffff;stroke-width:0.75;" x="392.316171" xlink:href="#m8b2c87cfa7" y="47.1224"/>
     <use style="fill:#1f77b4;stroke:#ffffff;stroke-width:0.75;" x="393.186458" xlink:href="#m8b2c87cfa7" y="47.1224"/>
     <use style="fill:#1f77b4;stroke:#ffffff;stroke-width:0.75;" x="394.046323" xlink:href="#m8b2c87cfa7" y="47.1224"/>
     <use style="fill:#1f77b4;stroke:#ffffff;stroke-width:0.75;" x="394.896011" xlink:href="#m8b2c87cfa7" y="47.1224"/>
     <use style="fill:#1f77b4;stroke:#ffffff;stroke-width:0.75;" x="395.735761" xlink:href="#m8b2c87cfa7" y="47.1224"/>
     <use style="fill:#1f77b4;stroke:#ffffff;stroke-width:0.75;" x="396.565803" xlink:href="#m8b2c87cfa7" y="47.086803"/>
     <use style="fill:#1f77b4;stroke:#ffffff;stroke-width:0.75;" x="397.386358" xlink:href="#m8b2c87cfa7" y="47.086803"/>
     <use style="fill:#1f77b4;stroke:#ffffff;stroke-width:0.75;" x="398.197642" xlink:href="#m8b2c87cfa7" y="47.086803"/>
     <use style="fill:#1f77b4;stroke:#ffffff;stroke-width:0.75;" x="398.99986" xlink:href="#m8b2c87cfa7" y="47.086803"/>
     <use style="fill:#1f77b4;stroke:#ffffff;stroke-width:0.75;" x="399.793214" xlink:href="#m8b2c87cfa7" y="47.086803"/>
     <use style="fill:#1f77b4;stroke:#ffffff;stroke-width:0.75;" x="400.577898" xlink:href="#m8b2c87cfa7" y="46.944413"/>
    </g>
   </g>
   <g id="line2d_32">
    <path clip-path="url(#p458ab115a2)" d="M 75.923352 119.776715 
L 125.689806 93.8618 
L 154.801316 84.10811 
L 175.45626 82.755408 
L 191.47748 77.771771 
L 204.567769 76.917433 
L 215.635452 73.072913 
L 225.222714 72.930523 
L 233.679279 71.079458 
L 241.243934 70.937068 
L 248.086996 70.296315 
L 254.334223 70.011535 
L 260.081115 69.869146 
L 265.401906 69.228392 
L 270.355443 69.228392 
L 274.989168 67.377327 
L 279.341883 67.306132 
L 283.445733 67.234937 
L 287.327641 65.882236 
L 291.010388 65.811041 
L 294.513415 65.775443 
L 297.85345 65.668651 
L 301.04499 64.671924 
L 304.100677 64.671924 
L 307.031607 64.671924 
L 309.847569 64.600729 
L 312.557242 64.600729 
L 315.168359 64.600729 
L 317.68784 62.963248 
L 320.121897 62.322495 
L 322.476135 62.322495 
L 324.755622 62.180105 
L 326.96496 58.193195 
L 329.108337 58.193195 
L 331.189579 58.193195 
L 333.212187 58.193195 
L 335.179373 57.338857 
L 337.094095 57.054078 
L 338.959078 57.054078 
L 340.776842 57.054078 
L 342.549717 57.054078 
L 344.279869 57.054078 
L 345.969307 57.054078 
L 347.619904 57.054078 
L 349.233406 57.054078 
L 350.811444 57.054078 
L 352.355542 57.054078 
L 353.867131 56.19974 
L 355.347551 56.19974 
L 356.798061 56.05735 
L 358.219847 56.05735 
L 359.614023 56.05735 
L 360.981642 55.843766 
L 362.323696 55.843766 
L 363.641124 55.630182 
L 364.934813 55.630182 
L 366.205604 55.630182 
L 367.454294 55.630182 
L 368.681636 55.558987 
L 369.888351 55.558987 
L 371.075119 55.558987 
L 372.242589 55.558987 
L 373.391378 55.558987 
L 374.522076 55.558987 
L 375.635243 55.558987 
L 376.731414 55.558987 
L 377.8111 55.558987 
L 378.874791 55.131818 
L 379.922953 55.131818 
L 380.956033 55.131818 
L 381.974459 55.131818 
L 382.978641 55.131818 
L 383.968971 55.131818 
L 384.945827 55.131818 
L 385.909571 55.131818 
L 386.860549 55.131818 
L 387.799096 55.131818 
L 388.725532 55.060623 
L 389.640166 55.060623 
L 390.543295 55.060623 
L 391.435205 55.060623 
L 392.316171 55.060623 
L 393.186458 55.060623 
L 394.046323 55.060623 
L 394.896011 54.704649 
L 395.735761 54.704649 
L 396.565803 54.704649 
L 397.386358 53.636727 
L 398.197642 53.636727 
L 398.99986 53.636727 
L 399.793214 53.494337 
L 400.577898 53.565532 
" style="fill:none;stroke:#d62728;stroke-linecap:square;stroke-width:1.5;"/>
    <defs>
     <path d="M 0 -3 
L -3 3 
L 3 3 
z
" id="m64a87ecc61" style="stroke:#ffffff;stroke-linejoin:miter;stroke-width:0.75;"/>
    </defs>
    <g clip-path="url(#p458ab115a2)">
     <use style="fill:#d62728;stroke:#ffffff;stroke-linejoin:miter;stroke-width:0.75;" x="75.923352" xlink:href="#m64a87ecc61" y="119.776715"/>
     <use style="fill:#d62728;stroke:#ffffff;stroke-linejoin:miter;stroke-width:0.75;" x="125.689806" xlink:href="#m64a87ecc61" y="93.8618"/>
     <use style="fill:#d62728;stroke:#ffffff;stroke-linejoin:miter;stroke-width:0.75;" x="154.801316" xlink:href="#m64a87ecc61" y="84.10811"/>
     <use style="fill:#d62728;stroke:#ffffff;stroke-linejoin:miter;stroke-width:0.75;" x="175.45626" xlink:href="#m64a87ecc61" y="82.755408"/>
     <use style="fill:#d62728;stroke:#ffffff;stroke-linejoin:miter;stroke-width:0.75;" x="191.47748" xlink:href="#m64a87ecc61" y="77.771771"/>
     <use style="fill:#d62728;stroke:#ffffff;stroke-linejoin:miter;stroke-width:0.75;" x="204.567769" xlink:href="#m64a87ecc61" y="76.917433"/>
     <use style="fill:#d62728;stroke:#ffffff;stroke-linejoin:miter;stroke-width:0.75;" x="215.635452" xlink:href="#m64a87ecc61" y="73.072913"/>
     <use style="fill:#d62728;stroke:#ffffff;stroke-linejoin:miter;stroke-width:0.75;" x="225.222714" xlink:href="#m64a87ecc61" y="72.930523"/>
     <use style="fill:#d62728;stroke:#ffffff;stroke-linejoin:miter;stroke-width:0.75;" x="233.679279" xlink:href="#m64a87ecc61" y="71.079458"/>
     <use style="fill:#d62728;stroke:#ffffff;stroke-linejoin:miter;stroke-width:0.75;" x="241.243934" xlink:href="#m64a87ecc61" y="70.937068"/>
     <use style="fill:#d62728;stroke:#ffffff;stroke-linejoin:miter;stroke-width:0.75;" x="248.086996" xlink:href="#m64a87ecc61" y="70.296315"/>
     <use style="fill:#d62728;stroke:#ffffff;stroke-linejoin:miter;stroke-width:0.75;" x="254.334223" xlink:href="#m64a87ecc61" y="70.011535"/>
     <use style="fill:#d62728;stroke:#ffffff;stroke-linejoin:miter;stroke-width:0.75;" x="260.081115" xlink:href="#m64a87ecc61" y="69.869146"/>
     <use style="fill:#d62728;stroke:#ffffff;stroke-linejoin:miter;stroke-width:0.75;" x="265.401906" xlink:href="#m64a87ecc61" y="69.228392"/>
     <use style="fill:#d62728;stroke:#ffffff;stroke-linejoin:miter;stroke-width:0.75;" x="270.355443" xlink:href="#m64a87ecc61" y="69.228392"/>
     <use style="fill:#d62728;stroke:#ffffff;stroke-linejoin:miter;stroke-width:0.75;" x="274.989168" xlink:href="#m64a87ecc61" y="67.377327"/>
     <use style="fill:#d62728;stroke:#ffffff;stroke-linejoin:miter;stroke-width:0.75;" x="279.341883" xlink:href="#m64a87ecc61" y="67.306132"/>
     <use style="fill:#d62728;stroke:#ffffff;stroke-linejoin:miter;stroke-width:0.75;" x="283.445733" xlink:href="#m64a87ecc61" y="67.234937"/>
     <use style="fill:#d62728;stroke:#ffffff;stroke-linejoin:miter;stroke-width:0.75;" x="287.327641" xlink:href="#m64a87ecc61" y="65.882236"/>
     <use style="fill:#d62728;stroke:#ffffff;stroke-linejoin:miter;stroke-width:0.75;" x="291.010388" xlink:href="#m64a87ecc61" y="65.811041"/>
     <use style="fill:#d62728;stroke:#ffffff;stroke-linejoin:miter;stroke-width:0.75;" x="294.513415" xlink:href="#m64a87ecc61" y="65.775443"/>
     <use style="fill:#d62728;stroke:#ffffff;stroke-linejoin:miter;stroke-width:0.75;" x="297.85345" xlink:href="#m64a87ecc61" y="65.668651"/>
     <use style="fill:#d62728;stroke:#ffffff;stroke-linejoin:miter;stroke-width:0.75;" x="301.04499" xlink:href="#m64a87ecc61" y="64.671924"/>
     <use style="fill:#d62728;stroke:#ffffff;stroke-linejoin:miter;stroke-width:0.75;" x="304.100677" xlink:href="#m64a87ecc61" y="64.671924"/>
     <use style="fill:#d62728;stroke:#ffffff;stroke-linejoin:miter;stroke-width:0.75;" x="307.031607" xlink:href="#m64a87ecc61" y="64.671924"/>
     <use style="fill:#d62728;stroke:#ffffff;stroke-linejoin:miter;stroke-width:0.75;" x="309.847569" xlink:href="#m64a87ecc61" y="64.600729"/>
     <use style="fill:#d62728;stroke:#ffffff;stroke-linejoin:miter;stroke-width:0.75;" x="312.557242" xlink:href="#m64a87ecc61" y="64.600729"/>
     <use style="fill:#d62728;stroke:#ffffff;stroke-linejoin:miter;stroke-width:0.75;" x="315.168359" xlink:href="#m64a87ecc61" y="64.600729"/>
     <use style="fill:#d62728;stroke:#ffffff;stroke-linejoin:miter;stroke-width:0.75;" x="317.68784" xlink:href="#m64a87ecc61" y="62.963248"/>
     <use style="fill:#d62728;stroke:#ffffff;stroke-linejoin:miter;stroke-width:0.75;" x="320.121897" xlink:href="#m64a87ecc61" y="62.322495"/>
     <use style="fill:#d62728;stroke:#ffffff;stroke-linejoin:miter;stroke-width:0.75;" x="322.476135" xlink:href="#m64a87ecc61" y="62.322495"/>
     <use style="fill:#d62728;stroke:#ffffff;stroke-linejoin:miter;stroke-width:0.75;" x="324.755622" xlink:href="#m64a87ecc61" y="62.180105"/>
     <use style="fill:#d62728;stroke:#ffffff;stroke-linejoin:miter;stroke-width:0.75;" x="326.96496" xlink:href="#m64a87ecc61" y="58.193195"/>
     <use style="fill:#d62728;stroke:#ffffff;stroke-linejoin:miter;stroke-width:0.75;" x="329.108337" xlink:href="#m64a87ecc61" y="58.193195"/>
     <use style="fill:#d62728;stroke:#ffffff;stroke-linejoin:miter;stroke-width:0.75;" x="331.189579" xlink:href="#m64a87ecc61" y="58.193195"/>
     <use style="fill:#d62728;stroke:#ffffff;stroke-linejoin:miter;stroke-width:0.75;" x="333.212187" xlink:href="#m64a87ecc61" y="58.193195"/>
     <use style="fill:#d62728;stroke:#ffffff;stroke-linejoin:miter;stroke-width:0.75;" x="335.179373" xlink:href="#m64a87ecc61" y="57.338857"/>
     <use style="fill:#d62728;stroke:#ffffff;stroke-linejoin:miter;stroke-width:0.75;" x="337.094095" xlink:href="#m64a87ecc61" y="57.054078"/>
     <use style="fill:#d62728;stroke:#ffffff;stroke-linejoin:miter;stroke-width:0.75;" x="338.959078" xlink:href="#m64a87ecc61" y="57.054078"/>
     <use style="fill:#d62728;stroke:#ffffff;stroke-linejoin:miter;stroke-width:0.75;" x="340.776842" xlink:href="#m64a87ecc61" y="57.054078"/>
     <use style="fill:#d62728;stroke:#ffffff;stroke-linejoin:miter;stroke-width:0.75;" x="342.549717" xlink:href="#m64a87ecc61" y="57.054078"/>
     <use style="fill:#d62728;stroke:#ffffff;stroke-linejoin:miter;stroke-width:0.75;" x="344.279869" xlink:href="#m64a87ecc61" y="57.054078"/>
     <use style="fill:#d62728;stroke:#ffffff;stroke-linejoin:miter;stroke-width:0.75;" x="345.969307" xlink:href="#m64a87ecc61" y="57.054078"/>
     <use style="fill:#d62728;stroke:#ffffff;stroke-linejoin:miter;stroke-width:0.75;" x="347.619904" xlink:href="#m64a87ecc61" y="57.054078"/>
     <use style="fill:#d62728;stroke:#ffffff;stroke-linejoin:miter;stroke-width:0.75;" x="349.233406" xlink:href="#m64a87ecc61" y="57.054078"/>
     <use style="fill:#d62728;stroke:#ffffff;stroke-linejoin:miter;stroke-width:0.75;" x="350.811444" xlink:href="#m64a87ecc61" y="57.054078"/>
     <use style="fill:#d62728;stroke:#ffffff;stroke-linejoin:miter;stroke-width:0.75;" x="352.355542" xlink:href="#m64a87ecc61" y="57.054078"/>
     <use style="fill:#d62728;stroke:#ffffff;stroke-linejoin:miter;stroke-width:0.75;" x="353.867131" xlink:href="#m64a87ecc61" y="56.19974"/>
     <use style="fill:#d62728;stroke:#ffffff;stroke-linejoin:miter;stroke-width:0.75;" x="355.347551" xlink:href="#m64a87ecc61" y="56.19974"/>
     <use style="fill:#d62728;stroke:#ffffff;stroke-linejoin:miter;stroke-width:0.75;" x="356.798061" xlink:href="#m64a87ecc61" y="56.05735"/>
     <use style="fill:#d62728;stroke:#ffffff;stroke-linejoin:miter;stroke-width:0.75;" x="358.219847" xlink:href="#m64a87ecc61" y="56.05735"/>
     <use style="fill:#d62728;stroke:#ffffff;stroke-linejoin:miter;stroke-width:0.75;" x="359.614023" xlink:href="#m64a87ecc61" y="56.05735"/>
     <use style="fill:#d62728;stroke:#ffffff;stroke-linejoin:miter;stroke-width:0.75;" x="360.981642" xlink:href="#m64a87ecc61" y="55.843766"/>
     <use style="fill:#d62728;stroke:#ffffff;stroke-linejoin:miter;stroke-width:0.75;" x="362.323696" xlink:href="#m64a87ecc61" y="55.843766"/>
     <use style="fill:#d62728;stroke:#ffffff;stroke-linejoin:miter;stroke-width:0.75;" x="363.641124" xlink:href="#m64a87ecc61" y="55.630182"/>
     <use style="fill:#d62728;stroke:#ffffff;stroke-linejoin:miter;stroke-width:0.75;" x="364.934813" xlink:href="#m64a87ecc61" y="55.630182"/>
     <use style="fill:#d62728;stroke:#ffffff;stroke-linejoin:miter;stroke-width:0.75;" x="366.205604" xlink:href="#m64a87ecc61" y="55.630182"/>
     <use style="fill:#d62728;stroke:#ffffff;stroke-linejoin:miter;stroke-width:0.75;" x="367.454294" xlink:href="#m64a87ecc61" y="55.630182"/>
     <use style="fill:#d62728;stroke:#ffffff;stroke-linejoin:miter;stroke-width:0.75;" x="368.681636" xlink:href="#m64a87ecc61" y="55.558987"/>
     <use style="fill:#d62728;stroke:#ffffff;stroke-linejoin:miter;stroke-width:0.75;" x="369.888351" xlink:href="#m64a87ecc61" y="55.558987"/>
     <use style="fill:#d62728;stroke:#ffffff;stroke-linejoin:miter;stroke-width:0.75;" x="371.075119" xlink:href="#m64a87ecc61" y="55.558987"/>
     <use style="fill:#d62728;stroke:#ffffff;stroke-linejoin:miter;stroke-width:0.75;" x="372.242589" xlink:href="#m64a87ecc61" y="55.558987"/>
     <use style="fill:#d62728;stroke:#ffffff;stroke-linejoin:miter;stroke-width:0.75;" x="373.391378" xlink:href="#m64a87ecc61" y="55.558987"/>
     <use style="fill:#d62728;stroke:#ffffff;stroke-linejoin:miter;stroke-width:0.75;" x="374.522076" xlink:href="#m64a87ecc61" y="55.558987"/>
     <use style="fill:#d62728;stroke:#ffffff;stroke-linejoin:miter;stroke-width:0.75;" x="375.635243" xlink:href="#m64a87ecc61" y="55.558987"/>
     <use style="fill:#d62728;stroke:#ffffff;stroke-linejoin:miter;stroke-width:0.75;" x="376.731414" xlink:href="#m64a87ecc61" y="55.558987"/>
     <use style="fill:#d62728;stroke:#ffffff;stroke-linejoin:miter;stroke-width:0.75;" x="377.8111" xlink:href="#m64a87ecc61" y="55.558987"/>
     <use style="fill:#d62728;stroke:#ffffff;stroke-linejoin:miter;stroke-width:0.75;" x="378.874791" xlink:href="#m64a87ecc61" y="55.131818"/>
     <use style="fill:#d62728;stroke:#ffffff;stroke-linejoin:miter;stroke-width:0.75;" x="379.922953" xlink:href="#m64a87ecc61" y="55.131818"/>
     <use style="fill:#d62728;stroke:#ffffff;stroke-linejoin:miter;stroke-width:0.75;" x="380.956033" xlink:href="#m64a87ecc61" y="55.131818"/>
     <use style="fill:#d62728;stroke:#ffffff;stroke-linejoin:miter;stroke-width:0.75;" x="381.974459" xlink:href="#m64a87ecc61" y="55.131818"/>
     <use style="fill:#d62728;stroke:#ffffff;stroke-linejoin:miter;stroke-width:0.75;" x="382.978641" xlink:href="#m64a87ecc61" y="55.131818"/>
     <use style="fill:#d62728;stroke:#ffffff;stroke-linejoin:miter;stroke-width:0.75;" x="383.968971" xlink:href="#m64a87ecc61" y="55.131818"/>
     <use style="fill:#d62728;stroke:#ffffff;stroke-linejoin:miter;stroke-width:0.75;" x="384.945827" xlink:href="#m64a87ecc61" y="55.131818"/>
     <use style="fill:#d62728;stroke:#ffffff;stroke-linejoin:miter;stroke-width:0.75;" x="385.909571" xlink:href="#m64a87ecc61" y="55.131818"/>
     <use style="fill:#d62728;stroke:#ffffff;stroke-linejoin:miter;stroke-width:0.75;" x="386.860549" xlink:href="#m64a87ecc61" y="55.131818"/>
     <use style="fill:#d62728;stroke:#ffffff;stroke-linejoin:miter;stroke-width:0.75;" x="387.799096" xlink:href="#m64a87ecc61" y="55.131818"/>
     <use style="fill:#d62728;stroke:#ffffff;stroke-linejoin:miter;stroke-width:0.75;" x="388.725532" xlink:href="#m64a87ecc61" y="55.060623"/>
     <use style="fill:#d62728;stroke:#ffffff;stroke-linejoin:miter;stroke-width:0.75;" x="389.640166" xlink:href="#m64a87ecc61" y="55.060623"/>
     <use style="fill:#d62728;stroke:#ffffff;stroke-linejoin:miter;stroke-width:0.75;" x="390.543295" xlink:href="#m64a87ecc61" y="55.060623"/>
     <use style="fill:#d62728;stroke:#ffffff;stroke-linejoin:miter;stroke-width:0.75;" x="391.435205" xlink:href="#m64a87ecc61" y="55.060623"/>
     <use style="fill:#d62728;stroke:#ffffff;stroke-linejoin:miter;stroke-width:0.75;" x="392.316171" xlink:href="#m64a87ecc61" y="55.060623"/>
     <use style="fill:#d62728;stroke:#ffffff;stroke-linejoin:miter;stroke-width:0.75;" x="393.186458" xlink:href="#m64a87ecc61" y="55.060623"/>
     <use style="fill:#d62728;stroke:#ffffff;stroke-linejoin:miter;stroke-width:0.75;" x="394.046323" xlink:href="#m64a87ecc61" y="55.060623"/>
     <use style="fill:#d62728;stroke:#ffffff;stroke-linejoin:miter;stroke-width:0.75;" x="394.896011" xlink:href="#m64a87ecc61" y="54.704649"/>
     <use style="fill:#d62728;stroke:#ffffff;stroke-linejoin:miter;stroke-width:0.75;" x="395.735761" xlink:href="#m64a87ecc61" y="54.704649"/>
     <use style="fill:#d62728;stroke:#ffffff;stroke-linejoin:miter;stroke-width:0.75;" x="396.565803" xlink:href="#m64a87ecc61" y="54.704649"/>
     <use style="fill:#d62728;stroke:#ffffff;stroke-linejoin:miter;stroke-width:0.75;" x="397.386358" xlink:href="#m64a87ecc61" y="53.636727"/>
     <use style="fill:#d62728;stroke:#ffffff;stroke-linejoin:miter;stroke-width:0.75;" x="398.197642" xlink:href="#m64a87ecc61" y="53.636727"/>
     <use style="fill:#d62728;stroke:#ffffff;stroke-linejoin:miter;stroke-width:0.75;" x="398.99986" xlink:href="#m64a87ecc61" y="53.636727"/>
     <use style="fill:#d62728;stroke:#ffffff;stroke-linejoin:miter;stroke-width:0.75;" x="399.793214" xlink:href="#m64a87ecc61" y="53.494337"/>
     <use style="fill:#d62728;stroke:#ffffff;stroke-linejoin:miter;stroke-width:0.75;" x="400.577898" xlink:href="#m64a87ecc61" y="53.565532"/>
    </g>
   </g>
   <g id="line2d_33">
    <path clip-path="url(#p458ab115a2)" d="M 75.923352 256.47077 
L 125.689806 237.604143 
L 154.801316 234.61396 
L 175.45626 217.811983 
L 191.47748 199.194537 
L 204.567769 164.059893 
L 215.635452 157.22519 
L 225.222714 149.856526 
L 233.679279 145.086473 
L 241.243934 147.685084 
L 248.086996 145.834019 
L 254.334223 143.911759 
L 260.081115 141.206356 
L 265.401906 139.64007 
L 270.355443 139.284096 
L 274.989168 163.597127 
L 279.341883 139.070511 
L 283.445733 138.714537 
L 287.327641 136.009134 
L 291.010388 135.937939 
L 294.513415 123.194066 
L 297.85345 133.374925 
L 301.04499 133.303731 
L 304.100677 149.144578 
L 307.031607 143.199811 
L 309.847569 137.931394 
L 312.557242 136.792277 
L 315.168359 136.578692 
L 317.68784 129.103236 
L 320.121897 116.430558 
L 322.476135 116.394961 
L 324.755622 116.074584 
L 326.96496 115.57622 
L 329.108337 123.407651 
L 331.189579 120.417468 
L 333.212187 119.349546 
L 335.179373 122.446521 
L 337.094095 121.378598 
L 338.959078 121.129416 
L 340.776842 120.773442 
L 342.549717 120.773442 
L 344.279869 106.676868 
L 345.969307 106.534478 
L 347.619904 105.929322 
L 349.233406 105.929322 
L 350.811444 115.71861 
L 352.355542 111.162141 
L 353.867131 109.738245 
L 355.347551 102.618763 
L 356.798061 102.405179 
L 358.219847 108.029569 
L 359.614023 108.029569 
L 360.981642 107.815985 
L 362.323696 107.74479 
L 363.641124 110.378998 
L 364.934813 107.74479 
L 366.205604 107.6024 
L 367.454294 107.6024 
L 368.681636 107.6024 
L 369.888351 107.6024 
L 371.075119 107.460011 
L 372.242589 100.126944 
L 373.391378 100.126944 
L 374.522076 100.126944 
L 375.635243 107.388816 
L 376.731414 107.388816 
L 377.8111 106.676868 
L 378.874791 109.66705 
L 379.922953 109.66705 
L 380.956033 106.605673 
L 381.974459 105.68014 
L 382.978641 105.68014 
L 383.968971 105.466556 
L 384.945827 105.324166 
L 385.909571 105.324166 
L 386.860549 105.324166 
L 387.799096 105.324166 
L 388.725532 98.240282 
L 389.640166 105.252971 
L 390.543295 105.252971 
L 391.435205 105.252971 
L 392.316171 107.246426 
L 393.186458 107.246426 
L 394.046323 102.405179 
L 394.896011 102.405179 
L 395.735761 102.262789 
L 396.565803 101.337256 
L 397.386358 101.337256 
L 398.197642 106.534478 
L 398.99986 106.427686 
L 399.793214 106.107309 
L 400.577898 100.625308 
" style="fill:none;stroke:#98df8a;stroke-linecap:square;stroke-width:1.5;"/>
    <defs>
     <path d="M -0 3 
L 3 -3 
L -3 -3 
z
" id="mf4147376f8" style="stroke:#ffffff;stroke-linejoin:miter;stroke-width:0.75;"/>
    </defs>
    <g clip-path="url(#p458ab115a2)">
     <use style="fill:#98df8a;stroke:#ffffff;stroke-linejoin:miter;stroke-width:0.75;" x="75.923352" xlink:href="#mf4147376f8" y="256.47077"/>
     <use style="fill:#98df8a;stroke:#ffffff;stroke-linejoin:miter;stroke-width:0.75;" x="125.689806" xlink:href="#mf4147376f8" y="237.604143"/>
     <use style="fill:#98df8a;stroke:#ffffff;stroke-linejoin:miter;stroke-width:0.75;" x="154.801316" xlink:href="#mf4147376f8" y="234.61396"/>
     <use style="fill:#98df8a;stroke:#ffffff;stroke-linejoin:miter;stroke-width:0.75;" x="175.45626" xlink:href="#mf4147376f8" y="217.811983"/>
     <use style="fill:#98df8a;stroke:#ffffff;stroke-linejoin:miter;stroke-width:0.75;" x="191.47748" xlink:href="#mf4147376f8" y="199.194537"/>
     <use style="fill:#98df8a;stroke:#ffffff;stroke-linejoin:miter;stroke-width:0.75;" x="204.567769" xlink:href="#mf4147376f8" y="164.059893"/>
     <use style="fill:#98df8a;stroke:#ffffff;stroke-linejoin:miter;stroke-width:0.75;" x="215.635452" xlink:href="#mf4147376f8" y="157.22519"/>
     <use style="fill:#98df8a;stroke:#ffffff;stroke-linejoin:miter;stroke-width:0.75;" x="225.222714" xlink:href="#mf4147376f8" y="149.856526"/>
     <use style="fill:#98df8a;stroke:#ffffff;stroke-linejoin:miter;stroke-width:0.75;" x="233.679279" xlink:href="#mf4147376f8" y="145.086473"/>
     <use style="fill:#98df8a;stroke:#ffffff;stroke-linejoin:miter;stroke-width:0.75;" x="241.243934" xlink:href="#mf4147376f8" y="147.685084"/>
     <use style="fill:#98df8a;stroke:#ffffff;stroke-linejoin:miter;stroke-width:0.75;" x="248.086996" xlink:href="#mf4147376f8" y="145.834019"/>
     <use style="fill:#98df8a;stroke:#ffffff;stroke-linejoin:miter;stroke-width:0.75;" x="254.334223" xlink:href="#mf4147376f8" y="143.911759"/>
     <use style="fill:#98df8a;stroke:#ffffff;stroke-linejoin:miter;stroke-width:0.75;" x="260.081115" xlink:href="#mf4147376f8" y="141.206356"/>
     <use style="fill:#98df8a;stroke:#ffffff;stroke-linejoin:miter;stroke-width:0.75;" x="265.401906" xlink:href="#mf4147376f8" y="139.64007"/>
     <use style="fill:#98df8a;stroke:#ffffff;stroke-linejoin:miter;stroke-width:0.75;" x="270.355443" xlink:href="#mf4147376f8" y="139.284096"/>
     <use style="fill:#98df8a;stroke:#ffffff;stroke-linejoin:miter;stroke-width:0.75;" x="274.989168" xlink:href="#mf4147376f8" y="163.597127"/>
     <use style="fill:#98df8a;stroke:#ffffff;stroke-linejoin:miter;stroke-width:0.75;" x="279.341883" xlink:href="#mf4147376f8" y="139.070511"/>
     <use style="fill:#98df8a;stroke:#ffffff;stroke-linejoin:miter;stroke-width:0.75;" x="283.445733" xlink:href="#mf4147376f8" y="138.714537"/>
     <use style="fill:#98df8a;stroke:#ffffff;stroke-linejoin:miter;stroke-width:0.75;" x="287.327641" xlink:href="#mf4147376f8" y="136.009134"/>
     <use style="fill:#98df8a;stroke:#ffffff;stroke-linejoin:miter;stroke-width:0.75;" x="291.010388" xlink:href="#mf4147376f8" y="135.937939"/>
     <use style="fill:#98df8a;stroke:#ffffff;stroke-linejoin:miter;stroke-width:0.75;" x="294.513415" xlink:href="#mf4147376f8" y="123.194066"/>
     <use style="fill:#98df8a;stroke:#ffffff;stroke-linejoin:miter;stroke-width:0.75;" x="297.85345" xlink:href="#mf4147376f8" y="133.374925"/>
     <use style="fill:#98df8a;stroke:#ffffff;stroke-linejoin:miter;stroke-width:0.75;" x="301.04499" xlink:href="#mf4147376f8" y="133.303731"/>
     <use style="fill:#98df8a;stroke:#ffffff;stroke-linejoin:miter;stroke-width:0.75;" x="304.100677" xlink:href="#mf4147376f8" y="149.144578"/>
     <use style="fill:#98df8a;stroke:#ffffff;stroke-linejoin:miter;stroke-width:0.75;" x="307.031607" xlink:href="#mf4147376f8" y="143.199811"/>
     <use style="fill:#98df8a;stroke:#ffffff;stroke-linejoin:miter;stroke-width:0.75;" x="309.847569" xlink:href="#mf4147376f8" y="137.931394"/>
     <use style="fill:#98df8a;stroke:#ffffff;stroke-linejoin:miter;stroke-width:0.75;" x="312.557242" xlink:href="#mf4147376f8" y="136.792277"/>
     <use style="fill:#98df8a;stroke:#ffffff;stroke-linejoin:miter;stroke-width:0.75;" x="315.168359" xlink:href="#mf4147376f8" y="136.578692"/>
     <use style="fill:#98df8a;stroke:#ffffff;stroke-linejoin:miter;stroke-width:0.75;" x="317.68784" xlink:href="#mf4147376f8" y="129.103236"/>
     <use style="fill:#98df8a;stroke:#ffffff;stroke-linejoin:miter;stroke-width:0.75;" x="320.121897" xlink:href="#mf4147376f8" y="116.430558"/>
     <use style="fill:#98df8a;stroke:#ffffff;stroke-linejoin:miter;stroke-width:0.75;" x="322.476135" xlink:href="#mf4147376f8" y="116.394961"/>
     <use style="fill:#98df8a;stroke:#ffffff;stroke-linejoin:miter;stroke-width:0.75;" x="324.755622" xlink:href="#mf4147376f8" y="116.074584"/>
     <use style="fill:#98df8a;stroke:#ffffff;stroke-linejoin:miter;stroke-width:0.75;" x="326.96496" xlink:href="#mf4147376f8" y="115.57622"/>
     <use style="fill:#98df8a;stroke:#ffffff;stroke-linejoin:miter;stroke-width:0.75;" x="329.108337" xlink:href="#mf4147376f8" y="123.407651"/>
     <use style="fill:#98df8a;stroke:#ffffff;stroke-linejoin:miter;stroke-width:0.75;" x="331.189579" xlink:href="#mf4147376f8" y="120.417468"/>
     <use style="fill:#98df8a;stroke:#ffffff;stroke-linejoin:miter;stroke-width:0.75;" x="333.212187" xlink:href="#mf4147376f8" y="119.349546"/>
     <use style="fill:#98df8a;stroke:#ffffff;stroke-linejoin:miter;stroke-width:0.75;" x="335.179373" xlink:href="#mf4147376f8" y="122.446521"/>
     <use style="fill:#98df8a;stroke:#ffffff;stroke-linejoin:miter;stroke-width:0.75;" x="337.094095" xlink:href="#mf4147376f8" y="121.378598"/>
     <use style="fill:#98df8a;stroke:#ffffff;stroke-linejoin:miter;stroke-width:0.75;" x="338.959078" xlink:href="#mf4147376f8" y="121.129416"/>
     <use style="fill:#98df8a;stroke:#ffffff;stroke-linejoin:miter;stroke-width:0.75;" x="340.776842" xlink:href="#mf4147376f8" y="120.773442"/>
     <use style="fill:#98df8a;stroke:#ffffff;stroke-linejoin:miter;stroke-width:0.75;" x="342.549717" xlink:href="#mf4147376f8" y="120.773442"/>
     <use style="fill:#98df8a;stroke:#ffffff;stroke-linejoin:miter;stroke-width:0.75;" x="344.279869" xlink:href="#mf4147376f8" y="106.676868"/>
     <use style="fill:#98df8a;stroke:#ffffff;stroke-linejoin:miter;stroke-width:0.75;" x="345.969307" xlink:href="#mf4147376f8" y="106.534478"/>
     <use style="fill:#98df8a;stroke:#ffffff;stroke-linejoin:miter;stroke-width:0.75;" x="347.619904" xlink:href="#mf4147376f8" y="105.929322"/>
     <use style="fill:#98df8a;stroke:#ffffff;stroke-linejoin:miter;stroke-width:0.75;" x="349.233406" xlink:href="#mf4147376f8" y="105.929322"/>
     <use style="fill:#98df8a;stroke:#ffffff;stroke-linejoin:miter;stroke-width:0.75;" x="350.811444" xlink:href="#mf4147376f8" y="115.71861"/>
     <use style="fill:#98df8a;stroke:#ffffff;stroke-linejoin:miter;stroke-width:0.75;" x="352.355542" xlink:href="#mf4147376f8" y="111.162141"/>
     <use style="fill:#98df8a;stroke:#ffffff;stroke-linejoin:miter;stroke-width:0.75;" x="353.867131" xlink:href="#mf4147376f8" y="109.738245"/>
     <use style="fill:#98df8a;stroke:#ffffff;stroke-linejoin:miter;stroke-width:0.75;" x="355.347551" xlink:href="#mf4147376f8" y="102.618763"/>
     <use style="fill:#98df8a;stroke:#ffffff;stroke-linejoin:miter;stroke-width:0.75;" x="356.798061" xlink:href="#mf4147376f8" y="102.405179"/>
     <use style="fill:#98df8a;stroke:#ffffff;stroke-linejoin:miter;stroke-width:0.75;" x="358.219847" xlink:href="#mf4147376f8" y="108.029569"/>
     <use style="fill:#98df8a;stroke:#ffffff;stroke-linejoin:miter;stroke-width:0.75;" x="359.614023" xlink:href="#mf4147376f8" y="108.029569"/>
     <use style="fill:#98df8a;stroke:#ffffff;stroke-linejoin:miter;stroke-width:0.75;" x="360.981642" xlink:href="#mf4147376f8" y="107.815985"/>
     <use style="fill:#98df8a;stroke:#ffffff;stroke-linejoin:miter;stroke-width:0.75;" x="362.323696" xlink:href="#mf4147376f8" y="107.74479"/>
     <use style="fill:#98df8a;stroke:#ffffff;stroke-linejoin:miter;stroke-width:0.75;" x="363.641124" xlink:href="#mf4147376f8" y="110.378998"/>
     <use style="fill:#98df8a;stroke:#ffffff;stroke-linejoin:miter;stroke-width:0.75;" x="364.934813" xlink:href="#mf4147376f8" y="107.74479"/>
     <use style="fill:#98df8a;stroke:#ffffff;stroke-linejoin:miter;stroke-width:0.75;" x="366.205604" xlink:href="#mf4147376f8" y="107.6024"/>
     <use style="fill:#98df8a;stroke:#ffffff;stroke-linejoin:miter;stroke-width:0.75;" x="367.454294" xlink:href="#mf4147376f8" y="107.6024"/>
     <use style="fill:#98df8a;stroke:#ffffff;stroke-linejoin:miter;stroke-width:0.75;" x="368.681636" xlink:href="#mf4147376f8" y="107.6024"/>
     <use style="fill:#98df8a;stroke:#ffffff;stroke-linejoin:miter;stroke-width:0.75;" x="369.888351" xlink:href="#mf4147376f8" y="107.6024"/>
     <use style="fill:#98df8a;stroke:#ffffff;stroke-linejoin:miter;stroke-width:0.75;" x="371.075119" xlink:href="#mf4147376f8" y="107.460011"/>
     <use style="fill:#98df8a;stroke:#ffffff;stroke-linejoin:miter;stroke-width:0.75;" x="372.242589" xlink:href="#mf4147376f8" y="100.126944"/>
     <use style="fill:#98df8a;stroke:#ffffff;stroke-linejoin:miter;stroke-width:0.75;" x="373.391378" xlink:href="#mf4147376f8" y="100.126944"/>
     <use style="fill:#98df8a;stroke:#ffffff;stroke-linejoin:miter;stroke-width:0.75;" x="374.522076" xlink:href="#mf4147376f8" y="100.126944"/>
     <use style="fill:#98df8a;stroke:#ffffff;stroke-linejoin:miter;stroke-width:0.75;" x="375.635243" xlink:href="#mf4147376f8" y="107.388816"/>
     <use style="fill:#98df8a;stroke:#ffffff;stroke-linejoin:miter;stroke-width:0.75;" x="376.731414" xlink:href="#mf4147376f8" y="107.388816"/>
     <use style="fill:#98df8a;stroke:#ffffff;stroke-linejoin:miter;stroke-width:0.75;" x="377.8111" xlink:href="#mf4147376f8" y="106.676868"/>
     <use style="fill:#98df8a;stroke:#ffffff;stroke-linejoin:miter;stroke-width:0.75;" x="378.874791" xlink:href="#mf4147376f8" y="109.66705"/>
     <use style="fill:#98df8a;stroke:#ffffff;stroke-linejoin:miter;stroke-width:0.75;" x="379.922953" xlink:href="#mf4147376f8" y="109.66705"/>
     <use style="fill:#98df8a;stroke:#ffffff;stroke-linejoin:miter;stroke-width:0.75;" x="380.956033" xlink:href="#mf4147376f8" y="106.605673"/>
     <use style="fill:#98df8a;stroke:#ffffff;stroke-linejoin:miter;stroke-width:0.75;" x="381.974459" xlink:href="#mf4147376f8" y="105.68014"/>
     <use style="fill:#98df8a;stroke:#ffffff;stroke-linejoin:miter;stroke-width:0.75;" x="382.978641" xlink:href="#mf4147376f8" y="105.68014"/>
     <use style="fill:#98df8a;stroke:#ffffff;stroke-linejoin:miter;stroke-width:0.75;" x="383.968971" xlink:href="#mf4147376f8" y="105.466556"/>
     <use style="fill:#98df8a;stroke:#ffffff;stroke-linejoin:miter;stroke-width:0.75;" x="384.945827" xlink:href="#mf4147376f8" y="105.324166"/>
     <use style="fill:#98df8a;stroke:#ffffff;stroke-linejoin:miter;stroke-width:0.75;" x="385.909571" xlink:href="#mf4147376f8" y="105.324166"/>
     <use style="fill:#98df8a;stroke:#ffffff;stroke-linejoin:miter;stroke-width:0.75;" x="386.860549" xlink:href="#mf4147376f8" y="105.324166"/>
     <use style="fill:#98df8a;stroke:#ffffff;stroke-linejoin:miter;stroke-width:0.75;" x="387.799096" xlink:href="#mf4147376f8" y="105.324166"/>
     <use style="fill:#98df8a;stroke:#ffffff;stroke-linejoin:miter;stroke-width:0.75;" x="388.725532" xlink:href="#mf4147376f8" y="98.240282"/>
     <use style="fill:#98df8a;stroke:#ffffff;stroke-linejoin:miter;stroke-width:0.75;" x="389.640166" xlink:href="#mf4147376f8" y="105.252971"/>
     <use style="fill:#98df8a;stroke:#ffffff;stroke-linejoin:miter;stroke-width:0.75;" x="390.543295" xlink:href="#mf4147376f8" y="105.252971"/>
     <use style="fill:#98df8a;stroke:#ffffff;stroke-linejoin:miter;stroke-width:0.75;" x="391.435205" xlink:href="#mf4147376f8" y="105.252971"/>
     <use style="fill:#98df8a;stroke:#ffffff;stroke-linejoin:miter;stroke-width:0.75;" x="392.316171" xlink:href="#mf4147376f8" y="107.246426"/>
     <use style="fill:#98df8a;stroke:#ffffff;stroke-linejoin:miter;stroke-width:0.75;" x="393.186458" xlink:href="#mf4147376f8" y="107.246426"/>
     <use style="fill:#98df8a;stroke:#ffffff;stroke-linejoin:miter;stroke-width:0.75;" x="394.046323" xlink:href="#mf4147376f8" y="102.405179"/>
     <use style="fill:#98df8a;stroke:#ffffff;stroke-linejoin:miter;stroke-width:0.75;" x="394.896011" xlink:href="#mf4147376f8" y="102.405179"/>
     <use style="fill:#98df8a;stroke:#ffffff;stroke-linejoin:miter;stroke-width:0.75;" x="395.735761" xlink:href="#mf4147376f8" y="102.262789"/>
     <use style="fill:#98df8a;stroke:#ffffff;stroke-linejoin:miter;stroke-width:0.75;" x="396.565803" xlink:href="#mf4147376f8" y="101.337256"/>
     <use style="fill:#98df8a;stroke:#ffffff;stroke-linejoin:miter;stroke-width:0.75;" x="397.386358" xlink:href="#mf4147376f8" y="101.337256"/>
     <use style="fill:#98df8a;stroke:#ffffff;stroke-linejoin:miter;stroke-width:0.75;" x="398.197642" xlink:href="#mf4147376f8" y="106.534478"/>
     <use style="fill:#98df8a;stroke:#ffffff;stroke-linejoin:miter;stroke-width:0.75;" x="398.99986" xlink:href="#mf4147376f8" y="106.427686"/>
     <use style="fill:#98df8a;stroke:#ffffff;stroke-linejoin:miter;stroke-width:0.75;" x="399.793214" xlink:href="#mf4147376f8" y="106.107309"/>
     <use style="fill:#98df8a;stroke:#ffffff;stroke-linejoin:miter;stroke-width:0.75;" x="400.577898" xlink:href="#mf4147376f8" y="100.625308"/>
    </g>
   </g>
   <g id="line2d_34"/>
   <g id="line2d_35"/>
   <g id="line2d_36"/>
   <g id="patch_3">
    <path d="M 59.690625 261.881576 
L 59.690625 48.297115 
" style="fill:none;stroke:#000000;stroke-linecap:square;stroke-linejoin:miter;stroke-width:0.8;"/>
   </g>
   <g id="patch_4">
    <path d="M 75.923352 288.430125 
L 400.578765 288.430125 
" style="fill:none;stroke:#000000;stroke-linecap:square;stroke-linejoin:miter;stroke-width:0.8;"/>
   </g>
   <g id="text_16">
    <!-- usrsctp_fuzzer_connect (23h, 18 trials/fuzzer) -->
    <g transform="translate(101.250938 16.318125)scale(0.12 -0.12)">
     <defs>
      <path d="M 2834 3397 
L 2834 2853 
Q 2591 2978 2328 3040 
Q 2066 3103 1784 3103 
Q 1356 3103 1142 2972 
Q 928 2841 928 2578 
Q 928 2378 1081 2264 
Q 1234 2150 1697 2047 
L 1894 2003 
Q 2506 1872 2764 1633 
Q 3022 1394 3022 966 
Q 3022 478 2636 193 
Q 2250 -91 1575 -91 
Q 1294 -91 989 -36 
Q 684 19 347 128 
L 347 722 
Q 666 556 975 473 
Q 1284 391 1588 391 
Q 1994 391 2212 530 
Q 2431 669 2431 922 
Q 2431 1156 2273 1281 
Q 2116 1406 1581 1522 
L 1381 1569 
Q 847 1681 609 1914 
Q 372 2147 372 2553 
Q 372 3047 722 3315 
Q 1072 3584 1716 3584 
Q 2034 3584 2315 3537 
Q 2597 3491 2834 3397 
z
" id="DejaVuSans-73" transform="scale(0.015625)"/>
      <path d="M 1159 525 
L 1159 -1331 
L 581 -1331 
L 581 3500 
L 1159 3500 
L 1159 2969 
Q 1341 3281 1617 3432 
Q 1894 3584 2278 3584 
Q 2916 3584 3314 3078 
Q 3713 2572 3713 1747 
Q 3713 922 3314 415 
Q 2916 -91 2278 -91 
Q 1894 -91 1617 61 
Q 1341 213 1159 525 
z
M 3116 1747 
Q 3116 2381 2855 2742 
Q 2594 3103 2138 3103 
Q 1681 3103 1420 2742 
Q 1159 2381 1159 1747 
Q 1159 1113 1420 752 
Q 1681 391 2138 391 
Q 2594 391 2855 752 
Q 3116 1113 3116 1747 
z
" id="DejaVuSans-70" transform="scale(0.015625)"/>
      <path d="M 3263 -1063 
L 3263 -1509 
L -63 -1509 
L -63 -1063 
L 3263 -1063 
z
" id="DejaVuSans-5f" transform="scale(0.015625)"/>
      <path d="M 2375 4863 
L 2375 4384 
L 1825 4384 
Q 1516 4384 1395 4259 
Q 1275 4134 1275 3809 
L 1275 3500 
L 2222 3500 
L 2222 3053 
L 1275 3053 
L 1275 0 
L 697 0 
L 697 3053 
L 147 3053 
L 147 3500 
L 697 3500 
L 697 3744 
Q 697 4328 969 4595 
Q 1241 4863 1831 4863 
L 2375 4863 
z
" id="DejaVuSans-66" transform="scale(0.015625)"/>
      <path d="M 353 3500 
L 3084 3500 
L 3084 2975 
L 922 459 
L 3084 459 
L 3084 0 
L 275 0 
L 275 525 
L 2438 3041 
L 353 3041 
L 353 3500 
z
" id="DejaVuSans-7a" transform="scale(0.015625)"/>
      <path d="M 750 794 
L 1409 794 
L 1409 256 
L 897 -744 
L 494 -744 
L 750 256 
L 750 794 
z
" id="DejaVuSans-2c" transform="scale(0.015625)"/>
      <path d="M 603 4863 
L 1178 4863 
L 1178 0 
L 603 0 
L 603 4863 
z
" id="DejaVuSans-6c" transform="scale(0.015625)"/>
      <path d="M 1625 4666 
L 2156 4666 
L 531 -594 
L 0 -594 
L 1625 4666 
z
" id="DejaVuSans-2f" transform="scale(0.015625)"/>
     </defs>
     <use xlink:href="#DejaVuSans-75"/>
     <use x="63.378906" xlink:href="#DejaVuSans-73"/>
     <use x="115.478516" xlink:href="#DejaVuSans-72"/>
     <use x="156.591797" xlink:href="#DejaVuSans-73"/>
     <use x="208.691406" xlink:href="#DejaVuSans-63"/>
     <use x="263.671875" xlink:href="#DejaVuSans-74"/>
     <use x="302.880859" xlink:href="#DejaVuSans-70"/>
     <use x="366.357422" xlink:href="#DejaVuSans-5f"/>
     <use x="416.357422" xlink:href="#DejaVuSans-66"/>
     <use x="451.5625" xlink:href="#DejaVuSans-75"/>
     <use x="514.941406" xlink:href="#DejaVuSans-7a"/>
     <use x="567.431641" xlink:href="#DejaVuSans-7a"/>
     <use x="619.921875" xlink:href="#DejaVuSans-65"/>
     <use x="681.445312" xlink:href="#DejaVuSans-72"/>
     <use x="722.558594" xlink:href="#DejaVuSans-5f"/>
     <use x="772.558594" xlink:href="#DejaVuSans-63"/>
     <use x="827.539062" xlink:href="#DejaVuSans-6f"/>
     <use x="888.720703" xlink:href="#DejaVuSans-6e"/>
     <use x="952.099609" xlink:href="#DejaVuSans-6e"/>
     <use x="1015.478516" xlink:href="#DejaVuSans-65"/>
     <use x="1077.001953" xlink:href="#DejaVuSans-63"/>
     <use x="1131.982422" xlink:href="#DejaVuSans-74"/>
     <use x="1171.191406" xlink:href="#DejaVuSans-20"/>
     <use x="1202.978516" xlink:href="#DejaVuSans-28"/>
     <use x="1241.992188" xlink:href="#DejaVuSans-32"/>
     <use x="1305.615234" xlink:href="#DejaVuSans-33"/>
     <use x="1369.238281" xlink:href="#DejaVuSans-68"/>
     <use x="1432.617188" xlink:href="#DejaVuSans-2c"/>
     <use x="1464.404297" xlink:href="#DejaVuSans-20"/>
     <use x="1496.191406" xlink:href="#DejaVuSans-31"/>
     <use x="1559.814453" xlink:href="#DejaVuSans-38"/>
     <use x="1623.4375" xlink:href="#DejaVuSans-20"/>
     <use x="1655.224609" xlink:href="#DejaVuSans-74"/>
     <use x="1694.433594" xlink:href="#DejaVuSans-72"/>
     <use x="1735.546875" xlink:href="#DejaVuSans-69"/>
     <use x="1763.330078" xlink:href="#DejaVuSans-61"/>
     <use x="1824.609375" xlink:href="#DejaVuSans-6c"/>
     <use x="1852.392578" xlink:href="#DejaVuSans-73"/>
     <use x="1904.492188" xlink:href="#DejaVuSans-2f"/>
     <use x="1938.183594" xlink:href="#DejaVuSans-66"/>
     <use x="1973.388672" xlink:href="#DejaVuSans-75"/>
     <use x="2036.767578" xlink:href="#DejaVuSans-7a"/>
     <use x="2089.257812" xlink:href="#DejaVuSans-7a"/>
     <use x="2141.748047" xlink:href="#DejaVuSans-65"/>
     <use x="2203.271484" xlink:href="#DejaVuSans-72"/>
     <use x="2244.384766" xlink:href="#DejaVuSans-29"/>
    </g>
   </g>
   <g id="legend_1">
    <g id="line2d_37">
     <path d="M 420.810625 30.416562 
L 440.810625 30.416562 
" style="fill:none;stroke:#1f77b4;stroke-linecap:square;stroke-width:1.5;"/>
    </g>
    <g id="line2d_38">
     <defs>
      <path d="M 0 3 
C 0.795609 3 1.55874 2.683901 2.12132 2.12132 
C 2.683901 1.55874 3 0.795609 3 0 
C 3 -0.795609 2.683901 -1.55874 2.12132 -2.12132 
C 1.55874 -2.683901 0.795609 -3 0 -3 
C -0.795609 -3 -1.55874 -2.683901 -2.12132 -2.12132 
C -2.683901 -1.55874 -3 -0.795609 -3 0 
C -3 0.795609 -2.683901 1.55874 -2.12132 2.12132 
C -1.55874 2.683901 -0.795609 3 0 3 
z
" id="m6efab5e740" style="stroke:#1f77b4;"/>
     </defs>
     <g>
      <use style="fill:#1f77b4;stroke:#1f77b4;" x="430.810625" xlink:href="#m6efab5e740" y="30.416562"/>
     </g>
    </g>
    <g id="text_17">
     <!-- afl -->
     <g transform="translate(448.810625 33.916562)scale(0.1 -0.1)">
      <use xlink:href="#DejaVuSans-61"/>
      <use x="61.279297" xlink:href="#DejaVuSans-66"/>
      <use x="96.484375" xlink:href="#DejaVuSans-6c"/>
     </g>
    </g>
    <g id="line2d_39">
     <path d="M 420.810625 45.094688 
L 440.810625 45.094688 
" style="fill:none;stroke:#d62728;stroke-linecap:square;stroke-width:1.5;"/>
    </g>
    <g id="line2d_40">
     <defs>
      <path d="M 0 -3 
L -3 3 
L 3 3 
z
" id="ma829c3a539" style="stroke:#d62728;stroke-linejoin:miter;"/>
     </defs>
     <g>
      <use style="fill:#d62728;stroke:#d62728;stroke-linejoin:miter;" x="430.810625" xlink:href="#ma829c3a539" y="45.094688"/>
     </g>
    </g>
    <g id="text_18">
     <!-- afl_scheduling_random -->
     <g transform="translate(448.810625 48.594688)scale(0.1 -0.1)">
      <use xlink:href="#DejaVuSans-61"/>
      <use x="61.279297" xlink:href="#DejaVuSans-66"/>
      <use x="96.484375" xlink:href="#DejaVuSans-6c"/>
      <use x="124.267578" xlink:href="#DejaVuSans-5f"/>
      <use x="174.267578" xlink:href="#DejaVuSans-73"/>
      <use x="226.367188" xlink:href="#DejaVuSans-63"/>
      <use x="281.347656" xlink:href="#DejaVuSans-68"/>
      <use x="344.726562" xlink:href="#DejaVuSans-65"/>
      <use x="406.25" xlink:href="#DejaVuSans-64"/>
      <use x="469.726562" xlink:href="#DejaVuSans-75"/>
      <use x="533.105469" xlink:href="#DejaVuSans-6c"/>
      <use x="560.888672" xlink:href="#DejaVuSans-69"/>
      <use x="588.671875" xlink:href="#DejaVuSans-6e"/>
      <use x="652.050781" xlink:href="#DejaVuSans-67"/>
      <use x="715.527344" xlink:href="#DejaVuSans-5f"/>
      <use x="765.527344" xlink:href="#DejaVuSans-72"/>
      <use x="806.640625" xlink:href="#DejaVuSans-61"/>
      <use x="867.919922" xlink:href="#DejaVuSans-6e"/>
      <use x="931.298828" xlink:href="#DejaVuSans-64"/>
      <use x="994.775391" xlink:href="#DejaVuSans-6f"/>
      <use x="1055.957031" xlink:href="#DejaVuSans-6d"/>
     </g>
    </g>
    <g id="line2d_41">
     <path d="M 420.810625 60.050937 
L 440.810625 60.050937 
" style="fill:none;stroke:#98df8a;stroke-linecap:square;stroke-width:1.5;"/>
    </g>
    <g id="line2d_42">
     <defs>
      <path d="M -0 3 
L 3 -3 
L -3 -3 
z
" id="m7217258125" style="stroke:#98df8a;stroke-linejoin:miter;"/>
     </defs>
     <g>
      <use style="fill:#98df8a;stroke:#98df8a;stroke-linejoin:miter;" x="430.810625" xlink:href="#m7217258125" y="60.050937"/>
     </g>
    </g>
    <g id="text_19">
     <!-- afl_scheduling_lifo -->
     <g transform="translate(448.810625 63.550937)scale(0.1 -0.1)">
      <use xlink:href="#DejaVuSans-61"/>
      <use x="61.279297" xlink:href="#DejaVuSans-66"/>
      <use x="96.484375" xlink:href="#DejaVuSans-6c"/>
      <use x="124.267578" xlink:href="#DejaVuSans-5f"/>
      <use x="174.267578" xlink:href="#DejaVuSans-73"/>
      <use x="226.367188" xlink:href="#DejaVuSans-63"/>
      <use x="281.347656" xlink:href="#DejaVuSans-68"/>
      <use x="344.726562" xlink:href="#DejaVuSans-65"/>
      <use x="406.25" xlink:href="#DejaVuSans-64"/>
      <use x="469.726562" xlink:href="#DejaVuSans-75"/>
      <use x="533.105469" xlink:href="#DejaVuSans-6c"/>
      <use x="560.888672" xlink:href="#DejaVuSans-69"/>
      <use x="588.671875" xlink:href="#DejaVuSans-6e"/>
      <use x="652.050781" xlink:href="#DejaVuSans-67"/>
      <use x="715.527344" xlink:href="#DejaVuSans-5f"/>
      <use x="765.527344" xlink:href="#DejaVuSans-6c"/>
      <use x="793.310547" xlink:href="#DejaVuSans-69"/>
      <use x="821.09375" xlink:href="#DejaVuSans-66"/>
      <use x="856.298828" xlink:href="#DejaVuSans-6f"/>
     </g>
    </g>
   </g>
  </g>
 </g>
 <defs>
  <clipPath id="p458ab115a2">
   <rect height="266.112" width="357.12" x="59.690625" y="22.318125"/>
  </clipPath>
 </defs>
</svg>
