<?xml version="1.0" encoding="utf-8" standalone="no"?>
<!DOCTYPE svg PUBLIC "-//W3C//DTD SVG 1.1//EN"
  "http://www.w3.org/Graphics/SVG/1.1/DTD/svg11.dtd">
<svg height="325.986375pt" version="1.1" viewBox="0 0 575.348125 325.986375" width="575.348125pt" xmlns="http://www.w3.org/2000/svg" xmlns:xlink="http://www.w3.org/1999/xlink">
 <metadata>
  <rdf:RDF xmlns:cc="http://creativecommons.org/ns#" xmlns:dc="http://purl.org/dc/elements/1.1/" xmlns:rdf="http://www.w3.org/1999/02/22-rdf-syntax-ns#">
   <cc:Work>
    <dc:type rdf:resource="http://purl.org/dc/dcmitype/StillImage"/>
    <dc:date>2022-05-31T14:35:17.641500</dc:date>
    <dc:format>image/svg+xml</dc:format>
    <dc:creator>
     <cc:Agent>
      <dc:title>Matplotlib v3.4.3, https://matplotlib.org/</dc:title>
     </cc:Agent>
    </dc:creator>
   </cc:Work>
  </rdf:RDF>
 </metadata>
 <defs>
  <style type="text/css">*{stroke-linecap:butt;stroke-linejoin:round;}</style>
 </defs>
 <g id="figure_1">
  <g id="patch_1">
   <path d="M 0 325.986375 
L 575.348125 325.986375 
L 575.348125 0 
L 0 0 
z
" style="fill:#ffffff;"/>
  </g>
  <g id="axes_1">
   <g id="patch_2">
    <path d="M 59.690625 288.430125 
L 416.810625 288.430125 
L 416.810625 22.318125 
L 59.690625 22.318125 
z
" style="fill:#ffffff;"/>
   </g>
   <g id="PolyCollection_1">
    <defs>
     <path d="M 75.923352 -214.605784 
L 75.923352 -192.209076 
L 79.490985 -208.562228 
L 83.058617 -214.250281 
L 86.626249 -216.952106 
L 90.193882 -222.497958 
L 93.761514 -222.320206 
L 97.329146 -227.688306 
L 100.896779 -229.21697 
L 104.464411 -235.189426 
L 108.032044 -237.308225 
L 111.599676 -235.367177 
L 115.167308 -235.65158 
L 118.734941 -235.935983 
L 122.302573 -245.676773 
L 125.870205 -245.676773 
L 129.437838 -250.013913 
L 133.00547 -252.360235 
L 136.573103 -248.769652 
L 140.140735 -248.840753 
L 143.708367 -254.031101 
L 147.276 -255.488664 
L 150.843632 -256.484074 
L 154.411264 -257.763886 
L 157.978897 -258.929936 
L 161.546529 -261.318919 
L 165.114161 -261.318919 
L 168.681794 -261.887724 
L 172.249426 -261.887724 
L 175.817059 -255.204262 
L 179.384691 -262.029925 
L 182.952323 -262.385429 
L 186.519956 -262.385429 
L 190.087588 -262.420979 
L 193.65522 -262.812033 
L 197.222853 -264.447348 
L 200.790485 -266.509267 
L 204.358118 -266.367066 
L 207.92575 -267.319814 
L 211.493382 -267.042522 
L 215.061015 -267.433575 
L 218.628647 -267.469126 
L 222.196279 -267.711757 
L 225.763912 -268.073481 
L 229.331544 -268.073481 
L 232.899176 -268.073481 
L 236.466809 -268.073481 
L 240.034441 -267.711757 
L 243.602074 -268.571186 
L 247.169706 -268.571186 
L 250.737338 -268.393434 
L 254.304971 -269.068891 
L 257.872603 -269.068891 
L 261.440235 -270.490904 
L 265.007868 -270.490904 
L 268.5755 -270.810857 
L 272.143132 -270.810857 
L 275.710765 -270.810857 
L 279.278397 -271.273011 
L 282.84603 -271.486313 
L 286.413662 -271.486313 
L 289.981294 -271.521864 
L 293.548927 -271.556525 
L 297.116559 -272.19732 
L 300.684191 -272.19732 
L 304.251824 -272.26842 
L 307.819456 -272.339521 
L 311.387089 -272.23287 
L 314.954721 -272.339521 
L 318.522353 -272.23287 
L 322.089986 -272.410622 
L 325.657618 -272.23287 
L 329.22525 -273.26383 
L 332.792883 -273.014977 
L 336.360515 -273.26383 
L 339.928147 -273.050528 
L 343.49578 -273.157179 
L 347.063412 -274.789828 
L 350.631045 -274.792494 
L 354.198677 -274.792494 
L 357.766309 -275.361299 
L 361.333942 -274.792494 
L 364.901574 -275.361299 
L 368.469206 -275.46795 
L 372.036839 -275.325749 
L 375.604471 -275.325749 
L 379.172104 -275.4324 
L 382.739736 -277.387668 
L 386.307368 -277.387668 
L 389.875001 -277.387668 
L 393.442633 -277.387668 
L 397.010265 -277.387668 
L 400.577898 -277.672071 
L 400.577898 -282.791318 
L 400.577898 -282.791318 
L 397.010265 -282.791318 
L 393.442633 -282.791318 
L 389.875001 -282.791318 
L 386.307368 -282.791318 
L 382.739736 -282.791318 
L 379.172104 -283.665856 
L 375.604471 -284.498623 
L 372.036839 -284.498623 
L 368.469206 -284.533285 
L 364.901574 -284.533285 
L 361.333942 -284.497734 
L 357.766309 -284.533285 
L 354.198677 -284.533285 
L 350.631045 -284.533285 
L 347.063412 -283.332572 
L 343.49578 -282.044761 
L 339.928147 -282.044761 
L 336.360515 -281.90256 
L 332.792883 -281.760359 
L 329.22525 -281.547057 
L 325.657618 -280.8005 
L 322.089986 -280.8005 
L 318.522353 -279.094084 
L 314.954721 -279.094084 
L 311.387089 -279.022983 
L 307.819456 -279.022983 
L 304.251824 -278.987433 
L 300.684191 -278.987433 
L 297.116559 -278.845232 
L 293.548927 -278.845232 
L 289.981294 -278.134225 
L 286.413662 -277.992024 
L 282.84603 -277.778722 
L 279.278397 -277.672071 
L 275.710765 -278.136003 
L 272.143132 -277.209916 
L 268.5755 -276.183401 
L 265.007868 -276.356708 
L 261.440235 -276.356708 
L 257.872603 -276.214507 
L 254.304971 -276.178957 
L 250.737338 -276.214507 
L 247.169706 -276.178957 
L 243.602074 -276.178957 
L 240.034441 -276.214507 
L 236.466809 -276.250057 
L 232.899176 -276.178957 
L 229.331544 -276.178957 
L 225.763912 -276.178957 
L 222.196279 -275.965655 
L 218.628647 -275.965655 
L 215.061015 -275.965655 
L 211.493382 -275.752353 
L 207.92575 -275.965655 
L 204.358118 -275.752353 
L 200.790485 -275.757685 
L 197.222853 -275.752353 
L 193.65522 -275.752353 
L 190.087588 -275.965655 
L 186.519956 -273.761534 
L 182.952323 -273.512682 
L 179.384691 -273.370481 
L 175.817059 -273.192729 
L 172.249426 -273.548232 
L 168.681794 -273.548232 
L 165.114161 -272.623924 
L 161.546529 -272.623924 
L 157.978897 -271.628515 
L 154.411264 -269.922099 
L 150.843632 -268.428985 
L 147.276 -267.149173 
L 143.708367 -267.006972 
L 140.140735 -266.86477 
L 136.573103 -266.722569 
L 133.00547 -266.722569 
L 129.437838 -266.509267 
L 125.870205 -266.295965 
L 122.302573 -266.011562 
L 118.734941 -263.914093 
L 115.167308 -260.323509 
L 111.599676 -258.759295 
L 108.032044 -258.510443 
L 104.464411 -258.119389 
L 100.896779 -255.168711 
L 97.329146 -251.258175 
L 93.761514 -249.302907 
L 90.193882 -246.601082 
L 86.626249 -245.179069 
L 83.058617 -243.757055 
L 79.490985 -239.206613 
L 75.923352 -214.605784 
z
" id="mb069973f0a" style="stroke:#1f77b4;stroke-opacity:0.2;"/>
    </defs>
    <g clip-path="url(#p0239efc53b)">
     <use style="fill:#1f77b4;fill-opacity:0.2;stroke:#1f77b4;stroke-opacity:0.2;" x="0" xlink:href="#mb069973f0a" y="325.986375"/>
    </g>
   </g>
   <g id="PolyCollection_2">
    <defs>
     <path d="M 75.923352 -233.091956 
L 75.923352 -190.147157 
L 79.490985 -208.206725 
L 83.058617 -216.809905 
L 86.626249 -233.376359 
L 90.193882 -243.828156 
L 93.761514 -245.890075 
L 97.329146 -247.027686 
L 100.896779 -249.089605 
L 104.464411 -249.160706 
L 108.032044 -251.293725 
L 111.599676 -251.293725 
L 115.167308 -254.208852 
L 118.734941 -254.351054 
L 122.302573 -254.493255 
L 125.870205 -255.630866 
L 129.437838 -256.270772 
L 133.00547 -256.626275 
L 136.573103 -256.697376 
L 140.140735 -256.768476 
L 143.708367 -256.768476 
L 147.276 -256.768476 
L 150.843632 -256.768476 
L 154.411264 -257.621684 
L 157.978897 -257.621684 
L 161.546529 -258.403792 
L 165.114161 -258.403792 
L 168.681794 -258.403792 
L 172.249426 -258.830395 
L 175.817059 -259.825805 
L 179.384691 -259.825805 
L 182.952323 -259.825805 
L 186.519956 -259.825805 
L 190.087588 -261.105617 
L 193.65522 -261.105617 
L 197.222853 -261.105617 
L 200.790485 -261.247818 
L 204.358118 -261.247818 
L 207.92575 -261.247818 
L 211.493382 -261.247818 
L 215.061015 -261.247818 
L 218.628647 -261.247818 
L 222.196279 -261.390019 
L 225.763912 -261.390019 
L 229.331544 -261.390019 
L 232.899176 -261.390019 
L 236.466809 -261.603321 
L 240.034441 -261.603321 
L 243.602074 -263.949643 
L 247.169706 -263.949643 
L 250.737338 -263.949643 
L 254.304971 -263.949643 
L 257.872603 -263.949643 
L 261.440235 -263.949643 
L 265.007868 -263.949643 
L 268.5755 -263.949643 
L 272.143132 -263.949643 
L 275.710765 -263.949643 
L 279.278397 -263.949643 
L 282.84603 -263.949643 
L 286.413662 -263.949643 
L 289.981294 -263.949643 
L 293.548927 -263.949643 
L 297.116559 -263.949643 
L 300.684191 -263.949643 
L 304.251824 -263.949643 
L 307.819456 -263.949643 
L 311.387089 -263.949643 
L 314.954721 -267.078072 
L 318.522353 -267.078072 
L 322.089986 -267.078072 
L 325.657618 -267.078072 
L 329.22525 -267.078072 
L 332.792883 -267.078072 
L 336.360515 -267.078072 
L 339.928147 -267.078072 
L 343.49578 -267.646877 
L 347.063412 -267.789079 
L 350.631045 -267.789079 
L 354.198677 -267.789079 
L 357.766309 -267.789079 
L 361.333942 -267.789079 
L 364.901574 -267.789079 
L 368.469206 -267.789079 
L 372.036839 -267.789079 
L 375.604471 -267.789079 
L 379.172104 -268.428985 
L 382.739736 -269.139991 
L 386.307368 -269.139991 
L 389.875001 -269.139991 
L 393.442633 -269.139991 
L 397.010265 -269.139991 
L 400.577898 -269.139991 
L 400.577898 -291.57225 
L 400.577898 -291.57225 
L 397.010265 -276.036756 
L 393.442633 -276.036756 
L 389.875001 -274.40144 
L 386.307368 -274.117038 
L 382.739736 -274.117038 
L 379.172104 -274.117038 
L 375.604471 -274.117038 
L 372.036839 -274.117038 
L 368.469206 -274.117038 
L 364.901574 -274.117038 
L 361.333942 -274.117038 
L 357.766309 -274.117038 
L 354.198677 -274.117038 
L 350.631045 -274.117038 
L 347.063412 -274.117038 
L 343.49578 -274.117038 
L 339.928147 -274.117038 
L 336.360515 -274.117038 
L 332.792883 -274.117038 
L 329.22525 -272.19732 
L 325.657618 -272.19732 
L 322.089986 -272.19732 
L 318.522353 -272.19732 
L 314.954721 -272.126219 
L 311.387089 -271.912917 
L 307.819456 -271.13081 
L 304.251824 -271.13081 
L 300.684191 -271.13081 
L 297.116559 -271.13081 
L 293.548927 -271.13081 
L 289.981294 -271.13081 
L 286.413662 -271.13081 
L 282.84603 -271.13081 
L 279.278397 -271.13081 
L 275.710765 -271.13081 
L 272.143132 -271.059709 
L 268.5755 -271.059709 
L 265.007868 -270.846407 
L 261.440235 -270.846407 
L 257.872603 -270.562005 
L 254.304971 -270.490904 
L 250.737338 -270.348703 
L 247.169706 -270.348703 
L 243.602074 -270.348703 
L 240.034441 -270.348703 
L 236.466809 -270.277602 
L 232.899176 -270.277602 
L 229.331544 -270.277602 
L 225.763912 -270.135401 
L 222.196279 -270.135401 
L 218.628647 -270.135401 
L 215.061015 -270.135401 
L 211.493382 -270.135401 
L 207.92575 -270.135401 
L 204.358118 -269.779897 
L 200.790485 -269.637696 
L 197.222853 -269.566595 
L 193.65522 -269.566595 
L 190.087588 -268.855589 
L 186.519956 -268.002381 
L 182.952323 -268.002381 
L 179.384691 -267.504676 
L 175.817059 -267.362475 
L 172.249426 -264.234046 
L 168.681794 -264.234046 
L 165.114161 -264.234046 
L 161.546529 -263.59414 
L 157.978897 -263.59414 
L 154.411264 -263.025334 
L 150.843632 -263.025334 
L 147.276 -261.674422 
L 143.708367 -261.745523 
L 140.140735 -261.532221 
L 136.573103 -261.247818 
L 133.00547 -261.176717 
L 129.437838 -261.176717 
L 125.870205 -260.536811 
L 122.302573 -259.612503 
L 118.734941 -259.612503 
L 115.167308 -258.19049 
L 111.599676 -258.19049 
L 108.032044 -256.981778 
L 104.464411 -255.844168 
L 100.896779 -255.773067 
L 97.329146 -255.559765 
L 93.761514 -253.995551 
L 90.193882 -252.502437 
L 86.626249 -252.004732 
L 83.058617 -248.947404 
L 79.490985 -241.552935 
L 75.923352 -233.091956 
z
" id="mf00f98f222" style="stroke:#d62728;stroke-opacity:0.2;"/>
    </defs>
    <g clip-path="url(#p0239efc53b)">
     <use style="fill:#d62728;fill-opacity:0.2;stroke:#d62728;stroke-opacity:0.2;" x="0" xlink:href="#mf00f98f222" y="325.986375"/>
    </g>
   </g>
   <g id="PolyCollection_3">
    <defs>
     <path d="M 75.923352 -149.122075 
L 75.923352 -49.65225 
L 79.490985 -70.484744 
L 83.058617 -70.555844 
L 86.626249 -71.977858 
L 90.193882 -75.959495 
L 93.761514 -82.642957 
L 97.329146 -104.541961 
L 100.896779 -108.950202 
L 104.464411 -118.619891 
L 108.032044 -113.002939 
L 111.599676 -113.713946 
L 115.167308 -113.927248 
L 118.734941 -116.771274 
L 122.302573 -119.188697 
L 125.870205 -121.392817 
L 129.437838 -120.64626 
L 133.00547 -124.94785 
L 136.573103 -128.14738 
L 140.140735 -128.360682 
L 143.708367 -131.062507 
L 147.276 -132.555621 
L 150.843632 -136.466157 
L 154.411264 -136.466157 
L 157.978897 -136.466157 
L 161.546529 -136.78611 
L 165.114161 -138.279224 
L 168.681794 -139.773227 
L 172.249426 -140.234492 
L 175.817059 -144.358331 
L 179.384691 -147.700062 
L 182.952323 -147.700062 
L 186.519956 -148.304418 
L 190.087588 -151.539498 
L 193.65522 -148.482169 
L 197.222853 -148.482169 
L 200.790485 -149.761981 
L 204.358118 -149.904182 
L 207.92575 -150.682735 
L 211.493382 -152.321605 
L 215.061015 -152.321605 
L 218.628647 -155.307833 
L 222.196279 -166.115133 
L 225.763912 -166.755039 
L 229.331544 -166.755039 
L 232.899176 -159.182819 
L 236.466809 -152.677108 
L 240.034441 -152.748209 
L 243.602074 -152.748209 
L 247.169706 -159.751624 
L 250.737338 -166.730154 
L 254.304971 -159.218369 
L 257.872603 -159.218369 
L 261.440235 -160.142678 
L 265.007868 -162.346798 
L 268.5755 -161.49359 
L 272.143132 -154.952329 
L 275.710765 -154.952329 
L 279.278397 -154.952329 
L 282.84603 -155.02343 
L 286.413662 -155.094531 
L 289.981294 -157.796356 
L 293.548927 -166.82614 
L 297.116559 -170.729566 
L 300.684191 -170.807777 
L 304.251824 -166.044033 
L 307.819456 -166.044033 
L 311.387089 -166.115133 
L 314.954721 -166.079583 
L 318.522353 -166.186234 
L 322.089986 -166.186234 
L 325.657618 -166.399536 
L 329.22525 -166.399536 
L 332.792883 -166.399536 
L 336.360515 -178.62885 
L 339.928147 -178.62885 
L 343.49578 -178.62885 
L 347.063412 -178.771051 
L 350.631045 -180.157514 
L 354.198677 -178.771051 
L 357.766309 -178.771051 
L 361.333942 -178.771051 
L 364.901574 -179.126554 
L 368.469206 -174.789414 
L 372.036839 -179.268756 
L 375.604471 -179.339856 
L 379.172104 -179.339856 
L 382.739736 -179.339856 
L 386.307368 -179.482057 
L 389.875001 -177.425471 
L 393.442633 -178.806601 
L 397.010265 -178.166695 
L 400.577898 -180.193064 
L 400.577898 -249.65841 
L 400.577898 -249.65841 
L 397.010265 -249.735732 
L 393.442633 -249.978363 
L 389.875001 -249.65841 
L 386.307368 -250.298316 
L 382.739736 -250.298316 
L 379.172104 -250.298316 
L 375.604471 -250.227215 
L 372.036839 -249.65841 
L 368.469206 -248.378598 
L 364.901574 -248.805202 
L 361.333942 -248.378598 
L 357.766309 -246.38778 
L 354.198677 -246.38778 
L 350.631045 -244.610263 
L 347.063412 -246.38778 
L 343.49578 -246.38778 
L 339.928147 -246.38778 
L 336.360515 -246.38778 
L 332.792883 -246.38778 
L 329.22525 -246.38778 
L 325.657618 -246.38778 
L 322.089986 -246.38778 
L 318.522353 -245.143518 
L 314.954721 -243.899257 
L 311.387089 -243.899257 
L 307.819456 -243.899257 
L 304.251824 -242.761646 
L 300.684191 -242.974948 
L 297.116559 -242.974948 
L 293.548927 -242.878073 
L 289.981294 -241.677361 
L 286.413662 -243.757055 
L 282.84603 -243.757055 
L 279.278397 -243.685955 
L 275.710765 -243.685955 
L 272.143132 -243.685955 
L 268.5755 -241.552935 
L 265.007868 -240.699727 
L 261.440235 -240.699727 
L 257.872603 -240.699727 
L 254.304971 -240.699727 
L 250.737338 -241.695136 
L 247.169706 -241.730686 
L 243.602074 -242.761646 
L 240.034441 -242.761646 
L 236.466809 -242.619445 
L 232.899176 -241.624035 
L 229.331544 -241.410733 
L 225.763912 -240.780604 
L 222.196279 -240.735277 
L 218.628647 -239.846519 
L 215.061015 -241.01968 
L 211.493382 -239.846519 
L 207.92575 -241.01968 
L 204.358118 -241.01968 
L 200.790485 -242.192841 
L 197.222853 -241.481834 
L 193.65522 -241.481834 
L 190.087588 -238.566707 
L 186.519956 -237.660174 
L 182.952323 -232.523151 
L 179.384691 -235.65158 
L 175.817059 -238.993311 
L 172.249426 -235.011674 
L 168.681794 -233.838513 
L 165.114161 -229.608024 
L 161.546529 -233.589661 
L 157.978897 -231.38554 
L 154.411264 -233.163057 
L 150.843632 -229.394722 
L 147.276 -228.008259 
L 143.708367 -227.475004 
L 140.140735 -227.332803 
L 136.573103 -227.332803 
L 133.00547 -226.835098 
L 129.437838 -225.519736 
L 125.870205 -223.066763 
L 122.302573 -221.929152 
L 118.734941 -220.64934 
L 115.167308 -218.871824 
L 111.599676 -215.387891 
L 108.032044 -213.894778 
L 104.464411 -212.792717 
L 100.896779 -211.655107 
L 97.329146 -207.922322 
L 93.761514 -203.585182 
L 90.193882 -189.151747 
L 86.626249 -179.233205 
L 83.058617 -175.855924 
L 79.490985 -169.172462 
L 75.923352 -149.122075 
z
" id="meca26260da" style="stroke:#98df8a;stroke-opacity:0.2;"/>
    </defs>
    <g clip-path="url(#p0239efc53b)">
     <use style="fill:#98df8a;fill-opacity:0.2;stroke:#98df8a;stroke-opacity:0.2;" x="0" xlink:href="#meca26260da" y="325.986375"/>
    </g>
   </g>
   <g id="matplotlib.axis_1">
    <g id="xtick_1">
     <g id="line2d_1">
      <defs>
       <path d="M 0 0 
L 0 3.5 
" id="mc630248cfb" style="stroke:#000000;stroke-width:0.8;"/>
      </defs>
      <g>
       <use style="stroke:#000000;stroke-width:0.8;" x="75.923352" xlink:href="#mc630248cfb" y="288.430125"/>
      </g>
     </g>
     <g id="text_1">
      <!-- 15m -->
      <g transform="translate(64.69054 303.028562)scale(0.1 -0.1)">
       <defs>
        <path d="M 794 531 
L 1825 531 
L 1825 4091 
L 703 3866 
L 703 4441 
L 1819 4666 
L 2450 4666 
L 2450 531 
L 3481 531 
L 3481 0 
L 794 0 
L 794 531 
z
" id="DejaVuSans-31" transform="scale(0.015625)"/>
        <path d="M 691 4666 
L 3169 4666 
L 3169 4134 
L 1269 4134 
L 1269 2991 
Q 1406 3038 1543 3061 
Q 1681 3084 1819 3084 
Q 2600 3084 3056 2656 
Q 3513 2228 3513 1497 
Q 3513 744 3044 326 
Q 2575 -91 1722 -91 
Q 1428 -91 1123 -41 
Q 819 9 494 109 
L 494 744 
Q 775 591 1075 516 
Q 1375 441 1709 441 
Q 2250 441 2565 725 
Q 2881 1009 2881 1497 
Q 2881 1984 2565 2268 
Q 2250 2553 1709 2553 
Q 1456 2553 1204 2497 
Q 953 2441 691 2322 
L 691 4666 
z
" id="DejaVuSans-35" transform="scale(0.015625)"/>
        <path d="M 3328 2828 
Q 3544 3216 3844 3400 
Q 4144 3584 4550 3584 
Q 5097 3584 5394 3201 
Q 5691 2819 5691 2113 
L 5691 0 
L 5113 0 
L 5113 2094 
Q 5113 2597 4934 2840 
Q 4756 3084 4391 3084 
Q 3944 3084 3684 2787 
Q 3425 2491 3425 1978 
L 3425 0 
L 2847 0 
L 2847 2094 
Q 2847 2600 2669 2842 
Q 2491 3084 2119 3084 
Q 1678 3084 1418 2786 
Q 1159 2488 1159 1978 
L 1159 0 
L 581 0 
L 581 3500 
L 1159 3500 
L 1159 2956 
Q 1356 3278 1631 3431 
Q 1906 3584 2284 3584 
Q 2666 3584 2933 3390 
Q 3200 3197 3328 2828 
z
" id="DejaVuSans-6d" transform="scale(0.015625)"/>
       </defs>
       <use xlink:href="#DejaVuSans-31"/>
       <use x="63.623047" xlink:href="#DejaVuSans-35"/>
       <use x="127.246094" xlink:href="#DejaVuSans-6d"/>
      </g>
     </g>
    </g>
    <g id="xtick_2">
     <g id="line2d_2">
      <g>
       <use style="stroke:#000000;stroke-width:0.8;" x="130.627049" xlink:href="#mc630248cfb" y="288.430125"/>
      </g>
     </g>
     <g id="text_2">
      <!-- 4h:5m -->
      <g transform="translate(114.541111 303.028562)scale(0.1 -0.1)">
       <defs>
        <path d="M 2419 4116 
L 825 1625 
L 2419 1625 
L 2419 4116 
z
M 2253 4666 
L 3047 4666 
L 3047 1625 
L 3713 1625 
L 3713 1100 
L 3047 1100 
L 3047 0 
L 2419 0 
L 2419 1100 
L 313 1100 
L 313 1709 
L 2253 4666 
z
" id="DejaVuSans-34" transform="scale(0.015625)"/>
        <path d="M 3513 2113 
L 3513 0 
L 2938 0 
L 2938 2094 
Q 2938 2591 2744 2837 
Q 2550 3084 2163 3084 
Q 1697 3084 1428 2787 
Q 1159 2491 1159 1978 
L 1159 0 
L 581 0 
L 581 4863 
L 1159 4863 
L 1159 2956 
Q 1366 3272 1645 3428 
Q 1925 3584 2291 3584 
Q 2894 3584 3203 3211 
Q 3513 2838 3513 2113 
z
" id="DejaVuSans-68" transform="scale(0.015625)"/>
        <path d="M 750 794 
L 1409 794 
L 1409 0 
L 750 0 
L 750 794 
z
M 750 3309 
L 1409 3309 
L 1409 2516 
L 750 2516 
L 750 3309 
z
" id="DejaVuSans-3a" transform="scale(0.015625)"/>
       </defs>
       <use xlink:href="#DejaVuSans-34"/>
       <use x="63.623047" xlink:href="#DejaVuSans-68"/>
       <use x="127.001953" xlink:href="#DejaVuSans-3a"/>
       <use x="160.693359" xlink:href="#DejaVuSans-35"/>
       <use x="224.316406" xlink:href="#DejaVuSans-6d"/>
      </g>
     </g>
    </g>
    <g id="xtick_3">
     <g id="line2d_3">
      <g>
       <use style="stroke:#000000;stroke-width:0.8;" x="185.330745" xlink:href="#mc630248cfb" y="288.430125"/>
      </g>
     </g>
     <g id="text_3">
      <!-- 7h:55m -->
      <g transform="translate(166.063557 303.028562)scale(0.1 -0.1)">
       <defs>
        <path d="M 525 4666 
L 3525 4666 
L 3525 4397 
L 1831 0 
L 1172 0 
L 2766 4134 
L 525 4134 
L 525 4666 
z
" id="DejaVuSans-37" transform="scale(0.015625)"/>
       </defs>
       <use xlink:href="#DejaVuSans-37"/>
       <use x="63.623047" xlink:href="#DejaVuSans-68"/>
       <use x="127.001953" xlink:href="#DejaVuSans-3a"/>
       <use x="160.693359" xlink:href="#DejaVuSans-35"/>
       <use x="224.316406" xlink:href="#DejaVuSans-35"/>
       <use x="287.939453" xlink:href="#DejaVuSans-6d"/>
      </g>
     </g>
    </g>
    <g id="xtick_4">
     <g id="line2d_4">
      <g>
       <use style="stroke:#000000;stroke-width:0.8;" x="240.034441" xlink:href="#mc630248cfb" y="288.430125"/>
      </g>
     </g>
     <g id="text_4">
      <!-- 11h:45m -->
      <g transform="translate(217.586004 303.028562)scale(0.1 -0.1)">
       <use xlink:href="#DejaVuSans-31"/>
       <use x="63.623047" xlink:href="#DejaVuSans-31"/>
       <use x="127.246094" xlink:href="#DejaVuSans-68"/>
       <use x="190.625" xlink:href="#DejaVuSans-3a"/>
       <use x="224.316406" xlink:href="#DejaVuSans-34"/>
       <use x="287.939453" xlink:href="#DejaVuSans-35"/>
       <use x="351.5625" xlink:href="#DejaVuSans-6d"/>
      </g>
     </g>
    </g>
    <g id="xtick_5">
     <g id="line2d_5">
      <g>
       <use style="stroke:#000000;stroke-width:0.8;" x="294.738137" xlink:href="#mc630248cfb" y="288.430125"/>
      </g>
     </g>
     <g id="text_5">
      <!-- 15h:35m -->
      <g transform="translate(272.2897 303.028562)scale(0.1 -0.1)">
       <defs>
        <path d="M 2597 2516 
Q 3050 2419 3304 2112 
Q 3559 1806 3559 1356 
Q 3559 666 3084 287 
Q 2609 -91 1734 -91 
Q 1441 -91 1130 -33 
Q 819 25 488 141 
L 488 750 
Q 750 597 1062 519 
Q 1375 441 1716 441 
Q 2309 441 2620 675 
Q 2931 909 2931 1356 
Q 2931 1769 2642 2001 
Q 2353 2234 1838 2234 
L 1294 2234 
L 1294 2753 
L 1863 2753 
Q 2328 2753 2575 2939 
Q 2822 3125 2822 3475 
Q 2822 3834 2567 4026 
Q 2313 4219 1838 4219 
Q 1578 4219 1281 4162 
Q 984 4106 628 3988 
L 628 4550 
Q 988 4650 1302 4700 
Q 1616 4750 1894 4750 
Q 2613 4750 3031 4423 
Q 3450 4097 3450 3541 
Q 3450 3153 3228 2886 
Q 3006 2619 2597 2516 
z
" id="DejaVuSans-33" transform="scale(0.015625)"/>
       </defs>
       <use xlink:href="#DejaVuSans-31"/>
       <use x="63.623047" xlink:href="#DejaVuSans-35"/>
       <use x="127.246094" xlink:href="#DejaVuSans-68"/>
       <use x="190.625" xlink:href="#DejaVuSans-3a"/>
       <use x="224.316406" xlink:href="#DejaVuSans-33"/>
       <use x="287.939453" xlink:href="#DejaVuSans-35"/>
       <use x="351.5625" xlink:href="#DejaVuSans-6d"/>
      </g>
     </g>
    </g>
    <g id="xtick_6">
     <g id="line2d_6">
      <g>
       <use style="stroke:#000000;stroke-width:0.8;" x="349.441834" xlink:href="#mc630248cfb" y="288.430125"/>
      </g>
     </g>
     <g id="text_6">
      <!-- 19h:25m -->
      <g transform="translate(326.993396 303.028562)scale(0.1 -0.1)">
       <defs>
        <path d="M 703 97 
L 703 672 
Q 941 559 1184 500 
Q 1428 441 1663 441 
Q 2288 441 2617 861 
Q 2947 1281 2994 2138 
Q 2813 1869 2534 1725 
Q 2256 1581 1919 1581 
Q 1219 1581 811 2004 
Q 403 2428 403 3163 
Q 403 3881 828 4315 
Q 1253 4750 1959 4750 
Q 2769 4750 3195 4129 
Q 3622 3509 3622 2328 
Q 3622 1225 3098 567 
Q 2575 -91 1691 -91 
Q 1453 -91 1209 -44 
Q 966 3 703 97 
z
M 1959 2075 
Q 2384 2075 2632 2365 
Q 2881 2656 2881 3163 
Q 2881 3666 2632 3958 
Q 2384 4250 1959 4250 
Q 1534 4250 1286 3958 
Q 1038 3666 1038 3163 
Q 1038 2656 1286 2365 
Q 1534 2075 1959 2075 
z
" id="DejaVuSans-39" transform="scale(0.015625)"/>
        <path d="M 1228 531 
L 3431 531 
L 3431 0 
L 469 0 
L 469 531 
Q 828 903 1448 1529 
Q 2069 2156 2228 2338 
Q 2531 2678 2651 2914 
Q 2772 3150 2772 3378 
Q 2772 3750 2511 3984 
Q 2250 4219 1831 4219 
Q 1534 4219 1204 4116 
Q 875 4013 500 3803 
L 500 4441 
Q 881 4594 1212 4672 
Q 1544 4750 1819 4750 
Q 2544 4750 2975 4387 
Q 3406 4025 3406 3419 
Q 3406 3131 3298 2873 
Q 3191 2616 2906 2266 
Q 2828 2175 2409 1742 
Q 1991 1309 1228 531 
z
" id="DejaVuSans-32" transform="scale(0.015625)"/>
       </defs>
       <use xlink:href="#DejaVuSans-31"/>
       <use x="63.623047" xlink:href="#DejaVuSans-39"/>
       <use x="127.246094" xlink:href="#DejaVuSans-68"/>
       <use x="190.625" xlink:href="#DejaVuSans-3a"/>
       <use x="224.316406" xlink:href="#DejaVuSans-32"/>
       <use x="287.939453" xlink:href="#DejaVuSans-35"/>
       <use x="351.5625" xlink:href="#DejaVuSans-6d"/>
      </g>
     </g>
    </g>
    <g id="text_7">
     <!-- Time (hour:minute) -->
     <g transform="translate(189.843594 316.706687)scale(0.1 -0.1)">
      <defs>
       <path d="M -19 4666 
L 3928 4666 
L 3928 4134 
L 2272 4134 
L 2272 0 
L 1638 0 
L 1638 4134 
L -19 4134 
L -19 4666 
z
" id="DejaVuSans-54" transform="scale(0.015625)"/>
       <path d="M 603 3500 
L 1178 3500 
L 1178 0 
L 603 0 
L 603 3500 
z
M 603 4863 
L 1178 4863 
L 1178 4134 
L 603 4134 
L 603 4863 
z
" id="DejaVuSans-69" transform="scale(0.015625)"/>
       <path d="M 3597 1894 
L 3597 1613 
L 953 1613 
Q 991 1019 1311 708 
Q 1631 397 2203 397 
Q 2534 397 2845 478 
Q 3156 559 3463 722 
L 3463 178 
Q 3153 47 2828 -22 
Q 2503 -91 2169 -91 
Q 1331 -91 842 396 
Q 353 884 353 1716 
Q 353 2575 817 3079 
Q 1281 3584 2069 3584 
Q 2775 3584 3186 3129 
Q 3597 2675 3597 1894 
z
M 3022 2063 
Q 3016 2534 2758 2815 
Q 2500 3097 2075 3097 
Q 1594 3097 1305 2825 
Q 1016 2553 972 2059 
L 3022 2063 
z
" id="DejaVuSans-65" transform="scale(0.015625)"/>
       <path id="DejaVuSans-20" transform="scale(0.015625)"/>
       <path d="M 1984 4856 
Q 1566 4138 1362 3434 
Q 1159 2731 1159 2009 
Q 1159 1288 1364 580 
Q 1569 -128 1984 -844 
L 1484 -844 
Q 1016 -109 783 600 
Q 550 1309 550 2009 
Q 550 2706 781 3412 
Q 1013 4119 1484 4856 
L 1984 4856 
z
" id="DejaVuSans-28" transform="scale(0.015625)"/>
       <path d="M 1959 3097 
Q 1497 3097 1228 2736 
Q 959 2375 959 1747 
Q 959 1119 1226 758 
Q 1494 397 1959 397 
Q 2419 397 2687 759 
Q 2956 1122 2956 1747 
Q 2956 2369 2687 2733 
Q 2419 3097 1959 3097 
z
M 1959 3584 
Q 2709 3584 3137 3096 
Q 3566 2609 3566 1747 
Q 3566 888 3137 398 
Q 2709 -91 1959 -91 
Q 1206 -91 779 398 
Q 353 888 353 1747 
Q 353 2609 779 3096 
Q 1206 3584 1959 3584 
z
" id="DejaVuSans-6f" transform="scale(0.015625)"/>
       <path d="M 544 1381 
L 544 3500 
L 1119 3500 
L 1119 1403 
Q 1119 906 1312 657 
Q 1506 409 1894 409 
Q 2359 409 2629 706 
Q 2900 1003 2900 1516 
L 2900 3500 
L 3475 3500 
L 3475 0 
L 2900 0 
L 2900 538 
Q 2691 219 2414 64 
Q 2138 -91 1772 -91 
Q 1169 -91 856 284 
Q 544 659 544 1381 
z
M 1991 3584 
L 1991 3584 
z
" id="DejaVuSans-75" transform="scale(0.015625)"/>
       <path d="M 2631 2963 
Q 2534 3019 2420 3045 
Q 2306 3072 2169 3072 
Q 1681 3072 1420 2755 
Q 1159 2438 1159 1844 
L 1159 0 
L 581 0 
L 581 3500 
L 1159 3500 
L 1159 2956 
Q 1341 3275 1631 3429 
Q 1922 3584 2338 3584 
Q 2397 3584 2469 3576 
Q 2541 3569 2628 3553 
L 2631 2963 
z
" id="DejaVuSans-72" transform="scale(0.015625)"/>
       <path d="M 3513 2113 
L 3513 0 
L 2938 0 
L 2938 2094 
Q 2938 2591 2744 2837 
Q 2550 3084 2163 3084 
Q 1697 3084 1428 2787 
Q 1159 2491 1159 1978 
L 1159 0 
L 581 0 
L 581 3500 
L 1159 3500 
L 1159 2956 
Q 1366 3272 1645 3428 
Q 1925 3584 2291 3584 
Q 2894 3584 3203 3211 
Q 3513 2838 3513 2113 
z
" id="DejaVuSans-6e" transform="scale(0.015625)"/>
       <path d="M 1172 4494 
L 1172 3500 
L 2356 3500 
L 2356 3053 
L 1172 3053 
L 1172 1153 
Q 1172 725 1289 603 
Q 1406 481 1766 481 
L 2356 481 
L 2356 0 
L 1766 0 
Q 1100 0 847 248 
Q 594 497 594 1153 
L 594 3053 
L 172 3053 
L 172 3500 
L 594 3500 
L 594 4494 
L 1172 4494 
z
" id="DejaVuSans-74" transform="scale(0.015625)"/>
       <path d="M 513 4856 
L 1013 4856 
Q 1481 4119 1714 3412 
Q 1947 2706 1947 2009 
Q 1947 1309 1714 600 
Q 1481 -109 1013 -844 
L 513 -844 
Q 928 -128 1133 580 
Q 1338 1288 1338 2009 
Q 1338 2731 1133 3434 
Q 928 4138 513 4856 
z
" id="DejaVuSans-29" transform="scale(0.015625)"/>
      </defs>
      <use xlink:href="#DejaVuSans-54"/>
      <use x="57.958984" xlink:href="#DejaVuSans-69"/>
      <use x="85.742188" xlink:href="#DejaVuSans-6d"/>
      <use x="183.154297" xlink:href="#DejaVuSans-65"/>
      <use x="244.677734" xlink:href="#DejaVuSans-20"/>
      <use x="276.464844" xlink:href="#DejaVuSans-28"/>
      <use x="315.478516" xlink:href="#DejaVuSans-68"/>
      <use x="378.857422" xlink:href="#DejaVuSans-6f"/>
      <use x="440.039062" xlink:href="#DejaVuSans-75"/>
      <use x="503.417969" xlink:href="#DejaVuSans-72"/>
      <use x="542.78125" xlink:href="#DejaVuSans-3a"/>
      <use x="576.472656" xlink:href="#DejaVuSans-6d"/>
      <use x="673.884766" xlink:href="#DejaVuSans-69"/>
      <use x="701.667969" xlink:href="#DejaVuSans-6e"/>
      <use x="765.046875" xlink:href="#DejaVuSans-75"/>
      <use x="828.425781" xlink:href="#DejaVuSans-74"/>
      <use x="867.634766" xlink:href="#DejaVuSans-65"/>
      <use x="929.158203" xlink:href="#DejaVuSans-29"/>
     </g>
    </g>
   </g>
   <g id="matplotlib.axis_2">
    <g id="ytick_1">
     <g id="line2d_7">
      <defs>
       <path d="M 0 0 
L -3.5 0 
" id="md562956424" style="stroke:#000000;stroke-width:0.8;"/>
      </defs>
      <g>
       <use style="stroke:#000000;stroke-width:0.8;" x="59.690625" xlink:href="#md562956424" y="261.900691"/>
      </g>
     </g>
     <g id="text_8">
      <!-- 10500 -->
      <g transform="translate(20.878125 265.69991)scale(0.1 -0.1)">
       <defs>
        <path d="M 2034 4250 
Q 1547 4250 1301 3770 
Q 1056 3291 1056 2328 
Q 1056 1369 1301 889 
Q 1547 409 2034 409 
Q 2525 409 2770 889 
Q 3016 1369 3016 2328 
Q 3016 3291 2770 3770 
Q 2525 4250 2034 4250 
z
M 2034 4750 
Q 2819 4750 3233 4129 
Q 3647 3509 3647 2328 
Q 3647 1150 3233 529 
Q 2819 -91 2034 -91 
Q 1250 -91 836 529 
Q 422 1150 422 2328 
Q 422 3509 836 4129 
Q 1250 4750 2034 4750 
z
" id="DejaVuSans-30" transform="scale(0.015625)"/>
       </defs>
       <use xlink:href="#DejaVuSans-31"/>
       <use x="63.623047" xlink:href="#DejaVuSans-30"/>
       <use x="127.246094" xlink:href="#DejaVuSans-35"/>
       <use x="190.869141" xlink:href="#DejaVuSans-30"/>
       <use x="254.492188" xlink:href="#DejaVuSans-30"/>
      </g>
     </g>
    </g>
    <g id="ytick_2">
     <g id="line2d_8">
      <g>
       <use style="stroke:#000000;stroke-width:0.8;" x="59.690625" xlink:href="#md562956424" y="226.35036"/>
      </g>
     </g>
     <g id="text_9">
      <!-- 11000 -->
      <g transform="translate(20.878125 230.149579)scale(0.1 -0.1)">
       <use xlink:href="#DejaVuSans-31"/>
       <use x="63.623047" xlink:href="#DejaVuSans-31"/>
       <use x="127.246094" xlink:href="#DejaVuSans-30"/>
       <use x="190.869141" xlink:href="#DejaVuSans-30"/>
       <use x="254.492188" xlink:href="#DejaVuSans-30"/>
      </g>
     </g>
    </g>
    <g id="ytick_3">
     <g id="line2d_9">
      <g>
       <use style="stroke:#000000;stroke-width:0.8;" x="59.690625" xlink:href="#md562956424" y="190.800029"/>
      </g>
     </g>
     <g id="text_10">
      <!-- 11500 -->
      <g transform="translate(20.878125 194.599248)scale(0.1 -0.1)">
       <use xlink:href="#DejaVuSans-31"/>
       <use x="63.623047" xlink:href="#DejaVuSans-31"/>
       <use x="127.246094" xlink:href="#DejaVuSans-35"/>
       <use x="190.869141" xlink:href="#DejaVuSans-30"/>
       <use x="254.492188" xlink:href="#DejaVuSans-30"/>
      </g>
     </g>
    </g>
    <g id="ytick_4">
     <g id="line2d_10">
      <g>
       <use style="stroke:#000000;stroke-width:0.8;" x="59.690625" xlink:href="#md562956424" y="155.249699"/>
      </g>
     </g>
     <g id="text_11">
      <!-- 12000 -->
      <g transform="translate(20.878125 159.048918)scale(0.1 -0.1)">
       <use xlink:href="#DejaVuSans-31"/>
       <use x="63.623047" xlink:href="#DejaVuSans-32"/>
       <use x="127.246094" xlink:href="#DejaVuSans-30"/>
       <use x="190.869141" xlink:href="#DejaVuSans-30"/>
       <use x="254.492188" xlink:href="#DejaVuSans-30"/>
      </g>
     </g>
    </g>
    <g id="ytick_5">
     <g id="line2d_11">
      <g>
       <use style="stroke:#000000;stroke-width:0.8;" x="59.690625" xlink:href="#md562956424" y="119.699368"/>
      </g>
     </g>
     <g id="text_12">
      <!-- 12500 -->
      <g transform="translate(20.878125 123.498587)scale(0.1 -0.1)">
       <use xlink:href="#DejaVuSans-31"/>
       <use x="63.623047" xlink:href="#DejaVuSans-32"/>
       <use x="127.246094" xlink:href="#DejaVuSans-35"/>
       <use x="190.869141" xlink:href="#DejaVuSans-30"/>
       <use x="254.492188" xlink:href="#DejaVuSans-30"/>
      </g>
     </g>
    </g>
    <g id="ytick_6">
     <g id="line2d_12">
      <g>
       <use style="stroke:#000000;stroke-width:0.8;" x="59.690625" xlink:href="#md562956424" y="84.149038"/>
      </g>
     </g>
     <g id="text_13">
      <!-- 13000 -->
      <g transform="translate(20.878125 87.948256)scale(0.1 -0.1)">
       <use xlink:href="#DejaVuSans-31"/>
       <use x="63.623047" xlink:href="#DejaVuSans-33"/>
       <use x="127.246094" xlink:href="#DejaVuSans-30"/>
       <use x="190.869141" xlink:href="#DejaVuSans-30"/>
       <use x="254.492188" xlink:href="#DejaVuSans-30"/>
      </g>
     </g>
    </g>
    <g id="ytick_7">
     <g id="line2d_13">
      <g>
       <use style="stroke:#000000;stroke-width:0.8;" x="59.690625" xlink:href="#md562956424" y="48.598707"/>
      </g>
     </g>
     <g id="text_14">
      <!-- 13500 -->
      <g transform="translate(20.878125 52.397926)scale(0.1 -0.1)">
       <use xlink:href="#DejaVuSans-31"/>
       <use x="63.623047" xlink:href="#DejaVuSans-33"/>
       <use x="127.246094" xlink:href="#DejaVuSans-35"/>
       <use x="190.869141" xlink:href="#DejaVuSans-30"/>
       <use x="254.492188" xlink:href="#DejaVuSans-30"/>
      </g>
     </g>
    </g>
    <g id="text_15">
     <!-- Code region coverage -->
     <g transform="translate(14.798438 210.379594)rotate(-90)scale(0.1 -0.1)">
      <defs>
       <path d="M 4122 4306 
L 4122 3641 
Q 3803 3938 3442 4084 
Q 3081 4231 2675 4231 
Q 1875 4231 1450 3742 
Q 1025 3253 1025 2328 
Q 1025 1406 1450 917 
Q 1875 428 2675 428 
Q 3081 428 3442 575 
Q 3803 722 4122 1019 
L 4122 359 
Q 3791 134 3420 21 
Q 3050 -91 2638 -91 
Q 1578 -91 968 557 
Q 359 1206 359 2328 
Q 359 3453 968 4101 
Q 1578 4750 2638 4750 
Q 3056 4750 3426 4639 
Q 3797 4528 4122 4306 
z
" id="DejaVuSans-43" transform="scale(0.015625)"/>
       <path d="M 2906 2969 
L 2906 4863 
L 3481 4863 
L 3481 0 
L 2906 0 
L 2906 525 
Q 2725 213 2448 61 
Q 2172 -91 1784 -91 
Q 1150 -91 751 415 
Q 353 922 353 1747 
Q 353 2572 751 3078 
Q 1150 3584 1784 3584 
Q 2172 3584 2448 3432 
Q 2725 3281 2906 2969 
z
M 947 1747 
Q 947 1113 1208 752 
Q 1469 391 1925 391 
Q 2381 391 2643 752 
Q 2906 1113 2906 1747 
Q 2906 2381 2643 2742 
Q 2381 3103 1925 3103 
Q 1469 3103 1208 2742 
Q 947 2381 947 1747 
z
" id="DejaVuSans-64" transform="scale(0.015625)"/>
       <path d="M 2906 1791 
Q 2906 2416 2648 2759 
Q 2391 3103 1925 3103 
Q 1463 3103 1205 2759 
Q 947 2416 947 1791 
Q 947 1169 1205 825 
Q 1463 481 1925 481 
Q 2391 481 2648 825 
Q 2906 1169 2906 1791 
z
M 3481 434 
Q 3481 -459 3084 -895 
Q 2688 -1331 1869 -1331 
Q 1566 -1331 1297 -1286 
Q 1028 -1241 775 -1147 
L 775 -588 
Q 1028 -725 1275 -790 
Q 1522 -856 1778 -856 
Q 2344 -856 2625 -561 
Q 2906 -266 2906 331 
L 2906 616 
Q 2728 306 2450 153 
Q 2172 0 1784 0 
Q 1141 0 747 490 
Q 353 981 353 1791 
Q 353 2603 747 3093 
Q 1141 3584 1784 3584 
Q 2172 3584 2450 3431 
Q 2728 3278 2906 2969 
L 2906 3500 
L 3481 3500 
L 3481 434 
z
" id="DejaVuSans-67" transform="scale(0.015625)"/>
       <path d="M 3122 3366 
L 3122 2828 
Q 2878 2963 2633 3030 
Q 2388 3097 2138 3097 
Q 1578 3097 1268 2742 
Q 959 2388 959 1747 
Q 959 1106 1268 751 
Q 1578 397 2138 397 
Q 2388 397 2633 464 
Q 2878 531 3122 666 
L 3122 134 
Q 2881 22 2623 -34 
Q 2366 -91 2075 -91 
Q 1284 -91 818 406 
Q 353 903 353 1747 
Q 353 2603 823 3093 
Q 1294 3584 2113 3584 
Q 2378 3584 2631 3529 
Q 2884 3475 3122 3366 
z
" id="DejaVuSans-63" transform="scale(0.015625)"/>
       <path d="M 191 3500 
L 800 3500 
L 1894 563 
L 2988 3500 
L 3597 3500 
L 2284 0 
L 1503 0 
L 191 3500 
z
" id="DejaVuSans-76" transform="scale(0.015625)"/>
       <path d="M 2194 1759 
Q 1497 1759 1228 1600 
Q 959 1441 959 1056 
Q 959 750 1161 570 
Q 1363 391 1709 391 
Q 2188 391 2477 730 
Q 2766 1069 2766 1631 
L 2766 1759 
L 2194 1759 
z
M 3341 1997 
L 3341 0 
L 2766 0 
L 2766 531 
Q 2569 213 2275 61 
Q 1981 -91 1556 -91 
Q 1019 -91 701 211 
Q 384 513 384 1019 
Q 384 1609 779 1909 
Q 1175 2209 1959 2209 
L 2766 2209 
L 2766 2266 
Q 2766 2663 2505 2880 
Q 2244 3097 1772 3097 
Q 1472 3097 1187 3025 
Q 903 2953 641 2809 
L 641 3341 
Q 956 3463 1253 3523 
Q 1550 3584 1831 3584 
Q 2591 3584 2966 3190 
Q 3341 2797 3341 1997 
z
" id="DejaVuSans-61" transform="scale(0.015625)"/>
      </defs>
      <use xlink:href="#DejaVuSans-43"/>
      <use x="69.824219" xlink:href="#DejaVuSans-6f"/>
      <use x="131.005859" xlink:href="#DejaVuSans-64"/>
      <use x="194.482422" xlink:href="#DejaVuSans-65"/>
      <use x="256.005859" xlink:href="#DejaVuSans-20"/>
      <use x="287.792969" xlink:href="#DejaVuSans-72"/>
      <use x="326.65625" xlink:href="#DejaVuSans-65"/>
      <use x="388.179688" xlink:href="#DejaVuSans-67"/>
      <use x="451.65625" xlink:href="#DejaVuSans-69"/>
      <use x="479.439453" xlink:href="#DejaVuSans-6f"/>
      <use x="540.621094" xlink:href="#DejaVuSans-6e"/>
      <use x="604" xlink:href="#DejaVuSans-20"/>
      <use x="635.787109" xlink:href="#DejaVuSans-63"/>
      <use x="690.767578" xlink:href="#DejaVuSans-6f"/>
      <use x="751.949219" xlink:href="#DejaVuSans-76"/>
      <use x="811.128906" xlink:href="#DejaVuSans-65"/>
      <use x="872.652344" xlink:href="#DejaVuSans-72"/>
      <use x="913.765625" xlink:href="#DejaVuSans-61"/>
      <use x="975.044922" xlink:href="#DejaVuSans-67"/>
      <use x="1038.521484" xlink:href="#DejaVuSans-65"/>
     </g>
    </g>
   </g>
   <g id="line2d_14">
    <path clip-path="url(#p0239efc53b)" d="M 75.923352 125.600723 
L 79.490985 98.582472 
L 83.058617 85.428849 
L 86.626249 84.575642 
L 90.193882 83.935736 
L 93.761514 87.739621 
L 97.329146 81.944917 
L 100.896779 79.136441 
L 104.464411 75.297005 
L 108.032044 75.190354 
L 111.599676 74.69265 
L 115.167308 68.791295 
L 118.734941 67.618134 
L 122.302573 66.16057 
L 125.870205 65.307362 
L 129.437838 63.743148 
L 133.00547 63.743148 
L 136.573103 64.845208 
L 140.140735 64.845208 
L 143.708367 61.574578 
L 147.276 61.574578 
L 150.843632 61.539027 
L 154.411264 61.503477 
L 157.978897 61.254625 
L 161.546529 59.121605 
L 165.114161 57.699592 
L 168.681794 57.699592 
L 172.249426 57.699592 
L 175.817059 59.72596 
L 179.384691 59.72596 
L 182.952323 57.664041 
L 186.519956 57.664041 
L 190.087588 56.526431 
L 193.65522 56.526431 
L 197.222853 55.495471 
L 200.790485 54.748914 
L 204.358118 54.748914 
L 207.92575 54.748914 
L 211.493382 54.748914 
L 215.061015 54.571162 
L 218.628647 54.393411 
L 222.196279 54.393411 
L 225.763912 53.789055 
L 229.331544 53.789055 
L 232.899176 53.789055 
L 236.466809 53.789055 
L 240.034441 54.393411 
L 243.602074 54.215659 
L 247.169706 53.895706 
L 250.737338 53.895706 
L 254.304971 53.895706 
L 257.872603 53.860156 
L 261.440235 52.864747 
L 265.007868 52.864747 
L 268.5755 52.864747 
L 272.143132 51.762686 
L 275.710765 49.98517 
L 279.278397 49.98517 
L 282.84603 49.98517 
L 286.413662 49.98517 
L 289.981294 49.98517 
L 293.548927 49.98517 
L 297.116559 49.98517 
L 300.684191 49.949619 
L 304.251824 49.949619 
L 307.819456 49.949619 
L 311.387089 49.949619 
L 314.954721 49.949619 
L 318.522353 49.949619 
L 322.089986 49.416365 
L 325.657618 49.167512 
L 329.22525 48.420955 
L 332.792883 48.420955 
L 336.360515 48.420955 
L 339.928147 48.278754 
L 343.49578 48.278754 
L 347.063412 48.278754 
L 350.631045 48.278754 
L 354.198677 47.425546 
L 357.766309 47.425546 
L 361.333942 47.425546 
L 364.901574 47.425546 
L 368.469206 47.425546 
L 372.036839 47.425546 
L 375.604471 47.425546 
L 379.172104 47.425546 
L 382.739736 47.389996 
L 386.307368 47.389996 
L 389.875001 47.389996 
L 393.442633 47.389996 
L 397.010265 47.389996 
L 400.577898 47.247794 
" style="fill:none;stroke:#1f77b4;stroke-linecap:square;stroke-width:1.5;"/>
    <defs>
     <path d="M 0 3 
C 0.795609 3 1.55874 2.683901 2.12132 2.12132 
C 2.683901 1.55874 3 0.795609 3 0 
C 3 -0.795609 2.683901 -1.55874 2.12132 -2.12132 
C 1.55874 -2.683901 0.795609 -3 0 -3 
C -0.795609 -3 -1.55874 -2.683901 -2.12132 -2.12132 
C -2.683901 -1.55874 -3 -0.795609 -3 0 
C -3 0.795609 -2.683901 1.55874 -2.12132 2.12132 
C -1.55874 2.683901 -0.795609 3 0 3 
z
" id="mb70f24defc" style="stroke:#ffffff;stroke-width:0.75;"/>
    </defs>
    <g clip-path="url(#p0239efc53b)">
     <use style="fill:#1f77b4;stroke:#ffffff;stroke-width:0.75;" x="75.923352" xlink:href="#mb70f24defc" y="125.600723"/>
     <use style="fill:#1f77b4;stroke:#ffffff;stroke-width:0.75;" x="79.490985" xlink:href="#mb70f24defc" y="98.582472"/>
     <use style="fill:#1f77b4;stroke:#ffffff;stroke-width:0.75;" x="83.058617" xlink:href="#mb70f24defc" y="85.428849"/>
     <use style="fill:#1f77b4;stroke:#ffffff;stroke-width:0.75;" x="86.626249" xlink:href="#mb70f24defc" y="84.575642"/>
     <use style="fill:#1f77b4;stroke:#ffffff;stroke-width:0.75;" x="90.193882" xlink:href="#mb70f24defc" y="83.935736"/>
     <use style="fill:#1f77b4;stroke:#ffffff;stroke-width:0.75;" x="93.761514" xlink:href="#mb70f24defc" y="87.739621"/>
     <use style="fill:#1f77b4;stroke:#ffffff;stroke-width:0.75;" x="97.329146" xlink:href="#mb70f24defc" y="81.944917"/>
     <use style="fill:#1f77b4;stroke:#ffffff;stroke-width:0.75;" x="100.896779" xlink:href="#mb70f24defc" y="79.136441"/>
     <use style="fill:#1f77b4;stroke:#ffffff;stroke-width:0.75;" x="104.464411" xlink:href="#mb70f24defc" y="75.297005"/>
     <use style="fill:#1f77b4;stroke:#ffffff;stroke-width:0.75;" x="108.032044" xlink:href="#mb70f24defc" y="75.190354"/>
     <use style="fill:#1f77b4;stroke:#ffffff;stroke-width:0.75;" x="111.599676" xlink:href="#mb70f24defc" y="74.69265"/>
     <use style="fill:#1f77b4;stroke:#ffffff;stroke-width:0.75;" x="115.167308" xlink:href="#mb70f24defc" y="68.791295"/>
     <use style="fill:#1f77b4;stroke:#ffffff;stroke-width:0.75;" x="118.734941" xlink:href="#mb70f24defc" y="67.618134"/>
     <use style="fill:#1f77b4;stroke:#ffffff;stroke-width:0.75;" x="122.302573" xlink:href="#mb70f24defc" y="66.16057"/>
     <use style="fill:#1f77b4;stroke:#ffffff;stroke-width:0.75;" x="125.870205" xlink:href="#mb70f24defc" y="65.307362"/>
     <use style="fill:#1f77b4;stroke:#ffffff;stroke-width:0.75;" x="129.437838" xlink:href="#mb70f24defc" y="63.743148"/>
     <use style="fill:#1f77b4;stroke:#ffffff;stroke-width:0.75;" x="133.00547" xlink:href="#mb70f24defc" y="63.743148"/>
     <use style="fill:#1f77b4;stroke:#ffffff;stroke-width:0.75;" x="136.573103" xlink:href="#mb70f24defc" y="64.845208"/>
     <use style="fill:#1f77b4;stroke:#ffffff;stroke-width:0.75;" x="140.140735" xlink:href="#mb70f24defc" y="64.845208"/>
     <use style="fill:#1f77b4;stroke:#ffffff;stroke-width:0.75;" x="143.708367" xlink:href="#mb70f24defc" y="61.574578"/>
     <use style="fill:#1f77b4;stroke:#ffffff;stroke-width:0.75;" x="147.276" xlink:href="#mb70f24defc" y="61.574578"/>
     <use style="fill:#1f77b4;stroke:#ffffff;stroke-width:0.75;" x="150.843632" xlink:href="#mb70f24defc" y="61.539027"/>
     <use style="fill:#1f77b4;stroke:#ffffff;stroke-width:0.75;" x="154.411264" xlink:href="#mb70f24defc" y="61.503477"/>
     <use style="fill:#1f77b4;stroke:#ffffff;stroke-width:0.75;" x="157.978897" xlink:href="#mb70f24defc" y="61.254625"/>
     <use style="fill:#1f77b4;stroke:#ffffff;stroke-width:0.75;" x="161.546529" xlink:href="#mb70f24defc" y="59.121605"/>
     <use style="fill:#1f77b4;stroke:#ffffff;stroke-width:0.75;" x="165.114161" xlink:href="#mb70f24defc" y="57.699592"/>
     <use style="fill:#1f77b4;stroke:#ffffff;stroke-width:0.75;" x="168.681794" xlink:href="#mb70f24defc" y="57.699592"/>
     <use style="fill:#1f77b4;stroke:#ffffff;stroke-width:0.75;" x="172.249426" xlink:href="#mb70f24defc" y="57.699592"/>
     <use style="fill:#1f77b4;stroke:#ffffff;stroke-width:0.75;" x="175.817059" xlink:href="#mb70f24defc" y="59.72596"/>
     <use style="fill:#1f77b4;stroke:#ffffff;stroke-width:0.75;" x="179.384691" xlink:href="#mb70f24defc" y="59.72596"/>
     <use style="fill:#1f77b4;stroke:#ffffff;stroke-width:0.75;" x="182.952323" xlink:href="#mb70f24defc" y="57.664041"/>
     <use style="fill:#1f77b4;stroke:#ffffff;stroke-width:0.75;" x="186.519956" xlink:href="#mb70f24defc" y="57.664041"/>
     <use style="fill:#1f77b4;stroke:#ffffff;stroke-width:0.75;" x="190.087588" xlink:href="#mb70f24defc" y="56.526431"/>
     <use style="fill:#1f77b4;stroke:#ffffff;stroke-width:0.75;" x="193.65522" xlink:href="#mb70f24defc" y="56.526431"/>
     <use style="fill:#1f77b4;stroke:#ffffff;stroke-width:0.75;" x="197.222853" xlink:href="#mb70f24defc" y="55.495471"/>
     <use style="fill:#1f77b4;stroke:#ffffff;stroke-width:0.75;" x="200.790485" xlink:href="#mb70f24defc" y="54.748914"/>
     <use style="fill:#1f77b4;stroke:#ffffff;stroke-width:0.75;" x="204.358118" xlink:href="#mb70f24defc" y="54.748914"/>
     <use style="fill:#1f77b4;stroke:#ffffff;stroke-width:0.75;" x="207.92575" xlink:href="#mb70f24defc" y="54.748914"/>
     <use style="fill:#1f77b4;stroke:#ffffff;stroke-width:0.75;" x="211.493382" xlink:href="#mb70f24defc" y="54.748914"/>
     <use style="fill:#1f77b4;stroke:#ffffff;stroke-width:0.75;" x="215.061015" xlink:href="#mb70f24defc" y="54.571162"/>
     <use style="fill:#1f77b4;stroke:#ffffff;stroke-width:0.75;" x="218.628647" xlink:href="#mb70f24defc" y="54.393411"/>
     <use style="fill:#1f77b4;stroke:#ffffff;stroke-width:0.75;" x="222.196279" xlink:href="#mb70f24defc" y="54.393411"/>
     <use style="fill:#1f77b4;stroke:#ffffff;stroke-width:0.75;" x="225.763912" xlink:href="#mb70f24defc" y="53.789055"/>
     <use style="fill:#1f77b4;stroke:#ffffff;stroke-width:0.75;" x="229.331544" xlink:href="#mb70f24defc" y="53.789055"/>
     <use style="fill:#1f77b4;stroke:#ffffff;stroke-width:0.75;" x="232.899176" xlink:href="#mb70f24defc" y="53.789055"/>
     <use style="fill:#1f77b4;stroke:#ffffff;stroke-width:0.75;" x="236.466809" xlink:href="#mb70f24defc" y="53.789055"/>
     <use style="fill:#1f77b4;stroke:#ffffff;stroke-width:0.75;" x="240.034441" xlink:href="#mb70f24defc" y="54.393411"/>
     <use style="fill:#1f77b4;stroke:#ffffff;stroke-width:0.75;" x="243.602074" xlink:href="#mb70f24defc" y="54.215659"/>
     <use style="fill:#1f77b4;stroke:#ffffff;stroke-width:0.75;" x="247.169706" xlink:href="#mb70f24defc" y="53.895706"/>
     <use style="fill:#1f77b4;stroke:#ffffff;stroke-width:0.75;" x="250.737338" xlink:href="#mb70f24defc" y="53.895706"/>
     <use style="fill:#1f77b4;stroke:#ffffff;stroke-width:0.75;" x="254.304971" xlink:href="#mb70f24defc" y="53.895706"/>
     <use style="fill:#1f77b4;stroke:#ffffff;stroke-width:0.75;" x="257.872603" xlink:href="#mb70f24defc" y="53.860156"/>
     <use style="fill:#1f77b4;stroke:#ffffff;stroke-width:0.75;" x="261.440235" xlink:href="#mb70f24defc" y="52.864747"/>
     <use style="fill:#1f77b4;stroke:#ffffff;stroke-width:0.75;" x="265.007868" xlink:href="#mb70f24defc" y="52.864747"/>
     <use style="fill:#1f77b4;stroke:#ffffff;stroke-width:0.75;" x="268.5755" xlink:href="#mb70f24defc" y="52.864747"/>
     <use style="fill:#1f77b4;stroke:#ffffff;stroke-width:0.75;" x="272.143132" xlink:href="#mb70f24defc" y="51.762686"/>
     <use style="fill:#1f77b4;stroke:#ffffff;stroke-width:0.75;" x="275.710765" xlink:href="#mb70f24defc" y="49.98517"/>
     <use style="fill:#1f77b4;stroke:#ffffff;stroke-width:0.75;" x="279.278397" xlink:href="#mb70f24defc" y="49.98517"/>
     <use style="fill:#1f77b4;stroke:#ffffff;stroke-width:0.75;" x="282.84603" xlink:href="#mb70f24defc" y="49.98517"/>
     <use style="fill:#1f77b4;stroke:#ffffff;stroke-width:0.75;" x="286.413662" xlink:href="#mb70f24defc" y="49.98517"/>
     <use style="fill:#1f77b4;stroke:#ffffff;stroke-width:0.75;" x="289.981294" xlink:href="#mb70f24defc" y="49.98517"/>
     <use style="fill:#1f77b4;stroke:#ffffff;stroke-width:0.75;" x="293.548927" xlink:href="#mb70f24defc" y="49.98517"/>
     <use style="fill:#1f77b4;stroke:#ffffff;stroke-width:0.75;" x="297.116559" xlink:href="#mb70f24defc" y="49.98517"/>
     <use style="fill:#1f77b4;stroke:#ffffff;stroke-width:0.75;" x="300.684191" xlink:href="#mb70f24defc" y="49.949619"/>
     <use style="fill:#1f77b4;stroke:#ffffff;stroke-width:0.75;" x="304.251824" xlink:href="#mb70f24defc" y="49.949619"/>
     <use style="fill:#1f77b4;stroke:#ffffff;stroke-width:0.75;" x="307.819456" xlink:href="#mb70f24defc" y="49.949619"/>
     <use style="fill:#1f77b4;stroke:#ffffff;stroke-width:0.75;" x="311.387089" xlink:href="#mb70f24defc" y="49.949619"/>
     <use style="fill:#1f77b4;stroke:#ffffff;stroke-width:0.75;" x="314.954721" xlink:href="#mb70f24defc" y="49.949619"/>
     <use style="fill:#1f77b4;stroke:#ffffff;stroke-width:0.75;" x="318.522353" xlink:href="#mb70f24defc" y="49.949619"/>
     <use style="fill:#1f77b4;stroke:#ffffff;stroke-width:0.75;" x="322.089986" xlink:href="#mb70f24defc" y="49.416365"/>
     <use style="fill:#1f77b4;stroke:#ffffff;stroke-width:0.75;" x="325.657618" xlink:href="#mb70f24defc" y="49.167512"/>
     <use style="fill:#1f77b4;stroke:#ffffff;stroke-width:0.75;" x="329.22525" xlink:href="#mb70f24defc" y="48.420955"/>
     <use style="fill:#1f77b4;stroke:#ffffff;stroke-width:0.75;" x="332.792883" xlink:href="#mb70f24defc" y="48.420955"/>
     <use style="fill:#1f77b4;stroke:#ffffff;stroke-width:0.75;" x="336.360515" xlink:href="#mb70f24defc" y="48.420955"/>
     <use style="fill:#1f77b4;stroke:#ffffff;stroke-width:0.75;" x="339.928147" xlink:href="#mb70f24defc" y="48.278754"/>
     <use style="fill:#1f77b4;stroke:#ffffff;stroke-width:0.75;" x="343.49578" xlink:href="#mb70f24defc" y="48.278754"/>
     <use style="fill:#1f77b4;stroke:#ffffff;stroke-width:0.75;" x="347.063412" xlink:href="#mb70f24defc" y="48.278754"/>
     <use style="fill:#1f77b4;stroke:#ffffff;stroke-width:0.75;" x="350.631045" xlink:href="#mb70f24defc" y="48.278754"/>
     <use style="fill:#1f77b4;stroke:#ffffff;stroke-width:0.75;" x="354.198677" xlink:href="#mb70f24defc" y="47.425546"/>
     <use style="fill:#1f77b4;stroke:#ffffff;stroke-width:0.75;" x="357.766309" xlink:href="#mb70f24defc" y="47.425546"/>
     <use style="fill:#1f77b4;stroke:#ffffff;stroke-width:0.75;" x="361.333942" xlink:href="#mb70f24defc" y="47.425546"/>
     <use style="fill:#1f77b4;stroke:#ffffff;stroke-width:0.75;" x="364.901574" xlink:href="#mb70f24defc" y="47.425546"/>
     <use style="fill:#1f77b4;stroke:#ffffff;stroke-width:0.75;" x="368.469206" xlink:href="#mb70f24defc" y="47.425546"/>
     <use style="fill:#1f77b4;stroke:#ffffff;stroke-width:0.75;" x="372.036839" xlink:href="#mb70f24defc" y="47.425546"/>
     <use style="fill:#1f77b4;stroke:#ffffff;stroke-width:0.75;" x="375.604471" xlink:href="#mb70f24defc" y="47.425546"/>
     <use style="fill:#1f77b4;stroke:#ffffff;stroke-width:0.75;" x="379.172104" xlink:href="#mb70f24defc" y="47.425546"/>
     <use style="fill:#1f77b4;stroke:#ffffff;stroke-width:0.75;" x="382.739736" xlink:href="#mb70f24defc" y="47.389996"/>
     <use style="fill:#1f77b4;stroke:#ffffff;stroke-width:0.75;" x="386.307368" xlink:href="#mb70f24defc" y="47.389996"/>
     <use style="fill:#1f77b4;stroke:#ffffff;stroke-width:0.75;" x="389.875001" xlink:href="#mb70f24defc" y="47.389996"/>
     <use style="fill:#1f77b4;stroke:#ffffff;stroke-width:0.75;" x="393.442633" xlink:href="#mb70f24defc" y="47.389996"/>
     <use style="fill:#1f77b4;stroke:#ffffff;stroke-width:0.75;" x="397.010265" xlink:href="#mb70f24defc" y="47.389996"/>
     <use style="fill:#1f77b4;stroke:#ffffff;stroke-width:0.75;" x="400.577898" xlink:href="#mb70f24defc" y="47.247794"/>
    </g>
   </g>
   <g id="line2d_15">
    <path clip-path="url(#p0239efc53b)" d="M 75.923352 119.983771 
L 79.490985 94.10313 
L 83.058617 84.36234 
L 86.626249 83.011427 
L 90.193882 78.034381 
L 93.761514 77.181173 
L 97.329146 73.341737 
L 100.896779 73.199536 
L 104.464411 71.350919 
L 108.032044 71.208717 
L 111.599676 70.568811 
L 115.167308 70.284409 
L 118.734941 70.142207 
L 122.302573 69.502301 
L 125.870205 69.502301 
L 129.437838 67.653684 
L 133.00547 67.582583 
L 136.573103 67.511483 
L 140.140735 66.16057 
L 143.708367 66.08947 
L 147.276 66.053919 
L 150.843632 65.947268 
L 154.411264 64.951859 
L 157.978897 64.951859 
L 161.546529 64.951859 
L 165.114161 64.880758 
L 168.681794 64.880758 
L 172.249426 64.880758 
L 175.817059 63.245443 
L 179.384691 62.605537 
L 182.952323 62.605537 
L 186.519956 62.463336 
L 190.087588 58.481699 
L 193.65522 58.481699 
L 197.222853 58.481699 
L 200.790485 58.481699 
L 204.358118 57.628491 
L 207.92575 57.344088 
L 211.493382 57.344088 
L 215.061015 57.344088 
L 218.628647 57.344088 
L 222.196279 57.344088 
L 225.763912 57.344088 
L 229.331544 57.344088 
L 232.899176 57.344088 
L 236.466809 57.344088 
L 240.034441 57.344088 
L 243.602074 56.49088 
L 247.169706 56.49088 
L 250.737338 56.348679 
L 254.304971 56.348679 
L 257.872603 56.348679 
L 261.440235 56.135377 
L 265.007868 56.135377 
L 268.5755 55.922075 
L 272.143132 55.922075 
L 275.710765 55.922075 
L 279.278397 55.922075 
L 282.84603 55.850974 
L 286.413662 55.850974 
L 289.981294 55.850974 
L 293.548927 55.850974 
L 297.116559 55.850974 
L 300.684191 55.850974 
L 304.251824 55.850974 
L 307.819456 55.850974 
L 311.387089 55.850974 
L 314.954721 55.42437 
L 318.522353 55.42437 
L 322.089986 55.42437 
L 325.657618 55.42437 
L 329.22525 55.42437 
L 332.792883 55.42437 
L 336.360515 55.42437 
L 339.928147 55.42437 
L 343.49578 55.42437 
L 347.063412 55.42437 
L 350.631045 55.35327 
L 354.198677 55.35327 
L 357.766309 55.35327 
L 361.333942 55.35327 
L 364.901574 55.35327 
L 368.469206 55.35327 
L 372.036839 55.35327 
L 375.604471 54.997766 
L 379.172104 54.997766 
L 382.739736 54.997766 
L 386.307368 53.931257 
L 389.875001 53.931257 
L 393.442633 53.931257 
L 397.010265 53.789055 
L 400.577898 53.860156 
" style="fill:none;stroke:#d62728;stroke-linecap:square;stroke-width:1.5;"/>
    <defs>
     <path d="M 0 -3 
L -3 3 
L 3 3 
z
" id="mf568577ec6" style="stroke:#ffffff;stroke-linejoin:miter;stroke-width:0.75;"/>
    </defs>
    <g clip-path="url(#p0239efc53b)">
     <use style="fill:#d62728;stroke:#ffffff;stroke-linejoin:miter;stroke-width:0.75;" x="75.923352" xlink:href="#mf568577ec6" y="119.983771"/>
     <use style="fill:#d62728;stroke:#ffffff;stroke-linejoin:miter;stroke-width:0.75;" x="79.490985" xlink:href="#mf568577ec6" y="94.10313"/>
     <use style="fill:#d62728;stroke:#ffffff;stroke-linejoin:miter;stroke-width:0.75;" x="83.058617" xlink:href="#mf568577ec6" y="84.36234"/>
     <use style="fill:#d62728;stroke:#ffffff;stroke-linejoin:miter;stroke-width:0.75;" x="86.626249" xlink:href="#mf568577ec6" y="83.011427"/>
     <use style="fill:#d62728;stroke:#ffffff;stroke-linejoin:miter;stroke-width:0.75;" x="90.193882" xlink:href="#mf568577ec6" y="78.034381"/>
     <use style="fill:#d62728;stroke:#ffffff;stroke-linejoin:miter;stroke-width:0.75;" x="93.761514" xlink:href="#mf568577ec6" y="77.181173"/>
     <use style="fill:#d62728;stroke:#ffffff;stroke-linejoin:miter;stroke-width:0.75;" x="97.329146" xlink:href="#mf568577ec6" y="73.341737"/>
     <use style="fill:#d62728;stroke:#ffffff;stroke-linejoin:miter;stroke-width:0.75;" x="100.896779" xlink:href="#mf568577ec6" y="73.199536"/>
     <use style="fill:#d62728;stroke:#ffffff;stroke-linejoin:miter;stroke-width:0.75;" x="104.464411" xlink:href="#mf568577ec6" y="71.350919"/>
     <use style="fill:#d62728;stroke:#ffffff;stroke-linejoin:miter;stroke-width:0.75;" x="108.032044" xlink:href="#mf568577ec6" y="71.208717"/>
     <use style="fill:#d62728;stroke:#ffffff;stroke-linejoin:miter;stroke-width:0.75;" x="111.599676" xlink:href="#mf568577ec6" y="70.568811"/>
     <use style="fill:#d62728;stroke:#ffffff;stroke-linejoin:miter;stroke-width:0.75;" x="115.167308" xlink:href="#mf568577ec6" y="70.284409"/>
     <use style="fill:#d62728;stroke:#ffffff;stroke-linejoin:miter;stroke-width:0.75;" x="118.734941" xlink:href="#mf568577ec6" y="70.142207"/>
     <use style="fill:#d62728;stroke:#ffffff;stroke-linejoin:miter;stroke-width:0.75;" x="122.302573" xlink:href="#mf568577ec6" y="69.502301"/>
     <use style="fill:#d62728;stroke:#ffffff;stroke-linejoin:miter;stroke-width:0.75;" x="125.870205" xlink:href="#mf568577ec6" y="69.502301"/>
     <use style="fill:#d62728;stroke:#ffffff;stroke-linejoin:miter;stroke-width:0.75;" x="129.437838" xlink:href="#mf568577ec6" y="67.653684"/>
     <use style="fill:#d62728;stroke:#ffffff;stroke-linejoin:miter;stroke-width:0.75;" x="133.00547" xlink:href="#mf568577ec6" y="67.582583"/>
     <use style="fill:#d62728;stroke:#ffffff;stroke-linejoin:miter;stroke-width:0.75;" x="136.573103" xlink:href="#mf568577ec6" y="67.511483"/>
     <use style="fill:#d62728;stroke:#ffffff;stroke-linejoin:miter;stroke-width:0.75;" x="140.140735" xlink:href="#mf568577ec6" y="66.16057"/>
     <use style="fill:#d62728;stroke:#ffffff;stroke-linejoin:miter;stroke-width:0.75;" x="143.708367" xlink:href="#mf568577ec6" y="66.08947"/>
     <use style="fill:#d62728;stroke:#ffffff;stroke-linejoin:miter;stroke-width:0.75;" x="147.276" xlink:href="#mf568577ec6" y="66.053919"/>
     <use style="fill:#d62728;stroke:#ffffff;stroke-linejoin:miter;stroke-width:0.75;" x="150.843632" xlink:href="#mf568577ec6" y="65.947268"/>
     <use style="fill:#d62728;stroke:#ffffff;stroke-linejoin:miter;stroke-width:0.75;" x="154.411264" xlink:href="#mf568577ec6" y="64.951859"/>
     <use style="fill:#d62728;stroke:#ffffff;stroke-linejoin:miter;stroke-width:0.75;" x="157.978897" xlink:href="#mf568577ec6" y="64.951859"/>
     <use style="fill:#d62728;stroke:#ffffff;stroke-linejoin:miter;stroke-width:0.75;" x="161.546529" xlink:href="#mf568577ec6" y="64.951859"/>
     <use style="fill:#d62728;stroke:#ffffff;stroke-linejoin:miter;stroke-width:0.75;" x="165.114161" xlink:href="#mf568577ec6" y="64.880758"/>
     <use style="fill:#d62728;stroke:#ffffff;stroke-linejoin:miter;stroke-width:0.75;" x="168.681794" xlink:href="#mf568577ec6" y="64.880758"/>
     <use style="fill:#d62728;stroke:#ffffff;stroke-linejoin:miter;stroke-width:0.75;" x="172.249426" xlink:href="#mf568577ec6" y="64.880758"/>
     <use style="fill:#d62728;stroke:#ffffff;stroke-linejoin:miter;stroke-width:0.75;" x="175.817059" xlink:href="#mf568577ec6" y="63.245443"/>
     <use style="fill:#d62728;stroke:#ffffff;stroke-linejoin:miter;stroke-width:0.75;" x="179.384691" xlink:href="#mf568577ec6" y="62.605537"/>
     <use style="fill:#d62728;stroke:#ffffff;stroke-linejoin:miter;stroke-width:0.75;" x="182.952323" xlink:href="#mf568577ec6" y="62.605537"/>
     <use style="fill:#d62728;stroke:#ffffff;stroke-linejoin:miter;stroke-width:0.75;" x="186.519956" xlink:href="#mf568577ec6" y="62.463336"/>
     <use style="fill:#d62728;stroke:#ffffff;stroke-linejoin:miter;stroke-width:0.75;" x="190.087588" xlink:href="#mf568577ec6" y="58.481699"/>
     <use style="fill:#d62728;stroke:#ffffff;stroke-linejoin:miter;stroke-width:0.75;" x="193.65522" xlink:href="#mf568577ec6" y="58.481699"/>
     <use style="fill:#d62728;stroke:#ffffff;stroke-linejoin:miter;stroke-width:0.75;" x="197.222853" xlink:href="#mf568577ec6" y="58.481699"/>
     <use style="fill:#d62728;stroke:#ffffff;stroke-linejoin:miter;stroke-width:0.75;" x="200.790485" xlink:href="#mf568577ec6" y="58.481699"/>
     <use style="fill:#d62728;stroke:#ffffff;stroke-linejoin:miter;stroke-width:0.75;" x="204.358118" xlink:href="#mf568577ec6" y="57.628491"/>
     <use style="fill:#d62728;stroke:#ffffff;stroke-linejoin:miter;stroke-width:0.75;" x="207.92575" xlink:href="#mf568577ec6" y="57.344088"/>
     <use style="fill:#d62728;stroke:#ffffff;stroke-linejoin:miter;stroke-width:0.75;" x="211.493382" xlink:href="#mf568577ec6" y="57.344088"/>
     <use style="fill:#d62728;stroke:#ffffff;stroke-linejoin:miter;stroke-width:0.75;" x="215.061015" xlink:href="#mf568577ec6" y="57.344088"/>
     <use style="fill:#d62728;stroke:#ffffff;stroke-linejoin:miter;stroke-width:0.75;" x="218.628647" xlink:href="#mf568577ec6" y="57.344088"/>
     <use style="fill:#d62728;stroke:#ffffff;stroke-linejoin:miter;stroke-width:0.75;" x="222.196279" xlink:href="#mf568577ec6" y="57.344088"/>
     <use style="fill:#d62728;stroke:#ffffff;stroke-linejoin:miter;stroke-width:0.75;" x="225.763912" xlink:href="#mf568577ec6" y="57.344088"/>
     <use style="fill:#d62728;stroke:#ffffff;stroke-linejoin:miter;stroke-width:0.75;" x="229.331544" xlink:href="#mf568577ec6" y="57.344088"/>
     <use style="fill:#d62728;stroke:#ffffff;stroke-linejoin:miter;stroke-width:0.75;" x="232.899176" xlink:href="#mf568577ec6" y="57.344088"/>
     <use style="fill:#d62728;stroke:#ffffff;stroke-linejoin:miter;stroke-width:0.75;" x="236.466809" xlink:href="#mf568577ec6" y="57.344088"/>
     <use style="fill:#d62728;stroke:#ffffff;stroke-linejoin:miter;stroke-width:0.75;" x="240.034441" xlink:href="#mf568577ec6" y="57.344088"/>
     <use style="fill:#d62728;stroke:#ffffff;stroke-linejoin:miter;stroke-width:0.75;" x="243.602074" xlink:href="#mf568577ec6" y="56.49088"/>
     <use style="fill:#d62728;stroke:#ffffff;stroke-linejoin:miter;stroke-width:0.75;" x="247.169706" xlink:href="#mf568577ec6" y="56.49088"/>
     <use style="fill:#d62728;stroke:#ffffff;stroke-linejoin:miter;stroke-width:0.75;" x="250.737338" xlink:href="#mf568577ec6" y="56.348679"/>
     <use style="fill:#d62728;stroke:#ffffff;stroke-linejoin:miter;stroke-width:0.75;" x="254.304971" xlink:href="#mf568577ec6" y="56.348679"/>
     <use style="fill:#d62728;stroke:#ffffff;stroke-linejoin:miter;stroke-width:0.75;" x="257.872603" xlink:href="#mf568577ec6" y="56.348679"/>
     <use style="fill:#d62728;stroke:#ffffff;stroke-linejoin:miter;stroke-width:0.75;" x="261.440235" xlink:href="#mf568577ec6" y="56.135377"/>
     <use style="fill:#d62728;stroke:#ffffff;stroke-linejoin:miter;stroke-width:0.75;" x="265.007868" xlink:href="#mf568577ec6" y="56.135377"/>
     <use style="fill:#d62728;stroke:#ffffff;stroke-linejoin:miter;stroke-width:0.75;" x="268.5755" xlink:href="#mf568577ec6" y="55.922075"/>
     <use style="fill:#d62728;stroke:#ffffff;stroke-linejoin:miter;stroke-width:0.75;" x="272.143132" xlink:href="#mf568577ec6" y="55.922075"/>
     <use style="fill:#d62728;stroke:#ffffff;stroke-linejoin:miter;stroke-width:0.75;" x="275.710765" xlink:href="#mf568577ec6" y="55.922075"/>
     <use style="fill:#d62728;stroke:#ffffff;stroke-linejoin:miter;stroke-width:0.75;" x="279.278397" xlink:href="#mf568577ec6" y="55.922075"/>
     <use style="fill:#d62728;stroke:#ffffff;stroke-linejoin:miter;stroke-width:0.75;" x="282.84603" xlink:href="#mf568577ec6" y="55.850974"/>
     <use style="fill:#d62728;stroke:#ffffff;stroke-linejoin:miter;stroke-width:0.75;" x="286.413662" xlink:href="#mf568577ec6" y="55.850974"/>
     <use style="fill:#d62728;stroke:#ffffff;stroke-linejoin:miter;stroke-width:0.75;" x="289.981294" xlink:href="#mf568577ec6" y="55.850974"/>
     <use style="fill:#d62728;stroke:#ffffff;stroke-linejoin:miter;stroke-width:0.75;" x="293.548927" xlink:href="#mf568577ec6" y="55.850974"/>
     <use style="fill:#d62728;stroke:#ffffff;stroke-linejoin:miter;stroke-width:0.75;" x="297.116559" xlink:href="#mf568577ec6" y="55.850974"/>
     <use style="fill:#d62728;stroke:#ffffff;stroke-linejoin:miter;stroke-width:0.75;" x="300.684191" xlink:href="#mf568577ec6" y="55.850974"/>
     <use style="fill:#d62728;stroke:#ffffff;stroke-linejoin:miter;stroke-width:0.75;" x="304.251824" xlink:href="#mf568577ec6" y="55.850974"/>
     <use style="fill:#d62728;stroke:#ffffff;stroke-linejoin:miter;stroke-width:0.75;" x="307.819456" xlink:href="#mf568577ec6" y="55.850974"/>
     <use style="fill:#d62728;stroke:#ffffff;stroke-linejoin:miter;stroke-width:0.75;" x="311.387089" xlink:href="#mf568577ec6" y="55.850974"/>
     <use style="fill:#d62728;stroke:#ffffff;stroke-linejoin:miter;stroke-width:0.75;" x="314.954721" xlink:href="#mf568577ec6" y="55.42437"/>
     <use style="fill:#d62728;stroke:#ffffff;stroke-linejoin:miter;stroke-width:0.75;" x="318.522353" xlink:href="#mf568577ec6" y="55.42437"/>
     <use style="fill:#d62728;stroke:#ffffff;stroke-linejoin:miter;stroke-width:0.75;" x="322.089986" xlink:href="#mf568577ec6" y="55.42437"/>
     <use style="fill:#d62728;stroke:#ffffff;stroke-linejoin:miter;stroke-width:0.75;" x="325.657618" xlink:href="#mf568577ec6" y="55.42437"/>
     <use style="fill:#d62728;stroke:#ffffff;stroke-linejoin:miter;stroke-width:0.75;" x="329.22525" xlink:href="#mf568577ec6" y="55.42437"/>
     <use style="fill:#d62728;stroke:#ffffff;stroke-linejoin:miter;stroke-width:0.75;" x="332.792883" xlink:href="#mf568577ec6" y="55.42437"/>
     <use style="fill:#d62728;stroke:#ffffff;stroke-linejoin:miter;stroke-width:0.75;" x="336.360515" xlink:href="#mf568577ec6" y="55.42437"/>
     <use style="fill:#d62728;stroke:#ffffff;stroke-linejoin:miter;stroke-width:0.75;" x="339.928147" xlink:href="#mf568577ec6" y="55.42437"/>
     <use style="fill:#d62728;stroke:#ffffff;stroke-linejoin:miter;stroke-width:0.75;" x="343.49578" xlink:href="#mf568577ec6" y="55.42437"/>
     <use style="fill:#d62728;stroke:#ffffff;stroke-linejoin:miter;stroke-width:0.75;" x="347.063412" xlink:href="#mf568577ec6" y="55.42437"/>
     <use style="fill:#d62728;stroke:#ffffff;stroke-linejoin:miter;stroke-width:0.75;" x="350.631045" xlink:href="#mf568577ec6" y="55.35327"/>
     <use style="fill:#d62728;stroke:#ffffff;stroke-linejoin:miter;stroke-width:0.75;" x="354.198677" xlink:href="#mf568577ec6" y="55.35327"/>
     <use style="fill:#d62728;stroke:#ffffff;stroke-linejoin:miter;stroke-width:0.75;" x="357.766309" xlink:href="#mf568577ec6" y="55.35327"/>
     <use style="fill:#d62728;stroke:#ffffff;stroke-linejoin:miter;stroke-width:0.75;" x="361.333942" xlink:href="#mf568577ec6" y="55.35327"/>
     <use style="fill:#d62728;stroke:#ffffff;stroke-linejoin:miter;stroke-width:0.75;" x="364.901574" xlink:href="#mf568577ec6" y="55.35327"/>
     <use style="fill:#d62728;stroke:#ffffff;stroke-linejoin:miter;stroke-width:0.75;" x="368.469206" xlink:href="#mf568577ec6" y="55.35327"/>
     <use style="fill:#d62728;stroke:#ffffff;stroke-linejoin:miter;stroke-width:0.75;" x="372.036839" xlink:href="#mf568577ec6" y="55.35327"/>
     <use style="fill:#d62728;stroke:#ffffff;stroke-linejoin:miter;stroke-width:0.75;" x="375.604471" xlink:href="#mf568577ec6" y="54.997766"/>
     <use style="fill:#d62728;stroke:#ffffff;stroke-linejoin:miter;stroke-width:0.75;" x="379.172104" xlink:href="#mf568577ec6" y="54.997766"/>
     <use style="fill:#d62728;stroke:#ffffff;stroke-linejoin:miter;stroke-width:0.75;" x="382.739736" xlink:href="#mf568577ec6" y="54.997766"/>
     <use style="fill:#d62728;stroke:#ffffff;stroke-linejoin:miter;stroke-width:0.75;" x="386.307368" xlink:href="#mf568577ec6" y="53.931257"/>
     <use style="fill:#d62728;stroke:#ffffff;stroke-linejoin:miter;stroke-width:0.75;" x="389.875001" xlink:href="#mf568577ec6" y="53.931257"/>
     <use style="fill:#d62728;stroke:#ffffff;stroke-linejoin:miter;stroke-width:0.75;" x="393.442633" xlink:href="#mf568577ec6" y="53.931257"/>
     <use style="fill:#d62728;stroke:#ffffff;stroke-linejoin:miter;stroke-width:0.75;" x="397.010265" xlink:href="#mf568577ec6" y="53.789055"/>
     <use style="fill:#d62728;stroke:#ffffff;stroke-linejoin:miter;stroke-width:0.75;" x="400.577898" xlink:href="#mf568577ec6" y="53.860156"/>
    </g>
   </g>
   <g id="line2d_16">
    <path clip-path="url(#p0239efc53b)" d="M 75.923352 256.497041 
L 79.490985 237.655365 
L 83.058617 234.669137 
L 86.626249 217.889381 
L 90.193882 199.296559 
L 93.761514 164.208382 
L 97.329146 157.382719 
L 100.896779 150.0238 
L 104.464411 145.260056 
L 108.032044 147.85523 
L 111.599676 146.006613 
L 115.167308 144.086895 
L 118.734941 141.38507 
L 122.302573 139.820855 
L 125.870205 139.465352 
L 129.437838 163.746228 
L 133.00547 139.25205 
L 136.573103 138.896547 
L 140.140735 136.194722 
L 143.708367 136.123621 
L 147.276 123.396603 
L 150.843632 133.563997 
L 154.411264 133.492896 
L 157.978897 149.312794 
L 161.546529 143.375888 
L 165.114161 138.114439 
L 168.681794 136.976829 
L 172.249426 136.763527 
L 175.817059 129.297957 
L 179.384691 116.64204 
L 182.952323 116.606489 
L 186.519956 116.286536 
L 190.087588 115.788832 
L 193.65522 123.609905 
L 197.222853 120.623677 
L 200.790485 119.557167 
L 204.358118 122.650046 
L 207.92575 121.583536 
L 211.493382 121.334683 
L 215.061015 120.97918 
L 218.628647 120.97918 
L 222.196279 106.901249 
L 225.763912 106.759048 
L 229.331544 106.154692 
L 232.899176 106.154692 
L 236.466809 115.931033 
L 240.034441 111.380591 
L 243.602074 109.958578 
L 247.169706 102.848511 
L 250.737338 102.635209 
L 254.304971 108.252162 
L 257.872603 108.252162 
L 261.440235 108.03886 
L 265.007868 107.967759 
L 268.5755 110.598484 
L 272.143132 107.967759 
L 275.710765 107.825558 
L 279.278397 107.825558 
L 282.84603 107.825558 
L 286.413662 107.825558 
L 289.981294 107.683356 
L 293.548927 100.359988 
L 297.116559 100.359988 
L 300.684191 100.359988 
L 304.251824 107.612256 
L 307.819456 107.612256 
L 311.387089 106.901249 
L 314.954721 109.887477 
L 318.522353 109.887477 
L 322.089986 106.830149 
L 325.657618 105.90584 
L 329.22525 105.90584 
L 332.792883 105.692538 
L 336.360515 105.550337 
L 339.928147 105.550337 
L 343.49578 105.550337 
L 347.063412 105.550337 
L 350.631045 98.475821 
L 354.198677 105.479236 
L 357.766309 105.479236 
L 361.333942 105.479236 
L 364.901574 107.470054 
L 368.469206 107.470054 
L 372.036839 102.635209 
L 375.604471 102.635209 
L 379.172104 102.493008 
L 382.739736 101.5687 
L 386.307368 101.5687 
L 389.875001 106.759048 
L 393.442633 106.652397 
L 397.010265 106.332444 
L 400.577898 100.857693 
" style="fill:none;stroke:#98df8a;stroke-linecap:square;stroke-width:1.5;"/>
    <defs>
     <path d="M -0 3 
L 3 -3 
L -3 -3 
z
" id="mca51bedfe5" style="stroke:#ffffff;stroke-linejoin:miter;stroke-width:0.75;"/>
    </defs>
    <g clip-path="url(#p0239efc53b)">
     <use style="fill:#98df8a;stroke:#ffffff;stroke-linejoin:miter;stroke-width:0.75;" x="75.923352" xlink:href="#mca51bedfe5" y="256.497041"/>
     <use style="fill:#98df8a;stroke:#ffffff;stroke-linejoin:miter;stroke-width:0.75;" x="79.490985" xlink:href="#mca51bedfe5" y="237.655365"/>
     <use style="fill:#98df8a;stroke:#ffffff;stroke-linejoin:miter;stroke-width:0.75;" x="83.058617" xlink:href="#mca51bedfe5" y="234.669137"/>
     <use style="fill:#98df8a;stroke:#ffffff;stroke-linejoin:miter;stroke-width:0.75;" x="86.626249" xlink:href="#mca51bedfe5" y="217.889381"/>
     <use style="fill:#98df8a;stroke:#ffffff;stroke-linejoin:miter;stroke-width:0.75;" x="90.193882" xlink:href="#mca51bedfe5" y="199.296559"/>
     <use style="fill:#98df8a;stroke:#ffffff;stroke-linejoin:miter;stroke-width:0.75;" x="93.761514" xlink:href="#mca51bedfe5" y="164.208382"/>
     <use style="fill:#98df8a;stroke:#ffffff;stroke-linejoin:miter;stroke-width:0.75;" x="97.329146" xlink:href="#mca51bedfe5" y="157.382719"/>
     <use style="fill:#98df8a;stroke:#ffffff;stroke-linejoin:miter;stroke-width:0.75;" x="100.896779" xlink:href="#mca51bedfe5" y="150.0238"/>
     <use style="fill:#98df8a;stroke:#ffffff;stroke-linejoin:miter;stroke-width:0.75;" x="104.464411" xlink:href="#mca51bedfe5" y="145.260056"/>
     <use style="fill:#98df8a;stroke:#ffffff;stroke-linejoin:miter;stroke-width:0.75;" x="108.032044" xlink:href="#mca51bedfe5" y="147.85523"/>
     <use style="fill:#98df8a;stroke:#ffffff;stroke-linejoin:miter;stroke-width:0.75;" x="111.599676" xlink:href="#mca51bedfe5" y="146.006613"/>
     <use style="fill:#98df8a;stroke:#ffffff;stroke-linejoin:miter;stroke-width:0.75;" x="115.167308" xlink:href="#mca51bedfe5" y="144.086895"/>
     <use style="fill:#98df8a;stroke:#ffffff;stroke-linejoin:miter;stroke-width:0.75;" x="118.734941" xlink:href="#mca51bedfe5" y="141.38507"/>
     <use style="fill:#98df8a;stroke:#ffffff;stroke-linejoin:miter;stroke-width:0.75;" x="122.302573" xlink:href="#mca51bedfe5" y="139.820855"/>
     <use style="fill:#98df8a;stroke:#ffffff;stroke-linejoin:miter;stroke-width:0.75;" x="125.870205" xlink:href="#mca51bedfe5" y="139.465352"/>
     <use style="fill:#98df8a;stroke:#ffffff;stroke-linejoin:miter;stroke-width:0.75;" x="129.437838" xlink:href="#mca51bedfe5" y="163.746228"/>
     <use style="fill:#98df8a;stroke:#ffffff;stroke-linejoin:miter;stroke-width:0.75;" x="133.00547" xlink:href="#mca51bedfe5" y="139.25205"/>
     <use style="fill:#98df8a;stroke:#ffffff;stroke-linejoin:miter;stroke-width:0.75;" x="136.573103" xlink:href="#mca51bedfe5" y="138.896547"/>
     <use style="fill:#98df8a;stroke:#ffffff;stroke-linejoin:miter;stroke-width:0.75;" x="140.140735" xlink:href="#mca51bedfe5" y="136.194722"/>
     <use style="fill:#98df8a;stroke:#ffffff;stroke-linejoin:miter;stroke-width:0.75;" x="143.708367" xlink:href="#mca51bedfe5" y="136.123621"/>
     <use style="fill:#98df8a;stroke:#ffffff;stroke-linejoin:miter;stroke-width:0.75;" x="147.276" xlink:href="#mca51bedfe5" y="123.396603"/>
     <use style="fill:#98df8a;stroke:#ffffff;stroke-linejoin:miter;stroke-width:0.75;" x="150.843632" xlink:href="#mca51bedfe5" y="133.563997"/>
     <use style="fill:#98df8a;stroke:#ffffff;stroke-linejoin:miter;stroke-width:0.75;" x="154.411264" xlink:href="#mca51bedfe5" y="133.492896"/>
     <use style="fill:#98df8a;stroke:#ffffff;stroke-linejoin:miter;stroke-width:0.75;" x="157.978897" xlink:href="#mca51bedfe5" y="149.312794"/>
     <use style="fill:#98df8a;stroke:#ffffff;stroke-linejoin:miter;stroke-width:0.75;" x="161.546529" xlink:href="#mca51bedfe5" y="143.375888"/>
     <use style="fill:#98df8a;stroke:#ffffff;stroke-linejoin:miter;stroke-width:0.75;" x="165.114161" xlink:href="#mca51bedfe5" y="138.114439"/>
     <use style="fill:#98df8a;stroke:#ffffff;stroke-linejoin:miter;stroke-width:0.75;" x="168.681794" xlink:href="#mca51bedfe5" y="136.976829"/>
     <use style="fill:#98df8a;stroke:#ffffff;stroke-linejoin:miter;stroke-width:0.75;" x="172.249426" xlink:href="#mca51bedfe5" y="136.763527"/>
     <use style="fill:#98df8a;stroke:#ffffff;stroke-linejoin:miter;stroke-width:0.75;" x="175.817059" xlink:href="#mca51bedfe5" y="129.297957"/>
     <use style="fill:#98df8a;stroke:#ffffff;stroke-linejoin:miter;stroke-width:0.75;" x="179.384691" xlink:href="#mca51bedfe5" y="116.64204"/>
     <use style="fill:#98df8a;stroke:#ffffff;stroke-linejoin:miter;stroke-width:0.75;" x="182.952323" xlink:href="#mca51bedfe5" y="116.606489"/>
     <use style="fill:#98df8a;stroke:#ffffff;stroke-linejoin:miter;stroke-width:0.75;" x="186.519956" xlink:href="#mca51bedfe5" y="116.286536"/>
     <use style="fill:#98df8a;stroke:#ffffff;stroke-linejoin:miter;stroke-width:0.75;" x="190.087588" xlink:href="#mca51bedfe5" y="115.788832"/>
     <use style="fill:#98df8a;stroke:#ffffff;stroke-linejoin:miter;stroke-width:0.75;" x="193.65522" xlink:href="#mca51bedfe5" y="123.609905"/>
     <use style="fill:#98df8a;stroke:#ffffff;stroke-linejoin:miter;stroke-width:0.75;" x="197.222853" xlink:href="#mca51bedfe5" y="120.623677"/>
     <use style="fill:#98df8a;stroke:#ffffff;stroke-linejoin:miter;stroke-width:0.75;" x="200.790485" xlink:href="#mca51bedfe5" y="119.557167"/>
     <use style="fill:#98df8a;stroke:#ffffff;stroke-linejoin:miter;stroke-width:0.75;" x="204.358118" xlink:href="#mca51bedfe5" y="122.650046"/>
     <use style="fill:#98df8a;stroke:#ffffff;stroke-linejoin:miter;stroke-width:0.75;" x="207.92575" xlink:href="#mca51bedfe5" y="121.583536"/>
     <use style="fill:#98df8a;stroke:#ffffff;stroke-linejoin:miter;stroke-width:0.75;" x="211.493382" xlink:href="#mca51bedfe5" y="121.334683"/>
     <use style="fill:#98df8a;stroke:#ffffff;stroke-linejoin:miter;stroke-width:0.75;" x="215.061015" xlink:href="#mca51bedfe5" y="120.97918"/>
     <use style="fill:#98df8a;stroke:#ffffff;stroke-linejoin:miter;stroke-width:0.75;" x="218.628647" xlink:href="#mca51bedfe5" y="120.97918"/>
     <use style="fill:#98df8a;stroke:#ffffff;stroke-linejoin:miter;stroke-width:0.75;" x="222.196279" xlink:href="#mca51bedfe5" y="106.901249"/>
     <use style="fill:#98df8a;stroke:#ffffff;stroke-linejoin:miter;stroke-width:0.75;" x="225.763912" xlink:href="#mca51bedfe5" y="106.759048"/>
     <use style="fill:#98df8a;stroke:#ffffff;stroke-linejoin:miter;stroke-width:0.75;" x="229.331544" xlink:href="#mca51bedfe5" y="106.154692"/>
     <use style="fill:#98df8a;stroke:#ffffff;stroke-linejoin:miter;stroke-width:0.75;" x="232.899176" xlink:href="#mca51bedfe5" y="106.154692"/>
     <use style="fill:#98df8a;stroke:#ffffff;stroke-linejoin:miter;stroke-width:0.75;" x="236.466809" xlink:href="#mca51bedfe5" y="115.931033"/>
     <use style="fill:#98df8a;stroke:#ffffff;stroke-linejoin:miter;stroke-width:0.75;" x="240.034441" xlink:href="#mca51bedfe5" y="111.380591"/>
     <use style="fill:#98df8a;stroke:#ffffff;stroke-linejoin:miter;stroke-width:0.75;" x="243.602074" xlink:href="#mca51bedfe5" y="109.958578"/>
     <use style="fill:#98df8a;stroke:#ffffff;stroke-linejoin:miter;stroke-width:0.75;" x="247.169706" xlink:href="#mca51bedfe5" y="102.848511"/>
     <use style="fill:#98df8a;stroke:#ffffff;stroke-linejoin:miter;stroke-width:0.75;" x="250.737338" xlink:href="#mca51bedfe5" y="102.635209"/>
     <use style="fill:#98df8a;stroke:#ffffff;stroke-linejoin:miter;stroke-width:0.75;" x="254.304971" xlink:href="#mca51bedfe5" y="108.252162"/>
     <use style="fill:#98df8a;stroke:#ffffff;stroke-linejoin:miter;stroke-width:0.75;" x="257.872603" xlink:href="#mca51bedfe5" y="108.252162"/>
     <use style="fill:#98df8a;stroke:#ffffff;stroke-linejoin:miter;stroke-width:0.75;" x="261.440235" xlink:href="#mca51bedfe5" y="108.03886"/>
     <use style="fill:#98df8a;stroke:#ffffff;stroke-linejoin:miter;stroke-width:0.75;" x="265.007868" xlink:href="#mca51bedfe5" y="107.967759"/>
     <use style="fill:#98df8a;stroke:#ffffff;stroke-linejoin:miter;stroke-width:0.75;" x="268.5755" xlink:href="#mca51bedfe5" y="110.598484"/>
     <use style="fill:#98df8a;stroke:#ffffff;stroke-linejoin:miter;stroke-width:0.75;" x="272.143132" xlink:href="#mca51bedfe5" y="107.967759"/>
     <use style="fill:#98df8a;stroke:#ffffff;stroke-linejoin:miter;stroke-width:0.75;" x="275.710765" xlink:href="#mca51bedfe5" y="107.825558"/>
     <use style="fill:#98df8a;stroke:#ffffff;stroke-linejoin:miter;stroke-width:0.75;" x="279.278397" xlink:href="#mca51bedfe5" y="107.825558"/>
     <use style="fill:#98df8a;stroke:#ffffff;stroke-linejoin:miter;stroke-width:0.75;" x="282.84603" xlink:href="#mca51bedfe5" y="107.825558"/>
     <use style="fill:#98df8a;stroke:#ffffff;stroke-linejoin:miter;stroke-width:0.75;" x="286.413662" xlink:href="#mca51bedfe5" y="107.825558"/>
     <use style="fill:#98df8a;stroke:#ffffff;stroke-linejoin:miter;stroke-width:0.75;" x="289.981294" xlink:href="#mca51bedfe5" y="107.683356"/>
     <use style="fill:#98df8a;stroke:#ffffff;stroke-linejoin:miter;stroke-width:0.75;" x="293.548927" xlink:href="#mca51bedfe5" y="100.359988"/>
     <use style="fill:#98df8a;stroke:#ffffff;stroke-linejoin:miter;stroke-width:0.75;" x="297.116559" xlink:href="#mca51bedfe5" y="100.359988"/>
     <use style="fill:#98df8a;stroke:#ffffff;stroke-linejoin:miter;stroke-width:0.75;" x="300.684191" xlink:href="#mca51bedfe5" y="100.359988"/>
     <use style="fill:#98df8a;stroke:#ffffff;stroke-linejoin:miter;stroke-width:0.75;" x="304.251824" xlink:href="#mca51bedfe5" y="107.612256"/>
     <use style="fill:#98df8a;stroke:#ffffff;stroke-linejoin:miter;stroke-width:0.75;" x="307.819456" xlink:href="#mca51bedfe5" y="107.612256"/>
     <use style="fill:#98df8a;stroke:#ffffff;stroke-linejoin:miter;stroke-width:0.75;" x="311.387089" xlink:href="#mca51bedfe5" y="106.901249"/>
     <use style="fill:#98df8a;stroke:#ffffff;stroke-linejoin:miter;stroke-width:0.75;" x="314.954721" xlink:href="#mca51bedfe5" y="109.887477"/>
     <use style="fill:#98df8a;stroke:#ffffff;stroke-linejoin:miter;stroke-width:0.75;" x="318.522353" xlink:href="#mca51bedfe5" y="109.887477"/>
     <use style="fill:#98df8a;stroke:#ffffff;stroke-linejoin:miter;stroke-width:0.75;" x="322.089986" xlink:href="#mca51bedfe5" y="106.830149"/>
     <use style="fill:#98df8a;stroke:#ffffff;stroke-linejoin:miter;stroke-width:0.75;" x="325.657618" xlink:href="#mca51bedfe5" y="105.90584"/>
     <use style="fill:#98df8a;stroke:#ffffff;stroke-linejoin:miter;stroke-width:0.75;" x="329.22525" xlink:href="#mca51bedfe5" y="105.90584"/>
     <use style="fill:#98df8a;stroke:#ffffff;stroke-linejoin:miter;stroke-width:0.75;" x="332.792883" xlink:href="#mca51bedfe5" y="105.692538"/>
     <use style="fill:#98df8a;stroke:#ffffff;stroke-linejoin:miter;stroke-width:0.75;" x="336.360515" xlink:href="#mca51bedfe5" y="105.550337"/>
     <use style="fill:#98df8a;stroke:#ffffff;stroke-linejoin:miter;stroke-width:0.75;" x="339.928147" xlink:href="#mca51bedfe5" y="105.550337"/>
     <use style="fill:#98df8a;stroke:#ffffff;stroke-linejoin:miter;stroke-width:0.75;" x="343.49578" xlink:href="#mca51bedfe5" y="105.550337"/>
     <use style="fill:#98df8a;stroke:#ffffff;stroke-linejoin:miter;stroke-width:0.75;" x="347.063412" xlink:href="#mca51bedfe5" y="105.550337"/>
     <use style="fill:#98df8a;stroke:#ffffff;stroke-linejoin:miter;stroke-width:0.75;" x="350.631045" xlink:href="#mca51bedfe5" y="98.475821"/>
     <use style="fill:#98df8a;stroke:#ffffff;stroke-linejoin:miter;stroke-width:0.75;" x="354.198677" xlink:href="#mca51bedfe5" y="105.479236"/>
     <use style="fill:#98df8a;stroke:#ffffff;stroke-linejoin:miter;stroke-width:0.75;" x="357.766309" xlink:href="#mca51bedfe5" y="105.479236"/>
     <use style="fill:#98df8a;stroke:#ffffff;stroke-linejoin:miter;stroke-width:0.75;" x="361.333942" xlink:href="#mca51bedfe5" y="105.479236"/>
     <use style="fill:#98df8a;stroke:#ffffff;stroke-linejoin:miter;stroke-width:0.75;" x="364.901574" xlink:href="#mca51bedfe5" y="107.470054"/>
     <use style="fill:#98df8a;stroke:#ffffff;stroke-linejoin:miter;stroke-width:0.75;" x="368.469206" xlink:href="#mca51bedfe5" y="107.470054"/>
     <use style="fill:#98df8a;stroke:#ffffff;stroke-linejoin:miter;stroke-width:0.75;" x="372.036839" xlink:href="#mca51bedfe5" y="102.635209"/>
     <use style="fill:#98df8a;stroke:#ffffff;stroke-linejoin:miter;stroke-width:0.75;" x="375.604471" xlink:href="#mca51bedfe5" y="102.635209"/>
     <use style="fill:#98df8a;stroke:#ffffff;stroke-linejoin:miter;stroke-width:0.75;" x="379.172104" xlink:href="#mca51bedfe5" y="102.493008"/>
     <use style="fill:#98df8a;stroke:#ffffff;stroke-linejoin:miter;stroke-width:0.75;" x="382.739736" xlink:href="#mca51bedfe5" y="101.5687"/>
     <use style="fill:#98df8a;stroke:#ffffff;stroke-linejoin:miter;stroke-width:0.75;" x="386.307368" xlink:href="#mca51bedfe5" y="101.5687"/>
     <use style="fill:#98df8a;stroke:#ffffff;stroke-linejoin:miter;stroke-width:0.75;" x="389.875001" xlink:href="#mca51bedfe5" y="106.759048"/>
     <use style="fill:#98df8a;stroke:#ffffff;stroke-linejoin:miter;stroke-width:0.75;" x="393.442633" xlink:href="#mca51bedfe5" y="106.652397"/>
     <use style="fill:#98df8a;stroke:#ffffff;stroke-linejoin:miter;stroke-width:0.75;" x="397.010265" xlink:href="#mca51bedfe5" y="106.332444"/>
     <use style="fill:#98df8a;stroke:#ffffff;stroke-linejoin:miter;stroke-width:0.75;" x="400.577898" xlink:href="#mca51bedfe5" y="100.857693"/>
    </g>
   </g>
   <g id="line2d_17"/>
   <g id="line2d_18"/>
   <g id="line2d_19"/>
   <g id="patch_3">
    <path d="M 59.690625 261.900691 
L 59.690625 48.598707 
" style="fill:none;stroke:#000000;stroke-linecap:square;stroke-linejoin:miter;stroke-width:0.8;"/>
   </g>
   <g id="patch_4">
    <path d="M 75.923352 288.430125 
L 349.441834 288.430125 
" style="fill:none;stroke:#000000;stroke-linecap:square;stroke-linejoin:miter;stroke-width:0.8;"/>
   </g>
   <g id="text_16">
    <!-- usrsctp_fuzzer_connect (23h, 18 trials/fuzzer) -->
    <g transform="translate(101.250938 16.318125)scale(0.12 -0.12)">
     <defs>
      <path d="M 2834 3397 
L 2834 2853 
Q 2591 2978 2328 3040 
Q 2066 3103 1784 3103 
Q 1356 3103 1142 2972 
Q 928 2841 928 2578 
Q 928 2378 1081 2264 
Q 1234 2150 1697 2047 
L 1894 2003 
Q 2506 1872 2764 1633 
Q 3022 1394 3022 966 
Q 3022 478 2636 193 
Q 2250 -91 1575 -91 
Q 1294 -91 989 -36 
Q 684 19 347 128 
L 347 722 
Q 666 556 975 473 
Q 1284 391 1588 391 
Q 1994 391 2212 530 
Q 2431 669 2431 922 
Q 2431 1156 2273 1281 
Q 2116 1406 1581 1522 
L 1381 1569 
Q 847 1681 609 1914 
Q 372 2147 372 2553 
Q 372 3047 722 3315 
Q 1072 3584 1716 3584 
Q 2034 3584 2315 3537 
Q 2597 3491 2834 3397 
z
" id="DejaVuSans-73" transform="scale(0.015625)"/>
      <path d="M 1159 525 
L 1159 -1331 
L 581 -1331 
L 581 3500 
L 1159 3500 
L 1159 2969 
Q 1341 3281 1617 3432 
Q 1894 3584 2278 3584 
Q 2916 3584 3314 3078 
Q 3713 2572 3713 1747 
Q 3713 922 3314 415 
Q 2916 -91 2278 -91 
Q 1894 -91 1617 61 
Q 1341 213 1159 525 
z
M 3116 1747 
Q 3116 2381 2855 2742 
Q 2594 3103 2138 3103 
Q 1681 3103 1420 2742 
Q 1159 2381 1159 1747 
Q 1159 1113 1420 752 
Q 1681 391 2138 391 
Q 2594 391 2855 752 
Q 3116 1113 3116 1747 
z
" id="DejaVuSans-70" transform="scale(0.015625)"/>
      <path d="M 3263 -1063 
L 3263 -1509 
L -63 -1509 
L -63 -1063 
L 3263 -1063 
z
" id="DejaVuSans-5f" transform="scale(0.015625)"/>
      <path d="M 2375 4863 
L 2375 4384 
L 1825 4384 
Q 1516 4384 1395 4259 
Q 1275 4134 1275 3809 
L 1275 3500 
L 2222 3500 
L 2222 3053 
L 1275 3053 
L 1275 0 
L 697 0 
L 697 3053 
L 147 3053 
L 147 3500 
L 697 3500 
L 697 3744 
Q 697 4328 969 4595 
Q 1241 4863 1831 4863 
L 2375 4863 
z
" id="DejaVuSans-66" transform="scale(0.015625)"/>
      <path d="M 353 3500 
L 3084 3500 
L 3084 2975 
L 922 459 
L 3084 459 
L 3084 0 
L 275 0 
L 275 525 
L 2438 3041 
L 353 3041 
L 353 3500 
z
" id="DejaVuSans-7a" transform="scale(0.015625)"/>
      <path d="M 750 794 
L 1409 794 
L 1409 256 
L 897 -744 
L 494 -744 
L 750 256 
L 750 794 
z
" id="DejaVuSans-2c" transform="scale(0.015625)"/>
      <path d="M 2034 2216 
Q 1584 2216 1326 1975 
Q 1069 1734 1069 1313 
Q 1069 891 1326 650 
Q 1584 409 2034 409 
Q 2484 409 2743 651 
Q 3003 894 3003 1313 
Q 3003 1734 2745 1975 
Q 2488 2216 2034 2216 
z
M 1403 2484 
Q 997 2584 770 2862 
Q 544 3141 544 3541 
Q 544 4100 942 4425 
Q 1341 4750 2034 4750 
Q 2731 4750 3128 4425 
Q 3525 4100 3525 3541 
Q 3525 3141 3298 2862 
Q 3072 2584 2669 2484 
Q 3125 2378 3379 2068 
Q 3634 1759 3634 1313 
Q 3634 634 3220 271 
Q 2806 -91 2034 -91 
Q 1263 -91 848 271 
Q 434 634 434 1313 
Q 434 1759 690 2068 
Q 947 2378 1403 2484 
z
M 1172 3481 
Q 1172 3119 1398 2916 
Q 1625 2713 2034 2713 
Q 2441 2713 2670 2916 
Q 2900 3119 2900 3481 
Q 2900 3844 2670 4047 
Q 2441 4250 2034 4250 
Q 1625 4250 1398 4047 
Q 1172 3844 1172 3481 
z
" id="DejaVuSans-38" transform="scale(0.015625)"/>
      <path d="M 603 4863 
L 1178 4863 
L 1178 0 
L 603 0 
L 603 4863 
z
" id="DejaVuSans-6c" transform="scale(0.015625)"/>
      <path d="M 1625 4666 
L 2156 4666 
L 531 -594 
L 0 -594 
L 1625 4666 
z
" id="DejaVuSans-2f" transform="scale(0.015625)"/>
     </defs>
     <use xlink:href="#DejaVuSans-75"/>
     <use x="63.378906" xlink:href="#DejaVuSans-73"/>
     <use x="115.478516" xlink:href="#DejaVuSans-72"/>
     <use x="156.591797" xlink:href="#DejaVuSans-73"/>
     <use x="208.691406" xlink:href="#DejaVuSans-63"/>
     <use x="263.671875" xlink:href="#DejaVuSans-74"/>
     <use x="302.880859" xlink:href="#DejaVuSans-70"/>
     <use x="366.357422" xlink:href="#DejaVuSans-5f"/>
     <use x="416.357422" xlink:href="#DejaVuSans-66"/>
     <use x="451.5625" xlink:href="#DejaVuSans-75"/>
     <use x="514.941406" xlink:href="#DejaVuSans-7a"/>
     <use x="567.431641" xlink:href="#DejaVuSans-7a"/>
     <use x="619.921875" xlink:href="#DejaVuSans-65"/>
     <use x="681.445312" xlink:href="#DejaVuSans-72"/>
     <use x="722.558594" xlink:href="#DejaVuSans-5f"/>
     <use x="772.558594" xlink:href="#DejaVuSans-63"/>
     <use x="827.539062" xlink:href="#DejaVuSans-6f"/>
     <use x="888.720703" xlink:href="#DejaVuSans-6e"/>
     <use x="952.099609" xlink:href="#DejaVuSans-6e"/>
     <use x="1015.478516" xlink:href="#DejaVuSans-65"/>
     <use x="1077.001953" xlink:href="#DejaVuSans-63"/>
     <use x="1131.982422" xlink:href="#DejaVuSans-74"/>
     <use x="1171.191406" xlink:href="#DejaVuSans-20"/>
     <use x="1202.978516" xlink:href="#DejaVuSans-28"/>
     <use x="1241.992188" xlink:href="#DejaVuSans-32"/>
     <use x="1305.615234" xlink:href="#DejaVuSans-33"/>
     <use x="1369.238281" xlink:href="#DejaVuSans-68"/>
     <use x="1432.617188" xlink:href="#DejaVuSans-2c"/>
     <use x="1464.404297" xlink:href="#DejaVuSans-20"/>
     <use x="1496.191406" xlink:href="#DejaVuSans-31"/>
     <use x="1559.814453" xlink:href="#DejaVuSans-38"/>
     <use x="1623.4375" xlink:href="#DejaVuSans-20"/>
     <use x="1655.224609" xlink:href="#DejaVuSans-74"/>
     <use x="1694.433594" xlink:href="#DejaVuSans-72"/>
     <use x="1735.546875" xlink:href="#DejaVuSans-69"/>
     <use x="1763.330078" xlink:href="#DejaVuSans-61"/>
     <use x="1824.609375" xlink:href="#DejaVuSans-6c"/>
     <use x="1852.392578" xlink:href="#DejaVuSans-73"/>
     <use x="1904.492188" xlink:href="#DejaVuSans-2f"/>
     <use x="1938.183594" xlink:href="#DejaVuSans-66"/>
     <use x="1973.388672" xlink:href="#DejaVuSans-75"/>
     <use x="2036.767578" xlink:href="#DejaVuSans-7a"/>
     <use x="2089.257812" xlink:href="#DejaVuSans-7a"/>
     <use x="2141.748047" xlink:href="#DejaVuSans-65"/>
     <use x="2203.271484" xlink:href="#DejaVuSans-72"/>
     <use x="2244.384766" xlink:href="#DejaVuSans-29"/>
    </g>
   </g>
   <g id="legend_1">
    <g id="line2d_20">
     <path d="M 420.810625 30.416562 
L 440.810625 30.416562 
" style="fill:none;stroke:#1f77b4;stroke-linecap:square;stroke-width:1.5;"/>
    </g>
    <g id="line2d_21">
     <defs>
      <path d="M 0 3 
C 0.795609 3 1.55874 2.683901 2.12132 2.12132 
C 2.683901 1.55874 3 0.795609 3 0 
C 3 -0.795609 2.683901 -1.55874 2.12132 -2.12132 
C 1.55874 -2.683901 0.795609 -3 0 -3 
C -0.795609 -3 -1.55874 -2.683901 -2.12132 -2.12132 
C -2.683901 -1.55874 -3 -0.795609 -3 0 
C -3 0.795609 -2.683901 1.55874 -2.12132 2.12132 
C -1.55874 2.683901 -0.795609 3 0 3 
z
" id="mcb7dfdcabb" style="stroke:#1f77b4;"/>
     </defs>
     <g>
      <use style="fill:#1f77b4;stroke:#1f77b4;" x="430.810625" xlink:href="#mcb7dfdcabb" y="30.416562"/>
     </g>
    </g>
    <g id="text_17">
     <!-- afl -->
     <g transform="translate(448.810625 33.916562)scale(0.1 -0.1)">
      <use xlink:href="#DejaVuSans-61"/>
      <use x="61.279297" xlink:href="#DejaVuSans-66"/>
      <use x="96.484375" xlink:href="#DejaVuSans-6c"/>
     </g>
    </g>
    <g id="line2d_22">
     <path d="M 420.810625 45.094688 
L 440.810625 45.094688 
" style="fill:none;stroke:#d62728;stroke-linecap:square;stroke-width:1.5;"/>
    </g>
    <g id="line2d_23">
     <defs>
      <path d="M 0 -3 
L -3 3 
L 3 3 
z
" id="mc70c672d0a" style="stroke:#d62728;stroke-linejoin:miter;"/>
     </defs>
     <g>
      <use style="fill:#d62728;stroke:#d62728;stroke-linejoin:miter;" x="430.810625" xlink:href="#mc70c672d0a" y="45.094688"/>
     </g>
    </g>
    <g id="text_18">
     <!-- afl_scheduling_random -->
     <g transform="translate(448.810625 48.594688)scale(0.1 -0.1)">
      <use xlink:href="#DejaVuSans-61"/>
      <use x="61.279297" xlink:href="#DejaVuSans-66"/>
      <use x="96.484375" xlink:href="#DejaVuSans-6c"/>
      <use x="124.267578" xlink:href="#DejaVuSans-5f"/>
      <use x="174.267578" xlink:href="#DejaVuSans-73"/>
      <use x="226.367188" xlink:href="#DejaVuSans-63"/>
      <use x="281.347656" xlink:href="#DejaVuSans-68"/>
      <use x="344.726562" xlink:href="#DejaVuSans-65"/>
      <use x="406.25" xlink:href="#DejaVuSans-64"/>
      <use x="469.726562" xlink:href="#DejaVuSans-75"/>
      <use x="533.105469" xlink:href="#DejaVuSans-6c"/>
      <use x="560.888672" xlink:href="#DejaVuSans-69"/>
      <use x="588.671875" xlink:href="#DejaVuSans-6e"/>
      <use x="652.050781" xlink:href="#DejaVuSans-67"/>
      <use x="715.527344" xlink:href="#DejaVuSans-5f"/>
      <use x="765.527344" xlink:href="#DejaVuSans-72"/>
      <use x="806.640625" xlink:href="#DejaVuSans-61"/>
      <use x="867.919922" xlink:href="#DejaVuSans-6e"/>
      <use x="931.298828" xlink:href="#DejaVuSans-64"/>
      <use x="994.775391" xlink:href="#DejaVuSans-6f"/>
      <use x="1055.957031" xlink:href="#DejaVuSans-6d"/>
     </g>
    </g>
    <g id="line2d_24">
     <path d="M 420.810625 60.050937 
L 440.810625 60.050937 
" style="fill:none;stroke:#98df8a;stroke-linecap:square;stroke-width:1.5;"/>
    </g>
    <g id="line2d_25">
     <defs>
      <path d="M -0 3 
L 3 -3 
L -3 -3 
z
" id="mdf1796613d" style="stroke:#98df8a;stroke-linejoin:miter;"/>
     </defs>
     <g>
      <use style="fill:#98df8a;stroke:#98df8a;stroke-linejoin:miter;" x="430.810625" xlink:href="#mdf1796613d" y="60.050937"/>
     </g>
    </g>
    <g id="text_19">
     <!-- afl_scheduling_lifo -->
     <g transform="translate(448.810625 63.550937)scale(0.1 -0.1)">
      <use xlink:href="#DejaVuSans-61"/>
      <use x="61.279297" xlink:href="#DejaVuSans-66"/>
      <use x="96.484375" xlink:href="#DejaVuSans-6c"/>
      <use x="124.267578" xlink:href="#DejaVuSans-5f"/>
      <use x="174.267578" xlink:href="#DejaVuSans-73"/>
      <use x="226.367188" xlink:href="#DejaVuSans-63"/>
      <use x="281.347656" xlink:href="#DejaVuSans-68"/>
      <use x="344.726562" xlink:href="#DejaVuSans-65"/>
      <use x="406.25" xlink:href="#DejaVuSans-64"/>
      <use x="469.726562" xlink:href="#DejaVuSans-75"/>
      <use x="533.105469" xlink:href="#DejaVuSans-6c"/>
      <use x="560.888672" xlink:href="#DejaVuSans-69"/>
      <use x="588.671875" xlink:href="#DejaVuSans-6e"/>
      <use x="652.050781" xlink:href="#DejaVuSans-67"/>
      <use x="715.527344" xlink:href="#DejaVuSans-5f"/>
      <use x="765.527344" xlink:href="#DejaVuSans-6c"/>
      <use x="793.310547" xlink:href="#DejaVuSans-69"/>
      <use x="821.09375" xlink:href="#DejaVuSans-66"/>
      <use x="856.298828" xlink:href="#DejaVuSans-6f"/>
     </g>
    </g>
   </g>
  </g>
 </g>
 <defs>
  <clipPath id="p0239efc53b">
   <rect height="266.112" width="357.12" x="59.690625" y="22.318125"/>
  </clipPath>
 </defs>
</svg>
