<?xml version="1.0" encoding="utf-8" standalone="no"?>
<!DOCTYPE svg PUBLIC "-//W3C//DTD SVG 1.1//EN"
  "http://www.w3.org/Graphics/SVG/1.1/DTD/svg11.dtd">
<svg height="325.986375pt" version="1.1" viewBox="0 0 581.710625 325.986375" width="581.710625pt" xmlns="http://www.w3.org/2000/svg" xmlns:xlink="http://www.w3.org/1999/xlink">
 <metadata>
  <rdf:RDF xmlns:cc="http://creativecommons.org/ns#" xmlns:dc="http://purl.org/dc/elements/1.1/" xmlns:rdf="http://www.w3.org/1999/02/22-rdf-syntax-ns#">
   <cc:Work>
    <dc:type rdf:resource="http://purl.org/dc/dcmitype/StillImage"/>
    <dc:date>2022-05-31T14:36:25.504373</dc:date>
    <dc:format>image/svg+xml</dc:format>
    <dc:creator>
     <cc:Agent>
      <dc:title>Matplotlib v3.4.3, https://matplotlib.org/</dc:title>
     </cc:Agent>
    </dc:creator>
   </cc:Work>
  </rdf:RDF>
 </metadata>
 <defs>
  <style type="text/css">*{stroke-linecap:butt;stroke-linejoin:round;}</style>
 </defs>
 <g id="figure_1">
  <g id="patch_1">
   <path d="M 0 325.986375 
L 581.710625 325.986375 
L 581.710625 0 
L 0 0 
z
" style="fill:#ffffff;"/>
  </g>
  <g id="axes_1">
   <g id="patch_2">
    <path d="M 66.053125 288.430125 
L 423.173125 288.430125 
L 423.173125 22.318125 
L 66.053125 22.318125 
z
" style="fill:#ffffff;"/>
   </g>
   <g id="PolyCollection_1">
    <defs>
     <path d="M 82.285852 -106.328316 
L 82.285852 -100.47074 
L 85.853485 -117.277586 
L 89.421117 -129.85427 
L 92.988749 -139.188691 
L 96.556382 -149.214991 
L 100.124014 -160.373011 
L 103.691646 -168.980646 
L 107.259279 -174.882207 
L 110.826911 -178.71302 
L 114.394544 -184.338807 
L 117.962176 -189.575717 
L 121.529808 -188.068386 
L 125.097441 -196.801115 
L 128.665073 -200.477512 
L 132.232705 -206.625523 
L 135.800338 -210.955522 
L 139.36797 -214.96297 
L 142.935603 -216.886405 
L 146.503235 -220.098647 
L 150.070867 -221.923642 
L 153.6385 -223.354873 
L 157.206132 -227.715591 
L 160.773764 -229.36046 
L 164.341397 -231.377519 
L 167.909029 -232.560833 
L 171.476661 -233.990668 
L 175.044294 -235.788993 
L 178.611926 -237.992531 
L 182.179559 -239.765861 
L 185.747191 -240.147058 
L 189.314823 -241.511964 
L 192.882456 -242.32602 
L 196.450088 -242.414687 
L 200.01772 -243.170098 
L 203.585353 -244.583177 
L 207.152985 -245.786808 
L 210.720618 -246.493347 
L 214.28825 -247.581083 
L 217.855882 -248.840567 
L 221.423515 -250.105636 
L 224.991147 -252.742592 
L 228.558779 -253.472171 
L 232.126412 -254.233168 
L 235.694044 -255.083529 
L 239.261676 -256.382807 
L 242.829309 -257.672312 
L 246.396941 -257.071893 
L 249.964574 -258.082831 
L 253.532206 -259.417716 
L 257.099838 -259.877107 
L 260.667471 -260.502659 
L 264.235103 -261.260863 
L 267.802735 -261.564563 
L 271.370368 -263.800775 
L 274.938 -261.457745 
L 278.505632 -264.789651 
L 282.073265 -265.402358 
L 285.640897 -265.646715 
L 289.20853 -263.713505 
L 292.776162 -266.340687 
L 296.343794 -264.502428 
L 299.911427 -267.549903 
L 303.479059 -261.787277 
L 307.046691 -262.661375 
L 310.614324 -262.965774 
L 314.181956 -263.465658 
L 317.749589 -264.255977 
L 321.317221 -264.540826 
L 324.884853 -265.110526 
L 328.452486 -266.075386 
L 332.020118 -272.330112 
L 335.58775 -266.793096 
L 339.155383 -273.008131 
L 342.723015 -269.479622 
L 346.290647 -273.453349 
L 349.85828 -273.633649 
L 353.425912 -273.843133 
L 356.993545 -274.243144 
L 360.561177 -274.997717 
L 364.128809 -276.554792 
L 367.696442 -274.653 
L 371.264074 -274.704664 
L 374.831706 -274.852674 
L 378.399339 -274.925283 
L 381.966971 -275.485209 
L 385.534604 -276.006037 
L 389.102236 -276.471013 
L 392.669868 -277.238991 
L 396.237501 -277.583883 
L 399.805133 -278.025121 
L 403.372765 -278.656259 
L 406.940398 -278.927146 
L 406.940398 -291.57225 
L 406.940398 -291.57225 
L 403.372765 -291.512208 
L 399.805133 -291.041647 
L 396.237501 -291.031873 
L 392.669868 -290.322541 
L 389.102236 -290.671621 
L 385.534604 -290.594824 
L 381.966971 -290.457984 
L 378.399339 -290.354656 
L 374.831706 -290.304388 
L 371.264074 -289.974856 
L 367.696442 -289.914814 
L 364.128809 -289.831035 
L 360.561177 -286.761183 
L 356.993545 -286.33712 
L 353.425912 -289.286469 
L 349.85828 -285.097499 
L 346.290647 -288.896894 
L 342.723015 -288.694428 
L 339.155383 -288.53385 
L 335.58775 -288.235037 
L 332.020118 -287.951584 
L 328.452486 -283.279486 
L 324.884853 -287.232477 
L 321.317221 -286.651607 
L 317.749589 -286.182442 
L 314.181956 -285.815209 
L 310.614324 -281.326413 
L 307.046691 -280.854072 
L 303.479059 -284.492891 
L 299.911427 -283.77518 
L 296.343794 -283.268315 
L 292.776162 -285.619724 
L 289.20853 -285.163126 
L 285.640897 -283.912718 
L 282.073265 -283.28926 
L 278.505632 -280.993251 
L 274.938 -280.458913 
L 271.370368 -281.837084 
L 267.802735 -276.729333 
L 264.235103 -279.292284 
L 260.667471 -275.72398 
L 257.099838 -272.987186 
L 253.532206 -272.558515 
L 249.964574 -272.12007 
L 246.396941 -271.310202 
L 242.829309 -271.456118 
L 239.261676 -270.496844 
L 235.694044 -269.94739 
L 232.126412 -268.911319 
L 228.558779 -268.391188 
L 224.991147 -268.01069 
L 221.423515 -266.182903 
L 217.855882 -265.987417 
L 214.28825 -265.338127 
L 210.720618 -264.452858 
L 207.152985 -263.060724 
L 203.585353 -261.232937 
L 200.01772 -259.965075 
L 196.450088 -258.931796 
L 192.882456 -257.359536 
L 189.314823 -257.307872 
L 185.747191 -255.559675 
L 182.179559 -252.201517 
L 178.611926 -250.489625 
L 175.044294 -249.407474 
L 171.476661 -247.259929 
L 167.909029 -246.709777 
L 164.341397 -245.289717 
L 160.773764 -243.122623 
L 157.206132 -241.366048 
L 153.6385 -240.767025 
L 150.070867 -239.105401 
L 146.503235 -237.04722 
L 142.935603 -232.555946 
L 139.36797 -228.818687 
L 135.800338 -225.642749 
L 132.232705 -221.00905 
L 128.665073 -220.228505 
L 125.097441 -218.261086 
L 121.529808 -212.949472 
L 117.962176 -209.061409 
L 114.394544 -204.007417 
L 110.826911 -200.024405 
L 107.259279 -195.063268 
L 103.691646 -187.800292 
L 100.124014 -180.485652 
L 96.556382 -170.956444 
L 92.988749 -159.228026 
L 89.421117 -144.8061 
L 85.853485 -128.501233 
L 82.285852 -106.328316 
z
" id="mc3b28fb46d" style="stroke:#d62728;stroke-opacity:0.2;"/>
    </defs>
    <g clip-path="url(#pa887bd5a9e)">
     <use style="fill:#d62728;fill-opacity:0.2;stroke:#d62728;stroke-opacity:0.2;" x="0" xlink:href="#mc3b28fb46d" y="325.986375"/>
    </g>
   </g>
   <g id="PolyCollection_2">
    <defs>
     <path d="M 82.285852 -101.201715 
L 82.285852 -88.932222 
L 85.853485 -116.918731 
L 89.421117 -131.011822 
L 92.988749 -139.375799 
L 96.556382 -145.082572 
L 100.124014 -147.676365 
L 103.691646 -153.957603 
L 107.259279 -159.284577 
L 110.826911 -159.565936 
L 114.394544 -159.810991 
L 117.962176 -164.174501 
L 121.529808 -164.251299 
L 125.097441 -164.224961 
L 128.665073 -165.056279 
L 132.232705 -160.605499 
L 135.800338 -171.188233 
L 139.36797 -172.150998 
L 142.935603 -172.222211 
L 146.503235 -178.711624 
L 150.070867 -181.990191 
L 153.6385 -182.166127 
L 157.206132 -182.307156 
L 160.773764 -182.344857 
L 164.341397 -187.749326 
L 167.909029 -189.937086 
L 171.476661 -182.904783 
L 175.044294 -182.977391 
L 178.611926 -187.931547 
L 182.179559 -198.133085 
L 185.747191 -198.763525 
L 189.314823 -198.324381 
L 192.882456 -193.278732 
L 196.450088 -198.419331 
L 200.01772 -199.716516 
L 203.585353 -198.51847 
L 207.152985 -199.88966 
L 210.720618 -199.972043 
L 214.28825 -200.170321 
L 217.855882 -200.233155 
L 221.423515 -200.279234 
L 224.991147 -203.260384 
L 228.558779 -207.706278 
L 232.126412 -208.125175 
L 235.694044 -208.301111 
L 239.261676 -210.031156 
L 242.829309 -209.441908 
L 246.396941 -211.183123 
L 249.964574 -211.293432 
L 253.532206 -211.406534 
L 257.099838 -211.536393 
L 260.667471 -228.715359 
L 264.235103 -222.646937 
L 267.802735 -222.800533 
L 271.370368 -222.884312 
L 274.938 -222.790061 
L 278.505632 -223.870117 
L 282.073265 -226.723503 
L 285.640897 -229.202675 
L 289.20853 -233.696044 
L 292.776162 -234.416547 
L 296.343794 -234.44587 
L 299.911427 -234.550594 
L 303.479059 -234.672074 
L 307.046691 -238.633443 
L 310.614324 -238.580383 
L 314.181956 -238.74096 
L 317.749589 -235.804492 
L 321.317221 -235.998581 
L 324.884853 -236.128439 
L 328.452486 -236.220597 
L 332.020118 -236.325321 
L 335.58775 -238.90262 
L 339.155383 -240.920621 
L 342.723015 -242.089344 
L 346.290647 -243.749572 
L 349.85828 -243.943661 
L 353.425912 -244.063745 
L 356.993545 -244.299723 
L 360.561177 -248.011151 
L 364.128809 -248.480315 
L 367.696442 -248.673008 
L 371.264074 -248.349061 
L 374.831706 -249.417248 
L 378.399339 -248.561302 
L 381.966971 -248.568284 
L 385.534604 -248.594814 
L 389.102236 -248.674404 
L 392.669868 -248.808451 
L 396.237501 -249.108661 
L 399.805133 -254.471311 
L 403.372765 -258.156836 
L 406.940398 -258.327188 
L 406.940398 -273.936686 
L 406.940398 -273.936686 
L 403.372765 -273.905967 
L 399.805133 -273.84034 
L 396.237501 -273.836151 
L 392.669868 -273.679763 
L 389.102236 -271.148229 
L 385.534604 -273.354419 
L 381.966971 -273.005339 
L 378.399339 -270.553395 
L 374.831706 -272.850347 
L 371.264074 -270.475201 
L 367.696442 -270.963914 
L 364.128809 -270.335568 
L 360.561177 -267.569312 
L 356.993545 -266.892235 
L 353.425912 -266.689768 
L 349.85828 -266.558514 
L 346.290647 -268.662773 
L 342.723015 -269.232473 
L 339.155383 -266.372419 
L 335.58775 -264.861981 
L 332.020118 -262.30252 
L 328.452486 -261.038149 
L 324.884853 -260.81301 
L 321.317221 -259.493816 
L 317.749589 -257.710013 
L 314.181956 -255.961118 
L 310.614324 -256.343012 
L 307.046691 -259.050483 
L 303.479059 -254.53617 
L 299.911427 -253.91341 
L 296.343794 -252.623207 
L 292.776162 -248.571076 
L 289.20853 -252.290882 
L 285.640897 -252.253181 
L 282.073265 -251.725371 
L 278.505632 -246.339089 
L 274.938 -247.657881 
L 271.370368 -247.528023 
L 267.802735 -247.16079 
L 264.235103 -249.308335 
L 260.667471 -249.172892 
L 257.099838 -248.841963 
L 253.532206 -245.494976 
L 249.964574 -245.236656 
L 246.396941 -243.7391 
L 242.829309 -239.176613 
L 239.261676 -241.90084 
L 235.694044 -238.870818 
L 232.126412 -238.531512 
L 228.558779 -236.439819 
L 224.991147 -232.636235 
L 221.423515 -232.430975 
L 217.855882 -237.158926 
L 214.28825 -232.248057 
L 210.720618 -232.060949 
L 207.152985 -232.033023 
L 203.585353 -231.716057 
L 200.01772 -231.565255 
L 196.450088 -231.128205 
L 192.882456 -224.088641 
L 189.314823 -221.811936 
L 185.747191 -223.511262 
L 182.179559 -220.133555 
L 178.611926 -217.044888 
L 175.044294 -216.923408 
L 171.476661 -216.475188 
L 167.909029 -215.803557 
L 164.341397 -215.031756 
L 160.773764 -211.250146 
L 157.206132 -210.503811 
L 153.6385 -208.646003 
L 150.070867 -208.565017 
L 146.503235 -205.117494 
L 142.935603 -204.98624 
L 139.36797 -204.768413 
L 135.800338 -204.424918 
L 132.232705 -195.445337 
L 128.665073 -198.481258 
L 125.097441 -194.529174 
L 121.529808 -193.986005 
L 117.962176 -193.469365 
L 114.394544 -192.311813 
L 110.826911 -182.214999 
L 107.259279 -180.313206 
L 103.691646 -172.968546 
L 100.124014 -169.705338 
L 96.556382 -161.756069 
L 92.988749 -147.966678 
L 89.421117 -137.864977 
L 85.853485 -124.827506 
L 82.285852 -101.201715 
z
" id="m50e544795d" style="stroke:#1f77b4;stroke-opacity:0.2;"/>
    </defs>
    <g clip-path="url(#pa887bd5a9e)">
     <use style="fill:#1f77b4;fill-opacity:0.2;stroke:#1f77b4;stroke-opacity:0.2;" x="0" xlink:href="#m50e544795d" y="325.986375"/>
    </g>
   </g>
   <g id="PolyCollection_3">
    <defs>
     <path d="M 82.285852 -50.192627 
L 82.285852 -49.65225 
L 85.853485 -50.992022 
L 89.421117 -51.664352 
L 92.988749 -52.278036 
L 96.556382 -52.806544 
L 100.124014 -53.318995 
L 103.691646 -53.70438 
L 107.259279 -54.0388 
L 110.826911 -54.265702 
L 114.394544 -54.632935 
L 117.962176 -54.821439 
L 121.529808 -55.196352 
L 125.097441 -55.431632 
L 128.665073 -55.6718 
L 132.232705 -55.796073 
L 135.800338 -55.974802 
L 139.36797 -56.208686 
L 142.935603 -56.281295 
L 146.503235 -56.660397 
L 150.070867 -56.695305 
L 153.6385 -56.999703 
L 157.206132 -57.099541 
L 160.773764 -57.287346 
L 164.341397 -57.419176 
L 167.909029 -57.543571 
L 171.476661 -57.558931 
L 175.044294 -57.729981 
L 178.611926 -57.876594 
L 182.179559 -57.886369 
L 185.747191 -57.98481 
L 189.314823 -58.135612 
L 192.882456 -58.16703 
L 196.450088 -58.203334 
L 200.01772 -58.243828 
L 203.585353 -58.365308 
L 207.152985 -58.397423 
L 210.720618 -58.493769 
L 214.28825 -58.578945 
L 217.855882 -58.620084 
L 221.423515 -58.691873 
L 224.991147 -58.750693 
L 228.558779 -58.841454 
L 232.126412 -58.873569 
L 235.694044 -58.932215 
L 239.261676 -58.993653 
L 242.829309 -59.095585 
L 246.396941 -59.206592 
L 249.964574 -59.262445 
L 253.532206 -59.275012 
L 257.099838 -59.399285 
L 260.667471 -59.40487 
L 264.235103 -59.499122 
L 267.802735 -59.543805 
L 271.370368 -59.528445 
L 274.938 -59.59128 
L 278.505632 -59.64434 
L 282.073265 -59.666681 
L 285.640897 -59.680644 
L 289.20853 -59.756046 
L 292.776162 -59.798634 
L 296.343794 -59.848203 
L 299.911427 -59.846807 
L 303.479059 -59.867053 
L 307.046691 -59.89498 
L 310.614324 -59.930586 
L 314.181956 -59.948668 
L 317.749589 -59.98993 
L 321.317221 -60.044386 
L 324.884853 -60.062521 
L 328.452486 -60.117693 
L 332.020118 -60.223814 
L 335.58775 -60.238475 
L 339.155383 -60.253835 
L 342.723015 -60.278969 
L 346.290647 -60.292234 
L 349.85828 -60.336916 
L 353.425912 -60.350181 
L 356.993545 -60.442339 
L 360.561177 -60.457698 
L 364.128809 -60.460491 
L 367.696442 -60.47585 
L 371.264074 -60.487021 
L 374.831706 -60.574989 
L 378.399339 -60.561724 
L 381.966971 -60.579876 
L 385.534604 -60.582669 
L 389.102236 -60.582669 
L 392.669868 -60.588254 
L 396.237501 -60.591047 
L 399.805133 -60.599425 
L 403.372765 -60.648296 
L 406.940398 -60.67343 
L 406.940398 -61.385555 
L 406.940398 -61.385555 
L 403.372765 -61.375781 
L 399.805133 -61.374384 
L 396.237501 -61.318531 
L 392.669868 -61.318531 
L 389.102236 -61.318531 
L 385.534604 -61.205429 
L 381.966971 -61.205429 
L 378.399339 -61.19007 
L 374.831706 -61.113272 
L 371.264074 -61.088836 
L 367.696442 -61.06091 
L 364.128809 -61.046248 
L 360.561177 -60.963865 
L 356.993545 -60.953393 
L 353.425912 -60.919183 
L 349.85828 -60.914994 
L 346.290647 -60.910107 
L 342.723015 -60.903823 
L 339.155383 -60.870312 
L 335.58775 -60.830516 
L 332.020118 -60.877293 
L 328.452486 -60.826328 
L 324.884853 -60.820044 
L 321.317221 -60.806081 
L 317.749589 -60.624559 
L 314.181956 -60.618275 
L 310.614324 -60.52542 
L 307.046691 -60.502381 
L 303.479059 -60.488417 
L 299.911427 -60.475152 
L 296.343794 -60.470963 
L 292.776162 -60.437451 
L 289.20853 -60.440244 
L 285.640897 -60.40394 
L 282.073265 -60.364843 
L 278.505632 -60.342501 
L 274.938 -60.109315 
L 271.370368 -60.136474 
L 267.802735 -60.077898 
L 264.235103 -60.039499 
L 260.667471 -60.014365 
L 257.099838 -59.929888 
L 253.532206 -59.71276 
L 249.964574 -59.648529 
L 246.396941 -59.641547 
L 242.829309 -59.594072 
L 239.261676 -59.594072 
L 235.694044 -59.515861 
L 232.126412 -59.443269 
L 228.558779 -59.342734 
L 224.991147 -59.293863 
L 221.423515 -59.261747 
L 217.855882 -59.217763 
L 214.28825 -59.140267 
L 210.720618 -59.083716 
L 207.152985 -59.028561 
L 203.585353 -58.956651 
L 200.01772 -58.914761 
L 196.450088 -58.853323 
L 192.882456 -58.819811 
L 189.314823 -58.727793 
L 185.747191 -58.602683 
L 182.179559 -58.538452 
L 178.611926 -58.481901 
L 175.044294 -58.470032 
L 171.476661 -58.313644 
L 167.909029 -58.194956 
L 164.341397 -58.171917 
L 160.773764 -58.032983 
L 157.206132 -57.946411 
L 153.6385 -57.984111 
L 150.070867 -57.443734 
L 146.503235 -57.394863 
L 142.935603 -57.189603 
L 139.36797 -57.050669 
L 135.800338 -56.938963 
L 132.232705 -56.786066 
L 128.665073 -56.481667 
L 125.097441 -56.18076 
L 121.529808 -55.945479 
L 117.962176 -55.6718 
L 114.394544 -55.389743 
L 110.826911 -55.042058 
L 107.259279 -54.672731 
L 103.691646 -54.304799 
L 100.124014 -53.935315 
L 96.556382 -53.310617 
L 92.988749 -52.837264 
L 89.421117 -52.347154 
L 85.853485 -51.496793 
L 82.285852 -50.192627 
z
" id="maa627f3879" style="stroke:#98df8a;stroke-opacity:0.2;"/>
    </defs>
    <g clip-path="url(#pa887bd5a9e)">
     <use style="fill:#98df8a;fill-opacity:0.2;stroke:#98df8a;stroke-opacity:0.2;" x="0" xlink:href="#maa627f3879" y="325.986375"/>
    </g>
   </g>
   <g id="matplotlib.axis_1">
    <g id="xtick_1">
     <g id="line2d_1">
      <defs>
       <path d="M 0 0 
L 0 3.5 
" id="m9436158145" style="stroke:#000000;stroke-width:0.8;"/>
      </defs>
      <g>
       <use style="stroke:#000000;stroke-width:0.8;" x="82.285852" xlink:href="#m9436158145" y="288.430125"/>
      </g>
     </g>
     <g id="text_1">
      <!-- 15m -->
      <g transform="translate(71.05304 303.028562)scale(0.1 -0.1)">
       <defs>
        <path d="M 794 531 
L 1825 531 
L 1825 4091 
L 703 3866 
L 703 4441 
L 1819 4666 
L 2450 4666 
L 2450 531 
L 3481 531 
L 3481 0 
L 794 0 
L 794 531 
z
" id="DejaVuSans-31" transform="scale(0.015625)"/>
        <path d="M 691 4666 
L 3169 4666 
L 3169 4134 
L 1269 4134 
L 1269 2991 
Q 1406 3038 1543 3061 
Q 1681 3084 1819 3084 
Q 2600 3084 3056 2656 
Q 3513 2228 3513 1497 
Q 3513 744 3044 326 
Q 2575 -91 1722 -91 
Q 1428 -91 1123 -41 
Q 819 9 494 109 
L 494 744 
Q 775 591 1075 516 
Q 1375 441 1709 441 
Q 2250 441 2565 725 
Q 2881 1009 2881 1497 
Q 2881 1984 2565 2268 
Q 2250 2553 1709 2553 
Q 1456 2553 1204 2497 
Q 953 2441 691 2322 
L 691 4666 
z
" id="DejaVuSans-35" transform="scale(0.015625)"/>
        <path d="M 3328 2828 
Q 3544 3216 3844 3400 
Q 4144 3584 4550 3584 
Q 5097 3584 5394 3201 
Q 5691 2819 5691 2113 
L 5691 0 
L 5113 0 
L 5113 2094 
Q 5113 2597 4934 2840 
Q 4756 3084 4391 3084 
Q 3944 3084 3684 2787 
Q 3425 2491 3425 1978 
L 3425 0 
L 2847 0 
L 2847 2094 
Q 2847 2600 2669 2842 
Q 2491 3084 2119 3084 
Q 1678 3084 1418 2786 
Q 1159 2488 1159 1978 
L 1159 0 
L 581 0 
L 581 3500 
L 1159 3500 
L 1159 2956 
Q 1356 3278 1631 3431 
Q 1906 3584 2284 3584 
Q 2666 3584 2933 3390 
Q 3200 3197 3328 2828 
z
" id="DejaVuSans-6d" transform="scale(0.015625)"/>
       </defs>
       <use xlink:href="#DejaVuSans-31"/>
       <use x="63.623047" xlink:href="#DejaVuSans-35"/>
       <use x="127.246094" xlink:href="#DejaVuSans-6d"/>
      </g>
     </g>
    </g>
    <g id="xtick_2">
     <g id="line2d_2">
      <g>
       <use style="stroke:#000000;stroke-width:0.8;" x="136.989549" xlink:href="#m9436158145" y="288.430125"/>
      </g>
     </g>
     <g id="text_2">
      <!-- 4h:5m -->
      <g transform="translate(120.903611 303.028562)scale(0.1 -0.1)">
       <defs>
        <path d="M 2419 4116 
L 825 1625 
L 2419 1625 
L 2419 4116 
z
M 2253 4666 
L 3047 4666 
L 3047 1625 
L 3713 1625 
L 3713 1100 
L 3047 1100 
L 3047 0 
L 2419 0 
L 2419 1100 
L 313 1100 
L 313 1709 
L 2253 4666 
z
" id="DejaVuSans-34" transform="scale(0.015625)"/>
        <path d="M 3513 2113 
L 3513 0 
L 2938 0 
L 2938 2094 
Q 2938 2591 2744 2837 
Q 2550 3084 2163 3084 
Q 1697 3084 1428 2787 
Q 1159 2491 1159 1978 
L 1159 0 
L 581 0 
L 581 4863 
L 1159 4863 
L 1159 2956 
Q 1366 3272 1645 3428 
Q 1925 3584 2291 3584 
Q 2894 3584 3203 3211 
Q 3513 2838 3513 2113 
z
" id="DejaVuSans-68" transform="scale(0.015625)"/>
        <path d="M 750 794 
L 1409 794 
L 1409 0 
L 750 0 
L 750 794 
z
M 750 3309 
L 1409 3309 
L 1409 2516 
L 750 2516 
L 750 3309 
z
" id="DejaVuSans-3a" transform="scale(0.015625)"/>
       </defs>
       <use xlink:href="#DejaVuSans-34"/>
       <use x="63.623047" xlink:href="#DejaVuSans-68"/>
       <use x="127.001953" xlink:href="#DejaVuSans-3a"/>
       <use x="160.693359" xlink:href="#DejaVuSans-35"/>
       <use x="224.316406" xlink:href="#DejaVuSans-6d"/>
      </g>
     </g>
    </g>
    <g id="xtick_3">
     <g id="line2d_3">
      <g>
       <use style="stroke:#000000;stroke-width:0.8;" x="191.693245" xlink:href="#m9436158145" y="288.430125"/>
      </g>
     </g>
     <g id="text_3">
      <!-- 7h:55m -->
      <g transform="translate(172.426057 303.028562)scale(0.1 -0.1)">
       <defs>
        <path d="M 525 4666 
L 3525 4666 
L 3525 4397 
L 1831 0 
L 1172 0 
L 2766 4134 
L 525 4134 
L 525 4666 
z
" id="DejaVuSans-37" transform="scale(0.015625)"/>
       </defs>
       <use xlink:href="#DejaVuSans-37"/>
       <use x="63.623047" xlink:href="#DejaVuSans-68"/>
       <use x="127.001953" xlink:href="#DejaVuSans-3a"/>
       <use x="160.693359" xlink:href="#DejaVuSans-35"/>
       <use x="224.316406" xlink:href="#DejaVuSans-35"/>
       <use x="287.939453" xlink:href="#DejaVuSans-6d"/>
      </g>
     </g>
    </g>
    <g id="xtick_4">
     <g id="line2d_4">
      <g>
       <use style="stroke:#000000;stroke-width:0.8;" x="246.396941" xlink:href="#m9436158145" y="288.430125"/>
      </g>
     </g>
     <g id="text_4">
      <!-- 11h:45m -->
      <g transform="translate(223.948504 303.028562)scale(0.1 -0.1)">
       <use xlink:href="#DejaVuSans-31"/>
       <use x="63.623047" xlink:href="#DejaVuSans-31"/>
       <use x="127.246094" xlink:href="#DejaVuSans-68"/>
       <use x="190.625" xlink:href="#DejaVuSans-3a"/>
       <use x="224.316406" xlink:href="#DejaVuSans-34"/>
       <use x="287.939453" xlink:href="#DejaVuSans-35"/>
       <use x="351.5625" xlink:href="#DejaVuSans-6d"/>
      </g>
     </g>
    </g>
    <g id="xtick_5">
     <g id="line2d_5">
      <g>
       <use style="stroke:#000000;stroke-width:0.8;" x="301.100637" xlink:href="#m9436158145" y="288.430125"/>
      </g>
     </g>
     <g id="text_5">
      <!-- 15h:35m -->
      <g transform="translate(278.6522 303.028562)scale(0.1 -0.1)">
       <defs>
        <path d="M 2597 2516 
Q 3050 2419 3304 2112 
Q 3559 1806 3559 1356 
Q 3559 666 3084 287 
Q 2609 -91 1734 -91 
Q 1441 -91 1130 -33 
Q 819 25 488 141 
L 488 750 
Q 750 597 1062 519 
Q 1375 441 1716 441 
Q 2309 441 2620 675 
Q 2931 909 2931 1356 
Q 2931 1769 2642 2001 
Q 2353 2234 1838 2234 
L 1294 2234 
L 1294 2753 
L 1863 2753 
Q 2328 2753 2575 2939 
Q 2822 3125 2822 3475 
Q 2822 3834 2567 4026 
Q 2313 4219 1838 4219 
Q 1578 4219 1281 4162 
Q 984 4106 628 3988 
L 628 4550 
Q 988 4650 1302 4700 
Q 1616 4750 1894 4750 
Q 2613 4750 3031 4423 
Q 3450 4097 3450 3541 
Q 3450 3153 3228 2886 
Q 3006 2619 2597 2516 
z
" id="DejaVuSans-33" transform="scale(0.015625)"/>
       </defs>
       <use xlink:href="#DejaVuSans-31"/>
       <use x="63.623047" xlink:href="#DejaVuSans-35"/>
       <use x="127.246094" xlink:href="#DejaVuSans-68"/>
       <use x="190.625" xlink:href="#DejaVuSans-3a"/>
       <use x="224.316406" xlink:href="#DejaVuSans-33"/>
       <use x="287.939453" xlink:href="#DejaVuSans-35"/>
       <use x="351.5625" xlink:href="#DejaVuSans-6d"/>
      </g>
     </g>
    </g>
    <g id="xtick_6">
     <g id="line2d_6">
      <g>
       <use style="stroke:#000000;stroke-width:0.8;" x="355.804334" xlink:href="#m9436158145" y="288.430125"/>
      </g>
     </g>
     <g id="text_6">
      <!-- 19h:25m -->
      <g transform="translate(333.355896 303.028562)scale(0.1 -0.1)">
       <defs>
        <path d="M 703 97 
L 703 672 
Q 941 559 1184 500 
Q 1428 441 1663 441 
Q 2288 441 2617 861 
Q 2947 1281 2994 2138 
Q 2813 1869 2534 1725 
Q 2256 1581 1919 1581 
Q 1219 1581 811 2004 
Q 403 2428 403 3163 
Q 403 3881 828 4315 
Q 1253 4750 1959 4750 
Q 2769 4750 3195 4129 
Q 3622 3509 3622 2328 
Q 3622 1225 3098 567 
Q 2575 -91 1691 -91 
Q 1453 -91 1209 -44 
Q 966 3 703 97 
z
M 1959 2075 
Q 2384 2075 2632 2365 
Q 2881 2656 2881 3163 
Q 2881 3666 2632 3958 
Q 2384 4250 1959 4250 
Q 1534 4250 1286 3958 
Q 1038 3666 1038 3163 
Q 1038 2656 1286 2365 
Q 1534 2075 1959 2075 
z
" id="DejaVuSans-39" transform="scale(0.015625)"/>
        <path d="M 1228 531 
L 3431 531 
L 3431 0 
L 469 0 
L 469 531 
Q 828 903 1448 1529 
Q 2069 2156 2228 2338 
Q 2531 2678 2651 2914 
Q 2772 3150 2772 3378 
Q 2772 3750 2511 3984 
Q 2250 4219 1831 4219 
Q 1534 4219 1204 4116 
Q 875 4013 500 3803 
L 500 4441 
Q 881 4594 1212 4672 
Q 1544 4750 1819 4750 
Q 2544 4750 2975 4387 
Q 3406 4025 3406 3419 
Q 3406 3131 3298 2873 
Q 3191 2616 2906 2266 
Q 2828 2175 2409 1742 
Q 1991 1309 1228 531 
z
" id="DejaVuSans-32" transform="scale(0.015625)"/>
       </defs>
       <use xlink:href="#DejaVuSans-31"/>
       <use x="63.623047" xlink:href="#DejaVuSans-39"/>
       <use x="127.246094" xlink:href="#DejaVuSans-68"/>
       <use x="190.625" xlink:href="#DejaVuSans-3a"/>
       <use x="224.316406" xlink:href="#DejaVuSans-32"/>
       <use x="287.939453" xlink:href="#DejaVuSans-35"/>
       <use x="351.5625" xlink:href="#DejaVuSans-6d"/>
      </g>
     </g>
    </g>
    <g id="text_7">
     <!-- Time (hour:minute) -->
     <g transform="translate(196.206094 316.706687)scale(0.1 -0.1)">
      <defs>
       <path d="M -19 4666 
L 3928 4666 
L 3928 4134 
L 2272 4134 
L 2272 0 
L 1638 0 
L 1638 4134 
L -19 4134 
L -19 4666 
z
" id="DejaVuSans-54" transform="scale(0.015625)"/>
       <path d="M 603 3500 
L 1178 3500 
L 1178 0 
L 603 0 
L 603 3500 
z
M 603 4863 
L 1178 4863 
L 1178 4134 
L 603 4134 
L 603 4863 
z
" id="DejaVuSans-69" transform="scale(0.015625)"/>
       <path d="M 3597 1894 
L 3597 1613 
L 953 1613 
Q 991 1019 1311 708 
Q 1631 397 2203 397 
Q 2534 397 2845 478 
Q 3156 559 3463 722 
L 3463 178 
Q 3153 47 2828 -22 
Q 2503 -91 2169 -91 
Q 1331 -91 842 396 
Q 353 884 353 1716 
Q 353 2575 817 3079 
Q 1281 3584 2069 3584 
Q 2775 3584 3186 3129 
Q 3597 2675 3597 1894 
z
M 3022 2063 
Q 3016 2534 2758 2815 
Q 2500 3097 2075 3097 
Q 1594 3097 1305 2825 
Q 1016 2553 972 2059 
L 3022 2063 
z
" id="DejaVuSans-65" transform="scale(0.015625)"/>
       <path id="DejaVuSans-20" transform="scale(0.015625)"/>
       <path d="M 1984 4856 
Q 1566 4138 1362 3434 
Q 1159 2731 1159 2009 
Q 1159 1288 1364 580 
Q 1569 -128 1984 -844 
L 1484 -844 
Q 1016 -109 783 600 
Q 550 1309 550 2009 
Q 550 2706 781 3412 
Q 1013 4119 1484 4856 
L 1984 4856 
z
" id="DejaVuSans-28" transform="scale(0.015625)"/>
       <path d="M 1959 3097 
Q 1497 3097 1228 2736 
Q 959 2375 959 1747 
Q 959 1119 1226 758 
Q 1494 397 1959 397 
Q 2419 397 2687 759 
Q 2956 1122 2956 1747 
Q 2956 2369 2687 2733 
Q 2419 3097 1959 3097 
z
M 1959 3584 
Q 2709 3584 3137 3096 
Q 3566 2609 3566 1747 
Q 3566 888 3137 398 
Q 2709 -91 1959 -91 
Q 1206 -91 779 398 
Q 353 888 353 1747 
Q 353 2609 779 3096 
Q 1206 3584 1959 3584 
z
" id="DejaVuSans-6f" transform="scale(0.015625)"/>
       <path d="M 544 1381 
L 544 3500 
L 1119 3500 
L 1119 1403 
Q 1119 906 1312 657 
Q 1506 409 1894 409 
Q 2359 409 2629 706 
Q 2900 1003 2900 1516 
L 2900 3500 
L 3475 3500 
L 3475 0 
L 2900 0 
L 2900 538 
Q 2691 219 2414 64 
Q 2138 -91 1772 -91 
Q 1169 -91 856 284 
Q 544 659 544 1381 
z
M 1991 3584 
L 1991 3584 
z
" id="DejaVuSans-75" transform="scale(0.015625)"/>
       <path d="M 2631 2963 
Q 2534 3019 2420 3045 
Q 2306 3072 2169 3072 
Q 1681 3072 1420 2755 
Q 1159 2438 1159 1844 
L 1159 0 
L 581 0 
L 581 3500 
L 1159 3500 
L 1159 2956 
Q 1341 3275 1631 3429 
Q 1922 3584 2338 3584 
Q 2397 3584 2469 3576 
Q 2541 3569 2628 3553 
L 2631 2963 
z
" id="DejaVuSans-72" transform="scale(0.015625)"/>
       <path d="M 3513 2113 
L 3513 0 
L 2938 0 
L 2938 2094 
Q 2938 2591 2744 2837 
Q 2550 3084 2163 3084 
Q 1697 3084 1428 2787 
Q 1159 2491 1159 1978 
L 1159 0 
L 581 0 
L 581 3500 
L 1159 3500 
L 1159 2956 
Q 1366 3272 1645 3428 
Q 1925 3584 2291 3584 
Q 2894 3584 3203 3211 
Q 3513 2838 3513 2113 
z
" id="DejaVuSans-6e" transform="scale(0.015625)"/>
       <path d="M 1172 4494 
L 1172 3500 
L 2356 3500 
L 2356 3053 
L 1172 3053 
L 1172 1153 
Q 1172 725 1289 603 
Q 1406 481 1766 481 
L 2356 481 
L 2356 0 
L 1766 0 
Q 1100 0 847 248 
Q 594 497 594 1153 
L 594 3053 
L 172 3053 
L 172 3500 
L 594 3500 
L 594 4494 
L 1172 4494 
z
" id="DejaVuSans-74" transform="scale(0.015625)"/>
       <path d="M 513 4856 
L 1013 4856 
Q 1481 4119 1714 3412 
Q 1947 2706 1947 2009 
Q 1947 1309 1714 600 
Q 1481 -109 1013 -844 
L 513 -844 
Q 928 -128 1133 580 
Q 1338 1288 1338 2009 
Q 1338 2731 1133 3434 
Q 928 4138 513 4856 
z
" id="DejaVuSans-29" transform="scale(0.015625)"/>
      </defs>
      <use xlink:href="#DejaVuSans-54"/>
      <use x="57.958984" xlink:href="#DejaVuSans-69"/>
      <use x="85.742188" xlink:href="#DejaVuSans-6d"/>
      <use x="183.154297" xlink:href="#DejaVuSans-65"/>
      <use x="244.677734" xlink:href="#DejaVuSans-20"/>
      <use x="276.464844" xlink:href="#DejaVuSans-28"/>
      <use x="315.478516" xlink:href="#DejaVuSans-68"/>
      <use x="378.857422" xlink:href="#DejaVuSans-6f"/>
      <use x="440.039062" xlink:href="#DejaVuSans-75"/>
      <use x="503.417969" xlink:href="#DejaVuSans-72"/>
      <use x="542.78125" xlink:href="#DejaVuSans-3a"/>
      <use x="576.472656" xlink:href="#DejaVuSans-6d"/>
      <use x="673.884766" xlink:href="#DejaVuSans-69"/>
      <use x="701.667969" xlink:href="#DejaVuSans-6e"/>
      <use x="765.046875" xlink:href="#DejaVuSans-75"/>
      <use x="828.425781" xlink:href="#DejaVuSans-74"/>
      <use x="867.634766" xlink:href="#DejaVuSans-65"/>
      <use x="929.158203" xlink:href="#DejaVuSans-29"/>
     </g>
    </g>
   </g>
   <g id="matplotlib.axis_2">
    <g id="ytick_1">
     <g id="line2d_7">
      <defs>
       <path d="M 0 0 
L -3.5 0 
" id="mdb655117ad" style="stroke:#000000;stroke-width:0.8;"/>
      </defs>
      <g>
       <use style="stroke:#000000;stroke-width:0.8;" x="66.053125" xlink:href="#mdb655117ad" y="278.510993"/>
      </g>
     </g>
     <g id="text_8">
      <!-- 325000 -->
      <g transform="translate(20.878125 282.310212)scale(0.1 -0.1)">
       <defs>
        <path d="M 2034 4250 
Q 1547 4250 1301 3770 
Q 1056 3291 1056 2328 
Q 1056 1369 1301 889 
Q 1547 409 2034 409 
Q 2525 409 2770 889 
Q 3016 1369 3016 2328 
Q 3016 3291 2770 3770 
Q 2525 4250 2034 4250 
z
M 2034 4750 
Q 2819 4750 3233 4129 
Q 3647 3509 3647 2328 
Q 3647 1150 3233 529 
Q 2819 -91 2034 -91 
Q 1250 -91 836 529 
Q 422 1150 422 2328 
Q 422 3509 836 4129 
Q 1250 4750 2034 4750 
z
" id="DejaVuSans-30" transform="scale(0.015625)"/>
       </defs>
       <use xlink:href="#DejaVuSans-33"/>
       <use x="63.623047" xlink:href="#DejaVuSans-32"/>
       <use x="127.246094" xlink:href="#DejaVuSans-35"/>
       <use x="190.869141" xlink:href="#DejaVuSans-30"/>
       <use x="254.492188" xlink:href="#DejaVuSans-30"/>
       <use x="318.115234" xlink:href="#DejaVuSans-30"/>
      </g>
     </g>
    </g>
    <g id="ytick_2">
     <g id="line2d_8">
      <g>
       <use style="stroke:#000000;stroke-width:0.8;" x="66.053125" xlink:href="#mdb655117ad" y="243.60291"/>
      </g>
     </g>
     <g id="text_9">
      <!-- 350000 -->
      <g transform="translate(20.878125 247.402128)scale(0.1 -0.1)">
       <use xlink:href="#DejaVuSans-33"/>
       <use x="63.623047" xlink:href="#DejaVuSans-35"/>
       <use x="127.246094" xlink:href="#DejaVuSans-30"/>
       <use x="190.869141" xlink:href="#DejaVuSans-30"/>
       <use x="254.492188" xlink:href="#DejaVuSans-30"/>
       <use x="318.115234" xlink:href="#DejaVuSans-30"/>
      </g>
     </g>
    </g>
    <g id="ytick_3">
     <g id="line2d_9">
      <g>
       <use style="stroke:#000000;stroke-width:0.8;" x="66.053125" xlink:href="#mdb655117ad" y="208.694826"/>
      </g>
     </g>
     <g id="text_10">
      <!-- 375000 -->
      <g transform="translate(20.878125 212.494045)scale(0.1 -0.1)">
       <use xlink:href="#DejaVuSans-33"/>
       <use x="63.623047" xlink:href="#DejaVuSans-37"/>
       <use x="127.246094" xlink:href="#DejaVuSans-35"/>
       <use x="190.869141" xlink:href="#DejaVuSans-30"/>
       <use x="254.492188" xlink:href="#DejaVuSans-30"/>
       <use x="318.115234" xlink:href="#DejaVuSans-30"/>
      </g>
     </g>
    </g>
    <g id="ytick_4">
     <g id="line2d_10">
      <g>
       <use style="stroke:#000000;stroke-width:0.8;" x="66.053125" xlink:href="#mdb655117ad" y="173.786743"/>
      </g>
     </g>
     <g id="text_11">
      <!-- 400000 -->
      <g transform="translate(20.878125 177.585961)scale(0.1 -0.1)">
       <use xlink:href="#DejaVuSans-34"/>
       <use x="63.623047" xlink:href="#DejaVuSans-30"/>
       <use x="127.246094" xlink:href="#DejaVuSans-30"/>
       <use x="190.869141" xlink:href="#DejaVuSans-30"/>
       <use x="254.492188" xlink:href="#DejaVuSans-30"/>
       <use x="318.115234" xlink:href="#DejaVuSans-30"/>
      </g>
     </g>
    </g>
    <g id="ytick_5">
     <g id="line2d_11">
      <g>
       <use style="stroke:#000000;stroke-width:0.8;" x="66.053125" xlink:href="#mdb655117ad" y="138.878659"/>
      </g>
     </g>
     <g id="text_12">
      <!-- 425000 -->
      <g transform="translate(20.878125 142.677878)scale(0.1 -0.1)">
       <use xlink:href="#DejaVuSans-34"/>
       <use x="63.623047" xlink:href="#DejaVuSans-32"/>
       <use x="127.246094" xlink:href="#DejaVuSans-35"/>
       <use x="190.869141" xlink:href="#DejaVuSans-30"/>
       <use x="254.492188" xlink:href="#DejaVuSans-30"/>
       <use x="318.115234" xlink:href="#DejaVuSans-30"/>
      </g>
     </g>
    </g>
    <g id="ytick_6">
     <g id="line2d_12">
      <g>
       <use style="stroke:#000000;stroke-width:0.8;" x="66.053125" xlink:href="#mdb655117ad" y="103.970576"/>
      </g>
     </g>
     <g id="text_13">
      <!-- 450000 -->
      <g transform="translate(20.878125 107.769795)scale(0.1 -0.1)">
       <use xlink:href="#DejaVuSans-34"/>
       <use x="63.623047" xlink:href="#DejaVuSans-35"/>
       <use x="127.246094" xlink:href="#DejaVuSans-30"/>
       <use x="190.869141" xlink:href="#DejaVuSans-30"/>
       <use x="254.492188" xlink:href="#DejaVuSans-30"/>
       <use x="318.115234" xlink:href="#DejaVuSans-30"/>
      </g>
     </g>
    </g>
    <g id="ytick_7">
     <g id="line2d_13">
      <g>
       <use style="stroke:#000000;stroke-width:0.8;" x="66.053125" xlink:href="#mdb655117ad" y="69.062492"/>
      </g>
     </g>
     <g id="text_14">
      <!-- 475000 -->
      <g transform="translate(20.878125 72.861711)scale(0.1 -0.1)">
       <use xlink:href="#DejaVuSans-34"/>
       <use x="63.623047" xlink:href="#DejaVuSans-37"/>
       <use x="127.246094" xlink:href="#DejaVuSans-35"/>
       <use x="190.869141" xlink:href="#DejaVuSans-30"/>
       <use x="254.492188" xlink:href="#DejaVuSans-30"/>
       <use x="318.115234" xlink:href="#DejaVuSans-30"/>
      </g>
     </g>
    </g>
    <g id="ytick_8">
     <g id="line2d_14">
      <g>
       <use style="stroke:#000000;stroke-width:0.8;" x="66.053125" xlink:href="#mdb655117ad" y="34.154409"/>
      </g>
     </g>
     <g id="text_15">
      <!-- 500000 -->
      <g transform="translate(20.878125 37.953628)scale(0.1 -0.1)">
       <use xlink:href="#DejaVuSans-35"/>
       <use x="63.623047" xlink:href="#DejaVuSans-30"/>
       <use x="127.246094" xlink:href="#DejaVuSans-30"/>
       <use x="190.869141" xlink:href="#DejaVuSans-30"/>
       <use x="254.492188" xlink:href="#DejaVuSans-30"/>
       <use x="318.115234" xlink:href="#DejaVuSans-30"/>
      </g>
     </g>
    </g>
    <g id="text_16">
     <!-- Code region coverage -->
     <g transform="translate(14.798438 210.379594)rotate(-90)scale(0.1 -0.1)">
      <defs>
       <path d="M 4122 4306 
L 4122 3641 
Q 3803 3938 3442 4084 
Q 3081 4231 2675 4231 
Q 1875 4231 1450 3742 
Q 1025 3253 1025 2328 
Q 1025 1406 1450 917 
Q 1875 428 2675 428 
Q 3081 428 3442 575 
Q 3803 722 4122 1019 
L 4122 359 
Q 3791 134 3420 21 
Q 3050 -91 2638 -91 
Q 1578 -91 968 557 
Q 359 1206 359 2328 
Q 359 3453 968 4101 
Q 1578 4750 2638 4750 
Q 3056 4750 3426 4639 
Q 3797 4528 4122 4306 
z
" id="DejaVuSans-43" transform="scale(0.015625)"/>
       <path d="M 2906 2969 
L 2906 4863 
L 3481 4863 
L 3481 0 
L 2906 0 
L 2906 525 
Q 2725 213 2448 61 
Q 2172 -91 1784 -91 
Q 1150 -91 751 415 
Q 353 922 353 1747 
Q 353 2572 751 3078 
Q 1150 3584 1784 3584 
Q 2172 3584 2448 3432 
Q 2725 3281 2906 2969 
z
M 947 1747 
Q 947 1113 1208 752 
Q 1469 391 1925 391 
Q 2381 391 2643 752 
Q 2906 1113 2906 1747 
Q 2906 2381 2643 2742 
Q 2381 3103 1925 3103 
Q 1469 3103 1208 2742 
Q 947 2381 947 1747 
z
" id="DejaVuSans-64" transform="scale(0.015625)"/>
       <path d="M 2906 1791 
Q 2906 2416 2648 2759 
Q 2391 3103 1925 3103 
Q 1463 3103 1205 2759 
Q 947 2416 947 1791 
Q 947 1169 1205 825 
Q 1463 481 1925 481 
Q 2391 481 2648 825 
Q 2906 1169 2906 1791 
z
M 3481 434 
Q 3481 -459 3084 -895 
Q 2688 -1331 1869 -1331 
Q 1566 -1331 1297 -1286 
Q 1028 -1241 775 -1147 
L 775 -588 
Q 1028 -725 1275 -790 
Q 1522 -856 1778 -856 
Q 2344 -856 2625 -561 
Q 2906 -266 2906 331 
L 2906 616 
Q 2728 306 2450 153 
Q 2172 0 1784 0 
Q 1141 0 747 490 
Q 353 981 353 1791 
Q 353 2603 747 3093 
Q 1141 3584 1784 3584 
Q 2172 3584 2450 3431 
Q 2728 3278 2906 2969 
L 2906 3500 
L 3481 3500 
L 3481 434 
z
" id="DejaVuSans-67" transform="scale(0.015625)"/>
       <path d="M 3122 3366 
L 3122 2828 
Q 2878 2963 2633 3030 
Q 2388 3097 2138 3097 
Q 1578 3097 1268 2742 
Q 959 2388 959 1747 
Q 959 1106 1268 751 
Q 1578 397 2138 397 
Q 2388 397 2633 464 
Q 2878 531 3122 666 
L 3122 134 
Q 2881 22 2623 -34 
Q 2366 -91 2075 -91 
Q 1284 -91 818 406 
Q 353 903 353 1747 
Q 353 2603 823 3093 
Q 1294 3584 2113 3584 
Q 2378 3584 2631 3529 
Q 2884 3475 3122 3366 
z
" id="DejaVuSans-63" transform="scale(0.015625)"/>
       <path d="M 191 3500 
L 800 3500 
L 1894 563 
L 2988 3500 
L 3597 3500 
L 2284 0 
L 1503 0 
L 191 3500 
z
" id="DejaVuSans-76" transform="scale(0.015625)"/>
       <path d="M 2194 1759 
Q 1497 1759 1228 1600 
Q 959 1441 959 1056 
Q 959 750 1161 570 
Q 1363 391 1709 391 
Q 2188 391 2477 730 
Q 2766 1069 2766 1631 
L 2766 1759 
L 2194 1759 
z
M 3341 1997 
L 3341 0 
L 2766 0 
L 2766 531 
Q 2569 213 2275 61 
Q 1981 -91 1556 -91 
Q 1019 -91 701 211 
Q 384 513 384 1019 
Q 384 1609 779 1909 
Q 1175 2209 1959 2209 
L 2766 2209 
L 2766 2266 
Q 2766 2663 2505 2880 
Q 2244 3097 1772 3097 
Q 1472 3097 1187 3025 
Q 903 2953 641 2809 
L 641 3341 
Q 956 3463 1253 3523 
Q 1550 3584 1831 3584 
Q 2591 3584 2966 3190 
Q 3341 2797 3341 1997 
z
" id="DejaVuSans-61" transform="scale(0.015625)"/>
      </defs>
      <use xlink:href="#DejaVuSans-43"/>
      <use x="69.824219" xlink:href="#DejaVuSans-6f"/>
      <use x="131.005859" xlink:href="#DejaVuSans-64"/>
      <use x="194.482422" xlink:href="#DejaVuSans-65"/>
      <use x="256.005859" xlink:href="#DejaVuSans-20"/>
      <use x="287.792969" xlink:href="#DejaVuSans-72"/>
      <use x="326.65625" xlink:href="#DejaVuSans-65"/>
      <use x="388.179688" xlink:href="#DejaVuSans-67"/>
      <use x="451.65625" xlink:href="#DejaVuSans-69"/>
      <use x="479.439453" xlink:href="#DejaVuSans-6f"/>
      <use x="540.621094" xlink:href="#DejaVuSans-6e"/>
      <use x="604" xlink:href="#DejaVuSans-20"/>
      <use x="635.787109" xlink:href="#DejaVuSans-63"/>
      <use x="690.767578" xlink:href="#DejaVuSans-6f"/>
      <use x="751.949219" xlink:href="#DejaVuSans-76"/>
      <use x="811.128906" xlink:href="#DejaVuSans-65"/>
      <use x="872.652344" xlink:href="#DejaVuSans-72"/>
      <use x="913.765625" xlink:href="#DejaVuSans-61"/>
      <use x="975.044922" xlink:href="#DejaVuSans-67"/>
      <use x="1038.521484" xlink:href="#DejaVuSans-65"/>
     </g>
    </g>
   </g>
   <g id="line2d_15">
    <path clip-path="url(#pa887bd5a9e)" d="M 82.285852 223.243817 
L 85.853485 205.61733 
L 89.421117 192.302688 
L 92.988749 180.096728 
L 96.556382 167.374826 
L 100.124014 157.014805 
L 103.691646 147.089739 
L 107.259279 141.7495 
L 110.826911 135.176308 
L 114.394544 130.8498 
L 117.962176 126.043655 
L 121.529808 122.11859 
L 125.097441 117.190965 
L 128.665073 115.089499 
L 132.232705 111.531667 
L 135.800338 107.352471 
L 139.36797 103.354099 
L 142.935603 100.88889 
L 146.503235 98.073902 
L 150.070867 97.41763 
L 153.6385 95.120678 
L 157.206132 92.21493 
L 160.773764 91.177461 
L 164.341397 89.779742 
L 167.909029 88.810693 
L 171.476661 87.373877 
L 175.044294 84.727844 
L 178.611926 83.034104 
L 182.179559 80.82512 
L 185.747191 79.395285 
L 189.314823 78.334777 
L 192.882456 76.966381 
L 196.450088 74.720394 
L 200.01772 72.595889 
L 203.585353 69.035962 
L 207.152985 68.304289 
L 210.720618 66.914947 
L 214.28825 65.54655 
L 217.855882 64.678037 
L 221.423515 64.218647 
L 224.991147 62.913782 
L 228.558779 62.277059 
L 232.126412 61.796026 
L 235.694044 61.165586 
L 239.261676 60.065283 
L 242.829309 59.355951 
L 246.396941 59.626139 
L 249.964574 58.136262 
L 253.532206 57.870961 
L 257.099838 57.25239 
L 260.667471 56.809755 
L 264.235103 55.168377 
L 267.802735 54.599375 
L 271.370368 54.08483 
L 274.938 53.692463 
L 278.505632 53.303587 
L 282.073265 53.008265 
L 285.640897 52.342219 
L 289.20853 51.621017 
L 292.776162 51.121832 
L 296.343794 50.425067 
L 299.911427 49.772285 
L 303.479059 48.870261 
L 307.046691 48.395511 
L 310.614324 48.14138 
L 314.181956 47.905401 
L 317.749589 47.196069 
L 321.317221 45.517688 
L 324.884853 44.135328 
L 328.452486 43.104841 
L 332.020118 42.697115 
L 335.58775 42.419247 
L 339.155383 42.247499 
L 342.723015 42.070166 
L 346.290647 41.843961 
L 349.85828 41.485106 
L 353.425912 41.41529 
L 356.993545 41.281243 
L 360.561177 41.120666 
L 364.128809 41.034094 
L 367.696442 40.654294 
L 371.264074 40.589365 
L 374.831706 40.502793 
L 378.399339 40.303119 
L 381.966971 40.042704 
L 385.534604 39.601466 
L 389.102236 39.787177 
L 392.669868 38.975913 
L 396.237501 38.573074 
L 399.805133 38.288224 
L 403.372765 38.045264 
L 406.940398 37.915406 
" style="fill:none;stroke:#d62728;stroke-linecap:square;stroke-width:1.5;"/>
    <defs>
     <path d="M 0 -3 
L -3 3 
L 3 3 
z
" id="m5b79c3b6f0" style="stroke:#ffffff;stroke-linejoin:miter;stroke-width:0.75;"/>
    </defs>
    <g clip-path="url(#pa887bd5a9e)">
     <use style="fill:#d62728;stroke:#ffffff;stroke-linejoin:miter;stroke-width:0.75;" x="82.285852" xlink:href="#m5b79c3b6f0" y="223.243817"/>
     <use style="fill:#d62728;stroke:#ffffff;stroke-linejoin:miter;stroke-width:0.75;" x="85.853485" xlink:href="#m5b79c3b6f0" y="205.61733"/>
     <use style="fill:#d62728;stroke:#ffffff;stroke-linejoin:miter;stroke-width:0.75;" x="89.421117" xlink:href="#m5b79c3b6f0" y="192.302688"/>
     <use style="fill:#d62728;stroke:#ffffff;stroke-linejoin:miter;stroke-width:0.75;" x="92.988749" xlink:href="#m5b79c3b6f0" y="180.096728"/>
     <use style="fill:#d62728;stroke:#ffffff;stroke-linejoin:miter;stroke-width:0.75;" x="96.556382" xlink:href="#m5b79c3b6f0" y="167.374826"/>
     <use style="fill:#d62728;stroke:#ffffff;stroke-linejoin:miter;stroke-width:0.75;" x="100.124014" xlink:href="#m5b79c3b6f0" y="157.014805"/>
     <use style="fill:#d62728;stroke:#ffffff;stroke-linejoin:miter;stroke-width:0.75;" x="103.691646" xlink:href="#m5b79c3b6f0" y="147.089739"/>
     <use style="fill:#d62728;stroke:#ffffff;stroke-linejoin:miter;stroke-width:0.75;" x="107.259279" xlink:href="#m5b79c3b6f0" y="141.7495"/>
     <use style="fill:#d62728;stroke:#ffffff;stroke-linejoin:miter;stroke-width:0.75;" x="110.826911" xlink:href="#m5b79c3b6f0" y="135.176308"/>
     <use style="fill:#d62728;stroke:#ffffff;stroke-linejoin:miter;stroke-width:0.75;" x="114.394544" xlink:href="#m5b79c3b6f0" y="130.8498"/>
     <use style="fill:#d62728;stroke:#ffffff;stroke-linejoin:miter;stroke-width:0.75;" x="117.962176" xlink:href="#m5b79c3b6f0" y="126.043655"/>
     <use style="fill:#d62728;stroke:#ffffff;stroke-linejoin:miter;stroke-width:0.75;" x="121.529808" xlink:href="#m5b79c3b6f0" y="122.11859"/>
     <use style="fill:#d62728;stroke:#ffffff;stroke-linejoin:miter;stroke-width:0.75;" x="125.097441" xlink:href="#m5b79c3b6f0" y="117.190965"/>
     <use style="fill:#d62728;stroke:#ffffff;stroke-linejoin:miter;stroke-width:0.75;" x="128.665073" xlink:href="#m5b79c3b6f0" y="115.089499"/>
     <use style="fill:#d62728;stroke:#ffffff;stroke-linejoin:miter;stroke-width:0.75;" x="132.232705" xlink:href="#m5b79c3b6f0" y="111.531667"/>
     <use style="fill:#d62728;stroke:#ffffff;stroke-linejoin:miter;stroke-width:0.75;" x="135.800338" xlink:href="#m5b79c3b6f0" y="107.352471"/>
     <use style="fill:#d62728;stroke:#ffffff;stroke-linejoin:miter;stroke-width:0.75;" x="139.36797" xlink:href="#m5b79c3b6f0" y="103.354099"/>
     <use style="fill:#d62728;stroke:#ffffff;stroke-linejoin:miter;stroke-width:0.75;" x="142.935603" xlink:href="#m5b79c3b6f0" y="100.88889"/>
     <use style="fill:#d62728;stroke:#ffffff;stroke-linejoin:miter;stroke-width:0.75;" x="146.503235" xlink:href="#m5b79c3b6f0" y="98.073902"/>
     <use style="fill:#d62728;stroke:#ffffff;stroke-linejoin:miter;stroke-width:0.75;" x="150.070867" xlink:href="#m5b79c3b6f0" y="97.41763"/>
     <use style="fill:#d62728;stroke:#ffffff;stroke-linejoin:miter;stroke-width:0.75;" x="153.6385" xlink:href="#m5b79c3b6f0" y="95.120678"/>
     <use style="fill:#d62728;stroke:#ffffff;stroke-linejoin:miter;stroke-width:0.75;" x="157.206132" xlink:href="#m5b79c3b6f0" y="92.21493"/>
     <use style="fill:#d62728;stroke:#ffffff;stroke-linejoin:miter;stroke-width:0.75;" x="160.773764" xlink:href="#m5b79c3b6f0" y="91.177461"/>
     <use style="fill:#d62728;stroke:#ffffff;stroke-linejoin:miter;stroke-width:0.75;" x="164.341397" xlink:href="#m5b79c3b6f0" y="89.779742"/>
     <use style="fill:#d62728;stroke:#ffffff;stroke-linejoin:miter;stroke-width:0.75;" x="167.909029" xlink:href="#m5b79c3b6f0" y="88.810693"/>
     <use style="fill:#d62728;stroke:#ffffff;stroke-linejoin:miter;stroke-width:0.75;" x="171.476661" xlink:href="#m5b79c3b6f0" y="87.373877"/>
     <use style="fill:#d62728;stroke:#ffffff;stroke-linejoin:miter;stroke-width:0.75;" x="175.044294" xlink:href="#m5b79c3b6f0" y="84.727844"/>
     <use style="fill:#d62728;stroke:#ffffff;stroke-linejoin:miter;stroke-width:0.75;" x="178.611926" xlink:href="#m5b79c3b6f0" y="83.034104"/>
     <use style="fill:#d62728;stroke:#ffffff;stroke-linejoin:miter;stroke-width:0.75;" x="182.179559" xlink:href="#m5b79c3b6f0" y="80.82512"/>
     <use style="fill:#d62728;stroke:#ffffff;stroke-linejoin:miter;stroke-width:0.75;" x="185.747191" xlink:href="#m5b79c3b6f0" y="79.395285"/>
     <use style="fill:#d62728;stroke:#ffffff;stroke-linejoin:miter;stroke-width:0.75;" x="189.314823" xlink:href="#m5b79c3b6f0" y="78.334777"/>
     <use style="fill:#d62728;stroke:#ffffff;stroke-linejoin:miter;stroke-width:0.75;" x="192.882456" xlink:href="#m5b79c3b6f0" y="76.966381"/>
     <use style="fill:#d62728;stroke:#ffffff;stroke-linejoin:miter;stroke-width:0.75;" x="196.450088" xlink:href="#m5b79c3b6f0" y="74.720394"/>
     <use style="fill:#d62728;stroke:#ffffff;stroke-linejoin:miter;stroke-width:0.75;" x="200.01772" xlink:href="#m5b79c3b6f0" y="72.595889"/>
     <use style="fill:#d62728;stroke:#ffffff;stroke-linejoin:miter;stroke-width:0.75;" x="203.585353" xlink:href="#m5b79c3b6f0" y="69.035962"/>
     <use style="fill:#d62728;stroke:#ffffff;stroke-linejoin:miter;stroke-width:0.75;" x="207.152985" xlink:href="#m5b79c3b6f0" y="68.304289"/>
     <use style="fill:#d62728;stroke:#ffffff;stroke-linejoin:miter;stroke-width:0.75;" x="210.720618" xlink:href="#m5b79c3b6f0" y="66.914947"/>
     <use style="fill:#d62728;stroke:#ffffff;stroke-linejoin:miter;stroke-width:0.75;" x="214.28825" xlink:href="#m5b79c3b6f0" y="65.54655"/>
     <use style="fill:#d62728;stroke:#ffffff;stroke-linejoin:miter;stroke-width:0.75;" x="217.855882" xlink:href="#m5b79c3b6f0" y="64.678037"/>
     <use style="fill:#d62728;stroke:#ffffff;stroke-linejoin:miter;stroke-width:0.75;" x="221.423515" xlink:href="#m5b79c3b6f0" y="64.218647"/>
     <use style="fill:#d62728;stroke:#ffffff;stroke-linejoin:miter;stroke-width:0.75;" x="224.991147" xlink:href="#m5b79c3b6f0" y="62.913782"/>
     <use style="fill:#d62728;stroke:#ffffff;stroke-linejoin:miter;stroke-width:0.75;" x="228.558779" xlink:href="#m5b79c3b6f0" y="62.277059"/>
     <use style="fill:#d62728;stroke:#ffffff;stroke-linejoin:miter;stroke-width:0.75;" x="232.126412" xlink:href="#m5b79c3b6f0" y="61.796026"/>
     <use style="fill:#d62728;stroke:#ffffff;stroke-linejoin:miter;stroke-width:0.75;" x="235.694044" xlink:href="#m5b79c3b6f0" y="61.165586"/>
     <use style="fill:#d62728;stroke:#ffffff;stroke-linejoin:miter;stroke-width:0.75;" x="239.261676" xlink:href="#m5b79c3b6f0" y="60.065283"/>
     <use style="fill:#d62728;stroke:#ffffff;stroke-linejoin:miter;stroke-width:0.75;" x="242.829309" xlink:href="#m5b79c3b6f0" y="59.355951"/>
     <use style="fill:#d62728;stroke:#ffffff;stroke-linejoin:miter;stroke-width:0.75;" x="246.396941" xlink:href="#m5b79c3b6f0" y="59.626139"/>
     <use style="fill:#d62728;stroke:#ffffff;stroke-linejoin:miter;stroke-width:0.75;" x="249.964574" xlink:href="#m5b79c3b6f0" y="58.136262"/>
     <use style="fill:#d62728;stroke:#ffffff;stroke-linejoin:miter;stroke-width:0.75;" x="253.532206" xlink:href="#m5b79c3b6f0" y="57.870961"/>
     <use style="fill:#d62728;stroke:#ffffff;stroke-linejoin:miter;stroke-width:0.75;" x="257.099838" xlink:href="#m5b79c3b6f0" y="57.25239"/>
     <use style="fill:#d62728;stroke:#ffffff;stroke-linejoin:miter;stroke-width:0.75;" x="260.667471" xlink:href="#m5b79c3b6f0" y="56.809755"/>
     <use style="fill:#d62728;stroke:#ffffff;stroke-linejoin:miter;stroke-width:0.75;" x="264.235103" xlink:href="#m5b79c3b6f0" y="55.168377"/>
     <use style="fill:#d62728;stroke:#ffffff;stroke-linejoin:miter;stroke-width:0.75;" x="267.802735" xlink:href="#m5b79c3b6f0" y="54.599375"/>
     <use style="fill:#d62728;stroke:#ffffff;stroke-linejoin:miter;stroke-width:0.75;" x="271.370368" xlink:href="#m5b79c3b6f0" y="54.08483"/>
     <use style="fill:#d62728;stroke:#ffffff;stroke-linejoin:miter;stroke-width:0.75;" x="274.938" xlink:href="#m5b79c3b6f0" y="53.692463"/>
     <use style="fill:#d62728;stroke:#ffffff;stroke-linejoin:miter;stroke-width:0.75;" x="278.505632" xlink:href="#m5b79c3b6f0" y="53.303587"/>
     <use style="fill:#d62728;stroke:#ffffff;stroke-linejoin:miter;stroke-width:0.75;" x="282.073265" xlink:href="#m5b79c3b6f0" y="53.008265"/>
     <use style="fill:#d62728;stroke:#ffffff;stroke-linejoin:miter;stroke-width:0.75;" x="285.640897" xlink:href="#m5b79c3b6f0" y="52.342219"/>
     <use style="fill:#d62728;stroke:#ffffff;stroke-linejoin:miter;stroke-width:0.75;" x="289.20853" xlink:href="#m5b79c3b6f0" y="51.621017"/>
     <use style="fill:#d62728;stroke:#ffffff;stroke-linejoin:miter;stroke-width:0.75;" x="292.776162" xlink:href="#m5b79c3b6f0" y="51.121832"/>
     <use style="fill:#d62728;stroke:#ffffff;stroke-linejoin:miter;stroke-width:0.75;" x="296.343794" xlink:href="#m5b79c3b6f0" y="50.425067"/>
     <use style="fill:#d62728;stroke:#ffffff;stroke-linejoin:miter;stroke-width:0.75;" x="299.911427" xlink:href="#m5b79c3b6f0" y="49.772285"/>
     <use style="fill:#d62728;stroke:#ffffff;stroke-linejoin:miter;stroke-width:0.75;" x="303.479059" xlink:href="#m5b79c3b6f0" y="48.870261"/>
     <use style="fill:#d62728;stroke:#ffffff;stroke-linejoin:miter;stroke-width:0.75;" x="307.046691" xlink:href="#m5b79c3b6f0" y="48.395511"/>
     <use style="fill:#d62728;stroke:#ffffff;stroke-linejoin:miter;stroke-width:0.75;" x="310.614324" xlink:href="#m5b79c3b6f0" y="48.14138"/>
     <use style="fill:#d62728;stroke:#ffffff;stroke-linejoin:miter;stroke-width:0.75;" x="314.181956" xlink:href="#m5b79c3b6f0" y="47.905401"/>
     <use style="fill:#d62728;stroke:#ffffff;stroke-linejoin:miter;stroke-width:0.75;" x="317.749589" xlink:href="#m5b79c3b6f0" y="47.196069"/>
     <use style="fill:#d62728;stroke:#ffffff;stroke-linejoin:miter;stroke-width:0.75;" x="321.317221" xlink:href="#m5b79c3b6f0" y="45.517688"/>
     <use style="fill:#d62728;stroke:#ffffff;stroke-linejoin:miter;stroke-width:0.75;" x="324.884853" xlink:href="#m5b79c3b6f0" y="44.135328"/>
     <use style="fill:#d62728;stroke:#ffffff;stroke-linejoin:miter;stroke-width:0.75;" x="328.452486" xlink:href="#m5b79c3b6f0" y="43.104841"/>
     <use style="fill:#d62728;stroke:#ffffff;stroke-linejoin:miter;stroke-width:0.75;" x="332.020118" xlink:href="#m5b79c3b6f0" y="42.697115"/>
     <use style="fill:#d62728;stroke:#ffffff;stroke-linejoin:miter;stroke-width:0.75;" x="335.58775" xlink:href="#m5b79c3b6f0" y="42.419247"/>
     <use style="fill:#d62728;stroke:#ffffff;stroke-linejoin:miter;stroke-width:0.75;" x="339.155383" xlink:href="#m5b79c3b6f0" y="42.247499"/>
     <use style="fill:#d62728;stroke:#ffffff;stroke-linejoin:miter;stroke-width:0.75;" x="342.723015" xlink:href="#m5b79c3b6f0" y="42.070166"/>
     <use style="fill:#d62728;stroke:#ffffff;stroke-linejoin:miter;stroke-width:0.75;" x="346.290647" xlink:href="#m5b79c3b6f0" y="41.843961"/>
     <use style="fill:#d62728;stroke:#ffffff;stroke-linejoin:miter;stroke-width:0.75;" x="349.85828" xlink:href="#m5b79c3b6f0" y="41.485106"/>
     <use style="fill:#d62728;stroke:#ffffff;stroke-linejoin:miter;stroke-width:0.75;" x="353.425912" xlink:href="#m5b79c3b6f0" y="41.41529"/>
     <use style="fill:#d62728;stroke:#ffffff;stroke-linejoin:miter;stroke-width:0.75;" x="356.993545" xlink:href="#m5b79c3b6f0" y="41.281243"/>
     <use style="fill:#d62728;stroke:#ffffff;stroke-linejoin:miter;stroke-width:0.75;" x="360.561177" xlink:href="#m5b79c3b6f0" y="41.120666"/>
     <use style="fill:#d62728;stroke:#ffffff;stroke-linejoin:miter;stroke-width:0.75;" x="364.128809" xlink:href="#m5b79c3b6f0" y="41.034094"/>
     <use style="fill:#d62728;stroke:#ffffff;stroke-linejoin:miter;stroke-width:0.75;" x="367.696442" xlink:href="#m5b79c3b6f0" y="40.654294"/>
     <use style="fill:#d62728;stroke:#ffffff;stroke-linejoin:miter;stroke-width:0.75;" x="371.264074" xlink:href="#m5b79c3b6f0" y="40.589365"/>
     <use style="fill:#d62728;stroke:#ffffff;stroke-linejoin:miter;stroke-width:0.75;" x="374.831706" xlink:href="#m5b79c3b6f0" y="40.502793"/>
     <use style="fill:#d62728;stroke:#ffffff;stroke-linejoin:miter;stroke-width:0.75;" x="378.399339" xlink:href="#m5b79c3b6f0" y="40.303119"/>
     <use style="fill:#d62728;stroke:#ffffff;stroke-linejoin:miter;stroke-width:0.75;" x="381.966971" xlink:href="#m5b79c3b6f0" y="40.042704"/>
     <use style="fill:#d62728;stroke:#ffffff;stroke-linejoin:miter;stroke-width:0.75;" x="385.534604" xlink:href="#m5b79c3b6f0" y="39.601466"/>
     <use style="fill:#d62728;stroke:#ffffff;stroke-linejoin:miter;stroke-width:0.75;" x="389.102236" xlink:href="#m5b79c3b6f0" y="39.787177"/>
     <use style="fill:#d62728;stroke:#ffffff;stroke-linejoin:miter;stroke-width:0.75;" x="392.669868" xlink:href="#m5b79c3b6f0" y="38.975913"/>
     <use style="fill:#d62728;stroke:#ffffff;stroke-linejoin:miter;stroke-width:0.75;" x="396.237501" xlink:href="#m5b79c3b6f0" y="38.573074"/>
     <use style="fill:#d62728;stroke:#ffffff;stroke-linejoin:miter;stroke-width:0.75;" x="399.805133" xlink:href="#m5b79c3b6f0" y="38.288224"/>
     <use style="fill:#d62728;stroke:#ffffff;stroke-linejoin:miter;stroke-width:0.75;" x="403.372765" xlink:href="#m5b79c3b6f0" y="38.045264"/>
     <use style="fill:#d62728;stroke:#ffffff;stroke-linejoin:miter;stroke-width:0.75;" x="406.940398" xlink:href="#m5b79c3b6f0" y="37.915406"/>
    </g>
   </g>
   <g id="line2d_16">
    <path clip-path="url(#pa887bd5a9e)" d="M 82.285852 226.369487 
L 85.853485 205.33248 
L 89.421117 190.072062 
L 92.988749 181.927308 
L 96.556382 174.103708 
L 100.124014 164.417413 
L 103.691646 160.216574 
L 107.259279 159.495373 
L 110.826911 159.544245 
L 114.394544 159.123253 
L 117.962176 150.353644 
L 121.529808 143.762998 
L 125.097441 143.764395 
L 128.665073 142.992926 
L 132.232705 142.687829 
L 135.800338 136.095787 
L 139.36797 133.687129 
L 142.935603 132.406002 
L 146.503235 131.90193 
L 150.070867 131.68899 
L 153.6385 131.54866 
L 157.206132 128.633137 
L 160.773764 124.108351 
L 164.341397 116.536788 
L 167.909029 117.714586 
L 171.476661 117.516308 
L 175.044294 122.161178 
L 178.611926 121.98943 
L 182.179559 114.807441 
L 185.747191 109.521659 
L 189.314823 118.627084 
L 192.882456 118.228433 
L 196.450088 110.603112 
L 200.01772 108.470228 
L 203.585353 106.859569 
L 207.152985 106.651517 
L 210.720618 106.432294 
L 214.28825 105.061104 
L 217.855882 102.102295 
L 221.423515 106.220053 
L 224.991147 108.57565 
L 228.558779 103.442067 
L 232.126412 101.384585 
L 235.694044 99.436714 
L 239.261676 96.477905 
L 242.829309 95.375507 
L 246.396941 95.236573 
L 249.964574 94.113929 
L 253.532206 92.9857 
L 257.099838 90.55889 
L 260.667471 89.154189 
L 264.235103 88.835827 
L 267.802735 88.747161 
L 271.370368 88.700384 
L 274.938 88.057377 
L 278.505632 85.650814 
L 282.073265 84.256585 
L 285.640897 83.966149 
L 289.20853 84.413671 
L 292.776162 84.356422 
L 296.343794 82.941946 
L 299.911427 82.421118 
L 303.479059 81.86189 
L 307.046691 80.820931 
L 310.614324 80.708527 
L 314.181956 80.531194 
L 317.749589 80.425772 
L 321.317221 81.179786 
L 324.884853 79.23401 
L 328.452486 78.112762 
L 332.020118 77.324538 
L 335.58775 76.759027 
L 339.155383 76.274502 
L 342.723015 74.030611 
L 346.290647 75.297076 
L 349.85828 74.469056 
L 353.425912 74.590536 
L 356.993545 72.507222 
L 360.561177 71.314762 
L 364.128809 71.863517 
L 367.696442 70.727608 
L 371.264074 70.238895 
L 374.831706 69.522581 
L 378.399339 69.690838 
L 381.966971 69.271243 
L 385.534604 68.885159 
L 389.102236 68.364331 
L 392.669868 68.23168 
L 396.237501 66.248901 
L 399.805133 63.519089 
L 403.372765 63.00594 
L 406.940398 63.248202 
" style="fill:none;stroke:#1f77b4;stroke-linecap:square;stroke-width:1.5;"/>
    <defs>
     <path d="M 0 3 
C 0.795609 3 1.55874 2.683901 2.12132 2.12132 
C 2.683901 1.55874 3 0.795609 3 0 
C 3 -0.795609 2.683901 -1.55874 2.12132 -2.12132 
C 1.55874 -2.683901 0.795609 -3 0 -3 
C -0.795609 -3 -1.55874 -2.683901 -2.12132 -2.12132 
C -2.683901 -1.55874 -3 -0.795609 -3 0 
C -3 0.795609 -2.683901 1.55874 -2.12132 2.12132 
C -1.55874 2.683901 -0.795609 3 0 3 
z
" id="m09bdbdfa71" style="stroke:#ffffff;stroke-width:0.75;"/>
    </defs>
    <g clip-path="url(#pa887bd5a9e)">
     <use style="fill:#1f77b4;stroke:#ffffff;stroke-width:0.75;" x="82.285852" xlink:href="#m09bdbdfa71" y="226.369487"/>
     <use style="fill:#1f77b4;stroke:#ffffff;stroke-width:0.75;" x="85.853485" xlink:href="#m09bdbdfa71" y="205.33248"/>
     <use style="fill:#1f77b4;stroke:#ffffff;stroke-width:0.75;" x="89.421117" xlink:href="#m09bdbdfa71" y="190.072062"/>
     <use style="fill:#1f77b4;stroke:#ffffff;stroke-width:0.75;" x="92.988749" xlink:href="#m09bdbdfa71" y="181.927308"/>
     <use style="fill:#1f77b4;stroke:#ffffff;stroke-width:0.75;" x="96.556382" xlink:href="#m09bdbdfa71" y="174.103708"/>
     <use style="fill:#1f77b4;stroke:#ffffff;stroke-width:0.75;" x="100.124014" xlink:href="#m09bdbdfa71" y="164.417413"/>
     <use style="fill:#1f77b4;stroke:#ffffff;stroke-width:0.75;" x="103.691646" xlink:href="#m09bdbdfa71" y="160.216574"/>
     <use style="fill:#1f77b4;stroke:#ffffff;stroke-width:0.75;" x="107.259279" xlink:href="#m09bdbdfa71" y="159.495373"/>
     <use style="fill:#1f77b4;stroke:#ffffff;stroke-width:0.75;" x="110.826911" xlink:href="#m09bdbdfa71" y="159.544245"/>
     <use style="fill:#1f77b4;stroke:#ffffff;stroke-width:0.75;" x="114.394544" xlink:href="#m09bdbdfa71" y="159.123253"/>
     <use style="fill:#1f77b4;stroke:#ffffff;stroke-width:0.75;" x="117.962176" xlink:href="#m09bdbdfa71" y="150.353644"/>
     <use style="fill:#1f77b4;stroke:#ffffff;stroke-width:0.75;" x="121.529808" xlink:href="#m09bdbdfa71" y="143.762998"/>
     <use style="fill:#1f77b4;stroke:#ffffff;stroke-width:0.75;" x="125.097441" xlink:href="#m09bdbdfa71" y="143.764395"/>
     <use style="fill:#1f77b4;stroke:#ffffff;stroke-width:0.75;" x="128.665073" xlink:href="#m09bdbdfa71" y="142.992926"/>
     <use style="fill:#1f77b4;stroke:#ffffff;stroke-width:0.75;" x="132.232705" xlink:href="#m09bdbdfa71" y="142.687829"/>
     <use style="fill:#1f77b4;stroke:#ffffff;stroke-width:0.75;" x="135.800338" xlink:href="#m09bdbdfa71" y="136.095787"/>
     <use style="fill:#1f77b4;stroke:#ffffff;stroke-width:0.75;" x="139.36797" xlink:href="#m09bdbdfa71" y="133.687129"/>
     <use style="fill:#1f77b4;stroke:#ffffff;stroke-width:0.75;" x="142.935603" xlink:href="#m09bdbdfa71" y="132.406002"/>
     <use style="fill:#1f77b4;stroke:#ffffff;stroke-width:0.75;" x="146.503235" xlink:href="#m09bdbdfa71" y="131.90193"/>
     <use style="fill:#1f77b4;stroke:#ffffff;stroke-width:0.75;" x="150.070867" xlink:href="#m09bdbdfa71" y="131.68899"/>
     <use style="fill:#1f77b4;stroke:#ffffff;stroke-width:0.75;" x="153.6385" xlink:href="#m09bdbdfa71" y="131.54866"/>
     <use style="fill:#1f77b4;stroke:#ffffff;stroke-width:0.75;" x="157.206132" xlink:href="#m09bdbdfa71" y="128.633137"/>
     <use style="fill:#1f77b4;stroke:#ffffff;stroke-width:0.75;" x="160.773764" xlink:href="#m09bdbdfa71" y="124.108351"/>
     <use style="fill:#1f77b4;stroke:#ffffff;stroke-width:0.75;" x="164.341397" xlink:href="#m09bdbdfa71" y="116.536788"/>
     <use style="fill:#1f77b4;stroke:#ffffff;stroke-width:0.75;" x="167.909029" xlink:href="#m09bdbdfa71" y="117.714586"/>
     <use style="fill:#1f77b4;stroke:#ffffff;stroke-width:0.75;" x="171.476661" xlink:href="#m09bdbdfa71" y="117.516308"/>
     <use style="fill:#1f77b4;stroke:#ffffff;stroke-width:0.75;" x="175.044294" xlink:href="#m09bdbdfa71" y="122.161178"/>
     <use style="fill:#1f77b4;stroke:#ffffff;stroke-width:0.75;" x="178.611926" xlink:href="#m09bdbdfa71" y="121.98943"/>
     <use style="fill:#1f77b4;stroke:#ffffff;stroke-width:0.75;" x="182.179559" xlink:href="#m09bdbdfa71" y="114.807441"/>
     <use style="fill:#1f77b4;stroke:#ffffff;stroke-width:0.75;" x="185.747191" xlink:href="#m09bdbdfa71" y="109.521659"/>
     <use style="fill:#1f77b4;stroke:#ffffff;stroke-width:0.75;" x="189.314823" xlink:href="#m09bdbdfa71" y="118.627084"/>
     <use style="fill:#1f77b4;stroke:#ffffff;stroke-width:0.75;" x="192.882456" xlink:href="#m09bdbdfa71" y="118.228433"/>
     <use style="fill:#1f77b4;stroke:#ffffff;stroke-width:0.75;" x="196.450088" xlink:href="#m09bdbdfa71" y="110.603112"/>
     <use style="fill:#1f77b4;stroke:#ffffff;stroke-width:0.75;" x="200.01772" xlink:href="#m09bdbdfa71" y="108.470228"/>
     <use style="fill:#1f77b4;stroke:#ffffff;stroke-width:0.75;" x="203.585353" xlink:href="#m09bdbdfa71" y="106.859569"/>
     <use style="fill:#1f77b4;stroke:#ffffff;stroke-width:0.75;" x="207.152985" xlink:href="#m09bdbdfa71" y="106.651517"/>
     <use style="fill:#1f77b4;stroke:#ffffff;stroke-width:0.75;" x="210.720618" xlink:href="#m09bdbdfa71" y="106.432294"/>
     <use style="fill:#1f77b4;stroke:#ffffff;stroke-width:0.75;" x="214.28825" xlink:href="#m09bdbdfa71" y="105.061104"/>
     <use style="fill:#1f77b4;stroke:#ffffff;stroke-width:0.75;" x="217.855882" xlink:href="#m09bdbdfa71" y="102.102295"/>
     <use style="fill:#1f77b4;stroke:#ffffff;stroke-width:0.75;" x="221.423515" xlink:href="#m09bdbdfa71" y="106.220053"/>
     <use style="fill:#1f77b4;stroke:#ffffff;stroke-width:0.75;" x="224.991147" xlink:href="#m09bdbdfa71" y="108.57565"/>
     <use style="fill:#1f77b4;stroke:#ffffff;stroke-width:0.75;" x="228.558779" xlink:href="#m09bdbdfa71" y="103.442067"/>
     <use style="fill:#1f77b4;stroke:#ffffff;stroke-width:0.75;" x="232.126412" xlink:href="#m09bdbdfa71" y="101.384585"/>
     <use style="fill:#1f77b4;stroke:#ffffff;stroke-width:0.75;" x="235.694044" xlink:href="#m09bdbdfa71" y="99.436714"/>
     <use style="fill:#1f77b4;stroke:#ffffff;stroke-width:0.75;" x="239.261676" xlink:href="#m09bdbdfa71" y="96.477905"/>
     <use style="fill:#1f77b4;stroke:#ffffff;stroke-width:0.75;" x="242.829309" xlink:href="#m09bdbdfa71" y="95.375507"/>
     <use style="fill:#1f77b4;stroke:#ffffff;stroke-width:0.75;" x="246.396941" xlink:href="#m09bdbdfa71" y="95.236573"/>
     <use style="fill:#1f77b4;stroke:#ffffff;stroke-width:0.75;" x="249.964574" xlink:href="#m09bdbdfa71" y="94.113929"/>
     <use style="fill:#1f77b4;stroke:#ffffff;stroke-width:0.75;" x="253.532206" xlink:href="#m09bdbdfa71" y="92.9857"/>
     <use style="fill:#1f77b4;stroke:#ffffff;stroke-width:0.75;" x="257.099838" xlink:href="#m09bdbdfa71" y="90.55889"/>
     <use style="fill:#1f77b4;stroke:#ffffff;stroke-width:0.75;" x="260.667471" xlink:href="#m09bdbdfa71" y="89.154189"/>
     <use style="fill:#1f77b4;stroke:#ffffff;stroke-width:0.75;" x="264.235103" xlink:href="#m09bdbdfa71" y="88.835827"/>
     <use style="fill:#1f77b4;stroke:#ffffff;stroke-width:0.75;" x="267.802735" xlink:href="#m09bdbdfa71" y="88.747161"/>
     <use style="fill:#1f77b4;stroke:#ffffff;stroke-width:0.75;" x="271.370368" xlink:href="#m09bdbdfa71" y="88.700384"/>
     <use style="fill:#1f77b4;stroke:#ffffff;stroke-width:0.75;" x="274.938" xlink:href="#m09bdbdfa71" y="88.057377"/>
     <use style="fill:#1f77b4;stroke:#ffffff;stroke-width:0.75;" x="278.505632" xlink:href="#m09bdbdfa71" y="85.650814"/>
     <use style="fill:#1f77b4;stroke:#ffffff;stroke-width:0.75;" x="282.073265" xlink:href="#m09bdbdfa71" y="84.256585"/>
     <use style="fill:#1f77b4;stroke:#ffffff;stroke-width:0.75;" x="285.640897" xlink:href="#m09bdbdfa71" y="83.966149"/>
     <use style="fill:#1f77b4;stroke:#ffffff;stroke-width:0.75;" x="289.20853" xlink:href="#m09bdbdfa71" y="84.413671"/>
     <use style="fill:#1f77b4;stroke:#ffffff;stroke-width:0.75;" x="292.776162" xlink:href="#m09bdbdfa71" y="84.356422"/>
     <use style="fill:#1f77b4;stroke:#ffffff;stroke-width:0.75;" x="296.343794" xlink:href="#m09bdbdfa71" y="82.941946"/>
     <use style="fill:#1f77b4;stroke:#ffffff;stroke-width:0.75;" x="299.911427" xlink:href="#m09bdbdfa71" y="82.421118"/>
     <use style="fill:#1f77b4;stroke:#ffffff;stroke-width:0.75;" x="303.479059" xlink:href="#m09bdbdfa71" y="81.86189"/>
     <use style="fill:#1f77b4;stroke:#ffffff;stroke-width:0.75;" x="307.046691" xlink:href="#m09bdbdfa71" y="80.820931"/>
     <use style="fill:#1f77b4;stroke:#ffffff;stroke-width:0.75;" x="310.614324" xlink:href="#m09bdbdfa71" y="80.708527"/>
     <use style="fill:#1f77b4;stroke:#ffffff;stroke-width:0.75;" x="314.181956" xlink:href="#m09bdbdfa71" y="80.531194"/>
     <use style="fill:#1f77b4;stroke:#ffffff;stroke-width:0.75;" x="317.749589" xlink:href="#m09bdbdfa71" y="80.425772"/>
     <use style="fill:#1f77b4;stroke:#ffffff;stroke-width:0.75;" x="321.317221" xlink:href="#m09bdbdfa71" y="81.179786"/>
     <use style="fill:#1f77b4;stroke:#ffffff;stroke-width:0.75;" x="324.884853" xlink:href="#m09bdbdfa71" y="79.23401"/>
     <use style="fill:#1f77b4;stroke:#ffffff;stroke-width:0.75;" x="328.452486" xlink:href="#m09bdbdfa71" y="78.112762"/>
     <use style="fill:#1f77b4;stroke:#ffffff;stroke-width:0.75;" x="332.020118" xlink:href="#m09bdbdfa71" y="77.324538"/>
     <use style="fill:#1f77b4;stroke:#ffffff;stroke-width:0.75;" x="335.58775" xlink:href="#m09bdbdfa71" y="76.759027"/>
     <use style="fill:#1f77b4;stroke:#ffffff;stroke-width:0.75;" x="339.155383" xlink:href="#m09bdbdfa71" y="76.274502"/>
     <use style="fill:#1f77b4;stroke:#ffffff;stroke-width:0.75;" x="342.723015" xlink:href="#m09bdbdfa71" y="74.030611"/>
     <use style="fill:#1f77b4;stroke:#ffffff;stroke-width:0.75;" x="346.290647" xlink:href="#m09bdbdfa71" y="75.297076"/>
     <use style="fill:#1f77b4;stroke:#ffffff;stroke-width:0.75;" x="349.85828" xlink:href="#m09bdbdfa71" y="74.469056"/>
     <use style="fill:#1f77b4;stroke:#ffffff;stroke-width:0.75;" x="353.425912" xlink:href="#m09bdbdfa71" y="74.590536"/>
     <use style="fill:#1f77b4;stroke:#ffffff;stroke-width:0.75;" x="356.993545" xlink:href="#m09bdbdfa71" y="72.507222"/>
     <use style="fill:#1f77b4;stroke:#ffffff;stroke-width:0.75;" x="360.561177" xlink:href="#m09bdbdfa71" y="71.314762"/>
     <use style="fill:#1f77b4;stroke:#ffffff;stroke-width:0.75;" x="364.128809" xlink:href="#m09bdbdfa71" y="71.863517"/>
     <use style="fill:#1f77b4;stroke:#ffffff;stroke-width:0.75;" x="367.696442" xlink:href="#m09bdbdfa71" y="70.727608"/>
     <use style="fill:#1f77b4;stroke:#ffffff;stroke-width:0.75;" x="371.264074" xlink:href="#m09bdbdfa71" y="70.238895"/>
     <use style="fill:#1f77b4;stroke:#ffffff;stroke-width:0.75;" x="374.831706" xlink:href="#m09bdbdfa71" y="69.522581"/>
     <use style="fill:#1f77b4;stroke:#ffffff;stroke-width:0.75;" x="378.399339" xlink:href="#m09bdbdfa71" y="69.690838"/>
     <use style="fill:#1f77b4;stroke:#ffffff;stroke-width:0.75;" x="381.966971" xlink:href="#m09bdbdfa71" y="69.271243"/>
     <use style="fill:#1f77b4;stroke:#ffffff;stroke-width:0.75;" x="385.534604" xlink:href="#m09bdbdfa71" y="68.885159"/>
     <use style="fill:#1f77b4;stroke:#ffffff;stroke-width:0.75;" x="389.102236" xlink:href="#m09bdbdfa71" y="68.364331"/>
     <use style="fill:#1f77b4;stroke:#ffffff;stroke-width:0.75;" x="392.669868" xlink:href="#m09bdbdfa71" y="68.23168"/>
     <use style="fill:#1f77b4;stroke:#ffffff;stroke-width:0.75;" x="396.237501" xlink:href="#m09bdbdfa71" y="66.248901"/>
     <use style="fill:#1f77b4;stroke:#ffffff;stroke-width:0.75;" x="399.805133" xlink:href="#m09bdbdfa71" y="63.519089"/>
     <use style="fill:#1f77b4;stroke:#ffffff;stroke-width:0.75;" x="403.372765" xlink:href="#m09bdbdfa71" y="63.00594"/>
     <use style="fill:#1f77b4;stroke:#ffffff;stroke-width:0.75;" x="406.940398" xlink:href="#m09bdbdfa71" y="63.248202"/>
    </g>
   </g>
   <g id="line2d_17">
    <path clip-path="url(#pa887bd5a9e)" d="M 82.285852 275.996215 
L 85.853485 274.833077 
L 89.421117 274.03089 
L 92.988749 273.477946 
L 96.556382 272.990629 
L 100.124014 272.464913 
L 103.691646 272.06347 
L 107.259279 271.69135 
L 110.826911 271.367403 
L 114.394544 271.025304 
L 117.962176 270.739057 
L 121.529808 270.397656 
L 125.097441 270.118392 
L 128.665073 269.64434 
L 132.232705 269.554975 
L 135.800338 269.511689 
L 139.36797 269.371359 
L 142.935603 269.279899 
L 146.503235 269.042525 
L 150.070867 268.925233 
L 153.6385 268.757675 
L 157.206132 268.716483 
L 160.773764 268.504242 
L 164.341397 268.374384 
L 167.909029 268.206825 
L 171.476661 268.155859 
L 175.044294 268.012736 
L 178.611926 267.96177 
L 182.179559 267.82912 
L 185.747191 267.603613 
L 189.314823 267.519834 
L 192.882456 267.482831 
L 196.450088 267.362049 
L 200.01772 267.336916 
L 203.585353 267.227304 
L 207.152985 267.166564 
L 210.720618 267.110711 
L 214.28825 267.078596 
L 217.855882 267.039499 
L 221.423515 266.986438 
L 224.991147 266.925698 
L 228.558779 266.894281 
L 232.126412 266.737195 
L 235.694044 266.677153 
L 239.261676 266.631772 
L 242.829309 266.55288 
L 246.396941 266.530539 
L 249.964574 266.480271 
L 253.532206 266.45025 
L 257.099838 266.386718 
L 260.667471 266.377641 
L 264.235103 266.338544 
L 267.802735 266.314807 
L 271.370368 266.295957 
L 274.938 266.248482 
L 278.505632 266.220555 
L 282.073265 266.197516 
L 285.640897 266.151437 
L 289.20853 266.048807 
L 292.776162 266.018088 
L 296.343794 265.934309 
L 299.911427 265.943385 
L 303.479059 265.936403 
L 307.046691 265.851228 
L 310.614324 265.748598 
L 314.181956 265.744409 
L 317.749589 265.709501 
L 321.317221 265.702519 
L 324.884853 265.689254 
L 328.452486 265.467937 
L 332.020118 265.416273 
L 335.58775 265.391837 
L 339.155383 265.372987 
L 342.723015 265.34506 
L 346.290647 265.330399 
L 349.85828 265.290604 
L 353.425912 265.275244 
L 356.993545 265.179596 
L 360.561177 265.168425 
L 364.128809 265.139103 
L 367.696442 265.093024 
L 371.264074 265.076268 
L 374.831706 265.072079 
L 378.399339 265.047643 
L 381.966971 265.035077 
L 385.534604 265.011339 
L 389.102236 265.005754 
L 392.669868 264.962468 
L 396.237501 264.934541 
L 399.805133 264.887066 
L 403.372765 264.878688 
L 406.940398 264.864725 
" style="fill:none;stroke:#98df8a;stroke-linecap:square;stroke-width:1.5;"/>
    <defs>
     <path d="M -0 3 
L 3 -3 
L -3 -3 
z
" id="mea1507df04" style="stroke:#ffffff;stroke-linejoin:miter;stroke-width:0.75;"/>
    </defs>
    <g clip-path="url(#pa887bd5a9e)">
     <use style="fill:#98df8a;stroke:#ffffff;stroke-linejoin:miter;stroke-width:0.75;" x="82.285852" xlink:href="#mea1507df04" y="275.996215"/>
     <use style="fill:#98df8a;stroke:#ffffff;stroke-linejoin:miter;stroke-width:0.75;" x="85.853485" xlink:href="#mea1507df04" y="274.833077"/>
     <use style="fill:#98df8a;stroke:#ffffff;stroke-linejoin:miter;stroke-width:0.75;" x="89.421117" xlink:href="#mea1507df04" y="274.03089"/>
     <use style="fill:#98df8a;stroke:#ffffff;stroke-linejoin:miter;stroke-width:0.75;" x="92.988749" xlink:href="#mea1507df04" y="273.477946"/>
     <use style="fill:#98df8a;stroke:#ffffff;stroke-linejoin:miter;stroke-width:0.75;" x="96.556382" xlink:href="#mea1507df04" y="272.990629"/>
     <use style="fill:#98df8a;stroke:#ffffff;stroke-linejoin:miter;stroke-width:0.75;" x="100.124014" xlink:href="#mea1507df04" y="272.464913"/>
     <use style="fill:#98df8a;stroke:#ffffff;stroke-linejoin:miter;stroke-width:0.75;" x="103.691646" xlink:href="#mea1507df04" y="272.06347"/>
     <use style="fill:#98df8a;stroke:#ffffff;stroke-linejoin:miter;stroke-width:0.75;" x="107.259279" xlink:href="#mea1507df04" y="271.69135"/>
     <use style="fill:#98df8a;stroke:#ffffff;stroke-linejoin:miter;stroke-width:0.75;" x="110.826911" xlink:href="#mea1507df04" y="271.367403"/>
     <use style="fill:#98df8a;stroke:#ffffff;stroke-linejoin:miter;stroke-width:0.75;" x="114.394544" xlink:href="#mea1507df04" y="271.025304"/>
     <use style="fill:#98df8a;stroke:#ffffff;stroke-linejoin:miter;stroke-width:0.75;" x="117.962176" xlink:href="#mea1507df04" y="270.739057"/>
     <use style="fill:#98df8a;stroke:#ffffff;stroke-linejoin:miter;stroke-width:0.75;" x="121.529808" xlink:href="#mea1507df04" y="270.397656"/>
     <use style="fill:#98df8a;stroke:#ffffff;stroke-linejoin:miter;stroke-width:0.75;" x="125.097441" xlink:href="#mea1507df04" y="270.118392"/>
     <use style="fill:#98df8a;stroke:#ffffff;stroke-linejoin:miter;stroke-width:0.75;" x="128.665073" xlink:href="#mea1507df04" y="269.64434"/>
     <use style="fill:#98df8a;stroke:#ffffff;stroke-linejoin:miter;stroke-width:0.75;" x="132.232705" xlink:href="#mea1507df04" y="269.554975"/>
     <use style="fill:#98df8a;stroke:#ffffff;stroke-linejoin:miter;stroke-width:0.75;" x="135.800338" xlink:href="#mea1507df04" y="269.511689"/>
     <use style="fill:#98df8a;stroke:#ffffff;stroke-linejoin:miter;stroke-width:0.75;" x="139.36797" xlink:href="#mea1507df04" y="269.371359"/>
     <use style="fill:#98df8a;stroke:#ffffff;stroke-linejoin:miter;stroke-width:0.75;" x="142.935603" xlink:href="#mea1507df04" y="269.279899"/>
     <use style="fill:#98df8a;stroke:#ffffff;stroke-linejoin:miter;stroke-width:0.75;" x="146.503235" xlink:href="#mea1507df04" y="269.042525"/>
     <use style="fill:#98df8a;stroke:#ffffff;stroke-linejoin:miter;stroke-width:0.75;" x="150.070867" xlink:href="#mea1507df04" y="268.925233"/>
     <use style="fill:#98df8a;stroke:#ffffff;stroke-linejoin:miter;stroke-width:0.75;" x="153.6385" xlink:href="#mea1507df04" y="268.757675"/>
     <use style="fill:#98df8a;stroke:#ffffff;stroke-linejoin:miter;stroke-width:0.75;" x="157.206132" xlink:href="#mea1507df04" y="268.716483"/>
     <use style="fill:#98df8a;stroke:#ffffff;stroke-linejoin:miter;stroke-width:0.75;" x="160.773764" xlink:href="#mea1507df04" y="268.504242"/>
     <use style="fill:#98df8a;stroke:#ffffff;stroke-linejoin:miter;stroke-width:0.75;" x="164.341397" xlink:href="#mea1507df04" y="268.374384"/>
     <use style="fill:#98df8a;stroke:#ffffff;stroke-linejoin:miter;stroke-width:0.75;" x="167.909029" xlink:href="#mea1507df04" y="268.206825"/>
     <use style="fill:#98df8a;stroke:#ffffff;stroke-linejoin:miter;stroke-width:0.75;" x="171.476661" xlink:href="#mea1507df04" y="268.155859"/>
     <use style="fill:#98df8a;stroke:#ffffff;stroke-linejoin:miter;stroke-width:0.75;" x="175.044294" xlink:href="#mea1507df04" y="268.012736"/>
     <use style="fill:#98df8a;stroke:#ffffff;stroke-linejoin:miter;stroke-width:0.75;" x="178.611926" xlink:href="#mea1507df04" y="267.96177"/>
     <use style="fill:#98df8a;stroke:#ffffff;stroke-linejoin:miter;stroke-width:0.75;" x="182.179559" xlink:href="#mea1507df04" y="267.82912"/>
     <use style="fill:#98df8a;stroke:#ffffff;stroke-linejoin:miter;stroke-width:0.75;" x="185.747191" xlink:href="#mea1507df04" y="267.603613"/>
     <use style="fill:#98df8a;stroke:#ffffff;stroke-linejoin:miter;stroke-width:0.75;" x="189.314823" xlink:href="#mea1507df04" y="267.519834"/>
     <use style="fill:#98df8a;stroke:#ffffff;stroke-linejoin:miter;stroke-width:0.75;" x="192.882456" xlink:href="#mea1507df04" y="267.482831"/>
     <use style="fill:#98df8a;stroke:#ffffff;stroke-linejoin:miter;stroke-width:0.75;" x="196.450088" xlink:href="#mea1507df04" y="267.362049"/>
     <use style="fill:#98df8a;stroke:#ffffff;stroke-linejoin:miter;stroke-width:0.75;" x="200.01772" xlink:href="#mea1507df04" y="267.336916"/>
     <use style="fill:#98df8a;stroke:#ffffff;stroke-linejoin:miter;stroke-width:0.75;" x="203.585353" xlink:href="#mea1507df04" y="267.227304"/>
     <use style="fill:#98df8a;stroke:#ffffff;stroke-linejoin:miter;stroke-width:0.75;" x="207.152985" xlink:href="#mea1507df04" y="267.166564"/>
     <use style="fill:#98df8a;stroke:#ffffff;stroke-linejoin:miter;stroke-width:0.75;" x="210.720618" xlink:href="#mea1507df04" y="267.110711"/>
     <use style="fill:#98df8a;stroke:#ffffff;stroke-linejoin:miter;stroke-width:0.75;" x="214.28825" xlink:href="#mea1507df04" y="267.078596"/>
     <use style="fill:#98df8a;stroke:#ffffff;stroke-linejoin:miter;stroke-width:0.75;" x="217.855882" xlink:href="#mea1507df04" y="267.039499"/>
     <use style="fill:#98df8a;stroke:#ffffff;stroke-linejoin:miter;stroke-width:0.75;" x="221.423515" xlink:href="#mea1507df04" y="266.986438"/>
     <use style="fill:#98df8a;stroke:#ffffff;stroke-linejoin:miter;stroke-width:0.75;" x="224.991147" xlink:href="#mea1507df04" y="266.925698"/>
     <use style="fill:#98df8a;stroke:#ffffff;stroke-linejoin:miter;stroke-width:0.75;" x="228.558779" xlink:href="#mea1507df04" y="266.894281"/>
     <use style="fill:#98df8a;stroke:#ffffff;stroke-linejoin:miter;stroke-width:0.75;" x="232.126412" xlink:href="#mea1507df04" y="266.737195"/>
     <use style="fill:#98df8a;stroke:#ffffff;stroke-linejoin:miter;stroke-width:0.75;" x="235.694044" xlink:href="#mea1507df04" y="266.677153"/>
     <use style="fill:#98df8a;stroke:#ffffff;stroke-linejoin:miter;stroke-width:0.75;" x="239.261676" xlink:href="#mea1507df04" y="266.631772"/>
     <use style="fill:#98df8a;stroke:#ffffff;stroke-linejoin:miter;stroke-width:0.75;" x="242.829309" xlink:href="#mea1507df04" y="266.55288"/>
     <use style="fill:#98df8a;stroke:#ffffff;stroke-linejoin:miter;stroke-width:0.75;" x="246.396941" xlink:href="#mea1507df04" y="266.530539"/>
     <use style="fill:#98df8a;stroke:#ffffff;stroke-linejoin:miter;stroke-width:0.75;" x="249.964574" xlink:href="#mea1507df04" y="266.480271"/>
     <use style="fill:#98df8a;stroke:#ffffff;stroke-linejoin:miter;stroke-width:0.75;" x="253.532206" xlink:href="#mea1507df04" y="266.45025"/>
     <use style="fill:#98df8a;stroke:#ffffff;stroke-linejoin:miter;stroke-width:0.75;" x="257.099838" xlink:href="#mea1507df04" y="266.386718"/>
     <use style="fill:#98df8a;stroke:#ffffff;stroke-linejoin:miter;stroke-width:0.75;" x="260.667471" xlink:href="#mea1507df04" y="266.377641"/>
     <use style="fill:#98df8a;stroke:#ffffff;stroke-linejoin:miter;stroke-width:0.75;" x="264.235103" xlink:href="#mea1507df04" y="266.338544"/>
     <use style="fill:#98df8a;stroke:#ffffff;stroke-linejoin:miter;stroke-width:0.75;" x="267.802735" xlink:href="#mea1507df04" y="266.314807"/>
     <use style="fill:#98df8a;stroke:#ffffff;stroke-linejoin:miter;stroke-width:0.75;" x="271.370368" xlink:href="#mea1507df04" y="266.295957"/>
     <use style="fill:#98df8a;stroke:#ffffff;stroke-linejoin:miter;stroke-width:0.75;" x="274.938" xlink:href="#mea1507df04" y="266.248482"/>
     <use style="fill:#98df8a;stroke:#ffffff;stroke-linejoin:miter;stroke-width:0.75;" x="278.505632" xlink:href="#mea1507df04" y="266.220555"/>
     <use style="fill:#98df8a;stroke:#ffffff;stroke-linejoin:miter;stroke-width:0.75;" x="282.073265" xlink:href="#mea1507df04" y="266.197516"/>
     <use style="fill:#98df8a;stroke:#ffffff;stroke-linejoin:miter;stroke-width:0.75;" x="285.640897" xlink:href="#mea1507df04" y="266.151437"/>
     <use style="fill:#98df8a;stroke:#ffffff;stroke-linejoin:miter;stroke-width:0.75;" x="289.20853" xlink:href="#mea1507df04" y="266.048807"/>
     <use style="fill:#98df8a;stroke:#ffffff;stroke-linejoin:miter;stroke-width:0.75;" x="292.776162" xlink:href="#mea1507df04" y="266.018088"/>
     <use style="fill:#98df8a;stroke:#ffffff;stroke-linejoin:miter;stroke-width:0.75;" x="296.343794" xlink:href="#mea1507df04" y="265.934309"/>
     <use style="fill:#98df8a;stroke:#ffffff;stroke-linejoin:miter;stroke-width:0.75;" x="299.911427" xlink:href="#mea1507df04" y="265.943385"/>
     <use style="fill:#98df8a;stroke:#ffffff;stroke-linejoin:miter;stroke-width:0.75;" x="303.479059" xlink:href="#mea1507df04" y="265.936403"/>
     <use style="fill:#98df8a;stroke:#ffffff;stroke-linejoin:miter;stroke-width:0.75;" x="307.046691" xlink:href="#mea1507df04" y="265.851228"/>
     <use style="fill:#98df8a;stroke:#ffffff;stroke-linejoin:miter;stroke-width:0.75;" x="310.614324" xlink:href="#mea1507df04" y="265.748598"/>
     <use style="fill:#98df8a;stroke:#ffffff;stroke-linejoin:miter;stroke-width:0.75;" x="314.181956" xlink:href="#mea1507df04" y="265.744409"/>
     <use style="fill:#98df8a;stroke:#ffffff;stroke-linejoin:miter;stroke-width:0.75;" x="317.749589" xlink:href="#mea1507df04" y="265.709501"/>
     <use style="fill:#98df8a;stroke:#ffffff;stroke-linejoin:miter;stroke-width:0.75;" x="321.317221" xlink:href="#mea1507df04" y="265.702519"/>
     <use style="fill:#98df8a;stroke:#ffffff;stroke-linejoin:miter;stroke-width:0.75;" x="324.884853" xlink:href="#mea1507df04" y="265.689254"/>
     <use style="fill:#98df8a;stroke:#ffffff;stroke-linejoin:miter;stroke-width:0.75;" x="328.452486" xlink:href="#mea1507df04" y="265.467937"/>
     <use style="fill:#98df8a;stroke:#ffffff;stroke-linejoin:miter;stroke-width:0.75;" x="332.020118" xlink:href="#mea1507df04" y="265.416273"/>
     <use style="fill:#98df8a;stroke:#ffffff;stroke-linejoin:miter;stroke-width:0.75;" x="335.58775" xlink:href="#mea1507df04" y="265.391837"/>
     <use style="fill:#98df8a;stroke:#ffffff;stroke-linejoin:miter;stroke-width:0.75;" x="339.155383" xlink:href="#mea1507df04" y="265.372987"/>
     <use style="fill:#98df8a;stroke:#ffffff;stroke-linejoin:miter;stroke-width:0.75;" x="342.723015" xlink:href="#mea1507df04" y="265.34506"/>
     <use style="fill:#98df8a;stroke:#ffffff;stroke-linejoin:miter;stroke-width:0.75;" x="346.290647" xlink:href="#mea1507df04" y="265.330399"/>
     <use style="fill:#98df8a;stroke:#ffffff;stroke-linejoin:miter;stroke-width:0.75;" x="349.85828" xlink:href="#mea1507df04" y="265.290604"/>
     <use style="fill:#98df8a;stroke:#ffffff;stroke-linejoin:miter;stroke-width:0.75;" x="353.425912" xlink:href="#mea1507df04" y="265.275244"/>
     <use style="fill:#98df8a;stroke:#ffffff;stroke-linejoin:miter;stroke-width:0.75;" x="356.993545" xlink:href="#mea1507df04" y="265.179596"/>
     <use style="fill:#98df8a;stroke:#ffffff;stroke-linejoin:miter;stroke-width:0.75;" x="360.561177" xlink:href="#mea1507df04" y="265.168425"/>
     <use style="fill:#98df8a;stroke:#ffffff;stroke-linejoin:miter;stroke-width:0.75;" x="364.128809" xlink:href="#mea1507df04" y="265.139103"/>
     <use style="fill:#98df8a;stroke:#ffffff;stroke-linejoin:miter;stroke-width:0.75;" x="367.696442" xlink:href="#mea1507df04" y="265.093024"/>
     <use style="fill:#98df8a;stroke:#ffffff;stroke-linejoin:miter;stroke-width:0.75;" x="371.264074" xlink:href="#mea1507df04" y="265.076268"/>
     <use style="fill:#98df8a;stroke:#ffffff;stroke-linejoin:miter;stroke-width:0.75;" x="374.831706" xlink:href="#mea1507df04" y="265.072079"/>
     <use style="fill:#98df8a;stroke:#ffffff;stroke-linejoin:miter;stroke-width:0.75;" x="378.399339" xlink:href="#mea1507df04" y="265.047643"/>
     <use style="fill:#98df8a;stroke:#ffffff;stroke-linejoin:miter;stroke-width:0.75;" x="381.966971" xlink:href="#mea1507df04" y="265.035077"/>
     <use style="fill:#98df8a;stroke:#ffffff;stroke-linejoin:miter;stroke-width:0.75;" x="385.534604" xlink:href="#mea1507df04" y="265.011339"/>
     <use style="fill:#98df8a;stroke:#ffffff;stroke-linejoin:miter;stroke-width:0.75;" x="389.102236" xlink:href="#mea1507df04" y="265.005754"/>
     <use style="fill:#98df8a;stroke:#ffffff;stroke-linejoin:miter;stroke-width:0.75;" x="392.669868" xlink:href="#mea1507df04" y="264.962468"/>
     <use style="fill:#98df8a;stroke:#ffffff;stroke-linejoin:miter;stroke-width:0.75;" x="396.237501" xlink:href="#mea1507df04" y="264.934541"/>
     <use style="fill:#98df8a;stroke:#ffffff;stroke-linejoin:miter;stroke-width:0.75;" x="399.805133" xlink:href="#mea1507df04" y="264.887066"/>
     <use style="fill:#98df8a;stroke:#ffffff;stroke-linejoin:miter;stroke-width:0.75;" x="403.372765" xlink:href="#mea1507df04" y="264.878688"/>
     <use style="fill:#98df8a;stroke:#ffffff;stroke-linejoin:miter;stroke-width:0.75;" x="406.940398" xlink:href="#mea1507df04" y="264.864725"/>
    </g>
   </g>
   <g id="line2d_18"/>
   <g id="line2d_19"/>
   <g id="line2d_20"/>
   <g id="patch_3">
    <path d="M 66.053125 278.510993 
L 66.053125 34.154409 
" style="fill:none;stroke:#000000;stroke-linecap:square;stroke-linejoin:miter;stroke-width:0.8;"/>
   </g>
   <g id="patch_4">
    <path d="M 82.285852 288.430125 
L 355.804334 288.430125 
" style="fill:none;stroke:#000000;stroke-linecap:square;stroke-linejoin:miter;stroke-width:0.8;"/>
   </g>
   <g id="text_17">
    <!-- wireshark_fuzzshark_ip (23h, 8 trials/fuzzer) -->
    <g transform="translate(112.323438 16.318125)scale(0.12 -0.12)">
     <defs>
      <path d="M 269 3500 
L 844 3500 
L 1563 769 
L 2278 3500 
L 2956 3500 
L 3675 769 
L 4391 3500 
L 4966 3500 
L 4050 0 
L 3372 0 
L 2619 2869 
L 1863 0 
L 1184 0 
L 269 3500 
z
" id="DejaVuSans-77" transform="scale(0.015625)"/>
      <path d="M 2834 3397 
L 2834 2853 
Q 2591 2978 2328 3040 
Q 2066 3103 1784 3103 
Q 1356 3103 1142 2972 
Q 928 2841 928 2578 
Q 928 2378 1081 2264 
Q 1234 2150 1697 2047 
L 1894 2003 
Q 2506 1872 2764 1633 
Q 3022 1394 3022 966 
Q 3022 478 2636 193 
Q 2250 -91 1575 -91 
Q 1294 -91 989 -36 
Q 684 19 347 128 
L 347 722 
Q 666 556 975 473 
Q 1284 391 1588 391 
Q 1994 391 2212 530 
Q 2431 669 2431 922 
Q 2431 1156 2273 1281 
Q 2116 1406 1581 1522 
L 1381 1569 
Q 847 1681 609 1914 
Q 372 2147 372 2553 
Q 372 3047 722 3315 
Q 1072 3584 1716 3584 
Q 2034 3584 2315 3537 
Q 2597 3491 2834 3397 
z
" id="DejaVuSans-73" transform="scale(0.015625)"/>
      <path d="M 581 4863 
L 1159 4863 
L 1159 1991 
L 2875 3500 
L 3609 3500 
L 1753 1863 
L 3688 0 
L 2938 0 
L 1159 1709 
L 1159 0 
L 581 0 
L 581 4863 
z
" id="DejaVuSans-6b" transform="scale(0.015625)"/>
      <path d="M 3263 -1063 
L 3263 -1509 
L -63 -1509 
L -63 -1063 
L 3263 -1063 
z
" id="DejaVuSans-5f" transform="scale(0.015625)"/>
      <path d="M 2375 4863 
L 2375 4384 
L 1825 4384 
Q 1516 4384 1395 4259 
Q 1275 4134 1275 3809 
L 1275 3500 
L 2222 3500 
L 2222 3053 
L 1275 3053 
L 1275 0 
L 697 0 
L 697 3053 
L 147 3053 
L 147 3500 
L 697 3500 
L 697 3744 
Q 697 4328 969 4595 
Q 1241 4863 1831 4863 
L 2375 4863 
z
" id="DejaVuSans-66" transform="scale(0.015625)"/>
      <path d="M 353 3500 
L 3084 3500 
L 3084 2975 
L 922 459 
L 3084 459 
L 3084 0 
L 275 0 
L 275 525 
L 2438 3041 
L 353 3041 
L 353 3500 
z
" id="DejaVuSans-7a" transform="scale(0.015625)"/>
      <path d="M 1159 525 
L 1159 -1331 
L 581 -1331 
L 581 3500 
L 1159 3500 
L 1159 2969 
Q 1341 3281 1617 3432 
Q 1894 3584 2278 3584 
Q 2916 3584 3314 3078 
Q 3713 2572 3713 1747 
Q 3713 922 3314 415 
Q 2916 -91 2278 -91 
Q 1894 -91 1617 61 
Q 1341 213 1159 525 
z
M 3116 1747 
Q 3116 2381 2855 2742 
Q 2594 3103 2138 3103 
Q 1681 3103 1420 2742 
Q 1159 2381 1159 1747 
Q 1159 1113 1420 752 
Q 1681 391 2138 391 
Q 2594 391 2855 752 
Q 3116 1113 3116 1747 
z
" id="DejaVuSans-70" transform="scale(0.015625)"/>
      <path d="M 750 794 
L 1409 794 
L 1409 256 
L 897 -744 
L 494 -744 
L 750 256 
L 750 794 
z
" id="DejaVuSans-2c" transform="scale(0.015625)"/>
      <path d="M 2034 2216 
Q 1584 2216 1326 1975 
Q 1069 1734 1069 1313 
Q 1069 891 1326 650 
Q 1584 409 2034 409 
Q 2484 409 2743 651 
Q 3003 894 3003 1313 
Q 3003 1734 2745 1975 
Q 2488 2216 2034 2216 
z
M 1403 2484 
Q 997 2584 770 2862 
Q 544 3141 544 3541 
Q 544 4100 942 4425 
Q 1341 4750 2034 4750 
Q 2731 4750 3128 4425 
Q 3525 4100 3525 3541 
Q 3525 3141 3298 2862 
Q 3072 2584 2669 2484 
Q 3125 2378 3379 2068 
Q 3634 1759 3634 1313 
Q 3634 634 3220 271 
Q 2806 -91 2034 -91 
Q 1263 -91 848 271 
Q 434 634 434 1313 
Q 434 1759 690 2068 
Q 947 2378 1403 2484 
z
M 1172 3481 
Q 1172 3119 1398 2916 
Q 1625 2713 2034 2713 
Q 2441 2713 2670 2916 
Q 2900 3119 2900 3481 
Q 2900 3844 2670 4047 
Q 2441 4250 2034 4250 
Q 1625 4250 1398 4047 
Q 1172 3844 1172 3481 
z
" id="DejaVuSans-38" transform="scale(0.015625)"/>
      <path d="M 603 4863 
L 1178 4863 
L 1178 0 
L 603 0 
L 603 4863 
z
" id="DejaVuSans-6c" transform="scale(0.015625)"/>
      <path d="M 1625 4666 
L 2156 4666 
L 531 -594 
L 0 -594 
L 1625 4666 
z
" id="DejaVuSans-2f" transform="scale(0.015625)"/>
     </defs>
     <use xlink:href="#DejaVuSans-77"/>
     <use x="81.787109" xlink:href="#DejaVuSans-69"/>
     <use x="109.570312" xlink:href="#DejaVuSans-72"/>
     <use x="148.433594" xlink:href="#DejaVuSans-65"/>
     <use x="209.957031" xlink:href="#DejaVuSans-73"/>
     <use x="262.056641" xlink:href="#DejaVuSans-68"/>
     <use x="325.435547" xlink:href="#DejaVuSans-61"/>
     <use x="386.714844" xlink:href="#DejaVuSans-72"/>
     <use x="427.828125" xlink:href="#DejaVuSans-6b"/>
     <use x="485.738281" xlink:href="#DejaVuSans-5f"/>
     <use x="535.738281" xlink:href="#DejaVuSans-66"/>
     <use x="570.943359" xlink:href="#DejaVuSans-75"/>
     <use x="634.322266" xlink:href="#DejaVuSans-7a"/>
     <use x="686.8125" xlink:href="#DejaVuSans-7a"/>
     <use x="739.302734" xlink:href="#DejaVuSans-73"/>
     <use x="791.402344" xlink:href="#DejaVuSans-68"/>
     <use x="854.78125" xlink:href="#DejaVuSans-61"/>
     <use x="916.060547" xlink:href="#DejaVuSans-72"/>
     <use x="957.173828" xlink:href="#DejaVuSans-6b"/>
     <use x="1015.083984" xlink:href="#DejaVuSans-5f"/>
     <use x="1065.083984" xlink:href="#DejaVuSans-69"/>
     <use x="1092.867188" xlink:href="#DejaVuSans-70"/>
     <use x="1156.34375" xlink:href="#DejaVuSans-20"/>
     <use x="1188.130859" xlink:href="#DejaVuSans-28"/>
     <use x="1227.144531" xlink:href="#DejaVuSans-32"/>
     <use x="1290.767578" xlink:href="#DejaVuSans-33"/>
     <use x="1354.390625" xlink:href="#DejaVuSans-68"/>
     <use x="1417.769531" xlink:href="#DejaVuSans-2c"/>
     <use x="1449.556641" xlink:href="#DejaVuSans-20"/>
     <use x="1481.34375" xlink:href="#DejaVuSans-38"/>
     <use x="1544.966797" xlink:href="#DejaVuSans-20"/>
     <use x="1576.753906" xlink:href="#DejaVuSans-74"/>
     <use x="1615.962891" xlink:href="#DejaVuSans-72"/>
     <use x="1657.076172" xlink:href="#DejaVuSans-69"/>
     <use x="1684.859375" xlink:href="#DejaVuSans-61"/>
     <use x="1746.138672" xlink:href="#DejaVuSans-6c"/>
     <use x="1773.921875" xlink:href="#DejaVuSans-73"/>
     <use x="1826.021484" xlink:href="#DejaVuSans-2f"/>
     <use x="1859.712891" xlink:href="#DejaVuSans-66"/>
     <use x="1894.917969" xlink:href="#DejaVuSans-75"/>
     <use x="1958.296875" xlink:href="#DejaVuSans-7a"/>
     <use x="2010.787109" xlink:href="#DejaVuSans-7a"/>
     <use x="2063.277344" xlink:href="#DejaVuSans-65"/>
     <use x="2124.800781" xlink:href="#DejaVuSans-72"/>
     <use x="2165.914062" xlink:href="#DejaVuSans-29"/>
    </g>
   </g>
   <g id="legend_1">
    <g id="line2d_21">
     <path d="M 427.173125 30.416562 
L 447.173125 30.416562 
" style="fill:none;stroke:#d62728;stroke-linecap:square;stroke-width:1.5;"/>
    </g>
    <g id="line2d_22">
     <defs>
      <path d="M 0 -3 
L -3 3 
L 3 3 
z
" id="m8cac6c4481" style="stroke:#d62728;stroke-linejoin:miter;"/>
     </defs>
     <g>
      <use style="fill:#d62728;stroke:#d62728;stroke-linejoin:miter;" x="437.173125" xlink:href="#m8cac6c4481" y="30.416562"/>
     </g>
    </g>
    <g id="text_18">
     <!-- afl_scheduling_random -->
     <g transform="translate(455.173125 33.916562)scale(0.1 -0.1)">
      <use xlink:href="#DejaVuSans-61"/>
      <use x="61.279297" xlink:href="#DejaVuSans-66"/>
      <use x="96.484375" xlink:href="#DejaVuSans-6c"/>
      <use x="124.267578" xlink:href="#DejaVuSans-5f"/>
      <use x="174.267578" xlink:href="#DejaVuSans-73"/>
      <use x="226.367188" xlink:href="#DejaVuSans-63"/>
      <use x="281.347656" xlink:href="#DejaVuSans-68"/>
      <use x="344.726562" xlink:href="#DejaVuSans-65"/>
      <use x="406.25" xlink:href="#DejaVuSans-64"/>
      <use x="469.726562" xlink:href="#DejaVuSans-75"/>
      <use x="533.105469" xlink:href="#DejaVuSans-6c"/>
      <use x="560.888672" xlink:href="#DejaVuSans-69"/>
      <use x="588.671875" xlink:href="#DejaVuSans-6e"/>
      <use x="652.050781" xlink:href="#DejaVuSans-67"/>
      <use x="715.527344" xlink:href="#DejaVuSans-5f"/>
      <use x="765.527344" xlink:href="#DejaVuSans-72"/>
      <use x="806.640625" xlink:href="#DejaVuSans-61"/>
      <use x="867.919922" xlink:href="#DejaVuSans-6e"/>
      <use x="931.298828" xlink:href="#DejaVuSans-64"/>
      <use x="994.775391" xlink:href="#DejaVuSans-6f"/>
      <use x="1055.957031" xlink:href="#DejaVuSans-6d"/>
     </g>
    </g>
    <g id="line2d_23">
     <path d="M 427.173125 45.372813 
L 447.173125 45.372813 
" style="fill:none;stroke:#1f77b4;stroke-linecap:square;stroke-width:1.5;"/>
    </g>
    <g id="line2d_24">
     <defs>
      <path d="M 0 3 
C 0.795609 3 1.55874 2.683901 2.12132 2.12132 
C 2.683901 1.55874 3 0.795609 3 0 
C 3 -0.795609 2.683901 -1.55874 2.12132 -2.12132 
C 1.55874 -2.683901 0.795609 -3 0 -3 
C -0.795609 -3 -1.55874 -2.683901 -2.12132 -2.12132 
C -2.683901 -1.55874 -3 -0.795609 -3 0 
C -3 0.795609 -2.683901 1.55874 -2.12132 2.12132 
C -1.55874 2.683901 -0.795609 3 0 3 
z
" id="m79d017cf6c" style="stroke:#1f77b4;"/>
     </defs>
     <g>
      <use style="fill:#1f77b4;stroke:#1f77b4;" x="437.173125" xlink:href="#m79d017cf6c" y="45.372813"/>
     </g>
    </g>
    <g id="text_19">
     <!-- afl -->
     <g transform="translate(455.173125 48.872813)scale(0.1 -0.1)">
      <use xlink:href="#DejaVuSans-61"/>
      <use x="61.279297" xlink:href="#DejaVuSans-66"/>
      <use x="96.484375" xlink:href="#DejaVuSans-6c"/>
     </g>
    </g>
    <g id="line2d_25">
     <path d="M 427.173125 60.050937 
L 447.173125 60.050937 
" style="fill:none;stroke:#98df8a;stroke-linecap:square;stroke-width:1.5;"/>
    </g>
    <g id="line2d_26">
     <defs>
      <path d="M -0 3 
L 3 -3 
L -3 -3 
z
" id="m5b6d10e8bf" style="stroke:#98df8a;stroke-linejoin:miter;"/>
     </defs>
     <g>
      <use style="fill:#98df8a;stroke:#98df8a;stroke-linejoin:miter;" x="437.173125" xlink:href="#m5b6d10e8bf" y="60.050937"/>
     </g>
    </g>
    <g id="text_20">
     <!-- afl_scheduling_lifo -->
     <g transform="translate(455.173125 63.550937)scale(0.1 -0.1)">
      <use xlink:href="#DejaVuSans-61"/>
      <use x="61.279297" xlink:href="#DejaVuSans-66"/>
      <use x="96.484375" xlink:href="#DejaVuSans-6c"/>
      <use x="124.267578" xlink:href="#DejaVuSans-5f"/>
      <use x="174.267578" xlink:href="#DejaVuSans-73"/>
      <use x="226.367188" xlink:href="#DejaVuSans-63"/>
      <use x="281.347656" xlink:href="#DejaVuSans-68"/>
      <use x="344.726562" xlink:href="#DejaVuSans-65"/>
      <use x="406.25" xlink:href="#DejaVuSans-64"/>
      <use x="469.726562" xlink:href="#DejaVuSans-75"/>
      <use x="533.105469" xlink:href="#DejaVuSans-6c"/>
      <use x="560.888672" xlink:href="#DejaVuSans-69"/>
      <use x="588.671875" xlink:href="#DejaVuSans-6e"/>
      <use x="652.050781" xlink:href="#DejaVuSans-67"/>
      <use x="715.527344" xlink:href="#DejaVuSans-5f"/>
      <use x="765.527344" xlink:href="#DejaVuSans-6c"/>
      <use x="793.310547" xlink:href="#DejaVuSans-69"/>
      <use x="821.09375" xlink:href="#DejaVuSans-66"/>
      <use x="856.298828" xlink:href="#DejaVuSans-6f"/>
     </g>
    </g>
   </g>
  </g>
 </g>
 <defs>
  <clipPath id="pa887bd5a9e">
   <rect height="266.112" width="357.12" x="66.053125" y="22.318125"/>
  </clipPath>
 </defs>
</svg>
