<?xml version="1.0" encoding="utf-8" standalone="no"?>
<!DOCTYPE svg PUBLIC "-//W3C//DTD SVG 1.1//EN"
  "http://www.w3.org/Graphics/SVG/1.1/DTD/svg11.dtd">
<svg height="325.986375pt" version="1.1" viewBox="0 0 575.348125 325.986375" width="575.348125pt" xmlns="http://www.w3.org/2000/svg" xmlns:xlink="http://www.w3.org/1999/xlink">
 <metadata>
  <rdf:RDF xmlns:cc="http://creativecommons.org/ns#" xmlns:dc="http://purl.org/dc/elements/1.1/" xmlns:rdf="http://www.w3.org/1999/02/22-rdf-syntax-ns#">
   <cc:Work>
    <dc:type rdf:resource="http://purl.org/dc/dcmitype/StillImage"/>
    <dc:date>2022-05-31T14:37:33.149841</dc:date>
    <dc:format>image/svg+xml</dc:format>
    <dc:creator>
     <cc:Agent>
      <dc:title>Matplotlib v3.4.3, https://matplotlib.org/</dc:title>
     </cc:Agent>
    </dc:creator>
   </cc:Work>
  </rdf:RDF>
 </metadata>
 <defs>
  <style type="text/css">*{stroke-linecap:butt;stroke-linejoin:round;}</style>
 </defs>
 <g id="figure_1">
  <g id="patch_1">
   <path d="M 0 325.986375 
L 575.348125 325.986375 
L 575.348125 0 
L 0 0 
z
" style="fill:#ffffff;"/>
  </g>
  <g id="axes_1">
   <g id="patch_2">
    <path d="M 59.690625 288.430125 
L 416.810625 288.430125 
L 416.810625 22.318125 
L 59.690625 22.318125 
z
" style="fill:#ffffff;"/>
   </g>
   <g id="PolyCollection_1">
    <defs>
     <path d="M 75.923352 -126.256167 
L 75.923352 -103.859408 
L 79.490985 -129.475701 
L 83.058617 -150.192704 
L 86.626249 -161.671044 
L 90.193882 -169.08997 
L 93.761514 -175.704013 
L 97.329146 -183.647864 
L 100.896779 -183.717854 
L 104.464411 -185.95753 
L 108.032044 -186.657429 
L 111.599676 -185.81755 
L 115.167308 -186.587439 
L 118.734941 -189.876963 
L 122.302573 -191.48673 
L 125.870205 -191.48673 
L 129.437838 -191.48673 
L 133.00547 -191.48673 
L 136.573103 -192.431593 
L 140.140735 -208.414656 
L 143.708367 -230.4011 
L 147.276 -231.380958 
L 150.843632 -231.380958 
L 154.411264 -230.366105 
L 157.978897 -230.366105 
L 161.546529 -239.849733 
L 165.114161 -240.129692 
L 168.681794 -240.409652 
L 172.249426 -240.409652 
L 175.817059 -240.269672 
L 179.384691 -240.269672 
L 182.952323 -240.409652 
L 186.519956 -240.409652 
L 190.087588 -240.409652 
L 193.65522 -240.409652 
L 197.222853 -240.409652 
L 200.790485 -240.269672 
L 204.358118 -240.269672 
L 207.92575 -240.409652 
L 211.493382 -242.929287 
L 215.061015 -242.929287 
L 218.628647 -242.929287 
L 222.196279 -242.719318 
L 225.763912 -242.670325 
L 229.331544 -244.679034 
L 232.899176 -244.679034 
L 236.466809 -240.759601 
L 240.034441 -244.679034 
L 243.602074 -244.679034 
L 247.169706 -240.759601 
L 250.737338 -242.719318 
L 254.304971 -244.679034 
L 257.872603 -244.679034 
L 261.440235 -242.824303 
L 265.007868 -242.089409 
L 268.5755 -244.679034 
L 272.143132 -244.679034 
L 275.710765 -242.824303 
L 279.278397 -242.929287 
L 282.84603 -244.679034 
L 286.413662 -244.679034 
L 289.981294 -244.679034 
L 293.548927 -244.679034 
L 297.116559 -245.028984 
L 300.684191 -244.784019 
L 304.251824 -245.273948 
L 307.819456 -245.518913 
L 311.387089 -245.518913 
L 314.954721 -245.518913 
L 318.522353 -245.518913 
L 322.089986 -245.518913 
L 325.657618 -245.518913 
L 329.22525 -245.518913 
L 332.792883 -245.518913 
L 336.360515 -246.002718 
L 339.928147 -246.008842 
L 343.49578 -246.008842 
L 347.063412 -246.008842 
L 350.631045 -246.008842 
L 354.198677 -245.763877 
L 357.766309 -245.518913 
L 361.333942 -246.008842 
L 364.901574 -246.008842 
L 368.469206 -246.008842 
L 372.036839 -246.008842 
L 375.604471 -248.108538 
L 379.172104 -248.108538 
L 382.739736 -246.008842 
L 386.307368 -246.008842 
L 389.875001 -248.108538 
L 393.442633 -248.108538 
L 397.010265 -246.008842 
L 400.577898 -246.008842 
L 400.577898 -289.262584 
L 400.577898 -289.262584 
L 397.010265 -289.262584 
L 393.442633 -289.332574 
L 389.875001 -289.332574 
L 386.307368 -289.262584 
L 382.739736 -289.262584 
L 379.172104 -289.262584 
L 375.604471 -289.262584 
L 372.036839 -289.262584 
L 368.469206 -289.262584 
L 364.901574 -289.262584 
L 361.333942 -289.262584 
L 357.766309 -288.352716 
L 354.198677 -288.352716 
L 350.631045 -289.262584 
L 347.063412 -287.442847 
L 343.49578 -287.442847 
L 339.928147 -287.442847 
L 336.360515 -287.232878 
L 332.792883 -287.232878 
L 329.22525 -287.232878 
L 325.657618 -287.232878 
L 322.089986 -287.442847 
L 318.522353 -287.442847 
L 314.954721 -287.442847 
L 311.387089 -287.442847 
L 307.819456 -287.442847 
L 304.251824 -287.232878 
L 300.684191 -287.232878 
L 297.116559 -287.442847 
L 293.548927 -287.162888 
L 289.981294 -287.162888 
L 286.413662 -287.162888 
L 282.84603 -286.882928 
L 279.278397 -286.777944 
L 275.710765 -286.777944 
L 272.143132 -286.882928 
L 268.5755 -286.882928 
L 265.007868 -286.602969 
L 261.440235 -286.602969 
L 257.872603 -286.882928 
L 254.304971 -286.882928 
L 250.737338 -286.602969 
L 247.169706 -286.602969 
L 243.602074 -286.882928 
L 240.034441 -286.882928 
L 236.466809 -286.602969 
L 232.899176 -286.882928 
L 229.331544 -286.882928 
L 225.763912 -286.462989 
L 222.196279 -286.462989 
L 218.628647 -286.882928 
L 215.061015 -286.882928 
L 211.493382 -286.742949 
L 207.92575 -285.83308 
L 204.358118 -283.103475 
L 200.790485 -282.99849 
L 197.222853 -285.133182 
L 193.65522 -285.133182 
L 190.087588 -285.133182 
L 186.519956 -283.593404 
L 182.952323 -283.593404 
L 179.384691 -282.053627 
L 175.817059 -280.968784 
L 172.249426 -282.823516 
L 168.681794 -278.064204 
L 165.114161 -278.064204 
L 161.546529 -277.574275 
L 157.978897 -277.574275 
L 154.411264 -277.049351 
L 150.843632 -277.574275 
L 147.276 -277.574275 
L 143.708367 -276.454437 
L 140.140735 -275.260235 
L 136.573103 -272.674984 
L 133.00547 -272.535004 
L 129.437838 -269.45545 
L 125.870205 -269.45545 
L 122.302573 -259.096948 
L 118.734941 -255.21251 
L 115.167308 -245.518913 
L 111.599676 -238.274961 
L 108.032044 -236.700189 
L 104.464411 -236.280249 
L 100.896779 -235.020432 
L 97.329146 -226.831616 
L 93.761514 -222.422254 
L 90.193882 -213.428556 
L 86.626249 -200.305454 
L 83.058617 -183.857834 
L 79.490985 -175.599029 
L 75.923352 -126.256167 
z
" id="md56b82337d" style="stroke:#d62728;stroke-opacity:0.2;"/>
    </defs>
    <g clip-path="url(#p356263b3fd)">
     <use style="fill:#d62728;fill-opacity:0.2;stroke:#d62728;stroke-opacity:0.2;" x="0" xlink:href="#md56b82337d" y="325.986375"/>
    </g>
   </g>
   <g id="PolyCollection_2">
    <defs>
     <path d="M 75.923352 -172.169525 
L 75.923352 -123.666542 
L 79.490985 -134.200018 
L 83.058617 -163.70075 
L 86.626249 -138.014466 
L 90.193882 -140.674081 
L 93.761514 -157.716616 
L 97.329146 -175.179089 
L 100.896779 -175.179089 
L 104.464411 -156.771752 
L 108.032044 -199.623053 
L 111.599676 -178.188654 
L 115.167308 -178.398623 
L 118.734941 -178.468613 
L 122.302573 -199.885515 
L 125.870205 -182.248067 
L 129.437838 -174.409201 
L 133.00547 -204.189892 
L 136.573103 -215.423267 
L 140.140735 -215.358526 
L 143.708367 -215.913196 
L 147.276 -222.492244 
L 150.843632 -225.536804 
L 154.411264 -224.556946 
L 157.978897 -221.407401 
L 161.546529 -228.056439 
L 165.114161 -226.236702 
L 168.681794 -218.012892 
L 172.249426 -213.183591 
L 175.817059 -216.333135 
L 179.384691 -225.571799 
L 182.952323 -216.893054 
L 186.519956 -227.076581 
L 190.087588 -237.120128 
L 193.65522 -233.30568 
L 197.222853 -229.281262 
L 200.790485 -217.522963 
L 204.358118 -217.802923 
L 207.92575 -227.741485 
L 211.493382 -237.610057 
L 215.061015 -227.741485 
L 218.628647 -217.802923 
L 222.196279 -229.631211 
L 225.763912 -229.981161 
L 229.331544 -227.77648 
L 232.899176 -217.872913 
L 236.466809 -227.77648 
L 240.034441 -244.329085 
L 243.602074 -237.750037 
L 247.169706 -237.750037 
L 250.737338 -227.951454 
L 254.304971 -218.152872 
L 257.872603 -227.951454 
L 261.440235 -227.986449 
L 265.007868 -234.005579 
L 268.5755 -237.750037 
L 272.143132 -249.508336 
L 275.710765 -237.750037 
L 279.278397 -254.197657 
L 282.84603 -258.012105 
L 286.413662 -258.502034 
L 289.981294 -237.750037 
L 293.548927 -234.250543 
L 297.116559 -237.750037 
L 300.684191 -237.750037 
L 304.251824 -263.85626 
L 307.819456 -230.751049 
L 311.387089 -250.803148 
L 314.954721 -254.477617 
L 318.522353 -250.689415 
L 322.089986 -246.253806 
L 325.657618 -254.757576 
L 329.22525 -237.750037 
L 332.792883 -254.757576 
L 336.360515 -254.757576 
L 339.928147 -254.757576 
L 343.49578 -235.86031 
L 347.063412 -235.86031 
L 350.631045 -264.136219 
L 354.198677 -259.446898 
L 357.766309 -254.757576 
L 361.333942 -254.66309 
L 364.901574 -237.750037 
L 368.469206 -255.247505 
L 372.036839 -255.247505 
L 375.604471 -258.32706 
L 379.172104 -264.276199 
L 382.739736 -259.936827 
L 386.307368 -255.247505 
L 389.875001 -256.782908 
L 393.442633 -255.247505 
L 397.010265 -251.328072 
L 400.577898 -246.638751 
L 400.577898 -289.892493 
L 400.577898 -289.892493 
L 397.010265 -289.892493 
L 393.442633 -289.892493 
L 389.875001 -291.257296 
L 386.307368 -291.57225 
L 382.739736 -290.907346 
L 379.172104 -291.292291 
L 375.604471 -291.292291 
L 372.036839 -289.892493 
L 368.469206 -289.892493 
L 364.901574 -285.553121 
L 361.333942 -289.906491 
L 357.766309 -290.942341 
L 354.198677 -290.977336 
L 350.631045 -290.522402 
L 347.063412 -287.722807 
L 343.49578 -287.722807 
L 339.928147 -290.382422 
L 336.360515 -290.382422 
L 332.792883 -290.732372 
L 329.22525 -285.661605 
L 325.657618 -289.892493 
L 322.089986 -289.997478 
L 318.522353 -289.822503 
L 314.954721 -289.892493 
L 311.387089 -290.592392 
L 307.819456 -289.892493 
L 304.251824 -289.892493 
L 300.684191 -289.892493 
L 297.116559 -289.892493 
L 293.548927 -287.722807 
L 289.981294 -289.892493 
L 286.413662 -286.462989 
L 282.84603 -287.372858 
L 279.278397 -287.582827 
L 275.710765 -287.582827 
L 272.143132 -285.063192 
L 268.5755 -285.063192 
L 265.007868 -285.308156 
L 261.440235 -281.808663 
L 257.872603 -280.65383 
L 254.304971 -285.063192 
L 250.737338 -283.383435 
L 247.169706 -281.423718 
L 243.602074 -281.423718 
L 240.034441 -283.033485 
L 236.466809 -281.778917 
L 232.899176 -283.768379 
L 229.331544 -281.773668 
L 225.763912 -281.003779 
L 222.196279 -281.773668 
L 218.628647 -286.18303 
L 215.061015 -285.07719 
L 211.493382 -279.603982 
L 207.92575 -280.793809 
L 204.358118 -285.063192 
L 200.790485 -284.993202 
L 197.222853 -280.72382 
L 193.65522 -282.508561 
L 190.087588 -284.293303 
L 186.519956 -283.663394 
L 182.952323 -282.543556 
L 179.384691 -280.72382 
L 175.817059 -280.72382 
L 172.249426 -280.72382 
L 168.681794 -282.123617 
L 165.114161 -279.568987 
L 161.546529 -279.568987 
L 157.978897 -278.414154 
L 154.411264 -281.773668 
L 150.843632 -279.883941 
L 147.276 -277.509535 
L 143.708367 -277.224326 
L 140.140735 -263.086371 
L 136.573103 -244.399075 
L 133.00547 -254.932551 
L 129.437838 -243.489206 
L 125.870205 -253.987688 
L 122.302573 -259.761852 
L 118.734941 -241.949429 
L 115.167308 -242.22064 
L 111.599676 -231.310968 
L 108.032044 -231.170989 
L 104.464411 -234.075568 
L 100.896779 -233.02572 
L 97.329146 -231.031009 
L 93.761514 -229.561222 
L 90.193882 -228.931313 
L 86.626249 -227.601505 
L 83.058617 -223.437108 
L 79.490985 -213.708515 
L 75.923352 -172.169525 
z
" id="m2271d77688" style="stroke:#1f77b4;stroke-opacity:0.2;"/>
    </defs>
    <g clip-path="url(#p356263b3fd)">
     <use style="fill:#1f77b4;fill-opacity:0.2;stroke:#1f77b4;stroke-opacity:0.2;" x="0" xlink:href="#m2271d77688" y="325.986375"/>
    </g>
   </g>
   <g id="PolyCollection_3">
    <defs>
     <path d="M 75.923352 -63.620479 
L 75.923352 -49.65225 
L 79.490985 -67.149719 
L 83.058617 -74.323681 
L 86.626249 -80.097845 
L 90.193882 -83.597339 
L 93.761514 -87.271807 
L 97.329146 -89.196529 
L 100.896779 -91.751159 
L 104.464411 -92.836002 
L 108.032044 -94.515759 
L 111.599676 -98.610167 
L 115.167308 -101.304777 
L 118.734941 -101.514747 
L 122.302573 -103.264494 
L 125.870205 -106.624008 
L 129.437838 -106.659002 
L 133.00547 -107.805087 
L 136.573103 -108.653714 
L 140.140735 -109.353613 
L 143.708367 -110.648425 
L 147.276 -111.768263 
L 150.843632 -113.622995 
L 154.411264 -113.622995 
L 157.978897 -113.65799 
L 161.546529 -113.65799 
L 165.114161 -114.681592 
L 168.681794 -115.197767 
L 172.249426 -116.037646 
L 175.817059 -116.86965 
L 179.384691 -117.227473 
L 182.952323 -113.028081 
L 186.519956 -117.822387 
L 190.087588 -118.206457 
L 193.65522 -119.817099 
L 197.222853 -120.202043 
L 200.790485 -120.307028 
L 204.358118 -120.936937 
L 207.92575 -123.036633 
L 211.493382 -121.391871 
L 215.061015 -121.566846 
L 218.628647 -122.056775 
L 222.196279 -123.386582 
L 225.763912 -123.911506 
L 229.331544 -123.879136 
L 232.899176 -124.479299 
L 236.466809 -124.891365 
L 240.034441 -124.891365 
L 243.602074 -123.876512 
L 247.169706 -125.136329 
L 250.737338 -129.440707 
L 254.304971 -128.355863 
L 257.872603 -129.685671 
L 261.440235 -130.560545 
L 265.007868 -131.050474 
L 268.5755 -130.38557 
L 272.143132 -131.050474 
L 275.710765 -131.190453 
L 279.278397 -131.17733 
L 282.84603 -131.330433 
L 286.413662 -131.313811 
L 289.981294 -131.155458 
L 293.548927 -131.365428 
L 297.116559 -131.785367 
L 300.684191 -131.960342 
L 304.251824 -132.205307 
L 307.819456 -131.715377 
L 311.387089 -133.465124 
L 314.954721 -133.605104 
L 318.522353 -134.374993 
L 322.089986 -134.549967 
L 325.657618 -135.109886 
L 329.22525 -135.109886 
L 332.792883 -133.115175 
L 336.360515 -135.389846 
L 339.928147 -135.389846 
L 343.49578 -139.169299 
L 347.063412 -139.519248 
L 350.631045 -140.009178 
L 354.198677 -140.009178 
L 357.766309 -140.359127 
L 361.333942 -140.394122 
L 364.901574 -140.394122 
L 368.469206 -139.834203 
L 372.036839 -140.534102 
L 375.604471 -140.674081 
L 379.172104 -140.674081 
L 382.739736 -140.884051 
L 386.307368 -140.884051 
L 389.875001 -140.884051 
L 393.442633 -140.884051 
L 397.010265 -142.317094 
L 400.577898 -139.414264 
L 400.577898 -178.923548 
L 400.577898 -178.923548 
L 397.010265 -177.787962 
L 393.442633 -177.73372 
L 389.875001 -175.739008 
L 386.307368 -175.739008 
L 382.739736 -178.188654 
L 379.172104 -174.82914 
L 375.604471 -172.624459 
L 372.036839 -172.624459 
L 368.469206 -172.519474 
L 364.901574 -172.449484 
L 361.333942 -172.449484 
L 357.766309 -172.309504 
L 354.198677 -171.889565 
L 350.631045 -171.889565 
L 347.063412 -171.889565 
L 343.49578 -171.959555 
L 339.928147 -171.329646 
L 336.360515 -171.189666 
L 332.792883 -167.200244 
L 329.22525 -167.165249 
L 325.657618 -167.165249 
L 322.089986 -165.415502 
L 318.522353 -165.415502 
L 314.954721 -165.065552 
L 311.387089 -163.805735 
L 307.819456 -163.805735 
L 304.251824 -163.42079 
L 300.684191 -162.370942 
L 297.116559 -162.020993 
L 293.548927 -167.410213 
L 289.981294 -166.710315 
L 286.413662 -159.466363 
L 282.84603 -159.730574 
L 279.278397 -155.426197 
L 275.710765 -160.349985 
L 272.143132 -151.382532 
L 268.5755 -150.332684 
L 265.007868 -150.01773 
L 261.440235 -149.87775 
L 257.872603 -147.323119 
L 254.304971 -146.658216 
L 250.737338 -145.993312 
L 247.169706 -145.958317 
L 243.602074 -145.993312 
L 240.034441 -144.978459 
L 236.466809 -144.34855 
L 232.899176 -144.34855 
L 229.331544 -141.548955 
L 225.763912 -143.683646 
L 222.196279 -143.403686 
L 218.628647 -141.478965 
L 215.061015 -137.874486 
L 211.493382 -137.769502 
L 207.92575 -137.769502 
L 204.358118 -137.629522 
L 200.790485 -136.194729 
L 197.222853 -135.77479 
L 193.65522 -136.12474 
L 190.087588 -133.640099 
L 186.519956 -133.325145 
L 182.952323 -131.855357 
L 179.384691 -132.808969 
L 175.817059 -132.520261 
L 172.249426 -131.085469 
L 168.681794 -130.630534 
L 165.114161 -130.770514 
L 161.546529 -128.775803 
L 157.978897 -128.215884 
L 154.411264 -128.005914 
L 150.843632 -127.515985 
L 147.276 -126.746096 
L 143.708367 -126.081193 
L 140.140735 -125.276309 
L 136.573103 -125.241314 
L 133.00547 -125.031344 
L 129.437838 -124.751385 
L 125.870205 -123.176613 
L 122.302573 -119.747109 
L 118.734941 -118.347311 
L 115.167308 -116.527575 
L 111.599676 -115.267757 
L 108.032044 -114.707838 
L 104.464411 -106.484028 
L 100.896779 -105.574159 
L 97.329146 -104.559306 
L 93.761514 -100.954828 
L 90.193882 -97.770288 
L 86.626249 -90.071402 
L 83.058617 -86.397809 
L 79.490985 -81.917582 
L 75.923352 -63.620479 
z
" id="mbd604359c9" style="stroke:#98df8a;stroke-opacity:0.2;"/>
    </defs>
    <g clip-path="url(#p356263b3fd)">
     <use style="fill:#98df8a;fill-opacity:0.2;stroke:#98df8a;stroke-opacity:0.2;" x="0" xlink:href="#mbd604359c9" y="325.986375"/>
    </g>
   </g>
   <g id="matplotlib.axis_1">
    <g id="xtick_1">
     <g id="line2d_1">
      <defs>
       <path d="M 0 0 
L 0 3.5 
" id="m462c3f7c5d" style="stroke:#000000;stroke-width:0.8;"/>
      </defs>
      <g>
       <use style="stroke:#000000;stroke-width:0.8;" x="75.923352" xlink:href="#m462c3f7c5d" y="288.430125"/>
      </g>
     </g>
     <g id="text_1">
      <!-- 15m -->
      <g transform="translate(64.69054 303.028562)scale(0.1 -0.1)">
       <defs>
        <path d="M 794 531 
L 1825 531 
L 1825 4091 
L 703 3866 
L 703 4441 
L 1819 4666 
L 2450 4666 
L 2450 531 
L 3481 531 
L 3481 0 
L 794 0 
L 794 531 
z
" id="DejaVuSans-31" transform="scale(0.015625)"/>
        <path d="M 691 4666 
L 3169 4666 
L 3169 4134 
L 1269 4134 
L 1269 2991 
Q 1406 3038 1543 3061 
Q 1681 3084 1819 3084 
Q 2600 3084 3056 2656 
Q 3513 2228 3513 1497 
Q 3513 744 3044 326 
Q 2575 -91 1722 -91 
Q 1428 -91 1123 -41 
Q 819 9 494 109 
L 494 744 
Q 775 591 1075 516 
Q 1375 441 1709 441 
Q 2250 441 2565 725 
Q 2881 1009 2881 1497 
Q 2881 1984 2565 2268 
Q 2250 2553 1709 2553 
Q 1456 2553 1204 2497 
Q 953 2441 691 2322 
L 691 4666 
z
" id="DejaVuSans-35" transform="scale(0.015625)"/>
        <path d="M 3328 2828 
Q 3544 3216 3844 3400 
Q 4144 3584 4550 3584 
Q 5097 3584 5394 3201 
Q 5691 2819 5691 2113 
L 5691 0 
L 5113 0 
L 5113 2094 
Q 5113 2597 4934 2840 
Q 4756 3084 4391 3084 
Q 3944 3084 3684 2787 
Q 3425 2491 3425 1978 
L 3425 0 
L 2847 0 
L 2847 2094 
Q 2847 2600 2669 2842 
Q 2491 3084 2119 3084 
Q 1678 3084 1418 2786 
Q 1159 2488 1159 1978 
L 1159 0 
L 581 0 
L 581 3500 
L 1159 3500 
L 1159 2956 
Q 1356 3278 1631 3431 
Q 1906 3584 2284 3584 
Q 2666 3584 2933 3390 
Q 3200 3197 3328 2828 
z
" id="DejaVuSans-6d" transform="scale(0.015625)"/>
       </defs>
       <use xlink:href="#DejaVuSans-31"/>
       <use x="63.623047" xlink:href="#DejaVuSans-35"/>
       <use x="127.246094" xlink:href="#DejaVuSans-6d"/>
      </g>
     </g>
    </g>
    <g id="xtick_2">
     <g id="line2d_2">
      <g>
       <use style="stroke:#000000;stroke-width:0.8;" x="130.627049" xlink:href="#m462c3f7c5d" y="288.430125"/>
      </g>
     </g>
     <g id="text_2">
      <!-- 4h:5m -->
      <g transform="translate(114.541111 303.028562)scale(0.1 -0.1)">
       <defs>
        <path d="M 2419 4116 
L 825 1625 
L 2419 1625 
L 2419 4116 
z
M 2253 4666 
L 3047 4666 
L 3047 1625 
L 3713 1625 
L 3713 1100 
L 3047 1100 
L 3047 0 
L 2419 0 
L 2419 1100 
L 313 1100 
L 313 1709 
L 2253 4666 
z
" id="DejaVuSans-34" transform="scale(0.015625)"/>
        <path d="M 3513 2113 
L 3513 0 
L 2938 0 
L 2938 2094 
Q 2938 2591 2744 2837 
Q 2550 3084 2163 3084 
Q 1697 3084 1428 2787 
Q 1159 2491 1159 1978 
L 1159 0 
L 581 0 
L 581 4863 
L 1159 4863 
L 1159 2956 
Q 1366 3272 1645 3428 
Q 1925 3584 2291 3584 
Q 2894 3584 3203 3211 
Q 3513 2838 3513 2113 
z
" id="DejaVuSans-68" transform="scale(0.015625)"/>
        <path d="M 750 794 
L 1409 794 
L 1409 0 
L 750 0 
L 750 794 
z
M 750 3309 
L 1409 3309 
L 1409 2516 
L 750 2516 
L 750 3309 
z
" id="DejaVuSans-3a" transform="scale(0.015625)"/>
       </defs>
       <use xlink:href="#DejaVuSans-34"/>
       <use x="63.623047" xlink:href="#DejaVuSans-68"/>
       <use x="127.001953" xlink:href="#DejaVuSans-3a"/>
       <use x="160.693359" xlink:href="#DejaVuSans-35"/>
       <use x="224.316406" xlink:href="#DejaVuSans-6d"/>
      </g>
     </g>
    </g>
    <g id="xtick_3">
     <g id="line2d_3">
      <g>
       <use style="stroke:#000000;stroke-width:0.8;" x="185.330745" xlink:href="#m462c3f7c5d" y="288.430125"/>
      </g>
     </g>
     <g id="text_3">
      <!-- 7h:55m -->
      <g transform="translate(166.063557 303.028562)scale(0.1 -0.1)">
       <defs>
        <path d="M 525 4666 
L 3525 4666 
L 3525 4397 
L 1831 0 
L 1172 0 
L 2766 4134 
L 525 4134 
L 525 4666 
z
" id="DejaVuSans-37" transform="scale(0.015625)"/>
       </defs>
       <use xlink:href="#DejaVuSans-37"/>
       <use x="63.623047" xlink:href="#DejaVuSans-68"/>
       <use x="127.001953" xlink:href="#DejaVuSans-3a"/>
       <use x="160.693359" xlink:href="#DejaVuSans-35"/>
       <use x="224.316406" xlink:href="#DejaVuSans-35"/>
       <use x="287.939453" xlink:href="#DejaVuSans-6d"/>
      </g>
     </g>
    </g>
    <g id="xtick_4">
     <g id="line2d_4">
      <g>
       <use style="stroke:#000000;stroke-width:0.8;" x="240.034441" xlink:href="#m462c3f7c5d" y="288.430125"/>
      </g>
     </g>
     <g id="text_4">
      <!-- 11h:45m -->
      <g transform="translate(217.586004 303.028562)scale(0.1 -0.1)">
       <use xlink:href="#DejaVuSans-31"/>
       <use x="63.623047" xlink:href="#DejaVuSans-31"/>
       <use x="127.246094" xlink:href="#DejaVuSans-68"/>
       <use x="190.625" xlink:href="#DejaVuSans-3a"/>
       <use x="224.316406" xlink:href="#DejaVuSans-34"/>
       <use x="287.939453" xlink:href="#DejaVuSans-35"/>
       <use x="351.5625" xlink:href="#DejaVuSans-6d"/>
      </g>
     </g>
    </g>
    <g id="xtick_5">
     <g id="line2d_5">
      <g>
       <use style="stroke:#000000;stroke-width:0.8;" x="294.738137" xlink:href="#m462c3f7c5d" y="288.430125"/>
      </g>
     </g>
     <g id="text_5">
      <!-- 15h:35m -->
      <g transform="translate(272.2897 303.028562)scale(0.1 -0.1)">
       <defs>
        <path d="M 2597 2516 
Q 3050 2419 3304 2112 
Q 3559 1806 3559 1356 
Q 3559 666 3084 287 
Q 2609 -91 1734 -91 
Q 1441 -91 1130 -33 
Q 819 25 488 141 
L 488 750 
Q 750 597 1062 519 
Q 1375 441 1716 441 
Q 2309 441 2620 675 
Q 2931 909 2931 1356 
Q 2931 1769 2642 2001 
Q 2353 2234 1838 2234 
L 1294 2234 
L 1294 2753 
L 1863 2753 
Q 2328 2753 2575 2939 
Q 2822 3125 2822 3475 
Q 2822 3834 2567 4026 
Q 2313 4219 1838 4219 
Q 1578 4219 1281 4162 
Q 984 4106 628 3988 
L 628 4550 
Q 988 4650 1302 4700 
Q 1616 4750 1894 4750 
Q 2613 4750 3031 4423 
Q 3450 4097 3450 3541 
Q 3450 3153 3228 2886 
Q 3006 2619 2597 2516 
z
" id="DejaVuSans-33" transform="scale(0.015625)"/>
       </defs>
       <use xlink:href="#DejaVuSans-31"/>
       <use x="63.623047" xlink:href="#DejaVuSans-35"/>
       <use x="127.246094" xlink:href="#DejaVuSans-68"/>
       <use x="190.625" xlink:href="#DejaVuSans-3a"/>
       <use x="224.316406" xlink:href="#DejaVuSans-33"/>
       <use x="287.939453" xlink:href="#DejaVuSans-35"/>
       <use x="351.5625" xlink:href="#DejaVuSans-6d"/>
      </g>
     </g>
    </g>
    <g id="xtick_6">
     <g id="line2d_6">
      <g>
       <use style="stroke:#000000;stroke-width:0.8;" x="349.441834" xlink:href="#m462c3f7c5d" y="288.430125"/>
      </g>
     </g>
     <g id="text_6">
      <!-- 19h:25m -->
      <g transform="translate(326.993396 303.028562)scale(0.1 -0.1)">
       <defs>
        <path d="M 703 97 
L 703 672 
Q 941 559 1184 500 
Q 1428 441 1663 441 
Q 2288 441 2617 861 
Q 2947 1281 2994 2138 
Q 2813 1869 2534 1725 
Q 2256 1581 1919 1581 
Q 1219 1581 811 2004 
Q 403 2428 403 3163 
Q 403 3881 828 4315 
Q 1253 4750 1959 4750 
Q 2769 4750 3195 4129 
Q 3622 3509 3622 2328 
Q 3622 1225 3098 567 
Q 2575 -91 1691 -91 
Q 1453 -91 1209 -44 
Q 966 3 703 97 
z
M 1959 2075 
Q 2384 2075 2632 2365 
Q 2881 2656 2881 3163 
Q 2881 3666 2632 3958 
Q 2384 4250 1959 4250 
Q 1534 4250 1286 3958 
Q 1038 3666 1038 3163 
Q 1038 2656 1286 2365 
Q 1534 2075 1959 2075 
z
" id="DejaVuSans-39" transform="scale(0.015625)"/>
        <path d="M 1228 531 
L 3431 531 
L 3431 0 
L 469 0 
L 469 531 
Q 828 903 1448 1529 
Q 2069 2156 2228 2338 
Q 2531 2678 2651 2914 
Q 2772 3150 2772 3378 
Q 2772 3750 2511 3984 
Q 2250 4219 1831 4219 
Q 1534 4219 1204 4116 
Q 875 4013 500 3803 
L 500 4441 
Q 881 4594 1212 4672 
Q 1544 4750 1819 4750 
Q 2544 4750 2975 4387 
Q 3406 4025 3406 3419 
Q 3406 3131 3298 2873 
Q 3191 2616 2906 2266 
Q 2828 2175 2409 1742 
Q 1991 1309 1228 531 
z
" id="DejaVuSans-32" transform="scale(0.015625)"/>
       </defs>
       <use xlink:href="#DejaVuSans-31"/>
       <use x="63.623047" xlink:href="#DejaVuSans-39"/>
       <use x="127.246094" xlink:href="#DejaVuSans-68"/>
       <use x="190.625" xlink:href="#DejaVuSans-3a"/>
       <use x="224.316406" xlink:href="#DejaVuSans-32"/>
       <use x="287.939453" xlink:href="#DejaVuSans-35"/>
       <use x="351.5625" xlink:href="#DejaVuSans-6d"/>
      </g>
     </g>
    </g>
    <g id="text_7">
     <!-- Time (hour:minute) -->
     <g transform="translate(189.843594 316.706687)scale(0.1 -0.1)">
      <defs>
       <path d="M -19 4666 
L 3928 4666 
L 3928 4134 
L 2272 4134 
L 2272 0 
L 1638 0 
L 1638 4134 
L -19 4134 
L -19 4666 
z
" id="DejaVuSans-54" transform="scale(0.015625)"/>
       <path d="M 603 3500 
L 1178 3500 
L 1178 0 
L 603 0 
L 603 3500 
z
M 603 4863 
L 1178 4863 
L 1178 4134 
L 603 4134 
L 603 4863 
z
" id="DejaVuSans-69" transform="scale(0.015625)"/>
       <path d="M 3597 1894 
L 3597 1613 
L 953 1613 
Q 991 1019 1311 708 
Q 1631 397 2203 397 
Q 2534 397 2845 478 
Q 3156 559 3463 722 
L 3463 178 
Q 3153 47 2828 -22 
Q 2503 -91 2169 -91 
Q 1331 -91 842 396 
Q 353 884 353 1716 
Q 353 2575 817 3079 
Q 1281 3584 2069 3584 
Q 2775 3584 3186 3129 
Q 3597 2675 3597 1894 
z
M 3022 2063 
Q 3016 2534 2758 2815 
Q 2500 3097 2075 3097 
Q 1594 3097 1305 2825 
Q 1016 2553 972 2059 
L 3022 2063 
z
" id="DejaVuSans-65" transform="scale(0.015625)"/>
       <path id="DejaVuSans-20" transform="scale(0.015625)"/>
       <path d="M 1984 4856 
Q 1566 4138 1362 3434 
Q 1159 2731 1159 2009 
Q 1159 1288 1364 580 
Q 1569 -128 1984 -844 
L 1484 -844 
Q 1016 -109 783 600 
Q 550 1309 550 2009 
Q 550 2706 781 3412 
Q 1013 4119 1484 4856 
L 1984 4856 
z
" id="DejaVuSans-28" transform="scale(0.015625)"/>
       <path d="M 1959 3097 
Q 1497 3097 1228 2736 
Q 959 2375 959 1747 
Q 959 1119 1226 758 
Q 1494 397 1959 397 
Q 2419 397 2687 759 
Q 2956 1122 2956 1747 
Q 2956 2369 2687 2733 
Q 2419 3097 1959 3097 
z
M 1959 3584 
Q 2709 3584 3137 3096 
Q 3566 2609 3566 1747 
Q 3566 888 3137 398 
Q 2709 -91 1959 -91 
Q 1206 -91 779 398 
Q 353 888 353 1747 
Q 353 2609 779 3096 
Q 1206 3584 1959 3584 
z
" id="DejaVuSans-6f" transform="scale(0.015625)"/>
       <path d="M 544 1381 
L 544 3500 
L 1119 3500 
L 1119 1403 
Q 1119 906 1312 657 
Q 1506 409 1894 409 
Q 2359 409 2629 706 
Q 2900 1003 2900 1516 
L 2900 3500 
L 3475 3500 
L 3475 0 
L 2900 0 
L 2900 538 
Q 2691 219 2414 64 
Q 2138 -91 1772 -91 
Q 1169 -91 856 284 
Q 544 659 544 1381 
z
M 1991 3584 
L 1991 3584 
z
" id="DejaVuSans-75" transform="scale(0.015625)"/>
       <path d="M 2631 2963 
Q 2534 3019 2420 3045 
Q 2306 3072 2169 3072 
Q 1681 3072 1420 2755 
Q 1159 2438 1159 1844 
L 1159 0 
L 581 0 
L 581 3500 
L 1159 3500 
L 1159 2956 
Q 1341 3275 1631 3429 
Q 1922 3584 2338 3584 
Q 2397 3584 2469 3576 
Q 2541 3569 2628 3553 
L 2631 2963 
z
" id="DejaVuSans-72" transform="scale(0.015625)"/>
       <path d="M 3513 2113 
L 3513 0 
L 2938 0 
L 2938 2094 
Q 2938 2591 2744 2837 
Q 2550 3084 2163 3084 
Q 1697 3084 1428 2787 
Q 1159 2491 1159 1978 
L 1159 0 
L 581 0 
L 581 3500 
L 1159 3500 
L 1159 2956 
Q 1366 3272 1645 3428 
Q 1925 3584 2291 3584 
Q 2894 3584 3203 3211 
Q 3513 2838 3513 2113 
z
" id="DejaVuSans-6e" transform="scale(0.015625)"/>
       <path d="M 1172 4494 
L 1172 3500 
L 2356 3500 
L 2356 3053 
L 1172 3053 
L 1172 1153 
Q 1172 725 1289 603 
Q 1406 481 1766 481 
L 2356 481 
L 2356 0 
L 1766 0 
Q 1100 0 847 248 
Q 594 497 594 1153 
L 594 3053 
L 172 3053 
L 172 3500 
L 594 3500 
L 594 4494 
L 1172 4494 
z
" id="DejaVuSans-74" transform="scale(0.015625)"/>
       <path d="M 513 4856 
L 1013 4856 
Q 1481 4119 1714 3412 
Q 1947 2706 1947 2009 
Q 1947 1309 1714 600 
Q 1481 -109 1013 -844 
L 513 -844 
Q 928 -128 1133 580 
Q 1338 1288 1338 2009 
Q 1338 2731 1133 3434 
Q 928 4138 513 4856 
z
" id="DejaVuSans-29" transform="scale(0.015625)"/>
      </defs>
      <use xlink:href="#DejaVuSans-54"/>
      <use x="57.958984" xlink:href="#DejaVuSans-69"/>
      <use x="85.742188" xlink:href="#DejaVuSans-6d"/>
      <use x="183.154297" xlink:href="#DejaVuSans-65"/>
      <use x="244.677734" xlink:href="#DejaVuSans-20"/>
      <use x="276.464844" xlink:href="#DejaVuSans-28"/>
      <use x="315.478516" xlink:href="#DejaVuSans-68"/>
      <use x="378.857422" xlink:href="#DejaVuSans-6f"/>
      <use x="440.039062" xlink:href="#DejaVuSans-75"/>
      <use x="503.417969" xlink:href="#DejaVuSans-72"/>
      <use x="542.78125" xlink:href="#DejaVuSans-3a"/>
      <use x="576.472656" xlink:href="#DejaVuSans-6d"/>
      <use x="673.884766" xlink:href="#DejaVuSans-69"/>
      <use x="701.667969" xlink:href="#DejaVuSans-6e"/>
      <use x="765.046875" xlink:href="#DejaVuSans-75"/>
      <use x="828.425781" xlink:href="#DejaVuSans-74"/>
      <use x="867.634766" xlink:href="#DejaVuSans-65"/>
      <use x="929.158203" xlink:href="#DejaVuSans-29"/>
     </g>
    </g>
   </g>
   <g id="matplotlib.axis_2">
    <g id="ytick_1">
     <g id="line2d_7">
      <defs>
       <path d="M 0 0 
L -3.5 0 
" id="m8841a43de8" style="stroke:#000000;stroke-width:0.8;"/>
      </defs>
      <g>
       <use style="stroke:#000000;stroke-width:0.8;" x="59.690625" xlink:href="#m8841a43de8" y="287.007581"/>
      </g>
     </g>
     <g id="text_8">
      <!-- 6500 -->
      <g transform="translate(27.240625 290.8068)scale(0.1 -0.1)">
       <defs>
        <path d="M 2113 2584 
Q 1688 2584 1439 2293 
Q 1191 2003 1191 1497 
Q 1191 994 1439 701 
Q 1688 409 2113 409 
Q 2538 409 2786 701 
Q 3034 994 3034 1497 
Q 3034 2003 2786 2293 
Q 2538 2584 2113 2584 
z
M 3366 4563 
L 3366 3988 
Q 3128 4100 2886 4159 
Q 2644 4219 2406 4219 
Q 1781 4219 1451 3797 
Q 1122 3375 1075 2522 
Q 1259 2794 1537 2939 
Q 1816 3084 2150 3084 
Q 2853 3084 3261 2657 
Q 3669 2231 3669 1497 
Q 3669 778 3244 343 
Q 2819 -91 2113 -91 
Q 1303 -91 875 529 
Q 447 1150 447 2328 
Q 447 3434 972 4092 
Q 1497 4750 2381 4750 
Q 2619 4750 2861 4703 
Q 3103 4656 3366 4563 
z
" id="DejaVuSans-36" transform="scale(0.015625)"/>
        <path d="M 2034 4250 
Q 1547 4250 1301 3770 
Q 1056 3291 1056 2328 
Q 1056 1369 1301 889 
Q 1547 409 2034 409 
Q 2525 409 2770 889 
Q 3016 1369 3016 2328 
Q 3016 3291 2770 3770 
Q 2525 4250 2034 4250 
z
M 2034 4750 
Q 2819 4750 3233 4129 
Q 3647 3509 3647 2328 
Q 3647 1150 3233 529 
Q 2819 -91 2034 -91 
Q 1250 -91 836 529 
Q 422 1150 422 2328 
Q 422 3509 836 4129 
Q 1250 4750 2034 4750 
z
" id="DejaVuSans-30" transform="scale(0.015625)"/>
       </defs>
       <use xlink:href="#DejaVuSans-36"/>
       <use x="63.623047" xlink:href="#DejaVuSans-35"/>
       <use x="127.246094" xlink:href="#DejaVuSans-30"/>
       <use x="190.869141" xlink:href="#DejaVuSans-30"/>
      </g>
     </g>
    </g>
    <g id="ytick_2">
     <g id="line2d_8">
      <g>
       <use style="stroke:#000000;stroke-width:0.8;" x="59.690625" xlink:href="#m8841a43de8" y="252.012644"/>
      </g>
     </g>
     <g id="text_9">
      <!-- 7000 -->
      <g transform="translate(27.240625 255.811862)scale(0.1 -0.1)">
       <use xlink:href="#DejaVuSans-37"/>
       <use x="63.623047" xlink:href="#DejaVuSans-30"/>
       <use x="127.246094" xlink:href="#DejaVuSans-30"/>
       <use x="190.869141" xlink:href="#DejaVuSans-30"/>
      </g>
     </g>
    </g>
    <g id="ytick_3">
     <g id="line2d_9">
      <g>
       <use style="stroke:#000000;stroke-width:0.8;" x="59.690625" xlink:href="#m8841a43de8" y="217.017707"/>
      </g>
     </g>
     <g id="text_10">
      <!-- 7500 -->
      <g transform="translate(27.240625 220.816925)scale(0.1 -0.1)">
       <use xlink:href="#DejaVuSans-37"/>
       <use x="63.623047" xlink:href="#DejaVuSans-35"/>
       <use x="127.246094" xlink:href="#DejaVuSans-30"/>
       <use x="190.869141" xlink:href="#DejaVuSans-30"/>
      </g>
     </g>
    </g>
    <g id="ytick_4">
     <g id="line2d_10">
      <g>
       <use style="stroke:#000000;stroke-width:0.8;" x="59.690625" xlink:href="#m8841a43de8" y="182.02277"/>
      </g>
     </g>
     <g id="text_11">
      <!-- 8000 -->
      <g transform="translate(27.240625 185.821988)scale(0.1 -0.1)">
       <defs>
        <path d="M 2034 2216 
Q 1584 2216 1326 1975 
Q 1069 1734 1069 1313 
Q 1069 891 1326 650 
Q 1584 409 2034 409 
Q 2484 409 2743 651 
Q 3003 894 3003 1313 
Q 3003 1734 2745 1975 
Q 2488 2216 2034 2216 
z
M 1403 2484 
Q 997 2584 770 2862 
Q 544 3141 544 3541 
Q 544 4100 942 4425 
Q 1341 4750 2034 4750 
Q 2731 4750 3128 4425 
Q 3525 4100 3525 3541 
Q 3525 3141 3298 2862 
Q 3072 2584 2669 2484 
Q 3125 2378 3379 2068 
Q 3634 1759 3634 1313 
Q 3634 634 3220 271 
Q 2806 -91 2034 -91 
Q 1263 -91 848 271 
Q 434 634 434 1313 
Q 434 1759 690 2068 
Q 947 2378 1403 2484 
z
M 1172 3481 
Q 1172 3119 1398 2916 
Q 1625 2713 2034 2713 
Q 2441 2713 2670 2916 
Q 2900 3119 2900 3481 
Q 2900 3844 2670 4047 
Q 2441 4250 2034 4250 
Q 1625 4250 1398 4047 
Q 1172 3844 1172 3481 
z
" id="DejaVuSans-38" transform="scale(0.015625)"/>
       </defs>
       <use xlink:href="#DejaVuSans-38"/>
       <use x="63.623047" xlink:href="#DejaVuSans-30"/>
       <use x="127.246094" xlink:href="#DejaVuSans-30"/>
       <use x="190.869141" xlink:href="#DejaVuSans-30"/>
      </g>
     </g>
    </g>
    <g id="ytick_5">
     <g id="line2d_11">
      <g>
       <use style="stroke:#000000;stroke-width:0.8;" x="59.690625" xlink:href="#m8841a43de8" y="147.027833"/>
      </g>
     </g>
     <g id="text_12">
      <!-- 8500 -->
      <g transform="translate(27.240625 150.827051)scale(0.1 -0.1)">
       <use xlink:href="#DejaVuSans-38"/>
       <use x="63.623047" xlink:href="#DejaVuSans-35"/>
       <use x="127.246094" xlink:href="#DejaVuSans-30"/>
       <use x="190.869141" xlink:href="#DejaVuSans-30"/>
      </g>
     </g>
    </g>
    <g id="ytick_6">
     <g id="line2d_12">
      <g>
       <use style="stroke:#000000;stroke-width:0.8;" x="59.690625" xlink:href="#m8841a43de8" y="112.032895"/>
      </g>
     </g>
     <g id="text_13">
      <!-- 9000 -->
      <g transform="translate(27.240625 115.832114)scale(0.1 -0.1)">
       <use xlink:href="#DejaVuSans-39"/>
       <use x="63.623047" xlink:href="#DejaVuSans-30"/>
       <use x="127.246094" xlink:href="#DejaVuSans-30"/>
       <use x="190.869141" xlink:href="#DejaVuSans-30"/>
      </g>
     </g>
    </g>
    <g id="ytick_7">
     <g id="line2d_13">
      <g>
       <use style="stroke:#000000;stroke-width:0.8;" x="59.690625" xlink:href="#m8841a43de8" y="77.037958"/>
      </g>
     </g>
     <g id="text_14">
      <!-- 9500 -->
      <g transform="translate(27.240625 80.837177)scale(0.1 -0.1)">
       <use xlink:href="#DejaVuSans-39"/>
       <use x="63.623047" xlink:href="#DejaVuSans-35"/>
       <use x="127.246094" xlink:href="#DejaVuSans-30"/>
       <use x="190.869141" xlink:href="#DejaVuSans-30"/>
      </g>
     </g>
    </g>
    <g id="ytick_8">
     <g id="line2d_14">
      <g>
       <use style="stroke:#000000;stroke-width:0.8;" x="59.690625" xlink:href="#m8841a43de8" y="42.043021"/>
      </g>
     </g>
     <g id="text_15">
      <!-- 10000 -->
      <g transform="translate(20.878125 45.84224)scale(0.1 -0.1)">
       <use xlink:href="#DejaVuSans-31"/>
       <use x="63.623047" xlink:href="#DejaVuSans-30"/>
       <use x="127.246094" xlink:href="#DejaVuSans-30"/>
       <use x="190.869141" xlink:href="#DejaVuSans-30"/>
       <use x="254.492188" xlink:href="#DejaVuSans-30"/>
      </g>
     </g>
    </g>
    <g id="text_16">
     <!-- Code region coverage -->
     <g transform="translate(14.798438 210.379594)rotate(-90)scale(0.1 -0.1)">
      <defs>
       <path d="M 4122 4306 
L 4122 3641 
Q 3803 3938 3442 4084 
Q 3081 4231 2675 4231 
Q 1875 4231 1450 3742 
Q 1025 3253 1025 2328 
Q 1025 1406 1450 917 
Q 1875 428 2675 428 
Q 3081 428 3442 575 
Q 3803 722 4122 1019 
L 4122 359 
Q 3791 134 3420 21 
Q 3050 -91 2638 -91 
Q 1578 -91 968 557 
Q 359 1206 359 2328 
Q 359 3453 968 4101 
Q 1578 4750 2638 4750 
Q 3056 4750 3426 4639 
Q 3797 4528 4122 4306 
z
" id="DejaVuSans-43" transform="scale(0.015625)"/>
       <path d="M 2906 2969 
L 2906 4863 
L 3481 4863 
L 3481 0 
L 2906 0 
L 2906 525 
Q 2725 213 2448 61 
Q 2172 -91 1784 -91 
Q 1150 -91 751 415 
Q 353 922 353 1747 
Q 353 2572 751 3078 
Q 1150 3584 1784 3584 
Q 2172 3584 2448 3432 
Q 2725 3281 2906 2969 
z
M 947 1747 
Q 947 1113 1208 752 
Q 1469 391 1925 391 
Q 2381 391 2643 752 
Q 2906 1113 2906 1747 
Q 2906 2381 2643 2742 
Q 2381 3103 1925 3103 
Q 1469 3103 1208 2742 
Q 947 2381 947 1747 
z
" id="DejaVuSans-64" transform="scale(0.015625)"/>
       <path d="M 2906 1791 
Q 2906 2416 2648 2759 
Q 2391 3103 1925 3103 
Q 1463 3103 1205 2759 
Q 947 2416 947 1791 
Q 947 1169 1205 825 
Q 1463 481 1925 481 
Q 2391 481 2648 825 
Q 2906 1169 2906 1791 
z
M 3481 434 
Q 3481 -459 3084 -895 
Q 2688 -1331 1869 -1331 
Q 1566 -1331 1297 -1286 
Q 1028 -1241 775 -1147 
L 775 -588 
Q 1028 -725 1275 -790 
Q 1522 -856 1778 -856 
Q 2344 -856 2625 -561 
Q 2906 -266 2906 331 
L 2906 616 
Q 2728 306 2450 153 
Q 2172 0 1784 0 
Q 1141 0 747 490 
Q 353 981 353 1791 
Q 353 2603 747 3093 
Q 1141 3584 1784 3584 
Q 2172 3584 2450 3431 
Q 2728 3278 2906 2969 
L 2906 3500 
L 3481 3500 
L 3481 434 
z
" id="DejaVuSans-67" transform="scale(0.015625)"/>
       <path d="M 3122 3366 
L 3122 2828 
Q 2878 2963 2633 3030 
Q 2388 3097 2138 3097 
Q 1578 3097 1268 2742 
Q 959 2388 959 1747 
Q 959 1106 1268 751 
Q 1578 397 2138 397 
Q 2388 397 2633 464 
Q 2878 531 3122 666 
L 3122 134 
Q 2881 22 2623 -34 
Q 2366 -91 2075 -91 
Q 1284 -91 818 406 
Q 353 903 353 1747 
Q 353 2603 823 3093 
Q 1294 3584 2113 3584 
Q 2378 3584 2631 3529 
Q 2884 3475 3122 3366 
z
" id="DejaVuSans-63" transform="scale(0.015625)"/>
       <path d="M 191 3500 
L 800 3500 
L 1894 563 
L 2988 3500 
L 3597 3500 
L 2284 0 
L 1503 0 
L 191 3500 
z
" id="DejaVuSans-76" transform="scale(0.015625)"/>
       <path d="M 2194 1759 
Q 1497 1759 1228 1600 
Q 959 1441 959 1056 
Q 959 750 1161 570 
Q 1363 391 1709 391 
Q 2188 391 2477 730 
Q 2766 1069 2766 1631 
L 2766 1759 
L 2194 1759 
z
M 3341 1997 
L 3341 0 
L 2766 0 
L 2766 531 
Q 2569 213 2275 61 
Q 1981 -91 1556 -91 
Q 1019 -91 701 211 
Q 384 513 384 1019 
Q 384 1609 779 1909 
Q 1175 2209 1959 2209 
L 2766 2209 
L 2766 2266 
Q 2766 2663 2505 2880 
Q 2244 3097 1772 3097 
Q 1472 3097 1187 3025 
Q 903 2953 641 2809 
L 641 3341 
Q 956 3463 1253 3523 
Q 1550 3584 1831 3584 
Q 2591 3584 2966 3190 
Q 3341 2797 3341 1997 
z
" id="DejaVuSans-61" transform="scale(0.015625)"/>
      </defs>
      <use xlink:href="#DejaVuSans-43"/>
      <use x="69.824219" xlink:href="#DejaVuSans-6f"/>
      <use x="131.005859" xlink:href="#DejaVuSans-64"/>
      <use x="194.482422" xlink:href="#DejaVuSans-65"/>
      <use x="256.005859" xlink:href="#DejaVuSans-20"/>
      <use x="287.792969" xlink:href="#DejaVuSans-72"/>
      <use x="326.65625" xlink:href="#DejaVuSans-65"/>
      <use x="388.179688" xlink:href="#DejaVuSans-67"/>
      <use x="451.65625" xlink:href="#DejaVuSans-69"/>
      <use x="479.439453" xlink:href="#DejaVuSans-6f"/>
      <use x="540.621094" xlink:href="#DejaVuSans-6e"/>
      <use x="604" xlink:href="#DejaVuSans-20"/>
      <use x="635.787109" xlink:href="#DejaVuSans-63"/>
      <use x="690.767578" xlink:href="#DejaVuSans-6f"/>
      <use x="751.949219" xlink:href="#DejaVuSans-76"/>
      <use x="811.128906" xlink:href="#DejaVuSans-65"/>
      <use x="872.652344" xlink:href="#DejaVuSans-72"/>
      <use x="913.765625" xlink:href="#DejaVuSans-61"/>
      <use x="975.044922" xlink:href="#DejaVuSans-67"/>
      <use x="1038.521484" xlink:href="#DejaVuSans-65"/>
     </g>
    </g>
   </g>
   <g id="line2d_15">
    <path clip-path="url(#p356263b3fd)" d="M 75.923352 214.078132 
L 79.490985 171.664268 
L 83.058617 152.487043 
L 86.626249 148.462625 
L 90.193882 145.103111 
L 93.761514 141.638612 
L 97.329146 113.012754 
L 100.896779 102.024343 
L 104.464411 100.554556 
L 108.032044 100.204607 
L 111.599676 117.562095 
L 115.167308 115.847344 
L 118.734941 93.345599 
L 122.302573 89.916095 
L 125.870205 88.446308 
L 129.437838 87.46645 
L 133.00547 85.996662 
L 136.573103 86.486591 
L 140.140735 86.241627 
L 143.708367 85.576723 
L 147.276 84.736845 
L 150.843632 84.736845 
L 154.411264 84.981809 
L 157.978897 84.70185 
L 161.546529 81.93725 
L 165.114161 81.93725 
L 168.681794 80.117513 
L 172.249426 52.121563 
L 175.817059 66.714452 
L 179.384691 66.714452 
L 182.952323 52.121563 
L 186.519956 52.051573 
L 190.087588 52.051573 
L 193.65522 52.051573 
L 197.222853 51.841604 
L 200.790485 65.034695 
L 204.358118 65.034695 
L 207.92575 51.771614 
L 211.493382 51.771614 
L 215.061015 51.771614 
L 218.628647 51.771614 
L 222.196279 64.9997 
L 225.763912 64.9997 
L 229.331544 51.771614 
L 232.899176 51.771614 
L 236.466809 64.9997 
L 240.034441 51.771614 
L 243.602074 51.771614 
L 247.169706 64.719741 
L 250.737338 64.719741 
L 254.304971 51.561644 
L 257.872603 51.491654 
L 261.440235 62.550054 
L 265.007868 61.010277 
L 268.5755 51.281685 
L 272.143132 51.281685 
L 275.710765 61.010277 
L 279.278397 60.975282 
L 282.84603 51.281685 
L 286.413662 51.281685 
L 289.981294 51.281685 
L 293.548927 51.281685 
L 297.116559 51.281685 
L 300.684191 60.975282 
L 304.251824 60.975282 
L 307.819456 48.13214 
L 311.387089 48.13214 
L 314.954721 48.13214 
L 318.522353 48.13214 
L 322.089986 47.712201 
L 325.657618 47.677206 
L 329.22525 47.677206 
L 332.792883 47.677206 
L 336.360515 47.677206 
L 339.928147 46.382393 
L 343.49578 46.382393 
L 347.063412 46.382393 
L 350.631045 46.382393 
L 354.198677 47.012302 
L 357.766309 47.012302 
L 361.333942 46.382393 
L 364.901574 45.962454 
L 368.469206 45.962454 
L 372.036839 45.542515 
L 375.604471 42.043021 
L 379.172104 42.043021 
L 382.739736 42.043021 
L 386.307368 42.043021 
L 389.875001 41.063163 
L 393.442633 41.063163 
L 397.010265 42.043021 
L 400.577898 42.043021 
" style="fill:none;stroke:#d62728;stroke-linecap:square;stroke-width:1.5;"/>
    <defs>
     <path d="M 0 -3 
L -3 3 
L 3 3 
z
" id="me4b69c8c79" style="stroke:#ffffff;stroke-linejoin:miter;stroke-width:0.75;"/>
    </defs>
    <g clip-path="url(#p356263b3fd)">
     <use style="fill:#d62728;stroke:#ffffff;stroke-linejoin:miter;stroke-width:0.75;" x="75.923352" xlink:href="#me4b69c8c79" y="214.078132"/>
     <use style="fill:#d62728;stroke:#ffffff;stroke-linejoin:miter;stroke-width:0.75;" x="79.490985" xlink:href="#me4b69c8c79" y="171.664268"/>
     <use style="fill:#d62728;stroke:#ffffff;stroke-linejoin:miter;stroke-width:0.75;" x="83.058617" xlink:href="#me4b69c8c79" y="152.487043"/>
     <use style="fill:#d62728;stroke:#ffffff;stroke-linejoin:miter;stroke-width:0.75;" x="86.626249" xlink:href="#me4b69c8c79" y="148.462625"/>
     <use style="fill:#d62728;stroke:#ffffff;stroke-linejoin:miter;stroke-width:0.75;" x="90.193882" xlink:href="#me4b69c8c79" y="145.103111"/>
     <use style="fill:#d62728;stroke:#ffffff;stroke-linejoin:miter;stroke-width:0.75;" x="93.761514" xlink:href="#me4b69c8c79" y="141.638612"/>
     <use style="fill:#d62728;stroke:#ffffff;stroke-linejoin:miter;stroke-width:0.75;" x="97.329146" xlink:href="#me4b69c8c79" y="113.012754"/>
     <use style="fill:#d62728;stroke:#ffffff;stroke-linejoin:miter;stroke-width:0.75;" x="100.896779" xlink:href="#me4b69c8c79" y="102.024343"/>
     <use style="fill:#d62728;stroke:#ffffff;stroke-linejoin:miter;stroke-width:0.75;" x="104.464411" xlink:href="#me4b69c8c79" y="100.554556"/>
     <use style="fill:#d62728;stroke:#ffffff;stroke-linejoin:miter;stroke-width:0.75;" x="108.032044" xlink:href="#me4b69c8c79" y="100.204607"/>
     <use style="fill:#d62728;stroke:#ffffff;stroke-linejoin:miter;stroke-width:0.75;" x="111.599676" xlink:href="#me4b69c8c79" y="117.562095"/>
     <use style="fill:#d62728;stroke:#ffffff;stroke-linejoin:miter;stroke-width:0.75;" x="115.167308" xlink:href="#me4b69c8c79" y="115.847344"/>
     <use style="fill:#d62728;stroke:#ffffff;stroke-linejoin:miter;stroke-width:0.75;" x="118.734941" xlink:href="#me4b69c8c79" y="93.345599"/>
     <use style="fill:#d62728;stroke:#ffffff;stroke-linejoin:miter;stroke-width:0.75;" x="122.302573" xlink:href="#me4b69c8c79" y="89.916095"/>
     <use style="fill:#d62728;stroke:#ffffff;stroke-linejoin:miter;stroke-width:0.75;" x="125.870205" xlink:href="#me4b69c8c79" y="88.446308"/>
     <use style="fill:#d62728;stroke:#ffffff;stroke-linejoin:miter;stroke-width:0.75;" x="129.437838" xlink:href="#me4b69c8c79" y="87.46645"/>
     <use style="fill:#d62728;stroke:#ffffff;stroke-linejoin:miter;stroke-width:0.75;" x="133.00547" xlink:href="#me4b69c8c79" y="85.996662"/>
     <use style="fill:#d62728;stroke:#ffffff;stroke-linejoin:miter;stroke-width:0.75;" x="136.573103" xlink:href="#me4b69c8c79" y="86.486591"/>
     <use style="fill:#d62728;stroke:#ffffff;stroke-linejoin:miter;stroke-width:0.75;" x="140.140735" xlink:href="#me4b69c8c79" y="86.241627"/>
     <use style="fill:#d62728;stroke:#ffffff;stroke-linejoin:miter;stroke-width:0.75;" x="143.708367" xlink:href="#me4b69c8c79" y="85.576723"/>
     <use style="fill:#d62728;stroke:#ffffff;stroke-linejoin:miter;stroke-width:0.75;" x="147.276" xlink:href="#me4b69c8c79" y="84.736845"/>
     <use style="fill:#d62728;stroke:#ffffff;stroke-linejoin:miter;stroke-width:0.75;" x="150.843632" xlink:href="#me4b69c8c79" y="84.736845"/>
     <use style="fill:#d62728;stroke:#ffffff;stroke-linejoin:miter;stroke-width:0.75;" x="154.411264" xlink:href="#me4b69c8c79" y="84.981809"/>
     <use style="fill:#d62728;stroke:#ffffff;stroke-linejoin:miter;stroke-width:0.75;" x="157.978897" xlink:href="#me4b69c8c79" y="84.70185"/>
     <use style="fill:#d62728;stroke:#ffffff;stroke-linejoin:miter;stroke-width:0.75;" x="161.546529" xlink:href="#me4b69c8c79" y="81.93725"/>
     <use style="fill:#d62728;stroke:#ffffff;stroke-linejoin:miter;stroke-width:0.75;" x="165.114161" xlink:href="#me4b69c8c79" y="81.93725"/>
     <use style="fill:#d62728;stroke:#ffffff;stroke-linejoin:miter;stroke-width:0.75;" x="168.681794" xlink:href="#me4b69c8c79" y="80.117513"/>
     <use style="fill:#d62728;stroke:#ffffff;stroke-linejoin:miter;stroke-width:0.75;" x="172.249426" xlink:href="#me4b69c8c79" y="52.121563"/>
     <use style="fill:#d62728;stroke:#ffffff;stroke-linejoin:miter;stroke-width:0.75;" x="175.817059" xlink:href="#me4b69c8c79" y="66.714452"/>
     <use style="fill:#d62728;stroke:#ffffff;stroke-linejoin:miter;stroke-width:0.75;" x="179.384691" xlink:href="#me4b69c8c79" y="66.714452"/>
     <use style="fill:#d62728;stroke:#ffffff;stroke-linejoin:miter;stroke-width:0.75;" x="182.952323" xlink:href="#me4b69c8c79" y="52.121563"/>
     <use style="fill:#d62728;stroke:#ffffff;stroke-linejoin:miter;stroke-width:0.75;" x="186.519956" xlink:href="#me4b69c8c79" y="52.051573"/>
     <use style="fill:#d62728;stroke:#ffffff;stroke-linejoin:miter;stroke-width:0.75;" x="190.087588" xlink:href="#me4b69c8c79" y="52.051573"/>
     <use style="fill:#d62728;stroke:#ffffff;stroke-linejoin:miter;stroke-width:0.75;" x="193.65522" xlink:href="#me4b69c8c79" y="52.051573"/>
     <use style="fill:#d62728;stroke:#ffffff;stroke-linejoin:miter;stroke-width:0.75;" x="197.222853" xlink:href="#me4b69c8c79" y="51.841604"/>
     <use style="fill:#d62728;stroke:#ffffff;stroke-linejoin:miter;stroke-width:0.75;" x="200.790485" xlink:href="#me4b69c8c79" y="65.034695"/>
     <use style="fill:#d62728;stroke:#ffffff;stroke-linejoin:miter;stroke-width:0.75;" x="204.358118" xlink:href="#me4b69c8c79" y="65.034695"/>
     <use style="fill:#d62728;stroke:#ffffff;stroke-linejoin:miter;stroke-width:0.75;" x="207.92575" xlink:href="#me4b69c8c79" y="51.771614"/>
     <use style="fill:#d62728;stroke:#ffffff;stroke-linejoin:miter;stroke-width:0.75;" x="211.493382" xlink:href="#me4b69c8c79" y="51.771614"/>
     <use style="fill:#d62728;stroke:#ffffff;stroke-linejoin:miter;stroke-width:0.75;" x="215.061015" xlink:href="#me4b69c8c79" y="51.771614"/>
     <use style="fill:#d62728;stroke:#ffffff;stroke-linejoin:miter;stroke-width:0.75;" x="218.628647" xlink:href="#me4b69c8c79" y="51.771614"/>
     <use style="fill:#d62728;stroke:#ffffff;stroke-linejoin:miter;stroke-width:0.75;" x="222.196279" xlink:href="#me4b69c8c79" y="64.9997"/>
     <use style="fill:#d62728;stroke:#ffffff;stroke-linejoin:miter;stroke-width:0.75;" x="225.763912" xlink:href="#me4b69c8c79" y="64.9997"/>
     <use style="fill:#d62728;stroke:#ffffff;stroke-linejoin:miter;stroke-width:0.75;" x="229.331544" xlink:href="#me4b69c8c79" y="51.771614"/>
     <use style="fill:#d62728;stroke:#ffffff;stroke-linejoin:miter;stroke-width:0.75;" x="232.899176" xlink:href="#me4b69c8c79" y="51.771614"/>
     <use style="fill:#d62728;stroke:#ffffff;stroke-linejoin:miter;stroke-width:0.75;" x="236.466809" xlink:href="#me4b69c8c79" y="64.9997"/>
     <use style="fill:#d62728;stroke:#ffffff;stroke-linejoin:miter;stroke-width:0.75;" x="240.034441" xlink:href="#me4b69c8c79" y="51.771614"/>
     <use style="fill:#d62728;stroke:#ffffff;stroke-linejoin:miter;stroke-width:0.75;" x="243.602074" xlink:href="#me4b69c8c79" y="51.771614"/>
     <use style="fill:#d62728;stroke:#ffffff;stroke-linejoin:miter;stroke-width:0.75;" x="247.169706" xlink:href="#me4b69c8c79" y="64.719741"/>
     <use style="fill:#d62728;stroke:#ffffff;stroke-linejoin:miter;stroke-width:0.75;" x="250.737338" xlink:href="#me4b69c8c79" y="64.719741"/>
     <use style="fill:#d62728;stroke:#ffffff;stroke-linejoin:miter;stroke-width:0.75;" x="254.304971" xlink:href="#me4b69c8c79" y="51.561644"/>
     <use style="fill:#d62728;stroke:#ffffff;stroke-linejoin:miter;stroke-width:0.75;" x="257.872603" xlink:href="#me4b69c8c79" y="51.491654"/>
     <use style="fill:#d62728;stroke:#ffffff;stroke-linejoin:miter;stroke-width:0.75;" x="261.440235" xlink:href="#me4b69c8c79" y="62.550054"/>
     <use style="fill:#d62728;stroke:#ffffff;stroke-linejoin:miter;stroke-width:0.75;" x="265.007868" xlink:href="#me4b69c8c79" y="61.010277"/>
     <use style="fill:#d62728;stroke:#ffffff;stroke-linejoin:miter;stroke-width:0.75;" x="268.5755" xlink:href="#me4b69c8c79" y="51.281685"/>
     <use style="fill:#d62728;stroke:#ffffff;stroke-linejoin:miter;stroke-width:0.75;" x="272.143132" xlink:href="#me4b69c8c79" y="51.281685"/>
     <use style="fill:#d62728;stroke:#ffffff;stroke-linejoin:miter;stroke-width:0.75;" x="275.710765" xlink:href="#me4b69c8c79" y="61.010277"/>
     <use style="fill:#d62728;stroke:#ffffff;stroke-linejoin:miter;stroke-width:0.75;" x="279.278397" xlink:href="#me4b69c8c79" y="60.975282"/>
     <use style="fill:#d62728;stroke:#ffffff;stroke-linejoin:miter;stroke-width:0.75;" x="282.84603" xlink:href="#me4b69c8c79" y="51.281685"/>
     <use style="fill:#d62728;stroke:#ffffff;stroke-linejoin:miter;stroke-width:0.75;" x="286.413662" xlink:href="#me4b69c8c79" y="51.281685"/>
     <use style="fill:#d62728;stroke:#ffffff;stroke-linejoin:miter;stroke-width:0.75;" x="289.981294" xlink:href="#me4b69c8c79" y="51.281685"/>
     <use style="fill:#d62728;stroke:#ffffff;stroke-linejoin:miter;stroke-width:0.75;" x="293.548927" xlink:href="#me4b69c8c79" y="51.281685"/>
     <use style="fill:#d62728;stroke:#ffffff;stroke-linejoin:miter;stroke-width:0.75;" x="297.116559" xlink:href="#me4b69c8c79" y="51.281685"/>
     <use style="fill:#d62728;stroke:#ffffff;stroke-linejoin:miter;stroke-width:0.75;" x="300.684191" xlink:href="#me4b69c8c79" y="60.975282"/>
     <use style="fill:#d62728;stroke:#ffffff;stroke-linejoin:miter;stroke-width:0.75;" x="304.251824" xlink:href="#me4b69c8c79" y="60.975282"/>
     <use style="fill:#d62728;stroke:#ffffff;stroke-linejoin:miter;stroke-width:0.75;" x="307.819456" xlink:href="#me4b69c8c79" y="48.13214"/>
     <use style="fill:#d62728;stroke:#ffffff;stroke-linejoin:miter;stroke-width:0.75;" x="311.387089" xlink:href="#me4b69c8c79" y="48.13214"/>
     <use style="fill:#d62728;stroke:#ffffff;stroke-linejoin:miter;stroke-width:0.75;" x="314.954721" xlink:href="#me4b69c8c79" y="48.13214"/>
     <use style="fill:#d62728;stroke:#ffffff;stroke-linejoin:miter;stroke-width:0.75;" x="318.522353" xlink:href="#me4b69c8c79" y="48.13214"/>
     <use style="fill:#d62728;stroke:#ffffff;stroke-linejoin:miter;stroke-width:0.75;" x="322.089986" xlink:href="#me4b69c8c79" y="47.712201"/>
     <use style="fill:#d62728;stroke:#ffffff;stroke-linejoin:miter;stroke-width:0.75;" x="325.657618" xlink:href="#me4b69c8c79" y="47.677206"/>
     <use style="fill:#d62728;stroke:#ffffff;stroke-linejoin:miter;stroke-width:0.75;" x="329.22525" xlink:href="#me4b69c8c79" y="47.677206"/>
     <use style="fill:#d62728;stroke:#ffffff;stroke-linejoin:miter;stroke-width:0.75;" x="332.792883" xlink:href="#me4b69c8c79" y="47.677206"/>
     <use style="fill:#d62728;stroke:#ffffff;stroke-linejoin:miter;stroke-width:0.75;" x="336.360515" xlink:href="#me4b69c8c79" y="47.677206"/>
     <use style="fill:#d62728;stroke:#ffffff;stroke-linejoin:miter;stroke-width:0.75;" x="339.928147" xlink:href="#me4b69c8c79" y="46.382393"/>
     <use style="fill:#d62728;stroke:#ffffff;stroke-linejoin:miter;stroke-width:0.75;" x="343.49578" xlink:href="#me4b69c8c79" y="46.382393"/>
     <use style="fill:#d62728;stroke:#ffffff;stroke-linejoin:miter;stroke-width:0.75;" x="347.063412" xlink:href="#me4b69c8c79" y="46.382393"/>
     <use style="fill:#d62728;stroke:#ffffff;stroke-linejoin:miter;stroke-width:0.75;" x="350.631045" xlink:href="#me4b69c8c79" y="46.382393"/>
     <use style="fill:#d62728;stroke:#ffffff;stroke-linejoin:miter;stroke-width:0.75;" x="354.198677" xlink:href="#me4b69c8c79" y="47.012302"/>
     <use style="fill:#d62728;stroke:#ffffff;stroke-linejoin:miter;stroke-width:0.75;" x="357.766309" xlink:href="#me4b69c8c79" y="47.012302"/>
     <use style="fill:#d62728;stroke:#ffffff;stroke-linejoin:miter;stroke-width:0.75;" x="361.333942" xlink:href="#me4b69c8c79" y="46.382393"/>
     <use style="fill:#d62728;stroke:#ffffff;stroke-linejoin:miter;stroke-width:0.75;" x="364.901574" xlink:href="#me4b69c8c79" y="45.962454"/>
     <use style="fill:#d62728;stroke:#ffffff;stroke-linejoin:miter;stroke-width:0.75;" x="368.469206" xlink:href="#me4b69c8c79" y="45.962454"/>
     <use style="fill:#d62728;stroke:#ffffff;stroke-linejoin:miter;stroke-width:0.75;" x="372.036839" xlink:href="#me4b69c8c79" y="45.542515"/>
     <use style="fill:#d62728;stroke:#ffffff;stroke-linejoin:miter;stroke-width:0.75;" x="375.604471" xlink:href="#me4b69c8c79" y="42.043021"/>
     <use style="fill:#d62728;stroke:#ffffff;stroke-linejoin:miter;stroke-width:0.75;" x="379.172104" xlink:href="#me4b69c8c79" y="42.043021"/>
     <use style="fill:#d62728;stroke:#ffffff;stroke-linejoin:miter;stroke-width:0.75;" x="382.739736" xlink:href="#me4b69c8c79" y="42.043021"/>
     <use style="fill:#d62728;stroke:#ffffff;stroke-linejoin:miter;stroke-width:0.75;" x="386.307368" xlink:href="#me4b69c8c79" y="42.043021"/>
     <use style="fill:#d62728;stroke:#ffffff;stroke-linejoin:miter;stroke-width:0.75;" x="389.875001" xlink:href="#me4b69c8c79" y="41.063163"/>
     <use style="fill:#d62728;stroke:#ffffff;stroke-linejoin:miter;stroke-width:0.75;" x="393.442633" xlink:href="#me4b69c8c79" y="41.063163"/>
     <use style="fill:#d62728;stroke:#ffffff;stroke-linejoin:miter;stroke-width:0.75;" x="397.010265" xlink:href="#me4b69c8c79" y="42.043021"/>
     <use style="fill:#d62728;stroke:#ffffff;stroke-linejoin:miter;stroke-width:0.75;" x="400.577898" xlink:href="#me4b69c8c79" y="42.043021"/>
    </g>
   </g>
   <g id="line2d_16">
    <path clip-path="url(#p356263b3fd)" d="M 75.923352 196.720643 
L 79.490985 147.447772 
L 83.058617 135.164549 
L 86.626249 132.749898 
L 90.193882 112.172875 
L 93.761514 110.353138 
L 97.329146 121.236564 
L 100.896779 109.828214 
L 104.464411 103.77409 
L 108.032044 97.789956 
L 111.599676 96.355164 
L 115.167308 95.935224 
L 118.734941 95.795245 
L 122.302573 95.025356 
L 125.870205 94.605417 
L 129.437838 94.465437 
L 133.00547 93.660553 
L 136.573103 92.99565 
L 140.140735 91.840817 
L 143.708367 90.685984 
L 147.276 88.901242 
L 150.843632 70.563895 
L 154.411264 87.25648 
L 157.978897 88.096358 
L 161.546529 59.155546 
L 165.114161 58.420652 
L 168.681794 83.826976 
L 172.249426 87.221485 
L 175.817059 90.056075 
L 179.384691 85.926672 
L 182.952323 82.147219 
L 186.519956 65.349649 
L 190.087588 74.098384 
L 193.65522 63.249953 
L 197.222853 79.137655 
L 200.790485 79.137655 
L 204.358118 53.9413 
L 207.92575 62.410075 
L 211.493382 74.973257 
L 215.061015 65.874573 
L 218.628647 47.502231 
L 222.196279 59.750459 
L 225.763912 66.959416 
L 229.331544 54.501219 
L 232.899176 50.091857 
L 236.466809 50.091857 
L 240.034441 49.671918 
L 243.602074 51.841604 
L 247.169706 51.841604 
L 250.737338 49.636923 
L 254.304971 49.636923 
L 257.872603 52.156558 
L 261.440235 52.156558 
L 265.007868 47.642211 
L 268.5755 47.992161 
L 272.143132 55.586062 
L 275.710765 47.992161 
L 279.278397 46.942312 
L 282.84603 44.772626 
L 286.413662 44.772626 
L 289.981294 46.942312 
L 293.548927 47.467237 
L 297.116559 46.942312 
L 300.684191 46.732343 
L 304.251824 43.582799 
L 307.819456 47.992161 
L 311.387089 45.332545 
L 314.954721 46.732343 
L 318.522353 47.222272 
L 322.089986 47.222272 
L 325.657618 46.732343 
L 329.22525 47.712201 
L 332.792883 46.907318 
L 336.360515 46.732343 
L 339.928147 46.732343 
L 343.49578 54.466224 
L 347.063412 46.907318 
L 350.631045 43.932748 
L 354.198677 43.582799 
L 357.766309 46.732343 
L 361.333942 46.907318 
L 364.901574 54.431229 
L 368.469206 46.732343 
L 372.036839 46.732343 
L 375.604471 43.582799 
L 379.172104 40.433254 
L 382.739736 43.582799 
L 386.307368 43.582799 
L 389.875001 43.582799 
L 393.442633 46.907318 
L 397.010265 46.907318 
L 400.577898 46.907318 
" style="fill:none;stroke:#1f77b4;stroke-linecap:square;stroke-width:1.5;"/>
    <defs>
     <path d="M 0 3 
C 0.795609 3 1.55874 2.683901 2.12132 2.12132 
C 2.683901 1.55874 3 0.795609 3 0 
C 3 -0.795609 2.683901 -1.55874 2.12132 -2.12132 
C 1.55874 -2.683901 0.795609 -3 0 -3 
C -0.795609 -3 -1.55874 -2.683901 -2.12132 -2.12132 
C -2.683901 -1.55874 -3 -0.795609 -3 0 
C -3 0.795609 -2.683901 1.55874 -2.12132 2.12132 
C -1.55874 2.683901 -0.795609 3 0 3 
z
" id="m32ea039467" style="stroke:#ffffff;stroke-width:0.75;"/>
    </defs>
    <g clip-path="url(#p356263b3fd)">
     <use style="fill:#1f77b4;stroke:#ffffff;stroke-width:0.75;" x="75.923352" xlink:href="#m32ea039467" y="196.720643"/>
     <use style="fill:#1f77b4;stroke:#ffffff;stroke-width:0.75;" x="79.490985" xlink:href="#m32ea039467" y="147.447772"/>
     <use style="fill:#1f77b4;stroke:#ffffff;stroke-width:0.75;" x="83.058617" xlink:href="#m32ea039467" y="135.164549"/>
     <use style="fill:#1f77b4;stroke:#ffffff;stroke-width:0.75;" x="86.626249" xlink:href="#m32ea039467" y="132.749898"/>
     <use style="fill:#1f77b4;stroke:#ffffff;stroke-width:0.75;" x="90.193882" xlink:href="#m32ea039467" y="112.172875"/>
     <use style="fill:#1f77b4;stroke:#ffffff;stroke-width:0.75;" x="93.761514" xlink:href="#m32ea039467" y="110.353138"/>
     <use style="fill:#1f77b4;stroke:#ffffff;stroke-width:0.75;" x="97.329146" xlink:href="#m32ea039467" y="121.236564"/>
     <use style="fill:#1f77b4;stroke:#ffffff;stroke-width:0.75;" x="100.896779" xlink:href="#m32ea039467" y="109.828214"/>
     <use style="fill:#1f77b4;stroke:#ffffff;stroke-width:0.75;" x="104.464411" xlink:href="#m32ea039467" y="103.77409"/>
     <use style="fill:#1f77b4;stroke:#ffffff;stroke-width:0.75;" x="108.032044" xlink:href="#m32ea039467" y="97.789956"/>
     <use style="fill:#1f77b4;stroke:#ffffff;stroke-width:0.75;" x="111.599676" xlink:href="#m32ea039467" y="96.355164"/>
     <use style="fill:#1f77b4;stroke:#ffffff;stroke-width:0.75;" x="115.167308" xlink:href="#m32ea039467" y="95.935224"/>
     <use style="fill:#1f77b4;stroke:#ffffff;stroke-width:0.75;" x="118.734941" xlink:href="#m32ea039467" y="95.795245"/>
     <use style="fill:#1f77b4;stroke:#ffffff;stroke-width:0.75;" x="122.302573" xlink:href="#m32ea039467" y="95.025356"/>
     <use style="fill:#1f77b4;stroke:#ffffff;stroke-width:0.75;" x="125.870205" xlink:href="#m32ea039467" y="94.605417"/>
     <use style="fill:#1f77b4;stroke:#ffffff;stroke-width:0.75;" x="129.437838" xlink:href="#m32ea039467" y="94.465437"/>
     <use style="fill:#1f77b4;stroke:#ffffff;stroke-width:0.75;" x="133.00547" xlink:href="#m32ea039467" y="93.660553"/>
     <use style="fill:#1f77b4;stroke:#ffffff;stroke-width:0.75;" x="136.573103" xlink:href="#m32ea039467" y="92.99565"/>
     <use style="fill:#1f77b4;stroke:#ffffff;stroke-width:0.75;" x="140.140735" xlink:href="#m32ea039467" y="91.840817"/>
     <use style="fill:#1f77b4;stroke:#ffffff;stroke-width:0.75;" x="143.708367" xlink:href="#m32ea039467" y="90.685984"/>
     <use style="fill:#1f77b4;stroke:#ffffff;stroke-width:0.75;" x="147.276" xlink:href="#m32ea039467" y="88.901242"/>
     <use style="fill:#1f77b4;stroke:#ffffff;stroke-width:0.75;" x="150.843632" xlink:href="#m32ea039467" y="70.563895"/>
     <use style="fill:#1f77b4;stroke:#ffffff;stroke-width:0.75;" x="154.411264" xlink:href="#m32ea039467" y="87.25648"/>
     <use style="fill:#1f77b4;stroke:#ffffff;stroke-width:0.75;" x="157.978897" xlink:href="#m32ea039467" y="88.096358"/>
     <use style="fill:#1f77b4;stroke:#ffffff;stroke-width:0.75;" x="161.546529" xlink:href="#m32ea039467" y="59.155546"/>
     <use style="fill:#1f77b4;stroke:#ffffff;stroke-width:0.75;" x="165.114161" xlink:href="#m32ea039467" y="58.420652"/>
     <use style="fill:#1f77b4;stroke:#ffffff;stroke-width:0.75;" x="168.681794" xlink:href="#m32ea039467" y="83.826976"/>
     <use style="fill:#1f77b4;stroke:#ffffff;stroke-width:0.75;" x="172.249426" xlink:href="#m32ea039467" y="87.221485"/>
     <use style="fill:#1f77b4;stroke:#ffffff;stroke-width:0.75;" x="175.817059" xlink:href="#m32ea039467" y="90.056075"/>
     <use style="fill:#1f77b4;stroke:#ffffff;stroke-width:0.75;" x="179.384691" xlink:href="#m32ea039467" y="85.926672"/>
     <use style="fill:#1f77b4;stroke:#ffffff;stroke-width:0.75;" x="182.952323" xlink:href="#m32ea039467" y="82.147219"/>
     <use style="fill:#1f77b4;stroke:#ffffff;stroke-width:0.75;" x="186.519956" xlink:href="#m32ea039467" y="65.349649"/>
     <use style="fill:#1f77b4;stroke:#ffffff;stroke-width:0.75;" x="190.087588" xlink:href="#m32ea039467" y="74.098384"/>
     <use style="fill:#1f77b4;stroke:#ffffff;stroke-width:0.75;" x="193.65522" xlink:href="#m32ea039467" y="63.249953"/>
     <use style="fill:#1f77b4;stroke:#ffffff;stroke-width:0.75;" x="197.222853" xlink:href="#m32ea039467" y="79.137655"/>
     <use style="fill:#1f77b4;stroke:#ffffff;stroke-width:0.75;" x="200.790485" xlink:href="#m32ea039467" y="79.137655"/>
     <use style="fill:#1f77b4;stroke:#ffffff;stroke-width:0.75;" x="204.358118" xlink:href="#m32ea039467" y="53.9413"/>
     <use style="fill:#1f77b4;stroke:#ffffff;stroke-width:0.75;" x="207.92575" xlink:href="#m32ea039467" y="62.410075"/>
     <use style="fill:#1f77b4;stroke:#ffffff;stroke-width:0.75;" x="211.493382" xlink:href="#m32ea039467" y="74.973257"/>
     <use style="fill:#1f77b4;stroke:#ffffff;stroke-width:0.75;" x="215.061015" xlink:href="#m32ea039467" y="65.874573"/>
     <use style="fill:#1f77b4;stroke:#ffffff;stroke-width:0.75;" x="218.628647" xlink:href="#m32ea039467" y="47.502231"/>
     <use style="fill:#1f77b4;stroke:#ffffff;stroke-width:0.75;" x="222.196279" xlink:href="#m32ea039467" y="59.750459"/>
     <use style="fill:#1f77b4;stroke:#ffffff;stroke-width:0.75;" x="225.763912" xlink:href="#m32ea039467" y="66.959416"/>
     <use style="fill:#1f77b4;stroke:#ffffff;stroke-width:0.75;" x="229.331544" xlink:href="#m32ea039467" y="54.501219"/>
     <use style="fill:#1f77b4;stroke:#ffffff;stroke-width:0.75;" x="232.899176" xlink:href="#m32ea039467" y="50.091857"/>
     <use style="fill:#1f77b4;stroke:#ffffff;stroke-width:0.75;" x="236.466809" xlink:href="#m32ea039467" y="50.091857"/>
     <use style="fill:#1f77b4;stroke:#ffffff;stroke-width:0.75;" x="240.034441" xlink:href="#m32ea039467" y="49.671918"/>
     <use style="fill:#1f77b4;stroke:#ffffff;stroke-width:0.75;" x="243.602074" xlink:href="#m32ea039467" y="51.841604"/>
     <use style="fill:#1f77b4;stroke:#ffffff;stroke-width:0.75;" x="247.169706" xlink:href="#m32ea039467" y="51.841604"/>
     <use style="fill:#1f77b4;stroke:#ffffff;stroke-width:0.75;" x="250.737338" xlink:href="#m32ea039467" y="49.636923"/>
     <use style="fill:#1f77b4;stroke:#ffffff;stroke-width:0.75;" x="254.304971" xlink:href="#m32ea039467" y="49.636923"/>
     <use style="fill:#1f77b4;stroke:#ffffff;stroke-width:0.75;" x="257.872603" xlink:href="#m32ea039467" y="52.156558"/>
     <use style="fill:#1f77b4;stroke:#ffffff;stroke-width:0.75;" x="261.440235" xlink:href="#m32ea039467" y="52.156558"/>
     <use style="fill:#1f77b4;stroke:#ffffff;stroke-width:0.75;" x="265.007868" xlink:href="#m32ea039467" y="47.642211"/>
     <use style="fill:#1f77b4;stroke:#ffffff;stroke-width:0.75;" x="268.5755" xlink:href="#m32ea039467" y="47.992161"/>
     <use style="fill:#1f77b4;stroke:#ffffff;stroke-width:0.75;" x="272.143132" xlink:href="#m32ea039467" y="55.586062"/>
     <use style="fill:#1f77b4;stroke:#ffffff;stroke-width:0.75;" x="275.710765" xlink:href="#m32ea039467" y="47.992161"/>
     <use style="fill:#1f77b4;stroke:#ffffff;stroke-width:0.75;" x="279.278397" xlink:href="#m32ea039467" y="46.942312"/>
     <use style="fill:#1f77b4;stroke:#ffffff;stroke-width:0.75;" x="282.84603" xlink:href="#m32ea039467" y="44.772626"/>
     <use style="fill:#1f77b4;stroke:#ffffff;stroke-width:0.75;" x="286.413662" xlink:href="#m32ea039467" y="44.772626"/>
     <use style="fill:#1f77b4;stroke:#ffffff;stroke-width:0.75;" x="289.981294" xlink:href="#m32ea039467" y="46.942312"/>
     <use style="fill:#1f77b4;stroke:#ffffff;stroke-width:0.75;" x="293.548927" xlink:href="#m32ea039467" y="47.467237"/>
     <use style="fill:#1f77b4;stroke:#ffffff;stroke-width:0.75;" x="297.116559" xlink:href="#m32ea039467" y="46.942312"/>
     <use style="fill:#1f77b4;stroke:#ffffff;stroke-width:0.75;" x="300.684191" xlink:href="#m32ea039467" y="46.732343"/>
     <use style="fill:#1f77b4;stroke:#ffffff;stroke-width:0.75;" x="304.251824" xlink:href="#m32ea039467" y="43.582799"/>
     <use style="fill:#1f77b4;stroke:#ffffff;stroke-width:0.75;" x="307.819456" xlink:href="#m32ea039467" y="47.992161"/>
     <use style="fill:#1f77b4;stroke:#ffffff;stroke-width:0.75;" x="311.387089" xlink:href="#m32ea039467" y="45.332545"/>
     <use style="fill:#1f77b4;stroke:#ffffff;stroke-width:0.75;" x="314.954721" xlink:href="#m32ea039467" y="46.732343"/>
     <use style="fill:#1f77b4;stroke:#ffffff;stroke-width:0.75;" x="318.522353" xlink:href="#m32ea039467" y="47.222272"/>
     <use style="fill:#1f77b4;stroke:#ffffff;stroke-width:0.75;" x="322.089986" xlink:href="#m32ea039467" y="47.222272"/>
     <use style="fill:#1f77b4;stroke:#ffffff;stroke-width:0.75;" x="325.657618" xlink:href="#m32ea039467" y="46.732343"/>
     <use style="fill:#1f77b4;stroke:#ffffff;stroke-width:0.75;" x="329.22525" xlink:href="#m32ea039467" y="47.712201"/>
     <use style="fill:#1f77b4;stroke:#ffffff;stroke-width:0.75;" x="332.792883" xlink:href="#m32ea039467" y="46.907318"/>
     <use style="fill:#1f77b4;stroke:#ffffff;stroke-width:0.75;" x="336.360515" xlink:href="#m32ea039467" y="46.732343"/>
     <use style="fill:#1f77b4;stroke:#ffffff;stroke-width:0.75;" x="339.928147" xlink:href="#m32ea039467" y="46.732343"/>
     <use style="fill:#1f77b4;stroke:#ffffff;stroke-width:0.75;" x="343.49578" xlink:href="#m32ea039467" y="54.466224"/>
     <use style="fill:#1f77b4;stroke:#ffffff;stroke-width:0.75;" x="347.063412" xlink:href="#m32ea039467" y="46.907318"/>
     <use style="fill:#1f77b4;stroke:#ffffff;stroke-width:0.75;" x="350.631045" xlink:href="#m32ea039467" y="43.932748"/>
     <use style="fill:#1f77b4;stroke:#ffffff;stroke-width:0.75;" x="354.198677" xlink:href="#m32ea039467" y="43.582799"/>
     <use style="fill:#1f77b4;stroke:#ffffff;stroke-width:0.75;" x="357.766309" xlink:href="#m32ea039467" y="46.732343"/>
     <use style="fill:#1f77b4;stroke:#ffffff;stroke-width:0.75;" x="361.333942" xlink:href="#m32ea039467" y="46.907318"/>
     <use style="fill:#1f77b4;stroke:#ffffff;stroke-width:0.75;" x="364.901574" xlink:href="#m32ea039467" y="54.431229"/>
     <use style="fill:#1f77b4;stroke:#ffffff;stroke-width:0.75;" x="368.469206" xlink:href="#m32ea039467" y="46.732343"/>
     <use style="fill:#1f77b4;stroke:#ffffff;stroke-width:0.75;" x="372.036839" xlink:href="#m32ea039467" y="46.732343"/>
     <use style="fill:#1f77b4;stroke:#ffffff;stroke-width:0.75;" x="375.604471" xlink:href="#m32ea039467" y="43.582799"/>
     <use style="fill:#1f77b4;stroke:#ffffff;stroke-width:0.75;" x="379.172104" xlink:href="#m32ea039467" y="40.433254"/>
     <use style="fill:#1f77b4;stroke:#ffffff;stroke-width:0.75;" x="382.739736" xlink:href="#m32ea039467" y="43.582799"/>
     <use style="fill:#1f77b4;stroke:#ffffff;stroke-width:0.75;" x="386.307368" xlink:href="#m32ea039467" y="43.582799"/>
     <use style="fill:#1f77b4;stroke:#ffffff;stroke-width:0.75;" x="389.875001" xlink:href="#m32ea039467" y="43.582799"/>
     <use style="fill:#1f77b4;stroke:#ffffff;stroke-width:0.75;" x="393.442633" xlink:href="#m32ea039467" y="46.907318"/>
     <use style="fill:#1f77b4;stroke:#ffffff;stroke-width:0.75;" x="397.010265" xlink:href="#m32ea039467" y="46.907318"/>
     <use style="fill:#1f77b4;stroke:#ffffff;stroke-width:0.75;" x="400.577898" xlink:href="#m32ea039467" y="46.907318"/>
    </g>
   </g>
   <g id="line2d_17">
    <path clip-path="url(#p356263b3fd)" d="M 75.923352 273.114591 
L 79.490985 247.848246 
L 83.058617 243.368894 
L 86.626249 242.109077 
L 90.193882 236.194932 
L 93.761514 233.605307 
L 97.329146 229.895844 
L 100.896779 225.626461 
L 104.464411 223.841719 
L 108.032044 222.931851 
L 111.599676 219.782307 
L 115.167308 218.242529 
L 118.734941 217.017707 
L 122.302573 216.387798 
L 125.870205 213.413228 
L 129.437838 210.613633 
L 133.00547 209.80875 
L 136.573103 208.828891 
L 140.140735 208.373957 
L 143.708367 207.954018 
L 147.276 207.569074 
L 150.843632 205.399388 
L 154.411264 205.259408 
L 157.978897 204.804474 
L 161.546529 203.649641 
L 165.114161 203.649641 
L 168.681794 203.334686 
L 172.249426 198.995314 
L 175.817059 198.960319 
L 179.384691 198.120441 
L 182.952323 198.120441 
L 186.519956 198.085446 
L 190.087588 197.735496 
L 193.65522 197.735496 
L 197.222853 197.455537 
L 200.790485 196.440684 
L 204.358118 196.265709 
L 207.92575 195.215861 
L 211.493382 194.900906 
L 215.061015 194.725932 
L 218.628647 192.451261 
L 222.196279 191.786357 
L 225.763912 191.646377 
L 229.331544 191.086458 
L 232.899176 190.946479 
L 236.466809 190.806499 
L 240.034441 190.666519 
L 243.602074 189.091747 
L 247.169706 188.951767 
L 250.737338 187.936914 
L 254.304971 187.516975 
L 257.872603 187.516975 
L 261.440235 187.376995 
L 265.007868 184.192456 
L 268.5755 183.877501 
L 272.143132 183.877501 
L 275.710765 182.652678 
L 279.278397 182.162749 
L 282.84603 181.707815 
L 286.413662 180.238028 
L 289.981294 181.60283 
L 293.548927 181.60283 
L 297.116559 179.888078 
L 300.684191 179.783094 
L 304.251824 179.293164 
L 307.819456 179.293164 
L 311.387089 178.628261 
L 314.954721 178.628261 
L 318.522353 178.488281 
L 322.089986 178.313306 
L 325.657618 178.313306 
L 329.22525 178.313306 
L 332.792883 178.278311 
L 336.360515 178.278311 
L 339.928147 177.998352 
L 343.49578 177.088483 
L 347.063412 176.913509 
L 350.631045 176.563559 
L 354.198677 176.42358 
L 357.766309 173.029071 
L 361.333942 173.029071 
L 364.901574 173.029071 
L 368.469206 172.224187 
L 372.036839 171.559283 
L 375.604471 166.450023 
L 379.172104 165.960093 
L 382.739736 165.645139 
L 386.307368 165.36518 
L 389.875001 164.87525 
L 393.442633 159.696 
L 397.010265 158.226212 
L 400.577898 158.086233 
" style="fill:none;stroke:#98df8a;stroke-linecap:square;stroke-width:1.5;"/>
    <defs>
     <path d="M -0 3 
L 3 -3 
L -3 -3 
z
" id="m238b4ab91a" style="stroke:#ffffff;stroke-linejoin:miter;stroke-width:0.75;"/>
    </defs>
    <g clip-path="url(#p356263b3fd)">
     <use style="fill:#98df8a;stroke:#ffffff;stroke-linejoin:miter;stroke-width:0.75;" x="75.923352" xlink:href="#m238b4ab91a" y="273.114591"/>
     <use style="fill:#98df8a;stroke:#ffffff;stroke-linejoin:miter;stroke-width:0.75;" x="79.490985" xlink:href="#m238b4ab91a" y="247.848246"/>
     <use style="fill:#98df8a;stroke:#ffffff;stroke-linejoin:miter;stroke-width:0.75;" x="83.058617" xlink:href="#m238b4ab91a" y="243.368894"/>
     <use style="fill:#98df8a;stroke:#ffffff;stroke-linejoin:miter;stroke-width:0.75;" x="86.626249" xlink:href="#m238b4ab91a" y="242.109077"/>
     <use style="fill:#98df8a;stroke:#ffffff;stroke-linejoin:miter;stroke-width:0.75;" x="90.193882" xlink:href="#m238b4ab91a" y="236.194932"/>
     <use style="fill:#98df8a;stroke:#ffffff;stroke-linejoin:miter;stroke-width:0.75;" x="93.761514" xlink:href="#m238b4ab91a" y="233.605307"/>
     <use style="fill:#98df8a;stroke:#ffffff;stroke-linejoin:miter;stroke-width:0.75;" x="97.329146" xlink:href="#m238b4ab91a" y="229.895844"/>
     <use style="fill:#98df8a;stroke:#ffffff;stroke-linejoin:miter;stroke-width:0.75;" x="100.896779" xlink:href="#m238b4ab91a" y="225.626461"/>
     <use style="fill:#98df8a;stroke:#ffffff;stroke-linejoin:miter;stroke-width:0.75;" x="104.464411" xlink:href="#m238b4ab91a" y="223.841719"/>
     <use style="fill:#98df8a;stroke:#ffffff;stroke-linejoin:miter;stroke-width:0.75;" x="108.032044" xlink:href="#m238b4ab91a" y="222.931851"/>
     <use style="fill:#98df8a;stroke:#ffffff;stroke-linejoin:miter;stroke-width:0.75;" x="111.599676" xlink:href="#m238b4ab91a" y="219.782307"/>
     <use style="fill:#98df8a;stroke:#ffffff;stroke-linejoin:miter;stroke-width:0.75;" x="115.167308" xlink:href="#m238b4ab91a" y="218.242529"/>
     <use style="fill:#98df8a;stroke:#ffffff;stroke-linejoin:miter;stroke-width:0.75;" x="118.734941" xlink:href="#m238b4ab91a" y="217.017707"/>
     <use style="fill:#98df8a;stroke:#ffffff;stroke-linejoin:miter;stroke-width:0.75;" x="122.302573" xlink:href="#m238b4ab91a" y="216.387798"/>
     <use style="fill:#98df8a;stroke:#ffffff;stroke-linejoin:miter;stroke-width:0.75;" x="125.870205" xlink:href="#m238b4ab91a" y="213.413228"/>
     <use style="fill:#98df8a;stroke:#ffffff;stroke-linejoin:miter;stroke-width:0.75;" x="129.437838" xlink:href="#m238b4ab91a" y="210.613633"/>
     <use style="fill:#98df8a;stroke:#ffffff;stroke-linejoin:miter;stroke-width:0.75;" x="133.00547" xlink:href="#m238b4ab91a" y="209.80875"/>
     <use style="fill:#98df8a;stroke:#ffffff;stroke-linejoin:miter;stroke-width:0.75;" x="136.573103" xlink:href="#m238b4ab91a" y="208.828891"/>
     <use style="fill:#98df8a;stroke:#ffffff;stroke-linejoin:miter;stroke-width:0.75;" x="140.140735" xlink:href="#m238b4ab91a" y="208.373957"/>
     <use style="fill:#98df8a;stroke:#ffffff;stroke-linejoin:miter;stroke-width:0.75;" x="143.708367" xlink:href="#m238b4ab91a" y="207.954018"/>
     <use style="fill:#98df8a;stroke:#ffffff;stroke-linejoin:miter;stroke-width:0.75;" x="147.276" xlink:href="#m238b4ab91a" y="207.569074"/>
     <use style="fill:#98df8a;stroke:#ffffff;stroke-linejoin:miter;stroke-width:0.75;" x="150.843632" xlink:href="#m238b4ab91a" y="205.399388"/>
     <use style="fill:#98df8a;stroke:#ffffff;stroke-linejoin:miter;stroke-width:0.75;" x="154.411264" xlink:href="#m238b4ab91a" y="205.259408"/>
     <use style="fill:#98df8a;stroke:#ffffff;stroke-linejoin:miter;stroke-width:0.75;" x="157.978897" xlink:href="#m238b4ab91a" y="204.804474"/>
     <use style="fill:#98df8a;stroke:#ffffff;stroke-linejoin:miter;stroke-width:0.75;" x="161.546529" xlink:href="#m238b4ab91a" y="203.649641"/>
     <use style="fill:#98df8a;stroke:#ffffff;stroke-linejoin:miter;stroke-width:0.75;" x="165.114161" xlink:href="#m238b4ab91a" y="203.649641"/>
     <use style="fill:#98df8a;stroke:#ffffff;stroke-linejoin:miter;stroke-width:0.75;" x="168.681794" xlink:href="#m238b4ab91a" y="203.334686"/>
     <use style="fill:#98df8a;stroke:#ffffff;stroke-linejoin:miter;stroke-width:0.75;" x="172.249426" xlink:href="#m238b4ab91a" y="198.995314"/>
     <use style="fill:#98df8a;stroke:#ffffff;stroke-linejoin:miter;stroke-width:0.75;" x="175.817059" xlink:href="#m238b4ab91a" y="198.960319"/>
     <use style="fill:#98df8a;stroke:#ffffff;stroke-linejoin:miter;stroke-width:0.75;" x="179.384691" xlink:href="#m238b4ab91a" y="198.120441"/>
     <use style="fill:#98df8a;stroke:#ffffff;stroke-linejoin:miter;stroke-width:0.75;" x="182.952323" xlink:href="#m238b4ab91a" y="198.120441"/>
     <use style="fill:#98df8a;stroke:#ffffff;stroke-linejoin:miter;stroke-width:0.75;" x="186.519956" xlink:href="#m238b4ab91a" y="198.085446"/>
     <use style="fill:#98df8a;stroke:#ffffff;stroke-linejoin:miter;stroke-width:0.75;" x="190.087588" xlink:href="#m238b4ab91a" y="197.735496"/>
     <use style="fill:#98df8a;stroke:#ffffff;stroke-linejoin:miter;stroke-width:0.75;" x="193.65522" xlink:href="#m238b4ab91a" y="197.735496"/>
     <use style="fill:#98df8a;stroke:#ffffff;stroke-linejoin:miter;stroke-width:0.75;" x="197.222853" xlink:href="#m238b4ab91a" y="197.455537"/>
     <use style="fill:#98df8a;stroke:#ffffff;stroke-linejoin:miter;stroke-width:0.75;" x="200.790485" xlink:href="#m238b4ab91a" y="196.440684"/>
     <use style="fill:#98df8a;stroke:#ffffff;stroke-linejoin:miter;stroke-width:0.75;" x="204.358118" xlink:href="#m238b4ab91a" y="196.265709"/>
     <use style="fill:#98df8a;stroke:#ffffff;stroke-linejoin:miter;stroke-width:0.75;" x="207.92575" xlink:href="#m238b4ab91a" y="195.215861"/>
     <use style="fill:#98df8a;stroke:#ffffff;stroke-linejoin:miter;stroke-width:0.75;" x="211.493382" xlink:href="#m238b4ab91a" y="194.900906"/>
     <use style="fill:#98df8a;stroke:#ffffff;stroke-linejoin:miter;stroke-width:0.75;" x="215.061015" xlink:href="#m238b4ab91a" y="194.725932"/>
     <use style="fill:#98df8a;stroke:#ffffff;stroke-linejoin:miter;stroke-width:0.75;" x="218.628647" xlink:href="#m238b4ab91a" y="192.451261"/>
     <use style="fill:#98df8a;stroke:#ffffff;stroke-linejoin:miter;stroke-width:0.75;" x="222.196279" xlink:href="#m238b4ab91a" y="191.786357"/>
     <use style="fill:#98df8a;stroke:#ffffff;stroke-linejoin:miter;stroke-width:0.75;" x="225.763912" xlink:href="#m238b4ab91a" y="191.646377"/>
     <use style="fill:#98df8a;stroke:#ffffff;stroke-linejoin:miter;stroke-width:0.75;" x="229.331544" xlink:href="#m238b4ab91a" y="191.086458"/>
     <use style="fill:#98df8a;stroke:#ffffff;stroke-linejoin:miter;stroke-width:0.75;" x="232.899176" xlink:href="#m238b4ab91a" y="190.946479"/>
     <use style="fill:#98df8a;stroke:#ffffff;stroke-linejoin:miter;stroke-width:0.75;" x="236.466809" xlink:href="#m238b4ab91a" y="190.806499"/>
     <use style="fill:#98df8a;stroke:#ffffff;stroke-linejoin:miter;stroke-width:0.75;" x="240.034441" xlink:href="#m238b4ab91a" y="190.666519"/>
     <use style="fill:#98df8a;stroke:#ffffff;stroke-linejoin:miter;stroke-width:0.75;" x="243.602074" xlink:href="#m238b4ab91a" y="189.091747"/>
     <use style="fill:#98df8a;stroke:#ffffff;stroke-linejoin:miter;stroke-width:0.75;" x="247.169706" xlink:href="#m238b4ab91a" y="188.951767"/>
     <use style="fill:#98df8a;stroke:#ffffff;stroke-linejoin:miter;stroke-width:0.75;" x="250.737338" xlink:href="#m238b4ab91a" y="187.936914"/>
     <use style="fill:#98df8a;stroke:#ffffff;stroke-linejoin:miter;stroke-width:0.75;" x="254.304971" xlink:href="#m238b4ab91a" y="187.516975"/>
     <use style="fill:#98df8a;stroke:#ffffff;stroke-linejoin:miter;stroke-width:0.75;" x="257.872603" xlink:href="#m238b4ab91a" y="187.516975"/>
     <use style="fill:#98df8a;stroke:#ffffff;stroke-linejoin:miter;stroke-width:0.75;" x="261.440235" xlink:href="#m238b4ab91a" y="187.376995"/>
     <use style="fill:#98df8a;stroke:#ffffff;stroke-linejoin:miter;stroke-width:0.75;" x="265.007868" xlink:href="#m238b4ab91a" y="184.192456"/>
     <use style="fill:#98df8a;stroke:#ffffff;stroke-linejoin:miter;stroke-width:0.75;" x="268.5755" xlink:href="#m238b4ab91a" y="183.877501"/>
     <use style="fill:#98df8a;stroke:#ffffff;stroke-linejoin:miter;stroke-width:0.75;" x="272.143132" xlink:href="#m238b4ab91a" y="183.877501"/>
     <use style="fill:#98df8a;stroke:#ffffff;stroke-linejoin:miter;stroke-width:0.75;" x="275.710765" xlink:href="#m238b4ab91a" y="182.652678"/>
     <use style="fill:#98df8a;stroke:#ffffff;stroke-linejoin:miter;stroke-width:0.75;" x="279.278397" xlink:href="#m238b4ab91a" y="182.162749"/>
     <use style="fill:#98df8a;stroke:#ffffff;stroke-linejoin:miter;stroke-width:0.75;" x="282.84603" xlink:href="#m238b4ab91a" y="181.707815"/>
     <use style="fill:#98df8a;stroke:#ffffff;stroke-linejoin:miter;stroke-width:0.75;" x="286.413662" xlink:href="#m238b4ab91a" y="180.238028"/>
     <use style="fill:#98df8a;stroke:#ffffff;stroke-linejoin:miter;stroke-width:0.75;" x="289.981294" xlink:href="#m238b4ab91a" y="181.60283"/>
     <use style="fill:#98df8a;stroke:#ffffff;stroke-linejoin:miter;stroke-width:0.75;" x="293.548927" xlink:href="#m238b4ab91a" y="181.60283"/>
     <use style="fill:#98df8a;stroke:#ffffff;stroke-linejoin:miter;stroke-width:0.75;" x="297.116559" xlink:href="#m238b4ab91a" y="179.888078"/>
     <use style="fill:#98df8a;stroke:#ffffff;stroke-linejoin:miter;stroke-width:0.75;" x="300.684191" xlink:href="#m238b4ab91a" y="179.783094"/>
     <use style="fill:#98df8a;stroke:#ffffff;stroke-linejoin:miter;stroke-width:0.75;" x="304.251824" xlink:href="#m238b4ab91a" y="179.293164"/>
     <use style="fill:#98df8a;stroke:#ffffff;stroke-linejoin:miter;stroke-width:0.75;" x="307.819456" xlink:href="#m238b4ab91a" y="179.293164"/>
     <use style="fill:#98df8a;stroke:#ffffff;stroke-linejoin:miter;stroke-width:0.75;" x="311.387089" xlink:href="#m238b4ab91a" y="178.628261"/>
     <use style="fill:#98df8a;stroke:#ffffff;stroke-linejoin:miter;stroke-width:0.75;" x="314.954721" xlink:href="#m238b4ab91a" y="178.628261"/>
     <use style="fill:#98df8a;stroke:#ffffff;stroke-linejoin:miter;stroke-width:0.75;" x="318.522353" xlink:href="#m238b4ab91a" y="178.488281"/>
     <use style="fill:#98df8a;stroke:#ffffff;stroke-linejoin:miter;stroke-width:0.75;" x="322.089986" xlink:href="#m238b4ab91a" y="178.313306"/>
     <use style="fill:#98df8a;stroke:#ffffff;stroke-linejoin:miter;stroke-width:0.75;" x="325.657618" xlink:href="#m238b4ab91a" y="178.313306"/>
     <use style="fill:#98df8a;stroke:#ffffff;stroke-linejoin:miter;stroke-width:0.75;" x="329.22525" xlink:href="#m238b4ab91a" y="178.313306"/>
     <use style="fill:#98df8a;stroke:#ffffff;stroke-linejoin:miter;stroke-width:0.75;" x="332.792883" xlink:href="#m238b4ab91a" y="178.278311"/>
     <use style="fill:#98df8a;stroke:#ffffff;stroke-linejoin:miter;stroke-width:0.75;" x="336.360515" xlink:href="#m238b4ab91a" y="178.278311"/>
     <use style="fill:#98df8a;stroke:#ffffff;stroke-linejoin:miter;stroke-width:0.75;" x="339.928147" xlink:href="#m238b4ab91a" y="177.998352"/>
     <use style="fill:#98df8a;stroke:#ffffff;stroke-linejoin:miter;stroke-width:0.75;" x="343.49578" xlink:href="#m238b4ab91a" y="177.088483"/>
     <use style="fill:#98df8a;stroke:#ffffff;stroke-linejoin:miter;stroke-width:0.75;" x="347.063412" xlink:href="#m238b4ab91a" y="176.913509"/>
     <use style="fill:#98df8a;stroke:#ffffff;stroke-linejoin:miter;stroke-width:0.75;" x="350.631045" xlink:href="#m238b4ab91a" y="176.563559"/>
     <use style="fill:#98df8a;stroke:#ffffff;stroke-linejoin:miter;stroke-width:0.75;" x="354.198677" xlink:href="#m238b4ab91a" y="176.42358"/>
     <use style="fill:#98df8a;stroke:#ffffff;stroke-linejoin:miter;stroke-width:0.75;" x="357.766309" xlink:href="#m238b4ab91a" y="173.029071"/>
     <use style="fill:#98df8a;stroke:#ffffff;stroke-linejoin:miter;stroke-width:0.75;" x="361.333942" xlink:href="#m238b4ab91a" y="173.029071"/>
     <use style="fill:#98df8a;stroke:#ffffff;stroke-linejoin:miter;stroke-width:0.75;" x="364.901574" xlink:href="#m238b4ab91a" y="173.029071"/>
     <use style="fill:#98df8a;stroke:#ffffff;stroke-linejoin:miter;stroke-width:0.75;" x="368.469206" xlink:href="#m238b4ab91a" y="172.224187"/>
     <use style="fill:#98df8a;stroke:#ffffff;stroke-linejoin:miter;stroke-width:0.75;" x="372.036839" xlink:href="#m238b4ab91a" y="171.559283"/>
     <use style="fill:#98df8a;stroke:#ffffff;stroke-linejoin:miter;stroke-width:0.75;" x="375.604471" xlink:href="#m238b4ab91a" y="166.450023"/>
     <use style="fill:#98df8a;stroke:#ffffff;stroke-linejoin:miter;stroke-width:0.75;" x="379.172104" xlink:href="#m238b4ab91a" y="165.960093"/>
     <use style="fill:#98df8a;stroke:#ffffff;stroke-linejoin:miter;stroke-width:0.75;" x="382.739736" xlink:href="#m238b4ab91a" y="165.645139"/>
     <use style="fill:#98df8a;stroke:#ffffff;stroke-linejoin:miter;stroke-width:0.75;" x="386.307368" xlink:href="#m238b4ab91a" y="165.36518"/>
     <use style="fill:#98df8a;stroke:#ffffff;stroke-linejoin:miter;stroke-width:0.75;" x="389.875001" xlink:href="#m238b4ab91a" y="164.87525"/>
     <use style="fill:#98df8a;stroke:#ffffff;stroke-linejoin:miter;stroke-width:0.75;" x="393.442633" xlink:href="#m238b4ab91a" y="159.696"/>
     <use style="fill:#98df8a;stroke:#ffffff;stroke-linejoin:miter;stroke-width:0.75;" x="397.010265" xlink:href="#m238b4ab91a" y="158.226212"/>
     <use style="fill:#98df8a;stroke:#ffffff;stroke-linejoin:miter;stroke-width:0.75;" x="400.577898" xlink:href="#m238b4ab91a" y="158.086233"/>
    </g>
   </g>
   <g id="line2d_18"/>
   <g id="line2d_19"/>
   <g id="line2d_20"/>
   <g id="patch_3">
    <path d="M 59.690625 287.007581 
L 59.690625 42.043021 
" style="fill:none;stroke:#000000;stroke-linecap:square;stroke-linejoin:miter;stroke-width:0.8;"/>
   </g>
   <g id="patch_4">
    <path d="M 75.923352 288.430125 
L 349.441834 288.430125 
" style="fill:none;stroke:#000000;stroke-linecap:square;stroke-linejoin:miter;stroke-width:0.8;"/>
   </g>
   <g id="text_17">
    <!-- zstd_stream_decompress (23h, 10 trials/fuzzer) -->
    <g transform="translate(95.663438 16.318125)scale(0.12 -0.12)">
     <defs>
      <path d="M 353 3500 
L 3084 3500 
L 3084 2975 
L 922 459 
L 3084 459 
L 3084 0 
L 275 0 
L 275 525 
L 2438 3041 
L 353 3041 
L 353 3500 
z
" id="DejaVuSans-7a" transform="scale(0.015625)"/>
      <path d="M 2834 3397 
L 2834 2853 
Q 2591 2978 2328 3040 
Q 2066 3103 1784 3103 
Q 1356 3103 1142 2972 
Q 928 2841 928 2578 
Q 928 2378 1081 2264 
Q 1234 2150 1697 2047 
L 1894 2003 
Q 2506 1872 2764 1633 
Q 3022 1394 3022 966 
Q 3022 478 2636 193 
Q 2250 -91 1575 -91 
Q 1294 -91 989 -36 
Q 684 19 347 128 
L 347 722 
Q 666 556 975 473 
Q 1284 391 1588 391 
Q 1994 391 2212 530 
Q 2431 669 2431 922 
Q 2431 1156 2273 1281 
Q 2116 1406 1581 1522 
L 1381 1569 
Q 847 1681 609 1914 
Q 372 2147 372 2553 
Q 372 3047 722 3315 
Q 1072 3584 1716 3584 
Q 2034 3584 2315 3537 
Q 2597 3491 2834 3397 
z
" id="DejaVuSans-73" transform="scale(0.015625)"/>
      <path d="M 3263 -1063 
L 3263 -1509 
L -63 -1509 
L -63 -1063 
L 3263 -1063 
z
" id="DejaVuSans-5f" transform="scale(0.015625)"/>
      <path d="M 1159 525 
L 1159 -1331 
L 581 -1331 
L 581 3500 
L 1159 3500 
L 1159 2969 
Q 1341 3281 1617 3432 
Q 1894 3584 2278 3584 
Q 2916 3584 3314 3078 
Q 3713 2572 3713 1747 
Q 3713 922 3314 415 
Q 2916 -91 2278 -91 
Q 1894 -91 1617 61 
Q 1341 213 1159 525 
z
M 3116 1747 
Q 3116 2381 2855 2742 
Q 2594 3103 2138 3103 
Q 1681 3103 1420 2742 
Q 1159 2381 1159 1747 
Q 1159 1113 1420 752 
Q 1681 391 2138 391 
Q 2594 391 2855 752 
Q 3116 1113 3116 1747 
z
" id="DejaVuSans-70" transform="scale(0.015625)"/>
      <path d="M 750 794 
L 1409 794 
L 1409 256 
L 897 -744 
L 494 -744 
L 750 256 
L 750 794 
z
" id="DejaVuSans-2c" transform="scale(0.015625)"/>
      <path d="M 603 4863 
L 1178 4863 
L 1178 0 
L 603 0 
L 603 4863 
z
" id="DejaVuSans-6c" transform="scale(0.015625)"/>
      <path d="M 1625 4666 
L 2156 4666 
L 531 -594 
L 0 -594 
L 1625 4666 
z
" id="DejaVuSans-2f" transform="scale(0.015625)"/>
      <path d="M 2375 4863 
L 2375 4384 
L 1825 4384 
Q 1516 4384 1395 4259 
Q 1275 4134 1275 3809 
L 1275 3500 
L 2222 3500 
L 2222 3053 
L 1275 3053 
L 1275 0 
L 697 0 
L 697 3053 
L 147 3053 
L 147 3500 
L 697 3500 
L 697 3744 
Q 697 4328 969 4595 
Q 1241 4863 1831 4863 
L 2375 4863 
z
" id="DejaVuSans-66" transform="scale(0.015625)"/>
     </defs>
     <use xlink:href="#DejaVuSans-7a"/>
     <use x="52.490234" xlink:href="#DejaVuSans-73"/>
     <use x="104.589844" xlink:href="#DejaVuSans-74"/>
     <use x="143.798828" xlink:href="#DejaVuSans-64"/>
     <use x="207.275391" xlink:href="#DejaVuSans-5f"/>
     <use x="257.275391" xlink:href="#DejaVuSans-73"/>
     <use x="309.375" xlink:href="#DejaVuSans-74"/>
     <use x="348.583984" xlink:href="#DejaVuSans-72"/>
     <use x="387.447266" xlink:href="#DejaVuSans-65"/>
     <use x="448.970703" xlink:href="#DejaVuSans-61"/>
     <use x="510.25" xlink:href="#DejaVuSans-6d"/>
     <use x="607.662109" xlink:href="#DejaVuSans-5f"/>
     <use x="657.662109" xlink:href="#DejaVuSans-64"/>
     <use x="721.138672" xlink:href="#DejaVuSans-65"/>
     <use x="782.662109" xlink:href="#DejaVuSans-63"/>
     <use x="837.642578" xlink:href="#DejaVuSans-6f"/>
     <use x="898.824219" xlink:href="#DejaVuSans-6d"/>
     <use x="996.236328" xlink:href="#DejaVuSans-70"/>
     <use x="1059.712891" xlink:href="#DejaVuSans-72"/>
     <use x="1098.576172" xlink:href="#DejaVuSans-65"/>
     <use x="1160.099609" xlink:href="#DejaVuSans-73"/>
     <use x="1212.199219" xlink:href="#DejaVuSans-73"/>
     <use x="1264.298828" xlink:href="#DejaVuSans-20"/>
     <use x="1296.085938" xlink:href="#DejaVuSans-28"/>
     <use x="1335.099609" xlink:href="#DejaVuSans-32"/>
     <use x="1398.722656" xlink:href="#DejaVuSans-33"/>
     <use x="1462.345703" xlink:href="#DejaVuSans-68"/>
     <use x="1525.724609" xlink:href="#DejaVuSans-2c"/>
     <use x="1557.511719" xlink:href="#DejaVuSans-20"/>
     <use x="1589.298828" xlink:href="#DejaVuSans-31"/>
     <use x="1652.921875" xlink:href="#DejaVuSans-30"/>
     <use x="1716.544922" xlink:href="#DejaVuSans-20"/>
     <use x="1748.332031" xlink:href="#DejaVuSans-74"/>
     <use x="1787.541016" xlink:href="#DejaVuSans-72"/>
     <use x="1828.654297" xlink:href="#DejaVuSans-69"/>
     <use x="1856.4375" xlink:href="#DejaVuSans-61"/>
     <use x="1917.716797" xlink:href="#DejaVuSans-6c"/>
     <use x="1945.5" xlink:href="#DejaVuSans-73"/>
     <use x="1997.599609" xlink:href="#DejaVuSans-2f"/>
     <use x="2031.291016" xlink:href="#DejaVuSans-66"/>
     <use x="2066.496094" xlink:href="#DejaVuSans-75"/>
     <use x="2129.875" xlink:href="#DejaVuSans-7a"/>
     <use x="2182.365234" xlink:href="#DejaVuSans-7a"/>
     <use x="2234.855469" xlink:href="#DejaVuSans-65"/>
     <use x="2296.378906" xlink:href="#DejaVuSans-72"/>
     <use x="2337.492188" xlink:href="#DejaVuSans-29"/>
    </g>
   </g>
   <g id="legend_1">
    <g id="line2d_21">
     <path d="M 420.810625 30.416562 
L 440.810625 30.416562 
" style="fill:none;stroke:#d62728;stroke-linecap:square;stroke-width:1.5;"/>
    </g>
    <g id="line2d_22">
     <defs>
      <path d="M 0 -3 
L -3 3 
L 3 3 
z
" id="m983a6faed4" style="stroke:#d62728;stroke-linejoin:miter;"/>
     </defs>
     <g>
      <use style="fill:#d62728;stroke:#d62728;stroke-linejoin:miter;" x="430.810625" xlink:href="#m983a6faed4" y="30.416562"/>
     </g>
    </g>
    <g id="text_18">
     <!-- afl_scheduling_random -->
     <g transform="translate(448.810625 33.916562)scale(0.1 -0.1)">
      <use xlink:href="#DejaVuSans-61"/>
      <use x="61.279297" xlink:href="#DejaVuSans-66"/>
      <use x="96.484375" xlink:href="#DejaVuSans-6c"/>
      <use x="124.267578" xlink:href="#DejaVuSans-5f"/>
      <use x="174.267578" xlink:href="#DejaVuSans-73"/>
      <use x="226.367188" xlink:href="#DejaVuSans-63"/>
      <use x="281.347656" xlink:href="#DejaVuSans-68"/>
      <use x="344.726562" xlink:href="#DejaVuSans-65"/>
      <use x="406.25" xlink:href="#DejaVuSans-64"/>
      <use x="469.726562" xlink:href="#DejaVuSans-75"/>
      <use x="533.105469" xlink:href="#DejaVuSans-6c"/>
      <use x="560.888672" xlink:href="#DejaVuSans-69"/>
      <use x="588.671875" xlink:href="#DejaVuSans-6e"/>
      <use x="652.050781" xlink:href="#DejaVuSans-67"/>
      <use x="715.527344" xlink:href="#DejaVuSans-5f"/>
      <use x="765.527344" xlink:href="#DejaVuSans-72"/>
      <use x="806.640625" xlink:href="#DejaVuSans-61"/>
      <use x="867.919922" xlink:href="#DejaVuSans-6e"/>
      <use x="931.298828" xlink:href="#DejaVuSans-64"/>
      <use x="994.775391" xlink:href="#DejaVuSans-6f"/>
      <use x="1055.957031" xlink:href="#DejaVuSans-6d"/>
     </g>
    </g>
    <g id="line2d_23">
     <path d="M 420.810625 45.372813 
L 440.810625 45.372813 
" style="fill:none;stroke:#1f77b4;stroke-linecap:square;stroke-width:1.5;"/>
    </g>
    <g id="line2d_24">
     <defs>
      <path d="M 0 3 
C 0.795609 3 1.55874 2.683901 2.12132 2.12132 
C 2.683901 1.55874 3 0.795609 3 0 
C 3 -0.795609 2.683901 -1.55874 2.12132 -2.12132 
C 1.55874 -2.683901 0.795609 -3 0 -3 
C -0.795609 -3 -1.55874 -2.683901 -2.12132 -2.12132 
C -2.683901 -1.55874 -3 -0.795609 -3 0 
C -3 0.795609 -2.683901 1.55874 -2.12132 2.12132 
C -1.55874 2.683901 -0.795609 3 0 3 
z
" id="mab36565992" style="stroke:#1f77b4;"/>
     </defs>
     <g>
      <use style="fill:#1f77b4;stroke:#1f77b4;" x="430.810625" xlink:href="#mab36565992" y="45.372813"/>
     </g>
    </g>
    <g id="text_19">
     <!-- afl -->
     <g transform="translate(448.810625 48.872813)scale(0.1 -0.1)">
      <use xlink:href="#DejaVuSans-61"/>
      <use x="61.279297" xlink:href="#DejaVuSans-66"/>
      <use x="96.484375" xlink:href="#DejaVuSans-6c"/>
     </g>
    </g>
    <g id="line2d_25">
     <path d="M 420.810625 60.050937 
L 440.810625 60.050937 
" style="fill:none;stroke:#98df8a;stroke-linecap:square;stroke-width:1.5;"/>
    </g>
    <g id="line2d_26">
     <defs>
      <path d="M -0 3 
L 3 -3 
L -3 -3 
z
" id="md541c98448" style="stroke:#98df8a;stroke-linejoin:miter;"/>
     </defs>
     <g>
      <use style="fill:#98df8a;stroke:#98df8a;stroke-linejoin:miter;" x="430.810625" xlink:href="#md541c98448" y="60.050937"/>
     </g>
    </g>
    <g id="text_20">
     <!-- afl_scheduling_lifo -->
     <g transform="translate(448.810625 63.550937)scale(0.1 -0.1)">
      <use xlink:href="#DejaVuSans-61"/>
      <use x="61.279297" xlink:href="#DejaVuSans-66"/>
      <use x="96.484375" xlink:href="#DejaVuSans-6c"/>
      <use x="124.267578" xlink:href="#DejaVuSans-5f"/>
      <use x="174.267578" xlink:href="#DejaVuSans-73"/>
      <use x="226.367188" xlink:href="#DejaVuSans-63"/>
      <use x="281.347656" xlink:href="#DejaVuSans-68"/>
      <use x="344.726562" xlink:href="#DejaVuSans-65"/>
      <use x="406.25" xlink:href="#DejaVuSans-64"/>
      <use x="469.726562" xlink:href="#DejaVuSans-75"/>
      <use x="533.105469" xlink:href="#DejaVuSans-6c"/>
      <use x="560.888672" xlink:href="#DejaVuSans-69"/>
      <use x="588.671875" xlink:href="#DejaVuSans-6e"/>
      <use x="652.050781" xlink:href="#DejaVuSans-67"/>
      <use x="715.527344" xlink:href="#DejaVuSans-5f"/>
      <use x="765.527344" xlink:href="#DejaVuSans-6c"/>
      <use x="793.310547" xlink:href="#DejaVuSans-69"/>
      <use x="821.09375" xlink:href="#DejaVuSans-66"/>
      <use x="856.298828" xlink:href="#DejaVuSans-6f"/>
     </g>
    </g>
   </g>
  </g>
 </g>
 <defs>
  <clipPath id="p356263b3fd">
   <rect height="266.112" width="357.12" x="59.690625" y="22.318125"/>
  </clipPath>
 </defs>
</svg>
