<?xml version="1.0" encoding="utf-8" standalone="no"?>
<!DOCTYPE svg PUBLIC "-//W3C//DTD SVG 1.1//EN"
  "http://www.w3.org/Graphics/SVG/1.1/DTD/svg11.dtd">
<svg height="325.986375pt" version="1.1" viewBox="0 0 559.4325 325.986375" width="559.4325pt" xmlns="http://www.w3.org/2000/svg" xmlns:xlink="http://www.w3.org/1999/xlink">
 <metadata>
  <rdf:RDF xmlns:cc="http://creativecommons.org/ns#" xmlns:dc="http://purl.org/dc/elements/1.1/" xmlns:rdf="http://www.w3.org/1999/02/22-rdf-syntax-ns#">
   <cc:Work>
    <dc:type rdf:resource="http://purl.org/dc/dcmitype/StillImage"/>
    <dc:date>2022-05-31T16:19:07.505367</dc:date>
    <dc:format>image/svg+xml</dc:format>
    <dc:creator>
     <cc:Agent>
      <dc:title>Matplotlib v3.4.3, https://matplotlib.org/</dc:title>
     </cc:Agent>
    </dc:creator>
   </cc:Work>
  </rdf:RDF>
 </metadata>
 <defs>
  <style type="text/css">*{stroke-linecap:butt;stroke-linejoin:round;}</style>
 </defs>
 <g id="figure_1">
  <g id="patch_1">
   <path d="M 0 325.986375 
L 559.4325 325.986375 
L 559.4325 0 
L 0 0 
z
" style="fill:#ffffff;"/>
  </g>
  <g id="axes_1">
   <g id="patch_2">
    <path d="M 53.328125 288.430125 
L 410.448125 288.430125 
L 410.448125 22.318125 
L 53.328125 22.318125 
z
" style="fill:#ffffff;"/>
   </g>
   <g id="PolyCollection_1">
    <defs>
     <path d="M 69.560852 -176.383316 
L 69.560852 -169.25663 
L 119.447882 -185.524066 
L 148.629924 -192.03104 
L 169.334912 -198.07323 
L 185.394948 -200.075674 
L 198.516954 -208.918187 
L 209.611451 -212.791385 
L 219.221942 -215.425161 
L 227.698995 -219.065968 
L 235.281978 -223.946198 
L 242.141621 -227.354613 
L 248.403984 -230.917956 
L 254.164799 -232.622164 
L 259.498481 -234.481299 
L 264.46402 -234.946083 
L 269.108972 -236.65029 
L 273.472233 -237.808377 
L 277.586025 -239.129138 
L 281.477339 -239.903777 
L 285.169008 -240.058705 
L 288.680523 -244.784008 
L 292.028651 -244.938936 
L 295.227923 -245.945968 
L 298.291013 -246.410751 
L 301.229045 -247.185391 
L 304.051829 -250.903662 
L 306.768067 -251.678302 
L 309.385511 -250.361414 
L 311.911095 -251.523374 
L 314.35105 -251.988158 
L 316.710991 -251.988158 
L 318.996002 -252.143086 
L 321.210692 -253.382509 
L 323.359263 -258.65006 
L 325.445547 -257.565564 
L 327.473055 -258.804988 
L 329.445008 -260.044411 
L 331.364369 -260.346521 
L 333.233871 -262.523259 
L 335.056038 -262.213403 
L 336.833209 -263.297898 
L 338.567552 -263.91761 
L 340.261084 -263.91761 
L 341.91568 -263.91761 
L 343.533092 -266.706313 
L 345.114952 -267.558417 
L 346.662792 -267.945737 
L 348.178043 -269.649945 
L 349.66205 -269.185161 
L 351.116074 -269.185161 
L 352.541305 -269.649945 
L 353.938859 -272.438648 
L 355.309791 -272.438648 
L 356.655097 -273.678071 
L 357.975717 -274.452711 
L 359.272541 -274.065391 
L 360.546411 -274.994959 
L 361.798125 -275.847063 
L 363.028442 -275.227351 
L 364.23808 -276.073645 
L 365.427723 -275.847063 
L 366.598021 -276.311847 
L 367.749594 -276.311847 
L 368.883031 -277.396342 
L 369.998895 -277.396342 
L 371.097722 -276.854094 
L 372.180025 -278.32591 
L 373.246293 -278.473091 
L 374.296994 -278.016054 
L 375.332577 -278.945622 
L 376.35347 -279.10055 
L 377.360085 -279.720262 
L 378.352815 -278.790694 
L 379.332038 -279.720262 
L 380.298116 -279.720262 
L 381.251399 -279.875189 
L 382.192219 -280.800884 
L 383.1209 -282.199109 
L 384.037751 -282.199109 
L 384.943068 -282.199109 
L 385.837139 -281.579397 
L 386.720239 -280.959685 
L 387.592635 -280.959685 
L 388.454582 -282.818821 
L 389.306329 -282.818821 
L 390.148114 -282.818821 
L 390.980167 -282.818821 
L 391.80271 -283.438532 
L 392.615959 -280.959685 
L 393.420121 -280.959685 
L 394.215398 -282.818821 
L 394.215398 -290.41029 
L 394.215398 -290.41029 
L 393.420121 -290.41029 
L 392.615959 -290.41029 
L 391.80271 -290.41029 
L 390.980167 -289.635651 
L 390.148114 -288.861011 
L 389.306329 -288.318763 
L 388.454582 -285.91738 
L 387.592635 -285.91738 
L 386.720239 -285.91738 
L 385.837139 -285.91738 
L 384.943068 -285.91738 
L 384.037751 -285.91738 
L 383.1209 -285.91738 
L 382.192219 -285.91738 
L 381.251399 -285.91738 
L 380.298116 -284.832884 
L 379.332038 -284.832884 
L 378.352815 -284.832884 
L 377.360085 -284.832884 
L 376.35347 -284.832884 
L 375.332577 -283.59346 
L 374.296994 -283.59346 
L 373.246293 -284.213172 
L 372.180025 -283.903316 
L 371.097722 -280.494901 
L 369.998895 -280.262509 
L 368.883031 -280.030117 
L 367.749594 -280.185045 
L 366.598021 -280.185045 
L 365.427723 -278.790694 
L 364.23808 -278.248446 
L 363.028442 -278.945622 
L 361.798125 -278.635766 
L 360.546411 -278.480838 
L 359.272541 -278.480838 
L 357.975717 -278.635766 
L 356.655097 -278.32591 
L 355.309791 -278.016054 
L 353.938859 -277.861126 
L 352.541305 -276.931558 
L 351.116074 -276.001991 
L 349.66205 -277.241414 
L 348.178043 -276.001991 
L 346.662792 -276.001991 
L 345.114952 -273.678071 
L 343.533092 -270.579512 
L 341.91568 -270.424584 
L 340.261084 -269.649945 
L 338.567552 -270.424584 
L 336.833209 -267.326025 
L 335.056038 -269.185161 
L 333.233871 -269.192907 
L 331.364369 -267.790809 
L 329.445008 -266.706313 
L 327.473055 -266.706313 
L 325.445547 -265.544354 
L 323.359263 -264.281691 
L 321.210692 -264.072538 
L 318.996002 -264.072538 
L 316.710991 -263.762682 
L 314.35105 -261.283835 
L 311.911095 -259.889483 
L 309.385511 -258.495132 
L 306.768067 -258.200769 
L 304.051829 -258.495132 
L 301.229045 -253.692365 
L 298.291013 -253.692365 
L 295.227923 -251.765449 
L 292.028651 -250.28395 
L 288.680523 -250.438878 
L 285.169008 -249.199455 
L 281.477339 -248.269887 
L 277.586025 -247.185391 
L 273.472233 -245.945968 
L 269.108972 -243.776976 
L 264.46402 -241.764849 
L 259.498481 -238.509426 
L 254.164799 -238.354498 
L 248.403984 -234.946083 
L 242.141621 -232.622164 
L 235.281978 -231.072884 
L 227.698995 -229.523604 
L 219.221942 -227.819397 
L 209.611451 -222.396919 
L 198.516954 -218.91104 
L 185.394948 -210.777322 
L 169.334912 -202.411213 
L 148.629924 -199.312653 
L 119.447882 -188.700089 
L 69.560852 -176.383316 
z
" id="m9dbb70587a" style="stroke:#1f77b4;stroke-opacity:0.2;"/>
    </defs>
    <g clip-path="url(#p613952bfb0)">
     <use style="fill:#1f77b4;fill-opacity:0.2;stroke:#1f77b4;stroke-opacity:0.2;" x="0" xlink:href="#m9dbb70587a" y="325.986375"/>
    </g>
   </g>
   <g id="PolyCollection_2">
    <defs>
     <path d="M 69.560852 -169.721414 
L 69.560852 -49.65225 
L 119.447882 -49.65225 
L 148.629924 -49.65225 
L 169.334912 -49.65225 
L 185.394948 -49.65225 
L 198.516954 -49.65225 
L 209.611451 -49.65225 
L 219.221942 -49.65225 
L 227.698995 -49.65225 
L 235.281978 -49.65225 
L 242.141621 -49.65225 
L 248.403984 -49.65225 
L 254.164799 -49.65225 
L 259.498481 -49.65225 
L 264.46402 -49.65225 
L 269.108972 -49.65225 
L 273.472233 -49.65225 
L 277.586025 -49.65225 
L 281.477339 -49.65225 
L 285.169008 -49.65225 
L 288.680523 -49.65225 
L 292.028651 -49.65225 
L 295.227923 -49.65225 
L 298.291013 -49.65225 
L 301.229045 -49.65225 
L 304.051829 -49.65225 
L 306.768067 -49.65225 
L 309.385511 -49.65225 
L 311.911095 -49.65225 
L 314.35105 -49.65225 
L 316.710991 -49.65225 
L 318.996002 -49.65225 
L 321.210692 -49.65225 
L 323.359263 -49.65225 
L 325.445547 -49.65225 
L 327.473055 -49.65225 
L 329.445008 -49.65225 
L 331.364369 -49.65225 
L 333.233871 -49.65225 
L 335.056038 -49.65225 
L 336.833209 -49.65225 
L 338.567552 -49.65225 
L 340.261084 -49.65225 
L 341.91568 -49.65225 
L 343.533092 -49.65225 
L 345.114952 -49.65225 
L 346.662792 -49.65225 
L 348.178043 -49.65225 
L 349.66205 -49.65225 
L 351.116074 -49.65225 
L 352.541305 -49.65225 
L 353.938859 -49.65225 
L 355.309791 -49.65225 
L 356.655097 -49.65225 
L 357.975717 -49.65225 
L 359.272541 -49.65225 
L 360.546411 -49.65225 
L 361.798125 -49.65225 
L 363.028442 -49.65225 
L 364.23808 -49.65225 
L 365.427723 -49.65225 
L 366.598021 -49.65225 
L 367.749594 -49.65225 
L 368.883031 -49.65225 
L 369.998895 -49.65225 
L 371.097722 -49.65225 
L 372.180025 -49.65225 
L 373.246293 -49.65225 
L 374.296994 -49.65225 
L 375.332577 -49.65225 
L 376.35347 -49.65225 
L 377.360085 -49.65225 
L 378.352815 -49.65225 
L 379.332038 -49.65225 
L 380.298116 -49.65225 
L 381.251399 -49.65225 
L 382.192219 -49.65225 
L 383.1209 -49.65225 
L 384.037751 -49.65225 
L 384.943068 -49.65225 
L 385.837139 -49.65225 
L 386.720239 -49.65225 
L 387.592635 -49.65225 
L 388.454582 -49.65225 
L 389.306329 -49.65225 
L 390.148114 -49.65225 
L 390.980167 -49.65225 
L 391.80271 -49.65225 
L 392.615959 -49.65225 
L 393.420121 -49.65225 
L 394.215398 -49.65225 
L 394.215398 -290.565218 
L 394.215398 -290.565218 
L 393.420121 -287.544123 
L 392.615959 -290.41029 
L 391.80271 -288.861011 
L 390.980167 -286.3047 
L 390.148114 -290.41029 
L 389.306329 -288.880377 
L 388.454582 -290.41029 
L 387.592635 -290.41029 
L 386.720239 -291.57225 
L 385.837139 -289.945506 
L 384.943068 -289.978429 
L 384.037751 -279.720262 
L 383.1209 -286.072308 
L 382.192219 -284.75542 
L 381.251399 -287.699051 
L 380.298116 -289.945506 
L 379.332038 -287.699051 
L 378.352815 -289.945506 
L 377.360085 -289.790579 
L 376.35347 -289.790579 
L 375.332577 -289.170867 
L 374.296994 -279.956527 
L 373.246293 -289.170867 
L 372.180025 -289.015939 
L 371.097722 -289.015939 
L 369.998895 -279.499489 
L 368.883031 -289.015939 
L 367.749594 -289.015939 
L 366.598021 -279.565334 
L 365.427723 -279.565334 
L 364.23808 -289.015939 
L 363.028442 -276.156919 
L 361.798125 -275.227351 
L 360.546411 -269.340089 
L 359.272541 -268.875305 
L 357.975717 -267.945737 
L 356.655097 -267.945737 
L 355.309791 -267.945737 
L 353.938859 -274.762567 
L 352.541305 -267.945737 
L 351.116074 -274.762567 
L 349.66205 -274.607639 
L 348.178043 -273.678071 
L 346.662792 -273.678071 
L 345.114952 -273.678071 
L 343.533092 -267.635881 
L 341.91568 -263.607754 
L 340.261084 -263.607754 
L 338.567552 -259.269772 
L 336.833209 -262.523259 
L 335.056038 -260.741587 
L 333.233871 -260.741587 
L 331.364369 -258.959916 
L 329.445008 -258.959916 
L 327.473055 -258.959916 
L 325.445547 -258.959916 
L 323.359263 -255.861357 
L 321.210692 -255.510832 
L 318.996002 -255.474037 
L 316.710991 -254.699397 
L 314.35105 -256.171213 
L 311.911095 -252.762798 
L 309.385511 -151.207524 
L 306.768067 -52.189195 
L 304.051829 -251.05859 
L 301.229045 -245.945968 
L 298.291013 -52.105921 
L 295.227923 -146.947005 
L 292.028651 -49.65225 
L 288.680523 -144.31323 
L 285.169008 -49.65225 
L 281.477339 -49.65225 
L 277.586025 -49.65225 
L 273.472233 -139.897783 
L 269.108972 -49.65225 
L 264.46402 -54.048331 
L 259.498481 -224.875766 
L 254.164799 -51.801875 
L 248.403984 -135.637264 
L 242.141621 -133.700665 
L 235.281978 -133.700665 
L 227.698995 -132.383777 
L 219.221942 -210.93225 
L 209.611451 -130.059858 
L 198.516954 -208.453403 
L 185.394948 -127.503547 
L 169.334912 -197.608446 
L 148.629924 -195.439455 
L 119.447882 -176.538244 
L 69.560852 -169.721414 
z
" id="m61ccf06149" style="stroke:#98df8a;stroke-opacity:0.2;"/>
    </defs>
    <g clip-path="url(#p613952bfb0)">
     <use style="fill:#98df8a;fill-opacity:0.2;stroke:#98df8a;stroke-opacity:0.2;" x="0" xlink:href="#m61ccf06149" y="325.986375"/>
    </g>
   </g>
   <g id="matplotlib.axis_1">
    <g id="xtick_1">
     <g id="line2d_1">
      <defs>
       <path d="M 0 0 
L 0 3.5 
" id="mc8a6cc3f45" style="stroke:#000000;stroke-width:0.8;"/>
      </defs>
      <g>
       <use style="stroke:#000000;stroke-width:0.8;" x="69.560852" xlink:href="#mc8a6cc3f45" y="288.430125"/>
      </g>
     </g>
     <g id="text_1">
      <!-- 14m -->
      <g transform="translate(58.32804 303.028562)scale(0.1 -0.1)">
       <defs>
        <path d="M 794 531 
L 1825 531 
L 1825 4091 
L 703 3866 
L 703 4441 
L 1819 4666 
L 2450 4666 
L 2450 531 
L 3481 531 
L 3481 0 
L 794 0 
L 794 531 
z
" id="DejaVuSans-31" transform="scale(0.015625)"/>
        <path d="M 2419 4116 
L 825 1625 
L 2419 1625 
L 2419 4116 
z
M 2253 4666 
L 3047 4666 
L 3047 1625 
L 3713 1625 
L 3713 1100 
L 3047 1100 
L 3047 0 
L 2419 0 
L 2419 1100 
L 313 1100 
L 313 1709 
L 2253 4666 
z
" id="DejaVuSans-34" transform="scale(0.015625)"/>
        <path d="M 3328 2828 
Q 3544 3216 3844 3400 
Q 4144 3584 4550 3584 
Q 5097 3584 5394 3201 
Q 5691 2819 5691 2113 
L 5691 0 
L 5113 0 
L 5113 2094 
Q 5113 2597 4934 2840 
Q 4756 3084 4391 3084 
Q 3944 3084 3684 2787 
Q 3425 2491 3425 1978 
L 3425 0 
L 2847 0 
L 2847 2094 
Q 2847 2600 2669 2842 
Q 2491 3084 2119 3084 
Q 1678 3084 1418 2786 
Q 1159 2488 1159 1978 
L 1159 0 
L 581 0 
L 581 3500 
L 1159 3500 
L 1159 2956 
Q 1356 3278 1631 3431 
Q 1906 3584 2284 3584 
Q 2666 3584 2933 3390 
Q 3200 3197 3328 2828 
z
" id="DejaVuSans-6d" transform="scale(0.015625)"/>
       </defs>
       <use xlink:href="#DejaVuSans-31"/>
       <use x="63.623047" xlink:href="#DejaVuSans-34"/>
       <use x="127.246094" xlink:href="#DejaVuSans-6d"/>
      </g>
     </g>
    </g>
    <g id="xtick_2">
     <g id="line2d_2">
      <g>
       <use style="stroke:#000000;stroke-width:0.8;" x="134.491937" xlink:href="#mc8a6cc3f45" y="288.430125"/>
      </g>
     </g>
     <g id="text_2">
      <!-- 36m -->
      <g transform="translate(123.259125 303.028562)scale(0.1 -0.1)">
       <defs>
        <path d="M 2597 2516 
Q 3050 2419 3304 2112 
Q 3559 1806 3559 1356 
Q 3559 666 3084 287 
Q 2609 -91 1734 -91 
Q 1441 -91 1130 -33 
Q 819 25 488 141 
L 488 750 
Q 750 597 1062 519 
Q 1375 441 1716 441 
Q 2309 441 2620 675 
Q 2931 909 2931 1356 
Q 2931 1769 2642 2001 
Q 2353 2234 1838 2234 
L 1294 2234 
L 1294 2753 
L 1863 2753 
Q 2328 2753 2575 2939 
Q 2822 3125 2822 3475 
Q 2822 3834 2567 4026 
Q 2313 4219 1838 4219 
Q 1578 4219 1281 4162 
Q 984 4106 628 3988 
L 628 4550 
Q 988 4650 1302 4700 
Q 1616 4750 1894 4750 
Q 2613 4750 3031 4423 
Q 3450 4097 3450 3541 
Q 3450 3153 3228 2886 
Q 3006 2619 2597 2516 
z
" id="DejaVuSans-33" transform="scale(0.015625)"/>
        <path d="M 2113 2584 
Q 1688 2584 1439 2293 
Q 1191 2003 1191 1497 
Q 1191 994 1439 701 
Q 1688 409 2113 409 
Q 2538 409 2786 701 
Q 3034 994 3034 1497 
Q 3034 2003 2786 2293 
Q 2538 2584 2113 2584 
z
M 3366 4563 
L 3366 3988 
Q 3128 4100 2886 4159 
Q 2644 4219 2406 4219 
Q 1781 4219 1451 3797 
Q 1122 3375 1075 2522 
Q 1259 2794 1537 2939 
Q 1816 3084 2150 3084 
Q 2853 3084 3261 2657 
Q 3669 2231 3669 1497 
Q 3669 778 3244 343 
Q 2819 -91 2113 -91 
Q 1303 -91 875 529 
Q 447 1150 447 2328 
Q 447 3434 972 4092 
Q 1497 4750 2381 4750 
Q 2619 4750 2861 4703 
Q 3103 4656 3366 4563 
z
" id="DejaVuSans-36" transform="scale(0.015625)"/>
       </defs>
       <use xlink:href="#DejaVuSans-33"/>
       <use x="63.623047" xlink:href="#DejaVuSans-36"/>
       <use x="127.246094" xlink:href="#DejaVuSans-6d"/>
      </g>
     </g>
    </g>
    <g id="xtick_3">
     <g id="line2d_3">
      <g>
       <use style="stroke:#000000;stroke-width:0.8;" x="199.423022" xlink:href="#mc8a6cc3f45" y="288.430125"/>
      </g>
     </g>
     <g id="text_3">
      <!-- 1h:31m -->
      <g transform="translate(180.155834 303.028562)scale(0.1 -0.1)">
       <defs>
        <path d="M 3513 2113 
L 3513 0 
L 2938 0 
L 2938 2094 
Q 2938 2591 2744 2837 
Q 2550 3084 2163 3084 
Q 1697 3084 1428 2787 
Q 1159 2491 1159 1978 
L 1159 0 
L 581 0 
L 581 4863 
L 1159 4863 
L 1159 2956 
Q 1366 3272 1645 3428 
Q 1925 3584 2291 3584 
Q 2894 3584 3203 3211 
Q 3513 2838 3513 2113 
z
" id="DejaVuSans-68" transform="scale(0.015625)"/>
        <path d="M 750 794 
L 1409 794 
L 1409 0 
L 750 0 
L 750 794 
z
M 750 3309 
L 1409 3309 
L 1409 2516 
L 750 2516 
L 750 3309 
z
" id="DejaVuSans-3a" transform="scale(0.015625)"/>
       </defs>
       <use xlink:href="#DejaVuSans-31"/>
       <use x="63.623047" xlink:href="#DejaVuSans-68"/>
       <use x="127.001953" xlink:href="#DejaVuSans-3a"/>
       <use x="160.693359" xlink:href="#DejaVuSans-33"/>
       <use x="224.316406" xlink:href="#DejaVuSans-31"/>
       <use x="287.939453" xlink:href="#DejaVuSans-6d"/>
      </g>
     </g>
    </g>
    <g id="xtick_4">
     <g id="line2d_4">
      <g>
       <use style="stroke:#000000;stroke-width:0.8;" x="264.354107" xlink:href="#mc8a6cc3f45" y="288.430125"/>
      </g>
     </g>
     <g id="text_4">
      <!-- 3h:44m -->
      <g transform="translate(245.086919 303.028562)scale(0.1 -0.1)">
       <use xlink:href="#DejaVuSans-33"/>
       <use x="63.623047" xlink:href="#DejaVuSans-68"/>
       <use x="127.001953" xlink:href="#DejaVuSans-3a"/>
       <use x="160.693359" xlink:href="#DejaVuSans-34"/>
       <use x="224.316406" xlink:href="#DejaVuSans-34"/>
       <use x="287.939453" xlink:href="#DejaVuSans-6d"/>
      </g>
     </g>
    </g>
    <g id="xtick_5">
     <g id="line2d_5">
      <g>
       <use style="stroke:#000000;stroke-width:0.8;" x="329.285192" xlink:href="#mc8a6cc3f45" y="288.430125"/>
      </g>
     </g>
     <g id="text_5">
      <!-- 9h:13m -->
      <g transform="translate(310.018004 303.028562)scale(0.1 -0.1)">
       <defs>
        <path d="M 703 97 
L 703 672 
Q 941 559 1184 500 
Q 1428 441 1663 441 
Q 2288 441 2617 861 
Q 2947 1281 2994 2138 
Q 2813 1869 2534 1725 
Q 2256 1581 1919 1581 
Q 1219 1581 811 2004 
Q 403 2428 403 3163 
Q 403 3881 828 4315 
Q 1253 4750 1959 4750 
Q 2769 4750 3195 4129 
Q 3622 3509 3622 2328 
Q 3622 1225 3098 567 
Q 2575 -91 1691 -91 
Q 1453 -91 1209 -44 
Q 966 3 703 97 
z
M 1959 2075 
Q 2384 2075 2632 2365 
Q 2881 2656 2881 3163 
Q 2881 3666 2632 3958 
Q 2384 4250 1959 4250 
Q 1534 4250 1286 3958 
Q 1038 3666 1038 3163 
Q 1038 2656 1286 2365 
Q 1534 2075 1959 2075 
z
" id="DejaVuSans-39" transform="scale(0.015625)"/>
       </defs>
       <use xlink:href="#DejaVuSans-39"/>
       <use x="63.623047" xlink:href="#DejaVuSans-68"/>
       <use x="127.001953" xlink:href="#DejaVuSans-3a"/>
       <use x="160.693359" xlink:href="#DejaVuSans-31"/>
       <use x="224.316406" xlink:href="#DejaVuSans-33"/>
       <use x="287.939453" xlink:href="#DejaVuSans-6d"/>
      </g>
     </g>
    </g>
    <g id="xtick_6">
     <g id="line2d_6">
      <g>
       <use style="stroke:#000000;stroke-width:0.8;" x="394.216276" xlink:href="#mc8a6cc3f45" y="288.430125"/>
      </g>
     </g>
     <g id="text_6">
      <!-- 22h:45m -->
      <g transform="translate(371.767839 303.028562)scale(0.1 -0.1)">
       <defs>
        <path d="M 1228 531 
L 3431 531 
L 3431 0 
L 469 0 
L 469 531 
Q 828 903 1448 1529 
Q 2069 2156 2228 2338 
Q 2531 2678 2651 2914 
Q 2772 3150 2772 3378 
Q 2772 3750 2511 3984 
Q 2250 4219 1831 4219 
Q 1534 4219 1204 4116 
Q 875 4013 500 3803 
L 500 4441 
Q 881 4594 1212 4672 
Q 1544 4750 1819 4750 
Q 2544 4750 2975 4387 
Q 3406 4025 3406 3419 
Q 3406 3131 3298 2873 
Q 3191 2616 2906 2266 
Q 2828 2175 2409 1742 
Q 1991 1309 1228 531 
z
" id="DejaVuSans-32" transform="scale(0.015625)"/>
        <path d="M 691 4666 
L 3169 4666 
L 3169 4134 
L 1269 4134 
L 1269 2991 
Q 1406 3038 1543 3061 
Q 1681 3084 1819 3084 
Q 2600 3084 3056 2656 
Q 3513 2228 3513 1497 
Q 3513 744 3044 326 
Q 2575 -91 1722 -91 
Q 1428 -91 1123 -41 
Q 819 9 494 109 
L 494 744 
Q 775 591 1075 516 
Q 1375 441 1709 441 
Q 2250 441 2565 725 
Q 2881 1009 2881 1497 
Q 2881 1984 2565 2268 
Q 2250 2553 1709 2553 
Q 1456 2553 1204 2497 
Q 953 2441 691 2322 
L 691 4666 
z
" id="DejaVuSans-35" transform="scale(0.015625)"/>
       </defs>
       <use xlink:href="#DejaVuSans-32"/>
       <use x="63.623047" xlink:href="#DejaVuSans-32"/>
       <use x="127.246094" xlink:href="#DejaVuSans-68"/>
       <use x="190.625" xlink:href="#DejaVuSans-3a"/>
       <use x="224.316406" xlink:href="#DejaVuSans-34"/>
       <use x="287.939453" xlink:href="#DejaVuSans-35"/>
       <use x="351.5625" xlink:href="#DejaVuSans-6d"/>
      </g>
     </g>
    </g>
    <g id="xtick_7">
     <g id="line2d_7">
      <defs>
       <path d="M 0 0 
L 0 2 
" id="m11468fd46c" style="stroke:#000000;stroke-width:0.6;"/>
      </defs>
      <g>
       <use style="stroke:#000000;stroke-width:0.6;" x="61.083799" xlink:href="#m11468fd46c" y="288.430125"/>
      </g>
     </g>
    </g>
    <g id="xtick_8">
     <g id="line2d_8">
      <g>
       <use style="stroke:#000000;stroke-width:0.6;" x="127.030865" xlink:href="#m11468fd46c" y="288.430125"/>
      </g>
     </g>
    </g>
    <g id="xtick_9">
     <g id="line2d_9">
      <g>
       <use style="stroke:#000000;stroke-width:0.6;" x="156.212907" xlink:href="#m11468fd46c" y="288.430125"/>
      </g>
     </g>
    </g>
    <g id="xtick_10">
     <g id="line2d_10">
      <g>
       <use style="stroke:#000000;stroke-width:0.6;" x="176.917895" xlink:href="#m11468fd46c" y="288.430125"/>
      </g>
     </g>
    </g>
    <g id="xtick_11">
     <g id="line2d_11">
      <g>
       <use style="stroke:#000000;stroke-width:0.6;" x="192.977931" xlink:href="#m11468fd46c" y="288.430125"/>
      </g>
     </g>
    </g>
    <g id="xtick_12">
     <g id="line2d_12">
      <g>
       <use style="stroke:#000000;stroke-width:0.6;" x="206.099937" xlink:href="#m11468fd46c" y="288.430125"/>
      </g>
     </g>
    </g>
    <g id="xtick_13">
     <g id="line2d_13">
      <g>
       <use style="stroke:#000000;stroke-width:0.6;" x="217.194434" xlink:href="#m11468fd46c" y="288.430125"/>
      </g>
     </g>
    </g>
    <g id="xtick_14">
     <g id="line2d_14">
      <g>
       <use style="stroke:#000000;stroke-width:0.6;" x="226.804925" xlink:href="#m11468fd46c" y="288.430125"/>
      </g>
     </g>
    </g>
    <g id="xtick_15">
     <g id="line2d_15">
      <g>
       <use style="stroke:#000000;stroke-width:0.6;" x="235.281978" xlink:href="#m11468fd46c" y="288.430125"/>
      </g>
     </g>
    </g>
    <g id="xtick_16">
     <g id="line2d_16">
      <g>
       <use style="stroke:#000000;stroke-width:0.6;" x="292.751991" xlink:href="#m11468fd46c" y="288.430125"/>
      </g>
     </g>
    </g>
    <g id="xtick_17">
     <g id="line2d_17">
      <g>
       <use style="stroke:#000000;stroke-width:0.6;" x="321.934033" xlink:href="#m11468fd46c" y="288.430125"/>
      </g>
     </g>
    </g>
    <g id="xtick_18">
     <g id="line2d_18">
      <g>
       <use style="stroke:#000000;stroke-width:0.6;" x="342.639021" xlink:href="#m11468fd46c" y="288.430125"/>
      </g>
     </g>
    </g>
    <g id="xtick_19">
     <g id="line2d_19">
      <g>
       <use style="stroke:#000000;stroke-width:0.6;" x="358.699057" xlink:href="#m11468fd46c" y="288.430125"/>
      </g>
     </g>
    </g>
    <g id="xtick_20">
     <g id="line2d_20">
      <g>
       <use style="stroke:#000000;stroke-width:0.6;" x="371.821063" xlink:href="#m11468fd46c" y="288.430125"/>
      </g>
     </g>
    </g>
    <g id="xtick_21">
     <g id="line2d_21">
      <g>
       <use style="stroke:#000000;stroke-width:0.6;" x="382.91556" xlink:href="#m11468fd46c" y="288.430125"/>
      </g>
     </g>
    </g>
    <g id="xtick_22">
     <g id="line2d_22">
      <g>
       <use style="stroke:#000000;stroke-width:0.6;" x="392.526051" xlink:href="#m11468fd46c" y="288.430125"/>
      </g>
     </g>
    </g>
    <g id="xtick_23">
     <g id="line2d_23">
      <g>
       <use style="stroke:#000000;stroke-width:0.6;" x="401.003104" xlink:href="#m11468fd46c" y="288.430125"/>
      </g>
     </g>
    </g>
    <g id="text_7">
     <!-- Time (hour:minute) -->
     <g transform="translate(183.481094 316.706687)scale(0.1 -0.1)">
      <defs>
       <path d="M -19 4666 
L 3928 4666 
L 3928 4134 
L 2272 4134 
L 2272 0 
L 1638 0 
L 1638 4134 
L -19 4134 
L -19 4666 
z
" id="DejaVuSans-54" transform="scale(0.015625)"/>
       <path d="M 603 3500 
L 1178 3500 
L 1178 0 
L 603 0 
L 603 3500 
z
M 603 4863 
L 1178 4863 
L 1178 4134 
L 603 4134 
L 603 4863 
z
" id="DejaVuSans-69" transform="scale(0.015625)"/>
       <path d="M 3597 1894 
L 3597 1613 
L 953 1613 
Q 991 1019 1311 708 
Q 1631 397 2203 397 
Q 2534 397 2845 478 
Q 3156 559 3463 722 
L 3463 178 
Q 3153 47 2828 -22 
Q 2503 -91 2169 -91 
Q 1331 -91 842 396 
Q 353 884 353 1716 
Q 353 2575 817 3079 
Q 1281 3584 2069 3584 
Q 2775 3584 3186 3129 
Q 3597 2675 3597 1894 
z
M 3022 2063 
Q 3016 2534 2758 2815 
Q 2500 3097 2075 3097 
Q 1594 3097 1305 2825 
Q 1016 2553 972 2059 
L 3022 2063 
z
" id="DejaVuSans-65" transform="scale(0.015625)"/>
       <path id="DejaVuSans-20" transform="scale(0.015625)"/>
       <path d="M 1984 4856 
Q 1566 4138 1362 3434 
Q 1159 2731 1159 2009 
Q 1159 1288 1364 580 
Q 1569 -128 1984 -844 
L 1484 -844 
Q 1016 -109 783 600 
Q 550 1309 550 2009 
Q 550 2706 781 3412 
Q 1013 4119 1484 4856 
L 1984 4856 
z
" id="DejaVuSans-28" transform="scale(0.015625)"/>
       <path d="M 1959 3097 
Q 1497 3097 1228 2736 
Q 959 2375 959 1747 
Q 959 1119 1226 758 
Q 1494 397 1959 397 
Q 2419 397 2687 759 
Q 2956 1122 2956 1747 
Q 2956 2369 2687 2733 
Q 2419 3097 1959 3097 
z
M 1959 3584 
Q 2709 3584 3137 3096 
Q 3566 2609 3566 1747 
Q 3566 888 3137 398 
Q 2709 -91 1959 -91 
Q 1206 -91 779 398 
Q 353 888 353 1747 
Q 353 2609 779 3096 
Q 1206 3584 1959 3584 
z
" id="DejaVuSans-6f" transform="scale(0.015625)"/>
       <path d="M 544 1381 
L 544 3500 
L 1119 3500 
L 1119 1403 
Q 1119 906 1312 657 
Q 1506 409 1894 409 
Q 2359 409 2629 706 
Q 2900 1003 2900 1516 
L 2900 3500 
L 3475 3500 
L 3475 0 
L 2900 0 
L 2900 538 
Q 2691 219 2414 64 
Q 2138 -91 1772 -91 
Q 1169 -91 856 284 
Q 544 659 544 1381 
z
M 1991 3584 
L 1991 3584 
z
" id="DejaVuSans-75" transform="scale(0.015625)"/>
       <path d="M 2631 2963 
Q 2534 3019 2420 3045 
Q 2306 3072 2169 3072 
Q 1681 3072 1420 2755 
Q 1159 2438 1159 1844 
L 1159 0 
L 581 0 
L 581 3500 
L 1159 3500 
L 1159 2956 
Q 1341 3275 1631 3429 
Q 1922 3584 2338 3584 
Q 2397 3584 2469 3576 
Q 2541 3569 2628 3553 
L 2631 2963 
z
" id="DejaVuSans-72" transform="scale(0.015625)"/>
       <path d="M 3513 2113 
L 3513 0 
L 2938 0 
L 2938 2094 
Q 2938 2591 2744 2837 
Q 2550 3084 2163 3084 
Q 1697 3084 1428 2787 
Q 1159 2491 1159 1978 
L 1159 0 
L 581 0 
L 581 3500 
L 1159 3500 
L 1159 2956 
Q 1366 3272 1645 3428 
Q 1925 3584 2291 3584 
Q 2894 3584 3203 3211 
Q 3513 2838 3513 2113 
z
" id="DejaVuSans-6e" transform="scale(0.015625)"/>
       <path d="M 1172 4494 
L 1172 3500 
L 2356 3500 
L 2356 3053 
L 1172 3053 
L 1172 1153 
Q 1172 725 1289 603 
Q 1406 481 1766 481 
L 2356 481 
L 2356 0 
L 1766 0 
Q 1100 0 847 248 
Q 594 497 594 1153 
L 594 3053 
L 172 3053 
L 172 3500 
L 594 3500 
L 594 4494 
L 1172 4494 
z
" id="DejaVuSans-74" transform="scale(0.015625)"/>
       <path d="M 513 4856 
L 1013 4856 
Q 1481 4119 1714 3412 
Q 1947 2706 1947 2009 
Q 1947 1309 1714 600 
Q 1481 -109 1013 -844 
L 513 -844 
Q 928 -128 1133 580 
Q 1338 1288 1338 2009 
Q 1338 2731 1133 3434 
Q 928 4138 513 4856 
z
" id="DejaVuSans-29" transform="scale(0.015625)"/>
      </defs>
      <use xlink:href="#DejaVuSans-54"/>
      <use x="57.958984" xlink:href="#DejaVuSans-69"/>
      <use x="85.742188" xlink:href="#DejaVuSans-6d"/>
      <use x="183.154297" xlink:href="#DejaVuSans-65"/>
      <use x="244.677734" xlink:href="#DejaVuSans-20"/>
      <use x="276.464844" xlink:href="#DejaVuSans-28"/>
      <use x="315.478516" xlink:href="#DejaVuSans-68"/>
      <use x="378.857422" xlink:href="#DejaVuSans-6f"/>
      <use x="440.039062" xlink:href="#DejaVuSans-75"/>
      <use x="503.417969" xlink:href="#DejaVuSans-72"/>
      <use x="542.78125" xlink:href="#DejaVuSans-3a"/>
      <use x="576.472656" xlink:href="#DejaVuSans-6d"/>
      <use x="673.884766" xlink:href="#DejaVuSans-69"/>
      <use x="701.667969" xlink:href="#DejaVuSans-6e"/>
      <use x="765.046875" xlink:href="#DejaVuSans-75"/>
      <use x="828.425781" xlink:href="#DejaVuSans-74"/>
      <use x="867.634766" xlink:href="#DejaVuSans-65"/>
      <use x="929.158203" xlink:href="#DejaVuSans-29"/>
     </g>
    </g>
   </g>
   <g id="matplotlib.axis_2">
    <g id="ytick_1">
     <g id="line2d_24">
      <defs>
       <path d="M 0 0 
L -3.5 0 
" id="m6a06ef3393" style="stroke:#000000;stroke-width:0.8;"/>
      </defs>
      <g>
       <use style="stroke:#000000;stroke-width:0.8;" x="53.328125" xlink:href="#m6a06ef3393" y="269.517295"/>
      </g>
     </g>
     <g id="text_8">
      <!-- 3600 -->
      <g transform="translate(20.878125 273.316514)scale(0.1 -0.1)">
       <defs>
        <path d="M 2034 4250 
Q 1547 4250 1301 3770 
Q 1056 3291 1056 2328 
Q 1056 1369 1301 889 
Q 1547 409 2034 409 
Q 2525 409 2770 889 
Q 3016 1369 3016 2328 
Q 3016 3291 2770 3770 
Q 2525 4250 2034 4250 
z
M 2034 4750 
Q 2819 4750 3233 4129 
Q 3647 3509 3647 2328 
Q 3647 1150 3233 529 
Q 2819 -91 2034 -91 
Q 1250 -91 836 529 
Q 422 1150 422 2328 
Q 422 3509 836 4129 
Q 1250 4750 2034 4750 
z
" id="DejaVuSans-30" transform="scale(0.015625)"/>
       </defs>
       <use xlink:href="#DejaVuSans-33"/>
       <use x="63.623047" xlink:href="#DejaVuSans-36"/>
       <use x="127.246094" xlink:href="#DejaVuSans-30"/>
       <use x="190.869141" xlink:href="#DejaVuSans-30"/>
      </g>
     </g>
    </g>
    <g id="ytick_2">
     <g id="line2d_25">
      <g>
       <use style="stroke:#000000;stroke-width:0.8;" x="53.328125" xlink:href="#m6a06ef3393" y="238.531704"/>
      </g>
     </g>
     <g id="text_9">
      <!-- 3800 -->
      <g transform="translate(20.878125 242.330923)scale(0.1 -0.1)">
       <defs>
        <path d="M 2034 2216 
Q 1584 2216 1326 1975 
Q 1069 1734 1069 1313 
Q 1069 891 1326 650 
Q 1584 409 2034 409 
Q 2484 409 2743 651 
Q 3003 894 3003 1313 
Q 3003 1734 2745 1975 
Q 2488 2216 2034 2216 
z
M 1403 2484 
Q 997 2584 770 2862 
Q 544 3141 544 3541 
Q 544 4100 942 4425 
Q 1341 4750 2034 4750 
Q 2731 4750 3128 4425 
Q 3525 4100 3525 3541 
Q 3525 3141 3298 2862 
Q 3072 2584 2669 2484 
Q 3125 2378 3379 2068 
Q 3634 1759 3634 1313 
Q 3634 634 3220 271 
Q 2806 -91 2034 -91 
Q 1263 -91 848 271 
Q 434 634 434 1313 
Q 434 1759 690 2068 
Q 947 2378 1403 2484 
z
M 1172 3481 
Q 1172 3119 1398 2916 
Q 1625 2713 2034 2713 
Q 2441 2713 2670 2916 
Q 2900 3119 2900 3481 
Q 2900 3844 2670 4047 
Q 2441 4250 2034 4250 
Q 1625 4250 1398 4047 
Q 1172 3844 1172 3481 
z
" id="DejaVuSans-38" transform="scale(0.015625)"/>
       </defs>
       <use xlink:href="#DejaVuSans-33"/>
       <use x="63.623047" xlink:href="#DejaVuSans-38"/>
       <use x="127.246094" xlink:href="#DejaVuSans-30"/>
       <use x="190.869141" xlink:href="#DejaVuSans-30"/>
      </g>
     </g>
    </g>
    <g id="ytick_3">
     <g id="line2d_26">
      <g>
       <use style="stroke:#000000;stroke-width:0.8;" x="53.328125" xlink:href="#m6a06ef3393" y="207.546113"/>
      </g>
     </g>
     <g id="text_10">
      <!-- 4000 -->
      <g transform="translate(20.878125 211.345332)scale(0.1 -0.1)">
       <use xlink:href="#DejaVuSans-34"/>
       <use x="63.623047" xlink:href="#DejaVuSans-30"/>
       <use x="127.246094" xlink:href="#DejaVuSans-30"/>
       <use x="190.869141" xlink:href="#DejaVuSans-30"/>
      </g>
     </g>
    </g>
    <g id="ytick_4">
     <g id="line2d_27">
      <g>
       <use style="stroke:#000000;stroke-width:0.8;" x="53.328125" xlink:href="#m6a06ef3393" y="176.560523"/>
      </g>
     </g>
     <g id="text_11">
      <!-- 4200 -->
      <g transform="translate(20.878125 180.359741)scale(0.1 -0.1)">
       <use xlink:href="#DejaVuSans-34"/>
       <use x="63.623047" xlink:href="#DejaVuSans-32"/>
       <use x="127.246094" xlink:href="#DejaVuSans-30"/>
       <use x="190.869141" xlink:href="#DejaVuSans-30"/>
      </g>
     </g>
    </g>
    <g id="ytick_5">
     <g id="line2d_28">
      <g>
       <use style="stroke:#000000;stroke-width:0.8;" x="53.328125" xlink:href="#m6a06ef3393" y="145.574932"/>
      </g>
     </g>
     <g id="text_12">
      <!-- 4400 -->
      <g transform="translate(20.878125 149.374151)scale(0.1 -0.1)">
       <use xlink:href="#DejaVuSans-34"/>
       <use x="63.623047" xlink:href="#DejaVuSans-34"/>
       <use x="127.246094" xlink:href="#DejaVuSans-30"/>
       <use x="190.869141" xlink:href="#DejaVuSans-30"/>
      </g>
     </g>
    </g>
    <g id="ytick_6">
     <g id="line2d_29">
      <g>
       <use style="stroke:#000000;stroke-width:0.8;" x="53.328125" xlink:href="#m6a06ef3393" y="114.589341"/>
      </g>
     </g>
     <g id="text_13">
      <!-- 4600 -->
      <g transform="translate(20.878125 118.38856)scale(0.1 -0.1)">
       <use xlink:href="#DejaVuSans-34"/>
       <use x="63.623047" xlink:href="#DejaVuSans-36"/>
       <use x="127.246094" xlink:href="#DejaVuSans-30"/>
       <use x="190.869141" xlink:href="#DejaVuSans-30"/>
      </g>
     </g>
    </g>
    <g id="ytick_7">
     <g id="line2d_30">
      <g>
       <use style="stroke:#000000;stroke-width:0.8;" x="53.328125" xlink:href="#m6a06ef3393" y="83.60375"/>
      </g>
     </g>
     <g id="text_14">
      <!-- 4800 -->
      <g transform="translate(20.878125 87.402969)scale(0.1 -0.1)">
       <use xlink:href="#DejaVuSans-34"/>
       <use x="63.623047" xlink:href="#DejaVuSans-38"/>
       <use x="127.246094" xlink:href="#DejaVuSans-30"/>
       <use x="190.869141" xlink:href="#DejaVuSans-30"/>
      </g>
     </g>
    </g>
    <g id="ytick_8">
     <g id="line2d_31">
      <g>
       <use style="stroke:#000000;stroke-width:0.8;" x="53.328125" xlink:href="#m6a06ef3393" y="52.61816"/>
      </g>
     </g>
     <g id="text_15">
      <!-- 5000 -->
      <g transform="translate(20.878125 56.417378)scale(0.1 -0.1)">
       <use xlink:href="#DejaVuSans-35"/>
       <use x="63.623047" xlink:href="#DejaVuSans-30"/>
       <use x="127.246094" xlink:href="#DejaVuSans-30"/>
       <use x="190.869141" xlink:href="#DejaVuSans-30"/>
      </g>
     </g>
    </g>
    <g id="text_16">
     <!-- Code region coverage -->
     <g transform="translate(14.798438 210.379594)rotate(-90)scale(0.1 -0.1)">
      <defs>
       <path d="M 4122 4306 
L 4122 3641 
Q 3803 3938 3442 4084 
Q 3081 4231 2675 4231 
Q 1875 4231 1450 3742 
Q 1025 3253 1025 2328 
Q 1025 1406 1450 917 
Q 1875 428 2675 428 
Q 3081 428 3442 575 
Q 3803 722 4122 1019 
L 4122 359 
Q 3791 134 3420 21 
Q 3050 -91 2638 -91 
Q 1578 -91 968 557 
Q 359 1206 359 2328 
Q 359 3453 968 4101 
Q 1578 4750 2638 4750 
Q 3056 4750 3426 4639 
Q 3797 4528 4122 4306 
z
" id="DejaVuSans-43" transform="scale(0.015625)"/>
       <path d="M 2906 2969 
L 2906 4863 
L 3481 4863 
L 3481 0 
L 2906 0 
L 2906 525 
Q 2725 213 2448 61 
Q 2172 -91 1784 -91 
Q 1150 -91 751 415 
Q 353 922 353 1747 
Q 353 2572 751 3078 
Q 1150 3584 1784 3584 
Q 2172 3584 2448 3432 
Q 2725 3281 2906 2969 
z
M 947 1747 
Q 947 1113 1208 752 
Q 1469 391 1925 391 
Q 2381 391 2643 752 
Q 2906 1113 2906 1747 
Q 2906 2381 2643 2742 
Q 2381 3103 1925 3103 
Q 1469 3103 1208 2742 
Q 947 2381 947 1747 
z
" id="DejaVuSans-64" transform="scale(0.015625)"/>
       <path d="M 2906 1791 
Q 2906 2416 2648 2759 
Q 2391 3103 1925 3103 
Q 1463 3103 1205 2759 
Q 947 2416 947 1791 
Q 947 1169 1205 825 
Q 1463 481 1925 481 
Q 2391 481 2648 825 
Q 2906 1169 2906 1791 
z
M 3481 434 
Q 3481 -459 3084 -895 
Q 2688 -1331 1869 -1331 
Q 1566 -1331 1297 -1286 
Q 1028 -1241 775 -1147 
L 775 -588 
Q 1028 -725 1275 -790 
Q 1522 -856 1778 -856 
Q 2344 -856 2625 -561 
Q 2906 -266 2906 331 
L 2906 616 
Q 2728 306 2450 153 
Q 2172 0 1784 0 
Q 1141 0 747 490 
Q 353 981 353 1791 
Q 353 2603 747 3093 
Q 1141 3584 1784 3584 
Q 2172 3584 2450 3431 
Q 2728 3278 2906 2969 
L 2906 3500 
L 3481 3500 
L 3481 434 
z
" id="DejaVuSans-67" transform="scale(0.015625)"/>
       <path d="M 3122 3366 
L 3122 2828 
Q 2878 2963 2633 3030 
Q 2388 3097 2138 3097 
Q 1578 3097 1268 2742 
Q 959 2388 959 1747 
Q 959 1106 1268 751 
Q 1578 397 2138 397 
Q 2388 397 2633 464 
Q 2878 531 3122 666 
L 3122 134 
Q 2881 22 2623 -34 
Q 2366 -91 2075 -91 
Q 1284 -91 818 406 
Q 353 903 353 1747 
Q 353 2603 823 3093 
Q 1294 3584 2113 3584 
Q 2378 3584 2631 3529 
Q 2884 3475 3122 3366 
z
" id="DejaVuSans-63" transform="scale(0.015625)"/>
       <path d="M 191 3500 
L 800 3500 
L 1894 563 
L 2988 3500 
L 3597 3500 
L 2284 0 
L 1503 0 
L 191 3500 
z
" id="DejaVuSans-76" transform="scale(0.015625)"/>
       <path d="M 2194 1759 
Q 1497 1759 1228 1600 
Q 959 1441 959 1056 
Q 959 750 1161 570 
Q 1363 391 1709 391 
Q 2188 391 2477 730 
Q 2766 1069 2766 1631 
L 2766 1759 
L 2194 1759 
z
M 3341 1997 
L 3341 0 
L 2766 0 
L 2766 531 
Q 2569 213 2275 61 
Q 1981 -91 1556 -91 
Q 1019 -91 701 211 
Q 384 513 384 1019 
Q 384 1609 779 1909 
Q 1175 2209 1959 2209 
L 2766 2209 
L 2766 2266 
Q 2766 2663 2505 2880 
Q 2244 3097 1772 3097 
Q 1472 3097 1187 3025 
Q 903 2953 641 2809 
L 641 3341 
Q 956 3463 1253 3523 
Q 1550 3584 1831 3584 
Q 2591 3584 2966 3190 
Q 3341 2797 3341 1997 
z
" id="DejaVuSans-61" transform="scale(0.015625)"/>
      </defs>
      <use xlink:href="#DejaVuSans-43"/>
      <use x="69.824219" xlink:href="#DejaVuSans-6f"/>
      <use x="131.005859" xlink:href="#DejaVuSans-64"/>
      <use x="194.482422" xlink:href="#DejaVuSans-65"/>
      <use x="256.005859" xlink:href="#DejaVuSans-20"/>
      <use x="287.792969" xlink:href="#DejaVuSans-72"/>
      <use x="326.65625" xlink:href="#DejaVuSans-65"/>
      <use x="388.179688" xlink:href="#DejaVuSans-67"/>
      <use x="451.65625" xlink:href="#DejaVuSans-69"/>
      <use x="479.439453" xlink:href="#DejaVuSans-6f"/>
      <use x="540.621094" xlink:href="#DejaVuSans-6e"/>
      <use x="604" xlink:href="#DejaVuSans-20"/>
      <use x="635.787109" xlink:href="#DejaVuSans-63"/>
      <use x="690.767578" xlink:href="#DejaVuSans-6f"/>
      <use x="751.949219" xlink:href="#DejaVuSans-76"/>
      <use x="811.128906" xlink:href="#DejaVuSans-65"/>
      <use x="872.652344" xlink:href="#DejaVuSans-72"/>
      <use x="913.765625" xlink:href="#DejaVuSans-61"/>
      <use x="975.044922" xlink:href="#DejaVuSans-67"/>
      <use x="1038.521484" xlink:href="#DejaVuSans-65"/>
     </g>
    </g>
   </g>
   <g id="line2d_32">
    <path clip-path="url(#p613952bfb0)" d="M 69.560852 151.849514 
L 119.447882 138.603174 
L 148.629924 128.068073 
L 169.334912 125.589226 
L 185.394948 119.469572 
L 198.516954 111.490782 
L 209.611451 111.800638 
L 219.221942 104.519024 
L 227.698995 101.033145 
L 235.281978 98.941618 
L 242.141621 94.603635 
L 248.403984 92.512108 
L 254.164799 92.124788 
L 259.498481 90.730436 
L 264.46402 88.483981 
L 269.108972 88.329053 
L 273.472233 86.624845 
L 277.586025 86.547381 
L 281.477339 83.061503 
L 285.169008 83.758678 
L 288.680523 79.033376 
L 292.028651 78.568592 
L 295.227923 76.78692 
L 298.291013 76.089745 
L 301.229045 74.927785 
L 304.051829 72.448938 
L 306.768067 73.068649 
L 309.385511 72.758794 
L 311.911095 71.51937 
L 314.35105 69.505307 
L 316.710991 69.117987 
L 318.996002 67.491243 
L 321.210692 66.716603 
L 323.359263 66.716603 
L 325.445547 66.716603 
L 327.473055 65.322252 
L 329.445008 65.47718 
L 331.364369 62.456085 
L 333.233871 60.984269 
L 335.056038 60.596949 
L 336.833209 60.596949 
L 338.567552 58.815278 
L 340.261084 58.118102 
L 341.91568 58.040638 
L 343.533092 57.420926 
L 345.114952 56.568822 
L 346.662792 56.181503 
L 348.178043 54.787151 
L 349.66205 53.857583 
L 351.116074 53.857583 
L 352.541305 53.547727 
L 353.938859 52.463232 
L 355.309791 51.378736 
L 356.655097 51.223808 
L 357.975717 49.519601 
L 359.272541 50.216776 
L 360.546411 49.442137 
L 361.798125 48.667497 
L 363.028442 48.667497 
L 364.23808 48.744961 
L 365.427723 48.590033 
L 366.598021 47.815393 
L 367.749594 47.970321 
L 368.883031 47.350609 
L 369.998895 46.653433 
L 371.097722 46.575969 
L 372.180025 45.568938 
L 373.246293 45.336546 
L 374.296994 45.491474 
L 375.332577 45.336546 
L 376.35347 45.259082 
L 377.360085 45.336546 
L 378.352815 45.336546 
L 379.332038 45.181618 
L 380.298116 45.181618 
L 381.251399 45.02669 
L 382.192219 42.547843 
L 383.1209 42.470379 
L 384.037751 42.547843 
L 384.943068 42.547843 
L 385.837139 42.237987 
L 386.720239 42.083059 
L 387.592635 42.083059 
L 388.454582 42.083059 
L 389.306329 42.083059 
L 390.148114 38.364788 
L 390.980167 38.364788 
L 391.80271 38.054932 
L 392.615959 40.223923 
L 393.420121 38.364788 
L 394.215398 38.364788 
" style="fill:none;stroke:#1f77b4;stroke-linecap:square;stroke-width:1.5;"/>
    <defs>
     <path d="M 0 3 
C 0.795609 3 1.55874 2.683901 2.12132 2.12132 
C 2.683901 1.55874 3 0.795609 3 0 
C 3 -0.795609 2.683901 -1.55874 2.12132 -2.12132 
C 1.55874 -2.683901 0.795609 -3 0 -3 
C -0.795609 -3 -1.55874 -2.683901 -2.12132 -2.12132 
C -2.683901 -1.55874 -3 -0.795609 -3 0 
C -3 0.795609 -2.683901 1.55874 -2.12132 2.12132 
C -1.55874 2.683901 -0.795609 3 0 3 
z
" id="m77d0f9e1b7" style="stroke:#ffffff;stroke-width:0.75;"/>
    </defs>
    <g clip-path="url(#p613952bfb0)">
     <use style="fill:#1f77b4;stroke:#ffffff;stroke-width:0.75;" x="69.560852" xlink:href="#m77d0f9e1b7" y="151.849514"/>
     <use style="fill:#1f77b4;stroke:#ffffff;stroke-width:0.75;" x="119.447882" xlink:href="#m77d0f9e1b7" y="138.603174"/>
     <use style="fill:#1f77b4;stroke:#ffffff;stroke-width:0.75;" x="148.629924" xlink:href="#m77d0f9e1b7" y="128.068073"/>
     <use style="fill:#1f77b4;stroke:#ffffff;stroke-width:0.75;" x="169.334912" xlink:href="#m77d0f9e1b7" y="125.589226"/>
     <use style="fill:#1f77b4;stroke:#ffffff;stroke-width:0.75;" x="185.394948" xlink:href="#m77d0f9e1b7" y="119.469572"/>
     <use style="fill:#1f77b4;stroke:#ffffff;stroke-width:0.75;" x="198.516954" xlink:href="#m77d0f9e1b7" y="111.490782"/>
     <use style="fill:#1f77b4;stroke:#ffffff;stroke-width:0.75;" x="209.611451" xlink:href="#m77d0f9e1b7" y="111.800638"/>
     <use style="fill:#1f77b4;stroke:#ffffff;stroke-width:0.75;" x="219.221942" xlink:href="#m77d0f9e1b7" y="104.519024"/>
     <use style="fill:#1f77b4;stroke:#ffffff;stroke-width:0.75;" x="227.698995" xlink:href="#m77d0f9e1b7" y="101.033145"/>
     <use style="fill:#1f77b4;stroke:#ffffff;stroke-width:0.75;" x="235.281978" xlink:href="#m77d0f9e1b7" y="98.941618"/>
     <use style="fill:#1f77b4;stroke:#ffffff;stroke-width:0.75;" x="242.141621" xlink:href="#m77d0f9e1b7" y="94.603635"/>
     <use style="fill:#1f77b4;stroke:#ffffff;stroke-width:0.75;" x="248.403984" xlink:href="#m77d0f9e1b7" y="92.512108"/>
     <use style="fill:#1f77b4;stroke:#ffffff;stroke-width:0.75;" x="254.164799" xlink:href="#m77d0f9e1b7" y="92.124788"/>
     <use style="fill:#1f77b4;stroke:#ffffff;stroke-width:0.75;" x="259.498481" xlink:href="#m77d0f9e1b7" y="90.730436"/>
     <use style="fill:#1f77b4;stroke:#ffffff;stroke-width:0.75;" x="264.46402" xlink:href="#m77d0f9e1b7" y="88.483981"/>
     <use style="fill:#1f77b4;stroke:#ffffff;stroke-width:0.75;" x="269.108972" xlink:href="#m77d0f9e1b7" y="88.329053"/>
     <use style="fill:#1f77b4;stroke:#ffffff;stroke-width:0.75;" x="273.472233" xlink:href="#m77d0f9e1b7" y="86.624845"/>
     <use style="fill:#1f77b4;stroke:#ffffff;stroke-width:0.75;" x="277.586025" xlink:href="#m77d0f9e1b7" y="86.547381"/>
     <use style="fill:#1f77b4;stroke:#ffffff;stroke-width:0.75;" x="281.477339" xlink:href="#m77d0f9e1b7" y="83.061503"/>
     <use style="fill:#1f77b4;stroke:#ffffff;stroke-width:0.75;" x="285.169008" xlink:href="#m77d0f9e1b7" y="83.758678"/>
     <use style="fill:#1f77b4;stroke:#ffffff;stroke-width:0.75;" x="288.680523" xlink:href="#m77d0f9e1b7" y="79.033376"/>
     <use style="fill:#1f77b4;stroke:#ffffff;stroke-width:0.75;" x="292.028651" xlink:href="#m77d0f9e1b7" y="78.568592"/>
     <use style="fill:#1f77b4;stroke:#ffffff;stroke-width:0.75;" x="295.227923" xlink:href="#m77d0f9e1b7" y="76.78692"/>
     <use style="fill:#1f77b4;stroke:#ffffff;stroke-width:0.75;" x="298.291013" xlink:href="#m77d0f9e1b7" y="76.089745"/>
     <use style="fill:#1f77b4;stroke:#ffffff;stroke-width:0.75;" x="301.229045" xlink:href="#m77d0f9e1b7" y="74.927785"/>
     <use style="fill:#1f77b4;stroke:#ffffff;stroke-width:0.75;" x="304.051829" xlink:href="#m77d0f9e1b7" y="72.448938"/>
     <use style="fill:#1f77b4;stroke:#ffffff;stroke-width:0.75;" x="306.768067" xlink:href="#m77d0f9e1b7" y="73.068649"/>
     <use style="fill:#1f77b4;stroke:#ffffff;stroke-width:0.75;" x="309.385511" xlink:href="#m77d0f9e1b7" y="72.758794"/>
     <use style="fill:#1f77b4;stroke:#ffffff;stroke-width:0.75;" x="311.911095" xlink:href="#m77d0f9e1b7" y="71.51937"/>
     <use style="fill:#1f77b4;stroke:#ffffff;stroke-width:0.75;" x="314.35105" xlink:href="#m77d0f9e1b7" y="69.505307"/>
     <use style="fill:#1f77b4;stroke:#ffffff;stroke-width:0.75;" x="316.710991" xlink:href="#m77d0f9e1b7" y="69.117987"/>
     <use style="fill:#1f77b4;stroke:#ffffff;stroke-width:0.75;" x="318.996002" xlink:href="#m77d0f9e1b7" y="67.491243"/>
     <use style="fill:#1f77b4;stroke:#ffffff;stroke-width:0.75;" x="321.210692" xlink:href="#m77d0f9e1b7" y="66.716603"/>
     <use style="fill:#1f77b4;stroke:#ffffff;stroke-width:0.75;" x="323.359263" xlink:href="#m77d0f9e1b7" y="66.716603"/>
     <use style="fill:#1f77b4;stroke:#ffffff;stroke-width:0.75;" x="325.445547" xlink:href="#m77d0f9e1b7" y="66.716603"/>
     <use style="fill:#1f77b4;stroke:#ffffff;stroke-width:0.75;" x="327.473055" xlink:href="#m77d0f9e1b7" y="65.322252"/>
     <use style="fill:#1f77b4;stroke:#ffffff;stroke-width:0.75;" x="329.445008" xlink:href="#m77d0f9e1b7" y="65.47718"/>
     <use style="fill:#1f77b4;stroke:#ffffff;stroke-width:0.75;" x="331.364369" xlink:href="#m77d0f9e1b7" y="62.456085"/>
     <use style="fill:#1f77b4;stroke:#ffffff;stroke-width:0.75;" x="333.233871" xlink:href="#m77d0f9e1b7" y="60.984269"/>
     <use style="fill:#1f77b4;stroke:#ffffff;stroke-width:0.75;" x="335.056038" xlink:href="#m77d0f9e1b7" y="60.596949"/>
     <use style="fill:#1f77b4;stroke:#ffffff;stroke-width:0.75;" x="336.833209" xlink:href="#m77d0f9e1b7" y="60.596949"/>
     <use style="fill:#1f77b4;stroke:#ffffff;stroke-width:0.75;" x="338.567552" xlink:href="#m77d0f9e1b7" y="58.815278"/>
     <use style="fill:#1f77b4;stroke:#ffffff;stroke-width:0.75;" x="340.261084" xlink:href="#m77d0f9e1b7" y="58.118102"/>
     <use style="fill:#1f77b4;stroke:#ffffff;stroke-width:0.75;" x="341.91568" xlink:href="#m77d0f9e1b7" y="58.040638"/>
     <use style="fill:#1f77b4;stroke:#ffffff;stroke-width:0.75;" x="343.533092" xlink:href="#m77d0f9e1b7" y="57.420926"/>
     <use style="fill:#1f77b4;stroke:#ffffff;stroke-width:0.75;" x="345.114952" xlink:href="#m77d0f9e1b7" y="56.568822"/>
     <use style="fill:#1f77b4;stroke:#ffffff;stroke-width:0.75;" x="346.662792" xlink:href="#m77d0f9e1b7" y="56.181503"/>
     <use style="fill:#1f77b4;stroke:#ffffff;stroke-width:0.75;" x="348.178043" xlink:href="#m77d0f9e1b7" y="54.787151"/>
     <use style="fill:#1f77b4;stroke:#ffffff;stroke-width:0.75;" x="349.66205" xlink:href="#m77d0f9e1b7" y="53.857583"/>
     <use style="fill:#1f77b4;stroke:#ffffff;stroke-width:0.75;" x="351.116074" xlink:href="#m77d0f9e1b7" y="53.857583"/>
     <use style="fill:#1f77b4;stroke:#ffffff;stroke-width:0.75;" x="352.541305" xlink:href="#m77d0f9e1b7" y="53.547727"/>
     <use style="fill:#1f77b4;stroke:#ffffff;stroke-width:0.75;" x="353.938859" xlink:href="#m77d0f9e1b7" y="52.463232"/>
     <use style="fill:#1f77b4;stroke:#ffffff;stroke-width:0.75;" x="355.309791" xlink:href="#m77d0f9e1b7" y="51.378736"/>
     <use style="fill:#1f77b4;stroke:#ffffff;stroke-width:0.75;" x="356.655097" xlink:href="#m77d0f9e1b7" y="51.223808"/>
     <use style="fill:#1f77b4;stroke:#ffffff;stroke-width:0.75;" x="357.975717" xlink:href="#m77d0f9e1b7" y="49.519601"/>
     <use style="fill:#1f77b4;stroke:#ffffff;stroke-width:0.75;" x="359.272541" xlink:href="#m77d0f9e1b7" y="50.216776"/>
     <use style="fill:#1f77b4;stroke:#ffffff;stroke-width:0.75;" x="360.546411" xlink:href="#m77d0f9e1b7" y="49.442137"/>
     <use style="fill:#1f77b4;stroke:#ffffff;stroke-width:0.75;" x="361.798125" xlink:href="#m77d0f9e1b7" y="48.667497"/>
     <use style="fill:#1f77b4;stroke:#ffffff;stroke-width:0.75;" x="363.028442" xlink:href="#m77d0f9e1b7" y="48.667497"/>
     <use style="fill:#1f77b4;stroke:#ffffff;stroke-width:0.75;" x="364.23808" xlink:href="#m77d0f9e1b7" y="48.744961"/>
     <use style="fill:#1f77b4;stroke:#ffffff;stroke-width:0.75;" x="365.427723" xlink:href="#m77d0f9e1b7" y="48.590033"/>
     <use style="fill:#1f77b4;stroke:#ffffff;stroke-width:0.75;" x="366.598021" xlink:href="#m77d0f9e1b7" y="47.815393"/>
     <use style="fill:#1f77b4;stroke:#ffffff;stroke-width:0.75;" x="367.749594" xlink:href="#m77d0f9e1b7" y="47.970321"/>
     <use style="fill:#1f77b4;stroke:#ffffff;stroke-width:0.75;" x="368.883031" xlink:href="#m77d0f9e1b7" y="47.350609"/>
     <use style="fill:#1f77b4;stroke:#ffffff;stroke-width:0.75;" x="369.998895" xlink:href="#m77d0f9e1b7" y="46.653433"/>
     <use style="fill:#1f77b4;stroke:#ffffff;stroke-width:0.75;" x="371.097722" xlink:href="#m77d0f9e1b7" y="46.575969"/>
     <use style="fill:#1f77b4;stroke:#ffffff;stroke-width:0.75;" x="372.180025" xlink:href="#m77d0f9e1b7" y="45.568938"/>
     <use style="fill:#1f77b4;stroke:#ffffff;stroke-width:0.75;" x="373.246293" xlink:href="#m77d0f9e1b7" y="45.336546"/>
     <use style="fill:#1f77b4;stroke:#ffffff;stroke-width:0.75;" x="374.296994" xlink:href="#m77d0f9e1b7" y="45.491474"/>
     <use style="fill:#1f77b4;stroke:#ffffff;stroke-width:0.75;" x="375.332577" xlink:href="#m77d0f9e1b7" y="45.336546"/>
     <use style="fill:#1f77b4;stroke:#ffffff;stroke-width:0.75;" x="376.35347" xlink:href="#m77d0f9e1b7" y="45.259082"/>
     <use style="fill:#1f77b4;stroke:#ffffff;stroke-width:0.75;" x="377.360085" xlink:href="#m77d0f9e1b7" y="45.336546"/>
     <use style="fill:#1f77b4;stroke:#ffffff;stroke-width:0.75;" x="378.352815" xlink:href="#m77d0f9e1b7" y="45.336546"/>
     <use style="fill:#1f77b4;stroke:#ffffff;stroke-width:0.75;" x="379.332038" xlink:href="#m77d0f9e1b7" y="45.181618"/>
     <use style="fill:#1f77b4;stroke:#ffffff;stroke-width:0.75;" x="380.298116" xlink:href="#m77d0f9e1b7" y="45.181618"/>
     <use style="fill:#1f77b4;stroke:#ffffff;stroke-width:0.75;" x="381.251399" xlink:href="#m77d0f9e1b7" y="45.02669"/>
     <use style="fill:#1f77b4;stroke:#ffffff;stroke-width:0.75;" x="382.192219" xlink:href="#m77d0f9e1b7" y="42.547843"/>
     <use style="fill:#1f77b4;stroke:#ffffff;stroke-width:0.75;" x="383.1209" xlink:href="#m77d0f9e1b7" y="42.470379"/>
     <use style="fill:#1f77b4;stroke:#ffffff;stroke-width:0.75;" x="384.037751" xlink:href="#m77d0f9e1b7" y="42.547843"/>
     <use style="fill:#1f77b4;stroke:#ffffff;stroke-width:0.75;" x="384.943068" xlink:href="#m77d0f9e1b7" y="42.547843"/>
     <use style="fill:#1f77b4;stroke:#ffffff;stroke-width:0.75;" x="385.837139" xlink:href="#m77d0f9e1b7" y="42.237987"/>
     <use style="fill:#1f77b4;stroke:#ffffff;stroke-width:0.75;" x="386.720239" xlink:href="#m77d0f9e1b7" y="42.083059"/>
     <use style="fill:#1f77b4;stroke:#ffffff;stroke-width:0.75;" x="387.592635" xlink:href="#m77d0f9e1b7" y="42.083059"/>
     <use style="fill:#1f77b4;stroke:#ffffff;stroke-width:0.75;" x="388.454582" xlink:href="#m77d0f9e1b7" y="42.083059"/>
     <use style="fill:#1f77b4;stroke:#ffffff;stroke-width:0.75;" x="389.306329" xlink:href="#m77d0f9e1b7" y="42.083059"/>
     <use style="fill:#1f77b4;stroke:#ffffff;stroke-width:0.75;" x="390.148114" xlink:href="#m77d0f9e1b7" y="38.364788"/>
     <use style="fill:#1f77b4;stroke:#ffffff;stroke-width:0.75;" x="390.980167" xlink:href="#m77d0f9e1b7" y="38.364788"/>
     <use style="fill:#1f77b4;stroke:#ffffff;stroke-width:0.75;" x="391.80271" xlink:href="#m77d0f9e1b7" y="38.054932"/>
     <use style="fill:#1f77b4;stroke:#ffffff;stroke-width:0.75;" x="392.615959" xlink:href="#m77d0f9e1b7" y="40.223923"/>
     <use style="fill:#1f77b4;stroke:#ffffff;stroke-width:0.75;" x="393.420121" xlink:href="#m77d0f9e1b7" y="38.364788"/>
     <use style="fill:#1f77b4;stroke:#ffffff;stroke-width:0.75;" x="394.215398" xlink:href="#m77d0f9e1b7" y="38.364788"/>
    </g>
   </g>
   <g id="line2d_33">
    <path clip-path="url(#p613952bfb0)" d="M 69.560852 276.334125 
L 119.447882 276.334125 
L 148.629924 276.334125 
L 169.334912 276.334125 
L 185.394948 276.334125 
L 198.516954 276.334125 
L 209.611451 276.334125 
L 219.221942 276.334125 
L 227.698995 276.334125 
L 235.281978 276.334125 
L 242.141621 276.334125 
L 248.403984 276.334125 
L 254.164799 276.334125 
L 259.498481 276.334125 
L 264.46402 276.334125 
L 269.108972 276.334125 
L 273.472233 276.334125 
L 277.586025 276.334125 
L 281.477339 276.334125 
L 285.169008 276.334125 
L 288.680523 276.334125 
L 292.028651 276.334125 
L 295.227923 276.334125 
L 298.291013 276.334125 
L 301.229045 276.334125 
L 304.051829 276.334125 
L 306.768067 276.334125 
L 309.385511 276.334125 
L 311.911095 276.334125 
L 314.35105 276.334125 
L 316.710991 276.334125 
L 318.996002 276.334125 
L 321.210692 276.334125 
L 323.359263 276.334125 
L 325.445547 276.334125 
L 327.473055 276.334125 
L 329.445008 276.334125 
L 331.364369 276.334125 
L 333.233871 276.334125 
L 335.056038 276.334125 
L 336.833209 276.334125 
L 338.567552 276.334125 
L 340.261084 276.334125 
L 341.91568 276.334125 
L 343.533092 276.334125 
L 345.114952 276.334125 
L 346.662792 276.334125 
L 348.178043 276.334125 
L 349.66205 276.334125 
L 351.116074 276.334125 
L 352.541305 276.334125 
L 353.938859 276.334125 
L 355.309791 276.334125 
L 356.655097 276.334125 
L 357.975717 276.334125 
L 359.272541 276.334125 
L 360.546411 276.334125 
L 361.798125 276.334125 
L 363.028442 276.334125 
L 364.23808 276.334125 
L 365.427723 276.334125 
L 366.598021 276.334125 
L 367.749594 276.334125 
L 368.883031 276.334125 
L 369.998895 276.334125 
L 371.097722 163.778966 
L 372.180025 276.334125 
L 373.246293 276.334125 
L 374.296994 276.334125 
L 375.332577 276.334125 
L 376.35347 276.334125 
L 377.360085 276.334125 
L 378.352815 276.334125 
L 379.332038 276.334125 
L 380.298116 276.334125 
L 381.251399 276.334125 
L 382.192219 276.334125 
L 383.1209 276.334125 
L 384.037751 276.334125 
L 384.943068 276.334125 
L 385.837139 276.334125 
L 386.720239 276.334125 
L 387.592635 276.334125 
L 388.454582 276.334125 
L 389.306329 276.334125 
L 390.148114 276.334125 
L 390.980167 276.334125 
L 391.80271 276.334125 
L 392.615959 276.334125 
L 393.420121 276.334125 
L 394.215398 276.334125 
" style="fill:none;stroke:#98df8a;stroke-linecap:square;stroke-width:1.5;"/>
    <defs>
     <path d="M -0 3 
L 3 -3 
L -3 -3 
z
" id="m34abba73ff" style="stroke:#ffffff;stroke-linejoin:miter;stroke-width:0.75;"/>
    </defs>
    <g clip-path="url(#p613952bfb0)">
     <use style="fill:#98df8a;stroke:#ffffff;stroke-linejoin:miter;stroke-width:0.75;" x="69.560852" xlink:href="#m34abba73ff" y="276.334125"/>
     <use style="fill:#98df8a;stroke:#ffffff;stroke-linejoin:miter;stroke-width:0.75;" x="119.447882" xlink:href="#m34abba73ff" y="276.334125"/>
     <use style="fill:#98df8a;stroke:#ffffff;stroke-linejoin:miter;stroke-width:0.75;" x="148.629924" xlink:href="#m34abba73ff" y="276.334125"/>
     <use style="fill:#98df8a;stroke:#ffffff;stroke-linejoin:miter;stroke-width:0.75;" x="169.334912" xlink:href="#m34abba73ff" y="276.334125"/>
     <use style="fill:#98df8a;stroke:#ffffff;stroke-linejoin:miter;stroke-width:0.75;" x="185.394948" xlink:href="#m34abba73ff" y="276.334125"/>
     <use style="fill:#98df8a;stroke:#ffffff;stroke-linejoin:miter;stroke-width:0.75;" x="198.516954" xlink:href="#m34abba73ff" y="276.334125"/>
     <use style="fill:#98df8a;stroke:#ffffff;stroke-linejoin:miter;stroke-width:0.75;" x="209.611451" xlink:href="#m34abba73ff" y="276.334125"/>
     <use style="fill:#98df8a;stroke:#ffffff;stroke-linejoin:miter;stroke-width:0.75;" x="219.221942" xlink:href="#m34abba73ff" y="276.334125"/>
     <use style="fill:#98df8a;stroke:#ffffff;stroke-linejoin:miter;stroke-width:0.75;" x="227.698995" xlink:href="#m34abba73ff" y="276.334125"/>
     <use style="fill:#98df8a;stroke:#ffffff;stroke-linejoin:miter;stroke-width:0.75;" x="235.281978" xlink:href="#m34abba73ff" y="276.334125"/>
     <use style="fill:#98df8a;stroke:#ffffff;stroke-linejoin:miter;stroke-width:0.75;" x="242.141621" xlink:href="#m34abba73ff" y="276.334125"/>
     <use style="fill:#98df8a;stroke:#ffffff;stroke-linejoin:miter;stroke-width:0.75;" x="248.403984" xlink:href="#m34abba73ff" y="276.334125"/>
     <use style="fill:#98df8a;stroke:#ffffff;stroke-linejoin:miter;stroke-width:0.75;" x="254.164799" xlink:href="#m34abba73ff" y="276.334125"/>
     <use style="fill:#98df8a;stroke:#ffffff;stroke-linejoin:miter;stroke-width:0.75;" x="259.498481" xlink:href="#m34abba73ff" y="276.334125"/>
     <use style="fill:#98df8a;stroke:#ffffff;stroke-linejoin:miter;stroke-width:0.75;" x="264.46402" xlink:href="#m34abba73ff" y="276.334125"/>
     <use style="fill:#98df8a;stroke:#ffffff;stroke-linejoin:miter;stroke-width:0.75;" x="269.108972" xlink:href="#m34abba73ff" y="276.334125"/>
     <use style="fill:#98df8a;stroke:#ffffff;stroke-linejoin:miter;stroke-width:0.75;" x="273.472233" xlink:href="#m34abba73ff" y="276.334125"/>
     <use style="fill:#98df8a;stroke:#ffffff;stroke-linejoin:miter;stroke-width:0.75;" x="277.586025" xlink:href="#m34abba73ff" y="276.334125"/>
     <use style="fill:#98df8a;stroke:#ffffff;stroke-linejoin:miter;stroke-width:0.75;" x="281.477339" xlink:href="#m34abba73ff" y="276.334125"/>
     <use style="fill:#98df8a;stroke:#ffffff;stroke-linejoin:miter;stroke-width:0.75;" x="285.169008" xlink:href="#m34abba73ff" y="276.334125"/>
     <use style="fill:#98df8a;stroke:#ffffff;stroke-linejoin:miter;stroke-width:0.75;" x="288.680523" xlink:href="#m34abba73ff" y="276.334125"/>
     <use style="fill:#98df8a;stroke:#ffffff;stroke-linejoin:miter;stroke-width:0.75;" x="292.028651" xlink:href="#m34abba73ff" y="276.334125"/>
     <use style="fill:#98df8a;stroke:#ffffff;stroke-linejoin:miter;stroke-width:0.75;" x="295.227923" xlink:href="#m34abba73ff" y="276.334125"/>
     <use style="fill:#98df8a;stroke:#ffffff;stroke-linejoin:miter;stroke-width:0.75;" x="298.291013" xlink:href="#m34abba73ff" y="276.334125"/>
     <use style="fill:#98df8a;stroke:#ffffff;stroke-linejoin:miter;stroke-width:0.75;" x="301.229045" xlink:href="#m34abba73ff" y="276.334125"/>
     <use style="fill:#98df8a;stroke:#ffffff;stroke-linejoin:miter;stroke-width:0.75;" x="304.051829" xlink:href="#m34abba73ff" y="276.334125"/>
     <use style="fill:#98df8a;stroke:#ffffff;stroke-linejoin:miter;stroke-width:0.75;" x="306.768067" xlink:href="#m34abba73ff" y="276.334125"/>
     <use style="fill:#98df8a;stroke:#ffffff;stroke-linejoin:miter;stroke-width:0.75;" x="309.385511" xlink:href="#m34abba73ff" y="276.334125"/>
     <use style="fill:#98df8a;stroke:#ffffff;stroke-linejoin:miter;stroke-width:0.75;" x="311.911095" xlink:href="#m34abba73ff" y="276.334125"/>
     <use style="fill:#98df8a;stroke:#ffffff;stroke-linejoin:miter;stroke-width:0.75;" x="314.35105" xlink:href="#m34abba73ff" y="276.334125"/>
     <use style="fill:#98df8a;stroke:#ffffff;stroke-linejoin:miter;stroke-width:0.75;" x="316.710991" xlink:href="#m34abba73ff" y="276.334125"/>
     <use style="fill:#98df8a;stroke:#ffffff;stroke-linejoin:miter;stroke-width:0.75;" x="318.996002" xlink:href="#m34abba73ff" y="276.334125"/>
     <use style="fill:#98df8a;stroke:#ffffff;stroke-linejoin:miter;stroke-width:0.75;" x="321.210692" xlink:href="#m34abba73ff" y="276.334125"/>
     <use style="fill:#98df8a;stroke:#ffffff;stroke-linejoin:miter;stroke-width:0.75;" x="323.359263" xlink:href="#m34abba73ff" y="276.334125"/>
     <use style="fill:#98df8a;stroke:#ffffff;stroke-linejoin:miter;stroke-width:0.75;" x="325.445547" xlink:href="#m34abba73ff" y="276.334125"/>
     <use style="fill:#98df8a;stroke:#ffffff;stroke-linejoin:miter;stroke-width:0.75;" x="327.473055" xlink:href="#m34abba73ff" y="276.334125"/>
     <use style="fill:#98df8a;stroke:#ffffff;stroke-linejoin:miter;stroke-width:0.75;" x="329.445008" xlink:href="#m34abba73ff" y="276.334125"/>
     <use style="fill:#98df8a;stroke:#ffffff;stroke-linejoin:miter;stroke-width:0.75;" x="331.364369" xlink:href="#m34abba73ff" y="276.334125"/>
     <use style="fill:#98df8a;stroke:#ffffff;stroke-linejoin:miter;stroke-width:0.75;" x="333.233871" xlink:href="#m34abba73ff" y="276.334125"/>
     <use style="fill:#98df8a;stroke:#ffffff;stroke-linejoin:miter;stroke-width:0.75;" x="335.056038" xlink:href="#m34abba73ff" y="276.334125"/>
     <use style="fill:#98df8a;stroke:#ffffff;stroke-linejoin:miter;stroke-width:0.75;" x="336.833209" xlink:href="#m34abba73ff" y="276.334125"/>
     <use style="fill:#98df8a;stroke:#ffffff;stroke-linejoin:miter;stroke-width:0.75;" x="338.567552" xlink:href="#m34abba73ff" y="276.334125"/>
     <use style="fill:#98df8a;stroke:#ffffff;stroke-linejoin:miter;stroke-width:0.75;" x="340.261084" xlink:href="#m34abba73ff" y="276.334125"/>
     <use style="fill:#98df8a;stroke:#ffffff;stroke-linejoin:miter;stroke-width:0.75;" x="341.91568" xlink:href="#m34abba73ff" y="276.334125"/>
     <use style="fill:#98df8a;stroke:#ffffff;stroke-linejoin:miter;stroke-width:0.75;" x="343.533092" xlink:href="#m34abba73ff" y="276.334125"/>
     <use style="fill:#98df8a;stroke:#ffffff;stroke-linejoin:miter;stroke-width:0.75;" x="345.114952" xlink:href="#m34abba73ff" y="276.334125"/>
     <use style="fill:#98df8a;stroke:#ffffff;stroke-linejoin:miter;stroke-width:0.75;" x="346.662792" xlink:href="#m34abba73ff" y="276.334125"/>
     <use style="fill:#98df8a;stroke:#ffffff;stroke-linejoin:miter;stroke-width:0.75;" x="348.178043" xlink:href="#m34abba73ff" y="276.334125"/>
     <use style="fill:#98df8a;stroke:#ffffff;stroke-linejoin:miter;stroke-width:0.75;" x="349.66205" xlink:href="#m34abba73ff" y="276.334125"/>
     <use style="fill:#98df8a;stroke:#ffffff;stroke-linejoin:miter;stroke-width:0.75;" x="351.116074" xlink:href="#m34abba73ff" y="276.334125"/>
     <use style="fill:#98df8a;stroke:#ffffff;stroke-linejoin:miter;stroke-width:0.75;" x="352.541305" xlink:href="#m34abba73ff" y="276.334125"/>
     <use style="fill:#98df8a;stroke:#ffffff;stroke-linejoin:miter;stroke-width:0.75;" x="353.938859" xlink:href="#m34abba73ff" y="276.334125"/>
     <use style="fill:#98df8a;stroke:#ffffff;stroke-linejoin:miter;stroke-width:0.75;" x="355.309791" xlink:href="#m34abba73ff" y="276.334125"/>
     <use style="fill:#98df8a;stroke:#ffffff;stroke-linejoin:miter;stroke-width:0.75;" x="356.655097" xlink:href="#m34abba73ff" y="276.334125"/>
     <use style="fill:#98df8a;stroke:#ffffff;stroke-linejoin:miter;stroke-width:0.75;" x="357.975717" xlink:href="#m34abba73ff" y="276.334125"/>
     <use style="fill:#98df8a;stroke:#ffffff;stroke-linejoin:miter;stroke-width:0.75;" x="359.272541" xlink:href="#m34abba73ff" y="276.334125"/>
     <use style="fill:#98df8a;stroke:#ffffff;stroke-linejoin:miter;stroke-width:0.75;" x="360.546411" xlink:href="#m34abba73ff" y="276.334125"/>
     <use style="fill:#98df8a;stroke:#ffffff;stroke-linejoin:miter;stroke-width:0.75;" x="361.798125" xlink:href="#m34abba73ff" y="276.334125"/>
     <use style="fill:#98df8a;stroke:#ffffff;stroke-linejoin:miter;stroke-width:0.75;" x="363.028442" xlink:href="#m34abba73ff" y="276.334125"/>
     <use style="fill:#98df8a;stroke:#ffffff;stroke-linejoin:miter;stroke-width:0.75;" x="364.23808" xlink:href="#m34abba73ff" y="276.334125"/>
     <use style="fill:#98df8a;stroke:#ffffff;stroke-linejoin:miter;stroke-width:0.75;" x="365.427723" xlink:href="#m34abba73ff" y="276.334125"/>
     <use style="fill:#98df8a;stroke:#ffffff;stroke-linejoin:miter;stroke-width:0.75;" x="366.598021" xlink:href="#m34abba73ff" y="276.334125"/>
     <use style="fill:#98df8a;stroke:#ffffff;stroke-linejoin:miter;stroke-width:0.75;" x="367.749594" xlink:href="#m34abba73ff" y="276.334125"/>
     <use style="fill:#98df8a;stroke:#ffffff;stroke-linejoin:miter;stroke-width:0.75;" x="368.883031" xlink:href="#m34abba73ff" y="276.334125"/>
     <use style="fill:#98df8a;stroke:#ffffff;stroke-linejoin:miter;stroke-width:0.75;" x="369.998895" xlink:href="#m34abba73ff" y="276.334125"/>
     <use style="fill:#98df8a;stroke:#ffffff;stroke-linejoin:miter;stroke-width:0.75;" x="371.097722" xlink:href="#m34abba73ff" y="163.778966"/>
     <use style="fill:#98df8a;stroke:#ffffff;stroke-linejoin:miter;stroke-width:0.75;" x="372.180025" xlink:href="#m34abba73ff" y="276.334125"/>
     <use style="fill:#98df8a;stroke:#ffffff;stroke-linejoin:miter;stroke-width:0.75;" x="373.246293" xlink:href="#m34abba73ff" y="276.334125"/>
     <use style="fill:#98df8a;stroke:#ffffff;stroke-linejoin:miter;stroke-width:0.75;" x="374.296994" xlink:href="#m34abba73ff" y="276.334125"/>
     <use style="fill:#98df8a;stroke:#ffffff;stroke-linejoin:miter;stroke-width:0.75;" x="375.332577" xlink:href="#m34abba73ff" y="276.334125"/>
     <use style="fill:#98df8a;stroke:#ffffff;stroke-linejoin:miter;stroke-width:0.75;" x="376.35347" xlink:href="#m34abba73ff" y="276.334125"/>
     <use style="fill:#98df8a;stroke:#ffffff;stroke-linejoin:miter;stroke-width:0.75;" x="377.360085" xlink:href="#m34abba73ff" y="276.334125"/>
     <use style="fill:#98df8a;stroke:#ffffff;stroke-linejoin:miter;stroke-width:0.75;" x="378.352815" xlink:href="#m34abba73ff" y="276.334125"/>
     <use style="fill:#98df8a;stroke:#ffffff;stroke-linejoin:miter;stroke-width:0.75;" x="379.332038" xlink:href="#m34abba73ff" y="276.334125"/>
     <use style="fill:#98df8a;stroke:#ffffff;stroke-linejoin:miter;stroke-width:0.75;" x="380.298116" xlink:href="#m34abba73ff" y="276.334125"/>
     <use style="fill:#98df8a;stroke:#ffffff;stroke-linejoin:miter;stroke-width:0.75;" x="381.251399" xlink:href="#m34abba73ff" y="276.334125"/>
     <use style="fill:#98df8a;stroke:#ffffff;stroke-linejoin:miter;stroke-width:0.75;" x="382.192219" xlink:href="#m34abba73ff" y="276.334125"/>
     <use style="fill:#98df8a;stroke:#ffffff;stroke-linejoin:miter;stroke-width:0.75;" x="383.1209" xlink:href="#m34abba73ff" y="276.334125"/>
     <use style="fill:#98df8a;stroke:#ffffff;stroke-linejoin:miter;stroke-width:0.75;" x="384.037751" xlink:href="#m34abba73ff" y="276.334125"/>
     <use style="fill:#98df8a;stroke:#ffffff;stroke-linejoin:miter;stroke-width:0.75;" x="384.943068" xlink:href="#m34abba73ff" y="276.334125"/>
     <use style="fill:#98df8a;stroke:#ffffff;stroke-linejoin:miter;stroke-width:0.75;" x="385.837139" xlink:href="#m34abba73ff" y="276.334125"/>
     <use style="fill:#98df8a;stroke:#ffffff;stroke-linejoin:miter;stroke-width:0.75;" x="386.720239" xlink:href="#m34abba73ff" y="276.334125"/>
     <use style="fill:#98df8a;stroke:#ffffff;stroke-linejoin:miter;stroke-width:0.75;" x="387.592635" xlink:href="#m34abba73ff" y="276.334125"/>
     <use style="fill:#98df8a;stroke:#ffffff;stroke-linejoin:miter;stroke-width:0.75;" x="388.454582" xlink:href="#m34abba73ff" y="276.334125"/>
     <use style="fill:#98df8a;stroke:#ffffff;stroke-linejoin:miter;stroke-width:0.75;" x="389.306329" xlink:href="#m34abba73ff" y="276.334125"/>
     <use style="fill:#98df8a;stroke:#ffffff;stroke-linejoin:miter;stroke-width:0.75;" x="390.148114" xlink:href="#m34abba73ff" y="276.334125"/>
     <use style="fill:#98df8a;stroke:#ffffff;stroke-linejoin:miter;stroke-width:0.75;" x="390.980167" xlink:href="#m34abba73ff" y="276.334125"/>
     <use style="fill:#98df8a;stroke:#ffffff;stroke-linejoin:miter;stroke-width:0.75;" x="391.80271" xlink:href="#m34abba73ff" y="276.334125"/>
     <use style="fill:#98df8a;stroke:#ffffff;stroke-linejoin:miter;stroke-width:0.75;" x="392.615959" xlink:href="#m34abba73ff" y="276.334125"/>
     <use style="fill:#98df8a;stroke:#ffffff;stroke-linejoin:miter;stroke-width:0.75;" x="393.420121" xlink:href="#m34abba73ff" y="276.334125"/>
     <use style="fill:#98df8a;stroke:#ffffff;stroke-linejoin:miter;stroke-width:0.75;" x="394.215398" xlink:href="#m34abba73ff" y="276.334125"/>
    </g>
   </g>
   <g id="line2d_34"/>
   <g id="line2d_35"/>
   <g id="patch_3">
    <path d="M 53.328125 269.517295 
L 53.328125 52.61816 
" style="fill:none;stroke:#000000;stroke-linecap:square;stroke-linejoin:miter;stroke-width:0.8;"/>
   </g>
   <g id="patch_4">
    <path d="M 69.560852 288.430125 
L 394.216276 288.430125 
" style="fill:none;stroke:#000000;stroke-linecap:square;stroke-linejoin:miter;stroke-width:0.8;"/>
   </g>
   <g id="text_17">
    <!-- arrow_parquet-arrow-fuzz (22h:45m, 9 trials/fuzzer) -->
    <g transform="translate(76.534063 16.318125)scale(0.12 -0.12)">
     <defs>
      <path d="M 269 3500 
L 844 3500 
L 1563 769 
L 2278 3500 
L 2956 3500 
L 3675 769 
L 4391 3500 
L 4966 3500 
L 4050 0 
L 3372 0 
L 2619 2869 
L 1863 0 
L 1184 0 
L 269 3500 
z
" id="DejaVuSans-77" transform="scale(0.015625)"/>
      <path d="M 3263 -1063 
L 3263 -1509 
L -63 -1509 
L -63 -1063 
L 3263 -1063 
z
" id="DejaVuSans-5f" transform="scale(0.015625)"/>
      <path d="M 1159 525 
L 1159 -1331 
L 581 -1331 
L 581 3500 
L 1159 3500 
L 1159 2969 
Q 1341 3281 1617 3432 
Q 1894 3584 2278 3584 
Q 2916 3584 3314 3078 
Q 3713 2572 3713 1747 
Q 3713 922 3314 415 
Q 2916 -91 2278 -91 
Q 1894 -91 1617 61 
Q 1341 213 1159 525 
z
M 3116 1747 
Q 3116 2381 2855 2742 
Q 2594 3103 2138 3103 
Q 1681 3103 1420 2742 
Q 1159 2381 1159 1747 
Q 1159 1113 1420 752 
Q 1681 391 2138 391 
Q 2594 391 2855 752 
Q 3116 1113 3116 1747 
z
" id="DejaVuSans-70" transform="scale(0.015625)"/>
      <path d="M 947 1747 
Q 947 1113 1208 752 
Q 1469 391 1925 391 
Q 2381 391 2643 752 
Q 2906 1113 2906 1747 
Q 2906 2381 2643 2742 
Q 2381 3103 1925 3103 
Q 1469 3103 1208 2742 
Q 947 2381 947 1747 
z
M 2906 525 
Q 2725 213 2448 61 
Q 2172 -91 1784 -91 
Q 1150 -91 751 415 
Q 353 922 353 1747 
Q 353 2572 751 3078 
Q 1150 3584 1784 3584 
Q 2172 3584 2448 3432 
Q 2725 3281 2906 2969 
L 2906 3500 
L 3481 3500 
L 3481 -1331 
L 2906 -1331 
L 2906 525 
z
" id="DejaVuSans-71" transform="scale(0.015625)"/>
      <path d="M 313 2009 
L 1997 2009 
L 1997 1497 
L 313 1497 
L 313 2009 
z
" id="DejaVuSans-2d" transform="scale(0.015625)"/>
      <path d="M 2375 4863 
L 2375 4384 
L 1825 4384 
Q 1516 4384 1395 4259 
Q 1275 4134 1275 3809 
L 1275 3500 
L 2222 3500 
L 2222 3053 
L 1275 3053 
L 1275 0 
L 697 0 
L 697 3053 
L 147 3053 
L 147 3500 
L 697 3500 
L 697 3744 
Q 697 4328 969 4595 
Q 1241 4863 1831 4863 
L 2375 4863 
z
" id="DejaVuSans-66" transform="scale(0.015625)"/>
      <path d="M 353 3500 
L 3084 3500 
L 3084 2975 
L 922 459 
L 3084 459 
L 3084 0 
L 275 0 
L 275 525 
L 2438 3041 
L 353 3041 
L 353 3500 
z
" id="DejaVuSans-7a" transform="scale(0.015625)"/>
      <path d="M 750 794 
L 1409 794 
L 1409 256 
L 897 -744 
L 494 -744 
L 750 256 
L 750 794 
z
" id="DejaVuSans-2c" transform="scale(0.015625)"/>
      <path d="M 603 4863 
L 1178 4863 
L 1178 0 
L 603 0 
L 603 4863 
z
" id="DejaVuSans-6c" transform="scale(0.015625)"/>
      <path d="M 2834 3397 
L 2834 2853 
Q 2591 2978 2328 3040 
Q 2066 3103 1784 3103 
Q 1356 3103 1142 2972 
Q 928 2841 928 2578 
Q 928 2378 1081 2264 
Q 1234 2150 1697 2047 
L 1894 2003 
Q 2506 1872 2764 1633 
Q 3022 1394 3022 966 
Q 3022 478 2636 193 
Q 2250 -91 1575 -91 
Q 1294 -91 989 -36 
Q 684 19 347 128 
L 347 722 
Q 666 556 975 473 
Q 1284 391 1588 391 
Q 1994 391 2212 530 
Q 2431 669 2431 922 
Q 2431 1156 2273 1281 
Q 2116 1406 1581 1522 
L 1381 1569 
Q 847 1681 609 1914 
Q 372 2147 372 2553 
Q 372 3047 722 3315 
Q 1072 3584 1716 3584 
Q 2034 3584 2315 3537 
Q 2597 3491 2834 3397 
z
" id="DejaVuSans-73" transform="scale(0.015625)"/>
      <path d="M 1625 4666 
L 2156 4666 
L 531 -594 
L 0 -594 
L 1625 4666 
z
" id="DejaVuSans-2f" transform="scale(0.015625)"/>
     </defs>
     <use xlink:href="#DejaVuSans-61"/>
     <use x="61.279297" xlink:href="#DejaVuSans-72"/>
     <use x="100.642578" xlink:href="#DejaVuSans-72"/>
     <use x="139.505859" xlink:href="#DejaVuSans-6f"/>
     <use x="200.6875" xlink:href="#DejaVuSans-77"/>
     <use x="282.474609" xlink:href="#DejaVuSans-5f"/>
     <use x="332.474609" xlink:href="#DejaVuSans-70"/>
     <use x="395.951172" xlink:href="#DejaVuSans-61"/>
     <use x="457.230469" xlink:href="#DejaVuSans-72"/>
     <use x="496.59375" xlink:href="#DejaVuSans-71"/>
     <use x="560.070312" xlink:href="#DejaVuSans-75"/>
     <use x="623.449219" xlink:href="#DejaVuSans-65"/>
     <use x="684.972656" xlink:href="#DejaVuSans-74"/>
     <use x="724.181641" xlink:href="#DejaVuSans-2d"/>
     <use x="760.265625" xlink:href="#DejaVuSans-61"/>
     <use x="821.544922" xlink:href="#DejaVuSans-72"/>
     <use x="860.908203" xlink:href="#DejaVuSans-72"/>
     <use x="899.771484" xlink:href="#DejaVuSans-6f"/>
     <use x="960.953125" xlink:href="#DejaVuSans-77"/>
     <use x="1042.740234" xlink:href="#DejaVuSans-2d"/>
     <use x="1078.824219" xlink:href="#DejaVuSans-66"/>
     <use x="1114.029297" xlink:href="#DejaVuSans-75"/>
     <use x="1177.408203" xlink:href="#DejaVuSans-7a"/>
     <use x="1229.898438" xlink:href="#DejaVuSans-7a"/>
     <use x="1282.388672" xlink:href="#DejaVuSans-20"/>
     <use x="1314.175781" xlink:href="#DejaVuSans-28"/>
     <use x="1353.189453" xlink:href="#DejaVuSans-32"/>
     <use x="1416.8125" xlink:href="#DejaVuSans-32"/>
     <use x="1480.435547" xlink:href="#DejaVuSans-68"/>
     <use x="1543.814453" xlink:href="#DejaVuSans-3a"/>
     <use x="1577.505859" xlink:href="#DejaVuSans-34"/>
     <use x="1641.128906" xlink:href="#DejaVuSans-35"/>
     <use x="1704.751953" xlink:href="#DejaVuSans-6d"/>
     <use x="1802.164062" xlink:href="#DejaVuSans-2c"/>
     <use x="1833.951172" xlink:href="#DejaVuSans-20"/>
     <use x="1865.738281" xlink:href="#DejaVuSans-39"/>
     <use x="1929.361328" xlink:href="#DejaVuSans-20"/>
     <use x="1961.148438" xlink:href="#DejaVuSans-74"/>
     <use x="2000.357422" xlink:href="#DejaVuSans-72"/>
     <use x="2041.470703" xlink:href="#DejaVuSans-69"/>
     <use x="2069.253906" xlink:href="#DejaVuSans-61"/>
     <use x="2130.533203" xlink:href="#DejaVuSans-6c"/>
     <use x="2158.316406" xlink:href="#DejaVuSans-73"/>
     <use x="2210.416016" xlink:href="#DejaVuSans-2f"/>
     <use x="2244.107422" xlink:href="#DejaVuSans-66"/>
     <use x="2279.3125" xlink:href="#DejaVuSans-75"/>
     <use x="2342.691406" xlink:href="#DejaVuSans-7a"/>
     <use x="2395.181641" xlink:href="#DejaVuSans-7a"/>
     <use x="2447.671875" xlink:href="#DejaVuSans-65"/>
     <use x="2509.195312" xlink:href="#DejaVuSans-72"/>
     <use x="2550.308594" xlink:href="#DejaVuSans-29"/>
    </g>
   </g>
   <g id="legend_1">
    <g id="line2d_36">
     <path d="M 414.448125 30.416562 
L 434.448125 30.416562 
" style="fill:none;stroke:#1f77b4;stroke-linecap:square;stroke-width:1.5;"/>
    </g>
    <g id="line2d_37">
     <defs>
      <path d="M 0 3 
C 0.795609 3 1.55874 2.683901 2.12132 2.12132 
C 2.683901 1.55874 3 0.795609 3 0 
C 3 -0.795609 2.683901 -1.55874 2.12132 -2.12132 
C 1.55874 -2.683901 0.795609 -3 0 -3 
C -0.795609 -3 -1.55874 -2.683901 -2.12132 -2.12132 
C -2.683901 -1.55874 -3 -0.795609 -3 0 
C -3 0.795609 -2.683901 1.55874 -2.12132 2.12132 
C -1.55874 2.683901 -0.795609 3 0 3 
z
" id="m9cb1305cba" style="stroke:#1f77b4;"/>
     </defs>
     <g>
      <use style="fill:#1f77b4;stroke:#1f77b4;" x="424.448125" xlink:href="#m9cb1305cba" y="30.416562"/>
     </g>
    </g>
    <g id="text_18">
     <!-- afl -->
     <g transform="translate(442.448125 33.916562)scale(0.1 -0.1)">
      <use xlink:href="#DejaVuSans-61"/>
      <use x="61.279297" xlink:href="#DejaVuSans-66"/>
      <use x="96.484375" xlink:href="#DejaVuSans-6c"/>
     </g>
    </g>
    <g id="line2d_38">
     <path d="M 414.448125 45.094688 
L 434.448125 45.094688 
" style="fill:none;stroke:#98df8a;stroke-linecap:square;stroke-width:1.5;"/>
    </g>
    <g id="line2d_39">
     <defs>
      <path d="M -0 3 
L 3 -3 
L -3 -3 
z
" id="m41633e2d24" style="stroke:#98df8a;stroke-linejoin:miter;"/>
     </defs>
     <g>
      <use style="fill:#98df8a;stroke:#98df8a;stroke-linejoin:miter;" x="424.448125" xlink:href="#m41633e2d24" y="45.094688"/>
     </g>
    </g>
    <g id="text_19">
     <!-- afl_splicing_mutation -->
     <g transform="translate(442.448125 48.594688)scale(0.1 -0.1)">
      <use xlink:href="#DejaVuSans-61"/>
      <use x="61.279297" xlink:href="#DejaVuSans-66"/>
      <use x="96.484375" xlink:href="#DejaVuSans-6c"/>
      <use x="124.267578" xlink:href="#DejaVuSans-5f"/>
      <use x="174.267578" xlink:href="#DejaVuSans-73"/>
      <use x="226.367188" xlink:href="#DejaVuSans-70"/>
      <use x="289.84375" xlink:href="#DejaVuSans-6c"/>
      <use x="317.626953" xlink:href="#DejaVuSans-69"/>
      <use x="345.410156" xlink:href="#DejaVuSans-63"/>
      <use x="400.390625" xlink:href="#DejaVuSans-69"/>
      <use x="428.173828" xlink:href="#DejaVuSans-6e"/>
      <use x="491.552734" xlink:href="#DejaVuSans-67"/>
      <use x="555.029297" xlink:href="#DejaVuSans-5f"/>
      <use x="605.029297" xlink:href="#DejaVuSans-6d"/>
      <use x="702.441406" xlink:href="#DejaVuSans-75"/>
      <use x="765.820312" xlink:href="#DejaVuSans-74"/>
      <use x="805.029297" xlink:href="#DejaVuSans-61"/>
      <use x="866.308594" xlink:href="#DejaVuSans-74"/>
      <use x="905.517578" xlink:href="#DejaVuSans-69"/>
      <use x="933.300781" xlink:href="#DejaVuSans-6f"/>
      <use x="994.482422" xlink:href="#DejaVuSans-6e"/>
     </g>
    </g>
   </g>
  </g>
 </g>
 <defs>
  <clipPath id="p613952bfb0">
   <rect height="266.112" width="357.12" x="53.328125" y="22.318125"/>
  </clipPath>
 </defs>
</svg>
