<?xml version="1.0" encoding="utf-8" standalone="no"?>
<!DOCTYPE svg PUBLIC "-//W3C//DTD SVG 1.1//EN"
  "http://www.w3.org/Graphics/SVG/1.1/DTD/svg11.dtd">
<svg height="325.986375pt" version="1.1" viewBox="0 0 565.795 325.986375" width="565.795pt" xmlns="http://www.w3.org/2000/svg" xmlns:xlink="http://www.w3.org/1999/xlink">
 <metadata>
  <rdf:RDF xmlns:cc="http://creativecommons.org/ns#" xmlns:dc="http://purl.org/dc/elements/1.1/" xmlns:rdf="http://www.w3.org/1999/02/22-rdf-syntax-ns#">
   <cc:Work>
    <dc:type rdf:resource="http://purl.org/dc/dcmitype/StillImage"/>
    <dc:date>2022-05-31T16:24:16.737369</dc:date>
    <dc:format>image/svg+xml</dc:format>
    <dc:creator>
     <cc:Agent>
      <dc:title>Matplotlib v3.4.3, https://matplotlib.org/</dc:title>
     </cc:Agent>
    </dc:creator>
   </cc:Work>
  </rdf:RDF>
 </metadata>
 <defs>
  <style type="text/css">*{stroke-linecap:butt;stroke-linejoin:round;}</style>
 </defs>
 <g id="figure_1">
  <g id="patch_1">
   <path d="M 0 325.986375 
L 565.795 325.986375 
L 565.795 0 
L 0 0 
z
" style="fill:#ffffff;"/>
  </g>
  <g id="axes_1">
   <g id="patch_2">
    <path d="M 59.690625 288.430125 
L 416.810625 288.430125 
L 416.810625 22.318125 
L 59.690625 22.318125 
z
" style="fill:#ffffff;"/>
   </g>
   <g id="PolyCollection_1">
    <defs>
     <path d="M 75.923352 -59.486987 
L 75.923352 -59.462764 
L 79.490985 -59.486987 
L 83.058617 -59.486987 
L 86.626249 -59.486987 
L 90.193882 -59.486987 
L 93.761514 -59.486987 
L 97.329146 -59.486987 
L 100.896779 -59.486987 
L 104.464411 -59.486987 
L 108.032044 -59.486987 
L 111.599676 -59.486987 
L 115.167308 -59.486987 
L 118.734941 -59.486987 
L 122.302573 -59.486987 
L 125.870205 -59.486987 
L 129.437838 -59.486987 
L 133.00547 -59.486987 
L 136.573103 -59.486987 
L 140.140735 -59.486987 
L 143.708367 -68.897813 
L 147.276 -72.083202 
L 150.843632 -72.458666 
L 154.411264 -59.486987 
L 157.978897 -59.486987 
L 161.546529 -76.806783 
L 165.114161 -78.86578 
L 168.681794 -69.551847 
L 172.249426 -70.048429 
L 175.817059 -88.700517 
L 179.384691 -89.960138 
L 182.952323 -183.147906 
L 186.519956 -153.353013 
L 190.087588 -210.108651 
L 193.65522 -225.030321 
L 197.222853 -242.78614 
L 200.790485 -247.194815 
L 204.358118 -247.219039 
L 207.92575 -247.219039 
L 211.493382 -247.219039 
L 215.061015 -247.219039 
L 218.628647 -247.219039 
L 222.196279 -153.353013 
L 225.763912 -153.93801 
L 229.331544 -247.219039 
L 232.899176 -247.219039 
L 236.466809 -247.219039 
L 240.034441 -247.219039 
L 243.602074 -247.219039 
L 247.169706 -247.219039 
L 250.737338 -247.219039 
L 254.304971 -247.219039 
L 257.872603 -247.219039 
L 261.440235 -247.219039 
L 265.007868 -247.509721 
L 268.5755 -247.606615 
L 272.143132 -247.606615 
L 275.710765 -247.92152 
L 279.278397 -248.139531 
L 282.84603 -248.139531 
L 286.413662 -248.212202 
L 289.981294 -248.212202 
L 293.548927 -248.212202 
L 297.116559 -248.212202 
L 300.684191 -248.212202 
L 304.251824 -248.236425 
L 307.819456 -248.236425 
L 311.387089 -248.236425 
L 314.954721 -248.236425 
L 318.522353 -248.236425 
L 322.089986 -248.236425 
L 325.657618 -248.236425 
L 329.22525 -248.236425 
L 332.792883 -248.236425 
L 336.360515 -248.236425 
L 339.928147 -248.236425 
L 343.49578 -248.236425 
L 347.063412 -248.236425 
L 350.631045 -248.236425 
L 354.198677 -248.236425 
L 357.766309 -248.236425 
L 361.333942 -248.236425 
L 364.901574 -248.236425 
L 368.469206 -248.236425 
L 372.036839 -248.236425 
L 375.604471 -248.236425 
L 379.172104 -248.236425 
L 382.739736 -248.236425 
L 386.307368 -248.236425 
L 389.875001 -248.430213 
L 393.442633 -248.430213 
L 397.010265 -248.430213 
L 400.577898 -248.430213 
L 400.577898 -291.57225 
L 400.577898 -291.57225 
L 397.010265 -291.57225 
L 393.442633 -291.57225 
L 389.875001 -291.281568 
L 386.307368 -291.281568 
L 382.739736 -291.136227 
L 379.172104 -291.08778 
L 375.604471 -291.08778 
L 372.036839 -291.08778 
L 368.469206 -291.08778 
L 364.901574 -291.08778 
L 361.333942 -290.700204 
L 357.766309 -290.385299 
L 354.198677 -290.385299 
L 350.631045 -289.9735 
L 347.063412 -289.053007 
L 343.49578 -287.163575 
L 339.928147 -286.291529 
L 336.360515 -285.46793 
L 332.792883 -285.298366 
L 329.22525 -283.360487 
L 325.657618 -282.82757 
L 322.089986 -275.705864 
L 318.522353 -274.954935 
L 314.954721 -271.369859 
L 311.387089 -271.369859 
L 307.819456 -271.369859 
L 304.251824 -271.345635 
L 300.684191 -271.345635 
L 297.116559 -271.345635 
L 293.548927 -271.345635 
L 289.981294 -271.345635 
L 286.413662 -271.345635 
L 282.84603 -271.345635 
L 279.278397 -271.345635 
L 275.710765 -271.345635 
L 272.143132 -271.345635 
L 268.5755 -271.345635 
L 265.007868 -271.345635 
L 261.440235 -270.086014 
L 257.872603 -269.843779 
L 254.304971 -269.819555 
L 250.737338 -269.795332 
L 247.169706 -269.771109 
L 243.602074 -269.771109 
L 240.034441 -269.771109 
L 236.466809 -269.771109 
L 232.899176 -269.649991 
L 229.331544 -269.601544 
L 225.763912 -269.310862 
L 222.196279 -268.935398 
L 218.628647 -267.106525 
L 215.061015 -267.106525 
L 211.493382 -267.058078 
L 207.92575 -267.058078 
L 204.358118 -264.078588 
L 200.790485 -263.981694 
L 197.222853 -263.981694 
L 193.65522 -263.909024 
L 190.087588 -263.787906 
L 186.519956 -265.023304 
L 182.952323 -263.763683 
L 179.384691 -263.230766 
L 175.817059 -260.747858 
L 172.249426 -257.417128 
L 168.681794 -256.94477 
L 165.114161 -255.128008 
L 161.546529 -253.904722 
L 157.978897 -251.845726 
L 154.411264 -248.381766 
L 150.843632 -255.34602 
L 147.276 -253.817518 
L 143.708367 -254.619315 
L 140.140735 -247.92152 
L 136.573103 -247.92152 
L 133.00547 -247.945744 
L 129.437838 -246.783016 
L 125.870205 -245.765629 
L 122.302573 -247.582391 
L 118.734941 -247.461274 
L 115.167308 -245.116743 
L 111.599676 -242.035212 
L 108.032044 -240.751367 
L 104.464411 -243.597627 
L 100.896779 -240.170003 
L 97.329146 -239.806651 
L 93.761514 -234.695494 
L 90.193882 -227.428447 
L 86.626249 -177.503833 
L 83.058617 -88.555176 
L 79.490985 -59.511211 
L 75.923352 -59.486987 
z
" id="mcfcdc8db84" style="stroke:#1f77b4;stroke-opacity:0.2;"/>
    </defs>
    <g clip-path="url(#p636905d4ea)">
     <use style="fill:#1f77b4;fill-opacity:0.2;stroke:#1f77b4;stroke-opacity:0.2;" x="0" xlink:href="#mcfcdc8db84" y="325.986375"/>
    </g>
   </g>
   <g id="PolyCollection_2">
    <defs>
     <path d="M 75.923352 -54.593842 
L 75.923352 -49.65225 
L 79.490985 -49.65225 
L 83.058617 -49.65225 
L 86.626249 -49.65225 
L 90.193882 -49.65225 
L 93.761514 -49.65225 
L 97.329146 -49.65225 
L 100.896779 -49.65225 
L 104.464411 -49.65225 
L 108.032044 -49.65225 
L 111.599676 -49.65225 
L 115.167308 -49.65225 
L 118.734941 -49.65225 
L 122.302573 -49.65225 
L 125.870205 -49.65225 
L 129.437838 -49.65225 
L 133.00547 -49.65225 
L 136.573103 -49.65225 
L 140.140735 -49.65225 
L 143.708367 -49.65225 
L 147.276 -49.65225 
L 150.843632 -49.65225 
L 154.411264 -49.65225 
L 157.978897 -49.65225 
L 161.546529 -49.65225 
L 165.114161 -49.65225 
L 168.681794 -49.65225 
L 172.249426 -49.65225 
L 175.817059 -49.65225 
L 179.384691 -49.65225 
L 182.952323 -49.65225 
L 186.519956 -49.65225 
L 190.087588 -49.65225 
L 193.65522 -49.65225 
L 197.222853 -49.65225 
L 200.790485 -49.65225 
L 204.358118 -49.65225 
L 207.92575 -49.65225 
L 211.493382 -49.65225 
L 215.061015 -49.65225 
L 218.628647 -49.65225 
L 222.196279 -49.65225 
L 225.763912 -49.65225 
L 229.331544 -49.65225 
L 232.899176 -49.65225 
L 236.466809 -49.65225 
L 240.034441 -49.65225 
L 243.602074 -49.65225 
L 247.169706 -49.65225 
L 250.737338 -49.65225 
L 254.304971 -49.65225 
L 257.872603 -49.65225 
L 261.440235 -49.65225 
L 265.007868 -49.65225 
L 268.5755 -49.65225 
L 272.143132 -49.65225 
L 275.710765 -49.65225 
L 279.278397 -49.65225 
L 282.84603 -49.65225 
L 286.413662 -49.65225 
L 289.981294 -49.65225 
L 293.548927 -49.65225 
L 297.116559 -49.65225 
L 300.684191 -49.65225 
L 304.251824 -49.65225 
L 307.819456 -49.65225 
L 311.387089 -49.65225 
L 314.954721 -49.65225 
L 318.522353 -49.65225 
L 322.089986 -49.65225 
L 325.657618 -49.65225 
L 329.22525 -49.65225 
L 332.792883 -49.65225 
L 336.360515 -49.65225 
L 339.928147 -49.65225 
L 343.49578 -49.65225 
L 347.063412 -49.65225 
L 350.631045 -49.65225 
L 354.198677 -49.65225 
L 357.766309 -49.65225 
L 361.333942 -49.65225 
L 364.901574 -49.65225 
L 368.469206 -49.65225 
L 372.036839 -49.65225 
L 375.604471 -49.65225 
L 379.172104 -49.65225 
L 382.739736 -49.65225 
L 386.307368 -49.65225 
L 389.875001 -49.65225 
L 393.442633 -49.65225 
L 397.010265 -49.65225 
L 400.577898 -49.65225 
L 400.577898 -59.486987 
L 400.577898 -59.486987 
L 397.010265 -59.486987 
L 393.442633 -49.700697 
L 389.875001 -59.486987 
L 386.307368 -54.58173 
L 382.739736 -59.486987 
L 379.172104 -59.486987 
L 375.604471 -59.486987 
L 372.036839 -54.58173 
L 368.469206 -59.486987 
L 364.901574 -59.486987 
L 361.333942 -59.486987 
L 357.766309 -59.486987 
L 354.198677 -59.486987 
L 350.631045 -49.700697 
L 347.063412 -59.486987 
L 343.49578 -59.486987 
L 339.928147 -49.700697 
L 336.360515 -59.486987 
L 332.792883 -49.700697 
L 329.22525 -59.486987 
L 325.657618 -49.700697 
L 322.089986 -49.700697 
L 318.522353 -59.486987 
L 314.954721 -59.486987 
L 311.387089 -149.51359 
L 307.819456 -59.486987 
L 304.251824 -49.700697 
L 300.684191 -59.486987 
L 297.116559 -59.486987 
L 293.548927 -59.486987 
L 289.981294 -59.486987 
L 286.413662 -59.486987 
L 282.84603 -59.486987 
L 279.278397 -59.486987 
L 275.710765 -59.486987 
L 272.143132 -59.486987 
L 268.5755 -59.486987 
L 265.007868 -59.486987 
L 261.440235 -248.575554 
L 257.872603 -59.486987 
L 254.304971 -59.486987 
L 250.737338 -54.58173 
L 247.169706 -59.486987 
L 243.602074 -59.486987 
L 240.034441 -59.486987 
L 236.466809 -226.314166 
L 232.899176 -59.486987 
L 229.331544 -59.486987 
L 225.763912 -76.346537 
L 222.196279 -59.486987 
L 218.628647 -67.916762 
L 215.061015 -62.97517 
L 211.493382 -67.868315 
L 207.92575 -62.914914 
L 204.358118 -67.759309 
L 200.790485 -59.486987 
L 197.222853 -59.486987 
L 193.65522 -59.486987 
L 190.087588 -59.486987 
L 186.519956 -59.486987 
L 182.952323 -54.593842 
L 179.384691 -54.593842 
L 175.817059 -59.486987 
L 172.249426 -59.486987 
L 168.681794 -59.486987 
L 165.114161 -59.486987 
L 161.546529 -59.486987 
L 157.978897 -59.486987 
L 154.411264 -59.486987 
L 150.843632 -59.486987 
L 147.276 -59.486987 
L 143.708367 -59.486987 
L 140.140735 -59.486987 
L 136.573103 -59.486987 
L 133.00547 -59.486987 
L 129.437838 -59.486987 
L 125.870205 -59.486987 
L 122.302573 -59.486987 
L 118.734941 -59.486987 
L 115.167308 -59.486987 
L 111.599676 -59.486987 
L 108.032044 -59.486987 
L 104.464411 -59.486987 
L 100.896779 -59.486987 
L 97.329146 -59.486987 
L 93.761514 -54.582033 
L 90.193882 -54.593842 
L 86.626249 -54.593842 
L 83.058617 -54.593842 
L 79.490985 -54.58173 
L 75.923352 -54.593842 
z
" id="mfee82d0c6c" style="stroke:#98df8a;stroke-opacity:0.2;"/>
    </defs>
    <g clip-path="url(#p636905d4ea)">
     <use style="fill:#98df8a;fill-opacity:0.2;stroke:#98df8a;stroke-opacity:0.2;" x="0" xlink:href="#mfee82d0c6c" y="325.986375"/>
    </g>
   </g>
   <g id="matplotlib.axis_1">
    <g id="xtick_1">
     <g id="line2d_1">
      <defs>
       <path d="M 0 0 
L 0 3.5 
" id="mf95a0ef89b" style="stroke:#000000;stroke-width:0.8;"/>
      </defs>
      <g>
       <use style="stroke:#000000;stroke-width:0.8;" x="75.923352" xlink:href="#mf95a0ef89b" y="288.430125"/>
      </g>
     </g>
     <g id="text_1">
      <!-- 15m -->
      <g transform="translate(64.69054 303.028562)scale(0.1 -0.1)">
       <defs>
        <path d="M 794 531 
L 1825 531 
L 1825 4091 
L 703 3866 
L 703 4441 
L 1819 4666 
L 2450 4666 
L 2450 531 
L 3481 531 
L 3481 0 
L 794 0 
L 794 531 
z
" id="DejaVuSans-31" transform="scale(0.015625)"/>
        <path d="M 691 4666 
L 3169 4666 
L 3169 4134 
L 1269 4134 
L 1269 2991 
Q 1406 3038 1543 3061 
Q 1681 3084 1819 3084 
Q 2600 3084 3056 2656 
Q 3513 2228 3513 1497 
Q 3513 744 3044 326 
Q 2575 -91 1722 -91 
Q 1428 -91 1123 -41 
Q 819 9 494 109 
L 494 744 
Q 775 591 1075 516 
Q 1375 441 1709 441 
Q 2250 441 2565 725 
Q 2881 1009 2881 1497 
Q 2881 1984 2565 2268 
Q 2250 2553 1709 2553 
Q 1456 2553 1204 2497 
Q 953 2441 691 2322 
L 691 4666 
z
" id="DejaVuSans-35" transform="scale(0.015625)"/>
        <path d="M 3328 2828 
Q 3544 3216 3844 3400 
Q 4144 3584 4550 3584 
Q 5097 3584 5394 3201 
Q 5691 2819 5691 2113 
L 5691 0 
L 5113 0 
L 5113 2094 
Q 5113 2597 4934 2840 
Q 4756 3084 4391 3084 
Q 3944 3084 3684 2787 
Q 3425 2491 3425 1978 
L 3425 0 
L 2847 0 
L 2847 2094 
Q 2847 2600 2669 2842 
Q 2491 3084 2119 3084 
Q 1678 3084 1418 2786 
Q 1159 2488 1159 1978 
L 1159 0 
L 581 0 
L 581 3500 
L 1159 3500 
L 1159 2956 
Q 1356 3278 1631 3431 
Q 1906 3584 2284 3584 
Q 2666 3584 2933 3390 
Q 3200 3197 3328 2828 
z
" id="DejaVuSans-6d" transform="scale(0.015625)"/>
       </defs>
       <use xlink:href="#DejaVuSans-31"/>
       <use x="63.623047" xlink:href="#DejaVuSans-35"/>
       <use x="127.246094" xlink:href="#DejaVuSans-6d"/>
      </g>
     </g>
    </g>
    <g id="xtick_2">
     <g id="line2d_2">
      <g>
       <use style="stroke:#000000;stroke-width:0.8;" x="130.627049" xlink:href="#mf95a0ef89b" y="288.430125"/>
      </g>
     </g>
     <g id="text_2">
      <!-- 4h:5m -->
      <g transform="translate(114.541111 303.028562)scale(0.1 -0.1)">
       <defs>
        <path d="M 2419 4116 
L 825 1625 
L 2419 1625 
L 2419 4116 
z
M 2253 4666 
L 3047 4666 
L 3047 1625 
L 3713 1625 
L 3713 1100 
L 3047 1100 
L 3047 0 
L 2419 0 
L 2419 1100 
L 313 1100 
L 313 1709 
L 2253 4666 
z
" id="DejaVuSans-34" transform="scale(0.015625)"/>
        <path d="M 3513 2113 
L 3513 0 
L 2938 0 
L 2938 2094 
Q 2938 2591 2744 2837 
Q 2550 3084 2163 3084 
Q 1697 3084 1428 2787 
Q 1159 2491 1159 1978 
L 1159 0 
L 581 0 
L 581 4863 
L 1159 4863 
L 1159 2956 
Q 1366 3272 1645 3428 
Q 1925 3584 2291 3584 
Q 2894 3584 3203 3211 
Q 3513 2838 3513 2113 
z
" id="DejaVuSans-68" transform="scale(0.015625)"/>
        <path d="M 750 794 
L 1409 794 
L 1409 0 
L 750 0 
L 750 794 
z
M 750 3309 
L 1409 3309 
L 1409 2516 
L 750 2516 
L 750 3309 
z
" id="DejaVuSans-3a" transform="scale(0.015625)"/>
       </defs>
       <use xlink:href="#DejaVuSans-34"/>
       <use x="63.623047" xlink:href="#DejaVuSans-68"/>
       <use x="127.001953" xlink:href="#DejaVuSans-3a"/>
       <use x="160.693359" xlink:href="#DejaVuSans-35"/>
       <use x="224.316406" xlink:href="#DejaVuSans-6d"/>
      </g>
     </g>
    </g>
    <g id="xtick_3">
     <g id="line2d_3">
      <g>
       <use style="stroke:#000000;stroke-width:0.8;" x="185.330745" xlink:href="#mf95a0ef89b" y="288.430125"/>
      </g>
     </g>
     <g id="text_3">
      <!-- 7h:55m -->
      <g transform="translate(166.063557 303.028562)scale(0.1 -0.1)">
       <defs>
        <path d="M 525 4666 
L 3525 4666 
L 3525 4397 
L 1831 0 
L 1172 0 
L 2766 4134 
L 525 4134 
L 525 4666 
z
" id="DejaVuSans-37" transform="scale(0.015625)"/>
       </defs>
       <use xlink:href="#DejaVuSans-37"/>
       <use x="63.623047" xlink:href="#DejaVuSans-68"/>
       <use x="127.001953" xlink:href="#DejaVuSans-3a"/>
       <use x="160.693359" xlink:href="#DejaVuSans-35"/>
       <use x="224.316406" xlink:href="#DejaVuSans-35"/>
       <use x="287.939453" xlink:href="#DejaVuSans-6d"/>
      </g>
     </g>
    </g>
    <g id="xtick_4">
     <g id="line2d_4">
      <g>
       <use style="stroke:#000000;stroke-width:0.8;" x="240.034441" xlink:href="#mf95a0ef89b" y="288.430125"/>
      </g>
     </g>
     <g id="text_4">
      <!-- 11h:45m -->
      <g transform="translate(217.586004 303.028562)scale(0.1 -0.1)">
       <use xlink:href="#DejaVuSans-31"/>
       <use x="63.623047" xlink:href="#DejaVuSans-31"/>
       <use x="127.246094" xlink:href="#DejaVuSans-68"/>
       <use x="190.625" xlink:href="#DejaVuSans-3a"/>
       <use x="224.316406" xlink:href="#DejaVuSans-34"/>
       <use x="287.939453" xlink:href="#DejaVuSans-35"/>
       <use x="351.5625" xlink:href="#DejaVuSans-6d"/>
      </g>
     </g>
    </g>
    <g id="xtick_5">
     <g id="line2d_5">
      <g>
       <use style="stroke:#000000;stroke-width:0.8;" x="294.738137" xlink:href="#mf95a0ef89b" y="288.430125"/>
      </g>
     </g>
     <g id="text_5">
      <!-- 15h:35m -->
      <g transform="translate(272.2897 303.028562)scale(0.1 -0.1)">
       <defs>
        <path d="M 2597 2516 
Q 3050 2419 3304 2112 
Q 3559 1806 3559 1356 
Q 3559 666 3084 287 
Q 2609 -91 1734 -91 
Q 1441 -91 1130 -33 
Q 819 25 488 141 
L 488 750 
Q 750 597 1062 519 
Q 1375 441 1716 441 
Q 2309 441 2620 675 
Q 2931 909 2931 1356 
Q 2931 1769 2642 2001 
Q 2353 2234 1838 2234 
L 1294 2234 
L 1294 2753 
L 1863 2753 
Q 2328 2753 2575 2939 
Q 2822 3125 2822 3475 
Q 2822 3834 2567 4026 
Q 2313 4219 1838 4219 
Q 1578 4219 1281 4162 
Q 984 4106 628 3988 
L 628 4550 
Q 988 4650 1302 4700 
Q 1616 4750 1894 4750 
Q 2613 4750 3031 4423 
Q 3450 4097 3450 3541 
Q 3450 3153 3228 2886 
Q 3006 2619 2597 2516 
z
" id="DejaVuSans-33" transform="scale(0.015625)"/>
       </defs>
       <use xlink:href="#DejaVuSans-31"/>
       <use x="63.623047" xlink:href="#DejaVuSans-35"/>
       <use x="127.246094" xlink:href="#DejaVuSans-68"/>
       <use x="190.625" xlink:href="#DejaVuSans-3a"/>
       <use x="224.316406" xlink:href="#DejaVuSans-33"/>
       <use x="287.939453" xlink:href="#DejaVuSans-35"/>
       <use x="351.5625" xlink:href="#DejaVuSans-6d"/>
      </g>
     </g>
    </g>
    <g id="xtick_6">
     <g id="line2d_6">
      <g>
       <use style="stroke:#000000;stroke-width:0.8;" x="349.441834" xlink:href="#mf95a0ef89b" y="288.430125"/>
      </g>
     </g>
     <g id="text_6">
      <!-- 19h:25m -->
      <g transform="translate(326.993396 303.028562)scale(0.1 -0.1)">
       <defs>
        <path d="M 703 97 
L 703 672 
Q 941 559 1184 500 
Q 1428 441 1663 441 
Q 2288 441 2617 861 
Q 2947 1281 2994 2138 
Q 2813 1869 2534 1725 
Q 2256 1581 1919 1581 
Q 1219 1581 811 2004 
Q 403 2428 403 3163 
Q 403 3881 828 4315 
Q 1253 4750 1959 4750 
Q 2769 4750 3195 4129 
Q 3622 3509 3622 2328 
Q 3622 1225 3098 567 
Q 2575 -91 1691 -91 
Q 1453 -91 1209 -44 
Q 966 3 703 97 
z
M 1959 2075 
Q 2384 2075 2632 2365 
Q 2881 2656 2881 3163 
Q 2881 3666 2632 3958 
Q 2384 4250 1959 4250 
Q 1534 4250 1286 3958 
Q 1038 3666 1038 3163 
Q 1038 2656 1286 2365 
Q 1534 2075 1959 2075 
z
" id="DejaVuSans-39" transform="scale(0.015625)"/>
        <path d="M 1228 531 
L 3431 531 
L 3431 0 
L 469 0 
L 469 531 
Q 828 903 1448 1529 
Q 2069 2156 2228 2338 
Q 2531 2678 2651 2914 
Q 2772 3150 2772 3378 
Q 2772 3750 2511 3984 
Q 2250 4219 1831 4219 
Q 1534 4219 1204 4116 
Q 875 4013 500 3803 
L 500 4441 
Q 881 4594 1212 4672 
Q 1544 4750 1819 4750 
Q 2544 4750 2975 4387 
Q 3406 4025 3406 3419 
Q 3406 3131 3298 2873 
Q 3191 2616 2906 2266 
Q 2828 2175 2409 1742 
Q 1991 1309 1228 531 
z
" id="DejaVuSans-32" transform="scale(0.015625)"/>
       </defs>
       <use xlink:href="#DejaVuSans-31"/>
       <use x="63.623047" xlink:href="#DejaVuSans-39"/>
       <use x="127.246094" xlink:href="#DejaVuSans-68"/>
       <use x="190.625" xlink:href="#DejaVuSans-3a"/>
       <use x="224.316406" xlink:href="#DejaVuSans-32"/>
       <use x="287.939453" xlink:href="#DejaVuSans-35"/>
       <use x="351.5625" xlink:href="#DejaVuSans-6d"/>
      </g>
     </g>
    </g>
    <g id="text_7">
     <!-- Time (hour:minute) -->
     <g transform="translate(189.843594 316.706687)scale(0.1 -0.1)">
      <defs>
       <path d="M -19 4666 
L 3928 4666 
L 3928 4134 
L 2272 4134 
L 2272 0 
L 1638 0 
L 1638 4134 
L -19 4134 
L -19 4666 
z
" id="DejaVuSans-54" transform="scale(0.015625)"/>
       <path d="M 603 3500 
L 1178 3500 
L 1178 0 
L 603 0 
L 603 3500 
z
M 603 4863 
L 1178 4863 
L 1178 4134 
L 603 4134 
L 603 4863 
z
" id="DejaVuSans-69" transform="scale(0.015625)"/>
       <path d="M 3597 1894 
L 3597 1613 
L 953 1613 
Q 991 1019 1311 708 
Q 1631 397 2203 397 
Q 2534 397 2845 478 
Q 3156 559 3463 722 
L 3463 178 
Q 3153 47 2828 -22 
Q 2503 -91 2169 -91 
Q 1331 -91 842 396 
Q 353 884 353 1716 
Q 353 2575 817 3079 
Q 1281 3584 2069 3584 
Q 2775 3584 3186 3129 
Q 3597 2675 3597 1894 
z
M 3022 2063 
Q 3016 2534 2758 2815 
Q 2500 3097 2075 3097 
Q 1594 3097 1305 2825 
Q 1016 2553 972 2059 
L 3022 2063 
z
" id="DejaVuSans-65" transform="scale(0.015625)"/>
       <path id="DejaVuSans-20" transform="scale(0.015625)"/>
       <path d="M 1984 4856 
Q 1566 4138 1362 3434 
Q 1159 2731 1159 2009 
Q 1159 1288 1364 580 
Q 1569 -128 1984 -844 
L 1484 -844 
Q 1016 -109 783 600 
Q 550 1309 550 2009 
Q 550 2706 781 3412 
Q 1013 4119 1484 4856 
L 1984 4856 
z
" id="DejaVuSans-28" transform="scale(0.015625)"/>
       <path d="M 1959 3097 
Q 1497 3097 1228 2736 
Q 959 2375 959 1747 
Q 959 1119 1226 758 
Q 1494 397 1959 397 
Q 2419 397 2687 759 
Q 2956 1122 2956 1747 
Q 2956 2369 2687 2733 
Q 2419 3097 1959 3097 
z
M 1959 3584 
Q 2709 3584 3137 3096 
Q 3566 2609 3566 1747 
Q 3566 888 3137 398 
Q 2709 -91 1959 -91 
Q 1206 -91 779 398 
Q 353 888 353 1747 
Q 353 2609 779 3096 
Q 1206 3584 1959 3584 
z
" id="DejaVuSans-6f" transform="scale(0.015625)"/>
       <path d="M 544 1381 
L 544 3500 
L 1119 3500 
L 1119 1403 
Q 1119 906 1312 657 
Q 1506 409 1894 409 
Q 2359 409 2629 706 
Q 2900 1003 2900 1516 
L 2900 3500 
L 3475 3500 
L 3475 0 
L 2900 0 
L 2900 538 
Q 2691 219 2414 64 
Q 2138 -91 1772 -91 
Q 1169 -91 856 284 
Q 544 659 544 1381 
z
M 1991 3584 
L 1991 3584 
z
" id="DejaVuSans-75" transform="scale(0.015625)"/>
       <path d="M 2631 2963 
Q 2534 3019 2420 3045 
Q 2306 3072 2169 3072 
Q 1681 3072 1420 2755 
Q 1159 2438 1159 1844 
L 1159 0 
L 581 0 
L 581 3500 
L 1159 3500 
L 1159 2956 
Q 1341 3275 1631 3429 
Q 1922 3584 2338 3584 
Q 2397 3584 2469 3576 
Q 2541 3569 2628 3553 
L 2631 2963 
z
" id="DejaVuSans-72" transform="scale(0.015625)"/>
       <path d="M 3513 2113 
L 3513 0 
L 2938 0 
L 2938 2094 
Q 2938 2591 2744 2837 
Q 2550 3084 2163 3084 
Q 1697 3084 1428 2787 
Q 1159 2491 1159 1978 
L 1159 0 
L 581 0 
L 581 3500 
L 1159 3500 
L 1159 2956 
Q 1366 3272 1645 3428 
Q 1925 3584 2291 3584 
Q 2894 3584 3203 3211 
Q 3513 2838 3513 2113 
z
" id="DejaVuSans-6e" transform="scale(0.015625)"/>
       <path d="M 1172 4494 
L 1172 3500 
L 2356 3500 
L 2356 3053 
L 1172 3053 
L 1172 1153 
Q 1172 725 1289 603 
Q 1406 481 1766 481 
L 2356 481 
L 2356 0 
L 1766 0 
Q 1100 0 847 248 
Q 594 497 594 1153 
L 594 3053 
L 172 3053 
L 172 3500 
L 594 3500 
L 594 4494 
L 1172 4494 
z
" id="DejaVuSans-74" transform="scale(0.015625)"/>
       <path d="M 513 4856 
L 1013 4856 
Q 1481 4119 1714 3412 
Q 1947 2706 1947 2009 
Q 1947 1309 1714 600 
Q 1481 -109 1013 -844 
L 513 -844 
Q 928 -128 1133 580 
Q 1338 1288 1338 2009 
Q 1338 2731 1133 3434 
Q 928 4138 513 4856 
z
" id="DejaVuSans-29" transform="scale(0.015625)"/>
      </defs>
      <use xlink:href="#DejaVuSans-54"/>
      <use x="57.958984" xlink:href="#DejaVuSans-69"/>
      <use x="85.742188" xlink:href="#DejaVuSans-6d"/>
      <use x="183.154297" xlink:href="#DejaVuSans-65"/>
      <use x="244.677734" xlink:href="#DejaVuSans-20"/>
      <use x="276.464844" xlink:href="#DejaVuSans-28"/>
      <use x="315.478516" xlink:href="#DejaVuSans-68"/>
      <use x="378.857422" xlink:href="#DejaVuSans-6f"/>
      <use x="440.039062" xlink:href="#DejaVuSans-75"/>
      <use x="503.417969" xlink:href="#DejaVuSans-72"/>
      <use x="542.78125" xlink:href="#DejaVuSans-3a"/>
      <use x="576.472656" xlink:href="#DejaVuSans-6d"/>
      <use x="673.884766" xlink:href="#DejaVuSans-69"/>
      <use x="701.667969" xlink:href="#DejaVuSans-6e"/>
      <use x="765.046875" xlink:href="#DejaVuSans-75"/>
      <use x="828.425781" xlink:href="#DejaVuSans-74"/>
      <use x="867.634766" xlink:href="#DejaVuSans-65"/>
      <use x="929.158203" xlink:href="#DejaVuSans-29"/>
     </g>
    </g>
   </g>
   <g id="matplotlib.axis_2">
    <g id="ytick_1">
     <g id="line2d_7">
      <defs>
       <path d="M 0 0 
L -3.5 0 
" id="m3a1f618499" style="stroke:#000000;stroke-width:0.8;"/>
      </defs>
      <g>
       <use style="stroke:#000000;stroke-width:0.8;" x="59.690625" xlink:href="#m3a1f618499" y="241.137393"/>
      </g>
     </g>
     <g id="text_8">
      <!-- 2000 -->
      <g transform="translate(27.240625 244.936612)scale(0.1 -0.1)">
       <defs>
        <path d="M 2034 4250 
Q 1547 4250 1301 3770 
Q 1056 3291 1056 2328 
Q 1056 1369 1301 889 
Q 1547 409 2034 409 
Q 2525 409 2770 889 
Q 3016 1369 3016 2328 
Q 3016 3291 2770 3770 
Q 2525 4250 2034 4250 
z
M 2034 4750 
Q 2819 4750 3233 4129 
Q 3647 3509 3647 2328 
Q 3647 1150 3233 529 
Q 2819 -91 2034 -91 
Q 1250 -91 836 529 
Q 422 1150 422 2328 
Q 422 3509 836 4129 
Q 1250 4750 2034 4750 
z
" id="DejaVuSans-30" transform="scale(0.015625)"/>
       </defs>
       <use xlink:href="#DejaVuSans-32"/>
       <use x="63.623047" xlink:href="#DejaVuSans-30"/>
       <use x="127.246094" xlink:href="#DejaVuSans-30"/>
       <use x="190.869141" xlink:href="#DejaVuSans-30"/>
      </g>
     </g>
    </g>
    <g id="ytick_2">
     <g id="line2d_8">
      <g>
       <use style="stroke:#000000;stroke-width:0.8;" x="59.690625" xlink:href="#m3a1f618499" y="192.690412"/>
      </g>
     </g>
     <g id="text_9">
      <!-- 4000 -->
      <g transform="translate(27.240625 196.489631)scale(0.1 -0.1)">
       <use xlink:href="#DejaVuSans-34"/>
       <use x="63.623047" xlink:href="#DejaVuSans-30"/>
       <use x="127.246094" xlink:href="#DejaVuSans-30"/>
       <use x="190.869141" xlink:href="#DejaVuSans-30"/>
      </g>
     </g>
    </g>
    <g id="ytick_3">
     <g id="line2d_9">
      <g>
       <use style="stroke:#000000;stroke-width:0.8;" x="59.690625" xlink:href="#m3a1f618499" y="144.243431"/>
      </g>
     </g>
     <g id="text_10">
      <!-- 6000 -->
      <g transform="translate(27.240625 148.04265)scale(0.1 -0.1)">
       <defs>
        <path d="M 2113 2584 
Q 1688 2584 1439 2293 
Q 1191 2003 1191 1497 
Q 1191 994 1439 701 
Q 1688 409 2113 409 
Q 2538 409 2786 701 
Q 3034 994 3034 1497 
Q 3034 2003 2786 2293 
Q 2538 2584 2113 2584 
z
M 3366 4563 
L 3366 3988 
Q 3128 4100 2886 4159 
Q 2644 4219 2406 4219 
Q 1781 4219 1451 3797 
Q 1122 3375 1075 2522 
Q 1259 2794 1537 2939 
Q 1816 3084 2150 3084 
Q 2853 3084 3261 2657 
Q 3669 2231 3669 1497 
Q 3669 778 3244 343 
Q 2819 -91 2113 -91 
Q 1303 -91 875 529 
Q 447 1150 447 2328 
Q 447 3434 972 4092 
Q 1497 4750 2381 4750 
Q 2619 4750 2861 4703 
Q 3103 4656 3366 4563 
z
" id="DejaVuSans-36" transform="scale(0.015625)"/>
       </defs>
       <use xlink:href="#DejaVuSans-36"/>
       <use x="63.623047" xlink:href="#DejaVuSans-30"/>
       <use x="127.246094" xlink:href="#DejaVuSans-30"/>
       <use x="190.869141" xlink:href="#DejaVuSans-30"/>
      </g>
     </g>
    </g>
    <g id="ytick_4">
     <g id="line2d_10">
      <g>
       <use style="stroke:#000000;stroke-width:0.8;" x="59.690625" xlink:href="#m3a1f618499" y="95.79645"/>
      </g>
     </g>
     <g id="text_11">
      <!-- 8000 -->
      <g transform="translate(27.240625 99.595669)scale(0.1 -0.1)">
       <defs>
        <path d="M 2034 2216 
Q 1584 2216 1326 1975 
Q 1069 1734 1069 1313 
Q 1069 891 1326 650 
Q 1584 409 2034 409 
Q 2484 409 2743 651 
Q 3003 894 3003 1313 
Q 3003 1734 2745 1975 
Q 2488 2216 2034 2216 
z
M 1403 2484 
Q 997 2584 770 2862 
Q 544 3141 544 3541 
Q 544 4100 942 4425 
Q 1341 4750 2034 4750 
Q 2731 4750 3128 4425 
Q 3525 4100 3525 3541 
Q 3525 3141 3298 2862 
Q 3072 2584 2669 2484 
Q 3125 2378 3379 2068 
Q 3634 1759 3634 1313 
Q 3634 634 3220 271 
Q 2806 -91 2034 -91 
Q 1263 -91 848 271 
Q 434 634 434 1313 
Q 434 1759 690 2068 
Q 947 2378 1403 2484 
z
M 1172 3481 
Q 1172 3119 1398 2916 
Q 1625 2713 2034 2713 
Q 2441 2713 2670 2916 
Q 2900 3119 2900 3481 
Q 2900 3844 2670 4047 
Q 2441 4250 2034 4250 
Q 1625 4250 1398 4047 
Q 1172 3844 1172 3481 
z
" id="DejaVuSans-38" transform="scale(0.015625)"/>
       </defs>
       <use xlink:href="#DejaVuSans-38"/>
       <use x="63.623047" xlink:href="#DejaVuSans-30"/>
       <use x="127.246094" xlink:href="#DejaVuSans-30"/>
       <use x="190.869141" xlink:href="#DejaVuSans-30"/>
      </g>
     </g>
    </g>
    <g id="ytick_5">
     <g id="line2d_11">
      <g>
       <use style="stroke:#000000;stroke-width:0.8;" x="59.690625" xlink:href="#m3a1f618499" y="47.349469"/>
      </g>
     </g>
     <g id="text_12">
      <!-- 10000 -->
      <g transform="translate(20.878125 51.148688)scale(0.1 -0.1)">
       <use xlink:href="#DejaVuSans-31"/>
       <use x="63.623047" xlink:href="#DejaVuSans-30"/>
       <use x="127.246094" xlink:href="#DejaVuSans-30"/>
       <use x="190.869141" xlink:href="#DejaVuSans-30"/>
       <use x="254.492188" xlink:href="#DejaVuSans-30"/>
      </g>
     </g>
    </g>
    <g id="text_13">
     <!-- Code region coverage -->
     <g transform="translate(14.798438 210.379594)rotate(-90)scale(0.1 -0.1)">
      <defs>
       <path d="M 4122 4306 
L 4122 3641 
Q 3803 3938 3442 4084 
Q 3081 4231 2675 4231 
Q 1875 4231 1450 3742 
Q 1025 3253 1025 2328 
Q 1025 1406 1450 917 
Q 1875 428 2675 428 
Q 3081 428 3442 575 
Q 3803 722 4122 1019 
L 4122 359 
Q 3791 134 3420 21 
Q 3050 -91 2638 -91 
Q 1578 -91 968 557 
Q 359 1206 359 2328 
Q 359 3453 968 4101 
Q 1578 4750 2638 4750 
Q 3056 4750 3426 4639 
Q 3797 4528 4122 4306 
z
" id="DejaVuSans-43" transform="scale(0.015625)"/>
       <path d="M 2906 2969 
L 2906 4863 
L 3481 4863 
L 3481 0 
L 2906 0 
L 2906 525 
Q 2725 213 2448 61 
Q 2172 -91 1784 -91 
Q 1150 -91 751 415 
Q 353 922 353 1747 
Q 353 2572 751 3078 
Q 1150 3584 1784 3584 
Q 2172 3584 2448 3432 
Q 2725 3281 2906 2969 
z
M 947 1747 
Q 947 1113 1208 752 
Q 1469 391 1925 391 
Q 2381 391 2643 752 
Q 2906 1113 2906 1747 
Q 2906 2381 2643 2742 
Q 2381 3103 1925 3103 
Q 1469 3103 1208 2742 
Q 947 2381 947 1747 
z
" id="DejaVuSans-64" transform="scale(0.015625)"/>
       <path d="M 2906 1791 
Q 2906 2416 2648 2759 
Q 2391 3103 1925 3103 
Q 1463 3103 1205 2759 
Q 947 2416 947 1791 
Q 947 1169 1205 825 
Q 1463 481 1925 481 
Q 2391 481 2648 825 
Q 2906 1169 2906 1791 
z
M 3481 434 
Q 3481 -459 3084 -895 
Q 2688 -1331 1869 -1331 
Q 1566 -1331 1297 -1286 
Q 1028 -1241 775 -1147 
L 775 -588 
Q 1028 -725 1275 -790 
Q 1522 -856 1778 -856 
Q 2344 -856 2625 -561 
Q 2906 -266 2906 331 
L 2906 616 
Q 2728 306 2450 153 
Q 2172 0 1784 0 
Q 1141 0 747 490 
Q 353 981 353 1791 
Q 353 2603 747 3093 
Q 1141 3584 1784 3584 
Q 2172 3584 2450 3431 
Q 2728 3278 2906 2969 
L 2906 3500 
L 3481 3500 
L 3481 434 
z
" id="DejaVuSans-67" transform="scale(0.015625)"/>
       <path d="M 3122 3366 
L 3122 2828 
Q 2878 2963 2633 3030 
Q 2388 3097 2138 3097 
Q 1578 3097 1268 2742 
Q 959 2388 959 1747 
Q 959 1106 1268 751 
Q 1578 397 2138 397 
Q 2388 397 2633 464 
Q 2878 531 3122 666 
L 3122 134 
Q 2881 22 2623 -34 
Q 2366 -91 2075 -91 
Q 1284 -91 818 406 
Q 353 903 353 1747 
Q 353 2603 823 3093 
Q 1294 3584 2113 3584 
Q 2378 3584 2631 3529 
Q 2884 3475 3122 3366 
z
" id="DejaVuSans-63" transform="scale(0.015625)"/>
       <path d="M 191 3500 
L 800 3500 
L 1894 563 
L 2988 3500 
L 3597 3500 
L 2284 0 
L 1503 0 
L 191 3500 
z
" id="DejaVuSans-76" transform="scale(0.015625)"/>
       <path d="M 2194 1759 
Q 1497 1759 1228 1600 
Q 959 1441 959 1056 
Q 959 750 1161 570 
Q 1363 391 1709 391 
Q 2188 391 2477 730 
Q 2766 1069 2766 1631 
L 2766 1759 
L 2194 1759 
z
M 3341 1997 
L 3341 0 
L 2766 0 
L 2766 531 
Q 2569 213 2275 61 
Q 1981 -91 1556 -91 
Q 1019 -91 701 211 
Q 384 513 384 1019 
Q 384 1609 779 1909 
Q 1175 2209 1959 2209 
L 2766 2209 
L 2766 2266 
Q 2766 2663 2505 2880 
Q 2244 3097 1772 3097 
Q 1472 3097 1187 3025 
Q 903 2953 641 2809 
L 641 3341 
Q 956 3463 1253 3523 
Q 1550 3584 1831 3584 
Q 2591 3584 2966 3190 
Q 3341 2797 3341 1997 
z
" id="DejaVuSans-61" transform="scale(0.015625)"/>
      </defs>
      <use xlink:href="#DejaVuSans-43"/>
      <use x="69.824219" xlink:href="#DejaVuSans-6f"/>
      <use x="131.005859" xlink:href="#DejaVuSans-64"/>
      <use x="194.482422" xlink:href="#DejaVuSans-65"/>
      <use x="256.005859" xlink:href="#DejaVuSans-20"/>
      <use x="287.792969" xlink:href="#DejaVuSans-72"/>
      <use x="326.65625" xlink:href="#DejaVuSans-65"/>
      <use x="388.179688" xlink:href="#DejaVuSans-67"/>
      <use x="451.65625" xlink:href="#DejaVuSans-69"/>
      <use x="479.439453" xlink:href="#DejaVuSans-6f"/>
      <use x="540.621094" xlink:href="#DejaVuSans-6e"/>
      <use x="604" xlink:href="#DejaVuSans-20"/>
      <use x="635.787109" xlink:href="#DejaVuSans-63"/>
      <use x="690.767578" xlink:href="#DejaVuSans-6f"/>
      <use x="751.949219" xlink:href="#DejaVuSans-76"/>
      <use x="811.128906" xlink:href="#DejaVuSans-65"/>
      <use x="872.652344" xlink:href="#DejaVuSans-72"/>
      <use x="913.765625" xlink:href="#DejaVuSans-61"/>
      <use x="975.044922" xlink:href="#DejaVuSans-67"/>
      <use x="1038.521484" xlink:href="#DejaVuSans-65"/>
     </g>
    </g>
   </g>
   <g id="line2d_12">
    <path clip-path="url(#p636905d4ea)" d="M 75.923352 266.499388 
L 79.490985 266.499388 
L 83.058617 266.499388 
L 86.626249 266.499388 
L 90.193882 266.499388 
L 93.761514 266.499388 
L 97.329146 266.499388 
L 100.896779 250.826789 
L 104.464411 258.214954 
L 108.032044 248.719346 
L 111.599676 246.73302 
L 115.167308 248.283323 
L 118.734941 239.296408 
L 122.302573 236.631824 
L 125.870205 210.482566 
L 129.437838 142.099652 
L 133.00547 114.375867 
L 136.573103 107.859748 
L 140.140735 98.582151 
L 143.708367 87.53624 
L 147.276 82.170737 
L 150.843632 80.511427 
L 154.411264 79.542488 
L 157.978897 79.42137 
L 161.546529 78.985348 
L 165.114161 78.282866 
L 168.681794 78.282866 
L 172.249426 77.677279 
L 175.817059 77.580385 
L 179.384691 75.933188 
L 182.952323 73.535062 
L 186.519956 69.659304 
L 190.087588 70.11955 
L 193.65522 69.780421 
L 197.222853 66.074227 
L 200.790485 66.02578 
L 204.358118 64.863053 
L 207.92575 62.682938 
L 211.493382 61.738222 
L 215.061015 61.713999 
L 218.628647 61.713999 
L 222.196279 61.992569 
L 225.763912 61.156859 
L 229.331544 61.592881 
L 232.899176 61.592881 
L 236.466809 61.568658 
L 240.034441 61.568658 
L 243.602074 61.568658 
L 247.169706 61.181082 
L 250.737338 61.181082 
L 254.304971 61.181082 
L 257.872603 61.181082 
L 261.440235 61.181082 
L 265.007868 61.108412 
L 268.5755 61.108412 
L 272.143132 61.108412 
L 275.710765 61.108412 
L 279.278397 61.108412 
L 282.84603 61.108412 
L 286.413662 61.084188 
L 289.981294 61.035741 
L 293.548927 61.035741 
L 297.116559 61.035741 
L 300.684191 61.035741 
L 304.251824 61.035741 
L 307.819456 61.035741 
L 311.387089 61.035741 
L 314.954721 61.035741 
L 318.522353 61.035741 
L 322.089986 61.035741 
L 325.657618 61.035741 
L 329.22525 61.035741 
L 332.792883 61.011518 
L 336.360515 61.011518 
L 339.928147 60.357483 
L 343.49578 60.357483 
L 347.063412 60.236366 
L 350.631045 59.921461 
L 354.198677 58.758733 
L 357.766309 58.637616 
L 361.333942 58.637616 
L 364.901574 58.637616 
L 368.469206 58.637616 
L 372.036839 58.637616 
L 375.604471 58.637616 
L 379.172104 58.637616 
L 382.739736 58.637616 
L 386.307368 58.637616 
L 389.875001 58.637616 
L 393.442633 58.637616 
L 397.010265 58.613392 
L 400.577898 58.613392 
" style="fill:none;stroke:#1f77b4;stroke-linecap:square;stroke-width:1.5;"/>
    <defs>
     <path d="M 0 3 
C 0.795609 3 1.55874 2.683901 2.12132 2.12132 
C 2.683901 1.55874 3 0.795609 3 0 
C 3 -0.795609 2.683901 -1.55874 2.12132 -2.12132 
C 1.55874 -2.683901 0.795609 -3 0 -3 
C -0.795609 -3 -1.55874 -2.683901 -2.12132 -2.12132 
C -2.683901 -1.55874 -3 -0.795609 -3 0 
C -3 0.795609 -2.683901 1.55874 -2.12132 2.12132 
C -1.55874 2.683901 -0.795609 3 0 3 
z
" id="mb7fe162b2a" style="stroke:#ffffff;stroke-width:0.75;"/>
    </defs>
    <g clip-path="url(#p636905d4ea)">
     <use style="fill:#1f77b4;stroke:#ffffff;stroke-width:0.75;" x="75.923352" xlink:href="#mb7fe162b2a" y="266.499388"/>
     <use style="fill:#1f77b4;stroke:#ffffff;stroke-width:0.75;" x="79.490985" xlink:href="#mb7fe162b2a" y="266.499388"/>
     <use style="fill:#1f77b4;stroke:#ffffff;stroke-width:0.75;" x="83.058617" xlink:href="#mb7fe162b2a" y="266.499388"/>
     <use style="fill:#1f77b4;stroke:#ffffff;stroke-width:0.75;" x="86.626249" xlink:href="#mb7fe162b2a" y="266.499388"/>
     <use style="fill:#1f77b4;stroke:#ffffff;stroke-width:0.75;" x="90.193882" xlink:href="#mb7fe162b2a" y="266.499388"/>
     <use style="fill:#1f77b4;stroke:#ffffff;stroke-width:0.75;" x="93.761514" xlink:href="#mb7fe162b2a" y="266.499388"/>
     <use style="fill:#1f77b4;stroke:#ffffff;stroke-width:0.75;" x="97.329146" xlink:href="#mb7fe162b2a" y="266.499388"/>
     <use style="fill:#1f77b4;stroke:#ffffff;stroke-width:0.75;" x="100.896779" xlink:href="#mb7fe162b2a" y="250.826789"/>
     <use style="fill:#1f77b4;stroke:#ffffff;stroke-width:0.75;" x="104.464411" xlink:href="#mb7fe162b2a" y="258.214954"/>
     <use style="fill:#1f77b4;stroke:#ffffff;stroke-width:0.75;" x="108.032044" xlink:href="#mb7fe162b2a" y="248.719346"/>
     <use style="fill:#1f77b4;stroke:#ffffff;stroke-width:0.75;" x="111.599676" xlink:href="#mb7fe162b2a" y="246.73302"/>
     <use style="fill:#1f77b4;stroke:#ffffff;stroke-width:0.75;" x="115.167308" xlink:href="#mb7fe162b2a" y="248.283323"/>
     <use style="fill:#1f77b4;stroke:#ffffff;stroke-width:0.75;" x="118.734941" xlink:href="#mb7fe162b2a" y="239.296408"/>
     <use style="fill:#1f77b4;stroke:#ffffff;stroke-width:0.75;" x="122.302573" xlink:href="#mb7fe162b2a" y="236.631824"/>
     <use style="fill:#1f77b4;stroke:#ffffff;stroke-width:0.75;" x="125.870205" xlink:href="#mb7fe162b2a" y="210.482566"/>
     <use style="fill:#1f77b4;stroke:#ffffff;stroke-width:0.75;" x="129.437838" xlink:href="#mb7fe162b2a" y="142.099652"/>
     <use style="fill:#1f77b4;stroke:#ffffff;stroke-width:0.75;" x="133.00547" xlink:href="#mb7fe162b2a" y="114.375867"/>
     <use style="fill:#1f77b4;stroke:#ffffff;stroke-width:0.75;" x="136.573103" xlink:href="#mb7fe162b2a" y="107.859748"/>
     <use style="fill:#1f77b4;stroke:#ffffff;stroke-width:0.75;" x="140.140735" xlink:href="#mb7fe162b2a" y="98.582151"/>
     <use style="fill:#1f77b4;stroke:#ffffff;stroke-width:0.75;" x="143.708367" xlink:href="#mb7fe162b2a" y="87.53624"/>
     <use style="fill:#1f77b4;stroke:#ffffff;stroke-width:0.75;" x="147.276" xlink:href="#mb7fe162b2a" y="82.170737"/>
     <use style="fill:#1f77b4;stroke:#ffffff;stroke-width:0.75;" x="150.843632" xlink:href="#mb7fe162b2a" y="80.511427"/>
     <use style="fill:#1f77b4;stroke:#ffffff;stroke-width:0.75;" x="154.411264" xlink:href="#mb7fe162b2a" y="79.542488"/>
     <use style="fill:#1f77b4;stroke:#ffffff;stroke-width:0.75;" x="157.978897" xlink:href="#mb7fe162b2a" y="79.42137"/>
     <use style="fill:#1f77b4;stroke:#ffffff;stroke-width:0.75;" x="161.546529" xlink:href="#mb7fe162b2a" y="78.985348"/>
     <use style="fill:#1f77b4;stroke:#ffffff;stroke-width:0.75;" x="165.114161" xlink:href="#mb7fe162b2a" y="78.282866"/>
     <use style="fill:#1f77b4;stroke:#ffffff;stroke-width:0.75;" x="168.681794" xlink:href="#mb7fe162b2a" y="78.282866"/>
     <use style="fill:#1f77b4;stroke:#ffffff;stroke-width:0.75;" x="172.249426" xlink:href="#mb7fe162b2a" y="77.677279"/>
     <use style="fill:#1f77b4;stroke:#ffffff;stroke-width:0.75;" x="175.817059" xlink:href="#mb7fe162b2a" y="77.580385"/>
     <use style="fill:#1f77b4;stroke:#ffffff;stroke-width:0.75;" x="179.384691" xlink:href="#mb7fe162b2a" y="75.933188"/>
     <use style="fill:#1f77b4;stroke:#ffffff;stroke-width:0.75;" x="182.952323" xlink:href="#mb7fe162b2a" y="73.535062"/>
     <use style="fill:#1f77b4;stroke:#ffffff;stroke-width:0.75;" x="186.519956" xlink:href="#mb7fe162b2a" y="69.659304"/>
     <use style="fill:#1f77b4;stroke:#ffffff;stroke-width:0.75;" x="190.087588" xlink:href="#mb7fe162b2a" y="70.11955"/>
     <use style="fill:#1f77b4;stroke:#ffffff;stroke-width:0.75;" x="193.65522" xlink:href="#mb7fe162b2a" y="69.780421"/>
     <use style="fill:#1f77b4;stroke:#ffffff;stroke-width:0.75;" x="197.222853" xlink:href="#mb7fe162b2a" y="66.074227"/>
     <use style="fill:#1f77b4;stroke:#ffffff;stroke-width:0.75;" x="200.790485" xlink:href="#mb7fe162b2a" y="66.02578"/>
     <use style="fill:#1f77b4;stroke:#ffffff;stroke-width:0.75;" x="204.358118" xlink:href="#mb7fe162b2a" y="64.863053"/>
     <use style="fill:#1f77b4;stroke:#ffffff;stroke-width:0.75;" x="207.92575" xlink:href="#mb7fe162b2a" y="62.682938"/>
     <use style="fill:#1f77b4;stroke:#ffffff;stroke-width:0.75;" x="211.493382" xlink:href="#mb7fe162b2a" y="61.738222"/>
     <use style="fill:#1f77b4;stroke:#ffffff;stroke-width:0.75;" x="215.061015" xlink:href="#mb7fe162b2a" y="61.713999"/>
     <use style="fill:#1f77b4;stroke:#ffffff;stroke-width:0.75;" x="218.628647" xlink:href="#mb7fe162b2a" y="61.713999"/>
     <use style="fill:#1f77b4;stroke:#ffffff;stroke-width:0.75;" x="222.196279" xlink:href="#mb7fe162b2a" y="61.992569"/>
     <use style="fill:#1f77b4;stroke:#ffffff;stroke-width:0.75;" x="225.763912" xlink:href="#mb7fe162b2a" y="61.156859"/>
     <use style="fill:#1f77b4;stroke:#ffffff;stroke-width:0.75;" x="229.331544" xlink:href="#mb7fe162b2a" y="61.592881"/>
     <use style="fill:#1f77b4;stroke:#ffffff;stroke-width:0.75;" x="232.899176" xlink:href="#mb7fe162b2a" y="61.592881"/>
     <use style="fill:#1f77b4;stroke:#ffffff;stroke-width:0.75;" x="236.466809" xlink:href="#mb7fe162b2a" y="61.568658"/>
     <use style="fill:#1f77b4;stroke:#ffffff;stroke-width:0.75;" x="240.034441" xlink:href="#mb7fe162b2a" y="61.568658"/>
     <use style="fill:#1f77b4;stroke:#ffffff;stroke-width:0.75;" x="243.602074" xlink:href="#mb7fe162b2a" y="61.568658"/>
     <use style="fill:#1f77b4;stroke:#ffffff;stroke-width:0.75;" x="247.169706" xlink:href="#mb7fe162b2a" y="61.181082"/>
     <use style="fill:#1f77b4;stroke:#ffffff;stroke-width:0.75;" x="250.737338" xlink:href="#mb7fe162b2a" y="61.181082"/>
     <use style="fill:#1f77b4;stroke:#ffffff;stroke-width:0.75;" x="254.304971" xlink:href="#mb7fe162b2a" y="61.181082"/>
     <use style="fill:#1f77b4;stroke:#ffffff;stroke-width:0.75;" x="257.872603" xlink:href="#mb7fe162b2a" y="61.181082"/>
     <use style="fill:#1f77b4;stroke:#ffffff;stroke-width:0.75;" x="261.440235" xlink:href="#mb7fe162b2a" y="61.181082"/>
     <use style="fill:#1f77b4;stroke:#ffffff;stroke-width:0.75;" x="265.007868" xlink:href="#mb7fe162b2a" y="61.108412"/>
     <use style="fill:#1f77b4;stroke:#ffffff;stroke-width:0.75;" x="268.5755" xlink:href="#mb7fe162b2a" y="61.108412"/>
     <use style="fill:#1f77b4;stroke:#ffffff;stroke-width:0.75;" x="272.143132" xlink:href="#mb7fe162b2a" y="61.108412"/>
     <use style="fill:#1f77b4;stroke:#ffffff;stroke-width:0.75;" x="275.710765" xlink:href="#mb7fe162b2a" y="61.108412"/>
     <use style="fill:#1f77b4;stroke:#ffffff;stroke-width:0.75;" x="279.278397" xlink:href="#mb7fe162b2a" y="61.108412"/>
     <use style="fill:#1f77b4;stroke:#ffffff;stroke-width:0.75;" x="282.84603" xlink:href="#mb7fe162b2a" y="61.108412"/>
     <use style="fill:#1f77b4;stroke:#ffffff;stroke-width:0.75;" x="286.413662" xlink:href="#mb7fe162b2a" y="61.084188"/>
     <use style="fill:#1f77b4;stroke:#ffffff;stroke-width:0.75;" x="289.981294" xlink:href="#mb7fe162b2a" y="61.035741"/>
     <use style="fill:#1f77b4;stroke:#ffffff;stroke-width:0.75;" x="293.548927" xlink:href="#mb7fe162b2a" y="61.035741"/>
     <use style="fill:#1f77b4;stroke:#ffffff;stroke-width:0.75;" x="297.116559" xlink:href="#mb7fe162b2a" y="61.035741"/>
     <use style="fill:#1f77b4;stroke:#ffffff;stroke-width:0.75;" x="300.684191" xlink:href="#mb7fe162b2a" y="61.035741"/>
     <use style="fill:#1f77b4;stroke:#ffffff;stroke-width:0.75;" x="304.251824" xlink:href="#mb7fe162b2a" y="61.035741"/>
     <use style="fill:#1f77b4;stroke:#ffffff;stroke-width:0.75;" x="307.819456" xlink:href="#mb7fe162b2a" y="61.035741"/>
     <use style="fill:#1f77b4;stroke:#ffffff;stroke-width:0.75;" x="311.387089" xlink:href="#mb7fe162b2a" y="61.035741"/>
     <use style="fill:#1f77b4;stroke:#ffffff;stroke-width:0.75;" x="314.954721" xlink:href="#mb7fe162b2a" y="61.035741"/>
     <use style="fill:#1f77b4;stroke:#ffffff;stroke-width:0.75;" x="318.522353" xlink:href="#mb7fe162b2a" y="61.035741"/>
     <use style="fill:#1f77b4;stroke:#ffffff;stroke-width:0.75;" x="322.089986" xlink:href="#mb7fe162b2a" y="61.035741"/>
     <use style="fill:#1f77b4;stroke:#ffffff;stroke-width:0.75;" x="325.657618" xlink:href="#mb7fe162b2a" y="61.035741"/>
     <use style="fill:#1f77b4;stroke:#ffffff;stroke-width:0.75;" x="329.22525" xlink:href="#mb7fe162b2a" y="61.035741"/>
     <use style="fill:#1f77b4;stroke:#ffffff;stroke-width:0.75;" x="332.792883" xlink:href="#mb7fe162b2a" y="61.011518"/>
     <use style="fill:#1f77b4;stroke:#ffffff;stroke-width:0.75;" x="336.360515" xlink:href="#mb7fe162b2a" y="61.011518"/>
     <use style="fill:#1f77b4;stroke:#ffffff;stroke-width:0.75;" x="339.928147" xlink:href="#mb7fe162b2a" y="60.357483"/>
     <use style="fill:#1f77b4;stroke:#ffffff;stroke-width:0.75;" x="343.49578" xlink:href="#mb7fe162b2a" y="60.357483"/>
     <use style="fill:#1f77b4;stroke:#ffffff;stroke-width:0.75;" x="347.063412" xlink:href="#mb7fe162b2a" y="60.236366"/>
     <use style="fill:#1f77b4;stroke:#ffffff;stroke-width:0.75;" x="350.631045" xlink:href="#mb7fe162b2a" y="59.921461"/>
     <use style="fill:#1f77b4;stroke:#ffffff;stroke-width:0.75;" x="354.198677" xlink:href="#mb7fe162b2a" y="58.758733"/>
     <use style="fill:#1f77b4;stroke:#ffffff;stroke-width:0.75;" x="357.766309" xlink:href="#mb7fe162b2a" y="58.637616"/>
     <use style="fill:#1f77b4;stroke:#ffffff;stroke-width:0.75;" x="361.333942" xlink:href="#mb7fe162b2a" y="58.637616"/>
     <use style="fill:#1f77b4;stroke:#ffffff;stroke-width:0.75;" x="364.901574" xlink:href="#mb7fe162b2a" y="58.637616"/>
     <use style="fill:#1f77b4;stroke:#ffffff;stroke-width:0.75;" x="368.469206" xlink:href="#mb7fe162b2a" y="58.637616"/>
     <use style="fill:#1f77b4;stroke:#ffffff;stroke-width:0.75;" x="372.036839" xlink:href="#mb7fe162b2a" y="58.637616"/>
     <use style="fill:#1f77b4;stroke:#ffffff;stroke-width:0.75;" x="375.604471" xlink:href="#mb7fe162b2a" y="58.637616"/>
     <use style="fill:#1f77b4;stroke:#ffffff;stroke-width:0.75;" x="379.172104" xlink:href="#mb7fe162b2a" y="58.637616"/>
     <use style="fill:#1f77b4;stroke:#ffffff;stroke-width:0.75;" x="382.739736" xlink:href="#mb7fe162b2a" y="58.637616"/>
     <use style="fill:#1f77b4;stroke:#ffffff;stroke-width:0.75;" x="386.307368" xlink:href="#mb7fe162b2a" y="58.637616"/>
     <use style="fill:#1f77b4;stroke:#ffffff;stroke-width:0.75;" x="389.875001" xlink:href="#mb7fe162b2a" y="58.637616"/>
     <use style="fill:#1f77b4;stroke:#ffffff;stroke-width:0.75;" x="393.442633" xlink:href="#mb7fe162b2a" y="58.637616"/>
     <use style="fill:#1f77b4;stroke:#ffffff;stroke-width:0.75;" x="397.010265" xlink:href="#mb7fe162b2a" y="58.613392"/>
     <use style="fill:#1f77b4;stroke:#ffffff;stroke-width:0.75;" x="400.577898" xlink:href="#mb7fe162b2a" y="58.613392"/>
    </g>
   </g>
   <g id="line2d_13">
    <path clip-path="url(#p636905d4ea)" d="M 75.923352 276.334125 
L 79.490985 276.334125 
L 83.058617 276.334125 
L 86.626249 276.334125 
L 90.193882 276.334125 
L 93.761514 276.334125 
L 97.329146 276.334125 
L 100.896779 276.334125 
L 104.464411 276.334125 
L 108.032044 276.334125 
L 111.599676 276.334125 
L 115.167308 276.334125 
L 118.734941 276.334125 
L 122.302573 276.334125 
L 125.870205 276.334125 
L 129.437838 276.334125 
L 133.00547 276.334125 
L 136.573103 276.334125 
L 140.140735 276.334125 
L 143.708367 276.334125 
L 147.276 276.334125 
L 150.843632 276.334125 
L 154.411264 276.334125 
L 157.978897 276.334125 
L 161.546529 276.334125 
L 165.114161 276.334125 
L 168.681794 276.334125 
L 172.249426 276.334125 
L 175.817059 276.334125 
L 179.384691 276.334125 
L 182.952323 276.334125 
L 186.519956 276.334125 
L 190.087588 276.334125 
L 193.65522 276.334125 
L 197.222853 276.334125 
L 200.790485 276.334125 
L 204.358118 276.334125 
L 207.92575 276.334125 
L 211.493382 276.334125 
L 215.061015 276.334125 
L 218.628647 276.334125 
L 222.196279 276.334125 
L 225.763912 276.334125 
L 229.331544 276.334125 
L 232.899176 276.334125 
L 236.466809 276.334125 
L 240.034441 276.334125 
L 243.602074 276.334125 
L 247.169706 276.334125 
L 250.737338 276.334125 
L 254.304971 276.334125 
L 257.872603 276.334125 
L 261.440235 276.334125 
L 265.007868 276.334125 
L 268.5755 276.334125 
L 272.143132 276.334125 
L 275.710765 276.334125 
L 279.278397 276.334125 
L 282.84603 276.334125 
L 286.413662 276.334125 
L 289.981294 276.334125 
L 293.548927 276.334125 
L 297.116559 276.334125 
L 300.684191 276.334125 
L 304.251824 276.334125 
L 307.819456 276.334125 
L 311.387089 276.334125 
L 314.954721 276.334125 
L 318.522353 276.334125 
L 322.089986 276.334125 
L 325.657618 276.334125 
L 329.22525 276.334125 
L 332.792883 276.334125 
L 336.360515 276.334125 
L 339.928147 276.334125 
L 343.49578 276.334125 
L 347.063412 276.334125 
L 350.631045 276.334125 
L 354.198677 276.334125 
L 357.766309 276.334125 
L 361.333942 276.334125 
L 364.901574 276.334125 
L 368.469206 276.334125 
L 372.036839 276.334125 
L 375.604471 276.334125 
L 379.172104 276.334125 
L 382.739736 276.334125 
L 386.307368 276.334125 
L 389.875001 276.334125 
L 393.442633 276.334125 
L 397.010265 276.334125 
L 400.577898 276.334125 
" style="fill:none;stroke:#98df8a;stroke-linecap:square;stroke-width:1.5;"/>
    <defs>
     <path d="M -0 3 
L 3 -3 
L -3 -3 
z
" id="m1989e61c7b" style="stroke:#ffffff;stroke-linejoin:miter;stroke-width:0.75;"/>
    </defs>
    <g clip-path="url(#p636905d4ea)">
     <use style="fill:#98df8a;stroke:#ffffff;stroke-linejoin:miter;stroke-width:0.75;" x="75.923352" xlink:href="#m1989e61c7b" y="276.334125"/>
     <use style="fill:#98df8a;stroke:#ffffff;stroke-linejoin:miter;stroke-width:0.75;" x="79.490985" xlink:href="#m1989e61c7b" y="276.334125"/>
     <use style="fill:#98df8a;stroke:#ffffff;stroke-linejoin:miter;stroke-width:0.75;" x="83.058617" xlink:href="#m1989e61c7b" y="276.334125"/>
     <use style="fill:#98df8a;stroke:#ffffff;stroke-linejoin:miter;stroke-width:0.75;" x="86.626249" xlink:href="#m1989e61c7b" y="276.334125"/>
     <use style="fill:#98df8a;stroke:#ffffff;stroke-linejoin:miter;stroke-width:0.75;" x="90.193882" xlink:href="#m1989e61c7b" y="276.334125"/>
     <use style="fill:#98df8a;stroke:#ffffff;stroke-linejoin:miter;stroke-width:0.75;" x="93.761514" xlink:href="#m1989e61c7b" y="276.334125"/>
     <use style="fill:#98df8a;stroke:#ffffff;stroke-linejoin:miter;stroke-width:0.75;" x="97.329146" xlink:href="#m1989e61c7b" y="276.334125"/>
     <use style="fill:#98df8a;stroke:#ffffff;stroke-linejoin:miter;stroke-width:0.75;" x="100.896779" xlink:href="#m1989e61c7b" y="276.334125"/>
     <use style="fill:#98df8a;stroke:#ffffff;stroke-linejoin:miter;stroke-width:0.75;" x="104.464411" xlink:href="#m1989e61c7b" y="276.334125"/>
     <use style="fill:#98df8a;stroke:#ffffff;stroke-linejoin:miter;stroke-width:0.75;" x="108.032044" xlink:href="#m1989e61c7b" y="276.334125"/>
     <use style="fill:#98df8a;stroke:#ffffff;stroke-linejoin:miter;stroke-width:0.75;" x="111.599676" xlink:href="#m1989e61c7b" y="276.334125"/>
     <use style="fill:#98df8a;stroke:#ffffff;stroke-linejoin:miter;stroke-width:0.75;" x="115.167308" xlink:href="#m1989e61c7b" y="276.334125"/>
     <use style="fill:#98df8a;stroke:#ffffff;stroke-linejoin:miter;stroke-width:0.75;" x="118.734941" xlink:href="#m1989e61c7b" y="276.334125"/>
     <use style="fill:#98df8a;stroke:#ffffff;stroke-linejoin:miter;stroke-width:0.75;" x="122.302573" xlink:href="#m1989e61c7b" y="276.334125"/>
     <use style="fill:#98df8a;stroke:#ffffff;stroke-linejoin:miter;stroke-width:0.75;" x="125.870205" xlink:href="#m1989e61c7b" y="276.334125"/>
     <use style="fill:#98df8a;stroke:#ffffff;stroke-linejoin:miter;stroke-width:0.75;" x="129.437838" xlink:href="#m1989e61c7b" y="276.334125"/>
     <use style="fill:#98df8a;stroke:#ffffff;stroke-linejoin:miter;stroke-width:0.75;" x="133.00547" xlink:href="#m1989e61c7b" y="276.334125"/>
     <use style="fill:#98df8a;stroke:#ffffff;stroke-linejoin:miter;stroke-width:0.75;" x="136.573103" xlink:href="#m1989e61c7b" y="276.334125"/>
     <use style="fill:#98df8a;stroke:#ffffff;stroke-linejoin:miter;stroke-width:0.75;" x="140.140735" xlink:href="#m1989e61c7b" y="276.334125"/>
     <use style="fill:#98df8a;stroke:#ffffff;stroke-linejoin:miter;stroke-width:0.75;" x="143.708367" xlink:href="#m1989e61c7b" y="276.334125"/>
     <use style="fill:#98df8a;stroke:#ffffff;stroke-linejoin:miter;stroke-width:0.75;" x="147.276" xlink:href="#m1989e61c7b" y="276.334125"/>
     <use style="fill:#98df8a;stroke:#ffffff;stroke-linejoin:miter;stroke-width:0.75;" x="150.843632" xlink:href="#m1989e61c7b" y="276.334125"/>
     <use style="fill:#98df8a;stroke:#ffffff;stroke-linejoin:miter;stroke-width:0.75;" x="154.411264" xlink:href="#m1989e61c7b" y="276.334125"/>
     <use style="fill:#98df8a;stroke:#ffffff;stroke-linejoin:miter;stroke-width:0.75;" x="157.978897" xlink:href="#m1989e61c7b" y="276.334125"/>
     <use style="fill:#98df8a;stroke:#ffffff;stroke-linejoin:miter;stroke-width:0.75;" x="161.546529" xlink:href="#m1989e61c7b" y="276.334125"/>
     <use style="fill:#98df8a;stroke:#ffffff;stroke-linejoin:miter;stroke-width:0.75;" x="165.114161" xlink:href="#m1989e61c7b" y="276.334125"/>
     <use style="fill:#98df8a;stroke:#ffffff;stroke-linejoin:miter;stroke-width:0.75;" x="168.681794" xlink:href="#m1989e61c7b" y="276.334125"/>
     <use style="fill:#98df8a;stroke:#ffffff;stroke-linejoin:miter;stroke-width:0.75;" x="172.249426" xlink:href="#m1989e61c7b" y="276.334125"/>
     <use style="fill:#98df8a;stroke:#ffffff;stroke-linejoin:miter;stroke-width:0.75;" x="175.817059" xlink:href="#m1989e61c7b" y="276.334125"/>
     <use style="fill:#98df8a;stroke:#ffffff;stroke-linejoin:miter;stroke-width:0.75;" x="179.384691" xlink:href="#m1989e61c7b" y="276.334125"/>
     <use style="fill:#98df8a;stroke:#ffffff;stroke-linejoin:miter;stroke-width:0.75;" x="182.952323" xlink:href="#m1989e61c7b" y="276.334125"/>
     <use style="fill:#98df8a;stroke:#ffffff;stroke-linejoin:miter;stroke-width:0.75;" x="186.519956" xlink:href="#m1989e61c7b" y="276.334125"/>
     <use style="fill:#98df8a;stroke:#ffffff;stroke-linejoin:miter;stroke-width:0.75;" x="190.087588" xlink:href="#m1989e61c7b" y="276.334125"/>
     <use style="fill:#98df8a;stroke:#ffffff;stroke-linejoin:miter;stroke-width:0.75;" x="193.65522" xlink:href="#m1989e61c7b" y="276.334125"/>
     <use style="fill:#98df8a;stroke:#ffffff;stroke-linejoin:miter;stroke-width:0.75;" x="197.222853" xlink:href="#m1989e61c7b" y="276.334125"/>
     <use style="fill:#98df8a;stroke:#ffffff;stroke-linejoin:miter;stroke-width:0.75;" x="200.790485" xlink:href="#m1989e61c7b" y="276.334125"/>
     <use style="fill:#98df8a;stroke:#ffffff;stroke-linejoin:miter;stroke-width:0.75;" x="204.358118" xlink:href="#m1989e61c7b" y="276.334125"/>
     <use style="fill:#98df8a;stroke:#ffffff;stroke-linejoin:miter;stroke-width:0.75;" x="207.92575" xlink:href="#m1989e61c7b" y="276.334125"/>
     <use style="fill:#98df8a;stroke:#ffffff;stroke-linejoin:miter;stroke-width:0.75;" x="211.493382" xlink:href="#m1989e61c7b" y="276.334125"/>
     <use style="fill:#98df8a;stroke:#ffffff;stroke-linejoin:miter;stroke-width:0.75;" x="215.061015" xlink:href="#m1989e61c7b" y="276.334125"/>
     <use style="fill:#98df8a;stroke:#ffffff;stroke-linejoin:miter;stroke-width:0.75;" x="218.628647" xlink:href="#m1989e61c7b" y="276.334125"/>
     <use style="fill:#98df8a;stroke:#ffffff;stroke-linejoin:miter;stroke-width:0.75;" x="222.196279" xlink:href="#m1989e61c7b" y="276.334125"/>
     <use style="fill:#98df8a;stroke:#ffffff;stroke-linejoin:miter;stroke-width:0.75;" x="225.763912" xlink:href="#m1989e61c7b" y="276.334125"/>
     <use style="fill:#98df8a;stroke:#ffffff;stroke-linejoin:miter;stroke-width:0.75;" x="229.331544" xlink:href="#m1989e61c7b" y="276.334125"/>
     <use style="fill:#98df8a;stroke:#ffffff;stroke-linejoin:miter;stroke-width:0.75;" x="232.899176" xlink:href="#m1989e61c7b" y="276.334125"/>
     <use style="fill:#98df8a;stroke:#ffffff;stroke-linejoin:miter;stroke-width:0.75;" x="236.466809" xlink:href="#m1989e61c7b" y="276.334125"/>
     <use style="fill:#98df8a;stroke:#ffffff;stroke-linejoin:miter;stroke-width:0.75;" x="240.034441" xlink:href="#m1989e61c7b" y="276.334125"/>
     <use style="fill:#98df8a;stroke:#ffffff;stroke-linejoin:miter;stroke-width:0.75;" x="243.602074" xlink:href="#m1989e61c7b" y="276.334125"/>
     <use style="fill:#98df8a;stroke:#ffffff;stroke-linejoin:miter;stroke-width:0.75;" x="247.169706" xlink:href="#m1989e61c7b" y="276.334125"/>
     <use style="fill:#98df8a;stroke:#ffffff;stroke-linejoin:miter;stroke-width:0.75;" x="250.737338" xlink:href="#m1989e61c7b" y="276.334125"/>
     <use style="fill:#98df8a;stroke:#ffffff;stroke-linejoin:miter;stroke-width:0.75;" x="254.304971" xlink:href="#m1989e61c7b" y="276.334125"/>
     <use style="fill:#98df8a;stroke:#ffffff;stroke-linejoin:miter;stroke-width:0.75;" x="257.872603" xlink:href="#m1989e61c7b" y="276.334125"/>
     <use style="fill:#98df8a;stroke:#ffffff;stroke-linejoin:miter;stroke-width:0.75;" x="261.440235" xlink:href="#m1989e61c7b" y="276.334125"/>
     <use style="fill:#98df8a;stroke:#ffffff;stroke-linejoin:miter;stroke-width:0.75;" x="265.007868" xlink:href="#m1989e61c7b" y="276.334125"/>
     <use style="fill:#98df8a;stroke:#ffffff;stroke-linejoin:miter;stroke-width:0.75;" x="268.5755" xlink:href="#m1989e61c7b" y="276.334125"/>
     <use style="fill:#98df8a;stroke:#ffffff;stroke-linejoin:miter;stroke-width:0.75;" x="272.143132" xlink:href="#m1989e61c7b" y="276.334125"/>
     <use style="fill:#98df8a;stroke:#ffffff;stroke-linejoin:miter;stroke-width:0.75;" x="275.710765" xlink:href="#m1989e61c7b" y="276.334125"/>
     <use style="fill:#98df8a;stroke:#ffffff;stroke-linejoin:miter;stroke-width:0.75;" x="279.278397" xlink:href="#m1989e61c7b" y="276.334125"/>
     <use style="fill:#98df8a;stroke:#ffffff;stroke-linejoin:miter;stroke-width:0.75;" x="282.84603" xlink:href="#m1989e61c7b" y="276.334125"/>
     <use style="fill:#98df8a;stroke:#ffffff;stroke-linejoin:miter;stroke-width:0.75;" x="286.413662" xlink:href="#m1989e61c7b" y="276.334125"/>
     <use style="fill:#98df8a;stroke:#ffffff;stroke-linejoin:miter;stroke-width:0.75;" x="289.981294" xlink:href="#m1989e61c7b" y="276.334125"/>
     <use style="fill:#98df8a;stroke:#ffffff;stroke-linejoin:miter;stroke-width:0.75;" x="293.548927" xlink:href="#m1989e61c7b" y="276.334125"/>
     <use style="fill:#98df8a;stroke:#ffffff;stroke-linejoin:miter;stroke-width:0.75;" x="297.116559" xlink:href="#m1989e61c7b" y="276.334125"/>
     <use style="fill:#98df8a;stroke:#ffffff;stroke-linejoin:miter;stroke-width:0.75;" x="300.684191" xlink:href="#m1989e61c7b" y="276.334125"/>
     <use style="fill:#98df8a;stroke:#ffffff;stroke-linejoin:miter;stroke-width:0.75;" x="304.251824" xlink:href="#m1989e61c7b" y="276.334125"/>
     <use style="fill:#98df8a;stroke:#ffffff;stroke-linejoin:miter;stroke-width:0.75;" x="307.819456" xlink:href="#m1989e61c7b" y="276.334125"/>
     <use style="fill:#98df8a;stroke:#ffffff;stroke-linejoin:miter;stroke-width:0.75;" x="311.387089" xlink:href="#m1989e61c7b" y="276.334125"/>
     <use style="fill:#98df8a;stroke:#ffffff;stroke-linejoin:miter;stroke-width:0.75;" x="314.954721" xlink:href="#m1989e61c7b" y="276.334125"/>
     <use style="fill:#98df8a;stroke:#ffffff;stroke-linejoin:miter;stroke-width:0.75;" x="318.522353" xlink:href="#m1989e61c7b" y="276.334125"/>
     <use style="fill:#98df8a;stroke:#ffffff;stroke-linejoin:miter;stroke-width:0.75;" x="322.089986" xlink:href="#m1989e61c7b" y="276.334125"/>
     <use style="fill:#98df8a;stroke:#ffffff;stroke-linejoin:miter;stroke-width:0.75;" x="325.657618" xlink:href="#m1989e61c7b" y="276.334125"/>
     <use style="fill:#98df8a;stroke:#ffffff;stroke-linejoin:miter;stroke-width:0.75;" x="329.22525" xlink:href="#m1989e61c7b" y="276.334125"/>
     <use style="fill:#98df8a;stroke:#ffffff;stroke-linejoin:miter;stroke-width:0.75;" x="332.792883" xlink:href="#m1989e61c7b" y="276.334125"/>
     <use style="fill:#98df8a;stroke:#ffffff;stroke-linejoin:miter;stroke-width:0.75;" x="336.360515" xlink:href="#m1989e61c7b" y="276.334125"/>
     <use style="fill:#98df8a;stroke:#ffffff;stroke-linejoin:miter;stroke-width:0.75;" x="339.928147" xlink:href="#m1989e61c7b" y="276.334125"/>
     <use style="fill:#98df8a;stroke:#ffffff;stroke-linejoin:miter;stroke-width:0.75;" x="343.49578" xlink:href="#m1989e61c7b" y="276.334125"/>
     <use style="fill:#98df8a;stroke:#ffffff;stroke-linejoin:miter;stroke-width:0.75;" x="347.063412" xlink:href="#m1989e61c7b" y="276.334125"/>
     <use style="fill:#98df8a;stroke:#ffffff;stroke-linejoin:miter;stroke-width:0.75;" x="350.631045" xlink:href="#m1989e61c7b" y="276.334125"/>
     <use style="fill:#98df8a;stroke:#ffffff;stroke-linejoin:miter;stroke-width:0.75;" x="354.198677" xlink:href="#m1989e61c7b" y="276.334125"/>
     <use style="fill:#98df8a;stroke:#ffffff;stroke-linejoin:miter;stroke-width:0.75;" x="357.766309" xlink:href="#m1989e61c7b" y="276.334125"/>
     <use style="fill:#98df8a;stroke:#ffffff;stroke-linejoin:miter;stroke-width:0.75;" x="361.333942" xlink:href="#m1989e61c7b" y="276.334125"/>
     <use style="fill:#98df8a;stroke:#ffffff;stroke-linejoin:miter;stroke-width:0.75;" x="364.901574" xlink:href="#m1989e61c7b" y="276.334125"/>
     <use style="fill:#98df8a;stroke:#ffffff;stroke-linejoin:miter;stroke-width:0.75;" x="368.469206" xlink:href="#m1989e61c7b" y="276.334125"/>
     <use style="fill:#98df8a;stroke:#ffffff;stroke-linejoin:miter;stroke-width:0.75;" x="372.036839" xlink:href="#m1989e61c7b" y="276.334125"/>
     <use style="fill:#98df8a;stroke:#ffffff;stroke-linejoin:miter;stroke-width:0.75;" x="375.604471" xlink:href="#m1989e61c7b" y="276.334125"/>
     <use style="fill:#98df8a;stroke:#ffffff;stroke-linejoin:miter;stroke-width:0.75;" x="379.172104" xlink:href="#m1989e61c7b" y="276.334125"/>
     <use style="fill:#98df8a;stroke:#ffffff;stroke-linejoin:miter;stroke-width:0.75;" x="382.739736" xlink:href="#m1989e61c7b" y="276.334125"/>
     <use style="fill:#98df8a;stroke:#ffffff;stroke-linejoin:miter;stroke-width:0.75;" x="386.307368" xlink:href="#m1989e61c7b" y="276.334125"/>
     <use style="fill:#98df8a;stroke:#ffffff;stroke-linejoin:miter;stroke-width:0.75;" x="389.875001" xlink:href="#m1989e61c7b" y="276.334125"/>
     <use style="fill:#98df8a;stroke:#ffffff;stroke-linejoin:miter;stroke-width:0.75;" x="393.442633" xlink:href="#m1989e61c7b" y="276.334125"/>
     <use style="fill:#98df8a;stroke:#ffffff;stroke-linejoin:miter;stroke-width:0.75;" x="397.010265" xlink:href="#m1989e61c7b" y="276.334125"/>
     <use style="fill:#98df8a;stroke:#ffffff;stroke-linejoin:miter;stroke-width:0.75;" x="400.577898" xlink:href="#m1989e61c7b" y="276.334125"/>
    </g>
   </g>
   <g id="line2d_14"/>
   <g id="line2d_15"/>
   <g id="patch_3">
    <path d="M 59.690625 241.137393 
L 59.690625 47.349469 
" style="fill:none;stroke:#000000;stroke-linecap:square;stroke-linejoin:miter;stroke-width:0.8;"/>
   </g>
   <g id="patch_4">
    <path d="M 75.923352 288.430125 
L 349.441834 288.430125 
" style="fill:none;stroke:#000000;stroke-linecap:square;stroke-linejoin:miter;stroke-width:0.8;"/>
   </g>
   <g id="text_14">
    <!-- libhevc_hevc_dec_fuzzer (23h, 15 trials/fuzzer) -->
    <g transform="translate(97.517813 16.318125)scale(0.12 -0.12)">
     <defs>
      <path d="M 603 4863 
L 1178 4863 
L 1178 0 
L 603 0 
L 603 4863 
z
" id="DejaVuSans-6c" transform="scale(0.015625)"/>
      <path d="M 3116 1747 
Q 3116 2381 2855 2742 
Q 2594 3103 2138 3103 
Q 1681 3103 1420 2742 
Q 1159 2381 1159 1747 
Q 1159 1113 1420 752 
Q 1681 391 2138 391 
Q 2594 391 2855 752 
Q 3116 1113 3116 1747 
z
M 1159 2969 
Q 1341 3281 1617 3432 
Q 1894 3584 2278 3584 
Q 2916 3584 3314 3078 
Q 3713 2572 3713 1747 
Q 3713 922 3314 415 
Q 2916 -91 2278 -91 
Q 1894 -91 1617 61 
Q 1341 213 1159 525 
L 1159 0 
L 581 0 
L 581 4863 
L 1159 4863 
L 1159 2969 
z
" id="DejaVuSans-62" transform="scale(0.015625)"/>
      <path d="M 3263 -1063 
L 3263 -1509 
L -63 -1509 
L -63 -1063 
L 3263 -1063 
z
" id="DejaVuSans-5f" transform="scale(0.015625)"/>
      <path d="M 2375 4863 
L 2375 4384 
L 1825 4384 
Q 1516 4384 1395 4259 
Q 1275 4134 1275 3809 
L 1275 3500 
L 2222 3500 
L 2222 3053 
L 1275 3053 
L 1275 0 
L 697 0 
L 697 3053 
L 147 3053 
L 147 3500 
L 697 3500 
L 697 3744 
Q 697 4328 969 4595 
Q 1241 4863 1831 4863 
L 2375 4863 
z
" id="DejaVuSans-66" transform="scale(0.015625)"/>
      <path d="M 353 3500 
L 3084 3500 
L 3084 2975 
L 922 459 
L 3084 459 
L 3084 0 
L 275 0 
L 275 525 
L 2438 3041 
L 353 3041 
L 353 3500 
z
" id="DejaVuSans-7a" transform="scale(0.015625)"/>
      <path d="M 750 794 
L 1409 794 
L 1409 256 
L 897 -744 
L 494 -744 
L 750 256 
L 750 794 
z
" id="DejaVuSans-2c" transform="scale(0.015625)"/>
      <path d="M 2834 3397 
L 2834 2853 
Q 2591 2978 2328 3040 
Q 2066 3103 1784 3103 
Q 1356 3103 1142 2972 
Q 928 2841 928 2578 
Q 928 2378 1081 2264 
Q 1234 2150 1697 2047 
L 1894 2003 
Q 2506 1872 2764 1633 
Q 3022 1394 3022 966 
Q 3022 478 2636 193 
Q 2250 -91 1575 -91 
Q 1294 -91 989 -36 
Q 684 19 347 128 
L 347 722 
Q 666 556 975 473 
Q 1284 391 1588 391 
Q 1994 391 2212 530 
Q 2431 669 2431 922 
Q 2431 1156 2273 1281 
Q 2116 1406 1581 1522 
L 1381 1569 
Q 847 1681 609 1914 
Q 372 2147 372 2553 
Q 372 3047 722 3315 
Q 1072 3584 1716 3584 
Q 2034 3584 2315 3537 
Q 2597 3491 2834 3397 
z
" id="DejaVuSans-73" transform="scale(0.015625)"/>
      <path d="M 1625 4666 
L 2156 4666 
L 531 -594 
L 0 -594 
L 1625 4666 
z
" id="DejaVuSans-2f" transform="scale(0.015625)"/>
     </defs>
     <use xlink:href="#DejaVuSans-6c"/>
     <use x="27.783203" xlink:href="#DejaVuSans-69"/>
     <use x="55.566406" xlink:href="#DejaVuSans-62"/>
     <use x="119.042969" xlink:href="#DejaVuSans-68"/>
     <use x="182.421875" xlink:href="#DejaVuSans-65"/>
     <use x="243.945312" xlink:href="#DejaVuSans-76"/>
     <use x="303.125" xlink:href="#DejaVuSans-63"/>
     <use x="358.105469" xlink:href="#DejaVuSans-5f"/>
     <use x="408.105469" xlink:href="#DejaVuSans-68"/>
     <use x="471.484375" xlink:href="#DejaVuSans-65"/>
     <use x="533.007812" xlink:href="#DejaVuSans-76"/>
     <use x="592.1875" xlink:href="#DejaVuSans-63"/>
     <use x="647.167969" xlink:href="#DejaVuSans-5f"/>
     <use x="697.167969" xlink:href="#DejaVuSans-64"/>
     <use x="760.644531" xlink:href="#DejaVuSans-65"/>
     <use x="822.167969" xlink:href="#DejaVuSans-63"/>
     <use x="877.148438" xlink:href="#DejaVuSans-5f"/>
     <use x="927.148438" xlink:href="#DejaVuSans-66"/>
     <use x="962.353516" xlink:href="#DejaVuSans-75"/>
     <use x="1025.732422" xlink:href="#DejaVuSans-7a"/>
     <use x="1078.222656" xlink:href="#DejaVuSans-7a"/>
     <use x="1130.712891" xlink:href="#DejaVuSans-65"/>
     <use x="1192.236328" xlink:href="#DejaVuSans-72"/>
     <use x="1233.349609" xlink:href="#DejaVuSans-20"/>
     <use x="1265.136719" xlink:href="#DejaVuSans-28"/>
     <use x="1304.150391" xlink:href="#DejaVuSans-32"/>
     <use x="1367.773438" xlink:href="#DejaVuSans-33"/>
     <use x="1431.396484" xlink:href="#DejaVuSans-68"/>
     <use x="1494.775391" xlink:href="#DejaVuSans-2c"/>
     <use x="1526.5625" xlink:href="#DejaVuSans-20"/>
     <use x="1558.349609" xlink:href="#DejaVuSans-31"/>
     <use x="1621.972656" xlink:href="#DejaVuSans-35"/>
     <use x="1685.595703" xlink:href="#DejaVuSans-20"/>
     <use x="1717.382812" xlink:href="#DejaVuSans-74"/>
     <use x="1756.591797" xlink:href="#DejaVuSans-72"/>
     <use x="1797.705078" xlink:href="#DejaVuSans-69"/>
     <use x="1825.488281" xlink:href="#DejaVuSans-61"/>
     <use x="1886.767578" xlink:href="#DejaVuSans-6c"/>
     <use x="1914.550781" xlink:href="#DejaVuSans-73"/>
     <use x="1966.650391" xlink:href="#DejaVuSans-2f"/>
     <use x="2000.341797" xlink:href="#DejaVuSans-66"/>
     <use x="2035.546875" xlink:href="#DejaVuSans-75"/>
     <use x="2098.925781" xlink:href="#DejaVuSans-7a"/>
     <use x="2151.416016" xlink:href="#DejaVuSans-7a"/>
     <use x="2203.90625" xlink:href="#DejaVuSans-65"/>
     <use x="2265.429688" xlink:href="#DejaVuSans-72"/>
     <use x="2306.542969" xlink:href="#DejaVuSans-29"/>
    </g>
   </g>
   <g id="legend_1">
    <g id="line2d_16">
     <path d="M 420.810625 30.416562 
L 440.810625 30.416562 
" style="fill:none;stroke:#1f77b4;stroke-linecap:square;stroke-width:1.5;"/>
    </g>
    <g id="line2d_17">
     <defs>
      <path d="M 0 3 
C 0.795609 3 1.55874 2.683901 2.12132 2.12132 
C 2.683901 1.55874 3 0.795609 3 0 
C 3 -0.795609 2.683901 -1.55874 2.12132 -2.12132 
C 1.55874 -2.683901 0.795609 -3 0 -3 
C -0.795609 -3 -1.55874 -2.683901 -2.12132 -2.12132 
C -2.683901 -1.55874 -3 -0.795609 -3 0 
C -3 0.795609 -2.683901 1.55874 -2.12132 2.12132 
C -1.55874 2.683901 -0.795609 3 0 3 
z
" id="mdae81fbc04" style="stroke:#1f77b4;"/>
     </defs>
     <g>
      <use style="fill:#1f77b4;stroke:#1f77b4;" x="430.810625" xlink:href="#mdae81fbc04" y="30.416562"/>
     </g>
    </g>
    <g id="text_15">
     <!-- afl -->
     <g transform="translate(448.810625 33.916562)scale(0.1 -0.1)">
      <use xlink:href="#DejaVuSans-61"/>
      <use x="61.279297" xlink:href="#DejaVuSans-66"/>
      <use x="96.484375" xlink:href="#DejaVuSans-6c"/>
     </g>
    </g>
    <g id="line2d_18">
     <path d="M 420.810625 45.094688 
L 440.810625 45.094688 
" style="fill:none;stroke:#98df8a;stroke-linecap:square;stroke-width:1.5;"/>
    </g>
    <g id="line2d_19">
     <defs>
      <path d="M -0 3 
L 3 -3 
L -3 -3 
z
" id="mac92a9d31a" style="stroke:#98df8a;stroke-linejoin:miter;"/>
     </defs>
     <g>
      <use style="fill:#98df8a;stroke:#98df8a;stroke-linejoin:miter;" x="430.810625" xlink:href="#mac92a9d31a" y="45.094688"/>
     </g>
    </g>
    <g id="text_16">
     <!-- afl_splicing_mutation -->
     <g transform="translate(448.810625 48.594688)scale(0.1 -0.1)">
      <defs>
       <path d="M 1159 525 
L 1159 -1331 
L 581 -1331 
L 581 3500 
L 1159 3500 
L 1159 2969 
Q 1341 3281 1617 3432 
Q 1894 3584 2278 3584 
Q 2916 3584 3314 3078 
Q 3713 2572 3713 1747 
Q 3713 922 3314 415 
Q 2916 -91 2278 -91 
Q 1894 -91 1617 61 
Q 1341 213 1159 525 
z
M 3116 1747 
Q 3116 2381 2855 2742 
Q 2594 3103 2138 3103 
Q 1681 3103 1420 2742 
Q 1159 2381 1159 1747 
Q 1159 1113 1420 752 
Q 1681 391 2138 391 
Q 2594 391 2855 752 
Q 3116 1113 3116 1747 
z
" id="DejaVuSans-70" transform="scale(0.015625)"/>
      </defs>
      <use xlink:href="#DejaVuSans-61"/>
      <use x="61.279297" xlink:href="#DejaVuSans-66"/>
      <use x="96.484375" xlink:href="#DejaVuSans-6c"/>
      <use x="124.267578" xlink:href="#DejaVuSans-5f"/>
      <use x="174.267578" xlink:href="#DejaVuSans-73"/>
      <use x="226.367188" xlink:href="#DejaVuSans-70"/>
      <use x="289.84375" xlink:href="#DejaVuSans-6c"/>
      <use x="317.626953" xlink:href="#DejaVuSans-69"/>
      <use x="345.410156" xlink:href="#DejaVuSans-63"/>
      <use x="400.390625" xlink:href="#DejaVuSans-69"/>
      <use x="428.173828" xlink:href="#DejaVuSans-6e"/>
      <use x="491.552734" xlink:href="#DejaVuSans-67"/>
      <use x="555.029297" xlink:href="#DejaVuSans-5f"/>
      <use x="605.029297" xlink:href="#DejaVuSans-6d"/>
      <use x="702.441406" xlink:href="#DejaVuSans-75"/>
      <use x="765.820312" xlink:href="#DejaVuSans-74"/>
      <use x="805.029297" xlink:href="#DejaVuSans-61"/>
      <use x="866.308594" xlink:href="#DejaVuSans-74"/>
      <use x="905.517578" xlink:href="#DejaVuSans-69"/>
      <use x="933.300781" xlink:href="#DejaVuSans-6f"/>
      <use x="994.482422" xlink:href="#DejaVuSans-6e"/>
     </g>
    </g>
   </g>
  </g>
 </g>
 <defs>
  <clipPath id="p636905d4ea">
   <rect height="266.112" width="357.12" x="59.690625" y="22.318125"/>
  </clipPath>
 </defs>
</svg>
