<?xml version="1.0" encoding="utf-8" standalone="no"?>
<!DOCTYPE svg PUBLIC "-//W3C//DTD SVG 1.1//EN"
  "http://www.w3.org/Graphics/SVG/1.1/DTD/svg11.dtd">
<svg height="325.986375pt" version="1.1" viewBox="0 0 565.795 325.986375" width="565.795pt" xmlns="http://www.w3.org/2000/svg" xmlns:xlink="http://www.w3.org/1999/xlink">
 <metadata>
  <rdf:RDF xmlns:cc="http://creativecommons.org/ns#" xmlns:dc="http://purl.org/dc/elements/1.1/" xmlns:rdf="http://www.w3.org/1999/02/22-rdf-syntax-ns#">
   <cc:Work>
    <dc:type rdf:resource="http://purl.org/dc/dcmitype/StillImage"/>
    <dc:date>2022-05-31T16:27:18.700733</dc:date>
    <dc:format>image/svg+xml</dc:format>
    <dc:creator>
     <cc:Agent>
      <dc:title>Matplotlib v3.4.3, https://matplotlib.org/</dc:title>
     </cc:Agent>
    </dc:creator>
   </cc:Work>
  </rdf:RDF>
 </metadata>
 <defs>
  <style type="text/css">*{stroke-linecap:butt;stroke-linejoin:round;}</style>
 </defs>
 <g id="figure_1">
  <g id="patch_1">
   <path d="M 0 325.986375 
L 565.795 325.986375 
L 565.795 0 
L 0 0 
z
" style="fill:#ffffff;"/>
  </g>
  <g id="axes_1">
   <g id="patch_2">
    <path d="M 59.690625 288.430125 
L 416.810625 288.430125 
L 416.810625 22.318125 
L 59.690625 22.318125 
z
" style="fill:#ffffff;"/>
   </g>
   <g id="PolyCollection_1">
    <defs>
     <path d="M 75.923352 -65.439195 
L 75.923352 -53.044878 
L 81.245558 -67.361579 
L 86.567764 -79.958253 
L 91.889969 -84.3595 
L 97.212175 -91.037255 
L 102.534381 -91.441967 
L 107.856586 -91.441967 
L 113.178792 -93.161995 
L 118.500998 -98.069133 
L 123.823203 -99.586804 
L 129.145409 -102.065668 
L 134.467615 -106.416326 
L 139.78982 -112.891725 
L 145.112026 -115.927068 
L 150.434232 -120.151253 
L 155.756437 -121.972459 
L 161.078643 -127.51196 
L 166.400849 -130.092002 
L 171.723054 -136.06151 
L 177.04526 -140.462757 
L 182.367466 -142.865737 
L 187.689671 -149.012306 
L 193.011877 -152.55354 
L 198.334083 -162.038987 
L 203.656288 -168.969687 
L 208.978494 -173.016811 
L 214.3007 -176.026859 
L 219.622905 -180.905541 
L 224.945111 -183.918751 
L 230.267317 -187.004683 
L 235.589522 -192.923602 
L 240.911728 -196.515425 
L 246.233933 -198.943699 
L 251.556139 -208.375395 
L 256.878345 -211.843907 
L 262.20055 -214.171003 
L 267.522756 -220.646402 
L 272.844962 -222.942512 
L 278.167167 -231.674815 
L 283.489373 -228.993595 
L 288.811579 -232.383061 
L 294.133784 -236.581952 
L 299.45599 -237.745501 
L 304.778196 -238.099624 
L 310.100401 -240.730255 
L 315.422607 -240.679665 
L 320.744813 -242.146748 
L 326.067018 -248.318612 
L 331.389224 -248.318612 
L 336.71143 -254.642243 
L 342.033635 -259.549381 
L 347.355841 -263.368854 
L 352.678047 -264.152985 
L 358.000252 -265.012999 
L 363.322458 -265.114177 
L 368.644664 -266.176547 
L 373.966869 -267.415979 
L 379.289075 -268.807177 
L 384.611281 -269.110712 
L 389.933486 -269.186595 
L 395.255692 -270.324849 
L 400.577898 -275.08022 
L 400.577898 -291.57225 
L 400.577898 -291.57225 
L 395.255692 -290.358113 
L 389.933486 -289.371626 
L 384.611281 -289.270448 
L 379.289075 -287.196297 
L 373.966869 -286.53864 
L 368.644664 -286.513345 
L 363.322458 -286.310989 
L 358.000252 -287.171003 
L 352.678047 -287.069825 
L 347.355841 -283.30094 
L 342.033635 -281.100317 
L 336.71143 -280.89796 
L 331.389224 -269.009534 
L 326.067018 -276.016749 
L 320.744813 -269.457879 
L 315.422607 -276.699069 
L 310.100401 -266.201841 
L 304.778196 -261.117642 
L 299.45599 -266.733026 
L 294.133784 -264.203574 
L 288.811579 -261.72471 
L 283.489373 -259.448203 
L 278.167167 -257.576408 
L 272.844962 -253.008217 
L 267.522756 -246.85153 
L 262.20055 -245.687981 
L 256.878345 -235.216048 
L 251.556139 -229.297129 
L 246.233933 -222.771142 
L 240.911728 -215.688675 
L 235.589522 -212.450975 
L 230.267317 -208.302673 
L 224.945111 -206.3297 
L 219.622905 -198.943699 
L 214.3007 -193.050075 
L 208.978494 -185.537601 
L 203.656288 -178.050421 
L 198.334083 -171.17031 
L 193.011877 -166.263173 
L 187.689671 -163.632542 
L 182.367466 -159.130117 
L 177.04526 -153.970033 
L 171.723054 -152.958252 
L 166.400849 -150.327622 
L 161.078643 -144.965182 
L 155.756437 -143.017504 
L 150.434232 -138.540373 
L 145.112026 -130.243769 
L 139.78982 -130.243769 
L 134.467615 -124.122494 
L 129.145409 -120.277726 
L 123.823203 -119.215356 
L 118.500998 -119.164767 
L 113.178792 -118.152986 
L 107.856586 -113.549382 
L 102.534381 -110.412861 
L 97.212175 -105.758669 
L 91.889969 -97.537948 
L 86.567764 -88.507802 
L 81.245558 -80.261787 
L 75.923352 -65.439195 
z
" id="m2ef059432f" style="stroke:#98df8a;stroke-opacity:0.2;"/>
    </defs>
    <g clip-path="url(#p1ed9225953)">
     <use style="fill:#98df8a;fill-opacity:0.2;stroke:#98df8a;stroke-opacity:0.2;" x="0" xlink:href="#m2ef059432f" y="325.986375"/>
    </g>
   </g>
   <g id="PolyCollection_2">
    <defs>
     <path d="M 75.923352 -53.399002 
L 75.923352 -49.65225 
L 81.245558 -58.382023 
L 86.567764 -68.221593 
L 91.889969 -80.362965 
L 97.212175 -92.35257 
L 102.534381 -97.967955 
L 107.856586 -99.131503 
L 113.178792 -101.028592 
L 118.500998 -101.952475 
L 123.823203 -102.318613 
L 129.145409 -101.660955 
L 134.467615 -104.139819 
L 139.78982 -110.792279 
L 145.112026 -115.244115 
L 150.434232 -117.621801 
L 155.756437 -121.13774 
L 161.078643 -123.869548 
L 166.400849 -126.803713 
L 171.723054 -133.456174 
L 177.04526 -137.174469 
L 182.367466 -139.450976 
L 187.689671 -145.218128 
L 193.011877 -148.000525 
L 198.334083 -152.55354 
L 203.656288 -156.80302 
L 208.978494 -159.888952 
L 214.3007 -160.243076 
L 219.622905 -162.418405 
L 224.945111 -166.718474 
L 230.267317 -167.9832 
L 235.589522 -169.652639 
L 240.911728 -172.536215 
L 246.233933 -174.964489 
L 251.556139 -176.128037 
L 256.878345 -176.988051 
L 262.20055 -179.062202 
L 267.522756 -179.112791 
L 272.844962 -180.478696 
L 278.167167 -182.603436 
L 283.489373 -184.930532 
L 288.811579 -188.016464 
L 294.133784 -190.748273 
L 299.45599 -193.328314 
L 304.778196 -195.244375 
L 310.100401 -197.780151 
L 315.422607 -198.218379 
L 320.744813 -199.702535 
L 326.067018 -201.877864 
L 331.389224 -202.839056 
L 336.71143 -203.572597 
L 342.033635 -204.407316 
L 347.355841 -205.014385 
L 352.678047 -205.216741 
L 358.000252 -204.508495 
L 363.322458 -206.936769 
L 368.644664 -206.380289 
L 373.966869 -208.884447 
L 379.289075 -207.897961 
L 384.611281 -210.250352 
L 389.933486 -210.094158 
L 395.255692 -210.655064 
L 400.577898 -209.466221 
L 400.577898 -240.123186 
L 400.577898 -240.123186 
L 395.255692 -238.403158 
L 389.933486 -238.049035 
L 384.611281 -238.049035 
L 379.289075 -231.624225 
L 373.966869 -231.345986 
L 368.644664 -228.082992 
L 363.322458 -237.543144 
L 358.000252 -237.23961 
L 352.678047 -229.65062 
L 347.355841 -228.082992 
L 342.033635 -230.016758 
L 336.71143 -224.061162 
L 331.389224 -227.425334 
L 326.067018 -223.277032 
L 320.744813 -218.521661 
L 315.422607 -217.643309 
L 310.100401 -214.541568 
L 304.778196 -217.130463 
L 299.45599 -217.307524 
L 294.133784 -210.022701 
L 288.811579 -205.317919 
L 283.489373 -202.586111 
L 278.167167 -200.916672 
L 272.844962 -197.729562 
L 267.522756 -194.08715 
L 262.20055 -197.021315 
L 256.878345 -194.036561 
L 251.556139 -192.468301 
L 246.233933 -189.382369 
L 240.911728 -187.763519 
L 235.589522 -182.350491 
L 230.267317 -180.27634 
L 224.945111 -177.898654 
L 219.622905 -173.598585 
L 214.3007 -172.131502 
L 208.978494 -167.325543 
L 203.656288 -164.745501 
L 198.334083 -159.332473 
L 193.011877 -157.713623 
L 187.689671 -152.401773 
L 182.367466 -149.669964 
L 177.04526 -144.509881 
L 171.723054 -139.75451 
L 166.400849 -135.884448 
L 161.078643 -133.607941 
L 155.756437 -132.469687 
L 150.434232 -129.231988 
L 145.112026 -122.680706 
L 139.78982 -121.491863 
L 134.467615 -118.304753 
L 129.145409 -115.218821 
L 123.823203 -111.955827 
L 118.500998 -110.716395 
L 113.178792 -109.173429 
L 107.856586 -106.922217 
L 102.534381 -105.556312 
L 97.212175 -103.229216 
L 91.889969 -96.09616 
L 86.567764 -86.383062 
L 81.245558 -67.285696 
L 75.923352 -53.399002 
z
" id="me2703b415e" style="stroke:#1f77b4;stroke-opacity:0.2;"/>
    </defs>
    <g clip-path="url(#p1ed9225953)">
     <use style="fill:#1f77b4;fill-opacity:0.2;stroke:#1f77b4;stroke-opacity:0.2;" x="0" xlink:href="#me2703b415e" y="325.986375"/>
    </g>
   </g>
   <g id="matplotlib.axis_1">
    <g id="xtick_1">
     <g id="line2d_1">
      <defs>
       <path d="M 0 0 
L 0 3.5 
" id="mbc0fb4769a" style="stroke:#000000;stroke-width:0.8;"/>
      </defs>
      <g>
       <use style="stroke:#000000;stroke-width:0.8;" x="75.923352" xlink:href="#mbc0fb4769a" y="288.430125"/>
      </g>
     </g>
     <g id="text_1">
      <!-- 15m -->
      <g transform="translate(64.69054 303.028562)scale(0.1 -0.1)">
       <defs>
        <path d="M 794 531 
L 1825 531 
L 1825 4091 
L 703 3866 
L 703 4441 
L 1819 4666 
L 2450 4666 
L 2450 531 
L 3481 531 
L 3481 0 
L 794 0 
L 794 531 
z
" id="DejaVuSans-31" transform="scale(0.015625)"/>
        <path d="M 691 4666 
L 3169 4666 
L 3169 4134 
L 1269 4134 
L 1269 2991 
Q 1406 3038 1543 3061 
Q 1681 3084 1819 3084 
Q 2600 3084 3056 2656 
Q 3513 2228 3513 1497 
Q 3513 744 3044 326 
Q 2575 -91 1722 -91 
Q 1428 -91 1123 -41 
Q 819 9 494 109 
L 494 744 
Q 775 591 1075 516 
Q 1375 441 1709 441 
Q 2250 441 2565 725 
Q 2881 1009 2881 1497 
Q 2881 1984 2565 2268 
Q 2250 2553 1709 2553 
Q 1456 2553 1204 2497 
Q 953 2441 691 2322 
L 691 4666 
z
" id="DejaVuSans-35" transform="scale(0.015625)"/>
        <path d="M 3328 2828 
Q 3544 3216 3844 3400 
Q 4144 3584 4550 3584 
Q 5097 3584 5394 3201 
Q 5691 2819 5691 2113 
L 5691 0 
L 5113 0 
L 5113 2094 
Q 5113 2597 4934 2840 
Q 4756 3084 4391 3084 
Q 3944 3084 3684 2787 
Q 3425 2491 3425 1978 
L 3425 0 
L 2847 0 
L 2847 2094 
Q 2847 2600 2669 2842 
Q 2491 3084 2119 3084 
Q 1678 3084 1418 2786 
Q 1159 2488 1159 1978 
L 1159 0 
L 581 0 
L 581 3500 
L 1159 3500 
L 1159 2956 
Q 1356 3278 1631 3431 
Q 1906 3584 2284 3584 
Q 2666 3584 2933 3390 
Q 3200 3197 3328 2828 
z
" id="DejaVuSans-6d" transform="scale(0.015625)"/>
       </defs>
       <use xlink:href="#DejaVuSans-31"/>
       <use x="63.623047" xlink:href="#DejaVuSans-35"/>
       <use x="127.246094" xlink:href="#DejaVuSans-6d"/>
      </g>
     </g>
    </g>
    <g id="xtick_2">
     <g id="line2d_2">
      <g>
       <use style="stroke:#000000;stroke-width:0.8;" x="130.919477" xlink:href="#mbc0fb4769a" y="288.430125"/>
      </g>
     </g>
     <g id="text_2">
      <!-- 2h:50m -->
      <g transform="translate(111.65229 303.028562)scale(0.1 -0.1)">
       <defs>
        <path d="M 1228 531 
L 3431 531 
L 3431 0 
L 469 0 
L 469 531 
Q 828 903 1448 1529 
Q 2069 2156 2228 2338 
Q 2531 2678 2651 2914 
Q 2772 3150 2772 3378 
Q 2772 3750 2511 3984 
Q 2250 4219 1831 4219 
Q 1534 4219 1204 4116 
Q 875 4013 500 3803 
L 500 4441 
Q 881 4594 1212 4672 
Q 1544 4750 1819 4750 
Q 2544 4750 2975 4387 
Q 3406 4025 3406 3419 
Q 3406 3131 3298 2873 
Q 3191 2616 2906 2266 
Q 2828 2175 2409 1742 
Q 1991 1309 1228 531 
z
" id="DejaVuSans-32" transform="scale(0.015625)"/>
        <path d="M 3513 2113 
L 3513 0 
L 2938 0 
L 2938 2094 
Q 2938 2591 2744 2837 
Q 2550 3084 2163 3084 
Q 1697 3084 1428 2787 
Q 1159 2491 1159 1978 
L 1159 0 
L 581 0 
L 581 4863 
L 1159 4863 
L 1159 2956 
Q 1366 3272 1645 3428 
Q 1925 3584 2291 3584 
Q 2894 3584 3203 3211 
Q 3513 2838 3513 2113 
z
" id="DejaVuSans-68" transform="scale(0.015625)"/>
        <path d="M 750 794 
L 1409 794 
L 1409 0 
L 750 0 
L 750 794 
z
M 750 3309 
L 1409 3309 
L 1409 2516 
L 750 2516 
L 750 3309 
z
" id="DejaVuSans-3a" transform="scale(0.015625)"/>
        <path d="M 2034 4250 
Q 1547 4250 1301 3770 
Q 1056 3291 1056 2328 
Q 1056 1369 1301 889 
Q 1547 409 2034 409 
Q 2525 409 2770 889 
Q 3016 1369 3016 2328 
Q 3016 3291 2770 3770 
Q 2525 4250 2034 4250 
z
M 2034 4750 
Q 2819 4750 3233 4129 
Q 3647 3509 3647 2328 
Q 3647 1150 3233 529 
Q 2819 -91 2034 -91 
Q 1250 -91 836 529 
Q 422 1150 422 2328 
Q 422 3509 836 4129 
Q 1250 4750 2034 4750 
z
" id="DejaVuSans-30" transform="scale(0.015625)"/>
       </defs>
       <use xlink:href="#DejaVuSans-32"/>
       <use x="63.623047" xlink:href="#DejaVuSans-68"/>
       <use x="127.001953" xlink:href="#DejaVuSans-3a"/>
       <use x="160.693359" xlink:href="#DejaVuSans-35"/>
       <use x="224.316406" xlink:href="#DejaVuSans-30"/>
       <use x="287.939453" xlink:href="#DejaVuSans-6d"/>
      </g>
     </g>
    </g>
    <g id="xtick_3">
     <g id="line2d_3">
      <g>
       <use style="stroke:#000000;stroke-width:0.8;" x="185.915603" xlink:href="#mbc0fb4769a" y="288.430125"/>
      </g>
     </g>
     <g id="text_3">
      <!-- 5h:25m -->
      <g transform="translate(166.648415 303.028562)scale(0.1 -0.1)">
       <use xlink:href="#DejaVuSans-35"/>
       <use x="63.623047" xlink:href="#DejaVuSans-68"/>
       <use x="127.001953" xlink:href="#DejaVuSans-3a"/>
       <use x="160.693359" xlink:href="#DejaVuSans-32"/>
       <use x="224.316406" xlink:href="#DejaVuSans-35"/>
       <use x="287.939453" xlink:href="#DejaVuSans-6d"/>
      </g>
     </g>
    </g>
    <g id="xtick_4">
     <g id="line2d_4">
      <g>
       <use style="stroke:#000000;stroke-width:0.8;" x="240.911728" xlink:href="#mbc0fb4769a" y="288.430125"/>
      </g>
     </g>
     <g id="text_4">
      <!-- 8h -->
      <g transform="translate(234.561728 303.028562)scale(0.1 -0.1)">
       <defs>
        <path d="M 2034 2216 
Q 1584 2216 1326 1975 
Q 1069 1734 1069 1313 
Q 1069 891 1326 650 
Q 1584 409 2034 409 
Q 2484 409 2743 651 
Q 3003 894 3003 1313 
Q 3003 1734 2745 1975 
Q 2488 2216 2034 2216 
z
M 1403 2484 
Q 997 2584 770 2862 
Q 544 3141 544 3541 
Q 544 4100 942 4425 
Q 1341 4750 2034 4750 
Q 2731 4750 3128 4425 
Q 3525 4100 3525 3541 
Q 3525 3141 3298 2862 
Q 3072 2584 2669 2484 
Q 3125 2378 3379 2068 
Q 3634 1759 3634 1313 
Q 3634 634 3220 271 
Q 2806 -91 2034 -91 
Q 1263 -91 848 271 
Q 434 634 434 1313 
Q 434 1759 690 2068 
Q 947 2378 1403 2484 
z
M 1172 3481 
Q 1172 3119 1398 2916 
Q 1625 2713 2034 2713 
Q 2441 2713 2670 2916 
Q 2900 3119 2900 3481 
Q 2900 3844 2670 4047 
Q 2441 4250 2034 4250 
Q 1625 4250 1398 4047 
Q 1172 3844 1172 3481 
z
" id="DejaVuSans-38" transform="scale(0.015625)"/>
       </defs>
       <use xlink:href="#DejaVuSans-38"/>
       <use x="63.623047" xlink:href="#DejaVuSans-68"/>
      </g>
     </g>
    </g>
    <g id="xtick_5">
     <g id="line2d_5">
      <g>
       <use style="stroke:#000000;stroke-width:0.8;" x="295.907853" xlink:href="#mbc0fb4769a" y="288.430125"/>
      </g>
     </g>
     <g id="text_5">
      <!-- 10h:35m -->
      <g transform="translate(273.459416 303.028562)scale(0.1 -0.1)">
       <defs>
        <path d="M 2597 2516 
Q 3050 2419 3304 2112 
Q 3559 1806 3559 1356 
Q 3559 666 3084 287 
Q 2609 -91 1734 -91 
Q 1441 -91 1130 -33 
Q 819 25 488 141 
L 488 750 
Q 750 597 1062 519 
Q 1375 441 1716 441 
Q 2309 441 2620 675 
Q 2931 909 2931 1356 
Q 2931 1769 2642 2001 
Q 2353 2234 1838 2234 
L 1294 2234 
L 1294 2753 
L 1863 2753 
Q 2328 2753 2575 2939 
Q 2822 3125 2822 3475 
Q 2822 3834 2567 4026 
Q 2313 4219 1838 4219 
Q 1578 4219 1281 4162 
Q 984 4106 628 3988 
L 628 4550 
Q 988 4650 1302 4700 
Q 1616 4750 1894 4750 
Q 2613 4750 3031 4423 
Q 3450 4097 3450 3541 
Q 3450 3153 3228 2886 
Q 3006 2619 2597 2516 
z
" id="DejaVuSans-33" transform="scale(0.015625)"/>
       </defs>
       <use xlink:href="#DejaVuSans-31"/>
       <use x="63.623047" xlink:href="#DejaVuSans-30"/>
       <use x="127.246094" xlink:href="#DejaVuSans-68"/>
       <use x="190.625" xlink:href="#DejaVuSans-3a"/>
       <use x="224.316406" xlink:href="#DejaVuSans-33"/>
       <use x="287.939453" xlink:href="#DejaVuSans-35"/>
       <use x="351.5625" xlink:href="#DejaVuSans-6d"/>
      </g>
     </g>
    </g>
    <g id="xtick_6">
     <g id="line2d_6">
      <g>
       <use style="stroke:#000000;stroke-width:0.8;" x="350.903978" xlink:href="#mbc0fb4769a" y="288.430125"/>
      </g>
     </g>
     <g id="text_6">
      <!-- 13h:10m -->
      <g transform="translate(328.455541 303.028562)scale(0.1 -0.1)">
       <use xlink:href="#DejaVuSans-31"/>
       <use x="63.623047" xlink:href="#DejaVuSans-33"/>
       <use x="127.246094" xlink:href="#DejaVuSans-68"/>
       <use x="190.625" xlink:href="#DejaVuSans-3a"/>
       <use x="224.316406" xlink:href="#DejaVuSans-31"/>
       <use x="287.939453" xlink:href="#DejaVuSans-30"/>
       <use x="351.5625" xlink:href="#DejaVuSans-6d"/>
      </g>
     </g>
    </g>
    <g id="text_7">
     <!-- Time (hour:minute) -->
     <g transform="translate(189.843594 316.706687)scale(0.1 -0.1)">
      <defs>
       <path d="M -19 4666 
L 3928 4666 
L 3928 4134 
L 2272 4134 
L 2272 0 
L 1638 0 
L 1638 4134 
L -19 4134 
L -19 4666 
z
" id="DejaVuSans-54" transform="scale(0.015625)"/>
       <path d="M 603 3500 
L 1178 3500 
L 1178 0 
L 603 0 
L 603 3500 
z
M 603 4863 
L 1178 4863 
L 1178 4134 
L 603 4134 
L 603 4863 
z
" id="DejaVuSans-69" transform="scale(0.015625)"/>
       <path d="M 3597 1894 
L 3597 1613 
L 953 1613 
Q 991 1019 1311 708 
Q 1631 397 2203 397 
Q 2534 397 2845 478 
Q 3156 559 3463 722 
L 3463 178 
Q 3153 47 2828 -22 
Q 2503 -91 2169 -91 
Q 1331 -91 842 396 
Q 353 884 353 1716 
Q 353 2575 817 3079 
Q 1281 3584 2069 3584 
Q 2775 3584 3186 3129 
Q 3597 2675 3597 1894 
z
M 3022 2063 
Q 3016 2534 2758 2815 
Q 2500 3097 2075 3097 
Q 1594 3097 1305 2825 
Q 1016 2553 972 2059 
L 3022 2063 
z
" id="DejaVuSans-65" transform="scale(0.015625)"/>
       <path id="DejaVuSans-20" transform="scale(0.015625)"/>
       <path d="M 1984 4856 
Q 1566 4138 1362 3434 
Q 1159 2731 1159 2009 
Q 1159 1288 1364 580 
Q 1569 -128 1984 -844 
L 1484 -844 
Q 1016 -109 783 600 
Q 550 1309 550 2009 
Q 550 2706 781 3412 
Q 1013 4119 1484 4856 
L 1984 4856 
z
" id="DejaVuSans-28" transform="scale(0.015625)"/>
       <path d="M 1959 3097 
Q 1497 3097 1228 2736 
Q 959 2375 959 1747 
Q 959 1119 1226 758 
Q 1494 397 1959 397 
Q 2419 397 2687 759 
Q 2956 1122 2956 1747 
Q 2956 2369 2687 2733 
Q 2419 3097 1959 3097 
z
M 1959 3584 
Q 2709 3584 3137 3096 
Q 3566 2609 3566 1747 
Q 3566 888 3137 398 
Q 2709 -91 1959 -91 
Q 1206 -91 779 398 
Q 353 888 353 1747 
Q 353 2609 779 3096 
Q 1206 3584 1959 3584 
z
" id="DejaVuSans-6f" transform="scale(0.015625)"/>
       <path d="M 544 1381 
L 544 3500 
L 1119 3500 
L 1119 1403 
Q 1119 906 1312 657 
Q 1506 409 1894 409 
Q 2359 409 2629 706 
Q 2900 1003 2900 1516 
L 2900 3500 
L 3475 3500 
L 3475 0 
L 2900 0 
L 2900 538 
Q 2691 219 2414 64 
Q 2138 -91 1772 -91 
Q 1169 -91 856 284 
Q 544 659 544 1381 
z
M 1991 3584 
L 1991 3584 
z
" id="DejaVuSans-75" transform="scale(0.015625)"/>
       <path d="M 2631 2963 
Q 2534 3019 2420 3045 
Q 2306 3072 2169 3072 
Q 1681 3072 1420 2755 
Q 1159 2438 1159 1844 
L 1159 0 
L 581 0 
L 581 3500 
L 1159 3500 
L 1159 2956 
Q 1341 3275 1631 3429 
Q 1922 3584 2338 3584 
Q 2397 3584 2469 3576 
Q 2541 3569 2628 3553 
L 2631 2963 
z
" id="DejaVuSans-72" transform="scale(0.015625)"/>
       <path d="M 3513 2113 
L 3513 0 
L 2938 0 
L 2938 2094 
Q 2938 2591 2744 2837 
Q 2550 3084 2163 3084 
Q 1697 3084 1428 2787 
Q 1159 2491 1159 1978 
L 1159 0 
L 581 0 
L 581 3500 
L 1159 3500 
L 1159 2956 
Q 1366 3272 1645 3428 
Q 1925 3584 2291 3584 
Q 2894 3584 3203 3211 
Q 3513 2838 3513 2113 
z
" id="DejaVuSans-6e" transform="scale(0.015625)"/>
       <path d="M 1172 4494 
L 1172 3500 
L 2356 3500 
L 2356 3053 
L 1172 3053 
L 1172 1153 
Q 1172 725 1289 603 
Q 1406 481 1766 481 
L 2356 481 
L 2356 0 
L 1766 0 
Q 1100 0 847 248 
Q 594 497 594 1153 
L 594 3053 
L 172 3053 
L 172 3500 
L 594 3500 
L 594 4494 
L 1172 4494 
z
" id="DejaVuSans-74" transform="scale(0.015625)"/>
       <path d="M 513 4856 
L 1013 4856 
Q 1481 4119 1714 3412 
Q 1947 2706 1947 2009 
Q 1947 1309 1714 600 
Q 1481 -109 1013 -844 
L 513 -844 
Q 928 -128 1133 580 
Q 1338 1288 1338 2009 
Q 1338 2731 1133 3434 
Q 928 4138 513 4856 
z
" id="DejaVuSans-29" transform="scale(0.015625)"/>
      </defs>
      <use xlink:href="#DejaVuSans-54"/>
      <use x="57.958984" xlink:href="#DejaVuSans-69"/>
      <use x="85.742188" xlink:href="#DejaVuSans-6d"/>
      <use x="183.154297" xlink:href="#DejaVuSans-65"/>
      <use x="244.677734" xlink:href="#DejaVuSans-20"/>
      <use x="276.464844" xlink:href="#DejaVuSans-28"/>
      <use x="315.478516" xlink:href="#DejaVuSans-68"/>
      <use x="378.857422" xlink:href="#DejaVuSans-6f"/>
      <use x="440.039062" xlink:href="#DejaVuSans-75"/>
      <use x="503.417969" xlink:href="#DejaVuSans-72"/>
      <use x="542.78125" xlink:href="#DejaVuSans-3a"/>
      <use x="576.472656" xlink:href="#DejaVuSans-6d"/>
      <use x="673.884766" xlink:href="#DejaVuSans-69"/>
      <use x="701.667969" xlink:href="#DejaVuSans-6e"/>
      <use x="765.046875" xlink:href="#DejaVuSans-75"/>
      <use x="828.425781" xlink:href="#DejaVuSans-74"/>
      <use x="867.634766" xlink:href="#DejaVuSans-65"/>
      <use x="929.158203" xlink:href="#DejaVuSans-29"/>
     </g>
    </g>
   </g>
   <g id="matplotlib.axis_2">
    <g id="ytick_1">
     <g id="line2d_7">
      <defs>
       <path d="M 0 0 
L -3.5 0 
" id="md7227b0d9b" style="stroke:#000000;stroke-width:0.8;"/>
      </defs>
      <g>
       <use style="stroke:#000000;stroke-width:0.8;" x="59.690625" xlink:href="#md7227b0d9b" y="257.107124"/>
      </g>
     </g>
     <g id="text_8">
      <!-- 13000 -->
      <g transform="translate(20.878125 260.906343)scale(0.1 -0.1)">
       <use xlink:href="#DejaVuSans-31"/>
       <use x="63.623047" xlink:href="#DejaVuSans-33"/>
       <use x="127.246094" xlink:href="#DejaVuSans-30"/>
       <use x="190.869141" xlink:href="#DejaVuSans-30"/>
       <use x="254.492188" xlink:href="#DejaVuSans-30"/>
      </g>
     </g>
    </g>
    <g id="ytick_2">
     <g id="line2d_8">
      <g>
       <use style="stroke:#000000;stroke-width:0.8;" x="59.690625" xlink:href="#md7227b0d9b" y="206.518074"/>
      </g>
     </g>
     <g id="text_9">
      <!-- 14000 -->
      <g transform="translate(20.878125 210.317293)scale(0.1 -0.1)">
       <defs>
        <path d="M 2419 4116 
L 825 1625 
L 2419 1625 
L 2419 4116 
z
M 2253 4666 
L 3047 4666 
L 3047 1625 
L 3713 1625 
L 3713 1100 
L 3047 1100 
L 3047 0 
L 2419 0 
L 2419 1100 
L 313 1100 
L 313 1709 
L 2253 4666 
z
" id="DejaVuSans-34" transform="scale(0.015625)"/>
       </defs>
       <use xlink:href="#DejaVuSans-31"/>
       <use x="63.623047" xlink:href="#DejaVuSans-34"/>
       <use x="127.246094" xlink:href="#DejaVuSans-30"/>
       <use x="190.869141" xlink:href="#DejaVuSans-30"/>
       <use x="254.492188" xlink:href="#DejaVuSans-30"/>
      </g>
     </g>
    </g>
    <g id="ytick_3">
     <g id="line2d_9">
      <g>
       <use style="stroke:#000000;stroke-width:0.8;" x="59.690625" xlink:href="#md7227b0d9b" y="155.929024"/>
      </g>
     </g>
     <g id="text_10">
      <!-- 15000 -->
      <g transform="translate(20.878125 159.728242)scale(0.1 -0.1)">
       <use xlink:href="#DejaVuSans-31"/>
       <use x="63.623047" xlink:href="#DejaVuSans-35"/>
       <use x="127.246094" xlink:href="#DejaVuSans-30"/>
       <use x="190.869141" xlink:href="#DejaVuSans-30"/>
       <use x="254.492188" xlink:href="#DejaVuSans-30"/>
      </g>
     </g>
    </g>
    <g id="ytick_4">
     <g id="line2d_10">
      <g>
       <use style="stroke:#000000;stroke-width:0.8;" x="59.690625" xlink:href="#md7227b0d9b" y="105.339973"/>
      </g>
     </g>
     <g id="text_11">
      <!-- 16000 -->
      <g transform="translate(20.878125 109.139192)scale(0.1 -0.1)">
       <defs>
        <path d="M 2113 2584 
Q 1688 2584 1439 2293 
Q 1191 2003 1191 1497 
Q 1191 994 1439 701 
Q 1688 409 2113 409 
Q 2538 409 2786 701 
Q 3034 994 3034 1497 
Q 3034 2003 2786 2293 
Q 2538 2584 2113 2584 
z
M 3366 4563 
L 3366 3988 
Q 3128 4100 2886 4159 
Q 2644 4219 2406 4219 
Q 1781 4219 1451 3797 
Q 1122 3375 1075 2522 
Q 1259 2794 1537 2939 
Q 1816 3084 2150 3084 
Q 2853 3084 3261 2657 
Q 3669 2231 3669 1497 
Q 3669 778 3244 343 
Q 2819 -91 2113 -91 
Q 1303 -91 875 529 
Q 447 1150 447 2328 
Q 447 3434 972 4092 
Q 1497 4750 2381 4750 
Q 2619 4750 2861 4703 
Q 3103 4656 3366 4563 
z
" id="DejaVuSans-36" transform="scale(0.015625)"/>
       </defs>
       <use xlink:href="#DejaVuSans-31"/>
       <use x="63.623047" xlink:href="#DejaVuSans-36"/>
       <use x="127.246094" xlink:href="#DejaVuSans-30"/>
       <use x="190.869141" xlink:href="#DejaVuSans-30"/>
       <use x="254.492188" xlink:href="#DejaVuSans-30"/>
      </g>
     </g>
    </g>
    <g id="ytick_5">
     <g id="line2d_11">
      <g>
       <use style="stroke:#000000;stroke-width:0.8;" x="59.690625" xlink:href="#md7227b0d9b" y="54.750923"/>
      </g>
     </g>
     <g id="text_12">
      <!-- 17000 -->
      <g transform="translate(20.878125 58.550142)scale(0.1 -0.1)">
       <defs>
        <path d="M 525 4666 
L 3525 4666 
L 3525 4397 
L 1831 0 
L 1172 0 
L 2766 4134 
L 525 4134 
L 525 4666 
z
" id="DejaVuSans-37" transform="scale(0.015625)"/>
       </defs>
       <use xlink:href="#DejaVuSans-31"/>
       <use x="63.623047" xlink:href="#DejaVuSans-37"/>
       <use x="127.246094" xlink:href="#DejaVuSans-30"/>
       <use x="190.869141" xlink:href="#DejaVuSans-30"/>
       <use x="254.492188" xlink:href="#DejaVuSans-30"/>
      </g>
     </g>
    </g>
    <g id="text_13">
     <!-- Code region coverage -->
     <g transform="translate(14.798438 210.379594)rotate(-90)scale(0.1 -0.1)">
      <defs>
       <path d="M 4122 4306 
L 4122 3641 
Q 3803 3938 3442 4084 
Q 3081 4231 2675 4231 
Q 1875 4231 1450 3742 
Q 1025 3253 1025 2328 
Q 1025 1406 1450 917 
Q 1875 428 2675 428 
Q 3081 428 3442 575 
Q 3803 722 4122 1019 
L 4122 359 
Q 3791 134 3420 21 
Q 3050 -91 2638 -91 
Q 1578 -91 968 557 
Q 359 1206 359 2328 
Q 359 3453 968 4101 
Q 1578 4750 2638 4750 
Q 3056 4750 3426 4639 
Q 3797 4528 4122 4306 
z
" id="DejaVuSans-43" transform="scale(0.015625)"/>
       <path d="M 2906 2969 
L 2906 4863 
L 3481 4863 
L 3481 0 
L 2906 0 
L 2906 525 
Q 2725 213 2448 61 
Q 2172 -91 1784 -91 
Q 1150 -91 751 415 
Q 353 922 353 1747 
Q 353 2572 751 3078 
Q 1150 3584 1784 3584 
Q 2172 3584 2448 3432 
Q 2725 3281 2906 2969 
z
M 947 1747 
Q 947 1113 1208 752 
Q 1469 391 1925 391 
Q 2381 391 2643 752 
Q 2906 1113 2906 1747 
Q 2906 2381 2643 2742 
Q 2381 3103 1925 3103 
Q 1469 3103 1208 2742 
Q 947 2381 947 1747 
z
" id="DejaVuSans-64" transform="scale(0.015625)"/>
       <path d="M 2906 1791 
Q 2906 2416 2648 2759 
Q 2391 3103 1925 3103 
Q 1463 3103 1205 2759 
Q 947 2416 947 1791 
Q 947 1169 1205 825 
Q 1463 481 1925 481 
Q 2391 481 2648 825 
Q 2906 1169 2906 1791 
z
M 3481 434 
Q 3481 -459 3084 -895 
Q 2688 -1331 1869 -1331 
Q 1566 -1331 1297 -1286 
Q 1028 -1241 775 -1147 
L 775 -588 
Q 1028 -725 1275 -790 
Q 1522 -856 1778 -856 
Q 2344 -856 2625 -561 
Q 2906 -266 2906 331 
L 2906 616 
Q 2728 306 2450 153 
Q 2172 0 1784 0 
Q 1141 0 747 490 
Q 353 981 353 1791 
Q 353 2603 747 3093 
Q 1141 3584 1784 3584 
Q 2172 3584 2450 3431 
Q 2728 3278 2906 2969 
L 2906 3500 
L 3481 3500 
L 3481 434 
z
" id="DejaVuSans-67" transform="scale(0.015625)"/>
       <path d="M 3122 3366 
L 3122 2828 
Q 2878 2963 2633 3030 
Q 2388 3097 2138 3097 
Q 1578 3097 1268 2742 
Q 959 2388 959 1747 
Q 959 1106 1268 751 
Q 1578 397 2138 397 
Q 2388 397 2633 464 
Q 2878 531 3122 666 
L 3122 134 
Q 2881 22 2623 -34 
Q 2366 -91 2075 -91 
Q 1284 -91 818 406 
Q 353 903 353 1747 
Q 353 2603 823 3093 
Q 1294 3584 2113 3584 
Q 2378 3584 2631 3529 
Q 2884 3475 3122 3366 
z
" id="DejaVuSans-63" transform="scale(0.015625)"/>
       <path d="M 191 3500 
L 800 3500 
L 1894 563 
L 2988 3500 
L 3597 3500 
L 2284 0 
L 1503 0 
L 191 3500 
z
" id="DejaVuSans-76" transform="scale(0.015625)"/>
       <path d="M 2194 1759 
Q 1497 1759 1228 1600 
Q 959 1441 959 1056 
Q 959 750 1161 570 
Q 1363 391 1709 391 
Q 2188 391 2477 730 
Q 2766 1069 2766 1631 
L 2766 1759 
L 2194 1759 
z
M 3341 1997 
L 3341 0 
L 2766 0 
L 2766 531 
Q 2569 213 2275 61 
Q 1981 -91 1556 -91 
Q 1019 -91 701 211 
Q 384 513 384 1019 
Q 384 1609 779 1909 
Q 1175 2209 1959 2209 
L 2766 2209 
L 2766 2266 
Q 2766 2663 2505 2880 
Q 2244 3097 1772 3097 
Q 1472 3097 1187 3025 
Q 903 2953 641 2809 
L 641 3341 
Q 956 3463 1253 3523 
Q 1550 3584 1831 3584 
Q 2591 3584 2966 3190 
Q 3341 2797 3341 1997 
z
" id="DejaVuSans-61" transform="scale(0.015625)"/>
      </defs>
      <use xlink:href="#DejaVuSans-43"/>
      <use x="69.824219" xlink:href="#DejaVuSans-6f"/>
      <use x="131.005859" xlink:href="#DejaVuSans-64"/>
      <use x="194.482422" xlink:href="#DejaVuSans-65"/>
      <use x="256.005859" xlink:href="#DejaVuSans-20"/>
      <use x="287.792969" xlink:href="#DejaVuSans-72"/>
      <use x="326.65625" xlink:href="#DejaVuSans-65"/>
      <use x="388.179688" xlink:href="#DejaVuSans-67"/>
      <use x="451.65625" xlink:href="#DejaVuSans-69"/>
      <use x="479.439453" xlink:href="#DejaVuSans-6f"/>
      <use x="540.621094" xlink:href="#DejaVuSans-6e"/>
      <use x="604" xlink:href="#DejaVuSans-20"/>
      <use x="635.787109" xlink:href="#DejaVuSans-63"/>
      <use x="690.767578" xlink:href="#DejaVuSans-6f"/>
      <use x="751.949219" xlink:href="#DejaVuSans-76"/>
      <use x="811.128906" xlink:href="#DejaVuSans-65"/>
      <use x="872.652344" xlink:href="#DejaVuSans-72"/>
      <use x="913.765625" xlink:href="#DejaVuSans-61"/>
      <use x="975.044922" xlink:href="#DejaVuSans-67"/>
      <use x="1038.521484" xlink:href="#DejaVuSans-65"/>
     </g>
    </g>
   </g>
   <g id="line2d_12">
    <path clip-path="url(#p1ed9225953)" d="M 75.923352 264.847249 
L 81.245558 249.468178 
L 86.567764 243.043368 
L 91.889969 235.809134 
L 97.212175 230.168455 
L 102.534381 222.858337 
L 107.856586 220.935953 
L 113.178792 219.165336 
L 118.500998 218.558268 
L 123.823203 217.091185 
L 129.145409 215.522925 
L 134.467615 208.642814 
L 139.78982 204.494512 
L 145.112026 202.369772 
L 150.434232 196.982038 
L 155.756437 195.869079 
L 161.078643 191.594304 
L 166.400849 187.951892 
L 171.723054 182.23533 
L 177.04526 177.075247 
L 182.367466 172.092225 
L 187.689671 170.321608 
L 193.011877 167.868039 
L 198.334083 159.343785 
L 203.656288 152.38779 
L 208.978494 147.935954 
L 214.3007 143.433528 
L 219.622905 137.868733 
L 224.945111 135.035746 
L 230.267317 126.536785 
L 235.589522 124.209689 
L 240.911728 119.201373 
L 246.233933 115.913085 
L 251.556139 112.169495 
L 256.878345 104.075247 
L 262.20055 99.471644 
L 267.522756 95.019807 
L 272.844962 95.298047 
L 278.167167 92.035053 
L 283.489373 88.443231 
L 288.811579 87.836162 
L 294.133784 83.080791 
L 299.45599 79.185434 
L 304.778196 78.983078 
L 310.100401 76.301859 
L 315.422607 70.484118 
L 320.744813 70.281762 
L 326.067018 68.561734 
L 331.389224 65.222857 
L 336.71143 61.529856 
L 342.033635 61.479267 
L 347.355841 56.218006 
L 352.678047 60.012184 
L 358.000252 58.393335 
L 363.322458 53.182663 
L 368.644664 50.400265 
L 373.966869 49.236717 
L 379.289075 48.073169 
L 384.611281 45.923134 
L 389.933486 45.84725 
L 395.255692 45.644894 
L 400.577898 43.368387 
" style="fill:none;stroke:#98df8a;stroke-linecap:square;stroke-width:1.5;"/>
    <defs>
     <path d="M -0 3 
L 3 -3 
L -3 -3 
z
" id="mfd4fa0644b" style="stroke:#ffffff;stroke-linejoin:miter;stroke-width:0.75;"/>
    </defs>
    <g clip-path="url(#p1ed9225953)">
     <use style="fill:#98df8a;stroke:#ffffff;stroke-linejoin:miter;stroke-width:0.75;" x="75.923352" xlink:href="#mfd4fa0644b" y="264.847249"/>
     <use style="fill:#98df8a;stroke:#ffffff;stroke-linejoin:miter;stroke-width:0.75;" x="81.245558" xlink:href="#mfd4fa0644b" y="249.468178"/>
     <use style="fill:#98df8a;stroke:#ffffff;stroke-linejoin:miter;stroke-width:0.75;" x="86.567764" xlink:href="#mfd4fa0644b" y="243.043368"/>
     <use style="fill:#98df8a;stroke:#ffffff;stroke-linejoin:miter;stroke-width:0.75;" x="91.889969" xlink:href="#mfd4fa0644b" y="235.809134"/>
     <use style="fill:#98df8a;stroke:#ffffff;stroke-linejoin:miter;stroke-width:0.75;" x="97.212175" xlink:href="#mfd4fa0644b" y="230.168455"/>
     <use style="fill:#98df8a;stroke:#ffffff;stroke-linejoin:miter;stroke-width:0.75;" x="102.534381" xlink:href="#mfd4fa0644b" y="222.858337"/>
     <use style="fill:#98df8a;stroke:#ffffff;stroke-linejoin:miter;stroke-width:0.75;" x="107.856586" xlink:href="#mfd4fa0644b" y="220.935953"/>
     <use style="fill:#98df8a;stroke:#ffffff;stroke-linejoin:miter;stroke-width:0.75;" x="113.178792" xlink:href="#mfd4fa0644b" y="219.165336"/>
     <use style="fill:#98df8a;stroke:#ffffff;stroke-linejoin:miter;stroke-width:0.75;" x="118.500998" xlink:href="#mfd4fa0644b" y="218.558268"/>
     <use style="fill:#98df8a;stroke:#ffffff;stroke-linejoin:miter;stroke-width:0.75;" x="123.823203" xlink:href="#mfd4fa0644b" y="217.091185"/>
     <use style="fill:#98df8a;stroke:#ffffff;stroke-linejoin:miter;stroke-width:0.75;" x="129.145409" xlink:href="#mfd4fa0644b" y="215.522925"/>
     <use style="fill:#98df8a;stroke:#ffffff;stroke-linejoin:miter;stroke-width:0.75;" x="134.467615" xlink:href="#mfd4fa0644b" y="208.642814"/>
     <use style="fill:#98df8a;stroke:#ffffff;stroke-linejoin:miter;stroke-width:0.75;" x="139.78982" xlink:href="#mfd4fa0644b" y="204.494512"/>
     <use style="fill:#98df8a;stroke:#ffffff;stroke-linejoin:miter;stroke-width:0.75;" x="145.112026" xlink:href="#mfd4fa0644b" y="202.369772"/>
     <use style="fill:#98df8a;stroke:#ffffff;stroke-linejoin:miter;stroke-width:0.75;" x="150.434232" xlink:href="#mfd4fa0644b" y="196.982038"/>
     <use style="fill:#98df8a;stroke:#ffffff;stroke-linejoin:miter;stroke-width:0.75;" x="155.756437" xlink:href="#mfd4fa0644b" y="195.869079"/>
     <use style="fill:#98df8a;stroke:#ffffff;stroke-linejoin:miter;stroke-width:0.75;" x="161.078643" xlink:href="#mfd4fa0644b" y="191.594304"/>
     <use style="fill:#98df8a;stroke:#ffffff;stroke-linejoin:miter;stroke-width:0.75;" x="166.400849" xlink:href="#mfd4fa0644b" y="187.951892"/>
     <use style="fill:#98df8a;stroke:#ffffff;stroke-linejoin:miter;stroke-width:0.75;" x="171.723054" xlink:href="#mfd4fa0644b" y="182.23533"/>
     <use style="fill:#98df8a;stroke:#ffffff;stroke-linejoin:miter;stroke-width:0.75;" x="177.04526" xlink:href="#mfd4fa0644b" y="177.075247"/>
     <use style="fill:#98df8a;stroke:#ffffff;stroke-linejoin:miter;stroke-width:0.75;" x="182.367466" xlink:href="#mfd4fa0644b" y="172.092225"/>
     <use style="fill:#98df8a;stroke:#ffffff;stroke-linejoin:miter;stroke-width:0.75;" x="187.689671" xlink:href="#mfd4fa0644b" y="170.321608"/>
     <use style="fill:#98df8a;stroke:#ffffff;stroke-linejoin:miter;stroke-width:0.75;" x="193.011877" xlink:href="#mfd4fa0644b" y="167.868039"/>
     <use style="fill:#98df8a;stroke:#ffffff;stroke-linejoin:miter;stroke-width:0.75;" x="198.334083" xlink:href="#mfd4fa0644b" y="159.343785"/>
     <use style="fill:#98df8a;stroke:#ffffff;stroke-linejoin:miter;stroke-width:0.75;" x="203.656288" xlink:href="#mfd4fa0644b" y="152.38779"/>
     <use style="fill:#98df8a;stroke:#ffffff;stroke-linejoin:miter;stroke-width:0.75;" x="208.978494" xlink:href="#mfd4fa0644b" y="147.935954"/>
     <use style="fill:#98df8a;stroke:#ffffff;stroke-linejoin:miter;stroke-width:0.75;" x="214.3007" xlink:href="#mfd4fa0644b" y="143.433528"/>
     <use style="fill:#98df8a;stroke:#ffffff;stroke-linejoin:miter;stroke-width:0.75;" x="219.622905" xlink:href="#mfd4fa0644b" y="137.868733"/>
     <use style="fill:#98df8a;stroke:#ffffff;stroke-linejoin:miter;stroke-width:0.75;" x="224.945111" xlink:href="#mfd4fa0644b" y="135.035746"/>
     <use style="fill:#98df8a;stroke:#ffffff;stroke-linejoin:miter;stroke-width:0.75;" x="230.267317" xlink:href="#mfd4fa0644b" y="126.536785"/>
     <use style="fill:#98df8a;stroke:#ffffff;stroke-linejoin:miter;stroke-width:0.75;" x="235.589522" xlink:href="#mfd4fa0644b" y="124.209689"/>
     <use style="fill:#98df8a;stroke:#ffffff;stroke-linejoin:miter;stroke-width:0.75;" x="240.911728" xlink:href="#mfd4fa0644b" y="119.201373"/>
     <use style="fill:#98df8a;stroke:#ffffff;stroke-linejoin:miter;stroke-width:0.75;" x="246.233933" xlink:href="#mfd4fa0644b" y="115.913085"/>
     <use style="fill:#98df8a;stroke:#ffffff;stroke-linejoin:miter;stroke-width:0.75;" x="251.556139" xlink:href="#mfd4fa0644b" y="112.169495"/>
     <use style="fill:#98df8a;stroke:#ffffff;stroke-linejoin:miter;stroke-width:0.75;" x="256.878345" xlink:href="#mfd4fa0644b" y="104.075247"/>
     <use style="fill:#98df8a;stroke:#ffffff;stroke-linejoin:miter;stroke-width:0.75;" x="262.20055" xlink:href="#mfd4fa0644b" y="99.471644"/>
     <use style="fill:#98df8a;stroke:#ffffff;stroke-linejoin:miter;stroke-width:0.75;" x="267.522756" xlink:href="#mfd4fa0644b" y="95.019807"/>
     <use style="fill:#98df8a;stroke:#ffffff;stroke-linejoin:miter;stroke-width:0.75;" x="272.844962" xlink:href="#mfd4fa0644b" y="95.298047"/>
     <use style="fill:#98df8a;stroke:#ffffff;stroke-linejoin:miter;stroke-width:0.75;" x="278.167167" xlink:href="#mfd4fa0644b" y="92.035053"/>
     <use style="fill:#98df8a;stroke:#ffffff;stroke-linejoin:miter;stroke-width:0.75;" x="283.489373" xlink:href="#mfd4fa0644b" y="88.443231"/>
     <use style="fill:#98df8a;stroke:#ffffff;stroke-linejoin:miter;stroke-width:0.75;" x="288.811579" xlink:href="#mfd4fa0644b" y="87.836162"/>
     <use style="fill:#98df8a;stroke:#ffffff;stroke-linejoin:miter;stroke-width:0.75;" x="294.133784" xlink:href="#mfd4fa0644b" y="83.080791"/>
     <use style="fill:#98df8a;stroke:#ffffff;stroke-linejoin:miter;stroke-width:0.75;" x="299.45599" xlink:href="#mfd4fa0644b" y="79.185434"/>
     <use style="fill:#98df8a;stroke:#ffffff;stroke-linejoin:miter;stroke-width:0.75;" x="304.778196" xlink:href="#mfd4fa0644b" y="78.983078"/>
     <use style="fill:#98df8a;stroke:#ffffff;stroke-linejoin:miter;stroke-width:0.75;" x="310.100401" xlink:href="#mfd4fa0644b" y="76.301859"/>
     <use style="fill:#98df8a;stroke:#ffffff;stroke-linejoin:miter;stroke-width:0.75;" x="315.422607" xlink:href="#mfd4fa0644b" y="70.484118"/>
     <use style="fill:#98df8a;stroke:#ffffff;stroke-linejoin:miter;stroke-width:0.75;" x="320.744813" xlink:href="#mfd4fa0644b" y="70.281762"/>
     <use style="fill:#98df8a;stroke:#ffffff;stroke-linejoin:miter;stroke-width:0.75;" x="326.067018" xlink:href="#mfd4fa0644b" y="68.561734"/>
     <use style="fill:#98df8a;stroke:#ffffff;stroke-linejoin:miter;stroke-width:0.75;" x="331.389224" xlink:href="#mfd4fa0644b" y="65.222857"/>
     <use style="fill:#98df8a;stroke:#ffffff;stroke-linejoin:miter;stroke-width:0.75;" x="336.71143" xlink:href="#mfd4fa0644b" y="61.529856"/>
     <use style="fill:#98df8a;stroke:#ffffff;stroke-linejoin:miter;stroke-width:0.75;" x="342.033635" xlink:href="#mfd4fa0644b" y="61.479267"/>
     <use style="fill:#98df8a;stroke:#ffffff;stroke-linejoin:miter;stroke-width:0.75;" x="347.355841" xlink:href="#mfd4fa0644b" y="56.218006"/>
     <use style="fill:#98df8a;stroke:#ffffff;stroke-linejoin:miter;stroke-width:0.75;" x="352.678047" xlink:href="#mfd4fa0644b" y="60.012184"/>
     <use style="fill:#98df8a;stroke:#ffffff;stroke-linejoin:miter;stroke-width:0.75;" x="358.000252" xlink:href="#mfd4fa0644b" y="58.393335"/>
     <use style="fill:#98df8a;stroke:#ffffff;stroke-linejoin:miter;stroke-width:0.75;" x="363.322458" xlink:href="#mfd4fa0644b" y="53.182663"/>
     <use style="fill:#98df8a;stroke:#ffffff;stroke-linejoin:miter;stroke-width:0.75;" x="368.644664" xlink:href="#mfd4fa0644b" y="50.400265"/>
     <use style="fill:#98df8a;stroke:#ffffff;stroke-linejoin:miter;stroke-width:0.75;" x="373.966869" xlink:href="#mfd4fa0644b" y="49.236717"/>
     <use style="fill:#98df8a;stroke:#ffffff;stroke-linejoin:miter;stroke-width:0.75;" x="379.289075" xlink:href="#mfd4fa0644b" y="48.073169"/>
     <use style="fill:#98df8a;stroke:#ffffff;stroke-linejoin:miter;stroke-width:0.75;" x="384.611281" xlink:href="#mfd4fa0644b" y="45.923134"/>
     <use style="fill:#98df8a;stroke:#ffffff;stroke-linejoin:miter;stroke-width:0.75;" x="389.933486" xlink:href="#mfd4fa0644b" y="45.84725"/>
     <use style="fill:#98df8a;stroke:#ffffff;stroke-linejoin:miter;stroke-width:0.75;" x="395.255692" xlink:href="#mfd4fa0644b" y="45.644894"/>
     <use style="fill:#98df8a;stroke:#ffffff;stroke-linejoin:miter;stroke-width:0.75;" x="400.577898" xlink:href="#mfd4fa0644b" y="43.368387"/>
    </g>
   </g>
   <g id="line2d_13">
    <path clip-path="url(#p1ed9225953)" d="M 75.923352 275.167415 
L 81.245558 263.582523 
L 86.567764 248.911698 
L 91.889969 235.657367 
L 97.212175 228.119598 
L 102.534381 221.846556 
L 107.856586 220.683008 
L 113.178792 219.013569 
L 118.500998 217.672959 
L 123.823203 216.155288 
L 129.145409 213.297007 
L 134.467615 209.755773 
L 139.78982 209.90754 
L 145.112026 206.088067 
L 150.434232 204.31745 
L 155.756437 203.179197 
L 161.078643 198.499709 
L 166.400849 195.034359 
L 171.723054 191.493126 
L 177.04526 186.737755 
L 182.367466 180.363535 
L 187.689671 176.215233 
L 193.011877 174.950507 
L 198.334083 169.107471 
L 203.656288 163.163258 
L 208.978494 160.482038 
L 214.3007 160.127915 
L 219.622905 155.827846 
L 224.945111 154.51253 
L 230.267317 152.438379 
L 235.589522 145.204145 
L 240.911728 141.76409 
L 246.233933 141.76409 
L 251.556139 141.157021 
L 256.878345 139.892295 
L 262.20055 137.286959 
L 267.522756 134.175732 
L 272.844962 133.922787 
L 278.167167 132.278643 
L 283.489373 130.356259 
L 288.811579 128.661526 
L 294.133784 128.661526 
L 299.45599 127.042676 
L 304.778196 126.789731 
L 310.100401 124.589107 
L 315.422607 124.184395 
L 320.744813 121.47788 
L 326.067018 120.466099 
L 331.389224 119.555497 
L 336.71143 119.808442 
L 342.033635 114.673653 
L 347.355841 113.914817 
L 352.678047 113.737756 
L 358.000252 112.928331 
L 363.322458 110.196522 
L 368.644664 110.196522 
L 373.966869 110.322995 
L 379.289075 108.72944 
L 384.611281 106.908234 
L 389.933486 106.908234 
L 395.255692 105.26409 
L 400.577898 105.213501 
" style="fill:none;stroke:#1f77b4;stroke-linecap:square;stroke-width:1.5;"/>
    <defs>
     <path d="M 0 3 
C 0.795609 3 1.55874 2.683901 2.12132 2.12132 
C 2.683901 1.55874 3 0.795609 3 0 
C 3 -0.795609 2.683901 -1.55874 2.12132 -2.12132 
C 1.55874 -2.683901 0.795609 -3 0 -3 
C -0.795609 -3 -1.55874 -2.683901 -2.12132 -2.12132 
C -2.683901 -1.55874 -3 -0.795609 -3 0 
C -3 0.795609 -2.683901 1.55874 -2.12132 2.12132 
C -1.55874 2.683901 -0.795609 3 0 3 
z
" id="m4519793bc4" style="stroke:#ffffff;stroke-width:0.75;"/>
    </defs>
    <g clip-path="url(#p1ed9225953)">
     <use style="fill:#1f77b4;stroke:#ffffff;stroke-width:0.75;" x="75.923352" xlink:href="#m4519793bc4" y="275.167415"/>
     <use style="fill:#1f77b4;stroke:#ffffff;stroke-width:0.75;" x="81.245558" xlink:href="#m4519793bc4" y="263.582523"/>
     <use style="fill:#1f77b4;stroke:#ffffff;stroke-width:0.75;" x="86.567764" xlink:href="#m4519793bc4" y="248.911698"/>
     <use style="fill:#1f77b4;stroke:#ffffff;stroke-width:0.75;" x="91.889969" xlink:href="#m4519793bc4" y="235.657367"/>
     <use style="fill:#1f77b4;stroke:#ffffff;stroke-width:0.75;" x="97.212175" xlink:href="#m4519793bc4" y="228.119598"/>
     <use style="fill:#1f77b4;stroke:#ffffff;stroke-width:0.75;" x="102.534381" xlink:href="#m4519793bc4" y="221.846556"/>
     <use style="fill:#1f77b4;stroke:#ffffff;stroke-width:0.75;" x="107.856586" xlink:href="#m4519793bc4" y="220.683008"/>
     <use style="fill:#1f77b4;stroke:#ffffff;stroke-width:0.75;" x="113.178792" xlink:href="#m4519793bc4" y="219.013569"/>
     <use style="fill:#1f77b4;stroke:#ffffff;stroke-width:0.75;" x="118.500998" xlink:href="#m4519793bc4" y="217.672959"/>
     <use style="fill:#1f77b4;stroke:#ffffff;stroke-width:0.75;" x="123.823203" xlink:href="#m4519793bc4" y="216.155288"/>
     <use style="fill:#1f77b4;stroke:#ffffff;stroke-width:0.75;" x="129.145409" xlink:href="#m4519793bc4" y="213.297007"/>
     <use style="fill:#1f77b4;stroke:#ffffff;stroke-width:0.75;" x="134.467615" xlink:href="#m4519793bc4" y="209.755773"/>
     <use style="fill:#1f77b4;stroke:#ffffff;stroke-width:0.75;" x="139.78982" xlink:href="#m4519793bc4" y="209.90754"/>
     <use style="fill:#1f77b4;stroke:#ffffff;stroke-width:0.75;" x="145.112026" xlink:href="#m4519793bc4" y="206.088067"/>
     <use style="fill:#1f77b4;stroke:#ffffff;stroke-width:0.75;" x="150.434232" xlink:href="#m4519793bc4" y="204.31745"/>
     <use style="fill:#1f77b4;stroke:#ffffff;stroke-width:0.75;" x="155.756437" xlink:href="#m4519793bc4" y="203.179197"/>
     <use style="fill:#1f77b4;stroke:#ffffff;stroke-width:0.75;" x="161.078643" xlink:href="#m4519793bc4" y="198.499709"/>
     <use style="fill:#1f77b4;stroke:#ffffff;stroke-width:0.75;" x="166.400849" xlink:href="#m4519793bc4" y="195.034359"/>
     <use style="fill:#1f77b4;stroke:#ffffff;stroke-width:0.75;" x="171.723054" xlink:href="#m4519793bc4" y="191.493126"/>
     <use style="fill:#1f77b4;stroke:#ffffff;stroke-width:0.75;" x="177.04526" xlink:href="#m4519793bc4" y="186.737755"/>
     <use style="fill:#1f77b4;stroke:#ffffff;stroke-width:0.75;" x="182.367466" xlink:href="#m4519793bc4" y="180.363535"/>
     <use style="fill:#1f77b4;stroke:#ffffff;stroke-width:0.75;" x="187.689671" xlink:href="#m4519793bc4" y="176.215233"/>
     <use style="fill:#1f77b4;stroke:#ffffff;stroke-width:0.75;" x="193.011877" xlink:href="#m4519793bc4" y="174.950507"/>
     <use style="fill:#1f77b4;stroke:#ffffff;stroke-width:0.75;" x="198.334083" xlink:href="#m4519793bc4" y="169.107471"/>
     <use style="fill:#1f77b4;stroke:#ffffff;stroke-width:0.75;" x="203.656288" xlink:href="#m4519793bc4" y="163.163258"/>
     <use style="fill:#1f77b4;stroke:#ffffff;stroke-width:0.75;" x="208.978494" xlink:href="#m4519793bc4" y="160.482038"/>
     <use style="fill:#1f77b4;stroke:#ffffff;stroke-width:0.75;" x="214.3007" xlink:href="#m4519793bc4" y="160.127915"/>
     <use style="fill:#1f77b4;stroke:#ffffff;stroke-width:0.75;" x="219.622905" xlink:href="#m4519793bc4" y="155.827846"/>
     <use style="fill:#1f77b4;stroke:#ffffff;stroke-width:0.75;" x="224.945111" xlink:href="#m4519793bc4" y="154.51253"/>
     <use style="fill:#1f77b4;stroke:#ffffff;stroke-width:0.75;" x="230.267317" xlink:href="#m4519793bc4" y="152.438379"/>
     <use style="fill:#1f77b4;stroke:#ffffff;stroke-width:0.75;" x="235.589522" xlink:href="#m4519793bc4" y="145.204145"/>
     <use style="fill:#1f77b4;stroke:#ffffff;stroke-width:0.75;" x="240.911728" xlink:href="#m4519793bc4" y="141.76409"/>
     <use style="fill:#1f77b4;stroke:#ffffff;stroke-width:0.75;" x="246.233933" xlink:href="#m4519793bc4" y="141.76409"/>
     <use style="fill:#1f77b4;stroke:#ffffff;stroke-width:0.75;" x="251.556139" xlink:href="#m4519793bc4" y="141.157021"/>
     <use style="fill:#1f77b4;stroke:#ffffff;stroke-width:0.75;" x="256.878345" xlink:href="#m4519793bc4" y="139.892295"/>
     <use style="fill:#1f77b4;stroke:#ffffff;stroke-width:0.75;" x="262.20055" xlink:href="#m4519793bc4" y="137.286959"/>
     <use style="fill:#1f77b4;stroke:#ffffff;stroke-width:0.75;" x="267.522756" xlink:href="#m4519793bc4" y="134.175732"/>
     <use style="fill:#1f77b4;stroke:#ffffff;stroke-width:0.75;" x="272.844962" xlink:href="#m4519793bc4" y="133.922787"/>
     <use style="fill:#1f77b4;stroke:#ffffff;stroke-width:0.75;" x="278.167167" xlink:href="#m4519793bc4" y="132.278643"/>
     <use style="fill:#1f77b4;stroke:#ffffff;stroke-width:0.75;" x="283.489373" xlink:href="#m4519793bc4" y="130.356259"/>
     <use style="fill:#1f77b4;stroke:#ffffff;stroke-width:0.75;" x="288.811579" xlink:href="#m4519793bc4" y="128.661526"/>
     <use style="fill:#1f77b4;stroke:#ffffff;stroke-width:0.75;" x="294.133784" xlink:href="#m4519793bc4" y="128.661526"/>
     <use style="fill:#1f77b4;stroke:#ffffff;stroke-width:0.75;" x="299.45599" xlink:href="#m4519793bc4" y="127.042676"/>
     <use style="fill:#1f77b4;stroke:#ffffff;stroke-width:0.75;" x="304.778196" xlink:href="#m4519793bc4" y="126.789731"/>
     <use style="fill:#1f77b4;stroke:#ffffff;stroke-width:0.75;" x="310.100401" xlink:href="#m4519793bc4" y="124.589107"/>
     <use style="fill:#1f77b4;stroke:#ffffff;stroke-width:0.75;" x="315.422607" xlink:href="#m4519793bc4" y="124.184395"/>
     <use style="fill:#1f77b4;stroke:#ffffff;stroke-width:0.75;" x="320.744813" xlink:href="#m4519793bc4" y="121.47788"/>
     <use style="fill:#1f77b4;stroke:#ffffff;stroke-width:0.75;" x="326.067018" xlink:href="#m4519793bc4" y="120.466099"/>
     <use style="fill:#1f77b4;stroke:#ffffff;stroke-width:0.75;" x="331.389224" xlink:href="#m4519793bc4" y="119.555497"/>
     <use style="fill:#1f77b4;stroke:#ffffff;stroke-width:0.75;" x="336.71143" xlink:href="#m4519793bc4" y="119.808442"/>
     <use style="fill:#1f77b4;stroke:#ffffff;stroke-width:0.75;" x="342.033635" xlink:href="#m4519793bc4" y="114.673653"/>
     <use style="fill:#1f77b4;stroke:#ffffff;stroke-width:0.75;" x="347.355841" xlink:href="#m4519793bc4" y="113.914817"/>
     <use style="fill:#1f77b4;stroke:#ffffff;stroke-width:0.75;" x="352.678047" xlink:href="#m4519793bc4" y="113.737756"/>
     <use style="fill:#1f77b4;stroke:#ffffff;stroke-width:0.75;" x="358.000252" xlink:href="#m4519793bc4" y="112.928331"/>
     <use style="fill:#1f77b4;stroke:#ffffff;stroke-width:0.75;" x="363.322458" xlink:href="#m4519793bc4" y="110.196522"/>
     <use style="fill:#1f77b4;stroke:#ffffff;stroke-width:0.75;" x="368.644664" xlink:href="#m4519793bc4" y="110.196522"/>
     <use style="fill:#1f77b4;stroke:#ffffff;stroke-width:0.75;" x="373.966869" xlink:href="#m4519793bc4" y="110.322995"/>
     <use style="fill:#1f77b4;stroke:#ffffff;stroke-width:0.75;" x="379.289075" xlink:href="#m4519793bc4" y="108.72944"/>
     <use style="fill:#1f77b4;stroke:#ffffff;stroke-width:0.75;" x="384.611281" xlink:href="#m4519793bc4" y="106.908234"/>
     <use style="fill:#1f77b4;stroke:#ffffff;stroke-width:0.75;" x="389.933486" xlink:href="#m4519793bc4" y="106.908234"/>
     <use style="fill:#1f77b4;stroke:#ffffff;stroke-width:0.75;" x="395.255692" xlink:href="#m4519793bc4" y="105.26409"/>
     <use style="fill:#1f77b4;stroke:#ffffff;stroke-width:0.75;" x="400.577898" xlink:href="#m4519793bc4" y="105.213501"/>
    </g>
   </g>
   <g id="line2d_14"/>
   <g id="line2d_15"/>
   <g id="patch_3">
    <path d="M 59.690625 257.107124 
L 59.690625 54.750923 
" style="fill:none;stroke:#000000;stroke-linecap:square;stroke-linejoin:miter;stroke-width:0.8;"/>
   </g>
   <g id="patch_4">
    <path d="M 75.923352 288.430125 
L 350.903978 288.430125 
" style="fill:none;stroke:#000000;stroke-linecap:square;stroke-linejoin:miter;stroke-width:0.8;"/>
   </g>
   <g id="text_14">
    <!-- mruby-2018-05-23 (15h:30m, 7 trials/fuzzer) -->
    <g transform="translate(103.435313 16.318125)scale(0.12 -0.12)">
     <defs>
      <path d="M 3116 1747 
Q 3116 2381 2855 2742 
Q 2594 3103 2138 3103 
Q 1681 3103 1420 2742 
Q 1159 2381 1159 1747 
Q 1159 1113 1420 752 
Q 1681 391 2138 391 
Q 2594 391 2855 752 
Q 3116 1113 3116 1747 
z
M 1159 2969 
Q 1341 3281 1617 3432 
Q 1894 3584 2278 3584 
Q 2916 3584 3314 3078 
Q 3713 2572 3713 1747 
Q 3713 922 3314 415 
Q 2916 -91 2278 -91 
Q 1894 -91 1617 61 
Q 1341 213 1159 525 
L 1159 0 
L 581 0 
L 581 4863 
L 1159 4863 
L 1159 2969 
z
" id="DejaVuSans-62" transform="scale(0.015625)"/>
      <path d="M 2059 -325 
Q 1816 -950 1584 -1140 
Q 1353 -1331 966 -1331 
L 506 -1331 
L 506 -850 
L 844 -850 
Q 1081 -850 1212 -737 
Q 1344 -625 1503 -206 
L 1606 56 
L 191 3500 
L 800 3500 
L 1894 763 
L 2988 3500 
L 3597 3500 
L 2059 -325 
z
" id="DejaVuSans-79" transform="scale(0.015625)"/>
      <path d="M 313 2009 
L 1997 2009 
L 1997 1497 
L 313 1497 
L 313 2009 
z
" id="DejaVuSans-2d" transform="scale(0.015625)"/>
      <path d="M 750 794 
L 1409 794 
L 1409 256 
L 897 -744 
L 494 -744 
L 750 256 
L 750 794 
z
" id="DejaVuSans-2c" transform="scale(0.015625)"/>
      <path d="M 603 4863 
L 1178 4863 
L 1178 0 
L 603 0 
L 603 4863 
z
" id="DejaVuSans-6c" transform="scale(0.015625)"/>
      <path d="M 2834 3397 
L 2834 2853 
Q 2591 2978 2328 3040 
Q 2066 3103 1784 3103 
Q 1356 3103 1142 2972 
Q 928 2841 928 2578 
Q 928 2378 1081 2264 
Q 1234 2150 1697 2047 
L 1894 2003 
Q 2506 1872 2764 1633 
Q 3022 1394 3022 966 
Q 3022 478 2636 193 
Q 2250 -91 1575 -91 
Q 1294 -91 989 -36 
Q 684 19 347 128 
L 347 722 
Q 666 556 975 473 
Q 1284 391 1588 391 
Q 1994 391 2212 530 
Q 2431 669 2431 922 
Q 2431 1156 2273 1281 
Q 2116 1406 1581 1522 
L 1381 1569 
Q 847 1681 609 1914 
Q 372 2147 372 2553 
Q 372 3047 722 3315 
Q 1072 3584 1716 3584 
Q 2034 3584 2315 3537 
Q 2597 3491 2834 3397 
z
" id="DejaVuSans-73" transform="scale(0.015625)"/>
      <path d="M 1625 4666 
L 2156 4666 
L 531 -594 
L 0 -594 
L 1625 4666 
z
" id="DejaVuSans-2f" transform="scale(0.015625)"/>
      <path d="M 2375 4863 
L 2375 4384 
L 1825 4384 
Q 1516 4384 1395 4259 
Q 1275 4134 1275 3809 
L 1275 3500 
L 2222 3500 
L 2222 3053 
L 1275 3053 
L 1275 0 
L 697 0 
L 697 3053 
L 147 3053 
L 147 3500 
L 697 3500 
L 697 3744 
Q 697 4328 969 4595 
Q 1241 4863 1831 4863 
L 2375 4863 
z
" id="DejaVuSans-66" transform="scale(0.015625)"/>
      <path d="M 353 3500 
L 3084 3500 
L 3084 2975 
L 922 459 
L 3084 459 
L 3084 0 
L 275 0 
L 275 525 
L 2438 3041 
L 353 3041 
L 353 3500 
z
" id="DejaVuSans-7a" transform="scale(0.015625)"/>
     </defs>
     <use xlink:href="#DejaVuSans-6d"/>
     <use x="97.412109" xlink:href="#DejaVuSans-72"/>
     <use x="138.525391" xlink:href="#DejaVuSans-75"/>
     <use x="201.904297" xlink:href="#DejaVuSans-62"/>
     <use x="265.380859" xlink:href="#DejaVuSans-79"/>
     <use x="322.810547" xlink:href="#DejaVuSans-2d"/>
     <use x="358.894531" xlink:href="#DejaVuSans-32"/>
     <use x="422.517578" xlink:href="#DejaVuSans-30"/>
     <use x="486.140625" xlink:href="#DejaVuSans-31"/>
     <use x="549.763672" xlink:href="#DejaVuSans-38"/>
     <use x="613.386719" xlink:href="#DejaVuSans-2d"/>
     <use x="649.470703" xlink:href="#DejaVuSans-30"/>
     <use x="713.09375" xlink:href="#DejaVuSans-35"/>
     <use x="776.716797" xlink:href="#DejaVuSans-2d"/>
     <use x="812.800781" xlink:href="#DejaVuSans-32"/>
     <use x="876.423828" xlink:href="#DejaVuSans-33"/>
     <use x="940.046875" xlink:href="#DejaVuSans-20"/>
     <use x="971.833984" xlink:href="#DejaVuSans-28"/>
     <use x="1010.847656" xlink:href="#DejaVuSans-31"/>
     <use x="1074.470703" xlink:href="#DejaVuSans-35"/>
     <use x="1138.09375" xlink:href="#DejaVuSans-68"/>
     <use x="1201.472656" xlink:href="#DejaVuSans-3a"/>
     <use x="1235.164062" xlink:href="#DejaVuSans-33"/>
     <use x="1298.787109" xlink:href="#DejaVuSans-30"/>
     <use x="1362.410156" xlink:href="#DejaVuSans-6d"/>
     <use x="1459.822266" xlink:href="#DejaVuSans-2c"/>
     <use x="1491.609375" xlink:href="#DejaVuSans-20"/>
     <use x="1523.396484" xlink:href="#DejaVuSans-37"/>
     <use x="1587.019531" xlink:href="#DejaVuSans-20"/>
     <use x="1618.806641" xlink:href="#DejaVuSans-74"/>
     <use x="1658.015625" xlink:href="#DejaVuSans-72"/>
     <use x="1699.128906" xlink:href="#DejaVuSans-69"/>
     <use x="1726.912109" xlink:href="#DejaVuSans-61"/>
     <use x="1788.191406" xlink:href="#DejaVuSans-6c"/>
     <use x="1815.974609" xlink:href="#DejaVuSans-73"/>
     <use x="1868.074219" xlink:href="#DejaVuSans-2f"/>
     <use x="1901.765625" xlink:href="#DejaVuSans-66"/>
     <use x="1936.970703" xlink:href="#DejaVuSans-75"/>
     <use x="2000.349609" xlink:href="#DejaVuSans-7a"/>
     <use x="2052.839844" xlink:href="#DejaVuSans-7a"/>
     <use x="2105.330078" xlink:href="#DejaVuSans-65"/>
     <use x="2166.853516" xlink:href="#DejaVuSans-72"/>
     <use x="2207.966797" xlink:href="#DejaVuSans-29"/>
    </g>
   </g>
   <g id="legend_1">
    <g id="line2d_16">
     <path d="M 420.810625 30.416562 
L 440.810625 30.416562 
" style="fill:none;stroke:#98df8a;stroke-linecap:square;stroke-width:1.5;"/>
    </g>
    <g id="line2d_17">
     <defs>
      <path d="M -0 3 
L 3 -3 
L -3 -3 
z
" id="m9657837758" style="stroke:#98df8a;stroke-linejoin:miter;"/>
     </defs>
     <g>
      <use style="fill:#98df8a;stroke:#98df8a;stroke-linejoin:miter;" x="430.810625" xlink:href="#m9657837758" y="30.416562"/>
     </g>
    </g>
    <g id="text_15">
     <!-- afl_splicing_mutation -->
     <g transform="translate(448.810625 33.916562)scale(0.1 -0.1)">
      <defs>
       <path d="M 3263 -1063 
L 3263 -1509 
L -63 -1509 
L -63 -1063 
L 3263 -1063 
z
" id="DejaVuSans-5f" transform="scale(0.015625)"/>
       <path d="M 1159 525 
L 1159 -1331 
L 581 -1331 
L 581 3500 
L 1159 3500 
L 1159 2969 
Q 1341 3281 1617 3432 
Q 1894 3584 2278 3584 
Q 2916 3584 3314 3078 
Q 3713 2572 3713 1747 
Q 3713 922 3314 415 
Q 2916 -91 2278 -91 
Q 1894 -91 1617 61 
Q 1341 213 1159 525 
z
M 3116 1747 
Q 3116 2381 2855 2742 
Q 2594 3103 2138 3103 
Q 1681 3103 1420 2742 
Q 1159 2381 1159 1747 
Q 1159 1113 1420 752 
Q 1681 391 2138 391 
Q 2594 391 2855 752 
Q 3116 1113 3116 1747 
z
" id="DejaVuSans-70" transform="scale(0.015625)"/>
      </defs>
      <use xlink:href="#DejaVuSans-61"/>
      <use x="61.279297" xlink:href="#DejaVuSans-66"/>
      <use x="96.484375" xlink:href="#DejaVuSans-6c"/>
      <use x="124.267578" xlink:href="#DejaVuSans-5f"/>
      <use x="174.267578" xlink:href="#DejaVuSans-73"/>
      <use x="226.367188" xlink:href="#DejaVuSans-70"/>
      <use x="289.84375" xlink:href="#DejaVuSans-6c"/>
      <use x="317.626953" xlink:href="#DejaVuSans-69"/>
      <use x="345.410156" xlink:href="#DejaVuSans-63"/>
      <use x="400.390625" xlink:href="#DejaVuSans-69"/>
      <use x="428.173828" xlink:href="#DejaVuSans-6e"/>
      <use x="491.552734" xlink:href="#DejaVuSans-67"/>
      <use x="555.029297" xlink:href="#DejaVuSans-5f"/>
      <use x="605.029297" xlink:href="#DejaVuSans-6d"/>
      <use x="702.441406" xlink:href="#DejaVuSans-75"/>
      <use x="765.820312" xlink:href="#DejaVuSans-74"/>
      <use x="805.029297" xlink:href="#DejaVuSans-61"/>
      <use x="866.308594" xlink:href="#DejaVuSans-74"/>
      <use x="905.517578" xlink:href="#DejaVuSans-69"/>
      <use x="933.300781" xlink:href="#DejaVuSans-6f"/>
      <use x="994.482422" xlink:href="#DejaVuSans-6e"/>
     </g>
    </g>
    <g id="line2d_18">
     <path d="M 420.810625 45.372813 
L 440.810625 45.372813 
" style="fill:none;stroke:#1f77b4;stroke-linecap:square;stroke-width:1.5;"/>
    </g>
    <g id="line2d_19">
     <defs>
      <path d="M 0 3 
C 0.795609 3 1.55874 2.683901 2.12132 2.12132 
C 2.683901 1.55874 3 0.795609 3 0 
C 3 -0.795609 2.683901 -1.55874 2.12132 -2.12132 
C 1.55874 -2.683901 0.795609 -3 0 -3 
C -0.795609 -3 -1.55874 -2.683901 -2.12132 -2.12132 
C -2.683901 -1.55874 -3 -0.795609 -3 0 
C -3 0.795609 -2.683901 1.55874 -2.12132 2.12132 
C -1.55874 2.683901 -0.795609 3 0 3 
z
" id="m24499cb025" style="stroke:#1f77b4;"/>
     </defs>
     <g>
      <use style="fill:#1f77b4;stroke:#1f77b4;" x="430.810625" xlink:href="#m24499cb025" y="45.372813"/>
     </g>
    </g>
    <g id="text_16">
     <!-- afl -->
     <g transform="translate(448.810625 48.872813)scale(0.1 -0.1)">
      <use xlink:href="#DejaVuSans-61"/>
      <use x="61.279297" xlink:href="#DejaVuSans-66"/>
      <use x="96.484375" xlink:href="#DejaVuSans-6c"/>
     </g>
    </g>
   </g>
  </g>
 </g>
 <defs>
  <clipPath id="p1ed9225953">
   <rect height="266.112" width="357.12" x="59.690625" y="22.318125"/>
  </clipPath>
 </defs>
</svg>
