<?xml version="1.0" encoding="utf-8" standalone="no"?>
<!DOCTYPE svg PUBLIC "-//W3C//DTD SVG 1.1//EN"
  "http://www.w3.org/Graphics/SVG/1.1/DTD/svg11.dtd">
<svg height="325.986375pt" version="1.1" viewBox="0 0 565.795 325.986375" width="565.795pt" xmlns="http://www.w3.org/2000/svg" xmlns:xlink="http://www.w3.org/1999/xlink">
 <metadata>
  <rdf:RDF xmlns:cc="http://creativecommons.org/ns#" xmlns:dc="http://purl.org/dc/elements/1.1/" xmlns:rdf="http://www.w3.org/1999/02/22-rdf-syntax-ns#">
   <cc:Work>
    <dc:type rdf:resource="http://purl.org/dc/dcmitype/StillImage"/>
    <dc:date>2022-05-31T16:27:26.316059</dc:date>
    <dc:format>image/svg+xml</dc:format>
    <dc:creator>
     <cc:Agent>
      <dc:title>Matplotlib v3.4.3, https://matplotlib.org/</dc:title>
     </cc:Agent>
    </dc:creator>
   </cc:Work>
  </rdf:RDF>
 </metadata>
 <defs>
  <style type="text/css">*{stroke-linecap:butt;stroke-linejoin:round;}</style>
 </defs>
 <g id="figure_1">
  <g id="patch_1">
   <path d="M 0 325.986375 
L 565.795 325.986375 
L 565.795 0 
L 0 0 
z
" style="fill:#ffffff;"/>
  </g>
  <g id="axes_1">
   <g id="patch_2">
    <path d="M 59.690625 288.430125 
L 416.810625 288.430125 
L 416.810625 22.318125 
L 59.690625 22.318125 
z
" style="fill:#ffffff;"/>
   </g>
   <g id="PolyCollection_1">
    <defs>
     <path d="M 75.923352 -65.696031 
L 75.923352 -53.31579 
L 130.448687 -67.616231 
L 162.343963 -80.198598 
L 184.974021 -84.594846 
L 202.527258 -91.265017 
L 216.869297 -91.669269 
L 228.995318 -91.669269 
L 239.499356 -93.387343 
L 248.764573 -98.288908 
L 257.052593 -99.804856 
L 264.550018 -102.280904 
L 271.394632 -106.626621 
L 277.691066 -113.094665 
L 283.520653 -116.12656 
L 288.947869 -121.078656 
L 294.02469 -122.165086 
L 298.793631 -127.698295 
L 303.289908 -130.275406 
L 307.543021 -135.252768 
L 311.577927 -140.988104 
L 315.415929 -143.034633 
L 319.075353 -149.224753 
L 322.572081 -152.711433 
L 325.919966 -162.261904 
L 329.131164 -169.630042 
L 332.2164 -172.999868 
L 335.185184 -176.156829 
L 338.045987 -180.908062 
L 340.806391 -184.041021 
L 343.473203 -187.123448 
L 346.052563 -193.035644 
L 348.550025 -196.623387 
L 350.970629 -199.048904 
L 353.318965 -208.043527 
L 355.599224 -211.93446 
L 357.815242 -214.359976 
L 359.97054 -218.503567 
L 362.068355 -223.02046 
L 364.111676 -231.742844 
L 366.103262 -232.967604 
L 368.045667 -232.450287 
L 369.941263 -236.644409 
L 371.792253 -237.806635 
L 373.600687 -238.034028 
L 375.368479 -240.787999 
L 377.097416 -240.737468 
L 378.789167 -242.202884 
L 380.445301 -248.367738 
L 382.067285 -248.367738 
L 383.656499 -254.684187 
L 385.214241 -259.585752 
L 386.741735 -263.400887 
L 388.240131 -264.184127 
L 389.710518 -265.043164 
L 391.153924 -265.144227 
L 392.571322 -266.20539 
L 393.963631 -267.443414 
L 395.331725 -268.833033 
L 396.676432 -269.136223 
L 397.998538 -271.612271 
L 399.298789 -270.348981 
L 400.577898 -275.098951 
L 400.577898 -291.57225 
L 400.577898 -291.57225 
L 399.298789 -290.359492 
L 397.998538 -289.374126 
L 396.676432 -289.273063 
L 395.331725 -287.201267 
L 393.963631 -286.544357 
L 392.571322 -286.519091 
L 391.153924 -286.316964 
L 389.710518 -287.176001 
L 388.240131 -287.074938 
L 386.741735 -283.310335 
L 385.214241 -281.11221 
L 383.656499 -280.910084 
L 382.067285 -269.03516 
L 380.445301 -278.029783 
L 378.789167 -276.715962 
L 377.097416 -261.202763 
L 375.368479 -267.241288 
L 373.600687 -261.152231 
L 371.792253 -266.761238 
L 369.941263 -264.234658 
L 368.045667 -261.75861 
L 366.103262 -260.293194 
L 364.111676 -257.61502 
L 362.068355 -252.793674 
L 359.97054 -252.056545 
L 357.815242 -240.383747 
L 355.599224 -235.280056 
L 353.318965 -228.357228 
L 350.970629 -222.849284 
L 348.550025 -215.774861 
L 346.052563 -212.540839 
L 343.473203 -208.397248 
L 340.806391 -206.426516 
L 338.045987 -199.175233 
L 335.185184 -192.075544 
L 332.2164 -184.798995 
L 329.131164 -178.179356 
L 325.919966 -171.104933 
L 322.572081 -166.405495 
L 319.075353 -163.803118 
L 315.415929 -159.28054 
L 311.577927 -155.162216 
L 307.543021 -153.115686 
L 303.289908 -150.488043 
L 298.793631 -145.131694 
L 294.02469 -142.984102 
L 288.947869 -138.739448 
L 283.520653 -130.427001 
L 277.691066 -130.427001 
L 271.394632 -124.312678 
L 264.550018 -120.472277 
L 257.052593 -119.411114 
L 248.764573 -119.360582 
L 239.499356 -118.34995 
L 228.995318 -113.751575 
L 216.869297 -110.618617 
L 202.527258 -105.96971 
L 184.974021 -97.758326 
L 162.343963 -88.738437 
L 130.448687 -80.501787 
L 75.923352 -65.696031 
z
" id="m0e5aa28039" style="stroke:#98df8a;stroke-opacity:0.2;"/>
    </defs>
    <g clip-path="url(#pcc8c1fe016)">
     <use style="fill:#98df8a;fill-opacity:0.2;stroke:#98df8a;stroke-opacity:0.2;" x="0" xlink:href="#m0e5aa28039" y="325.986375"/>
    </g>
   </g>
   <g id="PolyCollection_2">
    <defs>
     <path d="M 75.923352 -52.962069 
L 75.923352 -49.65225 
L 130.448687 -58.640557 
L 162.343963 -68.475268 
L 184.974021 -80.602851 
L 202.527258 -92.578838 
L 216.869297 -98.187845 
L 228.995318 -99.350071 
L 239.499356 -101.245006 
L 248.764573 -102.179841 
L 257.052593 -102.533562 
L 264.550018 -101.876651 
L 271.394632 -104.352699 
L 277.691066 -111.427122 
L 283.520653 -115.444384 
L 288.947869 -117.339318 
L 294.02469 -121.331314 
L 298.793631 -123.782096 
L 303.289908 -126.990853 
L 307.543021 -133.635757 
L 311.577927 -137.349829 
L 315.415929 -139.623751 
L 319.075353 -145.384352 
L 322.572081 -148.286761 
L 325.919966 -152.585104 
L 329.131164 -156.956087 
L 332.2164 -160.038514 
L 335.185184 -160.392235 
L 338.045987 -162.565094 
L 340.806391 -166.860279 
L 343.473203 -168.123569 
L 346.052563 -169.791112 
L 348.550025 -172.671412 
L 350.970629 -175.096929 
L 353.318965 -176.259155 
L 355.599224 -177.118193 
L 357.815242 -179.189988 
L 359.97054 -179.240519 
L 362.068355 -180.604872 
L 364.111676 -182.146086 
L 366.103262 -183.939958 
L 368.045667 -188.13408 
L 369.941263 -190.862786 
L 371.792253 -193.439897 
L 373.600687 -195.353781 
L 375.368479 -197.886677 
L 377.097416 -197.659285 
L 378.789167 -199.806878 
L 380.445301 -202.939836 
L 382.067285 -202.939836 
L 383.656499 -203.950468 
L 385.214241 -204.506316 
L 386.741735 -205.112695 
L 388.240131 -205.820137 
L 389.710518 -206.881301 
L 391.153924 -207.032895 
L 392.571322 -207.437148 
L 393.963631 -208.978362 
L 395.331725 -207.992996 
L 396.676432 -208.043527 
L 397.998538 -210.241652 
L 399.298789 -209.458412 
L 400.577898 -211.635692 
L 400.577898 -240.18162 
L 400.577898 -240.18162 
L 399.298789 -238.463546 
L 397.998538 -238.109825 
L 396.676432 -238.084559 
L 395.331725 -231.692313 
L 393.963631 -231.414389 
L 392.571322 -228.155101 
L 391.153924 -237.604509 
L 389.710518 -237.301319 
L 388.240131 -233.637779 
L 386.741735 -232.576616 
L 385.214241 -230.086671 
L 383.656499 -227.548722 
L 382.067285 -227.49819 
L 380.445301 -223.3546 
L 378.789167 -219.312072 
L 377.097416 -215.13311 
L 375.368479 -218.402504 
L 373.600687 -210.367981 
L 371.792253 -217.391872 
L 369.941263 -210.115323 
L 368.045667 -205.415884 
L 366.103262 -203.091431 
L 364.111676 -200.766978 
L 362.068355 -197.836146 
L 359.97054 -194.197871 
L 357.815242 -196.572856 
L 355.599224 -194.147339 
L 353.318965 -192.58086 
L 350.970629 -189.498433 
L 348.550025 -187.881422 
L 346.052563 -182.474541 
L 343.473203 -180.402746 
L 340.806391 -177.396116 
L 338.045987 -173.732576 
L 335.185184 -172.26716 
L 332.2164 -167.466658 
L 329.131164 -164.889547 
L 325.919966 -159.482667 
L 322.572081 -157.865656 
L 319.075353 -152.559839 
L 315.415929 -149.831133 
L 311.577927 -144.67691 
L 307.543021 -139.92694 
L 303.289908 -136.061273 
L 298.793631 -133.787352 
L 294.02469 -132.650391 
L 288.947869 -129.845888 
L 283.520653 -122.872528 
L 277.691066 -121.609238 
L 271.394632 -118.501545 
L 264.550018 -115.419118 
L 257.052593 -112.791475 
L 248.764573 -110.921806 
L 239.499356 -109.380593 
L 228.995318 -107.131937 
L 216.869297 -105.767584 
L 202.527258 -103.44313 
L 184.974021 -96.318176 
L 162.343963 -86.61611 
L 130.448687 -67.565068 
L 75.923352 -52.962069 
z
" id="ma50055e088" style="stroke:#1f77b4;stroke-opacity:0.2;"/>
    </defs>
    <g clip-path="url(#pcc8c1fe016)">
     <use style="fill:#1f77b4;fill-opacity:0.2;stroke:#1f77b4;stroke-opacity:0.2;" x="0" xlink:href="#ma50055e088" y="325.986375"/>
    </g>
   </g>
   <g id="matplotlib.axis_1">
    <g id="xtick_1">
     <g id="line2d_1">
      <defs>
       <path d="M 0 0 
L 0 3.5 
" id="m0dbc7de0db" style="stroke:#000000;stroke-width:0.8;"/>
      </defs>
      <g>
       <use style="stroke:#000000;stroke-width:0.8;" x="75.923352" xlink:href="#m0dbc7de0db" y="288.430125"/>
      </g>
     </g>
     <g id="text_1">
      <!-- 14m -->
      <g transform="translate(64.69054 303.028562)scale(0.1 -0.1)">
       <defs>
        <path d="M 794 531 
L 1825 531 
L 1825 4091 
L 703 3866 
L 703 4441 
L 1819 4666 
L 2450 4666 
L 2450 531 
L 3481 531 
L 3481 0 
L 794 0 
L 794 531 
z
" id="DejaVuSans-31" transform="scale(0.015625)"/>
        <path d="M 2419 4116 
L 825 1625 
L 2419 1625 
L 2419 4116 
z
M 2253 4666 
L 3047 4666 
L 3047 1625 
L 3713 1625 
L 3713 1100 
L 3047 1100 
L 3047 0 
L 2419 0 
L 2419 1100 
L 313 1100 
L 313 1709 
L 2253 4666 
z
" id="DejaVuSans-34" transform="scale(0.015625)"/>
        <path d="M 3328 2828 
Q 3544 3216 3844 3400 
Q 4144 3584 4550 3584 
Q 5097 3584 5394 3201 
Q 5691 2819 5691 2113 
L 5691 0 
L 5113 0 
L 5113 2094 
Q 5113 2597 4934 2840 
Q 4756 3084 4391 3084 
Q 3944 3084 3684 2787 
Q 3425 2491 3425 1978 
L 3425 0 
L 2847 0 
L 2847 2094 
Q 2847 2600 2669 2842 
Q 2491 3084 2119 3084 
Q 1678 3084 1418 2786 
Q 1159 2488 1159 1978 
L 1159 0 
L 581 0 
L 581 3500 
L 1159 3500 
L 1159 2956 
Q 1356 3278 1631 3431 
Q 1906 3584 2284 3584 
Q 2666 3584 2933 3390 
Q 3200 3197 3328 2828 
z
" id="DejaVuSans-6d" transform="scale(0.015625)"/>
       </defs>
       <use xlink:href="#DejaVuSans-31"/>
       <use x="63.623047" xlink:href="#DejaVuSans-34"/>
       <use x="127.246094" xlink:href="#DejaVuSans-6d"/>
      </g>
     </g>
    </g>
    <g id="xtick_2">
     <g id="line2d_2">
      <g>
       <use style="stroke:#000000;stroke-width:0.8;" x="140.854543" xlink:href="#m0dbc7de0db" y="288.430125"/>
      </g>
     </g>
     <g id="text_2">
      <!-- 34m -->
      <g transform="translate(129.621731 303.028562)scale(0.1 -0.1)">
       <defs>
        <path d="M 2597 2516 
Q 3050 2419 3304 2112 
Q 3559 1806 3559 1356 
Q 3559 666 3084 287 
Q 2609 -91 1734 -91 
Q 1441 -91 1130 -33 
Q 819 25 488 141 
L 488 750 
Q 750 597 1062 519 
Q 1375 441 1716 441 
Q 2309 441 2620 675 
Q 2931 909 2931 1356 
Q 2931 1769 2642 2001 
Q 2353 2234 1838 2234 
L 1294 2234 
L 1294 2753 
L 1863 2753 
Q 2328 2753 2575 2939 
Q 2822 3125 2822 3475 
Q 2822 3834 2567 4026 
Q 2313 4219 1838 4219 
Q 1578 4219 1281 4162 
Q 984 4106 628 3988 
L 628 4550 
Q 988 4650 1302 4700 
Q 1616 4750 1894 4750 
Q 2613 4750 3031 4423 
Q 3450 4097 3450 3541 
Q 3450 3153 3228 2886 
Q 3006 2619 2597 2516 
z
" id="DejaVuSans-33" transform="scale(0.015625)"/>
       </defs>
       <use xlink:href="#DejaVuSans-33"/>
       <use x="63.623047" xlink:href="#DejaVuSans-34"/>
       <use x="127.246094" xlink:href="#DejaVuSans-6d"/>
      </g>
     </g>
    </g>
    <g id="xtick_3">
     <g id="line2d_3">
      <g>
       <use style="stroke:#000000;stroke-width:0.8;" x="205.785734" xlink:href="#m0dbc7de0db" y="288.430125"/>
      </g>
     </g>
     <g id="text_3">
      <!-- 1h:18m -->
      <g transform="translate(186.518547 303.028562)scale(0.1 -0.1)">
       <defs>
        <path d="M 3513 2113 
L 3513 0 
L 2938 0 
L 2938 2094 
Q 2938 2591 2744 2837 
Q 2550 3084 2163 3084 
Q 1697 3084 1428 2787 
Q 1159 2491 1159 1978 
L 1159 0 
L 581 0 
L 581 4863 
L 1159 4863 
L 1159 2956 
Q 1366 3272 1645 3428 
Q 1925 3584 2291 3584 
Q 2894 3584 3203 3211 
Q 3513 2838 3513 2113 
z
" id="DejaVuSans-68" transform="scale(0.015625)"/>
        <path d="M 750 794 
L 1409 794 
L 1409 0 
L 750 0 
L 750 794 
z
M 750 3309 
L 1409 3309 
L 1409 2516 
L 750 2516 
L 750 3309 
z
" id="DejaVuSans-3a" transform="scale(0.015625)"/>
        <path d="M 2034 2216 
Q 1584 2216 1326 1975 
Q 1069 1734 1069 1313 
Q 1069 891 1326 650 
Q 1584 409 2034 409 
Q 2484 409 2743 651 
Q 3003 894 3003 1313 
Q 3003 1734 2745 1975 
Q 2488 2216 2034 2216 
z
M 1403 2484 
Q 997 2584 770 2862 
Q 544 3141 544 3541 
Q 544 4100 942 4425 
Q 1341 4750 2034 4750 
Q 2731 4750 3128 4425 
Q 3525 4100 3525 3541 
Q 3525 3141 3298 2862 
Q 3072 2584 2669 2484 
Q 3125 2378 3379 2068 
Q 3634 1759 3634 1313 
Q 3634 634 3220 271 
Q 2806 -91 2034 -91 
Q 1263 -91 848 271 
Q 434 634 434 1313 
Q 434 1759 690 2068 
Q 947 2378 1403 2484 
z
M 1172 3481 
Q 1172 3119 1398 2916 
Q 1625 2713 2034 2713 
Q 2441 2713 2670 2916 
Q 2900 3119 2900 3481 
Q 2900 3844 2670 4047 
Q 2441 4250 2034 4250 
Q 1625 4250 1398 4047 
Q 1172 3844 1172 3481 
z
" id="DejaVuSans-38" transform="scale(0.015625)"/>
       </defs>
       <use xlink:href="#DejaVuSans-31"/>
       <use x="63.623047" xlink:href="#DejaVuSans-68"/>
       <use x="127.001953" xlink:href="#DejaVuSans-3a"/>
       <use x="160.693359" xlink:href="#DejaVuSans-31"/>
       <use x="224.316406" xlink:href="#DejaVuSans-38"/>
       <use x="287.939453" xlink:href="#DejaVuSans-6d"/>
      </g>
     </g>
    </g>
    <g id="xtick_4">
     <g id="line2d_4">
      <g>
       <use style="stroke:#000000;stroke-width:0.8;" x="270.716925" xlink:href="#m0dbc7de0db" y="288.430125"/>
      </g>
     </g>
     <g id="text_4">
      <!-- 2h:58m -->
      <g transform="translate(251.449738 303.028562)scale(0.1 -0.1)">
       <defs>
        <path d="M 1228 531 
L 3431 531 
L 3431 0 
L 469 0 
L 469 531 
Q 828 903 1448 1529 
Q 2069 2156 2228 2338 
Q 2531 2678 2651 2914 
Q 2772 3150 2772 3378 
Q 2772 3750 2511 3984 
Q 2250 4219 1831 4219 
Q 1534 4219 1204 4116 
Q 875 4013 500 3803 
L 500 4441 
Q 881 4594 1212 4672 
Q 1544 4750 1819 4750 
Q 2544 4750 2975 4387 
Q 3406 4025 3406 3419 
Q 3406 3131 3298 2873 
Q 3191 2616 2906 2266 
Q 2828 2175 2409 1742 
Q 1991 1309 1228 531 
z
" id="DejaVuSans-32" transform="scale(0.015625)"/>
        <path d="M 691 4666 
L 3169 4666 
L 3169 4134 
L 1269 4134 
L 1269 2991 
Q 1406 3038 1543 3061 
Q 1681 3084 1819 3084 
Q 2600 3084 3056 2656 
Q 3513 2228 3513 1497 
Q 3513 744 3044 326 
Q 2575 -91 1722 -91 
Q 1428 -91 1123 -41 
Q 819 9 494 109 
L 494 744 
Q 775 591 1075 516 
Q 1375 441 1709 441 
Q 2250 441 2565 725 
Q 2881 1009 2881 1497 
Q 2881 1984 2565 2268 
Q 2250 2553 1709 2553 
Q 1456 2553 1204 2497 
Q 953 2441 691 2322 
L 691 4666 
z
" id="DejaVuSans-35" transform="scale(0.015625)"/>
       </defs>
       <use xlink:href="#DejaVuSans-32"/>
       <use x="63.623047" xlink:href="#DejaVuSans-68"/>
       <use x="127.001953" xlink:href="#DejaVuSans-3a"/>
       <use x="160.693359" xlink:href="#DejaVuSans-35"/>
       <use x="224.316406" xlink:href="#DejaVuSans-38"/>
       <use x="287.939453" xlink:href="#DejaVuSans-6d"/>
      </g>
     </g>
    </g>
    <g id="xtick_5">
     <g id="line2d_5">
      <g>
       <use style="stroke:#000000;stroke-width:0.8;" x="335.648116" xlink:href="#m0dbc7de0db" y="288.430125"/>
      </g>
     </g>
     <g id="text_5">
      <!-- 6h:47m -->
      <g transform="translate(316.380929 303.028562)scale(0.1 -0.1)">
       <defs>
        <path d="M 2113 2584 
Q 1688 2584 1439 2293 
Q 1191 2003 1191 1497 
Q 1191 994 1439 701 
Q 1688 409 2113 409 
Q 2538 409 2786 701 
Q 3034 994 3034 1497 
Q 3034 2003 2786 2293 
Q 2538 2584 2113 2584 
z
M 3366 4563 
L 3366 3988 
Q 3128 4100 2886 4159 
Q 2644 4219 2406 4219 
Q 1781 4219 1451 3797 
Q 1122 3375 1075 2522 
Q 1259 2794 1537 2939 
Q 1816 3084 2150 3084 
Q 2853 3084 3261 2657 
Q 3669 2231 3669 1497 
Q 3669 778 3244 343 
Q 2819 -91 2113 -91 
Q 1303 -91 875 529 
Q 447 1150 447 2328 
Q 447 3434 972 4092 
Q 1497 4750 2381 4750 
Q 2619 4750 2861 4703 
Q 3103 4656 3366 4563 
z
" id="DejaVuSans-36" transform="scale(0.015625)"/>
        <path d="M 525 4666 
L 3525 4666 
L 3525 4397 
L 1831 0 
L 1172 0 
L 2766 4134 
L 525 4134 
L 525 4666 
z
" id="DejaVuSans-37" transform="scale(0.015625)"/>
       </defs>
       <use xlink:href="#DejaVuSans-36"/>
       <use x="63.623047" xlink:href="#DejaVuSans-68"/>
       <use x="127.001953" xlink:href="#DejaVuSans-3a"/>
       <use x="160.693359" xlink:href="#DejaVuSans-34"/>
       <use x="224.316406" xlink:href="#DejaVuSans-37"/>
       <use x="287.939453" xlink:href="#DejaVuSans-6d"/>
      </g>
     </g>
    </g>
    <g id="xtick_6">
     <g id="line2d_6">
      <g>
       <use style="stroke:#000000;stroke-width:0.8;" x="400.579307" xlink:href="#m0dbc7de0db" y="288.430125"/>
      </g>
     </g>
     <g id="text_6">
      <!-- 15h:30m -->
      <g transform="translate(378.13087 303.028562)scale(0.1 -0.1)">
       <defs>
        <path d="M 2034 4250 
Q 1547 4250 1301 3770 
Q 1056 3291 1056 2328 
Q 1056 1369 1301 889 
Q 1547 409 2034 409 
Q 2525 409 2770 889 
Q 3016 1369 3016 2328 
Q 3016 3291 2770 3770 
Q 2525 4250 2034 4250 
z
M 2034 4750 
Q 2819 4750 3233 4129 
Q 3647 3509 3647 2328 
Q 3647 1150 3233 529 
Q 2819 -91 2034 -91 
Q 1250 -91 836 529 
Q 422 1150 422 2328 
Q 422 3509 836 4129 
Q 1250 4750 2034 4750 
z
" id="DejaVuSans-30" transform="scale(0.015625)"/>
       </defs>
       <use xlink:href="#DejaVuSans-31"/>
       <use x="63.623047" xlink:href="#DejaVuSans-35"/>
       <use x="127.246094" xlink:href="#DejaVuSans-68"/>
       <use x="190.625" xlink:href="#DejaVuSans-3a"/>
       <use x="224.316406" xlink:href="#DejaVuSans-33"/>
       <use x="287.939453" xlink:href="#DejaVuSans-30"/>
       <use x="351.5625" xlink:href="#DejaVuSans-6d"/>
      </g>
     </g>
    </g>
    <g id="xtick_7">
     <g id="line2d_7">
      <defs>
       <path d="M 0 0 
L 0 2 
" id="mb8b1ff8cfd" style="stroke:#000000;stroke-width:0.6;"/>
      </defs>
      <g>
       <use style="stroke:#000000;stroke-width:0.6;" x="66.658135" xlink:href="#mb8b1ff8cfd" y="288.430125"/>
      </g>
     </g>
    </g>
    <g id="xtick_8">
     <g id="line2d_8">
      <g>
       <use style="stroke:#000000;stroke-width:0.6;" x="138.736706" xlink:href="#mb8b1ff8cfd" y="288.430125"/>
      </g>
     </g>
    </g>
    <g id="xtick_9">
     <g id="line2d_9">
      <g>
       <use style="stroke:#000000;stroke-width:0.6;" x="170.631982" xlink:href="#mb8b1ff8cfd" y="288.430125"/>
      </g>
     </g>
    </g>
    <g id="xtick_10">
     <g id="line2d_10">
      <g>
       <use style="stroke:#000000;stroke-width:0.6;" x="193.262041" xlink:href="#mb8b1ff8cfd" y="288.430125"/>
      </g>
     </g>
    </g>
    <g id="xtick_11">
     <g id="line2d_11">
      <g>
       <use style="stroke:#000000;stroke-width:0.6;" x="210.815278" xlink:href="#mb8b1ff8cfd" y="288.430125"/>
      </g>
     </g>
    </g>
    <g id="xtick_12">
     <g id="line2d_12">
      <g>
       <use style="stroke:#000000;stroke-width:0.6;" x="225.157317" xlink:href="#mb8b1ff8cfd" y="288.430125"/>
      </g>
     </g>
    </g>
    <g id="xtick_13">
     <g id="line2d_13">
      <g>
       <use style="stroke:#000000;stroke-width:0.6;" x="237.283338" xlink:href="#mb8b1ff8cfd" y="288.430125"/>
      </g>
     </g>
    </g>
    <g id="xtick_14">
     <g id="line2d_14">
      <g>
       <use style="stroke:#000000;stroke-width:0.6;" x="247.787375" xlink:href="#mb8b1ff8cfd" y="288.430125"/>
      </g>
     </g>
    </g>
    <g id="xtick_15">
     <g id="line2d_15">
      <g>
       <use style="stroke:#000000;stroke-width:0.6;" x="257.052593" xlink:href="#mb8b1ff8cfd" y="288.430125"/>
      </g>
     </g>
    </g>
    <g id="xtick_16">
     <g id="line2d_16">
      <g>
       <use style="stroke:#000000;stroke-width:0.6;" x="319.865947" xlink:href="#mb8b1ff8cfd" y="288.430125"/>
      </g>
     </g>
    </g>
    <g id="xtick_17">
     <g id="line2d_17">
      <g>
       <use style="stroke:#000000;stroke-width:0.6;" x="351.761223" xlink:href="#mb8b1ff8cfd" y="288.430125"/>
      </g>
     </g>
    </g>
    <g id="xtick_18">
     <g id="line2d_18">
      <g>
       <use style="stroke:#000000;stroke-width:0.6;" x="374.391281" xlink:href="#mb8b1ff8cfd" y="288.430125"/>
      </g>
     </g>
    </g>
    <g id="xtick_19">
     <g id="line2d_19">
      <g>
       <use style="stroke:#000000;stroke-width:0.6;" x="391.944518" xlink:href="#mb8b1ff8cfd" y="288.430125"/>
      </g>
     </g>
    </g>
    <g id="xtick_20">
     <g id="line2d_20">
      <g>
       <use style="stroke:#000000;stroke-width:0.6;" x="406.286557" xlink:href="#mb8b1ff8cfd" y="288.430125"/>
      </g>
     </g>
    </g>
    <g id="text_7">
     <!-- Time (hour:minute) -->
     <g transform="translate(189.843594 316.706687)scale(0.1 -0.1)">
      <defs>
       <path d="M -19 4666 
L 3928 4666 
L 3928 4134 
L 2272 4134 
L 2272 0 
L 1638 0 
L 1638 4134 
L -19 4134 
L -19 4666 
z
" id="DejaVuSans-54" transform="scale(0.015625)"/>
       <path d="M 603 3500 
L 1178 3500 
L 1178 0 
L 603 0 
L 603 3500 
z
M 603 4863 
L 1178 4863 
L 1178 4134 
L 603 4134 
L 603 4863 
z
" id="DejaVuSans-69" transform="scale(0.015625)"/>
       <path d="M 3597 1894 
L 3597 1613 
L 953 1613 
Q 991 1019 1311 708 
Q 1631 397 2203 397 
Q 2534 397 2845 478 
Q 3156 559 3463 722 
L 3463 178 
Q 3153 47 2828 -22 
Q 2503 -91 2169 -91 
Q 1331 -91 842 396 
Q 353 884 353 1716 
Q 353 2575 817 3079 
Q 1281 3584 2069 3584 
Q 2775 3584 3186 3129 
Q 3597 2675 3597 1894 
z
M 3022 2063 
Q 3016 2534 2758 2815 
Q 2500 3097 2075 3097 
Q 1594 3097 1305 2825 
Q 1016 2553 972 2059 
L 3022 2063 
z
" id="DejaVuSans-65" transform="scale(0.015625)"/>
       <path id="DejaVuSans-20" transform="scale(0.015625)"/>
       <path d="M 1984 4856 
Q 1566 4138 1362 3434 
Q 1159 2731 1159 2009 
Q 1159 1288 1364 580 
Q 1569 -128 1984 -844 
L 1484 -844 
Q 1016 -109 783 600 
Q 550 1309 550 2009 
Q 550 2706 781 3412 
Q 1013 4119 1484 4856 
L 1984 4856 
z
" id="DejaVuSans-28" transform="scale(0.015625)"/>
       <path d="M 1959 3097 
Q 1497 3097 1228 2736 
Q 959 2375 959 1747 
Q 959 1119 1226 758 
Q 1494 397 1959 397 
Q 2419 397 2687 759 
Q 2956 1122 2956 1747 
Q 2956 2369 2687 2733 
Q 2419 3097 1959 3097 
z
M 1959 3584 
Q 2709 3584 3137 3096 
Q 3566 2609 3566 1747 
Q 3566 888 3137 398 
Q 2709 -91 1959 -91 
Q 1206 -91 779 398 
Q 353 888 353 1747 
Q 353 2609 779 3096 
Q 1206 3584 1959 3584 
z
" id="DejaVuSans-6f" transform="scale(0.015625)"/>
       <path d="M 544 1381 
L 544 3500 
L 1119 3500 
L 1119 1403 
Q 1119 906 1312 657 
Q 1506 409 1894 409 
Q 2359 409 2629 706 
Q 2900 1003 2900 1516 
L 2900 3500 
L 3475 3500 
L 3475 0 
L 2900 0 
L 2900 538 
Q 2691 219 2414 64 
Q 2138 -91 1772 -91 
Q 1169 -91 856 284 
Q 544 659 544 1381 
z
M 1991 3584 
L 1991 3584 
z
" id="DejaVuSans-75" transform="scale(0.015625)"/>
       <path d="M 2631 2963 
Q 2534 3019 2420 3045 
Q 2306 3072 2169 3072 
Q 1681 3072 1420 2755 
Q 1159 2438 1159 1844 
L 1159 0 
L 581 0 
L 581 3500 
L 1159 3500 
L 1159 2956 
Q 1341 3275 1631 3429 
Q 1922 3584 2338 3584 
Q 2397 3584 2469 3576 
Q 2541 3569 2628 3553 
L 2631 2963 
z
" id="DejaVuSans-72" transform="scale(0.015625)"/>
       <path d="M 3513 2113 
L 3513 0 
L 2938 0 
L 2938 2094 
Q 2938 2591 2744 2837 
Q 2550 3084 2163 3084 
Q 1697 3084 1428 2787 
Q 1159 2491 1159 1978 
L 1159 0 
L 581 0 
L 581 3500 
L 1159 3500 
L 1159 2956 
Q 1366 3272 1645 3428 
Q 1925 3584 2291 3584 
Q 2894 3584 3203 3211 
Q 3513 2838 3513 2113 
z
" id="DejaVuSans-6e" transform="scale(0.015625)"/>
       <path d="M 1172 4494 
L 1172 3500 
L 2356 3500 
L 2356 3053 
L 1172 3053 
L 1172 1153 
Q 1172 725 1289 603 
Q 1406 481 1766 481 
L 2356 481 
L 2356 0 
L 1766 0 
Q 1100 0 847 248 
Q 594 497 594 1153 
L 594 3053 
L 172 3053 
L 172 3500 
L 594 3500 
L 594 4494 
L 1172 4494 
z
" id="DejaVuSans-74" transform="scale(0.015625)"/>
       <path d="M 513 4856 
L 1013 4856 
Q 1481 4119 1714 3412 
Q 1947 2706 1947 2009 
Q 1947 1309 1714 600 
Q 1481 -109 1013 -844 
L 513 -844 
Q 928 -128 1133 580 
Q 1338 1288 1338 2009 
Q 1338 2731 1133 3434 
Q 928 4138 513 4856 
z
" id="DejaVuSans-29" transform="scale(0.015625)"/>
      </defs>
      <use xlink:href="#DejaVuSans-54"/>
      <use x="57.958984" xlink:href="#DejaVuSans-69"/>
      <use x="85.742188" xlink:href="#DejaVuSans-6d"/>
      <use x="183.154297" xlink:href="#DejaVuSans-65"/>
      <use x="244.677734" xlink:href="#DejaVuSans-20"/>
      <use x="276.464844" xlink:href="#DejaVuSans-28"/>
      <use x="315.478516" xlink:href="#DejaVuSans-68"/>
      <use x="378.857422" xlink:href="#DejaVuSans-6f"/>
      <use x="440.039062" xlink:href="#DejaVuSans-75"/>
      <use x="503.417969" xlink:href="#DejaVuSans-72"/>
      <use x="542.78125" xlink:href="#DejaVuSans-3a"/>
      <use x="576.472656" xlink:href="#DejaVuSans-6d"/>
      <use x="673.884766" xlink:href="#DejaVuSans-69"/>
      <use x="701.667969" xlink:href="#DejaVuSans-6e"/>
      <use x="765.046875" xlink:href="#DejaVuSans-75"/>
      <use x="828.425781" xlink:href="#DejaVuSans-74"/>
      <use x="867.634766" xlink:href="#DejaVuSans-65"/>
      <use x="929.158203" xlink:href="#DejaVuSans-29"/>
     </g>
    </g>
   </g>
   <g id="matplotlib.axis_2">
    <g id="ytick_1">
     <g id="line2d_21">
      <defs>
       <path d="M 0 0 
L -3.5 0 
" id="m40739c08d3" style="stroke:#000000;stroke-width:0.8;"/>
      </defs>
      <g>
       <use style="stroke:#000000;stroke-width:0.8;" x="59.690625" xlink:href="#m40739c08d3" y="256.854196"/>
      </g>
     </g>
     <g id="text_8">
      <!-- 13000 -->
      <g transform="translate(20.878125 260.653415)scale(0.1 -0.1)">
       <use xlink:href="#DejaVuSans-31"/>
       <use x="63.623047" xlink:href="#DejaVuSans-33"/>
       <use x="127.246094" xlink:href="#DejaVuSans-30"/>
       <use x="190.869141" xlink:href="#DejaVuSans-30"/>
       <use x="254.492188" xlink:href="#DejaVuSans-30"/>
      </g>
     </g>
    </g>
    <g id="ytick_2">
     <g id="line2d_22">
      <g>
       <use style="stroke:#000000;stroke-width:0.8;" x="59.690625" xlink:href="#m40739c08d3" y="206.322603"/>
      </g>
     </g>
     <g id="text_9">
      <!-- 14000 -->
      <g transform="translate(20.878125 210.121822)scale(0.1 -0.1)">
       <use xlink:href="#DejaVuSans-31"/>
       <use x="63.623047" xlink:href="#DejaVuSans-34"/>
       <use x="127.246094" xlink:href="#DejaVuSans-30"/>
       <use x="190.869141" xlink:href="#DejaVuSans-30"/>
       <use x="254.492188" xlink:href="#DejaVuSans-30"/>
      </g>
     </g>
    </g>
    <g id="ytick_3">
     <g id="line2d_23">
      <g>
       <use style="stroke:#000000;stroke-width:0.8;" x="59.690625" xlink:href="#m40739c08d3" y="155.791011"/>
      </g>
     </g>
     <g id="text_10">
      <!-- 15000 -->
      <g transform="translate(20.878125 159.590229)scale(0.1 -0.1)">
       <use xlink:href="#DejaVuSans-31"/>
       <use x="63.623047" xlink:href="#DejaVuSans-35"/>
       <use x="127.246094" xlink:href="#DejaVuSans-30"/>
       <use x="190.869141" xlink:href="#DejaVuSans-30"/>
       <use x="254.492188" xlink:href="#DejaVuSans-30"/>
      </g>
     </g>
    </g>
    <g id="ytick_4">
     <g id="line2d_24">
      <g>
       <use style="stroke:#000000;stroke-width:0.8;" x="59.690625" xlink:href="#m40739c08d3" y="105.259418"/>
      </g>
     </g>
     <g id="text_11">
      <!-- 16000 -->
      <g transform="translate(20.878125 109.058637)scale(0.1 -0.1)">
       <use xlink:href="#DejaVuSans-31"/>
       <use x="63.623047" xlink:href="#DejaVuSans-36"/>
       <use x="127.246094" xlink:href="#DejaVuSans-30"/>
       <use x="190.869141" xlink:href="#DejaVuSans-30"/>
       <use x="254.492188" xlink:href="#DejaVuSans-30"/>
      </g>
     </g>
    </g>
    <g id="ytick_5">
     <g id="line2d_25">
      <g>
       <use style="stroke:#000000;stroke-width:0.8;" x="59.690625" xlink:href="#m40739c08d3" y="54.727825"/>
      </g>
     </g>
     <g id="text_12">
      <!-- 17000 -->
      <g transform="translate(20.878125 58.527044)scale(0.1 -0.1)">
       <use xlink:href="#DejaVuSans-31"/>
       <use x="63.623047" xlink:href="#DejaVuSans-37"/>
       <use x="127.246094" xlink:href="#DejaVuSans-30"/>
       <use x="190.869141" xlink:href="#DejaVuSans-30"/>
       <use x="254.492188" xlink:href="#DejaVuSans-30"/>
      </g>
     </g>
    </g>
    <g id="text_13">
     <!-- Code region coverage -->
     <g transform="translate(14.798438 210.379594)rotate(-90)scale(0.1 -0.1)">
      <defs>
       <path d="M 4122 4306 
L 4122 3641 
Q 3803 3938 3442 4084 
Q 3081 4231 2675 4231 
Q 1875 4231 1450 3742 
Q 1025 3253 1025 2328 
Q 1025 1406 1450 917 
Q 1875 428 2675 428 
Q 3081 428 3442 575 
Q 3803 722 4122 1019 
L 4122 359 
Q 3791 134 3420 21 
Q 3050 -91 2638 -91 
Q 1578 -91 968 557 
Q 359 1206 359 2328 
Q 359 3453 968 4101 
Q 1578 4750 2638 4750 
Q 3056 4750 3426 4639 
Q 3797 4528 4122 4306 
z
" id="DejaVuSans-43" transform="scale(0.015625)"/>
       <path d="M 2906 2969 
L 2906 4863 
L 3481 4863 
L 3481 0 
L 2906 0 
L 2906 525 
Q 2725 213 2448 61 
Q 2172 -91 1784 -91 
Q 1150 -91 751 415 
Q 353 922 353 1747 
Q 353 2572 751 3078 
Q 1150 3584 1784 3584 
Q 2172 3584 2448 3432 
Q 2725 3281 2906 2969 
z
M 947 1747 
Q 947 1113 1208 752 
Q 1469 391 1925 391 
Q 2381 391 2643 752 
Q 2906 1113 2906 1747 
Q 2906 2381 2643 2742 
Q 2381 3103 1925 3103 
Q 1469 3103 1208 2742 
Q 947 2381 947 1747 
z
" id="DejaVuSans-64" transform="scale(0.015625)"/>
       <path d="M 2906 1791 
Q 2906 2416 2648 2759 
Q 2391 3103 1925 3103 
Q 1463 3103 1205 2759 
Q 947 2416 947 1791 
Q 947 1169 1205 825 
Q 1463 481 1925 481 
Q 2391 481 2648 825 
Q 2906 1169 2906 1791 
z
M 3481 434 
Q 3481 -459 3084 -895 
Q 2688 -1331 1869 -1331 
Q 1566 -1331 1297 -1286 
Q 1028 -1241 775 -1147 
L 775 -588 
Q 1028 -725 1275 -790 
Q 1522 -856 1778 -856 
Q 2344 -856 2625 -561 
Q 2906 -266 2906 331 
L 2906 616 
Q 2728 306 2450 153 
Q 2172 0 1784 0 
Q 1141 0 747 490 
Q 353 981 353 1791 
Q 353 2603 747 3093 
Q 1141 3584 1784 3584 
Q 2172 3584 2450 3431 
Q 2728 3278 2906 2969 
L 2906 3500 
L 3481 3500 
L 3481 434 
z
" id="DejaVuSans-67" transform="scale(0.015625)"/>
       <path d="M 3122 3366 
L 3122 2828 
Q 2878 2963 2633 3030 
Q 2388 3097 2138 3097 
Q 1578 3097 1268 2742 
Q 959 2388 959 1747 
Q 959 1106 1268 751 
Q 1578 397 2138 397 
Q 2388 397 2633 464 
Q 2878 531 3122 666 
L 3122 134 
Q 2881 22 2623 -34 
Q 2366 -91 2075 -91 
Q 1284 -91 818 406 
Q 353 903 353 1747 
Q 353 2603 823 3093 
Q 1294 3584 2113 3584 
Q 2378 3584 2631 3529 
Q 2884 3475 3122 3366 
z
" id="DejaVuSans-63" transform="scale(0.015625)"/>
       <path d="M 191 3500 
L 800 3500 
L 1894 563 
L 2988 3500 
L 3597 3500 
L 2284 0 
L 1503 0 
L 191 3500 
z
" id="DejaVuSans-76" transform="scale(0.015625)"/>
       <path d="M 2194 1759 
Q 1497 1759 1228 1600 
Q 959 1441 959 1056 
Q 959 750 1161 570 
Q 1363 391 1709 391 
Q 2188 391 2477 730 
Q 2766 1069 2766 1631 
L 2766 1759 
L 2194 1759 
z
M 3341 1997 
L 3341 0 
L 2766 0 
L 2766 531 
Q 2569 213 2275 61 
Q 1981 -91 1556 -91 
Q 1019 -91 701 211 
Q 384 513 384 1019 
Q 384 1609 779 1909 
Q 1175 2209 1959 2209 
L 2766 2209 
L 2766 2266 
Q 2766 2663 2505 2880 
Q 2244 3097 1772 3097 
Q 1472 3097 1187 3025 
Q 903 2953 641 2809 
L 641 3341 
Q 956 3463 1253 3523 
Q 1550 3584 1831 3584 
Q 2591 3584 2966 3190 
Q 3341 2797 3341 1997 
z
" id="DejaVuSans-61" transform="scale(0.015625)"/>
      </defs>
      <use xlink:href="#DejaVuSans-43"/>
      <use x="69.824219" xlink:href="#DejaVuSans-6f"/>
      <use x="131.005859" xlink:href="#DejaVuSans-64"/>
      <use x="194.482422" xlink:href="#DejaVuSans-65"/>
      <use x="256.005859" xlink:href="#DejaVuSans-20"/>
      <use x="287.792969" xlink:href="#DejaVuSans-72"/>
      <use x="326.65625" xlink:href="#DejaVuSans-65"/>
      <use x="388.179688" xlink:href="#DejaVuSans-67"/>
      <use x="451.65625" xlink:href="#DejaVuSans-69"/>
      <use x="479.439453" xlink:href="#DejaVuSans-6f"/>
      <use x="540.621094" xlink:href="#DejaVuSans-6e"/>
      <use x="604" xlink:href="#DejaVuSans-20"/>
      <use x="635.787109" xlink:href="#DejaVuSans-63"/>
      <use x="690.767578" xlink:href="#DejaVuSans-6f"/>
      <use x="751.949219" xlink:href="#DejaVuSans-76"/>
      <use x="811.128906" xlink:href="#DejaVuSans-65"/>
      <use x="872.652344" xlink:href="#DejaVuSans-72"/>
      <use x="913.765625" xlink:href="#DejaVuSans-61"/>
      <use x="975.044922" xlink:href="#DejaVuSans-67"/>
      <use x="1038.521484" xlink:href="#DejaVuSans-65"/>
     </g>
    </g>
   </g>
   <g id="line2d_26">
    <path clip-path="url(#pcc8c1fe016)" d="M 75.923352 264.58553 
L 130.448687 249.223926 
L 162.343963 242.806413 
L 184.974021 235.580395 
L 202.527258 229.946123 
L 216.869297 222.644308 
L 228.995318 220.724107 
L 239.499356 218.955502 
L 248.764573 218.349122 
L 257.052593 216.883706 
L 264.550018 215.317227 
L 271.394632 208.44493 
L 277.691066 204.30134 
L 283.520653 202.179013 
L 288.947869 196.797398 
L 294.02469 195.685703 
L 298.793631 191.415783 
L 303.289908 187.777509 
L 307.543021 182.067439 
L 311.577927 176.913216 
L 315.415929 171.935855 
L 319.075353 170.167249 
L 322.572081 167.716467 
L 325.919966 159.201893 
L 329.131164 152.253799 
L 332.2164 147.807019 
L 335.185184 143.309707 
L 338.045987 137.751232 
L 340.806391 134.921463 
L 343.473203 126.432155 
L 346.052563 124.107702 
L 348.550025 119.105074 
L 350.970629 115.820521 
L 353.318965 112.081183 
L 355.599224 103.996128 
L 357.815242 99.397753 
L 359.97054 94.950973 
L 362.068355 95.228897 
L 364.111676 91.969609 
L 366.103262 88.381866 
L 368.045667 87.775487 
L 369.941263 83.025517 
L 371.792253 79.134585 
L 373.600687 78.932458 
L 375.368479 76.254284 
L 377.097416 70.443151 
L 378.789167 70.241024 
L 380.445301 68.52295 
L 382.067285 65.187865 
L 383.656499 61.499059 
L 385.214241 61.448527 
L 386.741735 56.193241 
L 388.240131 59.983111 
L 389.710518 58.3661 
L 391.153924 53.161346 
L 392.571322 50.382108 
L 393.963631 49.219882 
L 395.331725 48.057655 
L 396.676432 45.910062 
L 397.998538 45.834265 
L 399.298789 45.632139 
L 400.577898 43.358217 
" style="fill:none;stroke:#98df8a;stroke-linecap:square;stroke-width:1.5;"/>
    <defs>
     <path d="M -0 3 
L 3 -3 
L -3 -3 
z
" id="mcc16cc41d0" style="stroke:#ffffff;stroke-linejoin:miter;stroke-width:0.75;"/>
    </defs>
    <g clip-path="url(#pcc8c1fe016)">
     <use style="fill:#98df8a;stroke:#ffffff;stroke-linejoin:miter;stroke-width:0.75;" x="75.923352" xlink:href="#mcc16cc41d0" y="264.58553"/>
     <use style="fill:#98df8a;stroke:#ffffff;stroke-linejoin:miter;stroke-width:0.75;" x="130.448687" xlink:href="#mcc16cc41d0" y="249.223926"/>
     <use style="fill:#98df8a;stroke:#ffffff;stroke-linejoin:miter;stroke-width:0.75;" x="162.343963" xlink:href="#mcc16cc41d0" y="242.806413"/>
     <use style="fill:#98df8a;stroke:#ffffff;stroke-linejoin:miter;stroke-width:0.75;" x="184.974021" xlink:href="#mcc16cc41d0" y="235.580395"/>
     <use style="fill:#98df8a;stroke:#ffffff;stroke-linejoin:miter;stroke-width:0.75;" x="202.527258" xlink:href="#mcc16cc41d0" y="229.946123"/>
     <use style="fill:#98df8a;stroke:#ffffff;stroke-linejoin:miter;stroke-width:0.75;" x="216.869297" xlink:href="#mcc16cc41d0" y="222.644308"/>
     <use style="fill:#98df8a;stroke:#ffffff;stroke-linejoin:miter;stroke-width:0.75;" x="228.995318" xlink:href="#mcc16cc41d0" y="220.724107"/>
     <use style="fill:#98df8a;stroke:#ffffff;stroke-linejoin:miter;stroke-width:0.75;" x="239.499356" xlink:href="#mcc16cc41d0" y="218.955502"/>
     <use style="fill:#98df8a;stroke:#ffffff;stroke-linejoin:miter;stroke-width:0.75;" x="248.764573" xlink:href="#mcc16cc41d0" y="218.349122"/>
     <use style="fill:#98df8a;stroke:#ffffff;stroke-linejoin:miter;stroke-width:0.75;" x="257.052593" xlink:href="#mcc16cc41d0" y="216.883706"/>
     <use style="fill:#98df8a;stroke:#ffffff;stroke-linejoin:miter;stroke-width:0.75;" x="264.550018" xlink:href="#mcc16cc41d0" y="215.317227"/>
     <use style="fill:#98df8a;stroke:#ffffff;stroke-linejoin:miter;stroke-width:0.75;" x="271.394632" xlink:href="#mcc16cc41d0" y="208.44493"/>
     <use style="fill:#98df8a;stroke:#ffffff;stroke-linejoin:miter;stroke-width:0.75;" x="277.691066" xlink:href="#mcc16cc41d0" y="204.30134"/>
     <use style="fill:#98df8a;stroke:#ffffff;stroke-linejoin:miter;stroke-width:0.75;" x="283.520653" xlink:href="#mcc16cc41d0" y="202.179013"/>
     <use style="fill:#98df8a;stroke:#ffffff;stroke-linejoin:miter;stroke-width:0.75;" x="288.947869" xlink:href="#mcc16cc41d0" y="196.797398"/>
     <use style="fill:#98df8a;stroke:#ffffff;stroke-linejoin:miter;stroke-width:0.75;" x="294.02469" xlink:href="#mcc16cc41d0" y="195.685703"/>
     <use style="fill:#98df8a;stroke:#ffffff;stroke-linejoin:miter;stroke-width:0.75;" x="298.793631" xlink:href="#mcc16cc41d0" y="191.415783"/>
     <use style="fill:#98df8a;stroke:#ffffff;stroke-linejoin:miter;stroke-width:0.75;" x="303.289908" xlink:href="#mcc16cc41d0" y="187.777509"/>
     <use style="fill:#98df8a;stroke:#ffffff;stroke-linejoin:miter;stroke-width:0.75;" x="307.543021" xlink:href="#mcc16cc41d0" y="182.067439"/>
     <use style="fill:#98df8a;stroke:#ffffff;stroke-linejoin:miter;stroke-width:0.75;" x="311.577927" xlink:href="#mcc16cc41d0" y="176.913216"/>
     <use style="fill:#98df8a;stroke:#ffffff;stroke-linejoin:miter;stroke-width:0.75;" x="315.415929" xlink:href="#mcc16cc41d0" y="171.935855"/>
     <use style="fill:#98df8a;stroke:#ffffff;stroke-linejoin:miter;stroke-width:0.75;" x="319.075353" xlink:href="#mcc16cc41d0" y="170.167249"/>
     <use style="fill:#98df8a;stroke:#ffffff;stroke-linejoin:miter;stroke-width:0.75;" x="322.572081" xlink:href="#mcc16cc41d0" y="167.716467"/>
     <use style="fill:#98df8a;stroke:#ffffff;stroke-linejoin:miter;stroke-width:0.75;" x="325.919966" xlink:href="#mcc16cc41d0" y="159.201893"/>
     <use style="fill:#98df8a;stroke:#ffffff;stroke-linejoin:miter;stroke-width:0.75;" x="329.131164" xlink:href="#mcc16cc41d0" y="152.253799"/>
     <use style="fill:#98df8a;stroke:#ffffff;stroke-linejoin:miter;stroke-width:0.75;" x="332.2164" xlink:href="#mcc16cc41d0" y="147.807019"/>
     <use style="fill:#98df8a;stroke:#ffffff;stroke-linejoin:miter;stroke-width:0.75;" x="335.185184" xlink:href="#mcc16cc41d0" y="143.309707"/>
     <use style="fill:#98df8a;stroke:#ffffff;stroke-linejoin:miter;stroke-width:0.75;" x="338.045987" xlink:href="#mcc16cc41d0" y="137.751232"/>
     <use style="fill:#98df8a;stroke:#ffffff;stroke-linejoin:miter;stroke-width:0.75;" x="340.806391" xlink:href="#mcc16cc41d0" y="134.921463"/>
     <use style="fill:#98df8a;stroke:#ffffff;stroke-linejoin:miter;stroke-width:0.75;" x="343.473203" xlink:href="#mcc16cc41d0" y="126.432155"/>
     <use style="fill:#98df8a;stroke:#ffffff;stroke-linejoin:miter;stroke-width:0.75;" x="346.052563" xlink:href="#mcc16cc41d0" y="124.107702"/>
     <use style="fill:#98df8a;stroke:#ffffff;stroke-linejoin:miter;stroke-width:0.75;" x="348.550025" xlink:href="#mcc16cc41d0" y="119.105074"/>
     <use style="fill:#98df8a;stroke:#ffffff;stroke-linejoin:miter;stroke-width:0.75;" x="350.970629" xlink:href="#mcc16cc41d0" y="115.820521"/>
     <use style="fill:#98df8a;stroke:#ffffff;stroke-linejoin:miter;stroke-width:0.75;" x="353.318965" xlink:href="#mcc16cc41d0" y="112.081183"/>
     <use style="fill:#98df8a;stroke:#ffffff;stroke-linejoin:miter;stroke-width:0.75;" x="355.599224" xlink:href="#mcc16cc41d0" y="103.996128"/>
     <use style="fill:#98df8a;stroke:#ffffff;stroke-linejoin:miter;stroke-width:0.75;" x="357.815242" xlink:href="#mcc16cc41d0" y="99.397753"/>
     <use style="fill:#98df8a;stroke:#ffffff;stroke-linejoin:miter;stroke-width:0.75;" x="359.97054" xlink:href="#mcc16cc41d0" y="94.950973"/>
     <use style="fill:#98df8a;stroke:#ffffff;stroke-linejoin:miter;stroke-width:0.75;" x="362.068355" xlink:href="#mcc16cc41d0" y="95.228897"/>
     <use style="fill:#98df8a;stroke:#ffffff;stroke-linejoin:miter;stroke-width:0.75;" x="364.111676" xlink:href="#mcc16cc41d0" y="91.969609"/>
     <use style="fill:#98df8a;stroke:#ffffff;stroke-linejoin:miter;stroke-width:0.75;" x="366.103262" xlink:href="#mcc16cc41d0" y="88.381866"/>
     <use style="fill:#98df8a;stroke:#ffffff;stroke-linejoin:miter;stroke-width:0.75;" x="368.045667" xlink:href="#mcc16cc41d0" y="87.775487"/>
     <use style="fill:#98df8a;stroke:#ffffff;stroke-linejoin:miter;stroke-width:0.75;" x="369.941263" xlink:href="#mcc16cc41d0" y="83.025517"/>
     <use style="fill:#98df8a;stroke:#ffffff;stroke-linejoin:miter;stroke-width:0.75;" x="371.792253" xlink:href="#mcc16cc41d0" y="79.134585"/>
     <use style="fill:#98df8a;stroke:#ffffff;stroke-linejoin:miter;stroke-width:0.75;" x="373.600687" xlink:href="#mcc16cc41d0" y="78.932458"/>
     <use style="fill:#98df8a;stroke:#ffffff;stroke-linejoin:miter;stroke-width:0.75;" x="375.368479" xlink:href="#mcc16cc41d0" y="76.254284"/>
     <use style="fill:#98df8a;stroke:#ffffff;stroke-linejoin:miter;stroke-width:0.75;" x="377.097416" xlink:href="#mcc16cc41d0" y="70.443151"/>
     <use style="fill:#98df8a;stroke:#ffffff;stroke-linejoin:miter;stroke-width:0.75;" x="378.789167" xlink:href="#mcc16cc41d0" y="70.241024"/>
     <use style="fill:#98df8a;stroke:#ffffff;stroke-linejoin:miter;stroke-width:0.75;" x="380.445301" xlink:href="#mcc16cc41d0" y="68.52295"/>
     <use style="fill:#98df8a;stroke:#ffffff;stroke-linejoin:miter;stroke-width:0.75;" x="382.067285" xlink:href="#mcc16cc41d0" y="65.187865"/>
     <use style="fill:#98df8a;stroke:#ffffff;stroke-linejoin:miter;stroke-width:0.75;" x="383.656499" xlink:href="#mcc16cc41d0" y="61.499059"/>
     <use style="fill:#98df8a;stroke:#ffffff;stroke-linejoin:miter;stroke-width:0.75;" x="385.214241" xlink:href="#mcc16cc41d0" y="61.448527"/>
     <use style="fill:#98df8a;stroke:#ffffff;stroke-linejoin:miter;stroke-width:0.75;" x="386.741735" xlink:href="#mcc16cc41d0" y="56.193241"/>
     <use style="fill:#98df8a;stroke:#ffffff;stroke-linejoin:miter;stroke-width:0.75;" x="388.240131" xlink:href="#mcc16cc41d0" y="59.983111"/>
     <use style="fill:#98df8a;stroke:#ffffff;stroke-linejoin:miter;stroke-width:0.75;" x="389.710518" xlink:href="#mcc16cc41d0" y="58.3661"/>
     <use style="fill:#98df8a;stroke:#ffffff;stroke-linejoin:miter;stroke-width:0.75;" x="391.153924" xlink:href="#mcc16cc41d0" y="53.161346"/>
     <use style="fill:#98df8a;stroke:#ffffff;stroke-linejoin:miter;stroke-width:0.75;" x="392.571322" xlink:href="#mcc16cc41d0" y="50.382108"/>
     <use style="fill:#98df8a;stroke:#ffffff;stroke-linejoin:miter;stroke-width:0.75;" x="393.963631" xlink:href="#mcc16cc41d0" y="49.219882"/>
     <use style="fill:#98df8a;stroke:#ffffff;stroke-linejoin:miter;stroke-width:0.75;" x="395.331725" xlink:href="#mcc16cc41d0" y="48.057655"/>
     <use style="fill:#98df8a;stroke:#ffffff;stroke-linejoin:miter;stroke-width:0.75;" x="396.676432" xlink:href="#mcc16cc41d0" y="45.910062"/>
     <use style="fill:#98df8a;stroke:#ffffff;stroke-linejoin:miter;stroke-width:0.75;" x="397.998538" xlink:href="#mcc16cc41d0" y="45.834265"/>
     <use style="fill:#98df8a;stroke:#ffffff;stroke-linejoin:miter;stroke-width:0.75;" x="399.298789" xlink:href="#mcc16cc41d0" y="45.632139"/>
     <use style="fill:#98df8a;stroke:#ffffff;stroke-linejoin:miter;stroke-width:0.75;" x="400.577898" xlink:href="#mcc16cc41d0" y="43.358217"/>
    </g>
   </g>
   <g id="line2d_27">
    <path clip-path="url(#pcc8c1fe016)" d="M 75.923352 274.893975 
L 130.448687 263.32224 
L 162.343963 248.668078 
L 184.974021 235.428801 
L 202.527258 227.899593 
L 216.869297 221.633676 
L 228.995318 220.471449 
L 239.499356 218.803907 
L 248.764573 217.46482 
L 257.052593 215.948872 
L 264.550018 213.093837 
L 271.394632 209.556625 
L 277.691066 209.70822 
L 283.520653 205.893085 
L 288.947869 204.124479 
L 294.02469 202.987518 
L 298.793631 198.313346 
L 303.289908 194.851932 
L 307.543021 191.31472 
L 311.577927 186.564751 
L 315.415929 180.19777 
L 319.075353 176.054179 
L 322.572081 174.790889 
L 325.919966 168.954491 
L 329.131164 163.017028 
L 332.2164 160.338854 
L 335.185184 159.985133 
L 338.045987 155.689947 
L 340.806391 154.376126 
L 343.473203 152.304331 
L 346.052563 145.078313 
L 348.550025 141.642165 
L 350.970629 141.642165 
L 353.318965 141.035786 
L 355.599224 139.772496 
L 357.815242 137.170119 
L 359.97054 134.062426 
L 362.068355 133.809768 
L 364.111676 132.167491 
L 366.103262 130.247291 
L 368.045667 128.554482 
L 369.941263 128.554482 
L 371.792253 126.937471 
L 373.600687 126.684813 
L 375.368479 124.486689 
L 377.097416 124.082436 
L 378.789167 121.378996 
L 380.445301 120.368364 
L 382.067285 119.458795 
L 383.656499 119.711453 
L 385.214241 114.582497 
L 386.741735 113.824523 
L 388.240131 113.647662 
L 389.710518 112.839157 
L 391.153924 110.110451 
L 392.571322 110.110451 
L 393.963631 110.23678 
L 395.331725 108.645035 
L 396.676432 106.825897 
L 397.998538 106.825897 
L 399.298789 105.183621 
L 400.577898 105.133089 
" style="fill:none;stroke:#1f77b4;stroke-linecap:square;stroke-width:1.5;"/>
    <defs>
     <path d="M 0 3 
C 0.795609 3 1.55874 2.683901 2.12132 2.12132 
C 2.683901 1.55874 3 0.795609 3 0 
C 3 -0.795609 2.683901 -1.55874 2.12132 -2.12132 
C 1.55874 -2.683901 0.795609 -3 0 -3 
C -0.795609 -3 -1.55874 -2.683901 -2.12132 -2.12132 
C -2.683901 -1.55874 -3 -0.795609 -3 0 
C -3 0.795609 -2.683901 1.55874 -2.12132 2.12132 
C -1.55874 2.683901 -0.795609 3 0 3 
z
" id="ma0c5bfc759" style="stroke:#ffffff;stroke-width:0.75;"/>
    </defs>
    <g clip-path="url(#pcc8c1fe016)">
     <use style="fill:#1f77b4;stroke:#ffffff;stroke-width:0.75;" x="75.923352" xlink:href="#ma0c5bfc759" y="274.893975"/>
     <use style="fill:#1f77b4;stroke:#ffffff;stroke-width:0.75;" x="130.448687" xlink:href="#ma0c5bfc759" y="263.32224"/>
     <use style="fill:#1f77b4;stroke:#ffffff;stroke-width:0.75;" x="162.343963" xlink:href="#ma0c5bfc759" y="248.668078"/>
     <use style="fill:#1f77b4;stroke:#ffffff;stroke-width:0.75;" x="184.974021" xlink:href="#ma0c5bfc759" y="235.428801"/>
     <use style="fill:#1f77b4;stroke:#ffffff;stroke-width:0.75;" x="202.527258" xlink:href="#ma0c5bfc759" y="227.899593"/>
     <use style="fill:#1f77b4;stroke:#ffffff;stroke-width:0.75;" x="216.869297" xlink:href="#ma0c5bfc759" y="221.633676"/>
     <use style="fill:#1f77b4;stroke:#ffffff;stroke-width:0.75;" x="228.995318" xlink:href="#ma0c5bfc759" y="220.471449"/>
     <use style="fill:#1f77b4;stroke:#ffffff;stroke-width:0.75;" x="239.499356" xlink:href="#ma0c5bfc759" y="218.803907"/>
     <use style="fill:#1f77b4;stroke:#ffffff;stroke-width:0.75;" x="248.764573" xlink:href="#ma0c5bfc759" y="217.46482"/>
     <use style="fill:#1f77b4;stroke:#ffffff;stroke-width:0.75;" x="257.052593" xlink:href="#ma0c5bfc759" y="215.948872"/>
     <use style="fill:#1f77b4;stroke:#ffffff;stroke-width:0.75;" x="264.550018" xlink:href="#ma0c5bfc759" y="213.093837"/>
     <use style="fill:#1f77b4;stroke:#ffffff;stroke-width:0.75;" x="271.394632" xlink:href="#ma0c5bfc759" y="209.556625"/>
     <use style="fill:#1f77b4;stroke:#ffffff;stroke-width:0.75;" x="277.691066" xlink:href="#ma0c5bfc759" y="209.70822"/>
     <use style="fill:#1f77b4;stroke:#ffffff;stroke-width:0.75;" x="283.520653" xlink:href="#ma0c5bfc759" y="205.893085"/>
     <use style="fill:#1f77b4;stroke:#ffffff;stroke-width:0.75;" x="288.947869" xlink:href="#ma0c5bfc759" y="204.124479"/>
     <use style="fill:#1f77b4;stroke:#ffffff;stroke-width:0.75;" x="294.02469" xlink:href="#ma0c5bfc759" y="202.987518"/>
     <use style="fill:#1f77b4;stroke:#ffffff;stroke-width:0.75;" x="298.793631" xlink:href="#ma0c5bfc759" y="198.313346"/>
     <use style="fill:#1f77b4;stroke:#ffffff;stroke-width:0.75;" x="303.289908" xlink:href="#ma0c5bfc759" y="194.851932"/>
     <use style="fill:#1f77b4;stroke:#ffffff;stroke-width:0.75;" x="307.543021" xlink:href="#ma0c5bfc759" y="191.31472"/>
     <use style="fill:#1f77b4;stroke:#ffffff;stroke-width:0.75;" x="311.577927" xlink:href="#ma0c5bfc759" y="186.564751"/>
     <use style="fill:#1f77b4;stroke:#ffffff;stroke-width:0.75;" x="315.415929" xlink:href="#ma0c5bfc759" y="180.19777"/>
     <use style="fill:#1f77b4;stroke:#ffffff;stroke-width:0.75;" x="319.075353" xlink:href="#ma0c5bfc759" y="176.054179"/>
     <use style="fill:#1f77b4;stroke:#ffffff;stroke-width:0.75;" x="322.572081" xlink:href="#ma0c5bfc759" y="174.790889"/>
     <use style="fill:#1f77b4;stroke:#ffffff;stroke-width:0.75;" x="325.919966" xlink:href="#ma0c5bfc759" y="168.954491"/>
     <use style="fill:#1f77b4;stroke:#ffffff;stroke-width:0.75;" x="329.131164" xlink:href="#ma0c5bfc759" y="163.017028"/>
     <use style="fill:#1f77b4;stroke:#ffffff;stroke-width:0.75;" x="332.2164" xlink:href="#ma0c5bfc759" y="160.338854"/>
     <use style="fill:#1f77b4;stroke:#ffffff;stroke-width:0.75;" x="335.185184" xlink:href="#ma0c5bfc759" y="159.985133"/>
     <use style="fill:#1f77b4;stroke:#ffffff;stroke-width:0.75;" x="338.045987" xlink:href="#ma0c5bfc759" y="155.689947"/>
     <use style="fill:#1f77b4;stroke:#ffffff;stroke-width:0.75;" x="340.806391" xlink:href="#ma0c5bfc759" y="154.376126"/>
     <use style="fill:#1f77b4;stroke:#ffffff;stroke-width:0.75;" x="343.473203" xlink:href="#ma0c5bfc759" y="152.304331"/>
     <use style="fill:#1f77b4;stroke:#ffffff;stroke-width:0.75;" x="346.052563" xlink:href="#ma0c5bfc759" y="145.078313"/>
     <use style="fill:#1f77b4;stroke:#ffffff;stroke-width:0.75;" x="348.550025" xlink:href="#ma0c5bfc759" y="141.642165"/>
     <use style="fill:#1f77b4;stroke:#ffffff;stroke-width:0.75;" x="350.970629" xlink:href="#ma0c5bfc759" y="141.642165"/>
     <use style="fill:#1f77b4;stroke:#ffffff;stroke-width:0.75;" x="353.318965" xlink:href="#ma0c5bfc759" y="141.035786"/>
     <use style="fill:#1f77b4;stroke:#ffffff;stroke-width:0.75;" x="355.599224" xlink:href="#ma0c5bfc759" y="139.772496"/>
     <use style="fill:#1f77b4;stroke:#ffffff;stroke-width:0.75;" x="357.815242" xlink:href="#ma0c5bfc759" y="137.170119"/>
     <use style="fill:#1f77b4;stroke:#ffffff;stroke-width:0.75;" x="359.97054" xlink:href="#ma0c5bfc759" y="134.062426"/>
     <use style="fill:#1f77b4;stroke:#ffffff;stroke-width:0.75;" x="362.068355" xlink:href="#ma0c5bfc759" y="133.809768"/>
     <use style="fill:#1f77b4;stroke:#ffffff;stroke-width:0.75;" x="364.111676" xlink:href="#ma0c5bfc759" y="132.167491"/>
     <use style="fill:#1f77b4;stroke:#ffffff;stroke-width:0.75;" x="366.103262" xlink:href="#ma0c5bfc759" y="130.247291"/>
     <use style="fill:#1f77b4;stroke:#ffffff;stroke-width:0.75;" x="368.045667" xlink:href="#ma0c5bfc759" y="128.554482"/>
     <use style="fill:#1f77b4;stroke:#ffffff;stroke-width:0.75;" x="369.941263" xlink:href="#ma0c5bfc759" y="128.554482"/>
     <use style="fill:#1f77b4;stroke:#ffffff;stroke-width:0.75;" x="371.792253" xlink:href="#ma0c5bfc759" y="126.937471"/>
     <use style="fill:#1f77b4;stroke:#ffffff;stroke-width:0.75;" x="373.600687" xlink:href="#ma0c5bfc759" y="126.684813"/>
     <use style="fill:#1f77b4;stroke:#ffffff;stroke-width:0.75;" x="375.368479" xlink:href="#ma0c5bfc759" y="124.486689"/>
     <use style="fill:#1f77b4;stroke:#ffffff;stroke-width:0.75;" x="377.097416" xlink:href="#ma0c5bfc759" y="124.082436"/>
     <use style="fill:#1f77b4;stroke:#ffffff;stroke-width:0.75;" x="378.789167" xlink:href="#ma0c5bfc759" y="121.378996"/>
     <use style="fill:#1f77b4;stroke:#ffffff;stroke-width:0.75;" x="380.445301" xlink:href="#ma0c5bfc759" y="120.368364"/>
     <use style="fill:#1f77b4;stroke:#ffffff;stroke-width:0.75;" x="382.067285" xlink:href="#ma0c5bfc759" y="119.458795"/>
     <use style="fill:#1f77b4;stroke:#ffffff;stroke-width:0.75;" x="383.656499" xlink:href="#ma0c5bfc759" y="119.711453"/>
     <use style="fill:#1f77b4;stroke:#ffffff;stroke-width:0.75;" x="385.214241" xlink:href="#ma0c5bfc759" y="114.582497"/>
     <use style="fill:#1f77b4;stroke:#ffffff;stroke-width:0.75;" x="386.741735" xlink:href="#ma0c5bfc759" y="113.824523"/>
     <use style="fill:#1f77b4;stroke:#ffffff;stroke-width:0.75;" x="388.240131" xlink:href="#ma0c5bfc759" y="113.647662"/>
     <use style="fill:#1f77b4;stroke:#ffffff;stroke-width:0.75;" x="389.710518" xlink:href="#ma0c5bfc759" y="112.839157"/>
     <use style="fill:#1f77b4;stroke:#ffffff;stroke-width:0.75;" x="391.153924" xlink:href="#ma0c5bfc759" y="110.110451"/>
     <use style="fill:#1f77b4;stroke:#ffffff;stroke-width:0.75;" x="392.571322" xlink:href="#ma0c5bfc759" y="110.110451"/>
     <use style="fill:#1f77b4;stroke:#ffffff;stroke-width:0.75;" x="393.963631" xlink:href="#ma0c5bfc759" y="110.23678"/>
     <use style="fill:#1f77b4;stroke:#ffffff;stroke-width:0.75;" x="395.331725" xlink:href="#ma0c5bfc759" y="108.645035"/>
     <use style="fill:#1f77b4;stroke:#ffffff;stroke-width:0.75;" x="396.676432" xlink:href="#ma0c5bfc759" y="106.825897"/>
     <use style="fill:#1f77b4;stroke:#ffffff;stroke-width:0.75;" x="397.998538" xlink:href="#ma0c5bfc759" y="106.825897"/>
     <use style="fill:#1f77b4;stroke:#ffffff;stroke-width:0.75;" x="399.298789" xlink:href="#ma0c5bfc759" y="105.183621"/>
     <use style="fill:#1f77b4;stroke:#ffffff;stroke-width:0.75;" x="400.577898" xlink:href="#ma0c5bfc759" y="105.133089"/>
    </g>
   </g>
   <g id="line2d_28"/>
   <g id="line2d_29"/>
   <g id="patch_3">
    <path d="M 59.690625 256.854196 
L 59.690625 54.727825 
" style="fill:none;stroke:#000000;stroke-linecap:square;stroke-linejoin:miter;stroke-width:0.8;"/>
   </g>
   <g id="patch_4">
    <path d="M 75.923352 288.430125 
L 400.579307 288.430125 
" style="fill:none;stroke:#000000;stroke-linecap:square;stroke-linejoin:miter;stroke-width:0.8;"/>
   </g>
   <g id="text_14">
    <!-- mruby-2018-05-23 (15h:30m, 7 trials/fuzzer) -->
    <g transform="translate(103.435313 16.318125)scale(0.12 -0.12)">
     <defs>
      <path d="M 3116 1747 
Q 3116 2381 2855 2742 
Q 2594 3103 2138 3103 
Q 1681 3103 1420 2742 
Q 1159 2381 1159 1747 
Q 1159 1113 1420 752 
Q 1681 391 2138 391 
Q 2594 391 2855 752 
Q 3116 1113 3116 1747 
z
M 1159 2969 
Q 1341 3281 1617 3432 
Q 1894 3584 2278 3584 
Q 2916 3584 3314 3078 
Q 3713 2572 3713 1747 
Q 3713 922 3314 415 
Q 2916 -91 2278 -91 
Q 1894 -91 1617 61 
Q 1341 213 1159 525 
L 1159 0 
L 581 0 
L 581 4863 
L 1159 4863 
L 1159 2969 
z
" id="DejaVuSans-62" transform="scale(0.015625)"/>
      <path d="M 2059 -325 
Q 1816 -950 1584 -1140 
Q 1353 -1331 966 -1331 
L 506 -1331 
L 506 -850 
L 844 -850 
Q 1081 -850 1212 -737 
Q 1344 -625 1503 -206 
L 1606 56 
L 191 3500 
L 800 3500 
L 1894 763 
L 2988 3500 
L 3597 3500 
L 2059 -325 
z
" id="DejaVuSans-79" transform="scale(0.015625)"/>
      <path d="M 313 2009 
L 1997 2009 
L 1997 1497 
L 313 1497 
L 313 2009 
z
" id="DejaVuSans-2d" transform="scale(0.015625)"/>
      <path d="M 750 794 
L 1409 794 
L 1409 256 
L 897 -744 
L 494 -744 
L 750 256 
L 750 794 
z
" id="DejaVuSans-2c" transform="scale(0.015625)"/>
      <path d="M 603 4863 
L 1178 4863 
L 1178 0 
L 603 0 
L 603 4863 
z
" id="DejaVuSans-6c" transform="scale(0.015625)"/>
      <path d="M 2834 3397 
L 2834 2853 
Q 2591 2978 2328 3040 
Q 2066 3103 1784 3103 
Q 1356 3103 1142 2972 
Q 928 2841 928 2578 
Q 928 2378 1081 2264 
Q 1234 2150 1697 2047 
L 1894 2003 
Q 2506 1872 2764 1633 
Q 3022 1394 3022 966 
Q 3022 478 2636 193 
Q 2250 -91 1575 -91 
Q 1294 -91 989 -36 
Q 684 19 347 128 
L 347 722 
Q 666 556 975 473 
Q 1284 391 1588 391 
Q 1994 391 2212 530 
Q 2431 669 2431 922 
Q 2431 1156 2273 1281 
Q 2116 1406 1581 1522 
L 1381 1569 
Q 847 1681 609 1914 
Q 372 2147 372 2553 
Q 372 3047 722 3315 
Q 1072 3584 1716 3584 
Q 2034 3584 2315 3537 
Q 2597 3491 2834 3397 
z
" id="DejaVuSans-73" transform="scale(0.015625)"/>
      <path d="M 1625 4666 
L 2156 4666 
L 531 -594 
L 0 -594 
L 1625 4666 
z
" id="DejaVuSans-2f" transform="scale(0.015625)"/>
      <path d="M 2375 4863 
L 2375 4384 
L 1825 4384 
Q 1516 4384 1395 4259 
Q 1275 4134 1275 3809 
L 1275 3500 
L 2222 3500 
L 2222 3053 
L 1275 3053 
L 1275 0 
L 697 0 
L 697 3053 
L 147 3053 
L 147 3500 
L 697 3500 
L 697 3744 
Q 697 4328 969 4595 
Q 1241 4863 1831 4863 
L 2375 4863 
z
" id="DejaVuSans-66" transform="scale(0.015625)"/>
      <path d="M 353 3500 
L 3084 3500 
L 3084 2975 
L 922 459 
L 3084 459 
L 3084 0 
L 275 0 
L 275 525 
L 2438 3041 
L 353 3041 
L 353 3500 
z
" id="DejaVuSans-7a" transform="scale(0.015625)"/>
     </defs>
     <use xlink:href="#DejaVuSans-6d"/>
     <use x="97.412109" xlink:href="#DejaVuSans-72"/>
     <use x="138.525391" xlink:href="#DejaVuSans-75"/>
     <use x="201.904297" xlink:href="#DejaVuSans-62"/>
     <use x="265.380859" xlink:href="#DejaVuSans-79"/>
     <use x="322.810547" xlink:href="#DejaVuSans-2d"/>
     <use x="358.894531" xlink:href="#DejaVuSans-32"/>
     <use x="422.517578" xlink:href="#DejaVuSans-30"/>
     <use x="486.140625" xlink:href="#DejaVuSans-31"/>
     <use x="549.763672" xlink:href="#DejaVuSans-38"/>
     <use x="613.386719" xlink:href="#DejaVuSans-2d"/>
     <use x="649.470703" xlink:href="#DejaVuSans-30"/>
     <use x="713.09375" xlink:href="#DejaVuSans-35"/>
     <use x="776.716797" xlink:href="#DejaVuSans-2d"/>
     <use x="812.800781" xlink:href="#DejaVuSans-32"/>
     <use x="876.423828" xlink:href="#DejaVuSans-33"/>
     <use x="940.046875" xlink:href="#DejaVuSans-20"/>
     <use x="971.833984" xlink:href="#DejaVuSans-28"/>
     <use x="1010.847656" xlink:href="#DejaVuSans-31"/>
     <use x="1074.470703" xlink:href="#DejaVuSans-35"/>
     <use x="1138.09375" xlink:href="#DejaVuSans-68"/>
     <use x="1201.472656" xlink:href="#DejaVuSans-3a"/>
     <use x="1235.164062" xlink:href="#DejaVuSans-33"/>
     <use x="1298.787109" xlink:href="#DejaVuSans-30"/>
     <use x="1362.410156" xlink:href="#DejaVuSans-6d"/>
     <use x="1459.822266" xlink:href="#DejaVuSans-2c"/>
     <use x="1491.609375" xlink:href="#DejaVuSans-20"/>
     <use x="1523.396484" xlink:href="#DejaVuSans-37"/>
     <use x="1587.019531" xlink:href="#DejaVuSans-20"/>
     <use x="1618.806641" xlink:href="#DejaVuSans-74"/>
     <use x="1658.015625" xlink:href="#DejaVuSans-72"/>
     <use x="1699.128906" xlink:href="#DejaVuSans-69"/>
     <use x="1726.912109" xlink:href="#DejaVuSans-61"/>
     <use x="1788.191406" xlink:href="#DejaVuSans-6c"/>
     <use x="1815.974609" xlink:href="#DejaVuSans-73"/>
     <use x="1868.074219" xlink:href="#DejaVuSans-2f"/>
     <use x="1901.765625" xlink:href="#DejaVuSans-66"/>
     <use x="1936.970703" xlink:href="#DejaVuSans-75"/>
     <use x="2000.349609" xlink:href="#DejaVuSans-7a"/>
     <use x="2052.839844" xlink:href="#DejaVuSans-7a"/>
     <use x="2105.330078" xlink:href="#DejaVuSans-65"/>
     <use x="2166.853516" xlink:href="#DejaVuSans-72"/>
     <use x="2207.966797" xlink:href="#DejaVuSans-29"/>
    </g>
   </g>
   <g id="legend_1">
    <g id="line2d_30">
     <path d="M 420.810625 30.416562 
L 440.810625 30.416562 
" style="fill:none;stroke:#98df8a;stroke-linecap:square;stroke-width:1.5;"/>
    </g>
    <g id="line2d_31">
     <defs>
      <path d="M -0 3 
L 3 -3 
L -3 -3 
z
" id="mb706952b8b" style="stroke:#98df8a;stroke-linejoin:miter;"/>
     </defs>
     <g>
      <use style="fill:#98df8a;stroke:#98df8a;stroke-linejoin:miter;" x="430.810625" xlink:href="#mb706952b8b" y="30.416562"/>
     </g>
    </g>
    <g id="text_15">
     <!-- afl_splicing_mutation -->
     <g transform="translate(448.810625 33.916562)scale(0.1 -0.1)">
      <defs>
       <path d="M 3263 -1063 
L 3263 -1509 
L -63 -1509 
L -63 -1063 
L 3263 -1063 
z
" id="DejaVuSans-5f" transform="scale(0.015625)"/>
       <path d="M 1159 525 
L 1159 -1331 
L 581 -1331 
L 581 3500 
L 1159 3500 
L 1159 2969 
Q 1341 3281 1617 3432 
Q 1894 3584 2278 3584 
Q 2916 3584 3314 3078 
Q 3713 2572 3713 1747 
Q 3713 922 3314 415 
Q 2916 -91 2278 -91 
Q 1894 -91 1617 61 
Q 1341 213 1159 525 
z
M 3116 1747 
Q 3116 2381 2855 2742 
Q 2594 3103 2138 3103 
Q 1681 3103 1420 2742 
Q 1159 2381 1159 1747 
Q 1159 1113 1420 752 
Q 1681 391 2138 391 
Q 2594 391 2855 752 
Q 3116 1113 3116 1747 
z
" id="DejaVuSans-70" transform="scale(0.015625)"/>
      </defs>
      <use xlink:href="#DejaVuSans-61"/>
      <use x="61.279297" xlink:href="#DejaVuSans-66"/>
      <use x="96.484375" xlink:href="#DejaVuSans-6c"/>
      <use x="124.267578" xlink:href="#DejaVuSans-5f"/>
      <use x="174.267578" xlink:href="#DejaVuSans-73"/>
      <use x="226.367188" xlink:href="#DejaVuSans-70"/>
      <use x="289.84375" xlink:href="#DejaVuSans-6c"/>
      <use x="317.626953" xlink:href="#DejaVuSans-69"/>
      <use x="345.410156" xlink:href="#DejaVuSans-63"/>
      <use x="400.390625" xlink:href="#DejaVuSans-69"/>
      <use x="428.173828" xlink:href="#DejaVuSans-6e"/>
      <use x="491.552734" xlink:href="#DejaVuSans-67"/>
      <use x="555.029297" xlink:href="#DejaVuSans-5f"/>
      <use x="605.029297" xlink:href="#DejaVuSans-6d"/>
      <use x="702.441406" xlink:href="#DejaVuSans-75"/>
      <use x="765.820312" xlink:href="#DejaVuSans-74"/>
      <use x="805.029297" xlink:href="#DejaVuSans-61"/>
      <use x="866.308594" xlink:href="#DejaVuSans-74"/>
      <use x="905.517578" xlink:href="#DejaVuSans-69"/>
      <use x="933.300781" xlink:href="#DejaVuSans-6f"/>
      <use x="994.482422" xlink:href="#DejaVuSans-6e"/>
     </g>
    </g>
    <g id="line2d_32">
     <path d="M 420.810625 45.372813 
L 440.810625 45.372813 
" style="fill:none;stroke:#1f77b4;stroke-linecap:square;stroke-width:1.5;"/>
    </g>
    <g id="line2d_33">
     <defs>
      <path d="M 0 3 
C 0.795609 3 1.55874 2.683901 2.12132 2.12132 
C 2.683901 1.55874 3 0.795609 3 0 
C 3 -0.795609 2.683901 -1.55874 2.12132 -2.12132 
C 1.55874 -2.683901 0.795609 -3 0 -3 
C -0.795609 -3 -1.55874 -2.683901 -2.12132 -2.12132 
C -2.683901 -1.55874 -3 -0.795609 -3 0 
C -3 0.795609 -2.683901 1.55874 -2.12132 2.12132 
C -1.55874 2.683901 -0.795609 3 0 3 
z
" id="me75b402fe1" style="stroke:#1f77b4;"/>
     </defs>
     <g>
      <use style="fill:#1f77b4;stroke:#1f77b4;" x="430.810625" xlink:href="#me75b402fe1" y="45.372813"/>
     </g>
    </g>
    <g id="text_16">
     <!-- afl -->
     <g transform="translate(448.810625 48.872813)scale(0.1 -0.1)">
      <use xlink:href="#DejaVuSans-61"/>
      <use x="61.279297" xlink:href="#DejaVuSans-66"/>
      <use x="96.484375" xlink:href="#DejaVuSans-6c"/>
     </g>
    </g>
   </g>
  </g>
 </g>
 <defs>
  <clipPath id="pcc8c1fe016">
   <rect height="266.112" width="357.12" x="59.690625" y="22.318125"/>
  </clipPath>
 </defs>
</svg>
