<?xml version="1.0" encoding="utf-8" standalone="no"?>
<!DOCTYPE svg PUBLIC "-//W3C//DTD SVG 1.1//EN"
  "http://www.w3.org/Graphics/SVG/1.1/DTD/svg11.dtd">
<svg height="325.986375pt" version="1.1" viewBox="0 0 565.795 325.986375" width="565.795pt" xmlns="http://www.w3.org/2000/svg" xmlns:xlink="http://www.w3.org/1999/xlink">
 <metadata>
  <rdf:RDF xmlns:cc="http://creativecommons.org/ns#" xmlns:dc="http://purl.org/dc/elements/1.1/" xmlns:rdf="http://www.w3.org/1999/02/22-rdf-syntax-ns#">
   <cc:Work>
    <dc:type rdf:resource="http://purl.org/dc/dcmitype/StillImage"/>
    <dc:date>2022-05-31T16:29:23.510931</dc:date>
    <dc:format>image/svg+xml</dc:format>
    <dc:creator>
     <cc:Agent>
      <dc:title>Matplotlib v3.4.3, https://matplotlib.org/</dc:title>
     </cc:Agent>
    </dc:creator>
   </cc:Work>
  </rdf:RDF>
 </metadata>
 <defs>
  <style type="text/css">*{stroke-linecap:butt;stroke-linejoin:round;}</style>
 </defs>
 <g id="figure_1">
  <g id="patch_1">
   <path d="M 0 325.986375 
L 565.795 325.986375 
L 565.795 0 
L 0 0 
z
" style="fill:#ffffff;"/>
  </g>
  <g id="axes_1">
   <g id="patch_2">
    <path d="M 59.690625 288.430125 
L 416.810625 288.430125 
L 416.810625 22.318125 
L 59.690625 22.318125 
z
" style="fill:#ffffff;"/>
   </g>
   <g id="PolyCollection_1">
    <defs>
     <path d="M 75.923352 -101.991672 
L 75.923352 -59.041383 
L 79.530625 -83.213406 
L 83.137898 -93.002077 
L 86.74517 -131.757221 
L 90.352443 -139.148666 
L 93.959716 -116.974331 
L 97.566989 -164.119764 
L 101.174261 -173.808551 
L 104.781534 -167.915371 
L 108.388807 -186.493868 
L 111.99608 -186.893406 
L 115.603352 -195.483464 
L 119.210625 -199.47884 
L 122.817898 -204.250816 
L 126.42517 -208.867973 
L 130.032443 -209.067741 
L 133.639716 -210.466123 
L 137.246989 -212.663579 
L 140.854261 -211.265198 
L 144.461534 -214.461499 
L 148.068807 -216.858724 
L 151.67608 -214.656273 
L 155.283352 -217.058493 
L 158.890625 -213.063117 
L 162.497898 -220.055025 
L 166.10517 -213.462655 
L 169.712443 -217.45803 
L 173.319716 -217.45803 
L 176.926989 -217.657799 
L 180.534261 -222.230007 
L 184.141534 -222.951672 
L 187.748807 -223.850632 
L 191.35608 -223.850632 
L 194.963352 -228.645082 
L 198.570625 -233.214793 
L 202.177898 -229.244389 
L 205.78517 -227.046932 
L 209.392443 -227.546354 
L 212.999716 -227.44647 
L 216.606989 -236.236296 
L 220.214261 -233.13988 
L 223.821534 -229.444158 
L 227.428807 -234.837915 
L 231.03608 -229.444158 
L 234.643352 -237.23514 
L 238.250625 -237.434909 
L 241.857898 -238.034215 
L 245.46517 -238.573591 
L 249.072443 -233.839071 
L 252.679716 -248.122539 
L 256.286989 -261.806701 
L 259.894261 -262.480921 
L 263.501534 -247.92277 
L 267.108807 -253.616181 
L 270.71608 -258.910053 
L 274.323352 -263.759441 
L 277.930625 -254.415256 
L 281.537898 -261.299788 
L 285.14517 -266.001845 
L 288.752443 -262.206238 
L 292.359716 -263.404851 
L 295.966989 -264.803233 
L 299.574261 -268.099418 
L 303.181534 -267.257892 
L 306.788807 -267.462655 
L 310.39608 -266.001845 
L 314.003352 -268.998377 
L 317.610625 -268.998377 
L 321.217898 -267.599996 
L 324.82517 -266.800921 
L 328.432443 -267.599996 
L 332.039716 -269.198146 
L 335.646989 -269.357961 
L 339.254261 -269.397915 
L 342.861534 -269.397915 
L 346.468807 -267.799764 
L 350.07608 -269.397915 
L 353.683352 -267.799764 
L 357.290625 -269.372944 
L 360.897898 -268.399071 
L 364.50517 -271.395603 
L 368.112443 -273.193522 
L 371.719716 -271.395603 
L 375.326989 -272.6941 
L 378.934261 -271.79514 
L 382.541534 -272.194678 
L 386.148807 -272.194678 
L 389.75608 -271.595371 
L 393.363352 -272.579233 
L 396.970625 -272.594215 
L 400.577898 -272.194678 
L 400.577898 -286.57803 
L 400.577898 -286.57803 
L 396.970625 -286.478146 
L 393.363352 -286.57803 
L 389.75608 -285.978724 
L 386.148807 -286.57803 
L 382.541534 -285.978724 
L 378.934261 -285.978724 
L 375.326989 -286.57803 
L 371.719716 -285.978724 
L 368.112443 -285.978724 
L 364.50517 -285.978724 
L 360.897898 -286.003695 
L 357.290625 -285.579186 
L 353.683352 -285.978724 
L 350.07608 -285.179649 
L 346.468807 -284.97988 
L 342.861534 -284.97988 
L 339.254261 -284.97988 
L 335.646989 -284.97988 
L 332.039716 -284.580342 
L 328.432443 -284.580342 
L 324.82517 -284.580342 
L 321.217898 -284.288181 
L 317.610625 -283.981036 
L 314.003352 -283.781267 
L 310.39608 -283.38173 
L 306.788807 -282.083233 
L 303.181534 -282.982192 
L 299.574261 -282.982192 
L 295.966989 -281.284158 
L 292.359716 -281.384042 
L 288.752443 -281.783579 
L 285.14517 -280.584967 
L 281.537898 -280.584967 
L 277.930625 -276.78936 
L 274.323352 -273.413267 
L 270.71608 -272.194678 
L 267.108807 -275.790516 
L 263.501534 -270.996065 
L 259.894261 -275.790516 
L 256.286989 -268.199302 
L 252.679716 -275.390978 
L 249.072443 -266.456319 
L 245.46517 -268.59884 
L 241.857898 -268.399071 
L 238.250625 -264.004158 
L 234.643352 -267.999533 
L 231.03608 -264.303811 
L 227.428807 -266.001845 
L 223.821534 -265.802077 
L 220.214261 -263.904273 
L 216.606989 -264.004158 
L 212.999716 -258.011094 
L 209.392443 -260.315926 
L 205.78517 -254.615025 
L 202.177898 -253.016874 
L 198.570625 -257.411788 
L 194.963352 -251.818262 
L 191.35608 -250.220111 
L 187.748807 -246.424504 
L 184.141534 -247.523233 
L 180.534261 -238.441244 
L 176.926989 -240.63121 
L 173.319716 -231.441845 
L 169.712443 -232.940111 
L 166.10517 -231.242077 
L 162.497898 -232.450678 
L 158.890625 -230.043464 
L 155.283352 -230.043464 
L 151.67608 -226.247857 
L 148.068807 -226.048088 
L 144.461534 -224.0504 
L 140.854261 -224.0504 
L 137.246989 -223.451094 
L 133.639716 -222.851788 
L 130.032443 -222.252481 
L 126.42517 -221.053868 
L 122.817898 -220.254793 
L 119.210625 -217.45803 
L 115.603352 -216.858724 
L 111.99608 -216.259418 
L 108.388807 -215.660111 
L 104.781534 -213.862192 
L 101.174261 -207.070053 
L 97.566989 -197.581036 
L 93.959716 -191.288319 
L 90.352443 -185.295256 
L 86.74517 -173.708666 
L 83.137898 -154.331094 
L 79.530625 -135.752597 
L 75.923352 -101.991672 
z
" id="m7fa3058933" style="stroke:#1f77b4;stroke-opacity:0.2;"/>
    </defs>
    <g clip-path="url(#p77c4d05699)">
     <use style="fill:#1f77b4;fill-opacity:0.2;stroke:#1f77b4;stroke-opacity:0.2;" x="0" xlink:href="#m7fa3058933" y="325.986375"/>
    </g>
   </g>
   <g id="PolyCollection_2">
    <defs>
     <path d="M 75.923352 -108.384273 
L 75.923352 -49.65225 
L 79.530625 -84.412019 
L 83.137898 -106.186816 
L 86.74517 -127.162539 
L 90.352443 -139.947741 
L 93.959716 -155.529707 
L 97.566989 -162.721383 
L 101.174261 -167.116296 
L 104.781534 -177.304504 
L 108.388807 -188.092019 
L 111.99608 -193.685545 
L 115.603352 -195.083926 
L 119.210625 -197.281383 
L 122.817898 -204.073522 
L 126.42517 -204.073522 
L 130.032443 -205.671672 
L 133.639716 -212.064273 
L 137.246989 -212.064273 
L 140.854261 -215.610169 
L 144.461534 -214.26173 
L 148.068807 -217.657799 
L 151.67608 -215.85988 
L 155.283352 -220.055025 
L 158.890625 -222.052712 
L 162.497898 -216.059649 
L 166.10517 -216.459186 
L 169.712443 -219.455718 
L 173.319716 -220.429591 
L 176.926989 -221.236158 
L 180.534261 -220.554447 
L 184.141534 -224.225198 
L 187.748807 -222.851788 
L 191.35608 -226.447626 
L 194.963352 -227.846007 
L 198.570625 -229.444158 
L 202.177898 -229.444158 
L 205.78517 -230.043464 
L 209.392443 -230.443001 
L 212.999716 -229.706354 
L 216.606989 -230.842539 
L 220.214261 -232.240921 
L 223.821534 -232.440689 
L 227.428807 -228.045776 
L 231.03608 -231.242077 
L 234.643352 -231.441845 
L 238.250625 -233.039996 
L 241.857898 -234.638146 
L 245.46517 -235.33484 
L 249.072443 -236.835603 
L 252.679716 -237.834447 
L 256.286989 -228.345429 
L 259.894261 -238.233984 
L 263.501534 -231.341961 
L 267.108807 -232.440689 
L 270.71608 -232.685406 
L 274.323352 -233.039996 
L 277.930625 -233.039996 
L 281.537898 -213.462655 
L 285.14517 -213.462655 
L 288.752443 -223.850632 
L 292.359716 -213.862192 
L 295.966989 -224.449938 
L 299.574261 -214.061961 
L 303.181534 -234.837915 
L 306.788807 -214.661267 
L 310.39608 -234.595695 
L 314.003352 -235.63699 
L 317.610625 -235.63699 
L 321.217898 -236.436065 
L 324.82517 -237.434909 
L 328.432443 -239.232828 
L 332.039716 -239.232828 
L 335.646989 -239.232828 
L 339.254261 -239.73225 
L 342.861534 -239.432597 
L 346.468807 -239.932019 
L 350.07608 -239.432597 
L 353.683352 -239.432597 
L 357.290625 -239.432597 
L 360.897898 -240.131788 
L 364.50517 -240.830978 
L 368.112443 -241.030747 
L 371.719716 -243.228204 
L 375.326989 -241.630053 
L 378.934261 -243.427973 
L 382.541534 -241.630053 
L 386.148807 -241.630053 
L 389.75608 -247.423348 
L 393.363352 -247.822886 
L 396.970625 -248.022655 
L 400.577898 -248.82173 
L 400.577898 -291.57225 
L 400.577898 -291.57225 
L 396.970625 -291.372481 
L 393.363352 -290.972944 
L 389.75608 -290.972944 
L 386.148807 -290.972944 
L 382.541534 -290.573406 
L 378.934261 -289.474678 
L 375.326989 -290.373637 
L 371.719716 -288.575718 
L 368.112443 -287.976412 
L 364.50517 -288.176181 
L 360.897898 -288.176181 
L 357.290625 -287.776643 
L 353.683352 -288.575718 
L 350.07608 -287.776643 
L 346.468807 -288.076296 
L 342.861534 -287.776643 
L 339.254261 -287.976412 
L 335.646989 -287.177337 
L 332.039716 -288.375949 
L 328.432443 -287.47699 
L 324.82517 -287.377105 
L 321.217898 -286.777799 
L 317.610625 -286.777799 
L 314.003352 -286.777799 
L 310.39608 -287.377105 
L 306.788807 -283.38173 
L 303.181534 -287.776643 
L 299.574261 -283.181961 
L 295.966989 -284.580342 
L 292.359716 -284.480458 
L 288.752443 -273.593059 
L 285.14517 -282.782423 
L 281.537898 -272.993753 
L 277.930625 -272.594215 
L 274.323352 -272.594215 
L 270.71608 -271.395603 
L 267.108807 -270.396759 
L 263.501534 -270.396759 
L 259.894261 -269.797452 
L 256.286989 -268.099418 
L 252.679716 -270.596527 
L 249.072443 -269.797452 
L 245.46517 -269.397915 
L 241.857898 -268.798608 
L 238.250625 -268.59884 
L 234.643352 -265.402539 
L 231.03608 -262.805545 
L 227.428807 -265.402539 
L 223.821534 -255.014562 
L 220.214261 -264.203926 
L 216.606989 -254.215487 
L 212.999716 -254.714909 
L 209.392443 -260.208551 
L 205.78517 -259.809013 
L 202.177898 -256.412944 
L 198.570625 -247.423348 
L 194.963352 -247.023811 
L 191.35608 -239.332712 
L 187.748807 -240.031903 
L 184.141534 -241.630053 
L 180.534261 -239.642354 
L 176.926989 -238.633522 
L 173.319716 -238.233984 
L 169.712443 -235.836759 
L 166.10517 -231.641614 
L 162.497898 -235.836759 
L 158.890625 -236.026539 
L 155.283352 -231.441845 
L 151.67608 -231.242077 
L 148.068807 -227.246701 
L 144.461534 -226.447626 
L 140.854261 -226.048088 
L 137.246989 -224.449938 
L 133.639716 -219.855256 
L 130.032443 -218.456874 
L 126.42517 -218.057337 
L 122.817898 -217.857568 
L 119.210625 -216.259418 
L 115.603352 -213.063117 
L 111.99608 -209.667048 
L 108.388807 -206.370863 
L 104.781534 -204.073522 
L 101.174261 -191.488088 
L 97.566989 -190.289475 
L 93.959716 -190.089707 
L 90.352443 -172.914585 
L 86.74517 -175.506585 
L 83.137898 -161.323001 
L 79.530625 -137.550516 
L 75.923352 -108.384273 
z
" id="m03d4503797" style="stroke:#98df8a;stroke-opacity:0.2;"/>
    </defs>
    <g clip-path="url(#p77c4d05699)">
     <use style="fill:#98df8a;fill-opacity:0.2;stroke:#98df8a;stroke-opacity:0.2;" x="0" xlink:href="#m03d4503797" y="325.986375"/>
    </g>
   </g>
   <g id="matplotlib.axis_1">
    <g id="xtick_1">
     <g id="line2d_1">
      <defs>
       <path d="M 0 0 
L 0 3.5 
" id="mda0ed2a04f" style="stroke:#000000;stroke-width:0.8;"/>
      </defs>
      <g>
       <use style="stroke:#000000;stroke-width:0.8;" x="75.923352" xlink:href="#mda0ed2a04f" y="288.430125"/>
      </g>
     </g>
     <g id="text_1">
      <!-- 15m -->
      <g transform="translate(64.69054 303.028562)scale(0.1 -0.1)">
       <defs>
        <path d="M 794 531 
L 1825 531 
L 1825 4091 
L 703 3866 
L 703 4441 
L 1819 4666 
L 2450 4666 
L 2450 531 
L 3481 531 
L 3481 0 
L 794 0 
L 794 531 
z
" id="DejaVuSans-31" transform="scale(0.015625)"/>
        <path d="M 691 4666 
L 3169 4666 
L 3169 4134 
L 1269 4134 
L 1269 2991 
Q 1406 3038 1543 3061 
Q 1681 3084 1819 3084 
Q 2600 3084 3056 2656 
Q 3513 2228 3513 1497 
Q 3513 744 3044 326 
Q 2575 -91 1722 -91 
Q 1428 -91 1123 -41 
Q 819 9 494 109 
L 494 744 
Q 775 591 1075 516 
Q 1375 441 1709 441 
Q 2250 441 2565 725 
Q 2881 1009 2881 1497 
Q 2881 1984 2565 2268 
Q 2250 2553 1709 2553 
Q 1456 2553 1204 2497 
Q 953 2441 691 2322 
L 691 4666 
z
" id="DejaVuSans-35" transform="scale(0.015625)"/>
        <path d="M 3328 2828 
Q 3544 3216 3844 3400 
Q 4144 3584 4550 3584 
Q 5097 3584 5394 3201 
Q 5691 2819 5691 2113 
L 5691 0 
L 5113 0 
L 5113 2094 
Q 5113 2597 4934 2840 
Q 4756 3084 4391 3084 
Q 3944 3084 3684 2787 
Q 3425 2491 3425 1978 
L 3425 0 
L 2847 0 
L 2847 2094 
Q 2847 2600 2669 2842 
Q 2491 3084 2119 3084 
Q 1678 3084 1418 2786 
Q 1159 2488 1159 1978 
L 1159 0 
L 581 0 
L 581 3500 
L 1159 3500 
L 1159 2956 
Q 1356 3278 1631 3431 
Q 1906 3584 2284 3584 
Q 2666 3584 2933 3390 
Q 3200 3197 3328 2828 
z
" id="DejaVuSans-6d" transform="scale(0.015625)"/>
       </defs>
       <use xlink:href="#DejaVuSans-31"/>
       <use x="63.623047" xlink:href="#DejaVuSans-35"/>
       <use x="127.246094" xlink:href="#DejaVuSans-6d"/>
      </g>
     </g>
    </g>
    <g id="xtick_2">
     <g id="line2d_2">
      <g>
       <use style="stroke:#000000;stroke-width:0.8;" x="130.633655" xlink:href="#mda0ed2a04f" y="288.430125"/>
      </g>
     </g>
     <g id="text_2">
      <!-- 4h:2m -->
      <g transform="translate(114.547718 303.028562)scale(0.1 -0.1)">
       <defs>
        <path d="M 2419 4116 
L 825 1625 
L 2419 1625 
L 2419 4116 
z
M 2253 4666 
L 3047 4666 
L 3047 1625 
L 3713 1625 
L 3713 1100 
L 3047 1100 
L 3047 0 
L 2419 0 
L 2419 1100 
L 313 1100 
L 313 1709 
L 2253 4666 
z
" id="DejaVuSans-34" transform="scale(0.015625)"/>
        <path d="M 3513 2113 
L 3513 0 
L 2938 0 
L 2938 2094 
Q 2938 2591 2744 2837 
Q 2550 3084 2163 3084 
Q 1697 3084 1428 2787 
Q 1159 2491 1159 1978 
L 1159 0 
L 581 0 
L 581 4863 
L 1159 4863 
L 1159 2956 
Q 1366 3272 1645 3428 
Q 1925 3584 2291 3584 
Q 2894 3584 3203 3211 
Q 3513 2838 3513 2113 
z
" id="DejaVuSans-68" transform="scale(0.015625)"/>
        <path d="M 750 794 
L 1409 794 
L 1409 0 
L 750 0 
L 750 794 
z
M 750 3309 
L 1409 3309 
L 1409 2516 
L 750 2516 
L 750 3309 
z
" id="DejaVuSans-3a" transform="scale(0.015625)"/>
        <path d="M 1228 531 
L 3431 531 
L 3431 0 
L 469 0 
L 469 531 
Q 828 903 1448 1529 
Q 2069 2156 2228 2338 
Q 2531 2678 2651 2914 
Q 2772 3150 2772 3378 
Q 2772 3750 2511 3984 
Q 2250 4219 1831 4219 
Q 1534 4219 1204 4116 
Q 875 4013 500 3803 
L 500 4441 
Q 881 4594 1212 4672 
Q 1544 4750 1819 4750 
Q 2544 4750 2975 4387 
Q 3406 4025 3406 3419 
Q 3406 3131 3298 2873 
Q 3191 2616 2906 2266 
Q 2828 2175 2409 1742 
Q 1991 1309 1228 531 
z
" id="DejaVuSans-32" transform="scale(0.015625)"/>
       </defs>
       <use xlink:href="#DejaVuSans-34"/>
       <use x="63.623047" xlink:href="#DejaVuSans-68"/>
       <use x="127.001953" xlink:href="#DejaVuSans-3a"/>
       <use x="160.693359" xlink:href="#DejaVuSans-32"/>
       <use x="224.316406" xlink:href="#DejaVuSans-6d"/>
      </g>
     </g>
    </g>
    <g id="xtick_3">
     <g id="line2d_3">
      <g>
       <use style="stroke:#000000;stroke-width:0.8;" x="185.343958" xlink:href="#mda0ed2a04f" y="288.430125"/>
      </g>
     </g>
     <g id="text_3">
      <!-- 7h:50m -->
      <g transform="translate(166.076771 303.028562)scale(0.1 -0.1)">
       <defs>
        <path d="M 525 4666 
L 3525 4666 
L 3525 4397 
L 1831 0 
L 1172 0 
L 2766 4134 
L 525 4134 
L 525 4666 
z
" id="DejaVuSans-37" transform="scale(0.015625)"/>
        <path d="M 2034 4250 
Q 1547 4250 1301 3770 
Q 1056 3291 1056 2328 
Q 1056 1369 1301 889 
Q 1547 409 2034 409 
Q 2525 409 2770 889 
Q 3016 1369 3016 2328 
Q 3016 3291 2770 3770 
Q 2525 4250 2034 4250 
z
M 2034 4750 
Q 2819 4750 3233 4129 
Q 3647 3509 3647 2328 
Q 3647 1150 3233 529 
Q 2819 -91 2034 -91 
Q 1250 -91 836 529 
Q 422 1150 422 2328 
Q 422 3509 836 4129 
Q 1250 4750 2034 4750 
z
" id="DejaVuSans-30" transform="scale(0.015625)"/>
       </defs>
       <use xlink:href="#DejaVuSans-37"/>
       <use x="63.623047" xlink:href="#DejaVuSans-68"/>
       <use x="127.001953" xlink:href="#DejaVuSans-3a"/>
       <use x="160.693359" xlink:href="#DejaVuSans-35"/>
       <use x="224.316406" xlink:href="#DejaVuSans-30"/>
       <use x="287.939453" xlink:href="#DejaVuSans-6d"/>
      </g>
     </g>
    </g>
    <g id="xtick_4">
     <g id="line2d_4">
      <g>
       <use style="stroke:#000000;stroke-width:0.8;" x="240.054261" xlink:href="#mda0ed2a04f" y="288.430125"/>
      </g>
     </g>
     <g id="text_4">
      <!-- 11h:37m -->
      <g transform="translate(217.605824 303.028562)scale(0.1 -0.1)">
       <defs>
        <path d="M 2597 2516 
Q 3050 2419 3304 2112 
Q 3559 1806 3559 1356 
Q 3559 666 3084 287 
Q 2609 -91 1734 -91 
Q 1441 -91 1130 -33 
Q 819 25 488 141 
L 488 750 
Q 750 597 1062 519 
Q 1375 441 1716 441 
Q 2309 441 2620 675 
Q 2931 909 2931 1356 
Q 2931 1769 2642 2001 
Q 2353 2234 1838 2234 
L 1294 2234 
L 1294 2753 
L 1863 2753 
Q 2328 2753 2575 2939 
Q 2822 3125 2822 3475 
Q 2822 3834 2567 4026 
Q 2313 4219 1838 4219 
Q 1578 4219 1281 4162 
Q 984 4106 628 3988 
L 628 4550 
Q 988 4650 1302 4700 
Q 1616 4750 1894 4750 
Q 2613 4750 3031 4423 
Q 3450 4097 3450 3541 
Q 3450 3153 3228 2886 
Q 3006 2619 2597 2516 
z
" id="DejaVuSans-33" transform="scale(0.015625)"/>
       </defs>
       <use xlink:href="#DejaVuSans-31"/>
       <use x="63.623047" xlink:href="#DejaVuSans-31"/>
       <use x="127.246094" xlink:href="#DejaVuSans-68"/>
       <use x="190.625" xlink:href="#DejaVuSans-3a"/>
       <use x="224.316406" xlink:href="#DejaVuSans-33"/>
       <use x="287.939453" xlink:href="#DejaVuSans-37"/>
       <use x="351.5625" xlink:href="#DejaVuSans-6d"/>
      </g>
     </g>
    </g>
    <g id="xtick_5">
     <g id="line2d_5">
      <g>
       <use style="stroke:#000000;stroke-width:0.8;" x="294.764564" xlink:href="#mda0ed2a04f" y="288.430125"/>
      </g>
     </g>
     <g id="text_5">
      <!-- 15h:25m -->
      <g transform="translate(272.316127 303.028562)scale(0.1 -0.1)">
       <use xlink:href="#DejaVuSans-31"/>
       <use x="63.623047" xlink:href="#DejaVuSans-35"/>
       <use x="127.246094" xlink:href="#DejaVuSans-68"/>
       <use x="190.625" xlink:href="#DejaVuSans-3a"/>
       <use x="224.316406" xlink:href="#DejaVuSans-32"/>
       <use x="287.939453" xlink:href="#DejaVuSans-35"/>
       <use x="351.5625" xlink:href="#DejaVuSans-6d"/>
      </g>
     </g>
    </g>
    <g id="xtick_6">
     <g id="line2d_6">
      <g>
       <use style="stroke:#000000;stroke-width:0.8;" x="349.474867" xlink:href="#mda0ed2a04f" y="288.430125"/>
      </g>
     </g>
     <g id="text_6">
      <!-- 19h:12m -->
      <g transform="translate(327.02643 303.028562)scale(0.1 -0.1)">
       <defs>
        <path d="M 703 97 
L 703 672 
Q 941 559 1184 500 
Q 1428 441 1663 441 
Q 2288 441 2617 861 
Q 2947 1281 2994 2138 
Q 2813 1869 2534 1725 
Q 2256 1581 1919 1581 
Q 1219 1581 811 2004 
Q 403 2428 403 3163 
Q 403 3881 828 4315 
Q 1253 4750 1959 4750 
Q 2769 4750 3195 4129 
Q 3622 3509 3622 2328 
Q 3622 1225 3098 567 
Q 2575 -91 1691 -91 
Q 1453 -91 1209 -44 
Q 966 3 703 97 
z
M 1959 2075 
Q 2384 2075 2632 2365 
Q 2881 2656 2881 3163 
Q 2881 3666 2632 3958 
Q 2384 4250 1959 4250 
Q 1534 4250 1286 3958 
Q 1038 3666 1038 3163 
Q 1038 2656 1286 2365 
Q 1534 2075 1959 2075 
z
" id="DejaVuSans-39" transform="scale(0.015625)"/>
       </defs>
       <use xlink:href="#DejaVuSans-31"/>
       <use x="63.623047" xlink:href="#DejaVuSans-39"/>
       <use x="127.246094" xlink:href="#DejaVuSans-68"/>
       <use x="190.625" xlink:href="#DejaVuSans-3a"/>
       <use x="224.316406" xlink:href="#DejaVuSans-31"/>
       <use x="287.939453" xlink:href="#DejaVuSans-32"/>
       <use x="351.5625" xlink:href="#DejaVuSans-6d"/>
      </g>
     </g>
    </g>
    <g id="text_7">
     <!-- Time (hour:minute) -->
     <g transform="translate(189.843594 316.706687)scale(0.1 -0.1)">
      <defs>
       <path d="M -19 4666 
L 3928 4666 
L 3928 4134 
L 2272 4134 
L 2272 0 
L 1638 0 
L 1638 4134 
L -19 4134 
L -19 4666 
z
" id="DejaVuSans-54" transform="scale(0.015625)"/>
       <path d="M 603 3500 
L 1178 3500 
L 1178 0 
L 603 0 
L 603 3500 
z
M 603 4863 
L 1178 4863 
L 1178 4134 
L 603 4134 
L 603 4863 
z
" id="DejaVuSans-69" transform="scale(0.015625)"/>
       <path d="M 3597 1894 
L 3597 1613 
L 953 1613 
Q 991 1019 1311 708 
Q 1631 397 2203 397 
Q 2534 397 2845 478 
Q 3156 559 3463 722 
L 3463 178 
Q 3153 47 2828 -22 
Q 2503 -91 2169 -91 
Q 1331 -91 842 396 
Q 353 884 353 1716 
Q 353 2575 817 3079 
Q 1281 3584 2069 3584 
Q 2775 3584 3186 3129 
Q 3597 2675 3597 1894 
z
M 3022 2063 
Q 3016 2534 2758 2815 
Q 2500 3097 2075 3097 
Q 1594 3097 1305 2825 
Q 1016 2553 972 2059 
L 3022 2063 
z
" id="DejaVuSans-65" transform="scale(0.015625)"/>
       <path id="DejaVuSans-20" transform="scale(0.015625)"/>
       <path d="M 1984 4856 
Q 1566 4138 1362 3434 
Q 1159 2731 1159 2009 
Q 1159 1288 1364 580 
Q 1569 -128 1984 -844 
L 1484 -844 
Q 1016 -109 783 600 
Q 550 1309 550 2009 
Q 550 2706 781 3412 
Q 1013 4119 1484 4856 
L 1984 4856 
z
" id="DejaVuSans-28" transform="scale(0.015625)"/>
       <path d="M 1959 3097 
Q 1497 3097 1228 2736 
Q 959 2375 959 1747 
Q 959 1119 1226 758 
Q 1494 397 1959 397 
Q 2419 397 2687 759 
Q 2956 1122 2956 1747 
Q 2956 2369 2687 2733 
Q 2419 3097 1959 3097 
z
M 1959 3584 
Q 2709 3584 3137 3096 
Q 3566 2609 3566 1747 
Q 3566 888 3137 398 
Q 2709 -91 1959 -91 
Q 1206 -91 779 398 
Q 353 888 353 1747 
Q 353 2609 779 3096 
Q 1206 3584 1959 3584 
z
" id="DejaVuSans-6f" transform="scale(0.015625)"/>
       <path d="M 544 1381 
L 544 3500 
L 1119 3500 
L 1119 1403 
Q 1119 906 1312 657 
Q 1506 409 1894 409 
Q 2359 409 2629 706 
Q 2900 1003 2900 1516 
L 2900 3500 
L 3475 3500 
L 3475 0 
L 2900 0 
L 2900 538 
Q 2691 219 2414 64 
Q 2138 -91 1772 -91 
Q 1169 -91 856 284 
Q 544 659 544 1381 
z
M 1991 3584 
L 1991 3584 
z
" id="DejaVuSans-75" transform="scale(0.015625)"/>
       <path d="M 2631 2963 
Q 2534 3019 2420 3045 
Q 2306 3072 2169 3072 
Q 1681 3072 1420 2755 
Q 1159 2438 1159 1844 
L 1159 0 
L 581 0 
L 581 3500 
L 1159 3500 
L 1159 2956 
Q 1341 3275 1631 3429 
Q 1922 3584 2338 3584 
Q 2397 3584 2469 3576 
Q 2541 3569 2628 3553 
L 2631 2963 
z
" id="DejaVuSans-72" transform="scale(0.015625)"/>
       <path d="M 3513 2113 
L 3513 0 
L 2938 0 
L 2938 2094 
Q 2938 2591 2744 2837 
Q 2550 3084 2163 3084 
Q 1697 3084 1428 2787 
Q 1159 2491 1159 1978 
L 1159 0 
L 581 0 
L 581 3500 
L 1159 3500 
L 1159 2956 
Q 1366 3272 1645 3428 
Q 1925 3584 2291 3584 
Q 2894 3584 3203 3211 
Q 3513 2838 3513 2113 
z
" id="DejaVuSans-6e" transform="scale(0.015625)"/>
       <path d="M 1172 4494 
L 1172 3500 
L 2356 3500 
L 2356 3053 
L 1172 3053 
L 1172 1153 
Q 1172 725 1289 603 
Q 1406 481 1766 481 
L 2356 481 
L 2356 0 
L 1766 0 
Q 1100 0 847 248 
Q 594 497 594 1153 
L 594 3053 
L 172 3053 
L 172 3500 
L 594 3500 
L 594 4494 
L 1172 4494 
z
" id="DejaVuSans-74" transform="scale(0.015625)"/>
       <path d="M 513 4856 
L 1013 4856 
Q 1481 4119 1714 3412 
Q 1947 2706 1947 2009 
Q 1947 1309 1714 600 
Q 1481 -109 1013 -844 
L 513 -844 
Q 928 -128 1133 580 
Q 1338 1288 1338 2009 
Q 1338 2731 1133 3434 
Q 928 4138 513 4856 
z
" id="DejaVuSans-29" transform="scale(0.015625)"/>
      </defs>
      <use xlink:href="#DejaVuSans-54"/>
      <use x="57.958984" xlink:href="#DejaVuSans-69"/>
      <use x="85.742188" xlink:href="#DejaVuSans-6d"/>
      <use x="183.154297" xlink:href="#DejaVuSans-65"/>
      <use x="244.677734" xlink:href="#DejaVuSans-20"/>
      <use x="276.464844" xlink:href="#DejaVuSans-28"/>
      <use x="315.478516" xlink:href="#DejaVuSans-68"/>
      <use x="378.857422" xlink:href="#DejaVuSans-6f"/>
      <use x="440.039062" xlink:href="#DejaVuSans-75"/>
      <use x="503.417969" xlink:href="#DejaVuSans-72"/>
      <use x="542.78125" xlink:href="#DejaVuSans-3a"/>
      <use x="576.472656" xlink:href="#DejaVuSans-6d"/>
      <use x="673.884766" xlink:href="#DejaVuSans-69"/>
      <use x="701.667969" xlink:href="#DejaVuSans-6e"/>
      <use x="765.046875" xlink:href="#DejaVuSans-75"/>
      <use x="828.425781" xlink:href="#DejaVuSans-74"/>
      <use x="867.634766" xlink:href="#DejaVuSans-65"/>
      <use x="929.158203" xlink:href="#DejaVuSans-29"/>
     </g>
    </g>
   </g>
   <g id="matplotlib.axis_2">
    <g id="ytick_1">
     <g id="line2d_7">
      <defs>
       <path d="M 0 0 
L -3.5 0 
" id="m3c8acce558" style="stroke:#000000;stroke-width:0.8;"/>
      </defs>
      <g>
       <use style="stroke:#000000;stroke-width:0.8;" x="59.690625" xlink:href="#m3c8acce558" y="266.745223"/>
      </g>
     </g>
     <g id="text_8">
      <!-- 13200 -->
      <g transform="translate(20.878125 270.544442)scale(0.1 -0.1)">
       <use xlink:href="#DejaVuSans-31"/>
       <use x="63.623047" xlink:href="#DejaVuSans-33"/>
       <use x="127.246094" xlink:href="#DejaVuSans-32"/>
       <use x="190.869141" xlink:href="#DejaVuSans-30"/>
       <use x="254.492188" xlink:href="#DejaVuSans-30"/>
      </g>
     </g>
    </g>
    <g id="ytick_2">
     <g id="line2d_8">
      <g>
       <use style="stroke:#000000;stroke-width:0.8;" x="59.690625" xlink:href="#m3c8acce558" y="226.791466"/>
      </g>
     </g>
     <g id="text_9">
      <!-- 13400 -->
      <g transform="translate(20.878125 230.590685)scale(0.1 -0.1)">
       <use xlink:href="#DejaVuSans-31"/>
       <use x="63.623047" xlink:href="#DejaVuSans-33"/>
       <use x="127.246094" xlink:href="#DejaVuSans-34"/>
       <use x="190.869141" xlink:href="#DejaVuSans-30"/>
       <use x="254.492188" xlink:href="#DejaVuSans-30"/>
      </g>
     </g>
    </g>
    <g id="ytick_3">
     <g id="line2d_9">
      <g>
       <use style="stroke:#000000;stroke-width:0.8;" x="59.690625" xlink:href="#m3c8acce558" y="186.837709"/>
      </g>
     </g>
     <g id="text_10">
      <!-- 13600 -->
      <g transform="translate(20.878125 190.636928)scale(0.1 -0.1)">
       <defs>
        <path d="M 2113 2584 
Q 1688 2584 1439 2293 
Q 1191 2003 1191 1497 
Q 1191 994 1439 701 
Q 1688 409 2113 409 
Q 2538 409 2786 701 
Q 3034 994 3034 1497 
Q 3034 2003 2786 2293 
Q 2538 2584 2113 2584 
z
M 3366 4563 
L 3366 3988 
Q 3128 4100 2886 4159 
Q 2644 4219 2406 4219 
Q 1781 4219 1451 3797 
Q 1122 3375 1075 2522 
Q 1259 2794 1537 2939 
Q 1816 3084 2150 3084 
Q 2853 3084 3261 2657 
Q 3669 2231 3669 1497 
Q 3669 778 3244 343 
Q 2819 -91 2113 -91 
Q 1303 -91 875 529 
Q 447 1150 447 2328 
Q 447 3434 972 4092 
Q 1497 4750 2381 4750 
Q 2619 4750 2861 4703 
Q 3103 4656 3366 4563 
z
" id="DejaVuSans-36" transform="scale(0.015625)"/>
       </defs>
       <use xlink:href="#DejaVuSans-31"/>
       <use x="63.623047" xlink:href="#DejaVuSans-33"/>
       <use x="127.246094" xlink:href="#DejaVuSans-36"/>
       <use x="190.869141" xlink:href="#DejaVuSans-30"/>
       <use x="254.492188" xlink:href="#DejaVuSans-30"/>
      </g>
     </g>
    </g>
    <g id="ytick_4">
     <g id="line2d_10">
      <g>
       <use style="stroke:#000000;stroke-width:0.8;" x="59.690625" xlink:href="#m3c8acce558" y="146.883952"/>
      </g>
     </g>
     <g id="text_11">
      <!-- 13800 -->
      <g transform="translate(20.878125 150.68317)scale(0.1 -0.1)">
       <defs>
        <path d="M 2034 2216 
Q 1584 2216 1326 1975 
Q 1069 1734 1069 1313 
Q 1069 891 1326 650 
Q 1584 409 2034 409 
Q 2484 409 2743 651 
Q 3003 894 3003 1313 
Q 3003 1734 2745 1975 
Q 2488 2216 2034 2216 
z
M 1403 2484 
Q 997 2584 770 2862 
Q 544 3141 544 3541 
Q 544 4100 942 4425 
Q 1341 4750 2034 4750 
Q 2731 4750 3128 4425 
Q 3525 4100 3525 3541 
Q 3525 3141 3298 2862 
Q 3072 2584 2669 2484 
Q 3125 2378 3379 2068 
Q 3634 1759 3634 1313 
Q 3634 634 3220 271 
Q 2806 -91 2034 -91 
Q 1263 -91 848 271 
Q 434 634 434 1313 
Q 434 1759 690 2068 
Q 947 2378 1403 2484 
z
M 1172 3481 
Q 1172 3119 1398 2916 
Q 1625 2713 2034 2713 
Q 2441 2713 2670 2916 
Q 2900 3119 2900 3481 
Q 2900 3844 2670 4047 
Q 2441 4250 2034 4250 
Q 1625 4250 1398 4047 
Q 1172 3844 1172 3481 
z
" id="DejaVuSans-38" transform="scale(0.015625)"/>
       </defs>
       <use xlink:href="#DejaVuSans-31"/>
       <use x="63.623047" xlink:href="#DejaVuSans-33"/>
       <use x="127.246094" xlink:href="#DejaVuSans-38"/>
       <use x="190.869141" xlink:href="#DejaVuSans-30"/>
       <use x="254.492188" xlink:href="#DejaVuSans-30"/>
      </g>
     </g>
    </g>
    <g id="ytick_5">
     <g id="line2d_11">
      <g>
       <use style="stroke:#000000;stroke-width:0.8;" x="59.690625" xlink:href="#m3c8acce558" y="106.930194"/>
      </g>
     </g>
     <g id="text_12">
      <!-- 14000 -->
      <g transform="translate(20.878125 110.729413)scale(0.1 -0.1)">
       <use xlink:href="#DejaVuSans-31"/>
       <use x="63.623047" xlink:href="#DejaVuSans-34"/>
       <use x="127.246094" xlink:href="#DejaVuSans-30"/>
       <use x="190.869141" xlink:href="#DejaVuSans-30"/>
       <use x="254.492188" xlink:href="#DejaVuSans-30"/>
      </g>
     </g>
    </g>
    <g id="ytick_6">
     <g id="line2d_12">
      <g>
       <use style="stroke:#000000;stroke-width:0.8;" x="59.690625" xlink:href="#m3c8acce558" y="66.976437"/>
      </g>
     </g>
     <g id="text_13">
      <!-- 14200 -->
      <g transform="translate(20.878125 70.775656)scale(0.1 -0.1)">
       <use xlink:href="#DejaVuSans-31"/>
       <use x="63.623047" xlink:href="#DejaVuSans-34"/>
       <use x="127.246094" xlink:href="#DejaVuSans-32"/>
       <use x="190.869141" xlink:href="#DejaVuSans-30"/>
       <use x="254.492188" xlink:href="#DejaVuSans-30"/>
      </g>
     </g>
    </g>
    <g id="ytick_7">
     <g id="line2d_13">
      <g>
       <use style="stroke:#000000;stroke-width:0.8;" x="59.690625" xlink:href="#m3c8acce558" y="27.02268"/>
      </g>
     </g>
     <g id="text_14">
      <!-- 14400 -->
      <g transform="translate(20.878125 30.821899)scale(0.1 -0.1)">
       <use xlink:href="#DejaVuSans-31"/>
       <use x="63.623047" xlink:href="#DejaVuSans-34"/>
       <use x="127.246094" xlink:href="#DejaVuSans-34"/>
       <use x="190.869141" xlink:href="#DejaVuSans-30"/>
       <use x="254.492188" xlink:href="#DejaVuSans-30"/>
      </g>
     </g>
    </g>
    <g id="text_15">
     <!-- Code region coverage -->
     <g transform="translate(14.798438 210.379594)rotate(-90)scale(0.1 -0.1)">
      <defs>
       <path d="M 4122 4306 
L 4122 3641 
Q 3803 3938 3442 4084 
Q 3081 4231 2675 4231 
Q 1875 4231 1450 3742 
Q 1025 3253 1025 2328 
Q 1025 1406 1450 917 
Q 1875 428 2675 428 
Q 3081 428 3442 575 
Q 3803 722 4122 1019 
L 4122 359 
Q 3791 134 3420 21 
Q 3050 -91 2638 -91 
Q 1578 -91 968 557 
Q 359 1206 359 2328 
Q 359 3453 968 4101 
Q 1578 4750 2638 4750 
Q 3056 4750 3426 4639 
Q 3797 4528 4122 4306 
z
" id="DejaVuSans-43" transform="scale(0.015625)"/>
       <path d="M 2906 2969 
L 2906 4863 
L 3481 4863 
L 3481 0 
L 2906 0 
L 2906 525 
Q 2725 213 2448 61 
Q 2172 -91 1784 -91 
Q 1150 -91 751 415 
Q 353 922 353 1747 
Q 353 2572 751 3078 
Q 1150 3584 1784 3584 
Q 2172 3584 2448 3432 
Q 2725 3281 2906 2969 
z
M 947 1747 
Q 947 1113 1208 752 
Q 1469 391 1925 391 
Q 2381 391 2643 752 
Q 2906 1113 2906 1747 
Q 2906 2381 2643 2742 
Q 2381 3103 1925 3103 
Q 1469 3103 1208 2742 
Q 947 2381 947 1747 
z
" id="DejaVuSans-64" transform="scale(0.015625)"/>
       <path d="M 2906 1791 
Q 2906 2416 2648 2759 
Q 2391 3103 1925 3103 
Q 1463 3103 1205 2759 
Q 947 2416 947 1791 
Q 947 1169 1205 825 
Q 1463 481 1925 481 
Q 2391 481 2648 825 
Q 2906 1169 2906 1791 
z
M 3481 434 
Q 3481 -459 3084 -895 
Q 2688 -1331 1869 -1331 
Q 1566 -1331 1297 -1286 
Q 1028 -1241 775 -1147 
L 775 -588 
Q 1028 -725 1275 -790 
Q 1522 -856 1778 -856 
Q 2344 -856 2625 -561 
Q 2906 -266 2906 331 
L 2906 616 
Q 2728 306 2450 153 
Q 2172 0 1784 0 
Q 1141 0 747 490 
Q 353 981 353 1791 
Q 353 2603 747 3093 
Q 1141 3584 1784 3584 
Q 2172 3584 2450 3431 
Q 2728 3278 2906 2969 
L 2906 3500 
L 3481 3500 
L 3481 434 
z
" id="DejaVuSans-67" transform="scale(0.015625)"/>
       <path d="M 3122 3366 
L 3122 2828 
Q 2878 2963 2633 3030 
Q 2388 3097 2138 3097 
Q 1578 3097 1268 2742 
Q 959 2388 959 1747 
Q 959 1106 1268 751 
Q 1578 397 2138 397 
Q 2388 397 2633 464 
Q 2878 531 3122 666 
L 3122 134 
Q 2881 22 2623 -34 
Q 2366 -91 2075 -91 
Q 1284 -91 818 406 
Q 353 903 353 1747 
Q 353 2603 823 3093 
Q 1294 3584 2113 3584 
Q 2378 3584 2631 3529 
Q 2884 3475 3122 3366 
z
" id="DejaVuSans-63" transform="scale(0.015625)"/>
       <path d="M 191 3500 
L 800 3500 
L 1894 563 
L 2988 3500 
L 3597 3500 
L 2284 0 
L 1503 0 
L 191 3500 
z
" id="DejaVuSans-76" transform="scale(0.015625)"/>
       <path d="M 2194 1759 
Q 1497 1759 1228 1600 
Q 959 1441 959 1056 
Q 959 750 1161 570 
Q 1363 391 1709 391 
Q 2188 391 2477 730 
Q 2766 1069 2766 1631 
L 2766 1759 
L 2194 1759 
z
M 3341 1997 
L 3341 0 
L 2766 0 
L 2766 531 
Q 2569 213 2275 61 
Q 1981 -91 1556 -91 
Q 1019 -91 701 211 
Q 384 513 384 1019 
Q 384 1609 779 1909 
Q 1175 2209 1959 2209 
L 2766 2209 
L 2766 2266 
Q 2766 2663 2505 2880 
Q 2244 3097 1772 3097 
Q 1472 3097 1187 3025 
Q 903 2953 641 2809 
L 641 3341 
Q 956 3463 1253 3523 
Q 1550 3584 1831 3584 
Q 2591 3584 2966 3190 
Q 3341 2797 3341 1997 
z
" id="DejaVuSans-61" transform="scale(0.015625)"/>
      </defs>
      <use xlink:href="#DejaVuSans-43"/>
      <use x="69.824219" xlink:href="#DejaVuSans-6f"/>
      <use x="131.005859" xlink:href="#DejaVuSans-64"/>
      <use x="194.482422" xlink:href="#DejaVuSans-65"/>
      <use x="256.005859" xlink:href="#DejaVuSans-20"/>
      <use x="287.792969" xlink:href="#DejaVuSans-72"/>
      <use x="326.65625" xlink:href="#DejaVuSans-65"/>
      <use x="388.179688" xlink:href="#DejaVuSans-67"/>
      <use x="451.65625" xlink:href="#DejaVuSans-69"/>
      <use x="479.439453" xlink:href="#DejaVuSans-6f"/>
      <use x="540.621094" xlink:href="#DejaVuSans-6e"/>
      <use x="604" xlink:href="#DejaVuSans-20"/>
      <use x="635.787109" xlink:href="#DejaVuSans-63"/>
      <use x="690.767578" xlink:href="#DejaVuSans-6f"/>
      <use x="751.949219" xlink:href="#DejaVuSans-76"/>
      <use x="811.128906" xlink:href="#DejaVuSans-65"/>
      <use x="872.652344" xlink:href="#DejaVuSans-72"/>
      <use x="913.765625" xlink:href="#DejaVuSans-61"/>
      <use x="975.044922" xlink:href="#DejaVuSans-67"/>
      <use x="1038.521484" xlink:href="#DejaVuSans-65"/>
     </g>
    </g>
   </g>
   <g id="line2d_14">
    <path clip-path="url(#p77c4d05699)" d="M 75.923352 239.3769 
L 79.530625 211.209501 
L 83.137898 187.836553 
L 86.74517 173.353316 
L 90.352443 152.677246 
L 93.959716 151.678402 
L 97.566989 140.990772 
L 101.174261 138.293894 
L 104.781534 134.698056 
L 108.388807 128.904761 
L 111.99608 121.313547 
L 115.603352 113.023142 
L 119.210625 120.314703 
L 122.817898 112.224067 
L 126.42517 111.924414 
L 130.032443 112.52372 
L 133.639716 110.326264 
L 137.246989 107.129963 
L 140.854261 104.932507 
L 144.461534 104.033547 
L 148.068807 103.933663 
L 151.67608 103.634009 
L 155.283352 101.536437 
L 158.890625 100.138056 
L 162.497898 98.539905 
L 166.10517 96.841871 
L 169.712443 96.342449 
L 173.319716 98.040483 
L 176.926989 94.744298 
L 180.534261 95.543374 
L 184.141534 92.646726 
L 187.748807 92.247189 
L 191.35608 92.546842 
L 194.963352 86.953316 
L 198.570625 83.157709 
L 202.177898 84.55609 
L 205.78517 85.754703 
L 209.392443 78.463142 
L 212.999716 82.158865 
L 216.606989 71.171582 
L 220.214261 76.165801 
L 223.821534 68.17505 
L 227.428807 67.775512 
L 231.03608 66.277246 
L 234.643352 64.679096 
L 238.250625 65.977593 
L 241.857898 61.982217 
L 245.46517 63.280715 
L 249.072443 63.780137 
L 252.679716 60.184298 
L 256.286989 60.384067 
L 259.894261 59.584992 
L 263.501534 59.98453 
L 267.108807 58.985686 
L 270.71608 59.08557 
L 274.323352 58.985686 
L 277.930625 53.591928 
L 281.537898 51.893894 
L 285.14517 56.188923 
L 288.752443 53.591928 
L 292.359716 53.39216 
L 295.966989 53.39216 
L 299.574261 51.594241 
L 303.181534 53.292275 
L 306.788807 53.292275 
L 310.39608 53.092507 
L 314.003352 52.792853 
L 317.610625 52.992622 
L 321.217898 52.792853 
L 324.82517 52.792853 
L 328.432443 50.095975 
L 332.039716 52.593085 
L 335.646989 43.603489 
L 339.254261 47.49898 
L 342.861534 47.099443 
L 346.468807 42.205108 
L 350.07608 46.999559 
L 353.683352 42.205108 
L 357.290625 51.794009 
L 360.897898 42.205108 
L 364.50517 46.999559 
L 368.112443 50.195859 
L 371.719716 50.994934 
L 375.326989 45.101755 
L 378.934261 48.098287 
L 382.541534 47.698749 
L 386.148807 41.605801 
L 389.75608 51.594241 
L 393.363352 42.005339 
L 396.970625 41.006495 
L 400.577898 46.600021 
" style="fill:none;stroke:#1f77b4;stroke-linecap:square;stroke-width:1.5;"/>
    <defs>
     <path d="M 0 3 
C 0.795609 3 1.55874 2.683901 2.12132 2.12132 
C 2.683901 1.55874 3 0.795609 3 0 
C 3 -0.795609 2.683901 -1.55874 2.12132 -2.12132 
C 1.55874 -2.683901 0.795609 -3 0 -3 
C -0.795609 -3 -1.55874 -2.683901 -2.12132 -2.12132 
C -2.683901 -1.55874 -3 -0.795609 -3 0 
C -3 0.795609 -2.683901 1.55874 -2.12132 2.12132 
C -1.55874 2.683901 -0.795609 3 0 3 
z
" id="m25c85ba29f" style="stroke:#ffffff;stroke-width:0.75;"/>
    </defs>
    <g clip-path="url(#p77c4d05699)">
     <use style="fill:#1f77b4;stroke:#ffffff;stroke-width:0.75;" x="75.923352" xlink:href="#m25c85ba29f" y="239.3769"/>
     <use style="fill:#1f77b4;stroke:#ffffff;stroke-width:0.75;" x="79.530625" xlink:href="#m25c85ba29f" y="211.209501"/>
     <use style="fill:#1f77b4;stroke:#ffffff;stroke-width:0.75;" x="83.137898" xlink:href="#m25c85ba29f" y="187.836553"/>
     <use style="fill:#1f77b4;stroke:#ffffff;stroke-width:0.75;" x="86.74517" xlink:href="#m25c85ba29f" y="173.353316"/>
     <use style="fill:#1f77b4;stroke:#ffffff;stroke-width:0.75;" x="90.352443" xlink:href="#m25c85ba29f" y="152.677246"/>
     <use style="fill:#1f77b4;stroke:#ffffff;stroke-width:0.75;" x="93.959716" xlink:href="#m25c85ba29f" y="151.678402"/>
     <use style="fill:#1f77b4;stroke:#ffffff;stroke-width:0.75;" x="97.566989" xlink:href="#m25c85ba29f" y="140.990772"/>
     <use style="fill:#1f77b4;stroke:#ffffff;stroke-width:0.75;" x="101.174261" xlink:href="#m25c85ba29f" y="138.293894"/>
     <use style="fill:#1f77b4;stroke:#ffffff;stroke-width:0.75;" x="104.781534" xlink:href="#m25c85ba29f" y="134.698056"/>
     <use style="fill:#1f77b4;stroke:#ffffff;stroke-width:0.75;" x="108.388807" xlink:href="#m25c85ba29f" y="128.904761"/>
     <use style="fill:#1f77b4;stroke:#ffffff;stroke-width:0.75;" x="111.99608" xlink:href="#m25c85ba29f" y="121.313547"/>
     <use style="fill:#1f77b4;stroke:#ffffff;stroke-width:0.75;" x="115.603352" xlink:href="#m25c85ba29f" y="113.023142"/>
     <use style="fill:#1f77b4;stroke:#ffffff;stroke-width:0.75;" x="119.210625" xlink:href="#m25c85ba29f" y="120.314703"/>
     <use style="fill:#1f77b4;stroke:#ffffff;stroke-width:0.75;" x="122.817898" xlink:href="#m25c85ba29f" y="112.224067"/>
     <use style="fill:#1f77b4;stroke:#ffffff;stroke-width:0.75;" x="126.42517" xlink:href="#m25c85ba29f" y="111.924414"/>
     <use style="fill:#1f77b4;stroke:#ffffff;stroke-width:0.75;" x="130.032443" xlink:href="#m25c85ba29f" y="112.52372"/>
     <use style="fill:#1f77b4;stroke:#ffffff;stroke-width:0.75;" x="133.639716" xlink:href="#m25c85ba29f" y="110.326264"/>
     <use style="fill:#1f77b4;stroke:#ffffff;stroke-width:0.75;" x="137.246989" xlink:href="#m25c85ba29f" y="107.129963"/>
     <use style="fill:#1f77b4;stroke:#ffffff;stroke-width:0.75;" x="140.854261" xlink:href="#m25c85ba29f" y="104.932507"/>
     <use style="fill:#1f77b4;stroke:#ffffff;stroke-width:0.75;" x="144.461534" xlink:href="#m25c85ba29f" y="104.033547"/>
     <use style="fill:#1f77b4;stroke:#ffffff;stroke-width:0.75;" x="148.068807" xlink:href="#m25c85ba29f" y="103.933663"/>
     <use style="fill:#1f77b4;stroke:#ffffff;stroke-width:0.75;" x="151.67608" xlink:href="#m25c85ba29f" y="103.634009"/>
     <use style="fill:#1f77b4;stroke:#ffffff;stroke-width:0.75;" x="155.283352" xlink:href="#m25c85ba29f" y="101.536437"/>
     <use style="fill:#1f77b4;stroke:#ffffff;stroke-width:0.75;" x="158.890625" xlink:href="#m25c85ba29f" y="100.138056"/>
     <use style="fill:#1f77b4;stroke:#ffffff;stroke-width:0.75;" x="162.497898" xlink:href="#m25c85ba29f" y="98.539905"/>
     <use style="fill:#1f77b4;stroke:#ffffff;stroke-width:0.75;" x="166.10517" xlink:href="#m25c85ba29f" y="96.841871"/>
     <use style="fill:#1f77b4;stroke:#ffffff;stroke-width:0.75;" x="169.712443" xlink:href="#m25c85ba29f" y="96.342449"/>
     <use style="fill:#1f77b4;stroke:#ffffff;stroke-width:0.75;" x="173.319716" xlink:href="#m25c85ba29f" y="98.040483"/>
     <use style="fill:#1f77b4;stroke:#ffffff;stroke-width:0.75;" x="176.926989" xlink:href="#m25c85ba29f" y="94.744298"/>
     <use style="fill:#1f77b4;stroke:#ffffff;stroke-width:0.75;" x="180.534261" xlink:href="#m25c85ba29f" y="95.543374"/>
     <use style="fill:#1f77b4;stroke:#ffffff;stroke-width:0.75;" x="184.141534" xlink:href="#m25c85ba29f" y="92.646726"/>
     <use style="fill:#1f77b4;stroke:#ffffff;stroke-width:0.75;" x="187.748807" xlink:href="#m25c85ba29f" y="92.247189"/>
     <use style="fill:#1f77b4;stroke:#ffffff;stroke-width:0.75;" x="191.35608" xlink:href="#m25c85ba29f" y="92.546842"/>
     <use style="fill:#1f77b4;stroke:#ffffff;stroke-width:0.75;" x="194.963352" xlink:href="#m25c85ba29f" y="86.953316"/>
     <use style="fill:#1f77b4;stroke:#ffffff;stroke-width:0.75;" x="198.570625" xlink:href="#m25c85ba29f" y="83.157709"/>
     <use style="fill:#1f77b4;stroke:#ffffff;stroke-width:0.75;" x="202.177898" xlink:href="#m25c85ba29f" y="84.55609"/>
     <use style="fill:#1f77b4;stroke:#ffffff;stroke-width:0.75;" x="205.78517" xlink:href="#m25c85ba29f" y="85.754703"/>
     <use style="fill:#1f77b4;stroke:#ffffff;stroke-width:0.75;" x="209.392443" xlink:href="#m25c85ba29f" y="78.463142"/>
     <use style="fill:#1f77b4;stroke:#ffffff;stroke-width:0.75;" x="212.999716" xlink:href="#m25c85ba29f" y="82.158865"/>
     <use style="fill:#1f77b4;stroke:#ffffff;stroke-width:0.75;" x="216.606989" xlink:href="#m25c85ba29f" y="71.171582"/>
     <use style="fill:#1f77b4;stroke:#ffffff;stroke-width:0.75;" x="220.214261" xlink:href="#m25c85ba29f" y="76.165801"/>
     <use style="fill:#1f77b4;stroke:#ffffff;stroke-width:0.75;" x="223.821534" xlink:href="#m25c85ba29f" y="68.17505"/>
     <use style="fill:#1f77b4;stroke:#ffffff;stroke-width:0.75;" x="227.428807" xlink:href="#m25c85ba29f" y="67.775512"/>
     <use style="fill:#1f77b4;stroke:#ffffff;stroke-width:0.75;" x="231.03608" xlink:href="#m25c85ba29f" y="66.277246"/>
     <use style="fill:#1f77b4;stroke:#ffffff;stroke-width:0.75;" x="234.643352" xlink:href="#m25c85ba29f" y="64.679096"/>
     <use style="fill:#1f77b4;stroke:#ffffff;stroke-width:0.75;" x="238.250625" xlink:href="#m25c85ba29f" y="65.977593"/>
     <use style="fill:#1f77b4;stroke:#ffffff;stroke-width:0.75;" x="241.857898" xlink:href="#m25c85ba29f" y="61.982217"/>
     <use style="fill:#1f77b4;stroke:#ffffff;stroke-width:0.75;" x="245.46517" xlink:href="#m25c85ba29f" y="63.280715"/>
     <use style="fill:#1f77b4;stroke:#ffffff;stroke-width:0.75;" x="249.072443" xlink:href="#m25c85ba29f" y="63.780137"/>
     <use style="fill:#1f77b4;stroke:#ffffff;stroke-width:0.75;" x="252.679716" xlink:href="#m25c85ba29f" y="60.184298"/>
     <use style="fill:#1f77b4;stroke:#ffffff;stroke-width:0.75;" x="256.286989" xlink:href="#m25c85ba29f" y="60.384067"/>
     <use style="fill:#1f77b4;stroke:#ffffff;stroke-width:0.75;" x="259.894261" xlink:href="#m25c85ba29f" y="59.584992"/>
     <use style="fill:#1f77b4;stroke:#ffffff;stroke-width:0.75;" x="263.501534" xlink:href="#m25c85ba29f" y="59.98453"/>
     <use style="fill:#1f77b4;stroke:#ffffff;stroke-width:0.75;" x="267.108807" xlink:href="#m25c85ba29f" y="58.985686"/>
     <use style="fill:#1f77b4;stroke:#ffffff;stroke-width:0.75;" x="270.71608" xlink:href="#m25c85ba29f" y="59.08557"/>
     <use style="fill:#1f77b4;stroke:#ffffff;stroke-width:0.75;" x="274.323352" xlink:href="#m25c85ba29f" y="58.985686"/>
     <use style="fill:#1f77b4;stroke:#ffffff;stroke-width:0.75;" x="277.930625" xlink:href="#m25c85ba29f" y="53.591928"/>
     <use style="fill:#1f77b4;stroke:#ffffff;stroke-width:0.75;" x="281.537898" xlink:href="#m25c85ba29f" y="51.893894"/>
     <use style="fill:#1f77b4;stroke:#ffffff;stroke-width:0.75;" x="285.14517" xlink:href="#m25c85ba29f" y="56.188923"/>
     <use style="fill:#1f77b4;stroke:#ffffff;stroke-width:0.75;" x="288.752443" xlink:href="#m25c85ba29f" y="53.591928"/>
     <use style="fill:#1f77b4;stroke:#ffffff;stroke-width:0.75;" x="292.359716" xlink:href="#m25c85ba29f" y="53.39216"/>
     <use style="fill:#1f77b4;stroke:#ffffff;stroke-width:0.75;" x="295.966989" xlink:href="#m25c85ba29f" y="53.39216"/>
     <use style="fill:#1f77b4;stroke:#ffffff;stroke-width:0.75;" x="299.574261" xlink:href="#m25c85ba29f" y="51.594241"/>
     <use style="fill:#1f77b4;stroke:#ffffff;stroke-width:0.75;" x="303.181534" xlink:href="#m25c85ba29f" y="53.292275"/>
     <use style="fill:#1f77b4;stroke:#ffffff;stroke-width:0.75;" x="306.788807" xlink:href="#m25c85ba29f" y="53.292275"/>
     <use style="fill:#1f77b4;stroke:#ffffff;stroke-width:0.75;" x="310.39608" xlink:href="#m25c85ba29f" y="53.092507"/>
     <use style="fill:#1f77b4;stroke:#ffffff;stroke-width:0.75;" x="314.003352" xlink:href="#m25c85ba29f" y="52.792853"/>
     <use style="fill:#1f77b4;stroke:#ffffff;stroke-width:0.75;" x="317.610625" xlink:href="#m25c85ba29f" y="52.992622"/>
     <use style="fill:#1f77b4;stroke:#ffffff;stroke-width:0.75;" x="321.217898" xlink:href="#m25c85ba29f" y="52.792853"/>
     <use style="fill:#1f77b4;stroke:#ffffff;stroke-width:0.75;" x="324.82517" xlink:href="#m25c85ba29f" y="52.792853"/>
     <use style="fill:#1f77b4;stroke:#ffffff;stroke-width:0.75;" x="328.432443" xlink:href="#m25c85ba29f" y="50.095975"/>
     <use style="fill:#1f77b4;stroke:#ffffff;stroke-width:0.75;" x="332.039716" xlink:href="#m25c85ba29f" y="52.593085"/>
     <use style="fill:#1f77b4;stroke:#ffffff;stroke-width:0.75;" x="335.646989" xlink:href="#m25c85ba29f" y="43.603489"/>
     <use style="fill:#1f77b4;stroke:#ffffff;stroke-width:0.75;" x="339.254261" xlink:href="#m25c85ba29f" y="47.49898"/>
     <use style="fill:#1f77b4;stroke:#ffffff;stroke-width:0.75;" x="342.861534" xlink:href="#m25c85ba29f" y="47.099443"/>
     <use style="fill:#1f77b4;stroke:#ffffff;stroke-width:0.75;" x="346.468807" xlink:href="#m25c85ba29f" y="42.205108"/>
     <use style="fill:#1f77b4;stroke:#ffffff;stroke-width:0.75;" x="350.07608" xlink:href="#m25c85ba29f" y="46.999559"/>
     <use style="fill:#1f77b4;stroke:#ffffff;stroke-width:0.75;" x="353.683352" xlink:href="#m25c85ba29f" y="42.205108"/>
     <use style="fill:#1f77b4;stroke:#ffffff;stroke-width:0.75;" x="357.290625" xlink:href="#m25c85ba29f" y="51.794009"/>
     <use style="fill:#1f77b4;stroke:#ffffff;stroke-width:0.75;" x="360.897898" xlink:href="#m25c85ba29f" y="42.205108"/>
     <use style="fill:#1f77b4;stroke:#ffffff;stroke-width:0.75;" x="364.50517" xlink:href="#m25c85ba29f" y="46.999559"/>
     <use style="fill:#1f77b4;stroke:#ffffff;stroke-width:0.75;" x="368.112443" xlink:href="#m25c85ba29f" y="50.195859"/>
     <use style="fill:#1f77b4;stroke:#ffffff;stroke-width:0.75;" x="371.719716" xlink:href="#m25c85ba29f" y="50.994934"/>
     <use style="fill:#1f77b4;stroke:#ffffff;stroke-width:0.75;" x="375.326989" xlink:href="#m25c85ba29f" y="45.101755"/>
     <use style="fill:#1f77b4;stroke:#ffffff;stroke-width:0.75;" x="378.934261" xlink:href="#m25c85ba29f" y="48.098287"/>
     <use style="fill:#1f77b4;stroke:#ffffff;stroke-width:0.75;" x="382.541534" xlink:href="#m25c85ba29f" y="47.698749"/>
     <use style="fill:#1f77b4;stroke:#ffffff;stroke-width:0.75;" x="386.148807" xlink:href="#m25c85ba29f" y="41.605801"/>
     <use style="fill:#1f77b4;stroke:#ffffff;stroke-width:0.75;" x="389.75608" xlink:href="#m25c85ba29f" y="51.594241"/>
     <use style="fill:#1f77b4;stroke:#ffffff;stroke-width:0.75;" x="393.363352" xlink:href="#m25c85ba29f" y="42.005339"/>
     <use style="fill:#1f77b4;stroke:#ffffff;stroke-width:0.75;" x="396.970625" xlink:href="#m25c85ba29f" y="41.006495"/>
     <use style="fill:#1f77b4;stroke:#ffffff;stroke-width:0.75;" x="400.577898" xlink:href="#m25c85ba29f" y="46.600021"/>
    </g>
   </g>
   <g id="line2d_15">
    <path clip-path="url(#p77c4d05699)" d="M 75.923352 232.584761 
L 79.530625 200.022449 
L 83.137898 194.229154 
L 86.74517 184.640252 
L 90.352443 170.456668 
L 93.959716 154.475165 
L 97.566989 151.079096 
L 101.174261 149.081408 
L 104.781534 139.892044 
L 108.388807 129.703836 
L 111.99608 127.905917 
L 115.603352 124.11031 
L 119.210625 121.113778 
L 122.817898 116.519096 
L 126.42517 113.123027 
L 130.032443 110.526033 
L 133.639716 108.728113 
L 137.246989 107.72927 
L 140.854261 106.530657 
L 144.461534 106.131119 
L 148.068807 103.833778 
L 151.67608 100.23794 
L 155.283352 99.139212 
L 158.890625 97.74083 
L 162.497898 97.74083 
L 166.10517 97.74083 
L 169.712443 96.741986 
L 173.319716 96.342449 
L 176.926989 95.743142 
L 180.534261 95.743142 
L 184.141534 95.743142 
L 187.748807 95.942911 
L 191.35608 95.843027 
L 194.963352 88.751235 
L 198.570625 88.052044 
L 202.177898 88.751235 
L 205.78517 87.852275 
L 209.392443 86.853431 
L 212.999716 89.050888 
L 216.606989 86.154241 
L 220.214261 86.154241 
L 223.821534 86.953316 
L 227.428807 81.35979 
L 231.03608 81.35979 
L 234.643352 73.269154 
L 238.250625 72.470079 
L 241.857898 72.27031 
L 245.46517 71.671004 
L 249.072443 71.271466 
L 252.679716 70.172738 
L 256.286989 74.267998 
L 259.894261 71.770888 
L 263.501534 70.971813 
L 267.108807 69.972969 
L 270.71608 69.173894 
L 274.323352 65.977593 
L 277.930625 65.777824 
L 281.537898 69.573431 
L 285.14517 77.564183 
L 288.752443 77.564183 
L 292.359716 76.465454 
L 295.966989 65.478171 
L 299.574261 76.36557 
L 303.181534 61.382911 
L 306.788807 69.373663 
L 310.39608 64.179674 
L 314.003352 68.574587 
L 317.610625 68.574587 
L 321.217898 68.574587 
L 324.82517 63.780137 
L 328.432443 63.780137 
L 332.039716 58.985686 
L 335.646989 68.574587 
L 339.254261 63.680252 
L 342.861534 72.070541 
L 346.468807 61.682564 
L 350.07608 65.278402 
L 353.683352 43.004183 
L 357.290625 67.575743 
L 360.897898 54.790541 
L 364.50517 54.790541 
L 368.112443 63.280715 
L 371.719716 54.590772 
L 375.326989 66.177362 
L 378.934261 53.691813 
L 382.541534 66.177362 
L 386.148807 66.177362 
L 389.75608 66.177362 
L 393.363352 65.777824 
L 396.970625 65.378287 
L 400.577898 64.379443 
" style="fill:none;stroke:#98df8a;stroke-linecap:square;stroke-width:1.5;"/>
    <defs>
     <path d="M -0 3 
L 3 -3 
L -3 -3 
z
" id="m637e586771" style="stroke:#ffffff;stroke-linejoin:miter;stroke-width:0.75;"/>
    </defs>
    <g clip-path="url(#p77c4d05699)">
     <use style="fill:#98df8a;stroke:#ffffff;stroke-linejoin:miter;stroke-width:0.75;" x="75.923352" xlink:href="#m637e586771" y="232.584761"/>
     <use style="fill:#98df8a;stroke:#ffffff;stroke-linejoin:miter;stroke-width:0.75;" x="79.530625" xlink:href="#m637e586771" y="200.022449"/>
     <use style="fill:#98df8a;stroke:#ffffff;stroke-linejoin:miter;stroke-width:0.75;" x="83.137898" xlink:href="#m637e586771" y="194.229154"/>
     <use style="fill:#98df8a;stroke:#ffffff;stroke-linejoin:miter;stroke-width:0.75;" x="86.74517" xlink:href="#m637e586771" y="184.640252"/>
     <use style="fill:#98df8a;stroke:#ffffff;stroke-linejoin:miter;stroke-width:0.75;" x="90.352443" xlink:href="#m637e586771" y="170.456668"/>
     <use style="fill:#98df8a;stroke:#ffffff;stroke-linejoin:miter;stroke-width:0.75;" x="93.959716" xlink:href="#m637e586771" y="154.475165"/>
     <use style="fill:#98df8a;stroke:#ffffff;stroke-linejoin:miter;stroke-width:0.75;" x="97.566989" xlink:href="#m637e586771" y="151.079096"/>
     <use style="fill:#98df8a;stroke:#ffffff;stroke-linejoin:miter;stroke-width:0.75;" x="101.174261" xlink:href="#m637e586771" y="149.081408"/>
     <use style="fill:#98df8a;stroke:#ffffff;stroke-linejoin:miter;stroke-width:0.75;" x="104.781534" xlink:href="#m637e586771" y="139.892044"/>
     <use style="fill:#98df8a;stroke:#ffffff;stroke-linejoin:miter;stroke-width:0.75;" x="108.388807" xlink:href="#m637e586771" y="129.703836"/>
     <use style="fill:#98df8a;stroke:#ffffff;stroke-linejoin:miter;stroke-width:0.75;" x="111.99608" xlink:href="#m637e586771" y="127.905917"/>
     <use style="fill:#98df8a;stroke:#ffffff;stroke-linejoin:miter;stroke-width:0.75;" x="115.603352" xlink:href="#m637e586771" y="124.11031"/>
     <use style="fill:#98df8a;stroke:#ffffff;stroke-linejoin:miter;stroke-width:0.75;" x="119.210625" xlink:href="#m637e586771" y="121.113778"/>
     <use style="fill:#98df8a;stroke:#ffffff;stroke-linejoin:miter;stroke-width:0.75;" x="122.817898" xlink:href="#m637e586771" y="116.519096"/>
     <use style="fill:#98df8a;stroke:#ffffff;stroke-linejoin:miter;stroke-width:0.75;" x="126.42517" xlink:href="#m637e586771" y="113.123027"/>
     <use style="fill:#98df8a;stroke:#ffffff;stroke-linejoin:miter;stroke-width:0.75;" x="130.032443" xlink:href="#m637e586771" y="110.526033"/>
     <use style="fill:#98df8a;stroke:#ffffff;stroke-linejoin:miter;stroke-width:0.75;" x="133.639716" xlink:href="#m637e586771" y="108.728113"/>
     <use style="fill:#98df8a;stroke:#ffffff;stroke-linejoin:miter;stroke-width:0.75;" x="137.246989" xlink:href="#m637e586771" y="107.72927"/>
     <use style="fill:#98df8a;stroke:#ffffff;stroke-linejoin:miter;stroke-width:0.75;" x="140.854261" xlink:href="#m637e586771" y="106.530657"/>
     <use style="fill:#98df8a;stroke:#ffffff;stroke-linejoin:miter;stroke-width:0.75;" x="144.461534" xlink:href="#m637e586771" y="106.131119"/>
     <use style="fill:#98df8a;stroke:#ffffff;stroke-linejoin:miter;stroke-width:0.75;" x="148.068807" xlink:href="#m637e586771" y="103.833778"/>
     <use style="fill:#98df8a;stroke:#ffffff;stroke-linejoin:miter;stroke-width:0.75;" x="151.67608" xlink:href="#m637e586771" y="100.23794"/>
     <use style="fill:#98df8a;stroke:#ffffff;stroke-linejoin:miter;stroke-width:0.75;" x="155.283352" xlink:href="#m637e586771" y="99.139212"/>
     <use style="fill:#98df8a;stroke:#ffffff;stroke-linejoin:miter;stroke-width:0.75;" x="158.890625" xlink:href="#m637e586771" y="97.74083"/>
     <use style="fill:#98df8a;stroke:#ffffff;stroke-linejoin:miter;stroke-width:0.75;" x="162.497898" xlink:href="#m637e586771" y="97.74083"/>
     <use style="fill:#98df8a;stroke:#ffffff;stroke-linejoin:miter;stroke-width:0.75;" x="166.10517" xlink:href="#m637e586771" y="97.74083"/>
     <use style="fill:#98df8a;stroke:#ffffff;stroke-linejoin:miter;stroke-width:0.75;" x="169.712443" xlink:href="#m637e586771" y="96.741986"/>
     <use style="fill:#98df8a;stroke:#ffffff;stroke-linejoin:miter;stroke-width:0.75;" x="173.319716" xlink:href="#m637e586771" y="96.342449"/>
     <use style="fill:#98df8a;stroke:#ffffff;stroke-linejoin:miter;stroke-width:0.75;" x="176.926989" xlink:href="#m637e586771" y="95.743142"/>
     <use style="fill:#98df8a;stroke:#ffffff;stroke-linejoin:miter;stroke-width:0.75;" x="180.534261" xlink:href="#m637e586771" y="95.743142"/>
     <use style="fill:#98df8a;stroke:#ffffff;stroke-linejoin:miter;stroke-width:0.75;" x="184.141534" xlink:href="#m637e586771" y="95.743142"/>
     <use style="fill:#98df8a;stroke:#ffffff;stroke-linejoin:miter;stroke-width:0.75;" x="187.748807" xlink:href="#m637e586771" y="95.942911"/>
     <use style="fill:#98df8a;stroke:#ffffff;stroke-linejoin:miter;stroke-width:0.75;" x="191.35608" xlink:href="#m637e586771" y="95.843027"/>
     <use style="fill:#98df8a;stroke:#ffffff;stroke-linejoin:miter;stroke-width:0.75;" x="194.963352" xlink:href="#m637e586771" y="88.751235"/>
     <use style="fill:#98df8a;stroke:#ffffff;stroke-linejoin:miter;stroke-width:0.75;" x="198.570625" xlink:href="#m637e586771" y="88.052044"/>
     <use style="fill:#98df8a;stroke:#ffffff;stroke-linejoin:miter;stroke-width:0.75;" x="202.177898" xlink:href="#m637e586771" y="88.751235"/>
     <use style="fill:#98df8a;stroke:#ffffff;stroke-linejoin:miter;stroke-width:0.75;" x="205.78517" xlink:href="#m637e586771" y="87.852275"/>
     <use style="fill:#98df8a;stroke:#ffffff;stroke-linejoin:miter;stroke-width:0.75;" x="209.392443" xlink:href="#m637e586771" y="86.853431"/>
     <use style="fill:#98df8a;stroke:#ffffff;stroke-linejoin:miter;stroke-width:0.75;" x="212.999716" xlink:href="#m637e586771" y="89.050888"/>
     <use style="fill:#98df8a;stroke:#ffffff;stroke-linejoin:miter;stroke-width:0.75;" x="216.606989" xlink:href="#m637e586771" y="86.154241"/>
     <use style="fill:#98df8a;stroke:#ffffff;stroke-linejoin:miter;stroke-width:0.75;" x="220.214261" xlink:href="#m637e586771" y="86.154241"/>
     <use style="fill:#98df8a;stroke:#ffffff;stroke-linejoin:miter;stroke-width:0.75;" x="223.821534" xlink:href="#m637e586771" y="86.953316"/>
     <use style="fill:#98df8a;stroke:#ffffff;stroke-linejoin:miter;stroke-width:0.75;" x="227.428807" xlink:href="#m637e586771" y="81.35979"/>
     <use style="fill:#98df8a;stroke:#ffffff;stroke-linejoin:miter;stroke-width:0.75;" x="231.03608" xlink:href="#m637e586771" y="81.35979"/>
     <use style="fill:#98df8a;stroke:#ffffff;stroke-linejoin:miter;stroke-width:0.75;" x="234.643352" xlink:href="#m637e586771" y="73.269154"/>
     <use style="fill:#98df8a;stroke:#ffffff;stroke-linejoin:miter;stroke-width:0.75;" x="238.250625" xlink:href="#m637e586771" y="72.470079"/>
     <use style="fill:#98df8a;stroke:#ffffff;stroke-linejoin:miter;stroke-width:0.75;" x="241.857898" xlink:href="#m637e586771" y="72.27031"/>
     <use style="fill:#98df8a;stroke:#ffffff;stroke-linejoin:miter;stroke-width:0.75;" x="245.46517" xlink:href="#m637e586771" y="71.671004"/>
     <use style="fill:#98df8a;stroke:#ffffff;stroke-linejoin:miter;stroke-width:0.75;" x="249.072443" xlink:href="#m637e586771" y="71.271466"/>
     <use style="fill:#98df8a;stroke:#ffffff;stroke-linejoin:miter;stroke-width:0.75;" x="252.679716" xlink:href="#m637e586771" y="70.172738"/>
     <use style="fill:#98df8a;stroke:#ffffff;stroke-linejoin:miter;stroke-width:0.75;" x="256.286989" xlink:href="#m637e586771" y="74.267998"/>
     <use style="fill:#98df8a;stroke:#ffffff;stroke-linejoin:miter;stroke-width:0.75;" x="259.894261" xlink:href="#m637e586771" y="71.770888"/>
     <use style="fill:#98df8a;stroke:#ffffff;stroke-linejoin:miter;stroke-width:0.75;" x="263.501534" xlink:href="#m637e586771" y="70.971813"/>
     <use style="fill:#98df8a;stroke:#ffffff;stroke-linejoin:miter;stroke-width:0.75;" x="267.108807" xlink:href="#m637e586771" y="69.972969"/>
     <use style="fill:#98df8a;stroke:#ffffff;stroke-linejoin:miter;stroke-width:0.75;" x="270.71608" xlink:href="#m637e586771" y="69.173894"/>
     <use style="fill:#98df8a;stroke:#ffffff;stroke-linejoin:miter;stroke-width:0.75;" x="274.323352" xlink:href="#m637e586771" y="65.977593"/>
     <use style="fill:#98df8a;stroke:#ffffff;stroke-linejoin:miter;stroke-width:0.75;" x="277.930625" xlink:href="#m637e586771" y="65.777824"/>
     <use style="fill:#98df8a;stroke:#ffffff;stroke-linejoin:miter;stroke-width:0.75;" x="281.537898" xlink:href="#m637e586771" y="69.573431"/>
     <use style="fill:#98df8a;stroke:#ffffff;stroke-linejoin:miter;stroke-width:0.75;" x="285.14517" xlink:href="#m637e586771" y="77.564183"/>
     <use style="fill:#98df8a;stroke:#ffffff;stroke-linejoin:miter;stroke-width:0.75;" x="288.752443" xlink:href="#m637e586771" y="77.564183"/>
     <use style="fill:#98df8a;stroke:#ffffff;stroke-linejoin:miter;stroke-width:0.75;" x="292.359716" xlink:href="#m637e586771" y="76.465454"/>
     <use style="fill:#98df8a;stroke:#ffffff;stroke-linejoin:miter;stroke-width:0.75;" x="295.966989" xlink:href="#m637e586771" y="65.478171"/>
     <use style="fill:#98df8a;stroke:#ffffff;stroke-linejoin:miter;stroke-width:0.75;" x="299.574261" xlink:href="#m637e586771" y="76.36557"/>
     <use style="fill:#98df8a;stroke:#ffffff;stroke-linejoin:miter;stroke-width:0.75;" x="303.181534" xlink:href="#m637e586771" y="61.382911"/>
     <use style="fill:#98df8a;stroke:#ffffff;stroke-linejoin:miter;stroke-width:0.75;" x="306.788807" xlink:href="#m637e586771" y="69.373663"/>
     <use style="fill:#98df8a;stroke:#ffffff;stroke-linejoin:miter;stroke-width:0.75;" x="310.39608" xlink:href="#m637e586771" y="64.179674"/>
     <use style="fill:#98df8a;stroke:#ffffff;stroke-linejoin:miter;stroke-width:0.75;" x="314.003352" xlink:href="#m637e586771" y="68.574587"/>
     <use style="fill:#98df8a;stroke:#ffffff;stroke-linejoin:miter;stroke-width:0.75;" x="317.610625" xlink:href="#m637e586771" y="68.574587"/>
     <use style="fill:#98df8a;stroke:#ffffff;stroke-linejoin:miter;stroke-width:0.75;" x="321.217898" xlink:href="#m637e586771" y="68.574587"/>
     <use style="fill:#98df8a;stroke:#ffffff;stroke-linejoin:miter;stroke-width:0.75;" x="324.82517" xlink:href="#m637e586771" y="63.780137"/>
     <use style="fill:#98df8a;stroke:#ffffff;stroke-linejoin:miter;stroke-width:0.75;" x="328.432443" xlink:href="#m637e586771" y="63.780137"/>
     <use style="fill:#98df8a;stroke:#ffffff;stroke-linejoin:miter;stroke-width:0.75;" x="332.039716" xlink:href="#m637e586771" y="58.985686"/>
     <use style="fill:#98df8a;stroke:#ffffff;stroke-linejoin:miter;stroke-width:0.75;" x="335.646989" xlink:href="#m637e586771" y="68.574587"/>
     <use style="fill:#98df8a;stroke:#ffffff;stroke-linejoin:miter;stroke-width:0.75;" x="339.254261" xlink:href="#m637e586771" y="63.680252"/>
     <use style="fill:#98df8a;stroke:#ffffff;stroke-linejoin:miter;stroke-width:0.75;" x="342.861534" xlink:href="#m637e586771" y="72.070541"/>
     <use style="fill:#98df8a;stroke:#ffffff;stroke-linejoin:miter;stroke-width:0.75;" x="346.468807" xlink:href="#m637e586771" y="61.682564"/>
     <use style="fill:#98df8a;stroke:#ffffff;stroke-linejoin:miter;stroke-width:0.75;" x="350.07608" xlink:href="#m637e586771" y="65.278402"/>
     <use style="fill:#98df8a;stroke:#ffffff;stroke-linejoin:miter;stroke-width:0.75;" x="353.683352" xlink:href="#m637e586771" y="43.004183"/>
     <use style="fill:#98df8a;stroke:#ffffff;stroke-linejoin:miter;stroke-width:0.75;" x="357.290625" xlink:href="#m637e586771" y="67.575743"/>
     <use style="fill:#98df8a;stroke:#ffffff;stroke-linejoin:miter;stroke-width:0.75;" x="360.897898" xlink:href="#m637e586771" y="54.790541"/>
     <use style="fill:#98df8a;stroke:#ffffff;stroke-linejoin:miter;stroke-width:0.75;" x="364.50517" xlink:href="#m637e586771" y="54.790541"/>
     <use style="fill:#98df8a;stroke:#ffffff;stroke-linejoin:miter;stroke-width:0.75;" x="368.112443" xlink:href="#m637e586771" y="63.280715"/>
     <use style="fill:#98df8a;stroke:#ffffff;stroke-linejoin:miter;stroke-width:0.75;" x="371.719716" xlink:href="#m637e586771" y="54.590772"/>
     <use style="fill:#98df8a;stroke:#ffffff;stroke-linejoin:miter;stroke-width:0.75;" x="375.326989" xlink:href="#m637e586771" y="66.177362"/>
     <use style="fill:#98df8a;stroke:#ffffff;stroke-linejoin:miter;stroke-width:0.75;" x="378.934261" xlink:href="#m637e586771" y="53.691813"/>
     <use style="fill:#98df8a;stroke:#ffffff;stroke-linejoin:miter;stroke-width:0.75;" x="382.541534" xlink:href="#m637e586771" y="66.177362"/>
     <use style="fill:#98df8a;stroke:#ffffff;stroke-linejoin:miter;stroke-width:0.75;" x="386.148807" xlink:href="#m637e586771" y="66.177362"/>
     <use style="fill:#98df8a;stroke:#ffffff;stroke-linejoin:miter;stroke-width:0.75;" x="389.75608" xlink:href="#m637e586771" y="66.177362"/>
     <use style="fill:#98df8a;stroke:#ffffff;stroke-linejoin:miter;stroke-width:0.75;" x="393.363352" xlink:href="#m637e586771" y="65.777824"/>
     <use style="fill:#98df8a;stroke:#ffffff;stroke-linejoin:miter;stroke-width:0.75;" x="396.970625" xlink:href="#m637e586771" y="65.378287"/>
     <use style="fill:#98df8a;stroke:#ffffff;stroke-linejoin:miter;stroke-width:0.75;" x="400.577898" xlink:href="#m637e586771" y="64.379443"/>
    </g>
   </g>
   <g id="line2d_16"/>
   <g id="line2d_17"/>
   <g id="patch_3">
    <path d="M 59.690625 266.745223 
L 59.690625 27.02268 
" style="fill:none;stroke:#000000;stroke-linecap:square;stroke-linejoin:miter;stroke-width:0.8;"/>
   </g>
   <g id="patch_4">
    <path d="M 75.923352 288.430125 
L 349.474867 288.430125 
" style="fill:none;stroke:#000000;stroke-linecap:square;stroke-linejoin:miter;stroke-width:0.8;"/>
   </g>
   <g id="text_16">
    <!-- openh264_decoder_fuzzer (22h:45m, 5 trials/fuzzer) -->
    <g transform="translate(80.798438 16.318125)scale(0.12 -0.12)">
     <defs>
      <path d="M 1159 525 
L 1159 -1331 
L 581 -1331 
L 581 3500 
L 1159 3500 
L 1159 2969 
Q 1341 3281 1617 3432 
Q 1894 3584 2278 3584 
Q 2916 3584 3314 3078 
Q 3713 2572 3713 1747 
Q 3713 922 3314 415 
Q 2916 -91 2278 -91 
Q 1894 -91 1617 61 
Q 1341 213 1159 525 
z
M 3116 1747 
Q 3116 2381 2855 2742 
Q 2594 3103 2138 3103 
Q 1681 3103 1420 2742 
Q 1159 2381 1159 1747 
Q 1159 1113 1420 752 
Q 1681 391 2138 391 
Q 2594 391 2855 752 
Q 3116 1113 3116 1747 
z
" id="DejaVuSans-70" transform="scale(0.015625)"/>
      <path d="M 3263 -1063 
L 3263 -1509 
L -63 -1509 
L -63 -1063 
L 3263 -1063 
z
" id="DejaVuSans-5f" transform="scale(0.015625)"/>
      <path d="M 2375 4863 
L 2375 4384 
L 1825 4384 
Q 1516 4384 1395 4259 
Q 1275 4134 1275 3809 
L 1275 3500 
L 2222 3500 
L 2222 3053 
L 1275 3053 
L 1275 0 
L 697 0 
L 697 3053 
L 147 3053 
L 147 3500 
L 697 3500 
L 697 3744 
Q 697 4328 969 4595 
Q 1241 4863 1831 4863 
L 2375 4863 
z
" id="DejaVuSans-66" transform="scale(0.015625)"/>
      <path d="M 353 3500 
L 3084 3500 
L 3084 2975 
L 922 459 
L 3084 459 
L 3084 0 
L 275 0 
L 275 525 
L 2438 3041 
L 353 3041 
L 353 3500 
z
" id="DejaVuSans-7a" transform="scale(0.015625)"/>
      <path d="M 750 794 
L 1409 794 
L 1409 256 
L 897 -744 
L 494 -744 
L 750 256 
L 750 794 
z
" id="DejaVuSans-2c" transform="scale(0.015625)"/>
      <path d="M 603 4863 
L 1178 4863 
L 1178 0 
L 603 0 
L 603 4863 
z
" id="DejaVuSans-6c" transform="scale(0.015625)"/>
      <path d="M 2834 3397 
L 2834 2853 
Q 2591 2978 2328 3040 
Q 2066 3103 1784 3103 
Q 1356 3103 1142 2972 
Q 928 2841 928 2578 
Q 928 2378 1081 2264 
Q 1234 2150 1697 2047 
L 1894 2003 
Q 2506 1872 2764 1633 
Q 3022 1394 3022 966 
Q 3022 478 2636 193 
Q 2250 -91 1575 -91 
Q 1294 -91 989 -36 
Q 684 19 347 128 
L 347 722 
Q 666 556 975 473 
Q 1284 391 1588 391 
Q 1994 391 2212 530 
Q 2431 669 2431 922 
Q 2431 1156 2273 1281 
Q 2116 1406 1581 1522 
L 1381 1569 
Q 847 1681 609 1914 
Q 372 2147 372 2553 
Q 372 3047 722 3315 
Q 1072 3584 1716 3584 
Q 2034 3584 2315 3537 
Q 2597 3491 2834 3397 
z
" id="DejaVuSans-73" transform="scale(0.015625)"/>
      <path d="M 1625 4666 
L 2156 4666 
L 531 -594 
L 0 -594 
L 1625 4666 
z
" id="DejaVuSans-2f" transform="scale(0.015625)"/>
     </defs>
     <use xlink:href="#DejaVuSans-6f"/>
     <use x="61.181641" xlink:href="#DejaVuSans-70"/>
     <use x="124.658203" xlink:href="#DejaVuSans-65"/>
     <use x="186.181641" xlink:href="#DejaVuSans-6e"/>
     <use x="249.560547" xlink:href="#DejaVuSans-68"/>
     <use x="312.939453" xlink:href="#DejaVuSans-32"/>
     <use x="376.5625" xlink:href="#DejaVuSans-36"/>
     <use x="440.185547" xlink:href="#DejaVuSans-34"/>
     <use x="503.808594" xlink:href="#DejaVuSans-5f"/>
     <use x="553.808594" xlink:href="#DejaVuSans-64"/>
     <use x="617.285156" xlink:href="#DejaVuSans-65"/>
     <use x="678.808594" xlink:href="#DejaVuSans-63"/>
     <use x="733.789062" xlink:href="#DejaVuSans-6f"/>
     <use x="794.970703" xlink:href="#DejaVuSans-64"/>
     <use x="858.447266" xlink:href="#DejaVuSans-65"/>
     <use x="919.970703" xlink:href="#DejaVuSans-72"/>
     <use x="961.083984" xlink:href="#DejaVuSans-5f"/>
     <use x="1011.083984" xlink:href="#DejaVuSans-66"/>
     <use x="1046.289062" xlink:href="#DejaVuSans-75"/>
     <use x="1109.667969" xlink:href="#DejaVuSans-7a"/>
     <use x="1162.158203" xlink:href="#DejaVuSans-7a"/>
     <use x="1214.648438" xlink:href="#DejaVuSans-65"/>
     <use x="1276.171875" xlink:href="#DejaVuSans-72"/>
     <use x="1317.285156" xlink:href="#DejaVuSans-20"/>
     <use x="1349.072266" xlink:href="#DejaVuSans-28"/>
     <use x="1388.085938" xlink:href="#DejaVuSans-32"/>
     <use x="1451.708984" xlink:href="#DejaVuSans-32"/>
     <use x="1515.332031" xlink:href="#DejaVuSans-68"/>
     <use x="1578.710938" xlink:href="#DejaVuSans-3a"/>
     <use x="1612.402344" xlink:href="#DejaVuSans-34"/>
     <use x="1676.025391" xlink:href="#DejaVuSans-35"/>
     <use x="1739.648438" xlink:href="#DejaVuSans-6d"/>
     <use x="1837.060547" xlink:href="#DejaVuSans-2c"/>
     <use x="1868.847656" xlink:href="#DejaVuSans-20"/>
     <use x="1900.634766" xlink:href="#DejaVuSans-35"/>
     <use x="1964.257812" xlink:href="#DejaVuSans-20"/>
     <use x="1996.044922" xlink:href="#DejaVuSans-74"/>
     <use x="2035.253906" xlink:href="#DejaVuSans-72"/>
     <use x="2076.367188" xlink:href="#DejaVuSans-69"/>
     <use x="2104.150391" xlink:href="#DejaVuSans-61"/>
     <use x="2165.429688" xlink:href="#DejaVuSans-6c"/>
     <use x="2193.212891" xlink:href="#DejaVuSans-73"/>
     <use x="2245.3125" xlink:href="#DejaVuSans-2f"/>
     <use x="2279.003906" xlink:href="#DejaVuSans-66"/>
     <use x="2314.208984" xlink:href="#DejaVuSans-75"/>
     <use x="2377.587891" xlink:href="#DejaVuSans-7a"/>
     <use x="2430.078125" xlink:href="#DejaVuSans-7a"/>
     <use x="2482.568359" xlink:href="#DejaVuSans-65"/>
     <use x="2544.091797" xlink:href="#DejaVuSans-72"/>
     <use x="2585.205078" xlink:href="#DejaVuSans-29"/>
    </g>
   </g>
   <g id="legend_1">
    <g id="line2d_18">
     <path d="M 420.810625 30.416562 
L 440.810625 30.416562 
" style="fill:none;stroke:#1f77b4;stroke-linecap:square;stroke-width:1.5;"/>
    </g>
    <g id="line2d_19">
     <defs>
      <path d="M 0 3 
C 0.795609 3 1.55874 2.683901 2.12132 2.12132 
C 2.683901 1.55874 3 0.795609 3 0 
C 3 -0.795609 2.683901 -1.55874 2.12132 -2.12132 
C 1.55874 -2.683901 0.795609 -3 0 -3 
C -0.795609 -3 -1.55874 -2.683901 -2.12132 -2.12132 
C -2.683901 -1.55874 -3 -0.795609 -3 0 
C -3 0.795609 -2.683901 1.55874 -2.12132 2.12132 
C -1.55874 2.683901 -0.795609 3 0 3 
z
" id="mb0a3568ba7" style="stroke:#1f77b4;"/>
     </defs>
     <g>
      <use style="fill:#1f77b4;stroke:#1f77b4;" x="430.810625" xlink:href="#mb0a3568ba7" y="30.416562"/>
     </g>
    </g>
    <g id="text_17">
     <!-- afl -->
     <g transform="translate(448.810625 33.916562)scale(0.1 -0.1)">
      <use xlink:href="#DejaVuSans-61"/>
      <use x="61.279297" xlink:href="#DejaVuSans-66"/>
      <use x="96.484375" xlink:href="#DejaVuSans-6c"/>
     </g>
    </g>
    <g id="line2d_20">
     <path d="M 420.810625 45.094688 
L 440.810625 45.094688 
" style="fill:none;stroke:#98df8a;stroke-linecap:square;stroke-width:1.5;"/>
    </g>
    <g id="line2d_21">
     <defs>
      <path d="M -0 3 
L 3 -3 
L -3 -3 
z
" id="mc0b71a0ef0" style="stroke:#98df8a;stroke-linejoin:miter;"/>
     </defs>
     <g>
      <use style="fill:#98df8a;stroke:#98df8a;stroke-linejoin:miter;" x="430.810625" xlink:href="#mc0b71a0ef0" y="45.094688"/>
     </g>
    </g>
    <g id="text_18">
     <!-- afl_splicing_mutation -->
     <g transform="translate(448.810625 48.594688)scale(0.1 -0.1)">
      <use xlink:href="#DejaVuSans-61"/>
      <use x="61.279297" xlink:href="#DejaVuSans-66"/>
      <use x="96.484375" xlink:href="#DejaVuSans-6c"/>
      <use x="124.267578" xlink:href="#DejaVuSans-5f"/>
      <use x="174.267578" xlink:href="#DejaVuSans-73"/>
      <use x="226.367188" xlink:href="#DejaVuSans-70"/>
      <use x="289.84375" xlink:href="#DejaVuSans-6c"/>
      <use x="317.626953" xlink:href="#DejaVuSans-69"/>
      <use x="345.410156" xlink:href="#DejaVuSans-63"/>
      <use x="400.390625" xlink:href="#DejaVuSans-69"/>
      <use x="428.173828" xlink:href="#DejaVuSans-6e"/>
      <use x="491.552734" xlink:href="#DejaVuSans-67"/>
      <use x="555.029297" xlink:href="#DejaVuSans-5f"/>
      <use x="605.029297" xlink:href="#DejaVuSans-6d"/>
      <use x="702.441406" xlink:href="#DejaVuSans-75"/>
      <use x="765.820312" xlink:href="#DejaVuSans-74"/>
      <use x="805.029297" xlink:href="#DejaVuSans-61"/>
      <use x="866.308594" xlink:href="#DejaVuSans-74"/>
      <use x="905.517578" xlink:href="#DejaVuSans-69"/>
      <use x="933.300781" xlink:href="#DejaVuSans-6f"/>
      <use x="994.482422" xlink:href="#DejaVuSans-6e"/>
     </g>
    </g>
   </g>
  </g>
 </g>
 <defs>
  <clipPath id="p77c4d05699">
   <rect height="266.112" width="357.12" x="59.690625" y="22.318125"/>
  </clipPath>
 </defs>
</svg>
