<?xml version="1.0" encoding="utf-8" standalone="no"?>
<!DOCTYPE svg PUBLIC "-//W3C//DTD SVG 1.1//EN"
  "http://www.w3.org/Graphics/SVG/1.1/DTD/svg11.dtd">
<svg height="325.986375pt" version="1.1" viewBox="0 0 565.795 325.986375" width="565.795pt" xmlns="http://www.w3.org/2000/svg" xmlns:xlink="http://www.w3.org/1999/xlink">
 <metadata>
  <rdf:RDF xmlns:cc="http://creativecommons.org/ns#" xmlns:dc="http://purl.org/dc/elements/1.1/" xmlns:rdf="http://www.w3.org/1999/02/22-rdf-syntax-ns#">
   <cc:Work>
    <dc:type rdf:resource="http://purl.org/dc/dcmitype/StillImage"/>
    <dc:date>2022-05-31T16:29:34.565410</dc:date>
    <dc:format>image/svg+xml</dc:format>
    <dc:creator>
     <cc:Agent>
      <dc:title>Matplotlib v3.4.3, https://matplotlib.org/</dc:title>
     </cc:Agent>
    </dc:creator>
   </cc:Work>
  </rdf:RDF>
 </metadata>
 <defs>
  <style type="text/css">*{stroke-linecap:butt;stroke-linejoin:round;}</style>
 </defs>
 <g id="figure_1">
  <g id="patch_1">
   <path d="M 0 325.986375 
L 565.795 325.986375 
L 565.795 0 
L 0 0 
z
" style="fill:#ffffff;"/>
  </g>
  <g id="axes_1">
   <g id="patch_2">
    <path d="M 59.690625 288.430125 
L 416.810625 288.430125 
L 416.810625 22.318125 
L 59.690625 22.318125 
z
" style="fill:#ffffff;"/>
   </g>
   <g id="PolyCollection_1">
    <defs>
     <path d="M 75.923352 -101.791903 
L 75.923352 -58.951487 
L 125.810382 -83.213406 
L 154.992424 -110.142238 
L 175.697412 -131.757221 
L 191.757448 -140.746816 
L 204.879454 -116.974331 
L 215.973951 -165.775348 
L 225.584442 -176.705198 
L 234.061495 -167.915371 
L 241.644478 -186.493868 
L 248.504121 -186.893406 
L 254.766484 -195.483464 
L 260.527299 -199.47884 
L 265.860981 -205.539325 
L 270.82652 -208.867973 
L 275.471472 -209.067741 
L 279.834733 -210.466123 
L 283.948525 -212.663579 
L 287.839839 -211.265198 
L 291.531508 -214.361614 
L 295.043023 -216.858724 
L 298.391151 -212.264042 
L 301.590423 -217.058493 
L 304.653513 -216.958608 
L 307.591545 -220.347186 
L 310.414329 -215.260574 
L 313.130567 -217.45803 
L 315.748011 -217.45803 
L 318.273595 -217.657799 
L 320.71355 -222.252481 
L 323.073491 -223.850632 
L 325.358502 -223.850632 
L 327.573192 -223.850632 
L 329.721763 -228.645082 
L 331.808047 -224.449938 
L 333.835555 -231.004851 
L 335.807508 -227.046932 
L 337.726869 -227.543857 
L 339.596371 -227.44647 
L 341.418538 -236.236296 
L 343.195709 -233.114909 
L 344.930052 -232.171001 
L 346.623584 -234.837915 
L 348.27818 -233.239764 
L 349.895592 -237.23514 
L 351.477452 -237.434909 
L 353.025292 -238.034215 
L 354.540543 -238.633522 
L 356.02455 -238.633522 
L 357.478574 -259.809013 
L 358.903805 -234.238608 
L 360.301359 -263.205082 
L 361.672291 -249.321152 
L 363.017597 -253.616181 
L 364.338217 -254.015718 
L 365.635041 -264.004158 
L 366.908911 -254.415256 
L 368.160625 -261.007626 
L 369.390942 -262.206238 
L 370.60058 -268.199302 
L 371.790223 -263.404851 
L 372.960521 -264.803233 
L 374.112094 -268.798608 
L 375.245531 -267.257892 
L 376.361395 -266.001845 
L 377.460222 -267.500111 
L 378.542525 -268.923464 
L 379.608793 -268.998377 
L 380.659494 -266.201614 
L 381.695077 -268.998377 
L 382.71597 -267.999533 
L 383.722585 -267.000689 
L 384.715315 -267.799764 
L 385.694538 -269.397915 
L 386.660616 -269.397915 
L 387.613899 -269.397915 
L 388.554719 -269.397915 
L 389.4834 -267.799764 
L 390.400251 -269.397915 
L 391.305568 -269.372944 
L 392.199639 -271.49299 
L 393.082739 -271.994909 
L 393.955135 -271.395603 
L 394.817082 -272.194678 
L 395.668829 -271.595371 
L 396.510614 -272.194678 
L 397.342667 -272.194678 
L 398.16521 -271.595371 
L 398.978459 -271.994909 
L 399.782621 -272.594215 
L 400.577898 -272.194678 
L 400.577898 -286.478146 
L 400.577898 -286.478146 
L 399.782621 -286.57803 
L 398.978459 -285.978724 
L 398.16521 -285.978724 
L 397.342667 -286.57803 
L 396.510614 -285.978724 
L 395.668829 -285.978724 
L 394.817082 -286.478146 
L 393.955135 -285.978724 
L 393.082739 -285.978724 
L 392.199639 -285.978724 
L 391.305568 -286.977568 
L 390.400251 -285.579186 
L 389.4834 -285.978724 
L 388.554719 -285.479302 
L 387.613899 -284.97988 
L 386.660616 -284.97988 
L 385.694538 -284.97988 
L 384.715315 -284.97988 
L 383.722585 -284.580342 
L 382.71597 -284.580342 
L 381.695077 -284.580342 
L 380.659494 -284.280689 
L 379.608793 -283.981036 
L 378.542525 -283.38173 
L 377.460222 -283.38173 
L 376.361395 -282.083233 
L 375.245531 -282.982192 
L 374.112094 -282.982192 
L 372.960521 -281.783579 
L 371.790223 -281.384042 
L 370.60058 -281.783579 
L 369.390942 -280.584967 
L 368.160625 -280.584967 
L 366.908911 -275.790516 
L 365.635041 -274.192366 
L 364.338217 -272.194678 
L 363.017597 -271.79514 
L 361.672291 -270.996065 
L 360.301359 -270.596527 
L 358.903805 -268.199302 
L 357.478574 -275.390978 
L 356.02455 -268.59884 
L 354.540543 -268.59884 
L 353.025292 -268.399071 
L 351.477452 -266.001845 
L 349.895592 -267.999533 
L 348.27818 -266.001845 
L 346.623584 -265.802077 
L 344.930052 -264.104042 
L 343.195709 -265.402539 
L 341.418538 -265.802077 
L 339.596371 -258.140944 
L 337.726869 -260.211048 
L 335.807508 -254.615025 
L 333.835555 -253.016874 
L 331.808047 -257.411788 
L 329.721763 -251.818262 
L 327.573192 -250.220111 
L 325.358502 -245.825198 
L 323.073491 -245.825198 
L 320.71355 -242.628897 
L 318.273595 -240.63121 
L 315.748011 -231.441845 
L 313.130567 -232.940111 
L 310.414329 -231.242077 
L 307.591545 -232.840227 
L 304.653513 -230.043464 
L 301.590423 -230.043464 
L 298.391151 -225.556158 
L 295.043023 -226.048088 
L 291.531508 -224.070377 
L 287.839839 -224.0504 
L 283.948525 -223.550978 
L 279.834733 -222.851788 
L 275.471472 -222.252481 
L 270.82652 -220.055025 
L 265.860981 -220.654331 
L 260.527299 -217.45803 
L 254.766484 -216.863718 
L 248.504121 -216.159533 
L 241.644478 -215.660111 
L 234.061495 -213.862192 
L 225.584442 -207.070053 
L 215.973951 -199.08929 
L 204.879454 -190.888782 
L 191.757448 -185.295256 
L 175.697412 -171.468759 
L 154.992424 -153.551996 
L 125.810382 -140.347279 
L 75.923352 -101.791903 
z
" id="m7d25328038" style="stroke:#1f77b4;stroke-opacity:0.2;"/>
    </defs>
    <g clip-path="url(#pf5da42896f)">
     <use style="fill:#1f77b4;fill-opacity:0.2;stroke:#1f77b4;stroke-opacity:0.2;" x="0" xlink:href="#m7d25328038" y="325.986375"/>
    </g>
   </g>
   <g id="PolyCollection_2">
    <defs>
     <path d="M 75.923352 -108.384273 
L 75.923352 -49.65225 
L 125.810382 -84.412019 
L 154.992424 -106.186816 
L 175.697412 -127.162539 
L 191.757448 -139.947741 
L 204.879454 -155.529707 
L 215.973951 -166.616874 
L 225.584442 -167.116296 
L 234.061495 -175.107048 
L 241.644478 -188.092019 
L 248.504121 -193.685545 
L 254.766484 -195.083926 
L 260.527299 -197.281383 
L 265.860981 -204.073522 
L 270.82652 -204.073522 
L 275.471472 -205.671672 
L 279.834733 -212.064273 
L 283.948525 -212.064273 
L 287.839839 -213.662423 
L 291.531508 -214.26173 
L 295.043023 -215.85988 
L 298.391151 -215.85988 
L 301.590423 -219.038701 
L 304.653513 -215.85988 
L 307.591545 -216.059649 
L 310.414329 -216.459186 
L 313.130567 -219.455718 
L 315.748011 -219.455718 
L 318.273595 -221.253637 
L 320.71355 -220.554447 
L 323.073491 -220.651834 
L 325.358502 -222.851788 
L 327.573192 -226.545013 
L 329.721763 -227.846007 
L 331.808047 -229.444158 
L 333.835555 -229.444158 
L 335.807508 -230.043464 
L 337.726869 -230.443001 
L 339.596371 -230.043464 
L 341.418538 -230.842539 
L 343.195709 -232.240921 
L 344.930052 -227.846007 
L 346.623584 -228.045776 
L 348.27818 -231.242077 
L 349.895592 -232.940111 
L 351.477452 -231.441845 
L 353.025292 -234.638146 
L 354.540543 -235.237452 
L 356.02455 -236.835603 
L 357.478574 -237.834447 
L 358.903805 -228.345429 
L 360.301359 -238.233984 
L 361.672291 -231.341961 
L 363.017597 -232.440689 
L 364.338217 -223.051556 
L 365.635041 -233.039996 
L 366.908911 -233.039996 
L 368.160625 -213.462655 
L 369.390942 -213.462655 
L 370.60058 -223.850632 
L 371.790223 -213.862192 
L 372.960521 -224.449938 
L 374.112094 -214.061961 
L 375.245531 -234.837915 
L 376.361395 -214.661267 
L 377.460222 -225.149129 
L 378.542525 -235.63699 
L 379.608793 -235.63699 
L 380.659494 -236.436065 
L 381.695077 -237.434909 
L 382.71597 -239.232828 
L 383.722585 -239.232828 
L 384.715315 -239.232828 
L 385.694538 -239.73225 
L 386.660616 -239.432597 
L 387.613899 -239.932019 
L 388.554719 -239.432597 
L 389.4834 -239.432597 
L 390.400251 -239.432597 
L 391.305568 -240.131788 
L 392.199639 -240.830978 
L 393.082739 -241.030747 
L 393.955135 -243.228204 
L 394.817082 -241.630053 
L 395.668829 -243.427973 
L 396.510614 -241.630053 
L 397.342667 -241.630053 
L 398.16521 -247.423348 
L 398.978459 -247.822886 
L 399.782621 -248.022655 
L 400.577898 -248.82173 
L 400.577898 -291.57225 
L 400.577898 -291.57225 
L 399.782621 -291.372481 
L 398.978459 -290.972944 
L 398.16521 -290.972944 
L 397.342667 -290.972944 
L 396.510614 -290.573406 
L 395.668829 -289.474678 
L 394.817082 -290.373637 
L 393.955135 -288.575718 
L 393.082739 -287.976412 
L 392.199639 -288.176181 
L 391.305568 -288.176181 
L 390.400251 -287.776643 
L 389.4834 -288.575718 
L 388.554719 -287.776643 
L 387.613899 -287.784134 
L 386.660616 -287.776643 
L 385.694538 -287.576874 
L 384.715315 -287.177337 
L 383.722585 -288.375949 
L 382.71597 -287.47699 
L 381.695077 -287.377105 
L 380.659494 -286.777799 
L 379.608793 -286.777799 
L 378.542525 -286.777799 
L 377.460222 -287.377105 
L 376.361395 -283.38173 
L 375.245531 -287.776643 
L 374.112094 -283.181961 
L 372.960521 -284.580342 
L 371.790223 -284.480458 
L 370.60058 -273.593059 
L 369.390942 -282.782423 
L 368.160625 -271.994909 
L 366.908911 -276.389822 
L 365.635041 -272.594215 
L 364.338217 -271.395603 
L 363.017597 -270.396759 
L 361.672291 -270.396759 
L 360.301359 -269.797452 
L 358.903805 -268.099418 
L 357.478574 -270.596527 
L 356.02455 -269.797452 
L 354.540543 -269.397915 
L 353.025292 -268.798608 
L 351.477452 -267.799764 
L 349.895592 -263.205082 
L 348.27818 -265.402539 
L 346.623584 -265.402539 
L 344.930052 -255.014562 
L 343.195709 -264.203926 
L 341.418538 -254.215487 
L 339.596371 -254.215487 
L 337.726869 -260.208551 
L 335.807508 -259.809013 
L 333.835555 -256.412944 
L 331.808047 -251.918146 
L 329.721763 -247.023811 
L 327.573192 -239.350192 
L 325.358502 -240.031903 
L 323.073491 -240.231672 
L 320.71355 -239.632366 
L 318.273595 -239.73225 
L 315.748011 -238.233984 
L 313.130567 -235.836759 
L 310.414329 -235.836759 
L 307.591545 -235.836759 
L 304.653513 -243.427973 
L 301.590423 -231.441845 
L 298.391151 -230.842539 
L 295.043023 -230.64277 
L 291.531508 -226.447626 
L 287.839839 -226.048088 
L 283.948525 -224.449938 
L 279.834733 -219.855256 
L 275.471472 -218.456874 
L 270.82652 -218.057337 
L 265.860981 -217.857568 
L 260.527299 -216.259418 
L 254.766484 -213.063117 
L 248.504121 -209.667048 
L 241.644478 -205.571788 
L 234.061495 -204.073522 
L 225.584442 -191.488088 
L 215.973951 -190.289475 
L 204.879454 -190.089707 
L 191.757448 -180.900342 
L 175.697412 -172.110516 
L 154.992424 -161.323001 
L 125.810382 -137.550516 
L 75.923352 -108.384273 
z
" id="m484909756c" style="stroke:#98df8a;stroke-opacity:0.2;"/>
    </defs>
    <g clip-path="url(#pf5da42896f)">
     <use style="fill:#98df8a;fill-opacity:0.2;stroke:#98df8a;stroke-opacity:0.2;" x="0" xlink:href="#m484909756c" y="325.986375"/>
    </g>
   </g>
   <g id="matplotlib.axis_1">
    <g id="xtick_1">
     <g id="line2d_1">
      <defs>
       <path d="M 0 0 
L 0 3.5 
" id="m421679bbc2" style="stroke:#000000;stroke-width:0.8;"/>
      </defs>
      <g>
       <use style="stroke:#000000;stroke-width:0.8;" x="75.923352" xlink:href="#m421679bbc2" y="288.430125"/>
      </g>
     </g>
     <g id="text_1">
      <!-- 14m -->
      <g transform="translate(64.69054 303.028562)scale(0.1 -0.1)">
       <defs>
        <path d="M 794 531 
L 1825 531 
L 1825 4091 
L 703 3866 
L 703 4441 
L 1819 4666 
L 2450 4666 
L 2450 531 
L 3481 531 
L 3481 0 
L 794 0 
L 794 531 
z
" id="DejaVuSans-31" transform="scale(0.015625)"/>
        <path d="M 2419 4116 
L 825 1625 
L 2419 1625 
L 2419 4116 
z
M 2253 4666 
L 3047 4666 
L 3047 1625 
L 3713 1625 
L 3713 1100 
L 3047 1100 
L 3047 0 
L 2419 0 
L 2419 1100 
L 313 1100 
L 313 1709 
L 2253 4666 
z
" id="DejaVuSans-34" transform="scale(0.015625)"/>
        <path d="M 3328 2828 
Q 3544 3216 3844 3400 
Q 4144 3584 4550 3584 
Q 5097 3584 5394 3201 
Q 5691 2819 5691 2113 
L 5691 0 
L 5113 0 
L 5113 2094 
Q 5113 2597 4934 2840 
Q 4756 3084 4391 3084 
Q 3944 3084 3684 2787 
Q 3425 2491 3425 1978 
L 3425 0 
L 2847 0 
L 2847 2094 
Q 2847 2600 2669 2842 
Q 2491 3084 2119 3084 
Q 1678 3084 1418 2786 
Q 1159 2488 1159 1978 
L 1159 0 
L 581 0 
L 581 3500 
L 1159 3500 
L 1159 2956 
Q 1356 3278 1631 3431 
Q 1906 3584 2284 3584 
Q 2666 3584 2933 3390 
Q 3200 3197 3328 2828 
z
" id="DejaVuSans-6d" transform="scale(0.015625)"/>
       </defs>
       <use xlink:href="#DejaVuSans-31"/>
       <use x="63.623047" xlink:href="#DejaVuSans-34"/>
       <use x="127.246094" xlink:href="#DejaVuSans-6d"/>
      </g>
     </g>
    </g>
    <g id="xtick_2">
     <g id="line2d_2">
      <g>
       <use style="stroke:#000000;stroke-width:0.8;" x="140.854437" xlink:href="#m421679bbc2" y="288.430125"/>
      </g>
     </g>
     <g id="text_2">
      <!-- 36m -->
      <g transform="translate(129.621625 303.028562)scale(0.1 -0.1)">
       <defs>
        <path d="M 2597 2516 
Q 3050 2419 3304 2112 
Q 3559 1806 3559 1356 
Q 3559 666 3084 287 
Q 2609 -91 1734 -91 
Q 1441 -91 1130 -33 
Q 819 25 488 141 
L 488 750 
Q 750 597 1062 519 
Q 1375 441 1716 441 
Q 2309 441 2620 675 
Q 2931 909 2931 1356 
Q 2931 1769 2642 2001 
Q 2353 2234 1838 2234 
L 1294 2234 
L 1294 2753 
L 1863 2753 
Q 2328 2753 2575 2939 
Q 2822 3125 2822 3475 
Q 2822 3834 2567 4026 
Q 2313 4219 1838 4219 
Q 1578 4219 1281 4162 
Q 984 4106 628 3988 
L 628 4550 
Q 988 4650 1302 4700 
Q 1616 4750 1894 4750 
Q 2613 4750 3031 4423 
Q 3450 4097 3450 3541 
Q 3450 3153 3228 2886 
Q 3006 2619 2597 2516 
z
" id="DejaVuSans-33" transform="scale(0.015625)"/>
        <path d="M 2113 2584 
Q 1688 2584 1439 2293 
Q 1191 2003 1191 1497 
Q 1191 994 1439 701 
Q 1688 409 2113 409 
Q 2538 409 2786 701 
Q 3034 994 3034 1497 
Q 3034 2003 2786 2293 
Q 2538 2584 2113 2584 
z
M 3366 4563 
L 3366 3988 
Q 3128 4100 2886 4159 
Q 2644 4219 2406 4219 
Q 1781 4219 1451 3797 
Q 1122 3375 1075 2522 
Q 1259 2794 1537 2939 
Q 1816 3084 2150 3084 
Q 2853 3084 3261 2657 
Q 3669 2231 3669 1497 
Q 3669 778 3244 343 
Q 2819 -91 2113 -91 
Q 1303 -91 875 529 
Q 447 1150 447 2328 
Q 447 3434 972 4092 
Q 1497 4750 2381 4750 
Q 2619 4750 2861 4703 
Q 3103 4656 3366 4563 
z
" id="DejaVuSans-36" transform="scale(0.015625)"/>
       </defs>
       <use xlink:href="#DejaVuSans-33"/>
       <use x="63.623047" xlink:href="#DejaVuSans-36"/>
       <use x="127.246094" xlink:href="#DejaVuSans-6d"/>
      </g>
     </g>
    </g>
    <g id="xtick_3">
     <g id="line2d_3">
      <g>
       <use style="stroke:#000000;stroke-width:0.8;" x="205.785522" xlink:href="#m421679bbc2" y="288.430125"/>
      </g>
     </g>
     <g id="text_3">
      <!-- 1h:31m -->
      <g transform="translate(186.518334 303.028562)scale(0.1 -0.1)">
       <defs>
        <path d="M 3513 2113 
L 3513 0 
L 2938 0 
L 2938 2094 
Q 2938 2591 2744 2837 
Q 2550 3084 2163 3084 
Q 1697 3084 1428 2787 
Q 1159 2491 1159 1978 
L 1159 0 
L 581 0 
L 581 4863 
L 1159 4863 
L 1159 2956 
Q 1366 3272 1645 3428 
Q 1925 3584 2291 3584 
Q 2894 3584 3203 3211 
Q 3513 2838 3513 2113 
z
" id="DejaVuSans-68" transform="scale(0.015625)"/>
        <path d="M 750 794 
L 1409 794 
L 1409 0 
L 750 0 
L 750 794 
z
M 750 3309 
L 1409 3309 
L 1409 2516 
L 750 2516 
L 750 3309 
z
" id="DejaVuSans-3a" transform="scale(0.015625)"/>
       </defs>
       <use xlink:href="#DejaVuSans-31"/>
       <use x="63.623047" xlink:href="#DejaVuSans-68"/>
       <use x="127.001953" xlink:href="#DejaVuSans-3a"/>
       <use x="160.693359" xlink:href="#DejaVuSans-33"/>
       <use x="224.316406" xlink:href="#DejaVuSans-31"/>
       <use x="287.939453" xlink:href="#DejaVuSans-6d"/>
      </g>
     </g>
    </g>
    <g id="xtick_4">
     <g id="line2d_4">
      <g>
       <use style="stroke:#000000;stroke-width:0.8;" x="270.716607" xlink:href="#m421679bbc2" y="288.430125"/>
      </g>
     </g>
     <g id="text_4">
      <!-- 3h:44m -->
      <g transform="translate(251.449419 303.028562)scale(0.1 -0.1)">
       <use xlink:href="#DejaVuSans-33"/>
       <use x="63.623047" xlink:href="#DejaVuSans-68"/>
       <use x="127.001953" xlink:href="#DejaVuSans-3a"/>
       <use x="160.693359" xlink:href="#DejaVuSans-34"/>
       <use x="224.316406" xlink:href="#DejaVuSans-34"/>
       <use x="287.939453" xlink:href="#DejaVuSans-6d"/>
      </g>
     </g>
    </g>
    <g id="xtick_5">
     <g id="line2d_5">
      <g>
       <use style="stroke:#000000;stroke-width:0.8;" x="335.647692" xlink:href="#m421679bbc2" y="288.430125"/>
      </g>
     </g>
     <g id="text_5">
      <!-- 9h:13m -->
      <g transform="translate(316.380504 303.028562)scale(0.1 -0.1)">
       <defs>
        <path d="M 703 97 
L 703 672 
Q 941 559 1184 500 
Q 1428 441 1663 441 
Q 2288 441 2617 861 
Q 2947 1281 2994 2138 
Q 2813 1869 2534 1725 
Q 2256 1581 1919 1581 
Q 1219 1581 811 2004 
Q 403 2428 403 3163 
Q 403 3881 828 4315 
Q 1253 4750 1959 4750 
Q 2769 4750 3195 4129 
Q 3622 3509 3622 2328 
Q 3622 1225 3098 567 
Q 2575 -91 1691 -91 
Q 1453 -91 1209 -44 
Q 966 3 703 97 
z
M 1959 2075 
Q 2384 2075 2632 2365 
Q 2881 2656 2881 3163 
Q 2881 3666 2632 3958 
Q 2384 4250 1959 4250 
Q 1534 4250 1286 3958 
Q 1038 3666 1038 3163 
Q 1038 2656 1286 2365 
Q 1534 2075 1959 2075 
z
" id="DejaVuSans-39" transform="scale(0.015625)"/>
       </defs>
       <use xlink:href="#DejaVuSans-39"/>
       <use x="63.623047" xlink:href="#DejaVuSans-68"/>
       <use x="127.001953" xlink:href="#DejaVuSans-3a"/>
       <use x="160.693359" xlink:href="#DejaVuSans-31"/>
       <use x="224.316406" xlink:href="#DejaVuSans-33"/>
       <use x="287.939453" xlink:href="#DejaVuSans-6d"/>
      </g>
     </g>
    </g>
    <g id="xtick_6">
     <g id="line2d_6">
      <g>
       <use style="stroke:#000000;stroke-width:0.8;" x="400.578776" xlink:href="#m421679bbc2" y="288.430125"/>
      </g>
     </g>
     <g id="text_6">
      <!-- 22h:45m -->
      <g transform="translate(378.130339 303.028562)scale(0.1 -0.1)">
       <defs>
        <path d="M 1228 531 
L 3431 531 
L 3431 0 
L 469 0 
L 469 531 
Q 828 903 1448 1529 
Q 2069 2156 2228 2338 
Q 2531 2678 2651 2914 
Q 2772 3150 2772 3378 
Q 2772 3750 2511 3984 
Q 2250 4219 1831 4219 
Q 1534 4219 1204 4116 
Q 875 4013 500 3803 
L 500 4441 
Q 881 4594 1212 4672 
Q 1544 4750 1819 4750 
Q 2544 4750 2975 4387 
Q 3406 4025 3406 3419 
Q 3406 3131 3298 2873 
Q 3191 2616 2906 2266 
Q 2828 2175 2409 1742 
Q 1991 1309 1228 531 
z
" id="DejaVuSans-32" transform="scale(0.015625)"/>
        <path d="M 691 4666 
L 3169 4666 
L 3169 4134 
L 1269 4134 
L 1269 2991 
Q 1406 3038 1543 3061 
Q 1681 3084 1819 3084 
Q 2600 3084 3056 2656 
Q 3513 2228 3513 1497 
Q 3513 744 3044 326 
Q 2575 -91 1722 -91 
Q 1428 -91 1123 -41 
Q 819 9 494 109 
L 494 744 
Q 775 591 1075 516 
Q 1375 441 1709 441 
Q 2250 441 2565 725 
Q 2881 1009 2881 1497 
Q 2881 1984 2565 2268 
Q 2250 2553 1709 2553 
Q 1456 2553 1204 2497 
Q 953 2441 691 2322 
L 691 4666 
z
" id="DejaVuSans-35" transform="scale(0.015625)"/>
       </defs>
       <use xlink:href="#DejaVuSans-32"/>
       <use x="63.623047" xlink:href="#DejaVuSans-32"/>
       <use x="127.246094" xlink:href="#DejaVuSans-68"/>
       <use x="190.625" xlink:href="#DejaVuSans-3a"/>
       <use x="224.316406" xlink:href="#DejaVuSans-34"/>
       <use x="287.939453" xlink:href="#DejaVuSans-35"/>
       <use x="351.5625" xlink:href="#DejaVuSans-6d"/>
      </g>
     </g>
    </g>
    <g id="xtick_7">
     <g id="line2d_7">
      <defs>
       <path d="M 0 0 
L 0 2 
" id="me65b3326f0" style="stroke:#000000;stroke-width:0.6;"/>
      </defs>
      <g>
       <use style="stroke:#000000;stroke-width:0.6;" x="67.446299" xlink:href="#me65b3326f0" y="288.430125"/>
      </g>
     </g>
    </g>
    <g id="xtick_8">
     <g id="line2d_8">
      <g>
       <use style="stroke:#000000;stroke-width:0.6;" x="133.393365" xlink:href="#me65b3326f0" y="288.430125"/>
      </g>
     </g>
    </g>
    <g id="xtick_9">
     <g id="line2d_9">
      <g>
       <use style="stroke:#000000;stroke-width:0.6;" x="162.575407" xlink:href="#me65b3326f0" y="288.430125"/>
      </g>
     </g>
    </g>
    <g id="xtick_10">
     <g id="line2d_10">
      <g>
       <use style="stroke:#000000;stroke-width:0.6;" x="183.280395" xlink:href="#me65b3326f0" y="288.430125"/>
      </g>
     </g>
    </g>
    <g id="xtick_11">
     <g id="line2d_11">
      <g>
       <use style="stroke:#000000;stroke-width:0.6;" x="199.340431" xlink:href="#me65b3326f0" y="288.430125"/>
      </g>
     </g>
    </g>
    <g id="xtick_12">
     <g id="line2d_12">
      <g>
       <use style="stroke:#000000;stroke-width:0.6;" x="212.462437" xlink:href="#me65b3326f0" y="288.430125"/>
      </g>
     </g>
    </g>
    <g id="xtick_13">
     <g id="line2d_13">
      <g>
       <use style="stroke:#000000;stroke-width:0.6;" x="223.556934" xlink:href="#me65b3326f0" y="288.430125"/>
      </g>
     </g>
    </g>
    <g id="xtick_14">
     <g id="line2d_14">
      <g>
       <use style="stroke:#000000;stroke-width:0.6;" x="233.167425" xlink:href="#me65b3326f0" y="288.430125"/>
      </g>
     </g>
    </g>
    <g id="xtick_15">
     <g id="line2d_15">
      <g>
       <use style="stroke:#000000;stroke-width:0.6;" x="241.644478" xlink:href="#me65b3326f0" y="288.430125"/>
      </g>
     </g>
    </g>
    <g id="xtick_16">
     <g id="line2d_16">
      <g>
       <use style="stroke:#000000;stroke-width:0.6;" x="299.114491" xlink:href="#me65b3326f0" y="288.430125"/>
      </g>
     </g>
    </g>
    <g id="xtick_17">
     <g id="line2d_17">
      <g>
       <use style="stroke:#000000;stroke-width:0.6;" x="328.296533" xlink:href="#me65b3326f0" y="288.430125"/>
      </g>
     </g>
    </g>
    <g id="xtick_18">
     <g id="line2d_18">
      <g>
       <use style="stroke:#000000;stroke-width:0.6;" x="349.001521" xlink:href="#me65b3326f0" y="288.430125"/>
      </g>
     </g>
    </g>
    <g id="xtick_19">
     <g id="line2d_19">
      <g>
       <use style="stroke:#000000;stroke-width:0.6;" x="365.061557" xlink:href="#me65b3326f0" y="288.430125"/>
      </g>
     </g>
    </g>
    <g id="xtick_20">
     <g id="line2d_20">
      <g>
       <use style="stroke:#000000;stroke-width:0.6;" x="378.183563" xlink:href="#me65b3326f0" y="288.430125"/>
      </g>
     </g>
    </g>
    <g id="xtick_21">
     <g id="line2d_21">
      <g>
       <use style="stroke:#000000;stroke-width:0.6;" x="389.27806" xlink:href="#me65b3326f0" y="288.430125"/>
      </g>
     </g>
    </g>
    <g id="xtick_22">
     <g id="line2d_22">
      <g>
       <use style="stroke:#000000;stroke-width:0.6;" x="398.888551" xlink:href="#me65b3326f0" y="288.430125"/>
      </g>
     </g>
    </g>
    <g id="xtick_23">
     <g id="line2d_23">
      <g>
       <use style="stroke:#000000;stroke-width:0.6;" x="407.365604" xlink:href="#me65b3326f0" y="288.430125"/>
      </g>
     </g>
    </g>
    <g id="text_7">
     <!-- Time (hour:minute) -->
     <g transform="translate(189.843594 316.706687)scale(0.1 -0.1)">
      <defs>
       <path d="M -19 4666 
L 3928 4666 
L 3928 4134 
L 2272 4134 
L 2272 0 
L 1638 0 
L 1638 4134 
L -19 4134 
L -19 4666 
z
" id="DejaVuSans-54" transform="scale(0.015625)"/>
       <path d="M 603 3500 
L 1178 3500 
L 1178 0 
L 603 0 
L 603 3500 
z
M 603 4863 
L 1178 4863 
L 1178 4134 
L 603 4134 
L 603 4863 
z
" id="DejaVuSans-69" transform="scale(0.015625)"/>
       <path d="M 3597 1894 
L 3597 1613 
L 953 1613 
Q 991 1019 1311 708 
Q 1631 397 2203 397 
Q 2534 397 2845 478 
Q 3156 559 3463 722 
L 3463 178 
Q 3153 47 2828 -22 
Q 2503 -91 2169 -91 
Q 1331 -91 842 396 
Q 353 884 353 1716 
Q 353 2575 817 3079 
Q 1281 3584 2069 3584 
Q 2775 3584 3186 3129 
Q 3597 2675 3597 1894 
z
M 3022 2063 
Q 3016 2534 2758 2815 
Q 2500 3097 2075 3097 
Q 1594 3097 1305 2825 
Q 1016 2553 972 2059 
L 3022 2063 
z
" id="DejaVuSans-65" transform="scale(0.015625)"/>
       <path id="DejaVuSans-20" transform="scale(0.015625)"/>
       <path d="M 1984 4856 
Q 1566 4138 1362 3434 
Q 1159 2731 1159 2009 
Q 1159 1288 1364 580 
Q 1569 -128 1984 -844 
L 1484 -844 
Q 1016 -109 783 600 
Q 550 1309 550 2009 
Q 550 2706 781 3412 
Q 1013 4119 1484 4856 
L 1984 4856 
z
" id="DejaVuSans-28" transform="scale(0.015625)"/>
       <path d="M 1959 3097 
Q 1497 3097 1228 2736 
Q 959 2375 959 1747 
Q 959 1119 1226 758 
Q 1494 397 1959 397 
Q 2419 397 2687 759 
Q 2956 1122 2956 1747 
Q 2956 2369 2687 2733 
Q 2419 3097 1959 3097 
z
M 1959 3584 
Q 2709 3584 3137 3096 
Q 3566 2609 3566 1747 
Q 3566 888 3137 398 
Q 2709 -91 1959 -91 
Q 1206 -91 779 398 
Q 353 888 353 1747 
Q 353 2609 779 3096 
Q 1206 3584 1959 3584 
z
" id="DejaVuSans-6f" transform="scale(0.015625)"/>
       <path d="M 544 1381 
L 544 3500 
L 1119 3500 
L 1119 1403 
Q 1119 906 1312 657 
Q 1506 409 1894 409 
Q 2359 409 2629 706 
Q 2900 1003 2900 1516 
L 2900 3500 
L 3475 3500 
L 3475 0 
L 2900 0 
L 2900 538 
Q 2691 219 2414 64 
Q 2138 -91 1772 -91 
Q 1169 -91 856 284 
Q 544 659 544 1381 
z
M 1991 3584 
L 1991 3584 
z
" id="DejaVuSans-75" transform="scale(0.015625)"/>
       <path d="M 2631 2963 
Q 2534 3019 2420 3045 
Q 2306 3072 2169 3072 
Q 1681 3072 1420 2755 
Q 1159 2438 1159 1844 
L 1159 0 
L 581 0 
L 581 3500 
L 1159 3500 
L 1159 2956 
Q 1341 3275 1631 3429 
Q 1922 3584 2338 3584 
Q 2397 3584 2469 3576 
Q 2541 3569 2628 3553 
L 2631 2963 
z
" id="DejaVuSans-72" transform="scale(0.015625)"/>
       <path d="M 3513 2113 
L 3513 0 
L 2938 0 
L 2938 2094 
Q 2938 2591 2744 2837 
Q 2550 3084 2163 3084 
Q 1697 3084 1428 2787 
Q 1159 2491 1159 1978 
L 1159 0 
L 581 0 
L 581 3500 
L 1159 3500 
L 1159 2956 
Q 1366 3272 1645 3428 
Q 1925 3584 2291 3584 
Q 2894 3584 3203 3211 
Q 3513 2838 3513 2113 
z
" id="DejaVuSans-6e" transform="scale(0.015625)"/>
       <path d="M 1172 4494 
L 1172 3500 
L 2356 3500 
L 2356 3053 
L 1172 3053 
L 1172 1153 
Q 1172 725 1289 603 
Q 1406 481 1766 481 
L 2356 481 
L 2356 0 
L 1766 0 
Q 1100 0 847 248 
Q 594 497 594 1153 
L 594 3053 
L 172 3053 
L 172 3500 
L 594 3500 
L 594 4494 
L 1172 4494 
z
" id="DejaVuSans-74" transform="scale(0.015625)"/>
       <path d="M 513 4856 
L 1013 4856 
Q 1481 4119 1714 3412 
Q 1947 2706 1947 2009 
Q 1947 1309 1714 600 
Q 1481 -109 1013 -844 
L 513 -844 
Q 928 -128 1133 580 
Q 1338 1288 1338 2009 
Q 1338 2731 1133 3434 
Q 928 4138 513 4856 
z
" id="DejaVuSans-29" transform="scale(0.015625)"/>
      </defs>
      <use xlink:href="#DejaVuSans-54"/>
      <use x="57.958984" xlink:href="#DejaVuSans-69"/>
      <use x="85.742188" xlink:href="#DejaVuSans-6d"/>
      <use x="183.154297" xlink:href="#DejaVuSans-65"/>
      <use x="244.677734" xlink:href="#DejaVuSans-20"/>
      <use x="276.464844" xlink:href="#DejaVuSans-28"/>
      <use x="315.478516" xlink:href="#DejaVuSans-68"/>
      <use x="378.857422" xlink:href="#DejaVuSans-6f"/>
      <use x="440.039062" xlink:href="#DejaVuSans-75"/>
      <use x="503.417969" xlink:href="#DejaVuSans-72"/>
      <use x="542.78125" xlink:href="#DejaVuSans-3a"/>
      <use x="576.472656" xlink:href="#DejaVuSans-6d"/>
      <use x="673.884766" xlink:href="#DejaVuSans-69"/>
      <use x="701.667969" xlink:href="#DejaVuSans-6e"/>
      <use x="765.046875" xlink:href="#DejaVuSans-75"/>
      <use x="828.425781" xlink:href="#DejaVuSans-74"/>
      <use x="867.634766" xlink:href="#DejaVuSans-65"/>
      <use x="929.158203" xlink:href="#DejaVuSans-29"/>
     </g>
    </g>
   </g>
   <g id="matplotlib.axis_2">
    <g id="ytick_1">
     <g id="line2d_24">
      <defs>
       <path d="M 0 0 
L -3.5 0 
" id="mbe86c36409" style="stroke:#000000;stroke-width:0.8;"/>
      </defs>
      <g>
       <use style="stroke:#000000;stroke-width:0.8;" x="59.690625" xlink:href="#mbe86c36409" y="266.745223"/>
      </g>
     </g>
     <g id="text_8">
      <!-- 13200 -->
      <g transform="translate(20.878125 270.544442)scale(0.1 -0.1)">
       <defs>
        <path d="M 2034 4250 
Q 1547 4250 1301 3770 
Q 1056 3291 1056 2328 
Q 1056 1369 1301 889 
Q 1547 409 2034 409 
Q 2525 409 2770 889 
Q 3016 1369 3016 2328 
Q 3016 3291 2770 3770 
Q 2525 4250 2034 4250 
z
M 2034 4750 
Q 2819 4750 3233 4129 
Q 3647 3509 3647 2328 
Q 3647 1150 3233 529 
Q 2819 -91 2034 -91 
Q 1250 -91 836 529 
Q 422 1150 422 2328 
Q 422 3509 836 4129 
Q 1250 4750 2034 4750 
z
" id="DejaVuSans-30" transform="scale(0.015625)"/>
       </defs>
       <use xlink:href="#DejaVuSans-31"/>
       <use x="63.623047" xlink:href="#DejaVuSans-33"/>
       <use x="127.246094" xlink:href="#DejaVuSans-32"/>
       <use x="190.869141" xlink:href="#DejaVuSans-30"/>
       <use x="254.492188" xlink:href="#DejaVuSans-30"/>
      </g>
     </g>
    </g>
    <g id="ytick_2">
     <g id="line2d_25">
      <g>
       <use style="stroke:#000000;stroke-width:0.8;" x="59.690625" xlink:href="#mbe86c36409" y="226.791466"/>
      </g>
     </g>
     <g id="text_9">
      <!-- 13400 -->
      <g transform="translate(20.878125 230.590685)scale(0.1 -0.1)">
       <use xlink:href="#DejaVuSans-31"/>
       <use x="63.623047" xlink:href="#DejaVuSans-33"/>
       <use x="127.246094" xlink:href="#DejaVuSans-34"/>
       <use x="190.869141" xlink:href="#DejaVuSans-30"/>
       <use x="254.492188" xlink:href="#DejaVuSans-30"/>
      </g>
     </g>
    </g>
    <g id="ytick_3">
     <g id="line2d_26">
      <g>
       <use style="stroke:#000000;stroke-width:0.8;" x="59.690625" xlink:href="#mbe86c36409" y="186.837709"/>
      </g>
     </g>
     <g id="text_10">
      <!-- 13600 -->
      <g transform="translate(20.878125 190.636928)scale(0.1 -0.1)">
       <use xlink:href="#DejaVuSans-31"/>
       <use x="63.623047" xlink:href="#DejaVuSans-33"/>
       <use x="127.246094" xlink:href="#DejaVuSans-36"/>
       <use x="190.869141" xlink:href="#DejaVuSans-30"/>
       <use x="254.492188" xlink:href="#DejaVuSans-30"/>
      </g>
     </g>
    </g>
    <g id="ytick_4">
     <g id="line2d_27">
      <g>
       <use style="stroke:#000000;stroke-width:0.8;" x="59.690625" xlink:href="#mbe86c36409" y="146.883952"/>
      </g>
     </g>
     <g id="text_11">
      <!-- 13800 -->
      <g transform="translate(20.878125 150.68317)scale(0.1 -0.1)">
       <defs>
        <path d="M 2034 2216 
Q 1584 2216 1326 1975 
Q 1069 1734 1069 1313 
Q 1069 891 1326 650 
Q 1584 409 2034 409 
Q 2484 409 2743 651 
Q 3003 894 3003 1313 
Q 3003 1734 2745 1975 
Q 2488 2216 2034 2216 
z
M 1403 2484 
Q 997 2584 770 2862 
Q 544 3141 544 3541 
Q 544 4100 942 4425 
Q 1341 4750 2034 4750 
Q 2731 4750 3128 4425 
Q 3525 4100 3525 3541 
Q 3525 3141 3298 2862 
Q 3072 2584 2669 2484 
Q 3125 2378 3379 2068 
Q 3634 1759 3634 1313 
Q 3634 634 3220 271 
Q 2806 -91 2034 -91 
Q 1263 -91 848 271 
Q 434 634 434 1313 
Q 434 1759 690 2068 
Q 947 2378 1403 2484 
z
M 1172 3481 
Q 1172 3119 1398 2916 
Q 1625 2713 2034 2713 
Q 2441 2713 2670 2916 
Q 2900 3119 2900 3481 
Q 2900 3844 2670 4047 
Q 2441 4250 2034 4250 
Q 1625 4250 1398 4047 
Q 1172 3844 1172 3481 
z
" id="DejaVuSans-38" transform="scale(0.015625)"/>
       </defs>
       <use xlink:href="#DejaVuSans-31"/>
       <use x="63.623047" xlink:href="#DejaVuSans-33"/>
       <use x="127.246094" xlink:href="#DejaVuSans-38"/>
       <use x="190.869141" xlink:href="#DejaVuSans-30"/>
       <use x="254.492188" xlink:href="#DejaVuSans-30"/>
      </g>
     </g>
    </g>
    <g id="ytick_5">
     <g id="line2d_28">
      <g>
       <use style="stroke:#000000;stroke-width:0.8;" x="59.690625" xlink:href="#mbe86c36409" y="106.930194"/>
      </g>
     </g>
     <g id="text_12">
      <!-- 14000 -->
      <g transform="translate(20.878125 110.729413)scale(0.1 -0.1)">
       <use xlink:href="#DejaVuSans-31"/>
       <use x="63.623047" xlink:href="#DejaVuSans-34"/>
       <use x="127.246094" xlink:href="#DejaVuSans-30"/>
       <use x="190.869141" xlink:href="#DejaVuSans-30"/>
       <use x="254.492188" xlink:href="#DejaVuSans-30"/>
      </g>
     </g>
    </g>
    <g id="ytick_6">
     <g id="line2d_29">
      <g>
       <use style="stroke:#000000;stroke-width:0.8;" x="59.690625" xlink:href="#mbe86c36409" y="66.976437"/>
      </g>
     </g>
     <g id="text_13">
      <!-- 14200 -->
      <g transform="translate(20.878125 70.775656)scale(0.1 -0.1)">
       <use xlink:href="#DejaVuSans-31"/>
       <use x="63.623047" xlink:href="#DejaVuSans-34"/>
       <use x="127.246094" xlink:href="#DejaVuSans-32"/>
       <use x="190.869141" xlink:href="#DejaVuSans-30"/>
       <use x="254.492188" xlink:href="#DejaVuSans-30"/>
      </g>
     </g>
    </g>
    <g id="ytick_7">
     <g id="line2d_30">
      <g>
       <use style="stroke:#000000;stroke-width:0.8;" x="59.690625" xlink:href="#mbe86c36409" y="27.02268"/>
      </g>
     </g>
     <g id="text_14">
      <!-- 14400 -->
      <g transform="translate(20.878125 30.821899)scale(0.1 -0.1)">
       <use xlink:href="#DejaVuSans-31"/>
       <use x="63.623047" xlink:href="#DejaVuSans-34"/>
       <use x="127.246094" xlink:href="#DejaVuSans-34"/>
       <use x="190.869141" xlink:href="#DejaVuSans-30"/>
       <use x="254.492188" xlink:href="#DejaVuSans-30"/>
      </g>
     </g>
    </g>
    <g id="text_15">
     <!-- Code region coverage -->
     <g transform="translate(14.798438 210.379594)rotate(-90)scale(0.1 -0.1)">
      <defs>
       <path d="M 4122 4306 
L 4122 3641 
Q 3803 3938 3442 4084 
Q 3081 4231 2675 4231 
Q 1875 4231 1450 3742 
Q 1025 3253 1025 2328 
Q 1025 1406 1450 917 
Q 1875 428 2675 428 
Q 3081 428 3442 575 
Q 3803 722 4122 1019 
L 4122 359 
Q 3791 134 3420 21 
Q 3050 -91 2638 -91 
Q 1578 -91 968 557 
Q 359 1206 359 2328 
Q 359 3453 968 4101 
Q 1578 4750 2638 4750 
Q 3056 4750 3426 4639 
Q 3797 4528 4122 4306 
z
" id="DejaVuSans-43" transform="scale(0.015625)"/>
       <path d="M 2906 2969 
L 2906 4863 
L 3481 4863 
L 3481 0 
L 2906 0 
L 2906 525 
Q 2725 213 2448 61 
Q 2172 -91 1784 -91 
Q 1150 -91 751 415 
Q 353 922 353 1747 
Q 353 2572 751 3078 
Q 1150 3584 1784 3584 
Q 2172 3584 2448 3432 
Q 2725 3281 2906 2969 
z
M 947 1747 
Q 947 1113 1208 752 
Q 1469 391 1925 391 
Q 2381 391 2643 752 
Q 2906 1113 2906 1747 
Q 2906 2381 2643 2742 
Q 2381 3103 1925 3103 
Q 1469 3103 1208 2742 
Q 947 2381 947 1747 
z
" id="DejaVuSans-64" transform="scale(0.015625)"/>
       <path d="M 2906 1791 
Q 2906 2416 2648 2759 
Q 2391 3103 1925 3103 
Q 1463 3103 1205 2759 
Q 947 2416 947 1791 
Q 947 1169 1205 825 
Q 1463 481 1925 481 
Q 2391 481 2648 825 
Q 2906 1169 2906 1791 
z
M 3481 434 
Q 3481 -459 3084 -895 
Q 2688 -1331 1869 -1331 
Q 1566 -1331 1297 -1286 
Q 1028 -1241 775 -1147 
L 775 -588 
Q 1028 -725 1275 -790 
Q 1522 -856 1778 -856 
Q 2344 -856 2625 -561 
Q 2906 -266 2906 331 
L 2906 616 
Q 2728 306 2450 153 
Q 2172 0 1784 0 
Q 1141 0 747 490 
Q 353 981 353 1791 
Q 353 2603 747 3093 
Q 1141 3584 1784 3584 
Q 2172 3584 2450 3431 
Q 2728 3278 2906 2969 
L 2906 3500 
L 3481 3500 
L 3481 434 
z
" id="DejaVuSans-67" transform="scale(0.015625)"/>
       <path d="M 3122 3366 
L 3122 2828 
Q 2878 2963 2633 3030 
Q 2388 3097 2138 3097 
Q 1578 3097 1268 2742 
Q 959 2388 959 1747 
Q 959 1106 1268 751 
Q 1578 397 2138 397 
Q 2388 397 2633 464 
Q 2878 531 3122 666 
L 3122 134 
Q 2881 22 2623 -34 
Q 2366 -91 2075 -91 
Q 1284 -91 818 406 
Q 353 903 353 1747 
Q 353 2603 823 3093 
Q 1294 3584 2113 3584 
Q 2378 3584 2631 3529 
Q 2884 3475 3122 3366 
z
" id="DejaVuSans-63" transform="scale(0.015625)"/>
       <path d="M 191 3500 
L 800 3500 
L 1894 563 
L 2988 3500 
L 3597 3500 
L 2284 0 
L 1503 0 
L 191 3500 
z
" id="DejaVuSans-76" transform="scale(0.015625)"/>
       <path d="M 2194 1759 
Q 1497 1759 1228 1600 
Q 959 1441 959 1056 
Q 959 750 1161 570 
Q 1363 391 1709 391 
Q 2188 391 2477 730 
Q 2766 1069 2766 1631 
L 2766 1759 
L 2194 1759 
z
M 3341 1997 
L 3341 0 
L 2766 0 
L 2766 531 
Q 2569 213 2275 61 
Q 1981 -91 1556 -91 
Q 1019 -91 701 211 
Q 384 513 384 1019 
Q 384 1609 779 1909 
Q 1175 2209 1959 2209 
L 2766 2209 
L 2766 2266 
Q 2766 2663 2505 2880 
Q 2244 3097 1772 3097 
Q 1472 3097 1187 3025 
Q 903 2953 641 2809 
L 641 3341 
Q 956 3463 1253 3523 
Q 1550 3584 1831 3584 
Q 2591 3584 2966 3190 
Q 3341 2797 3341 1997 
z
" id="DejaVuSans-61" transform="scale(0.015625)"/>
      </defs>
      <use xlink:href="#DejaVuSans-43"/>
      <use x="69.824219" xlink:href="#DejaVuSans-6f"/>
      <use x="131.005859" xlink:href="#DejaVuSans-64"/>
      <use x="194.482422" xlink:href="#DejaVuSans-65"/>
      <use x="256.005859" xlink:href="#DejaVuSans-20"/>
      <use x="287.792969" xlink:href="#DejaVuSans-72"/>
      <use x="326.65625" xlink:href="#DejaVuSans-65"/>
      <use x="388.179688" xlink:href="#DejaVuSans-67"/>
      <use x="451.65625" xlink:href="#DejaVuSans-69"/>
      <use x="479.439453" xlink:href="#DejaVuSans-6f"/>
      <use x="540.621094" xlink:href="#DejaVuSans-6e"/>
      <use x="604" xlink:href="#DejaVuSans-20"/>
      <use x="635.787109" xlink:href="#DejaVuSans-63"/>
      <use x="690.767578" xlink:href="#DejaVuSans-6f"/>
      <use x="751.949219" xlink:href="#DejaVuSans-76"/>
      <use x="811.128906" xlink:href="#DejaVuSans-65"/>
      <use x="872.652344" xlink:href="#DejaVuSans-72"/>
      <use x="913.765625" xlink:href="#DejaVuSans-61"/>
      <use x="975.044922" xlink:href="#DejaVuSans-67"/>
      <use x="1038.521484" xlink:href="#DejaVuSans-65"/>
     </g>
    </g>
   </g>
   <g id="line2d_31">
    <path clip-path="url(#pf5da42896f)" d="M 75.923352 239.3769 
L 125.810382 211.209501 
L 154.992424 187.836553 
L 175.697412 173.353316 
L 191.757448 152.677246 
L 204.879454 151.678402 
L 215.973951 140.990772 
L 225.584442 138.293894 
L 234.061495 134.698056 
L 241.644478 128.904761 
L 248.504121 121.313547 
L 254.766484 113.023142 
L 260.527299 120.314703 
L 265.860981 112.224067 
L 270.82652 111.924414 
L 275.471472 112.52372 
L 279.834733 110.326264 
L 283.948525 107.129963 
L 287.839839 104.932507 
L 291.531508 104.033547 
L 295.043023 103.933663 
L 298.391151 103.634009 
L 301.590423 101.536437 
L 304.653513 100.138056 
L 307.591545 98.539905 
L 310.414329 96.841871 
L 313.130567 96.342449 
L 315.748011 98.040483 
L 318.273595 94.744298 
L 320.71355 95.543374 
L 323.073491 92.646726 
L 325.358502 92.247189 
L 327.573192 92.546842 
L 329.721763 86.953316 
L 331.808047 83.157709 
L 333.835555 84.55609 
L 335.807508 85.754703 
L 337.726869 78.463142 
L 339.596371 82.158865 
L 341.418538 71.171582 
L 343.195709 76.165801 
L 344.930052 68.17505 
L 346.623584 67.775512 
L 348.27818 66.277246 
L 349.895592 64.679096 
L 351.477452 65.977593 
L 353.025292 61.982217 
L 354.540543 63.280715 
L 356.02455 63.780137 
L 357.478574 60.184298 
L 358.903805 60.384067 
L 360.301359 59.584992 
L 361.672291 59.98453 
L 363.017597 58.985686 
L 364.338217 59.08557 
L 365.635041 58.985686 
L 366.908911 53.591928 
L 368.160625 51.893894 
L 369.390942 56.188923 
L 370.60058 53.591928 
L 371.790223 53.39216 
L 372.960521 53.39216 
L 374.112094 51.594241 
L 375.245531 53.292275 
L 376.361395 53.292275 
L 377.460222 53.092507 
L 378.542525 52.792853 
L 379.608793 52.992622 
L 380.659494 52.792853 
L 381.695077 52.792853 
L 382.71597 50.095975 
L 383.722585 52.593085 
L 384.715315 43.603489 
L 385.694538 47.49898 
L 386.660616 47.099443 
L 387.613899 42.205108 
L 388.554719 46.999559 
L 389.4834 42.205108 
L 390.400251 51.794009 
L 391.305568 42.205108 
L 392.199639 46.999559 
L 393.082739 50.195859 
L 393.955135 50.994934 
L 394.817082 45.101755 
L 395.668829 48.098287 
L 396.510614 47.698749 
L 397.342667 41.605801 
L 398.16521 51.594241 
L 398.978459 42.005339 
L 399.782621 41.006495 
L 400.577898 46.600021 
" style="fill:none;stroke:#1f77b4;stroke-linecap:square;stroke-width:1.5;"/>
    <defs>
     <path d="M 0 3 
C 0.795609 3 1.55874 2.683901 2.12132 2.12132 
C 2.683901 1.55874 3 0.795609 3 0 
C 3 -0.795609 2.683901 -1.55874 2.12132 -2.12132 
C 1.55874 -2.683901 0.795609 -3 0 -3 
C -0.795609 -3 -1.55874 -2.683901 -2.12132 -2.12132 
C -2.683901 -1.55874 -3 -0.795609 -3 0 
C -3 0.795609 -2.683901 1.55874 -2.12132 2.12132 
C -1.55874 2.683901 -0.795609 3 0 3 
z
" id="m728974585f" style="stroke:#ffffff;stroke-width:0.75;"/>
    </defs>
    <g clip-path="url(#pf5da42896f)">
     <use style="fill:#1f77b4;stroke:#ffffff;stroke-width:0.75;" x="75.923352" xlink:href="#m728974585f" y="239.3769"/>
     <use style="fill:#1f77b4;stroke:#ffffff;stroke-width:0.75;" x="125.810382" xlink:href="#m728974585f" y="211.209501"/>
     <use style="fill:#1f77b4;stroke:#ffffff;stroke-width:0.75;" x="154.992424" xlink:href="#m728974585f" y="187.836553"/>
     <use style="fill:#1f77b4;stroke:#ffffff;stroke-width:0.75;" x="175.697412" xlink:href="#m728974585f" y="173.353316"/>
     <use style="fill:#1f77b4;stroke:#ffffff;stroke-width:0.75;" x="191.757448" xlink:href="#m728974585f" y="152.677246"/>
     <use style="fill:#1f77b4;stroke:#ffffff;stroke-width:0.75;" x="204.879454" xlink:href="#m728974585f" y="151.678402"/>
     <use style="fill:#1f77b4;stroke:#ffffff;stroke-width:0.75;" x="215.973951" xlink:href="#m728974585f" y="140.990772"/>
     <use style="fill:#1f77b4;stroke:#ffffff;stroke-width:0.75;" x="225.584442" xlink:href="#m728974585f" y="138.293894"/>
     <use style="fill:#1f77b4;stroke:#ffffff;stroke-width:0.75;" x="234.061495" xlink:href="#m728974585f" y="134.698056"/>
     <use style="fill:#1f77b4;stroke:#ffffff;stroke-width:0.75;" x="241.644478" xlink:href="#m728974585f" y="128.904761"/>
     <use style="fill:#1f77b4;stroke:#ffffff;stroke-width:0.75;" x="248.504121" xlink:href="#m728974585f" y="121.313547"/>
     <use style="fill:#1f77b4;stroke:#ffffff;stroke-width:0.75;" x="254.766484" xlink:href="#m728974585f" y="113.023142"/>
     <use style="fill:#1f77b4;stroke:#ffffff;stroke-width:0.75;" x="260.527299" xlink:href="#m728974585f" y="120.314703"/>
     <use style="fill:#1f77b4;stroke:#ffffff;stroke-width:0.75;" x="265.860981" xlink:href="#m728974585f" y="112.224067"/>
     <use style="fill:#1f77b4;stroke:#ffffff;stroke-width:0.75;" x="270.82652" xlink:href="#m728974585f" y="111.924414"/>
     <use style="fill:#1f77b4;stroke:#ffffff;stroke-width:0.75;" x="275.471472" xlink:href="#m728974585f" y="112.52372"/>
     <use style="fill:#1f77b4;stroke:#ffffff;stroke-width:0.75;" x="279.834733" xlink:href="#m728974585f" y="110.326264"/>
     <use style="fill:#1f77b4;stroke:#ffffff;stroke-width:0.75;" x="283.948525" xlink:href="#m728974585f" y="107.129963"/>
     <use style="fill:#1f77b4;stroke:#ffffff;stroke-width:0.75;" x="287.839839" xlink:href="#m728974585f" y="104.932507"/>
     <use style="fill:#1f77b4;stroke:#ffffff;stroke-width:0.75;" x="291.531508" xlink:href="#m728974585f" y="104.033547"/>
     <use style="fill:#1f77b4;stroke:#ffffff;stroke-width:0.75;" x="295.043023" xlink:href="#m728974585f" y="103.933663"/>
     <use style="fill:#1f77b4;stroke:#ffffff;stroke-width:0.75;" x="298.391151" xlink:href="#m728974585f" y="103.634009"/>
     <use style="fill:#1f77b4;stroke:#ffffff;stroke-width:0.75;" x="301.590423" xlink:href="#m728974585f" y="101.536437"/>
     <use style="fill:#1f77b4;stroke:#ffffff;stroke-width:0.75;" x="304.653513" xlink:href="#m728974585f" y="100.138056"/>
     <use style="fill:#1f77b4;stroke:#ffffff;stroke-width:0.75;" x="307.591545" xlink:href="#m728974585f" y="98.539905"/>
     <use style="fill:#1f77b4;stroke:#ffffff;stroke-width:0.75;" x="310.414329" xlink:href="#m728974585f" y="96.841871"/>
     <use style="fill:#1f77b4;stroke:#ffffff;stroke-width:0.75;" x="313.130567" xlink:href="#m728974585f" y="96.342449"/>
     <use style="fill:#1f77b4;stroke:#ffffff;stroke-width:0.75;" x="315.748011" xlink:href="#m728974585f" y="98.040483"/>
     <use style="fill:#1f77b4;stroke:#ffffff;stroke-width:0.75;" x="318.273595" xlink:href="#m728974585f" y="94.744298"/>
     <use style="fill:#1f77b4;stroke:#ffffff;stroke-width:0.75;" x="320.71355" xlink:href="#m728974585f" y="95.543374"/>
     <use style="fill:#1f77b4;stroke:#ffffff;stroke-width:0.75;" x="323.073491" xlink:href="#m728974585f" y="92.646726"/>
     <use style="fill:#1f77b4;stroke:#ffffff;stroke-width:0.75;" x="325.358502" xlink:href="#m728974585f" y="92.247189"/>
     <use style="fill:#1f77b4;stroke:#ffffff;stroke-width:0.75;" x="327.573192" xlink:href="#m728974585f" y="92.546842"/>
     <use style="fill:#1f77b4;stroke:#ffffff;stroke-width:0.75;" x="329.721763" xlink:href="#m728974585f" y="86.953316"/>
     <use style="fill:#1f77b4;stroke:#ffffff;stroke-width:0.75;" x="331.808047" xlink:href="#m728974585f" y="83.157709"/>
     <use style="fill:#1f77b4;stroke:#ffffff;stroke-width:0.75;" x="333.835555" xlink:href="#m728974585f" y="84.55609"/>
     <use style="fill:#1f77b4;stroke:#ffffff;stroke-width:0.75;" x="335.807508" xlink:href="#m728974585f" y="85.754703"/>
     <use style="fill:#1f77b4;stroke:#ffffff;stroke-width:0.75;" x="337.726869" xlink:href="#m728974585f" y="78.463142"/>
     <use style="fill:#1f77b4;stroke:#ffffff;stroke-width:0.75;" x="339.596371" xlink:href="#m728974585f" y="82.158865"/>
     <use style="fill:#1f77b4;stroke:#ffffff;stroke-width:0.75;" x="341.418538" xlink:href="#m728974585f" y="71.171582"/>
     <use style="fill:#1f77b4;stroke:#ffffff;stroke-width:0.75;" x="343.195709" xlink:href="#m728974585f" y="76.165801"/>
     <use style="fill:#1f77b4;stroke:#ffffff;stroke-width:0.75;" x="344.930052" xlink:href="#m728974585f" y="68.17505"/>
     <use style="fill:#1f77b4;stroke:#ffffff;stroke-width:0.75;" x="346.623584" xlink:href="#m728974585f" y="67.775512"/>
     <use style="fill:#1f77b4;stroke:#ffffff;stroke-width:0.75;" x="348.27818" xlink:href="#m728974585f" y="66.277246"/>
     <use style="fill:#1f77b4;stroke:#ffffff;stroke-width:0.75;" x="349.895592" xlink:href="#m728974585f" y="64.679096"/>
     <use style="fill:#1f77b4;stroke:#ffffff;stroke-width:0.75;" x="351.477452" xlink:href="#m728974585f" y="65.977593"/>
     <use style="fill:#1f77b4;stroke:#ffffff;stroke-width:0.75;" x="353.025292" xlink:href="#m728974585f" y="61.982217"/>
     <use style="fill:#1f77b4;stroke:#ffffff;stroke-width:0.75;" x="354.540543" xlink:href="#m728974585f" y="63.280715"/>
     <use style="fill:#1f77b4;stroke:#ffffff;stroke-width:0.75;" x="356.02455" xlink:href="#m728974585f" y="63.780137"/>
     <use style="fill:#1f77b4;stroke:#ffffff;stroke-width:0.75;" x="357.478574" xlink:href="#m728974585f" y="60.184298"/>
     <use style="fill:#1f77b4;stroke:#ffffff;stroke-width:0.75;" x="358.903805" xlink:href="#m728974585f" y="60.384067"/>
     <use style="fill:#1f77b4;stroke:#ffffff;stroke-width:0.75;" x="360.301359" xlink:href="#m728974585f" y="59.584992"/>
     <use style="fill:#1f77b4;stroke:#ffffff;stroke-width:0.75;" x="361.672291" xlink:href="#m728974585f" y="59.98453"/>
     <use style="fill:#1f77b4;stroke:#ffffff;stroke-width:0.75;" x="363.017597" xlink:href="#m728974585f" y="58.985686"/>
     <use style="fill:#1f77b4;stroke:#ffffff;stroke-width:0.75;" x="364.338217" xlink:href="#m728974585f" y="59.08557"/>
     <use style="fill:#1f77b4;stroke:#ffffff;stroke-width:0.75;" x="365.635041" xlink:href="#m728974585f" y="58.985686"/>
     <use style="fill:#1f77b4;stroke:#ffffff;stroke-width:0.75;" x="366.908911" xlink:href="#m728974585f" y="53.591928"/>
     <use style="fill:#1f77b4;stroke:#ffffff;stroke-width:0.75;" x="368.160625" xlink:href="#m728974585f" y="51.893894"/>
     <use style="fill:#1f77b4;stroke:#ffffff;stroke-width:0.75;" x="369.390942" xlink:href="#m728974585f" y="56.188923"/>
     <use style="fill:#1f77b4;stroke:#ffffff;stroke-width:0.75;" x="370.60058" xlink:href="#m728974585f" y="53.591928"/>
     <use style="fill:#1f77b4;stroke:#ffffff;stroke-width:0.75;" x="371.790223" xlink:href="#m728974585f" y="53.39216"/>
     <use style="fill:#1f77b4;stroke:#ffffff;stroke-width:0.75;" x="372.960521" xlink:href="#m728974585f" y="53.39216"/>
     <use style="fill:#1f77b4;stroke:#ffffff;stroke-width:0.75;" x="374.112094" xlink:href="#m728974585f" y="51.594241"/>
     <use style="fill:#1f77b4;stroke:#ffffff;stroke-width:0.75;" x="375.245531" xlink:href="#m728974585f" y="53.292275"/>
     <use style="fill:#1f77b4;stroke:#ffffff;stroke-width:0.75;" x="376.361395" xlink:href="#m728974585f" y="53.292275"/>
     <use style="fill:#1f77b4;stroke:#ffffff;stroke-width:0.75;" x="377.460222" xlink:href="#m728974585f" y="53.092507"/>
     <use style="fill:#1f77b4;stroke:#ffffff;stroke-width:0.75;" x="378.542525" xlink:href="#m728974585f" y="52.792853"/>
     <use style="fill:#1f77b4;stroke:#ffffff;stroke-width:0.75;" x="379.608793" xlink:href="#m728974585f" y="52.992622"/>
     <use style="fill:#1f77b4;stroke:#ffffff;stroke-width:0.75;" x="380.659494" xlink:href="#m728974585f" y="52.792853"/>
     <use style="fill:#1f77b4;stroke:#ffffff;stroke-width:0.75;" x="381.695077" xlink:href="#m728974585f" y="52.792853"/>
     <use style="fill:#1f77b4;stroke:#ffffff;stroke-width:0.75;" x="382.71597" xlink:href="#m728974585f" y="50.095975"/>
     <use style="fill:#1f77b4;stroke:#ffffff;stroke-width:0.75;" x="383.722585" xlink:href="#m728974585f" y="52.593085"/>
     <use style="fill:#1f77b4;stroke:#ffffff;stroke-width:0.75;" x="384.715315" xlink:href="#m728974585f" y="43.603489"/>
     <use style="fill:#1f77b4;stroke:#ffffff;stroke-width:0.75;" x="385.694538" xlink:href="#m728974585f" y="47.49898"/>
     <use style="fill:#1f77b4;stroke:#ffffff;stroke-width:0.75;" x="386.660616" xlink:href="#m728974585f" y="47.099443"/>
     <use style="fill:#1f77b4;stroke:#ffffff;stroke-width:0.75;" x="387.613899" xlink:href="#m728974585f" y="42.205108"/>
     <use style="fill:#1f77b4;stroke:#ffffff;stroke-width:0.75;" x="388.554719" xlink:href="#m728974585f" y="46.999559"/>
     <use style="fill:#1f77b4;stroke:#ffffff;stroke-width:0.75;" x="389.4834" xlink:href="#m728974585f" y="42.205108"/>
     <use style="fill:#1f77b4;stroke:#ffffff;stroke-width:0.75;" x="390.400251" xlink:href="#m728974585f" y="51.794009"/>
     <use style="fill:#1f77b4;stroke:#ffffff;stroke-width:0.75;" x="391.305568" xlink:href="#m728974585f" y="42.205108"/>
     <use style="fill:#1f77b4;stroke:#ffffff;stroke-width:0.75;" x="392.199639" xlink:href="#m728974585f" y="46.999559"/>
     <use style="fill:#1f77b4;stroke:#ffffff;stroke-width:0.75;" x="393.082739" xlink:href="#m728974585f" y="50.195859"/>
     <use style="fill:#1f77b4;stroke:#ffffff;stroke-width:0.75;" x="393.955135" xlink:href="#m728974585f" y="50.994934"/>
     <use style="fill:#1f77b4;stroke:#ffffff;stroke-width:0.75;" x="394.817082" xlink:href="#m728974585f" y="45.101755"/>
     <use style="fill:#1f77b4;stroke:#ffffff;stroke-width:0.75;" x="395.668829" xlink:href="#m728974585f" y="48.098287"/>
     <use style="fill:#1f77b4;stroke:#ffffff;stroke-width:0.75;" x="396.510614" xlink:href="#m728974585f" y="47.698749"/>
     <use style="fill:#1f77b4;stroke:#ffffff;stroke-width:0.75;" x="397.342667" xlink:href="#m728974585f" y="41.605801"/>
     <use style="fill:#1f77b4;stroke:#ffffff;stroke-width:0.75;" x="398.16521" xlink:href="#m728974585f" y="51.594241"/>
     <use style="fill:#1f77b4;stroke:#ffffff;stroke-width:0.75;" x="398.978459" xlink:href="#m728974585f" y="42.005339"/>
     <use style="fill:#1f77b4;stroke:#ffffff;stroke-width:0.75;" x="399.782621" xlink:href="#m728974585f" y="41.006495"/>
     <use style="fill:#1f77b4;stroke:#ffffff;stroke-width:0.75;" x="400.577898" xlink:href="#m728974585f" y="46.600021"/>
    </g>
   </g>
   <g id="line2d_32">
    <path clip-path="url(#pf5da42896f)" d="M 75.923352 232.584761 
L 125.810382 200.022449 
L 154.992424 194.229154 
L 175.697412 184.640252 
L 191.757448 170.456668 
L 204.879454 154.475165 
L 215.973951 151.079096 
L 225.584442 149.081408 
L 234.061495 139.892044 
L 241.644478 129.703836 
L 248.504121 127.905917 
L 254.766484 124.11031 
L 260.527299 121.113778 
L 265.860981 116.519096 
L 270.82652 113.123027 
L 275.471472 110.526033 
L 279.834733 108.728113 
L 283.948525 107.72927 
L 287.839839 106.530657 
L 291.531508 106.131119 
L 295.043023 103.833778 
L 298.391151 100.23794 
L 301.590423 99.139212 
L 304.653513 97.74083 
L 307.591545 97.74083 
L 310.414329 97.74083 
L 313.130567 96.741986 
L 315.748011 96.342449 
L 318.273595 95.743142 
L 320.71355 95.743142 
L 323.073491 95.743142 
L 325.358502 95.942911 
L 327.573192 95.843027 
L 329.721763 88.751235 
L 331.808047 88.052044 
L 333.835555 88.751235 
L 335.807508 87.852275 
L 337.726869 86.853431 
L 339.596371 89.050888 
L 341.418538 86.154241 
L 343.195709 86.154241 
L 344.930052 86.953316 
L 346.623584 81.35979 
L 348.27818 81.35979 
L 349.895592 73.269154 
L 351.477452 72.470079 
L 353.025292 72.27031 
L 354.540543 71.671004 
L 356.02455 71.271466 
L 357.478574 70.172738 
L 358.903805 74.267998 
L 360.301359 71.770888 
L 361.672291 70.971813 
L 363.017597 69.972969 
L 364.338217 69.173894 
L 365.635041 65.977593 
L 366.908911 65.777824 
L 368.160625 69.573431 
L 369.390942 77.564183 
L 370.60058 77.564183 
L 371.790223 76.465454 
L 372.960521 65.478171 
L 374.112094 76.36557 
L 375.245531 61.382911 
L 376.361395 69.373663 
L 377.460222 64.179674 
L 378.542525 68.574587 
L 379.608793 68.574587 
L 380.659494 68.574587 
L 381.695077 63.780137 
L 382.71597 63.780137 
L 383.722585 58.985686 
L 384.715315 68.574587 
L 385.694538 63.680252 
L 386.660616 72.070541 
L 387.613899 61.682564 
L 388.554719 65.278402 
L 389.4834 43.004183 
L 390.400251 67.575743 
L 391.305568 54.790541 
L 392.199639 54.790541 
L 393.082739 63.280715 
L 393.955135 54.590772 
L 394.817082 66.177362 
L 395.668829 53.691813 
L 396.510614 66.177362 
L 397.342667 66.177362 
L 398.16521 66.177362 
L 398.978459 65.777824 
L 399.782621 65.378287 
L 400.577898 64.379443 
" style="fill:none;stroke:#98df8a;stroke-linecap:square;stroke-width:1.5;"/>
    <defs>
     <path d="M -0 3 
L 3 -3 
L -3 -3 
z
" id="m690187c7c5" style="stroke:#ffffff;stroke-linejoin:miter;stroke-width:0.75;"/>
    </defs>
    <g clip-path="url(#pf5da42896f)">
     <use style="fill:#98df8a;stroke:#ffffff;stroke-linejoin:miter;stroke-width:0.75;" x="75.923352" xlink:href="#m690187c7c5" y="232.584761"/>
     <use style="fill:#98df8a;stroke:#ffffff;stroke-linejoin:miter;stroke-width:0.75;" x="125.810382" xlink:href="#m690187c7c5" y="200.022449"/>
     <use style="fill:#98df8a;stroke:#ffffff;stroke-linejoin:miter;stroke-width:0.75;" x="154.992424" xlink:href="#m690187c7c5" y="194.229154"/>
     <use style="fill:#98df8a;stroke:#ffffff;stroke-linejoin:miter;stroke-width:0.75;" x="175.697412" xlink:href="#m690187c7c5" y="184.640252"/>
     <use style="fill:#98df8a;stroke:#ffffff;stroke-linejoin:miter;stroke-width:0.75;" x="191.757448" xlink:href="#m690187c7c5" y="170.456668"/>
     <use style="fill:#98df8a;stroke:#ffffff;stroke-linejoin:miter;stroke-width:0.75;" x="204.879454" xlink:href="#m690187c7c5" y="154.475165"/>
     <use style="fill:#98df8a;stroke:#ffffff;stroke-linejoin:miter;stroke-width:0.75;" x="215.973951" xlink:href="#m690187c7c5" y="151.079096"/>
     <use style="fill:#98df8a;stroke:#ffffff;stroke-linejoin:miter;stroke-width:0.75;" x="225.584442" xlink:href="#m690187c7c5" y="149.081408"/>
     <use style="fill:#98df8a;stroke:#ffffff;stroke-linejoin:miter;stroke-width:0.75;" x="234.061495" xlink:href="#m690187c7c5" y="139.892044"/>
     <use style="fill:#98df8a;stroke:#ffffff;stroke-linejoin:miter;stroke-width:0.75;" x="241.644478" xlink:href="#m690187c7c5" y="129.703836"/>
     <use style="fill:#98df8a;stroke:#ffffff;stroke-linejoin:miter;stroke-width:0.75;" x="248.504121" xlink:href="#m690187c7c5" y="127.905917"/>
     <use style="fill:#98df8a;stroke:#ffffff;stroke-linejoin:miter;stroke-width:0.75;" x="254.766484" xlink:href="#m690187c7c5" y="124.11031"/>
     <use style="fill:#98df8a;stroke:#ffffff;stroke-linejoin:miter;stroke-width:0.75;" x="260.527299" xlink:href="#m690187c7c5" y="121.113778"/>
     <use style="fill:#98df8a;stroke:#ffffff;stroke-linejoin:miter;stroke-width:0.75;" x="265.860981" xlink:href="#m690187c7c5" y="116.519096"/>
     <use style="fill:#98df8a;stroke:#ffffff;stroke-linejoin:miter;stroke-width:0.75;" x="270.82652" xlink:href="#m690187c7c5" y="113.123027"/>
     <use style="fill:#98df8a;stroke:#ffffff;stroke-linejoin:miter;stroke-width:0.75;" x="275.471472" xlink:href="#m690187c7c5" y="110.526033"/>
     <use style="fill:#98df8a;stroke:#ffffff;stroke-linejoin:miter;stroke-width:0.75;" x="279.834733" xlink:href="#m690187c7c5" y="108.728113"/>
     <use style="fill:#98df8a;stroke:#ffffff;stroke-linejoin:miter;stroke-width:0.75;" x="283.948525" xlink:href="#m690187c7c5" y="107.72927"/>
     <use style="fill:#98df8a;stroke:#ffffff;stroke-linejoin:miter;stroke-width:0.75;" x="287.839839" xlink:href="#m690187c7c5" y="106.530657"/>
     <use style="fill:#98df8a;stroke:#ffffff;stroke-linejoin:miter;stroke-width:0.75;" x="291.531508" xlink:href="#m690187c7c5" y="106.131119"/>
     <use style="fill:#98df8a;stroke:#ffffff;stroke-linejoin:miter;stroke-width:0.75;" x="295.043023" xlink:href="#m690187c7c5" y="103.833778"/>
     <use style="fill:#98df8a;stroke:#ffffff;stroke-linejoin:miter;stroke-width:0.75;" x="298.391151" xlink:href="#m690187c7c5" y="100.23794"/>
     <use style="fill:#98df8a;stroke:#ffffff;stroke-linejoin:miter;stroke-width:0.75;" x="301.590423" xlink:href="#m690187c7c5" y="99.139212"/>
     <use style="fill:#98df8a;stroke:#ffffff;stroke-linejoin:miter;stroke-width:0.75;" x="304.653513" xlink:href="#m690187c7c5" y="97.74083"/>
     <use style="fill:#98df8a;stroke:#ffffff;stroke-linejoin:miter;stroke-width:0.75;" x="307.591545" xlink:href="#m690187c7c5" y="97.74083"/>
     <use style="fill:#98df8a;stroke:#ffffff;stroke-linejoin:miter;stroke-width:0.75;" x="310.414329" xlink:href="#m690187c7c5" y="97.74083"/>
     <use style="fill:#98df8a;stroke:#ffffff;stroke-linejoin:miter;stroke-width:0.75;" x="313.130567" xlink:href="#m690187c7c5" y="96.741986"/>
     <use style="fill:#98df8a;stroke:#ffffff;stroke-linejoin:miter;stroke-width:0.75;" x="315.748011" xlink:href="#m690187c7c5" y="96.342449"/>
     <use style="fill:#98df8a;stroke:#ffffff;stroke-linejoin:miter;stroke-width:0.75;" x="318.273595" xlink:href="#m690187c7c5" y="95.743142"/>
     <use style="fill:#98df8a;stroke:#ffffff;stroke-linejoin:miter;stroke-width:0.75;" x="320.71355" xlink:href="#m690187c7c5" y="95.743142"/>
     <use style="fill:#98df8a;stroke:#ffffff;stroke-linejoin:miter;stroke-width:0.75;" x="323.073491" xlink:href="#m690187c7c5" y="95.743142"/>
     <use style="fill:#98df8a;stroke:#ffffff;stroke-linejoin:miter;stroke-width:0.75;" x="325.358502" xlink:href="#m690187c7c5" y="95.942911"/>
     <use style="fill:#98df8a;stroke:#ffffff;stroke-linejoin:miter;stroke-width:0.75;" x="327.573192" xlink:href="#m690187c7c5" y="95.843027"/>
     <use style="fill:#98df8a;stroke:#ffffff;stroke-linejoin:miter;stroke-width:0.75;" x="329.721763" xlink:href="#m690187c7c5" y="88.751235"/>
     <use style="fill:#98df8a;stroke:#ffffff;stroke-linejoin:miter;stroke-width:0.75;" x="331.808047" xlink:href="#m690187c7c5" y="88.052044"/>
     <use style="fill:#98df8a;stroke:#ffffff;stroke-linejoin:miter;stroke-width:0.75;" x="333.835555" xlink:href="#m690187c7c5" y="88.751235"/>
     <use style="fill:#98df8a;stroke:#ffffff;stroke-linejoin:miter;stroke-width:0.75;" x="335.807508" xlink:href="#m690187c7c5" y="87.852275"/>
     <use style="fill:#98df8a;stroke:#ffffff;stroke-linejoin:miter;stroke-width:0.75;" x="337.726869" xlink:href="#m690187c7c5" y="86.853431"/>
     <use style="fill:#98df8a;stroke:#ffffff;stroke-linejoin:miter;stroke-width:0.75;" x="339.596371" xlink:href="#m690187c7c5" y="89.050888"/>
     <use style="fill:#98df8a;stroke:#ffffff;stroke-linejoin:miter;stroke-width:0.75;" x="341.418538" xlink:href="#m690187c7c5" y="86.154241"/>
     <use style="fill:#98df8a;stroke:#ffffff;stroke-linejoin:miter;stroke-width:0.75;" x="343.195709" xlink:href="#m690187c7c5" y="86.154241"/>
     <use style="fill:#98df8a;stroke:#ffffff;stroke-linejoin:miter;stroke-width:0.75;" x="344.930052" xlink:href="#m690187c7c5" y="86.953316"/>
     <use style="fill:#98df8a;stroke:#ffffff;stroke-linejoin:miter;stroke-width:0.75;" x="346.623584" xlink:href="#m690187c7c5" y="81.35979"/>
     <use style="fill:#98df8a;stroke:#ffffff;stroke-linejoin:miter;stroke-width:0.75;" x="348.27818" xlink:href="#m690187c7c5" y="81.35979"/>
     <use style="fill:#98df8a;stroke:#ffffff;stroke-linejoin:miter;stroke-width:0.75;" x="349.895592" xlink:href="#m690187c7c5" y="73.269154"/>
     <use style="fill:#98df8a;stroke:#ffffff;stroke-linejoin:miter;stroke-width:0.75;" x="351.477452" xlink:href="#m690187c7c5" y="72.470079"/>
     <use style="fill:#98df8a;stroke:#ffffff;stroke-linejoin:miter;stroke-width:0.75;" x="353.025292" xlink:href="#m690187c7c5" y="72.27031"/>
     <use style="fill:#98df8a;stroke:#ffffff;stroke-linejoin:miter;stroke-width:0.75;" x="354.540543" xlink:href="#m690187c7c5" y="71.671004"/>
     <use style="fill:#98df8a;stroke:#ffffff;stroke-linejoin:miter;stroke-width:0.75;" x="356.02455" xlink:href="#m690187c7c5" y="71.271466"/>
     <use style="fill:#98df8a;stroke:#ffffff;stroke-linejoin:miter;stroke-width:0.75;" x="357.478574" xlink:href="#m690187c7c5" y="70.172738"/>
     <use style="fill:#98df8a;stroke:#ffffff;stroke-linejoin:miter;stroke-width:0.75;" x="358.903805" xlink:href="#m690187c7c5" y="74.267998"/>
     <use style="fill:#98df8a;stroke:#ffffff;stroke-linejoin:miter;stroke-width:0.75;" x="360.301359" xlink:href="#m690187c7c5" y="71.770888"/>
     <use style="fill:#98df8a;stroke:#ffffff;stroke-linejoin:miter;stroke-width:0.75;" x="361.672291" xlink:href="#m690187c7c5" y="70.971813"/>
     <use style="fill:#98df8a;stroke:#ffffff;stroke-linejoin:miter;stroke-width:0.75;" x="363.017597" xlink:href="#m690187c7c5" y="69.972969"/>
     <use style="fill:#98df8a;stroke:#ffffff;stroke-linejoin:miter;stroke-width:0.75;" x="364.338217" xlink:href="#m690187c7c5" y="69.173894"/>
     <use style="fill:#98df8a;stroke:#ffffff;stroke-linejoin:miter;stroke-width:0.75;" x="365.635041" xlink:href="#m690187c7c5" y="65.977593"/>
     <use style="fill:#98df8a;stroke:#ffffff;stroke-linejoin:miter;stroke-width:0.75;" x="366.908911" xlink:href="#m690187c7c5" y="65.777824"/>
     <use style="fill:#98df8a;stroke:#ffffff;stroke-linejoin:miter;stroke-width:0.75;" x="368.160625" xlink:href="#m690187c7c5" y="69.573431"/>
     <use style="fill:#98df8a;stroke:#ffffff;stroke-linejoin:miter;stroke-width:0.75;" x="369.390942" xlink:href="#m690187c7c5" y="77.564183"/>
     <use style="fill:#98df8a;stroke:#ffffff;stroke-linejoin:miter;stroke-width:0.75;" x="370.60058" xlink:href="#m690187c7c5" y="77.564183"/>
     <use style="fill:#98df8a;stroke:#ffffff;stroke-linejoin:miter;stroke-width:0.75;" x="371.790223" xlink:href="#m690187c7c5" y="76.465454"/>
     <use style="fill:#98df8a;stroke:#ffffff;stroke-linejoin:miter;stroke-width:0.75;" x="372.960521" xlink:href="#m690187c7c5" y="65.478171"/>
     <use style="fill:#98df8a;stroke:#ffffff;stroke-linejoin:miter;stroke-width:0.75;" x="374.112094" xlink:href="#m690187c7c5" y="76.36557"/>
     <use style="fill:#98df8a;stroke:#ffffff;stroke-linejoin:miter;stroke-width:0.75;" x="375.245531" xlink:href="#m690187c7c5" y="61.382911"/>
     <use style="fill:#98df8a;stroke:#ffffff;stroke-linejoin:miter;stroke-width:0.75;" x="376.361395" xlink:href="#m690187c7c5" y="69.373663"/>
     <use style="fill:#98df8a;stroke:#ffffff;stroke-linejoin:miter;stroke-width:0.75;" x="377.460222" xlink:href="#m690187c7c5" y="64.179674"/>
     <use style="fill:#98df8a;stroke:#ffffff;stroke-linejoin:miter;stroke-width:0.75;" x="378.542525" xlink:href="#m690187c7c5" y="68.574587"/>
     <use style="fill:#98df8a;stroke:#ffffff;stroke-linejoin:miter;stroke-width:0.75;" x="379.608793" xlink:href="#m690187c7c5" y="68.574587"/>
     <use style="fill:#98df8a;stroke:#ffffff;stroke-linejoin:miter;stroke-width:0.75;" x="380.659494" xlink:href="#m690187c7c5" y="68.574587"/>
     <use style="fill:#98df8a;stroke:#ffffff;stroke-linejoin:miter;stroke-width:0.75;" x="381.695077" xlink:href="#m690187c7c5" y="63.780137"/>
     <use style="fill:#98df8a;stroke:#ffffff;stroke-linejoin:miter;stroke-width:0.75;" x="382.71597" xlink:href="#m690187c7c5" y="63.780137"/>
     <use style="fill:#98df8a;stroke:#ffffff;stroke-linejoin:miter;stroke-width:0.75;" x="383.722585" xlink:href="#m690187c7c5" y="58.985686"/>
     <use style="fill:#98df8a;stroke:#ffffff;stroke-linejoin:miter;stroke-width:0.75;" x="384.715315" xlink:href="#m690187c7c5" y="68.574587"/>
     <use style="fill:#98df8a;stroke:#ffffff;stroke-linejoin:miter;stroke-width:0.75;" x="385.694538" xlink:href="#m690187c7c5" y="63.680252"/>
     <use style="fill:#98df8a;stroke:#ffffff;stroke-linejoin:miter;stroke-width:0.75;" x="386.660616" xlink:href="#m690187c7c5" y="72.070541"/>
     <use style="fill:#98df8a;stroke:#ffffff;stroke-linejoin:miter;stroke-width:0.75;" x="387.613899" xlink:href="#m690187c7c5" y="61.682564"/>
     <use style="fill:#98df8a;stroke:#ffffff;stroke-linejoin:miter;stroke-width:0.75;" x="388.554719" xlink:href="#m690187c7c5" y="65.278402"/>
     <use style="fill:#98df8a;stroke:#ffffff;stroke-linejoin:miter;stroke-width:0.75;" x="389.4834" xlink:href="#m690187c7c5" y="43.004183"/>
     <use style="fill:#98df8a;stroke:#ffffff;stroke-linejoin:miter;stroke-width:0.75;" x="390.400251" xlink:href="#m690187c7c5" y="67.575743"/>
     <use style="fill:#98df8a;stroke:#ffffff;stroke-linejoin:miter;stroke-width:0.75;" x="391.305568" xlink:href="#m690187c7c5" y="54.790541"/>
     <use style="fill:#98df8a;stroke:#ffffff;stroke-linejoin:miter;stroke-width:0.75;" x="392.199639" xlink:href="#m690187c7c5" y="54.790541"/>
     <use style="fill:#98df8a;stroke:#ffffff;stroke-linejoin:miter;stroke-width:0.75;" x="393.082739" xlink:href="#m690187c7c5" y="63.280715"/>
     <use style="fill:#98df8a;stroke:#ffffff;stroke-linejoin:miter;stroke-width:0.75;" x="393.955135" xlink:href="#m690187c7c5" y="54.590772"/>
     <use style="fill:#98df8a;stroke:#ffffff;stroke-linejoin:miter;stroke-width:0.75;" x="394.817082" xlink:href="#m690187c7c5" y="66.177362"/>
     <use style="fill:#98df8a;stroke:#ffffff;stroke-linejoin:miter;stroke-width:0.75;" x="395.668829" xlink:href="#m690187c7c5" y="53.691813"/>
     <use style="fill:#98df8a;stroke:#ffffff;stroke-linejoin:miter;stroke-width:0.75;" x="396.510614" xlink:href="#m690187c7c5" y="66.177362"/>
     <use style="fill:#98df8a;stroke:#ffffff;stroke-linejoin:miter;stroke-width:0.75;" x="397.342667" xlink:href="#m690187c7c5" y="66.177362"/>
     <use style="fill:#98df8a;stroke:#ffffff;stroke-linejoin:miter;stroke-width:0.75;" x="398.16521" xlink:href="#m690187c7c5" y="66.177362"/>
     <use style="fill:#98df8a;stroke:#ffffff;stroke-linejoin:miter;stroke-width:0.75;" x="398.978459" xlink:href="#m690187c7c5" y="65.777824"/>
     <use style="fill:#98df8a;stroke:#ffffff;stroke-linejoin:miter;stroke-width:0.75;" x="399.782621" xlink:href="#m690187c7c5" y="65.378287"/>
     <use style="fill:#98df8a;stroke:#ffffff;stroke-linejoin:miter;stroke-width:0.75;" x="400.577898" xlink:href="#m690187c7c5" y="64.379443"/>
    </g>
   </g>
   <g id="line2d_33"/>
   <g id="line2d_34"/>
   <g id="patch_3">
    <path d="M 59.690625 266.745223 
L 59.690625 27.02268 
" style="fill:none;stroke:#000000;stroke-linecap:square;stroke-linejoin:miter;stroke-width:0.8;"/>
   </g>
   <g id="patch_4">
    <path d="M 75.923352 288.430125 
L 400.578776 288.430125 
" style="fill:none;stroke:#000000;stroke-linecap:square;stroke-linejoin:miter;stroke-width:0.8;"/>
   </g>
   <g id="text_16">
    <!-- openh264_decoder_fuzzer (22h:45m, 5 trials/fuzzer) -->
    <g transform="translate(80.798438 16.318125)scale(0.12 -0.12)">
     <defs>
      <path d="M 1159 525 
L 1159 -1331 
L 581 -1331 
L 581 3500 
L 1159 3500 
L 1159 2969 
Q 1341 3281 1617 3432 
Q 1894 3584 2278 3584 
Q 2916 3584 3314 3078 
Q 3713 2572 3713 1747 
Q 3713 922 3314 415 
Q 2916 -91 2278 -91 
Q 1894 -91 1617 61 
Q 1341 213 1159 525 
z
M 3116 1747 
Q 3116 2381 2855 2742 
Q 2594 3103 2138 3103 
Q 1681 3103 1420 2742 
Q 1159 2381 1159 1747 
Q 1159 1113 1420 752 
Q 1681 391 2138 391 
Q 2594 391 2855 752 
Q 3116 1113 3116 1747 
z
" id="DejaVuSans-70" transform="scale(0.015625)"/>
      <path d="M 3263 -1063 
L 3263 -1509 
L -63 -1509 
L -63 -1063 
L 3263 -1063 
z
" id="DejaVuSans-5f" transform="scale(0.015625)"/>
      <path d="M 2375 4863 
L 2375 4384 
L 1825 4384 
Q 1516 4384 1395 4259 
Q 1275 4134 1275 3809 
L 1275 3500 
L 2222 3500 
L 2222 3053 
L 1275 3053 
L 1275 0 
L 697 0 
L 697 3053 
L 147 3053 
L 147 3500 
L 697 3500 
L 697 3744 
Q 697 4328 969 4595 
Q 1241 4863 1831 4863 
L 2375 4863 
z
" id="DejaVuSans-66" transform="scale(0.015625)"/>
      <path d="M 353 3500 
L 3084 3500 
L 3084 2975 
L 922 459 
L 3084 459 
L 3084 0 
L 275 0 
L 275 525 
L 2438 3041 
L 353 3041 
L 353 3500 
z
" id="DejaVuSans-7a" transform="scale(0.015625)"/>
      <path d="M 750 794 
L 1409 794 
L 1409 256 
L 897 -744 
L 494 -744 
L 750 256 
L 750 794 
z
" id="DejaVuSans-2c" transform="scale(0.015625)"/>
      <path d="M 603 4863 
L 1178 4863 
L 1178 0 
L 603 0 
L 603 4863 
z
" id="DejaVuSans-6c" transform="scale(0.015625)"/>
      <path d="M 2834 3397 
L 2834 2853 
Q 2591 2978 2328 3040 
Q 2066 3103 1784 3103 
Q 1356 3103 1142 2972 
Q 928 2841 928 2578 
Q 928 2378 1081 2264 
Q 1234 2150 1697 2047 
L 1894 2003 
Q 2506 1872 2764 1633 
Q 3022 1394 3022 966 
Q 3022 478 2636 193 
Q 2250 -91 1575 -91 
Q 1294 -91 989 -36 
Q 684 19 347 128 
L 347 722 
Q 666 556 975 473 
Q 1284 391 1588 391 
Q 1994 391 2212 530 
Q 2431 669 2431 922 
Q 2431 1156 2273 1281 
Q 2116 1406 1581 1522 
L 1381 1569 
Q 847 1681 609 1914 
Q 372 2147 372 2553 
Q 372 3047 722 3315 
Q 1072 3584 1716 3584 
Q 2034 3584 2315 3537 
Q 2597 3491 2834 3397 
z
" id="DejaVuSans-73" transform="scale(0.015625)"/>
      <path d="M 1625 4666 
L 2156 4666 
L 531 -594 
L 0 -594 
L 1625 4666 
z
" id="DejaVuSans-2f" transform="scale(0.015625)"/>
     </defs>
     <use xlink:href="#DejaVuSans-6f"/>
     <use x="61.181641" xlink:href="#DejaVuSans-70"/>
     <use x="124.658203" xlink:href="#DejaVuSans-65"/>
     <use x="186.181641" xlink:href="#DejaVuSans-6e"/>
     <use x="249.560547" xlink:href="#DejaVuSans-68"/>
     <use x="312.939453" xlink:href="#DejaVuSans-32"/>
     <use x="376.5625" xlink:href="#DejaVuSans-36"/>
     <use x="440.185547" xlink:href="#DejaVuSans-34"/>
     <use x="503.808594" xlink:href="#DejaVuSans-5f"/>
     <use x="553.808594" xlink:href="#DejaVuSans-64"/>
     <use x="617.285156" xlink:href="#DejaVuSans-65"/>
     <use x="678.808594" xlink:href="#DejaVuSans-63"/>
     <use x="733.789062" xlink:href="#DejaVuSans-6f"/>
     <use x="794.970703" xlink:href="#DejaVuSans-64"/>
     <use x="858.447266" xlink:href="#DejaVuSans-65"/>
     <use x="919.970703" xlink:href="#DejaVuSans-72"/>
     <use x="961.083984" xlink:href="#DejaVuSans-5f"/>
     <use x="1011.083984" xlink:href="#DejaVuSans-66"/>
     <use x="1046.289062" xlink:href="#DejaVuSans-75"/>
     <use x="1109.667969" xlink:href="#DejaVuSans-7a"/>
     <use x="1162.158203" xlink:href="#DejaVuSans-7a"/>
     <use x="1214.648438" xlink:href="#DejaVuSans-65"/>
     <use x="1276.171875" xlink:href="#DejaVuSans-72"/>
     <use x="1317.285156" xlink:href="#DejaVuSans-20"/>
     <use x="1349.072266" xlink:href="#DejaVuSans-28"/>
     <use x="1388.085938" xlink:href="#DejaVuSans-32"/>
     <use x="1451.708984" xlink:href="#DejaVuSans-32"/>
     <use x="1515.332031" xlink:href="#DejaVuSans-68"/>
     <use x="1578.710938" xlink:href="#DejaVuSans-3a"/>
     <use x="1612.402344" xlink:href="#DejaVuSans-34"/>
     <use x="1676.025391" xlink:href="#DejaVuSans-35"/>
     <use x="1739.648438" xlink:href="#DejaVuSans-6d"/>
     <use x="1837.060547" xlink:href="#DejaVuSans-2c"/>
     <use x="1868.847656" xlink:href="#DejaVuSans-20"/>
     <use x="1900.634766" xlink:href="#DejaVuSans-35"/>
     <use x="1964.257812" xlink:href="#DejaVuSans-20"/>
     <use x="1996.044922" xlink:href="#DejaVuSans-74"/>
     <use x="2035.253906" xlink:href="#DejaVuSans-72"/>
     <use x="2076.367188" xlink:href="#DejaVuSans-69"/>
     <use x="2104.150391" xlink:href="#DejaVuSans-61"/>
     <use x="2165.429688" xlink:href="#DejaVuSans-6c"/>
     <use x="2193.212891" xlink:href="#DejaVuSans-73"/>
     <use x="2245.3125" xlink:href="#DejaVuSans-2f"/>
     <use x="2279.003906" xlink:href="#DejaVuSans-66"/>
     <use x="2314.208984" xlink:href="#DejaVuSans-75"/>
     <use x="2377.587891" xlink:href="#DejaVuSans-7a"/>
     <use x="2430.078125" xlink:href="#DejaVuSans-7a"/>
     <use x="2482.568359" xlink:href="#DejaVuSans-65"/>
     <use x="2544.091797" xlink:href="#DejaVuSans-72"/>
     <use x="2585.205078" xlink:href="#DejaVuSans-29"/>
    </g>
   </g>
   <g id="legend_1">
    <g id="line2d_35">
     <path d="M 420.810625 30.416562 
L 440.810625 30.416562 
" style="fill:none;stroke:#1f77b4;stroke-linecap:square;stroke-width:1.5;"/>
    </g>
    <g id="line2d_36">
     <defs>
      <path d="M 0 3 
C 0.795609 3 1.55874 2.683901 2.12132 2.12132 
C 2.683901 1.55874 3 0.795609 3 0 
C 3 -0.795609 2.683901 -1.55874 2.12132 -2.12132 
C 1.55874 -2.683901 0.795609 -3 0 -3 
C -0.795609 -3 -1.55874 -2.683901 -2.12132 -2.12132 
C -2.683901 -1.55874 -3 -0.795609 -3 0 
C -3 0.795609 -2.683901 1.55874 -2.12132 2.12132 
C -1.55874 2.683901 -0.795609 3 0 3 
z
" id="m6a3395515e" style="stroke:#1f77b4;"/>
     </defs>
     <g>
      <use style="fill:#1f77b4;stroke:#1f77b4;" x="430.810625" xlink:href="#m6a3395515e" y="30.416562"/>
     </g>
    </g>
    <g id="text_17">
     <!-- afl -->
     <g transform="translate(448.810625 33.916562)scale(0.1 -0.1)">
      <use xlink:href="#DejaVuSans-61"/>
      <use x="61.279297" xlink:href="#DejaVuSans-66"/>
      <use x="96.484375" xlink:href="#DejaVuSans-6c"/>
     </g>
    </g>
    <g id="line2d_37">
     <path d="M 420.810625 45.094688 
L 440.810625 45.094688 
" style="fill:none;stroke:#98df8a;stroke-linecap:square;stroke-width:1.5;"/>
    </g>
    <g id="line2d_38">
     <defs>
      <path d="M -0 3 
L 3 -3 
L -3 -3 
z
" id="md67b3ee0c0" style="stroke:#98df8a;stroke-linejoin:miter;"/>
     </defs>
     <g>
      <use style="fill:#98df8a;stroke:#98df8a;stroke-linejoin:miter;" x="430.810625" xlink:href="#md67b3ee0c0" y="45.094688"/>
     </g>
    </g>
    <g id="text_18">
     <!-- afl_splicing_mutation -->
     <g transform="translate(448.810625 48.594688)scale(0.1 -0.1)">
      <use xlink:href="#DejaVuSans-61"/>
      <use x="61.279297" xlink:href="#DejaVuSans-66"/>
      <use x="96.484375" xlink:href="#DejaVuSans-6c"/>
      <use x="124.267578" xlink:href="#DejaVuSans-5f"/>
      <use x="174.267578" xlink:href="#DejaVuSans-73"/>
      <use x="226.367188" xlink:href="#DejaVuSans-70"/>
      <use x="289.84375" xlink:href="#DejaVuSans-6c"/>
      <use x="317.626953" xlink:href="#DejaVuSans-69"/>
      <use x="345.410156" xlink:href="#DejaVuSans-63"/>
      <use x="400.390625" xlink:href="#DejaVuSans-69"/>
      <use x="428.173828" xlink:href="#DejaVuSans-6e"/>
      <use x="491.552734" xlink:href="#DejaVuSans-67"/>
      <use x="555.029297" xlink:href="#DejaVuSans-5f"/>
      <use x="605.029297" xlink:href="#DejaVuSans-6d"/>
      <use x="702.441406" xlink:href="#DejaVuSans-75"/>
      <use x="765.820312" xlink:href="#DejaVuSans-74"/>
      <use x="805.029297" xlink:href="#DejaVuSans-61"/>
      <use x="866.308594" xlink:href="#DejaVuSans-74"/>
      <use x="905.517578" xlink:href="#DejaVuSans-69"/>
      <use x="933.300781" xlink:href="#DejaVuSans-6f"/>
      <use x="994.482422" xlink:href="#DejaVuSans-6e"/>
     </g>
    </g>
   </g>
  </g>
 </g>
 <defs>
  <clipPath id="pf5da42896f">
   <rect height="266.112" width="357.12" x="59.690625" y="22.318125"/>
  </clipPath>
 </defs>
</svg>
