<?xml version="1.0" encoding="utf-8" standalone="no"?>
<!DOCTYPE svg PUBLIC "-//W3C//DTD SVG 1.1//EN"
  "http://www.w3.org/Graphics/SVG/1.1/DTD/svg11.dtd">
<svg height="325.986375pt" version="1.1" viewBox="0 0 559.4325 325.986375" width="559.4325pt" xmlns="http://www.w3.org/2000/svg" xmlns:xlink="http://www.w3.org/1999/xlink">
 <metadata>
  <rdf:RDF xmlns:cc="http://creativecommons.org/ns#" xmlns:dc="http://purl.org/dc/elements/1.1/" xmlns:rdf="http://www.w3.org/1999/02/22-rdf-syntax-ns#">
   <cc:Work>
    <dc:type rdf:resource="http://purl.org/dc/dcmitype/StillImage"/>
    <dc:date>2022-05-31T16:34:09.877486</dc:date>
    <dc:format>image/svg+xml</dc:format>
    <dc:creator>
     <cc:Agent>
      <dc:title>Matplotlib v3.4.3, https://matplotlib.org/</dc:title>
     </cc:Agent>
    </dc:creator>
   </cc:Work>
  </rdf:RDF>
 </metadata>
 <defs>
  <style type="text/css">*{stroke-linecap:butt;stroke-linejoin:round;}</style>
 </defs>
 <g id="figure_1">
  <g id="patch_1">
   <path d="M 0 325.986375 
L 559.4325 325.986375 
L 559.4325 0 
L 0 0 
z
" style="fill:#ffffff;"/>
  </g>
  <g id="axes_1">
   <g id="patch_2">
    <path d="M 53.328125 288.430125 
L 410.448125 288.430125 
L 410.448125 22.318125 
L 53.328125 22.318125 
z
" style="fill:#ffffff;"/>
   </g>
   <g id="PolyCollection_1">
    <defs>
     <path d="M 69.560852 -183.823484 
L 69.560852 -160.819637 
L 119.327306 -184.681356 
L 148.438816 -190.171739 
L 169.09376 -193.946378 
L 185.11498 -194.80425 
L 198.205269 -196.519995 
L 209.272952 -196.519995 
L 218.860214 -197.206293 
L 227.316779 -198.235739 
L 234.881434 -198.235739 
L 241.724496 -198.235739 
L 247.971723 -200.637782 
L 253.718615 -201.152505 
L 259.039406 -201.667229 
L 263.992943 -201.667229 
L 268.626668 -202.010378 
L 272.979383 -202.010378 
L 277.083233 -202.010378 
L 280.965141 -202.181952 
L 284.647888 -202.525101 
L 288.150915 -202.696676 
L 291.49095 -202.86825 
L 294.68249 -203.897697 
L 297.738177 -204.240846 
L 300.669107 -204.575416 
L 303.485069 -204.41242 
L 306.194742 -205.441867 
L 308.805859 -205.441867 
L 311.32534 -205.441867 
L 313.759397 -205.441867 
L 316.113635 -207.157612 
L 318.393122 -207.157612 
L 320.60246 -207.500761 
L 322.745837 -207.487893 
L 324.827079 -206.471314 
L 326.849687 -206.986037 
L 328.816873 -207.500761 
L 330.731595 -207.500761 
L 332.596578 -209.216505 
L 334.414342 -209.216505 
L 336.187217 -209.902803 
L 337.917369 -209.902803 
L 339.606807 -209.216505 
L 341.257404 -210.224505 
L 342.870906 -208.530207 
L 344.448944 -208.530207 
L 345.993042 -208.530207 
L 347.504631 -214.02059 
L 348.985051 -208.530207 
L 350.435561 -208.530207 
L 351.857347 -208.530207 
L 353.251523 -208.530207 
L 354.619142 -208.530207 
L 355.961196 -208.530207 
L 357.278624 -208.530207 
L 358.572313 -208.530207 
L 359.843104 -208.530207 
L 361.091794 -208.530207 
L 362.319136 -208.530207 
L 363.525851 -208.530207 
L 364.712619 -208.530207 
L 365.880089 -208.530207 
L 367.028878 -208.530207 
L 368.159576 -208.530207 
L 369.272743 -218.138378 
L 370.368914 -218.138378 
L 371.4486 -218.138378 
L 372.512291 -218.138378 
L 373.560453 -218.138378 
L 374.593533 -213.334293 
L 375.611959 -213.334293 
L 376.616141 -213.334293 
L 377.606471 -213.334293 
L 378.583327 -218.138378 
L 379.547071 -213.334293 
L 380.498049 -218.138378 
L 381.436596 -213.334293 
L 382.363032 -218.138378 
L 383.277666 -218.138378 
L 384.180795 -218.138378 
L 385.072705 -218.138378 
L 385.953671 -218.138378 
L 386.823958 -218.138378 
L 387.683823 -218.138378 
L 388.533511 -218.138378 
L 389.373261 -218.138378 
L 390.203303 -220.197271 
L 391.023858 -218.138378 
L 391.835142 -218.138378 
L 392.63736 -219.167824 
L 393.430714 -220.197271 
L 394.215398 -220.197271 
L 394.215398 -291.57225 
L 394.215398 -291.57225 
L 393.430714 -291.57225 
L 392.63736 -291.229101 
L 391.835142 -290.885952 
L 391.023858 -290.885952 
L 390.203303 -290.885952 
L 389.373261 -290.885952 
L 388.533511 -291.57225 
L 387.683823 -290.885952 
L 386.823958 -290.885952 
L 385.953671 -290.885952 
L 385.072705 -290.885952 
L 384.180795 -291.229101 
L 383.277666 -290.885952 
L 382.363032 -290.885952 
L 381.436596 -290.885952 
L 380.498049 -287.454463 
L 379.547071 -287.480199 
L 378.583327 -287.454463 
L 377.606471 -285.395569 
L 376.616141 -285.395569 
L 375.611959 -285.395569 
L 374.593533 -286.425016 
L 373.560453 -286.425016 
L 372.512291 -285.395569 
L 371.4486 -285.395569 
L 370.368914 -285.395569 
L 369.272743 -285.395569 
L 368.159576 -285.395569 
L 367.028878 -285.395569 
L 365.880089 -283.336676 
L 364.712619 -283.336676 
L 363.525851 -287.454463 
L 362.319136 -283.336676 
L 361.091794 -283.336676 
L 359.843104 -283.336676 
L 358.572313 -283.336676 
L 357.278624 -283.336676 
L 355.961196 -283.336676 
L 354.619142 -283.336676 
L 353.251523 -283.336676 
L 351.857347 -283.336676 
L 350.435561 -280.248335 
L 348.985051 -279.905186 
L 347.504631 -279.562037 
L 345.993042 -279.562037 
L 344.448944 -279.562037 
L 342.870906 -279.218888 
L 341.257404 -279.733612 
L 339.606807 -279.905186 
L 337.917369 -279.218888 
L 336.187217 -279.218888 
L 334.414342 -275.44425 
L 332.596578 -274.757952 
L 330.731595 -274.414803 
L 328.816873 -271.498037 
L 326.849687 -270.661612 
L 324.827079 -271.498037 
L 322.745837 -271.498037 
L 320.60246 -273.385356 
L 318.393122 -273.042207 
L 316.113635 -272.699059 
L 313.759397 -272.699059 
L 311.32534 -272.699059 
L 308.805859 -272.012761 
L 306.194742 -272.012761 
L 303.485069 -266.865527 
L 300.669107 -261.718293 
L 297.738177 -266.522378 
L 294.68249 -263.605612 
L 291.49095 -262.576165 
L 288.150915 -256.914207 
L 284.647888 -255.884761 
L 280.965141 -253.482718 
L 277.083233 -243.359824 
L 272.979383 -243.359824 
L 268.626668 -228.274139 
L 263.992943 -223.667365 
L 259.039406 -206.128165 
L 253.718615 -206.128165 
L 247.971723 -206.128165 
L 241.724496 -204.240846 
L 234.881434 -203.897697 
L 227.316779 -204.069271 
L 218.860214 -203.039824 
L 209.272952 -201.667229 
L 198.205269 -201.32408 
L 185.11498 -200.294633 
L 169.09376 -199.265186 
L 148.438816 -196.519995 
L 119.327306 -193.946378 
L 69.560852 -183.823484 
z
" id="mf371339928" style="stroke:#98df8a;stroke-opacity:0.2;"/>
    </defs>
    <g clip-path="url(#p5f0a7be3a4)">
     <use style="fill:#98df8a;fill-opacity:0.2;stroke:#98df8a;stroke-opacity:0.2;" x="0" xlink:href="#mf371339928" y="325.986375"/>
    </g>
   </g>
   <g id="PolyCollection_2">
    <defs>
     <path d="M 69.560852 -173.185867 
L 69.560852 -49.65225 
L 119.327306 -150.194888 
L 148.438816 -164.778718 
L 169.09376 -177.646803 
L 185.11498 -181.76459 
L 198.205269 -184.166633 
L 209.272952 -185.882378 
L 218.860214 -185.882378 
L 227.316779 -188.799144 
L 234.881434 -190.686463 
L 241.724496 -190.858037 
L 247.971723 -194.461101 
L 253.718615 -194.461101 
L 259.039406 -193.431654 
L 263.992943 -193.431654 
L 268.626668 -194.80425 
L 272.979383 -196.691569 
L 277.083233 -196.691569 
L 280.965141 -197.206293 
L 284.647888 -197.549441 
L 288.150915 -199.951484 
L 291.49095 -199.428182 
L 294.68249 -198.578888 
L 297.738177 -200.637782 
L 300.669107 -201.32408 
L 303.485069 -202.010378 
L 306.194742 -202.010378 
L 308.805859 -201.495654 
L 311.32534 -200.980931 
L 313.759397 -200.980931 
L 316.113635 -200.980931 
L 318.393122 -200.980931 
L 320.60246 -202.353527 
L 322.745837 -202.696676 
L 324.827079 -202.696676 
L 326.849687 -203.039824 
L 328.816873 -203.382973 
L 330.731595 -203.039824 
L 332.596578 -202.696676 
L 334.414342 -203.382973 
L 336.187217 -203.382973 
L 337.917369 -203.382973 
L 339.606807 -203.382973 
L 341.257404 -203.382973 
L 342.870906 -203.726122 
L 344.448944 -204.41242 
L 345.993042 -204.41242 
L 347.504631 -204.41242 
L 348.985051 -204.069271 
L 350.435561 -204.069271 
L 351.857347 -204.403841 
L 353.251523 -204.403841 
L 354.619142 -204.755569 
L 355.961196 -204.755569 
L 357.278624 -204.755569 
L 358.572313 -205.441867 
L 359.843104 -205.613441 
L 361.091794 -205.613441 
L 362.319136 -205.441867 
L 363.525851 -205.441867 
L 364.712619 -207.157612 
L 365.880089 -206.642888 
L 367.028878 -206.642888 
L 368.159576 -206.642888 
L 369.272743 -206.986037 
L 370.368914 -206.642888 
L 371.4486 -207.157612 
L 372.512291 -207.157612 
L 373.560453 -207.157612 
L 374.593533 -207.157612 
L 375.611959 -207.157612 
L 376.616141 -207.157612 
L 377.606471 -208.530207 
L 378.583327 -208.530207 
L 379.547071 -208.530207 
L 380.498049 -208.015484 
L 381.436596 -208.873356 
L 382.363032 -208.873356 
L 383.277666 -208.873356 
L 384.180795 -208.873356 
L 385.072705 -208.873356 
L 385.953671 -208.873356 
L 386.823958 -208.873356 
L 387.683823 -208.873356 
L 388.533511 -208.015484 
L 389.373261 -208.530207 
L 390.203303 -208.530207 
L 391.023858 -208.015484 
L 391.835142 -208.873356 
L 392.63736 -208.873356 
L 393.430714 -212.991144 
L 394.215398 -212.991144 
L 394.215398 -287.111314 
L 394.215398 -287.111314 
L 393.430714 -287.111314 
L 392.63736 -287.111314 
L 391.835142 -287.111314 
L 391.023858 -286.768165 
L 390.203303 -286.768165 
L 389.373261 -286.425016 
L 388.533511 -286.425016 
L 387.683823 -287.111314 
L 386.823958 -287.111314 
L 385.953671 -287.111314 
L 385.072705 -287.111314 
L 384.180795 -287.111314 
L 383.277666 -287.111314 
L 382.363032 -287.111314 
L 381.436596 -287.111314 
L 380.498049 -286.768165 
L 379.547071 -286.433595 
L 378.583327 -286.768165 
L 377.606471 -286.425016 
L 376.616141 -287.111314 
L 375.611959 -287.111314 
L 374.593533 -287.111314 
L 373.560453 -287.111314 
L 372.512291 -287.111314 
L 371.4486 -287.111314 
L 370.368914 -285.395569 
L 369.272743 -286.253441 
L 368.159576 -286.253441 
L 367.028878 -285.395569 
L 365.880089 -286.253441 
L 364.712619 -287.111314 
L 363.525851 -285.395569 
L 362.319136 -285.395569 
L 361.091794 -281.792505 
L 359.843104 -276.996999 
L 358.572313 -276.98842 
L 357.278624 -278.875739 
L 355.961196 -278.875739 
L 354.619142 -276.98842 
L 353.251523 -276.98842 
L 351.857347 -276.98842 
L 350.435561 -276.645271 
L 348.985051 -276.98842 
L 347.504631 -275.795978 
L 345.993042 -275.44425 
L 344.448944 -275.44425 
L 342.870906 -275.101101 
L 341.257404 -274.414803 
L 339.606807 -275.101101 
L 337.917369 -275.101101 
L 336.187217 -275.101101 
L 334.414342 -275.101101 
L 332.596578 -275.101101 
L 330.731595 -274.243229 
L 328.816873 -267.208676 
L 326.849687 -268.066548 
L 324.827079 -267.551824 
L 322.745837 -267.037101 
L 320.60246 -267.208676 
L 318.393122 -267.208676 
L 316.113635 -266.865527 
L 313.759397 -266.865527 
L 311.32534 -266.179229 
L 308.805859 -260.002548 
L 306.194742 -247.306037 
L 303.485069 -246.619739 
L 300.669107 -242.845101 
L 297.738177 -224.315059 
L 294.68249 -219.854122 
L 291.49095 -209.731229 
L 288.150915 -209.559654 
L 284.647888 -209.38808 
L 280.965141 -208.358633 
L 277.083233 -205.973748 
L 272.979383 -205.785016 
L 268.626668 -205.785016 
L 263.992943 -207.84391 
L 259.039406 -205.441867 
L 253.718615 -205.441867 
L 247.971723 -204.41242 
L 241.724496 -199.436761 
L 234.881434 -199.436761 
L 227.316779 -200.466207 
L 218.860214 -200.294633 
L 209.272952 -200.294633 
L 198.205269 -198.235739 
L 185.11498 -196.880301 
L 169.09376 -197.206293 
L 148.438816 -197.034718 
L 119.327306 -187.941271 
L 69.560852 -173.185867 
z
" id="mf362bdc19e" style="stroke:#1f77b4;stroke-opacity:0.2;"/>
    </defs>
    <g clip-path="url(#p5f0a7be3a4)">
     <use style="fill:#1f77b4;fill-opacity:0.2;stroke:#1f77b4;stroke-opacity:0.2;" x="0" xlink:href="#mf362bdc19e" y="325.986375"/>
    </g>
   </g>
   <g id="matplotlib.axis_1">
    <g id="xtick_1">
     <g id="line2d_1">
      <defs>
       <path d="M 0 0 
L 0 3.5 
" id="mee6c00761f" style="stroke:#000000;stroke-width:0.8;"/>
      </defs>
      <g>
       <use style="stroke:#000000;stroke-width:0.8;" x="69.560852" xlink:href="#mee6c00761f" y="288.430125"/>
      </g>
     </g>
     <g id="text_1">
      <!-- 14m -->
      <g transform="translate(58.32804 303.028562)scale(0.1 -0.1)">
       <defs>
        <path d="M 794 531 
L 1825 531 
L 1825 4091 
L 703 3866 
L 703 4441 
L 1819 4666 
L 2450 4666 
L 2450 531 
L 3481 531 
L 3481 0 
L 794 0 
L 794 531 
z
" id="DejaVuSans-31" transform="scale(0.015625)"/>
        <path d="M 2419 4116 
L 825 1625 
L 2419 1625 
L 2419 4116 
z
M 2253 4666 
L 3047 4666 
L 3047 1625 
L 3713 1625 
L 3713 1100 
L 3047 1100 
L 3047 0 
L 2419 0 
L 2419 1100 
L 313 1100 
L 313 1709 
L 2253 4666 
z
" id="DejaVuSans-34" transform="scale(0.015625)"/>
        <path d="M 3328 2828 
Q 3544 3216 3844 3400 
Q 4144 3584 4550 3584 
Q 5097 3584 5394 3201 
Q 5691 2819 5691 2113 
L 5691 0 
L 5113 0 
L 5113 2094 
Q 5113 2597 4934 2840 
Q 4756 3084 4391 3084 
Q 3944 3084 3684 2787 
Q 3425 2491 3425 1978 
L 3425 0 
L 2847 0 
L 2847 2094 
Q 2847 2600 2669 2842 
Q 2491 3084 2119 3084 
Q 1678 3084 1418 2786 
Q 1159 2488 1159 1978 
L 1159 0 
L 581 0 
L 581 3500 
L 1159 3500 
L 1159 2956 
Q 1356 3278 1631 3431 
Q 1906 3584 2284 3584 
Q 2666 3584 2933 3390 
Q 3200 3197 3328 2828 
z
" id="DejaVuSans-6d" transform="scale(0.015625)"/>
       </defs>
       <use xlink:href="#DejaVuSans-31"/>
       <use x="63.623047" xlink:href="#DejaVuSans-34"/>
       <use x="127.246094" xlink:href="#DejaVuSans-6d"/>
      </g>
     </g>
    </g>
    <g id="xtick_2">
     <g id="line2d_2">
      <g>
       <use style="stroke:#000000;stroke-width:0.8;" x="134.491935" xlink:href="#mee6c00761f" y="288.430125"/>
      </g>
     </g>
     <g id="text_2">
      <!-- 37m -->
      <g transform="translate(123.259122 303.028562)scale(0.1 -0.1)">
       <defs>
        <path d="M 2597 2516 
Q 3050 2419 3304 2112 
Q 3559 1806 3559 1356 
Q 3559 666 3084 287 
Q 2609 -91 1734 -91 
Q 1441 -91 1130 -33 
Q 819 25 488 141 
L 488 750 
Q 750 597 1062 519 
Q 1375 441 1716 441 
Q 2309 441 2620 675 
Q 2931 909 2931 1356 
Q 2931 1769 2642 2001 
Q 2353 2234 1838 2234 
L 1294 2234 
L 1294 2753 
L 1863 2753 
Q 2328 2753 2575 2939 
Q 2822 3125 2822 3475 
Q 2822 3834 2567 4026 
Q 2313 4219 1838 4219 
Q 1578 4219 1281 4162 
Q 984 4106 628 3988 
L 628 4550 
Q 988 4650 1302 4700 
Q 1616 4750 1894 4750 
Q 2613 4750 3031 4423 
Q 3450 4097 3450 3541 
Q 3450 3153 3228 2886 
Q 3006 2619 2597 2516 
z
" id="DejaVuSans-33" transform="scale(0.015625)"/>
        <path d="M 525 4666 
L 3525 4666 
L 3525 4397 
L 1831 0 
L 1172 0 
L 2766 4134 
L 525 4134 
L 525 4666 
z
" id="DejaVuSans-37" transform="scale(0.015625)"/>
       </defs>
       <use xlink:href="#DejaVuSans-33"/>
       <use x="63.623047" xlink:href="#DejaVuSans-37"/>
       <use x="127.246094" xlink:href="#DejaVuSans-6d"/>
      </g>
     </g>
    </g>
    <g id="xtick_3">
     <g id="line2d_3">
      <g>
       <use style="stroke:#000000;stroke-width:0.8;" x="199.423017" xlink:href="#mee6c00761f" y="288.430125"/>
      </g>
     </g>
     <g id="text_3">
      <!-- 1h:31m -->
      <g transform="translate(180.15583 303.028562)scale(0.1 -0.1)">
       <defs>
        <path d="M 3513 2113 
L 3513 0 
L 2938 0 
L 2938 2094 
Q 2938 2591 2744 2837 
Q 2550 3084 2163 3084 
Q 1697 3084 1428 2787 
Q 1159 2491 1159 1978 
L 1159 0 
L 581 0 
L 581 4863 
L 1159 4863 
L 1159 2956 
Q 1366 3272 1645 3428 
Q 1925 3584 2291 3584 
Q 2894 3584 3203 3211 
Q 3513 2838 3513 2113 
z
" id="DejaVuSans-68" transform="scale(0.015625)"/>
        <path d="M 750 794 
L 1409 794 
L 1409 0 
L 750 0 
L 750 794 
z
M 750 3309 
L 1409 3309 
L 1409 2516 
L 750 2516 
L 750 3309 
z
" id="DejaVuSans-3a" transform="scale(0.015625)"/>
       </defs>
       <use xlink:href="#DejaVuSans-31"/>
       <use x="63.623047" xlink:href="#DejaVuSans-68"/>
       <use x="127.001953" xlink:href="#DejaVuSans-3a"/>
       <use x="160.693359" xlink:href="#DejaVuSans-33"/>
       <use x="224.316406" xlink:href="#DejaVuSans-31"/>
       <use x="287.939453" xlink:href="#DejaVuSans-6d"/>
      </g>
     </g>
    </g>
    <g id="xtick_4">
     <g id="line2d_4">
      <g>
       <use style="stroke:#000000;stroke-width:0.8;" x="264.3541" xlink:href="#mee6c00761f" y="288.430125"/>
      </g>
     </g>
     <g id="text_4">
      <!-- 3h:46m -->
      <g transform="translate(245.086912 303.028562)scale(0.1 -0.1)">
       <defs>
        <path d="M 2113 2584 
Q 1688 2584 1439 2293 
Q 1191 2003 1191 1497 
Q 1191 994 1439 701 
Q 1688 409 2113 409 
Q 2538 409 2786 701 
Q 3034 994 3034 1497 
Q 3034 2003 2786 2293 
Q 2538 2584 2113 2584 
z
M 3366 4563 
L 3366 3988 
Q 3128 4100 2886 4159 
Q 2644 4219 2406 4219 
Q 1781 4219 1451 3797 
Q 1122 3375 1075 2522 
Q 1259 2794 1537 2939 
Q 1816 3084 2150 3084 
Q 2853 3084 3261 2657 
Q 3669 2231 3669 1497 
Q 3669 778 3244 343 
Q 2819 -91 2113 -91 
Q 1303 -91 875 529 
Q 447 1150 447 2328 
Q 447 3434 972 4092 
Q 1497 4750 2381 4750 
Q 2619 4750 2861 4703 
Q 3103 4656 3366 4563 
z
" id="DejaVuSans-36" transform="scale(0.015625)"/>
       </defs>
       <use xlink:href="#DejaVuSans-33"/>
       <use x="63.623047" xlink:href="#DejaVuSans-68"/>
       <use x="127.001953" xlink:href="#DejaVuSans-3a"/>
       <use x="160.693359" xlink:href="#DejaVuSans-34"/>
       <use x="224.316406" xlink:href="#DejaVuSans-36"/>
       <use x="287.939453" xlink:href="#DejaVuSans-6d"/>
      </g>
     </g>
    </g>
    <g id="xtick_5">
     <g id="line2d_5">
      <g>
       <use style="stroke:#000000;stroke-width:0.8;" x="329.285182" xlink:href="#mee6c00761f" y="288.430125"/>
      </g>
     </g>
     <g id="text_5">
      <!-- 9h:18m -->
      <g transform="translate(310.017995 303.028562)scale(0.1 -0.1)">
       <defs>
        <path d="M 703 97 
L 703 672 
Q 941 559 1184 500 
Q 1428 441 1663 441 
Q 2288 441 2617 861 
Q 2947 1281 2994 2138 
Q 2813 1869 2534 1725 
Q 2256 1581 1919 1581 
Q 1219 1581 811 2004 
Q 403 2428 403 3163 
Q 403 3881 828 4315 
Q 1253 4750 1959 4750 
Q 2769 4750 3195 4129 
Q 3622 3509 3622 2328 
Q 3622 1225 3098 567 
Q 2575 -91 1691 -91 
Q 1453 -91 1209 -44 
Q 966 3 703 97 
z
M 1959 2075 
Q 2384 2075 2632 2365 
Q 2881 2656 2881 3163 
Q 2881 3666 2632 3958 
Q 2384 4250 1959 4250 
Q 1534 4250 1286 3958 
Q 1038 3666 1038 3163 
Q 1038 2656 1286 2365 
Q 1534 2075 1959 2075 
z
" id="DejaVuSans-39" transform="scale(0.015625)"/>
        <path d="M 2034 2216 
Q 1584 2216 1326 1975 
Q 1069 1734 1069 1313 
Q 1069 891 1326 650 
Q 1584 409 2034 409 
Q 2484 409 2743 651 
Q 3003 894 3003 1313 
Q 3003 1734 2745 1975 
Q 2488 2216 2034 2216 
z
M 1403 2484 
Q 997 2584 770 2862 
Q 544 3141 544 3541 
Q 544 4100 942 4425 
Q 1341 4750 2034 4750 
Q 2731 4750 3128 4425 
Q 3525 4100 3525 3541 
Q 3525 3141 3298 2862 
Q 3072 2584 2669 2484 
Q 3125 2378 3379 2068 
Q 3634 1759 3634 1313 
Q 3634 634 3220 271 
Q 2806 -91 2034 -91 
Q 1263 -91 848 271 
Q 434 634 434 1313 
Q 434 1759 690 2068 
Q 947 2378 1403 2484 
z
M 1172 3481 
Q 1172 3119 1398 2916 
Q 1625 2713 2034 2713 
Q 2441 2713 2670 2916 
Q 2900 3119 2900 3481 
Q 2900 3844 2670 4047 
Q 2441 4250 2034 4250 
Q 1625 4250 1398 4047 
Q 1172 3844 1172 3481 
z
" id="DejaVuSans-38" transform="scale(0.015625)"/>
       </defs>
       <use xlink:href="#DejaVuSans-39"/>
       <use x="63.623047" xlink:href="#DejaVuSans-68"/>
       <use x="127.001953" xlink:href="#DejaVuSans-3a"/>
       <use x="160.693359" xlink:href="#DejaVuSans-31"/>
       <use x="224.316406" xlink:href="#DejaVuSans-38"/>
       <use x="287.939453" xlink:href="#DejaVuSans-6d"/>
      </g>
     </g>
    </g>
    <g id="xtick_6">
     <g id="line2d_6">
      <g>
       <use style="stroke:#000000;stroke-width:0.8;" x="394.216265" xlink:href="#mee6c00761f" y="288.430125"/>
      </g>
     </g>
     <g id="text_6">
      <!-- 23h -->
      <g transform="translate(384.685015 303.028562)scale(0.1 -0.1)">
       <defs>
        <path d="M 1228 531 
L 3431 531 
L 3431 0 
L 469 0 
L 469 531 
Q 828 903 1448 1529 
Q 2069 2156 2228 2338 
Q 2531 2678 2651 2914 
Q 2772 3150 2772 3378 
Q 2772 3750 2511 3984 
Q 2250 4219 1831 4219 
Q 1534 4219 1204 4116 
Q 875 4013 500 3803 
L 500 4441 
Q 881 4594 1212 4672 
Q 1544 4750 1819 4750 
Q 2544 4750 2975 4387 
Q 3406 4025 3406 3419 
Q 3406 3131 3298 2873 
Q 3191 2616 2906 2266 
Q 2828 2175 2409 1742 
Q 1991 1309 1228 531 
z
" id="DejaVuSans-32" transform="scale(0.015625)"/>
       </defs>
       <use xlink:href="#DejaVuSans-32"/>
       <use x="63.623047" xlink:href="#DejaVuSans-33"/>
       <use x="127.246094" xlink:href="#DejaVuSans-68"/>
      </g>
     </g>
    </g>
    <g id="xtick_7">
     <g id="line2d_7">
      <defs>
       <path d="M 0 0 
L 0 2 
" id="mdc86c8aeb3" style="stroke:#000000;stroke-width:0.6;"/>
      </defs>
      <g>
       <use style="stroke:#000000;stroke-width:0.6;" x="61.104288" xlink:href="#mdc86c8aeb3" y="288.430125"/>
      </g>
     </g>
    </g>
    <g id="xtick_8">
     <g id="line2d_8">
      <g>
       <use style="stroke:#000000;stroke-width:0.6;" x="126.891961" xlink:href="#mdc86c8aeb3" y="288.430125"/>
      </g>
     </g>
    </g>
    <g id="xtick_9">
     <g id="line2d_9">
      <g>
       <use style="stroke:#000000;stroke-width:0.6;" x="156.00347" xlink:href="#mdc86c8aeb3" y="288.430125"/>
      </g>
     </g>
    </g>
    <g id="xtick_10">
     <g id="line2d_10">
      <g>
       <use style="stroke:#000000;stroke-width:0.6;" x="176.658415" xlink:href="#mdc86c8aeb3" y="288.430125"/>
      </g>
     </g>
    </g>
    <g id="xtick_11">
     <g id="line2d_11">
      <g>
       <use style="stroke:#000000;stroke-width:0.6;" x="192.679635" xlink:href="#mdc86c8aeb3" y="288.430125"/>
      </g>
     </g>
    </g>
    <g id="xtick_12">
     <g id="line2d_12">
      <g>
       <use style="stroke:#000000;stroke-width:0.6;" x="205.769924" xlink:href="#mdc86c8aeb3" y="288.430125"/>
      </g>
     </g>
    </g>
    <g id="xtick_13">
     <g id="line2d_13">
      <g>
       <use style="stroke:#000000;stroke-width:0.6;" x="216.837607" xlink:href="#mdc86c8aeb3" y="288.430125"/>
      </g>
     </g>
    </g>
    <g id="xtick_14">
     <g id="line2d_14">
      <g>
       <use style="stroke:#000000;stroke-width:0.6;" x="226.424869" xlink:href="#mdc86c8aeb3" y="288.430125"/>
      </g>
     </g>
    </g>
    <g id="xtick_15">
     <g id="line2d_15">
      <g>
       <use style="stroke:#000000;stroke-width:0.6;" x="234.881434" xlink:href="#mdc86c8aeb3" y="288.430125"/>
      </g>
     </g>
    </g>
    <g id="xtick_16">
     <g id="line2d_16">
      <g>
       <use style="stroke:#000000;stroke-width:0.6;" x="292.212543" xlink:href="#mdc86c8aeb3" y="288.430125"/>
      </g>
     </g>
    </g>
    <g id="xtick_17">
     <g id="line2d_17">
      <g>
       <use style="stroke:#000000;stroke-width:0.6;" x="321.324052" xlink:href="#mdc86c8aeb3" y="288.430125"/>
      </g>
     </g>
    </g>
    <g id="xtick_18">
     <g id="line2d_18">
      <g>
       <use style="stroke:#000000;stroke-width:0.6;" x="341.978996" xlink:href="#mdc86c8aeb3" y="288.430125"/>
      </g>
     </g>
    </g>
    <g id="xtick_19">
     <g id="line2d_19">
      <g>
       <use style="stroke:#000000;stroke-width:0.6;" x="358.000216" xlink:href="#mdc86c8aeb3" y="288.430125"/>
      </g>
     </g>
    </g>
    <g id="xtick_20">
     <g id="line2d_20">
      <g>
       <use style="stroke:#000000;stroke-width:0.6;" x="371.090506" xlink:href="#mdc86c8aeb3" y="288.430125"/>
      </g>
     </g>
    </g>
    <g id="xtick_21">
     <g id="line2d_21">
      <g>
       <use style="stroke:#000000;stroke-width:0.6;" x="382.158188" xlink:href="#mdc86c8aeb3" y="288.430125"/>
      </g>
     </g>
    </g>
    <g id="xtick_22">
     <g id="line2d_22">
      <g>
       <use style="stroke:#000000;stroke-width:0.6;" x="391.74545" xlink:href="#mdc86c8aeb3" y="288.430125"/>
      </g>
     </g>
    </g>
    <g id="xtick_23">
     <g id="line2d_23">
      <g>
       <use style="stroke:#000000;stroke-width:0.6;" x="400.202015" xlink:href="#mdc86c8aeb3" y="288.430125"/>
      </g>
     </g>
    </g>
    <g id="text_7">
     <!-- Time (hour:minute) -->
     <g transform="translate(183.481094 316.706687)scale(0.1 -0.1)">
      <defs>
       <path d="M -19 4666 
L 3928 4666 
L 3928 4134 
L 2272 4134 
L 2272 0 
L 1638 0 
L 1638 4134 
L -19 4134 
L -19 4666 
z
" id="DejaVuSans-54" transform="scale(0.015625)"/>
       <path d="M 603 3500 
L 1178 3500 
L 1178 0 
L 603 0 
L 603 3500 
z
M 603 4863 
L 1178 4863 
L 1178 4134 
L 603 4134 
L 603 4863 
z
" id="DejaVuSans-69" transform="scale(0.015625)"/>
       <path d="M 3597 1894 
L 3597 1613 
L 953 1613 
Q 991 1019 1311 708 
Q 1631 397 2203 397 
Q 2534 397 2845 478 
Q 3156 559 3463 722 
L 3463 178 
Q 3153 47 2828 -22 
Q 2503 -91 2169 -91 
Q 1331 -91 842 396 
Q 353 884 353 1716 
Q 353 2575 817 3079 
Q 1281 3584 2069 3584 
Q 2775 3584 3186 3129 
Q 3597 2675 3597 1894 
z
M 3022 2063 
Q 3016 2534 2758 2815 
Q 2500 3097 2075 3097 
Q 1594 3097 1305 2825 
Q 1016 2553 972 2059 
L 3022 2063 
z
" id="DejaVuSans-65" transform="scale(0.015625)"/>
       <path id="DejaVuSans-20" transform="scale(0.015625)"/>
       <path d="M 1984 4856 
Q 1566 4138 1362 3434 
Q 1159 2731 1159 2009 
Q 1159 1288 1364 580 
Q 1569 -128 1984 -844 
L 1484 -844 
Q 1016 -109 783 600 
Q 550 1309 550 2009 
Q 550 2706 781 3412 
Q 1013 4119 1484 4856 
L 1984 4856 
z
" id="DejaVuSans-28" transform="scale(0.015625)"/>
       <path d="M 1959 3097 
Q 1497 3097 1228 2736 
Q 959 2375 959 1747 
Q 959 1119 1226 758 
Q 1494 397 1959 397 
Q 2419 397 2687 759 
Q 2956 1122 2956 1747 
Q 2956 2369 2687 2733 
Q 2419 3097 1959 3097 
z
M 1959 3584 
Q 2709 3584 3137 3096 
Q 3566 2609 3566 1747 
Q 3566 888 3137 398 
Q 2709 -91 1959 -91 
Q 1206 -91 779 398 
Q 353 888 353 1747 
Q 353 2609 779 3096 
Q 1206 3584 1959 3584 
z
" id="DejaVuSans-6f" transform="scale(0.015625)"/>
       <path d="M 544 1381 
L 544 3500 
L 1119 3500 
L 1119 1403 
Q 1119 906 1312 657 
Q 1506 409 1894 409 
Q 2359 409 2629 706 
Q 2900 1003 2900 1516 
L 2900 3500 
L 3475 3500 
L 3475 0 
L 2900 0 
L 2900 538 
Q 2691 219 2414 64 
Q 2138 -91 1772 -91 
Q 1169 -91 856 284 
Q 544 659 544 1381 
z
M 1991 3584 
L 1991 3584 
z
" id="DejaVuSans-75" transform="scale(0.015625)"/>
       <path d="M 2631 2963 
Q 2534 3019 2420 3045 
Q 2306 3072 2169 3072 
Q 1681 3072 1420 2755 
Q 1159 2438 1159 1844 
L 1159 0 
L 581 0 
L 581 3500 
L 1159 3500 
L 1159 2956 
Q 1341 3275 1631 3429 
Q 1922 3584 2338 3584 
Q 2397 3584 2469 3576 
Q 2541 3569 2628 3553 
L 2631 2963 
z
" id="DejaVuSans-72" transform="scale(0.015625)"/>
       <path d="M 3513 2113 
L 3513 0 
L 2938 0 
L 2938 2094 
Q 2938 2591 2744 2837 
Q 2550 3084 2163 3084 
Q 1697 3084 1428 2787 
Q 1159 2491 1159 1978 
L 1159 0 
L 581 0 
L 581 3500 
L 1159 3500 
L 1159 2956 
Q 1366 3272 1645 3428 
Q 1925 3584 2291 3584 
Q 2894 3584 3203 3211 
Q 3513 2838 3513 2113 
z
" id="DejaVuSans-6e" transform="scale(0.015625)"/>
       <path d="M 1172 4494 
L 1172 3500 
L 2356 3500 
L 2356 3053 
L 1172 3053 
L 1172 1153 
Q 1172 725 1289 603 
Q 1406 481 1766 481 
L 2356 481 
L 2356 0 
L 1766 0 
Q 1100 0 847 248 
Q 594 497 594 1153 
L 594 3053 
L 172 3053 
L 172 3500 
L 594 3500 
L 594 4494 
L 1172 4494 
z
" id="DejaVuSans-74" transform="scale(0.015625)"/>
       <path d="M 513 4856 
L 1013 4856 
Q 1481 4119 1714 3412 
Q 1947 2706 1947 2009 
Q 1947 1309 1714 600 
Q 1481 -109 1013 -844 
L 513 -844 
Q 928 -128 1133 580 
Q 1338 1288 1338 2009 
Q 1338 2731 1133 3434 
Q 928 4138 513 4856 
z
" id="DejaVuSans-29" transform="scale(0.015625)"/>
      </defs>
      <use xlink:href="#DejaVuSans-54"/>
      <use x="57.958984" xlink:href="#DejaVuSans-69"/>
      <use x="85.742188" xlink:href="#DejaVuSans-6d"/>
      <use x="183.154297" xlink:href="#DejaVuSans-65"/>
      <use x="244.677734" xlink:href="#DejaVuSans-20"/>
      <use x="276.464844" xlink:href="#DejaVuSans-28"/>
      <use x="315.478516" xlink:href="#DejaVuSans-68"/>
      <use x="378.857422" xlink:href="#DejaVuSans-6f"/>
      <use x="440.039062" xlink:href="#DejaVuSans-75"/>
      <use x="503.417969" xlink:href="#DejaVuSans-72"/>
      <use x="542.78125" xlink:href="#DejaVuSans-3a"/>
      <use x="576.472656" xlink:href="#DejaVuSans-6d"/>
      <use x="673.884766" xlink:href="#DejaVuSans-69"/>
      <use x="701.667969" xlink:href="#DejaVuSans-6e"/>
      <use x="765.046875" xlink:href="#DejaVuSans-75"/>
      <use x="828.425781" xlink:href="#DejaVuSans-74"/>
      <use x="867.634766" xlink:href="#DejaVuSans-65"/>
      <use x="929.158203" xlink:href="#DejaVuSans-29"/>
     </g>
    </g>
   </g>
   <g id="matplotlib.axis_2">
    <g id="ytick_1">
     <g id="line2d_24">
      <defs>
       <path d="M 0 0 
L -3.5 0 
" id="mbd0aeaa61e" style="stroke:#000000;stroke-width:0.8;"/>
      </defs>
      <g>
       <use style="stroke:#000000;stroke-width:0.8;" x="53.328125" xlink:href="#mbd0aeaa61e" y="261.235572"/>
      </g>
     </g>
     <g id="text_8">
      <!-- 2000 -->
      <g transform="translate(20.878125 265.034791)scale(0.1 -0.1)">
       <defs>
        <path d="M 2034 4250 
Q 1547 4250 1301 3770 
Q 1056 3291 1056 2328 
Q 1056 1369 1301 889 
Q 1547 409 2034 409 
Q 2525 409 2770 889 
Q 3016 1369 3016 2328 
Q 3016 3291 2770 3770 
Q 2525 4250 2034 4250 
z
M 2034 4750 
Q 2819 4750 3233 4129 
Q 3647 3509 3647 2328 
Q 3647 1150 3233 529 
Q 2819 -91 2034 -91 
Q 1250 -91 836 529 
Q 422 1150 422 2328 
Q 422 3509 836 4129 
Q 1250 4750 2034 4750 
z
" id="DejaVuSans-30" transform="scale(0.015625)"/>
       </defs>
       <use xlink:href="#DejaVuSans-32"/>
       <use x="63.623047" xlink:href="#DejaVuSans-30"/>
       <use x="127.246094" xlink:href="#DejaVuSans-30"/>
       <use x="190.869141" xlink:href="#DejaVuSans-30"/>
      </g>
     </g>
    </g>
    <g id="ytick_2">
     <g id="line2d_25">
      <g>
       <use style="stroke:#000000;stroke-width:0.8;" x="53.328125" xlink:href="#mbd0aeaa61e" y="226.920678"/>
      </g>
     </g>
     <g id="text_9">
      <!-- 2100 -->
      <g transform="translate(20.878125 230.719897)scale(0.1 -0.1)">
       <use xlink:href="#DejaVuSans-32"/>
       <use x="63.623047" xlink:href="#DejaVuSans-31"/>
       <use x="127.246094" xlink:href="#DejaVuSans-30"/>
       <use x="190.869141" xlink:href="#DejaVuSans-30"/>
      </g>
     </g>
    </g>
    <g id="ytick_3">
     <g id="line2d_26">
      <g>
       <use style="stroke:#000000;stroke-width:0.8;" x="53.328125" xlink:href="#mbd0aeaa61e" y="192.605785"/>
      </g>
     </g>
     <g id="text_10">
      <!-- 2200 -->
      <g transform="translate(20.878125 196.405003)scale(0.1 -0.1)">
       <use xlink:href="#DejaVuSans-32"/>
       <use x="63.623047" xlink:href="#DejaVuSans-32"/>
       <use x="127.246094" xlink:href="#DejaVuSans-30"/>
       <use x="190.869141" xlink:href="#DejaVuSans-30"/>
      </g>
     </g>
    </g>
    <g id="ytick_4">
     <g id="line2d_27">
      <g>
       <use style="stroke:#000000;stroke-width:0.8;" x="53.328125" xlink:href="#mbd0aeaa61e" y="158.290891"/>
      </g>
     </g>
     <g id="text_11">
      <!-- 2300 -->
      <g transform="translate(20.878125 162.09011)scale(0.1 -0.1)">
       <use xlink:href="#DejaVuSans-32"/>
       <use x="63.623047" xlink:href="#DejaVuSans-33"/>
       <use x="127.246094" xlink:href="#DejaVuSans-30"/>
       <use x="190.869141" xlink:href="#DejaVuSans-30"/>
      </g>
     </g>
    </g>
    <g id="ytick_5">
     <g id="line2d_28">
      <g>
       <use style="stroke:#000000;stroke-width:0.8;" x="53.328125" xlink:href="#mbd0aeaa61e" y="123.975997"/>
      </g>
     </g>
     <g id="text_12">
      <!-- 2400 -->
      <g transform="translate(20.878125 127.775216)scale(0.1 -0.1)">
       <use xlink:href="#DejaVuSans-32"/>
       <use x="63.623047" xlink:href="#DejaVuSans-34"/>
       <use x="127.246094" xlink:href="#DejaVuSans-30"/>
       <use x="190.869141" xlink:href="#DejaVuSans-30"/>
      </g>
     </g>
    </g>
    <g id="ytick_6">
     <g id="line2d_29">
      <g>
       <use style="stroke:#000000;stroke-width:0.8;" x="53.328125" xlink:href="#mbd0aeaa61e" y="89.661104"/>
      </g>
     </g>
     <g id="text_13">
      <!-- 2500 -->
      <g transform="translate(20.878125 93.460322)scale(0.1 -0.1)">
       <defs>
        <path d="M 691 4666 
L 3169 4666 
L 3169 4134 
L 1269 4134 
L 1269 2991 
Q 1406 3038 1543 3061 
Q 1681 3084 1819 3084 
Q 2600 3084 3056 2656 
Q 3513 2228 3513 1497 
Q 3513 744 3044 326 
Q 2575 -91 1722 -91 
Q 1428 -91 1123 -41 
Q 819 9 494 109 
L 494 744 
Q 775 591 1075 516 
Q 1375 441 1709 441 
Q 2250 441 2565 725 
Q 2881 1009 2881 1497 
Q 2881 1984 2565 2268 
Q 2250 2553 1709 2553 
Q 1456 2553 1204 2497 
Q 953 2441 691 2322 
L 691 4666 
z
" id="DejaVuSans-35" transform="scale(0.015625)"/>
       </defs>
       <use xlink:href="#DejaVuSans-32"/>
       <use x="63.623047" xlink:href="#DejaVuSans-35"/>
       <use x="127.246094" xlink:href="#DejaVuSans-30"/>
       <use x="190.869141" xlink:href="#DejaVuSans-30"/>
      </g>
     </g>
    </g>
    <g id="ytick_7">
     <g id="line2d_30">
      <g>
       <use style="stroke:#000000;stroke-width:0.8;" x="53.328125" xlink:href="#mbd0aeaa61e" y="55.34621"/>
      </g>
     </g>
     <g id="text_14">
      <!-- 2600 -->
      <g transform="translate(20.878125 59.145429)scale(0.1 -0.1)">
       <use xlink:href="#DejaVuSans-32"/>
       <use x="63.623047" xlink:href="#DejaVuSans-36"/>
       <use x="127.246094" xlink:href="#DejaVuSans-30"/>
       <use x="190.869141" xlink:href="#DejaVuSans-30"/>
      </g>
     </g>
    </g>
    <g id="text_15">
     <!-- Code region coverage -->
     <g transform="translate(14.798438 210.379594)rotate(-90)scale(0.1 -0.1)">
      <defs>
       <path d="M 4122 4306 
L 4122 3641 
Q 3803 3938 3442 4084 
Q 3081 4231 2675 4231 
Q 1875 4231 1450 3742 
Q 1025 3253 1025 2328 
Q 1025 1406 1450 917 
Q 1875 428 2675 428 
Q 3081 428 3442 575 
Q 3803 722 4122 1019 
L 4122 359 
Q 3791 134 3420 21 
Q 3050 -91 2638 -91 
Q 1578 -91 968 557 
Q 359 1206 359 2328 
Q 359 3453 968 4101 
Q 1578 4750 2638 4750 
Q 3056 4750 3426 4639 
Q 3797 4528 4122 4306 
z
" id="DejaVuSans-43" transform="scale(0.015625)"/>
       <path d="M 2906 2969 
L 2906 4863 
L 3481 4863 
L 3481 0 
L 2906 0 
L 2906 525 
Q 2725 213 2448 61 
Q 2172 -91 1784 -91 
Q 1150 -91 751 415 
Q 353 922 353 1747 
Q 353 2572 751 3078 
Q 1150 3584 1784 3584 
Q 2172 3584 2448 3432 
Q 2725 3281 2906 2969 
z
M 947 1747 
Q 947 1113 1208 752 
Q 1469 391 1925 391 
Q 2381 391 2643 752 
Q 2906 1113 2906 1747 
Q 2906 2381 2643 2742 
Q 2381 3103 1925 3103 
Q 1469 3103 1208 2742 
Q 947 2381 947 1747 
z
" id="DejaVuSans-64" transform="scale(0.015625)"/>
       <path d="M 2906 1791 
Q 2906 2416 2648 2759 
Q 2391 3103 1925 3103 
Q 1463 3103 1205 2759 
Q 947 2416 947 1791 
Q 947 1169 1205 825 
Q 1463 481 1925 481 
Q 2391 481 2648 825 
Q 2906 1169 2906 1791 
z
M 3481 434 
Q 3481 -459 3084 -895 
Q 2688 -1331 1869 -1331 
Q 1566 -1331 1297 -1286 
Q 1028 -1241 775 -1147 
L 775 -588 
Q 1028 -725 1275 -790 
Q 1522 -856 1778 -856 
Q 2344 -856 2625 -561 
Q 2906 -266 2906 331 
L 2906 616 
Q 2728 306 2450 153 
Q 2172 0 1784 0 
Q 1141 0 747 490 
Q 353 981 353 1791 
Q 353 2603 747 3093 
Q 1141 3584 1784 3584 
Q 2172 3584 2450 3431 
Q 2728 3278 2906 2969 
L 2906 3500 
L 3481 3500 
L 3481 434 
z
" id="DejaVuSans-67" transform="scale(0.015625)"/>
       <path d="M 3122 3366 
L 3122 2828 
Q 2878 2963 2633 3030 
Q 2388 3097 2138 3097 
Q 1578 3097 1268 2742 
Q 959 2388 959 1747 
Q 959 1106 1268 751 
Q 1578 397 2138 397 
Q 2388 397 2633 464 
Q 2878 531 3122 666 
L 3122 134 
Q 2881 22 2623 -34 
Q 2366 -91 2075 -91 
Q 1284 -91 818 406 
Q 353 903 353 1747 
Q 353 2603 823 3093 
Q 1294 3584 2113 3584 
Q 2378 3584 2631 3529 
Q 2884 3475 3122 3366 
z
" id="DejaVuSans-63" transform="scale(0.015625)"/>
       <path d="M 191 3500 
L 800 3500 
L 1894 563 
L 2988 3500 
L 3597 3500 
L 2284 0 
L 1503 0 
L 191 3500 
z
" id="DejaVuSans-76" transform="scale(0.015625)"/>
       <path d="M 2194 1759 
Q 1497 1759 1228 1600 
Q 959 1441 959 1056 
Q 959 750 1161 570 
Q 1363 391 1709 391 
Q 2188 391 2477 730 
Q 2766 1069 2766 1631 
L 2766 1759 
L 2194 1759 
z
M 3341 1997 
L 3341 0 
L 2766 0 
L 2766 531 
Q 2569 213 2275 61 
Q 1981 -91 1556 -91 
Q 1019 -91 701 211 
Q 384 513 384 1019 
Q 384 1609 779 1909 
Q 1175 2209 1959 2209 
L 2766 2209 
L 2766 2266 
Q 2766 2663 2505 2880 
Q 2244 3097 1772 3097 
Q 1472 3097 1187 3025 
Q 903 2953 641 2809 
L 641 3341 
Q 956 3463 1253 3523 
Q 1550 3584 1831 3584 
Q 2591 3584 2966 3190 
Q 3341 2797 3341 1997 
z
" id="DejaVuSans-61" transform="scale(0.015625)"/>
      </defs>
      <use xlink:href="#DejaVuSans-43"/>
      <use x="69.824219" xlink:href="#DejaVuSans-6f"/>
      <use x="131.005859" xlink:href="#DejaVuSans-64"/>
      <use x="194.482422" xlink:href="#DejaVuSans-65"/>
      <use x="256.005859" xlink:href="#DejaVuSans-20"/>
      <use x="287.792969" xlink:href="#DejaVuSans-72"/>
      <use x="326.65625" xlink:href="#DejaVuSans-65"/>
      <use x="388.179688" xlink:href="#DejaVuSans-67"/>
      <use x="451.65625" xlink:href="#DejaVuSans-69"/>
      <use x="479.439453" xlink:href="#DejaVuSans-6f"/>
      <use x="540.621094" xlink:href="#DejaVuSans-6e"/>
      <use x="604" xlink:href="#DejaVuSans-20"/>
      <use x="635.787109" xlink:href="#DejaVuSans-63"/>
      <use x="690.767578" xlink:href="#DejaVuSans-6f"/>
      <use x="751.949219" xlink:href="#DejaVuSans-76"/>
      <use x="811.128906" xlink:href="#DejaVuSans-65"/>
      <use x="872.652344" xlink:href="#DejaVuSans-72"/>
      <use x="913.765625" xlink:href="#DejaVuSans-61"/>
      <use x="975.044922" xlink:href="#DejaVuSans-67"/>
      <use x="1038.521484" xlink:href="#DejaVuSans-65"/>
     </g>
    </g>
   </g>
   <g id="line2d_31">
    <path clip-path="url(#p5f0a7be3a4)" d="M 69.560852 157.08987 
L 119.327306 137.358806 
L 148.438816 131.525274 
L 169.09376 128.265359 
L 185.11498 127.92221 
L 198.205269 127.92221 
L 209.272952 126.206465 
L 218.860214 125.348593 
L 227.316779 125.005444 
L 234.881434 124.319146 
L 241.724496 124.319146 
L 247.971723 123.118125 
L 253.718615 123.118125 
L 259.039406 123.118125 
L 263.992943 122.774976 
L 268.626668 120.887657 
L 272.979383 120.887657 
L 277.083233 120.029785 
L 280.965141 119.686636 
L 284.647888 119.686636 
L 288.150915 119.686636 
L 291.49095 119.686636 
L 294.68249 119.686636 
L 297.738177 118.828763 
L 300.669107 118.828763 
L 303.485069 118.828763 
L 306.194742 118.485614 
L 308.805859 118.142465 
L 311.32534 118.142465 
L 313.759397 117.799316 
L 316.113635 111.965785 
L 318.393122 111.965785 
L 320.60246 111.965785 
L 322.745837 114.196253 
L 324.827079 114.196253 
L 326.849687 114.024678 
L 328.816873 114.024678 
L 330.731595 99.783997 
L 332.596578 62.552338 
L 334.414342 61.694465 
L 336.187217 56.375657 
L 337.917369 56.375657 
L 339.606807 59.120848 
L 341.257404 59.120848 
L 342.870906 63.581785 
L 344.448944 57.919827 
L 345.993042 55.174636 
L 347.504631 52.601019 
L 348.985051 55.003061 
L 350.435561 50.885274 
L 351.857347 50.885274 
L 353.251523 49.512678 
L 354.619142 49.512678 
L 355.961196 49.512678 
L 357.278624 49.512678 
L 358.572313 49.512678 
L 359.843104 49.512678 
L 361.091794 49.512678 
L 362.319136 49.512678 
L 363.525851 49.512678 
L 364.712619 49.512678 
L 365.880089 49.512678 
L 367.028878 49.512678 
L 368.159576 49.512678 
L 369.272743 49.512678 
L 370.368914 49.512678 
L 371.4486 49.512678 
L 372.512291 49.512678 
L 373.560453 47.968508 
L 374.593533 49.684253 
L 375.611959 49.684253 
L 376.616141 49.684253 
L 377.606471 49.684253 
L 378.583327 47.968508 
L 379.547071 47.968508 
L 380.498049 47.28221 
L 381.436596 45.051742 
L 382.363032 45.051742 
L 383.277666 45.051742 
L 384.180795 45.051742 
L 385.072705 49.512678 
L 385.953671 49.512678 
L 386.823958 45.051742 
L 387.683823 45.051742 
L 388.533511 49.512678 
L 389.373261 49.512678 
L 390.203303 45.051742 
L 391.023858 49.512678 
L 391.835142 54.316763 
L 392.63736 45.051742 
L 393.430714 40.590806 
L 394.215398 40.590806 
" style="fill:none;stroke:#98df8a;stroke-linecap:square;stroke-width:1.5;"/>
    <defs>
     <path d="M -0 3 
L 3 -3 
L -3 -3 
z
" id="m7cf26e151d" style="stroke:#ffffff;stroke-linejoin:miter;stroke-width:0.75;"/>
    </defs>
    <g clip-path="url(#p5f0a7be3a4)">
     <use style="fill:#98df8a;stroke:#ffffff;stroke-linejoin:miter;stroke-width:0.75;" x="69.560852" xlink:href="#m7cf26e151d" y="157.08987"/>
     <use style="fill:#98df8a;stroke:#ffffff;stroke-linejoin:miter;stroke-width:0.75;" x="119.327306" xlink:href="#m7cf26e151d" y="137.358806"/>
     <use style="fill:#98df8a;stroke:#ffffff;stroke-linejoin:miter;stroke-width:0.75;" x="148.438816" xlink:href="#m7cf26e151d" y="131.525274"/>
     <use style="fill:#98df8a;stroke:#ffffff;stroke-linejoin:miter;stroke-width:0.75;" x="169.09376" xlink:href="#m7cf26e151d" y="128.265359"/>
     <use style="fill:#98df8a;stroke:#ffffff;stroke-linejoin:miter;stroke-width:0.75;" x="185.11498" xlink:href="#m7cf26e151d" y="127.92221"/>
     <use style="fill:#98df8a;stroke:#ffffff;stroke-linejoin:miter;stroke-width:0.75;" x="198.205269" xlink:href="#m7cf26e151d" y="127.92221"/>
     <use style="fill:#98df8a;stroke:#ffffff;stroke-linejoin:miter;stroke-width:0.75;" x="209.272952" xlink:href="#m7cf26e151d" y="126.206465"/>
     <use style="fill:#98df8a;stroke:#ffffff;stroke-linejoin:miter;stroke-width:0.75;" x="218.860214" xlink:href="#m7cf26e151d" y="125.348593"/>
     <use style="fill:#98df8a;stroke:#ffffff;stroke-linejoin:miter;stroke-width:0.75;" x="227.316779" xlink:href="#m7cf26e151d" y="125.005444"/>
     <use style="fill:#98df8a;stroke:#ffffff;stroke-linejoin:miter;stroke-width:0.75;" x="234.881434" xlink:href="#m7cf26e151d" y="124.319146"/>
     <use style="fill:#98df8a;stroke:#ffffff;stroke-linejoin:miter;stroke-width:0.75;" x="241.724496" xlink:href="#m7cf26e151d" y="124.319146"/>
     <use style="fill:#98df8a;stroke:#ffffff;stroke-linejoin:miter;stroke-width:0.75;" x="247.971723" xlink:href="#m7cf26e151d" y="123.118125"/>
     <use style="fill:#98df8a;stroke:#ffffff;stroke-linejoin:miter;stroke-width:0.75;" x="253.718615" xlink:href="#m7cf26e151d" y="123.118125"/>
     <use style="fill:#98df8a;stroke:#ffffff;stroke-linejoin:miter;stroke-width:0.75;" x="259.039406" xlink:href="#m7cf26e151d" y="123.118125"/>
     <use style="fill:#98df8a;stroke:#ffffff;stroke-linejoin:miter;stroke-width:0.75;" x="263.992943" xlink:href="#m7cf26e151d" y="122.774976"/>
     <use style="fill:#98df8a;stroke:#ffffff;stroke-linejoin:miter;stroke-width:0.75;" x="268.626668" xlink:href="#m7cf26e151d" y="120.887657"/>
     <use style="fill:#98df8a;stroke:#ffffff;stroke-linejoin:miter;stroke-width:0.75;" x="272.979383" xlink:href="#m7cf26e151d" y="120.887657"/>
     <use style="fill:#98df8a;stroke:#ffffff;stroke-linejoin:miter;stroke-width:0.75;" x="277.083233" xlink:href="#m7cf26e151d" y="120.029785"/>
     <use style="fill:#98df8a;stroke:#ffffff;stroke-linejoin:miter;stroke-width:0.75;" x="280.965141" xlink:href="#m7cf26e151d" y="119.686636"/>
     <use style="fill:#98df8a;stroke:#ffffff;stroke-linejoin:miter;stroke-width:0.75;" x="284.647888" xlink:href="#m7cf26e151d" y="119.686636"/>
     <use style="fill:#98df8a;stroke:#ffffff;stroke-linejoin:miter;stroke-width:0.75;" x="288.150915" xlink:href="#m7cf26e151d" y="119.686636"/>
     <use style="fill:#98df8a;stroke:#ffffff;stroke-linejoin:miter;stroke-width:0.75;" x="291.49095" xlink:href="#m7cf26e151d" y="119.686636"/>
     <use style="fill:#98df8a;stroke:#ffffff;stroke-linejoin:miter;stroke-width:0.75;" x="294.68249" xlink:href="#m7cf26e151d" y="119.686636"/>
     <use style="fill:#98df8a;stroke:#ffffff;stroke-linejoin:miter;stroke-width:0.75;" x="297.738177" xlink:href="#m7cf26e151d" y="118.828763"/>
     <use style="fill:#98df8a;stroke:#ffffff;stroke-linejoin:miter;stroke-width:0.75;" x="300.669107" xlink:href="#m7cf26e151d" y="118.828763"/>
     <use style="fill:#98df8a;stroke:#ffffff;stroke-linejoin:miter;stroke-width:0.75;" x="303.485069" xlink:href="#m7cf26e151d" y="118.828763"/>
     <use style="fill:#98df8a;stroke:#ffffff;stroke-linejoin:miter;stroke-width:0.75;" x="306.194742" xlink:href="#m7cf26e151d" y="118.485614"/>
     <use style="fill:#98df8a;stroke:#ffffff;stroke-linejoin:miter;stroke-width:0.75;" x="308.805859" xlink:href="#m7cf26e151d" y="118.142465"/>
     <use style="fill:#98df8a;stroke:#ffffff;stroke-linejoin:miter;stroke-width:0.75;" x="311.32534" xlink:href="#m7cf26e151d" y="118.142465"/>
     <use style="fill:#98df8a;stroke:#ffffff;stroke-linejoin:miter;stroke-width:0.75;" x="313.759397" xlink:href="#m7cf26e151d" y="117.799316"/>
     <use style="fill:#98df8a;stroke:#ffffff;stroke-linejoin:miter;stroke-width:0.75;" x="316.113635" xlink:href="#m7cf26e151d" y="111.965785"/>
     <use style="fill:#98df8a;stroke:#ffffff;stroke-linejoin:miter;stroke-width:0.75;" x="318.393122" xlink:href="#m7cf26e151d" y="111.965785"/>
     <use style="fill:#98df8a;stroke:#ffffff;stroke-linejoin:miter;stroke-width:0.75;" x="320.60246" xlink:href="#m7cf26e151d" y="111.965785"/>
     <use style="fill:#98df8a;stroke:#ffffff;stroke-linejoin:miter;stroke-width:0.75;" x="322.745837" xlink:href="#m7cf26e151d" y="114.196253"/>
     <use style="fill:#98df8a;stroke:#ffffff;stroke-linejoin:miter;stroke-width:0.75;" x="324.827079" xlink:href="#m7cf26e151d" y="114.196253"/>
     <use style="fill:#98df8a;stroke:#ffffff;stroke-linejoin:miter;stroke-width:0.75;" x="326.849687" xlink:href="#m7cf26e151d" y="114.024678"/>
     <use style="fill:#98df8a;stroke:#ffffff;stroke-linejoin:miter;stroke-width:0.75;" x="328.816873" xlink:href="#m7cf26e151d" y="114.024678"/>
     <use style="fill:#98df8a;stroke:#ffffff;stroke-linejoin:miter;stroke-width:0.75;" x="330.731595" xlink:href="#m7cf26e151d" y="99.783997"/>
     <use style="fill:#98df8a;stroke:#ffffff;stroke-linejoin:miter;stroke-width:0.75;" x="332.596578" xlink:href="#m7cf26e151d" y="62.552338"/>
     <use style="fill:#98df8a;stroke:#ffffff;stroke-linejoin:miter;stroke-width:0.75;" x="334.414342" xlink:href="#m7cf26e151d" y="61.694465"/>
     <use style="fill:#98df8a;stroke:#ffffff;stroke-linejoin:miter;stroke-width:0.75;" x="336.187217" xlink:href="#m7cf26e151d" y="56.375657"/>
     <use style="fill:#98df8a;stroke:#ffffff;stroke-linejoin:miter;stroke-width:0.75;" x="337.917369" xlink:href="#m7cf26e151d" y="56.375657"/>
     <use style="fill:#98df8a;stroke:#ffffff;stroke-linejoin:miter;stroke-width:0.75;" x="339.606807" xlink:href="#m7cf26e151d" y="59.120848"/>
     <use style="fill:#98df8a;stroke:#ffffff;stroke-linejoin:miter;stroke-width:0.75;" x="341.257404" xlink:href="#m7cf26e151d" y="59.120848"/>
     <use style="fill:#98df8a;stroke:#ffffff;stroke-linejoin:miter;stroke-width:0.75;" x="342.870906" xlink:href="#m7cf26e151d" y="63.581785"/>
     <use style="fill:#98df8a;stroke:#ffffff;stroke-linejoin:miter;stroke-width:0.75;" x="344.448944" xlink:href="#m7cf26e151d" y="57.919827"/>
     <use style="fill:#98df8a;stroke:#ffffff;stroke-linejoin:miter;stroke-width:0.75;" x="345.993042" xlink:href="#m7cf26e151d" y="55.174636"/>
     <use style="fill:#98df8a;stroke:#ffffff;stroke-linejoin:miter;stroke-width:0.75;" x="347.504631" xlink:href="#m7cf26e151d" y="52.601019"/>
     <use style="fill:#98df8a;stroke:#ffffff;stroke-linejoin:miter;stroke-width:0.75;" x="348.985051" xlink:href="#m7cf26e151d" y="55.003061"/>
     <use style="fill:#98df8a;stroke:#ffffff;stroke-linejoin:miter;stroke-width:0.75;" x="350.435561" xlink:href="#m7cf26e151d" y="50.885274"/>
     <use style="fill:#98df8a;stroke:#ffffff;stroke-linejoin:miter;stroke-width:0.75;" x="351.857347" xlink:href="#m7cf26e151d" y="50.885274"/>
     <use style="fill:#98df8a;stroke:#ffffff;stroke-linejoin:miter;stroke-width:0.75;" x="353.251523" xlink:href="#m7cf26e151d" y="49.512678"/>
     <use style="fill:#98df8a;stroke:#ffffff;stroke-linejoin:miter;stroke-width:0.75;" x="354.619142" xlink:href="#m7cf26e151d" y="49.512678"/>
     <use style="fill:#98df8a;stroke:#ffffff;stroke-linejoin:miter;stroke-width:0.75;" x="355.961196" xlink:href="#m7cf26e151d" y="49.512678"/>
     <use style="fill:#98df8a;stroke:#ffffff;stroke-linejoin:miter;stroke-width:0.75;" x="357.278624" xlink:href="#m7cf26e151d" y="49.512678"/>
     <use style="fill:#98df8a;stroke:#ffffff;stroke-linejoin:miter;stroke-width:0.75;" x="358.572313" xlink:href="#m7cf26e151d" y="49.512678"/>
     <use style="fill:#98df8a;stroke:#ffffff;stroke-linejoin:miter;stroke-width:0.75;" x="359.843104" xlink:href="#m7cf26e151d" y="49.512678"/>
     <use style="fill:#98df8a;stroke:#ffffff;stroke-linejoin:miter;stroke-width:0.75;" x="361.091794" xlink:href="#m7cf26e151d" y="49.512678"/>
     <use style="fill:#98df8a;stroke:#ffffff;stroke-linejoin:miter;stroke-width:0.75;" x="362.319136" xlink:href="#m7cf26e151d" y="49.512678"/>
     <use style="fill:#98df8a;stroke:#ffffff;stroke-linejoin:miter;stroke-width:0.75;" x="363.525851" xlink:href="#m7cf26e151d" y="49.512678"/>
     <use style="fill:#98df8a;stroke:#ffffff;stroke-linejoin:miter;stroke-width:0.75;" x="364.712619" xlink:href="#m7cf26e151d" y="49.512678"/>
     <use style="fill:#98df8a;stroke:#ffffff;stroke-linejoin:miter;stroke-width:0.75;" x="365.880089" xlink:href="#m7cf26e151d" y="49.512678"/>
     <use style="fill:#98df8a;stroke:#ffffff;stroke-linejoin:miter;stroke-width:0.75;" x="367.028878" xlink:href="#m7cf26e151d" y="49.512678"/>
     <use style="fill:#98df8a;stroke:#ffffff;stroke-linejoin:miter;stroke-width:0.75;" x="368.159576" xlink:href="#m7cf26e151d" y="49.512678"/>
     <use style="fill:#98df8a;stroke:#ffffff;stroke-linejoin:miter;stroke-width:0.75;" x="369.272743" xlink:href="#m7cf26e151d" y="49.512678"/>
     <use style="fill:#98df8a;stroke:#ffffff;stroke-linejoin:miter;stroke-width:0.75;" x="370.368914" xlink:href="#m7cf26e151d" y="49.512678"/>
     <use style="fill:#98df8a;stroke:#ffffff;stroke-linejoin:miter;stroke-width:0.75;" x="371.4486" xlink:href="#m7cf26e151d" y="49.512678"/>
     <use style="fill:#98df8a;stroke:#ffffff;stroke-linejoin:miter;stroke-width:0.75;" x="372.512291" xlink:href="#m7cf26e151d" y="49.512678"/>
     <use style="fill:#98df8a;stroke:#ffffff;stroke-linejoin:miter;stroke-width:0.75;" x="373.560453" xlink:href="#m7cf26e151d" y="47.968508"/>
     <use style="fill:#98df8a;stroke:#ffffff;stroke-linejoin:miter;stroke-width:0.75;" x="374.593533" xlink:href="#m7cf26e151d" y="49.684253"/>
     <use style="fill:#98df8a;stroke:#ffffff;stroke-linejoin:miter;stroke-width:0.75;" x="375.611959" xlink:href="#m7cf26e151d" y="49.684253"/>
     <use style="fill:#98df8a;stroke:#ffffff;stroke-linejoin:miter;stroke-width:0.75;" x="376.616141" xlink:href="#m7cf26e151d" y="49.684253"/>
     <use style="fill:#98df8a;stroke:#ffffff;stroke-linejoin:miter;stroke-width:0.75;" x="377.606471" xlink:href="#m7cf26e151d" y="49.684253"/>
     <use style="fill:#98df8a;stroke:#ffffff;stroke-linejoin:miter;stroke-width:0.75;" x="378.583327" xlink:href="#m7cf26e151d" y="47.968508"/>
     <use style="fill:#98df8a;stroke:#ffffff;stroke-linejoin:miter;stroke-width:0.75;" x="379.547071" xlink:href="#m7cf26e151d" y="47.968508"/>
     <use style="fill:#98df8a;stroke:#ffffff;stroke-linejoin:miter;stroke-width:0.75;" x="380.498049" xlink:href="#m7cf26e151d" y="47.28221"/>
     <use style="fill:#98df8a;stroke:#ffffff;stroke-linejoin:miter;stroke-width:0.75;" x="381.436596" xlink:href="#m7cf26e151d" y="45.051742"/>
     <use style="fill:#98df8a;stroke:#ffffff;stroke-linejoin:miter;stroke-width:0.75;" x="382.363032" xlink:href="#m7cf26e151d" y="45.051742"/>
     <use style="fill:#98df8a;stroke:#ffffff;stroke-linejoin:miter;stroke-width:0.75;" x="383.277666" xlink:href="#m7cf26e151d" y="45.051742"/>
     <use style="fill:#98df8a;stroke:#ffffff;stroke-linejoin:miter;stroke-width:0.75;" x="384.180795" xlink:href="#m7cf26e151d" y="45.051742"/>
     <use style="fill:#98df8a;stroke:#ffffff;stroke-linejoin:miter;stroke-width:0.75;" x="385.072705" xlink:href="#m7cf26e151d" y="49.512678"/>
     <use style="fill:#98df8a;stroke:#ffffff;stroke-linejoin:miter;stroke-width:0.75;" x="385.953671" xlink:href="#m7cf26e151d" y="49.512678"/>
     <use style="fill:#98df8a;stroke:#ffffff;stroke-linejoin:miter;stroke-width:0.75;" x="386.823958" xlink:href="#m7cf26e151d" y="45.051742"/>
     <use style="fill:#98df8a;stroke:#ffffff;stroke-linejoin:miter;stroke-width:0.75;" x="387.683823" xlink:href="#m7cf26e151d" y="45.051742"/>
     <use style="fill:#98df8a;stroke:#ffffff;stroke-linejoin:miter;stroke-width:0.75;" x="388.533511" xlink:href="#m7cf26e151d" y="49.512678"/>
     <use style="fill:#98df8a;stroke:#ffffff;stroke-linejoin:miter;stroke-width:0.75;" x="389.373261" xlink:href="#m7cf26e151d" y="49.512678"/>
     <use style="fill:#98df8a;stroke:#ffffff;stroke-linejoin:miter;stroke-width:0.75;" x="390.203303" xlink:href="#m7cf26e151d" y="45.051742"/>
     <use style="fill:#98df8a;stroke:#ffffff;stroke-linejoin:miter;stroke-width:0.75;" x="391.023858" xlink:href="#m7cf26e151d" y="49.512678"/>
     <use style="fill:#98df8a;stroke:#ffffff;stroke-linejoin:miter;stroke-width:0.75;" x="391.835142" xlink:href="#m7cf26e151d" y="54.316763"/>
     <use style="fill:#98df8a;stroke:#ffffff;stroke-linejoin:miter;stroke-width:0.75;" x="392.63736" xlink:href="#m7cf26e151d" y="45.051742"/>
     <use style="fill:#98df8a;stroke:#ffffff;stroke-linejoin:miter;stroke-width:0.75;" x="393.430714" xlink:href="#m7cf26e151d" y="40.590806"/>
     <use style="fill:#98df8a;stroke:#ffffff;stroke-linejoin:miter;stroke-width:0.75;" x="394.215398" xlink:href="#m7cf26e151d" y="40.590806"/>
    </g>
   </g>
   <g id="line2d_32">
    <path clip-path="url(#p5f0a7be3a4)" d="M 69.560852 184.37021 
L 119.327306 150.055316 
L 148.438816 147.138551 
L 169.09376 136.329359 
L 185.11498 134.44204 
L 198.205269 135.98621 
L 209.272952 135.98621 
L 218.860214 132.89787 
L 227.316779 131.353699 
L 234.881434 131.010551 
L 241.724496 130.152678 
L 247.971723 128.780082 
L 253.718615 128.780082 
L 259.039406 128.265359 
L 263.992943 129.123231 
L 268.626668 127.235912 
L 272.979383 125.177019 
L 277.083233 125.177019 
L 280.965141 123.804423 
L 284.647888 123.804423 
L 288.150915 122.946551 
L 291.49095 123.461274 
L 294.68249 123.975997 
L 297.738177 122.946551 
L 300.669107 120.029785 
L 303.485069 120.544508 
L 306.194742 119.171912 
L 308.805859 119.515061 
L 311.32534 118.828763 
L 313.759397 118.828763 
L 316.113635 118.828763 
L 318.393122 118.828763 
L 320.60246 118.828763 
L 322.745837 118.828763 
L 324.827079 118.828763 
L 326.849687 109.906891 
L 328.816873 118.828763 
L 330.731595 119.515061 
L 332.596578 118.828763 
L 334.414342 118.828763 
L 336.187217 118.828763 
L 337.917369 118.828763 
L 339.606807 118.828763 
L 341.257404 118.828763 
L 342.870906 118.828763 
L 344.448944 118.828763 
L 345.993042 118.828763 
L 347.504631 118.828763 
L 348.985051 90.690551 
L 350.435561 89.317955 
L 351.857347 88.631657 
L 353.251523 87.430636 
L 354.619142 87.430636 
L 355.961196 87.259061 
L 357.278624 87.259061 
L 358.572313 112.652082 
L 359.843104 112.652082 
L 361.091794 112.652082 
L 362.319136 107.161699 
L 363.525851 107.161699 
L 364.712619 107.161699 
L 365.880089 108.019572 
L 367.028878 108.019572 
L 368.159576 108.019572 
L 369.272743 108.019572 
L 370.368914 108.019572 
L 371.4486 107.161699 
L 372.512291 107.161699 
L 373.560453 107.161699 
L 374.593533 107.161699 
L 375.611959 107.161699 
L 376.616141 107.161699 
L 377.606471 93.435742 
L 378.583327 93.435742 
L 379.547071 93.435742 
L 380.498049 93.435742 
L 381.436596 79.709785 
L 382.363032 79.709785 
L 383.277666 79.709785 
L 384.180795 79.709785 
L 385.072705 79.709785 
L 385.953671 79.709785 
L 386.823958 79.709785 
L 387.683823 79.709785 
L 388.533511 93.435742 
L 389.373261 93.435742 
L 390.203303 93.435742 
L 391.023858 93.435742 
L 391.835142 79.709785 
L 392.63736 60.150295 
L 393.430714 55.174636 
L 394.215398 55.174636 
" style="fill:none;stroke:#1f77b4;stroke-linecap:square;stroke-width:1.5;"/>
    <defs>
     <path d="M 0 3 
C 0.795609 3 1.55874 2.683901 2.12132 2.12132 
C 2.683901 1.55874 3 0.795609 3 0 
C 3 -0.795609 2.683901 -1.55874 2.12132 -2.12132 
C 1.55874 -2.683901 0.795609 -3 0 -3 
C -0.795609 -3 -1.55874 -2.683901 -2.12132 -2.12132 
C -2.683901 -1.55874 -3 -0.795609 -3 0 
C -3 0.795609 -2.683901 1.55874 -2.12132 2.12132 
C -1.55874 2.683901 -0.795609 3 0 3 
z
" id="mafc0a95508" style="stroke:#ffffff;stroke-width:0.75;"/>
    </defs>
    <g clip-path="url(#p5f0a7be3a4)">
     <use style="fill:#1f77b4;stroke:#ffffff;stroke-width:0.75;" x="69.560852" xlink:href="#mafc0a95508" y="184.37021"/>
     <use style="fill:#1f77b4;stroke:#ffffff;stroke-width:0.75;" x="119.327306" xlink:href="#mafc0a95508" y="150.055316"/>
     <use style="fill:#1f77b4;stroke:#ffffff;stroke-width:0.75;" x="148.438816" xlink:href="#mafc0a95508" y="147.138551"/>
     <use style="fill:#1f77b4;stroke:#ffffff;stroke-width:0.75;" x="169.09376" xlink:href="#mafc0a95508" y="136.329359"/>
     <use style="fill:#1f77b4;stroke:#ffffff;stroke-width:0.75;" x="185.11498" xlink:href="#mafc0a95508" y="134.44204"/>
     <use style="fill:#1f77b4;stroke:#ffffff;stroke-width:0.75;" x="198.205269" xlink:href="#mafc0a95508" y="135.98621"/>
     <use style="fill:#1f77b4;stroke:#ffffff;stroke-width:0.75;" x="209.272952" xlink:href="#mafc0a95508" y="135.98621"/>
     <use style="fill:#1f77b4;stroke:#ffffff;stroke-width:0.75;" x="218.860214" xlink:href="#mafc0a95508" y="132.89787"/>
     <use style="fill:#1f77b4;stroke:#ffffff;stroke-width:0.75;" x="227.316779" xlink:href="#mafc0a95508" y="131.353699"/>
     <use style="fill:#1f77b4;stroke:#ffffff;stroke-width:0.75;" x="234.881434" xlink:href="#mafc0a95508" y="131.010551"/>
     <use style="fill:#1f77b4;stroke:#ffffff;stroke-width:0.75;" x="241.724496" xlink:href="#mafc0a95508" y="130.152678"/>
     <use style="fill:#1f77b4;stroke:#ffffff;stroke-width:0.75;" x="247.971723" xlink:href="#mafc0a95508" y="128.780082"/>
     <use style="fill:#1f77b4;stroke:#ffffff;stroke-width:0.75;" x="253.718615" xlink:href="#mafc0a95508" y="128.780082"/>
     <use style="fill:#1f77b4;stroke:#ffffff;stroke-width:0.75;" x="259.039406" xlink:href="#mafc0a95508" y="128.265359"/>
     <use style="fill:#1f77b4;stroke:#ffffff;stroke-width:0.75;" x="263.992943" xlink:href="#mafc0a95508" y="129.123231"/>
     <use style="fill:#1f77b4;stroke:#ffffff;stroke-width:0.75;" x="268.626668" xlink:href="#mafc0a95508" y="127.235912"/>
     <use style="fill:#1f77b4;stroke:#ffffff;stroke-width:0.75;" x="272.979383" xlink:href="#mafc0a95508" y="125.177019"/>
     <use style="fill:#1f77b4;stroke:#ffffff;stroke-width:0.75;" x="277.083233" xlink:href="#mafc0a95508" y="125.177019"/>
     <use style="fill:#1f77b4;stroke:#ffffff;stroke-width:0.75;" x="280.965141" xlink:href="#mafc0a95508" y="123.804423"/>
     <use style="fill:#1f77b4;stroke:#ffffff;stroke-width:0.75;" x="284.647888" xlink:href="#mafc0a95508" y="123.804423"/>
     <use style="fill:#1f77b4;stroke:#ffffff;stroke-width:0.75;" x="288.150915" xlink:href="#mafc0a95508" y="122.946551"/>
     <use style="fill:#1f77b4;stroke:#ffffff;stroke-width:0.75;" x="291.49095" xlink:href="#mafc0a95508" y="123.461274"/>
     <use style="fill:#1f77b4;stroke:#ffffff;stroke-width:0.75;" x="294.68249" xlink:href="#mafc0a95508" y="123.975997"/>
     <use style="fill:#1f77b4;stroke:#ffffff;stroke-width:0.75;" x="297.738177" xlink:href="#mafc0a95508" y="122.946551"/>
     <use style="fill:#1f77b4;stroke:#ffffff;stroke-width:0.75;" x="300.669107" xlink:href="#mafc0a95508" y="120.029785"/>
     <use style="fill:#1f77b4;stroke:#ffffff;stroke-width:0.75;" x="303.485069" xlink:href="#mafc0a95508" y="120.544508"/>
     <use style="fill:#1f77b4;stroke:#ffffff;stroke-width:0.75;" x="306.194742" xlink:href="#mafc0a95508" y="119.171912"/>
     <use style="fill:#1f77b4;stroke:#ffffff;stroke-width:0.75;" x="308.805859" xlink:href="#mafc0a95508" y="119.515061"/>
     <use style="fill:#1f77b4;stroke:#ffffff;stroke-width:0.75;" x="311.32534" xlink:href="#mafc0a95508" y="118.828763"/>
     <use style="fill:#1f77b4;stroke:#ffffff;stroke-width:0.75;" x="313.759397" xlink:href="#mafc0a95508" y="118.828763"/>
     <use style="fill:#1f77b4;stroke:#ffffff;stroke-width:0.75;" x="316.113635" xlink:href="#mafc0a95508" y="118.828763"/>
     <use style="fill:#1f77b4;stroke:#ffffff;stroke-width:0.75;" x="318.393122" xlink:href="#mafc0a95508" y="118.828763"/>
     <use style="fill:#1f77b4;stroke:#ffffff;stroke-width:0.75;" x="320.60246" xlink:href="#mafc0a95508" y="118.828763"/>
     <use style="fill:#1f77b4;stroke:#ffffff;stroke-width:0.75;" x="322.745837" xlink:href="#mafc0a95508" y="118.828763"/>
     <use style="fill:#1f77b4;stroke:#ffffff;stroke-width:0.75;" x="324.827079" xlink:href="#mafc0a95508" y="118.828763"/>
     <use style="fill:#1f77b4;stroke:#ffffff;stroke-width:0.75;" x="326.849687" xlink:href="#mafc0a95508" y="109.906891"/>
     <use style="fill:#1f77b4;stroke:#ffffff;stroke-width:0.75;" x="328.816873" xlink:href="#mafc0a95508" y="118.828763"/>
     <use style="fill:#1f77b4;stroke:#ffffff;stroke-width:0.75;" x="330.731595" xlink:href="#mafc0a95508" y="119.515061"/>
     <use style="fill:#1f77b4;stroke:#ffffff;stroke-width:0.75;" x="332.596578" xlink:href="#mafc0a95508" y="118.828763"/>
     <use style="fill:#1f77b4;stroke:#ffffff;stroke-width:0.75;" x="334.414342" xlink:href="#mafc0a95508" y="118.828763"/>
     <use style="fill:#1f77b4;stroke:#ffffff;stroke-width:0.75;" x="336.187217" xlink:href="#mafc0a95508" y="118.828763"/>
     <use style="fill:#1f77b4;stroke:#ffffff;stroke-width:0.75;" x="337.917369" xlink:href="#mafc0a95508" y="118.828763"/>
     <use style="fill:#1f77b4;stroke:#ffffff;stroke-width:0.75;" x="339.606807" xlink:href="#mafc0a95508" y="118.828763"/>
     <use style="fill:#1f77b4;stroke:#ffffff;stroke-width:0.75;" x="341.257404" xlink:href="#mafc0a95508" y="118.828763"/>
     <use style="fill:#1f77b4;stroke:#ffffff;stroke-width:0.75;" x="342.870906" xlink:href="#mafc0a95508" y="118.828763"/>
     <use style="fill:#1f77b4;stroke:#ffffff;stroke-width:0.75;" x="344.448944" xlink:href="#mafc0a95508" y="118.828763"/>
     <use style="fill:#1f77b4;stroke:#ffffff;stroke-width:0.75;" x="345.993042" xlink:href="#mafc0a95508" y="118.828763"/>
     <use style="fill:#1f77b4;stroke:#ffffff;stroke-width:0.75;" x="347.504631" xlink:href="#mafc0a95508" y="118.828763"/>
     <use style="fill:#1f77b4;stroke:#ffffff;stroke-width:0.75;" x="348.985051" xlink:href="#mafc0a95508" y="90.690551"/>
     <use style="fill:#1f77b4;stroke:#ffffff;stroke-width:0.75;" x="350.435561" xlink:href="#mafc0a95508" y="89.317955"/>
     <use style="fill:#1f77b4;stroke:#ffffff;stroke-width:0.75;" x="351.857347" xlink:href="#mafc0a95508" y="88.631657"/>
     <use style="fill:#1f77b4;stroke:#ffffff;stroke-width:0.75;" x="353.251523" xlink:href="#mafc0a95508" y="87.430636"/>
     <use style="fill:#1f77b4;stroke:#ffffff;stroke-width:0.75;" x="354.619142" xlink:href="#mafc0a95508" y="87.430636"/>
     <use style="fill:#1f77b4;stroke:#ffffff;stroke-width:0.75;" x="355.961196" xlink:href="#mafc0a95508" y="87.259061"/>
     <use style="fill:#1f77b4;stroke:#ffffff;stroke-width:0.75;" x="357.278624" xlink:href="#mafc0a95508" y="87.259061"/>
     <use style="fill:#1f77b4;stroke:#ffffff;stroke-width:0.75;" x="358.572313" xlink:href="#mafc0a95508" y="112.652082"/>
     <use style="fill:#1f77b4;stroke:#ffffff;stroke-width:0.75;" x="359.843104" xlink:href="#mafc0a95508" y="112.652082"/>
     <use style="fill:#1f77b4;stroke:#ffffff;stroke-width:0.75;" x="361.091794" xlink:href="#mafc0a95508" y="112.652082"/>
     <use style="fill:#1f77b4;stroke:#ffffff;stroke-width:0.75;" x="362.319136" xlink:href="#mafc0a95508" y="107.161699"/>
     <use style="fill:#1f77b4;stroke:#ffffff;stroke-width:0.75;" x="363.525851" xlink:href="#mafc0a95508" y="107.161699"/>
     <use style="fill:#1f77b4;stroke:#ffffff;stroke-width:0.75;" x="364.712619" xlink:href="#mafc0a95508" y="107.161699"/>
     <use style="fill:#1f77b4;stroke:#ffffff;stroke-width:0.75;" x="365.880089" xlink:href="#mafc0a95508" y="108.019572"/>
     <use style="fill:#1f77b4;stroke:#ffffff;stroke-width:0.75;" x="367.028878" xlink:href="#mafc0a95508" y="108.019572"/>
     <use style="fill:#1f77b4;stroke:#ffffff;stroke-width:0.75;" x="368.159576" xlink:href="#mafc0a95508" y="108.019572"/>
     <use style="fill:#1f77b4;stroke:#ffffff;stroke-width:0.75;" x="369.272743" xlink:href="#mafc0a95508" y="108.019572"/>
     <use style="fill:#1f77b4;stroke:#ffffff;stroke-width:0.75;" x="370.368914" xlink:href="#mafc0a95508" y="108.019572"/>
     <use style="fill:#1f77b4;stroke:#ffffff;stroke-width:0.75;" x="371.4486" xlink:href="#mafc0a95508" y="107.161699"/>
     <use style="fill:#1f77b4;stroke:#ffffff;stroke-width:0.75;" x="372.512291" xlink:href="#mafc0a95508" y="107.161699"/>
     <use style="fill:#1f77b4;stroke:#ffffff;stroke-width:0.75;" x="373.560453" xlink:href="#mafc0a95508" y="107.161699"/>
     <use style="fill:#1f77b4;stroke:#ffffff;stroke-width:0.75;" x="374.593533" xlink:href="#mafc0a95508" y="107.161699"/>
     <use style="fill:#1f77b4;stroke:#ffffff;stroke-width:0.75;" x="375.611959" xlink:href="#mafc0a95508" y="107.161699"/>
     <use style="fill:#1f77b4;stroke:#ffffff;stroke-width:0.75;" x="376.616141" xlink:href="#mafc0a95508" y="107.161699"/>
     <use style="fill:#1f77b4;stroke:#ffffff;stroke-width:0.75;" x="377.606471" xlink:href="#mafc0a95508" y="93.435742"/>
     <use style="fill:#1f77b4;stroke:#ffffff;stroke-width:0.75;" x="378.583327" xlink:href="#mafc0a95508" y="93.435742"/>
     <use style="fill:#1f77b4;stroke:#ffffff;stroke-width:0.75;" x="379.547071" xlink:href="#mafc0a95508" y="93.435742"/>
     <use style="fill:#1f77b4;stroke:#ffffff;stroke-width:0.75;" x="380.498049" xlink:href="#mafc0a95508" y="93.435742"/>
     <use style="fill:#1f77b4;stroke:#ffffff;stroke-width:0.75;" x="381.436596" xlink:href="#mafc0a95508" y="79.709785"/>
     <use style="fill:#1f77b4;stroke:#ffffff;stroke-width:0.75;" x="382.363032" xlink:href="#mafc0a95508" y="79.709785"/>
     <use style="fill:#1f77b4;stroke:#ffffff;stroke-width:0.75;" x="383.277666" xlink:href="#mafc0a95508" y="79.709785"/>
     <use style="fill:#1f77b4;stroke:#ffffff;stroke-width:0.75;" x="384.180795" xlink:href="#mafc0a95508" y="79.709785"/>
     <use style="fill:#1f77b4;stroke:#ffffff;stroke-width:0.75;" x="385.072705" xlink:href="#mafc0a95508" y="79.709785"/>
     <use style="fill:#1f77b4;stroke:#ffffff;stroke-width:0.75;" x="385.953671" xlink:href="#mafc0a95508" y="79.709785"/>
     <use style="fill:#1f77b4;stroke:#ffffff;stroke-width:0.75;" x="386.823958" xlink:href="#mafc0a95508" y="79.709785"/>
     <use style="fill:#1f77b4;stroke:#ffffff;stroke-width:0.75;" x="387.683823" xlink:href="#mafc0a95508" y="79.709785"/>
     <use style="fill:#1f77b4;stroke:#ffffff;stroke-width:0.75;" x="388.533511" xlink:href="#mafc0a95508" y="93.435742"/>
     <use style="fill:#1f77b4;stroke:#ffffff;stroke-width:0.75;" x="389.373261" xlink:href="#mafc0a95508" y="93.435742"/>
     <use style="fill:#1f77b4;stroke:#ffffff;stroke-width:0.75;" x="390.203303" xlink:href="#mafc0a95508" y="93.435742"/>
     <use style="fill:#1f77b4;stroke:#ffffff;stroke-width:0.75;" x="391.023858" xlink:href="#mafc0a95508" y="93.435742"/>
     <use style="fill:#1f77b4;stroke:#ffffff;stroke-width:0.75;" x="391.835142" xlink:href="#mafc0a95508" y="79.709785"/>
     <use style="fill:#1f77b4;stroke:#ffffff;stroke-width:0.75;" x="392.63736" xlink:href="#mafc0a95508" y="60.150295"/>
     <use style="fill:#1f77b4;stroke:#ffffff;stroke-width:0.75;" x="393.430714" xlink:href="#mafc0a95508" y="55.174636"/>
     <use style="fill:#1f77b4;stroke:#ffffff;stroke-width:0.75;" x="394.215398" xlink:href="#mafc0a95508" y="55.174636"/>
    </g>
   </g>
   <g id="line2d_33"/>
   <g id="line2d_34"/>
   <g id="patch_3">
    <path d="M 53.328125 261.235572 
L 53.328125 55.34621 
" style="fill:none;stroke:#000000;stroke-linecap:square;stroke-linejoin:miter;stroke-width:0.8;"/>
   </g>
   <g id="patch_4">
    <path d="M 69.560852 288.430125 
L 394.216265 288.430125 
" style="fill:none;stroke:#000000;stroke-linecap:square;stroke-linejoin:miter;stroke-width:0.8;"/>
   </g>
   <g id="text_16">
    <!-- stb_stbi_read_fuzzer (23h, 11 trials/fuzzer) -->
    <g transform="translate(104.0375 16.318125)scale(0.12 -0.12)">
     <defs>
      <path d="M 2834 3397 
L 2834 2853 
Q 2591 2978 2328 3040 
Q 2066 3103 1784 3103 
Q 1356 3103 1142 2972 
Q 928 2841 928 2578 
Q 928 2378 1081 2264 
Q 1234 2150 1697 2047 
L 1894 2003 
Q 2506 1872 2764 1633 
Q 3022 1394 3022 966 
Q 3022 478 2636 193 
Q 2250 -91 1575 -91 
Q 1294 -91 989 -36 
Q 684 19 347 128 
L 347 722 
Q 666 556 975 473 
Q 1284 391 1588 391 
Q 1994 391 2212 530 
Q 2431 669 2431 922 
Q 2431 1156 2273 1281 
Q 2116 1406 1581 1522 
L 1381 1569 
Q 847 1681 609 1914 
Q 372 2147 372 2553 
Q 372 3047 722 3315 
Q 1072 3584 1716 3584 
Q 2034 3584 2315 3537 
Q 2597 3491 2834 3397 
z
" id="DejaVuSans-73" transform="scale(0.015625)"/>
      <path d="M 3116 1747 
Q 3116 2381 2855 2742 
Q 2594 3103 2138 3103 
Q 1681 3103 1420 2742 
Q 1159 2381 1159 1747 
Q 1159 1113 1420 752 
Q 1681 391 2138 391 
Q 2594 391 2855 752 
Q 3116 1113 3116 1747 
z
M 1159 2969 
Q 1341 3281 1617 3432 
Q 1894 3584 2278 3584 
Q 2916 3584 3314 3078 
Q 3713 2572 3713 1747 
Q 3713 922 3314 415 
Q 2916 -91 2278 -91 
Q 1894 -91 1617 61 
Q 1341 213 1159 525 
L 1159 0 
L 581 0 
L 581 4863 
L 1159 4863 
L 1159 2969 
z
" id="DejaVuSans-62" transform="scale(0.015625)"/>
      <path d="M 3263 -1063 
L 3263 -1509 
L -63 -1509 
L -63 -1063 
L 3263 -1063 
z
" id="DejaVuSans-5f" transform="scale(0.015625)"/>
      <path d="M 2375 4863 
L 2375 4384 
L 1825 4384 
Q 1516 4384 1395 4259 
Q 1275 4134 1275 3809 
L 1275 3500 
L 2222 3500 
L 2222 3053 
L 1275 3053 
L 1275 0 
L 697 0 
L 697 3053 
L 147 3053 
L 147 3500 
L 697 3500 
L 697 3744 
Q 697 4328 969 4595 
Q 1241 4863 1831 4863 
L 2375 4863 
z
" id="DejaVuSans-66" transform="scale(0.015625)"/>
      <path d="M 353 3500 
L 3084 3500 
L 3084 2975 
L 922 459 
L 3084 459 
L 3084 0 
L 275 0 
L 275 525 
L 2438 3041 
L 353 3041 
L 353 3500 
z
" id="DejaVuSans-7a" transform="scale(0.015625)"/>
      <path d="M 750 794 
L 1409 794 
L 1409 256 
L 897 -744 
L 494 -744 
L 750 256 
L 750 794 
z
" id="DejaVuSans-2c" transform="scale(0.015625)"/>
      <path d="M 603 4863 
L 1178 4863 
L 1178 0 
L 603 0 
L 603 4863 
z
" id="DejaVuSans-6c" transform="scale(0.015625)"/>
      <path d="M 1625 4666 
L 2156 4666 
L 531 -594 
L 0 -594 
L 1625 4666 
z
" id="DejaVuSans-2f" transform="scale(0.015625)"/>
     </defs>
     <use xlink:href="#DejaVuSans-73"/>
     <use x="52.099609" xlink:href="#DejaVuSans-74"/>
     <use x="91.308594" xlink:href="#DejaVuSans-62"/>
     <use x="154.785156" xlink:href="#DejaVuSans-5f"/>
     <use x="204.785156" xlink:href="#DejaVuSans-73"/>
     <use x="256.884766" xlink:href="#DejaVuSans-74"/>
     <use x="296.09375" xlink:href="#DejaVuSans-62"/>
     <use x="359.570312" xlink:href="#DejaVuSans-69"/>
     <use x="387.353516" xlink:href="#DejaVuSans-5f"/>
     <use x="437.353516" xlink:href="#DejaVuSans-72"/>
     <use x="476.216797" xlink:href="#DejaVuSans-65"/>
     <use x="537.740234" xlink:href="#DejaVuSans-61"/>
     <use x="599.019531" xlink:href="#DejaVuSans-64"/>
     <use x="662.496094" xlink:href="#DejaVuSans-5f"/>
     <use x="712.496094" xlink:href="#DejaVuSans-66"/>
     <use x="747.701172" xlink:href="#DejaVuSans-75"/>
     <use x="811.080078" xlink:href="#DejaVuSans-7a"/>
     <use x="863.570312" xlink:href="#DejaVuSans-7a"/>
     <use x="916.060547" xlink:href="#DejaVuSans-65"/>
     <use x="977.583984" xlink:href="#DejaVuSans-72"/>
     <use x="1018.697266" xlink:href="#DejaVuSans-20"/>
     <use x="1050.484375" xlink:href="#DejaVuSans-28"/>
     <use x="1089.498047" xlink:href="#DejaVuSans-32"/>
     <use x="1153.121094" xlink:href="#DejaVuSans-33"/>
     <use x="1216.744141" xlink:href="#DejaVuSans-68"/>
     <use x="1280.123047" xlink:href="#DejaVuSans-2c"/>
     <use x="1311.910156" xlink:href="#DejaVuSans-20"/>
     <use x="1343.697266" xlink:href="#DejaVuSans-31"/>
     <use x="1407.320312" xlink:href="#DejaVuSans-31"/>
     <use x="1470.943359" xlink:href="#DejaVuSans-20"/>
     <use x="1502.730469" xlink:href="#DejaVuSans-74"/>
     <use x="1541.939453" xlink:href="#DejaVuSans-72"/>
     <use x="1583.052734" xlink:href="#DejaVuSans-69"/>
     <use x="1610.835938" xlink:href="#DejaVuSans-61"/>
     <use x="1672.115234" xlink:href="#DejaVuSans-6c"/>
     <use x="1699.898438" xlink:href="#DejaVuSans-73"/>
     <use x="1751.998047" xlink:href="#DejaVuSans-2f"/>
     <use x="1785.689453" xlink:href="#DejaVuSans-66"/>
     <use x="1820.894531" xlink:href="#DejaVuSans-75"/>
     <use x="1884.273438" xlink:href="#DejaVuSans-7a"/>
     <use x="1936.763672" xlink:href="#DejaVuSans-7a"/>
     <use x="1989.253906" xlink:href="#DejaVuSans-65"/>
     <use x="2050.777344" xlink:href="#DejaVuSans-72"/>
     <use x="2091.890625" xlink:href="#DejaVuSans-29"/>
    </g>
   </g>
   <g id="legend_1">
    <g id="line2d_35">
     <path d="M 414.448125 30.416562 
L 434.448125 30.416562 
" style="fill:none;stroke:#98df8a;stroke-linecap:square;stroke-width:1.5;"/>
    </g>
    <g id="line2d_36">
     <defs>
      <path d="M -0 3 
L 3 -3 
L -3 -3 
z
" id="m03816e9367" style="stroke:#98df8a;stroke-linejoin:miter;"/>
     </defs>
     <g>
      <use style="fill:#98df8a;stroke:#98df8a;stroke-linejoin:miter;" x="424.448125" xlink:href="#m03816e9367" y="30.416562"/>
     </g>
    </g>
    <g id="text_17">
     <!-- afl_splicing_mutation -->
     <g transform="translate(442.448125 33.916562)scale(0.1 -0.1)">
      <defs>
       <path d="M 1159 525 
L 1159 -1331 
L 581 -1331 
L 581 3500 
L 1159 3500 
L 1159 2969 
Q 1341 3281 1617 3432 
Q 1894 3584 2278 3584 
Q 2916 3584 3314 3078 
Q 3713 2572 3713 1747 
Q 3713 922 3314 415 
Q 2916 -91 2278 -91 
Q 1894 -91 1617 61 
Q 1341 213 1159 525 
z
M 3116 1747 
Q 3116 2381 2855 2742 
Q 2594 3103 2138 3103 
Q 1681 3103 1420 2742 
Q 1159 2381 1159 1747 
Q 1159 1113 1420 752 
Q 1681 391 2138 391 
Q 2594 391 2855 752 
Q 3116 1113 3116 1747 
z
" id="DejaVuSans-70" transform="scale(0.015625)"/>
      </defs>
      <use xlink:href="#DejaVuSans-61"/>
      <use x="61.279297" xlink:href="#DejaVuSans-66"/>
      <use x="96.484375" xlink:href="#DejaVuSans-6c"/>
      <use x="124.267578" xlink:href="#DejaVuSans-5f"/>
      <use x="174.267578" xlink:href="#DejaVuSans-73"/>
      <use x="226.367188" xlink:href="#DejaVuSans-70"/>
      <use x="289.84375" xlink:href="#DejaVuSans-6c"/>
      <use x="317.626953" xlink:href="#DejaVuSans-69"/>
      <use x="345.410156" xlink:href="#DejaVuSans-63"/>
      <use x="400.390625" xlink:href="#DejaVuSans-69"/>
      <use x="428.173828" xlink:href="#DejaVuSans-6e"/>
      <use x="491.552734" xlink:href="#DejaVuSans-67"/>
      <use x="555.029297" xlink:href="#DejaVuSans-5f"/>
      <use x="605.029297" xlink:href="#DejaVuSans-6d"/>
      <use x="702.441406" xlink:href="#DejaVuSans-75"/>
      <use x="765.820312" xlink:href="#DejaVuSans-74"/>
      <use x="805.029297" xlink:href="#DejaVuSans-61"/>
      <use x="866.308594" xlink:href="#DejaVuSans-74"/>
      <use x="905.517578" xlink:href="#DejaVuSans-69"/>
      <use x="933.300781" xlink:href="#DejaVuSans-6f"/>
      <use x="994.482422" xlink:href="#DejaVuSans-6e"/>
     </g>
    </g>
    <g id="line2d_37">
     <path d="M 414.448125 45.372813 
L 434.448125 45.372813 
" style="fill:none;stroke:#1f77b4;stroke-linecap:square;stroke-width:1.5;"/>
    </g>
    <g id="line2d_38">
     <defs>
      <path d="M 0 3 
C 0.795609 3 1.55874 2.683901 2.12132 2.12132 
C 2.683901 1.55874 3 0.795609 3 0 
C 3 -0.795609 2.683901 -1.55874 2.12132 -2.12132 
C 1.55874 -2.683901 0.795609 -3 0 -3 
C -0.795609 -3 -1.55874 -2.683901 -2.12132 -2.12132 
C -2.683901 -1.55874 -3 -0.795609 -3 0 
C -3 0.795609 -2.683901 1.55874 -2.12132 2.12132 
C -1.55874 2.683901 -0.795609 3 0 3 
z
" id="m909878580e" style="stroke:#1f77b4;"/>
     </defs>
     <g>
      <use style="fill:#1f77b4;stroke:#1f77b4;" x="424.448125" xlink:href="#m909878580e" y="45.372813"/>
     </g>
    </g>
    <g id="text_18">
     <!-- afl -->
     <g transform="translate(442.448125 48.872813)scale(0.1 -0.1)">
      <use xlink:href="#DejaVuSans-61"/>
      <use x="61.279297" xlink:href="#DejaVuSans-66"/>
      <use x="96.484375" xlink:href="#DejaVuSans-6c"/>
     </g>
    </g>
   </g>
  </g>
 </g>
 <defs>
  <clipPath id="p5f0a7be3a4">
   <rect height="266.112" width="357.12" x="53.328125" y="22.318125"/>
  </clipPath>
 </defs>
</svg>
