<?xml version="1.0" encoding="utf-8" standalone="no"?>
<!DOCTYPE svg PUBLIC "-//W3C//DTD SVG 1.1//EN"
  "http://www.w3.org/Graphics/SVG/1.1/DTD/svg11.dtd">
<svg height="325.986375pt" version="1.1" viewBox="0 0 565.795 325.986375" width="565.795pt" xmlns="http://www.w3.org/2000/svg" xmlns:xlink="http://www.w3.org/1999/xlink">
 <metadata>
  <rdf:RDF xmlns:cc="http://creativecommons.org/ns#" xmlns:dc="http://purl.org/dc/elements/1.1/" xmlns:rdf="http://www.w3.org/1999/02/22-rdf-syntax-ns#">
   <cc:Work>
    <dc:type rdf:resource="http://purl.org/dc/dcmitype/StillImage"/>
    <dc:date>2022-05-31T16:36:55.905383</dc:date>
    <dc:format>image/svg+xml</dc:format>
    <dc:creator>
     <cc:Agent>
      <dc:title>Matplotlib v3.4.3, https://matplotlib.org/</dc:title>
     </cc:Agent>
    </dc:creator>
   </cc:Work>
  </rdf:RDF>
 </metadata>
 <defs>
  <style type="text/css">*{stroke-linecap:butt;stroke-linejoin:round;}</style>
 </defs>
 <g id="figure_1">
  <g id="patch_1">
   <path d="M 0 325.986375 
L 565.795 325.986375 
L 565.795 0 
L 0 0 
z
" style="fill:#ffffff;"/>
  </g>
  <g id="axes_1">
   <g id="patch_2">
    <path d="M 59.690625 288.430125 
L 416.810625 288.430125 
L 416.810625 22.318125 
L 59.690625 22.318125 
z
" style="fill:#ffffff;"/>
   </g>
   <g id="PolyCollection_1">
    <defs>
     <path d="M 75.923352 -152.390872 
L 75.923352 -59.636567 
L 128.71488 -212.097087 
L 159.595944 -248.939217 
L 181.506408 -249.088981 
L 198.501484 -252.8331 
L 212.387472 -255.528866 
L 224.127907 -257.326043 
L 234.297935 -258.124788 
L 243.268536 -259.921965 
L 251.293011 -260.521024 
L 258.552032 -263.017103 
L 265.178999 -263.815849 
L 271.275218 -266.311928 
L 276.919435 -266.611458 
L 282.174075 -266.611458 
L 287.089463 -266.611458 
L 291.70676 -266.611458 
L 296.060064 -267.709732 
L 300.177935 -267.909419 
L 304.084539 -271.204243 
L 307.800499 -271.803302 
L 311.34356 -271.803302 
L 314.729099 -271.803302 
L 317.970527 -271.903146 
L 321.079615 -273.999852 
L 324.066746 -274.898441 
L 326.941128 -274.898441 
L 329.710963 -275.297813 
L 332.383591 -275.297813 
L 334.965603 -275.4975 
L 337.462944 -275.4975 
L 339.880991 -275.797029 
L 342.224624 -275.797029 
L 344.498288 -275.797029 
L 346.706039 -276.396088 
L 348.851591 -276.795461 
L 350.938354 -276.795461 
L 352.969463 -276.795461 
L 354.94781 -276.795461 
L 356.876067 -277.194834 
L 358.756707 -276.795461 
L 360.592027 -277.793893 
L 362.384158 -277.393272 
L 364.135088 -277.793893 
L 365.846667 -276.396088 
L 367.520626 -276.396088 
L 369.158584 -276.396088 
L 370.762055 -276.795461 
L 372.332463 -276.196402 
L 373.871143 -276.196402 
L 375.379352 -276.196402 
L 376.858274 -276.795461 
L 378.309024 -276.396088 
L 379.732655 -276.396088 
L 381.130164 -276.795461 
L 382.502491 -276.645696 
L 383.850527 -276.795461 
L 385.175118 -276.795461 
L 386.477066 -276.645696 
L 387.757131 -276.645696 
L 389.016037 -276.795461 
L 390.254472 -276.795461 
L 391.473091 -277.494363 
L 392.672519 -277.494363 
L 393.85335 -277.494363 
L 395.016152 -277.494363 
L 396.161468 -279.990442 
L 397.289816 -279.990442 
L 398.40169 -279.990442 
L 399.497566 -279.990442 
L 400.577898 -278.243187 
L 400.577898 -290.124524 
L 400.577898 -290.124524 
L 399.497566 -291.57225 
L 398.40169 -291.57225 
L 397.289816 -291.57225 
L 396.161468 -291.57225 
L 395.016152 -291.57225 
L 393.85335 -291.57225 
L 392.672519 -291.57225 
L 391.473091 -291.57225 
L 390.254472 -291.57225 
L 389.016037 -291.472407 
L 387.757131 -289.775073 
L 386.477066 -289.775073 
L 385.175118 -290.973191 
L 383.850527 -290.973191 
L 382.502491 -289.575387 
L 381.130164 -290.973191 
L 379.732655 -289.3757 
L 378.309024 -289.225936 
L 376.858274 -286.030954 
L 375.379352 -284.583228 
L 373.871143 -287.47868 
L 372.332463 -287.47868 
L 370.762055 -284.483385 
L 369.158584 -284.383542 
L 367.520626 -284.383542 
L 365.846667 -284.383542 
L 364.135088 -280.589501 
L 362.384158 -281.640351 
L 360.592027 -280.090285 
L 358.756707 -279.690913 
L 356.876067 -279.341462 
L 354.94781 -279.29154 
L 352.969463 -279.091854 
L 350.938354 -279.091854 
L 348.851591 -278.892167 
L 346.706039 -278.892167 
L 344.498288 -278.892167 
L 342.224624 -278.692481 
L 339.880991 -278.692481 
L 337.462944 -278.592638 
L 334.965603 -278.492795 
L 332.383591 -278.492795 
L 329.710963 -278.093422 
L 326.941128 -278.093422 
L 324.066746 -278.093422 
L 321.079615 -277.39452 
L 317.970527 -277.194834 
L 314.729099 -276.995147 
L 311.34356 -276.995147 
L 307.800499 -276.895304 
L 304.084539 -276.795461 
L 300.177935 -276.795461 
L 296.060064 -276.296245 
L 291.70676 -275.797029 
L 287.089463 -275.697186 
L 282.174075 -275.597343 
L 276.919435 -275.098127 
L 271.275218 -274.598911 
L 265.178999 -274.399225 
L 258.552032 -272.402361 
L 251.293011 -272.402361 
L 243.268536 -272.402361 
L 234.297935 -271.304087 
L 224.127907 -271.304087 
L 212.387472 -270.505341 
L 198.501484 -269.706596 
L 181.506408 -268.658243 
L 159.595944 -259.971887 
L 128.71488 -250.836237 
L 75.923352 -152.390872 
z
" id="m061e8c68cd" style="stroke:#98df8a;stroke-opacity:0.2;"/>
    </defs>
    <g clip-path="url(#pde391de6c8)">
     <use style="fill:#98df8a;fill-opacity:0.2;stroke:#98df8a;stroke-opacity:0.2;" x="0" xlink:href="#m061e8c68cd" y="325.986375"/>
    </g>
   </g>
   <g id="PolyCollection_2">
    <defs>
     <path d="M 75.923352 -118.843567 
L 75.923352 -49.65225 
L 128.71488 -64.678647 
L 159.595944 -92.784499 
L 181.506408 -70.1201 
L 198.501484 -73.91414 
L 212.387472 -95.679951 
L 224.127907 -120.990195 
L 234.297935 -123.136823 
L 243.268536 -118.94341 
L 251.293011 -172.559192 
L 258.552032 -127.430079 
L 265.178999 -123.785803 
L 271.275218 -127.829452 
L 276.919435 -158.381462 
L 282.174075 -133.220983 
L 287.089463 -122.038548 
L 291.70676 -164.521817 
L 296.060064 -199.91622 
L 300.177935 -170.113034 
L 304.084539 -181.245548 
L 307.800499 -190.630806 
L 311.34356 -206.406026 
L 314.729099 -180.746332 
L 317.970527 -189.083236 
L 321.079615 -198.568337 
L 324.066746 -195.972415 
L 326.941128 -181.445234 
L 329.710963 -166.069386 
L 332.383591 -181.844607 
L 334.965603 -195.023905 
L 337.462944 -182.643352 
L 339.880991 -197.170533 
L 342.224624 -211.498028 
L 344.498288 -206.056575 
L 346.706039 -200.315593 
L 348.851591 -183.54194 
L 350.938354 -183.941313 
L 352.969463 -212.253092 
L 354.94781 -212.19693 
L 356.876067 -198.119043 
L 358.756707 -183.941313 
L 360.592027 -200.814809 
L 362.384158 -201.314025 
L 364.135088 -212.296773 
L 365.846667 -198.168965 
L 367.520626 -212.296773 
L 369.158584 -221.781874 
L 370.762055 -212.396616 
L 372.332463 -212.396616 
L 373.871143 -192.877277 
L 375.379352 -184.440529 
L 376.858274 -198.418573 
L 378.309024 -198.468494 
L 379.732655 -207.055007 
L 381.130164 -212.396616 
L 382.502491 -229.170269 
L 383.850527 -212.396616 
L 385.175118 -235.859761 
L 386.477066 -241.301214 
L 387.757131 -247.986962 
L 389.016037 -212.396616 
L 390.254472 -207.404458 
L 391.473091 -212.396616 
L 392.672519 -212.396616 
L 393.85335 -240.849424 
L 395.016152 -202.4123 
L 396.161468 -231.017368 
L 397.289816 -236.259134 
L 398.40169 -224.527562 
L 399.497566 -224.527562 
L 400.577898 -236.658507 
L 400.577898 -286.779778 
L 400.577898 -286.779778 
L 399.497566 -286.929543 
L 398.40169 -286.679935 
L 397.289816 -286.779778 
L 396.161468 -287.77821 
L 395.016152 -280.744258 
L 393.85335 -287.428758 
L 392.672519 -286.487737 
L 391.473091 -286.779778 
L 390.254472 -283.68464 
L 389.016037 -286.779778 
L 387.757131 -282.386678 
L 386.477066 -283.185424 
L 385.175118 -283.484953 
L 383.850527 -283.484953 
L 382.502491 -279.890599 
L 381.130164 -279.890599 
L 379.732655 -280.24005 
L 378.309024 -275.247892 
L 376.858274 -275.247892 
L 375.379352 -279.890599 
L 373.871143 -278.692481 
L 372.332463 -274.698754 
L 370.762055 -274.698754 
L 369.158584 -276.995147 
L 367.520626 -275.19797 
L 365.846667 -279.890599 
L 364.135088 -275.19797 
L 362.384158 -274.099695 
L 360.592027 -275.19797 
L 358.756707 -281.48809 
L 356.876067 -279.890599 
L 354.94781 -272.102832 
L 352.969463 -275.148049 
L 350.938354 -279.890599 
L 348.851591 -279.790756 
L 346.706039 -273.700323 
L 344.498288 -276.246323 
L 342.224624 -278.792324 
L 339.880991 -277.893736 
L 337.462944 -276.296245 
L 334.965603 -273.700323 
L 332.383591 -273.700323 
L 329.710963 -273.700323 
L 326.941128 -275.697186 
L 324.066746 -272.05291 
L 321.079615 -272.05291 
L 317.970527 -270.405498 
L 314.729099 -274.449146 
L 311.34356 -272.502205 
L 307.800499 -269.407066 
L 304.084539 -268.708164 
L 300.177935 -248.539844 
L 296.060064 -268.208948 
L 291.70676 -236.908115 
L 287.089463 -220.583756 
L 282.174075 -236.014518 
L 276.919435 -243.797293 
L 271.275218 -218.387207 
L 265.178999 -234.86133 
L 258.552032 -203.211045 
L 251.293011 -234.112506 
L 243.268536 -202.11277 
L 234.297935 -205.657203 
L 224.127907 -202.811672 
L 212.387472 -200.714966 
L 198.501484 -199.816377 
L 181.506408 -197.919357 
L 159.595944 -190.859197 
L 128.71488 -178.904225 
L 75.923352 -118.843567 
z
" id="m259643ea46" style="stroke:#1f77b4;stroke-opacity:0.2;"/>
    </defs>
    <g clip-path="url(#pde391de6c8)">
     <use style="fill:#1f77b4;fill-opacity:0.2;stroke:#1f77b4;stroke-opacity:0.2;" x="0" xlink:href="#m259643ea46" y="325.986375"/>
    </g>
   </g>
   <g id="matplotlib.axis_1">
    <g id="xtick_1">
     <g id="line2d_1">
      <defs>
       <path d="M 0 0 
L 0 3.5 
" id="ma3f75c1d95" style="stroke:#000000;stroke-width:0.8;"/>
      </defs>
      <g>
       <use style="stroke:#000000;stroke-width:0.8;" x="75.923352" xlink:href="#ma3f75c1d95" y="288.430125"/>
      </g>
     </g>
     <g id="text_1">
      <!-- 14m -->
      <g transform="translate(64.69054 303.028562)scale(0.1 -0.1)">
       <defs>
        <path d="M 794 531 
L 1825 531 
L 1825 4091 
L 703 3866 
L 703 4441 
L 1819 4666 
L 2450 4666 
L 2450 531 
L 3481 531 
L 3481 0 
L 794 0 
L 794 531 
z
" id="DejaVuSans-31" transform="scale(0.015625)"/>
        <path d="M 2419 4116 
L 825 1625 
L 2419 1625 
L 2419 4116 
z
M 2253 4666 
L 3047 4666 
L 3047 1625 
L 3713 1625 
L 3713 1100 
L 3047 1100 
L 3047 0 
L 2419 0 
L 2419 1100 
L 313 1100 
L 313 1709 
L 2253 4666 
z
" id="DejaVuSans-34" transform="scale(0.015625)"/>
        <path d="M 3328 2828 
Q 3544 3216 3844 3400 
Q 4144 3584 4550 3584 
Q 5097 3584 5394 3201 
Q 5691 2819 5691 2113 
L 5691 0 
L 5113 0 
L 5113 2094 
Q 5113 2597 4934 2840 
Q 4756 3084 4391 3084 
Q 3944 3084 3684 2787 
Q 3425 2491 3425 1978 
L 3425 0 
L 2847 0 
L 2847 2094 
Q 2847 2600 2669 2842 
Q 2491 3084 2119 3084 
Q 1678 3084 1418 2786 
Q 1159 2488 1159 1978 
L 1159 0 
L 581 0 
L 581 3500 
L 1159 3500 
L 1159 2956 
Q 1356 3278 1631 3431 
Q 1906 3584 2284 3584 
Q 2666 3584 2933 3390 
Q 3200 3197 3328 2828 
z
" id="DejaVuSans-6d" transform="scale(0.015625)"/>
       </defs>
       <use xlink:href="#DejaVuSans-31"/>
       <use x="63.623047" xlink:href="#DejaVuSans-34"/>
       <use x="127.246094" xlink:href="#DejaVuSans-6d"/>
      </g>
     </g>
    </g>
    <g id="xtick_2">
     <g id="line2d_2">
      <g>
       <use style="stroke:#000000;stroke-width:0.8;" x="140.8545" xlink:href="#ma3f75c1d95" y="288.430125"/>
      </g>
     </g>
     <g id="text_2">
      <!-- 35m -->
      <g transform="translate(129.621687 303.028562)scale(0.1 -0.1)">
       <defs>
        <path d="M 2597 2516 
Q 3050 2419 3304 2112 
Q 3559 1806 3559 1356 
Q 3559 666 3084 287 
Q 2609 -91 1734 -91 
Q 1441 -91 1130 -33 
Q 819 25 488 141 
L 488 750 
Q 750 597 1062 519 
Q 1375 441 1716 441 
Q 2309 441 2620 675 
Q 2931 909 2931 1356 
Q 2931 1769 2642 2001 
Q 2353 2234 1838 2234 
L 1294 2234 
L 1294 2753 
L 1863 2753 
Q 2328 2753 2575 2939 
Q 2822 3125 2822 3475 
Q 2822 3834 2567 4026 
Q 2313 4219 1838 4219 
Q 1578 4219 1281 4162 
Q 984 4106 628 3988 
L 628 4550 
Q 988 4650 1302 4700 
Q 1616 4750 1894 4750 
Q 2613 4750 3031 4423 
Q 3450 4097 3450 3541 
Q 3450 3153 3228 2886 
Q 3006 2619 2597 2516 
z
" id="DejaVuSans-33" transform="scale(0.015625)"/>
        <path d="M 691 4666 
L 3169 4666 
L 3169 4134 
L 1269 4134 
L 1269 2991 
Q 1406 3038 1543 3061 
Q 1681 3084 1819 3084 
Q 2600 3084 3056 2656 
Q 3513 2228 3513 1497 
Q 3513 744 3044 326 
Q 2575 -91 1722 -91 
Q 1428 -91 1123 -41 
Q 819 9 494 109 
L 494 744 
Q 775 591 1075 516 
Q 1375 441 1709 441 
Q 2250 441 2565 725 
Q 2881 1009 2881 1497 
Q 2881 1984 2565 2268 
Q 2250 2553 1709 2553 
Q 1456 2553 1204 2497 
Q 953 2441 691 2322 
L 691 4666 
z
" id="DejaVuSans-35" transform="scale(0.015625)"/>
       </defs>
       <use xlink:href="#DejaVuSans-33"/>
       <use x="63.623047" xlink:href="#DejaVuSans-35"/>
       <use x="127.246094" xlink:href="#DejaVuSans-6d"/>
      </g>
     </g>
    </g>
    <g id="xtick_3">
     <g id="line2d_3">
      <g>
       <use style="stroke:#000000;stroke-width:0.8;" x="205.785647" xlink:href="#ma3f75c1d95" y="288.430125"/>
      </g>
     </g>
     <g id="text_3">
      <!-- 1h:22m -->
      <g transform="translate(186.51846 303.028562)scale(0.1 -0.1)">
       <defs>
        <path d="M 3513 2113 
L 3513 0 
L 2938 0 
L 2938 2094 
Q 2938 2591 2744 2837 
Q 2550 3084 2163 3084 
Q 1697 3084 1428 2787 
Q 1159 2491 1159 1978 
L 1159 0 
L 581 0 
L 581 4863 
L 1159 4863 
L 1159 2956 
Q 1366 3272 1645 3428 
Q 1925 3584 2291 3584 
Q 2894 3584 3203 3211 
Q 3513 2838 3513 2113 
z
" id="DejaVuSans-68" transform="scale(0.015625)"/>
        <path d="M 750 794 
L 1409 794 
L 1409 0 
L 750 0 
L 750 794 
z
M 750 3309 
L 1409 3309 
L 1409 2516 
L 750 2516 
L 750 3309 
z
" id="DejaVuSans-3a" transform="scale(0.015625)"/>
        <path d="M 1228 531 
L 3431 531 
L 3431 0 
L 469 0 
L 469 531 
Q 828 903 1448 1529 
Q 2069 2156 2228 2338 
Q 2531 2678 2651 2914 
Q 2772 3150 2772 3378 
Q 2772 3750 2511 3984 
Q 2250 4219 1831 4219 
Q 1534 4219 1204 4116 
Q 875 4013 500 3803 
L 500 4441 
Q 881 4594 1212 4672 
Q 1544 4750 1819 4750 
Q 2544 4750 2975 4387 
Q 3406 4025 3406 3419 
Q 3406 3131 3298 2873 
Q 3191 2616 2906 2266 
Q 2828 2175 2409 1742 
Q 1991 1309 1228 531 
z
" id="DejaVuSans-32" transform="scale(0.015625)"/>
       </defs>
       <use xlink:href="#DejaVuSans-31"/>
       <use x="63.623047" xlink:href="#DejaVuSans-68"/>
       <use x="127.001953" xlink:href="#DejaVuSans-3a"/>
       <use x="160.693359" xlink:href="#DejaVuSans-32"/>
       <use x="224.316406" xlink:href="#DejaVuSans-32"/>
       <use x="287.939453" xlink:href="#DejaVuSans-6d"/>
      </g>
     </g>
    </g>
    <g id="xtick_4">
     <g id="line2d_4">
      <g>
       <use style="stroke:#000000;stroke-width:0.8;" x="270.716795" xlink:href="#ma3f75c1d95" y="288.430125"/>
      </g>
     </g>
     <g id="text_4">
      <!-- 3h:13m -->
      <g transform="translate(251.449607 303.028562)scale(0.1 -0.1)">
       <use xlink:href="#DejaVuSans-33"/>
       <use x="63.623047" xlink:href="#DejaVuSans-68"/>
       <use x="127.001953" xlink:href="#DejaVuSans-3a"/>
       <use x="160.693359" xlink:href="#DejaVuSans-31"/>
       <use x="224.316406" xlink:href="#DejaVuSans-33"/>
       <use x="287.939453" xlink:href="#DejaVuSans-6d"/>
      </g>
     </g>
    </g>
    <g id="xtick_5">
     <g id="line2d_5">
      <g>
       <use style="stroke:#000000;stroke-width:0.8;" x="335.647942" xlink:href="#ma3f75c1d95" y="288.430125"/>
      </g>
     </g>
     <g id="text_5">
      <!-- 7h:34m -->
      <g transform="translate(316.380755 303.028562)scale(0.1 -0.1)">
       <defs>
        <path d="M 525 4666 
L 3525 4666 
L 3525 4397 
L 1831 0 
L 1172 0 
L 2766 4134 
L 525 4134 
L 525 4666 
z
" id="DejaVuSans-37" transform="scale(0.015625)"/>
       </defs>
       <use xlink:href="#DejaVuSans-37"/>
       <use x="63.623047" xlink:href="#DejaVuSans-68"/>
       <use x="127.001953" xlink:href="#DejaVuSans-3a"/>
       <use x="160.693359" xlink:href="#DejaVuSans-33"/>
       <use x="224.316406" xlink:href="#DejaVuSans-34"/>
       <use x="287.939453" xlink:href="#DejaVuSans-6d"/>
      </g>
     </g>
    </g>
    <g id="xtick_6">
     <g id="line2d_6">
      <g>
       <use style="stroke:#000000;stroke-width:0.8;" x="400.57909" xlink:href="#ma3f75c1d95" y="288.430125"/>
      </g>
     </g>
     <g id="text_6">
      <!-- 17h:45m -->
      <g transform="translate(378.130652 303.028562)scale(0.1 -0.1)">
       <use xlink:href="#DejaVuSans-31"/>
       <use x="63.623047" xlink:href="#DejaVuSans-37"/>
       <use x="127.246094" xlink:href="#DejaVuSans-68"/>
       <use x="190.625" xlink:href="#DejaVuSans-3a"/>
       <use x="224.316406" xlink:href="#DejaVuSans-34"/>
       <use x="287.939453" xlink:href="#DejaVuSans-35"/>
       <use x="351.5625" xlink:href="#DejaVuSans-6d"/>
      </g>
     </g>
    </g>
    <g id="xtick_7">
     <g id="line2d_7">
      <defs>
       <path d="M 0 0 
L 0 2 
" id="ma03cfd8170" style="stroke:#000000;stroke-width:0.6;"/>
      </defs>
      <g>
       <use style="stroke:#000000;stroke-width:0.6;" x="66.952752" xlink:href="#ma03cfd8170" y="288.430125"/>
      </g>
     </g>
    </g>
    <g id="xtick_8">
     <g id="line2d_8">
      <g>
       <use style="stroke:#000000;stroke-width:0.6;" x="136.739355" xlink:href="#ma03cfd8170" y="288.430125"/>
      </g>
     </g>
    </g>
    <g id="xtick_9">
     <g id="line2d_9">
      <g>
       <use style="stroke:#000000;stroke-width:0.6;" x="167.62042" xlink:href="#ma03cfd8170" y="288.430125"/>
      </g>
     </g>
    </g>
    <g id="xtick_10">
     <g id="line2d_10">
      <g>
       <use style="stroke:#000000;stroke-width:0.6;" x="189.530883" xlink:href="#ma03cfd8170" y="288.430125"/>
      </g>
     </g>
    </g>
    <g id="xtick_11">
     <g id="line2d_11">
      <g>
       <use style="stroke:#000000;stroke-width:0.6;" x="206.525959" xlink:href="#ma03cfd8170" y="288.430125"/>
      </g>
     </g>
    </g>
    <g id="xtick_12">
     <g id="line2d_12">
      <g>
       <use style="stroke:#000000;stroke-width:0.6;" x="220.411947" xlink:href="#ma03cfd8170" y="288.430125"/>
      </g>
     </g>
    </g>
    <g id="xtick_13">
     <g id="line2d_13">
      <g>
       <use style="stroke:#000000;stroke-width:0.6;" x="232.152383" xlink:href="#ma03cfd8170" y="288.430125"/>
      </g>
     </g>
    </g>
    <g id="xtick_14">
     <g id="line2d_14">
      <g>
       <use style="stroke:#000000;stroke-width:0.6;" x="242.322411" xlink:href="#ma03cfd8170" y="288.430125"/>
      </g>
     </g>
    </g>
    <g id="xtick_15">
     <g id="line2d_15">
      <g>
       <use style="stroke:#000000;stroke-width:0.6;" x="251.293011" xlink:href="#ma03cfd8170" y="288.430125"/>
      </g>
     </g>
    </g>
    <g id="xtick_16">
     <g id="line2d_16">
      <g>
       <use style="stroke:#000000;stroke-width:0.6;" x="312.109015" xlink:href="#ma03cfd8170" y="288.430125"/>
      </g>
     </g>
    </g>
    <g id="xtick_17">
     <g id="line2d_17">
      <g>
       <use style="stroke:#000000;stroke-width:0.6;" x="342.990079" xlink:href="#ma03cfd8170" y="288.430125"/>
      </g>
     </g>
    </g>
    <g id="xtick_18">
     <g id="line2d_18">
      <g>
       <use style="stroke:#000000;stroke-width:0.6;" x="364.900542" xlink:href="#ma03cfd8170" y="288.430125"/>
      </g>
     </g>
    </g>
    <g id="xtick_19">
     <g id="line2d_19">
      <g>
       <use style="stroke:#000000;stroke-width:0.6;" x="381.895618" xlink:href="#ma03cfd8170" y="288.430125"/>
      </g>
     </g>
    </g>
    <g id="xtick_20">
     <g id="line2d_20">
      <g>
       <use style="stroke:#000000;stroke-width:0.6;" x="395.781606" xlink:href="#ma03cfd8170" y="288.430125"/>
      </g>
     </g>
    </g>
    <g id="xtick_21">
     <g id="line2d_21">
      <g>
       <use style="stroke:#000000;stroke-width:0.6;" x="407.522042" xlink:href="#ma03cfd8170" y="288.430125"/>
      </g>
     </g>
    </g>
    <g id="text_7">
     <!-- Time (hour:minute) -->
     <g transform="translate(189.843594 316.706687)scale(0.1 -0.1)">
      <defs>
       <path d="M -19 4666 
L 3928 4666 
L 3928 4134 
L 2272 4134 
L 2272 0 
L 1638 0 
L 1638 4134 
L -19 4134 
L -19 4666 
z
" id="DejaVuSans-54" transform="scale(0.015625)"/>
       <path d="M 603 3500 
L 1178 3500 
L 1178 0 
L 603 0 
L 603 3500 
z
M 603 4863 
L 1178 4863 
L 1178 4134 
L 603 4134 
L 603 4863 
z
" id="DejaVuSans-69" transform="scale(0.015625)"/>
       <path d="M 3597 1894 
L 3597 1613 
L 953 1613 
Q 991 1019 1311 708 
Q 1631 397 2203 397 
Q 2534 397 2845 478 
Q 3156 559 3463 722 
L 3463 178 
Q 3153 47 2828 -22 
Q 2503 -91 2169 -91 
Q 1331 -91 842 396 
Q 353 884 353 1716 
Q 353 2575 817 3079 
Q 1281 3584 2069 3584 
Q 2775 3584 3186 3129 
Q 3597 2675 3597 1894 
z
M 3022 2063 
Q 3016 2534 2758 2815 
Q 2500 3097 2075 3097 
Q 1594 3097 1305 2825 
Q 1016 2553 972 2059 
L 3022 2063 
z
" id="DejaVuSans-65" transform="scale(0.015625)"/>
       <path id="DejaVuSans-20" transform="scale(0.015625)"/>
       <path d="M 1984 4856 
Q 1566 4138 1362 3434 
Q 1159 2731 1159 2009 
Q 1159 1288 1364 580 
Q 1569 -128 1984 -844 
L 1484 -844 
Q 1016 -109 783 600 
Q 550 1309 550 2009 
Q 550 2706 781 3412 
Q 1013 4119 1484 4856 
L 1984 4856 
z
" id="DejaVuSans-28" transform="scale(0.015625)"/>
       <path d="M 1959 3097 
Q 1497 3097 1228 2736 
Q 959 2375 959 1747 
Q 959 1119 1226 758 
Q 1494 397 1959 397 
Q 2419 397 2687 759 
Q 2956 1122 2956 1747 
Q 2956 2369 2687 2733 
Q 2419 3097 1959 3097 
z
M 1959 3584 
Q 2709 3584 3137 3096 
Q 3566 2609 3566 1747 
Q 3566 888 3137 398 
Q 2709 -91 1959 -91 
Q 1206 -91 779 398 
Q 353 888 353 1747 
Q 353 2609 779 3096 
Q 1206 3584 1959 3584 
z
" id="DejaVuSans-6f" transform="scale(0.015625)"/>
       <path d="M 544 1381 
L 544 3500 
L 1119 3500 
L 1119 1403 
Q 1119 906 1312 657 
Q 1506 409 1894 409 
Q 2359 409 2629 706 
Q 2900 1003 2900 1516 
L 2900 3500 
L 3475 3500 
L 3475 0 
L 2900 0 
L 2900 538 
Q 2691 219 2414 64 
Q 2138 -91 1772 -91 
Q 1169 -91 856 284 
Q 544 659 544 1381 
z
M 1991 3584 
L 1991 3584 
z
" id="DejaVuSans-75" transform="scale(0.015625)"/>
       <path d="M 2631 2963 
Q 2534 3019 2420 3045 
Q 2306 3072 2169 3072 
Q 1681 3072 1420 2755 
Q 1159 2438 1159 1844 
L 1159 0 
L 581 0 
L 581 3500 
L 1159 3500 
L 1159 2956 
Q 1341 3275 1631 3429 
Q 1922 3584 2338 3584 
Q 2397 3584 2469 3576 
Q 2541 3569 2628 3553 
L 2631 2963 
z
" id="DejaVuSans-72" transform="scale(0.015625)"/>
       <path d="M 3513 2113 
L 3513 0 
L 2938 0 
L 2938 2094 
Q 2938 2591 2744 2837 
Q 2550 3084 2163 3084 
Q 1697 3084 1428 2787 
Q 1159 2491 1159 1978 
L 1159 0 
L 581 0 
L 581 3500 
L 1159 3500 
L 1159 2956 
Q 1366 3272 1645 3428 
Q 1925 3584 2291 3584 
Q 2894 3584 3203 3211 
Q 3513 2838 3513 2113 
z
" id="DejaVuSans-6e" transform="scale(0.015625)"/>
       <path d="M 1172 4494 
L 1172 3500 
L 2356 3500 
L 2356 3053 
L 1172 3053 
L 1172 1153 
Q 1172 725 1289 603 
Q 1406 481 1766 481 
L 2356 481 
L 2356 0 
L 1766 0 
Q 1100 0 847 248 
Q 594 497 594 1153 
L 594 3053 
L 172 3053 
L 172 3500 
L 594 3500 
L 594 4494 
L 1172 4494 
z
" id="DejaVuSans-74" transform="scale(0.015625)"/>
       <path d="M 513 4856 
L 1013 4856 
Q 1481 4119 1714 3412 
Q 1947 2706 1947 2009 
Q 1947 1309 1714 600 
Q 1481 -109 1013 -844 
L 513 -844 
Q 928 -128 1133 580 
Q 1338 1288 1338 2009 
Q 1338 2731 1133 3434 
Q 928 4138 513 4856 
z
" id="DejaVuSans-29" transform="scale(0.015625)"/>
      </defs>
      <use xlink:href="#DejaVuSans-54"/>
      <use x="57.958984" xlink:href="#DejaVuSans-69"/>
      <use x="85.742188" xlink:href="#DejaVuSans-6d"/>
      <use x="183.154297" xlink:href="#DejaVuSans-65"/>
      <use x="244.677734" xlink:href="#DejaVuSans-20"/>
      <use x="276.464844" xlink:href="#DejaVuSans-28"/>
      <use x="315.478516" xlink:href="#DejaVuSans-68"/>
      <use x="378.857422" xlink:href="#DejaVuSans-6f"/>
      <use x="440.039062" xlink:href="#DejaVuSans-75"/>
      <use x="503.417969" xlink:href="#DejaVuSans-72"/>
      <use x="542.78125" xlink:href="#DejaVuSans-3a"/>
      <use x="576.472656" xlink:href="#DejaVuSans-6d"/>
      <use x="673.884766" xlink:href="#DejaVuSans-69"/>
      <use x="701.667969" xlink:href="#DejaVuSans-6e"/>
      <use x="765.046875" xlink:href="#DejaVuSans-75"/>
      <use x="828.425781" xlink:href="#DejaVuSans-74"/>
      <use x="867.634766" xlink:href="#DejaVuSans-65"/>
      <use x="929.158203" xlink:href="#DejaVuSans-29"/>
     </g>
    </g>
   </g>
   <g id="matplotlib.axis_2">
    <g id="ytick_1">
     <g id="line2d_22">
      <defs>
       <path d="M 0 0 
L -3.5 0 
" id="ma669bfa9ab" style="stroke:#000000;stroke-width:0.8;"/>
      </defs>
      <g>
       <use style="stroke:#000000;stroke-width:0.8;" x="59.690625" xlink:href="#ma669bfa9ab" y="247.379606"/>
      </g>
     </g>
     <g id="text_8">
      <!-- 8000 -->
      <g transform="translate(27.240625 251.178825)scale(0.1 -0.1)">
       <defs>
        <path d="M 2034 2216 
Q 1584 2216 1326 1975 
Q 1069 1734 1069 1313 
Q 1069 891 1326 650 
Q 1584 409 2034 409 
Q 2484 409 2743 651 
Q 3003 894 3003 1313 
Q 3003 1734 2745 1975 
Q 2488 2216 2034 2216 
z
M 1403 2484 
Q 997 2584 770 2862 
Q 544 3141 544 3541 
Q 544 4100 942 4425 
Q 1341 4750 2034 4750 
Q 2731 4750 3128 4425 
Q 3525 4100 3525 3541 
Q 3525 3141 3298 2862 
Q 3072 2584 2669 2484 
Q 3125 2378 3379 2068 
Q 3634 1759 3634 1313 
Q 3634 634 3220 271 
Q 2806 -91 2034 -91 
Q 1263 -91 848 271 
Q 434 634 434 1313 
Q 434 1759 690 2068 
Q 947 2378 1403 2484 
z
M 1172 3481 
Q 1172 3119 1398 2916 
Q 1625 2713 2034 2713 
Q 2441 2713 2670 2916 
Q 2900 3119 2900 3481 
Q 2900 3844 2670 4047 
Q 2441 4250 2034 4250 
Q 1625 4250 1398 4047 
Q 1172 3844 1172 3481 
z
" id="DejaVuSans-38" transform="scale(0.015625)"/>
        <path d="M 2034 4250 
Q 1547 4250 1301 3770 
Q 1056 3291 1056 2328 
Q 1056 1369 1301 889 
Q 1547 409 2034 409 
Q 2525 409 2770 889 
Q 3016 1369 3016 2328 
Q 3016 3291 2770 3770 
Q 2525 4250 2034 4250 
z
M 2034 4750 
Q 2819 4750 3233 4129 
Q 3647 3509 3647 2328 
Q 3647 1150 3233 529 
Q 2819 -91 2034 -91 
Q 1250 -91 836 529 
Q 422 1150 422 2328 
Q 422 3509 836 4129 
Q 1250 4750 2034 4750 
z
" id="DejaVuSans-30" transform="scale(0.015625)"/>
       </defs>
       <use xlink:href="#DejaVuSans-38"/>
       <use x="63.623047" xlink:href="#DejaVuSans-30"/>
       <use x="127.246094" xlink:href="#DejaVuSans-30"/>
       <use x="190.869141" xlink:href="#DejaVuSans-30"/>
      </g>
     </g>
    </g>
    <g id="ytick_2">
     <g id="line2d_23">
      <g>
       <use style="stroke:#000000;stroke-width:0.8;" x="59.690625" xlink:href="#ma669bfa9ab" y="197.458021"/>
      </g>
     </g>
     <g id="text_9">
      <!-- 8500 -->
      <g transform="translate(27.240625 201.25724)scale(0.1 -0.1)">
       <use xlink:href="#DejaVuSans-38"/>
       <use x="63.623047" xlink:href="#DejaVuSans-35"/>
       <use x="127.246094" xlink:href="#DejaVuSans-30"/>
       <use x="190.869141" xlink:href="#DejaVuSans-30"/>
      </g>
     </g>
    </g>
    <g id="ytick_3">
     <g id="line2d_24">
      <g>
       <use style="stroke:#000000;stroke-width:0.8;" x="59.690625" xlink:href="#ma669bfa9ab" y="147.536436"/>
      </g>
     </g>
     <g id="text_10">
      <!-- 9000 -->
      <g transform="translate(27.240625 151.335655)scale(0.1 -0.1)">
       <defs>
        <path d="M 703 97 
L 703 672 
Q 941 559 1184 500 
Q 1428 441 1663 441 
Q 2288 441 2617 861 
Q 2947 1281 2994 2138 
Q 2813 1869 2534 1725 
Q 2256 1581 1919 1581 
Q 1219 1581 811 2004 
Q 403 2428 403 3163 
Q 403 3881 828 4315 
Q 1253 4750 1959 4750 
Q 2769 4750 3195 4129 
Q 3622 3509 3622 2328 
Q 3622 1225 3098 567 
Q 2575 -91 1691 -91 
Q 1453 -91 1209 -44 
Q 966 3 703 97 
z
M 1959 2075 
Q 2384 2075 2632 2365 
Q 2881 2656 2881 3163 
Q 2881 3666 2632 3958 
Q 2384 4250 1959 4250 
Q 1534 4250 1286 3958 
Q 1038 3666 1038 3163 
Q 1038 2656 1286 2365 
Q 1534 2075 1959 2075 
z
" id="DejaVuSans-39" transform="scale(0.015625)"/>
       </defs>
       <use xlink:href="#DejaVuSans-39"/>
       <use x="63.623047" xlink:href="#DejaVuSans-30"/>
       <use x="127.246094" xlink:href="#DejaVuSans-30"/>
       <use x="190.869141" xlink:href="#DejaVuSans-30"/>
      </g>
     </g>
    </g>
    <g id="ytick_4">
     <g id="line2d_25">
      <g>
       <use style="stroke:#000000;stroke-width:0.8;" x="59.690625" xlink:href="#ma669bfa9ab" y="97.614851"/>
      </g>
     </g>
     <g id="text_11">
      <!-- 9500 -->
      <g transform="translate(27.240625 101.41407)scale(0.1 -0.1)">
       <use xlink:href="#DejaVuSans-39"/>
       <use x="63.623047" xlink:href="#DejaVuSans-35"/>
       <use x="127.246094" xlink:href="#DejaVuSans-30"/>
       <use x="190.869141" xlink:href="#DejaVuSans-30"/>
      </g>
     </g>
    </g>
    <g id="ytick_5">
     <g id="line2d_26">
      <g>
       <use style="stroke:#000000;stroke-width:0.8;" x="59.690625" xlink:href="#ma669bfa9ab" y="47.693267"/>
      </g>
     </g>
     <g id="text_12">
      <!-- 10000 -->
      <g transform="translate(20.878125 51.492485)scale(0.1 -0.1)">
       <use xlink:href="#DejaVuSans-31"/>
       <use x="63.623047" xlink:href="#DejaVuSans-30"/>
       <use x="127.246094" xlink:href="#DejaVuSans-30"/>
       <use x="190.869141" xlink:href="#DejaVuSans-30"/>
       <use x="254.492188" xlink:href="#DejaVuSans-30"/>
      </g>
     </g>
    </g>
    <g id="text_13">
     <!-- Code region coverage -->
     <g transform="translate(14.798438 210.379594)rotate(-90)scale(0.1 -0.1)">
      <defs>
       <path d="M 4122 4306 
L 4122 3641 
Q 3803 3938 3442 4084 
Q 3081 4231 2675 4231 
Q 1875 4231 1450 3742 
Q 1025 3253 1025 2328 
Q 1025 1406 1450 917 
Q 1875 428 2675 428 
Q 3081 428 3442 575 
Q 3803 722 4122 1019 
L 4122 359 
Q 3791 134 3420 21 
Q 3050 -91 2638 -91 
Q 1578 -91 968 557 
Q 359 1206 359 2328 
Q 359 3453 968 4101 
Q 1578 4750 2638 4750 
Q 3056 4750 3426 4639 
Q 3797 4528 4122 4306 
z
" id="DejaVuSans-43" transform="scale(0.015625)"/>
       <path d="M 2906 2969 
L 2906 4863 
L 3481 4863 
L 3481 0 
L 2906 0 
L 2906 525 
Q 2725 213 2448 61 
Q 2172 -91 1784 -91 
Q 1150 -91 751 415 
Q 353 922 353 1747 
Q 353 2572 751 3078 
Q 1150 3584 1784 3584 
Q 2172 3584 2448 3432 
Q 2725 3281 2906 2969 
z
M 947 1747 
Q 947 1113 1208 752 
Q 1469 391 1925 391 
Q 2381 391 2643 752 
Q 2906 1113 2906 1747 
Q 2906 2381 2643 2742 
Q 2381 3103 1925 3103 
Q 1469 3103 1208 2742 
Q 947 2381 947 1747 
z
" id="DejaVuSans-64" transform="scale(0.015625)"/>
       <path d="M 2906 1791 
Q 2906 2416 2648 2759 
Q 2391 3103 1925 3103 
Q 1463 3103 1205 2759 
Q 947 2416 947 1791 
Q 947 1169 1205 825 
Q 1463 481 1925 481 
Q 2391 481 2648 825 
Q 2906 1169 2906 1791 
z
M 3481 434 
Q 3481 -459 3084 -895 
Q 2688 -1331 1869 -1331 
Q 1566 -1331 1297 -1286 
Q 1028 -1241 775 -1147 
L 775 -588 
Q 1028 -725 1275 -790 
Q 1522 -856 1778 -856 
Q 2344 -856 2625 -561 
Q 2906 -266 2906 331 
L 2906 616 
Q 2728 306 2450 153 
Q 2172 0 1784 0 
Q 1141 0 747 490 
Q 353 981 353 1791 
Q 353 2603 747 3093 
Q 1141 3584 1784 3584 
Q 2172 3584 2450 3431 
Q 2728 3278 2906 2969 
L 2906 3500 
L 3481 3500 
L 3481 434 
z
" id="DejaVuSans-67" transform="scale(0.015625)"/>
       <path d="M 3122 3366 
L 3122 2828 
Q 2878 2963 2633 3030 
Q 2388 3097 2138 3097 
Q 1578 3097 1268 2742 
Q 959 2388 959 1747 
Q 959 1106 1268 751 
Q 1578 397 2138 397 
Q 2388 397 2633 464 
Q 2878 531 3122 666 
L 3122 134 
Q 2881 22 2623 -34 
Q 2366 -91 2075 -91 
Q 1284 -91 818 406 
Q 353 903 353 1747 
Q 353 2603 823 3093 
Q 1294 3584 2113 3584 
Q 2378 3584 2631 3529 
Q 2884 3475 3122 3366 
z
" id="DejaVuSans-63" transform="scale(0.015625)"/>
       <path d="M 191 3500 
L 800 3500 
L 1894 563 
L 2988 3500 
L 3597 3500 
L 2284 0 
L 1503 0 
L 191 3500 
z
" id="DejaVuSans-76" transform="scale(0.015625)"/>
       <path d="M 2194 1759 
Q 1497 1759 1228 1600 
Q 959 1441 959 1056 
Q 959 750 1161 570 
Q 1363 391 1709 391 
Q 2188 391 2477 730 
Q 2766 1069 2766 1631 
L 2766 1759 
L 2194 1759 
z
M 3341 1997 
L 3341 0 
L 2766 0 
L 2766 531 
Q 2569 213 2275 61 
Q 1981 -91 1556 -91 
Q 1019 -91 701 211 
Q 384 513 384 1019 
Q 384 1609 779 1909 
Q 1175 2209 1959 2209 
L 2766 2209 
L 2766 2266 
Q 2766 2663 2505 2880 
Q 2244 3097 1772 3097 
Q 1472 3097 1187 3025 
Q 903 2953 641 2809 
L 641 3341 
Q 956 3463 1253 3523 
Q 1550 3584 1831 3584 
Q 2591 3584 2966 3190 
Q 3341 2797 3341 1997 
z
" id="DejaVuSans-61" transform="scale(0.015625)"/>
      </defs>
      <use xlink:href="#DejaVuSans-43"/>
      <use x="69.824219" xlink:href="#DejaVuSans-6f"/>
      <use x="131.005859" xlink:href="#DejaVuSans-64"/>
      <use x="194.482422" xlink:href="#DejaVuSans-65"/>
      <use x="256.005859" xlink:href="#DejaVuSans-20"/>
      <use x="287.792969" xlink:href="#DejaVuSans-72"/>
      <use x="326.65625" xlink:href="#DejaVuSans-65"/>
      <use x="388.179688" xlink:href="#DejaVuSans-67"/>
      <use x="451.65625" xlink:href="#DejaVuSans-69"/>
      <use x="479.439453" xlink:href="#DejaVuSans-6f"/>
      <use x="540.621094" xlink:href="#DejaVuSans-6e"/>
      <use x="604" xlink:href="#DejaVuSans-20"/>
      <use x="635.787109" xlink:href="#DejaVuSans-63"/>
      <use x="690.767578" xlink:href="#DejaVuSans-6f"/>
      <use x="751.949219" xlink:href="#DejaVuSans-76"/>
      <use x="811.128906" xlink:href="#DejaVuSans-65"/>
      <use x="872.652344" xlink:href="#DejaVuSans-72"/>
      <use x="913.765625" xlink:href="#DejaVuSans-61"/>
      <use x="975.044922" xlink:href="#DejaVuSans-67"/>
      <use x="1038.521484" xlink:href="#DejaVuSans-65"/>
     </g>
    </g>
   </g>
   <g id="line2d_27">
    <path clip-path="url(#pde391de6c8)" d="M 75.923352 209.139672 
L 128.71488 85.833357 
L 159.595944 73.053432 
L 181.506408 67.462214 
L 198.501484 65.565194 
L 212.387472 64.666605 
L 224.127907 59.075388 
L 234.297935 58.576172 
L 243.268536 57.57774 
L 251.293011 57.477897 
L 258.552032 57.078525 
L 265.178999 56.379622 
L 271.275218 55.181504 
L 276.919435 54.981818 
L 282.174075 54.282916 
L 287.089463 54.282916 
L 291.70676 53.883543 
L 296.060064 53.883543 
L 300.177935 52.186209 
L 304.084539 52.186209 
L 307.800499 49.789973 
L 311.34356 49.789973 
L 314.729099 49.789973 
L 317.970527 49.789973 
L 321.079615 48.991228 
L 324.066746 48.791541 
L 326.941128 48.591855 
L 329.710963 48.591855 
L 332.383591 48.192482 
L 334.965603 48.192482 
L 337.462944 48.092639 
L 339.880991 47.992796 
L 342.224624 47.992796 
L 344.498288 47.49358 
L 346.706039 47.49358 
L 348.851591 47.49358 
L 350.938354 47.49358 
L 352.969463 47.393737 
L 354.94781 47.393737 
L 356.876067 47.393737 
L 358.756707 47.393737 
L 360.592027 46.894521 
L 362.384158 46.345384 
L 364.135088 46.295462 
L 365.846667 46.395305 
L 367.520626 46.395305 
L 369.158584 46.395305 
L 370.762055 46.195619 
L 372.332463 45.995933 
L 373.871143 45.995933 
L 375.379352 45.995933 
L 376.858274 45.796246 
L 378.309024 45.796246 
L 379.732655 45.796246 
L 381.130164 45.59656 
L 382.502491 45.796246 
L 383.850527 45.59656 
L 385.175118 41.103617 
L 386.477066 43.549775 
L 387.757131 43.549775 
L 389.016037 41.103617 
L 390.254472 41.003774 
L 391.473091 41.003774 
L 392.672519 41.003774 
L 393.85335 41.003774 
L 395.016152 41.003774 
L 396.161468 41.003774 
L 397.289816 41.003774 
L 398.40169 41.003774 
L 399.497566 41.003774 
L 400.577898 41.103617 
" style="fill:none;stroke:#98df8a;stroke-linecap:square;stroke-width:1.5;"/>
    <defs>
     <path d="M -0 3 
L 3 -3 
L -3 -3 
z
" id="mc72978a436" style="stroke:#ffffff;stroke-linejoin:miter;stroke-width:0.75;"/>
    </defs>
    <g clip-path="url(#pde391de6c8)">
     <use style="fill:#98df8a;stroke:#ffffff;stroke-linejoin:miter;stroke-width:0.75;" x="75.923352" xlink:href="#mc72978a436" y="209.139672"/>
     <use style="fill:#98df8a;stroke:#ffffff;stroke-linejoin:miter;stroke-width:0.75;" x="128.71488" xlink:href="#mc72978a436" y="85.833357"/>
     <use style="fill:#98df8a;stroke:#ffffff;stroke-linejoin:miter;stroke-width:0.75;" x="159.595944" xlink:href="#mc72978a436" y="73.053432"/>
     <use style="fill:#98df8a;stroke:#ffffff;stroke-linejoin:miter;stroke-width:0.75;" x="181.506408" xlink:href="#mc72978a436" y="67.462214"/>
     <use style="fill:#98df8a;stroke:#ffffff;stroke-linejoin:miter;stroke-width:0.75;" x="198.501484" xlink:href="#mc72978a436" y="65.565194"/>
     <use style="fill:#98df8a;stroke:#ffffff;stroke-linejoin:miter;stroke-width:0.75;" x="212.387472" xlink:href="#mc72978a436" y="64.666605"/>
     <use style="fill:#98df8a;stroke:#ffffff;stroke-linejoin:miter;stroke-width:0.75;" x="224.127907" xlink:href="#mc72978a436" y="59.075388"/>
     <use style="fill:#98df8a;stroke:#ffffff;stroke-linejoin:miter;stroke-width:0.75;" x="234.297935" xlink:href="#mc72978a436" y="58.576172"/>
     <use style="fill:#98df8a;stroke:#ffffff;stroke-linejoin:miter;stroke-width:0.75;" x="243.268536" xlink:href="#mc72978a436" y="57.57774"/>
     <use style="fill:#98df8a;stroke:#ffffff;stroke-linejoin:miter;stroke-width:0.75;" x="251.293011" xlink:href="#mc72978a436" y="57.477897"/>
     <use style="fill:#98df8a;stroke:#ffffff;stroke-linejoin:miter;stroke-width:0.75;" x="258.552032" xlink:href="#mc72978a436" y="57.078525"/>
     <use style="fill:#98df8a;stroke:#ffffff;stroke-linejoin:miter;stroke-width:0.75;" x="265.178999" xlink:href="#mc72978a436" y="56.379622"/>
     <use style="fill:#98df8a;stroke:#ffffff;stroke-linejoin:miter;stroke-width:0.75;" x="271.275218" xlink:href="#mc72978a436" y="55.181504"/>
     <use style="fill:#98df8a;stroke:#ffffff;stroke-linejoin:miter;stroke-width:0.75;" x="276.919435" xlink:href="#mc72978a436" y="54.981818"/>
     <use style="fill:#98df8a;stroke:#ffffff;stroke-linejoin:miter;stroke-width:0.75;" x="282.174075" xlink:href="#mc72978a436" y="54.282916"/>
     <use style="fill:#98df8a;stroke:#ffffff;stroke-linejoin:miter;stroke-width:0.75;" x="287.089463" xlink:href="#mc72978a436" y="54.282916"/>
     <use style="fill:#98df8a;stroke:#ffffff;stroke-linejoin:miter;stroke-width:0.75;" x="291.70676" xlink:href="#mc72978a436" y="53.883543"/>
     <use style="fill:#98df8a;stroke:#ffffff;stroke-linejoin:miter;stroke-width:0.75;" x="296.060064" xlink:href="#mc72978a436" y="53.883543"/>
     <use style="fill:#98df8a;stroke:#ffffff;stroke-linejoin:miter;stroke-width:0.75;" x="300.177935" xlink:href="#mc72978a436" y="52.186209"/>
     <use style="fill:#98df8a;stroke:#ffffff;stroke-linejoin:miter;stroke-width:0.75;" x="304.084539" xlink:href="#mc72978a436" y="52.186209"/>
     <use style="fill:#98df8a;stroke:#ffffff;stroke-linejoin:miter;stroke-width:0.75;" x="307.800499" xlink:href="#mc72978a436" y="49.789973"/>
     <use style="fill:#98df8a;stroke:#ffffff;stroke-linejoin:miter;stroke-width:0.75;" x="311.34356" xlink:href="#mc72978a436" y="49.789973"/>
     <use style="fill:#98df8a;stroke:#ffffff;stroke-linejoin:miter;stroke-width:0.75;" x="314.729099" xlink:href="#mc72978a436" y="49.789973"/>
     <use style="fill:#98df8a;stroke:#ffffff;stroke-linejoin:miter;stroke-width:0.75;" x="317.970527" xlink:href="#mc72978a436" y="49.789973"/>
     <use style="fill:#98df8a;stroke:#ffffff;stroke-linejoin:miter;stroke-width:0.75;" x="321.079615" xlink:href="#mc72978a436" y="48.991228"/>
     <use style="fill:#98df8a;stroke:#ffffff;stroke-linejoin:miter;stroke-width:0.75;" x="324.066746" xlink:href="#mc72978a436" y="48.791541"/>
     <use style="fill:#98df8a;stroke:#ffffff;stroke-linejoin:miter;stroke-width:0.75;" x="326.941128" xlink:href="#mc72978a436" y="48.591855"/>
     <use style="fill:#98df8a;stroke:#ffffff;stroke-linejoin:miter;stroke-width:0.75;" x="329.710963" xlink:href="#mc72978a436" y="48.591855"/>
     <use style="fill:#98df8a;stroke:#ffffff;stroke-linejoin:miter;stroke-width:0.75;" x="332.383591" xlink:href="#mc72978a436" y="48.192482"/>
     <use style="fill:#98df8a;stroke:#ffffff;stroke-linejoin:miter;stroke-width:0.75;" x="334.965603" xlink:href="#mc72978a436" y="48.192482"/>
     <use style="fill:#98df8a;stroke:#ffffff;stroke-linejoin:miter;stroke-width:0.75;" x="337.462944" xlink:href="#mc72978a436" y="48.092639"/>
     <use style="fill:#98df8a;stroke:#ffffff;stroke-linejoin:miter;stroke-width:0.75;" x="339.880991" xlink:href="#mc72978a436" y="47.992796"/>
     <use style="fill:#98df8a;stroke:#ffffff;stroke-linejoin:miter;stroke-width:0.75;" x="342.224624" xlink:href="#mc72978a436" y="47.992796"/>
     <use style="fill:#98df8a;stroke:#ffffff;stroke-linejoin:miter;stroke-width:0.75;" x="344.498288" xlink:href="#mc72978a436" y="47.49358"/>
     <use style="fill:#98df8a;stroke:#ffffff;stroke-linejoin:miter;stroke-width:0.75;" x="346.706039" xlink:href="#mc72978a436" y="47.49358"/>
     <use style="fill:#98df8a;stroke:#ffffff;stroke-linejoin:miter;stroke-width:0.75;" x="348.851591" xlink:href="#mc72978a436" y="47.49358"/>
     <use style="fill:#98df8a;stroke:#ffffff;stroke-linejoin:miter;stroke-width:0.75;" x="350.938354" xlink:href="#mc72978a436" y="47.49358"/>
     <use style="fill:#98df8a;stroke:#ffffff;stroke-linejoin:miter;stroke-width:0.75;" x="352.969463" xlink:href="#mc72978a436" y="47.393737"/>
     <use style="fill:#98df8a;stroke:#ffffff;stroke-linejoin:miter;stroke-width:0.75;" x="354.94781" xlink:href="#mc72978a436" y="47.393737"/>
     <use style="fill:#98df8a;stroke:#ffffff;stroke-linejoin:miter;stroke-width:0.75;" x="356.876067" xlink:href="#mc72978a436" y="47.393737"/>
     <use style="fill:#98df8a;stroke:#ffffff;stroke-linejoin:miter;stroke-width:0.75;" x="358.756707" xlink:href="#mc72978a436" y="47.393737"/>
     <use style="fill:#98df8a;stroke:#ffffff;stroke-linejoin:miter;stroke-width:0.75;" x="360.592027" xlink:href="#mc72978a436" y="46.894521"/>
     <use style="fill:#98df8a;stroke:#ffffff;stroke-linejoin:miter;stroke-width:0.75;" x="362.384158" xlink:href="#mc72978a436" y="46.345384"/>
     <use style="fill:#98df8a;stroke:#ffffff;stroke-linejoin:miter;stroke-width:0.75;" x="364.135088" xlink:href="#mc72978a436" y="46.295462"/>
     <use style="fill:#98df8a;stroke:#ffffff;stroke-linejoin:miter;stroke-width:0.75;" x="365.846667" xlink:href="#mc72978a436" y="46.395305"/>
     <use style="fill:#98df8a;stroke:#ffffff;stroke-linejoin:miter;stroke-width:0.75;" x="367.520626" xlink:href="#mc72978a436" y="46.395305"/>
     <use style="fill:#98df8a;stroke:#ffffff;stroke-linejoin:miter;stroke-width:0.75;" x="369.158584" xlink:href="#mc72978a436" y="46.395305"/>
     <use style="fill:#98df8a;stroke:#ffffff;stroke-linejoin:miter;stroke-width:0.75;" x="370.762055" xlink:href="#mc72978a436" y="46.195619"/>
     <use style="fill:#98df8a;stroke:#ffffff;stroke-linejoin:miter;stroke-width:0.75;" x="372.332463" xlink:href="#mc72978a436" y="45.995933"/>
     <use style="fill:#98df8a;stroke:#ffffff;stroke-linejoin:miter;stroke-width:0.75;" x="373.871143" xlink:href="#mc72978a436" y="45.995933"/>
     <use style="fill:#98df8a;stroke:#ffffff;stroke-linejoin:miter;stroke-width:0.75;" x="375.379352" xlink:href="#mc72978a436" y="45.995933"/>
     <use style="fill:#98df8a;stroke:#ffffff;stroke-linejoin:miter;stroke-width:0.75;" x="376.858274" xlink:href="#mc72978a436" y="45.796246"/>
     <use style="fill:#98df8a;stroke:#ffffff;stroke-linejoin:miter;stroke-width:0.75;" x="378.309024" xlink:href="#mc72978a436" y="45.796246"/>
     <use style="fill:#98df8a;stroke:#ffffff;stroke-linejoin:miter;stroke-width:0.75;" x="379.732655" xlink:href="#mc72978a436" y="45.796246"/>
     <use style="fill:#98df8a;stroke:#ffffff;stroke-linejoin:miter;stroke-width:0.75;" x="381.130164" xlink:href="#mc72978a436" y="45.59656"/>
     <use style="fill:#98df8a;stroke:#ffffff;stroke-linejoin:miter;stroke-width:0.75;" x="382.502491" xlink:href="#mc72978a436" y="45.796246"/>
     <use style="fill:#98df8a;stroke:#ffffff;stroke-linejoin:miter;stroke-width:0.75;" x="383.850527" xlink:href="#mc72978a436" y="45.59656"/>
     <use style="fill:#98df8a;stroke:#ffffff;stroke-linejoin:miter;stroke-width:0.75;" x="385.175118" xlink:href="#mc72978a436" y="41.103617"/>
     <use style="fill:#98df8a;stroke:#ffffff;stroke-linejoin:miter;stroke-width:0.75;" x="386.477066" xlink:href="#mc72978a436" y="43.549775"/>
     <use style="fill:#98df8a;stroke:#ffffff;stroke-linejoin:miter;stroke-width:0.75;" x="387.757131" xlink:href="#mc72978a436" y="43.549775"/>
     <use style="fill:#98df8a;stroke:#ffffff;stroke-linejoin:miter;stroke-width:0.75;" x="389.016037" xlink:href="#mc72978a436" y="41.103617"/>
     <use style="fill:#98df8a;stroke:#ffffff;stroke-linejoin:miter;stroke-width:0.75;" x="390.254472" xlink:href="#mc72978a436" y="41.003774"/>
     <use style="fill:#98df8a;stroke:#ffffff;stroke-linejoin:miter;stroke-width:0.75;" x="391.473091" xlink:href="#mc72978a436" y="41.003774"/>
     <use style="fill:#98df8a;stroke:#ffffff;stroke-linejoin:miter;stroke-width:0.75;" x="392.672519" xlink:href="#mc72978a436" y="41.003774"/>
     <use style="fill:#98df8a;stroke:#ffffff;stroke-linejoin:miter;stroke-width:0.75;" x="393.85335" xlink:href="#mc72978a436" y="41.003774"/>
     <use style="fill:#98df8a;stroke:#ffffff;stroke-linejoin:miter;stroke-width:0.75;" x="395.016152" xlink:href="#mc72978a436" y="41.003774"/>
     <use style="fill:#98df8a;stroke:#ffffff;stroke-linejoin:miter;stroke-width:0.75;" x="396.161468" xlink:href="#mc72978a436" y="41.003774"/>
     <use style="fill:#98df8a;stroke:#ffffff;stroke-linejoin:miter;stroke-width:0.75;" x="397.289816" xlink:href="#mc72978a436" y="41.003774"/>
     <use style="fill:#98df8a;stroke:#ffffff;stroke-linejoin:miter;stroke-width:0.75;" x="398.40169" xlink:href="#mc72978a436" y="41.003774"/>
     <use style="fill:#98df8a;stroke:#ffffff;stroke-linejoin:miter;stroke-width:0.75;" x="399.497566" xlink:href="#mc72978a436" y="41.003774"/>
     <use style="fill:#98df8a;stroke:#ffffff;stroke-linejoin:miter;stroke-width:0.75;" x="400.577898" xlink:href="#mc72978a436" y="41.103617"/>
    </g>
   </g>
   <g id="line2d_28">
    <path clip-path="url(#pde391de6c8)" d="M 75.923352 268.346671 
L 128.71488 198.05708 
L 159.595944 180.534604 
L 181.506408 177.090014 
L 198.501484 147.736123 
L 212.387472 145.1402 
L 224.127907 160.665813 
L 234.297935 144.391376 
L 243.268536 135.754942 
L 251.293011 127.218351 
L 258.552032 125.171566 
L 265.178999 124.572507 
L 271.275218 124.372821 
L 276.919435 123.274546 
L 282.174075 122.675487 
L 287.089463 122.475801 
L 291.70676 121.327604 
L 296.060064 120.379094 
L 300.177935 118.731682 
L 304.084539 117.084269 
L 307.800499 114.538269 
L 311.34356 88.379358 
L 314.729099 112.191954 
L 317.970527 113.390072 
L 321.079615 72.104922 
L 324.066746 71.056568 
L 326.941128 107.299639 
L 329.710963 112.142033 
L 332.383591 116.185681 
L 334.965603 110.294934 
L 337.462944 104.903403 
L 339.880991 80.941042 
L 342.224624 93.421438 
L 344.498288 77.945747 
L 346.706039 100.610146 
L 348.851591 100.610146 
L 350.938354 64.666605 
L 352.969463 76.747629 
L 354.94781 94.669478 
L 356.876067 81.689866 
L 358.756707 55.481034 
L 360.592027 72.953588 
L 362.384158 83.237435 
L 364.135088 65.465351 
L 365.846667 59.175231 
L 367.520626 59.175231 
L 369.158584 58.576172 
L 370.762055 61.67131 
L 372.332463 61.67131 
L 373.871143 58.52625 
L 375.379352 58.52625 
L 376.858274 62.120605 
L 378.309024 62.120605 
L 379.732655 55.68072 
L 381.130164 56.179936 
L 382.502491 67.01292 
L 383.850527 56.179936 
L 385.175118 54.682288 
L 386.477066 51.58715 
L 387.757131 51.58715 
L 389.016037 54.682288 
L 390.254472 55.431112 
L 391.473091 54.682288 
L 392.672519 54.382759 
L 393.85335 49.889816 
L 395.016152 56.179936 
L 396.161468 52.385896 
L 397.289816 54.382759 
L 398.40169 55.081661 
L 399.497566 55.081661 
L 400.577898 54.382759 
" style="fill:none;stroke:#1f77b4;stroke-linecap:square;stroke-width:1.5;"/>
    <defs>
     <path d="M 0 3 
C 0.795609 3 1.55874 2.683901 2.12132 2.12132 
C 2.683901 1.55874 3 0.795609 3 0 
C 3 -0.795609 2.683901 -1.55874 2.12132 -2.12132 
C 1.55874 -2.683901 0.795609 -3 0 -3 
C -0.795609 -3 -1.55874 -2.683901 -2.12132 -2.12132 
C -2.683901 -1.55874 -3 -0.795609 -3 0 
C -3 0.795609 -2.683901 1.55874 -2.12132 2.12132 
C -1.55874 2.683901 -0.795609 3 0 3 
z
" id="m76eefa5715" style="stroke:#ffffff;stroke-width:0.75;"/>
    </defs>
    <g clip-path="url(#pde391de6c8)">
     <use style="fill:#1f77b4;stroke:#ffffff;stroke-width:0.75;" x="75.923352" xlink:href="#m76eefa5715" y="268.346671"/>
     <use style="fill:#1f77b4;stroke:#ffffff;stroke-width:0.75;" x="128.71488" xlink:href="#m76eefa5715" y="198.05708"/>
     <use style="fill:#1f77b4;stroke:#ffffff;stroke-width:0.75;" x="159.595944" xlink:href="#m76eefa5715" y="180.534604"/>
     <use style="fill:#1f77b4;stroke:#ffffff;stroke-width:0.75;" x="181.506408" xlink:href="#m76eefa5715" y="177.090014"/>
     <use style="fill:#1f77b4;stroke:#ffffff;stroke-width:0.75;" x="198.501484" xlink:href="#m76eefa5715" y="147.736123"/>
     <use style="fill:#1f77b4;stroke:#ffffff;stroke-width:0.75;" x="212.387472" xlink:href="#m76eefa5715" y="145.1402"/>
     <use style="fill:#1f77b4;stroke:#ffffff;stroke-width:0.75;" x="224.127907" xlink:href="#m76eefa5715" y="160.665813"/>
     <use style="fill:#1f77b4;stroke:#ffffff;stroke-width:0.75;" x="234.297935" xlink:href="#m76eefa5715" y="144.391376"/>
     <use style="fill:#1f77b4;stroke:#ffffff;stroke-width:0.75;" x="243.268536" xlink:href="#m76eefa5715" y="135.754942"/>
     <use style="fill:#1f77b4;stroke:#ffffff;stroke-width:0.75;" x="251.293011" xlink:href="#m76eefa5715" y="127.218351"/>
     <use style="fill:#1f77b4;stroke:#ffffff;stroke-width:0.75;" x="258.552032" xlink:href="#m76eefa5715" y="125.171566"/>
     <use style="fill:#1f77b4;stroke:#ffffff;stroke-width:0.75;" x="265.178999" xlink:href="#m76eefa5715" y="124.572507"/>
     <use style="fill:#1f77b4;stroke:#ffffff;stroke-width:0.75;" x="271.275218" xlink:href="#m76eefa5715" y="124.372821"/>
     <use style="fill:#1f77b4;stroke:#ffffff;stroke-width:0.75;" x="276.919435" xlink:href="#m76eefa5715" y="123.274546"/>
     <use style="fill:#1f77b4;stroke:#ffffff;stroke-width:0.75;" x="282.174075" xlink:href="#m76eefa5715" y="122.675487"/>
     <use style="fill:#1f77b4;stroke:#ffffff;stroke-width:0.75;" x="287.089463" xlink:href="#m76eefa5715" y="122.475801"/>
     <use style="fill:#1f77b4;stroke:#ffffff;stroke-width:0.75;" x="291.70676" xlink:href="#m76eefa5715" y="121.327604"/>
     <use style="fill:#1f77b4;stroke:#ffffff;stroke-width:0.75;" x="296.060064" xlink:href="#m76eefa5715" y="120.379094"/>
     <use style="fill:#1f77b4;stroke:#ffffff;stroke-width:0.75;" x="300.177935" xlink:href="#m76eefa5715" y="118.731682"/>
     <use style="fill:#1f77b4;stroke:#ffffff;stroke-width:0.75;" x="304.084539" xlink:href="#m76eefa5715" y="117.084269"/>
     <use style="fill:#1f77b4;stroke:#ffffff;stroke-width:0.75;" x="307.800499" xlink:href="#m76eefa5715" y="114.538269"/>
     <use style="fill:#1f77b4;stroke:#ffffff;stroke-width:0.75;" x="311.34356" xlink:href="#m76eefa5715" y="88.379358"/>
     <use style="fill:#1f77b4;stroke:#ffffff;stroke-width:0.75;" x="314.729099" xlink:href="#m76eefa5715" y="112.191954"/>
     <use style="fill:#1f77b4;stroke:#ffffff;stroke-width:0.75;" x="317.970527" xlink:href="#m76eefa5715" y="113.390072"/>
     <use style="fill:#1f77b4;stroke:#ffffff;stroke-width:0.75;" x="321.079615" xlink:href="#m76eefa5715" y="72.104922"/>
     <use style="fill:#1f77b4;stroke:#ffffff;stroke-width:0.75;" x="324.066746" xlink:href="#m76eefa5715" y="71.056568"/>
     <use style="fill:#1f77b4;stroke:#ffffff;stroke-width:0.75;" x="326.941128" xlink:href="#m76eefa5715" y="107.299639"/>
     <use style="fill:#1f77b4;stroke:#ffffff;stroke-width:0.75;" x="329.710963" xlink:href="#m76eefa5715" y="112.142033"/>
     <use style="fill:#1f77b4;stroke:#ffffff;stroke-width:0.75;" x="332.383591" xlink:href="#m76eefa5715" y="116.185681"/>
     <use style="fill:#1f77b4;stroke:#ffffff;stroke-width:0.75;" x="334.965603" xlink:href="#m76eefa5715" y="110.294934"/>
     <use style="fill:#1f77b4;stroke:#ffffff;stroke-width:0.75;" x="337.462944" xlink:href="#m76eefa5715" y="104.903403"/>
     <use style="fill:#1f77b4;stroke:#ffffff;stroke-width:0.75;" x="339.880991" xlink:href="#m76eefa5715" y="80.941042"/>
     <use style="fill:#1f77b4;stroke:#ffffff;stroke-width:0.75;" x="342.224624" xlink:href="#m76eefa5715" y="93.421438"/>
     <use style="fill:#1f77b4;stroke:#ffffff;stroke-width:0.75;" x="344.498288" xlink:href="#m76eefa5715" y="77.945747"/>
     <use style="fill:#1f77b4;stroke:#ffffff;stroke-width:0.75;" x="346.706039" xlink:href="#m76eefa5715" y="100.610146"/>
     <use style="fill:#1f77b4;stroke:#ffffff;stroke-width:0.75;" x="348.851591" xlink:href="#m76eefa5715" y="100.610146"/>
     <use style="fill:#1f77b4;stroke:#ffffff;stroke-width:0.75;" x="350.938354" xlink:href="#m76eefa5715" y="64.666605"/>
     <use style="fill:#1f77b4;stroke:#ffffff;stroke-width:0.75;" x="352.969463" xlink:href="#m76eefa5715" y="76.747629"/>
     <use style="fill:#1f77b4;stroke:#ffffff;stroke-width:0.75;" x="354.94781" xlink:href="#m76eefa5715" y="94.669478"/>
     <use style="fill:#1f77b4;stroke:#ffffff;stroke-width:0.75;" x="356.876067" xlink:href="#m76eefa5715" y="81.689866"/>
     <use style="fill:#1f77b4;stroke:#ffffff;stroke-width:0.75;" x="358.756707" xlink:href="#m76eefa5715" y="55.481034"/>
     <use style="fill:#1f77b4;stroke:#ffffff;stroke-width:0.75;" x="360.592027" xlink:href="#m76eefa5715" y="72.953588"/>
     <use style="fill:#1f77b4;stroke:#ffffff;stroke-width:0.75;" x="362.384158" xlink:href="#m76eefa5715" y="83.237435"/>
     <use style="fill:#1f77b4;stroke:#ffffff;stroke-width:0.75;" x="364.135088" xlink:href="#m76eefa5715" y="65.465351"/>
     <use style="fill:#1f77b4;stroke:#ffffff;stroke-width:0.75;" x="365.846667" xlink:href="#m76eefa5715" y="59.175231"/>
     <use style="fill:#1f77b4;stroke:#ffffff;stroke-width:0.75;" x="367.520626" xlink:href="#m76eefa5715" y="59.175231"/>
     <use style="fill:#1f77b4;stroke:#ffffff;stroke-width:0.75;" x="369.158584" xlink:href="#m76eefa5715" y="58.576172"/>
     <use style="fill:#1f77b4;stroke:#ffffff;stroke-width:0.75;" x="370.762055" xlink:href="#m76eefa5715" y="61.67131"/>
     <use style="fill:#1f77b4;stroke:#ffffff;stroke-width:0.75;" x="372.332463" xlink:href="#m76eefa5715" y="61.67131"/>
     <use style="fill:#1f77b4;stroke:#ffffff;stroke-width:0.75;" x="373.871143" xlink:href="#m76eefa5715" y="58.52625"/>
     <use style="fill:#1f77b4;stroke:#ffffff;stroke-width:0.75;" x="375.379352" xlink:href="#m76eefa5715" y="58.52625"/>
     <use style="fill:#1f77b4;stroke:#ffffff;stroke-width:0.75;" x="376.858274" xlink:href="#m76eefa5715" y="62.120605"/>
     <use style="fill:#1f77b4;stroke:#ffffff;stroke-width:0.75;" x="378.309024" xlink:href="#m76eefa5715" y="62.120605"/>
     <use style="fill:#1f77b4;stroke:#ffffff;stroke-width:0.75;" x="379.732655" xlink:href="#m76eefa5715" y="55.68072"/>
     <use style="fill:#1f77b4;stroke:#ffffff;stroke-width:0.75;" x="381.130164" xlink:href="#m76eefa5715" y="56.179936"/>
     <use style="fill:#1f77b4;stroke:#ffffff;stroke-width:0.75;" x="382.502491" xlink:href="#m76eefa5715" y="67.01292"/>
     <use style="fill:#1f77b4;stroke:#ffffff;stroke-width:0.75;" x="383.850527" xlink:href="#m76eefa5715" y="56.179936"/>
     <use style="fill:#1f77b4;stroke:#ffffff;stroke-width:0.75;" x="385.175118" xlink:href="#m76eefa5715" y="54.682288"/>
     <use style="fill:#1f77b4;stroke:#ffffff;stroke-width:0.75;" x="386.477066" xlink:href="#m76eefa5715" y="51.58715"/>
     <use style="fill:#1f77b4;stroke:#ffffff;stroke-width:0.75;" x="387.757131" xlink:href="#m76eefa5715" y="51.58715"/>
     <use style="fill:#1f77b4;stroke:#ffffff;stroke-width:0.75;" x="389.016037" xlink:href="#m76eefa5715" y="54.682288"/>
     <use style="fill:#1f77b4;stroke:#ffffff;stroke-width:0.75;" x="390.254472" xlink:href="#m76eefa5715" y="55.431112"/>
     <use style="fill:#1f77b4;stroke:#ffffff;stroke-width:0.75;" x="391.473091" xlink:href="#m76eefa5715" y="54.682288"/>
     <use style="fill:#1f77b4;stroke:#ffffff;stroke-width:0.75;" x="392.672519" xlink:href="#m76eefa5715" y="54.382759"/>
     <use style="fill:#1f77b4;stroke:#ffffff;stroke-width:0.75;" x="393.85335" xlink:href="#m76eefa5715" y="49.889816"/>
     <use style="fill:#1f77b4;stroke:#ffffff;stroke-width:0.75;" x="395.016152" xlink:href="#m76eefa5715" y="56.179936"/>
     <use style="fill:#1f77b4;stroke:#ffffff;stroke-width:0.75;" x="396.161468" xlink:href="#m76eefa5715" y="52.385896"/>
     <use style="fill:#1f77b4;stroke:#ffffff;stroke-width:0.75;" x="397.289816" xlink:href="#m76eefa5715" y="54.382759"/>
     <use style="fill:#1f77b4;stroke:#ffffff;stroke-width:0.75;" x="398.40169" xlink:href="#m76eefa5715" y="55.081661"/>
     <use style="fill:#1f77b4;stroke:#ffffff;stroke-width:0.75;" x="399.497566" xlink:href="#m76eefa5715" y="55.081661"/>
     <use style="fill:#1f77b4;stroke:#ffffff;stroke-width:0.75;" x="400.577898" xlink:href="#m76eefa5715" y="54.382759"/>
    </g>
   </g>
   <g id="line2d_29"/>
   <g id="line2d_30"/>
   <g id="patch_3">
    <path d="M 59.690625 247.379606 
L 59.690625 47.693267 
" style="fill:none;stroke:#000000;stroke-linecap:square;stroke-linejoin:miter;stroke-width:0.8;"/>
   </g>
   <g id="patch_4">
    <path d="M 75.923352 288.430125 
L 400.57909 288.430125 
" style="fill:none;stroke:#000000;stroke-linecap:square;stroke-linejoin:miter;stroke-width:0.8;"/>
   </g>
   <g id="text_14">
    <!-- zstd_stream_decompress (17h:45m, 6 trials/fuzzer) -->
    <g transform="translate(83.980313 16.318125)scale(0.12 -0.12)">
     <defs>
      <path d="M 353 3500 
L 3084 3500 
L 3084 2975 
L 922 459 
L 3084 459 
L 3084 0 
L 275 0 
L 275 525 
L 2438 3041 
L 353 3041 
L 353 3500 
z
" id="DejaVuSans-7a" transform="scale(0.015625)"/>
      <path d="M 2834 3397 
L 2834 2853 
Q 2591 2978 2328 3040 
Q 2066 3103 1784 3103 
Q 1356 3103 1142 2972 
Q 928 2841 928 2578 
Q 928 2378 1081 2264 
Q 1234 2150 1697 2047 
L 1894 2003 
Q 2506 1872 2764 1633 
Q 3022 1394 3022 966 
Q 3022 478 2636 193 
Q 2250 -91 1575 -91 
Q 1294 -91 989 -36 
Q 684 19 347 128 
L 347 722 
Q 666 556 975 473 
Q 1284 391 1588 391 
Q 1994 391 2212 530 
Q 2431 669 2431 922 
Q 2431 1156 2273 1281 
Q 2116 1406 1581 1522 
L 1381 1569 
Q 847 1681 609 1914 
Q 372 2147 372 2553 
Q 372 3047 722 3315 
Q 1072 3584 1716 3584 
Q 2034 3584 2315 3537 
Q 2597 3491 2834 3397 
z
" id="DejaVuSans-73" transform="scale(0.015625)"/>
      <path d="M 3263 -1063 
L 3263 -1509 
L -63 -1509 
L -63 -1063 
L 3263 -1063 
z
" id="DejaVuSans-5f" transform="scale(0.015625)"/>
      <path d="M 1159 525 
L 1159 -1331 
L 581 -1331 
L 581 3500 
L 1159 3500 
L 1159 2969 
Q 1341 3281 1617 3432 
Q 1894 3584 2278 3584 
Q 2916 3584 3314 3078 
Q 3713 2572 3713 1747 
Q 3713 922 3314 415 
Q 2916 -91 2278 -91 
Q 1894 -91 1617 61 
Q 1341 213 1159 525 
z
M 3116 1747 
Q 3116 2381 2855 2742 
Q 2594 3103 2138 3103 
Q 1681 3103 1420 2742 
Q 1159 2381 1159 1747 
Q 1159 1113 1420 752 
Q 1681 391 2138 391 
Q 2594 391 2855 752 
Q 3116 1113 3116 1747 
z
" id="DejaVuSans-70" transform="scale(0.015625)"/>
      <path d="M 750 794 
L 1409 794 
L 1409 256 
L 897 -744 
L 494 -744 
L 750 256 
L 750 794 
z
" id="DejaVuSans-2c" transform="scale(0.015625)"/>
      <path d="M 2113 2584 
Q 1688 2584 1439 2293 
Q 1191 2003 1191 1497 
Q 1191 994 1439 701 
Q 1688 409 2113 409 
Q 2538 409 2786 701 
Q 3034 994 3034 1497 
Q 3034 2003 2786 2293 
Q 2538 2584 2113 2584 
z
M 3366 4563 
L 3366 3988 
Q 3128 4100 2886 4159 
Q 2644 4219 2406 4219 
Q 1781 4219 1451 3797 
Q 1122 3375 1075 2522 
Q 1259 2794 1537 2939 
Q 1816 3084 2150 3084 
Q 2853 3084 3261 2657 
Q 3669 2231 3669 1497 
Q 3669 778 3244 343 
Q 2819 -91 2113 -91 
Q 1303 -91 875 529 
Q 447 1150 447 2328 
Q 447 3434 972 4092 
Q 1497 4750 2381 4750 
Q 2619 4750 2861 4703 
Q 3103 4656 3366 4563 
z
" id="DejaVuSans-36" transform="scale(0.015625)"/>
      <path d="M 603 4863 
L 1178 4863 
L 1178 0 
L 603 0 
L 603 4863 
z
" id="DejaVuSans-6c" transform="scale(0.015625)"/>
      <path d="M 1625 4666 
L 2156 4666 
L 531 -594 
L 0 -594 
L 1625 4666 
z
" id="DejaVuSans-2f" transform="scale(0.015625)"/>
      <path d="M 2375 4863 
L 2375 4384 
L 1825 4384 
Q 1516 4384 1395 4259 
Q 1275 4134 1275 3809 
L 1275 3500 
L 2222 3500 
L 2222 3053 
L 1275 3053 
L 1275 0 
L 697 0 
L 697 3053 
L 147 3053 
L 147 3500 
L 697 3500 
L 697 3744 
Q 697 4328 969 4595 
Q 1241 4863 1831 4863 
L 2375 4863 
z
" id="DejaVuSans-66" transform="scale(0.015625)"/>
     </defs>
     <use xlink:href="#DejaVuSans-7a"/>
     <use x="52.490234" xlink:href="#DejaVuSans-73"/>
     <use x="104.589844" xlink:href="#DejaVuSans-74"/>
     <use x="143.798828" xlink:href="#DejaVuSans-64"/>
     <use x="207.275391" xlink:href="#DejaVuSans-5f"/>
     <use x="257.275391" xlink:href="#DejaVuSans-73"/>
     <use x="309.375" xlink:href="#DejaVuSans-74"/>
     <use x="348.583984" xlink:href="#DejaVuSans-72"/>
     <use x="387.447266" xlink:href="#DejaVuSans-65"/>
     <use x="448.970703" xlink:href="#DejaVuSans-61"/>
     <use x="510.25" xlink:href="#DejaVuSans-6d"/>
     <use x="607.662109" xlink:href="#DejaVuSans-5f"/>
     <use x="657.662109" xlink:href="#DejaVuSans-64"/>
     <use x="721.138672" xlink:href="#DejaVuSans-65"/>
     <use x="782.662109" xlink:href="#DejaVuSans-63"/>
     <use x="837.642578" xlink:href="#DejaVuSans-6f"/>
     <use x="898.824219" xlink:href="#DejaVuSans-6d"/>
     <use x="996.236328" xlink:href="#DejaVuSans-70"/>
     <use x="1059.712891" xlink:href="#DejaVuSans-72"/>
     <use x="1098.576172" xlink:href="#DejaVuSans-65"/>
     <use x="1160.099609" xlink:href="#DejaVuSans-73"/>
     <use x="1212.199219" xlink:href="#DejaVuSans-73"/>
     <use x="1264.298828" xlink:href="#DejaVuSans-20"/>
     <use x="1296.085938" xlink:href="#DejaVuSans-28"/>
     <use x="1335.099609" xlink:href="#DejaVuSans-31"/>
     <use x="1398.722656" xlink:href="#DejaVuSans-37"/>
     <use x="1462.345703" xlink:href="#DejaVuSans-68"/>
     <use x="1525.724609" xlink:href="#DejaVuSans-3a"/>
     <use x="1559.416016" xlink:href="#DejaVuSans-34"/>
     <use x="1623.039062" xlink:href="#DejaVuSans-35"/>
     <use x="1686.662109" xlink:href="#DejaVuSans-6d"/>
     <use x="1784.074219" xlink:href="#DejaVuSans-2c"/>
     <use x="1815.861328" xlink:href="#DejaVuSans-20"/>
     <use x="1847.648438" xlink:href="#DejaVuSans-36"/>
     <use x="1911.271484" xlink:href="#DejaVuSans-20"/>
     <use x="1943.058594" xlink:href="#DejaVuSans-74"/>
     <use x="1982.267578" xlink:href="#DejaVuSans-72"/>
     <use x="2023.380859" xlink:href="#DejaVuSans-69"/>
     <use x="2051.164062" xlink:href="#DejaVuSans-61"/>
     <use x="2112.443359" xlink:href="#DejaVuSans-6c"/>
     <use x="2140.226562" xlink:href="#DejaVuSans-73"/>
     <use x="2192.326172" xlink:href="#DejaVuSans-2f"/>
     <use x="2226.017578" xlink:href="#DejaVuSans-66"/>
     <use x="2261.222656" xlink:href="#DejaVuSans-75"/>
     <use x="2324.601562" xlink:href="#DejaVuSans-7a"/>
     <use x="2377.091797" xlink:href="#DejaVuSans-7a"/>
     <use x="2429.582031" xlink:href="#DejaVuSans-65"/>
     <use x="2491.105469" xlink:href="#DejaVuSans-72"/>
     <use x="2532.21875" xlink:href="#DejaVuSans-29"/>
    </g>
   </g>
   <g id="legend_1">
    <g id="line2d_31">
     <path d="M 420.810625 30.416562 
L 440.810625 30.416562 
" style="fill:none;stroke:#98df8a;stroke-linecap:square;stroke-width:1.5;"/>
    </g>
    <g id="line2d_32">
     <defs>
      <path d="M -0 3 
L 3 -3 
L -3 -3 
z
" id="mfed6cc406e" style="stroke:#98df8a;stroke-linejoin:miter;"/>
     </defs>
     <g>
      <use style="fill:#98df8a;stroke:#98df8a;stroke-linejoin:miter;" x="430.810625" xlink:href="#mfed6cc406e" y="30.416562"/>
     </g>
    </g>
    <g id="text_15">
     <!-- afl_splicing_mutation -->
     <g transform="translate(448.810625 33.916562)scale(0.1 -0.1)">
      <use xlink:href="#DejaVuSans-61"/>
      <use x="61.279297" xlink:href="#DejaVuSans-66"/>
      <use x="96.484375" xlink:href="#DejaVuSans-6c"/>
      <use x="124.267578" xlink:href="#DejaVuSans-5f"/>
      <use x="174.267578" xlink:href="#DejaVuSans-73"/>
      <use x="226.367188" xlink:href="#DejaVuSans-70"/>
      <use x="289.84375" xlink:href="#DejaVuSans-6c"/>
      <use x="317.626953" xlink:href="#DejaVuSans-69"/>
      <use x="345.410156" xlink:href="#DejaVuSans-63"/>
      <use x="400.390625" xlink:href="#DejaVuSans-69"/>
      <use x="428.173828" xlink:href="#DejaVuSans-6e"/>
      <use x="491.552734" xlink:href="#DejaVuSans-67"/>
      <use x="555.029297" xlink:href="#DejaVuSans-5f"/>
      <use x="605.029297" xlink:href="#DejaVuSans-6d"/>
      <use x="702.441406" xlink:href="#DejaVuSans-75"/>
      <use x="765.820312" xlink:href="#DejaVuSans-74"/>
      <use x="805.029297" xlink:href="#DejaVuSans-61"/>
      <use x="866.308594" xlink:href="#DejaVuSans-74"/>
      <use x="905.517578" xlink:href="#DejaVuSans-69"/>
      <use x="933.300781" xlink:href="#DejaVuSans-6f"/>
      <use x="994.482422" xlink:href="#DejaVuSans-6e"/>
     </g>
    </g>
    <g id="line2d_33">
     <path d="M 420.810625 45.372813 
L 440.810625 45.372813 
" style="fill:none;stroke:#1f77b4;stroke-linecap:square;stroke-width:1.5;"/>
    </g>
    <g id="line2d_34">
     <defs>
      <path d="M 0 3 
C 0.795609 3 1.55874 2.683901 2.12132 2.12132 
C 2.683901 1.55874 3 0.795609 3 0 
C 3 -0.795609 2.683901 -1.55874 2.12132 -2.12132 
C 1.55874 -2.683901 0.795609 -3 0 -3 
C -0.795609 -3 -1.55874 -2.683901 -2.12132 -2.12132 
C -2.683901 -1.55874 -3 -0.795609 -3 0 
C -3 0.795609 -2.683901 1.55874 -2.12132 2.12132 
C -1.55874 2.683901 -0.795609 3 0 3 
z
" id="m9662511369" style="stroke:#1f77b4;"/>
     </defs>
     <g>
      <use style="fill:#1f77b4;stroke:#1f77b4;" x="430.810625" xlink:href="#m9662511369" y="45.372813"/>
     </g>
    </g>
    <g id="text_16">
     <!-- afl -->
     <g transform="translate(448.810625 48.872813)scale(0.1 -0.1)">
      <use xlink:href="#DejaVuSans-61"/>
      <use x="61.279297" xlink:href="#DejaVuSans-66"/>
      <use x="96.484375" xlink:href="#DejaVuSans-6c"/>
     </g>
    </g>
   </g>
  </g>
 </g>
 <defs>
  <clipPath id="pde391de6c8">
   <rect height="266.112" width="357.12" x="59.690625" y="22.318125"/>
  </clipPath>
 </defs>
</svg>
